<?xml version="1.0" encoding="UTF-8"?>
<svg xmlns="http://www.w3.org/2000/svg" xmlns:xlink="http://www.w3.org/1999/xlink" width="40px" height="40px" viewBox="0 0 40 40" version="1.1">
<g id="surface1">
<path style=" stroke:none;fill-rule:evenodd;fill:rgb(0%,76.862746%,100%);fill-opacity:1;" d="M 0 0 L 40 0 L 40 13.367188 L 0 13.367188 Z M 0 0 "/>
<path style=" stroke:none;fill-rule:evenodd;fill:rgb(100%,100%,100%);fill-opacity:1;" d="M 0 13.3125 L 40 13.3125 L 40 26.683594 L 0 26.683594 Z M 0 13.3125 "/>
<path style=" stroke:none;fill-rule:evenodd;fill:rgb(0%,76.862746%,100%);fill-opacity:1;" d="M 0 26.628906 L 40 26.628906 L 40 39.996094 L 0 39.996094 Z M 0 26.628906 "/>
<path style="fill-rule:evenodd;fill:rgb(100%,83.92157%,0%);fill-opacity:1;stroke-width:0.625;stroke-linecap:butt;stroke-linejoin:miter;stroke:rgb(0%,0%,0%);stroke-opacity:0.388235;stroke-miterlimit:4;" d="M 382.484704 221.326158 C 382.484704 235.88411 370.643167 247.707419 355.989759 247.707419 C 341.336352 247.707419 329.494814 235.88411 329.494814 221.326158 C 329.494814 206.768206 341.336352 194.944897 355.989759 194.944897 C 370.643167 194.944897 382.484704 206.768206 382.484704 221.326158 Z M 382.484704 221.326158 " transform="matrix(0.0986332,0,0,0.0971333,-14.909285,-1.533305)"/>
<path style="fill:none;stroke-width:0.5;stroke-linecap:butt;stroke-linejoin:miter;stroke:rgb(0%,0%,0%);stroke-opacity:0.388235;stroke-miterlimit:4;" d="M 364.44182 195.260959 C 360.082131 194.255328 355.619861 195.684383 354.235018 195.578527 C 352.337271 195.578527 347.464678 193.93776 344.079507 195.578527 " transform="matrix(0.0761594,0,0,0.0738031,-6.814259,3.72194)"/>
<path style="fill:none;stroke-width:0.5;stroke-linecap:butt;stroke-linejoin:miter;stroke:rgb(0%,0%,0%);stroke-opacity:0.388235;stroke-miterlimit:4;" d="M 338.694009 200.500827 C 343.002407 197.483933 347.823711 201.559386 349.105972 200.818395 C 352.593724 198.489565 355.825023 198.912988 359.158902 201.030107 C 361.364392 202.300378 365.108596 197.325149 369.468285 201.347674 " transform="matrix(0.0761594,0,0,0.0738031,-6.814259,3.72194)"/>
<path style="fill-rule:evenodd;fill:rgb(93.725491%,75.294119%,0%);fill-opacity:1;stroke-width:0.5;stroke-linecap:butt;stroke-linejoin:miter;stroke:rgb(0%,0%,0%);stroke-opacity:0.388235;stroke-miterlimit:4;" d="M 333.872706 205.634839 C 336.129486 203.782361 343.566603 203.729433 351.208881 208.069525 C 352.337271 207.751958 353.106628 206.958038 352.132109 205.846551 C 346.387578 203.835289 339.719818 201.347674 333.564963 203.200153 C 331.872378 204.417496 332.282701 205.158488 333.872706 205.634839 Z M 333.872706 205.634839 " transform="matrix(0.0761594,0,0,0.0738031,-6.814259,3.72194)"/>
<path style="fill-rule:evenodd;fill:rgb(93.725491%,75.294119%,0%);fill-opacity:1;stroke-width:0.5;stroke-linecap:butt;stroke-linejoin:miter;stroke:rgb(0%,0%,0%);stroke-opacity:0.388235;stroke-miterlimit:4;" d="M 333.887162 205.634839 C 336.143942 203.782361 343.581059 203.729433 351.223338 208.069525 C 352.351728 207.751958 353.069794 206.958038 352.146566 205.846551 C 346.402034 203.835289 339.734274 201.347674 333.579419 203.200153 C 331.886834 204.417496 332.297158 205.158488 333.887162 205.634839 Z M 333.887162 205.634839 " transform="matrix(-0.0761594,0,0,0.0738031,47.135673,3.72194)"/>
<path style="fill-rule:evenodd;fill:rgb(94.117647%,74.901962%,0%);fill-opacity:1;stroke-width:0.625;stroke-linecap:butt;stroke-linejoin:round;stroke:rgb(0%,0%,0%);stroke-opacity:0.388235;stroke-miterlimit:4;" d="M 330.846568 211.827411 C 338.386266 207.010966 348.285325 209.49858 352.491143 212.144979 C 346.387578 210.980563 346.284997 210.451284 341.874017 210.345428 C 338.745299 210.451284 334.180448 210.133716 330.846568 211.827411 Z M 330.846568 211.827411 " transform="matrix(0.0761594,0,0,0.0738031,-6.814259,3.72194)"/>
<path style="fill:none;stroke-width:0.625;stroke-linecap:butt;stroke-linejoin:miter;stroke:rgb(0%,0%,0%);stroke-opacity:0.388235;stroke-miterlimit:4;" d="M 348.080163 211.298131 C 344.38725 218.972685 337.975942 219.078541 333.462382 210.874707 " transform="matrix(0.0761594,0,0,0.0738031,-6.814259,3.72194)"/>
<path style=" stroke:none;fill-rule:evenodd;fill:rgb(0%,0%,0%);fill-opacity:0.368627;" d="M 19.542969 19.488281 C 19.460938 19.582031 19.257812 19.632812 19.089844 19.609375 C 18.921875 19.585938 18.855469 19.492188 18.9375 19.402344 C 19.019531 19.3125 19.222656 19.257812 19.390625 19.28125 C 19.558594 19.304688 19.628906 19.398438 19.542969 19.488281 Z M 19.542969 19.488281 "/>
<path style=" stroke:none;fill-rule:evenodd;fill:rgb(100%,84.313726%,0%);fill-opacity:1;" d="M 19.132812 19.375 C 19.140625 19.394531 19.113281 19.421875 19.074219 19.4375 C 19.03125 19.449219 18.992188 19.445312 18.984375 19.421875 C 18.972656 19.402344 19 19.375 19.042969 19.359375 C 19.082031 19.347656 19.125 19.351562 19.132812 19.375 Z M 19.132812 19.375 "/>
<path style="fill:none;stroke-width:0.625;stroke-linecap:butt;stroke-linejoin:miter;stroke:rgb(0%,0%,0%);stroke-opacity:0.388235;stroke-miterlimit:4;" d="M 349.157263 224.477193 C 344.951445 231.622468 350.695977 226.594312 351.670495 228.658502 C 353.31179 230.563909 354.953085 230.140485 355.927603 228.658502 C 356.902122 227.017736 363.056977 231.781252 358.85116 224.741833 " transform="matrix(0.0761594,0,0,0.0738031,-6.814259,3.72194)"/>
<path style="fill:none;stroke-width:0.625;stroke-linecap:round;stroke-linejoin:round;stroke:rgb(0%,0%,0%);stroke-opacity:0.388235;stroke-miterlimit:4;" d="M 341.617565 236.333057 C 345.259188 235.909633 351.414043 233.104451 353.568242 235.433281 C 355.465989 233.369091 362.031168 236.015489 366.288276 236.333057 C 363.210849 238.185535 357.004703 236.915264 354.029856 238.873599 C 351.1063 237.126976 344.746283 238.767743 341.617565 236.333057 Z M 341.617565 236.333057 " transform="matrix(0.0761594,0,0,0.0738031,-6.814259,3.72194)"/>
<path style="fill:none;stroke-width:0.625;stroke-linecap:butt;stroke-linejoin:round;stroke:rgb(0%,0%,0%);stroke-opacity:0.388235;stroke-miterlimit:4;" d="M 347.515968 239.561662 C 353.004047 241.837565 354.235018 241.467069 360.236002 239.826302 C 358.953741 243.054908 355.825023 243.742971 354.029856 243.637115 C 352.1834 243.531259 349.618877 243.742971 347.515968 239.561662 Z M 347.515968 239.561662 " transform="matrix(0.0761594,0,0,0.0738031,-6.814259,3.72194)"/>
<path style="fill-rule:evenodd;fill:rgb(100%,84.313726%,0%);fill-opacity:1;stroke-width:0.625;stroke-linecap:butt;stroke-linejoin:round;stroke:rgb(0%,0%,0%);stroke-opacity:0.388235;stroke-miterlimit:4;" d="M 343.156279 258.086449 C 339.206913 268.460329 343.566603 273.435558 341.617565 279.045921 C 339.719818 284.444573 331.564635 297.78242 337.770781 303.604495 C 342.694665 303.816207 336.950133 296.247509 346.797902 282.168671 C 351.362752 275.552676 345.618221 271.371367 350.439524 258.456944 C 350.849848 257.345457 343.771764 256.445682 343.156279 258.086449 Z M 343.156279 258.086449 " transform="matrix(0.0761594,0,0,0.0738031,-6.814259,3.72194)"/>
<path style="fill-rule:evenodd;fill:rgb(100%,84.313726%,0%);fill-opacity:1;stroke-width:0.625;stroke-linecap:butt;stroke-linejoin:round;stroke:rgb(0%,0%,0%);stroke-opacity:0.388235;stroke-miterlimit:4;" d="M 342.94712 258.141725 C 341.459697 269.838804 342.331635 305.723962 346.024548 304.294907 C 350.076494 305.618106 350.589399 269.150741 350.230366 258.353437 C 350.179075 257.136094 343.203573 256.395102 342.94712 258.141725 Z M 342.94712 258.141725 " transform="matrix(0.0761594,0,0,0.0738031,-6.157705,3.772548)"/>
<path style="fill:none;stroke-width:0.625;stroke-linecap:butt;stroke-linejoin:round;stroke:rgb(0%,0%,0%);stroke-opacity:0.388235;stroke-miterlimit:4;" d="M 343.152748 258.060662 C 339.19808 268.482811 343.557473 273.41469 341.578182 279.031123 C 339.747312 284.42253 331.5792 297.830815 337.776241 303.598088 C 342.710799 303.835211 336.927696 296.251464 346.793573 282.134763 C 351.355816 275.565278 345.593009 271.407673 350.443892 258.456139 C 350.891289 257.33885 343.823664 256.421579 343.152748 258.060662 Z M 343.152748 258.060662 " transform="matrix(-0.0544365,-0.0516148,-0.0532637,0.0527518,51.214346,26.629846)"/>
<path style="fill:none;stroke-width:0.625;stroke-linecap:butt;stroke-linejoin:round;stroke:rgb(0%,0%,0%);stroke-opacity:0.388235;stroke-miterlimit:4;" d="M 343.146734 258.052572 C 339.18075 268.455299 343.548288 273.451314 341.592847 279.002748 C 339.707266 284.407221 331.581246 297.771178 337.776571 303.62418 C 342.682539 303.834672 336.921124 296.252802 346.796773 282.161553 C 351.340766 275.555823 345.59403 271.362755 350.415 258.423073 C 350.866202 257.35731 343.803671 256.398569 343.146734 258.052572 Z M 343.146734 258.052572 " transform="matrix(0.0532927,0.0527237,-0.0544074,0.0516428,13.299638,-10.05526)"/>
<path style="fill:none;stroke-width:0.625;stroke-linecap:butt;stroke-linejoin:round;stroke:rgb(0%,0%,0%);stroke-opacity:0.388235;stroke-miterlimit:4;" d="M 343.184786 258.063097 C 339.169001 268.447019 343.537703 273.397108 341.611565 278.998927 C 339.737467 284.446574 331.557232 297.778061 337.783419 303.589407 C 342.707162 303.817519 336.947285 296.259591 346.816775 282.149013 C 351.383683 275.557461 345.590365 271.384939 350.438229 258.431672 C 350.855449 257.352157 343.810469 256.41818 343.184786 258.063097 Z M 343.184786 258.063097 " transform="matrix(-0.000438406,-0.0738012,-0.0761584,0.00042484,37.108819,46.038129)"/>
<path style="fill:none;stroke-width:0.625;stroke-linecap:butt;stroke-linejoin:round;stroke:rgb(0%,0%,0%);stroke-opacity:0.388235;stroke-miterlimit:4;" d="M 342.974805 258.173596 C 341.429784 269.85037 342.351013 305.734225 345.987447 304.312118 C 350.061224 305.618509 350.570552 269.143849 350.213072 258.37234 C 350.185058 257.148531 343.178573 256.415704 342.974805 258.173596 Z M 342.974805 258.173596 " transform="matrix(-0.0698638,-0.0293819,-0.0303196,0.0677021,51.140804,15.301495)"/>
<path style="fill:none;stroke-width:0.625;stroke-linecap:butt;stroke-linejoin:round;stroke:rgb(0%,0%,0%);stroke-opacity:0.388235;stroke-miterlimit:4;" d="M 342.999035 258.152369 C 341.428904 269.831104 342.346991 305.731796 346.005581 304.283925 C 350.046526 305.59043 350.606367 269.139728 350.216885 258.353739 C 350.152972 257.176242 343.197591 256.416152 342.999035 258.152369 Z M 342.999035 258.152369 " transform="matrix(-0.0542516,-0.0517977,-0.0534514,0.0525728,50.668587,26.366644)"/>
<path style="fill:none;stroke-width:0.625;stroke-linecap:butt;stroke-linejoin:round;stroke:rgb(0%,0%,0%);stroke-opacity:0.388235;stroke-miterlimit:4;" d="M 342.985444 258.180683 C 341.448247 269.865795 342.363877 305.750964 346.009284 304.314988 C 350.063484 305.602936 350.580793 269.165228 350.237929 258.333892 C 350.138058 257.150441 343.163727 256.433399 342.985444 258.180683 Z M 342.985444 258.180683 " transform="matrix(-0.0297583,-0.0679353,-0.0701048,0.0288381,45.884494,37.140528)"/>
<path style="fill:none;stroke-width:0.625;stroke-linecap:butt;stroke-linejoin:miter;stroke:rgb(0%,0%,0%);stroke-opacity:0.0823529;stroke-miterlimit:4;" d="M 349.157263 224.477193 C 344.951445 231.622468 350.695977 226.594312 351.670495 228.658502 C 353.31179 230.563909 354.953085 230.140485 355.927603 228.658502 C 356.902122 227.017736 363.056977 231.781252 358.85116 224.741833 " transform="matrix(0.0761594,0,0,0.0738031,-6.814259,3.72194)"/>
<path style="fill-rule:evenodd;fill:rgb(94.117647%,74.901962%,0%);fill-opacity:1;stroke-width:0.625;stroke-linecap:round;stroke-linejoin:round;stroke:rgb(0%,0%,0%);stroke-opacity:0.0823529;stroke-miterlimit:4;" d="M 341.617565 236.333057 C 345.259188 235.909633 351.414043 233.104451 353.568242 235.433281 C 355.465989 233.369091 362.031168 236.015489 366.288276 236.333057 C 363.210849 238.185535 357.004703 236.915264 354.029856 238.873599 C 351.1063 237.126976 344.746283 238.767743 341.617565 236.333057 Z M 341.617565 236.333057 " transform="matrix(0.0761594,0,0,0.0738031,-6.814259,3.72194)"/>
<path style="fill-rule:evenodd;fill:rgb(94.117647%,74.901962%,0%);fill-opacity:1;stroke-width:0.625;stroke-linecap:butt;stroke-linejoin:round;stroke:rgb(0%,0%,0%);stroke-opacity:0.0823529;stroke-miterlimit:4;" d="M 347.515968 239.561662 C 353.004047 241.837565 354.235018 241.467069 360.236002 239.826302 C 358.953741 243.054908 355.825023 243.742971 354.029856 243.637115 C 352.1834 243.531259 349.618877 243.742971 347.515968 239.561662 Z M 347.515968 239.561662 " transform="matrix(0.0761594,0,0,0.0738031,-6.814259,3.72194)"/>
<path style="fill-rule:evenodd;fill:rgb(100%,84.313726%,0%);fill-opacity:1;stroke-width:0.625;stroke-linecap:butt;stroke-linejoin:round;stroke:rgb(0%,0%,0%);stroke-opacity:0.14902;stroke-miterlimit:4;" d="M 343.152748 258.060662 C 339.19808 268.482811 343.557473 273.41469 341.578182 279.031123 C 339.747312 284.42253 331.5792 297.830815 337.776241 303.598088 C 342.710799 303.835211 336.927696 296.251464 346.793573 282.134763 C 351.355816 275.565278 345.593009 271.407673 350.443892 258.456139 C 350.891289 257.33885 343.823664 256.421579 343.152748 258.060662 Z M 343.152748 258.060662 " transform="matrix(-0.0544365,-0.0516148,-0.0532637,0.0527518,51.214346,26.629846)"/>
<path style="fill-rule:evenodd;fill:rgb(100%,84.313726%,0%);fill-opacity:1;stroke-width:0.625;stroke-linecap:butt;stroke-linejoin:round;stroke:rgb(0%,0%,0%);stroke-opacity:0.14902;stroke-miterlimit:4;" d="M 343.146734 258.052572 C 339.18075 268.455299 343.548288 273.451314 341.592847 279.002748 C 339.707266 284.407221 331.581246 297.771178 337.776571 303.62418 C 342.682539 303.834672 336.921124 296.252802 346.796773 282.161553 C 351.340766 275.555823 345.59403 271.362755 350.415 258.423073 C 350.866202 257.35731 343.803671 256.398569 343.146734 258.052572 Z M 343.146734 258.052572 " transform="matrix(0.0532927,0.0527237,-0.0544074,0.0516428,13.299638,-10.05526)"/>
<path style="fill-rule:evenodd;fill:rgb(100%,84.313726%,0%);fill-opacity:1;stroke-width:0.625;stroke-linecap:butt;stroke-linejoin:round;stroke:rgb(0%,0%,0%);stroke-opacity:0.14902;stroke-miterlimit:4;" d="M 343.184786 258.063097 C 339.169001 268.447019 343.537703 273.397108 341.611565 278.998927 C 339.737467 284.446574 331.557232 297.778061 337.783419 303.589407 C 342.707162 303.817519 336.947285 296.259591 346.816775 282.149013 C 351.383683 275.557461 345.590365 271.384939 350.438229 258.431672 C 350.855449 257.352157 343.810469 256.41818 343.184786 258.063097 Z M 343.184786 258.063097 " transform="matrix(-0.000438406,-0.0738012,-0.0761584,0.00042484,37.108819,46.038129)"/>
<path style="fill-rule:evenodd;fill:rgb(100%,84.313726%,0%);fill-opacity:1;stroke-width:0.625;stroke-linecap:butt;stroke-linejoin:round;stroke:rgb(0%,0%,0%);stroke-opacity:0.14902;stroke-miterlimit:4;" d="M 342.974805 258.173596 C 341.429784 269.85037 342.351013 305.734225 345.987447 304.312118 C 350.061224 305.618509 350.570552 269.143849 350.213072 258.37234 C 350.185058 257.148531 343.178573 256.415704 342.974805 258.173596 Z M 342.974805 258.173596 " transform="matrix(-0.0698638,-0.0293819,-0.0303196,0.0677021,51.140804,15.301495)"/>
<path style="fill-rule:evenodd;fill:rgb(100%,84.313726%,0%);fill-opacity:1;stroke-width:0.625;stroke-linecap:butt;stroke-linejoin:round;stroke:rgb(0%,0%,0%);stroke-opacity:0.14902;stroke-miterlimit:4;" d="M 342.999035 258.152369 C 341.428904 269.831104 342.346991 305.731796 346.005581 304.283925 C 350.046526 305.59043 350.606367 269.139728 350.216885 258.353739 C 350.152972 257.176242 343.197591 256.416152 342.999035 258.152369 Z M 342.999035 258.152369 " transform="matrix(-0.0542516,-0.0517977,-0.0534514,0.0525728,50.668587,26.366644)"/>
<path style="fill-rule:evenodd;fill:rgb(100%,84.313726%,0%);fill-opacity:1;stroke-width:0.625;stroke-linecap:butt;stroke-linejoin:round;stroke:rgb(0%,0%,0%);stroke-opacity:0.14902;stroke-miterlimit:4;" d="M 342.985444 258.180683 C 341.448247 269.865795 342.363877 305.750964 346.009284 304.314988 C 350.063484 305.602936 350.580793 269.165228 350.237929 258.333892 C 350.138058 257.150441 343.163727 256.433399 342.985444 258.180683 Z M 342.985444 258.180683 " transform="matrix(-0.0297583,-0.0679353,-0.0701048,0.0288381,45.884494,37.140528)"/>
<path style="fill-rule:evenodd;fill:rgb(100%,84.313726%,0%);fill-opacity:1;stroke-width:0.625;stroke-linecap:butt;stroke-linejoin:round;stroke:rgb(0%,0%,0%);stroke-opacity:0.388235;stroke-miterlimit:4;" d="M 342.971324 258.18108 C 341.436413 269.824015 342.336188 305.727337 345.988217 304.291204 C 350.06367 305.624756 350.59295 269.157239 350.222454 258.334952 C 350.169526 257.155271 343.183035 256.437205 342.971324 258.18108 Z M 342.971324 258.18108 " transform="matrix(0,-0.0738031,0.0761594,0,3.50115,45.527206)"/>
<path style="fill-rule:evenodd;fill:rgb(100%,84.313726%,0%);fill-opacity:1;stroke-width:0.625;stroke-linecap:butt;stroke-linejoin:round;stroke:rgb(0%,0%,0%);stroke-opacity:0.388235;stroke-miterlimit:4;" d="M 343.171263 258.046218 C 339.170608 268.473027 343.530297 273.395327 341.581259 279.005691 C 339.734803 284.404343 331.579619 297.795117 337.785765 303.617193 C 342.709649 303.828905 336.913827 296.260206 346.812886 282.181369 C 351.377737 275.565373 345.581915 271.384065 350.403218 258.469642 C 350.864832 257.358155 343.786749 256.405452 343.171263 258.046218 Z M 343.171263 258.046218 " transform="matrix(-0.0761594,0,0,0.0738031,47.237276,3.760065)"/>
<path style="fill-rule:evenodd;fill:rgb(100%,84.313726%,0%);fill-opacity:1;stroke-width:0.625;stroke-linecap:butt;stroke-linejoin:round;stroke:rgb(0%,0%,0%);stroke-opacity:0.388235;stroke-miterlimit:4;" d="M 343.181209 258.03953 C 339.189525 268.49951 343.548918 273.43139 341.606643 279.009991 C 339.738757 284.439229 331.571 297.773812 337.767686 303.614788 C 342.702244 303.851911 336.956157 296.230332 346.785018 282.151463 C 351.384278 275.544146 345.62147 271.386541 350.398677 258.436968 C 350.882733 257.355549 343.778449 256.402408 343.181209 258.03953 Z M 343.181209 258.03953 " transform="matrix(0.0544365,-0.0516148,0.0532637,0.0527518,-10.769458,26.667586)"/>
<path style="fill-rule:evenodd;fill:rgb(100%,84.313726%,0%);fill-opacity:1;stroke-width:0.625;stroke-linecap:butt;stroke-linejoin:round;stroke:rgb(0%,0%,0%);stroke-opacity:0.388235;stroke-miterlimit:4;" d="M 343.152708 258.055546 C 339.186724 268.458274 343.51645 273.417252 341.598821 279.005723 C 339.71324 284.410196 331.587219 297.774153 337.782544 303.627155 C 342.688512 303.837646 336.927098 296.255777 346.802747 282.164528 C 351.346739 275.558798 345.600003 271.36573 350.420974 258.426048 C 350.872176 257.360284 343.809645 256.401544 343.152708 258.055546 Z M 343.152708 258.055546 " transform="matrix(-0.0532927,0.0527237,0.0544074,0.0516428,27.145831,-10.036197)"/>
<path style="fill-rule:evenodd;fill:rgb(100%,84.313726%,0%);fill-opacity:1;stroke-width:0.625;stroke-linecap:butt;stroke-linejoin:round;stroke:rgb(0%,0%,0%);stroke-opacity:0.388235;stroke-miterlimit:4;" d="M 343.184685 258.045544 C 339.169195 268.480755 343.537898 273.430845 341.611759 279.032664 C 339.737366 284.429021 331.557426 297.811798 337.783614 303.623144 C 342.707356 303.851256 336.947184 296.242038 346.816969 282.182749 C 351.383582 275.539908 345.590264 271.367386 350.438423 258.465408 C 350.855348 257.334603 343.810368 256.400627 343.184685 258.045544 Z M 343.184685 258.045544 " transform="matrix(0.000438406,-0.0738012,0.0761584,0.00042484,3.314393,46.038129)"/>
<path style="fill-rule:evenodd;fill:rgb(100%,84.313726%,0%);fill-opacity:1;stroke-width:0.625;stroke-linecap:butt;stroke-linejoin:round;stroke:rgb(0%,0%,0%);stroke-opacity:0.388235;stroke-miterlimit:4;" d="M 342.977565 258.180064 C 341.432544 269.856839 342.353773 305.740694 345.990208 304.318587 C 350.063984 305.624977 350.573312 269.150317 350.215832 258.378808 C 350.187818 257.155 343.181333 256.422173 342.977565 258.180064 Z M 342.977565 258.180064 " transform="matrix(0.0698638,-0.0293819,0.0303196,0.0677021,-10.699786,15.340201)"/>
<path style="fill-rule:evenodd;fill:rgb(100%,84.313726%,0%);fill-opacity:1;stroke-width:0.625;stroke-linecap:butt;stroke-linejoin:round;stroke:rgb(0%,0%,0%);stroke-opacity:0.388235;stroke-miterlimit:4;" d="M 342.974814 258.128505 C 341.441219 269.843238 342.359307 305.74393 346.017896 304.296059 C 350.058842 305.602564 350.582146 269.115865 350.2292 258.365873 C 350.165287 257.188375 343.17337 256.392288 342.974814 258.128505 Z M 342.974814 258.128505 " transform="matrix(0.0542516,-0.0517977,0.0534514,0.0525728,-10.275372,26.366644)"/>
<path style="fill-rule:evenodd;fill:rgb(100%,84.313726%,0%);fill-opacity:1;stroke-width:0.625;stroke-linecap:butt;stroke-linejoin:round;stroke:rgb(0%,0%,0%);stroke-opacity:0.388235;stroke-miterlimit:4;" d="M 342.970616 258.145752 C 341.433419 269.830863 342.349049 305.716033 345.994456 304.280057 C 350.068698 305.615218 350.565965 269.130296 350.243142 258.346173 C 350.143272 257.162723 343.168941 256.445681 342.970616 258.145752 Z M 342.970616 258.145752 " transform="matrix(0.0297583,-0.0679353,0.0701048,0.0288381,-5.428479,37.140528)"/>
<path style="fill-rule:evenodd;fill:rgb(100%,84.313726%,0%);fill-opacity:1;stroke-width:0.625;stroke-linecap:butt;stroke-linejoin:round;stroke:rgb(0%,0%,0%);stroke-opacity:0.14902;stroke-miterlimit:4;" d="M 343.181209 258.03953 C 339.189525 268.49951 343.548918 273.43139 341.606643 279.009991 C 339.738757 284.439229 331.571 297.773812 337.767686 303.614788 C 342.702244 303.851911 336.956157 296.230332 346.785018 282.151463 C 351.384278 275.544146 345.62147 271.386541 350.398677 258.436968 C 350.882733 257.355549 343.778449 256.402408 343.181209 258.03953 Z M 343.181209 258.03953 " transform="matrix(0.0544365,-0.0516148,0.0532637,0.0527518,-10.769458,26.667586)"/>
<path style="fill-rule:evenodd;fill:rgb(100%,84.313726%,0%);fill-opacity:1;stroke-width:0.625;stroke-linecap:butt;stroke-linejoin:round;stroke:rgb(0%,0%,0%);stroke-opacity:0.14902;stroke-miterlimit:4;" d="M 343.152708 258.055546 C 339.186724 268.458274 343.51645 273.417252 341.598821 279.005723 C 339.71324 284.410196 331.587219 297.774153 337.782544 303.627155 C 342.688512 303.837646 336.927098 296.255777 346.802747 282.164528 C 351.346739 275.558798 345.600003 271.36573 350.420974 258.426048 C 350.872176 257.360284 343.809645 256.401544 343.152708 258.055546 Z M 343.152708 258.055546 " transform="matrix(-0.0532927,0.0527237,0.0544074,0.0516428,27.145831,-10.036197)"/>
<path style="fill-rule:evenodd;fill:rgb(100%,84.313726%,0%);fill-opacity:1;stroke-width:0.625;stroke-linecap:butt;stroke-linejoin:round;stroke:rgb(0%,0%,0%);stroke-opacity:0.14902;stroke-miterlimit:4;" d="M 343.184685 258.045544 C 339.169195 268.480755 343.537898 273.430845 341.611759 279.032664 C 339.737366 284.429021 331.557426 297.811798 337.783614 303.623144 C 342.707356 303.851256 336.947184 296.242038 346.816969 282.182749 C 351.383582 275.539908 345.590264 271.367386 350.438423 258.465408 C 350.855348 257.334603 343.810368 256.400627 343.184685 258.045544 Z M 343.184685 258.045544 " transform="matrix(0.000438406,-0.0738012,0.0761584,0.00042484,3.314393,46.038129)"/>
<path style="fill-rule:evenodd;fill:rgb(100%,84.313726%,0%);fill-opacity:1;stroke-width:0.625;stroke-linecap:butt;stroke-linejoin:round;stroke:rgb(0%,0%,0%);stroke-opacity:0.14902;stroke-miterlimit:4;" d="M 342.977565 258.180064 C 341.432544 269.856839 342.353773 305.740694 345.990208 304.318587 C 350.063984 305.624977 350.573312 269.150317 350.215832 258.378808 C 350.187818 257.155 343.181333 256.422173 342.977565 258.180064 Z M 342.977565 258.180064 " transform="matrix(0.0698638,-0.0293819,0.0303196,0.0677021,-10.699786,15.340201)"/>
<path style="fill-rule:evenodd;fill:rgb(100%,84.313726%,0%);fill-opacity:1;stroke-width:0.625;stroke-linecap:butt;stroke-linejoin:round;stroke:rgb(0%,0%,0%);stroke-opacity:0.14902;stroke-miterlimit:4;" d="M 342.974814 258.128505 C 341.441219 269.843238 342.359307 305.74393 346.017896 304.296059 C 350.058842 305.602564 350.582146 269.115865 350.2292 258.365873 C 350.165287 257.188375 343.17337 256.392288 342.974814 258.128505 Z M 342.974814 258.128505 " transform="matrix(0.0542516,-0.0517977,0.0534514,0.0525728,-10.275372,26.366644)"/>
<path style="fill-rule:evenodd;fill:rgb(100%,84.313726%,0%);fill-opacity:1;stroke-width:0.625;stroke-linecap:butt;stroke-linejoin:round;stroke:rgb(0%,0%,0%);stroke-opacity:0.14902;stroke-miterlimit:4;" d="M 342.970616 258.145752 C 341.433419 269.830863 342.349049 305.716033 345.994456 304.280057 C 350.068698 305.615218 350.565965 269.130296 350.243142 258.346173 C 350.143272 257.162723 343.168941 256.445681 342.970616 258.145752 Z M 342.970616 258.145752 " transform="matrix(0.0297583,-0.0679353,0.0701048,0.0288381,-5.428479,37.140528)"/>
<path style="fill-rule:evenodd;fill:rgb(100%,84.313726%,0%);fill-opacity:1;stroke-width:0.625;stroke-linecap:butt;stroke-linejoin:round;stroke:rgb(0%,0%,0%);stroke-opacity:0.388235;stroke-miterlimit:4;" d="M 342.970065 258.135578 C 341.435154 269.829803 342.334929 305.733125 345.986959 304.296992 C 350.062412 305.630544 350.591691 269.163027 350.221196 258.34074 C 350.168268 257.161059 343.181777 256.391702 342.970065 258.135578 Z M 342.970065 258.135578 " transform="matrix(0,0.0738031,-0.0761594,0,36.913354,-5.601332)"/>
<path style="fill-rule:evenodd;fill:rgb(100%,84.313726%,0%);fill-opacity:1;stroke-width:0.625;stroke-linecap:butt;stroke-linejoin:round;stroke:rgb(0%,0%,0%);stroke-opacity:0.388235;stroke-miterlimit:4;" d="M 343.152801 258.038299 C 339.203436 268.465107 343.563125 273.440336 341.614087 278.997772 C 339.71634 284.396424 331.561157 297.787198 337.767303 303.609274 C 342.691187 303.820985 336.946655 296.252287 346.794424 282.173449 C 351.359275 275.557454 345.614743 271.376145 350.436046 258.461723 C 350.84637 257.350236 343.819577 256.397532 343.152801 258.038299 Z M 343.152801 258.038299 " transform="matrix(0.0761594,0,0,-0.0738031,-6.821807,36.165132)"/>
<path style="fill-rule:evenodd;fill:rgb(100%,84.313726%,0%);fill-opacity:1;stroke-width:0.625;stroke-linecap:butt;stroke-linejoin:round;stroke:rgb(0%,0%,0%);stroke-opacity:0.388235;stroke-miterlimit:4;" d="M 343.15568 258.081188 C 339.164351 268.467467 343.560405 273.435216 341.618131 279.013818 C 339.713584 284.407185 331.582487 297.777639 337.779173 303.618614 C 342.713731 303.855737 336.930627 296.27199 346.796505 282.155289 C 351.358748 275.585804 345.596296 271.354497 350.410164 258.440795 C 350.85756 257.323505 343.789936 256.406235 343.15568 258.081188 Z M 343.15568 258.081188 " transform="matrix(-0.0544365,0.0516148,-0.0532637,-0.0527518,51.184349,13.257804)"/>
<path style="fill-rule:evenodd;fill:rgb(100%,84.313726%,0%);fill-opacity:1;stroke-width:0.625;stroke-linecap:butt;stroke-linejoin:round;stroke:rgb(0%,0%,0%);stroke-opacity:0.388235;stroke-miterlimit:4;" d="M 343.175601 258.032079 C 339.173727 268.471447 343.539343 273.393784 341.585824 279.018896 C 339.700242 284.423369 331.574222 297.787326 337.805437 303.603687 C 342.711405 303.814178 336.949991 296.232309 346.789749 282.177702 C 351.369632 275.53533 345.587006 271.378903 350.407977 258.439221 C 350.895069 257.336816 343.796648 256.414717 343.175601 258.032079 Z M 343.175601 258.032079 " transform="matrix(0.0532927,-0.0527237,-0.0544074,-0.0516428,13.269641,49.961973)"/>
<path style="fill-rule:evenodd;fill:rgb(100%,84.313726%,0%);fill-opacity:1;stroke-width:0.625;stroke-linecap:butt;stroke-linejoin:round;stroke:rgb(0%,0%,0%);stroke-opacity:0.388235;stroke-miterlimit:4;" d="M 343.195334 258.063989 C 339.179549 268.447911 343.548251 273.398 341.622113 278.999819 C 339.748015 284.447466 331.56778 297.778953 337.793967 303.590299 C 342.71771 303.818411 336.904905 296.260788 346.774395 282.150209 C 351.394232 275.558353 345.600913 271.385831 350.395849 258.432868 C 350.865997 257.353048 343.821017 256.419072 343.195334 258.063989 Z M 343.195334 258.063989 " transform="matrix(-0.000438406,0.0738012,-0.0761584,-0.00042484,37.101079,-6.113125)"/>
<path style="fill-rule:evenodd;fill:rgb(100%,84.313726%,0%);fill-opacity:1;stroke-width:0.625;stroke-linecap:butt;stroke-linejoin:round;stroke:rgb(0%,0%,0%);stroke-opacity:0.388235;stroke-miterlimit:4;" d="M 342.937358 258.171124 C 341.439388 269.868318 342.360617 305.752173 346.018123 304.281513 C 350.023777 305.616037 350.580156 269.161797 350.243747 258.341735 C 350.147611 257.14606 343.188177 256.433652 342.937358 258.171124 Z M 342.937358 258.171124 " transform="matrix(-0.0698638,0.0293819,-0.0303196,-0.0677021,51.114675,24.586157)"/>
<path style="fill-rule:evenodd;fill:rgb(100%,84.313726%,0%);fill-opacity:1;stroke-width:0.625;stroke-linecap:butt;stroke-linejoin:round;stroke:rgb(0%,0%,0%);stroke-opacity:0.388235;stroke-miterlimit:4;" d="M 342.954553 258.175379 C 341.458105 269.852408 342.339656 305.717103 346.034782 304.305229 C 350.075727 305.611734 350.599032 269.125035 350.20955 258.339046 C 350.145637 257.161549 343.190256 256.401459 342.954553 258.175379 Z M 342.954553 258.175379 " transform="matrix(-0.0542516,0.0517977,-0.0534514,-0.0525728,50.690841,13.558745)"/>
<path style="fill-rule:evenodd;fill:rgb(100%,84.313726%,0%);fill-opacity:1;stroke-width:0.625;stroke-linecap:butt;stroke-linejoin:round;stroke:rgb(0%,0%,0%);stroke-opacity:0.388235;stroke-miterlimit:4;" d="M 342.987072 258.157491 C 341.449875 269.842603 342.365505 305.727772 346.010911 304.291797 C 350.065112 305.579744 350.58242 269.142036 350.210877 258.378594 C 350.159728 257.174462 343.165355 256.410208 342.987072 258.157491 Z M 342.987072 258.157491 " transform="matrix(-0.0297583,0.0679353,-0.0701048,-0.0288381,45.843854,2.784474)"/>
<path style="fill-rule:evenodd;fill:rgb(100%,84.313726%,0%);fill-opacity:1;stroke-width:0.625;stroke-linecap:butt;stroke-linejoin:round;stroke:rgb(0%,0%,0%);stroke-opacity:0.14902;stroke-miterlimit:4;" d="M 343.15568 258.081188 C 339.164351 268.467467 343.560405 273.435216 341.618131 279.013818 C 339.713584 284.407185 331.582487 297.777639 337.779173 303.618614 C 342.713731 303.855737 336.930627 296.27199 346.796505 282.155289 C 351.358748 275.585804 345.596296 271.354497 350.410164 258.440795 C 350.85756 257.323505 343.789936 256.406235 343.15568 258.081188 Z M 343.15568 258.081188 " transform="matrix(-0.0544365,0.0516148,-0.0532637,-0.0527518,51.184349,13.257804)"/>
<path style="fill-rule:evenodd;fill:rgb(100%,84.313726%,0%);fill-opacity:1;stroke-width:0.625;stroke-linecap:butt;stroke-linejoin:round;stroke:rgb(0%,0%,0%);stroke-opacity:0.14902;stroke-miterlimit:4;" d="M 343.175601 258.032079 C 339.173727 268.471447 343.539343 273.393784 341.585824 279.018896 C 339.700242 284.423369 331.574222 297.787326 337.805437 303.603687 C 342.711405 303.814178 336.949991 296.232309 346.789749 282.177702 C 351.369632 275.53533 345.587006 271.378903 350.407977 258.439221 C 350.895069 257.336816 343.796648 256.414717 343.175601 258.032079 Z M 343.175601 258.032079 " transform="matrix(0.0532927,-0.0527237,-0.0544074,-0.0516428,13.269641,49.961973)"/>
<path style="fill-rule:evenodd;fill:rgb(100%,84.313726%,0%);fill-opacity:1;stroke-width:0.625;stroke-linecap:butt;stroke-linejoin:round;stroke:rgb(0%,0%,0%);stroke-opacity:0.14902;stroke-miterlimit:4;" d="M 343.195334 258.063989 C 339.179549 268.447911 343.548251 273.398 341.622113 278.999819 C 339.748015 284.447466 331.56778 297.778953 337.793967 303.590299 C 342.71771 303.818411 336.904905 296.260788 346.774395 282.150209 C 351.394232 275.558353 345.600913 271.385831 350.395849 258.432868 C 350.865997 257.353048 343.821017 256.419072 343.195334 258.063989 Z M 343.195334 258.063989 " transform="matrix(-0.000438406,0.0738012,-0.0761584,-0.00042484,37.101079,-6.113125)"/>
<path style="fill-rule:evenodd;fill:rgb(100%,84.313726%,0%);fill-opacity:1;stroke-width:0.625;stroke-linecap:butt;stroke-linejoin:round;stroke:rgb(0%,0%,0%);stroke-opacity:0.14902;stroke-miterlimit:4;" d="M 342.937358 258.171124 C 341.439388 269.868318 342.360617 305.752173 346.018123 304.281513 C 350.023777 305.616037 350.580156 269.161797 350.243747 258.341735 C 350.147611 257.14606 343.188177 256.433652 342.937358 258.171124 Z M 342.937358 258.171124 " transform="matrix(-0.0698638,0.0293819,-0.0303196,-0.0677021,51.114675,24.586157)"/>
<path style="fill-rule:evenodd;fill:rgb(100%,84.313726%,0%);fill-opacity:1;stroke-width:0.625;stroke-linecap:butt;stroke-linejoin:round;stroke:rgb(0%,0%,0%);stroke-opacity:0.14902;stroke-miterlimit:4;" d="M 342.954553 258.175379 C 341.458105 269.852408 342.339656 305.717103 346.034782 304.305229 C 350.075727 305.611734 350.599032 269.125035 350.20955 258.339046 C 350.145637 257.161549 343.190256 256.401459 342.954553 258.175379 Z M 342.954553 258.175379 " transform="matrix(-0.0542516,0.0517977,-0.0534514,-0.0525728,50.690841,13.558745)"/>
<path style="fill-rule:evenodd;fill:rgb(100%,84.313726%,0%);fill-opacity:1;stroke-width:0.625;stroke-linecap:butt;stroke-linejoin:round;stroke:rgb(0%,0%,0%);stroke-opacity:0.14902;stroke-miterlimit:4;" d="M 342.987072 258.157491 C 341.449875 269.842603 342.365505 305.727772 346.010911 304.291797 C 350.065112 305.579744 350.58242 269.142036 350.210877 258.378594 C 350.159728 257.174462 343.165355 256.410208 342.987072 258.157491 Z M 342.987072 258.157491 " transform="matrix(-0.0297583,0.0679353,-0.0701048,-0.0288381,45.843854,2.784474)"/>
<path style="fill-rule:evenodd;fill:rgb(100%,84.313726%,0%);fill-opacity:1;stroke-width:0.625;stroke-linecap:butt;stroke-linejoin:round;stroke:rgb(0%,0%,0%);stroke-opacity:0.388235;stroke-miterlimit:4;" d="M 342.957184 258.172289 C 341.418471 269.869369 342.341699 305.754526 345.983322 304.325471 C 350.035268 305.595742 350.599463 269.128377 350.24043 258.331073 C 350.189139 257.166658 343.162346 256.425666 342.957184 258.172289 Z M 342.957184 258.172289 " transform="matrix(-0.0761594,0,0,-0.0738031,46.568628,36.151583)"/>
<path style="fill-rule:evenodd;fill:rgb(100%,84.313726%,0%);fill-opacity:1;stroke-width:0.625;stroke-linecap:butt;stroke-linejoin:round;stroke:rgb(0%,0%,0%);stroke-opacity:0.388235;stroke-miterlimit:4;" d="M 343.181419 258.048873 C 339.211822 268.460837 343.551915 273.436011 341.59358 279.026672 C 339.741102 284.41217 331.590196 297.79898 337.782767 303.594802 C 342.705068 303.851254 336.93592 296.260266 346.780521 282.15539 C 351.385253 275.53892 345.616105 271.384393 350.43255 258.459197 C 350.855974 257.330807 343.816555 256.407579 343.181419 258.048873 Z M 343.181419 258.048873 " transform="matrix(0,0.0738031,0.0761594,0,3.46825,-6.230212)"/>
<path style="fill-rule:evenodd;fill:rgb(100%,84.313726%,0%);fill-opacity:1;stroke-width:0.625;stroke-linecap:butt;stroke-linejoin:round;stroke:rgb(0%,0%,0%);stroke-opacity:0.388235;stroke-miterlimit:4;" d="M 343.185723 258.047699 C 339.189489 268.489154 343.557733 273.409108 341.607252 279.035234 C 339.724591 284.440687 331.605807 297.808931 337.76642 303.621543 C 342.710307 303.866408 336.94288 296.214013 346.77502 282.154201 C 351.353264 275.583085 345.604301 271.393138 350.41828 258.450946 C 350.866945 257.31127 343.805895 256.430014 343.185723 258.047699 Z M 343.185723 258.047699 " transform="matrix(-0.0532637,-0.0527518,0.0544365,-0.0516148,27.107125,49.981328)"/>
<path style="fill-rule:evenodd;fill:rgb(100%,84.313726%,0%);fill-opacity:1;stroke-width:0.625;stroke-linecap:butt;stroke-linejoin:round;stroke:rgb(0%,0%,0%);stroke-opacity:0.388235;stroke-miterlimit:4;" d="M 343.180898 258.07718 C 339.183953 268.461361 343.540719 273.395612 341.595034 279.046897 C 339.724609 284.401454 331.549226 297.805407 337.779843 303.611935 C 342.714305 303.851716 336.935247 296.264818 346.808787 282.15336 C 351.374595 275.586298 345.577348 271.38968 350.435235 258.440695 C 350.883235 257.323641 343.81606 256.402561 343.180898 258.07718 Z M 343.180898 258.07718 " transform="matrix(0.0544074,0.0516428,0.0532927,-0.0527237,-10.768974,13.23942)"/>
<path style="fill-rule:evenodd;fill:rgb(100%,84.313726%,0%);fill-opacity:1;stroke-width:0.625;stroke-linecap:butt;stroke-linejoin:round;stroke:rgb(0%,0%,0%);stroke-opacity:0.388235;stroke-miterlimit:4;" d="M 343.165341 258.086398 C 339.173194 268.483532 343.561434 273.43363 341.593138 279.002542 C 339.726507 284.412081 331.59698 297.797076 337.785529 303.636609 C 342.710531 303.819975 336.922243 296.231469 346.791649 282.148378 C 351.369917 275.558783 345.601433 271.410571 350.399586 258.468189 C 350.854792 257.354052 343.822658 256.441804 343.165341 258.086398 Z M 343.165341 258.086398 " transform="matrix(-0.0761584,-0.00042484,0.000438406,-0.0738012,47.096002,36.333503)"/>
<path style="fill-rule:evenodd;fill:rgb(100%,84.313726%,0%);fill-opacity:1;stroke-width:0.625;stroke-linecap:butt;stroke-linejoin:round;stroke:rgb(0%,0%,0%);stroke-opacity:0.388235;stroke-miterlimit:4;" d="M 342.957572 258.161464 C 341.45516 269.866075 342.32642 305.748528 346.002381 304.324558 C 350.070399 305.58679 350.599009 269.137695 350.206038 258.343807 C 350.149317 257.145031 343.194437 256.419151 342.957572 258.161464 Z M 342.957572 258.161464 " transform="matrix(-0.0303196,-0.0677021,0.0698638,-0.0293819,15.41687,49.913591)"/>
<path style="fill-rule:evenodd;fill:rgb(100%,84.313726%,0%);fill-opacity:1;stroke-width:0.625;stroke-linecap:butt;stroke-linejoin:round;stroke:rgb(0%,0%,0%);stroke-opacity:0.388235;stroke-miterlimit:4;" d="M 342.988092 258.174712 C 341.452747 269.838457 342.356986 305.722534 346.007886 304.279411 C 350.05439 305.602137 350.610511 269.140811 350.21412 258.381918 C 350.14913 257.165848 343.168263 256.408159 342.988092 258.174712 Z M 342.988092 258.174712 " transform="matrix(-0.0534514,-0.0525728,0.0542516,-0.0517977,26.79554,49.502337)"/>
<path style="fill-rule:evenodd;fill:rgb(100%,84.313726%,0%);fill-opacity:1;stroke-width:0.625;stroke-linecap:butt;stroke-linejoin:round;stroke:rgb(0%,0%,0%);stroke-opacity:0.388235;stroke-miterlimit:4;" d="M 342.963451 258.185809 C 341.45753 269.864983 342.352916 305.709636 345.982456 304.283918 C 350.052964 305.603491 350.573965 269.157592 350.232734 258.377521 C 350.155452 257.145336 343.166318 256.432205 342.963451 258.185809 Z M 342.963451 258.185809 " transform="matrix(-0.0701048,-0.0288381,0.0297583,-0.0679353,37.914878,44.805335)"/>
<path style="fill-rule:evenodd;fill:rgb(100%,84.313726%,0%);fill-opacity:1;stroke-width:0.625;stroke-linecap:butt;stroke-linejoin:round;stroke:rgb(0%,0%,0%);stroke-opacity:0.14902;stroke-miterlimit:4;" d="M 343.185723 258.047699 C 339.189489 268.489154 343.557733 273.409108 341.607252 279.035234 C 339.724591 284.440687 331.605807 297.808931 337.76642 303.621543 C 342.710307 303.866408 336.94288 296.214013 346.77502 282.154201 C 351.353264 275.583085 345.604301 271.393138 350.41828 258.450946 C 350.866945 257.31127 343.805895 256.430014 343.185723 258.047699 Z M 343.185723 258.047699 " transform="matrix(-0.0532637,-0.0527518,0.0544365,-0.0516148,27.107125,49.981328)"/>
<path style="fill-rule:evenodd;fill:rgb(100%,84.313726%,0%);fill-opacity:1;stroke-width:0.625;stroke-linecap:butt;stroke-linejoin:round;stroke:rgb(0%,0%,0%);stroke-opacity:0.14902;stroke-miterlimit:4;" d="M 343.180898 258.07718 C 339.183953 268.461361 343.540719 273.395612 341.595034 279.046897 C 339.724609 284.401454 331.549226 297.805407 337.779843 303.611935 C 342.714305 303.851716 336.935247 296.264818 346.808787 282.15336 C 351.374595 275.586298 345.577348 271.38968 350.435235 258.440695 C 350.883235 257.323641 343.81606 256.402561 343.180898 258.07718 Z M 343.180898 258.07718 " transform="matrix(0.0544074,0.0516428,0.0532927,-0.0527237,-10.768974,13.23942)"/>
<path style="fill-rule:evenodd;fill:rgb(100%,84.313726%,0%);fill-opacity:1;stroke-width:0.625;stroke-linecap:butt;stroke-linejoin:round;stroke:rgb(0%,0%,0%);stroke-opacity:0.14902;stroke-miterlimit:4;" d="M 343.165341 258.086398 C 339.173194 268.483532 343.561434 273.43363 341.593138 279.002542 C 339.726507 284.412081 331.59698 297.797076 337.785529 303.636609 C 342.710531 303.819975 336.922243 296.231469 346.791649 282.148378 C 351.369917 275.558783 345.601433 271.410571 350.399586 258.468189 C 350.854792 257.354052 343.822658 256.441804 343.165341 258.086398 Z M 343.165341 258.086398 " transform="matrix(-0.0761584,-0.00042484,0.000438406,-0.0738012,47.096002,36.333503)"/>
<path style="fill-rule:evenodd;fill:rgb(100%,84.313726%,0%);fill-opacity:1;stroke-width:0.625;stroke-linecap:butt;stroke-linejoin:round;stroke:rgb(0%,0%,0%);stroke-opacity:0.14902;stroke-miterlimit:4;" d="M 342.957572 258.161464 C 341.45516 269.866075 342.32642 305.748528 346.002381 304.324558 C 350.070399 305.58679 350.599009 269.137695 350.206038 258.343807 C 350.149317 257.145031 343.194437 256.419151 342.957572 258.161464 Z M 342.957572 258.161464 " transform="matrix(-0.0303196,-0.0677021,0.0698638,-0.0293819,15.41687,49.913591)"/>
<path style="fill-rule:evenodd;fill:rgb(100%,84.313726%,0%);fill-opacity:1;stroke-width:0.625;stroke-linecap:butt;stroke-linejoin:round;stroke:rgb(0%,0%,0%);stroke-opacity:0.14902;stroke-miterlimit:4;" d="M 342.988092 258.174712 C 341.452747 269.838457 342.356986 305.722534 346.007886 304.279411 C 350.05439 305.602137 350.610511 269.140811 350.21412 258.381918 C 350.14913 257.165848 343.168263 256.408159 342.988092 258.174712 Z M 342.988092 258.174712 " transform="matrix(-0.0534514,-0.0525728,0.0542516,-0.0517977,26.79554,49.502337)"/>
<path style="fill-rule:evenodd;fill:rgb(100%,84.313726%,0%);fill-opacity:1;stroke-width:0.625;stroke-linecap:butt;stroke-linejoin:round;stroke:rgb(0%,0%,0%);stroke-opacity:0.14902;stroke-miterlimit:4;" d="M 342.963451 258.185809 C 341.45753 269.864983 342.352916 305.709636 345.982456 304.283918 C 350.052964 305.603491 350.573965 269.157592 350.232734 258.377521 C 350.155452 257.145336 343.166318 256.432205 342.963451 258.185809 Z M 342.963451 258.185809 " transform="matrix(-0.0701048,-0.0288381,0.0297583,-0.0679353,37.914878,44.805335)"/>
<path style="fill:none;stroke-width:1.25;stroke-linecap:butt;stroke-linejoin:miter;stroke:rgb(0%,0%,0%);stroke-opacity:0.172549;stroke-miterlimit:4;" d="M 328.123956 202.529825 L 324.995238 202.529825 " transform="matrix(0.0761594,0,0,0.0738031,-6.774876,3.779224)"/>
<path style="fill:none;stroke-width:1.25;stroke-linecap:butt;stroke-linejoin:miter;stroke:rgb(0%,0%,0%);stroke-opacity:0.172549;stroke-miterlimit:4;" d="M 328.142354 202.569631 L 325.013636 202.569631 " transform="matrix(0.0761594,0,0,0.0738031,-6.834871,3.92863)"/>
<path style="fill:none;stroke-width:1.25;stroke-linecap:butt;stroke-linejoin:miter;stroke:rgb(0%,0%,0%);stroke-opacity:0.172549;stroke-miterlimit:4;" d="M 328.121914 202.562097 L 324.971698 202.562097 " transform="matrix(0.0843196,0,0,0.0738031,-9.538212,4.069811)"/>
<path style="fill:none;stroke-width:1.25;stroke-linecap:butt;stroke-linejoin:miter;stroke:rgb(0%,0%,0%);stroke-opacity:0.172549;stroke-miterlimit:4;" d="M 328.156654 202.560152 L 325.006403 202.560152 " transform="matrix(0.0843187,0,0,0.0738031,-9.615044,4.202767)"/>
<path style="fill:none;stroke-width:1.25;stroke-linecap:butt;stroke-linejoin:miter;stroke:rgb(0%,0%,0%);stroke-opacity:0.172549;stroke-miterlimit:4;" d="M 328.136578 202.552618 L 324.992519 202.552618 " transform="matrix(0.100636,0,0,0.0738031,-14.987278,4.343948)"/>
<path style="fill:none;stroke-width:1.25;stroke-linecap:butt;stroke-linejoin:miter;stroke:rgb(0%,0%,0%);stroke-opacity:0.172549;stroke-miterlimit:4;" d="M 328.136723 202.545075 L 324.984055 202.545075 " transform="matrix(0.111513,0,0,0.0738031,-18.548446,4.48513)"/>
<path style="fill:none;stroke-width:1.25;stroke-linecap:butt;stroke-linejoin:miter;stroke:rgb(0%,0%,0%);stroke-opacity:0.172549;stroke-miterlimit:4;" d="M 328.137185 202.525052 L 325.007014 202.525052 " transform="matrix(0.106074,0,0,0.0738031,-16.814793,4.642858)"/>
<path style="fill:none;stroke-width:1.25;stroke-linecap:butt;stroke-linejoin:miter;stroke:rgb(0%,0%,0%);stroke-opacity:0.172549;stroke-miterlimit:4;" d="M 328.157313 202.556648 L 324.982587 202.556648 " transform="matrix(0.103355,0,0,0.0738031,-15.905099,4.800682)"/>
<path style="fill:none;stroke-width:1.25;stroke-linecap:butt;stroke-linejoin:miter;stroke:rgb(0%,0%,0%);stroke-opacity:0.172549;stroke-miterlimit:4;" d="M 328.123022 202.542205 L 324.992851 202.542205 " transform="matrix(0.106074,0,0,0.0738031,-16.797666,4.950186)"/>
<path style="fill:none;stroke-width:1.25;stroke-linecap:butt;stroke-linejoin:miter;stroke:rgb(0%,0%,0%);stroke-opacity:0.172549;stroke-miterlimit:4;" d="M 328.152116 202.561311 L 324.986675 202.561311 " transform="matrix(0.133275,0,0,0.0738031,-25.636915,5.124557)"/>
<path style="fill:none;stroke-width:1.25;stroke-linecap:butt;stroke-linejoin:miter;stroke:rgb(0%,0%,0%);stroke-opacity:0.172549;stroke-miterlimit:4;" d="M 328.123021 202.5597 L 324.977007 202.5597 " transform="matrix(0.114232,0,0,0.0738031,-19.423498,5.323895)"/>
<path style="fill:none;stroke-width:1.25;stroke-linecap:butt;stroke-linejoin:miter;stroke:rgb(0%,0%,0%);stroke-opacity:0.0784314;stroke-miterlimit:4;" d="M 328.15022 202.552166 L 325.004205 202.552166 " transform="matrix(0.114232,0,0,0.0738031,-19.414886,5.465076)"/>
<path style="fill:none;stroke-width:1.25;stroke-linecap:butt;stroke-linejoin:miter;stroke:rgb(0%,0%,0%);stroke-opacity:0.0784314;stroke-miterlimit:4;" d="M 328.137953 202.557464 L 324.991939 202.557464 " transform="matrix(0.114232,0,0,0.0738031,-19.354891,5.656091)"/>
<path style="fill:none;stroke-width:1.25;stroke-linecap:butt;stroke-linejoin:miter;stroke:rgb(0%,0%,0%);stroke-opacity:0.0784314;stroke-miterlimit:4;" d="M 328.131802 202.529232 L 324.985788 202.529232 " transform="matrix(0.114232,0,0,0.0738031,-19.346376,5.822237)"/>
<path style="fill:none;stroke-width:1.25;stroke-linecap:butt;stroke-linejoin:miter;stroke:rgb(0%,0%,0%);stroke-opacity:0.0784314;stroke-miterlimit:4;" d="M 328.154621 202.541429 L 324.97441 202.541429 " transform="matrix(0.114232,0,0,0.0738031,-19.243514,6.004931)"/>
<path style="fill:none;stroke-width:1.25;stroke-linecap:butt;stroke-linejoin:miter;stroke:rgb(0%,0%,0%);stroke-opacity:0.0784314;stroke-miterlimit:4;" d="M 328.143249 202.526986 L 324.997235 202.526986 " transform="matrix(0.114232,0,0,0.0738031,-19.140652,6.154434)"/>
<path style="fill:none;stroke-width:1.25;stroke-linecap:butt;stroke-linejoin:miter;stroke:rgb(0%,0%,0%);stroke-opacity:0.0784314;stroke-miterlimit:4;" d="M 328.138875 202.546093 L 324.992861 202.546093 " transform="matrix(0.114232,0,0,0.0738031,-19.046402,6.328805)"/>
<path style="fill:none;stroke-width:1.25;stroke-linecap:butt;stroke-linejoin:miter;stroke:rgb(0%,0%,0%);stroke-opacity:0.0784314;stroke-miterlimit:4;" d="M 328.154696 202.572089 L 324.974485 202.572089 " transform="matrix(0.114232,0,0,0.0738031,-18.934928,6.494855)"/>
<path style="fill:none;stroke-width:1.25;stroke-linecap:butt;stroke-linejoin:miter;stroke:rgb(0%,0%,0%);stroke-opacity:0.0784314;stroke-miterlimit:4;" d="M 328.129275 202.552067 L 324.98326 202.552067 " transform="matrix(0.114232,0,0,0.0738031,-18.857806,6.652583)"/>
<path style="fill:none;stroke-width:1.25;stroke-linecap:butt;stroke-linejoin:miter;stroke:rgb(0%,0%,0%);stroke-opacity:0.0784314;stroke-miterlimit:4;" d="M 328.14068 202.549492 L 324.994665 202.549492 " transform="matrix(0.114232,0,0,0.0738031,-18.695046,6.844179)"/>
<path style="fill:none;stroke-width:1.25;stroke-linecap:butt;stroke-linejoin:miter;stroke:rgb(0%,0%,0%);stroke-opacity:0.0784314;stroke-miterlimit:4;" d="M 328.147508 202.57122 L 325.009204 202.57122 " transform="matrix(0.0734374,0,0,0.0738031,-5.238915,7.018357)"/>
<path style="fill:none;stroke-width:1.25;stroke-linecap:butt;stroke-linejoin:miter;stroke:rgb(0%,0%,0%);stroke-opacity:0.0784314;stroke-miterlimit:4;" d="M 328.15022 202.552166 L 325.004205 202.552166 " transform="matrix(0.114232,0,0,0.0738031,-19.414886,5.465076)"/>
<path style="fill:none;stroke-width:1.25;stroke-linecap:butt;stroke-linejoin:miter;stroke:rgb(0%,0%,0%);stroke-opacity:0.0784314;stroke-miterlimit:4;" d="M 328.137953 202.557464 L 324.991939 202.557464 " transform="matrix(0.114232,0,0,0.0738031,-19.354891,5.656091)"/>
<path style="fill:none;stroke-width:1.25;stroke-linecap:butt;stroke-linejoin:miter;stroke:rgb(0%,0%,0%);stroke-opacity:0.0784314;stroke-miterlimit:4;" d="M 328.131802 202.529232 L 324.985788 202.529232 " transform="matrix(0.114232,0,0,0.0738031,-19.346376,5.822237)"/>
<path style="fill:none;stroke-width:1.25;stroke-linecap:butt;stroke-linejoin:miter;stroke:rgb(0%,0%,0%);stroke-opacity:0.0784314;stroke-miterlimit:4;" d="M 328.154621 202.541429 L 324.97441 202.541429 " transform="matrix(0.114232,0,0,0.0738031,-19.243514,6.004931)"/>
<path style="fill:none;stroke-width:1.25;stroke-linecap:butt;stroke-linejoin:miter;stroke:rgb(0%,0%,0%);stroke-opacity:0.0784314;stroke-miterlimit:4;" d="M 328.143249 202.526986 L 324.997235 202.526986 " transform="matrix(0.114232,0,0,0.0738031,-19.140652,6.154434)"/>
<path style="fill:none;stroke-width:1.25;stroke-linecap:butt;stroke-linejoin:miter;stroke:rgb(0%,0%,0%);stroke-opacity:0.0784314;stroke-miterlimit:4;" d="M 328.138875 202.546093 L 324.992861 202.546093 " transform="matrix(0.114232,0,0,0.0738031,-19.046402,6.328805)"/>
<path style="fill:none;stroke-width:1.25;stroke-linecap:butt;stroke-linejoin:miter;stroke:rgb(0%,0%,0%);stroke-opacity:0.0784314;stroke-miterlimit:4;" d="M 328.154696 202.572089 L 324.974485 202.572089 " transform="matrix(0.114232,0,0,0.0738031,-18.934928,6.494855)"/>
<path style="fill:none;stroke-width:1.25;stroke-linecap:butt;stroke-linejoin:miter;stroke:rgb(0%,0%,0%);stroke-opacity:0.0784314;stroke-miterlimit:4;" d="M 328.129275 202.552067 L 324.98326 202.552067 " transform="matrix(0.114232,0,0,0.0738031,-18.857806,6.652583)"/>
<path style="fill:none;stroke-width:1.25;stroke-linecap:butt;stroke-linejoin:miter;stroke:rgb(0%,0%,0%);stroke-opacity:0.0784314;stroke-miterlimit:4;" d="M 328.14068 202.549492 L 324.994665 202.549492 " transform="matrix(0.114232,0,0,0.0738031,-18.695046,6.844179)"/>
<path style="fill:none;stroke-width:1.25;stroke-linecap:butt;stroke-linejoin:miter;stroke:rgb(0%,0%,0%);stroke-opacity:0.0784314;stroke-miterlimit:4;" d="M 328.118929 202.556169 L 324.980626 202.556169 " transform="matrix(0.0734374,0,0,0.0738031,-5.20166,7.003843)"/>
<path style="fill:none;stroke-width:1.25;stroke-linecap:butt;stroke-linejoin:miter;stroke:rgb(0%,0%,0%);stroke-opacity:0.133333;stroke-miterlimit:4;" d="M 328.150206 202.571366 L 324.970198 202.571366 " transform="matrix(-0.0761594,0,0,0.0738031,47.179219,3.741002)"/>
<path style="fill:none;stroke-width:1.25;stroke-linecap:butt;stroke-linejoin:miter;stroke:rgb(0%,0%,0%);stroke-opacity:0.133333;stroke-miterlimit:4;" d="M 328.117304 202.556933 L 324.988586 202.556933 " transform="matrix(-0.0761594,0,0,0.0738031,47.239213,3.890505)"/>
<path style="fill:none;stroke-width:1.25;stroke-linecap:butt;stroke-linejoin:miter;stroke:rgb(0%,0%,0%);stroke-opacity:0.133333;stroke-miterlimit:4;" d="M 328.137575 202.549399 L 324.98736 202.549399 " transform="matrix(-0.0843196,0,0,0.0738031,49.941876,4.031686)"/>
<path style="fill:none;stroke-width:1.25;stroke-linecap:butt;stroke-linejoin:miter;stroke:rgb(0%,0%,0%);stroke-opacity:0.133333;stroke-miterlimit:4;" d="M 328.13286 202.548765 L 324.982608 202.548765 " transform="matrix(-0.0843187,0,0,0.0738031,50.019287,4.164545)"/>
<path style="fill:none;stroke-width:1.25;stroke-linecap:butt;stroke-linejoin:miter;stroke:rgb(0%,0%,0%);stroke-opacity:0.133333;stroke-miterlimit:4;" d="M 328.157399 202.541231 L 324.974525 202.541231 " transform="matrix(-0.100636,0,0,0.0738031,55.391717,4.305726)"/>
<path style="fill:none;stroke-width:1.25;stroke-linecap:butt;stroke-linejoin:miter;stroke:rgb(0%,0%,0%);stroke-opacity:0.133333;stroke-miterlimit:4;" d="M 328.153767 202.533698 L 325.001099 202.533698 " transform="matrix(-0.111513,0,0,0.0738031,58.952691,4.446907)"/>
<path style="fill:none;stroke-width:1.25;stroke-linecap:butt;stroke-linejoin:miter;stroke:rgb(0%,0%,0%);stroke-opacity:0.133333;stroke-miterlimit:4;" d="M 328.15147 202.565283 L 324.984473 202.565283 " transform="matrix(-0.106074,0,0,0.0738031,57.218652,4.604733)"/>
<path style="fill:none;stroke-width:1.25;stroke-linecap:butt;stroke-linejoin:miter;stroke:rgb(0%,0%,0%);stroke-opacity:0.133333;stroke-miterlimit:4;" d="M 328.135094 202.54395 L 324.998162 202.54395 " transform="matrix(-0.103355,0,0,0.0738031,56.309053,4.762557)"/>
<path style="fill:none;stroke-width:1.25;stroke-linecap:butt;stroke-linejoin:miter;stroke:rgb(0%,0%,0%);stroke-opacity:0.133333;stroke-miterlimit:4;" d="M 328.143706 202.529517 L 324.97671 202.529517 " transform="matrix(-0.106074,0,0,0.0738031,57.202204,4.91206)"/>
<path style="fill:none;stroke-width:1.25;stroke-linecap:butt;stroke-linejoin:miter;stroke:rgb(0%,0%,0%);stroke-opacity:0.133333;stroke-miterlimit:4;" d="M 328.134165 202.548614 L 324.998034 202.548614 " transform="matrix(-0.133275,0,0,0.0738031,66.040773,5.086431)"/>
<path style="fill:none;stroke-width:1.25;stroke-linecap:butt;stroke-linejoin:miter;stroke:rgb(0%,0%,0%);stroke-opacity:0.133333;stroke-miterlimit:4;" d="M 328.137152 202.547012 L 324.991138 202.547012 " transform="matrix(-0.114232,0,0,0.0738031,59.827456,5.285768)"/>
<path style="fill:none;stroke-width:1.25;stroke-linecap:butt;stroke-linejoin:miter;stroke:rgb(0%,0%,0%);stroke-opacity:0.0627451;stroke-miterlimit:4;" d="M 328.129282 202.539478 L 324.983268 202.539478 " transform="matrix(-0.114232,0,0,0.0738031,59.818744,5.426949)"/>
<path style="fill:none;stroke-width:1.25;stroke-linecap:butt;stroke-linejoin:miter;stroke:rgb(0%,0%,0%);stroke-opacity:0.0627451;stroke-miterlimit:4;" d="M 328.151218 202.544776 L 325.005204 202.544776 " transform="matrix(-0.114232,0,0,0.0738031,59.75875,5.617965)"/>
<path style="fill:none;stroke-width:1.25;stroke-linecap:butt;stroke-linejoin:miter;stroke:rgb(0%,0%,0%);stroke-opacity:0.0627451;stroke-miterlimit:4;" d="M 328.143348 202.570773 L 324.997334 202.570773 " transform="matrix(-0.114232,0,0,0.0738031,59.750038,5.784015)"/>
<path style="fill:none;stroke-width:1.25;stroke-linecap:butt;stroke-linejoin:miter;stroke:rgb(0%,0%,0%);stroke-opacity:0.0627451;stroke-miterlimit:4;" d="M 328.134517 202.528732 L 324.988502 202.528732 " transform="matrix(-0.114232,0,0,0.0738031,59.647467,5.966805)"/>
<path style="fill:none;stroke-width:1.25;stroke-linecap:butt;stroke-linejoin:miter;stroke:rgb(0%,0%,0%);stroke-opacity:0.0627451;stroke-miterlimit:4;" d="M 328.125685 202.567226 L 324.979671 202.567226 " transform="matrix(-0.114232,0,0,0.0738031,59.544896,6.116308)"/>
<path style="fill:none;stroke-width:1.25;stroke-linecap:butt;stroke-linejoin:miter;stroke:rgb(0%,0%,0%);stroke-opacity:0.0627451;stroke-miterlimit:4;" d="M 328.150441 202.533395 L 325.004426 202.533395 " transform="matrix(-0.114232,0,0,0.0738031,59.450067,6.29068)"/>
<path style="fill:none;stroke-width:1.25;stroke-linecap:butt;stroke-linejoin:miter;stroke:rgb(0%,0%,0%);stroke-opacity:0.0627451;stroke-miterlimit:4;" d="M 328.133739 202.55415 L 324.987725 202.55415 " transform="matrix(-0.114232,0,0,0.0738031,59.338785,6.457117)"/>
<path style="fill:none;stroke-width:1.25;stroke-linecap:butt;stroke-linejoin:miter;stroke:rgb(0%,0%,0%);stroke-opacity:0.0627451;stroke-miterlimit:4;" d="M 328.148466 202.534127 L 325.002451 202.534127 " transform="matrix(-0.114232,0,0,0.0738031,59.262342,6.614844)"/>
<path style="fill:none;stroke-width:1.25;stroke-linecap:butt;stroke-linejoin:miter;stroke:rgb(0%,0%,0%);stroke-opacity:0.0627451;stroke-miterlimit:4;" d="M 328.153091 202.544667 L 324.972881 202.544667 " transform="matrix(-0.114232,0,0,0.0738031,59.098808,6.805473)"/>
<path style="fill:none;stroke-width:1.25;stroke-linecap:butt;stroke-linejoin:miter;stroke:rgb(0%,0%,0%);stroke-opacity:0.0627451;stroke-miterlimit:4;" d="M 328.165497 202.566385 L 324.974002 202.566385 " transform="matrix(-0.0734374,0,0,0.0738031,45.64258,6.979651)"/>
<path style="fill:none;stroke-width:1.25;stroke-linecap:butt;stroke-linejoin:miter;stroke:rgb(0%,0%,0%);stroke-opacity:0.0627451;stroke-miterlimit:4;" d="M 328.129282 202.539478 L 324.983268 202.539478 " transform="matrix(-0.114232,0,0,0.0738031,59.818744,5.426949)"/>
<path style="fill:none;stroke-width:1.25;stroke-linecap:butt;stroke-linejoin:miter;stroke:rgb(0%,0%,0%);stroke-opacity:0.0627451;stroke-miterlimit:4;" d="M 328.151218 202.544776 L 325.005204 202.544776 " transform="matrix(-0.114232,0,0,0.0738031,59.75875,5.617965)"/>
<path style="fill:none;stroke-width:1.25;stroke-linecap:butt;stroke-linejoin:miter;stroke:rgb(0%,0%,0%);stroke-opacity:0.0627451;stroke-miterlimit:4;" d="M 328.143348 202.570773 L 324.997334 202.570773 " transform="matrix(-0.114232,0,0,0.0738031,59.750038,5.784015)"/>
<path style="fill:none;stroke-width:1.25;stroke-linecap:butt;stroke-linejoin:miter;stroke:rgb(0%,0%,0%);stroke-opacity:0.0627451;stroke-miterlimit:4;" d="M 328.134517 202.528732 L 324.988502 202.528732 " transform="matrix(-0.114232,0,0,0.0738031,59.647467,5.966805)"/>
<path style="fill:none;stroke-width:1.25;stroke-linecap:butt;stroke-linejoin:miter;stroke:rgb(0%,0%,0%);stroke-opacity:0.0627451;stroke-miterlimit:4;" d="M 328.125685 202.567226 L 324.979671 202.567226 " transform="matrix(-0.114232,0,0,0.0738031,59.544896,6.116308)"/>
<path style="fill:none;stroke-width:1.25;stroke-linecap:butt;stroke-linejoin:miter;stroke:rgb(0%,0%,0%);stroke-opacity:0.0627451;stroke-miterlimit:4;" d="M 328.150441 202.533395 L 325.004426 202.533395 " transform="matrix(-0.114232,0,0,0.0738031,59.450067,6.29068)"/>
<path style="fill:none;stroke-width:1.25;stroke-linecap:butt;stroke-linejoin:miter;stroke:rgb(0%,0%,0%);stroke-opacity:0.0627451;stroke-miterlimit:4;" d="M 328.133739 202.55415 L 324.987725 202.55415 " transform="matrix(-0.114232,0,0,0.0738031,59.338785,6.457117)"/>
<path style="fill:none;stroke-width:1.25;stroke-linecap:butt;stroke-linejoin:miter;stroke:rgb(0%,0%,0%);stroke-opacity:0.0627451;stroke-miterlimit:4;" d="M 328.148466 202.534127 L 325.002451 202.534127 " transform="matrix(-0.114232,0,0,0.0738031,59.262342,6.614844)"/>
<path style="fill:none;stroke-width:1.25;stroke-linecap:butt;stroke-linejoin:miter;stroke:rgb(0%,0%,0%);stroke-opacity:0.0627451;stroke-miterlimit:4;" d="M 328.153091 202.544667 L 324.972881 202.544667 " transform="matrix(-0.114232,0,0,0.0738031,59.098808,6.805473)"/>
<path style="fill:none;stroke-width:1.25;stroke-linecap:butt;stroke-linejoin:miter;stroke:rgb(0%,0%,0%);stroke-opacity:0.0627451;stroke-miterlimit:4;" d="M 328.165497 202.566385 L 324.974002 202.566385 " transform="matrix(-0.0734374,0,0,0.0738031,45.64258,6.979651)"/>
<path style="fill-rule:evenodd;fill:rgb(94.117647%,74.901962%,0%);fill-opacity:1;stroke-width:0.625;stroke-linecap:butt;stroke-linejoin:round;stroke:rgb(0%,0%,0%);stroke-opacity:0.388235;stroke-miterlimit:4;" d="M 330.864372 211.821072 C 338.352779 207.004628 348.303128 209.54517 352.457656 212.13864 C 346.354091 210.974225 346.25151 210.444945 341.840531 210.339089 C 338.763103 210.444945 334.146961 210.127377 330.864372 211.821072 Z M 330.864372 211.821072 " transform="matrix(-0.0761594,0,0,0.0738031,47.214053,3.702876)"/>
<path style="fill:none;stroke-width:0.625;stroke-linecap:butt;stroke-linejoin:miter;stroke:rgb(0%,0%,0%);stroke-opacity:0.388235;stroke-miterlimit:4;" d="M 348.075576 211.285444 C 344.382662 218.959998 337.971355 219.065854 333.457794 210.86202 " transform="matrix(0.0761594,0,0,0.0738031,-4.825629,3.683813)"/>
<path style=" stroke:none;fill-rule:evenodd;fill:rgb(0%,0%,0%);fill-opacity:0.368627;" d="M 21.53125 19.457031 C 21.445312 19.542969 21.234375 19.59375 21.0625 19.570312 C 20.890625 19.550781 20.820312 19.460938 20.90625 19.371094 C 20.992188 19.285156 21.199219 19.234375 21.375 19.257812 C 21.546875 19.28125 21.617188 19.371094 21.53125 19.457031 Z M 21.53125 19.457031 "/>
<path style=" stroke:none;fill-rule:evenodd;fill:rgb(100%,84.313726%,0%);fill-opacity:1;" d="M 21.121094 19.335938 C 21.128906 19.355469 21.101562 19.386719 21.0625 19.398438 C 21.019531 19.410156 20.980469 19.40625 20.972656 19.382812 C 20.964844 19.363281 20.988281 19.335938 21.03125 19.320312 C 21.070312 19.308594 21.113281 19.316406 21.121094 19.335938 Z M 21.121094 19.335938 "/>
</g>
</svg>
