<?xml version="1.0" encoding="UTF-8"?>
<svg xmlns="http://www.w3.org/2000/svg" xmlns:xlink="http://www.w3.org/1999/xlink" width="20px" height="20px" viewBox="0 0 20 20" version="1.1">
<g id="surface1">
<rect x="0" y="0" width="20" height="20" style="fill:rgb(0%,0%,40.000001%);fill-opacity:1;stroke:none;"/>
<path style=" stroke:none;fill-rule:nonzero;fill:rgb(100%,100%,100%);fill-opacity:1;" d="M 0 0 L 0 1.09375 L 11.992188 9.765625 L 13.503906 9.765625 L 13.503906 8.671875 L 1.507812 0 Z M 13.503906 0 L 13.503906 1.09375 L 1.507812 9.765625 L 0 9.765625 L 0 8.671875 L 11.992188 0 Z M 13.503906 0 "/>
<path style=" stroke:none;fill-rule:nonzero;fill:rgb(100%,100%,100%);fill-opacity:1;" d="M 5.625 0 L 5.625 9.765625 L 7.875 9.765625 L 7.875 0 Z M 0 3.257812 L 0 6.507812 L 13.503906 6.507812 L 13.503906 3.257812 Z M 0 3.257812 "/>
<path style=" stroke:none;fill-rule:nonzero;fill:rgb(80.000001%,0%,0%);fill-opacity:1;" d="M 0 3.90625 L 0 5.859375 L 13.503906 5.859375 L 13.503906 3.90625 Z M 6.078125 0 L 6.078125 9.765625 L 7.429688 9.765625 L 7.429688 0 Z M 6.078125 0 "/>
<path style=" stroke:none;fill-rule:nonzero;fill:rgb(80.000001%,0%,0%);fill-opacity:1;" d="M 0 9.765625 L 4.5 6.507812 L 5.507812 6.507812 L 1.007812 9.765625 Z M 0 0 L 4.5 3.257812 L 3.492188 3.257812 L 0 0.726562 Z M 7.996094 3.257812 L 12.496094 0 L 13.503906 0 L 9 3.257812 Z M 13.503906 9.765625 L 9 6.507812 L 10.007812 6.507812 L 13.503906 9.039062 Z M 13.503906 9.765625 "/>
<path style=" stroke:none;fill-rule:evenodd;fill:rgb(100%,100%,100%);fill-opacity:1;" d="M 2.144531 14.398438 L 3.734375 15 L 4.25 13.382812 L 4.773438 15 L 6.359375 14.398438 L 5.421875 15.8125 L 6.882812 16.679688 L 5.1875 16.828125 L 5.421875 18.511719 L 4.25 17.28125 L 3.082031 18.511719 L 3.316406 16.828125 L 1.625 16.679688 L 3.085938 15.8125 Z M 2.144531 14.398438 "/>
<path style=" stroke:none;fill-rule:evenodd;fill:rgb(100%,100%,100%);fill-opacity:1;" d="M 15.773438 18.609375 L 15.039062 18.671875 L 15.140625 19.40625 L 14.632812 18.867188 L 14.125 19.40625 L 14.226562 18.671875 L 13.488281 18.609375 L 14.125 18.234375 L 13.714844 17.617188 L 14.40625 17.878906 L 14.632812 17.179688 L 14.859375 17.878906 L 15.546875 17.617188 L 15.140625 18.234375 Z M 15.773438 18.609375 "/>
<path style=" stroke:none;fill-rule:evenodd;fill:rgb(100%,100%,100%);fill-opacity:1;" d="M 15.773438 7.671875 L 15.039062 7.734375 L 15.140625 8.46875 L 14.632812 7.929688 L 14.125 8.46875 L 14.226562 7.734375 L 13.488281 7.671875 L 14.125 7.296875 L 13.714844 6.679688 L 14.40625 6.945312 L 14.632812 6.242188 L 14.859375 6.945312 L 15.546875 6.679688 L 15.140625 7.296875 Z M 15.773438 7.671875 "/>
<path style=" stroke:none;fill-rule:evenodd;fill:rgb(100%,100%,100%);fill-opacity:1;" d="M 11.671875 12.117188 L 10.9375 12.179688 L 11.039062 12.910156 L 10.53125 12.375 L 10.023438 12.910156 L 10.125 12.179688 L 9.386719 12.117188 L 10.023438 11.738281 L 9.613281 11.125 L 10.304688 11.386719 L 10.53125 10.683594 L 10.757812 11.386719 L 11.445312 11.125 L 11.039062 11.738281 Z M 11.671875 12.117188 "/>
<path style=" stroke:none;fill-rule:evenodd;fill:rgb(100%,100%,100%);fill-opacity:1;" d="M 19.421875 11.023438 L 18.683594 11.085938 L 18.785156 11.816406 L 18.273438 11.28125 L 17.765625 11.816406 L 17.867188 11.085938 L 17.132812 11.023438 L 17.769531 10.644531 L 17.359375 10.03125 L 18.054688 10.292969 L 18.273438 9.589844 L 18.503906 10.292969 L 19.191406 10.03125 L 18.785156 10.644531 Z M 19.421875 11.023438 "/>
<path style=" stroke:none;fill-rule:evenodd;fill:rgb(100%,100%,100%);fill-opacity:1;" d="M 16.273438 13.867188 L 15.867188 14.117188 L 15.984375 13.65625 L 15.621094 13.351562 L 16.09375 13.320312 L 16.273438 12.882812 L 16.453125 13.320312 L 16.921875 13.351562 L 16.5625 13.65625 L 16.671875 14.117188 Z M 16.273438 13.867188 "/>
</g>
</svg>
