<?xml version="1.0" encoding="UTF-8"?>
<svg xmlns="http://www.w3.org/2000/svg" xmlns:xlink="http://www.w3.org/1999/xlink" width="40px" height="40px" viewBox="0 0 40 40" version="1.1">
<g id="surface1">
<path style=" stroke:none;fill-rule:evenodd;fill:rgb(80.000001%,20%,20%);fill-opacity:1;" d="M 0 13.332031 L 40 13.332031 L 40 26.667969 L 0 26.667969 Z M 0 13.332031 "/>
<path style=" stroke:none;fill-rule:evenodd;fill:rgb(0%,60.000002%,80.000001%);fill-opacity:1;" d="M 0 0 L 40 0 L 40 13.332031 L 0 13.332031 Z M 0 0 "/>
<path style=" stroke:none;fill-rule:evenodd;fill:rgb(0%,60.000002%,20%);fill-opacity:1;" d="M 0 26.667969 L 40 26.667969 L 40 40 L 0 40 Z M 0 26.667969 "/>
<path style=" stroke:none;fill-rule:nonzero;fill:rgb(100%,100%,100%);fill-opacity:1;" d="M 24.316406 20.011719 C 24.320312 23.246094 21.695312 25.871094 18.460938 25.871094 C 15.226562 25.875 12.601562 23.253906 12.597656 20.019531 C 12.589844 16.785156 15.207031 14.15625 18.441406 14.152344 C 21.675781 14.140625 24.308594 16.757812 24.316406 19.992188 Z M 24.316406 20.011719 "/>
<path style=" stroke:none;fill-rule:nonzero;fill:rgb(80.000001%,20%,20%);fill-opacity:1;" d="M 24.640625 20.011719 C 24.644531 22.667969 22.488281 24.828125 19.828125 24.828125 C 17.167969 24.832031 15.007812 22.675781 15.007812 20.019531 C 15 17.359375 17.152344 15.195312 19.8125 15.191406 C 22.472656 15.183594 24.636719 17.335938 24.640625 19.996094 Z M 24.640625 20.011719 "/>
<path style=" stroke:none;fill-rule:evenodd;fill:rgb(100%,100%,100%);fill-opacity:1;" d="M 22.664062 22.3125 L 23.464844 20.632812 L 21.710938 20.011719 L 23.464844 19.386719 L 22.664062 17.707031 L 24.34375 18.507812 L 24.96875 16.753906 L 25.589844 18.507812 L 27.269531 17.707031 L 26.472656 19.386719 L 28.222656 20.011719 L 26.472656 20.632812 L 27.269531 22.3125 L 25.589844 21.515625 L 24.96875 23.265625 L 24.34375 21.515625 Z M 22.664062 22.3125 "/>
</g>
</svg>
