<?xml version="1.0" encoding="UTF-8"?>
<svg xmlns="http://www.w3.org/2000/svg" xmlns:xlink="http://www.w3.org/1999/xlink" width="40px" height="40px" viewBox="0 0 40 40" version="1.1">
<g id="surface1">
<rect x="0" y="0" width="40" height="40" style="fill:rgb(0%,0%,60.000002%);fill-opacity:1;stroke:none;"/>
<path style=" stroke:none;fill-rule:evenodd;fill:rgb(100%,80.000001%,0%);fill-opacity:1;" d="M 6.015625 0 L 40.148438 34.132812 L 40.148438 0 Z M 6.015625 0 "/>
<path style=" stroke:none;fill-rule:evenodd;fill:rgb(100%,100%,100%);fill-opacity:1;" d="M 3.113281 2.773438 L 3.84375 0.53125 L 4.570312 2.773438 L 6.925781 2.773438 L 5.019531 4.15625 L 5.75 6.398438 L 3.84375 5.011719 L 1.9375 6.398438 L 2.664062 4.15625 L 0.757812 2.773438 Z M 3.113281 2.773438 "/>
<path style=" stroke:none;fill-rule:evenodd;fill:rgb(100%,100%,100%);fill-opacity:1;" d="M 7.382812 7.039062 L 8.109375 4.796875 L 8.835938 7.039062 L 11.195312 7.039062 L 9.289062 8.425781 L 10.015625 10.664062 L 8.109375 9.28125 L 6.203125 10.664062 L 6.929688 8.425781 L 5.027344 7.039062 Z M 7.382812 7.039062 "/>
<path style=" stroke:none;fill-rule:evenodd;fill:rgb(100%,100%,100%);fill-opacity:1;" d="M 11.648438 11.304688 L 12.375 9.066406 L 13.105469 11.304688 L 15.460938 11.304688 L 13.554688 12.691406 L 14.28125 14.929688 L 12.375 13.546875 L 10.46875 14.929688 L 11.199219 12.691406 L 9.292969 11.304688 Z M 11.648438 11.304688 "/>
<path style=" stroke:none;fill-rule:evenodd;fill:rgb(100%,100%,100%);fill-opacity:1;" d="M 15.914062 15.574219 L 16.644531 13.332031 L 17.371094 15.574219 L 19.726562 15.574219 L 17.820312 16.957031 L 18.546875 19.199219 L 16.644531 17.8125 L 14.738281 19.199219 L 15.464844 16.957031 L 13.558594 15.574219 Z M 15.914062 15.574219 "/>
<path style=" stroke:none;fill-rule:evenodd;fill:rgb(100%,100%,100%);fill-opacity:1;" d="M 20.179688 19.839844 L 20.910156 17.597656 L 21.636719 19.839844 L 23.992188 19.839844 L 22.085938 21.222656 L 22.816406 23.464844 L 20.910156 22.082031 L 19.003906 23.464844 L 19.730469 21.222656 L 17.824219 19.839844 Z M 20.179688 19.839844 "/>
<path style=" stroke:none;fill-rule:evenodd;fill:rgb(100%,100%,100%);fill-opacity:1;" d="M 24.449219 24.105469 L 25.175781 21.867188 L 25.902344 24.105469 L 28.261719 24.105469 L 26.355469 25.492188 L 27.082031 27.730469 L 25.175781 26.347656 L 23.269531 27.730469 L 24 25.492188 L 22.09375 24.105469 Z M 24.449219 24.105469 "/>
<path style=" stroke:none;fill-rule:evenodd;fill:rgb(100%,100%,100%);fill-opacity:1;" d="M 28.714844 28.371094 L 29.441406 26.132812 L 30.171875 28.371094 L 32.527344 28.371094 L 30.621094 29.757812 L 31.347656 32 L 29.441406 30.613281 L 27.535156 32 L 28.265625 29.757812 L 26.359375 28.371094 Z M 28.714844 28.371094 "/>
<path style=" stroke:none;fill-rule:evenodd;fill:rgb(100%,100%,100%);fill-opacity:1;" d="M 32.980469 32.640625 L 33.710938 30.398438 L 34.4375 32.640625 L 36.792969 32.640625 L 34.886719 34.023438 L 35.617188 36.265625 L 33.710938 34.878906 L 31.804688 36.265625 L 32.53125 34.023438 L 30.625 32.640625 Z M 32.980469 32.640625 "/>
<path style=" stroke:none;fill-rule:evenodd;fill:rgb(100%,100%,100%);fill-opacity:1;" d="M 37.25 36.90625 L 37.976562 34.664062 L 38.703125 36.90625 L 41.058594 36.90625 L 39.152344 38.292969 L 39.882812 40.53125 L 37.976562 39.148438 L 36.070312 40.53125 L 36.796875 38.292969 L 34.890625 36.90625 Z M 37.25 36.90625 "/>
</g>
</svg>
