<?xml version="1.0" encoding="UTF-8"?>
<svg xmlns="http://www.w3.org/2000/svg" xmlns:xlink="http://www.w3.org/1999/xlink" width="40px" height="40px" viewBox="0 0 40 40" version="1.1">
<g id="surface1">
<path style=" stroke:none;fill-rule:evenodd;fill:rgb(0%,0%,61.56863%);fill-opacity:1;" d="M 0 0 L 13.332031 0 L 13.332031 40 L 0 40 Z M 0 0 "/>
<path style=" stroke:none;fill-rule:evenodd;fill:rgb(0%,0%,61.56863%);fill-opacity:1;" d="M 26.667969 0 L 40 0 L 40 40 L 26.667969 40 Z M 26.667969 0 "/>
<path style=" stroke:none;fill-rule:evenodd;fill:rgb(100%,83.137256%,0%);fill-opacity:1;" d="M 13.332031 0 L 26.667969 0 L 26.667969 40 L 13.332031 40 Z M 13.332031 0 "/>
<path style=" stroke:none;fill-rule:evenodd;fill:rgb(0%,0%,0%);fill-opacity:1;" d="M 19.898438 29.589844 C 20.609375 29.640625 20.214844 29.558594 20.929688 29.605469 L 20.976562 25.382812 L 23.710938 25.382812 C 23.695312 20.335938 25.65625 16.082031 27.996094 12.476562 C 28.136719 12.292969 28.042969 12.21875 27.886719 12.257812 C 26.121094 12.53125 24.308594 13.460938 23.0625 14.746094 C 22.917969 14.925781 23.082031 14.953125 23.164062 14.941406 C 23.847656 14.738281 23.710938 15.5 23.664062 15.804688 C 22.964844 18.039062 22.355469 20.199219 22.132812 22.765625 C 22.132812 22.945312 22.101562 23.074219 22.019531 23.082031 C 21.703125 23.097656 21.394531 23.09375 21.078125 23.09375 C 20.960938 23.09375 20.9375 22.96875 20.929688 22.84375 C 20.945312 20.261719 20.921875 17.675781 20.9375 15.089844 C 20.945312 14.921875 21.5625 14.226562 21.664062 14.226562 C 21.980469 14.214844 22.113281 14.222656 22.46875 14.21875 C 22.558594 14.21875 22.582031 13.933594 22.476562 13.921875 C 22.257812 13.921875 21.859375 13.902344 21.644531 13.902344 C 21.542969 13.90625 20.097656 12.800781 20.09375 12.574219 C 20.078125 12.226562 20.085938 11.886719 20.070312 11.539062 C 20.089844 11.453125 19.667969 11.433594 19.671875 11.542969 L 19.671875 12.511719 C 19.601562 12.972656 19.878906 28.179688 19.898438 29.589844 Z M 19.898438 29.589844 "/>
<path style=" stroke:none;fill-rule:evenodd;fill:rgb(0%,0%,0%);fill-opacity:1;" d="M 19.859375 29.589844 C 19.148438 29.640625 19.539062 29.558594 18.828125 29.605469 L 18.777344 25.382812 L 16.042969 25.382812 C 16.058594 20.335938 14.101562 16.082031 11.761719 12.476562 C 11.621094 12.292969 11.710938 12.21875 11.867188 12.257812 C 13.632812 12.53125 15.449219 13.460938 16.695312 14.746094 C 16.839844 14.925781 16.671875 14.953125 16.589844 14.941406 C 15.910156 14.738281 16.042969 15.5 16.09375 15.804688 C 16.792969 18.039062 17.402344 20.199219 17.625 22.765625 C 17.625 22.945312 17.652344 23.074219 17.738281 23.082031 C 18.050781 23.097656 18.359375 23.09375 18.679688 23.09375 C 18.796875 23.09375 18.820312 22.96875 18.828125 22.84375 C 18.8125 20.261719 18.835938 17.675781 18.816406 15.089844 C 18.808594 14.921875 18.191406 14.226562 18.09375 14.226562 C 17.777344 14.214844 17.640625 14.222656 17.289062 14.21875 C 17.195312 14.21875 17.175781 13.933594 17.28125 13.921875 C 17.496094 13.921875 17.898438 13.902344 18.113281 13.902344 C 18.214844 13.90625 19.660156 12.800781 19.664062 12.574219 C 19.679688 12.226562 19.667969 11.886719 19.6875 11.539062 C 19.667969 11.453125 20.089844 11.433594 20.085938 11.542969 L 20.085938 12.511719 C 20.15625 12.972656 19.875 28.179688 19.859375 29.589844 Z M 19.859375 29.589844 "/>
</g>
</svg>
