<?xml version="1.0" encoding="UTF-8"?>
<svg xmlns="http://www.w3.org/2000/svg" xmlns:xlink="http://www.w3.org/1999/xlink" width="40px" height="40px" viewBox="0 0 40 40" version="1.1">
<g id="surface1">
<path style=" stroke:none;fill-rule:evenodd;fill:rgb(0%,81.176472%,0%);fill-opacity:1;" d="M -13.90625 0 L 19.59375 20 L -13.90625 40 Z M -13.90625 0 "/>
<path style=" stroke:none;fill-rule:evenodd;fill:rgb(0%,81.176472%,0%);fill-opacity:1;" d="M 53.09375 0 L 19.59375 20 L 53.09375 40 Z M 53.09375 0 "/>
<path style=" stroke:none;fill-rule:evenodd;fill:rgb(100%,0%,0%);fill-opacity:1;" d="M -13.90625 0 L 19.59375 20 L 53.09375 0 Z M -13.90625 0 "/>
<path style=" stroke:none;fill-rule:evenodd;fill:rgb(100%,0%,0%);fill-opacity:1;" d="M -13.90625 40 L 19.59375 20 L 53.09375 40 Z M -13.90625 40 "/>
<path style=" stroke:none;fill-rule:evenodd;fill:rgb(100%,100%,100%);fill-opacity:1;" d="M 53.09375 0 L 46.851562 0 L -13.90625 36.273438 L -13.90625 40 L -7.664062 40 L 53.09375 3.726562 Z M 53.09375 0 "/>
<path style=" stroke:none;fill-rule:evenodd;fill:rgb(100%,100%,100%);fill-opacity:1;" d="M 31.160156 20 C 31.160156 26.386719 25.980469 31.566406 19.59375 31.566406 C 13.207031 31.566406 8.027344 26.386719 8.027344 20 C 8.027344 13.609375 13.207031 8.433594 19.59375 8.433594 C 25.980469 8.433594 31.160156 13.609375 31.160156 20 Z M 31.160156 20 "/>
<path style=" stroke:none;fill-rule:evenodd;fill:rgb(100%,100%,100%);fill-opacity:1;" d="M -13.90625 0 L -13.90625 3.726562 L 46.851562 40 L 53.09375 40 L 53.09375 36.273438 L -7.664062 0 Z M -13.90625 0 "/>
<path style="fill-rule:evenodd;fill:rgb(100%,0%,0%);fill-opacity:1;stroke-width:1.25;stroke-linecap:butt;stroke-linejoin:miter;stroke:rgb(0%,87.058824%,0%);stroke-opacity:1;stroke-miterlimit:4;" d="M 134.283646 105.874077 L 127.704024 105.976617 L 124.303128 111.599203 L 120.902233 105.976617 L 114.3397 105.822808 L 117.518427 100.080592 L 114.35679 94.304196 L 120.936413 94.201657 L 124.337308 88.579071 L 127.738204 94.218747 L 134.300736 94.355466 L 131.104919 100.097682 Z M 134.283646 105.874077 " transform="matrix(0.22857,0,0,0.22857,-8.822161,-8.562952)"/>
<path style="fill-rule:evenodd;fill:rgb(100%,0%,0%);fill-opacity:1;stroke-width:1.25;stroke-linecap:butt;stroke-linejoin:miter;stroke:rgb(0%,87.058824%,0%);stroke-opacity:1;stroke-miterlimit:4;" d="M 134.281399 105.875882 L 127.701777 105.978421 L 124.300882 111.601008 L 120.917076 105.978421 L 114.337454 105.824612 L 117.516181 100.082396 L 114.354544 94.306001 L 120.934166 94.203461 L 124.335062 88.580875 L 127.735957 94.203461 L 134.298489 94.357271 L 131.102673 100.099486 Z M 134.281399 105.875882 " transform="matrix(0.22857,0,0,0.22857,-13.86071,0.159292)"/>
<path style="fill-rule:evenodd;fill:rgb(100%,0%,0%);fill-opacity:1;stroke-width:1.25;stroke-linecap:butt;stroke-linejoin:miter;stroke:rgb(0%,87.058824%,0%);stroke-opacity:1;stroke-miterlimit:4;" d="M 134.27544 105.875882 L 127.695818 105.978421 L 124.294923 111.601008 L 120.911117 105.978421 L 114.331495 105.824612 L 117.527312 100.082396 L 114.365675 94.306001 L 120.928207 94.203461 L 124.346193 88.580875 L 127.729998 94.203461 L 134.29253 94.357271 L 131.113804 100.099486 Z M 134.27544 105.875882 " transform="matrix(0.22857,0,0,0.22857,-3.660129,0.159292)"/>
</g>
</svg>
