<?xml version="1.0" encoding="UTF-8"?>
<svg xmlns="http://www.w3.org/2000/svg" xmlns:xlink="http://www.w3.org/1999/xlink" width="40px" height="40px" viewBox="0 0 40 40" version="1.1">
<defs>
<filter id="alpha" filterUnits="objectBoundingBox" x="0%" y="0%" width="100%" height="100%">
  <feColorMatrix type="matrix" in="SourceGraphic" values="0 0 0 0 1 0 0 0 0 1 0 0 0 0 1 0 0 0 1 0"/>
</filter>
<mask id="mask0">
  <g filter="url(#alpha)">
<rect x="0" y="0" width="40" height="40" style="fill:rgb(0%,0%,0%);fill-opacity:0.988235;stroke:none;"/>
  </g>
</mask>
<clipPath id="clip1">
  <rect x="0" y="0" width="40" height="40"/>
</clipPath>
<g id="surface5" clip-path="url(#clip1)">
<path style="fill-rule:evenodd;fill:rgb(81.176472%,6.666667%,14.901961%);fill-opacity:1;stroke-width:2.5;stroke-linecap:butt;stroke-linejoin:bevel;stroke:rgb(0%,0%,0%);stroke-opacity:1;stroke-miterlimit:4;" d="M 457.926099 1168.720849 C 460.735566 1170.593668 471.888299 1172.551615 492.235651 1168.976234 C 527.737099 1162.761881 527.481693 1127.774225 582.81968 1144.033696 C 580.265619 1139.011137 571.581812 1123.688076 549.957429 1123.092179 C 552.170948 1115.856289 553.703385 1105.300403 549.702023 1098.66041 C 545.53039 1107.939374 539.060102 1112.280908 534.377657 1115.34552 C 532.930356 1114.494239 524.58709 1107.68399 523.650601 1097.383488 C 522.373571 1077.037868 512.497868 1073.377359 511.391109 1073.973256 C 505.005956 1073.803 466.524771 1134.584475 384.113738 1135.010115 C 302.979735 1135.350628 262.285031 1074.484025 257.687721 1073.973256 C 256.666097 1073.377359 246.705259 1077.037868 245.428229 1097.383488 C 244.576875 1107.68399 236.063339 1114.238855 234.701173 1115.175264 C 230.018728 1112.280908 223.633575 1107.939374 219.461942 1098.66041 C 215.375445 1105.300403 216.907882 1115.856289 219.121401 1123.092179 C 197.582154 1123.688076 188.813211 1139.011137 186.344286 1144.033696 C 241.597137 1127.774225 241.767408 1162.761881 277.268855 1168.976234 C 297.616207 1172.551615 308.172993 1170.849052 310.98246 1169.061362 " transform="matrix(0.0458828,0,0,0.0458867,3.114063,-22.515485)"/>
</g>
<mask id="mask1">
  <g filter="url(#alpha)">
<rect x="0" y="0" width="40" height="40" style="fill:rgb(0%,0%,0%);fill-opacity:0.988235;stroke:none;"/>
  </g>
</mask>
<clipPath id="clip2">
  <rect x="0" y="0" width="40" height="40"/>
</clipPath>
<g id="surface8" clip-path="url(#clip2)">
<path style="fill-rule:evenodd;fill:rgb(81.176472%,6.666667%,14.901961%);fill-opacity:1;stroke-width:2.5;stroke-linecap:butt;stroke-linejoin:bevel;stroke:rgb(0%,0%,0%);stroke-opacity:1;stroke-miterlimit:4;" d="M 286.293204 1151.184457 C 267.052611 1150.418304 229.42278 1121.134232 234.786308 1115.090136 C 236.489015 1113.387574 244.747146 1115.175264 259.049887 1125.220382 C 280.333728 1139.692162 298.637832 1185.40596 383.943467 1185.065448 C 470.95181 1184.724935 488.745102 1139.692162 510.028943 1125.220382 C 524.416819 1115.175264 533.356033 1113.55783 534.377657 1115.515777 C 539.485779 1121.304489 501.855948 1150.503432 482.615355 1151.269586 " transform="matrix(0.0458828,0,0,0.0458867,3.114063,-22.515485)"/>
</g>
</defs>
<g id="surface1">
<path style=" stroke:none;fill-rule:evenodd;fill:rgb(100%,100%,100%);fill-opacity:1;" d="M -17.257812 2.761719 L -17.246094 12.277344 L 62.75 28.886719 L 62.75 19.441406 Z M -17.257812 2.761719 "/>
<path style=" stroke:none;fill-rule:evenodd;fill:rgb(99.215686%,81.960785%,7.843138%);fill-opacity:1;" d="M -17.246094 20.554688 L -17.246094 40 L 62.75 40 L 62.75 37.222656 Z M -17.246094 20.554688 "/>
<path style=" stroke:none;fill-rule:evenodd;fill:rgb(99.215686%,81.960785%,7.843138%);fill-opacity:1;" d="M 62.75 19.445312 L 62.75 0 L -17.246094 0 L -17.246094 2.777344 Z M 62.75 19.445312 "/>
<path style=" stroke:none;fill-rule:evenodd;fill:rgb(0%,0%,0%);fill-opacity:1;" d="M -17.246094 12.226562 L -17.246094 20.558594 L 62.777344 37.222656 L 62.75 28.886719 Z M -17.246094 12.226562 "/>
<path style="fill-rule:evenodd;fill:rgb(81.176472%,6.666667%,14.901961%);fill-opacity:1;stroke-width:1.5623;stroke-linecap:butt;stroke-linejoin:miter;stroke:rgb(0%,0%,0%);stroke-opacity:1;stroke-miterlimit:4;" d="M 274.596177 617.630111 L 284.119683 617.630111 L 284.119683 643.058889 L 274.596177 643.058889 Z M 274.596177 617.630111 " transform="matrix(0.0734203,0,0,0.0734281,0.253125,-28.835797)"/>
<path style="fill-rule:evenodd;fill:rgb(81.176472%,6.666667%,14.901961%);fill-opacity:1;stroke-width:3.2074;stroke-linecap:butt;stroke-linejoin:miter;stroke:rgb(0%,0%,0%);stroke-opacity:1;stroke-miterlimit:4;" d="M 415.070994 645.703308 C 414.83748 612.090721 416.238564 579.806291 418.923974 570.713525 C 421.492627 561.518592 425.462363 559.57744 430.249399 555.082139 C 418.807217 554.06048 406.080708 563.766242 400.24286 576.434816 C 396.506638 562.029422 389.617977 552.32366 383.546615 547.419695 C 377.358497 552.32366 370.236322 562.233754 366.967127 576.639148 C 360.895766 565.911727 350.387639 554.06048 337.894645 555.388637 C 342.331409 559.986103 346.417903 561.722924 349.103313 570.611359 C 351.788723 579.601959 353.073049 611.682058 352.138994 645.192479 " transform="matrix(0.0334563,0,0,0.0382344,7.925781,-3.238844)"/>
<path style="fill-rule:evenodd;fill:rgb(81.176472%,6.666667%,14.901961%);fill-opacity:1;stroke-width:2.8036;stroke-linecap:butt;stroke-linejoin:miter;stroke:rgb(0%,0%,0%);stroke-opacity:1;stroke-miterlimit:4;" d="M 414.493105 641.96509 C 414.171892 608.424612 415.777957 579.736437 418.133518 570.627729 C 420.382008 561.51902 424.129492 559.816458 429.375969 555.900565 C 417.812305 554.879027 406.891067 557.603127 400.466809 573.2667 C 396.933467 558.709792 389.866783 551.644159 383.763738 546.706728 C 377.660693 551.644159 370.486939 558.965177 367.167739 573.351828 C 360.101055 557.858511 350.250527 554.453387 337.830295 555.730308 C 342.969701 560.071842 347.038398 561.689276 349.608101 570.627729 C 352.177804 579.566181 352.499017 607.913844 351.428307 641.53945 " transform="matrix(0.0364828,0,0,0.0458867,6.757032,-4.797516)"/>
<path style="fill-rule:evenodd;fill:rgb(81.176472%,6.666667%,14.901961%);fill-opacity:1;stroke-width:2.5;stroke-linecap:butt;stroke-linejoin:miter;stroke:rgb(0%,0%,0%);stroke-opacity:1;stroke-miterlimit:4;" d="M 417.469768 590.801386 C 417.214362 583.054727 418.235986 572.498841 420.023829 568.49782 C 421.811671 564.41167 424.280597 561.432186 426.749523 558.027061 C 416.107602 556.494755 405.12514 557.260908 399.335935 573.00961 C 395.589979 558.622958 389.971045 551.131684 383.926434 546.194253 C 377.796688 551.131684 372.518295 558.622958 368.772339 573.00961 C 362.983134 557.260908 352.000672 556.324499 340.933075 558.027061 C 343.487136 561.432186 346.041197 564.41167 347.914175 568.49782 C 349.787153 572.498841 350.979048 583.054727 350.638506 590.801386 " transform="matrix(0.0458828,0,0,0.0458867,3.146094,-1.598219)"/>
<path style="fill-rule:evenodd;fill:rgb(81.176472%,6.666667%,14.901961%);fill-opacity:1;stroke-width:2.5;stroke-linecap:butt;stroke-linejoin:miter;stroke:rgb(0%,0%,0%);stroke-opacity:1;stroke-miterlimit:4;" d="M 378.920481 610.808207 L 378.920481 642.986635 L 390.32862 642.986635 L 390.32862 610.808207 Z M 378.920481 610.808207 " transform="matrix(0.0458828,0,0,0.0458867,3.114063,-15.145172)"/>
<use xlink:href="#surface5" mask="url(#mask0)"/>
<use xlink:href="#surface8" mask="url(#mask1)"/>
<path style="fill-rule:evenodd;fill:rgb(81.176472%,6.666667%,14.901961%);fill-opacity:1;stroke-width:2.5;stroke-linecap:butt;stroke-linejoin:miter;stroke:rgb(0%,0%,0%);stroke-opacity:1;stroke-miterlimit:4;" d="M 259.203125 399.518509 C 183.092108 479.709194 224.042219 663.926438 382.223727 666.56541 C 541.256588 668.3531 587.655362 482.263038 508.649744 399.177996 M 274.612626 402.327737 C 234.088192 470.43023 276.230198 589.950105 384.522382 589.950105 C 493.665919 589.950105 533.679541 469.578949 493.580784 401.902096 " transform="matrix(0.0458828,0,0,0.0458867,3.146094,-1.598219)"/>
<path style="fill-rule:evenodd;fill:rgb(99.215686%,81.960785%,7.843138%);fill-opacity:1;stroke-width:0.22025;stroke-linecap:butt;stroke-linejoin:miter;stroke:rgb(81.176472%,6.666667%,14.901961%);stroke-opacity:1;stroke-miterlimit:4;" d="M 512.180002 379.8882 C 515.430002 380.6382 518.380002 383.9882 517.230002 387.4382 C 515.880002 391.5382 510.980002 392.5382 509.130002 392.2382 C 507.130002 391.0382 508.330002 389.3382 514.430002 388.6382 C 518.430002 387.1882 514.780002 384.4882 511.780002 383.2382 C 510.180002 382.5382 510.680002 379.5382 512.180002 379.8882 Z M 512.180002 379.8882 " transform="matrix(0.078125,0,0,0.078125,-17.955469,0.387641)"/>
<path style="fill-rule:evenodd;fill:rgb(99.215686%,81.960785%,7.843138%);fill-opacity:1;stroke-width:0.22025;stroke-linecap:butt;stroke-linejoin:miter;stroke:rgb(81.176472%,6.666667%,14.901961%);stroke-opacity:1;stroke-miterlimit:4;" d="M 502.130002 378.8382 C 503.630002 377.1382 504.830002 382.3882 505.180002 386.0382 C 505.630002 389.5882 505.680002 393.9882 504.230002 394.2382 C 503.380002 394.3882 504.080002 390.1382 503.180002 386.2382 C 501.980002 381.7382 501.480002 379.5882 502.130002 378.8382 Z M 502.130002 378.8382 " transform="matrix(0.078125,0,0,0.078125,-17.955469,0.387641)"/>
<path style="fill-rule:evenodd;fill:rgb(99.215686%,81.960785%,7.843138%);fill-opacity:1;stroke-width:0.22025;stroke-linecap:butt;stroke-linejoin:miter;stroke:rgb(79.607844%,30.980393%,27.450982%);stroke-opacity:1;stroke-miterlimit:4;" d="M 498.630002 385.3382 C 502.430002 389.0382 496.030002 399.6882 481.930002 395.0382 C 481.130002 393.5882 487.530002 394.9882 492.030002 394.2382 C 500.580002 392.8882 496.930002 383.6882 498.630002 385.3382 Z M 498.630002 385.3382 " transform="matrix(0.078125,0,0,0.078125,-17.955469,0.387641)"/>
<path style="fill-rule:evenodd;fill:rgb(99.215686%,81.960785%,7.843138%);fill-opacity:1;stroke-width:0.22025;stroke-linecap:butt;stroke-linejoin:miter;stroke:rgb(81.176472%,6.666667%,14.901961%);stroke-opacity:1;stroke-miterlimit:4;" d="M 491.780002 378.0382 C 493.280002 376.3382 492.380002 381.7382 492.730002 385.4382 C 493.030002 388.8382 492.630002 393.0382 490.980002 392.4882 C 490.130002 392.0882 491.580002 388.1882 490.680002 384.5882 C 489.680002 380.0382 490.630002 379.1882 491.780002 378.0382 Z M 491.780002 378.0382 " transform="matrix(0.078125,0,0,0.078125,-17.955469,0.387641)"/>
<path style="fill-rule:evenodd;fill:rgb(99.215686%,81.960785%,7.843138%);fill-opacity:1;stroke-width:0.22025;stroke-linecap:butt;stroke-linejoin:miter;stroke:rgb(81.176472%,6.666667%,14.901961%);stroke-opacity:1;stroke-miterlimit:4;" d="M 482.130002 376.5882 C 484.780002 376.5382 484.080002 377.3382 483.880002 384.4882 C 483.680002 392.5382 476.880002 393.4382 475.280002 391.1882 C 473.930002 389.4882 474.430002 388.9382 468.380002 389.5382 C 466.980002 388.8382 467.030002 387.3882 462.630002 387.7882 C 461.480002 387.9882 461.530002 385.8382 459.430002 384.5382 C 455.830002 382.3882 454.630002 386.0882 447.780002 382.1382 C 447.330002 381.8882 444.580002 380.1382 445.080002 376.6382 C 445.630002 372.2382 441.580002 377.1882 437.180002 375.2882 C 436.330002 374.8882 433.730002 373.7882 431.430002 371.7882 C 428.180002 369.0382 431.580002 368.4382 435.930002 371.2882 C 438.630002 372.9882 442.580002 369.0882 442.680002 365.1382 C 442.930002 360.9882 440.880002 359.8882 444.080002 359.9882 C 445.880002 360.0382 445.430002 367.2382 442.380002 370.4382 C 438.330002 374.8382 441.080002 373.9882 442.530002 373.7882 C 444.030002 373.3882 450.930002 364.8382 452.080002 365.5882 C 453.880002 366.7882 446.730002 372.2882 448.330002 377.4382 C 449.080002 379.7382 453.330002 381.9382 456.880002 382.2882 C 460.980002 382.9882 461.030002 377.3882 462.680002 378.4382 C 464.980002 379.9882 458.280002 382.8382 465.330002 384.9382 C 466.930002 385.3882 467.830002 381.3882 468.730002 381.5882 C 470.980002 381.9382 467.280002 386.2382 471.280002 386.8882 C 474.030002 387.3882 473.280002 382.8882 474.980002 383.1882 C 476.980002 383.0382 475.130002 390.3382 480.630002 389.5882 C 482.930002 389.2882 479.330002 376.5882 482.130002 376.5882 Z M 482.130002 376.5882 " transform="matrix(0.078125,0,0,0.078125,-17.955469,0.387641)"/>
<path style="fill-rule:evenodd;fill:rgb(99.215686%,81.960785%,7.843138%);fill-opacity:1;stroke-width:0.22025;stroke-linecap:butt;stroke-linejoin:miter;stroke:rgb(81.176472%,6.666667%,14.901961%);stroke-opacity:1;stroke-miterlimit:4;" d="M 432.180002 367.1382 C 433.780002 366.7882 436.480002 365.3382 436.580002 362.9382 C 436.830002 360.2882 433.180002 359.3882 428.830002 360.0882 C 426.580002 360.4382 422.680002 358.9382 420.430002 356.9882 C 418.130002 354.1382 418.130002 350.9382 415.430002 352.3382 C 413.380002 353.2382 418.280002 358.4882 420.630002 359.7382 C 423.030002 360.9882 426.930002 360.8882 427.130002 362.6882 C 427.380002 364.5382 426.230002 367.3882 432.180002 367.1382 Z M 432.180002 367.1382 " transform="matrix(0.078125,0,0,0.078125,-17.955469,0.387641)"/>
<path style="fill-rule:evenodd;fill:rgb(99.215686%,81.960785%,7.843138%);fill-opacity:1;stroke-width:0.22025;stroke-linecap:butt;stroke-linejoin:miter;stroke:rgb(81.176472%,6.666667%,14.901961%);stroke-opacity:1;stroke-miterlimit:4;" d="M 529.130002 379.3882 C 528.280002 379.7882 527.530002 387.7382 532.530002 387.9382 C 538.780002 388.1382 541.930002 384.9882 543.480002 383.8382 C 546.080002 381.8882 550.730002 377.9382 548.580002 374.5382 C 547.480002 373.2882 546.880002 376.7882 545.630002 378.8382 C 543.930002 381.8882 538.130002 385.4382 533.680002 384.9382 C 528.180002 384.6382 530.230002 379.0882 529.130002 379.3882 Z M 529.130002 379.3882 " transform="matrix(0.078125,0,0,0.078125,-17.955469,0.387641)"/>
<path style="fill-rule:evenodd;fill:rgb(99.215686%,81.960785%,7.843138%);fill-opacity:1;stroke-width:0.22025;stroke-linecap:butt;stroke-linejoin:miter;stroke:rgb(81.176472%,6.666667%,14.901961%);stroke-opacity:1;stroke-miterlimit:4;" d="M 541.980002 375.6882 C 540.730002 374.7382 544.830002 373.1382 545.230002 371.6382 C 545.630002 370.1882 543.430002 368.7882 544.680002 367.1382 C 545.980002 364.9882 546.030002 371.1882 547.680002 371.3382 C 552.280002 371.8382 548.980002 374.7882 547.280002 374.2382 C 545.330002 373.6382 542.730002 376.3882 541.980002 375.6882 Z M 541.980002 375.6882 " transform="matrix(0.078125,0,0,0.078125,-17.955469,0.387641)"/>
<path style="fill-rule:evenodd;fill:rgb(99.215686%,81.960785%,7.843138%);fill-opacity:1;stroke-width:0.22025;stroke-linecap:butt;stroke-linejoin:miter;stroke:rgb(81.176472%,6.666667%,14.901961%);stroke-opacity:1;stroke-miterlimit:4;" d="M 538.430002 366.2882 C 538.130002 368.3882 539.380002 368.8882 539.780002 367.6882 C 540.180002 365.4882 538.930002 364.4882 538.430002 366.2882 Z M 538.430002 366.2882 " transform="matrix(0.078125,0,0,0.078125,-17.955469,0.387641)"/>
<path style="fill-rule:evenodd;fill:rgb(99.215686%,81.960785%,7.843138%);fill-opacity:1;stroke-width:0.22025;stroke-linecap:butt;stroke-linejoin:miter;stroke:rgb(81.176472%,6.666667%,14.901961%);stroke-opacity:1;stroke-miterlimit:4;" d="M 541.730002 364.1882 C 541.030002 364.2382 540.930002 366.7882 541.880002 366.8382 C 542.930002 366.9382 542.430002 368.6882 543.280002 368.6882 C 544.330002 368.6382 544.430002 365.7382 543.230002 365.6882 C 542.130002 365.6882 542.430002 364.1882 541.730002 364.1882 Z M 541.730002 364.1882 " transform="matrix(0.078125,0,0,0.078125,-17.955469,0.387641)"/>
<path style="fill-rule:evenodd;fill:rgb(99.215686%,81.960785%,7.843138%);fill-opacity:1;stroke-width:0.22025;stroke-linecap:butt;stroke-linejoin:miter;stroke:rgb(81.176472%,6.666667%,14.901961%);stroke-opacity:1;stroke-miterlimit:4;" d="M 550.030002 363.6882 C 549.180002 364.7882 547.530002 359.3882 553.130002 358.6382 C 555.780002 358.8882 558.030002 363.2382 557.830002 367.4882 C 557.730002 369.0382 557.630002 372.5882 556.780002 374.2882 C 556.080002 375.9382 553.480002 381.3382 552.230002 380.8882 C 550.980002 380.3882 552.580002 378.1382 554.680002 374.9882 C 556.380002 372.4382 557.030002 365.2882 556.180002 364.0382 C 555.280002 362.7882 554.430002 367.1882 552.630002 368.0882 C 551.130002 368.8882 549.580002 366.6382 549.330002 365.5382 C 549.180002 364.2382 550.330002 363.4382 551.130002 364.9882 C 551.780002 366.1382 553.780002 363.8382 553.730002 362.1882 C 553.780002 359.5382 551.980002 361.6382 550.030002 363.6882 Z M 550.030002 363.6882 " transform="matrix(0.078125,0,0,0.078125,-17.955469,0.387641)"/>
<path style="fill-rule:evenodd;fill:rgb(99.215686%,81.960785%,7.843138%);fill-opacity:1;stroke-width:0.22025;stroke-linecap:butt;stroke-linejoin:miter;stroke:rgb(81.176472%,6.666667%,14.901961%);stroke-opacity:1;stroke-miterlimit:4;" d="M 562.130002 351.6382 C 561.430002 352.6882 558.980002 354.9382 558.530002 355.8882 C 558.030002 356.8382 557.980002 358.4882 558.730002 360.0382 C 559.530002 361.5882 561.180002 364.0882 560.880002 366.3882 C 560.530002 368.6382 558.980002 373.3382 559.830002 372.9882 C 560.730002 372.5882 562.830002 367.9382 562.330002 364.4382 C 561.880002 360.8882 560.230002 358.9382 560.530002 357.7882 C 560.880002 356.5882 562.830002 354.3882 563.230002 352.9382 C 563.630002 351.4382 562.980002 347.4382 562.430002 347.1382 C 561.880002 346.7882 559.930002 347.4882 560.530002 348.8382 C 561.180002 350.1882 562.530002 349.3882 562.130002 351.6382 Z M 562.130002 351.6382 " transform="matrix(0.078125,0,0,0.078125,-17.955469,0.387641)"/>
<path style="fill-rule:evenodd;fill:rgb(99.215686%,81.960785%,7.843138%);fill-opacity:1;stroke-width:0.20734;stroke-linecap:butt;stroke-linejoin:miter;stroke:rgb(81.176472%,6.666667%,14.901961%);stroke-opacity:1;stroke-miterlimit:4;" d="M 565.330002 353.4882 C 564.480002 354.2882 564.880002 358.6382 566.130002 357.0882 C 567.230002 355.5882 566.030002 352.7882 565.330002 353.4882 Z M 565.330002 353.4882 " transform="matrix(0.078125,0,0,0.078125,-17.955469,0.387641)"/>
<path style="fill-rule:evenodd;fill:rgb(99.215686%,81.960785%,7.843138%);fill-opacity:1;stroke-width:0.25044;stroke-linecap:butt;stroke-linejoin:miter;stroke:rgb(81.176472%,6.666667%,14.901961%);stroke-opacity:1;stroke-miterlimit:4;" d="M 542.330002 385.8882 C 541.930002 387.7882 543.780002 388.3882 544.330002 387.2882 C 544.930002 385.2382 543.030002 384.1882 542.330002 385.8882 Z M 542.330002 385.8882 " transform="matrix(0.078125,0,0,0.078125,-17.955469,0.387641)"/>
<path style="fill-rule:evenodd;fill:rgb(99.215686%,81.960785%,7.843138%);fill-opacity:1;stroke-width:0.27617;stroke-linecap:butt;stroke-linejoin:miter;stroke:rgb(81.176472%,6.666667%,14.901961%);stroke-opacity:1;stroke-miterlimit:4;" d="M 545.180002 384.2382 C 544.580002 385.8382 547.330002 385.9882 548.080002 385.0882 C 548.980002 383.3882 546.280002 382.8382 545.180002 384.2382 Z M 545.180002 384.2382 " transform="matrix(0.078125,0,0,0.078125,-17.955469,0.387641)"/>
<path style="fill-rule:evenodd;fill:rgb(81.176472%,6.666667%,14.901961%);fill-opacity:1;stroke-width:0.22025;stroke-linecap:butt;stroke-linejoin:miter;stroke:rgb(81.176472%,6.666667%,14.901961%);stroke-opacity:1;stroke-miterlimit:4;" d="M 431.830002 361.6882 C 430.380002 361.0382 430.430002 363.9382 431.130002 364.7382 C 431.830002 365.5382 435.780002 363.4882 431.830002 361.6882 Z M 431.830002 361.6882 " transform="matrix(0.078125,0,0,0.078125,-17.955469,0.387641)"/>
<path style="fill-rule:evenodd;fill:rgb(81.176472%,6.666667%,14.901961%);fill-opacity:1;stroke-width:2.5;stroke-linecap:round;stroke-linejoin:miter;stroke:rgb(0%,0%,0%);stroke-opacity:1;stroke-miterlimit:4;" d="M 385.646175 680.27275 C 360.701513 685.295309 343.589304 699.937345 351.592029 704.874776 C 356.52988 708.109644 379.601564 699.171192 384.45428 691.509662 C 393.393493 705.045032 417.401666 710.152719 423.190871 707.088107 " transform="matrix(0.0458828,0,0,0.0458867,3.114063,-15.145172)"/>
<path style=" stroke:none;fill-rule:evenodd;fill:rgb(81.176472%,6.666667%,14.901961%);fill-opacity:1;" d="M 14.871094 15.703125 C 15.0625 15.996094 16.046875 16.707031 16.753906 16.757812 C 17.460938 16.808594 19.066406 17.136719 19.378906 17 C 19.691406 16.859375 20.570312 16.257812 20.792969 16.359375 C 21.019531 16.464844 22.332031 17.1875 22.816406 17.171875 C 23.296875 17.152344 26.425781 16.273438 26.527344 16.101562 C 26.632812 15.929688 25.90625 15.480469 25.441406 15.480469 C 24.972656 15.480469 14.871094 15.722656 14.871094 15.703125 Z M 14.871094 15.703125 "/>
<path style="fill-rule:evenodd;fill:rgb(81.176472%,6.666667%,14.901961%);fill-opacity:1;stroke-width:2.5;stroke-linecap:round;stroke-linejoin:miter;stroke:rgb(0%,0%,0%);stroke-opacity:1;stroke-miterlimit:4;" d="M 316.175717 703.34247 C 316.345988 707.173235 319.24059 709.982463 326.391961 710.067591 C 338.310912 710.237847 358.402858 704.619391 370.49208 691.084021 " transform="matrix(0.0458828,0,0,0.0458867,3.114063,-15.145172)"/>
<path style="fill-rule:evenodd;fill:rgb(81.176472%,6.666667%,14.901961%);fill-opacity:1;stroke-width:2.5;stroke-linecap:round;stroke-linejoin:miter;stroke:rgb(0%,0%,0%);stroke-opacity:1;stroke-miterlimit:4;" d="M 280.503999 697.638886 C 279.822916 700.873754 285.186444 705.045032 295.572959 705.215288 C 306.044609 705.300416 342.397409 700.873754 354.060954 688.700434 " transform="matrix(0.0458828,0,0,0.0458867,3.114063,-15.145172)"/>
<path style="fill-rule:evenodd;fill:rgb(81.176472%,6.666667%,14.901961%);fill-opacity:1;stroke-width:2.5;stroke-linecap:round;stroke-linejoin:miter;stroke:rgb(0%,0%,0%);stroke-opacity:1;stroke-miterlimit:4;" d="M 255.899879 687.849153 C 250.280945 695.085042 268.074236 697.638886 278.716156 697.46863 C 289.443212 697.383502 316.941935 697.213245 329.286563 688.019409 " transform="matrix(0.0458828,0,0,0.0458867,3.114063,-15.145172)"/>
<path style="fill-rule:evenodd;fill:rgb(81.176472%,6.666667%,14.901961%);fill-opacity:1;stroke-width:2.5;stroke-linecap:round;stroke-linejoin:miter;stroke:rgb(0%,0%,0%);stroke-opacity:1;stroke-miterlimit:4;" d="M 236.40388 675.76096 C 231.040352 682.826594 248.918779 689.040946 270.798567 688.530177 C 290.890514 688.104537 311.323001 681.124031 311.323001 681.124031 " transform="matrix(0.0458828,0,0,0.0458867,3.114063,-15.145172)"/>
<path style="fill-rule:evenodd;fill:rgb(81.176472%,6.666667%,14.901961%);fill-opacity:1;stroke-width:2.5;stroke-linecap:round;stroke-linejoin:miter;stroke:rgb(0%,0%,0%);stroke-opacity:1;stroke-miterlimit:4;" d="M 452.477436 703.34247 C 452.392301 707.173235 449.412563 709.982463 442.346328 710.067591 C 430.427377 710.237847 410.250295 704.619391 398.246209 691.084021 " transform="matrix(0.0458828,0,0,0.0458867,3.114063,-15.145172)"/>
<path style="fill-rule:evenodd;fill:rgb(81.176472%,6.666667%,14.901961%);fill-opacity:1;stroke-width:2.5;stroke-linecap:round;stroke-linejoin:miter;stroke:rgb(0%,0%,0%);stroke-opacity:1;stroke-miterlimit:4;" d="M 488.234289 697.638886 C 488.830237 700.873754 483.466709 705.045032 473.080194 705.215288 C 462.69368 705.300416 426.340879 700.873754 414.677334 688.700434 " transform="matrix(0.0458828,0,0,0.0458867,3.114063,-15.145172)"/>
<path style="fill-rule:evenodd;fill:rgb(81.176472%,6.666667%,14.901961%);fill-opacity:1;stroke-width:2.5;stroke-linecap:round;stroke-linejoin:miter;stroke:rgb(0%,0%,0%);stroke-opacity:1;stroke-miterlimit:4;" d="M 512.668139 688.019409 C 518.201938 695.170171 500.578917 697.638886 489.936997 697.46863 C 479.295076 697.383502 451.711218 697.213245 439.36659 688.019409 " transform="matrix(0.0458828,0,0,0.0458867,3.114063,-15.145172)"/>
<path style="fill-rule:evenodd;fill:rgb(81.176472%,6.666667%,14.901961%);fill-opacity:1;stroke-width:2.5;stroke-linecap:round;stroke-linejoin:miter;stroke:rgb(0%,0%,0%);stroke-opacity:1;stroke-miterlimit:4;" d="M 532.334408 675.675832 C 537.697936 682.741466 519.734374 689.040946 497.854586 688.530177 C 477.762639 688.104537 457.330152 681.124031 457.330152 681.124031 " transform="matrix(0.0458828,0,0,0.0458867,3.114063,-15.145172)"/>
<path style="fill-rule:evenodd;fill:rgb(81.176472%,6.666667%,14.901961%);fill-opacity:1;stroke-width:2.5;stroke-linecap:round;stroke-linejoin:miter;stroke:rgb(0%,0%,0%);stroke-opacity:1;stroke-miterlimit:4;" d="M 279.226969 675.079935 C 251.47284 679.166085 238.702535 677.12301 233.168736 674.39891 C 226.272772 671.419426 214.438956 662.140461 231.891706 661.799949 C 243.470115 661.544565 249.344456 662.480974 262.540437 662.395846 C 296.254042 661.970205 344.866335 635.325105 359.594753 635.239977 C 373.301547 635.154849 376.962367 641.454329 384.794821 641.624585 C 392.797545 641.709714 395.351606 635.154849 409.0584 635.239977 C 423.786818 635.325105 472.484247 661.970205 506.197851 662.395846 C 519.308698 662.480974 525.183038 661.544565 536.761447 661.799949 C 554.299332 662.140461 542.380381 671.419426 535.484417 674.39891 C 529.950618 677.12301 517.180313 679.166085 489.426184 675.079935 " transform="matrix(0.0458828,0,0,0.0458867,3.114063,-15.145172)"/>
<path style="fill-rule:evenodd;fill:rgb(81.176472%,6.666667%,14.901961%);fill-opacity:1;stroke-width:2.5;stroke-linecap:butt;stroke-linejoin:miter;stroke:rgb(0%,0%,0%);stroke-opacity:1;stroke-miterlimit:4;" d="M 383.585893 280.254018 C 370.475046 280.935043 352.511484 278.721712 346.807415 293.27862 C 337.953337 309.878602 340.507398 328.777044 344.423625 329.202685 C 351.48986 329.968838 352.170943 310.304243 355.150681 310.304243 C 358.300689 310.304243 358.300689 327.329866 364.430436 327.244738 C 369.027745 327.074482 371.922348 310.048859 373.369649 310.133987 C 374.81695 310.304243 377.881823 326.563713 383.671028 326.563713 C 389.800774 326.563713 392.439971 310.304243 393.887272 310.133987 C 395.334573 310.048859 398.229175 327.074482 402.826485 327.244738 C 408.956231 327.329866 408.956231 310.304243 412.10624 310.304243 C 415.171113 310.304243 416.448143 329.798582 423.514379 329.032429 C 427.515741 328.691916 429.388719 309.878602 420.619776 293.27862 C 414.915707 278.721712 396.526468 280.935043 383.585893 280.254018 Z M 383.585893 280.254018 " transform="matrix(0.0458828,0,0,0.0458867,3.146094,-1.598219)"/>
<path style="fill-rule:evenodd;fill:rgb(81.176472%,6.666667%,14.901961%);fill-opacity:1;stroke-width:2.5;stroke-linecap:butt;stroke-linejoin:miter;stroke:rgb(0%,0%,0%);stroke-opacity:1;stroke-miterlimit:4;" d="M 352.256078 286.212986 C 355.746628 292.171954 383.07508 292.001698 384.607517 292.001698 C 386.139954 292.001698 409.977856 292.257082 415.59679 286.553499 " transform="matrix(0.0458828,0,0,0.0458867,3.146094,-1.598219)"/>
<path style="fill-rule:evenodd;fill:rgb(81.176472%,6.666667%,14.901961%);fill-opacity:1;stroke-width:2.5;stroke-linecap:butt;stroke-linejoin:miter;stroke:rgb(0%,0%,0%);stroke-opacity:1;stroke-miterlimit:4;" d="M 378.648041 224.835614 L 378.648041 282.89299 C 378.648041 282.89299 378.903448 286.127858 383.756163 286.212986 C 388.523744 286.383242 389.289962 283.488886 389.289962 283.063246 L 389.034556 224.750486 " transform="matrix(0.0458828,0,0,0.0458867,3.146094,-1.598219)"/>
<path style="fill-rule:evenodd;fill:rgb(81.176472%,6.666667%,14.901961%);fill-opacity:1;stroke-width:2.5;stroke-linecap:butt;stroke-linejoin:miter;stroke:rgb(0%,0%,0%);stroke-opacity:1;stroke-miterlimit:4;" d="M 384.266976 231.560736 C 406.146764 230.45407 412.617052 243.393544 418.831934 246.202772 C 424.96168 249.011999 427.771147 250.118665 436.199548 249.522768 C 444.627949 249.011999 421.641401 263.568907 421.641401 264.079676 L 429.984666 279.232481 C 422.152213 280.339146 407.338659 273.103256 401.379184 269.187363 C 394.738625 265.186341 387.416984 267.484801 384.607517 266.888904 Z M 384.266976 231.560736 " transform="matrix(0.0458828,0,0,0.0458867,3.146094,-1.598219)"/>
<path style="fill-rule:evenodd;fill:rgb(81.176472%,6.666667%,14.901961%);fill-opacity:1;stroke-width:1.6744;stroke-linecap:butt;stroke-linejoin:miter;stroke:rgb(0%,0%,0%);stroke-opacity:1;stroke-miterlimit:4;" d="M 313.38486 264.673555 C 313.38486 268.997232 309.514028 272.544865 304.704813 272.544865 C 299.895598 272.544865 296.024767 268.997232 296.024767 264.673555 C 296.024767 260.349878 299.895598 256.802246 304.704813 256.802246 C 309.514028 256.802246 313.38486 260.349878 313.38486 264.673555 Z M 313.38486 264.673555 " transform="matrix(0.0666039,0,0,0.0704695,0.459375,-10.432672)"/>
<path style="fill-rule:evenodd;fill:rgb(99.215686%,81.960785%,7.843138%);fill-opacity:1;stroke-width:0.375;stroke-linecap:butt;stroke-linejoin:miter;stroke:rgb(81.176472%,6.666667%,14.901961%);stroke-opacity:1;stroke-miterlimit:4;" d="M 249.344456 508.266084 C 247.641748 510.564543 246.194447 504.435319 240.490378 508.776853 C 237.255234 511.500952 235.978203 515.757358 235.978203 524.610682 C 235.978203 532.101956 240.320107 537.039387 242.789032 536.528619 C 246.620124 536.102978 244.66201 526.909141 248.833643 525.206579 C 254.793119 522.397351 263.306655 526.738885 264.839092 532.272213 C 266.286393 537.720412 261.94449 543.764508 257.34718 543.083483 C 254.622848 542.061946 258.794481 538.231181 259.135023 536.528619 C 259.475564 534.911184 259.986376 529.377857 255.985014 527.930679 C 251.983652 526.398373 252.664735 531.9317 252.494464 533.378878 C 252.324193 534.911184 249.514726 539.593231 246.279582 539.422974 C 243.129574 539.252718 238.106587 539.252718 233.168736 533.889647 C 230.52954 531.165547 227.294396 523.759401 230.188998 514.395308 C 232.998466 505.116344 237.851181 504.265062 240.490378 504.094806 C 243.129574 503.92455 250.025538 505.627112 249.344456 508.266084 Z M 249.344456 508.266084 " transform="matrix(0.0458828,0,0,0.0458867,3.114063,-1.877351)"/>
<path style="fill-rule:evenodd;fill:rgb(99.215686%,81.960785%,7.843138%);fill-opacity:1;stroke-width:0.375;stroke-linecap:butt;stroke-linejoin:miter;stroke:rgb(81.176472%,6.666667%,14.901961%);stroke-opacity:1;stroke-miterlimit:4;" d="M 242.448491 547.084505 C 239.724159 545.552199 243.555251 540.189128 236.318745 542.061946 C 233.424142 542.913227 240.660648 551.255783 243.810657 551.596295 C 247.301207 551.255783 246.364718 548.957323 242.448491 547.084505 Z M 242.448491 547.084505 " transform="matrix(0.0458828,0,0,0.0458867,3.114063,-1.877351)"/>
<path style="fill-rule:evenodd;fill:rgb(99.215686%,81.960785%,7.843138%);fill-opacity:1;stroke-width:0.375;stroke-linecap:butt;stroke-linejoin:miter;stroke:rgb(81.176472%,6.666667%,14.901961%);stroke-opacity:1;stroke-miterlimit:4;" d="M 250.110674 551.596295 C 251.64311 558.406544 253.090412 557.810648 253.345818 561.215772 C 253.430953 565.557306 246.024176 563.684488 245.002552 565.727562 C 243.980928 567.685509 242.618762 572.878324 247.471478 573.218837 C 252.324193 573.559349 259.220158 571.686531 260.667459 575.006527 C 264.413415 584.455748 272.416139 583.093698 276.162095 581.64652 C 280.418864 579.943958 290.379701 571.005506 292.593221 570.239353 C 295.998635 568.962431 289.443212 566.578844 285.612121 569.89884 C 284.590497 570.920377 276.332366 579.348061 271.990463 579.518317 C 268.840454 579.85883 263.902603 571.856787 264.158009 569.047559 C 264.49855 567.089612 271.735057 568.707046 272.841816 564.535769 C 273.608035 561.556285 273.608035 558.406544 271.30938 558.236288 C 269.010725 558.066032 257.943127 559.51321 257.602586 557.895776 C 255.644473 553.043473 259.645835 551.085526 258.113398 549.723477 C 256.495826 549.042452 250.280945 548.020914 250.110674 551.596295 Z M 250.110674 551.596295 " transform="matrix(0.0458828,0,0,0.0458867,3.114063,-1.877351)"/>
<path style="fill-rule:evenodd;fill:rgb(99.215686%,81.960785%,7.843138%);fill-opacity:1;stroke-width:0.375;stroke-linecap:butt;stroke-linejoin:miter;stroke:rgb(81.176472%,6.666667%,14.901961%);stroke-opacity:1;stroke-miterlimit:4;" d="M 287.144558 578.071139 C 283.654008 581.731648 274.374253 587.605488 274.374253 591.776766 C 274.374253 594.160353 276.928314 597.90599 279.141833 598.757271 C 282.291842 600.034193 287.229693 599.693681 290.975649 596.799325 C 295.147282 593.3942 297.02026 589.903947 295.232417 589.308051 C 288.847265 587.52036 288.676994 596.288556 285.612121 596.54394 C 282.717519 596.799325 278.29048 592.117278 284.079684 586.243438 C 289.954025 580.369598 298.041884 574.580886 297.786478 572.878324 C 297.445937 571.26089 289.698618 575.517296 287.144558 578.071139 Z M 287.144558 578.071139 " transform="matrix(0.0458828,0,0,0.0458867,3.114063,-1.877351)"/>
<path style="fill-rule:evenodd;fill:rgb(99.215686%,81.960785%,7.843138%);fill-opacity:1;stroke-width:0.375;stroke-linecap:butt;stroke-linejoin:miter;stroke:rgb(81.176472%,6.666667%,14.901961%);stroke-opacity:1;stroke-miterlimit:4;" d="M 259.328463 585.672922 C 259.073057 588.056509 265.373074 588.056509 266.479834 585.928306 C 267.246052 584.396 259.669004 583.289335 259.328463 585.672922 Z M 259.328463 585.672922 " transform="matrix(0.0458828,0,0,0.0458867,3.695031,-1.105078)"/>
<path style="fill-rule:evenodd;fill:rgb(99.215686%,81.960785%,7.843138%);fill-opacity:1;stroke-width:0.375;stroke-linecap:butt;stroke-linejoin:miter;stroke:rgb(81.176472%,6.666667%,14.901961%);stroke-opacity:1;stroke-miterlimit:4;" d="M 273.817898 583.025235 C 270.327348 586.770873 274.243574 590.94215 276.967906 594.347275 C 278.415207 596.220093 281.905757 598.007784 284.034141 598.859065 C 287.18415 600.135987 293.569302 599.710346 297.315258 596.81599 C 301.486891 593.410866 301.827433 587.366769 299.273372 587.366769 C 292.632813 587.281641 297.315258 596.134965 294.250385 596.39035 C 291.270647 596.645734 283.097652 594.858044 279.09629 586.345232 C 276.797635 581.407801 283.267923 580.471392 282.331434 578.258061 C 281.30981 575.959602 276.371958 580.471392 273.817898 583.025235 Z M 273.817898 583.025235 " transform="matrix(0.0458828,0,0,0.0458867,3.995058,-0.913272)"/>
<path style="fill-rule:evenodd;fill:rgb(99.215686%,81.960785%,7.843138%);fill-opacity:1;stroke-width:0.375;stroke-linecap:butt;stroke-linejoin:miter;stroke:rgb(81.176472%,6.666667%,14.901961%);stroke-opacity:1;stroke-miterlimit:4;" d="M 259.370523 585.65168 C 259.082956 588.019456 265.353911 588.025557 266.439855 585.91397 C 267.319536 584.417021 259.601403 583.347413 259.370523 585.65168 Z M 259.370523 585.65168 " transform="matrix(0.0342304,-0.030556,0.0305534,0.0342333,-9.424333,13.70073)"/>
<path style="fill-rule:evenodd;fill:rgb(99.215686%,81.960785%,7.843138%);fill-opacity:1;stroke-width:0.375;stroke-linecap:butt;stroke-linejoin:miter;stroke:rgb(81.176472%,6.666667%,14.901961%);stroke-opacity:1;stroke-miterlimit:4;" d="M 319.581132 621.316222 C 319.410861 624.040322 320.177079 627.700831 317.027071 627.785959 C 313.791927 627.956215 309.790565 623.614681 306.555421 623.784938 C 303.405412 623.870066 302.043246 626.338781 302.383788 627.700831 C 302.809465 629.062881 308.258128 630.595187 317.708154 629.99929 C 327.158179 629.403393 325.029795 635.106977 331.670353 634.681337 C 338.310912 634.170568 339.247401 631.957237 338.736589 630.510059 C 338.310912 629.062881 332.691978 629.99929 330.563594 629.658778 C 328.520345 629.233137 324.859524 625.998269 324.348712 623.103913 C 323.8379 620.294685 323.8379 615.442382 326.306825 615.442382 C 330.819 615.357254 328.690616 619.528532 328.860886 621.060838 C 329.031157 622.33776 330.563594 623.69981 332.521707 621.316222 C 335.160903 618.166482 333.798737 613.229051 331.159541 611.526489 C 328.60548 609.823927 320.006808 614.761357 319.581132 621.316222 Z M 319.581132 621.316222 " transform="matrix(0.0458828,0,0,0.0458867,3.114063,-1.877351)"/>
<path style="fill-rule:evenodd;fill:rgb(99.215686%,81.960785%,7.843138%);fill-opacity:1;stroke-width:0.375;stroke-linecap:butt;stroke-linejoin:miter;stroke:rgb(81.176472%,6.666667%,14.901961%);stroke-opacity:1;stroke-miterlimit:4;" d="M 342.908222 621.826991 C 342.482545 626.679294 338.991995 627.019806 339.417672 628.807497 C 339.843348 630.850571 341.120379 631.446468 341.971733 636.469027 C 342.397409 638.937742 345.462282 640.044408 349.378509 639.789024 C 352.613653 639.703895 354.827173 635.362361 356.870421 635.532618 C 359.850159 635.702874 357.381234 642.342867 364.192063 642.257739 C 369.725861 642.172611 371.088027 637.490564 373.046141 637.320308 C 375.004254 637.23518 374.748848 642.853636 379.261022 642.853636 C 383.773197 642.853636 385.73131 637.745949 387.859694 637.575692 C 390.073214 637.745949 390.073214 643.10902 396.798907 642.768508 C 403.524601 642.342867 408.547588 641.406458 410.080024 640.044408 C 411.697596 638.682358 412.463815 634.255696 414.677334 634.000312 C 416.890854 633.830055 420.296268 638.171589 423.361141 638.171589 C 426.426014 638.171589 432.726031 630.510059 434.684145 630.339803 C 436.642258 630.254674 438.25983 635.106977 442.686869 635.106977 C 449.497698 635.021849 450.349052 626.083397 453.49906 625.657756 C 459.288265 625.146988 459.543671 622.7634 459.799077 622.167503 C 460.395025 620.464941 459.799077 612.37777 458.436912 608.717261 C 457.840964 606.844443 450.519323 590.499844 447.199043 590.074204 C 443.878764 589.733691 444.900389 594.500866 446.858502 597.310094 C 448.816615 600.119321 458.862588 613.229051 457.500423 617.059816 C 456.138257 620.805454 449.072022 615.442382 443.453087 615.442382 C 435.535498 615.442382 430.853053 631.276212 425.319255 631.872109 C 422.850329 632.127493 420.296268 629.743906 421.147622 628.041343 C 422.765194 625.572628 424.553036 619.698788 418.42329 620.550069 C 412.293544 621.40135 406.078662 624.210578 407.100287 627.530575 C 408.036776 630.850571 411.697596 634.170568 407.696234 635.532618 C 403.609737 636.894668 396.628637 637.23518 393.223222 636.128515 C 389.817808 635.021849 391.861056 627.27519 389.817808 627.27519 C 387.519153 627.27519 387.348882 636.383899 384.028603 636.639283 C 380.708324 636.894668 377.813721 635.532618 377.047503 632.978774 C 376.36642 630.339803 378.324533 627.190062 376.111014 626.84955 C 373.897494 626.423909 371.683975 636.979796 368.363696 636.724411 C 365.043416 636.469027 364.958281 635.788002 363.000168 633.659799 C 361.042054 631.616724 364.702875 624.465963 361.382596 623.870066 C 358.147452 623.274169 354.827173 634.425952 352.613653 634.255696 C 350.400134 634.170568 347.079854 634.000312 346.143365 631.872109 C 345.632553 630.765443 345.717689 623.870066 345.887959 621.060838 C 345.802824 619.698788 342.652815 620.294685 342.908222 621.826991 Z M 342.908222 621.826991 " transform="matrix(0.0458828,0,0,0.0458867,3.114063,-1.877351)"/>
<path style="fill-rule:evenodd;fill:rgb(99.215686%,81.960785%,7.843138%);fill-opacity:1;stroke-width:0.375;stroke-linecap:butt;stroke-linejoin:miter;stroke:rgb(81.176472%,6.666667%,14.901961%);stroke-opacity:1;stroke-miterlimit:4;" d="M 454.180143 591.776766 C 460.224754 600.970603 465.673418 613.314179 468.993697 613.995204 C 471.207216 614.250589 462.012597 597.48035 458.947724 593.649585 C 456.393663 589.733691 448.986886 583.859851 454.180143 591.776766 Z M 454.180143 591.776766 " transform="matrix(0.0458828,0,0,0.0458867,3.114063,-1.877351)"/>
<path style="fill-rule:evenodd;fill:rgb(99.215686%,81.960785%,7.843138%);fill-opacity:1;stroke-width:0.375;stroke-linecap:butt;stroke-linejoin:miter;stroke:rgb(81.176472%,6.666667%,14.901961%);stroke-opacity:1;stroke-miterlimit:4;" d="M 342.186943 613.773032 C 340.997328 616.057808 341.429915 618.254708 343.376558 617.903204 C 345.323202 617.5517 347.918726 613.773032 347.269845 612.982148 C 346.620964 612.27914 343.700999 611.576132 342.186943 613.773032 Z M 342.186943 613.773032 " transform="matrix(0.0361199,0,0,0.0444518,6.464472,-0.98256)"/>
<path style="fill-rule:evenodd;fill:rgb(99.215686%,81.960785%,7.843138%);fill-opacity:1;stroke-width:0.375;stroke-linecap:butt;stroke-linejoin:miter;stroke:rgb(81.176472%,6.666667%,14.901961%);stroke-opacity:1;stroke-miterlimit:4;" d="M 471.888299 595.862916 C 471.888299 600.800346 475.378849 606.418802 481.934272 606.078289 C 488.40456 605.737777 495.555931 598.501887 496.151878 591.095741 C 496.66269 583.689595 487.468071 578.241395 485.254552 579.85883 C 482.955897 581.391136 486.105905 586.924463 491.89511 587.264976 C 494.449171 587.435232 493.597817 592.372663 488.830237 596.203428 C 483.80725 600.204449 476.315338 600.119321 474.527496 597.395222 C 473.080194 593.479328 471.803164 593.479328 471.888299 595.862916 Z M 471.888299 595.862916 " transform="matrix(0.0458828,0,0,0.0458867,3.114063,-1.877351)"/>
<path style="fill-rule:evenodd;fill:rgb(99.215686%,81.960785%,7.843138%);fill-opacity:1;stroke-width:0.375;stroke-linecap:butt;stroke-linejoin:miter;stroke:rgb(81.176472%,6.666667%,14.901961%);stroke-opacity:1;stroke-miterlimit:4;" d="M 475.804526 580.880367 C 474.868037 582.838314 476.82615 587.350104 479.03967 587.179848 C 481.168054 586.924463 476.570744 579.603445 475.804526 580.880367 Z M 475.804526 580.880367 " transform="matrix(0.0458828,0,0,0.0458867,3.114063,-1.877351)"/>
<path style="fill-rule:evenodd;fill:rgb(99.215686%,81.960785%,7.843138%);fill-opacity:1;stroke-width:0.375;stroke-linecap:butt;stroke-linejoin:miter;stroke:rgb(81.176472%,6.666667%,14.901961%);stroke-opacity:1;stroke-miterlimit:4;" d="M 494.959983 577.390114 C 496.237014 580.28447 497.76945 584.79626 500.408647 584.79626 C 503.132978 584.79626 505.261362 585.477285 505.261362 587.775744 C 505.261362 589.989076 498.280262 597.565478 498.109992 600.119321 C 497.684315 604.460855 500.834323 604.205471 502.36676 601.821884 C 503.899196 599.523425 508.155965 588.371641 509.007318 585.307029 C 509.34786 582.838314 512.327598 578.326524 512.497868 573.559349 C 512.327598 568.196278 517.180313 572.537812 519.564104 572.708068 C 521.777623 572.793196 524.161413 568.792175 524.416819 565.897819 C 524.757361 563.003463 522.2033 562.492694 522.2033 559.93885 C 522.2033 558.491673 524.927632 553.894754 525.012767 550.745014 C 525.353308 548.020914 519.734374 540.189128 517.350584 540.274256 C 515.392471 540.359384 517.010043 543.25374 518.116802 544.530661 C 519.308698 545.722455 522.2033 548.276299 521.09654 550.574758 C 519.308698 555.00142 510.199213 556.108085 509.773537 560.87526 C 509.432995 564.280384 510.199213 575.006527 507.474882 575.006527 C 504.665415 575.006527 502.36676 568.281406 498.109992 568.281406 C 493.257276 568.196278 493.938359 575.091655 494.959983 577.390114 Z M 494.959983 577.390114 " transform="matrix(0.0458828,0,0,0.0458867,3.114063,-1.877351)"/>
<path style="fill-rule:evenodd;fill:rgb(99.215686%,81.960785%,7.843138%);fill-opacity:1;stroke-width:0.375;stroke-linecap:butt;stroke-linejoin:miter;stroke:rgb(81.176472%,6.666667%,14.901961%);stroke-opacity:1;stroke-miterlimit:4;" d="M 502.111354 536.698875 C 502.196489 538.571693 506.197851 546.914249 508.581642 546.914249 C 511.987056 546.914249 507.049205 542.998355 507.304611 541.551177 C 507.645153 540.103999 512.497868 537.890668 510.539755 537.3799 C 506.96407 536.273234 501.941083 534.145031 502.111354 536.698875 Z M 502.111354 536.698875 " transform="matrix(0.0458828,0,0,0.0458867,3.114063,-1.877351)"/>
<path style="fill-rule:evenodd;fill:rgb(99.215686%,81.960785%,7.843138%);fill-opacity:1;stroke-width:0.375;stroke-linecap:butt;stroke-linejoin:miter;stroke:rgb(81.176472%,6.666667%,14.901961%);stroke-opacity:1;stroke-miterlimit:4;" d="M 501.770812 525.972732 C 502.537031 528.611704 513.519493 532.697853 518.287073 533.974775 C 522.969518 535.336825 528.758723 541.040409 530.887107 539.16759 C 533.100627 537.294772 516.414095 530.739907 513.94517 529.803497 C 511.476244 528.867088 501.26 523.33376 501.770812 525.972732 Z M 501.770812 525.972732 " transform="matrix(0.0458828,0,0,0.0458867,3.114063,-1.877351)"/>
<path style="fill-rule:evenodd;fill:rgb(99.215686%,81.960785%,7.843138%);fill-opacity:1;stroke-width:0.375;stroke-linecap:butt;stroke-linejoin:miter;stroke:rgb(81.176472%,6.666667%,14.901961%);stroke-opacity:1;stroke-miterlimit:4;" d="M 535.05874 543.25374 C 539.145238 543.338868 536.931718 535.251697 535.824958 533.29375 C 534.803334 531.335803 533.270897 536.954259 533.526303 538.656821 C 533.696574 540.274256 533.78171 543.168612 535.05874 543.25374 Z M 535.05874 543.25374 " transform="matrix(0.0458828,0,0,0.0458867,3.114063,-1.877351)"/>
<path style="fill-rule:evenodd;fill:rgb(99.215686%,81.960785%,7.843138%);fill-opacity:1;stroke-width:0.375;stroke-linecap:butt;stroke-linejoin:miter;stroke:rgb(81.176472%,6.666667%,14.901961%);stroke-opacity:1;stroke-miterlimit:4;" d="M 511.050567 502.817884 C 511.050567 504.605575 522.458706 503.328653 527.737099 504.775831 C 530.035753 505.371728 537.783072 509.628134 539.230373 508.606596 C 540.93308 506.393265 528.673588 501.796347 521.692488 501.796347 C 519.393833 501.796347 511.050567 500.604553 511.050567 502.817884 Z M 511.050567 502.817884 " transform="matrix(0.0458828,0,0,0.0458867,3.114063,-1.877351)"/>
<path style="fill-rule:evenodd;fill:rgb(99.215686%,81.960785%,7.843138%);fill-opacity:1;stroke-width:0.375;stroke-linecap:butt;stroke-linejoin:miter;stroke:rgb(81.176472%,6.666667%,14.901961%);stroke-opacity:1;stroke-miterlimit:4;" d="M 508.070829 508.0107 C 506.027581 510.224031 514.966794 512.692746 522.884383 513.033258 C 530.801972 513.288643 535.910094 518.055817 535.229011 521.54607 C 534.122251 527.41991 524.246549 523.589145 525.438444 526.824013 C 526.204662 529.292729 530.546566 528.356319 531.057378 530.995291 C 531.397919 533.719391 534.122251 534.145031 534.037116 530.825035 C 533.95198 528.271191 540.166862 523.929657 539.996591 522.652736 C 539.65605 520.18402 535.995229 511.58608 526.460068 510.649671 C 517.010043 509.713262 510.710026 505.116344 508.070829 508.0107 Z M 508.070829 508.0107 " transform="matrix(0.0458828,0,0,0.0458867,3.114063,-1.877351)"/>
<path style="fill-rule:evenodd;fill:rgb(81.176472%,6.666667%,14.901961%);fill-opacity:1;stroke-width:0.073416;stroke-linecap:butt;stroke-linejoin:miter;stroke:rgb(81.176472%,6.666667%,14.901961%);stroke-opacity:1;stroke-miterlimit:4;" d="M 419.380002 303.3382 C 418.630002 302.8882 415.980002 305.2882 416.930002 305.8382 C 418.730002 306.8382 420.480002 303.9882 419.380002 303.3382 Z M 419.380002 303.3382 " transform="matrix(0.078125,0,0,0.078125,-17.955469,0.387641)"/>
<path style="fill-rule:evenodd;fill:rgb(81.176472%,6.666667%,14.901961%);fill-opacity:1;stroke-width:0.073416;stroke-linecap:butt;stroke-linejoin:miter;stroke:rgb(81.176472%,6.666667%,14.901961%);stroke-opacity:1;stroke-miterlimit:4;" d="M 425.080002 300.4882 C 423.780002 300.3382 423.180002 303.0882 424.230002 303.2382 C 426.980002 303.5882 427.530002 300.7882 425.080002 300.4882 Z M 425.080002 300.4882 " transform="matrix(0.078125,0,0,0.078125,-17.955469,0.387641)"/>
<path style="fill-rule:evenodd;fill:rgb(81.176472%,6.666667%,14.901961%);fill-opacity:1;stroke-width:0.073416;stroke-linecap:butt;stroke-linejoin:miter;stroke:rgb(81.176472%,6.666667%,14.901961%);stroke-opacity:1;stroke-miterlimit:4;" d="M 564.280002 308.1882 C 563.630002 308.1882 561.730002 309.0382 562.380002 310.3382 C 563.030002 311.6882 564.980002 311.7382 565.830002 310.9382 C 566.630002 310.2382 566.430002 308.1882 564.280002 308.1882 Z M 564.280002 308.1882 " transform="matrix(0.078125,0,0,0.078125,-17.955469,0.387641)"/>
<path style="fill-rule:evenodd;fill:rgb(81.176472%,6.666667%,14.901961%);fill-opacity:1;stroke-width:0.073416;stroke-linecap:butt;stroke-linejoin:miter;stroke:rgb(81.176472%,6.666667%,14.901961%);stroke-opacity:1;stroke-miterlimit:4;" d="M 571.830002 302.3882 C 572.030002 303.8382 573.080002 303.5882 573.930002 303.2882 C 574.880002 302.8382 575.180002 301.5882 574.230002 301.0882 C 573.230002 300.5882 571.630002 301.3382 571.830002 302.3882 Z M 571.830002 302.3882 " transform="matrix(0.078125,0,0,0.078125,-17.955469,0.387641)"/>
<path style="fill-rule:evenodd;fill:rgb(81.176472%,6.666667%,14.901961%);fill-opacity:1;stroke-width:0.073416;stroke-linecap:butt;stroke-linejoin:miter;stroke:rgb(81.176472%,6.666667%,14.901961%);stroke-opacity:1;stroke-miterlimit:4;" d="M 528.130002 336.5882 C 526.830002 339.4382 527.930002 342.2882 530.030002 341.7382 C 532.080002 341.1882 534.180002 337.1882 532.630002 335.9382 C 531.080002 334.6882 528.980002 334.6882 528.130002 336.5882 Z M 528.130002 336.5882 " transform="matrix(0.078125,0,0,0.078125,-17.955469,0.387641)"/>
<path style=" stroke:none;fill-rule:evenodd;fill:rgb(81.176472%,6.666667%,14.901961%);fill-opacity:1;" d="M 9.605469 17.355469 C 9.226562 17.320312 8.367188 17.148438 8.332031 17.320312 C 8.296875 17.492188 8.796875 19.507812 9.054688 19.765625 C 9.3125 20.023438 10.519531 20.574219 10.636719 20.503906 C 10.757812 20.4375 10.398438 19.179688 10.257812 18.957031 C 10.121094 18.730469 9.707031 17.921875 9.742188 17.886719 C 9.777344 17.855469 9.585938 17.355469 9.605469 17.355469 Z M 9.605469 17.355469 "/>
<path style="fill-rule:evenodd;fill:rgb(81.176472%,6.666667%,14.901961%);fill-opacity:1;stroke-width:2.5;stroke-linecap:butt;stroke-linejoin:miter;stroke:rgb(0%,0%,0%);stroke-opacity:1;stroke-miterlimit:4;" d="M 124.254138 411.517583 C 126.212251 400.961697 138.556879 413.645786 137.279848 427.351413 C 136.683901 432.033459 139.323097 437.226274 141.877158 439.69499 " transform="matrix(0.0458828,0,0,0.0458867,3.146527,-1.598036)"/>
<path style="fill-rule:evenodd;fill:rgb(81.176472%,6.666667%,14.901961%);fill-opacity:1;stroke-width:2.5;stroke-linecap:butt;stroke-linejoin:miter;stroke:rgb(0%,0%,0%);stroke-opacity:1;stroke-miterlimit:4;" d="M 134.810923 412.028352 L 134.300111 412.624249 C 140.514992 402.238619 146.474468 417.050911 147.410957 434.161662 " transform="matrix(0.0458828,0,0,0.0458867,3.146527,-1.598036)"/>
<path style="fill-rule:evenodd;fill:rgb(81.176472%,6.666667%,14.901961%);fill-opacity:1;stroke-width:2.5;stroke-linecap:butt;stroke-linejoin:miter;stroke:rgb(0%,0%,0%);stroke-opacity:1;stroke-miterlimit:4;" d="M 113.612217 410.410918 C 113.271675 401.898106 127.14874 399.429391 126.297386 430.245769 C 132.341997 434.161662 139.408232 449.144211 139.748774 454.507282 C 144.346084 455.528819 151.837996 461.147275 153.710974 465.744193 " transform="matrix(0.0458828,0,0,0.0458867,3.146527,-1.598036)"/>
<path style="fill-rule:evenodd;fill:rgb(81.176472%,6.666667%,14.901961%);fill-opacity:1;stroke-width:2.5;stroke-linecap:butt;stroke-linejoin:miter;stroke:rgb(0%,0%,0%);stroke-opacity:1;stroke-miterlimit:4;" d="M 147.581227 581.433303 C 148.26231 557.937943 148.602852 507.627227 146.219062 502.093899 C 141.877158 492.048781 120.082505 480.301101 113.441946 464.467272 C 106.801388 447.611905 101.182454 409.304252 103.82165 404.707334 C 107.397335 397.982213 119.146016 412.879633 115.910872 429.224232 C 130.213613 445.909342 127.14874 455.869332 129.787936 457.997535 C 138.556879 464.807784 152.008266 469.404702 154.392057 475.448799 C 159.244772 486.260069 153.285297 460.125738 149.36907 454.847795 C 145.452843 449.484723 138.72715 437.737043 143.324459 434.927815 C 147.921769 432.033459 156.094764 439.524734 157.201524 441.652937 C 158.308283 443.781139 169.290746 455.869332 172.525889 458.763688 C 178.229959 463.020094 192.5327 472.554443 192.277294 480.726742 C 192.277294 493.9216 193.469189 580.922535 193.469189 580.922535 " transform="matrix(0.0458828,0,0,0.0458867,3.146527,-1.598036)"/>
<path style="fill-rule:evenodd;fill:rgb(81.176472%,6.666667%,14.901961%);fill-opacity:1;stroke-width:2.5;stroke-linecap:butt;stroke-linejoin:miter;stroke:rgb(0%,0%,0%);stroke-opacity:1;stroke-miterlimit:4;" d="M 144.942031 612.33481 C 144.942031 612.33481 144.856896 621.869159 144.856896 622.039415 C 148.943393 626.976846 166.140737 627.572742 169.971828 627.572742 C 173.717784 627.402486 189.808368 627.742999 193.554325 621.528646 C 193.63946 621.35839 193.809731 613.526603 193.809731 611.3984 " transform="matrix(0.0458828,0,0,0.0458867,3.146527,-1.598036)"/>
<path style="fill-rule:evenodd;fill:rgb(81.176472%,6.666667%,14.901961%);fill-opacity:1;stroke-width:2.5;stroke-linecap:butt;stroke-linejoin:miter;stroke:rgb(0%,0%,0%);stroke-opacity:1;stroke-miterlimit:4;" d="M 144.175813 585.193806 C 139.493368 586.300471 138.216337 592.089183 141.536617 596.260461 C 144.260948 599.750714 155.498816 603.666607 168.439392 603.921991 C 181.379967 604.177376 198.492176 599.750714 199.258394 592.599952 C 199.598935 585.44919 192.873242 585.959959 193.63946 586.215343 " transform="matrix(0.0458828,0,0,0.0458867,3.146527,-0.993249)"/>
<path style="fill-rule:evenodd;fill:rgb(81.176472%,6.666667%,14.901961%);fill-opacity:1;stroke-width:2.5;stroke-linecap:butt;stroke-linejoin:miter;stroke:rgb(0%,0%,0%);stroke-opacity:1;stroke-miterlimit:4;" d="M 144.175813 585.349197 C 139.493368 586.370734 138.556879 592.329702 141.877158 596.586108 C 144.60149 599.991233 156.094764 604.758407 168.950204 605.013792 C 181.89078 605.269176 198.23677 599.991233 199.002988 592.840471 C 199.258394 585.774837 194.405678 586.370734 194.065137 586.54099 " transform="matrix(0.0458828,0,0,0.0458867,3.146527,-1.598036)"/>
<path style="fill-rule:evenodd;fill:rgb(81.176472%,6.666667%,14.901961%);fill-opacity:1;stroke-width:2.5;stroke-linecap:butt;stroke-linejoin:miter;stroke:rgb(0%,0%,0%);stroke-opacity:1;stroke-miterlimit:4;" d="M 171.078588 592.585087 C 188.190797 592.840471 199.258394 584.412787 199.258394 579.986125 C 199.258394 575.474335 193.724595 575.218951 190.319181 576.495873 C 186.913766 577.857923 181.635373 581.177919 170.567776 581.263047 C 159.244772 581.60356 149.198799 573.346132 145.793385 573.601517 C 142.38797 573.856901 139.663639 577.602538 140.770398 581.518431 C 142.132564 585.434325 154.221786 593.095855 171.078588 592.585087 Z M 171.078588 592.585087 " transform="matrix(0.0458828,0,0,0.0458867,3.146527,-1.598036)"/>
<path style=" stroke:none;fill-rule:evenodd;fill:rgb(81.176472%,6.666667%,14.901961%);fill-opacity:1;" d="M 31.992188 17.355469 C 32.371094 17.320312 33.230469 17.148438 33.265625 17.320312 C 33.300781 17.492188 32.800781 19.507812 32.542969 19.765625 C 32.285156 20.023438 31.078125 20.574219 30.957031 20.503906 C 30.835938 20.4375 31.199219 19.179688 31.335938 18.957031 C 31.472656 18.730469 31.886719 17.921875 31.851562 17.886719 C 31.820312 17.855469 32.007812 17.355469 31.992188 17.355469 Z M 31.992188 17.355469 "/>
<path style="fill-rule:evenodd;fill:rgb(81.176472%,6.666667%,14.901961%);fill-opacity:1;stroke-width:2.5;stroke-linecap:butt;stroke-linejoin:miter;stroke:rgb(0%,0%,0%);stroke-opacity:1;stroke-miterlimit:4;" d="M 124.22502 411.517583 C 126.268269 400.961697 138.527761 413.645786 137.335866 427.351413 C 136.739918 432.033459 139.293979 437.226274 141.84804 439.69499 " transform="matrix(-0.0458828,0,0,0.0458867,38.449793,-1.598036)"/>
<path style="fill-rule:evenodd;fill:rgb(81.176472%,6.666667%,14.901961%);fill-opacity:1;stroke-width:2.5;stroke-linecap:butt;stroke-linejoin:miter;stroke:rgb(0%,0%,0%);stroke-opacity:1;stroke-miterlimit:4;" d="M 134.781805 412.028352 L 134.356128 412.624249 C 140.485875 402.238619 146.44535 417.050911 147.381839 434.161662 " transform="matrix(-0.0458828,0,0,0.0458867,38.449793,-1.598036)"/>
<path style="fill-rule:evenodd;fill:rgb(81.176472%,6.666667%,14.901961%);fill-opacity:1;stroke-width:2.5;stroke-linecap:butt;stroke-linejoin:miter;stroke:rgb(0%,0%,0%);stroke-opacity:1;stroke-miterlimit:4;" d="M 113.583099 410.410918 C 113.242558 401.898106 127.119622 399.429391 126.268269 430.245769 C 132.312879 434.161662 139.46425 449.144211 139.804792 454.507282 C 144.316966 455.528819 151.894013 461.147275 153.681856 465.744193 " transform="matrix(-0.0458828,0,0,0.0458867,38.449793,-1.598036)"/>
<path style="fill-rule:evenodd;fill:rgb(81.176472%,6.666667%,14.901961%);fill-opacity:1;stroke-width:2.5;stroke-linecap:butt;stroke-linejoin:miter;stroke:rgb(0%,0%,0%);stroke-opacity:1;stroke-miterlimit:4;" d="M 147.637245 581.433303 C 148.233193 557.937943 148.65887 507.627227 146.189944 502.093899 C 141.84804 492.048781 120.053387 480.301101 113.497964 464.467272 C 106.857405 447.611905 101.153336 409.304252 103.877668 404.707334 C 107.368218 397.982213 119.116898 412.879633 115.966889 429.224232 C 130.184495 445.909342 127.204758 455.869332 129.843954 457.997535 C 138.612896 464.807784 151.979149 469.404702 154.362939 475.448799 C 159.215655 486.260069 153.256179 460.125738 149.339952 454.847795 C 145.508861 449.484723 138.698032 437.737043 143.295342 434.927815 C 147.977787 432.033459 156.150782 439.524734 157.172406 441.652937 C 158.279166 443.781139 169.261628 455.869332 172.496772 458.763688 C 178.200841 463.020094 192.588718 472.554443 192.248176 480.726742 C 192.248176 493.9216 193.440071 580.922535 193.440071 580.922535 " transform="matrix(-0.0458828,0,0,0.0458867,38.449793,-1.598036)"/>
<path style="fill-rule:evenodd;fill:rgb(81.176472%,6.666667%,14.901961%);fill-opacity:1;stroke-width:2.5;stroke-linecap:butt;stroke-linejoin:miter;stroke:rgb(0%,0%,0%);stroke-opacity:1;stroke-miterlimit:4;" d="M 144.998049 612.33481 C 144.998049 612.33481 144.912913 621.869159 144.912913 622.039415 C 148.999411 626.976846 166.111619 627.572742 169.942711 627.572742 C 173.688667 627.402486 189.779251 627.742999 193.525207 621.528646 C 193.695478 621.35839 193.780613 613.526603 193.780613 611.3984 " transform="matrix(-0.0458828,0,0,0.0458867,38.449793,-1.598036)"/>
<path style="fill-rule:evenodd;fill:rgb(81.176472%,6.666667%,14.901961%);fill-opacity:1;stroke-width:2.5;stroke-linecap:butt;stroke-linejoin:miter;stroke:rgb(0%,0%,0%);stroke-opacity:1;stroke-miterlimit:4;" d="M 144.231831 585.193806 C 139.46425 586.300471 138.18722 592.089183 141.592634 596.260461 C 144.316966 599.750714 155.554834 603.666607 168.49541 603.921991 C 181.35085 604.177376 198.548193 599.750714 199.314412 592.599952 C 199.569818 585.44919 192.844124 585.959959 193.695478 586.215343 " transform="matrix(-0.0458828,0,0,0.0458867,38.449793,-0.993249)"/>
<path style="fill-rule:evenodd;fill:rgb(81.176472%,6.666667%,14.901961%);fill-opacity:1;stroke-width:2.5;stroke-linecap:butt;stroke-linejoin:miter;stroke:rgb(0%,0%,0%);stroke-opacity:1;stroke-miterlimit:4;" d="M 144.231831 585.349197 C 139.46425 586.370734 138.527761 592.329702 141.933176 596.586108 C 144.657507 599.991233 156.065646 604.758407 169.006222 605.013792 C 181.861662 605.269176 198.207652 599.991233 199.059006 592.840471 C 199.314412 585.774837 194.37656 586.370734 194.036019 586.54099 " transform="matrix(-0.0458828,0,0,0.0458867,38.449793,-1.598036)"/>
<path style="fill-rule:evenodd;fill:rgb(81.176472%,6.666667%,14.901961%);fill-opacity:1;stroke-width:2.5;stroke-linecap:butt;stroke-linejoin:miter;stroke:rgb(0%,0%,0%);stroke-opacity:1;stroke-miterlimit:4;" d="M 171.04947 592.585087 C 188.246814 592.840471 199.314412 584.412787 199.314412 579.986125 C 199.314412 575.474335 193.780613 575.218951 190.375198 576.495873 C 186.884648 577.857923 181.606256 581.177919 170.538658 581.263047 C 159.215655 581.60356 149.169682 573.346132 145.764267 573.601517 C 142.358853 573.856901 139.634521 577.602538 140.741281 581.518431 C 142.103446 585.434325 154.192668 593.095855 171.04947 592.585087 Z M 171.04947 592.585087 " transform="matrix(-0.0458828,0,0,0.0458867,38.449793,-1.598036)"/>
</g>
</svg>
