<?xml version="1.0" encoding="UTF-8"?>
<svg xmlns="http://www.w3.org/2000/svg" xmlns:xlink="http://www.w3.org/1999/xlink" width="40px" height="40px" viewBox="0 0 40 40" version="1.1">
<g id="surface1">
<rect x="0" y="0" width="40" height="40" style="fill:rgb(13.333334%,61.960787%,27.058825%);fill-opacity:1;stroke:none;"/>
<path style=" stroke:none;fill-rule:evenodd;fill:rgb(97.254902%,89.803922%,3.529412%);fill-opacity:1;" d="M 20.417969 31.671875 L 38.378906 20.015625 L 20.308594 8.328125 L 2.292969 20.042969 Z M 20.417969 31.671875 "/>
<path style=" stroke:none;fill-rule:evenodd;fill:rgb(16.862746%,28.627452%,63.921571%);fill-opacity:1;" d="M 28.242188 20 C 28.242188 24.191406 24.84375 27.585938 20.644531 27.585938 C 16.449219 27.585938 13.046875 24.191406 13.046875 20 C 13.046875 15.8125 16.449219 12.414062 20.644531 12.414062 C 24.84375 12.414062 28.242188 15.8125 28.242188 20 Z M 28.242188 20 "/>
<path style=" stroke:none;fill-rule:evenodd;fill:rgb(100%,100%,93.725491%);fill-opacity:1;" d="M 18.148438 24.542969 L 17.914062 24.40625 L 17.671875 24.527344 L 17.726562 24.257812 L 17.535156 24.058594 L 17.804688 24.027344 L 17.933594 23.785156 L 18.042969 24.035156 L 18.3125 24.085938 L 18.109375 24.269531 Z M 18.148438 24.542969 "/>
<path style=" stroke:none;fill-rule:evenodd;fill:rgb(100%,100%,93.725491%);fill-opacity:1;" d="M 23.238281 25.832031 L 23.003906 25.695312 L 22.761719 25.816406 L 22.816406 25.546875 L 22.628906 25.347656 L 22.898438 25.316406 L 23.023438 25.074219 L 23.136719 25.324219 L 23.402344 25.375 L 23.203125 25.558594 Z M 23.238281 25.832031 "/>
<path style=" stroke:none;fill-rule:evenodd;fill:rgb(100%,100%,93.725491%);fill-opacity:1;" d="M 21.046875 23.773438 L 20.84375 23.65625 L 20.632812 23.761719 L 20.679688 23.527344 L 20.515625 23.355469 L 20.75 23.328125 L 20.859375 23.117188 L 20.957031 23.335938 L 21.183594 23.375 L 21.011719 23.539062 Z M 21.046875 23.773438 "/>
<path style=" stroke:none;fill-rule:evenodd;fill:rgb(100%,100%,93.725491%);fill-opacity:1;" d="M 26.1875 23.03125 L 25.988281 22.917969 L 25.78125 23.019531 L 25.828125 22.789062 L 25.667969 22.621094 L 25.898438 22.59375 L 26.003906 22.390625 L 26.101562 22.601562 L 26.324219 22.644531 L 26.15625 22.800781 Z M 26.1875 23.03125 "/>
<path style=" stroke:none;fill-rule:evenodd;fill:rgb(100%,100%,93.725491%);fill-opacity:1;" d="M 20.953125 21.492188 L 20.71875 21.355469 L 20.472656 21.476562 L 20.527344 21.207031 L 20.339844 21.007812 L 20.609375 20.976562 L 20.734375 20.730469 L 20.847656 20.984375 L 21.113281 21.03125 L 20.914062 21.21875 Z M 20.953125 21.492188 "/>
<path style=" stroke:none;fill-rule:evenodd;fill:rgb(100%,100%,93.725491%);fill-opacity:1;" d="M 14.683594 19.136719 L 14.449219 19.003906 L 14.203125 19.121094 L 14.257812 18.851562 L 14.070312 18.652344 L 14.339844 18.621094 L 14.46875 18.378906 L 14.578125 18.628906 L 14.84375 18.679688 L 14.644531 18.863281 Z M 14.683594 19.136719 "/>
<path style=" stroke:none;fill-rule:evenodd;fill:rgb(100%,100%,93.725491%);fill-opacity:1;" d="M 15.4375 22.269531 L 15.203125 22.132812 L 14.957031 22.253906 L 15.011719 21.984375 L 14.824219 21.785156 L 15.09375 21.753906 L 15.222656 21.507812 L 15.332031 21.761719 L 15.597656 21.808594 L 15.398438 21.996094 Z M 15.4375 22.269531 "/>
<path style=" stroke:none;fill-rule:evenodd;fill:rgb(100%,100%,93.725491%);fill-opacity:1;" d="M 23.261719 17.984375 L 23.054688 17.863281 L 22.835938 17.972656 L 22.886719 17.734375 L 22.71875 17.558594 L 22.957031 17.527344 L 23.070312 17.316406 L 23.167969 17.535156 L 23.402344 17.578125 L 23.226562 17.742188 Z M 23.261719 17.984375 "/>
<path style=" stroke:none;fill-rule:evenodd;fill:rgb(100%,100%,93.725491%);fill-opacity:1;" d="M 22.832031 20.023438 L 22.667969 19.925781 L 22.496094 20.011719 L 22.535156 19.824219 L 22.40625 19.683594 L 22.59375 19.664062 L 22.679688 19.492188 L 22.757812 19.667969 L 22.941406 19.703125 L 22.804688 19.832031 Z M 22.832031 20.023438 "/>
<path style=" stroke:none;fill-rule:evenodd;fill:rgb(100%,100%,93.725491%);fill-opacity:1;" d="M 14.335938 22.835938 L 14.175781 22.746094 L 14.015625 22.824219 L 14.050781 22.644531 L 13.925781 22.511719 L 14.105469 22.492188 L 14.191406 22.328125 L 14.265625 22.496094 L 14.441406 22.527344 L 14.308594 22.652344 Z M 14.335938 22.835938 "/>
<path style=" stroke:none;fill-rule:evenodd;fill:rgb(100%,100%,93.725491%);fill-opacity:1;" d="M 26.230469 23.558594 L 26.101562 23.488281 L 25.972656 23.550781 L 26 23.414062 L 25.898438 23.316406 L 26.042969 23.300781 L 26.113281 23.179688 L 26.175781 23.304688 L 26.320312 23.328125 L 26.210938 23.421875 Z M 26.230469 23.558594 "/>
<path style=" stroke:none;fill-rule:evenodd;fill:rgb(100%,100%,93.725491%);fill-opacity:1;" d="M 14.335938 22.835938 L 14.175781 22.746094 L 14.015625 22.824219 L 14.050781 22.644531 L 13.925781 22.511719 L 14.105469 22.492188 L 14.191406 22.328125 L 14.265625 22.496094 L 14.441406 22.527344 L 14.308594 22.652344 Z M 14.335938 22.835938 "/>
<path style=" stroke:none;fill-rule:evenodd;fill:rgb(100%,100%,93.725491%);fill-opacity:1;" d="M 14.335938 22.835938 L 14.175781 22.746094 L 14.015625 22.824219 L 14.050781 22.644531 L 13.925781 22.511719 L 14.105469 22.492188 L 14.191406 22.328125 L 14.265625 22.496094 L 14.441406 22.527344 L 14.308594 22.652344 Z M 14.335938 22.835938 "/>
<path style=" stroke:none;fill-rule:evenodd;fill:rgb(100%,100%,93.725491%);fill-opacity:1;" d="M 16.828125 22.835938 L 16.671875 22.746094 L 16.507812 22.824219 L 16.546875 22.644531 L 16.421875 22.511719 L 16.601562 22.492188 L 16.683594 22.328125 L 16.757812 22.496094 L 16.9375 22.527344 L 16.804688 22.652344 Z M 16.828125 22.835938 "/>
<path style=" stroke:none;fill-rule:evenodd;fill:rgb(100%,100%,93.725491%);fill-opacity:1;" d="M 16.519531 23.664062 L 16.363281 23.574219 L 16.199219 23.65625 L 16.234375 23.472656 L 16.109375 23.339844 L 16.289062 23.320312 L 16.375 23.160156 L 16.449219 23.324219 L 16.628906 23.359375 L 16.492188 23.484375 Z M 16.519531 23.664062 "/>
<path style=" stroke:none;fill-rule:evenodd;fill:rgb(100%,100%,93.725491%);fill-opacity:1;" d="M 21.699219 22.152344 L 21.542969 22.0625 L 21.378906 22.144531 L 21.417969 21.964844 L 21.289062 21.832031 L 21.46875 21.808594 L 21.554688 21.648438 L 21.628906 21.816406 L 21.808594 21.847656 L 21.675781 21.972656 Z M 21.699219 22.152344 "/>
<path style=" stroke:none;fill-rule:evenodd;fill:rgb(100%,100%,93.725491%);fill-opacity:1;" d="M 20.179688 22.152344 L 20.023438 22.0625 L 19.859375 22.144531 L 19.894531 21.960938 L 19.769531 21.832031 L 19.949219 21.808594 L 20.035156 21.648438 L 20.109375 21.816406 L 20.285156 21.847656 L 20.152344 21.972656 Z M 20.179688 22.152344 "/>
<path style=" stroke:none;fill-rule:evenodd;fill:rgb(100%,100%,93.725491%);fill-opacity:1;" d="M 16.054688 21.625 L 15.957031 21.566406 L 15.855469 21.617188 L 15.878906 21.503906 L 15.800781 21.421875 L 15.914062 21.40625 L 15.964844 21.304688 L 16.011719 21.410156 L 16.125 21.429688 L 16.039062 21.507812 Z M 16.054688 21.625 "/>
<path style=" stroke:none;fill-rule:evenodd;fill:rgb(100%,100%,93.725491%);fill-opacity:1;" d="M 26.039062 24.214844 L 25.882812 24.121094 L 25.71875 24.203125 L 25.753906 24.023438 L 25.628906 23.890625 L 25.808594 23.867188 L 25.894531 23.707031 L 25.96875 23.875 L 26.144531 23.90625 L 26.011719 24.03125 Z M 26.039062 24.214844 "/>
<path style=" stroke:none;fill-rule:evenodd;fill:rgb(100%,100%,93.725491%);fill-opacity:1;" d="M 24.773438 24.378906 L 24.640625 24.304688 L 24.507812 24.371094 L 24.539062 24.21875 L 24.433594 24.109375 L 24.582031 24.09375 L 24.652344 23.957031 L 24.714844 24.097656 L 24.863281 24.125 L 24.75 24.226562 Z M 24.773438 24.378906 "/>
<path style=" stroke:none;fill-rule:evenodd;fill:rgb(100%,100%,93.725491%);fill-opacity:1;" d="M 25.371094 24.363281 L 25.25 24.292969 L 25.121094 24.355469 L 25.152344 24.21875 L 25.054688 24.113281 L 25.191406 24.097656 L 25.257812 23.972656 L 25.316406 24.101562 L 25.453125 24.128906 L 25.351562 24.222656 Z M 25.371094 24.363281 "/>
<path style=" stroke:none;fill-rule:evenodd;fill:rgb(100%,100%,93.725491%);fill-opacity:1;" d="M 27.085938 22.867188 L 26.96875 22.800781 L 26.847656 22.859375 L 26.875 22.726562 L 26.78125 22.628906 L 26.914062 22.613281 L 26.976562 22.492188 L 27.03125 22.617188 L 27.164062 22.640625 L 27.066406 22.734375 Z M 27.085938 22.867188 "/>
<path style=" stroke:none;fill-rule:evenodd;fill:rgb(100%,100%,93.725491%);fill-opacity:1;" d="M 24.757812 25.222656 L 24.605469 25.140625 L 24.445312 25.214844 L 24.480469 25.046875 L 24.359375 24.925781 L 24.535156 24.90625 L 24.617188 24.757812 L 24.691406 24.914062 L 24.863281 24.941406 L 24.734375 25.054688 Z M 24.757812 25.222656 "/>
<path style=" stroke:none;fill-rule:evenodd;fill:rgb(100%,100%,93.725491%);fill-opacity:1;" d="M 24.765625 25.90625 L 24.628906 25.820312 L 24.484375 25.894531 L 24.515625 25.730469 L 24.402344 25.609375 L 24.5625 25.589844 L 24.636719 25.441406 L 24.703125 25.59375 L 24.863281 25.625 L 24.742188 25.738281 Z M 24.765625 25.90625 "/>
<path style=" stroke:none;fill-rule:evenodd;fill:rgb(100%,100%,93.725491%);fill-opacity:1;" d="M 23.617188 24.363281 L 23.5 24.296875 L 23.378906 24.355469 L 23.40625 24.222656 L 23.3125 24.125 L 23.445312 24.109375 L 23.507812 23.988281 L 23.566406 24.113281 L 23.695312 24.136719 L 23.597656 24.230469 Z M 23.617188 24.363281 "/>
<path style=" stroke:none;fill-rule:evenodd;fill:rgb(100%,100%,93.725491%);fill-opacity:1;" d="M 22.539062 24.363281 L 22.421875 24.296875 L 22.300781 24.355469 L 22.328125 24.222656 L 22.234375 24.125 L 22.367188 24.109375 L 22.429688 23.988281 L 22.488281 24.113281 L 22.617188 24.136719 L 22.519531 24.230469 Z M 22.539062 24.363281 "/>
<path style=" stroke:none;fill-rule:evenodd;fill:rgb(100%,100%,93.725491%);fill-opacity:1;" d="M 20.707031 22.765625 L 20.59375 22.695312 L 20.472656 22.757812 L 20.5 22.621094 L 20.40625 22.523438 L 20.539062 22.507812 L 20.601562 22.386719 L 20.65625 22.511719 L 20.789062 22.535156 L 20.691406 22.628906 Z M 20.707031 22.765625 "/>
<path style=" stroke:none;fill-rule:evenodd;fill:rgb(100%,100%,93.725491%);fill-opacity:1;" d="M 20.914062 26.027344 L 20.8125 25.96875 L 20.710938 26.019531 L 20.734375 25.90625 L 20.65625 25.820312 L 20.769531 25.808594 L 20.820312 25.707031 L 20.867188 25.8125 L 20.980469 25.832031 L 20.898438 25.910156 Z M 20.914062 26.027344 "/>
<path style=" stroke:none;fill-rule:evenodd;fill:rgb(100%,100%,93.725491%);fill-opacity:1;" d="M 18.148438 20.75 L 17.914062 20.613281 L 17.671875 20.734375 L 17.726562 20.464844 L 17.535156 20.265625 L 17.804688 20.234375 L 17.933594 19.992188 L 18.042969 20.242188 L 18.3125 20.292969 L 18.109375 20.476562 Z M 18.148438 20.75 "/>
<path style=" stroke:none;fill-rule:evenodd;fill:rgb(100%,100%,100%);fill-opacity:1;" d="M 27.742188 22.730469 C 27.859375 22.425781 28.007812 21.96875 28.085938 21.550781 C 24.050781 18.003906 19.554688 16.191406 13.871094 16.5625 C 13.667969 16.953125 13.503906 17.363281 13.367188 17.804688 C 20.101562 17.164062 25.035156 20.144531 27.742188 22.730469 Z M 27.742188 22.730469 "/>
<path style=" stroke:none;fill-rule:nonzero;fill:rgb(18.82353%,61.960787%,22.745098%);fill-opacity:1;" d="M 25.929688 20.734375 L 26.074219 20.816406 C 26.050781 20.867188 26.042969 20.910156 26.054688 20.949219 C 26.066406 20.988281 26.09375 21.019531 26.132812 21.050781 C 26.179688 21.082031 26.21875 21.09375 26.253906 21.089844 C 26.289062 21.085938 26.316406 21.070312 26.332031 21.046875 C 26.34375 21.03125 26.347656 21.011719 26.347656 20.996094 C 26.347656 20.976562 26.335938 20.957031 26.316406 20.929688 C 26.304688 20.914062 26.273438 20.878906 26.226562 20.824219 C 26.164062 20.757812 26.128906 20.699219 26.117188 20.648438 C 26.097656 20.582031 26.109375 20.523438 26.144531 20.46875 C 26.171875 20.433594 26.203125 20.40625 26.242188 20.390625 C 26.28125 20.371094 26.328125 20.367188 26.375 20.378906 C 26.425781 20.386719 26.476562 20.410156 26.527344 20.445312 C 26.613281 20.503906 26.667969 20.566406 26.683594 20.636719 C 26.703125 20.703125 26.691406 20.769531 26.652344 20.835938 L 26.507812 20.746094 C 26.523438 20.707031 26.53125 20.671875 26.519531 20.644531 C 26.511719 20.613281 26.488281 20.585938 26.449219 20.558594 C 26.40625 20.53125 26.371094 20.519531 26.335938 20.519531 C 26.316406 20.519531 26.296875 20.53125 26.285156 20.546875 C 26.273438 20.566406 26.273438 20.582031 26.277344 20.605469 C 26.285156 20.632812 26.316406 20.675781 26.375 20.738281 C 26.429688 20.800781 26.46875 20.851562 26.492188 20.890625 C 26.511719 20.929688 26.523438 20.96875 26.519531 21.011719 C 26.519531 21.054688 26.503906 21.097656 26.472656 21.140625 C 26.445312 21.179688 26.410156 21.210938 26.367188 21.230469 C 26.320312 21.25 26.273438 21.253906 26.21875 21.242188 C 26.167969 21.234375 26.113281 21.207031 26.054688 21.167969 C 25.964844 21.109375 25.914062 21.042969 25.894531 20.96875 C 25.875 20.898438 25.886719 20.820312 25.929688 20.738281 Z M 25.929688 20.734375 "/>
<path style=" stroke:none;fill-rule:nonzero;fill:rgb(18.82353%,61.960787%,22.745098%);fill-opacity:1;" d="M 25.246094 20.289062 L 25.394531 20.359375 C 25.371094 20.414062 25.367188 20.457031 25.378906 20.496094 C 25.390625 20.53125 25.417969 20.566406 25.464844 20.59375 C 25.507812 20.621094 25.550781 20.632812 25.585938 20.628906 C 25.621094 20.621094 25.644531 20.605469 25.664062 20.582031 C 25.671875 20.5625 25.675781 20.546875 25.671875 20.527344 C 25.671875 20.511719 25.660156 20.488281 25.640625 20.464844 C 25.628906 20.449219 25.597656 20.414062 25.546875 20.363281 C 25.480469 20.296875 25.441406 20.242188 25.429688 20.195312 C 25.410156 20.128906 25.417969 20.066406 25.453125 20.011719 C 25.472656 19.972656 25.503906 19.945312 25.542969 19.929688 C 25.585938 19.910156 25.628906 19.902344 25.675781 19.910156 C 25.726562 19.917969 25.777344 19.9375 25.832031 19.972656 C 25.921875 20.027344 25.976562 20.089844 25.996094 20.15625 C 26.015625 20.222656 26.007812 20.289062 25.96875 20.355469 L 25.824219 20.273438 C 25.839844 20.234375 25.84375 20.199219 25.832031 20.171875 C 25.824219 20.140625 25.796875 20.117188 25.757812 20.089844 C 25.714844 20.066406 25.679688 20.054688 25.644531 20.054688 C 25.621094 20.058594 25.605469 20.066406 25.59375 20.085938 C 25.582031 20.101562 25.582031 20.121094 25.589844 20.140625 C 25.597656 20.167969 25.632812 20.210938 25.691406 20.269531 C 25.75 20.332031 25.789062 20.378906 25.8125 20.417969 C 25.835938 20.457031 25.847656 20.496094 25.847656 20.539062 C 25.847656 20.582031 25.832031 20.625 25.804688 20.667969 C 25.78125 20.710938 25.746094 20.742188 25.699219 20.761719 C 25.65625 20.785156 25.609375 20.789062 25.554688 20.78125 C 25.503906 20.773438 25.449219 20.75 25.386719 20.710938 C 25.296875 20.65625 25.242188 20.59375 25.21875 20.523438 C 25.195312 20.449219 25.207031 20.371094 25.246094 20.289062 Z M 25.246094 20.289062 "/>
<path style=" stroke:none;fill-rule:nonzero;fill:rgb(18.82353%,61.960787%,22.745098%);fill-opacity:1;" d="M 24.398438 20.0625 L 24.832031 19.347656 L 25.359375 19.671875 L 25.285156 19.792969 L 24.902344 19.554688 L 24.804688 19.714844 L 25.164062 19.933594 L 25.089844 20.054688 L 24.734375 19.835938 L 24.617188 20.027344 L 25.011719 20.273438 L 24.9375 20.390625 Z M 24.398438 20.0625 "/>
<path style=" stroke:none;fill-rule:nonzero;fill:rgb(18.82353%,61.960787%,22.745098%);fill-opacity:1;" d="M 23.167969 19.046875 L 23.230469 18.921875 L 23.550781 19.089844 L 23.402344 19.386719 C 23.355469 19.398438 23.292969 19.402344 23.222656 19.394531 C 23.152344 19.386719 23.085938 19.367188 23.027344 19.335938 C 22.949219 19.296875 22.890625 19.246094 22.847656 19.183594 C 22.808594 19.121094 22.789062 19.050781 22.789062 18.976562 C 22.792969 18.902344 22.8125 18.828125 22.847656 18.757812 C 22.886719 18.679688 22.941406 18.617188 23.003906 18.574219 C 23.066406 18.53125 23.136719 18.511719 23.214844 18.511719 C 23.277344 18.511719 23.339844 18.527344 23.410156 18.566406 C 23.503906 18.613281 23.566406 18.667969 23.597656 18.734375 C 23.628906 18.800781 23.632812 18.871094 23.613281 18.945312 L 23.453125 18.898438 C 23.460938 18.855469 23.453125 18.816406 23.4375 18.78125 C 23.417969 18.746094 23.390625 18.714844 23.347656 18.691406 C 23.28125 18.660156 23.21875 18.652344 23.15625 18.675781 C 23.097656 18.695312 23.046875 18.75 23.003906 18.828125 C 22.960938 18.917969 22.945312 18.996094 22.960938 19.058594 C 22.980469 19.121094 23.019531 19.171875 23.082031 19.203125 C 23.113281 19.21875 23.148438 19.230469 23.183594 19.234375 C 23.222656 19.238281 23.257812 19.238281 23.289062 19.230469 L 23.335938 19.136719 Z M 23.167969 19.046875 "/>
<path style=" stroke:none;fill-rule:nonzero;fill:rgb(18.82353%,61.960787%,22.745098%);fill-opacity:1;" d="M 17.792969 17.714844 L 17.914062 16.890625 L 18.160156 16.925781 L 18.226562 17.511719 L 18.457031 16.96875 L 18.707031 17.007812 L 18.585938 17.832031 L 18.429688 17.808594 L 18.527344 17.160156 L 18.269531 17.785156 L 18.109375 17.761719 L 18.039062 17.089844 L 17.945312 17.738281 Z M 17.792969 17.714844 "/>
<path style=" stroke:none;fill-rule:nonzero;fill:rgb(18.82353%,61.960787%,22.745098%);fill-opacity:1;" d="M 16.949219 17.617188 L 17.027344 16.785156 L 17.640625 16.84375 L 17.628906 16.984375 L 17.183594 16.941406 L 17.164062 17.128906 L 17.582031 17.167969 L 17.566406 17.304688 L 17.152344 17.265625 L 17.132812 17.492188 L 17.59375 17.535156 L 17.582031 17.675781 Z M 16.949219 17.617188 "/>
<path style=" stroke:none;fill-rule:nonzero;fill:rgb(18.82353%,61.960787%,22.745098%);fill-opacity:1;" d="M 14.167969 17.097656 C 14.171875 17.011719 14.1875 16.941406 14.214844 16.882812 C 14.234375 16.84375 14.261719 16.804688 14.292969 16.773438 C 14.328125 16.738281 14.363281 16.714844 14.402344 16.699219 C 14.457031 16.679688 14.515625 16.671875 14.582031 16.671875 C 14.707031 16.675781 14.804688 16.714844 14.875 16.792969 C 14.945312 16.871094 14.980469 16.980469 14.976562 17.117188 C 14.972656 17.25 14.933594 17.355469 14.859375 17.429688 C 14.78125 17.503906 14.683594 17.539062 14.5625 17.535156 C 14.4375 17.53125 14.339844 17.492188 14.269531 17.414062 C 14.199219 17.335938 14.164062 17.230469 14.167969 17.097656 Z M 14.167969 17.097656 "/>
<path style=" stroke:none;fill-rule:nonzero;fill:rgb(96.862745%,100%,100%);fill-opacity:1;" d="M 14.34375 17.097656 C 14.339844 17.191406 14.359375 17.261719 14.402344 17.3125 C 14.445312 17.363281 14.5 17.390625 14.566406 17.390625 C 14.632812 17.390625 14.6875 17.371094 14.734375 17.324219 C 14.777344 17.273438 14.800781 17.203125 14.804688 17.105469 C 14.804688 17.011719 14.785156 16.9375 14.746094 16.890625 C 14.707031 16.84375 14.652344 16.816406 14.582031 16.816406 C 14.511719 16.8125 14.457031 16.835938 14.414062 16.882812 C 14.367188 16.929688 14.34375 17 14.34375 17.097656 Z M 14.34375 17.097656 "/>
<path style=" stroke:none;fill-rule:nonzero;fill:rgb(18.82353%,61.960787%,22.745098%);fill-opacity:1;" d="M 15.15625 17.527344 L 15.164062 16.695312 L 15.519531 16.699219 C 15.609375 16.699219 15.671875 16.707031 15.710938 16.722656 C 15.753906 16.738281 15.785156 16.765625 15.808594 16.804688 C 15.832031 16.84375 15.84375 16.886719 15.84375 16.9375 C 15.84375 17 15.824219 17.050781 15.785156 17.089844 C 15.75 17.128906 15.695312 17.15625 15.621094 17.164062 C 15.65625 17.1875 15.6875 17.210938 15.710938 17.238281 C 15.734375 17.261719 15.765625 17.308594 15.804688 17.375 L 15.902344 17.539062 L 15.703125 17.535156 L 15.582031 17.351562 C 15.539062 17.285156 15.511719 17.246094 15.496094 17.226562 C 15.480469 17.210938 15.464844 17.199219 15.445312 17.191406 C 15.429688 17.1875 15.398438 17.183594 15.363281 17.183594 L 15.328125 17.183594 L 15.324219 17.53125 Z M 15.15625 17.527344 "/>
<path style=" stroke:none;fill-rule:nonzero;fill:rgb(100%,100%,100%);fill-opacity:1;" d="M 15.328125 17.046875 L 15.453125 17.050781 C 15.535156 17.050781 15.585938 17.046875 15.605469 17.042969 C 15.625 17.035156 15.640625 17.023438 15.652344 17.007812 C 15.664062 16.992188 15.667969 16.96875 15.671875 16.945312 C 15.671875 16.917969 15.664062 16.894531 15.648438 16.875 C 15.632812 16.859375 15.613281 16.847656 15.585938 16.84375 C 15.570312 16.839844 15.53125 16.839844 15.464844 16.839844 L 15.332031 16.835938 Z M 15.328125 17.046875 "/>
<path style=" stroke:none;fill-rule:nonzero;fill:rgb(18.82353%,61.960787%,22.745098%);fill-opacity:1;" d="M 16.105469 16.734375 L 16.414062 16.75 C 16.480469 16.753906 16.535156 16.761719 16.570312 16.773438 C 16.617188 16.792969 16.65625 16.820312 16.691406 16.859375 C 16.722656 16.894531 16.746094 16.941406 16.761719 16.996094 C 16.777344 17.050781 16.785156 17.117188 16.78125 17.195312 C 16.777344 17.265625 16.765625 17.324219 16.746094 17.371094 C 16.722656 17.429688 16.691406 17.480469 16.648438 17.515625 C 16.621094 17.542969 16.578125 17.5625 16.527344 17.574219 C 16.492188 17.585938 16.441406 17.589844 16.378906 17.585938 L 16.0625 17.570312 Z M 16.105469 16.734375 "/>
<path style=" stroke:none;fill-rule:nonzero;fill:rgb(100%,100%,100%);fill-opacity:1;" d="M 16.265625 16.882812 L 16.238281 17.4375 L 16.363281 17.441406 C 16.410156 17.445312 16.445312 17.445312 16.464844 17.441406 C 16.492188 17.433594 16.515625 17.421875 16.535156 17.410156 C 16.554688 17.394531 16.570312 17.367188 16.582031 17.332031 C 16.597656 17.292969 16.605469 17.242188 16.609375 17.179688 C 16.609375 17.113281 16.609375 17.0625 16.597656 17.027344 C 16.589844 16.992188 16.574219 16.964844 16.554688 16.945312 C 16.535156 16.925781 16.511719 16.910156 16.480469 16.902344 C 16.457031 16.894531 16.410156 16.890625 16.34375 16.886719 Z M 16.265625 16.882812 "/>
<path style=" stroke:none;fill-rule:nonzero;fill:rgb(18.82353%,61.960787%,22.745098%);fill-opacity:1;" d="M 20.195312 18.226562 L 20.386719 17.414062 L 20.648438 17.476562 C 20.75 17.5 20.8125 17.519531 20.839844 17.535156 C 20.882812 17.558594 20.917969 17.59375 20.9375 17.644531 C 20.960938 17.691406 20.964844 17.75 20.949219 17.8125 C 20.9375 17.863281 20.917969 17.902344 20.890625 17.933594 C 20.863281 17.960938 20.835938 17.984375 20.800781 17.996094 C 20.769531 18.007812 20.738281 18.015625 20.707031 18.015625 C 20.667969 18.011719 20.609375 18.003906 20.535156 17.984375 L 20.429688 17.960938 L 20.355469 18.265625 Z M 20.195312 18.226562 "/>
<path style=" stroke:none;fill-rule:nonzero;fill:rgb(100%,100%,100%);fill-opacity:1;" d="M 20.519531 17.589844 L 20.464844 17.820312 L 20.554688 17.84375 C 20.617188 17.859375 20.660156 17.863281 20.683594 17.859375 C 20.707031 17.859375 20.730469 17.847656 20.746094 17.832031 C 20.761719 17.816406 20.773438 17.796875 20.777344 17.773438 C 20.785156 17.746094 20.785156 17.71875 20.769531 17.695312 C 20.757812 17.671875 20.738281 17.65625 20.714844 17.644531 C 20.695312 17.636719 20.65625 17.625 20.597656 17.609375 Z M 20.519531 17.589844 "/>
<path style=" stroke:none;fill-rule:nonzero;fill:rgb(18.82353%,61.960787%,22.745098%);fill-opacity:1;" d="M 20.964844 18.457031 L 21.242188 17.671875 L 21.578125 17.789062 C 21.660156 17.816406 21.71875 17.847656 21.75 17.875 C 21.785156 17.902344 21.804688 17.9375 21.816406 17.980469 C 21.828125 18.027344 21.824219 18.070312 21.808594 18.117188 C 21.785156 18.175781 21.75 18.21875 21.703125 18.246094 C 21.65625 18.273438 21.59375 18.277344 21.523438 18.265625 C 21.550781 18.296875 21.570312 18.328125 21.585938 18.359375 C 21.597656 18.390625 21.613281 18.445312 21.628906 18.519531 L 21.671875 18.707031 L 21.484375 18.640625 L 21.429688 18.429688 C 21.410156 18.351562 21.394531 18.304688 21.386719 18.28125 C 21.375 18.261719 21.363281 18.246094 21.347656 18.234375 C 21.335938 18.222656 21.308594 18.210938 21.273438 18.195312 L 21.242188 18.183594 L 21.125 18.515625 Z M 20.964844 18.457031 "/>
<path style=" stroke:none;fill-rule:nonzero;fill:rgb(100%,100%,100%);fill-opacity:1;" d="M 21.285156 18.058594 L 21.402344 18.101562 C 21.476562 18.128906 21.527344 18.140625 21.546875 18.140625 C 21.566406 18.140625 21.585938 18.136719 21.601562 18.125 C 21.621094 18.113281 21.632812 18.09375 21.640625 18.070312 C 21.648438 18.042969 21.648438 18.019531 21.640625 18 C 21.632812 17.976562 21.617188 17.960938 21.59375 17.945312 C 21.582031 17.941406 21.542969 17.925781 21.476562 17.902344 L 21.355469 17.859375 Z M 21.285156 18.058594 "/>
<path style=" stroke:none;fill-rule:nonzero;fill:rgb(18.82353%,61.960787%,22.745098%);fill-opacity:1;" d="M 21.945312 18.425781 C 21.96875 18.347656 22.003906 18.28125 22.042969 18.234375 C 22.074219 18.199219 22.109375 18.171875 22.152344 18.148438 C 22.191406 18.125 22.234375 18.113281 22.277344 18.109375 C 22.332031 18.101562 22.394531 18.109375 22.457031 18.128906 C 22.574219 18.167969 22.65625 18.234375 22.703125 18.328125 C 22.75 18.421875 22.753906 18.535156 22.714844 18.664062 C 22.675781 18.792969 22.609375 18.882812 22.515625 18.933594 C 22.425781 18.984375 22.320312 18.992188 22.203125 18.957031 C 22.085938 18.917969 22.003906 18.851562 21.957031 18.757812 C 21.910156 18.664062 21.90625 18.554688 21.945312 18.425781 Z M 21.945312 18.425781 "/>
<path style=" stroke:none;fill-rule:nonzero;fill:rgb(100%,100%,100%);fill-opacity:1;" d="M 22.113281 18.472656 C 22.082031 18.5625 22.082031 18.640625 22.109375 18.699219 C 22.136719 18.757812 22.183594 18.796875 22.246094 18.816406 C 22.308594 18.839844 22.371094 18.832031 22.425781 18.796875 C 22.480469 18.765625 22.523438 18.703125 22.550781 18.609375 C 22.578125 18.519531 22.582031 18.445312 22.554688 18.386719 C 22.527344 18.328125 22.484375 18.289062 22.417969 18.269531 C 22.351562 18.25 22.289062 18.253906 22.234375 18.289062 C 22.179688 18.320312 22.140625 18.382812 22.113281 18.472656 Z M 22.113281 18.472656 "/>
<path style=" stroke:none;fill-rule:nonzero;fill:rgb(18.82353%,61.960787%,22.745098%);fill-opacity:1;" d="M 23.570312 19.589844 L 23.953125 18.847656 L 24.265625 19.011719 C 24.34375 19.050781 24.398438 19.089844 24.425781 19.121094 C 24.457031 19.152344 24.472656 19.191406 24.476562 19.238281 C 24.480469 19.28125 24.472656 19.328125 24.449219 19.371094 C 24.421875 19.425781 24.378906 19.464844 24.328125 19.484375 C 24.277344 19.503906 24.21875 19.5 24.148438 19.476562 C 24.171875 19.511719 24.1875 19.546875 24.195312 19.578125 C 24.203125 19.613281 24.210938 19.667969 24.21875 19.742188 L 24.234375 19.933594 L 24.054688 19.84375 L 24.03125 19.625 C 24.023438 19.546875 24.015625 19.496094 24.007812 19.476562 C 24 19.453125 23.992188 19.433594 23.980469 19.421875 C 23.964844 19.40625 23.941406 19.390625 23.910156 19.375 L 23.878906 19.359375 L 23.71875 19.667969 Z M 23.570312 19.589844 "/>
<path style=" stroke:none;fill-rule:nonzero;fill:rgb(100%,100%,100%);fill-opacity:1;" d="M 23.9375 19.238281 L 24.050781 19.296875 C 24.121094 19.332031 24.167969 19.355469 24.1875 19.355469 C 24.207031 19.359375 24.226562 19.355469 24.246094 19.347656 C 24.265625 19.335938 24.277344 19.320312 24.289062 19.300781 C 24.300781 19.273438 24.304688 19.25 24.300781 19.230469 C 24.296875 19.207031 24.28125 19.1875 24.261719 19.171875 C 24.25 19.164062 24.210938 19.144531 24.152344 19.109375 L 24.035156 19.050781 Z M 23.9375 19.238281 "/>
<path style=" stroke:none;fill-rule:nonzero;fill:rgb(18.82353%,61.960787%,22.745098%);fill-opacity:1;" d="M 26.65625 21.113281 C 26.703125 21.042969 26.753906 20.992188 26.804688 20.957031 C 26.847656 20.933594 26.886719 20.917969 26.933594 20.90625 C 26.980469 20.898438 27.023438 20.898438 27.066406 20.90625 C 27.121094 20.917969 27.175781 20.941406 27.234375 20.980469 C 27.335938 21.046875 27.394531 21.132812 27.410156 21.238281 C 27.429688 21.34375 27.402344 21.453125 27.324219 21.566406 C 27.25 21.675781 27.160156 21.742188 27.058594 21.765625 C 26.957031 21.789062 26.855469 21.765625 26.753906 21.695312 C 26.648438 21.625 26.589844 21.539062 26.570312 21.433594 C 26.554688 21.332031 26.582031 21.222656 26.65625 21.113281 Z M 26.65625 21.113281 "/>
<path style=" stroke:none;fill-rule:nonzero;fill:rgb(100%,100%,100%);fill-opacity:1;" d="M 26.800781 21.207031 C 26.75 21.285156 26.726562 21.355469 26.738281 21.421875 C 26.746094 21.484375 26.777344 21.539062 26.832031 21.574219 C 26.886719 21.613281 26.949219 21.625 27.007812 21.609375 C 27.074219 21.589844 27.132812 21.542969 27.183594 21.464844 C 27.238281 21.382812 27.261719 21.3125 27.253906 21.25 C 27.242188 21.1875 27.210938 21.136719 27.152344 21.097656 C 27.097656 21.058594 27.039062 21.046875 26.976562 21.0625 C 26.914062 21.078125 26.855469 21.128906 26.800781 21.207031 Z M 26.800781 21.207031 "/>
<path style=" stroke:none;fill-rule:nonzero;fill:rgb(18.82353%,61.960787%,22.745098%);fill-opacity:1;" d="M 19.253906 17.886719 L 19.386719 17.300781 L 19.820312 17.398438 L 19.796875 17.5 L 19.480469 17.425781 L 19.453125 17.558594 L 19.746094 17.625 L 19.722656 17.722656 L 19.429688 17.65625 L 19.394531 17.816406 L 19.71875 17.890625 L 19.695312 17.988281 Z M 19.253906 17.886719 "/>
</g>
</svg>
