<?xml version="1.0" encoding="UTF-8"?>
<svg xmlns="http://www.w3.org/2000/svg" xmlns:xlink="http://www.w3.org/1999/xlink" width="40px" height="40px" viewBox="0 0 40 40" version="1.1">
<g id="surface1">
<path style=" stroke:none;fill-rule:evenodd;fill:rgb(69.803923%,0%,0%);fill-opacity:1;" d="M 0 0 L 80 0 L 80 26.570312 L 0 26.570312 Z M 0 0 "/>
<path style=" stroke:none;fill-rule:evenodd;fill:rgb(25.882354%,62.352943%,0%);fill-opacity:1;" d="M 0 26.570312 L 80 26.570312 L 80 40 L 0 40 Z M 0 26.570312 "/>
<path style=" stroke:none;fill-rule:evenodd;fill:rgb(100%,100%,100%);fill-opacity:1;" d="M 0 0 L 8.855469 0 L 8.855469 40 L 0 40 Z M 0 0 "/>
<path style=" stroke:none;fill-rule:evenodd;fill:rgb(69.803923%,0%,0%);fill-opacity:1;" d="M 0.421875 0.675781 L 0.84375 0.675781 L 0.84375 1.355469 L 0.421875 1.355469 Z M 0.421875 0.675781 "/>
<path style=" stroke:none;fill-rule:evenodd;fill:rgb(69.803923%,0%,0%);fill-opacity:1;" d="M 1.6875 0.675781 L 2.953125 0.675781 L 2.953125 1.355469 L 1.6875 1.355469 Z M 1.6875 0.675781 "/>
<path style=" stroke:none;fill-rule:evenodd;fill:rgb(69.803923%,0%,0%);fill-opacity:1;" d="M 2.109375 0 L 2.53125 0 L 2.53125 0.675781 L 2.109375 0.675781 Z M 2.109375 0 "/>
<path style=" stroke:none;fill-rule:evenodd;fill:rgb(69.803923%,0%,0%);fill-opacity:1;" d="M 4.21875 0 L 4.640625 0 L 4.640625 0.675781 L 4.21875 0.675781 Z M 4.21875 0 "/>
<path style=" stroke:none;fill-rule:evenodd;fill:rgb(69.803923%,0%,0%);fill-opacity:1;" d="M 5.90625 0.675781 L 7.167969 0.675781 L 7.167969 1.355469 L 5.90625 1.355469 Z M 5.90625 0.675781 "/>
<path style=" stroke:none;fill-rule:evenodd;fill:rgb(69.803923%,0%,0%);fill-opacity:1;" d="M 6.328125 0 L 6.75 0 L 6.75 0.675781 L 6.328125 0.675781 Z M 6.328125 0 "/>
<path style=" stroke:none;fill-rule:evenodd;fill:rgb(69.803923%,0%,0%);fill-opacity:1;" d="M 1.265625 1.355469 L 2.109375 1.355469 L 2.109375 2.035156 L 1.265625 2.035156 Z M 1.265625 1.355469 "/>
<path style=" stroke:none;fill-rule:evenodd;fill:rgb(69.803923%,0%,0%);fill-opacity:1;" d="M 2.53125 1.355469 L 3.375 1.355469 L 3.375 2.035156 L 2.53125 2.035156 Z M 2.53125 1.355469 "/>
<path style=" stroke:none;fill-rule:evenodd;fill:rgb(69.803923%,0%,0%);fill-opacity:1;" d="M 5.484375 1.355469 L 6.328125 1.355469 L 6.328125 2.035156 L 5.484375 2.035156 Z M 5.484375 1.355469 "/>
<path style=" stroke:none;fill-rule:evenodd;fill:rgb(69.803923%,0%,0%);fill-opacity:1;" d="M 6.75 1.355469 L 7.59375 1.355469 L 7.59375 2.035156 L 6.75 2.035156 Z M 6.75 1.355469 "/>
<path style=" stroke:none;fill-rule:evenodd;fill:rgb(69.803923%,0%,0%);fill-opacity:1;" d="M 0.84375 2.035156 L 1.6875 2.035156 L 1.6875 2.710938 L 0.84375 2.710938 Z M 0.84375 2.035156 "/>
<path style=" stroke:none;fill-rule:evenodd;fill:rgb(69.803923%,0%,0%);fill-opacity:1;" d="M 2.953125 2.035156 L 3.796875 2.035156 L 3.796875 2.710938 L 2.953125 2.710938 Z M 2.953125 2.035156 "/>
<path style=" stroke:none;fill-rule:evenodd;fill:rgb(69.803923%,0%,0%);fill-opacity:1;" d="M 5.0625 2.035156 L 5.90625 2.035156 L 5.90625 2.710938 L 5.0625 2.710938 Z M 5.0625 2.035156 "/>
<path style=" stroke:none;fill-rule:evenodd;fill:rgb(69.803923%,0%,0%);fill-opacity:1;" d="M 7.167969 2.035156 L 8.011719 2.035156 L 8.011719 2.710938 L 7.167969 2.710938 Z M 7.167969 2.035156 "/>
<path style=" stroke:none;fill-rule:evenodd;fill:rgb(69.803923%,0%,0%);fill-opacity:1;" d="M 8.011719 0.675781 L 8.433594 0.675781 L 8.433594 1.355469 L 8.011719 1.355469 Z M 8.011719 0.675781 "/>
<path style=" stroke:none;fill-rule:evenodd;fill:rgb(69.803923%,0%,0%);fill-opacity:1;" d="M 0.421875 2.710938 L 1.265625 2.710938 L 1.265625 3.390625 L 0.421875 3.390625 Z M 0.421875 2.710938 "/>
<path style=" stroke:none;fill-rule:evenodd;fill:rgb(69.803923%,0%,0%);fill-opacity:1;" d="M 3.375 2.710938 L 4.21875 2.710938 L 4.21875 3.390625 L 3.375 3.390625 Z M 3.375 2.710938 "/>
<path style=" stroke:none;fill-rule:evenodd;fill:rgb(69.803923%,0%,0%);fill-opacity:1;" d="M 7.59375 2.710938 L 8.4375 2.710938 L 8.4375 3.390625 L 7.59375 3.390625 Z M 7.59375 2.710938 "/>
<path style=" stroke:none;fill-rule:evenodd;fill:rgb(69.803923%,0%,0%);fill-opacity:1;" d="M 0.84375 4.746094 L 1.6875 4.746094 L 1.6875 5.421875 L 0.84375 5.421875 Z M 0.84375 4.746094 "/>
<path style=" stroke:none;fill-rule:evenodd;fill:rgb(69.803923%,0%,0%);fill-opacity:1;" d="M 1.265625 5.421875 L 2.109375 5.421875 L 2.109375 6.101562 L 1.265625 6.101562 Z M 1.265625 5.421875 "/>
<path style=" stroke:none;fill-rule:evenodd;fill:rgb(69.803923%,0%,0%);fill-opacity:1;" d="M 2.953125 4.746094 L 3.796875 4.746094 L 3.796875 5.421875 L 2.953125 5.421875 Z M 2.953125 4.746094 "/>
<path style=" stroke:none;fill-rule:evenodd;fill:rgb(69.803923%,0%,0%);fill-opacity:1;" d="M 2.53125 5.421875 L 3.375 5.421875 L 3.375 6.101562 L 2.53125 6.101562 Z M 2.53125 5.421875 "/>
<path style=" stroke:none;fill-rule:evenodd;fill:rgb(69.803923%,0%,0%);fill-opacity:1;" d="M 1.6875 6.101562 L 2.953125 6.101562 L 2.953125 6.777344 L 1.6875 6.777344 Z M 1.6875 6.101562 "/>
<path style=" stroke:none;fill-rule:evenodd;fill:rgb(69.803923%,0%,0%);fill-opacity:1;" d="M 2.109375 6.777344 L 2.53125 6.777344 L 2.53125 7.457031 L 2.109375 7.457031 Z M 2.109375 6.777344 "/>
<path style=" stroke:none;fill-rule:evenodd;fill:rgb(69.803923%,0%,0%);fill-opacity:1;" d="M 5.0625 4.746094 L 5.90625 4.746094 L 5.90625 5.421875 L 5.0625 5.421875 Z M 5.0625 4.746094 "/>
<path style=" stroke:none;fill-rule:evenodd;fill:rgb(69.803923%,0%,0%);fill-opacity:1;" d="M 5.484375 5.421875 L 6.328125 5.421875 L 6.328125 6.101562 L 5.484375 6.101562 Z M 5.484375 5.421875 "/>
<path style=" stroke:none;fill-rule:evenodd;fill:rgb(69.803923%,0%,0%);fill-opacity:1;" d="M 7.167969 4.746094 L 8.011719 4.746094 L 8.011719 5.421875 L 7.167969 5.421875 Z M 7.167969 4.746094 "/>
<path style=" stroke:none;fill-rule:evenodd;fill:rgb(69.803923%,0%,0%);fill-opacity:1;" d="M 6.75 5.421875 L 7.59375 5.421875 L 7.59375 6.101562 L 6.75 6.101562 Z M 6.75 5.421875 "/>
<path style=" stroke:none;fill-rule:evenodd;fill:rgb(69.803923%,0%,0%);fill-opacity:1;" d="M 5.90625 6.101562 L 7.167969 6.101562 L 7.167969 6.777344 L 5.90625 6.777344 Z M 5.90625 6.101562 "/>
<path style=" stroke:none;fill-rule:evenodd;fill:rgb(69.803923%,0%,0%);fill-opacity:1;" d="M 6.328125 6.777344 L 6.75 6.777344 L 6.75 7.457031 L 6.328125 7.457031 Z M 6.328125 6.777344 "/>
<path style=" stroke:none;fill-rule:evenodd;fill:rgb(69.803923%,0%,0%);fill-opacity:1;" d="M 4.21875 6.101562 L 4.640625 6.101562 L 4.640625 6.777344 L 4.21875 6.777344 Z M 4.21875 6.101562 "/>
<path style=" stroke:none;fill-rule:evenodd;fill:rgb(69.803923%,0%,0%);fill-opacity:1;" d="M 0 6.101562 L 0.421875 6.101562 L 0.421875 6.777344 L 0 6.777344 Z M 0 6.101562 "/>
<path style=" stroke:none;fill-rule:evenodd;fill:rgb(69.803923%,0%,0%);fill-opacity:1;" d="M 8.433594 6.101562 L 8.855469 6.101562 L 8.855469 6.777344 L 8.433594 6.777344 Z M 8.433594 6.101562 "/>
<path style=" stroke:none;fill-rule:evenodd;fill:rgb(69.803923%,0%,0%);fill-opacity:1;" d="M 2.109375 9.492188 L 2.53125 9.492188 L 2.53125 10.167969 L 2.109375 10.167969 Z M 2.109375 9.492188 "/>
<path style=" stroke:none;fill-rule:evenodd;fill:rgb(69.803923%,0%,0%);fill-opacity:1;" d="M 1.6875 10.167969 L 2.953125 10.167969 L 2.953125 10.847656 L 1.6875 10.847656 Z M 1.6875 10.167969 "/>
<path style=" stroke:none;fill-rule:evenodd;fill:rgb(69.803923%,0%,0%);fill-opacity:1;" d="M 1.265625 10.847656 L 3.375 10.847656 L 3.375 11.523438 L 1.265625 11.523438 Z M 1.265625 10.847656 "/>
<path style=" stroke:none;fill-rule:evenodd;fill:rgb(69.803923%,0%,0%);fill-opacity:1;" d="M 6.328125 9.492188 L 6.75 9.492188 L 6.75 10.167969 L 6.328125 10.167969 Z M 6.328125 9.492188 "/>
<path style=" stroke:none;fill-rule:evenodd;fill:rgb(69.803923%,0%,0%);fill-opacity:1;" d="M 5.90625 10.167969 L 7.167969 10.167969 L 7.167969 10.847656 L 5.90625 10.847656 Z M 5.90625 10.167969 "/>
<path style=" stroke:none;fill-rule:evenodd;fill:rgb(69.803923%,0%,0%);fill-opacity:1;" d="M 5.484375 10.847656 L 7.59375 10.847656 L 7.59375 11.523438 L 5.484375 11.523438 Z M 5.484375 10.847656 "/>
<path style=" stroke:none;fill-rule:evenodd;fill:rgb(69.803923%,0%,0%);fill-opacity:1;" d="M 5.90625 14.238281 L 8.011719 14.238281 L 8.011719 14.914062 L 5.90625 14.914062 Z M 5.90625 14.238281 "/>
<path style=" stroke:none;fill-rule:evenodd;fill:rgb(69.803923%,0%,0%);fill-opacity:1;" d="M 5.0625 11.523438 L 8.015625 11.523438 L 8.015625 12.203125 L 5.0625 12.203125 Z M 5.0625 11.523438 "/>
<path style=" stroke:none;fill-rule:evenodd;fill:rgb(69.803923%,0%,0%);fill-opacity:1;" d="M 0.84375 11.523438 L 3.796875 11.523438 L 3.796875 12.203125 L 0.84375 12.203125 Z M 0.84375 11.523438 "/>
<path style=" stroke:none;fill-rule:evenodd;fill:rgb(69.803923%,0%,0%);fill-opacity:1;" d="M 1.265625 14.914062 L 2.53125 14.914062 L 2.53125 15.59375 L 1.265625 15.59375 Z M 1.265625 14.914062 "/>
<path style=" stroke:none;fill-rule:evenodd;fill:rgb(69.803923%,0%,0%);fill-opacity:1;" d="M 0.84375 14.238281 L 2.953125 14.238281 L 2.953125 14.914062 L 0.84375 14.914062 Z M 0.84375 14.238281 "/>
<path style=" stroke:none;fill-rule:evenodd;fill:rgb(69.803923%,0%,0%);fill-opacity:1;" d="M 6.75 12.878906 L 8.855469 12.878906 L 8.855469 13.558594 L 6.75 13.558594 Z M 6.75 12.878906 "/>
<path style=" stroke:none;fill-rule:evenodd;fill:rgb(69.803923%,0%,0%);fill-opacity:1;" d="M 6.328125 14.914062 L 7.59375 14.914062 L 7.59375 15.59375 L 6.328125 15.59375 Z M 6.328125 14.914062 "/>
<path style=" stroke:none;fill-rule:evenodd;fill:rgb(69.803923%,0%,0%);fill-opacity:1;" d="M 1.6875 15.59375 L 2.109375 15.59375 L 2.109375 16.269531 L 1.6875 16.269531 Z M 1.6875 15.59375 "/>
<path style=" stroke:none;fill-rule:evenodd;fill:rgb(69.803923%,0%,0%);fill-opacity:1;" d="M 6.75 15.59375 L 7.171875 15.59375 L 7.171875 16.269531 L 6.75 16.269531 Z M 6.75 15.59375 "/>
<path style=" stroke:none;fill-rule:evenodd;fill:rgb(69.803923%,0%,0%);fill-opacity:1;" d="M 0 12.878906 L 2.109375 12.878906 L 2.109375 13.558594 L 0 13.558594 Z M 0 12.878906 "/>
<path style=" stroke:none;fill-rule:evenodd;fill:rgb(69.803923%,0%,0%);fill-opacity:1;" d="M 3.796875 14.238281 L 5.0625 14.238281 L 5.0625 14.914062 L 3.796875 14.914062 Z M 3.796875 14.238281 "/>
<path style=" stroke:none;fill-rule:evenodd;fill:rgb(69.803923%,0%,0%);fill-opacity:1;" d="M 4.21875 14.914062 L 4.640625 14.914062 L 4.640625 15.59375 L 4.21875 15.59375 Z M 4.21875 14.914062 "/>
<path style=" stroke:none;fill-rule:evenodd;fill:rgb(69.803923%,0%,0%);fill-opacity:1;" d="M 2.953125 12.878906 L 5.90625 12.878906 L 5.90625 13.558594 L 2.953125 13.558594 Z M 2.953125 12.878906 "/>
<path style=" stroke:none;fill-rule:evenodd;fill:rgb(69.803923%,0%,0%);fill-opacity:1;" d="M 4.640625 2.710938 L 5.484375 2.710938 L 5.484375 3.390625 L 4.640625 3.390625 Z M 4.640625 2.710938 "/>
<path style=" stroke:none;fill-rule:evenodd;fill:rgb(69.803923%,0%,0%);fill-opacity:1;" d="M 3.796875 3.390625 L 5.0625 3.390625 L 5.0625 4.066406 L 3.796875 4.066406 Z M 3.796875 3.390625 "/>
<path style=" stroke:none;fill-rule:evenodd;fill:rgb(69.803923%,0%,0%);fill-opacity:1;" d="M 3.375 4.066406 L 4.21875 4.066406 L 4.21875 4.746094 L 3.375 4.746094 Z M 3.375 4.066406 "/>
<path style=" stroke:none;fill-rule:evenodd;fill:rgb(69.803923%,0%,0%);fill-opacity:1;" d="M 4.640625 4.066406 L 5.484375 4.066406 L 5.484375 4.746094 L 4.640625 4.746094 Z M 4.640625 4.066406 "/>
<path style=" stroke:none;fill-rule:evenodd;fill:rgb(69.803923%,0%,0%);fill-opacity:1;" d="M 0 3.390625 L 0.84375 3.390625 L 0.84375 4.066406 L 0 4.066406 Z M 0 3.390625 "/>
<path style=" stroke:none;fill-rule:evenodd;fill:rgb(69.803923%,0%,0%);fill-opacity:1;" d="M 0.421875 4.066406 L 1.265625 4.066406 L 1.265625 4.746094 L 0.421875 4.746094 Z M 0.421875 4.066406 "/>
<path style=" stroke:none;fill-rule:evenodd;fill:rgb(69.803923%,0%,0%);fill-opacity:1;" d="M 8.011719 3.390625 L 8.855469 3.390625 L 8.855469 4.066406 L 8.011719 4.066406 Z M 8.011719 3.390625 "/>
<path style=" stroke:none;fill-rule:evenodd;fill:rgb(69.803923%,0%,0%);fill-opacity:1;" d="M 7.59375 4.066406 L 8.4375 4.066406 L 8.4375 4.746094 L 7.59375 4.746094 Z M 7.59375 4.066406 "/>
<path style=" stroke:none;fill-rule:evenodd;fill:rgb(69.803923%,0%,0%);fill-opacity:1;" d="M 0 10.167969 L 0.421875 10.167969 L 0.421875 10.847656 L 0 10.847656 Z M 0 10.167969 "/>
<path style=" stroke:none;fill-rule:evenodd;fill:rgb(69.803923%,0%,0%);fill-opacity:1;" d="M 8.433594 10.167969 L 8.855469 10.167969 L 8.855469 10.847656 L 8.433594 10.847656 Z M 8.433594 10.167969 "/>
<path style=" stroke:none;fill-rule:evenodd;fill:rgb(69.803923%,0%,0%);fill-opacity:1;" d="M 3.796875 15.59375 L 5.0625 15.59375 L 5.0625 16.269531 L 3.796875 16.269531 Z M 3.796875 15.59375 "/>
<path style=" stroke:none;fill-rule:evenodd;fill:rgb(69.803923%,0%,0%);fill-opacity:1;" d="M 3.375 16.269531 L 4.21875 16.269531 L 4.21875 16.949219 L 3.375 16.949219 Z M 3.375 16.269531 "/>
<path style=" stroke:none;fill-rule:evenodd;fill:rgb(69.803923%,0%,0%);fill-opacity:1;" d="M 4.640625 16.269531 L 5.484375 16.269531 L 5.484375 16.949219 L 4.640625 16.949219 Z M 4.640625 16.269531 "/>
<path style=" stroke:none;fill-rule:evenodd;fill:rgb(69.803923%,0%,0%);fill-opacity:1;" d="M 2.953125 16.949219 L 3.796875 16.949219 L 3.796875 17.625 L 2.953125 17.625 Z M 2.953125 16.949219 "/>
<path style=" stroke:none;fill-rule:evenodd;fill:rgb(69.803923%,0%,0%);fill-opacity:1;" d="M 5.0625 16.949219 L 5.90625 16.949219 L 5.90625 17.625 L 5.0625 17.625 Z M 5.0625 16.949219 "/>
<path style=" stroke:none;fill-rule:evenodd;fill:rgb(69.803923%,0%,0%);fill-opacity:1;" d="M 2.53125 17.625 L 3.375 17.625 L 3.375 18.304688 L 2.53125 18.304688 Z M 2.53125 17.625 "/>
<path style=" stroke:none;fill-rule:evenodd;fill:rgb(69.803923%,0%,0%);fill-opacity:1;" d="M 5.484375 17.625 L 6.328125 17.625 L 6.328125 18.304688 L 5.484375 18.304688 Z M 5.484375 17.625 "/>
<path style=" stroke:none;fill-rule:evenodd;fill:rgb(69.803923%,0%,0%);fill-opacity:1;" d="M 2.109375 18.304688 L 2.953125 18.304688 L 2.953125 18.980469 L 2.109375 18.980469 Z M 2.109375 18.304688 "/>
<path style=" stroke:none;fill-rule:evenodd;fill:rgb(69.803923%,0%,0%);fill-opacity:1;" d="M 5.90625 18.304688 L 6.746094 18.304688 L 6.746094 18.980469 L 5.90625 18.980469 Z M 5.90625 18.304688 "/>
<path style=" stroke:none;fill-rule:evenodd;fill:rgb(69.803923%,0%,0%);fill-opacity:1;" d="M 1.265625 18.980469 L 2.53125 18.980469 L 2.53125 19.660156 L 1.265625 19.660156 Z M 1.265625 18.980469 "/>
<path style=" stroke:none;fill-rule:evenodd;fill:rgb(69.803923%,0%,0%);fill-opacity:1;" d="M 6.328125 18.980469 L 7.59375 18.980469 L 7.59375 19.660156 L 6.328125 19.660156 Z M 6.328125 18.980469 "/>
<path style=" stroke:none;fill-rule:evenodd;fill:rgb(69.803923%,0%,0%);fill-opacity:1;" d="M 7.167969 18.304688 L 8.011719 18.304688 L 8.011719 18.980469 L 7.167969 18.980469 Z M 7.167969 18.304688 "/>
<path style=" stroke:none;fill-rule:evenodd;fill:rgb(69.803923%,0%,0%);fill-opacity:1;" d="M 7.59375 17.625 L 8.4375 17.625 L 8.4375 18.304688 L 7.59375 18.304688 Z M 7.59375 17.625 "/>
<path style=" stroke:none;fill-rule:evenodd;fill:rgb(69.803923%,0%,0%);fill-opacity:1;" d="M 8.011719 16.949219 L 8.855469 16.949219 L 8.855469 17.625 L 8.011719 17.625 Z M 8.011719 16.949219 "/>
<path style=" stroke:none;fill-rule:evenodd;fill:rgb(69.803923%,0%,0%);fill-opacity:1;" d="M 0.84375 18.304688 L 1.6875 18.304688 L 1.6875 18.980469 L 0.84375 18.980469 Z M 0.84375 18.304688 "/>
<path style=" stroke:none;fill-rule:evenodd;fill:rgb(69.803923%,0%,0%);fill-opacity:1;" d="M 0.421875 17.625 L 1.265625 17.625 L 1.265625 18.304688 L 0.421875 18.304688 Z M 0.421875 17.625 "/>
<path style=" stroke:none;fill-rule:evenodd;fill:rgb(69.803923%,0%,0%);fill-opacity:1;" d="M 0 16.949219 L 0.84375 16.949219 L 0.84375 17.625 L 0 17.625 Z M 0 16.949219 "/>
<path style=" stroke:none;fill-rule:evenodd;fill:rgb(69.803923%,0%,0%);fill-opacity:1;" d="M 1.6875 19.660156 L 2.109375 19.660156 L 2.109375 20.339844 L 1.6875 20.339844 Z M 1.6875 19.660156 "/>
<path style=" stroke:none;fill-rule:evenodd;fill:rgb(69.803923%,0%,0%);fill-opacity:1;" d="M 6.75 19.660156 L 7.171875 19.660156 L 7.171875 20.339844 L 6.75 20.339844 Z M 6.75 19.660156 "/>
<path style=" stroke:none;fill-rule:evenodd;fill:rgb(69.803923%,0%,0%);fill-opacity:1;" d="M 4.21875 17.625 L 4.640625 17.625 L 4.640625 18.304688 L 4.21875 18.304688 Z M 4.21875 17.625 "/>
<path style=" stroke:none;fill-rule:evenodd;fill:rgb(69.803923%,0%,0%);fill-opacity:1;" d="M 2.953125 19.660156 L 3.375 19.660156 L 3.375 20.339844 L 2.953125 20.339844 Z M 2.953125 19.660156 "/>
<path style=" stroke:none;fill-rule:evenodd;fill:rgb(69.803923%,0%,0%);fill-opacity:1;" d="M 5.484375 19.660156 L 5.90625 19.660156 L 5.90625 20.339844 L 5.484375 20.339844 Z M 5.484375 19.660156 "/>
<path style=" stroke:none;fill-rule:evenodd;fill:rgb(69.803923%,0%,0%);fill-opacity:1;" d="M 4.21875 19.660156 L 4.640625 19.660156 L 4.640625 20.339844 L 4.21875 20.339844 Z M 4.21875 19.660156 "/>
<path style=" stroke:none;fill-rule:evenodd;fill:rgb(69.803923%,0%,0%);fill-opacity:1;" d="M 0 19.660156 L 0.421875 19.660156 L 0.421875 20.339844 L 0 20.339844 Z M 0 19.660156 "/>
<path style=" stroke:none;fill-rule:evenodd;fill:rgb(69.803923%,0%,0%);fill-opacity:1;" d="M 8.433594 19.660156 L 8.855469 19.660156 L 8.855469 20.339844 L 8.433594 20.339844 Z M 8.433594 19.660156 "/>
<path style=" stroke:none;fill-rule:evenodd;fill:rgb(69.803923%,0%,0%);fill-opacity:1;" d="M 4.21875 10.167969 L 4.640625 10.167969 L 4.640625 10.847656 L 4.21875 10.847656 Z M 4.21875 10.167969 "/>
<path style=" stroke:none;fill-rule:evenodd;fill:rgb(69.803923%,0%,0%);fill-opacity:1;" d="M 2.109375 3.390625 L 2.53125 3.390625 L 2.53125 4.066406 L 2.109375 4.066406 Z M 2.109375 3.390625 "/>
<path style=" stroke:none;fill-rule:evenodd;fill:rgb(69.803923%,0%,0%);fill-opacity:1;" d="M 6.328125 3.390625 L 6.75 3.390625 L 6.75 4.066406 L 6.328125 4.066406 Z M 6.328125 3.390625 "/>
<path style=" stroke:none;fill-rule:evenodd;fill:rgb(69.803923%,0%,0%);fill-opacity:1;" d="M 3.796875 8.136719 L 5.0625 8.136719 L 5.0625 8.8125 L 3.796875 8.8125 Z M 3.796875 8.136719 "/>
<path style=" stroke:none;fill-rule:evenodd;fill:rgb(69.803923%,0%,0%);fill-opacity:1;" d="M 2.953125 8.8125 L 4.21875 8.8125 L 4.21875 9.492188 L 2.953125 9.492188 Z M 2.953125 8.8125 "/>
<path style=" stroke:none;fill-rule:evenodd;fill:rgb(69.803923%,0%,0%);fill-opacity:1;" d="M 3.375 9.492188 L 3.796875 9.492188 L 3.796875 10.167969 L 3.375 10.167969 Z M 3.375 9.492188 "/>
<path style=" stroke:none;fill-rule:evenodd;fill:rgb(69.803923%,0%,0%);fill-opacity:1;" d="M 2.53125 8.136719 L 3.375 8.136719 L 3.375 8.8125 L 2.53125 8.8125 Z M 2.53125 8.136719 "/>
<path style=" stroke:none;fill-rule:evenodd;fill:rgb(69.803923%,0%,0%);fill-opacity:1;" d="M 2.953125 7.457031 L 4.21875 7.457031 L 4.21875 8.136719 L 2.953125 8.136719 Z M 2.953125 7.457031 "/>
<path style=" stroke:none;fill-rule:evenodd;fill:rgb(69.803923%,0%,0%);fill-opacity:1;" d="M 3.375 6.777344 L 3.796875 6.777344 L 3.796875 7.457031 L 3.375 7.457031 Z M 3.375 6.777344 "/>
<path style=" stroke:none;fill-rule:evenodd;fill:rgb(69.803923%,0%,0%);fill-opacity:1;" d="M 4.640625 7.457031 L 5.90625 7.457031 L 5.90625 8.136719 L 4.640625 8.136719 Z M 4.640625 7.457031 "/>
<path style=" stroke:none;fill-rule:evenodd;fill:rgb(69.803923%,0%,0%);fill-opacity:1;" d="M 5.0625 6.777344 L 5.484375 6.777344 L 5.484375 7.457031 L 5.0625 7.457031 Z M 5.0625 6.777344 "/>
<path style=" stroke:none;fill-rule:evenodd;fill:rgb(69.803923%,0%,0%);fill-opacity:1;" d="M 5.484375 8.136719 L 6.328125 8.136719 L 6.328125 8.8125 L 5.484375 8.8125 Z M 5.484375 8.136719 "/>
<path style=" stroke:none;fill-rule:evenodd;fill:rgb(69.803923%,0%,0%);fill-opacity:1;" d="M 4.640625 8.8125 L 5.90625 8.8125 L 5.90625 9.492188 L 4.640625 9.492188 Z M 4.640625 8.8125 "/>
<path style=" stroke:none;fill-rule:evenodd;fill:rgb(69.803923%,0%,0%);fill-opacity:1;" d="M 5.0625 9.492188 L 5.484375 9.492188 L 5.484375 10.167969 L 5.0625 10.167969 Z M 5.0625 9.492188 "/>
<path style=" stroke:none;fill-rule:evenodd;fill:rgb(69.803923%,0%,0%);fill-opacity:1;" d="M 6.75 8.136719 L 7.59375 8.136719 L 7.59375 8.8125 L 6.75 8.8125 Z M 6.75 8.136719 "/>
<path style=" stroke:none;fill-rule:evenodd;fill:rgb(69.803923%,0%,0%);fill-opacity:1;" d="M 7.167969 7.457031 L 8.433594 7.457031 L 8.433594 8.136719 L 7.167969 8.136719 Z M 7.167969 7.457031 "/>
<path style=" stroke:none;fill-rule:evenodd;fill:rgb(69.803923%,0%,0%);fill-opacity:1;" d="M 8.011719 8.136719 L 8.855469 8.136719 L 8.855469 8.8125 L 8.011719 8.8125 Z M 8.011719 8.136719 "/>
<path style=" stroke:none;fill-rule:evenodd;fill:rgb(69.803923%,0%,0%);fill-opacity:1;" d="M 7.167969 8.8125 L 8.433594 8.8125 L 8.433594 9.492188 L 7.167969 9.492188 Z M 7.167969 8.8125 "/>
<path style=" stroke:none;fill-rule:evenodd;fill:rgb(69.803923%,0%,0%);fill-opacity:1;" d="M 7.59375 9.492188 L 8.015625 9.492188 L 8.015625 10.167969 L 7.59375 10.167969 Z M 7.59375 9.492188 "/>
<path style=" stroke:none;fill-rule:evenodd;fill:rgb(69.803923%,0%,0%);fill-opacity:1;" d="M 7.59375 6.777344 L 8.015625 6.777344 L 8.015625 7.457031 L 7.59375 7.457031 Z M 7.59375 6.777344 "/>
<path style=" stroke:none;fill-rule:evenodd;fill:rgb(69.803923%,0%,0%);fill-opacity:1;" d="M 0 8.136719 L 0.84375 8.136719 L 0.84375 8.8125 L 0 8.8125 Z M 0 8.136719 "/>
<path style=" stroke:none;fill-rule:evenodd;fill:rgb(69.803923%,0%,0%);fill-opacity:1;" d="M 0.421875 7.457031 L 1.6875 7.457031 L 1.6875 8.136719 L 0.421875 8.136719 Z M 0.421875 7.457031 "/>
<path style=" stroke:none;fill-rule:evenodd;fill:rgb(69.803923%,0%,0%);fill-opacity:1;" d="M 1.265625 8.136719 L 2.109375 8.136719 L 2.109375 8.8125 L 1.265625 8.8125 Z M 1.265625 8.136719 "/>
<path style=" stroke:none;fill-rule:evenodd;fill:rgb(69.803923%,0%,0%);fill-opacity:1;" d="M 0.421875 8.8125 L 1.6875 8.8125 L 1.6875 9.492188 L 0.421875 9.492188 Z M 0.421875 8.8125 "/>
<path style=" stroke:none;fill-rule:evenodd;fill:rgb(69.803923%,0%,0%);fill-opacity:1;" d="M 0.84375 9.492188 L 1.265625 9.492188 L 1.265625 10.167969 L 0.84375 10.167969 Z M 0.84375 9.492188 "/>
<path style=" stroke:none;fill-rule:evenodd;fill:rgb(69.803923%,0%,0%);fill-opacity:1;" d="M 0.84375 6.777344 L 1.265625 6.777344 L 1.265625 7.457031 L 0.84375 7.457031 Z M 0.84375 6.777344 "/>
<path style=" stroke:none;fill-rule:evenodd;fill:rgb(69.803923%,0%,0%);fill-opacity:1;" d="M 0.421875 12.203125 L 2.109375 12.203125 L 2.109375 12.878906 L 0.421875 12.878906 Z M 0.421875 12.203125 "/>
<path style=" stroke:none;fill-rule:evenodd;fill:rgb(69.803923%,0%,0%);fill-opacity:1;" d="M 2.53125 12.203125 L 4.21875 12.203125 L 4.21875 12.878906 L 2.53125 12.878906 Z M 2.53125 12.203125 "/>
<path style=" stroke:none;fill-rule:evenodd;fill:rgb(69.803923%,0%,0%);fill-opacity:1;" d="M 4.640625 12.203125 L 6.324219 12.203125 L 6.324219 12.878906 L 4.640625 12.878906 Z M 4.640625 12.203125 "/>
<path style=" stroke:none;fill-rule:evenodd;fill:rgb(69.803923%,0%,0%);fill-opacity:1;" d="M 6.75 12.203125 L 8.433594 12.203125 L 8.433594 12.878906 L 6.75 12.878906 Z M 6.75 12.203125 "/>
<path style=" stroke:none;fill-rule:evenodd;fill:rgb(69.803923%,0%,0%);fill-opacity:1;" d="M 3.375 13.558594 L 5.484375 13.558594 L 5.484375 14.238281 L 3.375 14.238281 Z M 3.375 13.558594 "/>
<path style=" stroke:none;fill-rule:evenodd;fill:rgb(69.803923%,0%,0%);fill-opacity:1;" d="M 0.421875 13.558594 L 2.53125 13.558594 L 2.53125 14.238281 L 0.421875 14.238281 Z M 0.421875 13.558594 "/>
<path style=" stroke:none;fill-rule:evenodd;fill:rgb(69.803923%,0%,0%);fill-opacity:1;" d="M 6.328125 13.558594 L 8.4375 13.558594 L 8.4375 14.238281 L 6.328125 14.238281 Z M 6.328125 13.558594 "/>
<path style=" stroke:none;fill-rule:evenodd;fill:rgb(69.803923%,0%,0%);fill-opacity:1;" d="M 8.433594 16.269531 L 8.855469 16.269531 L 8.855469 16.949219 L 8.433594 16.949219 Z M 8.433594 16.269531 "/>
<path style=" stroke:none;fill-rule:evenodd;fill:rgb(69.803923%,0%,0%);fill-opacity:1;" d="M 0 16.269531 L 0.421875 16.269531 L 0.421875 16.949219 L 0 16.949219 Z M 0 16.269531 "/>
<path style=" stroke:none;fill-rule:evenodd;fill:rgb(69.803923%,0%,0%);fill-opacity:1;" d="M 0.421875 39.320312 L 0.84375 39.320312 L 0.84375 38.644531 L 0.421875 38.644531 Z M 0.421875 39.320312 "/>
<path style=" stroke:none;fill-rule:evenodd;fill:rgb(69.803923%,0%,0%);fill-opacity:1;" d="M 1.6875 39.320312 L 2.953125 39.320312 L 2.953125 38.644531 L 1.6875 38.644531 Z M 1.6875 39.320312 "/>
<path style=" stroke:none;fill-rule:evenodd;fill:rgb(69.803923%,0%,0%);fill-opacity:1;" d="M 2.109375 40 L 2.53125 40 L 2.53125 39.320312 L 2.109375 39.320312 Z M 2.109375 40 "/>
<path style=" stroke:none;fill-rule:evenodd;fill:rgb(69.803923%,0%,0%);fill-opacity:1;" d="M 4.21875 40 L 4.640625 40 L 4.640625 39.320312 L 4.21875 39.320312 Z M 4.21875 40 "/>
<path style=" stroke:none;fill-rule:evenodd;fill:rgb(69.803923%,0%,0%);fill-opacity:1;" d="M 5.90625 39.320312 L 7.167969 39.320312 L 7.167969 38.644531 L 5.90625 38.644531 Z M 5.90625 39.320312 "/>
<path style=" stroke:none;fill-rule:evenodd;fill:rgb(69.803923%,0%,0%);fill-opacity:1;" d="M 6.328125 40 L 6.75 40 L 6.75 39.320312 L 6.328125 39.320312 Z M 6.328125 40 "/>
<path style=" stroke:none;fill-rule:evenodd;fill:rgb(69.803923%,0%,0%);fill-opacity:1;" d="M 1.265625 38.644531 L 2.109375 38.644531 L 2.109375 37.964844 L 1.265625 37.964844 Z M 1.265625 38.644531 "/>
<path style=" stroke:none;fill-rule:evenodd;fill:rgb(69.803923%,0%,0%);fill-opacity:1;" d="M 2.53125 38.644531 L 3.375 38.644531 L 3.375 37.964844 L 2.53125 37.964844 Z M 2.53125 38.644531 "/>
<path style=" stroke:none;fill-rule:evenodd;fill:rgb(69.803923%,0%,0%);fill-opacity:1;" d="M 5.484375 38.644531 L 6.328125 38.644531 L 6.328125 37.964844 L 5.484375 37.964844 Z M 5.484375 38.644531 "/>
<path style=" stroke:none;fill-rule:evenodd;fill:rgb(69.803923%,0%,0%);fill-opacity:1;" d="M 6.75 38.644531 L 7.59375 38.644531 L 7.59375 37.964844 L 6.75 37.964844 Z M 6.75 38.644531 "/>
<path style=" stroke:none;fill-rule:evenodd;fill:rgb(69.803923%,0%,0%);fill-opacity:1;" d="M 2.953125 37.964844 L 3.796875 37.964844 L 3.796875 37.285156 L 2.953125 37.285156 Z M 2.953125 37.964844 "/>
<path style=" stroke:none;fill-rule:evenodd;fill:rgb(69.803923%,0%,0%);fill-opacity:1;" d="M 5.0625 37.964844 L 5.90625 37.964844 L 5.90625 37.285156 L 5.0625 37.285156 Z M 5.0625 37.964844 "/>
<path style=" stroke:none;fill-rule:evenodd;fill:rgb(69.803923%,0%,0%);fill-opacity:1;" d="M 7.167969 37.964844 L 8.011719 37.964844 L 8.011719 37.285156 L 7.167969 37.285156 Z M 7.167969 37.964844 "/>
<path style=" stroke:none;fill-rule:evenodd;fill:rgb(69.803923%,0%,0%);fill-opacity:1;" d="M 8.011719 39.320312 L 8.433594 39.320312 L 8.433594 38.644531 L 8.011719 38.644531 Z M 8.011719 39.320312 "/>
<path style=" stroke:none;fill-rule:evenodd;fill:rgb(69.803923%,0%,0%);fill-opacity:1;" d="M 0.421875 37.289062 L 1.265625 37.289062 L 1.265625 36.609375 L 0.421875 36.609375 Z M 0.421875 37.289062 "/>
<path style=" stroke:none;fill-rule:evenodd;fill:rgb(69.803923%,0%,0%);fill-opacity:1;" d="M 3.375 37.289062 L 4.21875 37.289062 L 4.21875 36.609375 L 3.375 36.609375 Z M 3.375 37.289062 "/>
<path style=" stroke:none;fill-rule:evenodd;fill:rgb(69.803923%,0%,0%);fill-opacity:1;" d="M 7.59375 37.289062 L 8.4375 37.289062 L 8.4375 36.609375 L 7.59375 36.609375 Z M 7.59375 37.289062 "/>
<path style=" stroke:none;fill-rule:evenodd;fill:rgb(69.803923%,0%,0%);fill-opacity:1;" d="M 0.84375 35.253906 L 1.6875 35.253906 L 1.6875 34.574219 L 0.84375 34.574219 Z M 0.84375 35.253906 "/>
<path style=" stroke:none;fill-rule:evenodd;fill:rgb(69.803923%,0%,0%);fill-opacity:1;" d="M 1.265625 34.574219 L 2.109375 34.574219 L 2.109375 33.898438 L 1.265625 33.898438 Z M 1.265625 34.574219 "/>
<path style=" stroke:none;fill-rule:evenodd;fill:rgb(69.803923%,0%,0%);fill-opacity:1;" d="M 2.953125 35.253906 L 3.796875 35.253906 L 3.796875 34.574219 L 2.953125 34.574219 Z M 2.953125 35.253906 "/>
<path style=" stroke:none;fill-rule:evenodd;fill:rgb(69.803923%,0%,0%);fill-opacity:1;" d="M 2.53125 34.574219 L 3.375 34.574219 L 3.375 33.898438 L 2.53125 33.898438 Z M 2.53125 34.574219 "/>
<path style=" stroke:none;fill-rule:evenodd;fill:rgb(69.803923%,0%,0%);fill-opacity:1;" d="M 1.6875 33.898438 L 2.953125 33.898438 L 2.953125 33.21875 L 1.6875 33.21875 Z M 1.6875 33.898438 "/>
<path style=" stroke:none;fill-rule:evenodd;fill:rgb(69.803923%,0%,0%);fill-opacity:1;" d="M 2.109375 33.21875 L 2.53125 33.21875 L 2.53125 32.542969 L 2.109375 32.542969 Z M 2.109375 33.21875 "/>
<path style=" stroke:none;fill-rule:evenodd;fill:rgb(69.803923%,0%,0%);fill-opacity:1;" d="M 5.0625 35.253906 L 5.90625 35.253906 L 5.90625 34.574219 L 5.0625 34.574219 Z M 5.0625 35.253906 "/>
<path style=" stroke:none;fill-rule:evenodd;fill:rgb(69.803923%,0%,0%);fill-opacity:1;" d="M 5.484375 34.574219 L 6.328125 34.574219 L 6.328125 33.898438 L 5.484375 33.898438 Z M 5.484375 34.574219 "/>
<path style=" stroke:none;fill-rule:evenodd;fill:rgb(69.803923%,0%,0%);fill-opacity:1;" d="M 7.167969 35.253906 L 8.011719 35.253906 L 8.011719 34.574219 L 7.167969 34.574219 Z M 7.167969 35.253906 "/>
<path style=" stroke:none;fill-rule:evenodd;fill:rgb(69.803923%,0%,0%);fill-opacity:1;" d="M 6.75 34.574219 L 7.59375 34.574219 L 7.59375 33.898438 L 6.75 33.898438 Z M 6.75 34.574219 "/>
<path style=" stroke:none;fill-rule:evenodd;fill:rgb(69.803923%,0%,0%);fill-opacity:1;" d="M 5.90625 33.898438 L 7.167969 33.898438 L 7.167969 33.21875 L 5.90625 33.21875 Z M 5.90625 33.898438 "/>
<path style=" stroke:none;fill-rule:evenodd;fill:rgb(69.803923%,0%,0%);fill-opacity:1;" d="M 6.328125 33.21875 L 6.75 33.21875 L 6.75 32.542969 L 6.328125 32.542969 Z M 6.328125 33.21875 "/>
<path style=" stroke:none;fill-rule:evenodd;fill:rgb(69.803923%,0%,0%);fill-opacity:1;" d="M 4.21875 33.898438 L 4.640625 33.898438 L 4.640625 33.21875 L 4.21875 33.21875 Z M 4.21875 33.898438 "/>
<path style=" stroke:none;fill-rule:evenodd;fill:rgb(69.803923%,0%,0%);fill-opacity:1;" d="M 0 33.898438 L 0.421875 33.898438 L 0.421875 33.21875 L 0 33.21875 Z M 0 33.898438 "/>
<path style=" stroke:none;fill-rule:evenodd;fill:rgb(69.803923%,0%,0%);fill-opacity:1;" d="M 8.433594 33.898438 L 8.855469 33.898438 L 8.855469 33.21875 L 8.433594 33.21875 Z M 8.433594 33.898438 "/>
<path style=" stroke:none;fill-rule:evenodd;fill:rgb(69.803923%,0%,0%);fill-opacity:1;" d="M 2.109375 30.507812 L 2.53125 30.507812 L 2.53125 29.828125 L 2.109375 29.828125 Z M 2.109375 30.507812 "/>
<path style=" stroke:none;fill-rule:evenodd;fill:rgb(69.803923%,0%,0%);fill-opacity:1;" d="M 1.6875 29.828125 L 2.953125 29.828125 L 2.953125 29.152344 L 1.6875 29.152344 Z M 1.6875 29.828125 "/>
<path style=" stroke:none;fill-rule:evenodd;fill:rgb(69.803923%,0%,0%);fill-opacity:1;" d="M 1.265625 29.152344 L 3.375 29.152344 L 3.375 28.472656 L 1.265625 28.472656 Z M 1.265625 29.152344 "/>
<path style=" stroke:none;fill-rule:evenodd;fill:rgb(69.803923%,0%,0%);fill-opacity:1;" d="M 6.328125 30.507812 L 6.75 30.507812 L 6.75 29.828125 L 6.328125 29.828125 Z M 6.328125 30.507812 "/>
<path style=" stroke:none;fill-rule:evenodd;fill:rgb(69.803923%,0%,0%);fill-opacity:1;" d="M 5.90625 29.828125 L 7.167969 29.828125 L 7.167969 29.152344 L 5.90625 29.152344 Z M 5.90625 29.828125 "/>
<path style=" stroke:none;fill-rule:evenodd;fill:rgb(69.803923%,0%,0%);fill-opacity:1;" d="M 5.484375 29.152344 L 7.59375 29.152344 L 7.59375 28.472656 L 5.484375 28.472656 Z M 5.484375 29.152344 "/>
<path style=" stroke:none;fill-rule:evenodd;fill:rgb(69.803923%,0%,0%);fill-opacity:1;" d="M 5.90625 25.761719 L 8.011719 25.761719 L 8.011719 25.085938 L 5.90625 25.085938 Z M 5.90625 25.761719 "/>
<path style=" stroke:none;fill-rule:evenodd;fill:rgb(69.803923%,0%,0%);fill-opacity:1;" d="M 5.0625 28.472656 L 8.015625 28.472656 L 8.015625 27.796875 L 5.0625 27.796875 Z M 5.0625 28.472656 "/>
<path style=" stroke:none;fill-rule:evenodd;fill:rgb(69.803923%,0%,0%);fill-opacity:1;" d="M 0.84375 28.472656 L 3.796875 28.472656 L 3.796875 27.796875 L 0.84375 27.796875 Z M 0.84375 28.472656 "/>
<path style=" stroke:none;fill-rule:evenodd;fill:rgb(69.803923%,0%,0%);fill-opacity:1;" d="M 1.265625 25.085938 L 2.53125 25.085938 L 2.53125 24.40625 L 1.265625 24.40625 Z M 1.265625 25.085938 "/>
<path style=" stroke:none;fill-rule:evenodd;fill:rgb(69.803923%,0%,0%);fill-opacity:1;" d="M 0.84375 25.761719 L 2.953125 25.761719 L 2.953125 25.085938 L 0.84375 25.085938 Z M 0.84375 25.761719 "/>
<path style=" stroke:none;fill-rule:evenodd;fill:rgb(69.803923%,0%,0%);fill-opacity:1;" d="M 6.75 27.117188 L 8.855469 27.117188 L 8.855469 26.441406 L 6.75 26.441406 Z M 6.75 27.117188 "/>
<path style=" stroke:none;fill-rule:evenodd;fill:rgb(69.803923%,0%,0%);fill-opacity:1;" d="M 6.328125 25.085938 L 7.59375 25.085938 L 7.59375 24.40625 L 6.328125 24.40625 Z M 6.328125 25.085938 "/>
<path style=" stroke:none;fill-rule:evenodd;fill:rgb(69.803923%,0%,0%);fill-opacity:1;" d="M 0 27.117188 L 2.109375 27.117188 L 2.109375 26.441406 L 0 26.441406 Z M 0 27.117188 "/>
<path style=" stroke:none;fill-rule:evenodd;fill:rgb(69.803923%,0%,0%);fill-opacity:1;" d="M 3.796875 25.761719 L 5.0625 25.761719 L 5.0625 25.085938 L 3.796875 25.085938 Z M 3.796875 25.761719 "/>
<path style=" stroke:none;fill-rule:evenodd;fill:rgb(69.803923%,0%,0%);fill-opacity:1;" d="M 4.21875 25.085938 L 4.640625 25.085938 L 4.640625 24.40625 L 4.21875 24.40625 Z M 4.21875 25.085938 "/>
<path style=" stroke:none;fill-rule:evenodd;fill:rgb(69.803923%,0%,0%);fill-opacity:1;" d="M 2.953125 27.117188 L 5.90625 27.117188 L 5.90625 26.441406 L 2.953125 26.441406 Z M 2.953125 27.117188 "/>
<path style=" stroke:none;fill-rule:evenodd;fill:rgb(69.803923%,0%,0%);fill-opacity:1;" d="M 4.640625 37.289062 L 5.484375 37.289062 L 5.484375 36.609375 L 4.640625 36.609375 Z M 4.640625 37.289062 "/>
<path style=" stroke:none;fill-rule:evenodd;fill:rgb(69.803923%,0%,0%);fill-opacity:1;" d="M 3.796875 36.609375 L 5.0625 36.609375 L 5.0625 35.929688 L 3.796875 35.929688 Z M 3.796875 36.609375 "/>
<path style=" stroke:none;fill-rule:evenodd;fill:rgb(69.803923%,0%,0%);fill-opacity:1;" d="M 3.375 35.929688 L 4.21875 35.929688 L 4.21875 35.253906 L 3.375 35.253906 Z M 3.375 35.929688 "/>
<path style=" stroke:none;fill-rule:evenodd;fill:rgb(69.803923%,0%,0%);fill-opacity:1;" d="M 4.640625 35.929688 L 5.484375 35.929688 L 5.484375 35.253906 L 4.640625 35.253906 Z M 4.640625 35.929688 "/>
<path style=" stroke:none;fill-rule:evenodd;fill:rgb(69.803923%,0%,0%);fill-opacity:1;" d="M 0 36.609375 L 0.84375 36.609375 L 0.84375 35.929688 L 0 35.929688 Z M 0 36.609375 "/>
<path style=" stroke:none;fill-rule:evenodd;fill:rgb(69.803923%,0%,0%);fill-opacity:1;" d="M 0.421875 35.929688 L 1.265625 35.929688 L 1.265625 35.253906 L 0.421875 35.253906 Z M 0.421875 35.929688 "/>
<path style=" stroke:none;fill-rule:evenodd;fill:rgb(69.803923%,0%,0%);fill-opacity:1;" d="M 8.011719 36.609375 L 8.855469 36.609375 L 8.855469 35.929688 L 8.011719 35.929688 Z M 8.011719 36.609375 "/>
<path style=" stroke:none;fill-rule:evenodd;fill:rgb(69.803923%,0%,0%);fill-opacity:1;" d="M 7.59375 35.929688 L 8.4375 35.929688 L 8.4375 35.253906 L 7.59375 35.253906 Z M 7.59375 35.929688 "/>
<path style=" stroke:none;fill-rule:evenodd;fill:rgb(69.803923%,0%,0%);fill-opacity:1;" d="M 0 29.828125 L 0.421875 29.828125 L 0.421875 29.152344 L 0 29.152344 Z M 0 29.828125 "/>
<path style=" stroke:none;fill-rule:evenodd;fill:rgb(69.803923%,0%,0%);fill-opacity:1;" d="M 8.433594 29.828125 L 8.855469 29.828125 L 8.855469 29.152344 L 8.433594 29.152344 Z M 8.433594 29.828125 "/>
<path style=" stroke:none;fill-rule:evenodd;fill:rgb(69.803923%,0%,0%);fill-opacity:1;" d="M 3.375 23.726562 L 4.21875 23.726562 L 4.21875 23.050781 L 3.375 23.050781 Z M 3.375 23.726562 "/>
<path style=" stroke:none;fill-rule:evenodd;fill:rgb(69.803923%,0%,0%);fill-opacity:1;" d="M 4.640625 23.726562 L 5.484375 23.726562 L 5.484375 23.050781 L 4.640625 23.050781 Z M 4.640625 23.726562 "/>
<path style=" stroke:none;fill-rule:evenodd;fill:rgb(69.803923%,0%,0%);fill-opacity:1;" d="M 2.953125 23.050781 L 3.796875 23.050781 L 3.796875 22.371094 L 2.953125 22.371094 Z M 2.953125 23.050781 "/>
<path style=" stroke:none;fill-rule:evenodd;fill:rgb(69.803923%,0%,0%);fill-opacity:1;" d="M 5.0625 23.050781 L 5.90625 23.050781 L 5.90625 22.371094 L 5.0625 22.371094 Z M 5.0625 23.050781 "/>
<path style=" stroke:none;fill-rule:evenodd;fill:rgb(69.803923%,0%,0%);fill-opacity:1;" d="M 2.53125 22.371094 L 3.375 22.371094 L 3.375 21.695312 L 2.53125 21.695312 Z M 2.53125 22.371094 "/>
<path style=" stroke:none;fill-rule:evenodd;fill:rgb(69.803923%,0%,0%);fill-opacity:1;" d="M 5.484375 22.371094 L 6.328125 22.371094 L 6.328125 21.695312 L 5.484375 21.695312 Z M 5.484375 22.371094 "/>
<path style=" stroke:none;fill-rule:evenodd;fill:rgb(69.803923%,0%,0%);fill-opacity:1;" d="M 2.109375 21.695312 L 2.953125 21.695312 L 2.953125 21.015625 L 2.109375 21.015625 Z M 2.109375 21.695312 "/>
<path style=" stroke:none;fill-rule:evenodd;fill:rgb(69.803923%,0%,0%);fill-opacity:1;" d="M 5.90625 21.695312 L 6.746094 21.695312 L 6.746094 21.015625 L 5.90625 21.015625 Z M 5.90625 21.695312 "/>
<path style=" stroke:none;fill-rule:evenodd;fill:rgb(69.803923%,0%,0%);fill-opacity:1;" d="M 1.265625 21.015625 L 2.53125 21.015625 L 2.53125 20.339844 L 1.265625 20.339844 Z M 1.265625 21.015625 "/>
<path style=" stroke:none;fill-rule:evenodd;fill:rgb(69.803923%,0%,0%);fill-opacity:1;" d="M 6.328125 21.015625 L 7.59375 21.015625 L 7.59375 20.339844 L 6.328125 20.339844 Z M 6.328125 21.015625 "/>
<path style=" stroke:none;fill-rule:evenodd;fill:rgb(69.803923%,0%,0%);fill-opacity:1;" d="M 7.167969 21.695312 L 8.011719 21.695312 L 8.011719 21.015625 L 7.167969 21.015625 Z M 7.167969 21.695312 "/>
<path style=" stroke:none;fill-rule:evenodd;fill:rgb(69.803923%,0%,0%);fill-opacity:1;" d="M 7.59375 22.371094 L 8.4375 22.371094 L 8.4375 21.695312 L 7.59375 21.695312 Z M 7.59375 22.371094 "/>
<path style=" stroke:none;fill-rule:evenodd;fill:rgb(69.803923%,0%,0%);fill-opacity:1;" d="M 8.011719 23.050781 L 8.855469 23.050781 L 8.855469 22.371094 L 8.011719 22.371094 Z M 8.011719 23.050781 "/>
<path style=" stroke:none;fill-rule:evenodd;fill:rgb(69.803923%,0%,0%);fill-opacity:1;" d="M 0.84375 21.695312 L 1.6875 21.695312 L 1.6875 21.015625 L 0.84375 21.015625 Z M 0.84375 21.695312 "/>
<path style=" stroke:none;fill-rule:evenodd;fill:rgb(69.803923%,0%,0%);fill-opacity:1;" d="M 0.421875 22.371094 L 1.265625 22.371094 L 1.265625 21.695312 L 0.421875 21.695312 Z M 0.421875 22.371094 "/>
<path style=" stroke:none;fill-rule:evenodd;fill:rgb(69.803923%,0%,0%);fill-opacity:1;" d="M 0 23.050781 L 0.84375 23.050781 L 0.84375 22.371094 L 0 22.371094 Z M 0 23.050781 "/>
<path style=" stroke:none;fill-rule:evenodd;fill:rgb(69.803923%,0%,0%);fill-opacity:1;" d="M 1.6875 20.339844 L 2.109375 20.339844 L 2.109375 19.660156 L 1.6875 19.660156 Z M 1.6875 20.339844 "/>
<path style=" stroke:none;fill-rule:evenodd;fill:rgb(69.803923%,0%,0%);fill-opacity:1;" d="M 4.21875 22.371094 L 4.640625 22.371094 L 4.640625 21.695312 L 4.21875 21.695312 Z M 4.21875 22.371094 "/>
<path style=" stroke:none;fill-rule:evenodd;fill:rgb(69.803923%,0%,0%);fill-opacity:1;" d="M 4.21875 29.828125 L 4.640625 29.828125 L 4.640625 29.152344 L 4.21875 29.152344 Z M 4.21875 29.828125 "/>
<path style=" stroke:none;fill-rule:evenodd;fill:rgb(69.803923%,0%,0%);fill-opacity:1;" d="M 2.109375 36.609375 L 2.53125 36.609375 L 2.53125 35.929688 L 2.109375 35.929688 Z M 2.109375 36.609375 "/>
<path style=" stroke:none;fill-rule:evenodd;fill:rgb(69.803923%,0%,0%);fill-opacity:1;" d="M 6.328125 36.609375 L 6.75 36.609375 L 6.75 35.929688 L 6.328125 35.929688 Z M 6.328125 36.609375 "/>
<path style=" stroke:none;fill-rule:evenodd;fill:rgb(69.803923%,0%,0%);fill-opacity:1;" d="M 3.796875 31.863281 L 5.0625 31.863281 L 5.0625 31.1875 L 3.796875 31.1875 Z M 3.796875 31.863281 "/>
<path style=" stroke:none;fill-rule:evenodd;fill:rgb(69.803923%,0%,0%);fill-opacity:1;" d="M 2.953125 31.1875 L 4.21875 31.1875 L 4.21875 30.507812 L 2.953125 30.507812 Z M 2.953125 31.1875 "/>
<path style=" stroke:none;fill-rule:evenodd;fill:rgb(69.803923%,0%,0%);fill-opacity:1;" d="M 3.375 30.507812 L 3.796875 30.507812 L 3.796875 29.828125 L 3.375 29.828125 Z M 3.375 30.507812 "/>
<path style=" stroke:none;fill-rule:evenodd;fill:rgb(69.803923%,0%,0%);fill-opacity:1;" d="M 2.53125 31.863281 L 3.375 31.863281 L 3.375 31.1875 L 2.53125 31.1875 Z M 2.53125 31.863281 "/>
<path style=" stroke:none;fill-rule:evenodd;fill:rgb(69.803923%,0%,0%);fill-opacity:1;" d="M 2.953125 32.542969 L 4.21875 32.542969 L 4.21875 31.863281 L 2.953125 31.863281 Z M 2.953125 32.542969 "/>
<path style=" stroke:none;fill-rule:evenodd;fill:rgb(69.803923%,0%,0%);fill-opacity:1;" d="M 3.375 33.21875 L 3.796875 33.21875 L 3.796875 32.542969 L 3.375 32.542969 Z M 3.375 33.21875 "/>
<path style=" stroke:none;fill-rule:evenodd;fill:rgb(69.803923%,0%,0%);fill-opacity:1;" d="M 4.640625 32.542969 L 5.90625 32.542969 L 5.90625 31.863281 L 4.640625 31.863281 Z M 4.640625 32.542969 "/>
<path style=" stroke:none;fill-rule:evenodd;fill:rgb(69.803923%,0%,0%);fill-opacity:1;" d="M 5.0625 33.21875 L 5.484375 33.21875 L 5.484375 32.542969 L 5.0625 32.542969 Z M 5.0625 33.21875 "/>
<path style=" stroke:none;fill-rule:evenodd;fill:rgb(69.803923%,0%,0%);fill-opacity:1;" d="M 5.484375 31.863281 L 6.328125 31.863281 L 6.328125 31.1875 L 5.484375 31.1875 Z M 5.484375 31.863281 "/>
<path style=" stroke:none;fill-rule:evenodd;fill:rgb(69.803923%,0%,0%);fill-opacity:1;" d="M 4.640625 31.1875 L 5.90625 31.1875 L 5.90625 30.507812 L 4.640625 30.507812 Z M 4.640625 31.1875 "/>
<path style=" stroke:none;fill-rule:evenodd;fill:rgb(69.803923%,0%,0%);fill-opacity:1;" d="M 5.0625 30.507812 L 5.484375 30.507812 L 5.484375 29.828125 L 5.0625 29.828125 Z M 5.0625 30.507812 "/>
<path style=" stroke:none;fill-rule:evenodd;fill:rgb(69.803923%,0%,0%);fill-opacity:1;" d="M 6.75 31.863281 L 7.59375 31.863281 L 7.59375 31.1875 L 6.75 31.1875 Z M 6.75 31.863281 "/>
<path style=" stroke:none;fill-rule:evenodd;fill:rgb(69.803923%,0%,0%);fill-opacity:1;" d="M 7.167969 32.542969 L 8.433594 32.542969 L 8.433594 31.863281 L 7.167969 31.863281 Z M 7.167969 32.542969 "/>
<path style=" stroke:none;fill-rule:evenodd;fill:rgb(69.803923%,0%,0%);fill-opacity:1;" d="M 8.011719 31.863281 L 8.855469 31.863281 L 8.855469 31.1875 L 8.011719 31.1875 Z M 8.011719 31.863281 "/>
<path style=" stroke:none;fill-rule:evenodd;fill:rgb(69.803923%,0%,0%);fill-opacity:1;" d="M 7.167969 31.1875 L 8.433594 31.1875 L 8.433594 30.507812 L 7.167969 30.507812 Z M 7.167969 31.1875 "/>
<path style=" stroke:none;fill-rule:evenodd;fill:rgb(69.803923%,0%,0%);fill-opacity:1;" d="M 7.59375 30.507812 L 8.015625 30.507812 L 8.015625 29.828125 L 7.59375 29.828125 Z M 7.59375 30.507812 "/>
<path style=" stroke:none;fill-rule:evenodd;fill:rgb(69.803923%,0%,0%);fill-opacity:1;" d="M 7.59375 33.21875 L 8.015625 33.21875 L 8.015625 32.542969 L 7.59375 32.542969 Z M 7.59375 33.21875 "/>
<path style=" stroke:none;fill-rule:evenodd;fill:rgb(69.803923%,0%,0%);fill-opacity:1;" d="M 0 31.863281 L 0.84375 31.863281 L 0.84375 31.1875 L 0 31.1875 Z M 0 31.863281 "/>
<path style=" stroke:none;fill-rule:evenodd;fill:rgb(69.803923%,0%,0%);fill-opacity:1;" d="M 0.421875 32.542969 L 1.6875 32.542969 L 1.6875 31.863281 L 0.421875 31.863281 Z M 0.421875 32.542969 "/>
<path style=" stroke:none;fill-rule:evenodd;fill:rgb(69.803923%,0%,0%);fill-opacity:1;" d="M 1.265625 31.863281 L 2.109375 31.863281 L 2.109375 31.1875 L 1.265625 31.1875 Z M 1.265625 31.863281 "/>
<path style=" stroke:none;fill-rule:evenodd;fill:rgb(69.803923%,0%,0%);fill-opacity:1;" d="M 0.421875 31.1875 L 1.6875 31.1875 L 1.6875 30.507812 L 0.421875 30.507812 Z M 0.421875 31.1875 "/>
<path style=" stroke:none;fill-rule:evenodd;fill:rgb(69.803923%,0%,0%);fill-opacity:1;" d="M 0.84375 30.507812 L 1.265625 30.507812 L 1.265625 29.828125 L 0.84375 29.828125 Z M 0.84375 30.507812 "/>
<path style=" stroke:none;fill-rule:evenodd;fill:rgb(69.803923%,0%,0%);fill-opacity:1;" d="M 0.84375 33.21875 L 1.265625 33.21875 L 1.265625 32.542969 L 0.84375 32.542969 Z M 0.84375 33.21875 "/>
<path style=" stroke:none;fill-rule:evenodd;fill:rgb(69.803923%,0%,0%);fill-opacity:1;" d="M 0.421875 27.796875 L 2.109375 27.796875 L 2.109375 27.117188 L 0.421875 27.117188 Z M 0.421875 27.796875 "/>
<path style=" stroke:none;fill-rule:evenodd;fill:rgb(69.803923%,0%,0%);fill-opacity:1;" d="M 2.53125 27.796875 L 4.21875 27.796875 L 4.21875 27.117188 L 2.53125 27.117188 Z M 2.53125 27.796875 "/>
<path style=" stroke:none;fill-rule:evenodd;fill:rgb(69.803923%,0%,0%);fill-opacity:1;" d="M 4.640625 27.796875 L 6.324219 27.796875 L 6.324219 27.117188 L 4.640625 27.117188 Z M 4.640625 27.796875 "/>
<path style=" stroke:none;fill-rule:evenodd;fill:rgb(69.803923%,0%,0%);fill-opacity:1;" d="M 6.75 27.796875 L 8.433594 27.796875 L 8.433594 27.117188 L 6.75 27.117188 Z M 6.75 27.796875 "/>
<path style=" stroke:none;fill-rule:evenodd;fill:rgb(69.803923%,0%,0%);fill-opacity:1;" d="M 3.375 26.441406 L 5.484375 26.441406 L 5.484375 25.761719 L 3.375 25.761719 Z M 3.375 26.441406 "/>
<path style=" stroke:none;fill-rule:evenodd;fill:rgb(69.803923%,0%,0%);fill-opacity:1;" d="M 0.421875 26.441406 L 2.53125 26.441406 L 2.53125 25.761719 L 0.421875 25.761719 Z M 0.421875 26.441406 "/>
<path style=" stroke:none;fill-rule:evenodd;fill:rgb(69.803923%,0%,0%);fill-opacity:1;" d="M 6.328125 26.441406 L 8.4375 26.441406 L 8.4375 25.761719 L 6.328125 25.761719 Z M 6.328125 26.441406 "/>
<path style=" stroke:none;fill-rule:evenodd;fill:rgb(69.803923%,0%,0%);fill-opacity:1;" d="M 8.433594 23.726562 L 8.855469 23.726562 L 8.855469 23.050781 L 8.433594 23.050781 Z M 8.433594 23.726562 "/>
<path style=" stroke:none;fill-rule:evenodd;fill:rgb(69.803923%,0%,0%);fill-opacity:1;" d="M 0 23.726562 L 0.421875 23.726562 L 0.421875 23.050781 L 0 23.050781 Z M 0 23.726562 "/>
<path style=" stroke:none;fill-rule:evenodd;fill:rgb(69.803923%,0%,0%);fill-opacity:1;" d="M 3.796875 20.339844 L 4.21875 20.339844 L 4.21875 21.015625 L 3.796875 21.015625 Z M 3.796875 20.339844 "/>
<path style=" stroke:none;fill-rule:evenodd;fill:rgb(69.803923%,0%,0%);fill-opacity:1;" d="M 4.640625 20.339844 L 5.0625 20.339844 L 5.0625 21.015625 L 4.640625 21.015625 Z M 4.640625 20.339844 "/>
<path style=" stroke:none;fill-rule:evenodd;fill:rgb(69.803923%,0%,0%);fill-opacity:1;" d="M 4.640625 18.980469 L 5.0625 18.980469 L 5.0625 19.660156 L 4.640625 19.660156 Z M 4.640625 18.980469 "/>
<path style=" stroke:none;fill-rule:evenodd;fill:rgb(69.803923%,0%,0%);fill-opacity:1;" d="M 3.796875 18.980469 L 4.21875 18.980469 L 4.21875 19.660156 L 3.796875 19.660156 Z M 3.796875 18.980469 "/>
<path style=" stroke:none;fill-rule:evenodd;fill:rgb(69.803923%,0%,0%);fill-opacity:1;" d="M 0.84375 37.289062 L 1.6875 37.289062 L 1.6875 37.964844 L 0.84375 37.964844 Z M 0.84375 37.289062 "/>
<path style=" stroke:none;fill-rule:evenodd;fill:rgb(69.803923%,0%,0%);fill-opacity:1;" d="M 6.75 24.40625 L 7.171875 24.40625 L 7.171875 23.726562 L 6.75 23.726562 Z M 6.75 24.40625 "/>
<path style=" stroke:none;fill-rule:evenodd;fill:rgb(69.803923%,0%,0%);fill-opacity:1;" d="M 1.6875 24.40625 L 2.109375 24.40625 L 2.109375 23.726562 L 1.6875 23.726562 Z M 1.6875 24.40625 "/>
<path style=" stroke:none;fill-rule:evenodd;fill:rgb(69.803923%,0%,0%);fill-opacity:1;" d="M 3.796875 23.726562 L 5.0625 23.726562 L 5.0625 24.40625 L 3.796875 24.40625 Z M 3.796875 23.726562 "/>
</g>
</svg>
