<?xml version="1.0" encoding="UTF-8"?>
<svg xmlns="http://www.w3.org/2000/svg" xmlns:xlink="http://www.w3.org/1999/xlink" width="40px" height="40px" viewBox="0 0 40 40" version="1.1">
<g id="surface1">
<path style=" stroke:none;fill-rule:nonzero;fill:rgb(100%,100%,100%);fill-opacity:1;" d="M 6.339844 0 L 34.640625 0 L 34.640625 40 L 6.339844 40 Z M 6.339844 0 "/>
<path style=" stroke:none;fill-rule:nonzero;fill:rgb(74.901962%,3.921569%,18.82353%);fill-opacity:1;" d="M -7.8125 0 L 6.339844 0 L 6.339844 40 L -7.8125 40 Z M -7.8125 0 "/>
<path style=" stroke:none;fill-rule:nonzero;fill:rgb(74.901962%,3.921569%,18.82353%);fill-opacity:1;" d="M 34.640625 0 L 48.792969 0 L 48.792969 40 L 34.640625 40 Z M 34.640625 0 "/>
<path style=" stroke:none;fill-rule:nonzero;fill:rgb(74.901962%,3.921569%,18.82353%);fill-opacity:1;" d="M 10.570312 19.328125 L 9.472656 19.703125 L 14.585938 24.191406 C 14.972656 25.347656 14.453125 25.6875 14.121094 26.292969 L 19.671875 25.585938 L 19.527344 31.171875 L 20.675781 31.140625 L 20.425781 25.601562 L 25.984375 26.257812 C 25.636719 25.53125 25.332031 25.148438 25.652344 23.984375 L 30.761719 19.734375 L 29.867188 19.410156 C 29.136719 18.84375 30.183594 16.691406 30.339844 15.332031 C 30.339844 15.332031 27.355469 16.359375 27.160156 15.824219 L 26.402344 14.363281 L 23.6875 17.34375 C 23.390625 17.417969 23.261719 17.296875 23.195312 17.046875 L 24.449219 10.816406 L 22.460938 11.933594 C 22.296875 12.003906 22.128906 11.941406 22.019531 11.75 L 20.109375 7.914062 L 18.140625 11.894531 C 17.992188 12.039062 17.84375 12.054688 17.71875 11.957031 L 15.828125 10.898438 L 16.964844 17.078125 C 16.875 17.324219 16.660156 17.394531 16.402344 17.261719 L 13.808594 14.3125 C 13.46875 14.855469 13.238281 15.746094 12.789062 15.945312 C 12.34375 16.132812 10.839844 15.566406 9.832031 15.347656 C 10.175781 16.589844 11.25 18.652344 10.570312 19.328125 Z M 10.570312 19.328125 "/>
</g>
</svg>
