<?xml version="1.0" encoding="UTF-8"?>
<svg xmlns="http://www.w3.org/2000/svg" xmlns:xlink="http://www.w3.org/1999/xlink" width="40px" height="40px" viewBox="0 0 40 40" version="1.1">
<g id="surface1">
<rect x="0" y="0" width="40" height="40" style="fill:rgb(0%,0%,40.000001%);fill-opacity:1;stroke:none;"/>
<path style=" stroke:none;fill-rule:nonzero;fill:rgb(100%,100%,100%);fill-opacity:1;" d="M 0 0 L 0 2.183594 L 23.988281 19.53125 L 27.007812 19.53125 L 27.007812 17.347656 L 3.019531 0 Z M 27.007812 0 L 27.007812 2.183594 L 3.019531 19.53125 L 0 19.53125 L 0 17.347656 L 23.988281 0 Z M 27.007812 0 "/>
<path style=" stroke:none;fill-rule:nonzero;fill:rgb(100%,100%,100%);fill-opacity:1;" d="M 11.253906 0 L 11.253906 19.53125 L 15.753906 19.53125 L 15.753906 0 Z M 0 6.511719 L 0 13.019531 L 27.007812 13.019531 L 27.007812 6.511719 Z M 0 6.511719 "/>
<path style=" stroke:none;fill-rule:nonzero;fill:rgb(80.000001%,0%,0%);fill-opacity:1;" d="M 0 7.8125 L 0 11.71875 L 27.007812 11.71875 L 27.007812 7.8125 Z M 12.152344 0 L 12.152344 19.53125 L 14.855469 19.53125 L 14.855469 0 Z M 12.152344 0 "/>
<path style=" stroke:none;fill-rule:nonzero;fill:rgb(80.000001%,0%,0%);fill-opacity:1;" d="M 0 19.53125 L 9.003906 13.019531 L 11.015625 13.019531 L 2.011719 19.53125 Z M 0 0 L 9.003906 6.511719 L 6.988281 6.511719 L 0 1.457031 Z M 15.992188 6.511719 L 24.992188 0 L 27.007812 0 L 18.003906 6.511719 Z M 27.007812 19.53125 L 18.003906 13.019531 L 20.015625 13.019531 L 27.007812 18.074219 Z M 27.007812 19.53125 "/>
<path style=" stroke:none;fill-rule:evenodd;fill:rgb(100%,100%,100%);fill-opacity:1;" d="M 4.289062 28.800781 L 7.464844 30.003906 L 8.503906 26.769531 L 9.546875 30.003906 L 12.722656 28.800781 L 10.84375 31.628906 L 13.765625 33.363281 L 10.378906 33.660156 L 10.847656 37.023438 L 8.503906 34.5625 L 6.164062 37.023438 L 6.632812 33.660156 L 3.246094 33.363281 L 6.167969 31.628906 Z M 4.289062 28.800781 "/>
<path style=" stroke:none;fill-rule:evenodd;fill:rgb(100%,100%,100%);fill-opacity:1;" d="M 31.546875 37.21875 L 30.078125 37.347656 L 30.28125 38.808594 L 29.261719 37.738281 L 28.246094 38.808594 L 28.449219 37.347656 L 26.976562 37.21875 L 28.246094 36.464844 L 27.429688 35.238281 L 28.8125 35.757812 L 29.261719 34.355469 L 29.714844 35.757812 L 31.09375 35.238281 L 30.277344 36.464844 Z M 31.546875 37.21875 "/>
<path style=" stroke:none;fill-rule:evenodd;fill:rgb(100%,100%,100%);fill-opacity:1;" d="M 31.546875 15.34375 L 30.078125 15.472656 L 30.28125 16.933594 L 29.261719 15.863281 L 28.246094 16.933594 L 28.449219 15.472656 L 26.976562 15.34375 L 28.246094 14.589844 L 27.429688 13.363281 L 28.8125 13.886719 L 29.261719 12.480469 L 29.714844 13.886719 L 31.09375 13.363281 L 30.277344 14.589844 Z M 31.546875 15.34375 "/>
<path style=" stroke:none;fill-rule:evenodd;fill:rgb(100%,100%,100%);fill-opacity:1;" d="M 23.34375 24.230469 L 21.875 24.359375 L 22.078125 25.820312 L 21.058594 24.75 L 20.042969 25.820312 L 20.246094 24.359375 L 18.773438 24.230469 L 20.042969 23.476562 L 19.226562 22.25 L 20.609375 22.773438 L 21.058594 21.367188 L 21.511719 22.773438 L 22.890625 22.25 L 22.074219 23.476562 Z M 23.34375 24.230469 "/>
<path style=" stroke:none;fill-rule:evenodd;fill:rgb(100%,100%,100%);fill-opacity:1;" d="M 38.839844 22.042969 L 37.367188 22.171875 L 37.570312 23.632812 L 36.550781 22.5625 L 35.535156 23.632812 L 35.738281 22.171875 L 34.269531 22.042969 L 35.539062 21.289062 L 34.722656 20.0625 L 36.105469 20.585938 L 36.550781 19.179688 L 37.007812 20.585938 L 38.382812 20.0625 L 37.570312 21.289062 Z M 38.839844 22.042969 "/>
<path style=" stroke:none;fill-rule:evenodd;fill:rgb(100%,100%,100%);fill-opacity:1;" d="M 32.542969 27.734375 L 31.738281 28.234375 L 31.964844 27.316406 L 31.242188 26.707031 L 32.1875 26.636719 L 32.542969 25.761719 L 32.902344 26.636719 L 33.84375 26.707031 L 33.121094 27.316406 L 33.347656 28.234375 Z M 32.542969 27.734375 "/>
</g>
</svg>
