<?xml version="1.0" encoding="UTF-8"?>
<svg xmlns="http://www.w3.org/2000/svg" xmlns:xlink="http://www.w3.org/1999/xlink" width="40px" height="40px" viewBox="0 0 40 40" version="1.1">
<g id="surface1">
<path style=" stroke:none;fill-rule:evenodd;fill:rgb(0%,0%,100%);fill-opacity:1;" d="M -4.0625 -0.0390625 L 55.9375 -0.0390625 L 55.9375 9.882812 L -4.0625 9.882812 Z M -4.0625 -0.0390625 "/>
<path style=" stroke:none;fill-rule:evenodd;fill:rgb(100%,100%,0%);fill-opacity:1;" d="M -4.0625 29.960938 L 55.9375 29.960938 L 55.9375 40 L -4.0625 40 Z M -4.0625 29.960938 "/>
<path style=" stroke:none;fill-rule:evenodd;fill:rgb(0%,60.392159%,0%);fill-opacity:1;" d="M -4.0625 19.921875 L 55.9375 19.921875 L 55.9375 29.960938 L -4.0625 29.960938 Z M -4.0625 19.921875 "/>
<path style=" stroke:none;fill-rule:evenodd;fill:rgb(100%,100%,100%);fill-opacity:1;" d="M -4.0625 9.882812 L 55.9375 9.882812 L 55.9375 19.921875 L -4.0625 19.921875 Z M -4.0625 9.882812 "/>
<path style=" stroke:none;fill-rule:evenodd;fill:rgb(100%,0%,0%);fill-opacity:1;" d="M 20.9375 0 L 30.9375 0 L 30.9375 40 L 20.9375 40 Z M 20.9375 0 "/>
<path style=" stroke:none;fill-rule:evenodd;fill:rgb(100%,100%,0%);fill-opacity:1;" d="M 8.554688 8.773438 L 5.933594 6.960938 L 3.320312 8.792969 L 4.226562 5.730469 L 1.6875 3.800781 L 4.871094 3.71875 L 5.910156 0.699219 L 6.96875 3.710938 L 10.15625 3.773438 L 7.628906 5.714844 Z M 8.554688 8.773438 "/>
</g>
</svg>
