<?xml version="1.0" encoding="UTF-8"?>
<svg xmlns="http://www.w3.org/2000/svg" xmlns:xlink="http://www.w3.org/1999/xlink" width="40px" height="40px" viewBox="0 0 40 40" version="1.1">
<g id="surface1">
<rect x="0" y="0" width="40" height="40" style="fill:rgb(0%,0%,40.000001%);fill-opacity:1;stroke:none;"/>
<path style=" stroke:none;fill-rule:nonzero;fill:rgb(100%,100%,100%);fill-opacity:1;" d="M 0 0 L 0 1.597656 L 25.398438 14.296875 L 28.59375 14.296875 L 28.59375 12.699219 L 3.195312 0 Z M 28.59375 0 L 28.59375 1.597656 L 3.195312 14.296875 L 0 14.296875 L 0 12.699219 L 25.398438 0 Z M 28.59375 0 "/>
<path style=" stroke:none;fill-rule:nonzero;fill:rgb(100%,100%,100%);fill-opacity:1;" d="M 11.914062 0 L 11.914062 14.296875 L 16.679688 14.296875 L 16.679688 0 Z M 0 4.765625 L 0 9.53125 L 28.59375 9.53125 L 28.59375 4.765625 Z M 0 4.765625 "/>
<path style=" stroke:none;fill-rule:nonzero;fill:rgb(80.000001%,0%,0%);fill-opacity:1;" d="M 0 5.71875 L 0 8.578125 L 28.59375 8.578125 L 28.59375 5.71875 Z M 12.867188 0 L 12.867188 14.296875 L 15.726562 14.296875 L 15.726562 0 Z M 12.867188 0 "/>
<path style=" stroke:none;fill-rule:nonzero;fill:rgb(80.000001%,0%,0%);fill-opacity:1;" d="M 0 14.296875 L 9.53125 9.53125 L 11.664062 9.53125 L 2.132812 14.296875 Z M 0 0 L 9.53125 4.765625 L 7.398438 4.765625 L 0 1.066406 Z M 16.929688 4.765625 L 26.460938 0 L 28.59375 0 L 19.0625 4.765625 Z M 28.59375 14.296875 L 19.0625 9.53125 L 21.195312 9.53125 L 28.59375 13.230469 Z M 28.59375 14.296875 "/>
<path style=" stroke:none;fill-rule:evenodd;fill:rgb(100%,100%,100%);fill-opacity:1;" d="M 26.3125 19.539062 L 26.761719 18.109375 L 25.558594 17.195312 L 27.074219 17.175781 L 27.578125 15.765625 L 28.066406 17.183594 L 29.582031 17.226562 L 28.371094 18.121094 L 28.800781 19.558594 L 27.5625 18.691406 Z M 26.3125 19.539062 "/>
<path style=" stroke:none;fill-rule:evenodd;fill:rgb(100%,100%,100%);fill-opacity:1;" d="M 29.882812 19.820312 L 30.777344 18.625 L 29.945312 17.355469 L 31.378906 17.851562 L 32.320312 16.695312 L 32.3125 18.199219 L 33.726562 18.753906 L 32.289062 19.183594 L 32.21875 20.683594 L 31.339844 19.449219 Z M 29.882812 19.820312 "/>
<path style=" stroke:none;fill-rule:evenodd;fill:rgb(100%,100%,100%);fill-opacity:1;" d="M 22.898438 20.734375 L 22.835938 19.234375 L 21.398438 18.789062 L 22.820312 18.25 L 22.820312 16.75 L 23.757812 17.914062 L 25.195312 17.429688 L 24.355469 18.691406 L 25.242188 19.894531 L 23.789062 19.507812 Z M 22.898438 20.734375 "/>
<path style=" stroke:none;fill-rule:evenodd;fill:rgb(100%,100%,100%);fill-opacity:1;" d="M 20.382812 23.011719 L 19.753906 21.65625 L 18.257812 21.8125 L 19.359375 20.753906 L 18.785156 19.371094 L 20.09375 20.074219 L 21.234375 19.0625 L 20.941406 20.554688 L 22.21875 21.3125 L 20.730469 21.53125 Z M 20.382812 23.011719 "/>
<path style=" stroke:none;fill-rule:evenodd;fill:rgb(100%,100%,100%);fill-opacity:1;" d="M 19.234375 26.300781 L 18.089844 25.347656 L 16.808594 26.140625 L 17.355469 24.707031 L 16.25 23.707031 L 17.730469 23.773438 L 18.335938 22.363281 L 18.703125 23.835938 L 20.175781 23.964844 L 18.925781 24.8125 Z M 19.234375 26.300781 "/>
<path style=" stroke:none;fill-rule:evenodd;fill:rgb(100%,100%,100%);fill-opacity:1;" d="M 19.207031 29.996094 L 17.785156 29.582031 L 16.917969 30.824219 L 16.855469 29.289062 L 15.453125 28.816406 L 16.835938 28.28125 L 16.835938 26.742188 L 17.75 27.949219 L 19.15625 27.472656 L 18.335938 28.753906 Z M 19.207031 29.996094 "/>
<path style=" stroke:none;fill-rule:evenodd;fill:rgb(100%,100%,100%);fill-opacity:1;" d="M 20.871094 33.117188 L 19.40625 33.320312 L 19.109375 34.816406 L 18.441406 33.433594 L 16.96875 33.578125 L 18.019531 32.519531 L 17.40625 31.113281 L 18.722656 31.839844 L 19.820312 30.828125 L 19.582031 32.335938 Z M 20.871094 33.117188 "/>
<path style=" stroke:none;fill-rule:evenodd;fill:rgb(100%,100%,100%);fill-opacity:1;" d="M 23.445312 35.589844 L 22.140625 36.296875 L 22.371094 37.804688 L 21.273438 36.742188 L 19.941406 37.390625 L 20.566406 36.03125 L 19.515625 34.925781 L 20.996094 35.148438 L 21.679688 33.8125 L 21.96875 35.3125 Z M 23.445312 35.589844 "/>
<path style=" stroke:none;fill-rule:evenodd;fill:rgb(100%,100%,100%);fill-opacity:1;" d="M 26.589844 36.082031 L 25.875 37.394531 L 26.878906 38.527344 L 25.390625 38.25 L 24.625 39.53125 L 24.417969 38.042969 L 22.9375 37.703125 L 24.300781 37.066406 L 24.152344 35.570312 L 25.203125 36.664062 Z M 26.589844 36.082031 "/>
<path style=" stroke:none;fill-rule:evenodd;fill:rgb(100%,100%,100%);fill-opacity:1;" d="M 30.117188 35.539062 L 30.074219 37.035156 L 31.476562 37.582031 L 30.023438 38.019531 L 29.917969 39.515625 L 29.066406 38.289062 L 27.597656 38.667969 L 28.523438 37.472656 L 27.722656 36.207031 L 29.144531 36.699219 Z M 30.117188 35.539062 "/>
<path style=" stroke:none;fill-rule:evenodd;fill:rgb(100%,100%,100%);fill-opacity:1;" d="M 33.816406 19.261719 L 34.84375 20.34375 L 36.210938 19.707031 L 35.5 21.066406 L 36.480469 22.191406 L 35.019531 21.949219 L 34.257812 23.277344 L 34.0625 21.769531 L 32.613281 21.46875 L 33.953125 20.777344 Z M 33.816406 19.261719 "/>
<path style=" stroke:none;fill-rule:evenodd;fill:rgb(100%,100%,100%);fill-opacity:1;" d="M 36.886719 22.589844 L 37.351562 24.011719 L 38.855469 24.039062 L 37.636719 24.953125 L 38.042969 26.394531 L 36.828125 25.539062 L 35.578125 26.40625 L 36.042969 24.960938 L 34.859375 24.050781 L 36.363281 24.015625 Z M 36.886719 22.589844 "/>
<path style=" stroke:none;fill-rule:evenodd;fill:rgb(100%,100%,100%);fill-opacity:1;" d="M 38.039062 26.867188 L 37.867188 28.355469 L 39.21875 29.023438 L 37.734375 29.332031 L 37.5 30.8125 L 36.757812 29.515625 L 35.261719 29.761719 L 36.285156 28.652344 L 35.59375 27.324219 L 36.972656 27.933594 Z M 38.039062 26.867188 "/>
<path style=" stroke:none;fill-rule:evenodd;fill:rgb(100%,100%,100%);fill-opacity:1;" d="M 37.226562 31.351562 L 36.5625 32.6875 L 37.605469 33.785156 L 36.105469 33.558594 L 35.382812 34.867188 L 35.125 33.390625 L 33.636719 33.101562 L 34.972656 32.414062 L 34.777344 30.925781 L 35.863281 31.980469 Z M 37.226562 31.351562 "/>
<path style=" stroke:none;fill-rule:evenodd;fill:rgb(100%,100%,100%);fill-opacity:1;" d="M 35.015625 35.339844 L 33.757812 36.125 L 34.078125 37.613281 L 32.917969 36.625 L 31.628906 37.355469 L 32.171875 35.957031 L 31.050781 34.921875 L 32.546875 35.046875 L 33.144531 33.675781 L 33.527344 35.152344 Z M 35.015625 35.339844 "/>
</g>
</svg>
