<?xml version="1.0" encoding="UTF-8"?>
<svg xmlns="http://www.w3.org/2000/svg" xmlns:xlink="http://www.w3.org/1999/xlink" width="40px" height="40px" viewBox="0 0 40 40" version="1.1">
<g id="surface1">
<rect x="0" y="0" width="40" height="40" style="fill:rgb(87.058824%,16.078432%,6.27451%);fill-opacity:1;stroke:none;"/>
<path style=" stroke:none;fill-rule:nonzero;fill:rgb(100%,87.058824%,0%);fill-opacity:1;" d="M 15.707031 8.144531 L 6.472656 14.855469 L 10 4 L 13.527344 14.855469 L 4.292969 8.144531 Z M 15.707031 8.144531 "/>
<path style=" stroke:none;fill-rule:nonzero;fill:rgb(100%,87.058824%,0%);fill-opacity:1;" d="M 18.492188 2.6875 L 21.992188 4.175781 L 18.285156 5.027344 L 20.78125 2.160156 L 20.449219 5.949219 Z M 18.492188 2.6875 "/>
<path style=" stroke:none;fill-rule:nonzero;fill:rgb(100%,87.058824%,0%);fill-opacity:1;" d="M 23.121094 6.203125 L 25.769531 8.933594 L 22.019531 8.28125 L 25.433594 6.605469 L 23.65625 9.96875 Z M 23.121094 6.203125 "/>
<path style=" stroke:none;fill-rule:nonzero;fill:rgb(100%,87.058824%,0%);fill-opacity:1;" d="M 23.929688 12 L 25.234375 15.574219 L 22.078125 13.449219 L 25.878906 13.3125 L 22.882812 15.660156 Z M 23.929688 12 "/>
<path style=" stroke:none;fill-rule:nonzero;fill:rgb(100%,87.058824%,0%);fill-opacity:1;" d="M 20.707031 16.128906 L 20.527344 19.929688 L 18.4375 16.75 L 21.996094 18.09375 L 18.328125 19.097656 Z M 20.707031 16.128906 "/>
</g>
</svg>
