<?xml version="1.0" encoding="UTF-8"?>
<svg xmlns="http://www.w3.org/2000/svg" xmlns:xlink="http://www.w3.org/1999/xlink" width="40px" height="40px" viewBox="0 0 40 40" version="1.1">
<g id="surface1">
<path style=" stroke:none;fill-rule:evenodd;fill:rgb(100%,100%,100%);fill-opacity:1;" d="M -9.644531 18.207031 L 56.492188 18.207031 L 56.492188 34.296875 L -9.644531 34.296875 Z M -9.644531 18.207031 "/>
<path style=" stroke:none;fill-rule:evenodd;fill:rgb(3.137255%,9.411765%,45.09804%);fill-opacity:1;" d="M -9.589844 0 L 56.5 0 L 56.5 20.050781 L -9.589844 20.050781 Z M -9.589844 0 "/>
<path style=" stroke:none;fill-rule:evenodd;fill:rgb(3.137255%,9.411765%,45.09804%);fill-opacity:1;" d="M -9.570312 30.144531 L 57 30.144531 L 57 40 L -9.570312 40 Z M -9.570312 30.144531 "/>
<path style=" stroke:none;fill-rule:evenodd;fill:rgb(87.058824%,22.352941%,16.078432%);fill-opacity:1;" d="M -9.570312 23.636719 L 56.519531 23.636719 L 56.519531 26.734375 L -9.570312 26.734375 Z M -9.570312 23.636719 "/>
<path style=" stroke:none;fill-rule:evenodd;fill:rgb(100%,80.784315%,3.137255%);fill-opacity:1;" d="M 10.226562 31.183594 L 10.746094 32.785156 L 12.429688 32.785156 L 11.070312 33.773438 L 11.589844 35.371094 L 10.226562 34.382812 L 8.867188 35.371094 L 9.386719 33.773438 L 8.027344 32.785156 L 9.707031 32.785156 Z M 10.226562 31.183594 "/>
<path style=" stroke:none;fill-rule:evenodd;fill:rgb(100%,80.784315%,3.137255%);fill-opacity:1;" d="M 24.757812 19.570312 L 25.277344 21.167969 L 26.960938 21.167969 L 25.597656 22.15625 L 26.117188 23.757812 L 24.757812 22.769531 L 23.398438 23.757812 L 23.917969 22.15625 L 22.558594 21.167969 L 24.238281 21.167969 Z M 24.757812 19.570312 "/>
<path style=" stroke:none;fill-rule:evenodd;fill:rgb(100%,80.784315%,3.137255%);fill-opacity:1;" d="M 6.894531 26.207031 L 7.414062 27.804688 L 9.097656 27.804688 L 7.738281 28.792969 L 8.257812 30.394531 L 6.894531 29.40625 L 5.535156 30.394531 L 6.054688 28.792969 L 4.695312 27.804688 L 6.375 27.804688 Z M 6.894531 26.207031 "/>
<path style=" stroke:none;fill-rule:evenodd;fill:rgb(100%,80.784315%,3.137255%);fill-opacity:1;" d="M 24.757812 25.738281 L 25.277344 27.339844 L 26.960938 27.339844 L 25.597656 28.328125 L 26.117188 29.925781 L 24.757812 28.9375 L 23.398438 29.925781 L 23.917969 28.328125 L 22.558594 27.339844 L 24.238281 27.339844 Z M 24.757812 25.738281 "/>
<path style=" stroke:none;fill-rule:evenodd;fill:rgb(100%,80.784315%,3.137255%);fill-opacity:1;" d="M 21.078125 14.703125 L 21.597656 16.300781 L 23.28125 16.300781 L 21.921875 17.289062 L 22.441406 18.886719 L 21.078125 17.898438 L 19.71875 18.886719 L 20.238281 17.289062 L 18.878906 16.300781 L 20.558594 16.300781 Z M 21.078125 14.703125 "/>
<path style=" stroke:none;fill-rule:evenodd;fill:rgb(100%,80.784315%,3.137255%);fill-opacity:1;" d="M 15.527344 12.769531 L 16.046875 14.367188 L 17.726562 14.367188 L 16.367188 15.355469 L 16.886719 16.953125 L 15.527344 15.964844 L 14.167969 16.953125 L 14.6875 15.355469 L 13.324219 14.367188 L 15.007812 14.367188 Z M 15.527344 12.769531 "/>
<path style=" stroke:none;fill-rule:evenodd;fill:rgb(100%,80.784315%,3.137255%);fill-opacity:1;" d="M 9.972656 14.59375 L 10.492188 16.191406 L 12.171875 16.191406 L 10.8125 17.179688 L 11.332031 18.777344 L 9.972656 17.789062 L 8.613281 18.777344 L 9.132812 17.179688 L 7.773438 16.191406 L 9.453125 16.191406 Z M 9.972656 14.59375 "/>
<path style=" stroke:none;fill-rule:evenodd;fill:rgb(100%,80.784315%,3.137255%);fill-opacity:1;" d="M 6.734375 19.570312 L 7.253906 21.167969 L 8.933594 21.167969 L 7.574219 22.15625 L 8.09375 23.757812 L 6.734375 22.769531 L 5.371094 23.757812 L 5.890625 22.15625 L 4.53125 21.167969 L 6.214844 21.167969 Z M 6.734375 19.570312 "/>
<path style=" stroke:none;fill-rule:evenodd;fill:rgb(100%,80.784315%,3.137255%);fill-opacity:1;" d="M 15.527344 32.84375 L 16.046875 34.445312 L 17.726562 34.445312 L 16.367188 35.433594 L 16.886719 37.03125 L 15.527344 36.042969 L 14.167969 37.03125 L 14.6875 35.433594 L 13.324219 34.445312 L 15.007812 34.445312 Z M 15.527344 32.84375 "/>
<path style=" stroke:none;fill-rule:evenodd;fill:rgb(100%,80.784315%,3.137255%);fill-opacity:1;" d="M 21.425781 31.183594 L 21.945312 32.785156 L 23.628906 32.785156 L 22.265625 33.773438 L 22.785156 35.371094 L 21.425781 34.382812 L 20.066406 35.371094 L 20.585938 33.773438 L 19.226562 32.785156 L 20.90625 32.785156 Z M 21.425781 31.183594 "/>
</g>
</svg>
