<?xml version="1.0" encoding="UTF-8"?>
<svg xmlns="http://www.w3.org/2000/svg" xmlns:xlink="http://www.w3.org/1999/xlink" width="40px" height="40px" viewBox="0 0 40 40" version="1.1">
<g id="surface1">
<rect x="0" y="0" width="40" height="40" style="fill:rgb(0%,16.862746%,49.803922%);fill-opacity:1;stroke:none;"/>
<path style=" stroke:none;fill-rule:nonzero;fill:rgb(97.647059%,90.980393%,7.843138%);fill-opacity:1;" d="M 0 25 L 60 25 L 60 30 L 0 30 Z M 0 25 "/>
<path style=" stroke:none;fill-rule:nonzero;fill:rgb(100%,100%,100%);fill-opacity:1;" d="M 6.667969 3.332031 L 7.414062 5.636719 L 9.835938 5.636719 L 7.878906 7.058594 L 8.625 9.363281 L 6.667969 7.941406 L 4.707031 9.363281 L 5.457031 7.058594 L 3.496094 5.636719 L 5.917969 5.636719 Z M 6.667969 3.332031 "/>
<path style=" stroke:none;fill-rule:nonzero;fill:rgb(100%,100%,100%);fill-opacity:1;" d="M 13.332031 8.890625 L 14.332031 11.960938 L 17.558594 11.960938 L 14.949219 13.859375 L 15.945312 16.929688 L 13.332031 15.03125 L 10.722656 16.929688 L 11.71875 13.859375 L 9.105469 11.960938 L 12.335938 11.960938 Z M 13.332031 8.890625 "/>
</g>
</svg>
