<?xml version="1.0" encoding="UTF-8"?>
<svg xmlns="http://www.w3.org/2000/svg" xmlns:xlink="http://www.w3.org/1999/xlink" width="40px" height="40px" viewBox="0 0 40 40" version="1.1">
<g id="surface1">
<rect x="0" y="0" width="40" height="40" style="fill:rgb(0%,12.941177%,67.843139%);fill-opacity:1;stroke:none;"/>
<path style=" stroke:none;fill-rule:evenodd;fill:rgb(10.980392%,54.11765%,25.882354%);fill-opacity:1;" d="M 0 0 L 40 40 L 39.976562 0.03125 Z M 0 0 "/>
<path style=" stroke:none;fill-rule:evenodd;fill:rgb(100%,77.64706%,22.352941%);fill-opacity:1;" d="M 26.984375 20.214844 C 26.984375 24.207031 23.746094 27.441406 19.757812 27.441406 C 15.765625 27.441406 12.53125 24.207031 12.53125 20.214844 C 12.53125 16.222656 15.765625 12.988281 19.757812 12.988281 C 23.746094 12.988281 26.984375 16.222656 26.984375 20.214844 Z M 26.984375 20.214844 "/>
<path style=" stroke:none;fill-rule:evenodd;fill:rgb(10.980392%,54.11765%,25.882354%);fill-opacity:1;" d="M 15.265625 16.988281 C 15.757812 17.667969 16.507812 18.804688 17.109375 18.507812 C 17.582031 18.511719 17.824219 18.542969 17.886719 18.855469 C 18.996094 19.042969 20.859375 18.578125 22.019531 17.066406 C 22.019531 17.066406 22.117188 17.078125 22.082031 16.503906 C 22.089844 16.253906 22.425781 16.304688 22.433594 16.386719 C 22.480469 16.511719 22.472656 16.605469 22.535156 16.605469 C 22.675781 16.558594 22.871094 16.238281 23.035156 16.035156 C 23.082031 15.945312 23.054688 15.851562 23.066406 15.738281 C 23.152344 15.527344 23.367188 15.574219 23.414062 15.683594 C 23.453125 15.757812 23.453125 15.8125 23.496094 15.882812 C 23.714844 16.027344 24.109375 15.894531 24.140625 15.894531 C 24.175781 15.714844 24.292969 15.730469 24.292969 15.730469 C 24.4375 15.699219 24.378906 15.710938 24.476562 15.761719 C 24.390625 16.722656 24.664062 16.765625 24.640625 17.257812 C 24.652344 17.808594 24.476562 17.964844 24.476562 18.175781 C 24.53125 18.429688 25.34375 18.4375 25.058594 18.65625 C 24.804688 18.789062 25.058594 19.039062 24.679688 19.136719 C 23.582031 19.695312 23.371094 20.171875 23.371094 20.171875 C 23.371094 20.171875 23.097656 20.695312 23.066406 20.695312 C 22.882812 21.042969 22.648438 20.851562 22.519531 21.023438 C 22.453125 21.234375 22.382812 21.707031 22.511719 21.953125 C 22.574219 22.289062 22.503906 22.472656 22.421875 22.808594 C 22.351562 23.511719 22.070312 23.617188 22.039062 23.867188 C 21.910156 24.128906 22.066406 25.367188 21.945312 25.367188 C 21.125 25.382812 20.5 25.210938 20.175781 25.148438 C 20.492188 23.789062 20.371094 22.59375 20.371094 22.472656 C 20.289062 21.5 18.914062 21.738281 18.703125 21.609375 C 18.527344 21.570312 18.417969 21.429688 18.359375 21.367188 C 18.164062 21.347656 18.089844 21.300781 17.898438 21.28125 C 17.800781 21.332031 17.859375 21.378906 17.640625 21.449219 C 17.09375 21.511719 16.851562 20.96875 16.851562 20.96875 C 16.878906 20.785156 15.617188 21.007812 14.933594 20.847656 C 14.652344 21.003906 14.53125 21.46875 14.300781 21.523438 C 14.292969 21.664062 13.921875 21.40625 13.847656 21.261719 C 13.832031 20.851562 14.207031 20.671875 14.207031 20.671875 C 14.503906 20.460938 14.679688 20.429688 14.820312 20.285156 C 14.894531 19.925781 14.855469 19.664062 15.007812 19.394531 C 15.136719 19.1875 15.328125 19.285156 15.457031 19.191406 C 15.597656 19.101562 15.65625 18.5 15.527344 18.335938 C 15.527344 18.335938 14.972656 17.835938 14.941406 17.804688 C 14.761719 17.285156 15.152344 16.953125 15.265625 16.988281 Z M 15.265625 16.988281 "/>
<path style=" stroke:none;fill-rule:evenodd;fill:rgb(100%,77.64706%,22.352941%);fill-opacity:1;" d="M 35.585938 5.039062 C 35.394531 4.285156 33.691406 2.664062 32.414062 1.632812 C 32.105469 1.425781 31.90625 1.546875 31.949219 1.84375 C 32.105469 2.109375 32.226562 2.402344 32.386719 2.667969 C 32.429688 2.847656 32.515625 2.96875 32.558594 3.148438 C 32.558594 3.148438 32.570312 3.453125 32.597656 3.480469 C 32.996094 3.917969 33.050781 4.289062 33.050781 4.289062 C 33.28125 4.734375 33.484375 5.054688 33.886719 5.417969 C 34.339844 5.703125 34.007812 6.585938 34.019531 7.054688 C 34.019531 7.351562 33.808594 7.316406 33.621094 7.28125 C 32.15625 5.933594 30.703125 5.929688 29.421875 5.539062 C 28.921875 5.484375 28.914062 5.726562 29.078125 5.859375 C 29.972656 6.816406 30.8125 7.464844 31.921875 8.011719 C 32.105469 8.125 32.292969 8.242188 32.480469 8.355469 C 32.691406 8.535156 32.90625 8.710938 33.117188 8.886719 C 33.609375 9.207031 33.648438 9.5 33.648438 9.527344 C 33.660156 10.125 33.34375 10.589844 33.25 10.773438 C 33.082031 11.410156 32.746094 11.519531 32.746094 11.519531 C 30.007812 13.367188 28.570312 13.84375 24.132812 13.273438 C 24.066406 13.238281 23.640625 13.308594 24.132812 13.488281 C 25.261719 13.863281 28.039062 14.464844 30.722656 13.195312 C 31.367188 12.742188 31.796875 12.890625 32.265625 12.621094 C 33.03125 12.148438 34.128906 11.558594 34.328125 11.492188 C 34.925781 11.175781 36.597656 10.816406 36.984375 10.496094 C 37.425781 10.460938 37.886719 10.402344 37.917969 10.023438 C 38.0625 9.929688 38.273438 9.996094 38.433594 9.6875 C 38.785156 9.625 38.726562 9.5 38.726562 9.5 C 38.636719 9.25 38.308594 9.148438 38.074219 8.96875 C 37.726562 8.851562 37.488281 8.816406 37.238281 8.941406 C 37.15625 8.976562 37.078125 9.011719 36.996094 9.046875 C 36.996094 9.046875 36.625 8.996094 36.625 8.96875 C 35.796875 8.921875 35.878906 6.183594 35.585938 5.039062 Z M 35.585938 5.039062 "/>
<path style=" stroke:none;fill-rule:evenodd;fill:rgb(10.980392%,54.11765%,25.882354%);fill-opacity:1;" d="M 37.523438 9.527344 C 37.5 9.59375 37.394531 9.617188 37.289062 9.585938 C 37.179688 9.550781 37.113281 9.46875 37.136719 9.402344 C 37.160156 9.335938 37.265625 9.308594 37.375 9.34375 C 37.480469 9.378906 37.550781 9.460938 37.523438 9.527344 Z M 37.523438 9.527344 "/>
<path style=" stroke:none;fill-rule:evenodd;fill:rgb(100%,100%,100%);fill-opacity:1;" d="M 4.132812 30.644531 L 3.214844 29.78125 L 2.285156 30.632812 L 2.382812 29.375 L 1.140625 29.179688 L 2.183594 28.472656 L 1.5625 27.378906 L 2.765625 27.753906 L 3.234375 26.585938 L 3.6875 27.761719 L 4.894531 27.398438 L 4.261719 28.488281 L 5.296875 29.203125 L 4.050781 29.386719 Z M 4.132812 30.644531 "/>
<path style=" stroke:none;fill-rule:evenodd;fill:rgb(100%,100%,100%);fill-opacity:1;" d="M 10.351562 23.320312 L 9.625 22.640625 L 8.894531 23.308594 L 8.972656 22.320312 L 7.992188 22.164062 L 8.816406 21.609375 L 8.324219 20.746094 L 9.273438 21.042969 L 9.640625 20.125 L 10 21.046875 L 10.949219 20.765625 L 10.449219 21.621094 L 11.265625 22.1875 L 10.285156 22.328125 Z M 10.351562 23.320312 "/>
<path style=" stroke:none;fill-rule:evenodd;fill:rgb(100%,100%,100%);fill-opacity:1;" d="M 11.296875 38.847656 L 10.085938 38.238281 L 9.601562 39.503906 L 9.179688 38.214844 L 7.941406 38.769531 L 8.550781 37.558594 L 7.285156 37.074219 L 8.574219 36.652344 L 8.019531 35.414062 L 9.230469 36.023438 L 9.714844 34.757812 L 10.136719 36.046875 L 11.375 35.492188 L 10.765625 36.703125 L 12.03125 37.1875 L 10.742188 37.609375 Z M 11.296875 38.847656 "/>
<path style=" stroke:none;fill-rule:evenodd;fill:rgb(100%,100%,100%);fill-opacity:1;" d="M 16.824219 29.742188 L 15.910156 29.714844 L 15.46875 30.519531 L 15.03125 29.710938 L 14.117188 29.730469 L 14.597656 28.949219 L 14.121094 28.164062 L 15.039062 28.191406 L 15.480469 27.390625 L 15.914062 28.195312 L 16.832031 28.175781 L 16.351562 28.957031 Z M 16.824219 29.742188 "/>
<path style=" stroke:none;fill-rule:evenodd;fill:rgb(100%,100%,100%);fill-opacity:1;" d="M 11.027344 32.238281 L 10.246094 31.71875 L 9.488281 32.265625 L 9.753906 31.382812 L 8.984375 30.847656 L 9.929688 30.824219 L 10.210938 29.941406 L 10.53125 30.8125 L 11.476562 30.800781 L 10.726562 31.363281 Z M 11.027344 32.238281 "/>
</g>
</svg>
