<?xml version="1.0" encoding="UTF-8"?>
<svg xmlns="http://www.w3.org/2000/svg" xmlns:xlink="http://www.w3.org/1999/xlink" width="40px" height="40px" viewBox="0 0 40 40" version="1.1">
<g id="surface1">
<path style=" stroke:none;fill-rule:nonzero;fill:rgb(100%,100%,100%);fill-opacity:1;" d="M -0.164062 0.164062 L 39.835938 0.164062 L 39.835938 40.164062 L -0.164062 40.164062 Z M -0.164062 0.164062 "/>
<path style=" stroke:none;fill-rule:evenodd;fill:rgb(50.196081%,50.196081%,50.196081%);fill-opacity:1;" d="M 19.933594 18.601562 L 20.039062 18.457031 L 19.984375 18.289062 L 20.152344 18.347656 L 20.296875 18.242188 L 20.292969 18.421875 L 20.4375 18.523438 L 20.265625 18.574219 L 20.210938 18.746094 L 20.109375 18.597656 Z M 19.933594 18.601562 "/>
<path style=" stroke:none;fill-rule:evenodd;fill:rgb(100%,80.784315%,0%);fill-opacity:1;" d="M 10.019531 20.148438 L 10.039062 20.148438 C 9.988281 20.148438 10.015625 20.144531 10.097656 20.207031 C 10.167969 20.234375 10.226562 20.246094 10.335938 20.246094 C 10.425781 20.253906 10.507812 20.265625 10.609375 20.265625 C 10.699219 20.304688 10.753906 20.34375 10.824219 20.367188 C 10.855469 20.414062 10.921875 20.523438 10.960938 20.566406 C 11.027344 20.617188 11.113281 20.648438 11.175781 20.703125 C 11.253906 20.726562 11.304688 20.761719 11.390625 20.824219 C 11.457031 20.855469 11.515625 20.882812 11.605469 20.921875 C 11.691406 20.953125 11.785156 20.992188 11.859375 21.023438 C 11.925781 21.039062 12.015625 21.066406 12.074219 21.101562 C 12.160156 21.121094 12.230469 21.144531 12.328125 21.164062 C 12.433594 21.175781 12.484375 21.203125 12.585938 21.222656 C 12.671875 21.269531 12.742188 21.300781 12.839844 21.34375 C 12.878906 21.402344 12.910156 21.453125 12.996094 21.480469 C 13.039062 21.535156 13.109375 21.546875 13.152344 21.601562 C 13.214844 21.632812 13.285156 21.652344 13.367188 21.679688 C 13.46875 21.6875 13.539062 21.714844 13.640625 21.71875 L 14.1875 21.71875 C 14.277344 21.730469 14.375 21.746094 14.441406 21.761719 C 14.539062 21.761719 14.632812 21.761719 14.71875 21.738281 C 14.828125 21.738281 14.878906 21.707031 14.972656 21.699219 C 15.078125 21.71875 15.148438 21.707031 15.1875 21.800781 C 15.25 21.867188 15.292969 21.929688 15.304688 22.019531 C 15.324219 22.082031 15.324219 22.1875 15.324219 22.277344 C 15.324219 22.363281 15.324219 22.457031 15.34375 22.515625 C 15.40625 22.578125 15.453125 22.597656 15.539062 22.617188 C 15.601562 22.636719 15.71875 22.65625 15.773438 22.695312 C 15.820312 22.746094 15.84375 22.824219 15.910156 22.875 C 15.96875 22.921875 16.070312 22.929688 16.164062 22.933594 L 16.4375 22.933594 C 16.523438 22.933594 16.636719 22.941406 16.695312 22.914062 C 16.777344 22.882812 16.800781 22.824219 16.910156 22.816406 C 17.011719 22.832031 17.007812 22.878906 17.085938 22.914062 C 17.132812 22.984375 17.179688 23.015625 17.242188 23.054688 C 17.28125 23.113281 17.335938 23.160156 17.417969 23.175781 C 17.519531 23.164062 17.613281 23.132812 17.691406 23.113281 C 17.71875 23.042969 17.753906 22.996094 17.789062 22.933594 C 17.816406 22.890625 17.828125 22.878906 17.828125 22.796875 C 17.859375 22.734375 17.855469 22.613281 17.828125 22.535156 C 17.824219 22.433594 17.800781 22.382812 17.789062 22.277344 C 17.789062 22.179688 17.792969 22.089844 17.808594 22.019531 C 17.847656 21.972656 17.875 21.894531 17.90625 21.839844 C 17.960938 21.773438 18.007812 21.75 18.082031 21.71875 C 18.144531 21.699219 18.246094 21.699219 18.335938 21.699219 C 18.386719 21.6875 18.464844 21.691406 18.433594 21.660156 C 18.410156 21.6875 18.3125 21.695312 18.414062 21.699219 C 18.472656 21.660156 18.574219 21.644531 18.628906 21.621094 C 18.714844 21.609375 18.765625 21.578125 18.847656 21.5625 C 18.90625 21.523438 18.976562 21.507812 19.0625 21.480469 C 19.132812 21.453125 19.210938 21.425781 19.296875 21.402344 C 19.386719 21.359375 19.441406 21.335938 19.53125 21.320312 C 19.59375 21.289062 19.667969 21.28125 19.765625 21.28125 C 19.855469 21.339844 19.902344 21.386719 19.980469 21.460938 C 20.019531 21.515625 20.050781 21.550781 20.078125 21.621094 C 20.140625 21.664062 20.175781 21.695312 20.292969 21.699219 C 20.386719 21.699219 20.425781 21.714844 20.449219 21.640625 C 20.503906 21.59375 20.527344 21.511719 20.585938 21.460938 C 20.644531 21.402344 20.71875 21.375 20.78125 21.34375 C 20.855469 21.320312 20.917969 21.292969 21.019531 21.28125 C 21.085938 21.257812 21.15625 21.25 21.234375 21.300781 C 21.289062 21.382812 21.355469 21.46875 21.429688 21.5625 C 21.480469 21.59375 21.539062 21.601562 21.625 21.601562 C 21.683594 21.570312 21.808594 21.582031 21.898438 21.582031 C 21.980469 21.605469 22.011719 21.65625 22.09375 21.679688 C 22.140625 21.683594 22.164062 21.699219 22.210938 21.699219 C 22.355469 21.71875 22.414062 21.703125 22.523438 21.679688 L 22.796875 21.679688 C 22.894531 21.683594 22.945312 21.699219 23.054688 21.699219 C 23.113281 21.738281 23.214844 21.753906 23.289062 21.78125 C 23.378906 21.800781 23.398438 21.839844 23.484375 21.878906 C 23.539062 21.90625 23.652344 21.898438 23.738281 21.898438 C 23.839844 21.886719 23.90625 21.871094 23.992188 21.839844 C 24.066406 21.820312 24.097656 21.800781 24.128906 21.738281 C 24.179688 21.707031 24.246094 21.652344 24.285156 21.601562 C 24.339844 21.5625 24.386719 21.515625 24.421875 21.460938 C 24.476562 21.425781 24.5625 21.335938 24.597656 21.28125 C 24.648438 21.242188 24.703125 21.15625 24.734375 21.101562 C 24.777344 21.039062 24.832031 21 24.871094 20.902344 C 24.902344 20.8125 24.90625 20.738281 24.929688 20.644531 C 24.953125 20.570312 24.988281 20.503906 25.011719 20.40625 C 25.050781 20.320312 25.082031 20.234375 25.109375 20.167969 C 25.15625 20.113281 25.1875 20.046875 25.246094 19.988281 C 25.277344 19.9375 25.320312 19.910156 25.363281 19.867188 C 25.410156 19.824219 25.480469 19.789062 25.558594 19.769531 C 25.636719 19.746094 25.671875 19.710938 25.714844 19.648438 C 25.789062 19.625 25.832031 19.589844 25.929688 19.570312 C 26.015625 19.542969 26.085938 19.527344 26.164062 19.507812 L 26.4375 19.507812 C 26.535156 19.507812 26.621094 19.519531 26.710938 19.53125 C 26.800781 19.554688 26.886719 19.578125 26.964844 19.589844 C 27.023438 19.617188 27.117188 19.664062 27.164062 19.707031 C 27.21875 19.746094 27.285156 19.8125 27.320312 19.867188 C 27.34375 19.945312 27.386719 19.980469 27.4375 20.046875 C 27.488281 20.117188 27.53125 20.160156 27.632812 20.207031 C 27.710938 20.226562 27.777344 20.257812 27.867188 20.265625 C 27.96875 20.265625 28.035156 20.28125 28.121094 20.285156 C 28.214844 20.285156 28.308594 20.289062 28.394531 20.265625 C 28.480469 20.214844 28.511719 20.203125 28.570312 20.128906 C 28.648438 20.085938 28.707031 20.054688 28.804688 20.046875 C 28.871094 20.03125 28.949219 20.027344 29.039062 20.027344 C 29.089844 20.0625 29.144531 20.078125 29.175781 20.128906 C 29.230469 20.164062 29.234375 20.183594 29.316406 20.1875 C 29.371094 20.21875 29.453125 20.234375 29.53125 20.246094 L 29.804688 20.246094 L 29.53125 20.246094 L 29.804688 20.246094 C 29.878906 20.183594 29.902344 20.191406 29.902344 20.105469 C 29.960938 20.058594 29.992188 19.988281 30.058594 19.90625 C 30.09375 19.847656 30.128906 19.800781 30.15625 19.730469 C 30.175781 19.664062 30.203125 19.5625 30.214844 19.488281 C 30.238281 19.421875 30.261719 19.320312 30.273438 19.230469 C 30.296875 19.140625 30.3125 19.054688 30.3125 18.953125 L 30.3125 18.671875 C 30.3125 18.574219 30.296875 18.503906 30.273438 18.433594 C 30.242188 18.347656 30.191406 18.28125 30.15625 18.214844 C 30.097656 18.167969 30.027344 18.101562 29.980469 18.054688 C 29.890625 18 29.824219 17.960938 29.746094 17.917969 C 29.660156 17.863281 29.578125 17.816406 29.511719 17.777344 C 29.472656 17.730469 29.40625 17.671875 29.375 17.636719 C 29.347656 17.582031 29.347656 17.453125 29.375 17.398438 C 29.375 17.316406 29.382812 17.269531 29.433594 17.21875 C 29.519531 17.1875 29.582031 17.144531 29.648438 17.101562 C 29.691406 17.039062 29.757812 17.027344 29.84375 16.960938 C 29.925781 16.921875 29.976562 16.902344 30.039062 16.839844 C 30.128906 16.808594 30.214844 16.746094 30.292969 16.722656 C 30.335938 16.667969 30.414062 16.628906 30.507812 16.601562 C 30.574219 16.554688 30.65625 16.503906 30.722656 16.484375 C 30.816406 16.433594 30.882812 16.414062 30.976562 16.363281 C 31.074219 16.339844 31.160156 16.292969 31.25 16.261719 C 31.277344 16.234375 31.304688 16.210938 31.351562 16.203125 C 31.472656 16.195312 31.574219 16.183594 31.644531 16.125 C 31.722656 16.09375 31.730469 16.039062 31.78125 15.984375 C 31.816406 15.917969 31.855469 15.890625 31.878906 15.804688 C 31.941406 15.738281 31.90625 15.71875 31.800781 15.707031 C 31.765625 15.671875 31.734375 15.707031 31.722656 15.644531 C 31.652344 15.613281 31.632812 15.558594 31.585938 15.507812 C 31.554688 15.425781 31.554688 15.386719 31.644531 15.347656 C 31.699219 15.308594 31.773438 15.296875 31.820312 15.246094 C 31.902344 15.234375 31.960938 15.199219 32.035156 15.167969 C 32.140625 15.160156 32.199219 15.136719 32.289062 15.109375 C 32.367188 15.066406 32.417969 15.042969 32.484375 15.007812 C 32.566406 14.972656 32.660156 14.921875 32.738281 14.890625 C 32.808594 14.839844 32.898438 14.796875 32.992188 14.769531 C 33.0625 14.734375 33.148438 14.703125 33.226562 14.671875 C 33.296875 14.652344 33.382812 14.625 33.441406 14.589844 C 33.535156 14.574219 33.632812 14.539062 33.699219 14.511719 C 33.761719 14.480469 33.839844 14.441406 33.894531 14.410156 C 33.972656 14.375 34.03125 14.332031 34.109375 14.3125 C 34.15625 14.265625 34.21875 14.234375 34.285156 14.210938 C 34.339844 14.160156 34.457031 14.089844 34.519531 14.054688 C 34.578125 14.023438 34.648438 13.996094 34.695312 13.953125 C 34.742188 13.949219 34.726562 13.9375 34.773438 13.933594 C 34.917969 13.890625 34.988281 13.875 35.066406 13.792969 C 35.128906 13.765625 35.191406 13.734375 35.242188 13.695312 C 35.308594 13.640625 35.359375 13.59375 35.398438 13.535156 C 35.472656 13.507812 35.511719 13.460938 35.578125 13.414062 C 35.644531 13.386719 35.703125 13.375 35.8125 13.375 C 35.898438 13.375 36.011719 13.382812 36.066406 13.355469 C 36.1875 13.355469 36.21875 13.324219 36.300781 13.277344 C 36.328125 13.199219 36.382812 13.160156 36.457031 13.117188 C 36.5 13.078125 36.609375 13.015625 36.652344 12.976562 C 36.738281 12.9375 36.773438 12.882812 36.847656 12.816406 C 36.90625 12.753906 36.976562 12.695312 37.042969 12.660156 C 37.125 12.621094 37.183594 12.605469 37.257812 12.578125 C 37.351562 12.5625 37.445312 12.546875 37.53125 12.519531 C 37.632812 12.511719 37.667969 12.480469 37.75 12.460938 C 37.804688 12.40625 37.835938 12.378906 37.90625 12.300781 C 37.9375 12.207031 37.988281 12.175781 38.082031 12.160156 C 38.175781 12.109375 38.25 12.105469 38.316406 12.042969 C 38.382812 11.972656 38.425781 11.898438 38.492188 11.820312 C 38.527344 11.738281 38.5625 11.683594 38.570312 11.582031 C 38.570312 11.460938 38.542969 11.445312 38.492188 11.363281 C 38.441406 11.292969 38.414062 11.246094 38.375 11.183594 C 38.3125 11.148438 38.226562 11.113281 38.160156 11.085938 C 38.066406 11.09375 38.007812 11.113281 37.945312 11.144531 C 37.878906 11.199219 37.832031 11.246094 37.789062 11.324219 C 37.757812 11.386719 37.738281 11.460938 37.710938 11.542969 C 37.671875 11.597656 37.582031 11.648438 37.511719 11.683594 C 37.429688 11.71875 37.371094 11.734375 37.296875 11.761719 C 37.207031 11.796875 37.164062 11.824219 37.0625 11.863281 C 37.003906 11.890625 36.925781 11.933594 36.867188 11.960938 C 36.78125 12.011719 36.699219 12.054688 36.632812 12.082031 C 36.546875 12.132812 36.496094 12.160156 36.417969 12.179688 C 36.328125 12.234375 36.242188 12.277344 36.164062 12.320312 C 36.097656 12.351562 36.035156 12.394531 35.949219 12.441406 C 35.878906 12.453125 35.78125 12.46875 35.695312 12.480469 L 35.398438 12.480469 C 35.316406 12.460938 35.21875 12.441406 35.125 12.398438 C 35.027344 12.347656 34.980469 12.316406 34.910156 12.261719 C 34.867188 12.175781 34.855469 12.136719 34.851562 12.019531 C 34.792969 11.992188 34.707031 11.984375 34.617188 11.980469 C 34.519531 11.980469 34.425781 11.976562 34.363281 12.019531 C 34.277344 12.035156 34.207031 12.070312 34.148438 12.121094 C 34.058594 12.164062 34 12.21875 33.933594 12.261719 C 33.863281 12.300781 33.773438 12.367188 33.699219 12.398438 C 33.625 12.429688 33.511719 12.464844 33.421875 12.5 C 33.308594 12.53125 33.226562 12.570312 33.109375 12.578125 C 33.011719 12.625 32.933594 12.636719 32.835938 12.679688 C 32.738281 12.714844 32.664062 12.746094 32.5625 12.777344 C 32.496094 12.8125 32.371094 12.871094 32.308594 12.917969 C 32.191406 12.976562 32.105469 13.027344 32.015625 13.078125 C 31.921875 13.117188 31.855469 13.152344 31.761719 13.195312 C 31.714844 13.238281 31.621094 13.273438 31.566406 13.316406 C 31.476562 13.339844 31.378906 13.375 31.328125 13.414062 C 31.253906 13.425781 31.210938 13.445312 31.171875 13.496094 C 31.105469 13.582031 31.132812 13.574219 31.054688 13.574219 C 30.988281 13.617188 30.886719 13.613281 30.78125 13.613281 C 30.679688 13.613281 30.59375 13.59375 30.488281 13.59375 C 30.398438 13.578125 30.3125 13.558594 30.214844 13.554688 L 28.53125 13.554688 C 28.429688 13.554688 28.363281 13.566406 28.277344 13.574219 C 28.179688 13.582031 28.105469 13.601562 28.023438 13.613281 C 27.933594 13.628906 27.894531 13.660156 27.828125 13.695312 C 27.765625 13.722656 27.703125 13.753906 27.632812 13.773438 C 27.535156 13.824219 27.425781 13.851562 27.320312 13.875 C 27.238281 13.910156 27.125 13.933594 27.0625 13.972656 C 26.972656 13.980469 26.914062 14.003906 26.808594 14.011719 C 26.722656 14.054688 26.652344 14.074219 26.574219 14.09375 C 26.503906 14.117188 26.4375 14.132812 26.339844 14.132812 C 26.25 14.144531 26.199219 14.171875 26.105469 14.191406 C 26.070312 14.222656 26.019531 14.242188 25.96875 14.25 C 25.855469 14.308594 25.816406 14.3125 25.695312 14.3125 L 25.421875 14.3125 C 25.289062 14.296875 25.160156 14.28125 25.03125 14.25 C 24.894531 14.246094 24.769531 14.226562 24.636719 14.210938 L 23.777344 14.210938 C 23.671875 14.207031 23.582031 14.1875 23.484375 14.171875 C 23.390625 14.15625 23.292969 14.148438 23.210938 14.113281 C 23.085938 14.105469 22.964844 14.089844 22.855469 14.054688 C 22.757812 14.035156 22.664062 14 22.5625 13.992188 C 22.507812 13.957031 22.394531 13.945312 22.347656 13.914062 C 22.257812 13.90625 22.183594 13.878906 22.132812 13.832031 C 22.042969 13.820312 21.988281 13.777344 21.898438 13.753906 C 21.816406 13.703125 21.71875 13.6875 21.605469 13.632812 C 21.507812 13.613281 21.410156 13.578125 21.3125 13.554688 C 21.234375 13.527344 21.136719 13.5 21.078125 13.457031 C 20.988281 13.429688 20.941406 13.40625 20.84375 13.375 C 20.796875 13.332031 20.707031 13.289062 20.644531 13.257812 C 20.601562 13.21875 20.492188 13.152344 20.429688 13.117188 C 20.367188 13.042969 20.304688 12.96875 20.214844 12.878906 C 20.15625 12.8125 20.085938 12.757812 20.019531 12.71875 C 19.933594 12.683594 19.839844 12.632812 19.785156 12.597656 C 19.710938 12.578125 19.652344 12.53125 19.609375 12.480469 C 19.542969 12.441406 19.5 12.40625 19.433594 12.359375 C 19.332031 12.398438 19.320312 12.378906 19.21875 12.378906 C 19.101562 12.371094 19.015625 12.367188 18.90625 12.378906 C 18.808594 12.390625 18.714844 12.398438 18.609375 12.398438 L 18.335938 12.398438 C 18.214844 12.402344 18.195312 12.417969 18.160156 12.519531 C 18.105469 12.582031 18.082031 12.65625 18.023438 12.699219 C 17.976562 12.761719 17.90625 12.804688 17.828125 12.839844 C 17.730469 12.90625 17.703125 12.929688 17.652344 13.015625 C 17.589844 13.074219 17.535156 13.15625 17.496094 13.214844 C 17.460938 13.277344 17.4375 13.335938 17.417969 13.433594 C 17.417969 13.53125 17.425781 13.632812 17.398438 13.714844 C 17.398438 13.808594 17.40625 13.910156 17.378906 13.992188 L 17.378906 14.550781 C 17.417969 14.613281 17.472656 14.636719 17.496094 14.730469 C 17.523438 14.808594 17.472656 14.78125 17.417969 14.828125 L 16.871094 14.828125 C 16.769531 14.828125 16.6875 14.816406 16.597656 14.808594 C 16.515625 14.796875 16.402344 14.789062 16.339844 14.769531 L 16.066406 14.769531 C 15.96875 14.761719 15.894531 14.742188 15.8125 14.730469 C 15.699219 14.707031 15.621094 14.675781 15.519531 14.609375 C 15.414062 14.585938 15.335938 14.546875 15.246094 14.492188 C 15.148438 14.464844 15.070312 14.414062 14.972656 14.390625 C 14.90625 14.359375 14.855469 14.328125 14.777344 14.292969 C 14.730469 14.226562 14.683594 14.1875 14.582031 14.171875 C 14.5 14.132812 14.433594 14.132812 14.324219 14.132812 C 14.222656 14.144531 14.164062 14.171875 14.089844 14.191406 C 14.007812 14.230469 13.902344 14.261719 13.835938 14.292969 C 13.769531 14.320312 13.710938 14.355469 13.640625 14.390625 C 13.589844 14.460938 13.558594 14.5 13.523438 14.570312 C 13.496094 14.570312 13.503906 14.5625 13.503906 14.589844 C 13.398438 14.59375 13.289062 14.589844 13.171875 14.589844 C 13.117188 14.617188 13.007812 14.625 12.9375 14.628906 C 12.878906 14.675781 12.8125 14.714844 12.761719 14.75 C 12.726562 14.820312 12.703125 14.835938 12.703125 14.949219 C 12.707031 15.066406 12.746094 15.101562 12.78125 15.1875 C 12.757812 15.296875 12.714844 15.304688 12.625 15.328125 C 12.554688 15.34375 12.464844 15.347656 12.371094 15.347656 L 11.78125 15.347656 C 11.667969 15.347656 11.617188 15.347656 11.566406 15.289062 C 11.53125 15.21875 11.53125 15.132812 11.507812 15.070312 C 11.449219 14.988281 11.425781 14.933594 11.332031 14.871094 C 11.3125 14.808594 11.261719 14.71875 11.234375 14.648438 C 11.203125 14.582031 11.179688 14.523438 11.117188 14.472656 C 11.050781 14.410156 10.976562 14.371094 10.921875 14.3125 C 10.855469 14.269531 10.804688 14.234375 10.6875 14.230469 C 10.589844 14.230469 10.5 14.238281 10.433594 14.253906 C 10.382812 14.292969 10.304688 14.339844 10.238281 14.390625 C 10.183594 14.464844 10.132812 14.519531 10.058594 14.589844 C 9.976562 14.667969 9.894531 14.714844 9.824219 14.75 C 9.761719 14.78125 9.699219 14.820312 9.648438 14.890625 C 9.589844 14.914062 9.5625 14.957031 9.53125 15.027344 C 9.480469 15.074219 9.453125 15.152344 9.433594 15.226562 C 9.402344 15.324219 9.398438 15.4375 9.394531 15.546875 L 9.394531 15.824219 C 9.363281 15.863281 9.347656 15.902344 9.296875 15.945312 C 9.25 15.988281 9.175781 16.035156 9.121094 16.0625 C 9.066406 16.136719 9.03125 16.175781 9.023438 16.285156 C 9.023438 16.371094 9.015625 16.484375 9.042969 16.542969 C 9.082031 16.597656 9.164062 16.636719 9.238281 16.683594 C 9.3125 16.707031 9.351562 16.765625 9.394531 16.839844 C 9.480469 16.878906 9.46875 16.914062 9.570312 16.921875 C 9.632812 16.96875 9.726562 16.984375 9.804688 17.019531 C 9.882812 17.042969 9.921875 17.078125 10 17.101562 C 10.050781 17.167969 10.109375 17.210938 10.136719 17.320312 C 10.148438 17.386719 10.171875 17.457031 10.136719 17.519531 C 10.058594 17.566406 9.953125 17.597656 9.902344 17.636719 C 9.839844 17.640625 9.84375 17.65625 9.804688 17.675781 C 9.804688 17.808594 9.789062 17.878906 9.765625 17.976562 C 9.761719 18.066406 9.746094 18.128906 9.746094 18.234375 L 9.746094 18.515625 C 9.789062 18.601562 9.84375 18.617188 9.902344 18.671875 C 9.964844 18.714844 9.980469 18.769531 10 18.851562 C 10.035156 18.929688 10.070312 18.996094 10.097656 19.070312 C 10.136719 19.148438 10.15625 19.21875 10.15625 19.332031 C 10.148438 19.441406 10.101562 19.457031 10.019531 19.507812 C 9.976562 19.5625 9.992188 19.660156 9.960938 19.75 C 9.960938 19.839844 9.960938 19.945312 9.980469 20.007812 C 10.015625 20.054688 10.007812 20.070312 10.019531 20.148438 Z M 10.019531 20.148438 "/>
<path style=" stroke:none;fill-rule:evenodd;fill:rgb(0%,60.392159%,0%);fill-opacity:1;" d="M 12.222656 24.394531 L 12.191406 24.359375 C 12.261719 24.433594 12.226562 24.40625 12.160156 24.230469 C 12.152344 24.046875 12.109375 24.015625 12 23.941406 C 11.875 23.898438 11.820312 23.84375 11.777344 23.714844 C 11.695312 23.644531 11.636719 23.554688 11.585938 23.457031 C 11.5 23.394531 11.425781 23.316406 11.363281 23.230469 C 11.277344 23.167969 11.203125 23.089844 11.140625 23.003906 C 11.019531 22.960938 10.941406 22.871094 10.792969 22.808594 C 10.707031 22.726562 10.628906 22.6875 10.507812 22.613281 C 10.367188 22.546875 10.359375 22.5 10.1875 22.484375 C 10.136719 22.542969 10.050781 22.519531 10.03125 22.613281 C 10.035156 22.804688 10.074219 22.847656 10.15625 23.003906 C 10.164062 23.179688 10.210938 23.261719 10.285156 23.390625 C 10.375 23.453125 10.445312 23.570312 10.539062 23.648438 C 10.640625 23.71875 10.679688 23.792969 10.824219 23.875 C 10.898438 23.972656 11.027344 24.023438 11.140625 24.101562 C 11.285156 24.15625 11.402344 24.203125 11.492188 24.265625 C 11.621094 24.292969 11.707031 24.34375 11.808594 24.394531 C 11.960938 24.40625 12.023438 24.425781 12.222656 24.394531 Z M 12.222656 24.394531 "/>
<path style=" stroke:none;fill-rule:evenodd;fill:rgb(0%,60.392159%,0%);fill-opacity:1;" d="M 12.890625 25.300781 L 12.859375 25.265625 C 12.933594 25.34375 12.898438 25.3125 12.796875 25.136719 C 12.675781 25.023438 12.652344 24.9375 12.476562 24.910156 C 12.382812 24.871094 12.230469 24.847656 12.128906 24.8125 C 11.945312 24.8125 11.863281 24.792969 11.714844 24.75 C 11.609375 24.71875 11.472656 24.667969 11.363281 24.621094 C 11.238281 24.601562 11.105469 24.550781 10.984375 24.523438 L 10.539062 24.523438 C 10.394531 24.558594 10.316406 24.558594 10.285156 24.714844 C 10.347656 24.796875 10.433594 24.867188 10.507812 24.941406 C 10.546875 25.085938 10.644531 25.121094 10.730469 25.203125 C 10.875 25.253906 10.90625 25.292969 11.078125 25.300781 C 11.226562 25.347656 11.332031 25.363281 11.492188 25.363281 C 11.664062 25.363281 11.785156 25.398438 11.9375 25.429688 C 12.0625 25.445312 12.1875 25.460938 12.351562 25.460938 C 12.488281 25.460938 12.636719 25.460938 12.730469 25.429688 C 12.933594 25.265625 12.890625 25.230469 12.890625 25.460938 C 12.910156 25.484375 12.933594 25.503906 12.953125 25.527344 "/>
<path style=" stroke:none;fill-rule:evenodd;fill:rgb(0%,60.392159%,0%);fill-opacity:1;" d="M 13.972656 25.785156 L 13.9375 25.785156 C 14.023438 25.785156 13.980469 25.785156 13.8125 25.753906 C 13.652344 25.707031 13.5625 25.660156 13.398438 25.65625 C 13.300781 25.597656 13.179688 25.589844 13.015625 25.589844 L 12.574219 25.589844 C 12.414062 25.601562 12.347656 25.644531 12.191406 25.65625 C 12.109375 25.703125 11.941406 25.746094 11.839844 25.785156 C 11.753906 25.847656 11.675781 25.921875 11.554688 25.976562 C 11.582031 26.140625 11.671875 26.199219 11.777344 26.269531 C 11.886719 26.3125 11.996094 26.355469 12.160156 26.367188 C 12.316406 26.371094 12.398438 26.398438 12.574219 26.398438 C 12.734375 26.398438 12.859375 26.382812 12.984375 26.367188 C 13.089844 26.316406 13.179688 26.261719 13.335938 26.238281 C 13.414062 26.167969 13.523438 26.121094 13.621094 26.074219 C 13.707031 26.035156 13.824219 25.996094 13.90625 25.945312 L 13.621094 26.074219 C 13.707031 26.035156 13.824219 25.996094 13.972656 25.785156 Z M 13.972656 25.785156 "/>
<path style=" stroke:none;fill-rule:evenodd;fill:rgb(0%,60.392159%,0%);fill-opacity:1;" d="M 15.519531 26.535156 L 15.519531 26.507812 C 15.519531 26.585938 15.523438 26.546875 15.457031 26.398438 C 15.339844 26.34375 15.199219 26.308594 15.105469 26.261719 C 14.96875 26.261719 14.785156 26.25 14.695312 26.289062 C 14.535156 26.289062 14.425781 26.300781 14.28125 26.34375 C 14.140625 26.363281 14.0625 26.40625 13.964844 26.453125 C 13.851562 26.507812 13.691406 26.574219 13.550781 26.621094 C 13.425781 26.695312 13.382812 26.738281 13.230469 26.8125 C 13.136719 26.902344 13.042969 26.957031 12.976562 27.03125 C 12.949219 27.125 12.980469 27.234375 13.105469 27.28125 C 13.183594 27.335938 13.304688 27.367188 13.421875 27.390625 C 13.570312 27.386719 13.703125 27.367188 13.804688 27.308594 C 13.960938 27.289062 14.054688 27.25 14.183594 27.226562 C 14.296875 27.191406 14.402344 27.160156 14.535156 27.144531 C 14.625 27.089844 14.789062 27.042969 14.886719 27.003906 C 15.042969 26.949219 15.144531 26.875 15.265625 26.8125 C 15.324219 26.753906 15.398438 26.691406 15.488281 26.675781 L 15.265625 26.8125 C 15.324219 26.753906 15.398438 26.691406 15.519531 26.535156 Z M 15.519531 26.535156 "/>
<path style=" stroke:none;fill-rule:evenodd;fill:rgb(0%,60.392159%,0%);fill-opacity:1;" d="M 16.738281 27.152344 C 16.730469 27.152344 16.589844 27.097656 16.484375 27.097656 C 16.386719 27.046875 16.234375 27.035156 16.101562 26.980469 C 15.925781 26.980469 15.808594 27 15.71875 27.066406 C 15.585938 27.082031 15.46875 27.117188 15.371094 27.183594 C 15.246094 27.210938 15.132812 27.234375 15.019531 27.296875 C 14.867188 27.355469 14.800781 27.410156 14.703125 27.46875 C 14.636719 27.542969 14.496094 27.582031 14.417969 27.644531 C 14.34375 27.71875 14.34375 27.824219 14.382812 27.929688 C 14.464844 27.976562 14.605469 28.019531 14.703125 28.074219 C 14.84375 28.097656 14.988281 28.101562 15.148438 28.101562 C 15.289062 28.09375 15.40625 28.070312 15.496094 28.015625 C 15.65625 27.945312 15.699219 27.894531 15.816406 27.816406 C 15.882812 27.742188 15.992188 27.683594 16.101562 27.644531 C 16.183594 27.578125 16.28125 27.53125 16.417969 27.5 C 16.496094 27.433594 16.566406 27.367188 16.640625 27.296875 C 16.730469 27.296875 16.667969 27.304688 16.738281 27.152344 Z M 16.738281 27.152344 "/>
<path style=" stroke:none;fill-rule:evenodd;fill:rgb(0%,60.392159%,0%);fill-opacity:1;" d="M 18.109375 27.4375 C 18.101562 27.4375 17.929688 27.410156 17.820312 27.410156 C 17.730469 27.371094 17.546875 27.378906 17.410156 27.378906 C 17.234375 27.386719 17.179688 27.417969 17.089844 27.492188 C 17 27.542969 16.890625 27.585938 16.804688 27.660156 C 16.691406 27.722656 16.59375 27.804688 16.488281 27.855469 C 16.371094 27.902344 16.269531 27.953125 16.136719 27.96875 C 16.074219 28.039062 15.960938 28.097656 15.882812 28.164062 C 15.796875 28.222656 15.757812 28.25 15.753906 28.390625 C 15.691406 28.4375 15.648438 28.527344 15.660156 28.558594 C 15.789062 28.617188 15.894531 28.640625 16.074219 28.640625 C 16.242188 28.644531 16.363281 28.675781 16.519531 28.640625 C 16.675781 28.601562 16.742188 28.570312 16.898438 28.53125 C 16.980469 28.4375 17.042969 28.375 17.152344 28.304688 C 17.214844 28.226562 17.289062 28.15625 17.410156 28.109375 C 17.5 28.035156 17.632812 27.957031 17.726562 27.914062 C 17.78125 27.84375 17.894531 27.769531 17.980469 27.71875 C 18.042969 27.621094 18.0625 27.605469 18.109375 27.4375 Z M 18.109375 27.4375 "/>
<path style=" stroke:none;fill-rule:evenodd;fill:rgb(0%,60.392159%,0%);fill-opacity:1;" d="M 18.261719 27.175781 L 18.261719 26.203125 C 18.113281 26.117188 18.09375 26.0625 18.039062 25.882812 C 17.960938 25.753906 17.902344 25.671875 17.847656 25.558594 C 17.777344 25.480469 17.714844 25.378906 17.691406 25.234375 C 17.628906 25.113281 17.59375 24.996094 17.46875 24.941406 C 17.355469 24.917969 17.207031 24.910156 17.054688 24.910156 C 16.84375 24.917969 16.863281 24.957031 16.863281 25.167969 C 16.878906 25.335938 16.929688 25.378906 16.992188 25.527344 C 17.039062 25.625 17.089844 25.730469 17.148438 25.816406 C 17.199219 25.925781 17.273438 26.0625 17.339844 26.140625 C 17.394531 26.257812 17.476562 26.367188 17.5 26.496094 C 17.585938 26.609375 17.648438 26.707031 17.722656 26.789062 C 17.785156 26.917969 17.832031 26.996094 17.945312 27.046875 C 18.007812 27.144531 18.117188 27.152344 18.261719 27.175781 Z M 18.261719 27.175781 "/>
<path style=" stroke:none;fill-rule:evenodd;fill:rgb(0%,60.392159%,0%);fill-opacity:1;" d="M 16.738281 26.65625 L 16.769531 26.65625 C 16.679688 26.65625 16.726562 26.664062 16.894531 26.59375 C 16.941406 26.5 16.925781 26.3125 16.925781 26.171875 C 16.925781 25.988281 16.898438 25.910156 16.863281 25.785156 C 16.804688 25.644531 16.757812 25.578125 16.738281 25.429688 C 16.6875 25.328125 16.640625 25.222656 16.609375 25.105469 C 16.550781 25.019531 16.511719 24.890625 16.484375 24.78125 C 16.375 24.71875 16.277344 24.65625 16.164062 24.621094 C 16.0625 24.570312 15.96875 24.5 15.847656 24.457031 C 15.6875 24.488281 15.667969 24.542969 15.65625 24.71875 C 15.621094 24.847656 15.667969 24.964844 15.71875 25.074219 C 15.773438 25.199219 15.804688 25.328125 15.878906 25.429688 C 15.925781 25.574219 15.972656 25.625 15.972656 25.785156 C 16.027344 25.878906 16.050781 26.019531 16.101562 26.140625 C 16.164062 26.289062 16.222656 26.355469 16.324219 26.464844 C 16.460938 26.558594 16.503906 26.597656 16.738281 26.65625 Z M 16.738281 26.65625 "/>
<path style=" stroke:none;fill-rule:evenodd;fill:rgb(0%,60.392159%,0%);fill-opacity:1;" d="M 15.464844 26.238281 C 15.464844 26.222656 15.566406 26.160156 15.625 26.074219 C 15.671875 25.980469 15.664062 25.78125 15.625 25.65625 C 15.5625 25.503906 15.5 25.390625 15.464844 25.265625 C 15.433594 25.164062 15.433594 24.996094 15.433594 24.847656 C 15.40625 24.710938 15.355469 24.609375 15.304688 24.457031 C 15.265625 24.351562 15.183594 24.222656 15.148438 24.101562 C 15.097656 24.054688 15.042969 23.957031 14.988281 23.90625 C 14.925781 23.855469 14.925781 23.84375 14.796875 23.84375 C 14.628906 23.851562 14.542969 23.867188 14.449219 23.972656 C 14.414062 24.074219 14.417969 24.242188 14.417969 24.394531 C 14.417969 24.570312 14.433594 24.65625 14.511719 24.78125 C 14.566406 24.917969 14.683594 25.050781 14.765625 25.167969 C 14.832031 25.285156 14.875 25.390625 14.957031 25.460938 C 14.976562 25.605469 15.03125 25.671875 15.082031 25.785156 C 15.105469 25.929688 15.160156 25.996094 15.210938 26.109375 C 15.292969 26.117188 15.253906 26.136719 15.304688 26.171875 L 15.210938 26.109375 C 15.292969 26.117188 15.253906 26.136719 15.464844 26.238281 Z M 15.464844 26.238281 "/>
<path style=" stroke:none;fill-rule:evenodd;fill:rgb(0%,60.392159%,0%);fill-opacity:1;" d="M 14.195312 25.265625 C 14.214844 25.222656 14.332031 25.050781 14.351562 24.941406 C 14.351562 24.761719 14.328125 24.632812 14.226562 24.523438 C 14.199219 24.410156 14.136719 24.238281 14.097656 24.132812 C 14.097656 23.984375 14.101562 23.816406 14.066406 23.714844 C 14.066406 23.542969 14.042969 23.441406 14.003906 23.324219 C 13.929688 23.21875 13.855469 23.1875 13.683594 23.132812 C 13.546875 23.085938 13.453125 23.117188 13.304688 23.164062 L 13.304688 23.617188 C 13.304688 23.789062 13.335938 23.910156 13.398438 24.003906 C 13.449219 24.117188 13.5 24.195312 13.558594 24.328125 C 13.5625 24.503906 13.609375 24.59375 13.621094 24.75 C 13.632812 24.914062 13.648438 25 13.75 25.105469 C 13.882812 25.171875 13.925781 25.234375 14.035156 25.265625 L 13.75 25.105469 C 13.882812 25.171875 13.925781 25.234375 14.195312 25.265625 Z M 14.195312 25.265625 "/>
<path style=" stroke:none;fill-rule:evenodd;fill:rgb(0%,60.392159%,0%);fill-opacity:1;" d="M 13.050781 24.554688 L 13.050781 24.523438 C 13.050781 24.613281 13.046875 24.566406 13.113281 24.394531 C 13.148438 24.253906 13.144531 24.097656 13.144531 23.941406 C 13.136719 23.808594 13.117188 23.660156 13.082031 23.550781 C 13.050781 23.386719 13.019531 23.28125 12.984375 23.132812 C 12.964844 23 12.875 22.855469 12.828125 22.742188 C 12.796875 22.648438 12.765625 22.449219 12.730469 22.355469 C 12.710938 22.234375 12.652344 22.195312 12.542969 22.160156 C 12.453125 22.117188 12.246094 22.117188 12.160156 22.160156 C 12.066406 22.195312 12.066406 22.269531 12.03125 22.355469 C 12.019531 22.523438 11.992188 22.644531 12.03125 22.808594 C 12.085938 22.902344 12.144531 23 12.191406 23.097656 C 12.253906 23.214844 12.316406 23.386719 12.382812 23.488281 C 12.429688 23.652344 12.449219 23.726562 12.542969 23.875 C 12.574219 23.980469 12.628906 24.105469 12.699219 24.199219 C 12.746094 24.3125 12.8125 24.394531 12.859375 24.523438 C 12.945312 24.523438 12.878906 24.519531 13.050781 24.554688 Z M 13.050781 24.554688 "/>
<path style=" stroke:none;fill-rule:evenodd;fill:rgb(0%,60.392159%,0%);fill-opacity:1;" d="M 19.578125 28.003906 L 19.050781 28.003906 C 18.972656 28.082031 18.941406 28.128906 18.804688 28.144531 C 18.730469 28.207031 18.664062 28.265625 18.554688 28.285156 C 18.457031 28.308594 18.328125 28.316406 18.195312 28.316406 C 18.03125 28.3125 17.972656 28.320312 17.945312 28.175781 C 17.949219 28.027344 17.953125 28.019531 18.082031 28.003906 C 18.152344 27.945312 18.269531 27.917969 18.386719 27.890625 C 18.480469 27.859375 18.589844 27.832031 18.691406 27.808594 C 18.789062 27.773438 18.882812 27.734375 18.96875 27.695312 C 18.949219 27.609375 18.878906 27.628906 18.804688 27.667969 C 18.703125 27.667969 18.585938 27.675781 18.527344 27.640625 C 18.457031 27.535156 18.417969 27.5 18.25 27.496094 C 18.085938 27.496094 18.058594 27.453125 17.917969 27.441406 C 17.78125 27.441406 17.683594 27.417969 17.585938 27.386719 C 17.4375 27.375 17.339844 27.351562 17.226562 27.300781 C 17.1875 27.261719 17.277344 27.253906 17.335938 27.246094 C 17.417969 27.1875 17.503906 27.164062 17.640625 27.160156 L 18.027344 27.160156 C 18.171875 27.160156 18.277344 27.183594 18.414062 27.1875 C 18.527344 27.226562 18.644531 27.246094 18.71875 27.300781 C 18.820312 27.335938 18.882812 27.394531 18.941406 27.46875 C 19.039062 27.496094 19.136719 27.53125 19.246094 27.554688 C 19.375 27.554688 19.519531 27.554688 19.605469 27.582031 C 19.667969 27.691406 19.617188 27.867188 19.578125 28.003906 Z M 19.578125 28.003906 "/>
<path style=" stroke:none;fill-rule:evenodd;fill:rgb(0%,60.392159%,0%);fill-opacity:1;" d="M 27.042969 24.421875 L 27.074219 24.390625 C 27.003906 24.460938 27.039062 24.4375 27.109375 24.261719 C 27.113281 24.074219 27.160156 24.042969 27.265625 23.96875 C 27.394531 23.925781 27.449219 23.871094 27.488281 23.742188 C 27.570312 23.675781 27.632812 23.582031 27.679688 23.484375 C 27.765625 23.421875 27.84375 23.347656 27.902344 23.257812 C 27.988281 23.195312 28.066406 23.121094 28.125 23.03125 C 28.246094 22.988281 28.324219 22.898438 28.476562 22.835938 C 28.558594 22.753906 28.636719 22.714844 28.761719 22.640625 C 28.898438 22.574219 28.90625 22.527344 29.078125 22.511719 C 29.132812 22.570312 29.214844 22.546875 29.238281 22.640625 C 29.230469 22.835938 29.191406 22.875 29.109375 23.03125 C 29.105469 23.207031 29.058594 23.289062 28.984375 23.417969 C 28.894531 23.484375 28.824219 23.597656 28.730469 23.675781 C 28.628906 23.746094 28.589844 23.820312 28.441406 23.902344 C 28.367188 24 28.242188 24.050781 28.125 24.128906 C 27.984375 24.1875 27.867188 24.230469 27.777344 24.292969 C 27.648438 24.324219 27.5625 24.371094 27.457031 24.421875 C 27.304688 24.4375 27.242188 24.453125 27.042969 24.421875 Z M 27.042969 24.421875 "/>
<path style=" stroke:none;fill-rule:evenodd;fill:rgb(0%,60.392159%,0%);fill-opacity:1;" d="M 26.375 25.328125 L 26.410156 25.296875 C 26.332031 25.371094 26.367188 25.339844 26.472656 25.164062 C 26.589844 25.050781 26.613281 24.964844 26.789062 24.9375 C 26.882812 24.902344 27.035156 24.878906 27.140625 24.84375 C 27.320312 24.84375 27.402344 24.824219 27.554688 24.777344 C 27.660156 24.746094 27.792969 24.695312 27.902344 24.648438 C 28.03125 24.628906 28.164062 24.578125 28.285156 24.550781 L 28.730469 24.550781 C 28.871094 24.585938 28.953125 24.585938 28.984375 24.746094 C 28.917969 24.824219 28.832031 24.894531 28.761719 24.972656 C 28.71875 25.113281 28.625 25.148438 28.539062 25.230469 C 28.390625 25.28125 28.359375 25.320312 28.1875 25.328125 C 28.042969 25.378906 27.9375 25.390625 27.773438 25.390625 C 27.605469 25.390625 27.484375 25.425781 27.332031 25.457031 C 27.203125 25.472656 27.078125 25.488281 26.917969 25.488281 C 26.777344 25.488281 26.628906 25.488281 26.535156 25.457031 C 26.335938 25.292969 26.375 25.257812 26.375 25.488281 C 26.355469 25.511719 26.335938 25.53125 26.3125 25.554688 "/>
<path style=" stroke:none;fill-rule:evenodd;fill:rgb(0%,60.392159%,0%);fill-opacity:1;" d="M 25.296875 25.8125 L 25.328125 25.8125 C 25.242188 25.8125 25.285156 25.816406 25.453125 25.78125 C 25.613281 25.734375 25.703125 25.6875 25.867188 25.683594 C 25.964844 25.625 26.085938 25.617188 26.25 25.617188 L 26.695312 25.617188 C 26.851562 25.628906 26.917969 25.671875 27.074219 25.683594 C 27.160156 25.734375 27.324219 25.773438 27.425781 25.8125 C 27.515625 25.875 27.589844 25.953125 27.710938 26.007812 C 27.683594 26.167969 27.597656 26.226562 27.488281 26.296875 C 27.382812 26.339844 27.269531 26.382812 27.109375 26.394531 C 26.953125 26.402344 26.867188 26.425781 26.695312 26.425781 C 26.53125 26.425781 26.410156 26.414062 26.28125 26.394531 C 26.175781 26.34375 26.085938 26.289062 25.933594 26.265625 C 25.855469 26.199219 25.742188 26.148438 25.644531 26.105469 C 25.558594 26.0625 25.445312 26.023438 25.359375 25.972656 L 25.644531 26.105469 C 25.558594 26.0625 25.445312 26.023438 25.296875 25.8125 Z M 25.296875 25.8125 "/>
<path style=" stroke:none;fill-rule:evenodd;fill:rgb(0%,60.392159%,0%);fill-opacity:1;" d="M 23.746094 26.566406 L 23.746094 26.539062 C 23.746094 26.613281 23.742188 26.574219 23.808594 26.425781 C 23.929688 26.375 24.070312 26.335938 24.160156 26.289062 C 24.300781 26.289062 24.484375 26.277344 24.574219 26.316406 C 24.734375 26.320312 24.839844 26.328125 24.988281 26.371094 C 25.125 26.390625 25.207031 26.433594 25.304688 26.484375 C 25.414062 26.535156 25.574219 26.601562 25.71875 26.648438 C 25.84375 26.722656 25.886719 26.769531 26.035156 26.839844 C 26.128906 26.929688 26.226562 26.984375 26.289062 27.0625 C 26.316406 27.152344 26.289062 27.265625 26.164062 27.308594 C 26.082031 27.367188 25.960938 27.394531 25.84375 27.417969 C 25.695312 27.414062 25.566406 27.398438 25.464844 27.335938 C 25.304688 27.320312 25.210938 27.277344 25.082031 27.253906 C 24.96875 27.21875 24.863281 27.1875 24.730469 27.171875 C 24.640625 27.117188 24.480469 27.070312 24.382812 27.035156 C 24.222656 26.976562 24.121094 26.902344 24 26.839844 C 23.945312 26.785156 23.867188 26.722656 23.777344 26.703125 L 24 26.839844 C 23.945312 26.785156 23.867188 26.722656 23.746094 26.566406 Z M 23.746094 26.566406 "/>
<path style=" stroke:none;fill-rule:evenodd;fill:rgb(0%,60.392159%,0%);fill-opacity:1;" d="M 22.53125 27.183594 C 22.535156 27.179688 22.679688 27.125 22.785156 27.125 C 22.878906 27.074219 23.03125 27.066406 23.167969 27.011719 C 23.339844 27.011719 23.457031 27.027344 23.546875 27.097656 C 23.679688 27.113281 23.796875 27.148438 23.898438 27.210938 C 24.019531 27.238281 24.132812 27.261719 24.246094 27.324219 C 24.398438 27.382812 24.46875 27.4375 24.566406 27.5 C 24.628906 27.570312 24.773438 27.609375 24.851562 27.671875 C 24.921875 27.75 24.921875 27.851562 24.882812 27.957031 C 24.800781 28.003906 24.664062 28.046875 24.566406 28.101562 C 24.421875 28.125 24.277344 28.128906 24.121094 28.128906 C 23.980469 28.121094 23.859375 28.097656 23.769531 28.042969 C 23.609375 27.976562 23.566406 27.921875 23.453125 27.84375 C 23.386719 27.769531 23.273438 27.710938 23.167969 27.671875 C 23.085938 27.605469 22.988281 27.5625 22.847656 27.527344 C 22.769531 27.460938 22.699219 27.394531 22.625 27.324219 C 22.535156 27.324219 22.597656 27.335938 22.53125 27.183594 Z M 22.53125 27.183594 "/>
<path style=" stroke:none;fill-rule:evenodd;fill:rgb(0%,60.392159%,0%);fill-opacity:1;" d="M 21.160156 27.464844 C 21.167969 27.464844 21.339844 27.4375 21.445312 27.4375 C 21.535156 27.398438 21.71875 27.410156 21.859375 27.410156 C 22.035156 27.414062 22.089844 27.445312 22.175781 27.519531 C 22.265625 27.570312 22.375 27.613281 22.460938 27.6875 C 22.574219 27.75 22.675781 27.832031 22.78125 27.886719 C 22.898438 27.929688 22.996094 27.980469 23.128906 27.996094 C 23.195312 28.066406 23.304688 28.125 23.382812 28.195312 C 23.472656 28.25 23.507812 28.28125 23.511719 28.417969 C 23.578125 28.464844 23.621094 28.554688 23.605469 28.585938 C 23.480469 28.644531 23.371094 28.667969 23.195312 28.671875 C 23.023438 28.671875 22.90625 28.703125 22.75 28.671875 C 22.589844 28.628906 22.527344 28.601562 22.367188 28.558594 C 22.285156 28.464844 22.226562 28.402344 22.113281 28.335938 C 22.050781 28.253906 21.980469 28.183594 21.859375 28.136719 C 21.769531 28.066406 21.632812 27.984375 21.539062 27.941406 C 21.484375 27.871094 21.375 27.796875 21.285156 27.746094 C 21.222656 27.648438 21.203125 27.632812 21.160156 27.464844 Z M 21.160156 27.464844 "/>
<path style=" stroke:none;fill-rule:evenodd;fill:rgb(0%,60.392159%,0%);fill-opacity:1;" d="M 21.003906 27.203125 L 21.003906 26.234375 C 21.152344 26.144531 21.175781 26.089844 21.226562 25.910156 C 21.304688 25.78125 21.367188 25.699219 21.417969 25.585938 C 21.492188 25.507812 21.550781 25.40625 21.578125 25.261719 C 21.636719 25.144531 21.675781 25.023438 21.800781 24.972656 C 21.910156 24.945312 22.058594 24.9375 22.210938 24.9375 C 22.421875 24.945312 22.402344 24.984375 22.402344 25.199219 C 22.386719 25.363281 22.335938 25.40625 22.277344 25.554688 C 22.230469 25.652344 22.179688 25.757812 22.117188 25.84375 C 22.070312 25.953125 21.996094 26.089844 21.925781 26.167969 C 21.871094 26.289062 21.789062 26.394531 21.769531 26.523438 C 21.679688 26.636719 21.621094 26.734375 21.546875 26.816406 C 21.484375 26.949219 21.4375 27.023438 21.324219 27.074219 C 21.257812 27.171875 21.148438 27.179688 21.003906 27.203125 Z M 21.003906 27.203125 "/>
<path style=" stroke:none;fill-rule:evenodd;fill:rgb(0%,60.392159%,0%);fill-opacity:1;" d="M 22.53125 26.6875 L 22.5 26.6875 C 22.585938 26.6875 22.539062 26.691406 22.371094 26.621094 C 22.328125 26.53125 22.339844 26.34375 22.339844 26.199219 C 22.339844 26.015625 22.371094 25.9375 22.402344 25.8125 C 22.460938 25.671875 22.507812 25.605469 22.53125 25.457031 C 22.578125 25.355469 22.625 25.25 22.65625 25.132812 C 22.714844 25.046875 22.753906 24.917969 22.785156 24.808594 C 22.890625 24.75 22.992188 24.6875 23.101562 24.648438 C 23.203125 24.597656 23.296875 24.527344 23.421875 24.488281 C 23.578125 24.515625 23.597656 24.570312 23.609375 24.746094 C 23.648438 24.875 23.597656 24.992188 23.546875 25.101562 C 23.496094 25.230469 23.464844 25.359375 23.390625 25.457031 C 23.34375 25.601562 23.296875 25.652344 23.292969 25.8125 C 23.238281 25.90625 23.214844 26.046875 23.167969 26.167969 C 23.101562 26.320312 23.042969 26.382812 22.945312 26.492188 C 22.808594 26.585938 22.761719 26.625 22.53125 26.6875 Z M 22.53125 26.6875 "/>
<path style=" stroke:none;fill-rule:evenodd;fill:rgb(0%,60.392159%,0%);fill-opacity:1;" d="M 23.800781 26.265625 C 23.800781 26.25 23.699219 26.1875 23.644531 26.105469 C 23.59375 26.007812 23.601562 25.808594 23.644531 25.683594 C 23.703125 25.53125 23.769531 25.417969 23.800781 25.296875 C 23.835938 25.191406 23.832031 25.023438 23.832031 24.875 C 23.863281 24.738281 23.910156 24.636719 23.960938 24.484375 C 24.003906 24.382812 24.082031 24.25 24.121094 24.128906 C 24.167969 24.082031 24.226562 23.984375 24.277344 23.9375 C 24.339844 23.882812 24.34375 23.871094 24.46875 23.871094 C 24.636719 23.878906 24.722656 23.894531 24.820312 24 C 24.851562 24.101562 24.851562 24.273438 24.851562 24.421875 C 24.847656 24.601562 24.832031 24.683594 24.753906 24.808594 C 24.699219 24.945312 24.582031 25.078125 24.5 25.199219 C 24.433594 25.3125 24.394531 25.417969 24.3125 25.488281 C 24.289062 25.636719 24.234375 25.703125 24.183594 25.8125 C 24.160156 25.957031 24.109375 26.023438 24.054688 26.136719 C 23.972656 26.144531 24.011719 26.167969 23.960938 26.199219 L 24.054688 26.136719 C 23.972656 26.144531 24.011719 26.167969 23.800781 26.265625 Z M 23.800781 26.265625 "/>
<path style=" stroke:none;fill-rule:evenodd;fill:rgb(0%,60.392159%,0%);fill-opacity:1;" d="M 25.074219 25.296875 C 25.054688 25.25 24.9375 25.078125 24.914062 24.972656 C 24.917969 24.789062 24.9375 24.664062 25.042969 24.550781 C 25.066406 24.4375 25.128906 24.265625 25.167969 24.164062 C 25.167969 24.011719 25.167969 23.84375 25.199219 23.742188 C 25.199219 23.570312 25.222656 23.46875 25.265625 23.355469 C 25.335938 23.246094 25.414062 23.214844 25.582031 23.160156 C 25.71875 23.113281 25.8125 23.148438 25.964844 23.191406 L 25.964844 23.644531 C 25.960938 23.816406 25.929688 23.9375 25.867188 24.035156 C 25.816406 24.144531 25.765625 24.222656 25.710938 24.355469 C 25.703125 24.53125 25.65625 24.625 25.644531 24.777344 C 25.632812 24.941406 25.617188 25.027344 25.519531 25.132812 C 25.382812 25.199219 25.34375 25.261719 25.234375 25.296875 L 25.519531 25.132812 C 25.382812 25.199219 25.34375 25.261719 25.074219 25.296875 Z M 25.074219 25.296875 "/>
<path style=" stroke:none;fill-rule:evenodd;fill:rgb(0%,60.392159%,0%);fill-opacity:1;" d="M 26.21875 24.582031 L 26.21875 24.550781 C 26.21875 24.640625 26.222656 24.59375 26.152344 24.421875 C 26.121094 24.28125 26.121094 24.128906 26.121094 23.96875 C 26.132812 23.839844 26.152344 23.6875 26.1875 23.582031 C 26.214844 23.414062 26.246094 23.3125 26.28125 23.160156 C 26.304688 23.027344 26.390625 22.882812 26.441406 22.773438 C 26.472656 22.675781 26.503906 22.476562 26.535156 22.382812 C 26.558594 22.261719 26.613281 22.222656 26.726562 22.1875 C 26.8125 22.144531 27.019531 22.144531 27.109375 22.1875 C 27.199219 22.222656 27.199219 22.296875 27.234375 22.382812 C 27.246094 22.550781 27.273438 22.675781 27.234375 22.835938 C 27.179688 22.929688 27.125 23.027344 27.074219 23.128906 C 27.011719 23.242188 26.949219 23.414062 26.886719 23.515625 C 26.835938 23.679688 26.820312 23.757812 26.726562 23.902344 C 26.691406 24.007812 26.636719 24.136719 26.566406 24.226562 C 26.523438 24.34375 26.457031 24.425781 26.40625 24.550781 C 26.324219 24.550781 26.386719 24.550781 26.21875 24.582031 Z M 26.21875 24.582031 "/>
<path style=" stroke:none;fill-rule:evenodd;fill:rgb(0%,60.392159%,0%);fill-opacity:1;" d="M 19.691406 28.03125 L 20.214844 28.03125 C 20.296875 28.109375 20.324219 28.15625 20.464844 28.175781 C 20.535156 28.238281 20.601562 28.292969 20.714844 28.316406 C 20.8125 28.335938 20.9375 28.34375 21.074219 28.34375 C 21.238281 28.339844 21.292969 28.347656 21.320312 28.203125 C 21.320312 28.058594 21.3125 28.050781 21.183594 28.03125 C 21.113281 27.976562 21 27.949219 20.878906 27.921875 C 20.789062 27.886719 20.675781 27.859375 20.574219 27.835938 C 20.476562 27.800781 20.382812 27.765625 20.296875 27.722656 C 20.320312 27.636719 20.386719 27.65625 20.464844 27.695312 C 20.5625 27.695312 20.683594 27.703125 20.742188 27.667969 C 20.808594 27.5625 20.847656 27.527344 21.019531 27.527344 C 21.179688 27.523438 21.207031 27.480469 21.351562 27.46875 C 21.488281 27.46875 21.582031 27.449219 21.683594 27.414062 C 21.828125 27.402344 21.925781 27.378906 22.042969 27.328125 C 22.078125 27.292969 21.992188 27.285156 21.929688 27.273438 C 21.847656 27.214844 21.761719 27.191406 21.625 27.1875 L 21.238281 27.1875 C 21.097656 27.1875 20.988281 27.210938 20.851562 27.214844 C 20.742188 27.253906 20.625 27.277344 20.546875 27.328125 C 20.445312 27.363281 20.382812 27.421875 20.324219 27.496094 C 20.230469 27.523438 20.128906 27.558594 20.023438 27.582031 C 19.894531 27.582031 19.75 27.582031 19.660156 27.609375 C 19.597656 27.71875 19.648438 27.894531 19.691406 28.03125 Z M 19.691406 28.03125 "/>
</g>
</svg>
