<?xml version="1.0" encoding="UTF-8"?>
<svg xmlns="http://www.w3.org/2000/svg" xmlns:xlink="http://www.w3.org/1999/xlink" width="40px" height="40px" viewBox="0 0 40 40" version="1.1">
<g id="surface1">
<rect x="0" y="0" width="40" height="40" style="fill:rgb(6.27451%,54.901963%,0%);fill-opacity:1;stroke:none;"/>
<path style=" stroke:none;fill-rule:evenodd;fill:rgb(100%,83.92157%,0%);fill-opacity:1;" d="M -20.3125 13.917969 L 60.359375 13.917969 L 60.359375 17.835938 L -20.3125 17.835938 Z M -20.3125 13.917969 "/>
<path style=" stroke:none;fill-rule:evenodd;fill:rgb(100%,83.92157%,0%);fill-opacity:1;" d="M 14.148438 0 L 17.929688 0 L 17.929688 40 L 14.148438 40 Z M 14.148438 0 "/>
<path style=" stroke:none;fill-rule:evenodd;fill:rgb(0%,0%,0%);fill-opacity:1;" d="M 17.796875 0 L 21.578125 0 L 21.578125 40 L 17.796875 40 Z M 17.796875 0 "/>
<path style=" stroke:none;fill-rule:evenodd;fill:rgb(0%,0%,0%);fill-opacity:1;" d="M -20.3125 17.703125 L 60.359375 17.703125 L 60.359375 21.621094 L -20.3125 21.621094 Z M -20.3125 17.703125 "/>
<path style=" stroke:none;fill-rule:evenodd;fill:rgb(100%,100%,100%);fill-opacity:1;" d="M -20.3125 21.621094 L 60.359375 21.621094 L 60.359375 25.539062 L -20.3125 25.539062 Z M -20.3125 21.621094 "/>
<path style=" stroke:none;fill-rule:evenodd;fill:rgb(100%,100%,100%);fill-opacity:1;" d="M 21.578125 0 L 25.363281 0 L 25.363281 40 L 21.578125 40 Z M 21.578125 0 "/>
<path style=" stroke:none;fill-rule:evenodd;fill:rgb(90.588236%,16.078432%,6.27451%);fill-opacity:1;" d="M 20.132812 30.769531 C 14.226562 30.769531 9.4375 25.960938 9.4375 20.027344 C 9.4375 14.09375 14.226562 9.285156 20.132812 9.285156 C 26.039062 9.285156 30.824219 14.09375 30.824219 20.027344 C 30.824219 25.960938 26.039062 30.769531 20.132812 30.769531 Z M 20.132812 30.769531 "/>
<path style=" stroke:none;fill-rule:evenodd;fill:rgb(0%,0%,0%);fill-opacity:1;" d="M 19.570312 10.695312 C 19.570312 10.675781 20.007812 9.445312 20.007812 9.445312 L 20.40625 10.675781 C 20.40625 10.675781 21.742188 10.71875 21.742188 10.695312 C 21.742188 10.675781 20.6875 11.503906 20.6875 11.503906 C 20.6875 11.503906 21.183594 12.914062 21.164062 12.875 C 21.144531 12.832031 20.007812 12.027344 20.007812 12.027344 C 20.007812 12.027344 18.855469 12.832031 18.875 12.832031 C 18.894531 12.832031 19.3125 11.503906 19.3125 11.503906 L 18.277344 10.71875 Z M 19.570312 10.695312 "/>
<path style=" stroke:none;fill-rule:evenodd;fill:rgb(100%,90.588236%,0%);fill-opacity:1;" d="M 19.628906 10.757812 C 19.628906 10.742188 20.011719 9.675781 20.011719 9.675781 L 20.355469 10.742188 C 20.355469 10.742188 21.511719 10.777344 21.511719 10.757812 C 21.511719 10.742188 20.597656 11.457031 20.597656 11.457031 C 20.597656 11.457031 21.027344 12.679688 21.011719 12.644531 C 20.992188 12.609375 20.011719 11.910156 20.011719 11.910156 C 20.011719 11.910156 19.007812 12.609375 19.027344 12.609375 C 19.042969 12.609375 19.40625 11.457031 19.40625 11.457031 L 18.507812 10.777344 Z M 19.628906 10.757812 "/>
<path style=" stroke:none;fill-rule:evenodd;fill:rgb(6.27451%,54.901963%,0%);fill-opacity:1;" d="M 19.792969 10.9375 C 19.792969 10.925781 20.011719 10.3125 20.011719 10.3125 L 20.210938 10.925781 C 20.210938 10.925781 20.875 10.945312 20.875 10.9375 C 20.875 10.925781 20.347656 11.339844 20.347656 11.339844 C 20.347656 11.339844 20.597656 12.042969 20.585938 12.023438 C 20.578125 12.003906 20.011719 11.601562 20.011719 11.601562 C 20.011719 11.601562 19.433594 12.003906 19.441406 12.003906 C 19.453125 12.003906 19.660156 11.339844 19.660156 11.339844 L 19.144531 10.945312 Z M 19.792969 10.9375 "/>
<path style=" stroke:none;fill-rule:evenodd;fill:rgb(0%,0%,0%);fill-opacity:1;" d="M 27.878906 16.546875 C 27.878906 16.527344 28.320312 15.296875 28.320312 15.296875 L 28.71875 16.527344 C 28.71875 16.527344 30.050781 16.566406 30.050781 16.546875 C 30.050781 16.527344 28.996094 17.351562 28.996094 17.351562 C 28.996094 17.351562 29.492188 18.765625 29.472656 18.722656 C 29.453125 18.683594 28.320312 17.878906 28.320312 17.878906 C 28.320312 17.878906 27.164062 18.683594 27.183594 18.683594 C 27.203125 18.683594 27.621094 17.351562 27.621094 17.351562 L 26.585938 16.566406 Z M 27.878906 16.546875 "/>
<path style=" stroke:none;fill-rule:evenodd;fill:rgb(100%,90.588236%,0%);fill-opacity:1;" d="M 27.941406 16.609375 C 27.941406 16.59375 28.320312 15.527344 28.320312 15.527344 L 28.664062 16.59375 C 28.664062 16.59375 29.820312 16.625 29.820312 16.609375 C 29.820312 16.59375 28.90625 17.308594 28.90625 17.308594 C 28.90625 17.308594 29.335938 18.53125 29.320312 18.496094 C 29.304688 18.460938 28.320312 17.761719 28.320312 17.761719 C 28.320312 17.761719 27.320312 18.460938 27.335938 18.460938 C 27.355469 18.460938 27.714844 17.308594 27.714844 17.308594 L 26.820312 16.625 Z M 27.941406 16.609375 "/>
<path style=" stroke:none;fill-rule:evenodd;fill:rgb(6.27451%,54.901963%,0%);fill-opacity:1;" d="M 28.101562 16.785156 C 28.101562 16.777344 28.320312 16.164062 28.320312 16.164062 L 28.519531 16.777344 C 28.519531 16.777344 29.183594 16.796875 29.183594 16.785156 C 29.183594 16.777344 28.65625 17.1875 28.65625 17.1875 C 28.65625 17.1875 28.90625 17.894531 28.898438 17.875 C 28.886719 17.851562 28.320312 17.449219 28.320312 17.449219 C 28.320312 17.449219 27.742188 17.851562 27.753906 17.851562 C 27.761719 17.851562 27.972656 17.1875 27.972656 17.1875 L 27.453125 16.796875 Z M 28.101562 16.785156 "/>
<path style=" stroke:none;fill-rule:evenodd;fill:rgb(0%,0%,0%);fill-opacity:1;" d="M 25.457031 25.832031 C 25.457031 25.8125 25.898438 24.582031 25.898438 24.582031 L 26.296875 25.8125 C 26.296875 25.8125 27.628906 25.851562 27.628906 25.832031 C 27.628906 25.8125 26.574219 26.636719 26.574219 26.636719 C 26.574219 26.636719 27.070312 28.050781 27.050781 28.007812 C 27.03125 27.96875 25.898438 27.164062 25.898438 27.164062 C 25.898438 27.164062 24.742188 27.96875 24.761719 27.96875 C 24.78125 27.96875 25.199219 26.636719 25.199219 26.636719 L 24.164062 25.851562 Z M 25.457031 25.832031 "/>
<path style=" stroke:none;fill-rule:evenodd;fill:rgb(100%,90.588236%,0%);fill-opacity:1;" d="M 25.519531 25.894531 C 25.519531 25.878906 25.898438 24.8125 25.898438 24.8125 L 26.242188 25.878906 C 26.242188 25.878906 27.398438 25.910156 27.398438 25.894531 C 27.398438 25.878906 26.484375 26.59375 26.484375 26.59375 C 26.484375 26.59375 26.914062 27.816406 26.898438 27.78125 C 26.882812 27.746094 25.898438 27.046875 25.898438 27.046875 C 25.898438 27.046875 24.898438 27.746094 24.914062 27.746094 C 24.933594 27.746094 25.292969 26.59375 25.292969 26.59375 L 24.398438 25.910156 Z M 25.519531 25.894531 "/>
<path style=" stroke:none;fill-rule:evenodd;fill:rgb(6.27451%,54.901963%,0%);fill-opacity:1;" d="M 25.679688 26.070312 C 25.679688 26.0625 25.898438 25.449219 25.898438 25.449219 L 26.097656 26.0625 C 26.097656 26.0625 26.761719 26.082031 26.761719 26.070312 C 26.761719 26.0625 26.234375 26.472656 26.234375 26.472656 C 26.234375 26.472656 26.484375 27.179688 26.476562 27.160156 C 26.464844 27.136719 25.898438 26.734375 25.898438 26.734375 C 25.898438 26.734375 25.320312 27.136719 25.332031 27.136719 C 25.339844 27.136719 25.550781 26.472656 25.550781 26.472656 L 25.03125 26.082031 Z M 25.679688 26.070312 "/>
<path style=" stroke:none;fill-rule:evenodd;fill:rgb(0%,0%,0%);fill-opacity:1;" d="M 13.839844 25.832031 C 13.839844 25.8125 14.28125 24.582031 14.28125 24.582031 L 14.675781 25.8125 C 14.675781 25.8125 16.011719 25.851562 16.011719 25.832031 C 16.011719 25.8125 14.957031 26.636719 14.957031 26.636719 C 14.957031 26.636719 15.453125 28.050781 15.433594 28.007812 C 15.414062 27.96875 14.28125 27.164062 14.28125 27.164062 C 14.28125 27.164062 13.125 27.96875 13.144531 27.96875 C 13.164062 27.96875 13.582031 26.636719 13.582031 26.636719 L 12.546875 25.851562 Z M 13.839844 25.832031 "/>
<path style=" stroke:none;fill-rule:evenodd;fill:rgb(100%,90.588236%,0%);fill-opacity:1;" d="M 13.902344 25.894531 C 13.902344 25.878906 14.28125 24.8125 14.28125 24.8125 L 14.625 25.878906 C 14.625 25.878906 15.78125 25.910156 15.78125 25.894531 C 15.78125 25.878906 14.867188 26.59375 14.867188 26.59375 C 14.867188 26.59375 15.296875 27.816406 15.28125 27.78125 C 15.261719 27.746094 14.28125 27.046875 14.28125 27.046875 C 14.28125 27.046875 13.28125 27.746094 13.296875 27.746094 C 13.3125 27.746094 13.675781 26.59375 13.675781 26.59375 L 12.78125 25.910156 Z M 13.902344 25.894531 "/>
<path style=" stroke:none;fill-rule:evenodd;fill:rgb(6.27451%,54.901963%,0%);fill-opacity:1;" d="M 14.0625 26.070312 C 14.0625 26.0625 14.28125 25.449219 14.28125 25.449219 L 14.480469 26.0625 C 14.480469 26.0625 15.144531 26.082031 15.144531 26.070312 C 15.144531 26.0625 14.617188 26.472656 14.617188 26.472656 C 14.617188 26.472656 14.867188 27.179688 14.855469 27.160156 C 14.847656 27.136719 14.28125 26.734375 14.28125 26.734375 C 14.28125 26.734375 13.703125 27.136719 13.714844 27.136719 C 13.722656 27.136719 13.933594 26.472656 13.933594 26.472656 L 13.414062 26.082031 Z M 14.0625 26.070312 "/>
<path style=" stroke:none;fill-rule:evenodd;fill:rgb(0%,0%,0%);fill-opacity:1;" d="M 11.71875 16.308594 C 11.71875 16.289062 12.15625 15.058594 12.15625 15.058594 L 12.554688 16.289062 C 12.554688 16.289062 13.890625 16.328125 13.890625 16.308594 C 13.890625 16.289062 12.835938 17.113281 12.835938 17.113281 C 12.835938 17.113281 13.332031 18.523438 13.3125 18.484375 C 13.292969 18.445312 12.15625 17.636719 12.15625 17.636719 C 12.15625 17.636719 11.003906 18.445312 11.023438 18.445312 C 11.042969 18.445312 11.460938 17.113281 11.460938 17.113281 L 10.425781 16.328125 Z M 11.71875 16.308594 "/>
<path style=" stroke:none;fill-rule:evenodd;fill:rgb(100%,90.588236%,0%);fill-opacity:1;" d="M 11.777344 16.371094 C 11.777344 16.351562 12.160156 15.289062 12.160156 15.289062 L 12.503906 16.351562 C 12.503906 16.351562 13.660156 16.386719 13.660156 16.371094 C 13.660156 16.351562 12.746094 17.070312 12.746094 17.070312 C 12.746094 17.070312 13.175781 18.289062 13.160156 18.253906 C 13.140625 18.222656 12.160156 17.523438 12.160156 17.523438 C 12.160156 17.523438 11.15625 18.222656 11.175781 18.222656 C 11.191406 18.222656 11.554688 17.070312 11.554688 17.070312 L 10.65625 16.386719 Z M 11.777344 16.371094 "/>
<path style=" stroke:none;fill-rule:evenodd;fill:rgb(6.27451%,54.901963%,0%);fill-opacity:1;" d="M 11.941406 16.546875 C 11.941406 16.539062 12.160156 15.921875 12.160156 15.921875 L 12.355469 16.539062 C 12.355469 16.539062 13.023438 16.558594 13.023438 16.546875 C 13.023438 16.539062 12.496094 16.949219 12.496094 16.949219 C 12.496094 16.949219 12.746094 17.65625 12.734375 17.632812 C 12.726562 17.613281 12.160156 17.210938 12.160156 17.210938 C 12.160156 17.210938 11.582031 17.613281 11.589844 17.613281 C 11.601562 17.613281 11.808594 16.949219 11.808594 16.949219 L 11.292969 16.558594 Z M 11.941406 16.546875 "/>
<path style=" stroke:none;fill-rule:evenodd;fill:rgb(0%,0%,0%);fill-opacity:1;" d="M 25.359375 13.605469 C 25.359375 13.625 24.921875 14.855469 24.921875 14.855469 L 24.523438 13.625 C 24.523438 13.625 23.191406 13.585938 23.191406 13.605469 C 23.191406 13.625 24.246094 12.796875 24.246094 12.796875 C 24.246094 12.796875 23.746094 11.386719 23.765625 11.425781 C 23.789062 11.46875 24.921875 12.273438 24.921875 12.273438 C 24.921875 12.273438 26.078125 11.46875 26.058594 11.46875 C 26.039062 11.46875 25.621094 12.796875 25.621094 12.796875 L 26.65625 13.585938 Z M 25.359375 13.605469 "/>
<path style=" stroke:none;fill-rule:evenodd;fill:rgb(100%,90.588236%,0%);fill-opacity:1;" d="M 25.300781 13.542969 C 25.300781 13.558594 24.921875 14.625 24.921875 14.625 L 24.578125 13.558594 C 24.578125 13.558594 23.421875 13.523438 23.421875 13.542969 C 23.421875 13.558594 24.335938 12.84375 24.335938 12.84375 C 24.335938 12.84375 23.902344 11.621094 23.921875 11.65625 C 23.9375 11.691406 24.921875 12.390625 24.921875 12.390625 C 24.921875 12.390625 25.921875 11.691406 25.90625 11.691406 C 25.886719 11.691406 25.523438 12.84375 25.523438 12.84375 L 26.421875 13.523438 Z M 25.300781 13.542969 "/>
<path style=" stroke:none;fill-rule:evenodd;fill:rgb(6.27451%,54.901963%,0%);fill-opacity:1;" d="M 25.140625 13.363281 C 25.140625 13.375 24.921875 13.988281 24.921875 13.988281 L 24.722656 13.375 C 24.722656 13.375 24.054688 13.355469 24.054688 13.363281 C 24.054688 13.375 24.582031 12.960938 24.582031 12.960938 C 24.582031 12.960938 24.335938 12.257812 24.34375 12.277344 C 24.355469 12.296875 24.921875 12.699219 24.921875 12.699219 C 24.921875 12.699219 25.5 12.296875 25.488281 12.296875 C 25.480469 12.296875 25.269531 12.960938 25.269531 12.960938 L 25.785156 13.355469 Z M 25.140625 13.363281 "/>
<path style=" stroke:none;fill-rule:evenodd;fill:rgb(0%,0%,0%);fill-opacity:1;" d="M 28.695312 22.679688 C 28.695312 22.699219 28.257812 23.929688 28.257812 23.929688 L 27.859375 22.699219 C 27.859375 22.699219 26.527344 22.65625 26.527344 22.679688 C 26.527344 22.699219 27.582031 21.871094 27.582031 21.871094 C 27.582031 21.871094 27.082031 20.460938 27.101562 20.5 C 27.125 20.542969 28.257812 21.347656 28.257812 21.347656 C 28.257812 21.347656 29.414062 20.542969 29.394531 20.542969 C 29.375 20.542969 28.957031 21.871094 28.957031 21.871094 L 29.992188 22.65625 Z M 28.695312 22.679688 "/>
<path style=" stroke:none;fill-rule:evenodd;fill:rgb(100%,90.588236%,0%);fill-opacity:1;" d="M 28.636719 22.617188 C 28.636719 22.632812 28.257812 23.699219 28.257812 23.699219 L 27.914062 22.632812 C 27.914062 22.632812 26.757812 22.597656 26.757812 22.617188 C 26.757812 22.632812 27.671875 21.917969 27.671875 21.917969 C 27.671875 21.917969 27.238281 20.695312 27.257812 20.730469 C 27.273438 20.765625 28.257812 21.464844 28.257812 21.464844 C 28.257812 21.464844 29.257812 20.765625 29.242188 20.765625 C 29.222656 20.765625 28.859375 21.917969 28.859375 21.917969 L 29.757812 22.597656 Z M 28.636719 22.617188 "/>
<path style=" stroke:none;fill-rule:evenodd;fill:rgb(6.27451%,54.901963%,0%);fill-opacity:1;" d="M 28.476562 22.4375 C 28.476562 22.449219 28.257812 23.0625 28.257812 23.0625 L 28.058594 22.449219 C 28.058594 22.449219 27.390625 22.429688 27.390625 22.4375 C 27.390625 22.449219 27.917969 22.035156 27.917969 22.035156 C 27.917969 22.035156 27.671875 21.332031 27.679688 21.351562 C 27.691406 21.371094 28.257812 21.773438 28.257812 21.773438 C 28.257812 21.773438 28.835938 21.371094 28.824219 21.371094 C 28.816406 21.371094 28.605469 22.035156 28.605469 22.035156 L 29.121094 22.429688 Z M 28.476562 22.4375 "/>
<path style=" stroke:none;fill-rule:evenodd;fill:rgb(0%,0%,0%);fill-opacity:1;" d="M 20.425781 29.316406 C 20.425781 29.335938 19.984375 30.566406 19.984375 30.566406 L 19.585938 29.335938 C 19.585938 29.335938 18.253906 29.296875 18.253906 29.316406 C 18.253906 29.335938 19.308594 28.511719 19.308594 28.511719 C 19.308594 28.511719 18.8125 27.097656 18.832031 27.140625 C 18.851562 27.179688 19.984375 27.984375 19.984375 27.984375 C 19.984375 27.984375 21.140625 27.179688 21.121094 27.179688 C 21.101562 27.179688 20.683594 28.511719 20.683594 28.511719 L 21.71875 29.296875 Z M 20.425781 29.316406 "/>
<path style=" stroke:none;fill-rule:evenodd;fill:rgb(100%,90.588236%,0%);fill-opacity:1;" d="M 20.363281 29.253906 C 20.363281 29.269531 19.984375 30.335938 19.984375 30.335938 L 19.640625 29.269531 C 19.640625 29.269531 18.484375 29.238281 18.484375 29.253906 C 18.484375 29.269531 19.398438 28.554688 19.398438 28.554688 C 19.398438 28.554688 18.96875 27.332031 18.984375 27.367188 C 19 27.402344 19.984375 28.101562 19.984375 28.101562 C 19.984375 28.101562 20.984375 27.402344 20.96875 27.402344 C 20.949219 27.402344 20.589844 28.554688 20.589844 28.554688 L 21.484375 29.238281 Z M 20.363281 29.253906 "/>
<path style=" stroke:none;fill-rule:evenodd;fill:rgb(6.27451%,54.901963%,0%);fill-opacity:1;" d="M 20.203125 29.078125 C 20.203125 29.085938 19.984375 29.699219 19.984375 29.699219 L 19.785156 29.085938 C 19.785156 29.085938 19.121094 29.066406 19.121094 29.078125 C 19.121094 29.085938 19.648438 28.675781 19.648438 28.675781 C 19.648438 28.675781 19.398438 27.96875 19.40625 27.988281 C 19.417969 28.011719 19.984375 28.414062 19.984375 28.414062 C 19.984375 28.414062 20.5625 28.011719 20.550781 28.011719 C 20.542969 28.011719 20.332031 28.675781 20.332031 28.675781 L 20.851562 29.066406 Z M 20.203125 29.078125 "/>
<path style=" stroke:none;fill-rule:evenodd;fill:rgb(0%,0%,0%);fill-opacity:1;" d="M 12.652344 22.679688 C 12.652344 22.699219 12.214844 23.929688 12.214844 23.929688 L 11.816406 22.699219 C 11.816406 22.699219 10.480469 22.65625 10.480469 22.679688 C 10.480469 22.699219 11.535156 21.871094 11.535156 21.871094 C 11.535156 21.871094 11.039062 20.460938 11.058594 20.5 C 11.078125 20.542969 12.214844 21.347656 12.214844 21.347656 C 12.214844 21.347656 13.367188 20.542969 13.347656 20.542969 C 13.328125 20.542969 12.910156 21.871094 12.910156 21.871094 L 13.945312 22.65625 Z M 12.652344 22.679688 "/>
<path style=" stroke:none;fill-rule:evenodd;fill:rgb(100%,90.588236%,0%);fill-opacity:1;" d="M 12.589844 22.617188 C 12.589844 22.632812 12.210938 23.699219 12.210938 23.699219 L 11.867188 22.632812 C 11.867188 22.632812 10.710938 22.597656 10.710938 22.617188 C 10.710938 22.632812 11.625 21.917969 11.625 21.917969 C 11.625 21.917969 11.195312 20.695312 11.210938 20.730469 C 11.230469 20.765625 12.210938 21.464844 12.210938 21.464844 C 12.210938 21.464844 13.210938 20.765625 13.195312 20.765625 C 13.179688 20.765625 12.816406 21.917969 12.816406 21.917969 L 13.710938 22.597656 Z M 12.589844 22.617188 "/>
<path style=" stroke:none;fill-rule:evenodd;fill:rgb(6.27451%,54.901963%,0%);fill-opacity:1;" d="M 12.429688 22.4375 C 12.429688 22.449219 12.210938 23.0625 12.210938 23.0625 L 12.011719 22.449219 C 12.011719 22.449219 11.347656 22.429688 11.347656 22.4375 C 11.347656 22.449219 11.875 22.035156 11.875 22.035156 C 11.875 22.035156 11.625 21.332031 11.636719 21.351562 C 11.644531 21.371094 12.210938 21.773438 12.210938 21.773438 C 12.210938 21.773438 12.789062 21.371094 12.777344 21.371094 C 12.769531 21.371094 12.558594 22.035156 12.558594 22.035156 L 13.078125 22.429688 Z M 12.429688 22.4375 "/>
<path style=" stroke:none;fill-rule:evenodd;fill:rgb(0%,0%,0%);fill-opacity:1;" d="M 15.519531 13.738281 C 15.519531 13.757812 15.082031 14.988281 15.082031 14.988281 L 14.683594 13.757812 C 14.683594 13.757812 13.347656 13.71875 13.347656 13.738281 C 13.347656 13.757812 14.40625 12.933594 14.40625 12.933594 C 14.40625 12.933594 13.90625 11.519531 13.925781 11.5625 C 13.945312 11.601562 15.082031 12.40625 15.082031 12.40625 C 15.082031 12.40625 16.238281 11.601562 16.21875 11.601562 C 16.195312 11.601562 15.777344 12.933594 15.777344 12.933594 L 16.816406 13.71875 Z M 15.519531 13.738281 "/>
<path style=" stroke:none;fill-rule:evenodd;fill:rgb(100%,90.588236%,0%);fill-opacity:1;" d="M 15.460938 13.675781 C 15.460938 13.691406 15.082031 14.757812 15.082031 14.757812 L 14.734375 13.691406 C 14.734375 13.691406 13.578125 13.660156 13.578125 13.675781 C 13.578125 13.691406 14.496094 12.976562 14.496094 12.976562 C 14.496094 12.976562 14.0625 11.753906 14.082031 11.789062 C 14.097656 11.824219 15.082031 12.523438 15.082031 12.523438 C 15.082031 12.523438 16.082031 11.824219 16.0625 11.824219 C 16.046875 11.824219 15.683594 12.976562 15.683594 12.976562 L 16.582031 13.660156 Z M 15.460938 13.675781 "/>
<path style=" stroke:none;fill-rule:evenodd;fill:rgb(6.27451%,54.901963%,0%);fill-opacity:1;" d="M 15.300781 13.5 C 15.300781 13.507812 15.082031 14.121094 15.082031 14.121094 L 14.882812 13.507812 C 14.882812 13.507812 14.214844 13.488281 14.214844 13.5 C 14.214844 13.507812 14.742188 13.097656 14.742188 13.097656 C 14.742188 13.097656 14.496094 12.390625 14.503906 12.410156 C 14.515625 12.433594 15.082031 12.835938 15.082031 12.835938 C 15.082031 12.835938 15.65625 12.433594 15.648438 12.433594 C 15.636719 12.433594 15.429688 13.097656 15.429688 13.097656 L 15.945312 13.488281 Z M 15.300781 13.5 "/>
<path style="fill-rule:evenodd;fill:rgb(0%,57.254905%,0%);fill-opacity:1;stroke-width:2.5;stroke-linecap:butt;stroke-linejoin:miter;stroke:rgb(0%,0%,0%);stroke-opacity:1;stroke-miterlimit:4;" d="M 711.017732 586.228578 C 710.927502 481.374898 697.302333 396.254975 680.264222 396.399844 C 663.241016 396.284544 649.333907 481.234054 649.424137 586.087734 C 649.305676 690.914295 663.139536 776.061337 680.177647 775.916468 C 697.200853 776.031768 711.107962 691.082258 711.017732 586.228578 Z M 711.017732 586.228578 " transform="matrix(0.0185796,-0.00193667,0.00106439,0.0149034,8.38048,15.27303)"/>
<path style="fill-rule:evenodd;fill:rgb(0%,57.254905%,0%);fill-opacity:1;stroke-width:2.5;stroke-linecap:butt;stroke-linejoin:miter;stroke:rgb(0%,0%,0%);stroke-opacity:1;stroke-miterlimit:4;" d="M 710.981714 586.081183 C 710.92963 481.227725 697.27156 396.264241 680.176645 396.279249 C 663.279026 396.321309 649.314689 481.166863 649.366774 586.02032 C 649.418859 690.873778 663.274224 775.864315 680.171843 775.822254 C 697.252584 776.067419 711.033799 690.934641 710.981714 586.081183 Z M 710.981714 586.081183 " transform="matrix(0.0196523,-0.00204345,0.00107061,0.0149028,8.212641,15.339719)"/>
<path style="fill-rule:evenodd;fill:rgb(0%,57.254905%,0%);fill-opacity:1;stroke-width:2.5;stroke-linecap:butt;stroke-linejoin:miter;stroke:rgb(0%,0%,0%);stroke-opacity:1;stroke-miterlimit:4;" d="M 711.135691 586.15743 C 711.089136 481.349577 697.179164 396.246635 680.285777 396.202882 C 663.128534 396.369633 649.46987 481.300775 649.516425 586.108627 C 649.316318 690.891606 663.22629 775.994549 680.119677 776.038301 C 697.27692 775.87155 710.935584 690.940408 711.135691 586.15743 Z M 711.135691 586.15743 " transform="matrix(0.0157206,-0.00166127,0.00114841,0.0164743,10.573131,14.309993)"/>
<path style="fill-rule:evenodd;fill:rgb(66.274512%,33.725491%,0%);fill-opacity:1;stroke-width:2.5054;stroke-linecap:butt;stroke-linejoin:miter;stroke:rgb(0%,0%,0%);stroke-opacity:1;stroke-miterlimit:4;" d="M 238.277028 971.786832 C 268.298991 970.168433 254.886104 955.033168 269.992873 946.884132 C 284.856808 938.513261 306.660534 943.576838 313.29165 953.40363 C 319.927155 963.456142 314.874528 973.473408 323.224448 973.563076 C 331.569979 973.427023 557.915944 960.705284 566.189829 969.150535 C 574.459325 977.370065 576.214806 994.050134 567.758126 1000.735998 C 559.539889 1007.417975 273.226033 1015.020931 263.318157 1008.408662 C 253.410281 1001.796394 238.307755 973.366883 238.277028 971.786832 Z M 238.277028 971.786832 " transform="matrix(0.0163771,0.000282036,-0.000318473,0.0173001,13.891581,7.280913)"/>
<path style="fill-rule:evenodd;fill:rgb(100%,100%,0%);fill-opacity:1;stroke-width:3.8527;stroke-linecap:butt;stroke-linejoin:miter;stroke:rgb(0%,0%,0%);stroke-opacity:1;stroke-miterlimit:4;" d="M 529.552522 405.66844 C 529.637265 445.276649 575.097802 433.546622 576.369621 466.813926 C 575.7236 502.220787 499.757848 470.225476 497.897924 405.364741 C 499.633761 340.864151 572.753226 307.594145 574.421791 344.647106 C 575.63872 374.965691 529.459939 365.638985 529.552522 405.66844 Z M 529.552522 405.66844 " transform="matrix(0.0119722,0.000157865,-0.000222859,0.00927015,13.855988,20.679231)"/>
<path style="fill-rule:evenodd;fill:rgb(100%,100%,0%);fill-opacity:1;stroke-width:3.8527;stroke-linecap:butt;stroke-linejoin:miter;stroke:rgb(0%,0%,0%);stroke-opacity:1;stroke-miterlimit:4;" d="M 529.603943 405.626413 C 529.688685 445.234622 575.149223 433.504594 576.421042 466.771899 C 575.775021 502.17876 499.809268 470.183449 497.623171 405.328268 C 499.685181 340.822124 572.804647 307.552117 574.473212 344.605079 C 575.697983 375.344909 529.51136 365.596958 529.603943 405.626413 Z M 529.603943 405.626413 " transform="matrix(0.0119722,0.000157865,-0.000222859,0.00927015,14.179582,20.683519)"/>
<path style="fill-rule:evenodd;fill:rgb(100%,100%,0%);fill-opacity:1;stroke-width:3.8527;stroke-linecap:butt;stroke-linejoin:miter;stroke:rgb(0%,0%,0%);stroke-opacity:1;stroke-miterlimit:4;" d="M 529.649297 405.353882 C 529.74188 445.383336 575.194576 433.232063 576.466395 466.499368 C 575.820375 501.906229 499.536289 470.337718 497.676366 405.476983 C 499.730535 340.549593 572.857841 307.700832 574.518566 344.332548 C 575.743336 375.072378 529.556713 365.324427 529.649297 405.353882 Z M 529.649297 405.353882 " transform="matrix(0.0119722,0.000157865,-0.000222859,0.00927015,14.526634,20.670413)"/>
<path style="fill-rule:evenodd;fill:rgb(100%,100%,0%);fill-opacity:1;stroke-width:3.8527;stroke-linecap:butt;stroke-linejoin:miter;stroke:rgb(0%,0%,0%);stroke-opacity:1;stroke-miterlimit:4;" d="M 529.700717 405.311855 C 529.467127 445.346864 575.245997 433.190036 576.525657 466.878586 C 575.553463 502.291002 499.58771 470.295691 497.727786 405.434955 C 499.789797 340.928811 572.909262 307.658805 574.569986 344.290521 C 575.794757 375.030351 529.608134 365.2824 529.700717 405.311855 Z M 529.700717 405.311855 " transform="matrix(0.0119722,0.000157865,-0.000222859,0.00927015,14.850228,20.674701)"/>
<path style="fill-rule:evenodd;fill:rgb(66.274512%,33.725491%,0%);fill-opacity:1;stroke-width:0.39908;stroke-linecap:butt;stroke-linejoin:miter;stroke:rgb(0%,0%,0%);stroke-opacity:1;stroke-miterlimit:4;" d="M 481.904192 -41.103086 C 481.907446 -42.944667 480.329496 -44.470685 478.388043 -44.4848 C 476.44659 -44.498915 474.848207 -42.96937 474.845882 -41.08595 C 474.843556 -39.20253 476.421506 -37.676512 478.362959 -37.662396 C 480.347586 -37.690751 481.901866 -39.219666 481.904192 -41.103086 Z M 481.904192 -41.103086 " transform="matrix(0.0885433,0.00133345,-0.0019647,0.0933325,-19.797037,27.666317)"/>
<path style="fill-rule:evenodd;fill:rgb(0%,57.254905%,0%);fill-opacity:1;stroke-width:2.5;stroke-linecap:butt;stroke-linejoin:miter;stroke:rgb(0%,0%,0%);stroke-opacity:1;stroke-miterlimit:4;" d="M 447.871801 904.944214 C 447.928947 891.699298 438.703415 880.800535 427.25375 880.818194 C 415.515256 880.81298 406.26656 891.635304 406.178524 905.031837 C 406.410207 918.299626 415.635739 929.198389 427.085404 929.18073 C 438.53507 929.163071 447.783765 918.340747 447.871801 904.944214 Z M 447.871801 904.944214 " transform="matrix(0.0133097,-0.0020079,0.00271175,0.0253548,12.624044,1.317844)"/>
<path style="fill-rule:evenodd;fill:rgb(0%,57.254905%,0%);fill-opacity:1;stroke-width:2.5;stroke-linecap:butt;stroke-linejoin:miter;stroke:rgb(0%,0%,0%);stroke-opacity:1;stroke-miterlimit:4;" d="M 447.817713 905.029896 C 447.905749 891.633363 438.649327 880.886217 427.199661 880.903876 C 415.461167 880.898662 406.212472 891.720986 406.444155 904.988775 C 406.356119 918.385307 415.612542 929.132454 427.062207 929.114795 C 438.511872 929.097136 448.049396 918.297685 447.817713 905.029896 Z M 447.817713 905.029896 " transform="matrix(0.0133097,-0.0020079,0.00271175,0.0253548,12.151875,1.280407)"/>
<path style="fill-rule:evenodd;fill:rgb(0%,57.254905%,0%);fill-opacity:1;stroke-width:2.5;stroke-linecap:butt;stroke-linejoin:miter;stroke:rgb(0%,0%,0%);stroke-opacity:1;stroke-miterlimit:4;" d="M 447.966845 904.984305 C 448.02399 891.739389 438.509629 880.817753 427.059964 880.835412 C 415.610299 880.853072 406.361603 891.675395 406.273567 905.071928 C 406.216422 918.316844 415.761673 929.086863 427.180448 929.220821 C 438.630113 929.203162 447.878808 918.380838 447.966845 904.984305 Z M 447.966845 904.984305 " transform="matrix(0.0133097,-0.0020079,0.00271175,0.0253548,11.814076,0.676393)"/>
<path style="fill-rule:evenodd;fill:rgb(0%,57.254905%,0%);fill-opacity:1;stroke-width:2.5;stroke-linecap:butt;stroke-linejoin:miter;stroke:rgb(0%,0%,0%);stroke-opacity:1;stroke-miterlimit:4;" d="M 448.056537 904.9638 C 447.784751 891.677862 438.705451 880.826986 427.10602 880.825764 C 415.506588 880.824542 406.286107 891.608432 406.225782 905.009991 C 406.197357 918.274212 415.576868 929.146805 427.176299 929.148027 C 438.475519 929.127532 447.996212 918.365358 448.056537 904.9638 Z M 448.056537 904.9638 " transform="matrix(0.0127967,-0.00202352,0.00297238,0.0279727,12.275704,-1.712327)"/>
<path style="fill-rule:evenodd;fill:rgb(0%,57.254905%,0%);fill-opacity:1;stroke-width:2.5;stroke-linecap:butt;stroke-linejoin:miter;stroke:rgb(0%,0%,0%);stroke-opacity:1;stroke-miterlimit:4;" d="M 448.048852 904.99824 C 447.89427 891.731326 438.662169 880.907174 427.062538 880.925618 C 415.494901 880.79754 406.394955 891.727929 406.249336 904.972193 C 406.371925 918.385629 415.604025 929.20978 427.203656 929.191337 C 438.503085 929.150243 447.871239 918.389026 448.048852 904.99824 Z M 448.048852 904.99824 " transform="matrix(0.0128012,-0.00197884,0.0027952,0.0262278,13.094168,-0.146384)"/>
<path style="fill-rule:evenodd;fill:rgb(0%,57.254905%,0%);fill-opacity:1;stroke-width:2.5;stroke-linecap:butt;stroke-linejoin:miter;stroke:rgb(0%,0%,0%);stroke-opacity:1;stroke-miterlimit:4;" d="M 448.021039 904.985734 C 447.866457 891.71882 438.634357 880.894669 427.034726 880.913112 C 415.76729 880.807684 406.367143 891.715423 406.221523 904.959687 C 406.344112 918.373123 415.576212 929.197274 427.175843 929.178831 C 438.475273 929.137738 447.843426 918.37652 448.021039 904.985734 Z M 448.021039 904.985734 " transform="matrix(0.0128012,-0.00197884,0.0027952,0.0262278,12.731277,-0.364862)"/>
<path style="fill-rule:evenodd;fill:rgb(0%,57.254905%,0%);fill-opacity:1;stroke-width:2.5;stroke-linecap:butt;stroke-linejoin:miter;stroke:rgb(0%,0%,0%);stroke-opacity:1;stroke-miterlimit:4;" d="M 448.049862 904.950089 C 447.89528 891.683175 438.663179 880.859024 427.063548 880.877467 C 415.463917 880.895911 406.395965 891.679778 406.250346 904.924043 C 406.372935 918.337478 415.605035 929.161629 427.204666 929.143186 C 438.504095 929.102093 447.872249 918.340875 448.049862 904.950089 Z M 448.049862 904.950089 " transform="matrix(0.0128012,-0.00197884,0.0027952,0.0262278,12.273977,-0.680276)"/>
<path style="fill-rule:evenodd;fill:rgb(0%,57.254905%,0%);fill-opacity:1;stroke-width:2.5;stroke-linecap:butt;stroke-linejoin:miter;stroke:rgb(0%,0%,0%);stroke-opacity:1;stroke-miterlimit:4;" d="M 447.942126 904.930163 C 447.787543 891.663248 438.555443 880.839097 427.256014 880.88019 C 415.656383 880.898634 406.288229 891.659852 406.410818 905.073287 C 406.265198 918.317552 415.497298 929.141703 427.09693 929.123259 C 438.696561 929.104816 448.064714 918.343598 447.942126 904.930163 Z M 447.942126 904.930163 " transform="matrix(0.0128012,-0.00197884,0.0027952,0.0262278,11.84963,-0.871373)"/>
<path style="fill-rule:evenodd;fill:rgb(50.196081%,29.411766%,100%);fill-opacity:1;stroke-width:2.5;stroke-linecap:butt;stroke-linejoin:miter;stroke:rgb(0%,0%,0%);stroke-opacity:1;stroke-miterlimit:4;" d="M 173.266058 346.38961 C 173.266058 346.38961 119.011603 411.306523 151.924526 555.099055 C 185.813884 699.778355 330.855607 744.872038 330.855607 744.872038 C 330.855607 744.872038 357.391193 697.557774 332.579664 580.931725 C 292.587387 411.11621 216.406734 346.452936 216.406734 346.452936 Z M 173.266058 346.38961 " transform="matrix(0.0143101,0.0026042,-0.00254199,0.0147526,17.779966,11.204244)"/>
<path style="fill-rule:evenodd;fill:rgb(0%,57.254905%,0%);fill-opacity:1;stroke-width:2.5;stroke-linecap:butt;stroke-linejoin:miter;stroke:rgb(0%,0%,0%);stroke-opacity:1;stroke-miterlimit:4;" d="M 447.772425 904.951087 C 447.98749 891.73865 438.647576 880.825447 427.03814 880.85279 C 415.718413 880.875617 406.164009 891.622512 406.259733 904.983699 C 406.355457 918.344886 415.674291 929.104824 426.994018 929.081996 C 438.624534 929.207919 447.868149 918.312274 447.772425 904.951087 Z M 447.772425 904.951087 " transform="matrix(0.0134545,0.00039637,-0.00185054,0.0254323,17.423523,0.291898)"/>
<path style="fill-rule:evenodd;fill:rgb(0%,57.254905%,0%);fill-opacity:1;stroke-width:2.5;stroke-linecap:butt;stroke-linejoin:miter;stroke:rgb(0%,0%,0%);stroke-opacity:1;stroke-miterlimit:4;" d="M 447.839171 904.945991 C 448.054236 891.733554 438.714322 880.820351 427.104887 880.847693 C 415.495451 880.875036 406.230756 891.617416 406.32648 904.978603 C 406.422204 918.33979 415.741038 929.099728 427.060764 929.0769 C 438.69128 929.202823 447.934895 918.307178 447.839171 904.945991 Z M 447.839171 904.945991 " transform="matrix(0.0134545,0.00039637,-0.00185054,0.0254323,16.965584,0.170907)"/>
<path style="fill-rule:evenodd;fill:rgb(0%,57.254905%,0%);fill-opacity:1;stroke-width:2.5;stroke-linecap:butt;stroke-linejoin:miter;stroke:rgb(0%,0%,0%);stroke-opacity:1;stroke-miterlimit:4;" d="M 448.005709 905.030133 C 447.909985 891.668946 438.591151 880.909008 426.960636 880.783085 C 415.640909 880.805913 406.397294 891.701558 406.203309 905.06726 C 406.277953 918.275182 415.617867 929.188385 427.227303 929.161043 C 438.547029 929.138215 447.811724 918.395835 448.005709 905.030133 Z M 448.005709 905.030133 " transform="matrix(0.0134545,0.00039637,-0.00185054,0.0254323,16.740843,-0.483643)"/>
<path style="fill-rule:evenodd;fill:rgb(0%,57.254905%,0%);fill-opacity:1;stroke-width:2.5;stroke-linecap:butt;stroke-linejoin:miter;stroke:rgb(0%,0%,0%);stroke-opacity:1;stroke-miterlimit:4;" d="M 447.987552 904.93711 C 447.994217 891.709546 438.719876 880.805561 426.977401 880.926757 C 415.5139 880.905837 406.377575 891.721369 406.37091 904.948934 C 406.38636 918.315507 415.638586 929.080483 427.102087 929.101403 C 438.565588 929.122323 448.003002 918.303684 447.987552 904.93711 Z M 447.987552 904.93711 " transform="matrix(0.0129525,0.000289558,-0.00206065,0.0280547,17.620812,-2.751854)"/>
<path style="fill-rule:evenodd;fill:rgb(0%,57.254905%,0%);fill-opacity:1;stroke-width:2.5;stroke-linecap:butt;stroke-linejoin:miter;stroke:rgb(0%,0%,0%);stroke-opacity:1;stroke-miterlimit:4;" d="M 447.996467 904.9566 C 447.821074 891.594573 438.686065 880.870777 427.22238 880.867982 C 415.758695 880.865187 406.203705 891.678031 406.379098 905.040058 C 406.253394 918.405911 415.689499 929.125881 427.153185 929.128675 C 438.61687 929.13147 447.870763 918.322454 447.996467 904.9566 Z M 447.996467 904.9566 " transform="matrix(0.012949,0.000334337,-0.00192401,0.0263062,18.147084,-1.065106)"/>
<path style="fill-rule:evenodd;fill:rgb(0%,57.254905%,0%);fill-opacity:1;stroke-width:2.5;stroke-linecap:butt;stroke-linejoin:miter;stroke:rgb(0%,0%,0%);stroke-opacity:1;stroke-miterlimit:4;" d="M 447.842318 905.046469 C 447.968022 891.680615 438.509895 880.812434 427.04621 880.80964 C 415.582524 880.806845 406.328631 891.615861 406.202927 904.981715 C 406.37832 918.343742 415.535351 929.21575 426.999036 929.218545 C 438.741796 929.069301 447.995689 918.260284 447.842318 905.046469 Z M 447.842318 905.046469 " transform="matrix(0.012949,0.000334337,-0.00192401,0.0263062,17.828941,-1.344762)"/>
<path style="fill-rule:evenodd;fill:rgb(0%,57.254905%,0%);fill-opacity:1;stroke-width:2.5;stroke-linecap:butt;stroke-linejoin:miter;stroke:rgb(0%,0%,0%);stroke-opacity:1;stroke-miterlimit:4;" d="M 447.768319 904.946182 C 447.916044 891.728541 438.457917 880.860359 426.994232 880.857565 C 415.530547 880.85477 406.276653 891.663787 406.150949 905.02964 C 406.326342 918.391667 415.461351 929.115463 427.226133 929.114431 C 438.689818 929.117226 447.943711 918.30821 447.768319 904.946182 Z M 447.768319 904.946182 " transform="matrix(0.012949,0.000334337,-0.00192401,0.0263062,17.435175,-1.736631)"/>
<path style="fill-rule:evenodd;fill:rgb(0%,57.254905%,0%);fill-opacity:1;stroke-width:2.5;stroke-linecap:butt;stroke-linejoin:miter;stroke:rgb(0%,0%,0%);stroke-opacity:1;stroke-miterlimit:4;" d="M 447.831976 905.01945 C 447.95768 891.653596 438.499553 880.785415 427.057889 880.930832 C 415.594204 880.928038 406.34031 891.737054 406.192585 904.954696 C 406.367978 918.316723 415.525009 929.188731 426.988694 929.191526 C 438.753475 929.190494 448.007369 918.381477 447.831976 905.01945 Z M 447.831976 905.01945 " transform="matrix(0.012949,0.000334337,-0.00192401,0.0263062,17.051679,-2.000298)"/>
<path style="fill-rule:evenodd;fill:rgb(78.823531%,0%,0%);fill-opacity:1;stroke-width:1.25;stroke-linecap:butt;stroke-linejoin:miter;stroke:rgb(0%,0%,0%);stroke-opacity:1;stroke-miterlimit:4;" d="M 682.838835 606.098838 C 682.711626 503.227937 656.599451 419.675647 624.359498 419.519246 C 592.270286 419.749806 566.157492 503.115336 566.171514 606.265371 C 566.034795 709.028445 592.146969 792.580735 624.386922 792.737136 C 656.740062 792.614403 682.588929 709.141046 682.838835 606.098838 Z M 682.838835 606.098838 " transform="matrix(0.012697,-0.00490471,0.00514854,0.0120053,10.322746,16.346149)"/>
<path style="fill-rule:evenodd;fill:rgb(0%,57.254905%,0%);fill-opacity:1;stroke-width:1.4635;stroke-linecap:butt;stroke-linejoin:miter;stroke:rgb(0%,0%,0%);stroke-opacity:1;stroke-miterlimit:4;" d="M 228.894265 356.768946 C 228.922891 349.67354 224.081511 343.850192 218.094931 343.829152 C 212.108352 343.808111 207.299232 349.698521 207.270605 356.793927 C 207.364109 363.886396 212.20549 369.709744 218.192069 369.730785 C 224.054344 369.58982 228.987769 363.861415 228.894265 356.768946 Z M 228.894265 356.768946 " transform="matrix(0.031974,0.000569293,-0.000421533,0.0236752,13.937185,9.700465)"/>
<path style="fill-rule:evenodd;fill:rgb(0%,57.254905%,0%);fill-opacity:1;stroke-width:1.5462;stroke-linecap:butt;stroke-linejoin:miter;stroke:rgb(0%,0%,0%);stroke-opacity:1;stroke-miterlimit:4;" d="M 228.980644 356.704905 C 229.0126 349.609499 224.153555 343.774404 218.1549 343.903621 C 212.153816 343.867897 207.328356 349.581619 207.296401 356.677025 C 207.266873 363.937372 212.12349 369.607526 218.124573 369.64325 C 224.125656 369.678974 228.948689 363.800311 228.980644 356.704905 Z M 228.980644 356.704905 " transform="matrix(0.0286432,0.000509987,-0.000421533,0.0236752,14.923662,9.281918)"/>
<path style="fill-rule:evenodd;fill:rgb(0%,57.254905%,0%);fill-opacity:1;stroke-width:1.5462;stroke-linecap:butt;stroke-linejoin:miter;stroke:rgb(0%,0%,0%);stroke-opacity:1;stroke-miterlimit:4;" d="M 228.987758 356.689255 C 229.019714 349.593849 224.163097 343.923695 218.162014 343.887971 C 212.16093 343.852247 207.335471 349.565969 207.305943 356.826316 C 207.273987 363.921722 212.130604 369.591876 218.131687 369.6276 C 224.13277 369.663324 228.95823 363.949602 228.987758 356.689255 Z M 228.987758 356.689255 " transform="matrix(0.0286432,0.000509987,-0.000421533,0.0236752,14.505483,9.274473)"/>
<path style="fill-rule:evenodd;fill:rgb(0%,57.254905%,0%);fill-opacity:1;stroke-width:1.56;stroke-linecap:butt;stroke-linejoin:miter;stroke:rgb(0%,0%,0%);stroke-opacity:1;stroke-miterlimit:4;" d="M 228.940385 356.682438 C 228.977879 349.651393 224.078874 343.793411 218.083947 343.761613 C 212.09134 343.905514 207.345423 349.643593 207.307929 356.674637 C 207.272755 363.88138 212.17176 369.739362 218.164367 369.595462 C 224.159294 369.627259 228.905211 363.88918 228.940385 356.682438 Z M 228.940385 356.682438 " transform="matrix(0.0299754,0.000533707,-0.000395726,0.0222257,14.29811,9.469821)"/>
<path style="fill-rule:evenodd;fill:rgb(0%,57.254905%,0%);fill-opacity:1;stroke-width:1.56;stroke-linecap:butt;stroke-linejoin:miter;stroke:rgb(0%,0%,0%);stroke-opacity:1;stroke-miterlimit:4;" d="M 228.984672 356.813893 C 228.889572 349.610279 224.123161 343.924866 218.128234 343.893069 C 212.133307 343.861271 207.257116 349.602479 207.352216 356.806093 C 207.314723 363.837137 212.213727 369.69512 218.07838 369.730045 C 224.070988 369.586145 228.947178 363.844937 228.984672 356.813893 Z M 228.984672 356.813893 " transform="matrix(0.0299754,0.000533707,-0.000395726,0.0222257,14.261678,9.107501)"/>
<path style="fill-rule:evenodd;fill:rgb(0%,57.254905%,0%);fill-opacity:1;stroke-width:1.5462;stroke-linecap:butt;stroke-linejoin:miter;stroke:rgb(0%,0%,0%);stroke-opacity:1;stroke-miterlimit:4;" d="M 228.886194 356.775666 C 228.918149 349.680261 224.059105 343.845166 218.194355 343.806505 C 212.193271 343.770781 207.370239 349.649444 207.338284 356.74485 C 207.306328 363.840256 212.165372 369.67535 218.166456 369.711075 C 224.165111 369.581857 228.990571 363.868136 228.886194 356.775666 Z M 228.886194 356.775666 " transform="matrix(0.0286432,0.000509987,-0.000421533,0.0236752,14.106085,9.030291)"/>
<path style="fill-rule:evenodd;fill:rgb(0%,57.254905%,0%);fill-opacity:1;stroke-width:1.5623;stroke-linecap:butt;stroke-linejoin:miter;stroke:rgb(0%,0%,0%);stroke-opacity:1;stroke-miterlimit:4;" d="M 228.893939 356.815738 C 228.925895 349.572599 224.069278 343.784387 218.070622 343.916294 C 212.205872 343.876829 207.241652 349.544138 207.346029 356.78428 C 207.311647 363.859043 212.168263 369.647255 218.169347 369.683723 C 224.17043 369.720191 228.99589 363.887504 228.893939 356.815738 Z M 228.893939 356.815738 " transform="matrix(0.0286432,0.000509987,-0.000412935,0.0231923,14.196562,8.811015)"/>
<path style="fill-rule:evenodd;fill:rgb(0%,57.254905%,0%);fill-opacity:1;stroke-width:1.4635;stroke-linecap:butt;stroke-linejoin:miter;stroke:rgb(0%,0%,0%);stroke-opacity:1;stroke-miterlimit:4;" d="M 229.005728 356.714508 C 228.912224 349.622039 224.070844 343.798691 218.084264 343.777651 C 212.099859 343.921552 207.288564 349.647021 207.259938 356.742427 C 207.353442 363.834896 212.194823 369.658244 218.181402 369.679284 C 224.167982 369.700324 228.977102 363.809914 229.005728 356.714508 Z M 229.005728 356.714508 " transform="matrix(0.031974,0.000569293,-0.000421533,0.0236752,12.960942,8.635284)"/>
<path style="fill-rule:evenodd;fill:rgb(0%,57.254905%,0%);fill-opacity:1;stroke-width:1.56;stroke-linecap:butt;stroke-linejoin:miter;stroke:rgb(0%,0%,0%);stroke-opacity:1;stroke-miterlimit:4;" d="M 228.945038 356.821748 C 228.980212 349.615006 224.083528 343.932721 218.0886 343.900924 C 212.093673 343.869126 207.347757 349.607206 207.312583 356.813948 C 207.275089 363.844992 212.174093 369.702975 218.16902 369.734772 C 224.161628 369.590872 228.907545 363.852792 228.945038 356.821748 Z M 228.945038 356.821748 " transform="matrix(0.0299754,0.000533707,-0.000395726,0.0222257,14.024588,8.654222)"/>
<path style="fill-rule:evenodd;fill:rgb(0%,57.254905%,0%);fill-opacity:1;stroke-width:1.5623;stroke-linecap:butt;stroke-linejoin:miter;stroke:rgb(0%,0%,0%);stroke-opacity:1;stroke-miterlimit:4;" d="M 228.918977 356.824325 C 228.950932 349.581186 224.094315 343.792974 218.095659 343.924881 C 212.094576 343.888413 207.266689 349.552725 207.371067 356.792867 C 207.336684 363.86763 212.193301 369.655842 218.194384 369.69231 C 224.059134 369.731776 229.020927 363.896091 228.918977 356.824325 Z M 228.918977 356.824325 " transform="matrix(0.0286432,0.000509987,-0.000412935,0.0231923,13.887255,8.369397)"/>
<path style="fill-rule:evenodd;fill:rgb(0%,57.254905%,0%);fill-opacity:1;stroke-width:1.5462;stroke-linecap:butt;stroke-linejoin:miter;stroke:rgb(0%,0%,0%);stroke-opacity:1;stroke-miterlimit:4;" d="M 228.951537 356.685207 C 228.983492 349.589801 224.126876 343.919648 218.125793 343.883924 C 212.124709 343.848199 207.299249 349.561921 207.269721 356.822268 C 207.374099 363.914737 212.094383 369.587828 218.095466 369.623552 C 224.096549 369.659276 228.922009 363.945554 228.951537 356.685207 Z M 228.951537 356.685207 " transform="matrix(0.0286432,0.000509987,-0.000421533,0.0236752,13.233081,8.665212)"/>
<path style="fill-rule:evenodd;fill:rgb(0%,57.254905%,0%);fill-opacity:1;stroke-width:1.5623;stroke-linecap:butt;stroke-linejoin:miter;stroke:rgb(0%,0%,0%);stroke-opacity:1;stroke-miterlimit:4;" d="M 229.013484 356.738252 C 228.911534 349.666486 224.054917 343.878275 218.190167 343.838809 C 212.189084 343.802341 207.363624 349.635028 207.329241 356.709792 C 207.297286 363.952931 212.151475 369.572768 218.152559 369.609236 C 224.153642 369.645703 228.979102 363.813016 229.013484 356.738252 Z M 229.013484 356.738252 " transform="matrix(0.0286432,0.000509987,-0.000412935,0.0231923,13.337637,8.609626)"/>
<path style="fill-rule:evenodd;fill:rgb(0%,57.254905%,0%);fill-opacity:1;stroke-width:1.5623;stroke-linecap:butt;stroke-linejoin:miter;stroke:rgb(0%,0%,0%);stroke-opacity:1;stroke-miterlimit:4;" d="M 228.923663 356.814365 C 228.955619 349.571225 224.099002 343.783014 218.100346 343.914921 C 212.099263 343.878453 207.271376 349.542765 207.23942 356.785904 C 207.341371 363.85767 212.197987 369.645882 218.062737 369.685348 C 224.063821 369.721816 228.889281 363.889128 228.923663 356.814365 Z M 228.923663 356.814365 " transform="matrix(0.0286432,0.000509987,-0.000412935,0.0231923,13.469148,8.357907)"/>
<path style="fill-rule:evenodd;fill:rgb(0%,57.254905%,0%);fill-opacity:1;stroke-width:2.5449;stroke-linecap:butt;stroke-linejoin:miter;stroke:rgb(0%,0%,0%);stroke-opacity:1;stroke-miterlimit:4;" d="M 596.087866 564.327505 C 595.992497 450.990855 565.91258 358.705802 528.646981 358.887018 C 491.484963 358.806602 461.155193 450.839777 461.146982 564.438058 C 461.138771 678.036338 491.322268 770.05976 528.725285 770.232542 C 565.990884 770.051326 596.079655 677.925785 596.087866 564.327505 Z M 596.087866 564.327505 " transform="matrix(0.0140732,-0.00496841,0.00557163,0.0129634,11.017676,15.489779)"/>
<path style="fill-rule:evenodd;fill:rgb(0%,57.254905%,0%);fill-opacity:1;stroke-width:2.5;stroke-linecap:butt;stroke-linejoin:miter;stroke:rgb(0%,0%,0%);stroke-opacity:1;stroke-miterlimit:4;" d="M 541.93976 646.028694 C 541.904256 623.610374 536.079576 605.41237 528.77971 605.201618 C 521.370805 605.227731 515.363045 623.420143 515.28951 646.075329 C 515.325014 668.493649 521.393711 686.804304 528.693576 687.015056 C 536.102481 686.988943 541.975264 668.447014 541.93976 646.028694 Z M 541.93976 646.028694 " transform="matrix(0.0132023,-0.00627891,0.00607762,0.0136009,11.524274,15.178686)"/>
<path style="fill-rule:evenodd;fill:rgb(0%,57.254905%,0%);fill-opacity:1;stroke-width:1.5327;stroke-linecap:butt;stroke-linejoin:miter;stroke:rgb(0%,0%,0%);stroke-opacity:1;stroke-miterlimit:4;" d="M 139.958144 643.944287 C 139.83245 701.732479 121.100923 730.080378 105.378507 754.329972 C 112.820374 721.76737 118.219197 701.598909 118.248771 643.994152 C 118.161309 586.338704 147.751748 558.642907 158.638756 541.976896 C 154.384933 558.590058 139.870683 586.288838 139.958144 643.944287 Z M 139.958144 643.944287 " transform="matrix(0.0272027,-0.00751735,0.0142543,0.0173558,9.357513,10.520466)"/>
<path style="fill-rule:evenodd;fill:rgb(0%,57.254905%,0%);fill-opacity:1;stroke-width:1.5327;stroke-linecap:butt;stroke-linejoin:miter;stroke:rgb(0%,0%,0%);stroke-opacity:1;stroke-miterlimit:4;" d="M 139.957362 643.951465 C 139.831668 701.739657 121.100141 730.087557 105.260691 754.286459 C 112.819592 721.774548 118.218416 701.606087 118.247989 644.001331 C 118.160527 586.345882 147.750966 558.650086 158.637974 541.984075 C 154.384151 558.597236 139.869901 586.296016 139.957362 643.951465 Z M 139.957362 643.951465 " transform="matrix(0.0272027,-0.00751735,0.0142543,0.0173558,9.43165,11.328929)"/>
<path style="fill-rule:evenodd;fill:rgb(0%,57.254905%,0%);fill-opacity:1;stroke-width:1.5327;stroke-linecap:butt;stroke-linejoin:miter;stroke:rgb(0%,0%,0%);stroke-opacity:1;stroke-miterlimit:4;" d="M 139.887353 643.993099 C 139.797486 701.688559 121.107066 730.162487 105.337585 754.295028 C 112.860451 721.894452 118.237581 701.764205 118.212482 644.014169 C 118.187384 586.264133 147.830553 558.636331 158.562225 541.964423 C 154.497202 558.593392 139.862255 586.243063 139.887353 643.993099 Z M 139.887353 643.993099 " transform="matrix(0.0270472,-0.00809334,0.0145986,0.017049,9.256428,12.258211)"/>
<path style="fill-rule:evenodd;fill:rgb(0%,57.254905%,0%);fill-opacity:1;stroke-width:1.3887;stroke-linecap:butt;stroke-linejoin:miter;stroke:rgb(0%,0%,0%);stroke-opacity:1;stroke-miterlimit:4;" d="M 542.058037 646.056909 C 542.04243 623.486591 536.075899 605.244661 528.730807 605.321428 C 521.310853 605.216434 515.298711 623.551172 515.314317 646.12149 C 515.389229 668.546921 521.296456 686.933738 528.641548 686.856971 C 536.120806 686.817077 541.939478 668.590354 542.058037 646.056909 Z M 542.058037 646.056909 " transform="matrix(0.026171,-0.00666035,0.0107123,0.0242344,1.100089,7.56675)"/>
<path style="fill-rule:evenodd;fill:rgb(0%,57.254905%,0%);fill-opacity:1;stroke-width:1.6398;stroke-linecap:butt;stroke-linejoin:miter;stroke:rgb(0%,0%,0%);stroke-opacity:1;stroke-miterlimit:4;" d="M 541.992132 646.020843 C 541.951879 623.620459 535.994658 605.283089 528.666528 605.361678 C 521.402685 605.258528 515.438552 623.526238 515.414518 646.108361 C 515.390484 668.690484 521.411993 686.846115 528.675836 686.949266 C 536.003966 686.870676 541.968099 668.602966 541.992132 646.020843 Z M 541.992132 646.020843 " transform="matrix(0.0235435,-0.00404924,0.00832808,0.0200613,3.703266,9.437739)"/>
<path style="fill-rule:evenodd;fill:rgb(0%,57.254905%,0%);fill-opacity:1;stroke-width:1.6398;stroke-linecap:butt;stroke-linejoin:miter;stroke:rgb(0%,0%,0%);stroke-opacity:1;stroke-miterlimit:4;" d="M 542.0541 646.136605 C 542.013253 623.540156 536.04588 605.309974 528.590236 605.353496 C 521.351831 605.242058 515.402384 623.505401 515.287047 646.07445 C 515.327893 668.670899 521.295266 686.90108 528.750911 686.857559 C 536.050372 686.786638 541.999819 668.523294 542.0541 646.136605 Z M 542.0541 646.136605 " transform="matrix(0.0236231,-0.00354942,0.00790932,0.0202322,3.541528,9.441046)"/>
<path style="fill-rule:evenodd;fill:rgb(0%,57.254905%,0%);fill-opacity:1;stroke-width:2.0966;stroke-linecap:butt;stroke-linejoin:miter;stroke:rgb(0%,0%,0%);stroke-opacity:1;stroke-miterlimit:4;" d="M 541.898027 646.097481 C 541.925829 623.641758 536.094085 605.305623 528.758094 605.163351 C 521.331805 605.261226 515.314354 623.448194 515.384981 646.188041 C 515.357179 668.643765 521.279222 686.739752 528.615213 686.882024 C 536.041502 686.784148 542.058953 668.597181 541.898027 646.097481 Z M 541.898027 646.097481 " transform="matrix(0.0190304,-0.00348491,0.00715565,0.0149557,6.779051,11.448296)"/>
<path style="fill-rule:evenodd;fill:rgb(0%,57.254905%,0%);fill-opacity:1;stroke-width:2.0966;stroke-linecap:butt;stroke-linejoin:miter;stroke:rgb(0%,0%,0%);stroke-opacity:1;stroke-miterlimit:4;" d="M 542.079577 646.04075 C 542.019101 623.590322 535.945065 605.282823 528.594488 605.387785 C 521.322299 605.250216 515.443186 623.440047 515.425274 646.133007 C 515.292454 668.552665 521.36649 686.860165 528.717067 686.755202 C 535.989256 686.892771 541.868369 668.70294 542.079577 646.04075 Z M 542.079577 646.04075 " transform="matrix(0.0192199,-0.00243837,0.00621203,0.0153181,6.958712,10.913968)"/>
<path style="fill-rule:evenodd;fill:rgb(0%,57.254905%,0%);fill-opacity:1;stroke-width:2.0862;stroke-linecap:butt;stroke-linejoin:miter;stroke:rgb(0%,0%,0%);stroke-opacity:1;stroke-miterlimit:4;" d="M 145.643011 569.410712 C 145.81472 603.490732 139.035974 631.128358 130.844635 631.069853 C 122.345855 631.09852 115.806194 603.586211 115.634486 569.506191 " transform="matrix(0.0147321,-0.00775472,0.00714683,0.0174613,14.659891,10.319581)"/>
<path style="fill-rule:evenodd;fill:rgb(0%,57.254905%,0%);fill-opacity:1;stroke-width:2.0966;stroke-linecap:butt;stroke-linejoin:miter;stroke:rgb(0%,0%,0%);stroke-opacity:1;stroke-miterlimit:4;" d="M 541.883195 646.15981 C 542.094402 623.497621 536.020367 605.190121 528.66979 605.295084 C 521.319213 605.400046 515.440099 623.589877 515.30728 646.009536 C 515.289368 668.702495 521.441791 686.767463 528.71398 686.905032 C 536.064557 686.800069 541.943671 668.610238 541.883195 646.15981 Z M 541.883195 646.15981 " transform="matrix(0.0192199,-0.00243837,0.00621203,0.0153181,6.918778,10.216353)"/>
<path style="fill-rule:evenodd;fill:rgb(0%,57.254905%,0%);fill-opacity:1;stroke-width:2.0966;stroke-linecap:butt;stroke-linejoin:miter;stroke:rgb(0%,0%,0%);stroke-opacity:1;stroke-miterlimit:4;" d="M 541.911651 646.046055 C 542.073541 623.545427 536.080038 605.284469 528.57719 605.295364 C 521.269117 605.332254 515.326633 623.518572 515.359518 646.045195 C 515.392403 668.571818 521.385906 686.832776 528.69398 686.795886 C 536.002053 686.758996 541.944537 668.572678 541.911651 646.046055 Z M 541.911651 646.046055 " transform="matrix(0.019272,-0.00206013,0.00586767,0.0154361,6.706881,10.13614)"/>
<path style="fill-rule:evenodd;fill:rgb(0%,57.254905%,0%);fill-opacity:1;stroke-width:2.8797;stroke-linecap:butt;stroke-linejoin:miter;stroke:rgb(0%,0%,0%);stroke-opacity:1;stroke-miterlimit:4;" d="M 145.646467 569.526307 C 145.649655 603.29589 139.060336 630.99393 130.799783 631.17195 C 122.423544 630.947228 115.729904 603.625496 115.61103 569.45317 " transform="matrix(0.00960715,-0.0073118,0.00693951,0.0117994,15.101644,12.672994)"/>
<path style="fill-rule:evenodd;fill:rgb(0%,57.254905%,0%);fill-opacity:1;stroke-width:2.8797;stroke-linecap:butt;stroke-linejoin:miter;stroke:rgb(0%,0%,0%);stroke-opacity:1;stroke-miterlimit:4;" d="M 145.667865 569.587619 C 145.671053 603.357202 139.081733 631.055242 130.540305 631.05921 C 122.444942 631.008539 115.916491 603.458117 115.632427 569.514482 " transform="matrix(0.00960715,-0.0073118,0.00693951,0.0117994,15.265075,12.406802)"/>
<path style="fill-rule:evenodd;fill:rgb(0%,57.254905%,0%);fill-opacity:1;stroke-width:2.0862;stroke-linecap:butt;stroke-linejoin:miter;stroke:rgb(0%,0%,0%);stroke-opacity:1;stroke-miterlimit:4;" d="M 145.752265 569.474572 C 145.754404 603.40509 138.870032 631.125327 130.695282 631.144184 C 122.520533 631.163042 115.713204 603.432603 115.711065 569.502085 " transform="matrix(0.0134019,-0.00999753,0.00966965,0.0161181,13.891581,10.395487)"/>
<path style="fill-rule:evenodd;fill:rgb(0%,57.254905%,0%);fill-opacity:1;stroke-width:2.7424;stroke-linecap:butt;stroke-linejoin:miter;stroke:rgb(0%,0%,0%);stroke-opacity:1;stroke-miterlimit:4;" d="M 145.739629 569.636777 C 145.617019 603.444764 138.95365 631.118671 130.771539 631.16854 C 122.30818 631.044903 115.759835 603.616433 115.751617 569.427882 " transform="matrix(0.00959073,-0.00803663,0.00696732,0.0130271,15.500598,11.582557)"/>
<path style="fill-rule:evenodd;fill:rgb(50.196081%,29.411766%,100%);fill-opacity:1;stroke-width:2.5;stroke-linecap:butt;stroke-linejoin:miter;stroke:rgb(0%,0%,0%);stroke-opacity:1;stroke-miterlimit:4;" d="M 276.363693 345.339979 C 263.928728 354.563299 276.723012 370.477464 288.3161 376.113585 C 301.202325 383.856554 374.914449 434.302455 424.717689 388.164165 C 383.912027 388.86573 305.817272 324.807534 276.363693 345.339979 Z M 276.363693 345.339979 " transform="matrix(0.0126303,0.000599625,-0.000335935,0.0181727,17.469195,10.746028)"/>
<path style="fill-rule:evenodd;fill:rgb(50.196081%,29.411766%,100%);fill-opacity:1;stroke-width:2.5;stroke-linecap:butt;stroke-linejoin:miter;stroke:rgb(0%,0%,0%);stroke-opacity:1;stroke-miterlimit:4;" d="M 276.35491 345.495096 C 263.914233 354.503652 276.714229 370.63258 288.301605 376.053938 C 301.496834 383.786711 374.899954 434.242808 424.703194 388.104518 C 383.903244 389.020847 305.80849 324.96265 276.35491 345.495096 Z M 276.35491 345.495096 " transform="matrix(0.0126303,0.000599625,-0.000335935,0.0181727,17.356077,10.270558)"/>
<path style="fill-rule:evenodd;fill:rgb(50.196081%,29.411766%,100%);fill-opacity:1;stroke-width:2.5;stroke-linecap:butt;stroke-linejoin:miter;stroke:rgb(0%,0%,0%);stroke-opacity:1;stroke-miterlimit:4;" d="M 276.276756 345.356868 C 263.841792 354.580187 276.636075 370.494352 288.229163 376.130473 C 301.424393 383.863246 374.827513 434.319343 424.630753 388.181053 C 383.82509 388.882618 306.03934 324.814226 276.276756 345.356868 Z M 276.276756 345.356868 " transform="matrix(0.0126303,0.000599625,-0.000335935,0.0181727,17.212486,9.816086)"/>
<path style="fill-rule:evenodd;fill:rgb(50.196081%,29.411766%,100%);fill-opacity:1;stroke-width:2.5;stroke-linecap:butt;stroke-linejoin:miter;stroke:rgb(0%,0%,0%);stroke-opacity:1;stroke-miterlimit:4;" d="M 276.326239 345.40906 C 263.891274 354.63238 276.685558 370.546544 288.278646 376.182665 C 301.468163 383.700675 374.876995 434.371535 424.674523 388.018483 C 383.874573 388.934811 306.088823 324.866419 276.326239 345.40906 Z M 276.326239 345.40906 " transform="matrix(0.0126303,0.000599625,-0.000335935,0.0181727,16.899379,9.295576)"/>
<path style="fill-rule:evenodd;fill:rgb(50.196081%,29.411766%,100%);fill-opacity:1;stroke-width:2.5;stroke-linecap:butt;stroke-linejoin:miter;stroke:rgb(0%,0%,0%);stroke-opacity:1;stroke-miterlimit:4;" d="M 211.098817 247.207524 C 232.985005 235.19162 267.753008 237.527545 290.989429 258.52671 C 310.230608 275.512933 336.27495 333.552281 361.146649 351.160343 C 341.067137 351.302998 329.835017 345.540445 318.912617 336.11507 C 290.316042 351.546419 280.834792 352.796892 255.011201 351.762101 C 219.091075 350.520834 192.571717 334.172018 186.811187 311.165671 C 180.782238 289.435128 191.857551 258.700935 211.098817 247.207524 Z M 211.098817 247.207524 " transform="matrix(0.0169502,-0.00300836,0.0035662,0.014676,14.688672,12.245313)"/>
<path style="fill-rule:evenodd;fill:rgb(100%,0%,0%);fill-opacity:1;stroke-width:2.5;stroke-linecap:butt;stroke-linejoin:miter;stroke:rgb(0%,0%,0%);stroke-opacity:1;stroke-miterlimit:4;" d="M 301.319823 322.862757 C 301.436081 314.590146 295.069143 307.966307 287.193727 308.22227 C 279.511691 308.112433 273.077572 314.792812 273.158199 323.059023 C 273.04194 331.331634 279.408878 337.955473 287.2878 338.058911 C 294.969836 338.168747 301.403955 331.488369 301.319823 322.862757 Z M 301.319823 322.862757 " transform="matrix(0.0198339,0.00035314,-0.000193456,0.0108653,14.207196,12.112138)"/>
<path style="fill-rule:evenodd;fill:rgb(100%,100%,0%);fill-opacity:1;stroke-width:2.5;stroke-linecap:butt;stroke-linejoin:miter;stroke:rgb(0%,0%,0%);stroke-opacity:1;stroke-miterlimit:4;" d="M 227.808339 348.237023 C 227.779891 339.340183 217.487616 332.271215 204.555947 332.431148 C 191.705004 332.347092 181.430862 339.446118 181.241672 348.252193 C 181.270119 357.149033 191.780033 364.308768 204.494064 364.058068 C 217.345007 364.142124 227.836787 357.133864 227.808339 348.237023 Z M 227.808339 348.237023 " transform="matrix(0.0157721,-0.00586737,0.00521829,0.0140687,13.941344,12.683491)"/>
<path style=" stroke:none;fill-rule:evenodd;fill:rgb(0%,0%,0%);fill-opacity:1;" d="M 19.929688 15.714844 C 19.929688 15.667969 19.886719 15.625 19.828125 15.625 C 19.773438 15.625 19.726562 15.664062 19.726562 15.710938 C 19.726562 15.757812 19.769531 15.800781 19.828125 15.800781 C 19.882812 15.800781 19.929688 15.761719 19.929688 15.714844 Z M 19.929688 15.714844 "/>
<path style="fill-rule:evenodd;fill:rgb(100%,100%,0%);fill-opacity:1;stroke-width:6.5598;stroke-linecap:butt;stroke-linejoin:miter;stroke:rgb(0%,0%,0%);stroke-opacity:1;stroke-miterlimit:4;" d="M 516.681527 260.261965 C 521.307475 278.357184 510.067283 303.193845 483.901487 313.091774 C 456.841868 325.86535 437.452713 354.933867 427.854461 400.803803 C 381.006592 297.36088 404.804354 252.77635 448.64596 240.64128 C 486.095996 226.417883 509.178792 227.438052 516.681527 260.261965 Z M 516.681527 260.261965 " transform="matrix(0.00746356,0.000204694,-0.000396918,0.00685557,15.469673,14.0514)"/>
<path style=" stroke:none;fill-rule:evenodd;fill:rgb(0%,0%,0%);fill-opacity:1;" d="M 18.996094 15.992188 C 18.992188 15.953125 18.957031 15.921875 18.917969 15.921875 C 18.878906 15.925781 18.851562 15.960938 18.851562 16 C 18.855469 16.039062 18.886719 16.070312 18.925781 16.070312 C 18.964844 16.066406 18.996094 16.03125 18.996094 15.992188 Z M 18.996094 15.992188 "/>
</g>
</svg>
