<?xml version="1.0" encoding="UTF-8"?>
<svg xmlns="http://www.w3.org/2000/svg" xmlns:xlink="http://www.w3.org/1999/xlink" width="40px" height="40px" viewBox="0 0 40 40" version="1.1">
<g id="surface1">
<rect x="0" y="0" width="40" height="40" style="fill:rgb(100%,100%,100%);fill-opacity:1;stroke:none;"/>
<path style=" stroke:none;fill-rule:evenodd;fill:rgb(0%,74.901962%,7.450981%);fill-opacity:1;" d="M 0 0 L 20 0 L 20 40 L 0 40 Z M 0 0 "/>
<path style=" stroke:none;fill-rule:evenodd;fill:rgb(94.901961%,9.803922%,18.82353%);fill-opacity:1;" d="M 28.394531 25.203125 C 25.734375 29.988281 19.867188 31.6875 15.203125 29.117188 C 10.542969 26.550781 8.84375 20.683594 11.410156 16.019531 C 13.980469 11.355469 19.847656 9.65625 24.507812 12.226562 C 26.234375 13.175781 27.460938 14.421875 28.425781 16.199219 C 28.074219 15.714844 27.679688 15.316406 27.164062 14.910156 C 23.984375 12.410156 19.375 12.960938 16.875 16.140625 C 14.371094 19.324219 14.925781 23.933594 18.105469 26.433594 C 21.285156 28.933594 25.894531 28.382812 28.394531 25.203125 Z M 28.394531 25.203125 "/>
<path style=" stroke:none;fill-rule:evenodd;fill:rgb(94.901961%,9.803922%,18.82353%);fill-opacity:1;" d="M 20.007812 17.53125 L 23.820312 18.828125 L 26.183594 15.570312 L 26.128906 19.597656 L 29.960938 20.835938 L 26.113281 22.027344 L 26.117188 26.054688 L 23.796875 22.765625 L 19.964844 24.011719 L 22.378906 20.789062 Z M 20.007812 17.53125 "/>
</g>
</svg>
