<?xml version="1.0" encoding="UTF-8"?>
<svg xmlns="http://www.w3.org/2000/svg" xmlns:xlink="http://www.w3.org/1999/xlink" width="40px" height="40px" viewBox="0 0 40 40" version="1.1">
<g id="surface1">
<rect x="0" y="0" width="40" height="40" style="fill:rgb(100%,90.980393%,0%);fill-opacity:1;stroke:none;"/>
<path style=" stroke:none;fill-rule:evenodd;fill:rgb(0%,7.843138%,55.686277%);fill-opacity:1;" d="M 0 20 L 40 20 L 40 40 L 0 40 Z M 0 20 "/>
<path style=" stroke:none;fill-rule:evenodd;fill:rgb(85.490197%,0%,6.27451%);fill-opacity:1;" d="M 0 30 L 40 30 L 40 40 L 0 40 Z M 0 30 "/>
<path style=" stroke:none;fill-rule:evenodd;fill:rgb(0%,0%,0%);fill-opacity:1;" d="M 16.675781 19.074219 L 12.40625 23.585938 L 12.332031 23.488281 L 16.601562 18.976562 Z M 16.675781 19.074219 "/>
<path style=" stroke:none;fill-rule:evenodd;fill:rgb(0%,0%,0%);fill-opacity:1;" d="M 19.652344 19.8125 L 14.0625 25.703125 L 13.964844 25.609375 L 19.554688 19.71875 Z M 19.652344 19.8125 "/>
<path style="fill-rule:evenodd;fill:rgb(50.196081%,50.196081%,50.196081%);fill-opacity:1;stroke-width:4.1036;stroke-linecap:butt;stroke-linejoin:miter;stroke:rgb(0%,0%,0%);stroke-opacity:1;stroke-miterlimit:4;" d="M 478.533576 60.445387 L 478.440174 148.554837 L 495.832686 237.339814 L 513.886453 148.793514 L 513.490651 60.315673 Z M 478.533576 60.445387 " transform="matrix(-0.00404222,-0.00400307,-0.0052357,0.00531584,16.410968,27.254439)"/>
<path style="fill-rule:evenodd;fill:rgb(50.196081%,50.196081%,50.196081%);fill-opacity:1;stroke-width:4.1036;stroke-linecap:butt;stroke-linejoin:miter;stroke:rgb(0%,0%,0%);stroke-opacity:1;stroke-miterlimit:4;" d="M 478.037823 60.147015 L 478.433624 148.624856 L 495.826136 237.409833 L 513.879902 148.863533 L 513.965929 60.013698 Z M 478.037823 60.147015 " transform="matrix(-0.00404222,-0.00400307,-0.0052357,0.00531584,14.969902,24.953259)"/>
<path style="fill-rule:evenodd;fill:rgb(100%,87.450981%,0%);fill-opacity:1;stroke-width:1.25;stroke-linecap:butt;stroke-linejoin:miter;stroke:rgb(0%,0%,0%);stroke-opacity:1;stroke-miterlimit:4;" d="M 301.108993 272.803236 C 301.108993 272.803236 283.536299 609.440994 354.270083 609.440994 C 425.151538 609.440994 460.592265 573.967559 460.592265 573.967559 L 459.706246 388.991589 Z M 301.108993 272.803236 " transform="matrix(0.0264526,0,0,0.0379906,5.050504,-1.598327)"/>
<path style="fill-rule:evenodd;fill:rgb(0%,0%,76.862746%);fill-opacity:1;stroke-width:1.25;stroke-linecap:butt;stroke-linejoin:miter;stroke:rgb(0%,0%,0%);stroke-opacity:1;stroke-miterlimit:4;" d="M 344.523884 304.163809 C 344.523884 321.951938 336.54972 574.070381 371.990447 574.070381 C 407.431174 574.070381 460.592265 556.282253 460.592265 556.282253 L 459.706246 388.991589 Z M 344.523884 304.163809 " transform="matrix(0.0264526,0,0,0.0379906,5.050504,-1.598327)"/>
<path style="fill-rule:evenodd;fill:rgb(88.235295%,0%,0%);fill-opacity:1;stroke-width:1.25;stroke-linecap:butt;stroke-linejoin:miter;stroke:rgb(0%,0%,0%);stroke-opacity:1;stroke-miterlimit:4;" d="M 367.560356 321.129365 C 367.560356 338.917494 371.990447 538.596946 407.431174 538.596946 L 460.592265 538.596946 L 459.706246 388.991589 Z M 367.560356 321.129365 " transform="matrix(0.0264526,0,0,0.0379906,5.050504,-1.598327)"/>
<path style=" stroke:none;fill-rule:evenodd;fill:rgb(0%,0%,0%);fill-opacity:1;" d="M 12.941406 8.765625 L 17.210938 13.277344 L 17.289062 13.179688 L 13.015625 8.671875 Z M 12.941406 8.765625 "/>
<path style="fill-rule:evenodd;fill:rgb(100%,87.450981%,0%);fill-opacity:1;stroke-width:1.25;stroke-linecap:butt;stroke-linejoin:miter;stroke:rgb(0%,0%,0%);stroke-opacity:1;stroke-miterlimit:4;" d="M 301.195856 272.804773 C 301.195856 272.804773 265.802159 609.451773 372.096691 609.451773 C 460.580933 609.451773 460.580933 556.280023 478.391223 556.280023 L 460.580933 432.320024 Z M 301.195856 272.804773 " transform="matrix(0.0344341,0,0,0.0363651,1.351249,1.325533)"/>
<path style="fill:none;stroke-width:2.3046;stroke-linecap:butt;stroke-linejoin:miter;stroke:rgb(0%,0%,0%);stroke-opacity:1;stroke-miterlimit:4;" d="M 269.524676 155.309406 C 270.716076 155.212482 297.877267 61.206944 388.476878 7.965949 " transform="matrix(0.0227106,-0.00159553,-0.0029539,0.0206897,8.751754,10.61517)"/>
<path style="fill-rule:evenodd;fill:rgb(0%,35.686275%,0%);fill-opacity:1;stroke-width:1.25;stroke-linecap:butt;stroke-linejoin:miter;stroke:rgb(0%,0%,0%);stroke-opacity:1;stroke-miterlimit:4;" d="M 421.383381 -20.404582 C 421.47883 -2.242715 416.855118 11.337748 410.168264 24.989907 C 404.345946 6.822951 400.976821 -2.270125 400.992423 -20.25726 C 400.896974 -38.419127 407.879349 -55.398233 413.418993 -68.9595 C 415.576665 -56.558673 421.398983 -38.391718 421.383381 -20.404582 Z M 421.383381 -20.404582 " transform="matrix(0.00816985,-0.0129671,0.0171634,0.00824118,11.153668,17.101014)"/>
<path style="fill-rule:evenodd;fill:rgb(100%,0%,0%);fill-opacity:1;stroke-width:1.25;stroke-linecap:butt;stroke-linejoin:miter;stroke:rgb(0%,0%,0%);stroke-opacity:1;stroke-miterlimit:4;" d="M 454.264804 -169.381427 C 454.104858 -165.303333 450.221792 -161.852064 445.779242 -161.755718 C 441.050773 -161.823963 437.195502 -165.180605 437.355447 -169.258699 C 437.229474 -173.501385 440.968037 -176.656732 445.696506 -176.588487 C 450.424975 -176.520242 454.280246 -173.1636 454.264804 -169.381427 Z M 454.264804 -169.381427 " transform="matrix(0.0106643,-0.0059315,0.00520757,0.0103038,11.256395,17.060847)"/>
<path style="fill-rule:evenodd;fill:rgb(0%,35.686275%,0%);fill-opacity:1;stroke-width:1.25;stroke-linecap:butt;stroke-linejoin:miter;stroke:rgb(0%,0%,0%);stroke-opacity:1;stroke-miterlimit:4;" d="M 421.301302 -20.342234 C 421.246221 -2.178358 416.758372 11.390017 410.024233 24.964283 C 404.463588 6.815136 401.029606 -2.125335 401.084687 -20.289211 C 401.139768 -38.453087 407.723574 -55.363155 413.334568 -68.934476 C 415.795737 -56.655258 421.356383 -38.50611 421.301302 -20.342234 Z M 421.301302 -20.342234 " transform="matrix(0.0104142,0.0070073,-0.00749538,0.0195913,11.456101,7.610412)"/>
<path style="fill-rule:evenodd;fill:rgb(0%,35.686275%,0%);fill-opacity:1;stroke-width:1.25;stroke-linecap:butt;stroke-linejoin:miter;stroke:rgb(0%,0%,0%);stroke-opacity:1;stroke-miterlimit:4;" d="M 421.347966 -20.276029 C 421.539515 -2.119174 416.710876 11.282716 410.025798 24.916551 C 404.540411 6.870178 401.025661 -2.226065 400.834112 -20.38292 C 401.028591 -38.503248 407.896103 -55.380715 413.423096 -69.124134 C 415.67103 -56.479258 421.542446 -38.396357 421.347966 -20.276029 Z M 421.347966 -20.276029 " transform="matrix(0.0102922,-0.00181365,-0.00182969,0.0191665,11.356764,11.316862)"/>
<path style="fill-rule:evenodd;fill:rgb(0%,35.686275%,0%);fill-opacity:1;stroke-width:1.25;stroke-linecap:butt;stroke-linejoin:miter;stroke:rgb(0%,0%,0%);stroke-opacity:1;stroke-miterlimit:4;" d="M 421.222656 -20.239734 C 421.306854 -2.168464 416.642356 11.475046 410.108739 24.817166 C 404.344053 6.966435 400.961469 -2.33424 401.082243 -20.330367 C 400.998045 -38.401637 407.775414 -55.49278 413.489145 -69.135475 C 415.603119 -56.461494 421.367804 -38.610763 421.222656 -20.239734 Z M 421.222656 -20.239734 " transform="matrix(0.00373086,0.014883,-0.0101768,0.011387,14.226407,4.605957)"/>
<path style="fill-rule:evenodd;fill:rgb(0%,35.686275%,0%);fill-opacity:1;stroke-width:1.25;stroke-linecap:butt;stroke-linejoin:miter;stroke:rgb(0%,0%,0%);stroke-opacity:1;stroke-miterlimit:4;" d="M 421.290879 -20.297637 C 421.306588 -2.269268 416.907109 11.430223 410.119281 24.933875 C 404.357902 6.875131 401.047991 -2.211474 401.032282 -20.239843 C 400.978347 -38.579878 407.868406 -55.380846 413.46206 -68.982418 C 415.662544 -56.548856 421.423923 -38.490113 421.290879 -20.297637 Z M 421.290879 -20.297637 " transform="matrix(0.0121791,-0.0109511,0.0110397,0.0138766,9.643911,16.141361)"/>
<path style="fill-rule:evenodd;fill:rgb(0%,35.686275%,0%);fill-opacity:1;stroke-width:1.25;stroke-linecap:butt;stroke-linejoin:miter;stroke:rgb(0%,0%,0%);stroke-opacity:1;stroke-miterlimit:4;" d="M 421.417196 -20.380153 C 421.364822 -2.14181 416.728558 11.351498 410.127771 24.958235 C 404.45247 6.917009 400.948336 -2.187582 401.00071 -20.425924 C 401.02107 -38.372969 407.706256 -55.480238 413.407727 -69.101846 C 415.628375 -56.516551 421.303677 -38.475325 421.417196 -20.380153 Z M 421.417196 -20.380153 " transform="matrix(0.0127858,-0.0132285,0.014815,0.011956,8.777066,18.560549)"/>
<path style="fill-rule:evenodd;fill:rgb(0%,35.686275%,0%);fill-opacity:1;stroke-width:1.25;stroke-linecap:butt;stroke-linejoin:miter;stroke:rgb(0%,0%,0%);stroke-opacity:1;stroke-miterlimit:4;" d="M 421.387607 -20.234826 C 421.471794 -2.211506 416.735115 11.44529 410.141521 25.035231 C 404.48659 6.811346 401.132004 -2.142906 400.920826 -20.335689 C 401.047487 -38.422085 407.928542 -55.417287 413.424758 -69.093849 C 415.64849 -56.482031 421.387277 -38.490685 421.387607 -20.234826 Z M 421.387607 -20.234826 " transform="matrix(0.0151337,0.00563295,-0.0113408,0.0188295,8.49494,10.632357)"/>
<path style="fill-rule:evenodd;fill:rgb(0%,35.686275%,0%);fill-opacity:1;stroke-width:1.25;stroke-linecap:butt;stroke-linejoin:miter;stroke:rgb(0%,0%,0%);stroke-opacity:1;stroke-miterlimit:4;" d="M 421.249073 -20.290474 C 421.417881 -2.208509 416.853918 11.363371 410.078799 24.926168 C 404.414657 6.940325 401.013518 -2.114281 400.990989 -20.334123 C 400.96846 -38.553965 407.758702 -55.42039 413.395685 -69.106558 C 415.708682 -56.634036 421.437939 -38.410535 421.249073 -20.290474 Z M 421.249073 -20.290474 " transform="matrix(0.00891059,0.0123126,-0.0188778,0.0130629,11.308695,8.019785)"/>
<path style="fill-rule:evenodd;fill:rgb(0%,35.686275%,0%);fill-opacity:1;stroke-width:1.25;stroke-linecap:butt;stroke-linejoin:miter;stroke:rgb(0%,0%,0%);stroke-opacity:1;stroke-miterlimit:4;" d="M 421.249166 -20.407366 C 421.357521 -2.210682 417.094223 11.417805 410.091686 24.882324 C 404.4301 6.803162 400.805988 -2.219629 401.056916 -20.201978 C 400.948561 -38.398662 407.755812 -55.410068 413.605748 -69.072133 C 415.838507 -56.468877 421.500093 -38.389715 421.249166 -20.407366 Z M 421.249166 -20.407366 " transform="matrix(0.00475524,0.00512772,-0.00797104,0.00962954,15.564658,7.97787)"/>
<path style="fill-rule:evenodd;fill:rgb(0%,35.686275%,0%);fill-opacity:1;stroke-width:1.25;stroke-linecap:butt;stroke-linejoin:miter;stroke:rgb(0%,0%,0%);stroke-opacity:1;stroke-miterlimit:4;" d="M 421.535887 -20.465432 C 421.145973 -2.325379 416.859808 11.318309 410.158173 25.043686 C 404.235046 6.731459 400.943981 -2.027833 401.333895 -20.167886 C 401.119941 -38.287518 407.767757 -55.482177 413.261657 -69.16671 C 415.673171 -56.520891 421.321933 -38.585064 421.535887 -20.465432 Z M 421.535887 -20.465432 " transform="matrix(0.00631309,0.000342534,-0.00460175,0.0101283,14.822754,9.969139)"/>
<path style="fill-rule:evenodd;fill:rgb(0%,35.686275%,0%);fill-opacity:1;stroke-width:1.25;stroke-linecap:butt;stroke-linejoin:miter;stroke:rgb(0%,0%,0%);stroke-opacity:1;stroke-miterlimit:4;" d="M 421.4099 -20.538438 C 421.41383 -2.015821 416.952879 11.46855 410.102882 25.126097 C 404.365243 7.019102 400.77971 -1.982443 401.253589 -20.539695 C 400.960563 -38.553911 407.923001 -55.631722 413.33957 -69.185364 C 415.857044 -56.694284 421.594683 -38.587289 421.4099 -20.538438 Z M 421.4099 -20.538438 " transform="matrix(-0.000580894,0.0085268,-0.00801373,0.00484868,17.728642,6.70943)"/>
<path style="fill-rule:evenodd;fill:rgb(0%,35.686275%,0%);fill-opacity:1;stroke-width:1.25;stroke-linecap:butt;stroke-linejoin:miter;stroke:rgb(0%,0%,0%);stroke-opacity:1;stroke-miterlimit:4;" d="M 421.300798 -20.364401 C 421.301059 -2.129046 416.571962 11.409495 410.04388 24.996857 C 404.2201 6.794216 401.178387 -2.209585 400.918481 -20.249901 C 400.91822 -38.485257 407.835725 -55.404405 413.251032 -69.024232 C 415.643677 -56.493606 421.300536 -38.599757 421.300798 -20.364401 Z M 421.300798 -20.364401 " transform="matrix(0.0039416,0.00675826,-0.0147808,0.00899685,13.796214,8.742207)"/>
<path style="fill-rule:evenodd;fill:rgb(0%,35.686275%,0%);fill-opacity:1;stroke-width:1.25;stroke-linecap:butt;stroke-linejoin:miter;stroke:rgb(0%,0%,0%);stroke-opacity:1;stroke-miterlimit:4;" d="M 421.310203 -20.272265 C 421.407857 -2.172265 416.743944 11.293545 410.097176 24.979115 C 404.359065 6.864524 400.917139 -2.217518 401.03986 -20.231644 C 401.074327 -38.478644 407.763394 -55.521941 413.352674 -69.024131 C 415.606559 -56.633855 421.34467 -38.519264 421.310203 -20.272265 Z M 421.310203 -20.272265 " transform="matrix(0.00766887,0.0131278,-0.0196805,0.011799,12.991153,6.059894)"/>
<path style="fill:none;stroke-width:2.3703;stroke-linecap:butt;stroke-linejoin:miter;stroke:rgb(0%,0%,0%);stroke-opacity:1;stroke-miterlimit:4;" d="M 269.633348 155.285288 C 270.734094 155.347653 297.912478 61.182136 388.588708 8.064204 " transform="matrix(0.0208203,-0.0115803,0.00833226,0.0164864,7.373529,15.359201)"/>
<path style="fill-rule:evenodd;fill:rgb(100%,0%,0%);fill-opacity:1;stroke-width:1.25;stroke-linecap:butt;stroke-linejoin:miter;stroke:rgb(0%,0%,0%);stroke-opacity:1;stroke-miterlimit:4;" d="M 454.258008 -169.424507 C 454.383981 -165.181882 450.500915 -161.730663 445.772446 -161.798907 C 441.043976 -161.867151 437.188706 -165.223745 437.348651 -169.301781 C 437.078174 -173.248489 440.961241 -176.699708 445.68971 -176.631464 C 450.418179 -176.56322 454.27345 -173.206626 454.258008 -169.424507 Z M 454.258008 -169.424507 " transform="matrix(0.0106643,-0.0059315,0.00520764,0.010304,12.596548,15.17065)"/>
<path style="fill-rule:evenodd;fill:rgb(100%,0%,0%);fill-opacity:1;stroke-width:1.25;stroke-linecap:butt;stroke-linejoin:miter;stroke:rgb(0%,0%,0%);stroke-opacity:1;stroke-miterlimit:4;" d="M 454.318447 -169.372244 C 454.158502 -165.294209 450.275436 -161.84299 445.546966 -161.911234 C 441.104416 -161.814888 437.249145 -165.171482 437.123172 -169.414107 C 437.283117 -173.492142 441.02168 -176.647444 445.750149 -176.5792 C 450.478618 -176.510956 454.047971 -173.318952 454.318447 -169.372244 Z M 454.318447 -169.372244 " transform="matrix(0.0106643,-0.0059315,0.00520764,0.010304,13.23235,14.79547)"/>
<path style="fill-rule:evenodd;fill:rgb(100%,0%,0%);fill-opacity:1;stroke-width:1.25;stroke-linecap:butt;stroke-linejoin:miter;stroke:rgb(0%,0%,0%);stroke-opacity:1;stroke-miterlimit:4;" d="M 454.207423 -169.130313 C 454.195481 -165.102008 450.584525 -161.908225 445.597599 -161.824237 C 441.026747 -161.915095 437.297002 -165.376872 437.308944 -169.405177 C 437.320885 -173.433482 440.931842 -176.627266 445.918768 -176.711253 C 450.489619 -176.620395 454.219365 -173.158619 454.207423 -169.130313 Z M 454.207423 -169.130313 " transform="matrix(0.0110321,-0.00613604,0.00391151,0.00773941,10.619465,15.646787)"/>
<path style="fill-rule:evenodd;fill:rgb(100%,0%,0%);fill-opacity:1;stroke-width:1.25;stroke-linecap:butt;stroke-linejoin:miter;stroke:rgb(0%,0%,0%);stroke-opacity:1;stroke-miterlimit:4;" d="M 454.272931 -169.370083 C 454.260989 -165.341778 450.510346 -161.75402 445.663107 -162.064007 C 440.952569 -161.760891 437.222823 -165.222667 437.234765 -169.250972 C 437.246707 -173.279278 440.99735 -176.867035 445.84459 -176.557048 C 450.415441 -176.466191 454.284873 -173.398388 454.272931 -169.370083 Z M 454.272931 -169.370083 " transform="matrix(0.0110321,-0.00613604,0.00391151,0.00773941,10.803274,15.567013)"/>
<path style="fill-rule:evenodd;fill:rgb(100%,0%,0%);fill-opacity:1;stroke-width:1.25;stroke-linecap:butt;stroke-linejoin:miter;stroke:rgb(0%,0%,0%);stroke-opacity:1;stroke-miterlimit:4;" d="M 454.25717 -169.284417 C 454.245229 -165.256112 450.494585 -161.668355 445.647346 -161.978341 C 441.076495 -162.069199 437.207063 -165.137002 437.219004 -169.165307 C 437.230946 -173.193612 440.98159 -176.78137 445.828829 -176.471383 C 450.539367 -176.774499 454.269112 -173.312723 454.25717 -169.284417 Z M 454.25717 -169.284417 " transform="matrix(0.0110321,-0.00613604,0.00391151,0.00773941,10.697644,15.738129)"/>
<path style="fill-rule:evenodd;fill:rgb(100%,0%,0%);fill-opacity:1;stroke-width:1.25;stroke-linecap:butt;stroke-linejoin:miter;stroke:rgb(0%,0%,0%);stroke-opacity:1;stroke-miterlimit:4;" d="M 454.333406 -169.191761 C 454.316729 -165.107056 450.434608 -161.88275 445.791629 -161.825975 C 440.891324 -161.91733 437.164272 -165.086409 437.18095 -169.171114 C 437.197627 -173.25582 441.079747 -176.480125 445.722726 -176.536901 C 450.365705 -176.593676 454.350083 -173.276466 454.333406 -169.191761 Z M 454.333406 -169.191761 " transform="matrix(0.0118493,-0.00659059,0.00578625,0.0114488,11.322019,16.462624)"/>
<path style="fill-rule:evenodd;fill:rgb(100%,0%,0%);fill-opacity:1;stroke-width:1.25;stroke-linecap:butt;stroke-linejoin:miter;stroke:rgb(0%,0%,0%);stroke-opacity:1;stroke-miterlimit:4;" d="M 454.17443 -169.323039 C 454.157753 -165.238333 450.532958 -161.865896 445.632653 -161.957252 C 440.989674 -161.900477 437.262622 -165.069555 437.279299 -169.154261 C 437.295976 -173.238966 440.920771 -176.611403 445.821076 -176.520047 C 450.464055 -176.576823 454.191107 -173.407744 454.17443 -169.323039 Z M 454.17443 -169.323039 " transform="matrix(0.0118493,-0.00659059,0.00578625,0.0114488,11.457474,16.322454)"/>
<path style="fill-rule:evenodd;fill:rgb(100%,0%,0%);fill-opacity:1;stroke-width:1.25;stroke-linecap:butt;stroke-linejoin:miter;stroke:rgb(0%,0%,0%);stroke-opacity:1;stroke-miterlimit:4;" d="M 454.279467 -169.351331 C 454.262789 -165.266626 450.380669 -162.04232 445.73769 -161.985545 C 441.094711 -161.92877 437.110333 -165.245979 437.12701 -169.330685 C 437.143688 -173.41539 441.025808 -176.639696 445.668787 -176.696471 C 450.311766 -176.753247 454.296144 -173.436037 454.279467 -169.351331 Z M 454.279467 -169.351331 " transform="matrix(0.0118493,-0.00659059,0.00578625,0.0114488,11.49155,16.389877)"/>
<path style="fill-rule:evenodd;fill:rgb(0%,0%,76.862746%);fill-opacity:1;stroke-width:1.25;stroke-linecap:butt;stroke-linejoin:miter;stroke:rgb(0%,0%,0%);stroke-opacity:1;stroke-miterlimit:4;" d="M 336.589552 308.252637 C 336.589552 325.976554 301.195856 520.83222 389.793539 574.00397 C 425.187236 591.727887 478.391223 556.280054 478.391223 574.00397 L 460.580933 432.320054 Z M 336.589552 308.252637 " transform="matrix(0.0344341,0,0,0.0363651,1.351249,1.325531)"/>
<path style="fill-rule:evenodd;fill:rgb(88.235295%,0%,0%);fill-opacity:1;stroke-width:1.25;stroke-linecap:butt;stroke-linejoin:miter;stroke:rgb(0%,0%,0%);stroke-opacity:1;stroke-miterlimit:4;" d="M 372.096691 343.70044 C 372.096691 361.424357 354.286401 503.108273 407.490388 538.556106 C 442.884085 574.00394 531.481768 564.443767 531.481768 564.443767 L 460.580933 432.320024 Z M 372.096691 343.70044 " transform="matrix(0.0344341,0,0,0.0363651,1.351249,1.325533)"/>
<path style=" stroke:none;fill-rule:evenodd;fill:rgb(0%,0%,0%);fill-opacity:1;" d="M 11.625 11.246094 L 17.210938 17.136719 L 17.3125 17.046875 L 11.722656 11.15625 Z M 11.625 11.246094 "/>
<path style="fill-rule:evenodd;fill:rgb(80.784315%,80.784315%,80.000001%);fill-opacity:1;stroke-width:1.25;stroke-linecap:butt;stroke-linejoin:miter;stroke:rgb(0%,0%,0%);stroke-opacity:1;stroke-miterlimit:4;" d="M 460.76726 184.174987 L 478.380052 219.768593 L 478.453311 237.476035 C 477.474018 236.206115 478.52657 255.183478 460.581618 254.991346 C 442.88149 255.116694 442.734971 219.701809 442.734971 219.701809 C 442.734971 219.701809 425.181362 255.242042 425.32788 290.656926 C 425.229575 325.754331 442.769108 343.640494 442.769108 343.640494 C 442.769108 343.640494 440.207261 306.915457 460.567541 308.417742 C 480.916853 309.298477 478.340929 325.999836 478.340929 325.999836 L 478.487448 361.414721 L 496.187576 361.289373 L 496.08018 219.643245 L 513.878613 184.420492 L 486.618996 130.851227 Z M 460.76726 184.174987 " transform="matrix(0.00798837,-0.00834069,0.00614373,0.00643189,5.875201,13.25618)"/>
<path style="fill-rule:evenodd;fill:rgb(80.784315%,80.784315%,80.000001%);fill-opacity:1;stroke-width:1.25;stroke-linecap:butt;stroke-linejoin:miter;stroke:rgb(0%,0%,0%);stroke-opacity:1;stroke-miterlimit:4;" d="M 557.721365 95.778224 L 531.611112 166.601694 L 549.024074 219.599695 L 513.841864 201.739211 L 549.246808 255.055714 L 549.18049 290.727904 L 566.980655 290.714891 L 567.046974 255.042701 L 602.264585 202.10649 L 566.824239 219.586682 L 584.530738 166.447313 Z M 557.721365 95.778224 " transform="matrix(0.00615062,-0.00943237,0.00822424,0.00545767,7.504622,12.765252)"/>
<path style="fill-rule:evenodd;fill:rgb(88.235295%,0%,0%);fill-opacity:1;stroke-width:1.25;stroke-linecap:butt;stroke-linejoin:miter;stroke:rgb(0%,0%,0%);stroke-opacity:1;stroke-miterlimit:4;" d="M 422.595665 136.968303 C 422.595665 139.103716 420.612454 140.812046 418.13344 140.812046 C 415.819693 140.812046 413.836482 139.103716 413.836482 136.968303 C 413.836482 134.83289 415.819693 133.12456 418.13344 133.12456 C 420.612454 133.12456 422.595665 134.83289 422.595665 136.968303 Z M 416.315496 144.869331 C 416.315496 180.744268 437.139214 332.785669 438.79189 336.415871 C 438.957158 340.900238 434.164397 342.822109 431.850651 337.270036 C 425.239947 319.973191 411.026933 177.327607 410.53113 144.015165 C 410.200595 130.348523 414.167017 129.280816 418.79451 129.494358 C 422.595665 129.707899 427.05789 133.12456 427.05789 137.395385 C 427.05789 142.306835 421.273524 146.150578 416.315496 144.869331 Z M 416.315496 144.869331 " transform="matrix(0.0236359,0,0,0.0182927,3.36313,6.041353)"/>
<path style="fill-rule:evenodd;fill:rgb(0%,0%,76.862746%);fill-opacity:1;stroke-width:1.25;stroke-linecap:butt;stroke-linejoin:miter;stroke:rgb(0%,0%,0%);stroke-opacity:1;stroke-miterlimit:4;" d="M 422.539296 136.882223 C 422.482427 138.937172 420.545342 140.670218 418.121805 140.743312 C 415.854171 140.768019 413.723702 138.939222 413.780571 136.884273 C 413.83744 134.829325 415.774525 133.096279 418.122453 133.273018 C 420.54599 133.199923 422.440261 134.875662 422.539296 136.882223 Z M 416.288439 144.934197 C 447.737052 206.252551 465.018599 311.58207 466.700098 315.361146 C 466.746948 319.873934 461.918615 321.825238 459.514466 316.233154 C 457.133743 312.897463 446.900015 216.019734 410.491887 144.016877 C 410.27104 130.277068 414.24893 129.268815 418.708588 129.469236 C 422.464335 129.661762 427.037082 133.22258 427.079248 137.284089 C 427.211078 142.449601 421.305472 146.093457 416.288439 144.934197 Z M 416.288439 144.934197 " transform="matrix(0.0222971,0.00535585,-0.00888744,0.0172563,5.267783,4.175644)"/>
<path style="fill-rule:evenodd;fill:rgb(88.235295%,0%,0%);fill-opacity:1;stroke-width:1.25;stroke-linecap:butt;stroke-linejoin:miter;stroke:rgb(0%,0%,0%);stroke-opacity:1;stroke-miterlimit:4;" d="M 422.525737 136.936361 C 422.525737 139.03649 420.585729 140.742845 418.128385 140.742845 C 415.800375 140.742845 413.731033 139.03649 413.731033 136.936361 C 413.731033 134.836231 415.800375 133.261134 418.128385 133.261134 C 420.585729 133.261134 422.525737 134.836231 422.525737 136.936361 Z M 416.317711 144.811846 C 416.317711 180.645303 437.140465 332.642166 438.821806 336.44865 C 438.95114 340.911425 434.165786 342.749038 431.837776 337.236199 C 425.241748 319.910131 411.015021 177.363851 410.497686 144.024297 C 410.239018 130.373456 414.248368 129.192134 418.775054 129.45465 C 422.525737 129.717166 427.052423 133.261134 427.052423 137.330135 C 427.052423 142.317942 421.232398 146.124427 416.317711 144.811846 Z M 416.317711 144.811846 " transform="matrix(0.0302028,0,0,0.0297601,-0.667726,6.823202)"/>
<path style="fill-rule:evenodd;fill:rgb(0%,0%,76.862746%);fill-opacity:1;stroke-width:1.25;stroke-linecap:butt;stroke-linejoin:miter;stroke:rgb(0%,0%,0%);stroke-opacity:1;stroke-miterlimit:4;" d="M 422.51904 136.897294 C 422.527299 138.981835 420.604007 140.691892 418.161133 140.75439 C 415.790911 140.655198 413.781202 139.05271 413.772943 136.96817 C 413.764685 134.883629 415.687976 133.173572 418.180204 133.234896 C 420.623079 133.172399 422.560135 134.936576 422.51904 136.897294 Z M 416.2228 144.8345 C 447.713853 206.300385 465.037754 311.679186 466.64035 315.355993 C 466.804926 319.896542 461.950735 321.820566 459.607844 316.286421 C 457.151205 312.874684 446.92165 216.0078 410.404849 143.996562 C 410.155132 130.299181 414.230686 129.173385 418.727117 129.447503 C 422.514812 129.663313 427.09766 133.249976 427.114178 137.419058 C 427.182801 142.406808 421.285414 146.185154 416.2228 144.8345 Z M 416.2228 144.8345 " transform="matrix(0.0284922,0.00871343,-0.0113564,0.0280742,1.76618,3.787629)"/>
<path style=" stroke:none;fill-rule:evenodd;fill:rgb(0%,0%,0%);fill-opacity:1;" d="M 22.628906 19.074219 L 26.898438 23.585938 L 26.972656 23.488281 L 22.703125 18.976562 Z M 22.628906 19.074219 "/>
<path style=" stroke:none;fill-rule:evenodd;fill:rgb(0%,0%,0%);fill-opacity:1;" d="M 19.652344 19.8125 L 25.242188 25.703125 L 25.339844 25.609375 L 19.75 19.71875 Z M 19.652344 19.8125 "/>
<path style="fill-rule:evenodd;fill:rgb(50.196081%,50.196081%,50.196081%);fill-opacity:1;stroke-width:4.1036;stroke-linecap:butt;stroke-linejoin:miter;stroke:rgb(0%,0%,0%);stroke-opacity:1;stroke-miterlimit:4;" d="M 478.508727 60.426675 L 478.415325 148.536124 L 495.807837 237.321102 L 513.861604 148.774801 L 513.465803 60.296961 Z M 478.508727 60.426675 " transform="matrix(0.00404222,-0.00400307,0.0052357,0.00531584,22.893918,27.254439)"/>
<path style="fill-rule:evenodd;fill:rgb(50.196081%,50.196081%,50.196081%);fill-opacity:1;stroke-width:4.1036;stroke-linecap:butt;stroke-linejoin:miter;stroke:rgb(0%,0%,0%);stroke-opacity:1;stroke-miterlimit:4;" d="M 478.012974 60.128303 L 478.408775 148.606143 L 495.801287 237.391121 L 513.855054 148.84482 L 513.94108 59.994986 Z M 478.012974 60.128303 " transform="matrix(0.00404222,-0.00400307,0.0052357,0.00531584,24.334984,24.953259)"/>
<path style="fill-rule:evenodd;fill:rgb(100%,87.450981%,0%);fill-opacity:1;stroke-width:1.25;stroke-linecap:butt;stroke-linejoin:miter;stroke:rgb(0%,0%,0%);stroke-opacity:1;stroke-miterlimit:4;" d="M 301.143439 272.803236 C 301.143439 272.803236 283.423075 609.440994 354.304529 609.440994 C 425.185983 609.440994 460.62671 573.967559 460.62671 573.967559 L 459.740692 388.991589 Z M 301.143439 272.803236 " transform="matrix(-0.0264526,0,0,0.0379906,34.255095,-1.598327)"/>
<path style="fill-rule:evenodd;fill:rgb(0%,0%,76.862746%);fill-opacity:1;stroke-width:1.25;stroke-linecap:butt;stroke-linejoin:miter;stroke:rgb(0%,0%,0%);stroke-opacity:1;stroke-miterlimit:4;" d="M 344.41066 304.163809 C 344.41066 321.951938 336.584166 574.070381 372.024893 574.070381 C 407.46562 574.070381 460.62671 556.282253 460.62671 556.282253 L 459.740692 388.991589 Z M 344.41066 304.163809 " transform="matrix(-0.0264526,0,0,0.0379906,34.255095,-1.598327)"/>
<path style="fill-rule:evenodd;fill:rgb(88.235295%,0%,0%);fill-opacity:1;stroke-width:1.25;stroke-linecap:butt;stroke-linejoin:miter;stroke:rgb(0%,0%,0%);stroke-opacity:1;stroke-miterlimit:4;" d="M 367.447132 321.129365 C 367.447132 338.917494 372.024893 538.596946 407.46562 538.596946 L 460.62671 538.596946 L 459.740692 388.991589 Z M 367.447132 321.129365 " transform="matrix(-0.0264526,0,0,0.0379906,34.255095,-1.598327)"/>
<path style=" stroke:none;fill-rule:evenodd;fill:rgb(0%,0%,0%);fill-opacity:1;" d="M 26.363281 8.765625 L 22.09375 13.277344 L 22.019531 13.179688 L 26.289062 8.671875 Z M 26.363281 8.765625 "/>
<path style="fill-rule:evenodd;fill:rgb(0%,35.686275%,0%);fill-opacity:1;stroke-width:1.25;stroke-linecap:butt;stroke-linejoin:miter;stroke:rgb(0%,0%,0%);stroke-opacity:1;stroke-miterlimit:4;" d="M 428.365256 -16.97739 C 428.365256 -16.97739 509.645064 73.726157 539.317902 137.090199 C 568.53941 200.547862 593.681454 293.423384 593.681454 293.423384 C 593.681454 293.423384 595.906012 207.399817 557.257138 130.313188 C 505.20074 32.936532 426.081943 -12.378435 428.365256 -16.97739 Z M 428.365256 -16.97739 " transform="matrix(0.00964867,-0.00434535,0.00479042,0.0207758,19.034112,14.366458)"/>
<path style="fill-rule:evenodd;fill:rgb(0%,35.686275%,0%);fill-opacity:1;stroke-width:1.25;stroke-linecap:butt;stroke-linejoin:miter;stroke:rgb(0%,0%,0%);stroke-opacity:1;stroke-miterlimit:4;" d="M 428.241426 -16.904297 C 428.241426 -16.904297 509.85893 73.750726 539.25416 137.139053 C 568.649391 200.527379 593.419228 293.412895 593.419228 293.412895 C 593.419228 293.412895 595.973301 207.346606 557.190113 130.309643 C 505.322066 32.845602 425.995863 -12.436847 428.241426 -16.904297 Z M 428.241426 -16.904297 " transform="matrix(0.0115661,-0.00301558,0.00406493,0.0229669,17.971112,12.691355)"/>
<path style="fill-rule:evenodd;fill:rgb(0%,35.686275%,0%);fill-opacity:1;stroke-width:1.25;stroke-linecap:butt;stroke-linejoin:miter;stroke:rgb(0%,0%,0%);stroke-opacity:1;stroke-miterlimit:4;" d="M 428.241059 -16.879505 C 428.241059 -16.879505 509.859893 73.617942 539.211419 137.193926 C 568.543125 200.610261 593.512614 293.4164 593.512614 293.4164 C 593.512614 293.4164 595.714566 207.450771 557.236779 130.283744 C 505.099332 32.969624 425.937 -12.392795 428.241059 -16.879505 Z M 428.241059 -16.879505 " transform="matrix(0.0136529,0.00833317,-0.00169507,0.0234331,18.265262,6.01834)"/>
<path style="fill-rule:evenodd;fill:rgb(0%,35.686275%,0%);fill-opacity:1;stroke-width:1.25;stroke-linecap:butt;stroke-linejoin:miter;stroke:rgb(0%,0%,0%);stroke-opacity:1;stroke-miterlimit:4;" d="M 428.226808 -16.950812 C 428.226808 -16.950812 509.701007 73.731219 539.124425 137.12683 C 568.547842 200.52244 593.570518 293.379437 593.570518 293.379437 C 593.570518 293.379437 595.835879 207.390584 557.361177 130.328014 C 505.169165 32.84969 426.038616 -12.443003 428.226808 -16.950812 Z M 428.226808 -16.950812 " transform="matrix(0.0144995,0.00176233,0.000972544,0.0259855,16.963641,8.701423)"/>
<path style="fill-rule:evenodd;fill:rgb(0%,35.686275%,0%);fill-opacity:1;stroke-width:1.25;stroke-linecap:butt;stroke-linejoin:miter;stroke:rgb(0%,0%,0%);stroke-opacity:1;stroke-miterlimit:4;" d="M 428.284791 -16.991432 C 428.284791 -16.991432 509.814581 73.697427 539.236821 137.089181 C 568.659061 200.480935 593.49388 293.478 593.49388 293.478 C 593.49388 293.478 595.739254 207.485008 557.265239 130.259303 C 505.168003 32.957506 425.936424 -12.336285 428.284791 -16.991432 Z M 428.284791 -16.991432 " transform="matrix(0.0106598,0.00987779,-0.00217462,0.0209264,20.241381,5.875061)"/>
<path style="fill-rule:evenodd;fill:rgb(0%,35.686275%,0%);fill-opacity:1;stroke-width:1.25;stroke-linecap:butt;stroke-linejoin:miter;stroke:rgb(0%,0%,0%);stroke-opacity:1;stroke-miterlimit:4;" d="M 428.267816 -16.858085 C 428.267816 -16.858085 509.63884 73.639998 539.212598 137.183375 C 568.518561 200.563228 593.652382 293.396547 593.652382 293.396547 C 593.652382 293.396547 595.866511 207.374756 557.214077 130.377271 C 505.286254 32.868497 425.837915 -12.409069 428.267816 -16.858085 Z M 428.267816 -16.858085 " transform="matrix(0.0133509,0.0000832953,0.00202381,0.0237516,17.328056,10.290515)"/>
<path style="fill-rule:evenodd;fill:rgb(0%,35.686275%,0%);fill-opacity:1;stroke-width:1.25;stroke-linecap:butt;stroke-linejoin:miter;stroke:rgb(0%,0%,0%);stroke-opacity:1;stroke-miterlimit:4;" d="M 428.312813 -16.904143 C 428.312813 -16.904143 509.679832 73.638688 539.220814 137.073299 C 568.761797 200.50791 593.373442 293.489544 593.373442 293.489544 C 593.373442 293.489544 595.91172 207.407396 557.261791 130.248234 C 505.312308 32.91348 425.784154 -12.380481 428.312813 -16.904143 Z M 428.312813 -16.904143 " transform="matrix(0.0116628,-0.00418645,0.00392877,0.0227018,17.891408,13.532333)"/>
<path style="fill-rule:evenodd;fill:rgb(0%,35.686275%,0%);fill-opacity:1;stroke-width:1.25;stroke-linecap:butt;stroke-linejoin:miter;stroke:rgb(0%,0%,0%);stroke-opacity:1;stroke-miterlimit:4;" d="M 428.310417 -16.986816 C 428.310417 -16.986816 509.665477 73.748792 539.12019 137.052532 C 568.53336 200.520517 593.499043 293.467792 593.499043 293.467792 C 593.499043 293.467792 595.900876 207.311091 557.201422 130.331461 C 505.269008 32.974279 425.795824 -12.332038 428.310417 -16.986816 Z M 428.310417 -16.986816 " transform="matrix(0.0116845,-0.00192649,0.00295539,0.0232958,18.041716,11.759921)"/>
<path style="fill-rule:evenodd;fill:rgb(0%,35.686275%,0%);fill-opacity:1;stroke-width:1.25;stroke-linecap:butt;stroke-linejoin:miter;stroke:rgb(0%,0%,0%);stroke-opacity:1;stroke-miterlimit:4;" d="M 428.18779 -16.987173 C 428.18779 -16.987173 509.63107 73.648091 539.279196 137.040809 C 568.654467 200.54352 593.418808 293.47856 593.418808 293.47856 C 593.418808 293.47856 595.823962 207.329456 557.397678 130.263826 C 505.122018 32.963808 425.956501 -12.399516 428.18779 -16.987173 Z M 428.18779 -16.987173 " transform="matrix(0.0131111,0.00896598,-0.00298933,0.0222416,18.772692,5.788701)"/>
<path style="fill-rule:evenodd;fill:rgb(0%,35.686275%,0%);fill-opacity:1;stroke-width:1.25;stroke-linecap:butt;stroke-linejoin:miter;stroke:rgb(0%,0%,0%);stroke-opacity:1;stroke-miterlimit:4;" d="M 428.185929 -16.929809 C 428.185929 -16.929809 509.767838 73.741715 539.225809 137.174486 C 568.68378 200.607258 593.542595 293.416573 593.542595 293.416573 C 593.542595 293.416573 595.70232 207.431105 557.29262 130.357012 C 505.184349 32.853384 425.827252 -12.443614 428.185929 -16.929809 Z M 428.185929 -16.929809 " transform="matrix(0.0143825,0.00311541,-0.000274759,0.0260183,17.227597,7.684637)"/>
<path style="fill-rule:evenodd;fill:rgb(0%,35.686275%,0%);fill-opacity:1;stroke-width:1.25;stroke-linecap:butt;stroke-linejoin:miter;stroke:rgb(0%,0%,0%);stroke-opacity:1;stroke-miterlimit:4;" d="M 428.162717 -16.978986 C 428.162717 -16.978986 509.674616 73.807595 539.098439 137.076867 C 568.579818 200.517553 593.537617 293.410896 593.537617 293.410896 C 593.537617 293.410896 595.829963 207.42708 557.456259 130.264144 C 505.274461 32.859421 425.818584 -12.359072 428.162717 -16.978986 Z M 428.162717 -16.978986 " transform="matrix(0.010028,0.00997961,-0.00336706,0.0194375,20.770304,6.053227)"/>
<path style="fill-rule:evenodd;fill:rgb(0%,35.686275%,0%);fill-opacity:1;stroke-width:1.25;stroke-linecap:butt;stroke-linejoin:miter;stroke:rgb(0%,0%,0%);stroke-opacity:1;stroke-miterlimit:4;" d="M 428.060716 -16.974512 C 428.060716 -16.974512 509.756331 73.737324 539.218871 137.066044 C 568.675714 200.55601 593.513397 293.364017 593.513397 293.364017 C 593.513397 293.364017 595.727218 207.288497 557.375941 130.277234 C 505.136692 32.843131 425.969153 -12.388359 428.060716 -16.974512 Z M 428.060716 -16.974512 " transform="matrix(0.0141711,0.000894271,0.000500618,0.0242568,17.083051,9.474258)"/>
<path style="fill-rule:evenodd;fill:rgb(100%,87.450981%,0%);fill-opacity:1;stroke-width:1.25;stroke-linecap:butt;stroke-linejoin:miter;stroke:rgb(0%,0%,0%);stroke-opacity:1;stroke-miterlimit:4;" d="M 301.232319 272.804727 C 301.232319 272.804727 265.725181 609.451728 372.019713 609.451728 C 460.617397 609.451728 460.617397 556.279977 478.314245 556.279977 L 460.617397 432.319978 Z M 301.232319 272.804727 " transform="matrix(-0.0344341,0,0,0.0363651,37.954694,1.325534)"/>
<path style="fill-rule:evenodd;fill:rgb(0%,0%,76.862746%);fill-opacity:1;stroke-width:1.25;stroke-linecap:butt;stroke-linejoin:miter;stroke:rgb(0%,0%,0%);stroke-opacity:1;stroke-miterlimit:4;" d="M 336.626016 308.252591 C 336.626016 325.976508 301.232319 520.832174 389.716562 574.003925 C 425.2237 591.727841 478.314245 556.280008 478.314245 574.003925 L 460.617397 432.320009 Z M 336.626016 308.252591 " transform="matrix(-0.0344341,0,0,0.0363651,37.954694,1.325533)"/>
<path style="fill-rule:evenodd;fill:rgb(88.235295%,0%,0%);fill-opacity:1;stroke-width:1.25;stroke-linecap:butt;stroke-linejoin:miter;stroke:rgb(0%,0%,0%);stroke-opacity:1;stroke-miterlimit:4;" d="M 372.019713 343.700394 C 372.019713 361.424311 354.322865 503.108227 407.526851 538.556061 C 442.920548 574.003894 531.518232 564.443721 531.518232 564.443721 L 460.617397 432.319978 Z M 372.019713 343.700394 " transform="matrix(-0.0344341,0,0,0.0363651,37.954694,1.325534)"/>
<path style=" stroke:none;fill-rule:evenodd;fill:rgb(0%,0%,0%);fill-opacity:1;" d="M 27.683594 11.246094 L 22.09375 17.136719 L 21.996094 17.046875 L 27.582031 11.15625 Z M 27.683594 11.246094 "/>
<path style="fill-rule:evenodd;fill:rgb(80.784315%,80.784315%,80.000001%);fill-opacity:1;stroke-width:1.25;stroke-linecap:butt;stroke-linejoin:miter;stroke:rgb(0%,0%,0%);stroke-opacity:1;stroke-miterlimit:4;" d="M 460.824351 184.249022 L 478.437143 219.842628 L 478.265579 237.23259 C 477.531109 236.28015 478.338838 254.940032 460.63871 255.06538 C 442.938582 255.190728 442.792063 219.775844 442.792063 219.775844 C 442.792063 219.775844 425.238453 255.316076 425.140148 290.413481 C 425.286667 325.828366 442.8262 343.714529 442.8262 343.714529 C 442.8262 343.714529 440.264353 306.989492 460.624633 308.491776 C 480.973944 309.372512 478.398021 326.073871 478.398021 326.073871 L 478.299716 361.171276 L 496.244668 361.363408 L 496.137271 219.71728 L 513.690881 184.177047 L 486.676087 130.925262 Z M 460.824351 184.249022 " transform="matrix(-0.00798837,-0.00834069,-0.00614373,0.00643189,33.430398,13.25618)"/>
<path style="fill-rule:evenodd;fill:rgb(80.784315%,80.784315%,80.000001%);fill-opacity:1;stroke-width:1.25;stroke-linecap:butt;stroke-linejoin:miter;stroke:rgb(0%,0%,0%);stroke-opacity:1;stroke-miterlimit:4;" d="M 557.782995 95.884739 L 531.480925 166.376694 L 549.085704 219.70621 L 513.903494 201.845726 L 549.308439 255.162228 L 549.050303 290.502905 L 566.850468 290.489892 L 567.108604 255.149215 L 602.326215 202.213005 L 566.88587 219.693197 L 584.592368 166.553827 Z M 557.782995 95.884739 " transform="matrix(-0.00615062,-0.00943237,-0.00822424,0.00545767,31.801321,12.765252)"/>
<path style="fill-rule:evenodd;fill:rgb(88.235295%,0%,0%);fill-opacity:1;stroke-width:1.25;stroke-linecap:butt;stroke-linejoin:miter;stroke:rgb(0%,0%,0%);stroke-opacity:1;stroke-miterlimit:4;" d="M 422.522817 136.968303 C 422.522817 139.103716 420.539605 140.812046 418.225859 140.812046 C 415.746845 140.812046 413.763634 139.103716 413.763634 136.968303 C 413.763634 134.83289 415.746845 133.12456 418.225859 133.12456 C 420.539605 133.12456 422.522817 134.83289 422.522817 136.968303 Z M 416.242648 144.869331 C 416.242648 180.744268 437.231633 332.785669 438.884309 336.415871 C 439.049577 340.900238 434.091549 342.822109 431.777802 337.270036 C 425.167098 319.973191 411.119352 177.327607 410.458282 144.015165 C 410.293014 130.348523 414.259437 129.280816 418.721662 129.494358 C 422.522817 129.707899 427.150309 133.12456 427.150309 137.395385 C 427.150309 142.306835 421.200676 146.150578 416.242648 144.869331 Z M 416.242648 144.869331 " transform="matrix(-0.0236359,0,0,0.0182927,35.943742,6.041353)"/>
<path style="fill-rule:evenodd;fill:rgb(0%,0%,76.862746%);fill-opacity:1;stroke-width:1.25;stroke-linecap:butt;stroke-linejoin:miter;stroke:rgb(0%,0%,0%);stroke-opacity:1;stroke-miterlimit:4;" d="M 422.575663 136.870936 C 422.518793 138.925885 420.581708 140.658931 418.158171 140.732025 C 415.734634 140.805119 413.760068 138.927935 413.816937 136.872986 C 413.717902 134.866426 415.654988 133.13338 418.158819 133.261731 C 420.582356 133.188636 422.476628 134.864375 422.575663 136.870936 Z M 416.324806 144.92291 C 447.773418 206.241264 465.054966 311.570783 466.736464 315.349859 C 466.783315 319.862647 461.954981 321.813951 459.550832 316.221866 C 457.170109 312.886176 446.936382 216.008447 410.528253 144.00559 C 410.151503 130.314169 414.285297 129.257528 418.744954 129.457949 C 422.500701 129.650475 427.073449 133.211293 427.115614 137.272802 C 427.091541 142.486702 421.341839 146.08217 416.324806 144.92291 Z M 416.324806 144.92291 " transform="matrix(-0.0222971,0.00535585,0.00888744,0.0172563,34.037816,4.175644)"/>
<path style="fill-rule:evenodd;fill:rgb(88.235295%,0%,0%);fill-opacity:1;stroke-width:1.25;stroke-linecap:butt;stroke-linejoin:miter;stroke:rgb(0%,0%,0%);stroke-opacity:1;stroke-miterlimit:4;" d="M 422.529659 136.936361 C 422.529659 139.03649 420.58965 140.742845 418.132307 140.742845 C 415.804297 140.742845 413.734955 139.03649 413.734955 136.936361 C 413.734955 134.836231 415.804297 133.261134 418.132307 133.261134 C 420.58965 133.261134 422.529659 134.836231 422.529659 136.936361 Z M 416.321632 144.811846 C 416.321632 180.645303 437.144387 332.642166 438.825728 336.44865 C 438.955062 340.911425 434.169708 342.749038 431.841698 337.236199 C 425.24567 319.910131 411.018943 177.363851 410.501608 144.024297 C 410.24294 130.373456 414.25229 129.192134 418.778976 129.45465 C 422.529659 129.717166 427.056344 133.261134 427.056344 137.330135 C 427.056344 142.317942 421.23632 146.124427 416.321632 144.811846 Z M 416.321632 144.811846 " transform="matrix(-0.0302028,0,0,0.0297601,39.972531,6.823202)"/>
<path style="fill-rule:evenodd;fill:rgb(0%,0%,76.862746%);fill-opacity:1;stroke-width:1.25;stroke-linecap:butt;stroke-linejoin:miter;stroke:rgb(0%,0%,0%);stroke-opacity:1;stroke-miterlimit:4;" d="M 422.504509 136.901804 C 422.512767 138.986345 420.589476 140.696402 418.146601 140.7589 C 415.776379 140.659708 413.76667 139.057221 413.758411 136.97268 C 413.750153 134.888139 415.673445 133.178082 418.165672 133.239407 C 420.608547 133.176909 422.545603 134.941086 422.504509 136.901804 Z M 416.208268 144.83901 C 447.821327 206.267028 465.023222 311.683696 466.625818 315.360503 C 466.790394 319.901052 461.936204 321.825076 459.593312 316.290931 C 457.136673 312.879194 446.907118 216.01231 410.390317 144.001072 C 410.262606 130.265824 414.216154 129.177895 418.712585 129.452014 C 422.50028 129.667823 427.083129 133.254487 427.099646 137.423568 C 427.168269 142.411319 421.270882 146.189664 416.208268 144.83901 Z M 416.208268 144.83901 " transform="matrix(-0.0284922,0.00871343,0.0113564,0.0280742,37.538042,3.787629)"/>
<path style="fill-rule:evenodd;fill:rgb(88.235295%,0%,0%);fill-opacity:1;stroke-width:1.25;stroke-linecap:butt;stroke-linejoin:miter;stroke:rgb(0%,0%,0%);stroke-opacity:1;stroke-miterlimit:4;" d="M 478.391223 698.071357 C 496.088071 708.705707 515.48654 706.342518 531.481768 698.071357 L 531.481768 556.280023 L 496.088071 556.280023 C 513.78492 609.451773 513.78492 662.623524 478.391223 698.071357 Z M 478.391223 698.071357 " transform="matrix(0.0344341,0,0,0.0363651,1.351249,1.325533)"/>
<path style="fill-rule:evenodd;fill:rgb(0%,0%,76.862746%);fill-opacity:1;stroke-width:1.25;stroke-linecap:butt;stroke-linejoin:miter;stroke:rgb(0%,0%,0%);stroke-opacity:1;stroke-miterlimit:4;" d="M 513.83822 609.422249 C 513.83822 698.029898 471.387574 717.699268 471.387574 735.458991 C 489.122511 735.458991 500.820022 727.152023 513.83822 715.78962 C 531.573156 698.029898 533.271182 608.085496 531.573156 609.422249 Z M 513.83822 609.422249 " transform="matrix(0.0207042,0,0,0.0409107,8.064521,-3.377197)"/>
<path style="fill-rule:evenodd;fill:rgb(0%,0%,76.862746%);fill-opacity:1;stroke-width:1.25;stroke-linecap:butt;stroke-linejoin:miter;stroke:rgb(0%,0%,0%);stroke-opacity:1;stroke-miterlimit:4;" d="M 478.368347 609.422249 C 477.613669 661.173699 433.464997 709.105854 441.766457 719.704398 C 451.388603 729.157153 478.368347 698.029898 513.83822 715.78962 C 531.573156 698.029898 533.271182 608.085496 531.573156 609.422249 Z M 478.368347 609.422249 " transform="matrix(0.0207042,0,0,0.0409107,8.064521,-3.377197)"/>
<path style="fill-rule:evenodd;fill:rgb(100%,87.450981%,0%);fill-opacity:1;stroke-width:1.25;stroke-linecap:butt;stroke-linejoin:miter;stroke:rgb(0%,0%,0%);stroke-opacity:1;stroke-miterlimit:4;" d="M 513.752987 609.406336 C 513.752987 698.058181 473.000367 703.930113 473.000367 727.561057 C 490.735304 727.561057 513.752987 714.671451 513.752987 715.817194 C 531.487924 698.058181 533.18595 608.117375 531.487924 609.406336 Z M 513.752987 609.406336 " transform="matrix(0.0207042,0,0,0.0272749,7.417848,4.933201)"/>
<path style="fill-rule:evenodd;fill:rgb(100%,87.450981%,0%);fill-opacity:1;stroke-width:1.25;stroke-linecap:butt;stroke-linejoin:miter;stroke:rgb(0%,0%,0%);stroke-opacity:1;stroke-miterlimit:4;" d="M 478.283114 609.406336 C 477.528436 661.251195 434.700451 705.219074 443.001911 715.817194 C 452.435388 725.269572 478.283114 698.058181 513.752987 715.817194 C 531.487924 698.058181 533.18595 608.117375 531.487924 609.406336 Z M 478.283114 609.406336 " transform="matrix(0.0207042,0,0,0.0272749,7.417848,4.933201)"/>
<path style="fill-rule:evenodd;fill:rgb(88.235295%,0%,0%);fill-opacity:1;stroke-width:1.25;stroke-linecap:butt;stroke-linejoin:miter;stroke:rgb(0%,0%,0%);stroke-opacity:1;stroke-miterlimit:4;" d="M 478.314245 698.055671 C 496.011094 708.690021 515.409562 706.326832 531.518232 698.055671 L 531.518232 556.264337 L 496.011094 556.264337 C 513.821383 609.436087 513.821383 662.607838 478.314245 698.055671 Z M 478.314245 698.055671 " transform="matrix(-0.0344341,0,0,0.0363651,37.954694,1.326103)"/>
<path style="fill-rule:evenodd;fill:rgb(0%,0%,76.862746%);fill-opacity:1;stroke-width:1.25;stroke-linecap:butt;stroke-linejoin:miter;stroke:rgb(0%,0%,0%);stroke-opacity:1;stroke-miterlimit:4;" d="M 513.693623 609.413352 C 513.693623 698.021 471.242977 717.69037 471.242977 735.450093 C 488.977914 735.450093 500.864095 727.143126 513.693623 715.780723 C 531.42856 698.021 533.126585 608.076598 531.42856 609.413352 Z M 513.693623 609.413352 " transform="matrix(-0.0207042,0,0,0.0409107,31.241079,-3.376833)"/>
<path style="fill-rule:evenodd;fill:rgb(0%,0%,76.862746%);fill-opacity:1;stroke-width:1.25;stroke-linecap:butt;stroke-linejoin:miter;stroke:rgb(0%,0%,0%);stroke-opacity:1;stroke-miterlimit:4;" d="M 478.41242 609.413352 C 477.469072 661.260284 433.50907 709.096956 441.81053 719.6955 C 451.244006 729.148256 478.41242 698.021 513.693623 715.780723 C 531.42856 698.021 533.126585 608.076598 531.42856 609.413352 Z M 478.41242 609.413352 " transform="matrix(-0.0207042,0,0,0.0409107,31.241079,-3.376833)"/>
<path style="fill-rule:evenodd;fill:rgb(100%,87.450981%,0%);fill-opacity:1;stroke-width:1.25;stroke-linecap:butt;stroke-linejoin:miter;stroke:rgb(0%,0%,0%);stroke-opacity:1;stroke-miterlimit:4;" d="M 513.813632 609.385005 C 513.813632 698.03685 473.061012 703.908782 473.061012 727.539726 C 490.795948 727.539726 513.624962 714.65012 513.813632 715.795863 C 531.548568 698.03685 533.246594 608.096044 531.548568 609.385005 Z M 513.813632 609.385005 " transform="matrix(-0.0207042,0,0,0.0272749,31.888095,4.933783)"/>
<path style="fill-rule:evenodd;fill:rgb(100%,87.450981%,0%);fill-opacity:1;stroke-width:1.25;stroke-linecap:butt;stroke-linejoin:miter;stroke:rgb(0%,0%,0%);stroke-opacity:1;stroke-miterlimit:4;" d="M 478.343759 609.406336 C 477.589081 661.251195 434.572426 705.219074 442.873886 715.817194 C 452.307363 725.269572 478.343759 698.058181 513.813632 715.817194 C 531.548568 698.058181 533.246594 608.117375 531.548568 609.406336 Z M 478.343759 609.406336 " transform="matrix(-0.0207042,0,0,0.0272749,31.888095,4.933201)"/>
<path style="fill-rule:evenodd;fill:rgb(56.470591%,56.078434%,54.11765%);fill-opacity:1;stroke-width:4.4666;stroke-linecap:butt;stroke-linejoin:miter;stroke:rgb(0%,0%,0%);stroke-opacity:1;stroke-miterlimit:4;" d="M 198.815369 77.912707 L 108.6604 113.361161 L 198.815369 148.809615 L 243.343128 131.085388 L 265.88187 148.809615 L 288.420613 184.258069 L 310.409629 148.809615 L 332.948372 131.085388 L 1535.197865 131.085388 L 1535.197865 95.636934 L 332.948372 95.636934 L 310.409629 77.912707 C 310.409629 60.18848 315.357158 42.464253 332.948372 42.464253 C 350.539585 42.464253 387.371188 42.464253 422.553615 42.464253 C 422.553615 24.740026 378.025856 -10.708428 288.420613 -10.708428 C 198.815369 -10.708428 153.737885 24.740026 153.737885 42.464253 C 188.920312 42.464253 225.751915 42.464253 243.343128 42.464253 C 260.934342 42.464253 265.88187 60.18848 265.88187 77.912707 L 243.343128 95.636934 Z M 198.815369 77.912707 " transform="matrix(0.00710582,0,0,0.0132234,13.626316,21.051758)"/>
<path style="fill-rule:evenodd;fill:rgb(71.764708%,30.19608%,0%);fill-opacity:1;stroke-width:1.723;stroke-linecap:butt;stroke-linejoin:miter;stroke:rgb(0%,0%,0%);stroke-opacity:1;stroke-miterlimit:4;" d="M 204.403679 95.76162 L 541.018492 95.76162 L 541.018492 113.40515 L 204.403679 113.40515 Z M 204.403679 95.76162 " transform="matrix(0.0163972,0,0,0.0161621,13.523358,21.655417)"/>
<path style="fill-rule:evenodd;fill:rgb(71.764708%,30.19608%,0%);fill-opacity:1;stroke-width:1.723;stroke-linecap:butt;stroke-linejoin:miter;stroke:rgb(0%,0%,0%);stroke-opacity:1;stroke-miterlimit:4;" d="M 204.403679 77.876398 L 541.018492 77.876398 L 541.018492 95.76162 L 204.403679 95.76162 Z M 204.403679 77.876398 " transform="matrix(0.0163972,0,0,0.0161621,13.523358,21.655417)"/>
<path style="fill-rule:evenodd;fill:rgb(71.764708%,30.19608%,0%);fill-opacity:1;stroke-width:1.723;stroke-linecap:butt;stroke-linejoin:miter;stroke:rgb(0%,0%,0%);stroke-opacity:1;stroke-miterlimit:4;" d="M 204.403679 60.232869 L 541.018492 60.232869 L 541.018492 77.876398 L 204.403679 77.876398 Z M 204.403679 60.232869 " transform="matrix(0.0163972,0,0,0.0161621,13.523358,21.655417)"/>
<path style="fill-rule:evenodd;fill:rgb(71.764708%,30.19608%,0%);fill-opacity:1;stroke-width:1.723;stroke-linecap:butt;stroke-linejoin:miter;stroke:rgb(0%,0%,0%);stroke-opacity:1;stroke-miterlimit:4;" d="M 204.403679 42.589339 L 541.018492 42.589339 L 541.018492 60.232869 L 204.403679 60.232869 Z M 204.403679 42.589339 " transform="matrix(0.0163972,0,0,0.0161621,13.523358,21.655417)"/>
<path style="fill-rule:evenodd;fill:rgb(71.764708%,30.19608%,0%);fill-opacity:1;stroke-width:1.723;stroke-linecap:butt;stroke-linejoin:miter;stroke:rgb(0%,0%,0%);stroke-opacity:1;stroke-miterlimit:4;" d="M 204.403679 24.704117 L 541.018492 24.704117 L 541.018492 42.589339 L 204.403679 42.589339 Z M 204.403679 24.704117 " transform="matrix(0.0163972,0,0,0.0161621,13.523358,21.655417)"/>
<path style="fill-rule:evenodd;fill:rgb(71.764708%,30.19608%,0%);fill-opacity:1;stroke-width:1.723;stroke-linecap:butt;stroke-linejoin:miter;stroke:rgb(0%,0%,0%);stroke-opacity:1;stroke-miterlimit:4;" d="M 204.403679 7.060588 L 541.018492 7.060588 L 541.018492 24.704117 L 204.403679 24.704117 Z M 204.403679 7.060588 " transform="matrix(0.0163972,0,0,0.0161621,13.523358,21.655417)"/>
<path style="fill-rule:evenodd;fill:rgb(71.764708%,30.19608%,0%);fill-opacity:1;stroke-width:1.723;stroke-linecap:butt;stroke-linejoin:miter;stroke:rgb(0%,0%,0%);stroke-opacity:1;stroke-miterlimit:4;" d="M 204.403679 -10.582942 L 541.018492 -10.582942 L 541.018492 7.060588 L 204.403679 7.060588 Z M 204.403679 -10.582942 " transform="matrix(0.0163972,0,0,0.0161621,13.523358,21.655417)"/>
<path style="fill-rule:evenodd;fill:rgb(56.470591%,56.078434%,54.11765%);fill-opacity:1;stroke-width:3.2546;stroke-linecap:butt;stroke-linejoin:miter;stroke:rgb(0%,0%,0%);stroke-opacity:1;stroke-miterlimit:4;" d="M 423.183816 60.270243 L 561.094349 184.258335 L 580.682409 184.258335 L 443.03658 60.270243 Z M 423.183816 60.270243 " transform="matrix(0.0147571,0,0,0.0161621,10.919107,20.510282)"/>
<path style="fill-rule:evenodd;fill:rgb(56.470591%,56.078434%,54.11765%);fill-opacity:1;stroke-width:3.2546;stroke-linecap:butt;stroke-linejoin:miter;stroke:rgb(0%,0%,0%);stroke-opacity:1;stroke-miterlimit:4;" d="M 423.183816 60.229045 L 561.094349 184.217137 L 580.682409 184.217137 L 443.03658 60.229045 Z M 423.183816 60.229045 " transform="matrix(0.0147571,0,0,-0.0161621,10.919107,24.461708)"/>
<path style="fill-rule:evenodd;fill:rgb(56.470591%,56.078434%,54.11765%);fill-opacity:1;stroke-width:3.0875;stroke-linecap:butt;stroke-linejoin:miter;stroke:rgb(0%,0%,0%);stroke-opacity:1;stroke-miterlimit:4;" d="M 425.168807 60.270243 L 425.168807 184.258335 L 443.035085 184.258335 L 443.035085 60.270243 Z M 425.168807 60.270243 " transform="matrix(0.0163979,0,0,0.0161621,10.192203,20.510282)"/>
<path style="fill-rule:evenodd;fill:rgb(56.470591%,56.078434%,54.11765%);fill-opacity:1;stroke-width:3.2546;stroke-linecap:butt;stroke-linejoin:miter;stroke:rgb(0%,0%,0%);stroke-opacity:1;stroke-miterlimit:4;" d="M 423.360389 60.270243 L 561.006218 184.258335 L 580.594278 184.258335 L 442.94845 60.270243 Z M 423.360389 60.270243 " transform="matrix(0.0147571,0,0,0.0161621,13.533688,20.510282)"/>
<path style="fill-rule:evenodd;fill:rgb(56.470591%,56.078434%,54.11765%);fill-opacity:1;stroke-width:3.2546;stroke-linecap:butt;stroke-linejoin:miter;stroke:rgb(0%,0%,0%);stroke-opacity:1;stroke-miterlimit:4;" d="M 423.360389 60.229045 L 561.006218 184.217137 L 580.594278 184.217137 L 442.94845 60.229045 Z M 423.360389 60.229045 " transform="matrix(0.0147571,0,0,-0.0161621,13.533688,24.461708)"/>
<path style="fill-rule:evenodd;fill:rgb(56.470591%,56.078434%,54.11765%);fill-opacity:1;stroke-width:3.0875;stroke-linecap:butt;stroke-linejoin:miter;stroke:rgb(0%,0%,0%);stroke-opacity:1;stroke-miterlimit:4;" d="M 425.188641 60.270243 L 425.188641 184.258335 L 442.817071 184.258335 L 442.817071 60.270243 Z M 425.188641 60.270243 " transform="matrix(0.0163975,0,0,0.0161621,14.840462,20.510282)"/>
<path style="fill-rule:evenodd;fill:rgb(56.470591%,56.078434%,54.11765%);fill-opacity:1;stroke-width:3.0875;stroke-linecap:butt;stroke-linejoin:miter;stroke:rgb(0%,0%,0%);stroke-opacity:1;stroke-miterlimit:4;" d="M 425.098472 60.270243 L 425.098472 184.258335 L 442.965124 184.258335 L 442.965124 60.270243 Z M 425.098472 60.270243 " transform="matrix(0.0163975,0,0,0.0161621,12.806784,20.510282)"/>
<path style="fill-rule:evenodd;fill:rgb(56.470591%,56.078434%,54.11765%);fill-opacity:1;stroke-width:3.0875;stroke-linecap:butt;stroke-linejoin:miter;stroke:rgb(0%,0%,0%);stroke-opacity:1;stroke-miterlimit:4;" d="M 425.258975 60.270243 L 425.258975 184.258335 L 442.887036 184.258335 L 442.887036 60.270243 Z M 425.258975 60.270243 " transform="matrix(0.0163979,0,0,0.0161621,12.225881,20.510282)"/>
<path style="fill-rule:evenodd;fill:rgb(100%,87.450981%,0%);fill-opacity:1;stroke-width:1.25;stroke-linecap:butt;stroke-linejoin:miter;stroke:rgb(0%,0%,0%);stroke-opacity:1;stroke-miterlimit:4;" d="M 655.473149 396.87219 C 655.473149 484.847268 600.000335 556.280023 531.481768 556.280023 C 463.076642 556.280023 407.490388 484.847268 407.490388 396.87219 C 407.490388 308.789695 463.076642 237.35694 531.481768 237.35694 C 600.000335 237.35694 655.473149 308.789695 655.473149 396.87219 Z M 637.7763 396.87219 C 637.7763 475.072259 590.130939 538.556106 531.481768 538.556106 C 472.832597 538.556106 425.187236 475.072259 425.187236 396.87219 C 425.187236 318.564704 472.832597 255.080856 531.481768 255.080856 C 590.130939 255.080856 637.7763 318.564704 637.7763 396.87219 Z M 637.7763 396.87219 " transform="matrix(0.0344341,0,0,0.0363651,1.351249,1.325533)"/>
<path style="fill-rule:evenodd;fill:rgb(100%,87.450981%,0%);fill-opacity:1;stroke-width:1.25;stroke-linecap:butt;stroke-linejoin:miter;stroke:rgb(0%,0%,0%);stroke-opacity:1;stroke-miterlimit:4;" d="M 579.694336 249.924808 C 564.946962 241.868482 548.61141 237.35694 531.481768 237.35694 C 514.352126 237.35694 498.016574 241.868482 483.2692 249.924808 L 490.07568 266.252295 C 502.894551 259.055311 516.847836 255.080856 531.481768 255.080856 C 546.115701 255.080856 560.182426 259.055311 572.887856 266.252295 Z M 579.694336 249.924808 " transform="matrix(0.0344341,0,0,0.0363651,1.351249,1.325533)"/>
<path style="fill-rule:evenodd;fill:rgb(100%,87.450981%,0%);fill-opacity:1;stroke-width:1.25;stroke-linecap:butt;stroke-linejoin:miter;stroke:rgb(0%,0%,0%);stroke-opacity:1;stroke-miterlimit:4;" d="M 579.716559 249.987857 C 564.969185 241.824114 548.633633 237.419989 531.503991 237.419989 C 514.374349 237.419989 498.038797 241.824114 483.291423 249.987857 L 490.097903 266.315344 C 502.803333 259.11836 516.870058 255.143906 531.503991 255.143906 C 546.137923 255.143906 560.091208 259.11836 572.910079 266.315344 Z M 579.716559 249.987857 " transform="matrix(0.0344341,0,0,-0.0363651,1.358296,30.188479)"/>
<path style=" stroke:none;fill-rule:evenodd;fill:rgb(65.490198%,81.176472%,100%);fill-opacity:1;" d="M 23.3125 15.757812 C 23.3125 18.605469 21.675781 20.910156 19.652344 20.910156 C 17.632812 20.910156 15.992188 18.601562 15.992188 15.757812 C 15.992188 12.910156 17.632812 10.601562 19.652344 10.601562 C 21.675781 10.601562 23.3125 12.910156 23.3125 15.757812 Z M 23.3125 15.757812 "/>
<path style="fill-rule:evenodd;fill:rgb(68.627453%,100%,48.235294%);fill-opacity:1;stroke-width:1.25;stroke-linecap:butt;stroke-linejoin:miter;stroke:rgb(0%,0%,0%);stroke-opacity:1;stroke-miterlimit:4;" d="M 637.7763 396.87219 C 638.910714 423.511774 633.125205 436.509313 625.86496 464.223074 C 624.049899 467.230769 614.974592 457.670596 609.415966 452.944218 C 603.970782 448.21784 601.701955 457.240925 594.895475 449.936523 C 588.202436 442.632121 583.891666 451.977459 578.900247 445.854651 C 574.022269 439.624426 527.624763 438.765084 527.624763 438.227996 C 532.162416 435.972225 555.871655 438.442831 552.01465 427.056558 C 547.703879 415.348031 520.931724 426.734305 517.415042 411.69583 C 514.919333 396.764773 463.75729 396.120267 460.127168 392.468066 C 461.601905 398.161202 499.831635 400.524391 498.924105 415.025778 C 498.130015 420.93375 461.261581 422.652433 457.7449 427.701064 C 454.681984 433.931289 486.67244 425.982381 487.806854 433.716454 C 487.693412 436.938984 483.155759 433.823871 466.479882 438.657667 C 458.085224 441.128273 481.907904 449.077181 472.832597 453.373888 C 463.870732 457.670596 444.585705 459.496696 445.493235 461.322797 C 448.329269 470.238464 490.189122 480.872814 485.991792 482.376661 C 471.244419 488.92914 463.416966 493.225847 456.383604 497.092883 C 437.098576 471.420058 425.187236 435.972225 425.187236 396.87219 C 456.95081 385.485917 450.14433 383.122728 508.793501 383.122728 C 567.556113 383.122728 586.84114 385.485917 637.7763 396.87219 Z M 637.7763 396.87219 " transform="matrix(0.0344341,0,0,0.0363651,1.351249,1.325533)"/>
<path style="fill-rule:evenodd;fill:rgb(100%,100%,100%);fill-opacity:1;stroke-width:1.25;stroke-linecap:butt;stroke-linejoin:miter;stroke:rgb(0%,0%,0%);stroke-opacity:1;stroke-miterlimit:4;" d="M 637.7763 396.87219 C 629.721965 396.87219 621.327306 400.202138 612.705765 400.202138 C 604.084223 400.202138 595.235799 396.87219 586.273934 396.87219 C 577.312068 396.87219 566.988906 401.383733 557.800158 401.383733 C 548.497969 401.383733 540.330192 396.87219 531.028003 396.87219 C 521.839255 396.87219 512.537065 400.202138 503.348317 400.202138 C 494.159569 400.202138 485.084262 396.87219 476.122396 396.87219 C 467.160531 396.87219 458.425548 400.202138 449.917447 400.202138 C 441.409347 400.202138 433.12813 396.87219 425.187236 396.87219 C 425.187236 377.322173 428.136711 358.631497 433.581895 341.659504 C 460.580933 343.70044 444.585705 325.976523 460.580933 325.976523 C 469.315916 325.976523 478.050899 327.802624 485.878351 335.751532 C 488.37406 335.751532 500.398842 324.365258 513.78492 325.976523 C 527.170997 327.587789 522.29302 353.260613 540.10331 354.657043 C 549.178617 361.424357 554.510359 365.721064 566.988906 368.513924 C 584.685755 370.125189 635.280591 366.043317 635.620915 368.299088 C 637.095652 377.537008 637.7763 387.097182 637.7763 396.87219 Z M 637.7763 396.87219 " transform="matrix(0.0344341,0,0,0.0363651,1.351249,1.325533)"/>
<path style="fill-rule:evenodd;fill:rgb(0%,0%,0%);fill-opacity:1;stroke-width:1.25;stroke-linecap:butt;stroke-linejoin:miter;stroke:rgb(0%,0%,0%);stroke-opacity:1;stroke-miterlimit:4;" d="M 549.754979 473.892628 C 549.754979 468.249064 563.326063 464.53257 563.326063 455.447808 C 563.326063 446.363046 551.370585 446.08775 551.047463 437.55358 C 550.724342 434.112382 561.387337 430.533537 565.911032 430.258241 C 570.434726 429.982945 574.312179 437.691228 574.312179 439.343003 C 574.312179 440.994778 569.788484 435.213566 565.911032 434.93827 C 562.033579 434.800622 553.632432 435.626509 553.632432 437.278284 C 553.632432 440.719482 568.496 444.848919 567.203516 456.273696 C 566.234153 467.560824 554.601795 470.864374 554.601795 474.305572 C 554.601795 477.609122 559.448611 487.106827 559.448611 487.106827 C 559.448611 487.106827 549.754979 479.536192 549.754979 473.892628 Z M 549.754979 473.892628 " transform="matrix(0.0120891,0,0,0.0283786,13.592226,5.43442)"/>
<path style="fill-rule:evenodd;fill:rgb(0%,0%,0%);fill-opacity:1;stroke-width:1.25;stroke-linecap:butt;stroke-linejoin:miter;stroke:rgb(0%,0%,0%);stroke-opacity:1;stroke-miterlimit:4;" d="M 549.751792 473.874036 C 549.751792 468.230472 563.322876 464.513978 563.322876 455.429216 C 563.322876 446.344454 551.367398 446.069158 551.044277 437.534988 C 550.074913 433.543199 562.676634 431.065536 567.52345 430.79024 C 572.047144 430.377297 577.217081 438.636171 577.217081 440.287946 C 577.217081 442.077369 572.047144 435.194974 568.169692 434.919678 C 564.292239 434.78203 553.629245 435.607917 553.629245 437.259692 C 553.629245 440.70089 568.492813 444.830327 567.200329 456.255104 C 566.230966 467.542232 554.598608 470.845782 554.598608 474.28698 C 554.598608 477.728178 559.445424 487.088235 559.445424 487.088235 C 559.445424 487.088235 549.751792 479.655248 549.751792 473.874036 Z M 549.751792 473.874036 " transform="matrix(-0.0120891,0,0,0.0283786,27.071798,5.41151)"/>
<path style=" stroke:none;fill-rule:evenodd;fill:rgb(0%,0%,0%);fill-opacity:1;" d="M 20.417969 17.542969 C 20.417969 17.621094 20.378906 17.683594 20.332031 17.683594 C 20.285156 17.683594 20.246094 17.621094 20.246094 17.542969 C 20.246094 17.464844 20.285156 17.398438 20.332031 17.398438 C 20.378906 17.398438 20.417969 17.464844 20.417969 17.542969 Z M 20.417969 17.542969 "/>
<path style=" stroke:none;fill-rule:evenodd;fill:rgb(0%,0%,0%);fill-opacity:1;" d="M 21.554688 17.984375 L 21.582031 17.984375 L 21.582031 19.132812 L 21.554688 19.132812 Z M 21.554688 17.984375 "/>
<path style=" stroke:none;fill-rule:evenodd;fill:rgb(0%,0%,0%);fill-opacity:1;" d="M 21.800781 17.894531 L 21.828125 17.894531 L 21.828125 19.046875 L 21.800781 19.046875 Z M 21.800781 17.894531 "/>
<path style=" stroke:none;fill-rule:evenodd;fill:rgb(0%,0%,0%);fill-opacity:1;" d="M 21.574219 18.507812 L 21.574219 18.480469 L 21.808594 18.519531 L 21.808594 18.550781 Z M 21.574219 18.507812 "/>
<path style="fill-rule:evenodd;fill:rgb(71.764708%,30.19608%,0%);fill-opacity:1;stroke-width:1.25;stroke-linecap:butt;stroke-linejoin:miter;stroke:rgb(0%,0%,0%);stroke-opacity:1;stroke-miterlimit:4;" d="M 497.215731 478.021531 C 497.215731 478.021531 523.307238 489.407805 528.979305 496.175118 C 534.651372 502.942432 532.382545 502.942432 532.382545 502.942432 L 590.124186 505.305621 C 590.124186 501.868255 600.333906 501.868255 602.602733 493.919347 C 604.871559 485.970439 604.871559 483.714668 604.871559 483.714668 L 586.720945 489.407805 L 587.855359 479.203126 L 571.973572 479.203126 L 569.704745 489.407805 L 535.785785 488.22621 L 538.054612 461.049538 L 531.248132 462.231133 L 530.113719 488.22621 C 528.979305 488.22621 498.350145 480.38472 497.215731 478.021531 Z M 497.215731 478.021531 " transform="matrix(0.0344341,0,0,0.0363651,1.195231,1.36672)"/>
<path style="fill-rule:evenodd;fill:rgb(99.607843%,87.058824%,0%);fill-opacity:1;stroke-width:1.25;stroke-linecap:butt;stroke-linejoin:miter;stroke:rgb(99.607843%,87.058824%,0%);stroke-opacity:1;stroke-miterlimit:4;" d="M 440.501816 316.308932 C 440.501816 316.308932 478.16434 305.030076 532.616182 305.889418 C 587.068023 306.641342 624.730547 318.672121 623.936457 318.672121 C 623.142368 318.672121 613.499854 300.303699 613.499854 300.303699 C 613.499854 300.303699 575.043241 289.884184 531.822092 289.024842 C 488.600943 288.272919 450.938419 297.081168 451.732509 297.833092 Z M 440.501816 316.308932 " transform="matrix(0.0344341,0,0,0.0363651,1.351249,1.325533)"/>
<path style=" stroke:none;fill-rule:evenodd;fill:rgb(21.960784%,66.274512%,97.647059%);fill-opacity:1;" d="M 18.832031 11.941406 L 19.628906 11.925781 L 19.640625 12.390625 L 18.839844 12.40625 Z M 18.832031 11.941406 "/>
<path style=" stroke:none;fill-rule:evenodd;fill:rgb(21.960784%,66.274512%,97.647059%);fill-opacity:1;" d="M 16.984375 12.195312 L 16.703125 12.652344 L 17.65625 12.535156 L 17.582031 12.078125 Z M 16.984375 12.195312 "/>
<path style=" stroke:none;fill-rule:evenodd;fill:rgb(21.960784%,66.274512%,97.647059%);fill-opacity:1;" d="M 17.796875 12.019531 L 18.59375 11.949219 L 18.632812 12.414062 L 17.835938 12.484375 Z M 17.796875 12.019531 "/>
<path style=" stroke:none;fill-rule:evenodd;fill:rgb(21.960784%,66.274512%,97.647059%);fill-opacity:1;" d="M 20.675781 11.972656 L 19.878906 11.917969 L 19.851562 12.382812 L 20.648438 12.4375 Z M 20.675781 11.972656 "/>
<path style=" stroke:none;fill-rule:evenodd;fill:rgb(21.960784%,66.274512%,97.647059%);fill-opacity:1;" d="M 22.398438 12.261719 L 22.6875 12.835938 L 21.824219 12.621094 L 21.921875 12.167969 Z M 22.398438 12.261719 "/>
<path style=" stroke:none;fill-rule:evenodd;fill:rgb(21.960784%,66.274512%,97.647059%);fill-opacity:1;" d="M 21.707031 12.097656 L 20.914062 11.988281 L 20.855469 12.449219 L 21.648438 12.558594 Z M 21.707031 12.097656 "/>
<path style="fill-rule:evenodd;fill:rgb(100%,87.450981%,0%);fill-opacity:1;stroke-width:1.25;stroke-linecap:butt;stroke-linejoin:miter;stroke:rgb(0%,0%,0%);stroke-opacity:1;stroke-miterlimit:4;" d="M 532.616182 323.505917 L 530.007031 309.97129 L 522.519903 321.464981 L 525.242495 308.037771 L 513.898361 315.771844 L 521.612372 304.38557 L 508.226294 307.17843 L 519.683869 299.659193 L 506.18435 297.081168 L 519.683869 294.503144 L 508.226294 286.983907 L 521.612372 289.669349 L 513.898361 278.390492 L 525.242495 286.017148 L 522.519903 272.589938 L 530.007031 284.083629 L 532.616182 270.65642 L 535.225332 284.083629 L 542.71246 272.589938 L 539.989868 286.017148 L 551.334002 278.390492 L 543.619991 289.669349 L 557.006069 286.983907 L 545.548494 294.503144 L 559.048013 297.081168 L 545.548494 299.659193 L 557.006069 307.17843 L 543.619991 304.38557 L 551.334002 315.771844 L 539.989868 308.037771 L 542.71246 321.464981 L 535.225332 309.97129 Z M 532.616182 323.505917 " transform="matrix(0.0344341,0,0,0.0363651,1.351249,1.325533)"/>
<path style="fill-rule:evenodd;fill:rgb(100%,87.450981%,0%);fill-opacity:1;stroke-width:1.25;stroke-linecap:butt;stroke-linejoin:miter;stroke:rgb(0%,0%,0%);stroke-opacity:1;stroke-miterlimit:4;" d="M 547.023265 293.848182 C 547.023265 303.129107 540.377473 310.734309 532.215974 310.734309 C 524.054476 310.734309 517.408684 303.129107 517.408684 293.848182 C 517.408684 284.567257 524.054476 277.090957 532.215974 277.090957 C 540.377473 277.090957 547.023265 284.567257 547.023265 293.848182 Z M 547.023265 293.848182 " transform="matrix(0.0335033,0,0,0.0303041,1.860391,3.208479)"/>
<path style=" stroke:none;fill-rule:evenodd;fill:rgb(0%,0%,0%);fill-opacity:1;" d="M 19.691406 11.980469 C 19.691406 12.015625 19.617188 12.039062 19.527344 12.039062 C 19.433594 12.039062 19.359375 12.015625 19.359375 11.980469 C 19.359375 11.949219 19.433594 11.925781 19.527344 11.925781 C 19.617188 11.925781 19.691406 11.949219 19.691406 11.980469 Z M 19.691406 11.980469 "/>
<path style=" stroke:none;fill-rule:evenodd;fill:rgb(0%,0%,0%);fill-opacity:1;" d="M 20.050781 11.980469 C 20.050781 12.015625 19.996094 12.039062 19.925781 12.039062 C 19.859375 12.039062 19.800781 12.015625 19.800781 11.980469 C 19.800781 11.949219 19.859375 11.925781 19.925781 11.925781 C 19.996094 11.925781 20.050781 11.949219 20.050781 11.980469 Z M 20.050781 11.980469 "/>
<path style="fill:none;stroke-width:1.25;stroke-linecap:butt;stroke-linejoin:miter;stroke:rgb(0%,0%,0%);stroke-opacity:1;stroke-miterlimit:4;" d="M 529.440043 297.88996 L 530.2664 298.694932 C 528.348403 296.782333 529.205273 297.484312 531.818253 301.843448 C 534.220488 301.322761 534.93017 300.524715 536.66256 299.469489 " transform="matrix(0.0330158,-0.0103295,0.009781,0.0348672,-0.791964,7.269765)"/>
<path style="fill:none;stroke-width:1.25;stroke-linecap:butt;stroke-linejoin:miter;stroke:rgb(0%,0%,0%);stroke-opacity:1;stroke-miterlimit:4;" d="M 527.865367 304.278183 L 528.659456 305.030107 C 526.730953 303.204006 527.525043 304.063348 531.835813 306.641372 C 535.80626 307.17846 539.890148 305.459778 542.272416 302.666918 " transform="matrix(0.0344341,0,0,0.0363651,1.296089,1.325531)"/>
<path style=" stroke:none;fill-rule:evenodd;fill:rgb(71.764708%,88.235295%,100%);fill-opacity:1;" d="M 17.484375 13.351562 C 17.484375 13.351562 17.539062 13.816406 17.183594 14.398438 C 16.824219 14.984375 16.878906 14.777344 16.878906 14.777344 C 16.878906 14.777344 17.042969 15.097656 17.015625 15.097656 C 16.988281 15.097656 16.742188 14.808594 16.742188 14.808594 L 16.4375 15.128906 C 16.4375 15.128906 16.714844 14.632812 16.6875 14.632812 C 16.660156 14.632812 16.601562 14.457031 16.601562 14.457031 L 16.824219 14.371094 C 16.824219 14.371094 17.15625 13.757812 17.15625 13.789062 C 17.15625 13.816406 16.160156 14.457031 16.160156 14.457031 Z M 17.484375 13.351562 "/>
<path style=" stroke:none;fill-rule:evenodd;fill:rgb(71.764708%,88.235295%,100%);fill-opacity:1;" d="M 17.707031 13.527344 C 17.679688 13.527344 17.84375 13.992188 17.980469 14.226562 C 18.121094 14.457031 18.121094 14.75 18.121094 14.75 L 18.589844 14.984375 L 17.980469 14.078125 L 18.367188 14.226562 Z M 17.707031 13.527344 "/>
<path style=" stroke:none;fill-rule:evenodd;fill:rgb(71.764708%,88.235295%,100%);fill-opacity:1;" d="M 17.707031 14.75 C 17.707031 14.75 18.039062 15.097656 18.066406 15.214844 C 18.09375 15.332031 18.09375 15.59375 18.09375 15.59375 L 17.953125 15.304688 L 17.761719 15.566406 C 17.761719 15.566406 17.898438 15.15625 17.871094 15.128906 C 17.84375 15.097656 17.652344 15.273438 17.652344 15.273438 C 17.652344 15.273438 17.734375 15.039062 17.734375 15.011719 C 17.734375 14.984375 17.734375 14.835938 17.707031 14.75 Z M 17.707031 14.75 "/>
<path style=" stroke:none;fill-rule:evenodd;fill:rgb(71.764708%,88.235295%,100%);fill-opacity:1;" d="M 16.050781 15.566406 C 16.160156 15.476562 16.382812 15.417969 16.382812 15.417969 C 16.382812 15.417969 16.246094 15.652344 16.21875 15.652344 C 16.1875 15.652344 16.105469 15.652344 16.050781 15.566406 Z M 16.050781 15.566406 "/>
<path style=" stroke:none;fill-rule:evenodd;fill:rgb(71.764708%,88.235295%,100%);fill-opacity:1;" d="M 19.859375 14.285156 C 19.859375 14.285156 20.574219 14.71875 20.574219 14.75 C 20.574219 14.777344 20.105469 14.546875 20.105469 14.546875 Z M 19.859375 14.285156 "/>
<path style=" stroke:none;fill-rule:evenodd;fill:rgb(71.764708%,88.235295%,100%);fill-opacity:1;" d="M 18.5625 13.378906 C 18.617188 13.410156 19.609375 14.226562 19.582031 14.226562 C 19.554688 14.226562 19.140625 13.992188 19.140625 14.019531 L 19.140625 14.226562 L 18.921875 13.757812 L 18.863281 13.933594 Z M 18.5625 13.378906 "/>
<path style=" stroke:none;fill-rule:evenodd;fill:rgb(71.764708%,88.235295%,100%);fill-opacity:1;" d="M 18.808594 14.691406 L 19.085938 15.246094 L 19.359375 15.1875 C 19.359375 15.1875 18.835938 14.691406 18.808594 14.691406 Z M 18.808594 14.691406 "/>
<path style=" stroke:none;fill-rule:evenodd;fill:rgb(71.764708%,88.235295%,100%);fill-opacity:1;" d="M 19.664062 14.339844 C 19.664062 14.429688 19.691406 14.867188 19.691406 14.867188 C 19.691406 14.867188 19.859375 15.011719 19.859375 14.984375 C 19.859375 14.953125 19.691406 14.371094 19.664062 14.339844 Z M 19.664062 14.339844 "/>
<path style=" stroke:none;fill-rule:evenodd;fill:rgb(59.607846%,25.098041%,0%);fill-opacity:1;" d="M 11.550781 7.203125 C 11.550781 7.203125 12.789062 6.519531 14.195312 6.011719 C 15.605469 5.5 17.183594 5.164062 17.394531 5.164062 C 17.8125 5.164062 18.527344 6.214844 18.644531 6.214844 C 18.765625 6.214844 19.242188 5.921875 19.839844 5.921875 C 20.433594 5.921875 20.792969 6.390625 20.910156 6.390625 L 21.984375 6.390625 C 22.105469 6.390625 21.628906 5.222656 21.984375 5.28125 C 22.164062 5.3125 23.683594 5.542969 25.101562 6.003906 C 26.515625 6.460938 28.527344 7.273438 28.527344 7.273438 C 28.527344 7.273438 25.242188 7.710938 24.371094 7.582031 C 24.25 7.640625 24.363281 8.351562 24.195312 8.039062 C 23.921875 7.976562 22.914062 7.816406 22.734375 7.816406 C 22.558594 7.816406 22.222656 8.019531 21.746094 8.136719 C 21.269531 8.253906 20.671875 8.429688 20.671875 8.429688 L 21.449219 9.652344 L 20.496094 10.117188 C 20.496094 10.117188 19.898438 8.71875 19.660156 8.71875 C 19.421875 8.71875 19.300781 9.710938 19.003906 9.652344 C 18.707031 9.59375 18.585938 8.71875 18.347656 8.484375 C 18.109375 8.253906 16.851562 8.167969 16.375 8.050781 C 15.898438 7.933594 15.128906 7.84375 14.710938 7.730469 C 14.292969 7.613281 13.875 8.019531 13.699219 8.019531 C 13.519531 8.019531 13.9375 7.671875 13.757812 7.613281 C 13.578125 7.554688 13.460938 7.785156 13.339844 7.785156 C 13.222656 7.785156 11.96875 7.554688 11.847656 7.496094 C 11.730469 7.4375 12.148438 7.203125 12.027344 7.203125 Z M 11.550781 7.203125 "/>
<path style="fill-rule:evenodd;fill:rgb(50.196081%,50.196081%,50.196081%);fill-opacity:1;stroke-width:3.7057;stroke-linecap:butt;stroke-linejoin:miter;stroke:rgb(46.666667%,14.901961%,0%);stroke-opacity:1;stroke-miterlimit:4;" d="M 462.838403 -65.05416 C 462.838403 -43.699157 442.556943 -26.615155 417.129441 -26.615155 C 391.701938 -26.615155 371.420478 -43.699157 371.420478 -65.05416 C 371.420478 -86.157927 391.701938 -103.241929 417.129441 -103.241929 C 442.556943 -103.241929 462.838403 -86.157927 462.838403 -65.05416 Z M 462.838403 -65.05416 " transform="matrix(0.0129043,0,0,0.0155482,14.441441,7.616942)"/>
<path style="fill-rule:evenodd;fill:rgb(59.607846%,25.098041%,0%);fill-opacity:1;stroke-width:5.25;stroke-linecap:butt;stroke-linejoin:miter;stroke:rgb(46.666667%,14.901961%,0%);stroke-opacity:1;stroke-miterlimit:4;" d="M 284.798989 -59.843736 C 291.33749 -66.692602 299.813324 -76.654588 321.36616 -76.654588 C 326.451661 -78.314919 326.451661 -88.276906 338.075662 -88.276906 C 349.699663 -88.276906 346.309329 -78.314919 354.785164 -74.994257 C 363.018831 -71.673595 431.309839 -78.314919 431.309839 -78.314919 C 431.309839 -78.314919 437.848339 -73.333926 437.848339 -66.692602 C 437.848339 -59.843736 433.005006 -54.862743 431.309839 -54.862743 C 429.614672 -54.862743 363.018831 -59.843736 357.933331 -58.183405 C 353.089997 -56.523074 349.699663 -54.862743 338.075662 -54.862743 C 326.451661 -54.862743 323.061327 -66.692602 314.827659 -66.692602 C 306.351825 -66.692602 298.118158 -68.352933 284.798989 -59.843736 Z M 284.798989 -59.843736 " transform="matrix(0.0161304,0,0,0.0188215,12.894354,7.860727)"/>
<path style="fill:none;stroke-width:3.5;stroke-linecap:butt;stroke-linejoin:miter;stroke:rgb(46.666667%,14.901961%,0%);stroke-opacity:1;stroke-miterlimit:4;" d="M 487.976845 -76.685746 L 514.615181 -76.685746 C 524.059682 -76.478205 527.450016 -73.572625 536.168017 -73.365084 L 559.416019 -73.365084 C 567.891854 -73.572625 572.493021 -75.648039 581.211022 -76.685746 C 595.741023 -76.685746 590.655523 -77.930994 587.749522 -86.647732 C 585.085689 -93.081515 584.843522 -96.194636 581.211022 -99.930381 C 579.758022 -107.816953 576.367688 -110.722533 576.125521 -119.854354 C 574.672521 -126.910761 571.766521 -131.684212 574.430354 -139.778326 C 578.305021 -134.174709 579.758022 -131.891754 589.444689 -131.476671 C 599.61569 -131.476671 603.490357 -131.684212 609.544525 -128.156009 C 614.145692 -123.382557 620.442026 -124.835347 629.402194 -124.835347 C 637.151528 -123.382557 638.362361 -119.646812 644.416529 -116.533691 C 651.439363 -112.590405 656.04053 -111.552698 665.969364 -111.552698 C 673.960865 -110.099909 680.983699 -109.062202 686.0692 -106.571705 C 690.186034 -101.590712 696.966701 -100.137922 705.926869 -99.930381 C 711.012369 -99.930381 714.887036 -100.345464 719.246037 -101.590712 C 726.995371 -101.175629 734.744705 -101.590712 744.431373 -101.590712 C 750.48554 -94.326763 751.93854 -91.628726 762.593875 -91.628726 C 769.858876 -86.440191 776.15521 -85.610025 782.69371 -83.32707 L 807.63688 -83.32707 C 816.597047 -82.496905 819.260881 -78.968701 827.494549 -76.685746 C 835.728216 -72.74246 843.235384 -70.251963 849.289551 -68.176549 C 855.101552 -66.931301 862.850886 -66.516218 870.842387 -66.516218 C 877.138721 -63.403097 884.403721 -63.195556 889.247055 -59.874894 C 896.027723 -58.422104 905.472224 -56.761773 910.799891 -54.893901 C 919.760059 -53.856194 922.908226 -50.950615 930.899726 -49.912908 C 937.438227 -48.045035 928.47806 -46.384704 924.119059 -44.931914 C 914.432391 -45.346997 913.705891 -48.875201 904.26139 -49.912908 C 899.17589 -52.818487 891.426556 -52.403404 884.161555 -54.893901 L 882.466388 -54.893901 C 889.004889 -50.950615 895.543389 -48.460118 892.395222 -41.611252 C 883.919388 -41.611252 877.138721 -42.648959 869.14722 -43.271583 C 860.913552 -44.931914 857.038885 -46.592245 847.594384 -46.592245 C 857.038885 -48.875201 859.460552 -46.384704 865.756886 -43.271583 C 868.178553 -35.177469 863.093052 -38.29059 854.132885 -38.29059 C 846.625717 -40.988628 842.02455 -44.30929 832.580049 -44.931914 L 812.480214 -44.931914 C 822.409048 -44.516832 824.588548 -40.781087 830.884882 -36.630259 C 831.369216 -34.139763 830.884882 -34.139763 825.799382 -33.309597 C 820.713881 -37.875507 813.933214 -39.328297 805.941713 -41.611252 C 797.950212 -41.818794 789.716544 -42.648959 782.69371 -44.931914 C 777.850376 -45.346997 778.576877 -51.158156 789.232211 -41.611252 C 795.770712 -37.875507 798.192379 -34.762387 797.708045 -31.649266 C 788.990044 -33.72468 784.873211 -37.252883 779.303377 -39.950921 C 771.554042 -42.856501 765.257708 -43.271583 756.055374 -43.271583 C 747.337373 -45.554539 756.781874 -46.799787 762.593875 -38.29059 C 774.944376 -29.573852 760.898708 -33.309597 756.055374 -34.969928 C 748.548207 -37.045342 740.798872 -40.158463 734.260372 -41.611252 C 729.174871 -43.064042 724.815871 -44.516832 719.246037 -44.931914 C 727.964038 -44.101749 730.870038 -41.19617 734.260372 -34.969928 C 742.978373 -28.951228 734.018205 -31.856807 726.026704 -33.309597 C 720.941204 -37.667966 714.402703 -39.950921 711.012369 -44.931914 C 702.536535 -49.082742 702.536535 -53.856194 707.622036 -43.271583 C 709.075036 -39.950921 708.832869 -32.479431 709.317202 -31.649266 C 703.263035 -38.29059 704.473868 -39.950921 697.693201 -39.950921 C 693.092034 -43.271583 686.311367 -45.76208 682.678866 -49.912908 C 676.382532 -50.535532 675.898199 -52.818487 669.359698 -54.893901 C 674.687365 -48.667659 681.710199 -42.441418 686.0692 -36.630259 C 693.576367 -32.479431 695.755868 -28.536145 701.083535 -25.007942 C 703.263035 -21.272197 708.832869 -18.366617 702.778702 -23.347611 C 695.513701 -30.404018 690.186034 -32.064349 679.288532 -36.630259 C 673.234365 -41.611252 671.054865 -43.686666 664.274197 -48.252577 C 655.31403 -51.158156 658.94653 -52.818487 664.274197 -43.271583 C 670.812698 -37.460425 675.656032 -31.026642 680.983699 -26.668273 C 684.858366 -21.68728 691.1547 -16.498745 695.998034 -13.385624 C 697.451034 -11.102669 702.052202 -10.687586 695.998034 -10.064962 C 690.912534 -14.630873 683.647533 -17.536452 677.593366 -21.68728 C 669.359698 -23.970235 665.485031 -28.328604 659.430864 -33.309597 C 655.556197 -39.120756 649.017696 -43.686666 644.416529 -48.252577 C 634.729861 -51.988321 646.353862 -44.724373 649.502029 -39.950921 C 651.439363 -33.932221 654.103196 -28.951228 656.04053 -23.347611 C 658.94653 -17.743993 647.564696 -24.592859 644.416529 -26.668273 C 637.151528 -30.8191 631.823861 -33.517138 622.863693 -34.969928 C 616.809526 -36.215176 609.060191 -37.460425 602.763857 -38.29059 C 595.25669 -40.366004 606.880691 -33.517138 610.997525 -26.668273 C 619.473359 -18.7817 602.763857 -25.215483 597.678357 -26.668273 C 589.444689 -28.328604 581.453188 -28.328604 572.735187 -28.328604 C 562.079853 -27.70598 569.829187 -26.460731 572.735187 -21.68728 C 576.125521 -19.196783 578.547188 -13.800707 577.820688 -11.725293 C 570.797854 -12.555459 564.743687 -14.630873 556.267852 -15.045955 C 549.245018 -12.763 540.769184 -13.385624 532.777683 -13.385624 C 532.535516 -9.234797 534.230683 -12.763 537.863184 -8.404631 C 543.675184 -5.914135 547.307685 -3.216097 546.096851 -0.102976 L 497.905679 -0.102976 C 492.578012 1.349814 499.116513 0.72719 502.99118 6.74589 C 500.81168 12.141966 497.905679 10.066552 491.125012 10.066552 C 486.766011 8.19868 477.563677 7.368514 472.96251 5.085559 C 468.119176 5.085559 468.603509 3.84031 464.486676 3.425228 C 478.532344 13.179673 471.751676 10.689176 479.501011 18.368207 C 480.954011 18.78329 484.102178 20.028538 481.196178 20.028538 " transform="matrix(0.0161304,0,0,0.0188215,12.894354,8.111313)"/>
<path style="fill:none;stroke-width:3.5;stroke-linecap:butt;stroke-linejoin:miter;stroke:rgb(46.666667%,14.901961%,0%);stroke-opacity:1;stroke-miterlimit:4;" d="M 371.252499 73.366674 C 370.283832 73.366674 368.104332 67.970598 364.713998 63.197146 C 362.292331 57.178446 359.386331 60.706649 356.238164 51.574828 C 356.722497 42.235466 356.964664 40.575135 356.238164 31.650856 C 349.457496 26.877404 346.551496 25.424614 341.465996 16.707876 C 332.990161 9.651469 342.676829 -2.385931 344.129829 -11.102669 C 336.864828 -12.763 333.232328 0.312107 321.850493 5.085559 C 313.616826 10.481635 320.881827 -6.329217 317.00716 -16.291204 C 314.101159 -29.988935 306.109658 -9.234797 302.961491 -3.423638 C 297.633824 0.312107 295.938657 5.2931 287.947156 -1.763307 C 287.947156 -6.7443 293.032657 -21.064655 290.853157 -23.970235 C 283.103823 -20.23449 272.932821 -8.404631 264.699154 -6.7443 C 256.707653 -8.404631 266.636487 -21.479738 266.636487 -31.234183 C 263.48832 -32.064349 251.864319 -5.499052 247.020985 -5.083969 C 242.177651 -4.876428 244.357152 -31.234183 241.935485 -30.611559 C 238.545151 -25.630566 231.28015 -15.253497 226.436816 -11.725293 C 216.992315 -12.970542 227.889817 -29.158769 229.342817 -35.177469 C 231.037984 -42.233876 220.382649 -21.272197 214.812815 -20.026949 C 210.695981 -16.498745 202.462314 -14.008248 199.79848 -13.385624 C 202.946647 -19.404324 218.929649 -32.064349 217.718815 -35.592552 C 208.516481 -35.177469 194.470813 -23.140069 186.479312 -21.68728 C 181.393812 -21.68728 174.128811 -19.819407 173.160144 -20.026949 C 173.644477 -27.913521 192.533479 -34.554845 195.681646 -39.535838 C 186.237145 -37.875507 168.31681 -29.781394 163.23131 -23.347611 C 156.934976 -21.894821 149.185641 -20.23449 143.131474 -23.347611 C 144.100141 -30.8191 158.145809 -45.346997 161.051809 -50.120449 C 152.818142 -46.384704 148.459141 -43.479125 139.498974 -41.818794 C 137.803807 -40.158463 132.960473 -36.422718 134.413473 -40.158463 C 137.077307 -47.007328 141.19414 -50.120449 144.584474 -55.101442 C 137.077307 -53.648652 134.171306 -49.497825 126.179805 -45.139456 C 121.094305 -44.931914 106.564303 -30.196476 101.478803 -29.988935 C 90.096968 -21.68728 85.495801 -20.23449 73.1453 -16.706286 C 65.638132 -15.253497 62.005632 -13.800707 58.373131 -10.064962 C 62.005632 -16.706286 67.817632 -23.140069 73.1453 -26.668273 C 77.019967 -32.27189 80.410301 -36.837801 88.159635 -39.950921 C 90.096968 -42.233876 95.424635 -42.856501 89.854802 -43.271583 C 85.253634 -39.120756 77.262134 -34.347304 73.1453 -31.649266 C 68.059799 -28.328604 62.247799 -25.215483 59.826132 -26.668273 C 62.489965 -33.932221 67.333299 -35.592552 71.6923 -41.611252 C 80.410301 -47.21487 71.6923 -43.479125 64.911632 -41.611252 C 60.552632 -37.667966 52.803298 -34.969928 46.506963 -31.649266 C 39.484129 -29.781394 34.882962 -25.423024 26.649295 -23.347611 C 26.649295 -20.857114 29.070962 -27.498438 30.039628 -29.988935 C 36.820296 -37.460425 38.515463 -39.535838 46.506963 -41.611252 C 48.444297 -44.516832 51.108131 -43.271583 45.053963 -43.271583 C 40.452796 -39.328297 34.156462 -37.045342 28.344462 -33.309597 C 22.532461 -32.064349 14.783127 -31.649266 6.549459 -31.649266 C -3.621542 -30.404018 -2.895042 -29.573852 6.549459 -34.969928 C 12.119293 -39.950921 16.478294 -38.705673 16.72046 -44.931914 C 10.424126 -40.366004 2.674792 -37.045342 -5.074542 -33.309597 C -11.370876 -33.102056 -13.066043 -31.649266 -20.088877 -31.649266 C -16.698543 -34.969928 -14.76121 -39.328297 -9.917876 -41.611252 C -3.137209 -49.290283 -14.276876 -43.064042 -16.698543 -41.611252 L -41.641713 -41.611252 C -46.000713 -36.007635 -41.883879 -41.611252 -38.251379 -44.931914 C -33.892379 -47.21487 -29.533378 -50.120449 -30.017712 -51.573239 C -34.861045 -47.21487 -40.673046 -45.346997 -45.032046 -41.611252 C -49.633214 -40.158463 -54.960881 -39.535838 -54.960881 -38.29059 C -51.328381 -43.686666 -45.51638 -46.799787 -41.641713 -51.573239 C -36.071879 -52.818487 -31.228545 -54.478818 -30.017712 -56.554232 L -53.265714 -56.554232 L -36.556212 -56.554232 C -28.322545 -56.554232 -21.057544 -57.384397 -13.30821 -58.214563 C 0.0109584 -60.497518 -14.519043 -61.535225 -21.541877 -61.535225 C -22.994877 -64.233263 -17.425043 -65.686053 -11.613043 -66.516218 C -6.527542 -69.006715 -0.473375 -71.082129 5.096459 -73.365084 C 10.18196 -74.610332 17.689127 -79.176243 18.415627 -80.006408 C 13.330127 -79.591325 13.330127 -78.553618 8.244626 -78.346077 C 15.751793 -78.76116 21.079461 -80.006408 30.039628 -80.006408 C 38.031129 -82.496905 44.811797 -85.402484 51.592464 -88.308063 C 54.498464 -91.836267 55.951465 -91.628726 48.20213 -91.628726 C 54.982798 -93.704139 64.427299 -94.741846 69.997133 -96.609719 C 77.746467 -98.27005 84.769301 -100.760546 89.854802 -103.251043 C 94.698135 -106.571705 97.604136 -110.514991 103.17397 -113.213029 C 109.71247 -108.85466 109.954637 -108.232036 121.578638 -108.232036 C 131.023139 -108.439578 136.83514 -110.514991 141.436307 -114.87336 C 148.701308 -116.948774 149.912141 -120.269436 158.145809 -121.514685 C 165.652976 -120.269436 173.160144 -119.854354 181.393812 -119.854354 C 189.627479 -121.929767 197.134647 -125.873054 203.188814 -129.81634 C 208.274314 -132.306837 214.328482 -136.042581 219.898316 -138.117995 C 225.952483 -135.004874 230.55365 -132.514378 238.060818 -131.476671 C 245.810152 -132.721919 249.926986 -136.457664 256.465486 -138.117995 C 260.097987 -142.476364 265.183487 -144.759319 271.479821 -146.627192 C 281.166489 -151.193102 280.439989 -144.966861 284.798989 -139.778326 C 289.642323 -134.797333 296.180824 -137.28783 302.961491 -134.797333 C 306.836159 -128.986174 309.742159 -125.042888 314.827659 -121.514685 C 318.702326 -116.948774 323.303494 -115.495985 331.294995 -114.87336 C 334.443162 -110.930074 332.021495 -108.024495 338.075662 -106.571705 C 340.497329 -104.081208 344.614163 -103.043502 348.004496 -101.590712 " transform="matrix(0.0161304,0,0,0.0188215,12.894354,8.111313)"/>
<path style="fill:none;stroke-width:3.125;stroke-linecap:butt;stroke-linejoin:miter;stroke:rgb(47.058824%,14.901961%,0%);stroke-opacity:1;stroke-miterlimit:4;" d="M 468.845676 30.82069 L 468.845676 31.650856 C 468.845676 29.367901 468.603509 30.613149 470.298676 34.971518 C 471.025176 38.707263 469.572176 38.084639 467.877009 40.782677 C 467.634843 44.518421 467.150509 47.216459 467.150509 51.574828 C 466.424009 55.310573 464.486676 58.631235 462.791509 61.536815 C 461.338509 64.649936 454.315675 66.517808 454.557841 70.668636 C 450.683174 71.913884 450.441007 69.423387 450.441007 64.857477 C 448.019341 62.159439 447.29284 58.423694 445.355507 54.895491 C 444.38684 51.367287 441.965173 48.876791 440.512173 44.933504 C 438.090506 41.197759 435.911006 40.160052 433.731506 35.801683 C 433.005006 33.72627 433.005006 31.235773 431.309839 29.990525 C 428.646005 26.462321 426.708672 26.047238 422.107504 25.839697 C 418.475004 26.669863 417.264171 28.122652 413.873837 29.160359 C 411.210003 29.990525 406.124503 29.782983 402.976336 30.82069 C 402.249836 32.065939 404.671503 32.688563 405.398003 35.801683 C 403.218502 37.462014 402.492002 40.782677 401.281169 43.273173 C 399.343835 45.76367 398.133002 47.008918 397.164335 50.744663 C 398.617335 53.027618 397.406502 56.140739 395.469168 58.216153 C 394.984835 62.159439 393.047501 64.234853 392.078834 67.347974 C 389.415001 69.215846 388.446334 70.876177 386.266834 74.196839 C 384.3295 76.687336 382.634333 76.687336 378.033166 76.687336 C 374.400666 75.649629 373.916332 73.574215 370.525999 72.328967 C 370.041665 71.29126 369.799499 71.083718 368.830832 70.668636 " transform="matrix(0.0161304,0,0,0.0188215,12.894354,8.111313)"/>
<path style=" stroke:none;fill-rule:evenodd;fill:rgb(50.588238%,18.039216%,0%);fill-opacity:1;" d="M 18.925781 9.328125 C 18.925781 9.328125 18.898438 9.621094 18.710938 9.816406 C 18.519531 10.007812 18.132812 10.238281 18.132812 10.238281 C 18.132812 10.238281 18.65625 9.988281 18.710938 10.042969 C 18.761719 10.097656 18.375 10.527344 18.375 10.527344 C 18.375 10.527344 18.882812 10.074219 18.949219 10.074219 C 19.019531 10.074219 19.164062 10.519531 19.21875 10.507812 C 19.273438 10.496094 19.097656 9.945312 19.125 9.859375 C 19.152344 9.773438 19.125 9.304688 19.125 9.304688 Z M 18.925781 9.328125 "/>
<path style=" stroke:none;fill-rule:evenodd;fill:rgb(50.588238%,18.039216%,0%);fill-opacity:1;" d="M 20.132812 9.289062 C 20.132812 9.289062 20.105469 9.601562 19.917969 9.808594 C 19.730469 10.015625 19.339844 10.261719 19.339844 10.261719 C 19.339844 10.261719 19.863281 9.992188 19.917969 10.050781 C 19.972656 10.109375 19.582031 10.570312 19.582031 10.570312 C 19.582031 10.570312 20.09375 10.085938 20.160156 10.085938 C 20.226562 10.085938 20.375 10.5625 20.429688 10.550781 C 20.480469 10.539062 20.308594 9.949219 20.335938 9.855469 C 20.359375 9.761719 20.335938 9.265625 20.335938 9.265625 Z M 20.132812 9.289062 "/>
<path style=" stroke:none;fill-rule:evenodd;fill:rgb(50.588238%,18.039216%,0%);fill-opacity:1;" d="M 18.441406 6.457031 C 18.441406 6.511719 18.382812 6.5625 18.3125 6.5625 C 18.242188 6.5625 18.1875 6.511719 18.1875 6.457031 C 18.1875 6.398438 18.242188 6.351562 18.3125 6.351562 C 18.382812 6.351562 18.441406 6.398438 18.441406 6.457031 Z M 18.441406 6.457031 "/>
</g>
</svg>
