<?xml version="1.0" encoding="UTF-8"?>
<svg xmlns="http://www.w3.org/2000/svg" xmlns:xlink="http://www.w3.org/1999/xlink" width="40px" height="40px" viewBox="0 0 40 40" version="1.1">
<g id="surface1">
<path style=" stroke:none;fill-rule:evenodd;fill:rgb(100%,100%,100%);fill-opacity:1;" d="M -10 13.140625 L 50 13.140625 L 50 26.570312 L -10 26.570312 Z M -10 13.140625 "/>
<path style=" stroke:none;fill-rule:evenodd;fill:rgb(0%,0%,0%);fill-opacity:1;" d="M -10 26.570312 L 50 26.570312 L 50 40 L -10 40 Z M -10 26.570312 "/>
<path style=" stroke:none;fill-rule:evenodd;fill:rgb(100%,0%,0%);fill-opacity:1;" d="M -10 0 L 50 0 L 50 13.140625 L -10 13.140625 Z M -10 0 "/>
<path style="fill-rule:evenodd;fill:rgb(84.313726%,72.549021%,0%);fill-opacity:1;stroke-width:1.25;stroke-linecap:butt;stroke-linejoin:miter;stroke:rgb(100%,100%,100%);stroke-opacity:1;stroke-miterlimit:4;" d="M 322.425439 -322.452388 L 329.543812 -322.471059 L 333.292179 -262.229919 L 325.98524 -255.131859 L 318.896145 -262.199303 Z M 322.425439 -322.452388 " transform="matrix(0.0488514,-0.00258331,0.00461187,0.0611785,5.099461,40.673371)"/>
<path style="fill-rule:evenodd;fill:rgb(84.313726%,72.549021%,0%);fill-opacity:1;stroke-width:1.25;stroke-linecap:butt;stroke-linejoin:miter;stroke:rgb(100%,100%,100%);stroke-opacity:1;stroke-miterlimit:4;" d="M 322.419489 -322.438032 L 329.527703 -322.463097 L 333.30839 -262.233367 L 325.963711 -255.12047 L 318.932519 -262.178382 Z M 322.419489 -322.438032 " transform="matrix(0.0488973,0.00186455,-0.00332876,0.0612366,1.860441,39.241493)"/>
<path style="fill-rule:evenodd;fill:rgb(84.313726%,72.549021%,0%);fill-opacity:1;stroke-width:4.8244;stroke-linecap:butt;stroke-linejoin:miter;stroke:rgb(100%,100%,100%);stroke-opacity:1;stroke-miterlimit:4;" d="M 177.218817 255.019703 L 159.416089 698.039584 L 194.839884 662.56737 L 212.642612 255.019703 Z M 177.218817 255.019703 " transform="matrix(-0.021503,0,0,0.0153069,27.802928,12.666758)"/>
<path style="fill-rule:evenodd;fill:rgb(84.313726%,72.549021%,0%);fill-opacity:1;stroke-width:4.8244;stroke-linecap:butt;stroke-linejoin:miter;stroke:rgb(100%,100%,100%);stroke-opacity:1;stroke-miterlimit:4;" d="M 177.208127 290.474059 L 159.405399 698.021726 L 194.829194 662.549512 L 212.631922 290.474059 Z M 177.208127 290.474059 " transform="matrix(-0.021503,0,0,0.0153069,27.04098,12.124062)"/>
<path style="fill-rule:evenodd;fill:rgb(84.313726%,72.549021%,0%);fill-opacity:1;stroke-width:4.8244;stroke-linecap:butt;stroke-linejoin:miter;stroke:rgb(100%,100%,100%);stroke-opacity:1;stroke-miterlimit:4;" d="M 177.197582 325.874316 L 159.394855 697.949769 L 194.81865 662.477555 L 212.621377 325.874316 Z M 177.197582 325.874316 " transform="matrix(-0.021503,0,0,0.0153069,26.279034,11.582195)"/>
<path style="fill-rule:evenodd;fill:rgb(84.313726%,72.549021%,0%);fill-opacity:1;stroke-width:4.8244;stroke-linecap:butt;stroke-linejoin:miter;stroke:rgb(100%,100%,100%);stroke-opacity:1;stroke-miterlimit:4;" d="M 177.187038 361.328755 L 159.38431 697.931994 L 194.808105 662.714976 L 212.610833 361.328755 Z M 177.187038 361.328755 " transform="matrix(-0.021503,0,0,0.0153069,25.517089,11.039498)"/>
<path style="fill-rule:evenodd;fill:rgb(84.313726%,72.549021%,0%);fill-opacity:1;stroke-width:4.8244;stroke-linecap:butt;stroke-linejoin:miter;stroke:rgb(100%,100%,100%);stroke-opacity:1;stroke-miterlimit:4;" d="M 177.070395 255.069512 L 159.515704 698.089394 L 194.829211 662.61718 L 212.588026 255.069512 Z M 177.070395 255.069512 " transform="matrix(0.0191366,0,0,0.0153069,11.322408,12.662089)"/>
<path style="fill-rule:evenodd;fill:rgb(84.313726%,72.549021%,0%);fill-opacity:1;stroke-width:4.8244;stroke-linecap:butt;stroke-linejoin:miter;stroke:rgb(100%,100%,100%);stroke-opacity:1;stroke-miterlimit:4;" d="M 177.153686 290.523868 L 159.394871 698.071536 L 194.912502 662.599322 L 212.671317 290.523868 Z M 177.153686 290.523868 " transform="matrix(0.0191366,0,0,0.0153069,12.000502,12.119394)"/>
<path style="fill-rule:evenodd;fill:rgb(84.313726%,72.549021%,0%);fill-opacity:1;stroke-width:4.8244;stroke-linecap:butt;stroke-linejoin:miter;stroke:rgb(100%,100%,100%);stroke-opacity:1;stroke-miterlimit:4;" d="M 177.080399 325.924125 L 159.525708 697.999578 L 194.839214 662.527364 L 212.598029 325.924125 Z M 177.080399 325.924125 " transform="matrix(0.0191366,0,0,0.0153069,12.677685,11.577526)"/>
<path style="fill-rule:evenodd;fill:rgb(84.313726%,72.549021%,0%);fill-opacity:1;stroke-width:4.8244;stroke-linecap:butt;stroke-linejoin:miter;stroke:rgb(100%,100%,100%);stroke-opacity:1;stroke-miterlimit:4;" d="M 177.072552 361.302657 L 159.517861 698.161092 L 194.831367 662.688878 L 212.590183 361.302657 Z M 177.072552 361.302657 " transform="matrix(0.0191366,0,0,0.0153069,13.384867,11.106304)"/>
<path style="fill-rule:evenodd;fill:rgb(100%,100%,100%);fill-opacity:1;stroke-width:4.8244;stroke-linecap:butt;stroke-linejoin:miter;stroke:rgb(84.313726%,72.549021%,0%);stroke-opacity:1;stroke-miterlimit:4;" d="M 181.796419 255.976931 C 180.662719 254.702266 201.636181 237.366821 236.969852 237.366821 C 290.253783 237.366821 298.378638 255.976931 333.712308 255.976931 L 485.817148 255.976931 C 521.150818 255.976931 531.543074 237.366821 584.638055 237.366821 C 620.160676 237.366821 636.788286 255.721998 637.733037 255.976931 C 637.733037 255.976931 620.160676 255.212132 584.638055 255.212132 C 549.304385 255.212132 535.322077 294.216884 499.610506 293.452085 C 472.77959 294.216884 355.441571 293.452085 319.91895 293.452085 C 284.58528 293.452085 272.492473 255.976931 236.969852 255.976931 C 201.636181 255.976931 180.662719 254.702266 181.796419 255.976931 Z M 181.796419 255.976931 " transform="matrix(0.0206734,0,0,0.0153227,10.901798,12.648067)"/>
<path style="fill-rule:evenodd;fill:rgb(100%,100%,100%);fill-opacity:1;stroke-width:1.25;stroke-linecap:butt;stroke-linejoin:miter;stroke:rgb(84.313726%,72.549021%,0%);stroke-opacity:1;stroke-miterlimit:4;" d="M 400.398686 -109.831015 L 400.398686 -106.289308 L 403.950312 -102.747601 L 400.398686 -99.205893 L 400.398686 -95.664186 C 386.228793 -88.580771 371.546295 -88.580771 357.852394 -88.580771 C 344.195108 -88.580771 329.51261 -88.580771 311.791091 -95.664186 L 311.791091 -99.205893 L 308.276079 -102.747601 L 311.791091 -106.289308 L 311.791091 -109.831015 C 325.997598 -106.289308 340.16749 -102.747601 357.852394 -102.747601 C 375.573913 -102.747601 386.228793 -106.289308 400.398686 -109.831015 Z M 400.398686 -109.831015 " transform="matrix(0.106685,0,0,0.0970577,-18.60336,34.597447)"/>
<path style="fill-rule:evenodd;fill:rgb(100%,100%,100%);fill-opacity:1;stroke-width:0.62344;stroke-linecap:butt;stroke-linejoin:miter;stroke:rgb(84.313726%,72.549021%,0%);stroke-opacity:1;stroke-miterlimit:4;" d="M -70.786138 -406.53017 C -69.447051 -406.512548 -68.393507 -404.526527 -68.37221 -402.030865 L -68.363919 -370.886473 C -68.351286 -368.432721 -69.460063 -366.37918 -70.752762 -366.411672 C -72.083185 -366.387385 -73.145393 -368.415316 -73.16669 -370.910978 L -73.166317 -402.013459 C -73.141227 -404.523991 -72.070174 -406.520752 -70.786138 -406.53017 Z M -70.786138 -406.53017 " transform="matrix(0.0280206,-0.0789766,0.087413,0.0163261,53.218704,24.909898)"/>
<path style="fill-rule:evenodd;fill:rgb(100%,100%,100%);fill-opacity:1;stroke-width:4.7128;stroke-linecap:butt;stroke-linejoin:miter;stroke:rgb(84.313726%,72.549021%,0%);stroke-opacity:1;stroke-miterlimit:4;" d="M 318.896643 574.032048 L 336.578529 591.741786 L 354.306754 574.019335 L 371.98864 591.729073 L 389.716866 574.006623 L 407.398752 591.716361 C 412.781256 582.294007 414.526332 568.822345 407.263382 555.176226 C 371.277274 541.343191 338.56645 542.585748 300.341581 556.437053 C 297.170801 567.379686 297.321305 580.262705 300.295241 591.869241 Z M 318.896643 574.032048 " transform="matrix(0.0126842,0.00453529,-0.00560595,0.0345129,16.231651,2.179721)"/>
<path style="fill-rule:evenodd;fill:rgb(100%,100%,100%);fill-opacity:1;stroke-width:4.7128;stroke-linecap:butt;stroke-linejoin:miter;stroke:rgb(84.313726%,72.549021%,0%);stroke-opacity:1;stroke-miterlimit:4;" d="M 318.868495 574.009281 L 336.550381 591.719019 L 354.278607 573.996568 L 371.960492 591.706306 L 389.688718 573.983856 L 407.417881 591.800564 C 412.753108 582.27124 414.545461 568.906548 407.282511 555.260429 C 371.296403 541.427394 338.538303 542.562981 300.313433 556.414286 C 297.18993 567.463889 297.340434 580.346908 300.267093 591.846474 Z M 318.868495 574.009281 " transform="matrix(0.0126842,0.00453529,-0.00560595,0.0345129,16.337349,1.536103)"/>
<path style="fill-rule:evenodd;fill:rgb(100%,100%,100%);fill-opacity:1;stroke-width:4.7128;stroke-linecap:butt;stroke-linejoin:miter;stroke:rgb(84.313726%,72.549021%,0%);stroke-opacity:1;stroke-miterlimit:4;" d="M 318.840351 573.986549 L 336.522237 591.696287 L 354.297739 574.080807 L 371.979625 591.790545 L 389.707851 574.068094 L 407.389736 591.777832 C 412.77224 582.355478 414.517317 568.883816 407.254367 555.237697 C 371.268259 541.404663 338.510158 542.54025 300.285289 556.391554 C 297.161785 567.441157 297.31229 580.324176 300.238949 591.823743 Z M 318.840351 573.986549 " transform="matrix(0.0126842,0.00453529,-0.00560595,0.0345129,16.443048,0.892484)"/>
<path style="fill-rule:evenodd;fill:rgb(100%,100%,100%);fill-opacity:1;stroke-width:4.7128;stroke-linecap:butt;stroke-linejoin:miter;stroke:rgb(84.313726%,72.549021%,0%);stroke-opacity:1;stroke-miterlimit:4;" d="M 318.798495 574.037928 L 336.480381 591.747666 L 354.208607 574.025215 L 372.181551 591.696706 L 389.618718 574.012503 L 407.591663 591.683993 C 412.683108 582.299887 414.428184 568.828225 407.50357 555.250828 C 371.179126 541.349071 338.468303 542.591628 300.243433 556.442933 C 297.072653 567.385566 297.270434 580.375555 300.197093 591.875121 Z M 318.798495 574.037928 " transform="matrix(0.0126842,0.00453529,-0.00560595,0.0345129,16.580585,0.0979315)"/>
<path style="fill-rule:evenodd;fill:rgb(100%,100%,100%);fill-opacity:1;stroke-width:4.7128;stroke-linecap:butt;stroke-linejoin:miter;stroke:rgb(84.313726%,72.549021%,0%);stroke-opacity:1;stroke-miterlimit:4;" d="M 318.76976 574.009392 L 336.742704 591.680882 L 354.179871 573.996679 L 372.152816 591.668169 L 389.928318 574.052689 L 407.610204 591.762427 C 412.654372 582.271351 414.446726 568.906659 407.474834 555.222292 C 371.197668 541.427505 338.439567 542.563092 300.214697 556.414396 C 297.091194 567.463999 297.241698 580.347018 300.168358 591.846585 Z M 318.76976 574.009392 " transform="matrix(0.0126842,0.00453529,-0.00560595,0.0345129,16.686259,-0.545485)"/>
<path style="fill-rule:evenodd;fill:rgb(100%,100%,100%);fill-opacity:1;stroke-width:4.7128;stroke-linecap:butt;stroke-linejoin:miter;stroke:rgb(84.313726%,72.549021%,0%);stroke-opacity:1;stroke-miterlimit:4;" d="M 318.741615 573.98666 L 336.761837 591.76512 L 354.490062 574.04267 L 372.171948 591.752407 L 389.900174 574.029957 L 407.58206 591.739695 C 412.673505 582.355589 414.70964 568.845679 407.44669 555.19956 C 371.169524 541.404773 338.411423 542.54036 300.186553 556.391665 C 297.06305 567.441268 297.213554 580.324287 300.140213 591.823853 Z M 318.741615 573.98666 " transform="matrix(0.0126842,0.00453529,-0.00560595,0.0345129,16.791957,-1.189104)"/>
<path style="fill-rule:evenodd;fill:rgb(100%,100%,100%);fill-opacity:1;stroke-width:1.25;stroke-linecap:butt;stroke-linejoin:miter;stroke:rgb(84.313726%,72.549021%,0%);stroke-opacity:1;stroke-miterlimit:4;" d="M 345.615292 -96.129321 C 345.661504 -92.824905 344.541812 -90.163888 343.118967 -90.16743 C 341.777603 -90.210184 340.640804 -92.817696 340.594593 -96.122111 C 340.61942 -99.403358 341.739112 -102.064375 343.161958 -102.060833 C 344.513763 -102.08046 345.64012 -99.410567 345.615292 -96.129321 Z M 345.615292 -96.129321 " transform="matrix(-0.0521405,-0.0193655,-0.00872787,0.0593773,35.822167,37.111842)"/>
<path style="fill-rule:evenodd;fill:rgb(100%,100%,100%);fill-opacity:1;stroke-width:1.25;stroke-linecap:butt;stroke-linejoin:miter;stroke:rgb(84.313726%,72.549021%,0%);stroke-opacity:1;stroke-miterlimit:4;" d="M 345.661153 -96.134665 C 345.608784 -92.873253 344.532643 -90.20899 343.132691 -90.162698 C 341.740073 -90.173468 340.614642 -92.833714 340.596804 -96.119719 C 340.649173 -99.381132 341.725314 -102.045395 343.125266 -102.091687 C 344.517884 -102.080916 345.643314 -99.420671 345.661153 -96.134665 Z M 345.661153 -96.134665 " transform="matrix(-0.0532415,-0.0229464,-0.00684349,0.065506,35.003434,38.690005)"/>
<path style="fill-rule:evenodd;fill:rgb(100%,100%,100%);fill-opacity:1;stroke-width:1.25;stroke-linecap:butt;stroke-linejoin:miter;stroke:rgb(84.313726%,72.549021%,0%);stroke-opacity:1;stroke-miterlimit:4;" d="M 345.638543 -96.099275 C 345.657801 -92.855734 344.515146 -90.175405 343.124702 -90.202552 C 341.724635 -90.171765 340.634882 -92.849181 340.625246 -96.150655 C 340.605987 -99.394196 341.748643 -102.074525 343.139087 -102.047379 C 344.539153 -102.078166 345.628907 -99.400749 345.638543 -96.099275 Z M 345.638543 -96.099275 " transform="matrix(-0.0560055,-0.0209141,-0.00930201,0.063953,34.377795,37.593289)"/>
<path style="fill-rule:evenodd;fill:rgb(100%,100%,100%);fill-opacity:1;stroke-width:4.8244;stroke-linecap:butt;stroke-linejoin:miter;stroke:rgb(84.313726%,72.549021%,0%);stroke-opacity:1;stroke-miterlimit:4;" d="M 268.285923 261.728458 C 268.285923 261.728458 301.162465 219.66451 301.162465 166.638442 C 301.162465 166.638442 372.106582 166.638442 372.106582 166.638442 C 372.106582 219.66451 406.39886 261.728458 407.499989 255.1002 C 389.724633 255.1002 354.331227 237.509821 336.555871 202.074132 C 318.93782 237.509821 286.061278 261.728458 268.285923 261.728458 Z M 268.285923 261.728458 " transform="matrix(0.0248325,0,0,0.0153227,10.853419,13.130251)"/>
<path style="fill-rule:evenodd;fill:rgb(100%,100%,100%);fill-opacity:1;stroke-width:4.8244;stroke-linecap:butt;stroke-linejoin:miter;stroke:rgb(84.313726%,72.549021%,0%);stroke-opacity:1;stroke-miterlimit:4;" d="M 253.467065 240.329321 C 253.467065 240.329321 301.477758 181.694726 301.477758 128.413726 L 301.477758 53.973284 C 301.477758 36.127973 325.401175 35.363174 337.362883 35.363174 C 355.059657 35.363174 373.248008 36.127973 373.248008 53.973284 L 373.248008 128.413726 C 373.248008 181.694726 421.258701 240.329321 421.258701 240.329321 C 385.865153 240.329321 367.021365 201.324569 349.324591 165.888879 C 349.324591 183.479258 354.404221 219.679746 336.543588 237.525057 C 318.846814 219.679746 325.401175 183.479258 325.401175 165.888879 C 307.704401 201.324569 288.860613 240.329321 253.467065 240.329321 Z M 253.467065 240.329321 " transform="matrix(0.0238391,0,0,0.0153227,11.188044,13.172986)"/>
<path style="fill-rule:evenodd;fill:rgb(100%,100%,100%);fill-opacity:1;stroke-width:5.9087;stroke-linecap:butt;stroke-linejoin:miter;stroke:rgb(84.313726%,72.549021%,0%);stroke-opacity:1;stroke-miterlimit:4;" d="M 283.068189 77.927252 L 336.250466 77.91215 C 336.180206 95.558095 336.364001 113.447073 318.525378 113.252013 C 300.766293 113.414201 283.172447 95.458982 283.068189 77.927252 Z M 283.068189 77.927252 " transform="matrix(0.0195365,0.00624598,-0.00434958,0.0095437,12.683782,11.101529)"/>
<path style="fill-rule:evenodd;fill:rgb(100%,100%,100%);fill-opacity:1;stroke-width:4.8244;stroke-linecap:butt;stroke-linejoin:miter;stroke:rgb(84.313726%,72.549021%,0%);stroke-opacity:1;stroke-miterlimit:4;" d="M 183.917259 42.420759 C 195.80957 42.616222 195.762731 60.262166 195.715892 77.908109 C 178.015133 78.093683 166.286005 60.138066 148.538406 77.969583 C 148.552813 58.308971 148.462717 42.434658 166.2165 42.606333 Z M 183.917259 42.420759 " transform="matrix(0.0293052,0.00936873,-0.00434958,0.0095437,13.439314,11.536141)"/>
<path style="fill-rule:evenodd;fill:rgb(100%,100%,100%);fill-opacity:1;stroke-width:4.8244;stroke-linecap:butt;stroke-linejoin:miter;stroke:rgb(84.313726%,72.549021%,0%);stroke-opacity:1;stroke-miterlimit:4;" d="M 336.55494 69.224435 C 336.590457 74.120556 332.689292 78.005604 327.690061 78.003864 C 322.865347 77.925981 318.926352 73.914373 318.890835 69.018252 C 318.855318 64.122131 322.931001 60.16094 327.755714 60.238823 C 332.580428 60.316706 336.693941 64.252171 336.55494 69.224435 Z M 336.55494 69.224435 " transform="matrix(0.0195365,0.00624598,-0.00652432,0.0143155,13.153873,10.922524)"/>
<path style="fill-rule:evenodd;fill:rgb(84.313726%,72.549021%,0%);fill-opacity:1;stroke-width:1.25;stroke-linecap:butt;stroke-linejoin:miter;stroke:rgb(100%,100%,100%);stroke-opacity:1;stroke-miterlimit:4;" d="M 322.459574 -322.41535 L 329.562115 -322.41535 L 333.312896 -262.196935 L 325.970943 -255.123661 L 318.868401 -262.196935 Z M 322.459574 -322.41535 " transform="matrix(0.0489481,0,0,0.0613003,3.251358,39.869623)"/>
<path style="fill-rule:evenodd;fill:rgb(100%,100%,100%);fill-opacity:1;stroke-width:0.62344;stroke-linecap:butt;stroke-linejoin:miter;stroke:rgb(84.313726%,72.549021%,0%);stroke-opacity:1;stroke-miterlimit:4;" d="M -70.772165 -406.534822 C -69.444945 -406.528981 -68.378117 -404.495484 -68.359306 -402.024133 L -68.35483 -370.920556 C -68.375351 -368.396737 -69.429944 -366.413835 -70.757164 -366.419675 C -72.077215 -366.387071 -73.144043 -368.420567 -73.162854 -370.891919 L -73.174499 -402.033941 C -73.146809 -404.519315 -72.099385 -406.540662 -70.772165 -406.534822 Z M -70.772165 -406.534822 " transform="matrix(-0.0290085,-0.0795312,-0.0961966,0.0148309,-18.347753,24.236614)"/>
<path style="fill-rule:evenodd;fill:rgb(100%,100%,100%);fill-opacity:1;stroke-width:4.7128;stroke-linecap:butt;stroke-linejoin:miter;stroke:rgb(84.313726%,72.549021%,0%);stroke-opacity:1;stroke-miterlimit:4;" d="M 318.834679 574.01792 L 336.552207 591.76769 L 354.248195 573.999107 L 371.965723 591.748878 L 389.66171 573.980295 L 407.379239 591.730066 C 412.660695 582.275694 414.462266 568.857479 407.250637 555.210178 C 371.261001 541.430722 338.515424 542.582745 300.052696 556.400904 C 297.072807 567.485241 297.275752 580.315163 300.298887 591.778475 Z M 318.834679 574.01792 " transform="matrix(-0.0140057,0.00432025,0.00539743,0.0346406,22.699321,2.124969)"/>
<path style="fill-rule:evenodd;fill:rgb(100%,100%,100%);fill-opacity:1;stroke-width:4.7128;stroke-linecap:butt;stroke-linejoin:miter;stroke:rgb(84.313726%,72.549021%,0%);stroke-opacity:1;stroke-miterlimit:4;" d="M 318.826047 574.061947 L 336.502112 591.704124 L 354.239563 574.043135 L 371.957091 591.792906 L 389.653079 574.024323 L 407.370607 591.774093 C 412.652063 582.319722 414.719748 568.868318 407.508119 555.221017 C 371.210906 541.367155 338.506792 542.626773 300.310178 556.411743 C 297.022711 567.421674 297.267121 580.359191 300.290255 591.822502 Z M 318.826047 574.061947 " transform="matrix(-0.0140057,0.00432025,0.00539743,0.0346406,22.5974,1.47895)"/>
<path style="fill-rule:evenodd;fill:rgb(100%,100%,100%);fill-opacity:1;stroke-width:4.7128;stroke-linecap:butt;stroke-linejoin:miter;stroke:rgb(84.313726%,72.549021%,0%);stroke-opacity:1;stroke-miterlimit:4;" d="M 318.775956 573.998416 L 336.493484 591.748187 L 354.230935 574.087198 L 371.907 591.729375 L 389.910565 574.035197 L 407.586629 591.677374 C 412.643435 582.363785 414.669657 568.804787 407.458027 555.157486 C 371.202278 541.411219 338.456701 542.563242 300.260087 556.348212 C 297.014084 567.465737 297.217029 580.29566 300.281627 591.866565 Z M 318.775956 573.998416 " transform="matrix(-0.0140057,0.00432025,0.00539743,0.0346406,22.495479,0.832929)"/>
<path style="fill-rule:evenodd;fill:rgb(100%,100%,100%);fill-opacity:1;stroke-width:4.7128;stroke-linecap:butt;stroke-linejoin:miter;stroke:rgb(84.313726%,72.549021%,0%);stroke-opacity:1;stroke-miterlimit:4;" d="M 318.9996 573.99256 L 336.717128 591.742331 L 354.413116 573.973748 L 372.130644 591.723519 L 389.868095 574.06253 L 407.54416 591.704706 C 412.825616 582.250335 414.627187 568.83212 407.415558 555.184819 C 371.159808 541.438551 338.414231 542.590575 300.217617 556.375545 C 297.237728 567.459881 297.17456 580.322993 300.197694 591.786304 Z M 318.9996 573.99256 " transform="matrix(-0.0140057,0.00432025,0.00539743,0.0346406,22.361924,0.035291)"/>
<path style="fill-rule:evenodd;fill:rgb(100%,100%,100%);fill-opacity:1;stroke-width:4.7128;stroke-linecap:butt;stroke-linejoin:miter;stroke:rgb(84.313726%,72.549021%,0%);stroke-opacity:1;stroke-miterlimit:4;" d="M 318.990381 574.030819 L 336.707909 591.780589 L 354.403896 574.012007 L 372.121425 591.761777 L 389.817412 573.993194 L 407.534941 591.742965 C 412.816397 582.288593 414.617968 568.870378 407.406339 555.223077 C 371.109125 541.369216 338.671126 542.595644 300.208398 556.413803 C 297.187045 567.390546 297.165341 580.361251 300.188475 591.824563 Z M 318.990381 574.030819 " transform="matrix(-0.0140057,0.00432025,0.00539743,0.0346406,22.260026,-0.610526)"/>
<path style="fill-rule:evenodd;fill:rgb(100%,100%,100%);fill-opacity:1;stroke-width:4.7128;stroke-linecap:butt;stroke-linejoin:miter;stroke:rgb(84.313726%,72.549021%,0%);stroke-opacity:1;stroke-miterlimit:4;" d="M 318.940289 573.967288 L 336.657817 591.717058 L 354.395269 574.05607 L 372.071333 591.698246 L 389.808784 574.037257 L 407.484849 591.679434 C 412.807769 582.332656 414.567876 568.806847 407.397711 555.26714 C 371.100498 541.413279 338.621034 542.532113 300.19977 556.457867 C 297.178417 567.434609 297.115249 580.29772 300.179847 591.868626 Z M 318.940289 573.967288 " transform="matrix(-0.0140057,0.00432025,0.00539743,0.0346406,22.158105,-1.256546)"/>
<path style="fill-rule:evenodd;fill:rgb(100%,100%,100%);fill-opacity:1;stroke-width:1.25;stroke-linecap:butt;stroke-linejoin:miter;stroke:rgb(84.313726%,72.549021%,0%);stroke-opacity:1;stroke-miterlimit:4;" d="M 345.641314 -96.153374 C 345.635593 -92.811497 344.515213 -90.20876 343.153364 -90.172276 C 341.735606 -90.218696 340.622925 -92.858514 340.61962 -96.137628 C 340.616315 -99.416743 341.745721 -102.082242 343.098545 -102.055964 C 344.525327 -102.072306 345.638009 -99.432488 345.641314 -96.153374 Z M 345.641314 -96.153374 " transform="matrix(0.0575887,-0.0184822,0.00828072,0.0595812,0.461493,36.749953)"/>
<path style="fill-rule:evenodd;fill:rgb(100%,100%,100%);fill-opacity:1;stroke-width:1.25;stroke-linecap:butt;stroke-linejoin:miter;stroke:rgb(84.313726%,72.549021%,0%);stroke-opacity:1;stroke-miterlimit:4;" d="M 345.646104 -96.11279 C 345.640173 -92.843851 344.50372 -90.192273 343.109569 -90.184467 C 341.715418 -90.17666 340.60033 -92.87034 340.606261 -96.139278 C 340.612192 -99.408217 341.748645 -102.059795 343.142796 -102.067602 C 344.536947 -102.075408 345.652035 -99.381728 345.646104 -96.11279 Z M 345.646104 -96.11279 " transform="matrix(0.0588736,-0.0220473,0.00608162,0.0656828,1.324923,38.343669)"/>
<path style="fill-rule:evenodd;fill:rgb(100%,100%,100%);fill-opacity:1;stroke-width:1.25;stroke-linecap:butt;stroke-linejoin:miter;stroke:rgb(84.313726%,72.549021%,0%);stroke-opacity:1;stroke-miterlimit:4;" d="M 345.659652 -96.119098 C 345.634594 -92.839769 344.502174 -90.209336 343.113783 -90.215196 C 341.725393 -90.221056 340.650141 -92.86876 340.606431 -96.108612 C 340.631489 -99.387941 341.772211 -102.076664 343.160602 -102.070804 C 344.488526 -102.083757 345.624244 -99.41724 345.659652 -96.119098 Z M 345.659652 -96.119098 " transform="matrix(0.06186,-0.0199654,0.00881091,0.0641708,2.034697,37.256778)"/>
<path style="fill-rule:evenodd;fill:rgb(100%,100%,100%);fill-opacity:1;stroke-width:4.8244;stroke-linecap:butt;stroke-linejoin:miter;stroke:rgb(84.313726%,72.549021%,0%);stroke-opacity:1;stroke-miterlimit:4;" d="M 301.212645 290.597605 C 301.212645 485.359316 336.605008 467.76958 407.389733 538.63837 C 478.371082 467.76958 513.763444 485.359316 513.763444 290.597605 C 478.371082 290.597605 442.978719 290.597605 407.389733 272.752946 C 371.99737 290.597605 336.605008 290.597605 301.212645 290.597605 Z M 301.212645 290.597605 " transform="matrix(0.0198666,0,0,0.0153232,11.117499,12.679924)"/>
<path style=" stroke:none;fill-rule:evenodd;fill:rgb(84.313726%,72.549021%,0%);fill-opacity:1;" d="M 17.25 17.238281 C 17.25 19.976562 17.902344 19.730469 19.210938 20.726562 C 20.523438 19.730469 21.175781 19.976562 21.175781 17.238281 C 20.523438 17.238281 19.867188 17.238281 19.210938 16.992188 C 18.558594 17.238281 17.902344 17.238281 17.25 17.238281 Z M 17.25 17.238281 "/>
<path style=" stroke:none;fill-rule:evenodd;fill:rgb(100%,100%,100%);fill-opacity:1;" d="M 18.519531 17.273438 L 18.519531 20.128906 L 19.222656 20.542969 L 19.925781 20.128906 L 19.925781 17.273438 C 19.675781 17.242188 19.433594 17.1875 19.222656 17.121094 C 18.992188 17.191406 18.753906 17.246094 18.519531 17.273438 Z M 18.519531 17.273438 "/>
</g>
</svg>
