<?xml version="1.0" encoding="UTF-8"?>
<svg xmlns="http://www.w3.org/2000/svg" xmlns:xlink="http://www.w3.org/1999/xlink" width="40px" height="40px" viewBox="0 0 40 40" version="1.1">
<g id="surface1">
<path style=" stroke:none;fill-rule:evenodd;fill:rgb(0%,0%,0%);fill-opacity:1;" d="M -14.0625 0 L 65.9375 0 L 65.9375 20 L -14.0625 20 Z M -14.0625 0 "/>
<path style=" stroke:none;fill-rule:evenodd;fill:rgb(6.27451%,48.235294%,0%);fill-opacity:1;" d="M -14.0625 20 L 65.9375 20 L 65.9375 40 L -14.0625 40 Z M -14.0625 20 "/>
<path style=" stroke:none;fill-rule:evenodd;fill:rgb(100%,100%,100%);fill-opacity:1;" d="M -14.0625 13.226562 L 65.9375 13.226562 L 65.9375 26.988281 L -14.0625 26.988281 Z M -14.0625 13.226562 "/>
<path style=" stroke:none;fill-rule:evenodd;fill:rgb(100%,0%,100%);fill-opacity:1;" d="M 24.21875 15.277344 C 20.6875 13.761719 17.644531 16.890625 17.648438 19.816406 C 17.652344 22.875 20.621094 26.136719 24.382812 24.691406 C 21.71875 23.910156 20.621094 21.941406 20.621094 19.953125 C 20.601562 17.980469 21.859375 15.691406 24.21875 15.277344 Z M 24.21875 15.277344 "/>
<path style=" stroke:none;fill-rule:evenodd;fill:rgb(100%,9.411765%,0%);fill-opacity:1;" d="M 28.371094 22.984375 L 26.351562 21.511719 L 24.320312 22.988281 L 25.101562 20.613281 L 23.070312 19.136719 L 25.566406 19.144531 L 26.34375 16.757812 L 27.109375 19.132812 L 29.621094 19.136719 L 27.59375 20.597656 Z M 28.371094 22.984375 "/>
<path style=" stroke:none;fill-rule:evenodd;fill:rgb(100%,0%,0%);fill-opacity:1;" d="M 24.558594 24.660156 C 20.609375 26.03125 17.640625 23.058594 17.585938 20.015625 C 17.535156 16.96875 20.523438 13.832031 24.578125 15.261719 C 22.285156 15.601562 20.601562 17.609375 20.582031 19.882812 C 20.566406 21.601562 21.582031 24.050781 24.558594 24.660156 Z M 24.558594 24.660156 "/>
<path style=" stroke:none;fill-rule:evenodd;fill:rgb(100%,0%,0%);fill-opacity:1;" d="M -14.0625 0 L 13.175781 20.046875 L -14.0625 40 Z M -14.0625 0 "/>
</g>
</svg>
