<?xml version="1.0" encoding="UTF-8"?>
<svg xmlns="http://www.w3.org/2000/svg" xmlns:xlink="http://www.w3.org/1999/xlink" width="40px" height="40px" viewBox="0 0 40 40" version="1.1">
<g id="surface1">
<rect x="0" y="0" width="40" height="40" style="fill:rgb(74.509805%,0%,15.294118%);fill-opacity:1;stroke:none;"/>
<path style=" stroke:none;fill-rule:evenodd;fill:rgb(70.588237%,84.313726%,95.686275%);fill-opacity:1;" d="M -3.75 40 L 42.457031 39.976562 L 42.453125 20 Z M -3.75 40 "/>
<path style=" stroke:none;fill-rule:evenodd;fill:rgb(13.725491%,61.960787%,27.450982%);fill-opacity:1;" d="M -3.75 0 L 42.457031 0.0234375 L 42.453125 20 Z M -3.75 0 "/>
<path style=" stroke:none;fill-rule:evenodd;fill:rgb(95.294118%,88.627452%,58.431375%);fill-opacity:1;" d="M 11.621094 27.457031 C 10.941406 27.644531 10.550781 28.171875 10.5625 28.667969 L 13.910156 28.65625 C 13.9375 28.121094 13.5 27.625 12.828125 27.429688 C 16.105469 27.363281 18.953125 26.136719 19.472656 25.347656 C 18.960938 25.125 18.367188 25.484375 17.945312 25.402344 C 18.949219 24.9375 21.949219 22.996094 21.460938 20.914062 C 21.082031 22.070312 19.933594 23.027344 19.441406 23.285156 C 20.566406 21.582031 22.097656 19.808594 20.765625 18.433594 C 20.835938 19.230469 20.261719 20.105469 20.007812 20.171875 C 20.660156 18.375 21.28125 16.113281 19.871094 14.625 C 20.054688 15.164062 19.980469 16.683594 19.726562 16.75 C 19.648438 15.527344 19.4375 12.953125 18.148438 12.988281 C 18.558594 13.355469 18.738281 14.347656 18.746094 15.351562 C 18.453125 14.664062 18.121094 14.148438 17.40625 13.636719 C 16.828125 12.53125 15.800781 11.613281 14.773438 10.957031 C 14.890625 11.761719 14.984375 12.398438 16.109375 13.234375 C 15.523438 13.199219 14.9375 12.085938 14.308594 12.054688 C 13.8125 12.03125 13.417969 12.507812 12.605469 12.234375 C 12.695312 12.5 13.074219 12.621094 13.15625 12.820312 C 12.980469 12.941406 12.566406 12.800781 12.222656 12.621094 C 12.695312 13.265625 13.429688 13.648438 14.054688 13.519531 C 14.796875 13.375 15.589844 13.453125 16.347656 13.882812 C 16.15625 13.984375 15.402344 13.980469 14.917969 13.921875 C 15.355469 14.367188 15.652344 14.660156 16.417969 14.65625 C 17.097656 14.652344 17.457031 14.292969 17.632812 14.515625 C 18.0625 15.023438 18.347656 15.53125 18.707031 16.128906 C 17.917969 16.214844 18.15625 15.234375 17.273438 14.730469 C 16.777344 15.753906 17.84375 16.96875 18.566406 17.476562 C 18.578125 18.246094 18.691406 18.890625 19.015625 19.476562 C 19.238281 19.890625 19.523438 20.3125 19.414062 21.246094 C 18.980469 20.929688 18.558594 19.867188 18.710938 19.019531 C 18.167969 19.167969 17.957031 20.121094 18.214844 20.601562 C 18.40625 20.96875 18.53125 21.667969 18.3125 21.984375 C 18.097656 22.273438 18.074219 22.242188 18.078125 22.867188 C 18.085938 23.242188 17.875 23.683594 17.535156 23.996094 C 17.605469 23.730469 17.6875 23.277344 17.609375 22.992188 C 17.339844 23.449219 16.664062 23.921875 16.449219 24.414062 C 16.242188 24.90625 16.1875 25.757812 15.175781 25.957031 C 13.875 26.214844 13.425781 26.441406 12.589844 26.78125 C 12.496094 26.148438 12.773438 24.820312 13.304688 24.894531 C 13.824219 24.988281 15.398438 24.351562 14.835938 23.027344 C 14.726562 23.445312 14.355469 23.851562 13.953125 23.871094 C 14.386719 23.308594 15.160156 22.726562 14.78125 21.785156 C 14.574219 22.183594 14.242188 22.664062 13.746094 22.9375 C 14.28125 21.910156 13.808594 21.601562 13.171875 22.449219 C 12.929688 22.773438 12.785156 23.425781 12.632812 24.257812 C 12.382812 23.582031 12.398438 22.695312 12.105469 21.972656 C 11.792969 21.191406 12.515625 20.988281 12.851562 21.050781 C 13.683594 21.269531 15.066406 21.269531 14.964844 19.902344 C 14.605469 20.363281 13.976562 20.507812 13.300781 20.339844 C 14.0625 19.785156 14.664062 18.738281 13.8125 18.191406 C 13.785156 18.773438 13.339844 19.421875 12.738281 19.71875 C 12.601562 19.230469 12.601562 18.710938 12.71875 18.144531 C 12.386719 18.496094 12.140625 19.226562 11.949219 20.058594 C 11.933594 19.238281 12.089844 18.644531 12.203125 18.203125 C 12.378906 17.554688 12.8125 17.976562 13.476562 18.023438 C 14.121094 18.0625 15 17.707031 14.832031 16.839844 C 14.613281 17.183594 14.164062 17.316406 13.707031 17.277344 C 14.257812 16.945312 15.21875 16.351562 14.691406 15.433594 C 14.472656 15.78125 14.398438 16.078125 13.757812 16.183594 C 13.925781 15.796875 13.953125 15.25 14.453125 15.035156 C 13.5625 14.859375 13.054688 15.441406 12.796875 16.355469 C 12.691406 15.722656 12.566406 15.488281 12.542969 15.023438 C 13.023438 14.492188 13.070312 13.449219 12.03125 13.214844 C 11.972656 13.753906 11.988281 13.882812 12.105469 14.320312 C 11.621094 14.03125 10.929688 13.871094 10.472656 14.28125 C 10.785156 14.613281 11.265625 14.910156 12.003906 14.542969 C 11.828125 15.117188 11.375 15.019531 10.75 14.800781 C 11.132812 15.515625 11.613281 15.644531 12.144531 15.5625 C 12.425781 16.296875 12.4375 16.855469 11.621094 17.921875 C 11.660156 17.257812 11.613281 16.765625 11.085938 16.226562 C 10.632812 15.785156 10.265625 16.246094 10.972656 17.230469 C 10.542969 16.914062 10.058594 16.273438 9.910156 15.632812 C 9.769531 16.425781 9.898438 17.359375 10.335938 17.882812 C 10.128906 18.101562 9.890625 17.859375 9.542969 17.316406 C 9.675781 19.050781 10.414062 19.386719 11.410156 19 C 11.4375 19.949219 11.4375 20.832031 11.496094 21.984375 C 10.914062 21.148438 10.179688 20.527344 9.769531 20.371094 C 9.640625 20.835938 10.125 21.445312 10.390625 21.785156 C 9.980469 21.699219 9.089844 21.019531 9.089844 21.019531 C 9 21.792969 10 22.511719 10.648438 22.832031 C 9.886719 22.796875 9.554688 22.511719 9.0625 22.039062 C 9.070312 24.183594 11.386719 23.8125 11.820312 23.480469 C 11.875 24.539062 11.957031 25.757812 12.015625 26.8125 C 11.359375 26.699219 11.410156 26.503906 10.851562 26.453125 C 9.296875 26.390625 8.066406 24.585938 7.65625 23.257812 C 7.539062 23.476562 7.632812 23.707031 7.523438 23.972656 C 7.273438 23.324219 6.949219 22.480469 6.519531 22.089844 C 6.628906 22.46875 6.640625 22.855469 6.601562 23.566406 C 6.453125 23.105469 6.316406 22.964844 6.304688 22.425781 C 6.316406 22.007812 6.707031 21.703125 6.683594 21.121094 C 6.667969 20.695312 6.28125 19.773438 6.222656 19.058594 C 6.035156 19.792969 5.917969 20.566406 5.628906 21.023438 C 5.773438 20.238281 5.726562 19.695312 5.96875 19.167969 C 6.246094 18.613281 6.484375 18.113281 6.300781 17.554688 C 6.121094 17.769531 6.183594 17.96875 5.734375 18.492188 C 5.636719 17.921875 6.3125 17.003906 6.972656 16.636719 C 7.433594 16.390625 8.019531 15.515625 7.636719 14.917969 C 7.203125 15.230469 7.007812 15.65625 6.390625 16.378906 C 6.828125 14.660156 7.972656 14.210938 9.339844 14.203125 C 9.640625 14.203125 10.25 14.09375 10.421875 13.695312 C 10.035156 13.84375 9.582031 13.859375 9.175781 13.78125 C 9.472656 13.347656 10.09375 13.402344 10.671875 13.402344 C 11.125 13.398438 11.835938 13.335938 12.121094 12.691406 C 11.566406 12.929688 10.703125 12.980469 10.160156 12.808594 C 11.023438 12.363281 12.378906 12.3125 13.074219 11.726562 C 12.28125 11.132812 10.300781 11.863281 9.046875 12.722656 C 9.398438 12.402344 9.949219 11.835938 10.253906 11.375 C 9.570312 11.046875 7.839844 12.964844 7.242188 14.105469 C 6.675781 14.425781 6.449219 14.929688 6.230469 15.277344 C 6.53125 14.257812 6.5625 13.515625 6.816406 12.675781 C 4.871094 13.34375 5.679688 16.933594 5.257812 17.792969 C 5.308594 16.84375 5.265625 15.628906 4.875 15 C 4.277344 15.457031 4.230469 18.140625 4.792969 20.378906 C 4.589844 19.78125 4.207031 19.222656 4.082031 18.492188 C 3.199219 20.109375 4.601562 22.011719 5.777344 23.519531 C 4.890625 23.058594 4.019531 22.066406 3.445312 21.238281 C 3.601562 24.128906 6.621094 24.726562 7.089844 25.4375 C 6.453125 25.140625 5.238281 24.554688 4.722656 25.171875 C 5.5625 25.363281 6.230469 25.589844 6.773438 25.941406 C 7.554688 26.921875 9.039062 27.347656 11.621094 27.457031 Z M 11.621094 27.457031 "/>
</g>
</svg>
