<?xml version="1.0" encoding="UTF-8"?>
<svg xmlns="http://www.w3.org/2000/svg" xmlns:xlink="http://www.w3.org/1999/xlink" width="40px" height="40px" viewBox="0 0 40 40" version="1.1">
<g id="surface1">
<path style=" stroke:none;fill-rule:evenodd;fill:rgb(100%,77.64706%,12.941177%);fill-opacity:1;" d="M -18.59375 0.273438 L 62.496094 0.273438 L 62.496094 39.179688 L -18.59375 39.179688 Z M -18.59375 0.273438 "/>
<path style=" stroke:none;fill-rule:evenodd;fill:rgb(93.725491%,12.941177%,9.411765%);fill-opacity:1;" d="M -18.75 26.757812 L 62.449219 26.757812 L 62.449219 40 L -18.75 40 Z M -18.75 26.757812 "/>
<path style=" stroke:none;fill-rule:evenodd;fill:rgb(16.078432%,54.901963%,3.137255%);fill-opacity:1;" d="M -18.59375 0 L 62.503906 0 L 62.503906 14.0625 L -18.59375 14.0625 Z M -18.59375 0 "/>
<path style=" stroke:none;fill-rule:evenodd;fill:rgb(0%,41.960785%,77.64706%);fill-opacity:1;" d="M 28.898438 20.648438 C 28.898438 16.003906 25.132812 12.238281 20.488281 12.238281 C 15.84375 12.238281 12.078125 16.003906 12.078125 20.648438 C 12.078125 25.292969 15.84375 29.058594 20.488281 29.058594 C 25.132812 29.058594 28.898438 25.292969 28.898438 20.648438 Z M 28.898438 20.648438 "/>
<path style=" stroke:none;fill-rule:evenodd;fill:rgb(100%,77.64706%,12.941177%);fill-opacity:1;" d="M 16.738281 14.703125 L 16.238281 15.058594 L 18.074219 17.636719 L 18.5625 17.324219 Z M 19.035156 20.792969 L 18.28125 20.265625 L 18.59375 19.277344 L 14.835938 19.328125 L 13.746094 18.496094 L 18.878906 18.441406 L 19.832031 15.558594 L 20.339844 16.722656 Z M 25.015625 15.269531 L 24.527344 14.898438 L 22.621094 17.429688 L 23.066406 17.800781 Z M 19.90625 19.300781 L 20.179688 18.421875 L 21.21875 18.421875 L 20.03125 14.851562 L 20.496094 13.5625 L 22.101562 18.441406 L 25.136719 18.476562 L 24.179688 19.316406 Z M 26.988281 23.300781 L 27.195312 22.71875 L 24.203125 21.683594 L 23.984375 22.222656 Z M 21.585938 19.671875 L 22.503906 19.664062 L 22.824219 20.652344 L 25.855469 18.425781 L 27.226562 18.472656 L 23.078125 21.496094 L 23.976562 24.398438 L 22.882812 23.746094 Z M 20.042969 27.648438 L 20.65625 27.65625 L 20.683594 24.492188 L 20.105469 24.457031 Z M 21.757812 21.371094 L 22.058594 22.238281 L 21.222656 22.855469 L 24.296875 25.023438 L 24.691406 26.335938 L 20.503906 23.367188 L 18.039062 25.144531 L 18.308594 23.898438 Z M 13.6875 22.382812 L 13.871094 22.972656 L 16.890625 22.015625 L 16.742188 21.457031 Z M 20.1875 22.070312 L 19.457031 22.625 L 18.609375 22.023438 L 17.503906 25.617188 L 16.375 26.398438 L 17.902344 21.496094 L 15.449219 19.707031 L 16.71875 19.578125 Z M 20.1875 22.070312 "/>
</g>
</svg>
