<?xml version="1.0" encoding="UTF-8"?>
<svg xmlns="http://www.w3.org/2000/svg" xmlns:xlink="http://www.w3.org/1999/xlink" width="40px" height="40px" viewBox="0 0 40 40" version="1.1">
<g id="surface1">
<rect x="0" y="0" width="40" height="40" style="fill:rgb(0%,20%,60.000002%);fill-opacity:1;stroke:none;"/>
<path style=" stroke:none;fill-rule:nonzero;fill:rgb(100%,80.000001%,0%);fill-opacity:1;" d="M 20.238281 8.09375 L 19.742188 9.765625 L 20.507812 10.035156 Z M 20.238281 8.09375 "/>
<path style=" stroke:none;fill-rule:nonzero;fill:rgb(100%,80.000001%,0%);fill-opacity:1;" d="M 20.238281 8.09375 L 20.738281 9.765625 L 19.96875 10.035156 Z M 20.238281 8.09375 "/>
<path style=" stroke:none;fill-rule:nonzero;fill:rgb(100%,80.000001%,0%);fill-opacity:1;" d="M 21.769531 9.308594 L 20.160156 9.308594 L 20.160156 10.1875 Z M 21.769531 9.308594 "/>
<path style=" stroke:none;fill-rule:nonzero;fill:rgb(100%,80.000001%,0%);fill-opacity:1;" d="M 21.769531 9.308594 L 20.46875 10.339844 L 19.992188 9.628906 Z M 21.769531 9.308594 "/>
<path style=" stroke:none;fill-rule:nonzero;fill:rgb(100%,80.000001%,0%);fill-opacity:1;" d="M 21.1875 11.273438 L 20.6875 9.601562 L 19.921875 9.871094 Z M 21.1875 11.273438 "/>
<path style=" stroke:none;fill-rule:nonzero;fill:rgb(100%,80.000001%,0%);fill-opacity:1;" d="M 21.1875 11.273438 L 19.882812 10.238281 L 20.355469 9.527344 Z M 21.1875 11.273438 "/>
<path style=" stroke:none;fill-rule:nonzero;fill:rgb(100%,80.000001%,0%);fill-opacity:1;" d="M 18.707031 9.308594 L 20.316406 9.308594 L 20.316406 10.1875 Z M 18.707031 9.308594 "/>
<path style=" stroke:none;fill-rule:nonzero;fill:rgb(100%,80.000001%,0%);fill-opacity:1;" d="M 18.707031 9.308594 L 20.011719 10.339844 L 20.484375 9.628906 Z M 18.707031 9.308594 "/>
<path style=" stroke:none;fill-rule:nonzero;fill:rgb(100%,80.000001%,0%);fill-opacity:1;" d="M 19.292969 11.273438 L 19.789062 9.601562 L 20.554688 9.871094 Z M 19.292969 11.273438 "/>
<path style=" stroke:none;fill-rule:nonzero;fill:rgb(100%,80.000001%,0%);fill-opacity:1;" d="M 19.292969 11.273438 L 20.59375 10.238281 L 20.121094 9.527344 Z M 19.292969 11.273438 "/>
<path style=" stroke:none;fill-rule:nonzero;fill:rgb(100%,80.000001%,0%);fill-opacity:1;" d="M 20.238281 29.179688 L 19.742188 30.851562 L 20.507812 31.125 Z M 20.238281 29.179688 "/>
<path style=" stroke:none;fill-rule:nonzero;fill:rgb(100%,80.000001%,0%);fill-opacity:1;" d="M 20.238281 29.179688 L 20.738281 30.851562 L 19.96875 31.125 Z M 20.238281 29.179688 "/>
<path style=" stroke:none;fill-rule:nonzero;fill:rgb(100%,80.000001%,0%);fill-opacity:1;" d="M 21.769531 30.394531 L 20.160156 30.394531 L 20.160156 31.273438 Z M 21.769531 30.394531 "/>
<path style=" stroke:none;fill-rule:nonzero;fill:rgb(100%,80.000001%,0%);fill-opacity:1;" d="M 21.769531 30.394531 L 20.46875 31.429688 L 19.992188 30.71875 Z M 21.769531 30.394531 "/>
<path style=" stroke:none;fill-rule:nonzero;fill:rgb(100%,80.000001%,0%);fill-opacity:1;" d="M 21.1875 32.359375 L 20.6875 30.6875 L 19.921875 30.960938 Z M 21.1875 32.359375 "/>
<path style=" stroke:none;fill-rule:nonzero;fill:rgb(100%,80.000001%,0%);fill-opacity:1;" d="M 21.1875 32.359375 L 19.882812 31.328125 L 20.355469 30.617188 Z M 21.1875 32.359375 "/>
<path style=" stroke:none;fill-rule:nonzero;fill:rgb(100%,80.000001%,0%);fill-opacity:1;" d="M 18.707031 30.394531 L 20.316406 30.394531 L 20.316406 31.273438 Z M 18.707031 30.394531 "/>
<path style=" stroke:none;fill-rule:nonzero;fill:rgb(100%,80.000001%,0%);fill-opacity:1;" d="M 18.707031 30.394531 L 20.011719 31.429688 L 20.484375 30.71875 Z M 18.707031 30.394531 "/>
<path style=" stroke:none;fill-rule:nonzero;fill:rgb(100%,80.000001%,0%);fill-opacity:1;" d="M 19.292969 32.359375 L 19.789062 30.6875 L 20.554688 30.960938 Z M 19.292969 32.359375 "/>
<path style=" stroke:none;fill-rule:nonzero;fill:rgb(100%,80.000001%,0%);fill-opacity:1;" d="M 19.292969 32.359375 L 20.59375 31.328125 L 20.121094 30.617188 Z M 19.292969 32.359375 "/>
<path style=" stroke:none;fill-rule:nonzero;fill:rgb(100%,80.000001%,0%);fill-opacity:1;" d="M 10.570312 18.636719 L 10.074219 20.308594 L 10.839844 20.582031 Z M 10.570312 18.636719 "/>
<path style=" stroke:none;fill-rule:nonzero;fill:rgb(100%,80.000001%,0%);fill-opacity:1;" d="M 10.570312 18.636719 L 11.070312 20.308594 L 10.304688 20.582031 Z M 10.570312 18.636719 "/>
<path style=" stroke:none;fill-rule:nonzero;fill:rgb(100%,80.000001%,0%);fill-opacity:1;" d="M 12.105469 19.851562 L 10.492188 19.851562 L 10.492188 20.730469 Z M 12.105469 19.851562 "/>
<path style=" stroke:none;fill-rule:nonzero;fill:rgb(100%,80.000001%,0%);fill-opacity:1;" d="M 12.105469 19.851562 L 10.800781 20.882812 L 10.328125 20.171875 Z M 12.105469 19.851562 "/>
<path style=" stroke:none;fill-rule:nonzero;fill:rgb(100%,80.000001%,0%);fill-opacity:1;" d="M 11.519531 21.816406 L 11.019531 20.144531 L 10.253906 20.417969 Z M 11.519531 21.816406 "/>
<path style=" stroke:none;fill-rule:nonzero;fill:rgb(100%,80.000001%,0%);fill-opacity:1;" d="M 11.519531 21.816406 L 10.214844 20.785156 L 10.6875 20.074219 Z M 11.519531 21.816406 "/>
<path style=" stroke:none;fill-rule:nonzero;fill:rgb(100%,80.000001%,0%);fill-opacity:1;" d="M 9.039062 19.851562 L 10.652344 19.851562 L 10.652344 20.730469 Z M 9.039062 19.851562 "/>
<path style=" stroke:none;fill-rule:nonzero;fill:rgb(100%,80.000001%,0%);fill-opacity:1;" d="M 9.039062 19.851562 L 10.34375 20.882812 L 10.816406 20.171875 Z M 9.039062 19.851562 "/>
<path style=" stroke:none;fill-rule:nonzero;fill:rgb(100%,80.000001%,0%);fill-opacity:1;" d="M 9.625 21.816406 L 10.125 20.144531 L 10.890625 20.417969 Z M 9.625 21.816406 "/>
<path style=" stroke:none;fill-rule:nonzero;fill:rgb(100%,80.000001%,0%);fill-opacity:1;" d="M 9.625 21.816406 L 10.929688 20.785156 L 10.457031 20.074219 Z M 9.625 21.816406 "/>
<path style=" stroke:none;fill-rule:nonzero;fill:rgb(100%,80.000001%,0%);fill-opacity:1;" d="M 14.457031 12.683594 L 15.761719 11.652344 L 15.289062 10.941406 Z M 14.457031 12.683594 "/>
<path style=" stroke:none;fill-rule:nonzero;fill:rgb(100%,80.000001%,0%);fill-opacity:1;" d="M 14.457031 12.683594 L 14.957031 11.015625 L 15.722656 11.285156 Z M 14.457031 12.683594 "/>
<path style=" stroke:none;fill-rule:nonzero;fill:rgb(100%,80.000001%,0%);fill-opacity:1;" d="M 13.875 10.71875 L 15.175781 11.753906 L 15.648438 11.042969 Z M 13.875 10.71875 "/>
<path style=" stroke:none;fill-rule:nonzero;fill:rgb(100%,80.000001%,0%);fill-opacity:1;" d="M 13.875 10.71875 L 15.484375 10.71875 L 15.484375 11.597656 Z M 13.875 10.71875 "/>
<path style=" stroke:none;fill-rule:nonzero;fill:rgb(100%,80.000001%,0%);fill-opacity:1;" d="M 15.40625 9.507812 L 14.90625 11.175781 L 15.671875 11.449219 Z M 15.40625 9.507812 "/>
<path style=" stroke:none;fill-rule:nonzero;fill:rgb(100%,80.000001%,0%);fill-opacity:1;" d="M 15.40625 9.507812 L 15.902344 11.175781 L 15.136719 11.449219 Z M 15.40625 9.507812 "/>
<path style=" stroke:none;fill-rule:nonzero;fill:rgb(100%,80.000001%,0%);fill-opacity:1;" d="M 16.351562 12.683594 L 15.050781 11.652344 L 15.523438 10.941406 Z M 16.351562 12.683594 "/>
<path style=" stroke:none;fill-rule:nonzero;fill:rgb(100%,80.000001%,0%);fill-opacity:1;" d="M 16.351562 12.683594 L 15.855469 11.015625 L 15.089844 11.285156 Z M 16.351562 12.683594 "/>
<path style=" stroke:none;fill-rule:nonzero;fill:rgb(100%,80.000001%,0%);fill-opacity:1;" d="M 16.9375 10.71875 L 15.632812 11.753906 L 15.160156 11.042969 Z M 16.9375 10.71875 "/>
<path style=" stroke:none;fill-rule:nonzero;fill:rgb(100%,80.000001%,0%);fill-opacity:1;" d="M 16.9375 10.71875 L 15.328125 10.71875 L 15.328125 11.597656 Z M 16.9375 10.71875 "/>
<path style=" stroke:none;fill-rule:nonzero;fill:rgb(100%,80.000001%,0%);fill-opacity:1;" d="M 12.8125 16.542969 L 12.316406 14.875 L 11.550781 15.144531 Z M 12.8125 16.542969 "/>
<path style=" stroke:none;fill-rule:nonzero;fill:rgb(100%,80.000001%,0%);fill-opacity:1;" d="M 12.8125 16.542969 L 11.511719 15.511719 L 11.984375 14.800781 Z M 12.8125 16.542969 "/>
<path style=" stroke:none;fill-rule:nonzero;fill:rgb(100%,80.000001%,0%);fill-opacity:1;" d="M 10.921875 16.542969 L 12.222656 15.511719 L 11.75 14.800781 Z M 10.921875 16.542969 "/>
<path style=" stroke:none;fill-rule:nonzero;fill:rgb(100%,80.000001%,0%);fill-opacity:1;" d="M 10.921875 16.542969 L 11.417969 14.875 L 12.183594 15.144531 Z M 10.921875 16.542969 "/>
<path style=" stroke:none;fill-rule:nonzero;fill:rgb(100%,80.000001%,0%);fill-opacity:1;" d="M 10.335938 14.578125 L 11.636719 15.613281 L 12.113281 14.902344 Z M 10.335938 14.578125 "/>
<path style=" stroke:none;fill-rule:nonzero;fill:rgb(100%,80.000001%,0%);fill-opacity:1;" d="M 10.335938 14.578125 L 11.945312 14.578125 L 11.945312 15.457031 Z M 10.335938 14.578125 "/>
<path style=" stroke:none;fill-rule:nonzero;fill:rgb(100%,80.000001%,0%);fill-opacity:1;" d="M 13.398438 14.578125 L 12.097656 15.613281 L 11.621094 14.902344 Z M 13.398438 14.578125 "/>
<path style=" stroke:none;fill-rule:nonzero;fill:rgb(100%,80.000001%,0%);fill-opacity:1;" d="M 13.398438 14.578125 L 11.789062 14.578125 L 11.789062 15.457031 Z M 13.398438 14.578125 "/>
<path style=" stroke:none;fill-rule:nonzero;fill:rgb(100%,80.000001%,0%);fill-opacity:1;" d="M 11.867188 13.367188 L 12.363281 15.035156 L 11.597656 15.308594 Z M 11.867188 13.367188 "/>
<path style=" stroke:none;fill-rule:nonzero;fill:rgb(100%,80.000001%,0%);fill-opacity:1;" d="M 11.867188 13.367188 L 11.371094 15.035156 L 12.136719 15.308594 Z M 11.867188 13.367188 "/>
<path style=" stroke:none;fill-rule:nonzero;fill:rgb(100%,80.000001%,0%);fill-opacity:1;" d="M 13.398438 25.125 L 11.789062 25.125 L 11.789062 26.003906 Z M 13.398438 25.125 "/>
<path style=" stroke:none;fill-rule:nonzero;fill:rgb(100%,80.000001%,0%);fill-opacity:1;" d="M 13.398438 25.125 L 12.097656 26.15625 L 11.621094 25.445312 Z M 13.398438 25.125 "/>
<path style=" stroke:none;fill-rule:nonzero;fill:rgb(100%,80.000001%,0%);fill-opacity:1;" d="M 12.8125 27.089844 L 12.316406 25.417969 L 11.550781 25.6875 Z M 12.8125 27.089844 "/>
<path style=" stroke:none;fill-rule:nonzero;fill:rgb(100%,80.000001%,0%);fill-opacity:1;" d="M 12.8125 27.089844 L 11.511719 26.054688 L 11.984375 25.34375 Z M 12.8125 27.089844 "/>
<path style=" stroke:none;fill-rule:nonzero;fill:rgb(100%,80.000001%,0%);fill-opacity:1;" d="M 10.921875 27.089844 L 12.222656 26.054688 L 11.75 25.34375 Z M 10.921875 27.089844 "/>
<path style=" stroke:none;fill-rule:nonzero;fill:rgb(100%,80.000001%,0%);fill-opacity:1;" d="M 10.921875 27.089844 L 11.417969 25.417969 L 12.183594 25.6875 Z M 10.921875 27.089844 "/>
<path style=" stroke:none;fill-rule:nonzero;fill:rgb(100%,80.000001%,0%);fill-opacity:1;" d="M 11.867188 23.910156 L 12.363281 25.582031 L 11.597656 25.851562 Z M 11.867188 23.910156 "/>
<path style=" stroke:none;fill-rule:nonzero;fill:rgb(100%,80.000001%,0%);fill-opacity:1;" d="M 11.867188 23.910156 L 11.371094 25.582031 L 12.136719 25.851562 Z M 11.867188 23.910156 "/>
<path style=" stroke:none;fill-rule:nonzero;fill:rgb(100%,80.000001%,0%);fill-opacity:1;" d="M 10.335938 25.125 L 11.945312 25.125 L 11.945312 26.003906 Z M 10.335938 25.125 "/>
<path style=" stroke:none;fill-rule:nonzero;fill:rgb(100%,80.000001%,0%);fill-opacity:1;" d="M 10.335938 25.125 L 11.636719 26.15625 L 12.113281 25.445312 Z M 10.335938 25.125 "/>
<path style=" stroke:none;fill-rule:nonzero;fill:rgb(100%,80.000001%,0%);fill-opacity:1;" d="M 16.9375 28.984375 L 15.328125 28.984375 L 15.328125 29.859375 Z M 16.9375 28.984375 "/>
<path style=" stroke:none;fill-rule:nonzero;fill:rgb(100%,80.000001%,0%);fill-opacity:1;" d="M 16.9375 28.984375 L 15.632812 30.015625 L 15.160156 29.304688 Z M 16.9375 28.984375 "/>
<path style=" stroke:none;fill-rule:nonzero;fill:rgb(100%,80.000001%,0%);fill-opacity:1;" d="M 16.351562 30.949219 L 15.855469 29.277344 L 15.089844 29.546875 Z M 16.351562 30.949219 "/>
<path style=" stroke:none;fill-rule:nonzero;fill:rgb(100%,80.000001%,0%);fill-opacity:1;" d="M 16.351562 30.949219 L 15.050781 29.914062 L 15.523438 29.203125 Z M 16.351562 30.949219 "/>
<path style=" stroke:none;fill-rule:nonzero;fill:rgb(100%,80.000001%,0%);fill-opacity:1;" d="M 14.457031 30.949219 L 15.761719 29.914062 L 15.289062 29.203125 Z M 14.457031 30.949219 "/>
<path style=" stroke:none;fill-rule:nonzero;fill:rgb(100%,80.000001%,0%);fill-opacity:1;" d="M 14.457031 30.949219 L 14.957031 29.277344 L 15.722656 29.546875 Z M 14.457031 30.949219 "/>
<path style=" stroke:none;fill-rule:nonzero;fill:rgb(100%,80.000001%,0%);fill-opacity:1;" d="M 15.40625 27.769531 L 15.902344 29.441406 L 15.136719 29.710938 Z M 15.40625 27.769531 "/>
<path style=" stroke:none;fill-rule:nonzero;fill:rgb(100%,80.000001%,0%);fill-opacity:1;" d="M 15.40625 27.769531 L 14.90625 29.441406 L 15.671875 29.710938 Z M 15.40625 27.769531 "/>
<path style=" stroke:none;fill-rule:nonzero;fill:rgb(100%,80.000001%,0%);fill-opacity:1;" d="M 13.875 28.984375 L 15.484375 28.984375 L 15.484375 29.859375 Z M 13.875 28.984375 "/>
<path style=" stroke:none;fill-rule:nonzero;fill:rgb(100%,80.000001%,0%);fill-opacity:1;" d="M 13.875 28.984375 L 15.175781 30.015625 L 15.648438 29.304688 Z M 13.875 28.984375 "/>
<path style=" stroke:none;fill-rule:nonzero;fill:rgb(100%,80.000001%,0%);fill-opacity:1;" d="M 29.90625 18.636719 L 30.402344 20.308594 L 29.636719 20.582031 Z M 29.90625 18.636719 "/>
<path style=" stroke:none;fill-rule:nonzero;fill:rgb(100%,80.000001%,0%);fill-opacity:1;" d="M 29.90625 18.636719 L 29.40625 20.308594 L 30.171875 20.582031 Z M 29.90625 18.636719 "/>
<path style=" stroke:none;fill-rule:nonzero;fill:rgb(100%,80.000001%,0%);fill-opacity:1;" d="M 28.371094 19.851562 L 29.984375 19.851562 L 29.984375 20.730469 Z M 28.371094 19.851562 "/>
<path style=" stroke:none;fill-rule:nonzero;fill:rgb(100%,80.000001%,0%);fill-opacity:1;" d="M 28.371094 19.851562 L 29.675781 20.882812 L 30.148438 20.171875 Z M 28.371094 19.851562 "/>
<path style=" stroke:none;fill-rule:nonzero;fill:rgb(100%,80.000001%,0%);fill-opacity:1;" d="M 28.957031 21.816406 L 29.457031 20.144531 L 30.222656 20.417969 Z M 28.957031 21.816406 "/>
<path style=" stroke:none;fill-rule:nonzero;fill:rgb(100%,80.000001%,0%);fill-opacity:1;" d="M 28.957031 21.816406 L 30.261719 20.785156 L 29.789062 20.074219 Z M 28.957031 21.816406 "/>
<path style=" stroke:none;fill-rule:nonzero;fill:rgb(100%,80.000001%,0%);fill-opacity:1;" d="M 31.4375 19.851562 L 29.828125 19.851562 L 29.828125 20.730469 Z M 31.4375 19.851562 "/>
<path style=" stroke:none;fill-rule:nonzero;fill:rgb(100%,80.000001%,0%);fill-opacity:1;" d="M 31.4375 19.851562 L 30.132812 20.882812 L 29.660156 20.171875 Z M 31.4375 19.851562 "/>
<path style=" stroke:none;fill-rule:nonzero;fill:rgb(100%,80.000001%,0%);fill-opacity:1;" d="M 30.851562 21.816406 L 30.355469 20.144531 L 29.589844 20.417969 Z M 30.851562 21.816406 "/>
<path style=" stroke:none;fill-rule:nonzero;fill:rgb(100%,80.000001%,0%);fill-opacity:1;" d="M 30.851562 21.816406 L 29.546875 20.785156 L 30.023438 20.074219 Z M 30.851562 21.816406 "/>
<path style=" stroke:none;fill-rule:nonzero;fill:rgb(100%,80.000001%,0%);fill-opacity:1;" d="M 26.019531 12.683594 L 24.714844 11.652344 L 25.1875 10.941406 Z M 26.019531 12.683594 "/>
<path style=" stroke:none;fill-rule:nonzero;fill:rgb(100%,80.000001%,0%);fill-opacity:1;" d="M 26.019531 12.683594 L 25.519531 11.015625 L 24.753906 11.285156 Z M 26.019531 12.683594 "/>
<path style=" stroke:none;fill-rule:nonzero;fill:rgb(100%,80.000001%,0%);fill-opacity:1;" d="M 26.605469 10.71875 L 25.300781 11.753906 L 24.828125 11.042969 Z M 26.605469 10.71875 "/>
<path style=" stroke:none;fill-rule:nonzero;fill:rgb(100%,80.000001%,0%);fill-opacity:1;" d="M 26.605469 10.71875 L 24.992188 10.71875 L 24.992188 11.597656 Z M 26.605469 10.71875 "/>
<path style=" stroke:none;fill-rule:nonzero;fill:rgb(100%,80.000001%,0%);fill-opacity:1;" d="M 25.070312 9.507812 L 25.570312 11.175781 L 24.804688 11.449219 Z M 25.070312 9.507812 "/>
<path style=" stroke:none;fill-rule:nonzero;fill:rgb(100%,80.000001%,0%);fill-opacity:1;" d="M 25.070312 9.507812 L 24.574219 11.175781 L 25.339844 11.449219 Z M 25.070312 9.507812 "/>
<path style=" stroke:none;fill-rule:nonzero;fill:rgb(100%,80.000001%,0%);fill-opacity:1;" d="M 24.125 12.683594 L 25.429688 11.652344 L 24.953125 10.941406 Z M 24.125 12.683594 "/>
<path style=" stroke:none;fill-rule:nonzero;fill:rgb(100%,80.000001%,0%);fill-opacity:1;" d="M 24.125 12.683594 L 24.621094 11.015625 L 25.390625 11.285156 Z M 24.125 12.683594 "/>
<path style=" stroke:none;fill-rule:nonzero;fill:rgb(100%,80.000001%,0%);fill-opacity:1;" d="M 23.539062 10.71875 L 24.84375 11.753906 L 25.316406 11.042969 Z M 23.539062 10.71875 "/>
<path style=" stroke:none;fill-rule:nonzero;fill:rgb(100%,80.000001%,0%);fill-opacity:1;" d="M 23.539062 10.71875 L 25.152344 10.71875 L 25.152344 11.597656 Z M 23.539062 10.71875 "/>
<path style=" stroke:none;fill-rule:nonzero;fill:rgb(100%,80.000001%,0%);fill-opacity:1;" d="M 27.664062 16.542969 L 28.160156 14.875 L 28.925781 15.144531 Z M 27.664062 16.542969 "/>
<path style=" stroke:none;fill-rule:nonzero;fill:rgb(100%,80.000001%,0%);fill-opacity:1;" d="M 27.664062 16.542969 L 28.964844 15.511719 L 28.492188 14.800781 Z M 27.664062 16.542969 "/>
<path style=" stroke:none;fill-rule:nonzero;fill:rgb(100%,80.000001%,0%);fill-opacity:1;" d="M 29.558594 16.542969 L 28.253906 15.511719 L 28.726562 14.800781 Z M 29.558594 16.542969 "/>
<path style=" stroke:none;fill-rule:nonzero;fill:rgb(100%,80.000001%,0%);fill-opacity:1;" d="M 29.558594 16.542969 L 29.058594 14.875 L 28.292969 15.144531 Z M 29.558594 16.542969 "/>
<path style=" stroke:none;fill-rule:nonzero;fill:rgb(100%,80.000001%,0%);fill-opacity:1;" d="M 30.140625 14.578125 L 28.839844 15.613281 L 28.367188 14.902344 Z M 30.140625 14.578125 "/>
<path style=" stroke:none;fill-rule:nonzero;fill:rgb(100%,80.000001%,0%);fill-opacity:1;" d="M 30.140625 14.578125 L 28.53125 14.578125 L 28.53125 15.457031 Z M 30.140625 14.578125 "/>
<path style=" stroke:none;fill-rule:nonzero;fill:rgb(100%,80.000001%,0%);fill-opacity:1;" d="M 27.078125 14.578125 L 28.382812 15.613281 L 28.855469 14.902344 Z M 27.078125 14.578125 "/>
<path style=" stroke:none;fill-rule:nonzero;fill:rgb(100%,80.000001%,0%);fill-opacity:1;" d="M 27.078125 14.578125 L 28.6875 14.578125 L 28.6875 15.457031 Z M 27.078125 14.578125 "/>
<path style=" stroke:none;fill-rule:nonzero;fill:rgb(100%,80.000001%,0%);fill-opacity:1;" d="M 28.609375 13.367188 L 28.113281 15.035156 L 28.878906 15.308594 Z M 28.609375 13.367188 "/>
<path style=" stroke:none;fill-rule:nonzero;fill:rgb(100%,80.000001%,0%);fill-opacity:1;" d="M 28.609375 13.367188 L 29.109375 15.035156 L 28.34375 15.308594 Z M 28.609375 13.367188 "/>
<path style=" stroke:none;fill-rule:nonzero;fill:rgb(100%,80.000001%,0%);fill-opacity:1;" d="M 27.078125 25.125 L 28.6875 25.125 L 28.6875 26.003906 Z M 27.078125 25.125 "/>
<path style=" stroke:none;fill-rule:nonzero;fill:rgb(100%,80.000001%,0%);fill-opacity:1;" d="M 27.078125 25.125 L 28.382812 26.15625 L 28.855469 25.445312 Z M 27.078125 25.125 "/>
<path style=" stroke:none;fill-rule:nonzero;fill:rgb(100%,80.000001%,0%);fill-opacity:1;" d="M 27.664062 27.089844 L 28.160156 25.417969 L 28.925781 25.6875 Z M 27.664062 27.089844 "/>
<path style=" stroke:none;fill-rule:nonzero;fill:rgb(100%,80.000001%,0%);fill-opacity:1;" d="M 27.664062 27.089844 L 28.964844 26.054688 L 28.492188 25.34375 Z M 27.664062 27.089844 "/>
<path style=" stroke:none;fill-rule:nonzero;fill:rgb(100%,80.000001%,0%);fill-opacity:1;" d="M 29.558594 27.089844 L 28.253906 26.054688 L 28.726562 25.34375 Z M 29.558594 27.089844 "/>
<path style=" stroke:none;fill-rule:nonzero;fill:rgb(100%,80.000001%,0%);fill-opacity:1;" d="M 29.558594 27.089844 L 29.058594 25.417969 L 28.292969 25.6875 Z M 29.558594 27.089844 "/>
<path style=" stroke:none;fill-rule:nonzero;fill:rgb(100%,80.000001%,0%);fill-opacity:1;" d="M 28.609375 23.910156 L 28.113281 25.582031 L 28.878906 25.851562 Z M 28.609375 23.910156 "/>
<path style=" stroke:none;fill-rule:nonzero;fill:rgb(100%,80.000001%,0%);fill-opacity:1;" d="M 28.609375 23.910156 L 29.109375 25.582031 L 28.34375 25.851562 Z M 28.609375 23.910156 "/>
<path style=" stroke:none;fill-rule:nonzero;fill:rgb(100%,80.000001%,0%);fill-opacity:1;" d="M 30.140625 25.125 L 28.53125 25.125 L 28.53125 26.003906 Z M 30.140625 25.125 "/>
<path style=" stroke:none;fill-rule:nonzero;fill:rgb(100%,80.000001%,0%);fill-opacity:1;" d="M 30.140625 25.125 L 28.839844 26.15625 L 28.367188 25.445312 Z M 30.140625 25.125 "/>
<path style=" stroke:none;fill-rule:nonzero;fill:rgb(100%,80.000001%,0%);fill-opacity:1;" d="M 23.539062 28.984375 L 25.152344 28.984375 L 25.152344 29.859375 Z M 23.539062 28.984375 "/>
<path style=" stroke:none;fill-rule:nonzero;fill:rgb(100%,80.000001%,0%);fill-opacity:1;" d="M 23.539062 28.984375 L 24.84375 30.015625 L 25.316406 29.304688 Z M 23.539062 28.984375 "/>
<path style=" stroke:none;fill-rule:nonzero;fill:rgb(100%,80.000001%,0%);fill-opacity:1;" d="M 24.125 30.949219 L 24.621094 29.277344 L 25.390625 29.546875 Z M 24.125 30.949219 "/>
<path style=" stroke:none;fill-rule:nonzero;fill:rgb(100%,80.000001%,0%);fill-opacity:1;" d="M 24.125 30.949219 L 25.429688 29.914062 L 24.953125 29.203125 Z M 24.125 30.949219 "/>
<path style=" stroke:none;fill-rule:nonzero;fill:rgb(100%,80.000001%,0%);fill-opacity:1;" d="M 26.019531 30.949219 L 24.714844 29.914062 L 25.1875 29.203125 Z M 26.019531 30.949219 "/>
<path style=" stroke:none;fill-rule:nonzero;fill:rgb(100%,80.000001%,0%);fill-opacity:1;" d="M 26.019531 30.949219 L 25.519531 29.277344 L 24.753906 29.546875 Z M 26.019531 30.949219 "/>
<path style=" stroke:none;fill-rule:nonzero;fill:rgb(100%,80.000001%,0%);fill-opacity:1;" d="M 25.070312 27.769531 L 24.574219 29.441406 L 25.339844 29.710938 Z M 25.070312 27.769531 "/>
<path style=" stroke:none;fill-rule:nonzero;fill:rgb(100%,80.000001%,0%);fill-opacity:1;" d="M 25.070312 27.769531 L 25.570312 29.441406 L 24.804688 29.710938 Z M 25.070312 27.769531 "/>
<path style=" stroke:none;fill-rule:nonzero;fill:rgb(100%,80.000001%,0%);fill-opacity:1;" d="M 26.605469 28.984375 L 24.992188 28.984375 L 24.992188 29.859375 Z M 26.605469 28.984375 "/>
<path style=" stroke:none;fill-rule:nonzero;fill:rgb(100%,80.000001%,0%);fill-opacity:1;" d="M 26.605469 28.984375 L 25.300781 30.015625 L 24.828125 29.304688 Z M 26.605469 28.984375 "/>
</g>
</svg>
