<?xml version="1.0" encoding="UTF-8"?>
<svg xmlns="http://www.w3.org/2000/svg" xmlns:xlink="http://www.w3.org/1999/xlink" width="40px" height="40px" viewBox="0 0 40 40" version="1.1">
<g id="surface1">
<path style=" stroke:none;fill-rule:evenodd;fill:rgb(100%,100%,100%);fill-opacity:1;" d="M -8.25 25.441406 L 11.230469 25.441406 L 11.230469 40 L -8.25 40 Z M -8.25 25.441406 "/>
<path style=" stroke:none;fill-rule:evenodd;fill:rgb(0%,38.431373%,85.490197%);fill-opacity:1;" d="M 11.214844 0 L 22.929688 0 L 22.929688 40 L 11.214844 40 Z M 11.214844 0 "/>
<path style=" stroke:none;fill-rule:evenodd;fill:rgb(0%,38.431373%,85.490197%);fill-opacity:1;" d="M -8.25 14.546875 L 61.878906 14.546875 L 61.878906 25.453125 L -8.25 25.453125 Z M -8.25 14.546875 "/>
<path style=" stroke:none;fill-rule:evenodd;fill:rgb(100%,100%,100%);fill-opacity:1;" d="M -8.25 0 L 11.230469 0 L 11.230469 14.558594 L -8.25 14.558594 Z M -8.25 0 "/>
<path style=" stroke:none;fill-rule:evenodd;fill:rgb(100%,100%,100%);fill-opacity:1;" d="M 22.917969 25.441406 L 61.878906 25.441406 L 61.878906 40 L 22.917969 40 Z M 22.917969 25.441406 "/>
<path style=" stroke:none;fill-rule:evenodd;fill:rgb(100%,100%,100%);fill-opacity:1;" d="M 22.917969 0 L 61.878906 0 L 61.878906 14.558594 L 22.917969 14.558594 Z M 22.917969 0 "/>
<path style=" stroke:none;fill-rule:evenodd;fill:rgb(100%,100%,100%);fill-opacity:1;" d="M -8.25 25.441406 L 11.230469 25.441406 L 11.230469 40 L -8.25 40 Z M -8.25 25.441406 "/>
<path style=" stroke:none;fill-rule:evenodd;fill:rgb(0%,38.431373%,85.490197%);fill-opacity:1;" d="M 11.214844 0 L 22.929688 0 L 22.929688 40 L 11.214844 40 Z M 11.214844 0 "/>
<path style=" stroke:none;fill-rule:evenodd;fill:rgb(100%,100%,100%);fill-opacity:1;" d="M -8.25 0 L 11.230469 0 L 11.230469 14.558594 L -8.25 14.558594 Z M -8.25 0 "/>
<path style=" stroke:none;fill-rule:evenodd;fill:rgb(100%,100%,100%);fill-opacity:1;" d="M 22.917969 25.441406 L 61.878906 25.441406 L 61.878906 40 L 22.917969 40 Z M 22.917969 25.441406 "/>
<path style=" stroke:none;fill-rule:evenodd;fill:rgb(100%,100%,100%);fill-opacity:1;" d="M 22.917969 0 L 61.878906 0 L 61.878906 14.558594 L 22.917969 14.558594 Z M 22.917969 0 "/>
</g>
</svg>
