<?xml version="1.0" encoding="UTF-8"?>
<svg xmlns="http://www.w3.org/2000/svg" xmlns:xlink="http://www.w3.org/1999/xlink" width="40px" height="40px" viewBox="0 0 40 40" version="1.1">
<g id="surface1">
<rect x="0" y="0" width="40" height="40" style="fill:rgb(40.392157%,69.411767%,100%);fill-opacity:1;stroke:none;"/>
<path style=" stroke:none;fill-rule:evenodd;fill:rgb(0%,0%,70.588237%);fill-opacity:1;" d="M 0 0 L 24.488281 0 L 24.488281 16.21875 L 0 16.21875 Z M 0 0 "/>
<path style=" stroke:none;fill-rule:nonzero;fill:rgb(100%,100%,100%);fill-opacity:1;" d="M 0 0 L 0 1.8125 L 21.753906 16.21875 L 24.488281 16.21875 L 24.488281 14.40625 L 2.738281 0 Z M 24.488281 0 L 24.488281 1.8125 L 2.738281 16.21875 L 0 16.21875 L 0 14.40625 L 21.753906 0 Z M 24.488281 0 "/>
<path style=" stroke:none;fill-rule:nonzero;fill:rgb(100%,100%,100%);fill-opacity:1;" d="M 10.203125 0 L 10.203125 16.21875 L 14.285156 16.21875 L 14.285156 0 Z M 0 5.40625 L 0 10.8125 L 24.488281 10.8125 L 24.488281 5.40625 Z M 0 5.40625 "/>
<path style=" stroke:none;fill-rule:nonzero;fill:rgb(80.000001%,0%,0%);fill-opacity:1;" d="M 0 6.488281 L 0 9.730469 L 24.488281 9.730469 L 24.488281 6.488281 Z M 11.019531 0 L 11.019531 16.21875 L 13.46875 16.21875 L 13.46875 0 Z M 11.019531 0 "/>
<path style=" stroke:none;fill-rule:nonzero;fill:rgb(80.000001%,0%,0%);fill-opacity:1;" d="M 0 16.21875 L 8.164062 10.8125 L 9.988281 10.8125 L 1.824219 16.21875 Z M 0 0 L 8.164062 5.40625 L 6.339844 5.40625 L 0 1.207031 Z M 14.5 5.40625 L 22.664062 0 L 24.488281 0 L 16.328125 5.40625 Z M 24.488281 16.21875 L 16.328125 10.8125 L 18.152344 10.8125 L 24.488281 15.011719 Z M 24.488281 16.21875 "/>
<path style=" stroke:none;fill-rule:evenodd;fill:rgb(100%,100%,100%);fill-opacity:1;" d="M 23.703125 18.742188 L 23.703125 28.820312 C 25 35.875 27.273438 36.882812 30.199219 38.898438 C 33.121094 36.882812 35.398438 35.875 36.695312 28.820312 L 36.695312 18.742188 Z M 23.703125 18.742188 "/>
<path style=" stroke:none;fill-rule:evenodd;fill:rgb(85.490197%,0%,0%);fill-opacity:1;" d="M 29.332031 18.742188 L 29.347656 38.328125 L 30.210938 38.894531 L 31.078125 38.3125 L 31.066406 18.742188 Z M 29.332031 18.742188 "/>
<path style=" stroke:none;fill-rule:evenodd;fill:rgb(85.490197%,0%,0%);fill-opacity:1;" d="M 23.703125 28.925781 L 24.351562 31.671875 L 36.082031 31.664062 L 36.695312 28.925781 Z M 23.703125 28.925781 "/>
<path style=" stroke:none;fill-rule:evenodd;fill:rgb(85.490197%,0%,0%);fill-opacity:1;" d="M 23.703125 18.742188 L 36.695312 18.742188 L 36.695312 25.796875 L 23.703125 25.796875 Z M 23.703125 18.742188 "/>
<path style="fill-rule:evenodd;fill:rgb(96.470588%,93.725491%,92.54902%);fill-opacity:1;stroke-width:0.75;stroke-linecap:butt;stroke-linejoin:miter;stroke:rgb(0%,0%,0%);stroke-opacity:1;stroke-miterlimit:4;" d="M 329.277643 -281.670338 C 342.187367 -281.670338 352.471384 -269.09551 352.471384 -253.655532 C 352.471384 -238.215553 342.187367 -225.640726 329.277643 -225.640726 C 316.586728 -225.640726 306.083901 -238.215553 306.083901 -253.655532 C 306.083901 -269.09551 316.586728 -281.670338 329.277643 -281.670338 Z M 329.277643 -281.670338 " transform="matrix(0.0178523,0,0,0.0245406,18.531781,28.92017)"/>
<path style="fill-rule:evenodd;fill:rgb(100%,100%,0%);fill-opacity:1;stroke-width:0.875;stroke-linecap:butt;stroke-linejoin:miter;stroke:rgb(0%,0%,0%);stroke-opacity:1;stroke-miterlimit:4;" d="M 850.322789 -296.659104 C 850.322789 -296.659104 898.075391 -300.08085 914.739059 -319.242624 C 931.402727 -338.176281 903.298332 -372.849968 921.205557 -376.271713 C 928.41819 -376.956062 938.61536 -374.674898 946.325415 -365.094011 C 945.081858 -372.165619 940.35634 -376.271713 938.61536 -380.605924 C 931.90015 -386.536949 925.433652 -385.8526 915.982616 -385.8526 C 909.267407 -384.712018 908.272561 -386.993182 897.329256 -399.539581 C 892.106316 -405.470607 892.106316 -420.526286 896.334411 -430.563406 C 883.650126 -420.982519 886.13724 -407.979887 887.380798 -405.014374 C 890.365335 -391.783625 893.349873 -388.36188 893.349873 -382.430855 C 889.619201 -384.027669 883.152703 -399.539581 849.327944 -402.048861 C 815.254473 -404.330025 729.449017 -378.096644 690.89874 -378.096644 C 652.099751 -378.096644 596.139671 -394.292905 596.139671 -394.292905 C 596.139671 -394.292905 610.316225 -405.470607 593.155134 -410.26105 C 575.745331 -415.051494 537.692477 -393.608556 526.997884 -405.470607 C 519.287828 -416.876424 522.272366 -414.595261 521.028808 -419.841937 C 518.044271 -418.017006 516.303291 -410.945399 520.531385 -401.364512 C 524.75948 -391.783625 526.997884 -394.749138 526.500461 -394.749138 C 525.754326 -394.749138 512.82133 -394.749138 511.577773 -389.958694 C 510.334215 -386.536949 508.593235 -382.430855 515.059733 -369.200106 C 517.546848 -382.430855 508.593235 -384.027669 528.241441 -385.396367 C 547.889647 -386.536949 561.568777 -377.640411 578.232446 -374.674898 C 594.896114 -371.709386 594.896114 -381.746505 595.393537 -381.062156 C 596.139671 -380.605924 646.628099 -366.918942 693.137143 -369.884455 C 739.646187 -372.849968 814.75705 -398.399 849.079232 -393.152323 C 883.650126 -387.677531 906.282869 -362.584732 907.029004 -339.54498 C 906.282869 -325.173649 891.360181 -318.102042 879.670742 -315.592762 C 865.245477 -313.311598 831.918141 -309.661737 831.918141 -309.661737 Z M 850.322789 -296.659104 " transform="matrix(0.015706,0,0,0.0171239,20.562841,26.720597)"/>
<path style="fill-rule:evenodd;fill:rgb(100%,100%,0%);fill-opacity:1;stroke-width:0.5;stroke-linecap:butt;stroke-linejoin:miter;stroke:rgb(0%,0%,0%);stroke-opacity:1;stroke-miterlimit:4;" d="M 683.075161 -248.96929 C 682.563111 -248.96929 650.30401 -248.33259 640.831099 -234.643537 C 631.358188 -220.954484 627.005769 -207.902131 627.773843 -207.902131 C 628.285892 -207.902131 649.023886 -219.203559 649.023886 -219.203559 C 649.023886 -219.203559 633.662409 -196.441529 641.855197 -176.226299 C 650.30401 -156.01107 619.83708 -157.28447 602.427406 -156.64777 C 594.746667 -162.537246 569.912279 -172.724449 561.207442 -174.475374 C 555.574901 -176.544649 544.821867 -176.862999 533.556784 -164.128997 C 526.900143 -156.32942 543.541744 -171.451048 559.927319 -170.336823 C 561.719492 -168.585898 562.74359 -166.675797 562.999615 -162.537246 C 554.294778 -163.173947 545.333916 -173.361149 534.580882 -152.509219 C 545.333916 -159.672096 546.614039 -159.512921 551.990556 -159.831271 C 559.159245 -160.467971 558.391172 -156.64777 558.135147 -156.64777 C 556.855024 -156.64777 553.782728 -156.01107 549.43031 -151.872519 C 547.126088 -148.848193 540.981497 -142.322017 542.261621 -142.322017 C 543.541744 -142.322017 547.126088 -145.823868 552.502605 -148.848193 C 556.08695 -151.235819 559.41527 -151.235819 569.912279 -148.211493 C 627.773843 -134.52244 658.752822 -144.709643 662.337167 -150.121594 C 664.129339 -152.509219 628.797942 -219.681084 722.246927 -237.667863 C 721.222829 -238.145388 683.075161 -248.33259 683.075161 -248.96929 Z M 683.075161 -248.96929 " transform="matrix(0.0152573,0,0,0.0245406,22.660134,27.984854)"/>
<path style="fill-rule:evenodd;fill:rgb(100%,100%,0%);fill-opacity:1;stroke-width:0.625;stroke-linecap:butt;stroke-linejoin:miter;stroke:rgb(0%,0%,0%);stroke-opacity:1;stroke-miterlimit:4;" d="M 472.816269 -212.588373 C 505.637601 -185.210267 726.634572 -241.717404 754.4233 -261.455108 C 770.615157 -272.756536 798.622694 -281.033638 798.622694 -242.354104 C 805.843387 -268.617985 805.843387 -275.144161 805.843387 -274.507461 C 806.281005 -273.870761 817.00264 -264.479434 826.630231 -232.326077 C 829.037129 -260.818408 822.472862 -277.531787 825.973804 -275.144161 C 828.380702 -277.531787 828.380702 -260.818408 847.417075 -237.578853 C 843.259706 -256.043157 842.165661 -264.479434 842.165661 -264.479434 C 842.165661 -264.479434 877.831509 -229.938452 897.961926 -225.163201 C 918.311152 -220.38795 947.412734 -234.554528 956.383898 -226.277426 C 965.355062 -218.000324 980.890492 -203.037871 980.234066 -191.099743 C 979.577639 -179.320791 946.975116 -189.348818 943.255365 -179.798316 C 939.754423 -170.247814 945.662263 -170.247814 945.662263 -170.247814 C 945.662263 -170.247814 948.725587 -163.244112 951.132485 -157.195461 C 952.882956 -161.334012 949.163205 -170.247814 955.727471 -170.884514 C 960.541266 -170.247814 960.541266 -162.607412 961.85412 -158.468861 C 963.166973 -163.244112 961.635311 -172.635439 966.011489 -172.635439 C 970.606475 -173.749665 971.262902 -165.154213 974.763844 -159.583086 L 974.763844 -172.635439 C 988.548803 -176.933165 1000.364483 -177.41069 1002.333763 -186.324492 C 1004.084234 -195.397469 981.32811 -215.612699 976.076697 -228.665051 C 970.606475 -241.717404 980.234066 -247.129355 970.168857 -254.292232 C 959.88484 -261.455108 921.155668 -242.990804 903.432148 -250.153681 C 885.48982 -257.316558 892.710513 -308.411744 825.317378 -319.713171 C 758.143051 -331.173773 575.875252 -260.181708 543.710347 -257.316558 C 511.545441 -254.292232 472.159843 -267.344585 472.159843 -267.344585 Z M 472.816269 -212.588373 " transform="matrix(0.0178523,0,0,0.0245406,18.531781,28.92017)"/>
<path style="fill-rule:evenodd;fill:rgb(100%,100%,0%);fill-opacity:1;stroke-width:0.5;stroke-linecap:butt;stroke-linejoin:miter;stroke:rgb(0%,0%,0%);stroke-opacity:1;stroke-miterlimit:4;" d="M 420.335344 -263.20542 C 420.335344 -263.20542 391.798936 -300.708787 368.652274 -304.282666 C 345.393123 -307.238477 322.691998 -290.042605 318.010701 -292.42704 C 313.329404 -294.811474 311.452825 -291.832586 308.480473 -286.498959 C 305.485623 -281.041718 309.058354 -277.454243 309.170843 -278.072311 C 310.292201 -278.123653 313.248674 -287.035989 314.460024 -287.581784 C 315.693872 -288.251193 308.515319 -276.91453 315.641814 -275.7453 C 317.987316 -275.190739 319.154114 -284.045651 322.242043 -287.570335 C 322.820367 -287.081964 317.319 -275.184657 320.310319 -274.512564 C 323.324136 -273.964086 326.933045 -286.461213 332.366475 -289.431336 C 340.017038 -294.807539 351.455604 -296.557091 365.683009 -296.522028 C 379.836303 -292.413803 409.12793 -257.837982 412.128955 -258.441202 Z M 420.335344 -263.20542 " transform="matrix(0.0175638,0.00556654,0.00319664,-0.0305874,19.677419,12.828166)"/>
<path style="fill-rule:evenodd;fill:rgb(100%,100%,0%);fill-opacity:1;stroke-width:0.5;stroke-linecap:butt;stroke-linejoin:miter;stroke:rgb(0%,0%,0%);stroke-opacity:1;stroke-miterlimit:4;" d="M 420.3652 -263.23848 C 420.3652 -263.23848 391.920045 -300.74451 368.726304 -304.269512 C 345.313753 -307.230515 322.776439 -290.028501 317.962643 -292.425503 C 313.148848 -294.822505 311.398377 -291.861503 308.553861 -286.503498 C 305.490537 -281.145494 308.991479 -277.479491 308.991479 -278.043492 C 310.304332 -278.043492 313.148848 -287.067499 314.461701 -287.631499 C 315.555745 -288.1955 308.553861 -276.915491 315.555745 -275.78749 C 317.962643 -275.082489 319.275496 -284.106496 322.120012 -287.631499 C 322.776439 -287.067499 317.306217 -275.082489 320.369541 -274.518489 C 323.432865 -273.954488 326.933807 -286.503498 332.185221 -289.464501 C 340.06234 -294.822505 351.440402 -296.514506 365.662979 -296.514506 C 379.885557 -292.425503 409.205947 -257.880475 412.050462 -258.444476 Z M 420.3652 -263.23848 " transform="matrix(0.0178523,0,0,0.0277039,18.73378,29.956789)"/>
<path style="fill-rule:evenodd;fill:rgb(100%,100%,0%);fill-opacity:1;stroke-width:0.5;stroke-linecap:butt;stroke-linejoin:miter;stroke:rgb(0%,0%,0%);stroke-opacity:1;stroke-miterlimit:4;" d="M 417.457622 -267.981285 L 385.949143 -252.541307 L 409.142885 -246.492655 L 392.51341 -227.550826 L 416.363578 -235.191228 L 414.394298 -209.564047 L 428.179257 -226.277426 L 437.150421 -203.037871 L 446.559203 -220.38795 L 457.937265 -201.286945 L 462.751061 -219.751249 L 476.317211 -201.286945 L 481.131007 -226.277426 L 497.760482 -210.837448 L 495.572393 -236.942153 L 515.70281 -230.415977 L 503.230704 -250.631206 C 503.230704 -250.631206 525.330401 -251.904606 524.017547 -251.904606 C 522.923503 -251.904606 507.388072 -264.956959 493.603113 -268.617985 Z M 417.457622 -267.981285 " transform="matrix(0.0178523,0,0,0.0245406,18.531781,28.92017)"/>
<path style="fill-rule:evenodd;fill:rgb(100%,100%,0%);fill-opacity:1;stroke-width:0.80806;stroke-linecap:butt;stroke-linejoin:miter;stroke:rgb(0%,0%,0%);stroke-opacity:1;stroke-miterlimit:4;" d="M 417.355375 -268.050579 L 385.78641 -252.593145 L 408.963625 -246.410172 L 392.579732 -227.580207 L 416.156554 -235.168402 L 414.558125 -209.593375 L 428.144768 -226.174986 L 436.936126 -203.129357 L 446.526697 -220.273057 L 458.115305 -201.162048 L 462.91059 -219.710968 L 476.497234 -201.162048 L 481.292519 -226.174986 L 497.676412 -210.717552 L 495.27877 -237.135712 L 515.658734 -230.39065 L 503.270913 -250.625836 C 503.270913 -250.625836 525.249306 -252.031057 524.050484 -252.031057 C 522.851663 -252.031057 507.266984 -264.959092 493.680341 -268.612667 Z M 417.355375 -268.050579 " transform="matrix(0.00977523,0,0,0.0138991,22.201507,25.901431)"/>
<path style="fill-rule:evenodd;fill:rgb(100%,100%,0%);fill-opacity:1;stroke-width:0.5;stroke-linecap:butt;stroke-linejoin:miter;stroke:rgb(0%,0%,0%);stroke-opacity:1;stroke-miterlimit:4;" d="M 441.867261 -316.848005 C 441.867261 -316.848005 432.896097 -324.010882 429.395155 -316.848005 C 425.894213 -309.685129 437.053466 -312.709454 437.053466 -311.436054 C 437.053466 -310.321829 429.395155 -301.885552 429.395155 -292.33505 C 429.395155 -282.943723 435.302995 -266.707869 435.302995 -264.479419 C 435.302995 -262.091793 437.709893 -255.406442 446.02463 -253.018816 C 454.339368 -250.631191 457.402692 -260.818393 459.153163 -262.091793 C 460.903634 -263.206019 472.281696 -260.181693 476.439065 -270.368895 C 480.596433 -280.556097 480.596433 -299.020401 480.596433 -299.020401 C 480.596433 -299.020401 487.817126 -293.60845 487.817126 -304.273177 C 487.817126 -315.09708 479.940007 -304.273177 479.940007 -304.273177 C 479.940007 -304.273177 481.25286 -315.574605 462.654105 -320.986556 C 444.274159 -326.398507 442.523688 -315.574605 441.867261 -316.848005 Z M 441.867261 -316.848005 " transform="matrix(0.0178523,0,0,0.0245406,18.553043,28.92017)"/>
<path style="fill-rule:evenodd;fill:rgb(100%,100%,0%);fill-opacity:1;stroke-width:0.54015;stroke-linecap:butt;stroke-linejoin:miter;stroke:rgb(0%,0%,0%);stroke-opacity:1;stroke-miterlimit:4;" d="M 441.453843 -317.356824 C 439.065686 -322.104371 432.284356 -340.613735 432.284356 -340.613735 L 448.536952 -333.686777 C 443.010235 -335.097827 438.388755 -335.824298 438.853285 -335.819061 C 439.550081 -335.811207 445.976074 -326.971892 445.976074 -326.971892 C 452.495379 -327.347988 458.923364 -325.140007 466.997057 -323.475455 C 466.997057 -323.475455 473.526295 -330.707586 472.8295 -330.715441 C 472.132704 -330.723295 469.152962 -331.880843 469.152962 -331.880843 L 484.035803 -338.794017 L 479.293219 -329.51862 L 476.506037 -329.550038 L 470.461182 -322.874426 C 477.153196 -321.562637 480.373144 -320.627173 486.961926 -316.394255 C 492.800317 -317.227609 497.785087 -320.206107 500.887913 -322.531444 C 495.593461 -323.939875 493.310514 -325.089568 493.775044 -325.084332 C 494.47184 -325.076477 515.808467 -323.936795 515.808467 -323.936795 C 515.808467 -323.936795 494.904594 -311.022116 482.656078 -306.327164 C 471.38626 -309.601286 442.783907 -315.543497 441.453843 -317.356824 Z M 441.453843 -317.356824 " transform="matrix(0.0168114,-0.000391766,0.000594108,0.0347544,19.165539,32.300146)"/>
<path style=" stroke:none;fill-rule:evenodd;fill:rgb(0%,0%,0%);fill-opacity:1;" d="M 26.570312 21.570312 C 26.632812 21.609375 26.65625 21.636719 26.625 21.632812 C 26.597656 21.628906 26.523438 21.59375 26.460938 21.554688 C 26.398438 21.515625 26.375 21.484375 26.40625 21.488281 C 26.433594 21.496094 26.507812 21.53125 26.570312 21.570312 Z M 26.570312 21.570312 "/>
<path style=" stroke:none;fill-rule:evenodd;fill:rgb(0%,0%,0%);fill-opacity:1;" d="M 26.886719 21.746094 C 26.949219 21.785156 26.972656 21.8125 26.945312 21.808594 C 26.914062 21.804688 26.839844 21.769531 26.777344 21.730469 C 26.71875 21.6875 26.691406 21.660156 26.722656 21.664062 C 26.753906 21.667969 26.828125 21.707031 26.886719 21.746094 Z M 26.886719 21.746094 "/>
<path style=" stroke:none;fill-rule:evenodd;fill:rgb(0%,0%,0%);fill-opacity:1;" d="M 26.683594 22.230469 C 26.804688 22.285156 26.851562 22.328125 26.792969 22.320312 C 26.734375 22.3125 26.589844 22.261719 26.472656 22.207031 C 26.351562 22.152344 26.304688 22.113281 26.363281 22.117188 C 26.421875 22.125 26.566406 22.175781 26.683594 22.230469 Z M 26.683594 22.230469 "/>
<path style=" stroke:none;fill-rule:evenodd;fill:rgb(0%,0%,0%);fill-opacity:1;" d="M 26.664062 22 C 26.71875 22.027344 26.738281 22.046875 26.714844 22.042969 C 26.6875 22.039062 26.621094 22.015625 26.570312 21.988281 C 26.515625 21.960938 26.496094 21.941406 26.519531 21.941406 C 26.546875 21.945312 26.613281 21.972656 26.664062 22 Z M 26.664062 22 "/>
<path style=" stroke:none;fill-rule:evenodd;fill:rgb(0%,0%,0%);fill-opacity:1;" d="M 26.585938 22.054688 C 26.601562 21.992188 26.617188 21.964844 26.621094 21.992188 C 26.625 22.019531 26.613281 22.09375 26.597656 22.15625 C 26.582031 22.21875 26.566406 22.246094 26.5625 22.21875 C 26.558594 22.191406 26.570312 22.121094 26.585938 22.054688 Z M 26.585938 22.054688 "/>
<path style="fill-rule:evenodd;fill:rgb(100%,45.09804%,0%);fill-opacity:1;stroke-width:0.375;stroke-linecap:butt;stroke-linejoin:miter;stroke:rgb(0%,0%,0%);stroke-opacity:1;stroke-miterlimit:4;" d="M 737.071515 319.500264 C 738.686346 324.242245 737.878931 319.500264 736.102617 326.857309 C 737.179171 324.660655 738.740174 323.405425 739.386106 323.405425 C 740.301177 323.405425 740.785627 323.405425 742.669596 324.800126 C 740.94711 322.324532 737.986586 322.952147 738.148069 319.186456 C 737.986586 318.314769 737.125343 319.256191 737.071515 319.500264 Z M 737.071515 319.500264 " transform="matrix(0.0725695,0,0,0.112031,-26.05533,-0.774475)"/>
<path style="fill-rule:evenodd;fill:rgb(69.803923%,50.196081%,18.039216%);fill-opacity:1;stroke-width:0.10288;stroke-linecap:butt;stroke-linejoin:miter;stroke:rgb(0%,0%,0%);stroke-opacity:1;stroke-miterlimit:4;" d="M 709.473571 717.585541 C 709.887814 717.581268 710.179115 717.801426 710.176868 718.096598 L 710.138175 735.122071 C 710.14636 735.373944 709.871428 735.657531 709.467618 735.618503 C 709.124155 735.614846 708.822421 735.437989 708.824668 735.142817 L 708.803014 718.081972 C 708.794829 717.8301 709.130108 717.581884 709.473571 717.585541 Z M 709.473571 717.585541 " transform="matrix(0.0567201,-0.046334,0.0136656,0.07905,-23.946095,8.979676)"/>
<path style="fill-rule:evenodd;fill:rgb(100%,100%,100%);fill-opacity:1;stroke-width:0.375;stroke-linecap:butt;stroke-linejoin:miter;stroke:rgb(0%,0%,0%);stroke-opacity:1;stroke-miterlimit:4;" d="M 734.067471 312.149697 C 734.847474 311.703957 740.591128 301.055743 768.103943 302.640593 C 752.503894 307.939937 742.789317 319.182471 740.44931 319.677737 C 738.747486 320.123476 734.989293 313.883127 734.067471 312.149697 Z M 734.067471 312.149697 " transform="matrix(0.055088,0,0,0.0788718,-13.356253,9.294257)"/>
<path style="fill-rule:evenodd;fill:rgb(0%,45.882353%,0%);fill-opacity:1;stroke-width:0.33302;stroke-linecap:butt;stroke-linejoin:miter;stroke:rgb(0%,0%,0%);stroke-opacity:1;stroke-miterlimit:4;" d="M -3819.426229 -4447.255782 L -3826.762181 -4449.893288 L -3811.69509 -4438.56793 L -3814.368169 -4443.662416 Z M -3819.426229 -4447.255782 " transform="matrix(-0.035486,-0.084493,0.0216865,0.0765374,-12.863891,50.494865)"/>
<path style="fill-rule:evenodd;fill:rgb(0%,45.882353%,0%);fill-opacity:1;stroke-width:0.33302;stroke-linecap:butt;stroke-linejoin:miter;stroke:rgb(0%,0%,0%);stroke-opacity:1;stroke-miterlimit:4;" d="M -3819.308738 -4447.066336 L -3824.664551 -4446.870238 L -3811.872827 -4439.203808 L -3814.438456 -4443.714101 Z M -3819.308738 -4447.066336 " transform="matrix(0.00509447,-0.0545791,-0.0202194,0.0431717,-44.295708,16.31838)"/>
<path style="fill-rule:evenodd;fill:rgb(0%,45.882353%,0%);fill-opacity:1;stroke-width:0.33302;stroke-linecap:butt;stroke-linejoin:miter;stroke:rgb(0%,0%,0%);stroke-opacity:1;stroke-miterlimit:4;" d="M -3819.871256 -4447.573074 L -3815.206295 -4440.167835 L -3810.768005 -4438.873442 L -3814.388274 -4443.857958 Z M -3819.871256 -4447.573074 " transform="matrix(-0.0940281,-0.0380223,0.105126,0.0519097,134.601746,118.292049)"/>
<path style="fill-rule:evenodd;fill:rgb(0%,45.882353%,0%);fill-opacity:1;stroke-width:0.33302;stroke-linecap:butt;stroke-linejoin:miter;stroke:rgb(0%,0%,0%);stroke-opacity:1;stroke-miterlimit:4;" d="M -3821.678061 -4448.593794 L -3804.24978 -4426.265343 L -3811.00051 -4438.789371 L -3814.335778 -4443.841204 Z M -3821.678061 -4448.593794 " transform="matrix(-0.0379679,0.0254144,0.0529032,-0.0121395,116.376575,75.677037)"/>
<path style="fill-rule:evenodd;fill:rgb(0%,45.882353%,0%);fill-opacity:1;stroke-width:0.33302;stroke-linecap:butt;stroke-linejoin:miter;stroke:rgb(0%,0%,0%);stroke-opacity:1;stroke-miterlimit:4;" d="M -3822.416709 -4450.059453 L -3834.864756 -4456.542324 L -3810.73588 -4437.838455 L -3814.431747 -4443.841164 Z M -3822.416709 -4450.059453 " transform="matrix(0.0678466,0.00554294,-0.0814688,-0.0196815,-77.085661,-33.63854)"/>
<path style="fill-rule:evenodd;fill:rgb(0%,45.882353%,0%);fill-opacity:1;stroke-width:0.33302;stroke-linecap:butt;stroke-linejoin:miter;stroke:rgb(0%,0%,0%);stroke-opacity:1;stroke-miterlimit:4;" d="M -3823.663183 -4450.341065 L -3828.59021 -4451.302494 L -3811.076848 -4438.229341 L -3814.589428 -4443.996715 Z M -3823.663183 -4450.341065 " transform="matrix(0.103774,0.0524871,-0.113323,-0.065832,-81.59276,-59.64901)"/>
<path style="fill-rule:evenodd;fill:rgb(0%,45.882353%,0%);fill-opacity:1;stroke-width:0.33302;stroke-linecap:butt;stroke-linejoin:miter;stroke:rgb(0%,0%,0%);stroke-opacity:1;stroke-miterlimit:4;" d="M -3825.016862 -4452.000703 L -3838.066397 -4461.405514 L -3813.965351 -4440.682586 L -3814.300301 -4443.628844 Z M -3825.016862 -4452.000703 " transform="matrix(0.121212,0.099781,-0.122499,-0.10813,-55.861637,-67.21379)"/>
<path style="fill-rule:evenodd;fill:rgb(0%,45.882353%,0%);fill-opacity:1;stroke-width:0.33302;stroke-linecap:butt;stroke-linejoin:miter;stroke:rgb(0%,0%,0%);stroke-opacity:1;stroke-miterlimit:4;" d="M -3822.07835 -4449.189264 L -3811.536869 -4434.837039 L -3810.060174 -4437.66645 L -3814.672565 -4444.08057 Z M -3822.07835 -4449.189264 " transform="matrix(0.0949219,0.112428,-0.0871376,-0.112516,0.986512,-38.467371)"/>
<path style="fill-rule:evenodd;fill:rgb(0%,45.882353%,0%);fill-opacity:1;stroke-width:0.33302;stroke-linecap:butt;stroke-linejoin:miter;stroke:rgb(0%,0%,0%);stroke-opacity:1;stroke-miterlimit:4;" d="M -3819.970134 -4446.74689 L -3804.509015 -4427.641555 L -3807.997802 -4435.52707 L -3814.567992 -4443.882672 Z M -3819.970134 -4446.74689 " transform="matrix(0.0637054,0.10087,-0.0519629,-0.0961466,38.220303,-9.815354)"/>
<path style="fill-rule:evenodd;fill:rgb(0%,45.882353%,0%);fill-opacity:1;stroke-width:0.33302;stroke-linecap:butt;stroke-linejoin:miter;stroke:rgb(0%,0%,0%);stroke-opacity:1;stroke-miterlimit:4;" d="M -3821.080177 -4448.821714 L -3808.867467 -4431.683315 L -3808.871987 -4436.794178 L -3814.554701 -4443.906334 Z M -3821.080177 -4448.821714 " transform="matrix(0.0132241,0.0689195,0.00151691,-0.0589123,83.310211,33.752686)"/>
<path style="fill-rule:evenodd;fill:rgb(0%,45.882353%,0%);fill-opacity:1;stroke-width:0.33302;stroke-linecap:butt;stroke-linejoin:miter;stroke:rgb(0%,0%,0%);stroke-opacity:1;stroke-miterlimit:4;" d="M -3818.951033 -4446.945439 L -3816.987029 -4442.699945 L -3812.916655 -4440.760541 L -3814.684226 -4444.097744 Z M -3818.951033 -4446.945439 " transform="matrix(-0.078771,-0.107602,0.0686434,0.104983,30.696688,88.760274)"/>
<path style="fill-rule:evenodd;fill:rgb(0%,45.882353%,0%);fill-opacity:1;stroke-width:0.33302;stroke-linecap:butt;stroke-linejoin:miter;stroke:rgb(0%,0%,0%);stroke-opacity:1;stroke-miterlimit:4;" d="M -3819.481482 -4447.319026 L -3819.461895 -4441.504377 L -3812.706144 -4440.00581 L -3814.551127 -4443.87468 Z M -3819.481482 -4447.319026 " transform="matrix(-0.0347304,-0.0587826,0.0236298,0.0512544,-1.382985,36.16385)"/>
<path style="fill-rule:evenodd;fill:rgb(0%,45.882353%,0%);fill-opacity:1;stroke-width:0.33302;stroke-linecap:butt;stroke-linejoin:miter;stroke:rgb(0%,0%,0%);stroke-opacity:1;stroke-miterlimit:4;" d="M -3819.330221 -4447.111269 L -3819.234815 -4441.252285 L -3812.876367 -4440.181607 L -3814.341276 -4443.687448 Z M -3819.330221 -4447.111269 " transform="matrix(-0.0584071,-0.0225398,0.0622885,0.0317025,80.092068,87.538062)"/>
<path style="fill-rule:evenodd;fill:rgb(0%,45.882353%,0%);fill-opacity:1;stroke-width:0.33302;stroke-linecap:butt;stroke-linejoin:miter;stroke:rgb(0%,0%,0%);stroke-opacity:1;stroke-miterlimit:4;" d="M -3819.082836 -4446.903785 L -3819.194892 -4441.2519 L -3812.656576 -4439.944383 L -3814.108549 -4443.518769 Z M -3819.082836 -4446.903785 " transform="matrix(0.0490541,0.0111333,-0.0570833,-0.0198224,-40.443667,-12.968945)"/>
<path style="fill-rule:evenodd;fill:rgb(0%,45.882353%,0%);fill-opacity:1;stroke-width:0.33302;stroke-linecap:butt;stroke-linejoin:miter;stroke:rgb(0%,0%,0%);stroke-opacity:1;stroke-miterlimit:4;" d="M -3819.364257 -4447.213597 L -3803.856545 -4428.391257 L -3813.899458 -4441.959704 L -3814.318565 -4443.624936 Z M -3819.364257 -4447.213597 " transform="matrix(0.0172659,0.0501385,-0.00903704,-0.0454597,51.805866,21.890574)"/>
<path style="fill-rule:evenodd;fill:rgb(0%,45.882353%,0%);fill-opacity:1;stroke-width:0.33302;stroke-linecap:butt;stroke-linejoin:miter;stroke:rgb(0%,0%,0%);stroke-opacity:1;stroke-miterlimit:4;" d="M -3819.098707 -4446.900295 L -3808.070136 -4433.642998 L -3812.936063 -4440.239165 L -3814.617932 -4443.945751 Z M -3819.098707 -4446.900295 " transform="matrix(0.113995,0.111237,-0.110742,-0.115814,-31.202041,-57.707279)"/>
<path style="fill-rule:evenodd;fill:rgb(0%,45.882353%,0%);fill-opacity:1;stroke-width:0.33302;stroke-linecap:butt;stroke-linejoin:miter;stroke:rgb(0%,0%,0%);stroke-opacity:1;stroke-miterlimit:4;" d="M -3819.406799 -4447.20185 L -3833.822032 -4459.788977 L -3815.53988 -4442.980757 L -3814.372687 -4443.711815 Z M -3819.406799 -4447.20185 " transform="matrix(0.101087,0.0482922,-0.111114,-0.061823,-82.09468,-57.894324)"/>
<path style="fill-rule:evenodd;fill:rgb(0%,45.882353%,0%);fill-opacity:1;stroke-width:0.33302;stroke-linecap:butt;stroke-linejoin:miter;stroke:rgb(0%,0%,0%);stroke-opacity:1;stroke-miterlimit:4;" d="M -3819.407417 -4447.236539 L -3819.465185 -4441.534298 L -3812.578694 -4439.906719 L -3814.627946 -4443.996773 Z M -3819.407417 -4447.236539 " transform="matrix(-0.0252183,-0.059162,0.0155004,0.0535186,-1.189776,44.823683)"/>
<path style="fill-rule:evenodd;fill:rgb(100%,100%,100%);fill-opacity:1;stroke-width:0.375;stroke-linecap:butt;stroke-linejoin:miter;stroke:rgb(0%,0%,0%);stroke-opacity:1;stroke-miterlimit:4;" d="M 759.382392 304.993951 C 756.15273 306.074844 754.537899 306.597856 752.923068 306.807061 C 753.784311 307.155737 755.614453 306.946531 757.713733 307.504412 C 755.829764 307.539279 752.384791 308.968847 750.931443 309.003715 C 751.900342 309.63133 755.506797 309.038582 756.15273 309.21292 C 754.214933 309.317522 751.146754 310.781958 749.262784 310.781958 C 748.347714 311.479308 753.676656 310.32868 755.829764 311.618778 C 753.622828 311.479308 749.316612 312.769406 747.002021 312.455598 C 748.778335 313.501624 751.954169 312.350996 754.591727 313.466756 C 753.838139 313.571359 747.701781 314.233841 745.494846 313.920034 C 746.78671 314.582516 750.716132 314.477914 751.685031 315.035794 C 750.0702 314.826589 745.763984 315.733144 744.256809 315.384469 C 745.602501 316.360759 749.693406 315.802879 750.393166 316.395627 C 747.755609 317.302182 743.718532 316.569964 741.88839 316.814037 C 743.126427 317.406785 744.149153 317.999532 745.225707 318.522545 C 746.840538 319.673173 751.846514 322.811249 754.860865 323.787539 C 751.523548 323.334262 750.393166 323.299394 748.240058 323.125057 L 753.138379 328.285448 C 751.092926 327.169688 747.48647 325.112505 745.118052 324.031612 C 739.842937 321.451416 736.074999 321.904694 732.414715 319.742908 C 727.301084 314.756854 724.448216 308.829377 724.179078 307.260339 C 723.963767 305.691301 723.694628 302.867033 719.065446 304.331468 C 723.533145 303.73872 725.470942 298.543461 725.793909 298.752666 C 725.955392 298.822401 726.386013 302.239417 727.462567 303.59925 C 728.162327 304.575541 734.137202 307.957689 735.159928 308.132027 C 744.095326 302.797298 751.362065 302.169682 759.382392 304.993951 Z M 759.382392 304.993951 " transform="matrix(0.0725695,0,0,0.112031,-25.998639,-0.668846)"/>
<path style="fill-rule:evenodd;fill:rgb(89.411765%,80.000001%,0%);fill-opacity:1;stroke-width:0.25;stroke-linecap:butt;stroke-linejoin:miter;stroke:rgb(0%,0%,0%);stroke-opacity:1;stroke-miterlimit:4;" d="M 803.744411 -352.625949 C 804.519879 -352.643444 805.165353 -350.147454 805.135609 -347.051726 C 805.145936 -343.995634 804.537035 -341.485429 803.761567 -341.467934 C 802.992103 -341.524517 802.380696 -343.986065 802.370369 -347.042157 C 802.400113 -350.137885 802.968943 -352.608454 803.744411 -352.625949 Z M 803.744411 -352.625949 " transform="matrix(0.0492733,0.0567034,-0.0487375,0.0573267,-23.754064,8.979675)"/>
<path style="fill-rule:evenodd;fill:rgb(0%,37.64706%,0%);fill-opacity:1;stroke-width:0.25;stroke-linecap:butt;stroke-linejoin:miter;stroke:rgb(0%,0%,0%);stroke-opacity:1;stroke-miterlimit:4;" d="M 801.312987 335.443639 C 801.143899 334.28096 800.97481 333.699621 801.594802 332.149384 C 802.440247 331.083596 802.891151 330.114697 804.469314 329.000464 C 806.160204 328.419125 806.780196 328.952019 808.978353 326.868888 C 809.711071 325.463985 810.838331 324.446642 811.458324 322.944849 C 812.923761 320.813273 813.374665 319.69904 814.558288 318.051912 C 816.136451 316.307895 817.376436 314.757658 818.278244 313.4012 C 819.236415 311.705628 820.081859 310.63984 821.490934 309.234937 C 822.110927 307.636254 823.294549 306.425131 824.759987 305.068674 C 825.887246 303.033987 828.029039 300.708631 828.930847 299.013059 C 830.565374 297.172152 831.241729 296.348588 832.650804 294.410791 C 833.890789 293.587228 836.032583 291.746321 837.723472 291.164982 C 840.090717 290.147638 841.387066 289.17874 842.908866 290.680533 C 843.9234 291.697876 845.783378 293.345003 844.487029 294.604571 C 843.810674 295.331245 842.739777 295.428135 841.443428 294.846796 C 840.14708 294.023232 839.527087 291.552541 837.723472 293.490338 C 836.483486 294.943685 835.807131 296.106364 834.003515 297.656601 C 833.158071 298.964614 832.481715 299.933512 831.692633 301.822864 C 830.6781 303.033987 829.776292 304.390445 828.930847 306.473576 C 827.803588 307.39403 826.845417 309.234937 826.169061 310.63984 C 825.041802 311.802518 824.25272 312.965196 823.350912 314.806103 C 821.60366 316.45323 820.983667 317.906577 819.630956 318.972366 C 818.785511 320.764828 817.432799 322.508845 816.418266 323.623078 C 815.629184 324.931091 814.783739 326.287549 814.107384 327.789341 C 812.641946 329.291134 812.52922 329.581803 810.387427 331.955604 C 808.583812 334.28096 809.203805 334.038736 806.385656 336.751651 C 804.807492 337.236101 803.285692 337.42988 801.312987 335.443639 Z M 801.312987 335.443639 " transform="matrix(0.0693052,0,0,0.0806328,-24.191442,8.889737)"/>
<path style="fill-rule:evenodd;fill:rgb(89.411765%,80.000001%,0%);fill-opacity:1;stroke-width:0.25;stroke-linecap:butt;stroke-linejoin:miter;stroke:rgb(0%,0%,0%);stroke-opacity:1;stroke-miterlimit:4;" d="M 863.656798 -20.850005 C 864.445032 -20.857294 865.10066 -18.351902 865.083015 -15.258321 C 865.04709 -12.209603 864.423793 -9.706243 863.687756 -9.720221 C 862.899523 -9.712933 862.31437 -12.194727 862.279819 -15.267042 C 862.297465 -18.360623 862.920761 -20.863984 863.656798 -20.850005 Z M 863.656798 -20.850005 " transform="matrix(0.0641823,0.0304247,-0.0261505,0.0746726,-23.754064,8.979675)"/>
<path style="fill-rule:evenodd;fill:rgb(89.411765%,80.000001%,0%);fill-opacity:1;stroke-width:0.25;stroke-linecap:butt;stroke-linejoin:miter;stroke:rgb(0%,0%,0%);stroke-opacity:1;stroke-miterlimit:4;" d="M 864.823397 -48.487974 C 865.630706 -48.476667 866.244841 -45.992276 866.2052 -42.898095 C 866.217037 -39.826869 865.584605 -37.370085 864.848503 -37.360102 C 864.041194 -37.37141 863.42706 -39.855801 863.415223 -42.927027 C 863.454863 -46.021208 864.087295 -48.477992 864.823397 -48.487974 Z M 864.823397 -48.487974 " transform="matrix(0.0632972,0.0328387,-0.0282254,0.0736428,-23.754064,8.979675)"/>
<path style="fill-rule:evenodd;fill:rgb(89.411765%,80.000001%,0%);fill-opacity:1;stroke-width:0.25;stroke-linecap:butt;stroke-linejoin:miter;stroke:rgb(0%,0%,0%);stroke-opacity:1;stroke-miterlimit:4;" d="M 841.857136 -224.529336 C 842.643392 -224.499744 843.256882 -222.014466 843.241818 -218.955529 C 843.255125 -215.857324 842.666389 -213.39993 841.834447 -213.396514 C 841.076563 -213.386838 840.463073 -215.872116 840.478136 -218.931053 C 840.46483 -222.029257 841.099252 -224.51966 841.857136 -224.529336 Z M 841.857136 -224.529336 " transform="matrix(0.0561774,0.0472218,-0.0405872,0.0653593,-23.754064,8.979675)"/>
<path style="fill-rule:evenodd;fill:rgb(89.411765%,80.000001%,0%);fill-opacity:1;stroke-width:0.25;stroke-linecap:butt;stroke-linejoin:miter;stroke:rgb(0%,0%,0%);stroke-opacity:1;stroke-miterlimit:4;" d="M 774.98536 -420.331326 C 775.756855 -420.339857 776.353696 -417.83005 776.364636 -414.782879 C 776.412429 -411.704261 775.760029 -409.223113 774.988534 -409.214582 C 774.217039 -409.206051 773.583613 -411.672982 773.609258 -414.763029 C 773.598318 -417.810201 774.213865 -420.322795 774.98536 -420.331326 Z M 774.98536 -420.331326 " transform="matrix(0.044986,0.0613374,-0.0527205,0.0523388,-23.754064,8.979675)"/>
<path style="fill-rule:evenodd;fill:rgb(89.411765%,80.000001%,0%);fill-opacity:1;stroke-width:0.25;stroke-linecap:butt;stroke-linejoin:miter;stroke:rgb(0%,0%,0%);stroke-opacity:1;stroke-miterlimit:4;" d="M 801.053191 -363.857977 C 801.862885 -363.851935 802.467862 -361.358664 802.445291 -358.296784 C 802.457249 -355.200924 801.847684 -352.716714 801.077524 -352.762928 C 800.302359 -352.734989 799.697382 -355.22826 799.685425 -358.324121 C 799.707996 -361.386001 800.31756 -363.87021 801.053191 -363.857977 Z M 801.053191 -363.857977 " transform="matrix(0.0486121,0.0574702,-0.0493966,0.0565575,-23.754064,8.979675)"/>
<path style="fill-rule:evenodd;fill:rgb(89.411765%,80.000001%,0%);fill-opacity:1;stroke-width:0.25;stroke-linecap:butt;stroke-linejoin:miter;stroke:rgb(0%,0%,0%);stroke-opacity:1;stroke-miterlimit:4;" d="M 845.559981 -224.216335 C 846.317865 -224.226011 846.931355 -221.740733 846.944662 -218.642528 C 846.929599 -215.583592 846.295176 -213.09319 845.537292 -213.083513 C 844.779407 -213.073837 844.137546 -215.598383 844.15261 -218.65732 C 844.167674 -221.716257 844.773726 -224.245927 845.559981 -224.216335 Z M 845.559981 -224.216335 " transform="matrix(0.0561774,0.0472218,-0.0405872,0.0653593,-23.754064,8.979675)"/>
<path style="fill-rule:evenodd;fill:rgb(89.411765%,80.000001%,0%);fill-opacity:1;stroke-width:0.25;stroke-linecap:butt;stroke-linejoin:miter;stroke:rgb(0%,0%,0%);stroke-opacity:1;stroke-miterlimit:4;" d="M 843.686449 -224.595924 C 844.444334 -224.6056 845.057824 -222.120322 845.04276 -219.061386 C 845.056067 -215.963181 844.467331 -213.505787 843.709446 -213.496111 C 842.923191 -213.525703 842.264015 -215.977973 842.279078 -219.036909 C 842.265772 -222.135114 842.900194 -224.625516 843.686449 -224.595924 Z M 843.686449 -224.595924 " transform="matrix(0.0561774,0.0472218,-0.0405872,0.0653593,-23.754064,8.979675)"/>
<path style="fill-rule:evenodd;fill:rgb(89.411765%,80.000001%,0%);fill-opacity:1;stroke-width:0.25;stroke-linecap:butt;stroke-linejoin:miter;stroke:rgb(0%,0%,0%);stroke-opacity:1;stroke-miterlimit:4;" d="M 840.16641 -244.581744 C 840.952671 -244.552153 841.566189 -242.066873 841.551154 -239.007933 C 841.56449 -235.909724 840.975774 -233.452326 840.172197 -233.409641 C 839.385936 -233.439232 838.772418 -235.924512 838.787453 -238.983453 C 838.774117 -242.081661 839.40852 -244.572067 840.16641 -244.581744 Z M 840.16641 -244.581744 " transform="matrix(0.056177,0.0472216,-0.0405877,0.0653588,-24.191442,8.889737)"/>
<path style="fill-rule:evenodd;fill:rgb(89.411765%,80.000001%,0%);fill-opacity:1;stroke-width:0.25;stroke-linecap:butt;stroke-linejoin:miter;stroke:rgb(0%,0%,0%);stroke-opacity:1;stroke-miterlimit:4;" d="M 842.235223 -244.701832 C 843.021484 -244.672241 843.635002 -242.186961 843.619967 -239.12802 C 843.633303 -236.029812 842.9989 -233.539406 842.24101 -233.529729 C 841.454749 -233.55932 840.841231 -236.0446 840.856266 -239.10354 C 840.84293 -242.201749 841.477333 -244.692155 842.235223 -244.701832 Z M 842.235223 -244.701832 " transform="matrix(0.056177,0.0472216,-0.0405877,0.0653588,-24.191442,8.889737)"/>
<path style="fill-rule:evenodd;fill:rgb(89.411765%,80.000001%,0%);fill-opacity:1;stroke-width:0.25;stroke-linecap:butt;stroke-linejoin:miter;stroke:rgb(0%,0%,0%);stroke-opacity:1;stroke-miterlimit:4;" d="M 844.41752 -244.664847 C 845.17541 -244.674524 845.788928 -242.189244 845.802264 -239.091035 C 845.787229 -236.032095 845.152826 -233.541689 844.394936 -233.532012 C 843.637046 -233.522335 842.995157 -236.046883 843.010192 -239.105823 C 843.025227 -242.164764 843.631259 -244.694438 844.41752 -244.664847 Z M 844.41752 -244.664847 " transform="matrix(0.056177,0.0472216,-0.0405877,0.0653588,-24.191442,8.889737)"/>
<path style="fill-rule:evenodd;fill:rgb(89.411765%,80.000001%,0%);fill-opacity:1;stroke-width:0.25;stroke-linecap:butt;stroke-linejoin:miter;stroke:rgb(0%,0%,0%);stroke-opacity:1;stroke-miterlimit:4;" d="M 846.69119 -244.693879 C 847.449079 -244.703556 848.062597 -242.218275 848.075934 -239.120067 C 848.060899 -236.061127 847.426495 -233.57072 846.668606 -233.561043 C 845.910716 -233.551366 845.297198 -236.036646 845.283862 -239.134855 C 845.298896 -242.193795 845.9333 -244.684201 846.69119 -244.693879 Z M 846.69119 -244.693879 " transform="matrix(0.056177,0.0472216,-0.0405877,0.0653588,-24.191442,8.889737)"/>
<path style="fill-rule:evenodd;fill:rgb(89.411765%,80.000001%,0%);fill-opacity:1;stroke-width:0.25;stroke-linecap:butt;stroke-linejoin:miter;stroke:rgb(0%,0%,0%);stroke-opacity:1;stroke-miterlimit:4;" d="M 848.542626 -244.53738 C 849.300516 -244.547058 849.914034 -242.061777 849.92737 -238.963569 C 849.912335 -235.904629 849.277932 -233.414222 848.520042 -233.404545 C 847.762152 -233.394868 847.148635 -235.880148 847.135298 -238.978357 C 847.150333 -242.037297 847.784736 -244.527703 848.542626 -244.53738 Z M 848.542626 -244.53738 " transform="matrix(0.056177,0.0472216,-0.0405877,0.0653588,-24.191442,8.889737)"/>
<path style="fill-rule:evenodd;fill:rgb(89.411765%,80.000001%,0%);fill-opacity:1;stroke-width:0.25;stroke-linecap:butt;stroke-linejoin:miter;stroke:rgb(0%,0%,0%);stroke-opacity:1;stroke-miterlimit:4;" d="M 859.219012 -245.736518 C 859.976902 -245.746196 860.59042 -243.260915 860.649442 -240.195715 C 860.634407 -237.136775 860.000004 -234.646369 859.242114 -234.636691 C 858.484224 -234.627014 857.870706 -237.112295 857.811684 -240.177495 L 857.85737 -240.210503 C 857.826719 -243.236435 858.461122 -245.726841 859.219012 -245.736518 Z M 859.219012 -245.736518 " transform="matrix(0.056177,0.0472216,-0.0405877,0.0653588,-24.191442,8.889737)"/>
<path style="fill-rule:evenodd;fill:rgb(89.411765%,80.000001%,0%);fill-opacity:1;stroke-width:0.25;stroke-linecap:butt;stroke-linejoin:miter;stroke:rgb(0%,0%,0%);stroke-opacity:1;stroke-miterlimit:4;" d="M 857.764771 -245.343262 C 858.551032 -245.313671 859.16455 -242.828391 859.149515 -239.769451 C 859.162851 -236.671242 858.528448 -234.180836 857.770558 -234.171159 C 856.984297 -234.20075 856.370779 -236.68603 856.385814 -239.74497 C 856.372478 -242.843179 857.006881 -245.333585 857.764771 -245.343262 Z M 857.764771 -245.343262 " transform="matrix(0.056177,0.0472216,-0.0405877,0.0653588,-24.191442,8.889737)"/>
<path style="fill-rule:evenodd;fill:rgb(89.411765%,80.000001%,0%);fill-opacity:1;stroke-width:0.25;stroke-linecap:butt;stroke-linejoin:miter;stroke:rgb(0%,0%,0%);stroke-opacity:1;stroke-miterlimit:4;" d="M 856.34516 -245.094559 C 857.10305 -245.104236 857.716568 -242.618956 857.729904 -239.520747 C 857.71487 -236.461807 857.080466 -233.971401 856.322576 -233.961724 C 855.564687 -233.952046 854.922798 -236.476595 854.937832 -239.535535 C 854.952867 -242.594476 855.558899 -245.12415 856.34516 -245.094559 Z M 856.34516 -245.094559 " transform="matrix(0.056177,0.0472216,-0.0405877,0.0653588,-24.191442,8.889737)"/>
<path style="fill-rule:evenodd;fill:rgb(89.411765%,80.000001%,0%);fill-opacity:1;stroke-width:0.25;stroke-linecap:butt;stroke-linejoin:miter;stroke:rgb(0%,0%,0%);stroke-opacity:1;stroke-miterlimit:4;" d="M 854.247977 -245.013739 C 855.005867 -245.023417 855.619385 -242.538136 855.60435 -239.479196 C 855.617686 -236.380987 854.983283 -233.890581 854.225393 -233.880904 C 853.439132 -233.910495 852.825614 -236.395775 852.840649 -239.454716 C 852.827313 -242.552924 853.461716 -245.04333 854.247977 -245.013739 Z M 854.247977 -245.013739 " transform="matrix(0.056177,0.0472216,-0.0405877,0.0653588,-24.191442,8.889737)"/>
<path style="fill-rule:evenodd;fill:rgb(89.411765%,80.000001%,0%);fill-opacity:1;stroke-width:0.25;stroke-linecap:butt;stroke-linejoin:miter;stroke:rgb(0%,0%,0%);stroke-opacity:1;stroke-miterlimit:4;" d="M 852.127219 -244.676822 C 852.91348 -244.647231 853.526998 -242.161951 853.557649 -239.136019 C 853.570985 -236.037811 852.936582 -233.547404 852.150321 -233.576995 C 851.392431 -233.567318 850.778913 -236.052599 850.793948 -239.111539 C 850.734926 -242.176739 851.369329 -244.667145 852.127219 -244.676822 Z M 852.127219 -244.676822 " transform="matrix(0.056177,0.0472216,-0.0405877,0.0653588,-24.191442,8.889737)"/>
<path style="fill-rule:evenodd;fill:rgb(89.411765%,80.000001%,0%);fill-opacity:1;stroke-width:0.25;stroke-linecap:butt;stroke-linejoin:miter;stroke:rgb(0%,0%,0%);stroke-opacity:1;stroke-miterlimit:4;" d="M 850.34358 -244.64324 C 851.10147 -244.652917 851.743359 -242.128368 851.728324 -239.069428 C 851.713289 -236.010488 851.152943 -233.513822 850.320996 -233.510404 C 849.563106 -233.500727 848.949588 -235.986008 848.936252 -239.084216 C 848.951287 -242.143156 849.58569 -244.633563 850.34358 -244.64324 Z M 850.34358 -244.64324 " transform="matrix(0.056177,0.0472216,-0.0405877,0.0653588,-24.191442,8.889737)"/>
<path style="fill-rule:evenodd;fill:rgb(89.411765%,80.000001%,0%);fill-opacity:1;stroke-width:0.25;stroke-linecap:butt;stroke-linejoin:miter;stroke:rgb(0%,0%,0%);stroke-opacity:1;stroke-miterlimit:4;" d="M 861.235809 -115.04229 C 861.942476 -115.039782 862.575397 -112.572386 862.580628 -109.488998 C 862.585859 -106.40561 861.950729 -103.911803 861.171422 -103.930024 C 860.41521 -103.90566 859.831834 -106.399927 859.826603 -109.483315 C 859.821371 -112.566703 860.456502 -115.06051 861.235809 -115.04229 Z M 861.235809 -115.04229 " transform="matrix(0.0609221,0.0384425,-0.033042,0.0708795,-23.781221,8.979674)"/>
<path style="fill-rule:evenodd;fill:rgb(89.411765%,80.000001%,0%);fill-opacity:1;stroke-width:0.25;stroke-linecap:butt;stroke-linejoin:miter;stroke:rgb(0%,0%,0%);stroke-opacity:1;stroke-miterlimit:4;" d="M 840.167849 -244.584537 C 840.95411 -244.554946 841.567628 -242.069666 841.552593 -239.010726 C 841.565929 -235.912517 840.931526 -233.422111 840.173636 -233.412434 C 839.387375 -233.442025 838.773857 -235.927305 838.788892 -238.986246 C 838.775556 -242.084454 839.409959 -244.57486 840.167849 -244.584537 Z M 840.167849 -244.584537 " transform="matrix(0.056177,0.0472216,-0.0405877,0.0653588,-24.582261,9.444539)"/>
<path style="fill-rule:evenodd;fill:rgb(89.411765%,80.000001%,0%);fill-opacity:1;stroke-width:0.25;stroke-linecap:butt;stroke-linejoin:miter;stroke:rgb(0%,0%,0%);stroke-opacity:1;stroke-miterlimit:4;" d="M 842.236661 -244.704625 C 843.022922 -244.675034 843.63644 -242.189754 843.621405 -239.130813 C 843.634742 -236.032605 843.000338 -233.542199 842.242448 -233.532522 C 841.456187 -233.562113 840.842669 -236.047393 840.857704 -239.106333 C 840.844368 -242.204542 841.478771 -244.694948 842.236661 -244.704625 Z M 842.236661 -244.704625 " transform="matrix(0.056177,0.0472216,-0.0405877,0.0653588,-24.582261,9.444539)"/>
<path style="fill-rule:evenodd;fill:rgb(89.411765%,80.000001%,0%);fill-opacity:1;stroke-width:0.25;stroke-linecap:butt;stroke-linejoin:miter;stroke:rgb(0%,0%,0%);stroke-opacity:1;stroke-miterlimit:4;" d="M 844.418958 -244.66764 C 845.176848 -244.677317 845.790366 -242.192037 845.803702 -239.093828 C 845.788667 -236.034888 845.154264 -233.544482 844.396374 -233.534805 C 843.638484 -233.525128 842.996595 -236.049676 843.01163 -239.108616 C 843.026665 -242.167557 843.615382 -244.624955 844.418958 -244.66764 Z M 844.418958 -244.66764 " transform="matrix(0.056177,0.0472216,-0.0405877,0.0653588,-24.582261,9.444539)"/>
<path style="fill-rule:evenodd;fill:rgb(89.411765%,80.000001%,0%);fill-opacity:1;stroke-width:0.25;stroke-linecap:butt;stroke-linejoin:miter;stroke:rgb(0%,0%,0%);stroke-opacity:1;stroke-miterlimit:4;" d="M 846.692628 -244.696672 C 847.450518 -244.706349 848.064036 -242.221068 848.077372 -239.12286 C 848.062337 -236.06392 847.427934 -233.573513 846.670044 -233.563836 C 845.912154 -233.554159 845.298636 -236.039439 845.2853 -239.137648 C 845.300335 -242.196588 845.934738 -244.686994 846.692628 -244.696672 Z M 846.692628 -244.696672 " transform="matrix(0.056177,0.0472216,-0.0405877,0.0653588,-24.582261,9.444539)"/>
<path style="fill-rule:evenodd;fill:rgb(89.411765%,80.000001%,0%);fill-opacity:1;stroke-width:0.25;stroke-linecap:butt;stroke-linejoin:miter;stroke:rgb(0%,0%,0%);stroke-opacity:1;stroke-miterlimit:4;" d="M 848.544065 -244.540173 C 849.301955 -244.549851 849.915473 -242.06457 849.928809 -238.966362 C 849.913774 -235.907422 849.279371 -233.417015 848.521481 -233.407338 C 847.763591 -233.397661 847.150073 -235.882941 847.136737 -238.98115 C 847.151772 -242.04009 847.786175 -244.530496 848.544065 -244.540173 Z M 848.544065 -244.540173 " transform="matrix(0.056177,0.0472216,-0.0405877,0.0653588,-24.582261,9.444539)"/>
<path style="fill-rule:evenodd;fill:rgb(89.411765%,80.000001%,0%);fill-opacity:1;stroke-width:0.25;stroke-linecap:butt;stroke-linejoin:miter;stroke:rgb(0%,0%,0%);stroke-opacity:1;stroke-miterlimit:4;" d="M 859.22045 -245.739311 C 859.97834 -245.748989 860.591858 -243.263708 860.605194 -240.1655 C 860.635846 -237.139568 860.001443 -234.649162 859.243553 -234.639484 C 858.485663 -234.629807 857.872145 -237.115088 857.813122 -240.180288 C 857.828157 -243.239228 858.46256 -245.729634 859.22045 -245.739311 Z M 859.22045 -245.739311 " transform="matrix(0.056177,0.0472216,-0.0405877,0.0653588,-24.582261,9.444539)"/>
<path style="fill-rule:evenodd;fill:rgb(89.411765%,80.000001%,0%);fill-opacity:1;stroke-width:0.25;stroke-linecap:butt;stroke-linejoin:miter;stroke:rgb(0%,0%,0%);stroke-opacity:1;stroke-miterlimit:4;" d="M 857.766209 -245.346055 C 858.55247 -245.316464 859.165988 -242.831184 859.150953 -239.772244 C 859.16429 -236.674035 858.529886 -234.183629 857.771997 -234.173952 C 856.985736 -234.203543 856.372218 -236.688823 856.387253 -239.747763 C 856.373916 -242.845972 857.00832 -245.336378 857.766209 -245.346055 Z M 857.766209 -245.346055 " transform="matrix(0.056177,0.0472216,-0.0405877,0.0653588,-24.582261,9.444539)"/>
<path style="fill-rule:evenodd;fill:rgb(89.411765%,80.000001%,0%);fill-opacity:1;stroke-width:0.25;stroke-linecap:butt;stroke-linejoin:miter;stroke:rgb(0%,0%,0%);stroke-opacity:1;stroke-miterlimit:4;" d="M 856.346599 -245.097352 C 857.104489 -245.107029 857.718007 -242.621749 857.731343 -239.52354 C 857.716308 -236.4646 857.081905 -233.974194 856.324015 -233.964517 C 855.566125 -233.954839 854.924236 -236.479388 854.939271 -239.538328 C 854.954306 -242.597268 855.560338 -245.126943 856.346599 -245.097352 Z M 856.346599 -245.097352 " transform="matrix(0.056177,0.0472216,-0.0405877,0.0653588,-24.582261,9.444539)"/>
<path style="fill-rule:evenodd;fill:rgb(89.411765%,80.000001%,0%);fill-opacity:1;stroke-width:0.25;stroke-linecap:butt;stroke-linejoin:miter;stroke:rgb(0%,0%,0%);stroke-opacity:1;stroke-miterlimit:4;" d="M 854.249415 -245.016532 C 855.007305 -245.026209 855.620823 -242.540929 855.605788 -239.481989 L 855.634159 -239.442721 C 855.619124 -236.38378 854.984721 -233.893374 854.226831 -233.883697 C 853.44057 -233.913288 852.827052 -236.398568 852.842087 -239.457509 C 852.828751 -242.555717 853.463154 -245.046123 854.249415 -245.016532 Z M 854.249415 -245.016532 " transform="matrix(0.056177,0.0472216,-0.0405877,0.0653588,-24.582261,9.444539)"/>
<path style="fill-rule:evenodd;fill:rgb(89.411765%,80.000001%,0%);fill-opacity:1;stroke-width:0.25;stroke-linecap:butt;stroke-linejoin:miter;stroke:rgb(0%,0%,0%);stroke-opacity:1;stroke-miterlimit:4;" d="M 852.128657 -244.679615 C 852.914918 -244.650024 853.528436 -242.164744 853.559088 -239.138812 C 853.572424 -236.040604 852.938021 -233.550197 852.15176 -233.579788 C 851.39387 -233.570111 850.780352 -236.055392 850.795387 -239.114332 C 850.736364 -242.179532 851.370767 -244.669938 852.128657 -244.679615 Z M 852.128657 -244.679615 " transform="matrix(0.056177,0.0472216,-0.0405877,0.0653588,-24.582261,9.444539)"/>
<path style="fill-rule:evenodd;fill:rgb(89.411765%,80.000001%,0%);fill-opacity:1;stroke-width:0.25;stroke-linecap:butt;stroke-linejoin:miter;stroke:rgb(0%,0%,0%);stroke-opacity:1;stroke-miterlimit:4;" d="M 850.345019 -244.646033 C 851.102908 -244.65571 851.744798 -242.131161 851.729763 -239.072221 C 851.714728 -236.013281 851.108696 -233.483606 850.322435 -233.513197 C 849.564545 -233.50352 848.951027 -235.988801 848.937691 -239.087009 C 848.952725 -242.145949 849.587129 -244.636356 850.345019 -244.646033 Z M 850.345019 -244.646033 " transform="matrix(0.056177,0.0472216,-0.0405877,0.0653588,-24.582261,9.444539)"/>
<path style="fill-rule:evenodd;fill:rgb(69.803923%,50.196081%,18.039216%);fill-opacity:1;stroke-width:0.1723;stroke-linecap:butt;stroke-linejoin:miter;stroke:rgb(0%,0%,0%);stroke-opacity:1;stroke-miterlimit:4;" d="M 776.312296 -28.109121 C 777.11644 -28.100026 777.768882 -27.812776 777.77945 -27.420061 L 777.733253 -4.587827 C 777.743821 -4.195112 777.09859 -3.918652 776.31173 -3.87702 C 775.507586 -3.886115 774.910355 -4.192176 774.899786 -4.584891 L 774.890774 -27.398313 C 774.880205 -27.791029 775.525436 -28.067488 776.312296 -28.109121 Z M 776.312296 -28.109121 " transform="matrix(0.0633937,0.0235079,-0.0215995,0.0689948,-22.328302,10.846164)"/>
<path style="fill-rule:evenodd;fill:rgb(69.803923%,50.196081%,18.039216%);fill-opacity:1;stroke-width:0.1723;stroke-linecap:butt;stroke-linejoin:miter;stroke:rgb(0%,0%,0%);stroke-opacity:1;stroke-miterlimit:4;" d="M 728.847339 221.72764 C 729.663906 221.72764 730.305495 222.049188 730.305495 222.424327 L 730.305495 245.254217 C 730.305495 245.629356 729.663906 245.950904 728.847339 245.950904 C 728.089098 245.950904 727.447509 245.629356 727.447509 245.254217 L 727.447509 222.424327 C 727.447509 222.049188 728.089098 221.72764 728.847339 221.72764 Z M 728.847339 221.72764 " transform="matrix(0.0669724,0,0,0.0728896,-22.328302,10.846164)"/>
<path style="fill-rule:evenodd;fill:rgb(69.803923%,50.196081%,18.039216%);fill-opacity:1;stroke-width:0.1723;stroke-linecap:butt;stroke-linejoin:miter;stroke:rgb(0%,0%,0%);stroke-opacity:1;stroke-miterlimit:4;" d="M 709.424701 221.29891 C 710.182942 221.29891 710.824531 221.566866 710.824531 221.942005 L 710.824531 244.771896 C 710.824531 245.147035 710.182942 245.468582 709.424701 245.468582 C 708.608133 245.468582 707.966545 245.147035 707.966545 244.771896 L 707.966545 221.942005 C 707.966545 221.566866 708.608133 221.29891 709.424701 221.29891 Z M 709.424701 221.29891 " transform="matrix(0.0669724,0,0,0.0728896,-22.328302,10.846164)"/>
<path style="fill-rule:evenodd;fill:rgb(0%,27.058825%,0%);fill-opacity:1;stroke-width:0.25;stroke-linecap:butt;stroke-linejoin:miter;stroke:rgb(0%,0%,0%);stroke-opacity:1;stroke-miterlimit:4;" d="M 692.691815 226.072399 C 692.964188 221.162448 696.854304 219.654798 703.078464 221.862537 C 703.612009 222.104986 704.026109 221.258832 703.881176 221.169988 C 693.907876 215.902476 689.41183 201.723323 705.440493 204.272029 C 707.851002 204.988141 703.276037 206.414437 699.997513 207.027766 C 695.395477 207.591315 698.278185 213.843034 707.231375 219.669828 C 709.155317 221.187672 713.54312 224.21587 713.54312 224.21587 C 713.54312 224.21587 711.99821 227.076523 711.826998 227.056185 C 711.655786 227.035846 699.622356 222.705467 696.754726 226.447594 C 694.959766 229.493427 697.402926 229.891093 696.847059 234.373416 C 695.790299 238.294844 695.236847 237.870961 694.98363 234.331127 C 695.830946 231.888999 692.667119 228.003412 692.691815 226.072399 Z M 692.691815 226.072399 " transform="matrix(0.0282992,0.0436417,-0.0461648,0.0167414,16.732418,-7.905661)"/>
<path style="fill-rule:evenodd;fill:rgb(0%,27.058825%,0%);fill-opacity:1;stroke-width:0.25;stroke-linecap:butt;stroke-linejoin:miter;stroke:rgb(0%,0%,0%);stroke-opacity:1;stroke-miterlimit:4;" d="M 692.710619 226.094253 C 692.98145 221.175467 696.800969 219.614398 703.100647 221.822077 C 703.595967 222.176701 704.042928 221.258763 703.895299 221.177827 C 693.887595 215.857356 697.697463 201.996645 713.768648 204.577246 C 716.20656 205.332315 715.707165 206.138436 712.334607 206.781567 C 707.874177 207.326704 698.268614 213.856493 707.186408 219.659343 C 709.146307 221.149185 713.551752 224.22898 713.551752 224.22898 C 713.551752 224.22898 711.946665 227.004086 711.851469 227.034967 C 711.68246 227.025379 699.590132 222.638785 696.745469 226.395706 C 694.959663 229.487085 697.83435 232.226078 697.237208 236.799829 C 696.156456 240.693095 695.682517 240.267123 695.451917 236.734832 C 695.475335 236.083111 692.661745 227.978067 692.710619 226.094253 Z M 692.710619 226.094253 " transform="matrix(0.0257802,0.0454525,-0.0470236,0.0136207,18.718883,-8.150928)"/>
<path style="fill-rule:evenodd;fill:rgb(0%,27.058825%,0%);fill-opacity:1;stroke-width:0.25;stroke-linecap:butt;stroke-linejoin:miter;stroke:rgb(0%,0%,0%);stroke-opacity:1;stroke-miterlimit:4;" d="M 692.691857 226.060315 C 693.011286 221.150919 696.836956 219.672271 703.058199 221.84048 C 703.569438 222.160584 704.077954 221.255606 703.927643 221.185479 C 693.900444 215.854629 701.288449 209.266213 715.919849 212.094648 C 717.451751 212.238238 713.7773 214.195374 710.445296 214.843703 C 705.972018 215.4491 698.235538 213.879363 707.197525 219.610705 C 709.183083 221.189759 713.574525 224.299207 713.574525 224.299207 C 713.574525 224.299207 711.958972 227.053739 711.793812 227.058271 C 711.643501 226.988144 699.606491 222.677724 696.731775 226.394961 C 694.966818 229.487727 703.795159 235.891004 703.219657 240.436168 C 702.192314 244.362589 701.635619 243.858103 701.43259 240.336706 C 701.476231 239.704366 692.711245 228.02746 692.691857 226.060315 Z M 692.691857 226.060315 " transform="matrix(0.0223373,0.0475621,-0.0478781,0.00945996,21.358262,-8.307023)"/>
<path style="fill-rule:evenodd;fill:rgb(0%,27.058825%,0%);fill-opacity:1;stroke-width:0.25;stroke-linecap:butt;stroke-linejoin:miter;stroke:rgb(0%,0%,0%);stroke-opacity:1;stroke-miterlimit:4;" d="M 692.669533 226.052496 C 692.983314 221.156891 696.82295 219.640887 703.070536 221.827692 C 703.57643 222.142171 704.025452 221.233476 703.880911 221.143625 C 693.900644 215.872873 693.713256 204.726622 709.785894 207.336409 C 712.196206 208.071135 707.670763 209.500197 704.352419 210.152432 C 699.833913 210.652519 698.298471 213.855413 707.251551 219.675456 C 709.194393 221.137719 713.54061 224.263682 713.54061 224.263682 C 713.54061 224.263682 711.995181 227.036147 711.823729 227.014412 C 711.652277 226.992677 699.59919 222.639348 696.739018 226.461104 C 694.941404 229.41618 695.032124 229.642263 694.437723 234.108893 C 693.345891 238.011771 692.794638 237.58425 692.570202 234.05096 C 692.713218 233.461109 692.701019 228.023488 692.669533 226.052496 Z M 692.669533 226.052496 " transform="matrix(0.02862,0.0433934,-0.0460402,0.0171436,15.188769,-7.850611)"/>
<path style="fill-rule:evenodd;fill:rgb(0%,27.058825%,0%);fill-opacity:1;stroke-width:0.25;stroke-linecap:butt;stroke-linejoin:miter;stroke:rgb(0%,0%,0%);stroke-opacity:1;stroke-miterlimit:4;" d="M 692.697639 226.035621 C 692.987928 221.20214 696.829492 219.677109 703.074194 221.820547 C 703.589772 222.107489 704.045417 221.195566 703.876085 221.184576 C 693.866728 215.863684 693.68044 204.77092 709.738816 207.297807 C 712.176258 208.071594 707.67939 209.481672 704.293471 210.09478 C 699.795882 210.67195 698.274778 213.904672 707.209653 219.626575 C 709.161844 221.129307 713.552197 224.238736 713.552197 224.238736 C 713.552197 224.238736 711.993906 227.034507 711.824574 227.023517 C 711.655242 227.012527 699.622203 222.646635 696.717559 226.441367 C 694.923864 229.439129 695.049148 229.592105 694.412613 234.149634 C 693.37062 238.065256 692.825437 237.595336 692.623615 234.069736 C 692.652499 233.419807 692.684639 228.026401 692.697639 226.035621 Z M 692.697639 226.035621 " transform="matrix(0.0261139,0.0452266,-0.0469216,0.0140305,17.173163,-8.113015)"/>
<path style="fill-rule:evenodd;fill:rgb(0%,27.058825%,0%);fill-opacity:1;stroke-width:0.25;stroke-linecap:butt;stroke-linejoin:miter;stroke:rgb(0%,0%,0%);stroke-opacity:1;stroke-miterlimit:4;" d="M 692.676406 226.06783 C 692.962365 221.137587 696.824932 219.620569 703.042947 221.836052 C 703.643289 222.120955 704.06999 221.261237 703.919904 221.190012 C 693.897668 215.86183 693.739635 204.756135 709.784576 207.304581 C 712.172925 208.111177 707.679004 209.491993 704.333686 210.110555 C 699.844736 210.676641 698.274999 213.853722 707.210655 219.646756 C 709.203314 221.164367 713.579351 224.303304 713.579351 224.303304 C 713.579351 224.303304 711.937056 227.037407 711.846507 227.076145 C 711.680916 227.079269 699.651112 222.677666 696.72315 226.435811 C 694.943791 229.431703 694.987822 229.616017 694.373166 234.145144 C 693.38578 238.088843 692.831955 237.580889 692.582675 234.030817 C 692.706719 233.436013 692.679487 228.030304 692.676406 226.06783 Z M 692.676406 226.06783 " transform="matrix(0.0226876,0.0473659,-0.0478069,0.009878,19.811208,-8.292322)"/>
<path style="fill-rule:evenodd;fill:rgb(0%,27.058825%,0%);fill-opacity:1;stroke-width:0.25;stroke-linecap:butt;stroke-linejoin:miter;stroke:rgb(0%,0%,0%);stroke-opacity:1;stroke-miterlimit:4;" d="M 692.704416 226.059176 C 692.96485 221.150611 696.796666 219.609907 703.072052 221.856933 C 703.610501 222.162103 704.043223 221.234412 703.890499 221.193405 C 693.898839 215.860807 689.383745 201.720488 705.453054 204.268528 C 707.898595 205.005453 703.305117 206.421949 699.982386 207.055464 C 695.443736 207.6034 698.249527 213.817034 707.191696 219.670828 C 709.2006 221.173796 713.523854 224.261746 713.523854 224.261746 C 713.523854 224.261746 711.99856 227.064135 711.845836 227.023129 C 711.695069 227.062947 699.602469 222.691914 696.733981 226.418428 C 694.911069 229.4621 697.425142 229.896233 696.851429 234.39949 C 695.807798 238.294784 695.267391 237.908791 695.028529 234.311533 C 695.803908 231.86988 692.676995 228.05927 692.704416 226.059176 Z M 692.704416 226.059176 " transform="matrix(0.0130616,0.0514892,-0.0486468,-0.00124714,29.253883,-9.490365)"/>
<path style="fill-rule:evenodd;fill:rgb(0%,27.058825%,0%);fill-opacity:1;stroke-width:0.25;stroke-linecap:butt;stroke-linejoin:miter;stroke:rgb(0%,0%,0%);stroke-opacity:1;stroke-miterlimit:4;" d="M 692.660126 226.070408 C 692.983249 221.142774 696.819158 219.688212 703.054495 221.796413 C 703.608438 222.15383 704.049361 221.19857 703.897146 221.166773 C 693.872849 215.850074 697.686448 201.983585 713.750581 204.533646 C 716.207209 205.288525 715.683115 206.145844 712.371301 206.743087 C 707.86296 207.332081 698.261107 213.866362 707.207367 219.682964 C 709.20188 221.146975 713.578508 224.236534 713.578508 224.236534 C 713.578508 224.236534 711.951308 227.038719 711.799093 227.006922 C 711.653942 227.057167 699.618721 222.690028 696.727544 226.436674 C 694.96932 229.453189 697.8238 232.224777 697.244099 236.776547 C 696.158308 240.65863 695.673409 240.23507 695.445776 236.723152 C 695.541481 236.098611 692.67744 228.007625 692.660126 226.070408 Z M 692.660126 226.070408 " transform="matrix(0.0101282,0.0522655,-0.0484847,-0.00449999,31.199432,-8.989614)"/>
<path style="fill-rule:evenodd;fill:rgb(0%,27.058825%,0%);fill-opacity:1;stroke-width:0.25;stroke-linecap:butt;stroke-linejoin:miter;stroke:rgb(0%,0%,0%);stroke-opacity:1;stroke-miterlimit:4;" d="M 692.687412 226.057886 C 692.981573 221.131388 696.796322 219.673443 703.056391 221.869972 C 703.61117 222.104792 704.063141 221.268211 703.898759 221.165476 C 693.885265 215.877101 701.274794 209.267567 715.890591 212.06083 C 717.472707 212.266282 713.815518 214.233018 710.45274 214.854382 C 705.973583 215.412163 698.268435 213.841862 707.186136 219.639048 C 709.213527 221.204538 713.555959 224.291484 713.555959 224.291484 C 713.555959 224.291484 711.939802 227.011597 711.802828 227.075198 C 711.65215 227.055631 699.645681 222.647889 696.728302 226.419854 C 694.940943 229.443289 703.817596 235.886251 703.2289 240.367559 C 702.181289 244.300941 701.674441 243.909569 701.372837 240.28931 C 701.502928 239.736484 692.714944 228.014785 692.687412 226.057886 Z M 692.687412 226.057886 " transform="matrix(0.00623259,0.0529828,-0.0479951,-0.00872999,33.731659,-8.164503)"/>
<path style="fill-rule:evenodd;fill:rgb(69.803923%,50.196081%,18.039216%);fill-opacity:1;stroke-width:0.1723;stroke-linecap:butt;stroke-linejoin:miter;stroke:rgb(0%,0%,0%);stroke-opacity:1;stroke-miterlimit:4;" d="M 827.476177 222.468903 C 828.265259 222.468903 828.941615 222.808018 828.941615 223.147132 L 828.941615 246.013134 C 828.941615 246.352249 828.265259 246.691363 827.476177 246.691363 C 826.687096 246.691363 826.067103 246.352249 826.067103 246.013134 L 826.067103 223.147132 C 826.067103 222.808018 826.687096 222.468903 827.476177 222.468903 Z M 827.476177 222.468903 " transform="matrix(0.0693052,0,0,0.0806328,-23.946095,8.979676)"/>
<path style="fill-rule:evenodd;fill:rgb(0%,45.882353%,0%);fill-opacity:1;stroke-width:0.33302;stroke-linecap:butt;stroke-linejoin:miter;stroke:rgb(0%,0%,0%);stroke-opacity:1;stroke-miterlimit:4;" d="M -3819.35243 -4447.147112 L -3826.725557 -4449.867557 L -3811.622757 -4438.492853 L -3814.439794 -4443.77047 Z M -3819.35243 -4447.147112 " transform="matrix(0.196088,-0.100265,-0.211248,0.0764631,-157.40138,-15.559492)"/>
<path style="fill-rule:evenodd;fill:rgb(0%,45.882353%,0%);fill-opacity:1;stroke-width:0.33302;stroke-linecap:butt;stroke-linejoin:miter;stroke:rgb(0%,0%,0%);stroke-opacity:1;stroke-miterlimit:4;" d="M -3819.29387 -4447.102369 L -3824.654813 -4446.865607 L -3811.851624 -4439.185769 L -3814.424947 -4443.761299 Z M -3819.29387 -4447.102369 " transform="matrix(0.21674,-0.0262947,-0.22349,-0.00143243,-132.992155,-79.566698)"/>
<path style="fill-rule:evenodd;fill:rgb(0%,45.882353%,0%);fill-opacity:1;stroke-width:0.33302;stroke-linecap:butt;stroke-linejoin:miter;stroke:rgb(0%,0%,0%);stroke-opacity:1;stroke-miterlimit:4;" d="M -3819.907706 -4447.608304 L -3815.225893 -4440.161705 L -3810.798673 -4438.905137 L -3814.39296 -4443.879431 Z M -3819.907706 -4447.608304 " transform="matrix(-0.16272,-0.152309,0.147418,0.176018,67.816246,228.289372)"/>
<path style="fill-rule:evenodd;fill:rgb(0%,45.882353%,0%);fill-opacity:1;stroke-width:0.33302;stroke-linecap:butt;stroke-linejoin:miter;stroke:rgb(0%,0%,0%);stroke-opacity:1;stroke-miterlimit:4;" d="M -3821.870992 -4448.768873 L -3804.285596 -4426.320464 L -3810.973129 -4438.817385 L -3814.395501 -4443.852627 Z M -3821.870992 -4448.768873 " transform="matrix(-0.215364,-0.0366351,0.214648,0.065241,165.662911,177.270175)"/>
<path style="fill-rule:evenodd;fill:rgb(0%,45.882353%,0%);fill-opacity:1;stroke-width:0.33302;stroke-linecap:butt;stroke-linejoin:miter;stroke:rgb(0%,0%,0%);stroke-opacity:1;stroke-miterlimit:4;" d="M -3822.279265 -4449.973171 L -3834.65754 -4456.372592 L -3810.696898 -4437.792734 L -3814.45938 -4443.878505 Z M -3822.279265 -4449.973171 " transform="matrix(0.197779,0.0965462,-0.189671,-0.123876,-55.019013,-155.064066)"/>
<path style="fill-rule:evenodd;fill:rgb(0%,45.882353%,0%);fill-opacity:1;stroke-width:0.33302;stroke-linecap:butt;stroke-linejoin:miter;stroke:rgb(0%,0%,0%);stroke-opacity:1;stroke-miterlimit:4;" d="M -3823.543213 -4450.241008 L -3828.685056 -4451.372668 L -3810.912108 -4438.08323 L -3814.460385 -4443.880184 Z M -3823.543213 -4450.241008 " transform="matrix(0.140952,0.174514,-0.122663,-0.195766,25.975662,-177.11807)"/>
<path style="fill-rule:evenodd;fill:rgb(0%,45.882353%,0%);fill-opacity:1;stroke-width:0.33302;stroke-linecap:butt;stroke-linejoin:miter;stroke:rgb(0%,0%,0%);stroke-opacity:1;stroke-miterlimit:4;" d="M -3824.698832 -4451.704232 L -3838.094299 -4461.437759 L -3813.681297 -4440.408858 L -3814.555488 -4443.876454 Z M -3824.698832 -4451.704232 " transform="matrix(0.0233998,0.227307,0.00311285,-0.234165,136.471799,-146.398809)"/>
<path style="fill-rule:evenodd;fill:rgb(0%,45.882353%,0%);fill-opacity:1;stroke-width:0.33302;stroke-linecap:butt;stroke-linejoin:miter;stroke:rgb(0%,0%,0%);stroke-opacity:1;stroke-miterlimit:4;" d="M -3822.15771 -4449.25796 L -3811.624344 -4434.913837 L -3809.883762 -4437.473216 L -3814.409087 -4443.810174 Z M -3822.15771 -4449.25796 " transform="matrix(-0.107552,0.19892,0.132899,-0.188284,213.710074,-50.802546)"/>
<path style="fill-rule:evenodd;fill:rgb(0%,45.882353%,0%);fill-opacity:1;stroke-width:0.33302;stroke-linecap:butt;stroke-linejoin:miter;stroke:rgb(0%,0%,0%);stroke-opacity:1;stroke-miterlimit:4;" d="M -3820.18437 -4446.983587 L -3804.652458 -4427.798686 L -3807.944224 -4435.478005 L -3814.507665 -4443.842376 Z M -3820.18437 -4446.983587 " transform="matrix(-0.165484,0.149004,0.185895,-0.129998,228.234664,17.80217)"/>
<path style="fill-rule:evenodd;fill:rgb(0%,45.882353%,0%);fill-opacity:1;stroke-width:0.33302;stroke-linecap:butt;stroke-linejoin:miter;stroke:rgb(0%,0%,0%);stroke-opacity:1;stroke-miterlimit:4;" d="M -3821.062581 -4448.760081 L -3808.809584 -4431.586413 L -3808.885377 -4436.798697 L -3814.427677 -4443.769659 Z M -3821.062581 -4448.760081 " transform="matrix(-0.210489,0.0601962,0.221145,-0.0338503,213.259649,106.292674)"/>
<path style="fill-rule:evenodd;fill:rgb(0%,45.882353%,0%);fill-opacity:1;stroke-width:0.33302;stroke-linecap:butt;stroke-linejoin:miter;stroke:rgb(0%,0%,0%);stroke-opacity:1;stroke-miterlimit:4;" d="M -3818.974579 -4446.973976 L -3816.919832 -4442.620408 L -3812.704334 -4440.533778 L -3814.472644 -4443.881891 Z M -3818.974579 -4446.973976 " transform="matrix(0.14176,-0.173798,-0.164707,0.158293,-157.827116,67.596661)"/>
<path style="fill-rule:evenodd;fill:rgb(0%,45.882353%,0%);fill-opacity:1;stroke-width:0.33302;stroke-linecap:butt;stroke-linejoin:miter;stroke:rgb(0%,0%,0%);stroke-opacity:1;stroke-miterlimit:4;" d="M -3819.346611 -4447.158122 L -3819.303235 -4441.337846 L -3812.640645 -4439.95853 L -3814.594711 -4443.931144 Z M -3819.346611 -4447.158122 " transform="matrix(0.104134,-0.0835451,-0.112186,0.0637103,-67.880747,-8.535321)"/>
<path style="fill-rule:evenodd;fill:rgb(0%,45.882353%,0%);fill-opacity:1;stroke-width:0.33302;stroke-linecap:butt;stroke-linejoin:miter;stroke:rgb(0%,0%,0%);stroke-opacity:1;stroke-miterlimit:4;" d="M -3819.261454 -4447.06899 L -3819.265028 -4441.298667 L -3812.649512 -4439.953502 L -3814.477724 -4443.826281 Z M -3819.261454 -4447.06899 " transform="matrix(-0.105035,-0.0939513,0.0838774,0.10487,5.465993,134.679734)"/>
<path style="fill-rule:evenodd;fill:rgb(0%,45.882353%,0%);fill-opacity:1;stroke-width:0.33302;stroke-linecap:butt;stroke-linejoin:miter;stroke:rgb(0%,0%,0%);stroke-opacity:1;stroke-miterlimit:4;" d="M -3819.292893 -4447.097835 L -3819.287811 -4441.308293 L -3812.738392 -4440.042215 L -3814.402179 -4443.737211 Z M -3819.292893 -4447.097835 " transform="matrix(0.116838,0.0741506,-0.110755,-0.090476,-13.093405,-92.140834)"/>
<path style="fill-rule:evenodd;fill:rgb(0%,45.882353%,0%);fill-opacity:1;stroke-width:0.33302;stroke-linecap:butt;stroke-linejoin:miter;stroke:rgb(0%,0%,0%);stroke-opacity:1;stroke-miterlimit:4;" d="M -3819.353207 -4447.150196 L -3803.697681 -4428.21254 L -3813.753146 -4441.813817 L -3814.607562 -4443.942743 Z M -3819.353207 -4447.150196 " transform="matrix(-0.128549,0.0542908,0.137829,-0.0401374,155.519132,55.79642)"/>
<path style="fill-rule:evenodd;fill:rgb(0%,45.882353%,0%);fill-opacity:1;stroke-width:0.33302;stroke-linecap:butt;stroke-linejoin:miter;stroke:rgb(0%,0%,0%);stroke-opacity:1;stroke-miterlimit:4;" d="M -3819.36233 -4447.16353 L -3808.375366 -4433.954068 L -3812.719663 -4440.032402 L -3814.494136 -4443.819757 Z M -3819.36233 -4447.16353 " transform="matrix(-0.0418579,0.224383,0.0691183,-0.222708,180.853883,-106.738389)"/>
<path style="fill-rule:evenodd;fill:rgb(0%,45.882353%,0%);fill-opacity:1;stroke-width:0.33302;stroke-linecap:butt;stroke-linejoin:miter;stroke:rgb(0%,0%,0%);stroke-opacity:1;stroke-miterlimit:4;" d="M -3819.275354 -4447.084977 L -3833.673075 -4459.631755 L -3815.504626 -4442.929493 L -3814.490998 -4443.819119 Z M -3819.275354 -4447.084977 " transform="matrix(0.147714,0.168266,-0.130277,-0.190287,17.920497,-176.737033)"/>
<path style="fill-rule:evenodd;fill:rgb(0%,45.882353%,0%);fill-opacity:1;stroke-width:0.33302;stroke-linecap:butt;stroke-linejoin:miter;stroke:rgb(0%,0%,0%);stroke-opacity:1;stroke-miterlimit:4;" d="M -3819.353582 -4447.155255 L -3819.390105 -4441.408404 L -3812.689979 -4440.010988 L -3814.471589 -4443.795856 Z M -3819.353582 -4447.155255 " transform="matrix(0.136108,-0.0707147,-0.146634,0.0539282,-99.050014,-2.987986)"/>
</g>
</svg>
