<?xml version="1.0" encoding="UTF-8"?>
<svg xmlns="http://www.w3.org/2000/svg" xmlns:xlink="http://www.w3.org/1999/xlink" width="40px" height="40px" viewBox="0 0 40 40" version="1.1">
<g id="surface1">
<rect x="0" y="0" width="40" height="40" style="fill:rgb(40.392157%,59.215689%,83.92157%);fill-opacity:1;stroke:none;"/>
<path style=" stroke:none;fill-rule:evenodd;fill:rgb(100%,100%,100%);fill-opacity:1;" d="M 21.261719 6.808594 L 24.394531 6.808594 L 21.859375 8.539062 L 22.828125 11.34375 L 20.296875 9.609375 L 17.761719 11.34375 L 18.730469 8.539062 L 16.195312 6.804688 L 19.328125 6.808594 L 20.296875 4.003906 Z M 21.261719 6.808594 "/>
<path style=" stroke:none;fill-rule:evenodd;fill:rgb(100%,100%,100%);fill-opacity:1;" d="M 21.261719 33.269531 L 24.394531 33.273438 L 21.859375 31.539062 L 22.828125 28.734375 L 20.296875 30.472656 L 17.761719 28.734375 L 18.730469 31.539062 L 16.195312 33.273438 L 19.328125 33.269531 L 20.296875 36.078125 Z M 21.261719 33.269531 "/>
<path style=" stroke:none;fill-rule:evenodd;fill:rgb(100%,100%,100%);fill-opacity:1;" d="M 8.21875 18.554688 L 11.214844 17.636719 L 9.292969 20.035156 L 11.042969 22.433594 L 8.113281 21.511719 L 6.195312 23.914062 L 6.304688 20.949219 L 3.371094 20.03125 L 6.371094 19.117188 L 6.472656 16.152344 Z M 8.21875 18.554688 "/>
<path style=" stroke:none;fill-rule:evenodd;fill:rgb(100%,100%,100%);fill-opacity:1;" d="M 32.363281 18.554688 L 29.367188 17.636719 L 31.289062 20.035156 L 29.539062 22.433594 L 32.472656 21.511719 L 34.386719 23.914062 L 34.277344 20.949219 L 37.210938 20.03125 L 34.210938 19.117188 L 34.109375 16.152344 Z M 32.363281 18.554688 "/>
</g>
</svg>
