<?xml version="1.0" encoding="UTF-8"?>
<svg xmlns="http://www.w3.org/2000/svg" xmlns:xlink="http://www.w3.org/1999/xlink" width="40px" height="40px" viewBox="0 0 40 40" version="1.1">
<g id="surface1">
<rect x="0" y="0" width="40" height="40" style="fill:rgb(0%,0%,40.000001%);fill-opacity:1;stroke:none;"/>
<path style=" stroke:none;fill-rule:nonzero;fill:rgb(100%,100%,100%);fill-opacity:1;" d="M -20 0 L -20 4.472656 L 51.058594 40 L 60 40 L 60 35.527344 L -11.054688 0 Z M 60 0 L 60 4.472656 L -11.054688 40 L -20 40 L -20 35.527344 L 51.058594 0 Z M 60 0 "/>
<path style=" stroke:none;fill-rule:nonzero;fill:rgb(100%,100%,100%);fill-opacity:1;" d="M 13.335938 0 L 13.335938 40 L 26.667969 40 L 26.667969 0 Z M -20 13.332031 L -20 26.667969 L 60 26.667969 L 60 13.332031 Z M -20 13.332031 "/>
<path style=" stroke:none;fill-rule:nonzero;fill:rgb(80.000001%,0%,0%);fill-opacity:1;" d="M -20 16 L -20 24 L 60 24 L 60 16 Z M 16 0 L 16 40 L 24 40 L 24 0 Z M 16 0 "/>
<path style=" stroke:none;fill-rule:nonzero;fill:rgb(80.000001%,0%,0%);fill-opacity:1;" d="M -20 40 L 6.667969 26.667969 L 12.628906 26.667969 L -14.039062 40 Z M -20 0 L 6.667969 13.332031 L 0.703125 13.332031 L -20 2.980469 Z M 27.371094 13.332031 L 54.039062 0 L 60 0 L 33.335938 13.332031 Z M 60 40 L 33.335938 26.667969 L 39.296875 26.667969 L 60 37.019531 Z M 60 40 "/>
</g>
</svg>
