<?xml version="1.0" encoding="UTF-8"?>
<svg xmlns="http://www.w3.org/2000/svg" xmlns:xlink="http://www.w3.org/1999/xlink" width="40px" height="40px" viewBox="0 0 40 40" version="1.1">
<g id="surface1">
<rect x="0" y="0" width="40" height="40" style="fill:rgb(100%,0%,0%);fill-opacity:1;stroke:none;"/>
<path style=" stroke:none;fill-rule:evenodd;fill:rgb(0%,60.392159%,0%);fill-opacity:1;" d="M 4.972656 6.90625 L 35.027344 6.90625 L 35.027344 33.089844 L 4.972656 33.089844 Z M 4.972656 6.90625 "/>
<path style=" stroke:none;fill-rule:evenodd;fill:rgb(100%,79.215688%,0%);fill-opacity:1;" d="M 4.972656 33.089844 L 35.027344 33.089844 L 20 20 Z M 4.972656 33.089844 "/>
<path style=" stroke:none;fill-rule:evenodd;fill:rgb(100%,79.215688%,0%);fill-opacity:1;" d="M 4.972656 6.914062 L 20 20.003906 L 35.027344 6.914062 Z M 4.972656 6.914062 "/>
<path style=" stroke:none;fill-rule:evenodd;fill:rgb(100%,80.784315%,0%);fill-opacity:1;" d="M 7.613281 5.066406 L 6.246094 4.089844 L 4.875 5.066406 L 5.378906 3.460938 L 4.03125 2.457031 L 5.710938 2.441406 L 6.25 0.847656 L 6.78125 2.445312 L 8.464844 2.460938 L 7.113281 3.460938 Z M 7.613281 5.066406 "/>
<path style=" stroke:none;fill-rule:evenodd;fill:rgb(100%,80.784315%,0%);fill-opacity:1;" d="M 21.347656 5.109375 L 19.976562 4.132812 L 18.605469 5.105469 L 19.109375 3.5 L 17.761719 2.5 L 19.441406 2.484375 L 19.980469 0.890625 L 20.511719 2.484375 L 22.195312 2.503906 L 20.84375 3.503906 Z M 21.347656 5.109375 "/>
<path style=" stroke:none;fill-rule:evenodd;fill:rgb(100%,80.784315%,0%);fill-opacity:1;" d="M 35.085938 5.085938 L 33.71875 4.109375 L 32.347656 5.082031 L 32.851562 3.480469 L 31.5 2.476562 L 33.183594 2.460938 L 33.71875 0.867188 L 34.253906 2.460938 L 35.9375 2.480469 L 34.582031 3.480469 Z M 35.085938 5.085938 "/>
<path style=" stroke:none;fill-rule:evenodd;fill:rgb(100%,80.784315%,0%);fill-opacity:1;" d="M 7.613281 38.996094 L 6.246094 38.019531 L 4.875 38.996094 L 5.378906 37.390625 L 4.03125 36.386719 L 5.710938 36.371094 L 6.25 34.777344 L 6.78125 36.375 L 8.464844 36.390625 L 7.113281 37.390625 Z M 7.613281 38.996094 "/>
<path style=" stroke:none;fill-rule:evenodd;fill:rgb(100%,80.784315%,0%);fill-opacity:1;" d="M 21.347656 39.039062 L 19.976562 38.0625 L 18.605469 39.035156 L 19.109375 37.429688 L 17.761719 36.429688 L 19.441406 36.414062 L 19.980469 34.820312 L 20.511719 36.414062 L 22.195312 36.433594 L 20.84375 37.433594 Z M 21.347656 39.039062 "/>
<path style=" stroke:none;fill-rule:evenodd;fill:rgb(100%,80.784315%,0%);fill-opacity:1;" d="M 35.085938 39.015625 L 33.71875 38.039062 L 32.347656 39.011719 L 32.851562 37.410156 L 31.5 36.40625 L 33.183594 36.390625 L 33.71875 34.796875 L 34.253906 36.394531 L 35.9375 36.410156 L 34.582031 37.410156 Z M 35.085938 39.015625 "/>
<path style=" stroke:none;fill-rule:evenodd;fill:rgb(100%,0%,0%);fill-opacity:1;" d="M 23.605469 20.203125 C 23.605469 22.214844 21.972656 23.847656 19.960938 23.847656 C 17.949219 23.847656 16.316406 22.214844 16.316406 20.203125 C 16.316406 18.1875 17.949219 16.558594 19.960938 16.558594 C 21.972656 16.558594 23.605469 18.1875 23.605469 20.203125 Z M 23.605469 20.203125 "/>
<path style=" stroke:none;fill-rule:evenodd;fill:rgb(100%,80.784315%,0%);fill-opacity:1;" d="M 21.609375 22.445312 L 19.980469 21.285156 L 18.351562 22.441406 L 18.953125 20.535156 L 17.347656 19.34375 L 19.347656 19.328125 L 19.984375 17.433594 L 20.617188 19.328125 L 22.617188 19.351562 L 21.007812 20.539062 Z M 21.609375 22.445312 "/>
<path style=" stroke:none;fill-rule:evenodd;fill:rgb(100%,0%,0%);fill-opacity:1;" d="M 6.96875 22.730469 C 6.96875 22.730469 7.15625 21.199219 7.050781 20.167969 C 6.941406 19.140625 4.300781 18.847656 4.300781 18.847656 L 4.277344 21.25 C 4.277344 21.25 6.390625 22.96875 6.96875 22.730469 Z M 6.96875 22.730469 "/>
<path style=" stroke:none;fill-rule:evenodd;fill:rgb(100%,80.784315%,0%);fill-opacity:1;" d="M 3.113281 16.65625 C 3.113281 16.65625 3.367188 18.007812 3.007812 20.695312 C 2.816406 22.160156 4.40625 23.152344 6.363281 23.601562 C 5.964844 22.914062 4.910156 21.804688 5.171875 19.773438 C 6.601562 19.957031 7.945312 22.730469 7.945312 22.730469 C 7.945312 22.730469 9.015625 18.796875 6.863281 18.1875 C 4.773438 17.601562 3.113281 16.683594 3.113281 16.65625 Z M 3.113281 16.65625 "/>
</g>
</svg>
