<?xml version="1.0" encoding="UTF-8"?>
<svg xmlns="http://www.w3.org/2000/svg" xmlns:xlink="http://www.w3.org/1999/xlink" width="40px" height="40px" viewBox="0 0 40 40" version="1.1">
<defs>
<clipPath id="clip1">
  <path d="M 2 3 L 17 3 L 17 22 L 2 22 Z M 2 3 "/>
</clipPath>
<clipPath id="clip2">
  <path d="M -4.386719 25.457031 C 2.8125 25.457031 8.648438 19.617188 8.648438 12.417969 C 8.648438 5.21875 2.8125 -0.617188 -4.386719 -0.617188 L 22.941406 -0.617188 C 15.738281 -0.617188 9.902344 5.21875 9.902344 12.417969 C 9.902344 19.617188 15.738281 25.457031 22.941406 25.457031 Z M -4.386719 25.457031 "/>
</clipPath>
<clipPath id="clip3">
  <path d="M 0 5 L 19 5 L 19 20 L 0 20 Z M 0 5 "/>
</clipPath>
<clipPath id="clip4">
  <path d="M -3.761719 -1.246094 C -3.761719 5.957031 2.074219 11.792969 9.277344 11.792969 C 16.476562 11.792969 22.3125 5.957031 22.3125 -1.246094 L 22.3125 26.082031 C 22.3125 18.882812 16.476562 13.046875 9.277344 13.046875 C 2.074219 13.046875 -3.761719 18.882812 -3.761719 26.082031 Z M -3.761719 -1.246094 "/>
</clipPath>
<clipPath id="clip5">
  <path d="M 23 18 L 38 18 L 38 37 L 23 37 Z M 23 18 "/>
</clipPath>
<clipPath id="clip6">
  <path d="M 17.0625 40.636719 C 24.261719 40.636719 30.097656 34.800781 30.097656 27.597656 C 30.097656 20.398438 24.261719 14.5625 17.0625 14.5625 L 44.386719 14.5625 C 37.1875 14.5625 31.351562 20.398438 31.351562 27.597656 C 31.351562 34.800781 37.1875 40.636719 44.386719 40.636719 Z M 17.0625 40.636719 "/>
</clipPath>
<clipPath id="clip7">
  <path d="M 21 20 L 40 20 L 40 35 L 21 35 Z M 21 20 "/>
</clipPath>
<clipPath id="clip8">
  <path d="M 17.6875 13.9375 C 17.6875 21.136719 23.523438 26.972656 30.722656 26.972656 C 37.925781 26.972656 43.761719 21.136719 43.761719 13.9375 L 43.761719 41.261719 C 43.761719 34.0625 37.925781 28.226562 30.722656 28.226562 C 23.523438 28.226562 17.6875 34.0625 17.6875 41.261719 Z M 17.6875 13.9375 "/>
</clipPath>
<clipPath id="clip9">
  <path d="M 23 3 L 38 3 L 38 22 L 23 22 Z M 23 3 "/>
</clipPath>
<clipPath id="clip10">
  <path d="M 17.0625 25.457031 C 24.261719 25.457031 30.097656 19.617188 30.097656 12.417969 C 30.097656 5.21875 24.261719 -0.617188 17.0625 -0.617188 L 44.386719 -0.617188 C 37.1875 -0.617188 31.351562 5.21875 31.351562 12.417969 C 31.351562 19.617188 37.1875 25.457031 44.386719 25.457031 Z M 17.0625 25.457031 "/>
</clipPath>
<clipPath id="clip11">
  <path d="M 21 5 L 40 5 L 40 20 L 21 20 Z M 21 5 "/>
</clipPath>
<clipPath id="clip12">
  <path d="M 17.6875 -1.246094 C 17.6875 5.957031 23.523438 11.792969 30.722656 11.792969 C 37.925781 11.792969 43.761719 5.957031 43.761719 -1.246094 L 43.761719 26.082031 C 43.761719 18.882812 37.925781 13.046875 30.722656 13.046875 C 23.523438 13.046875 17.6875 18.882812 17.6875 26.082031 Z M 17.6875 -1.246094 "/>
</clipPath>
<clipPath id="clip13">
  <path d="M 2 18 L 17 18 L 17 37 L 2 37 Z M 2 18 "/>
</clipPath>
<clipPath id="clip14">
  <path d="M -4.386719 40.636719 C 2.8125 40.636719 8.648438 34.800781 8.648438 27.597656 C 8.648438 20.398438 2.8125 14.5625 -4.386719 14.5625 L 22.941406 14.5625 C 15.738281 14.5625 9.902344 20.398438 9.902344 27.597656 C 9.902344 34.800781 15.738281 40.636719 22.941406 40.636719 Z M -4.386719 40.636719 "/>
</clipPath>
<clipPath id="clip15">
  <path d="M 0 20 L 19 20 L 19 35 L 0 35 Z M 0 20 "/>
</clipPath>
<clipPath id="clip16">
  <path d="M -3.761719 13.9375 C -3.761719 21.136719 2.074219 26.972656 9.277344 26.972656 C 16.476562 26.972656 22.3125 21.136719 22.3125 13.9375 L 22.3125 41.261719 C 22.3125 34.0625 16.476562 28.226562 9.277344 28.226562 C 2.074219 28.226562 -3.761719 34.0625 -3.761719 41.261719 Z M -3.761719 13.9375 "/>
</clipPath>
</defs>
<g id="surface1">
<rect x="0" y="0" width="40" height="40" style="fill:rgb(100%,100%,100%);fill-opacity:1;stroke:none;"/>
<path style=" stroke:none;fill-rule:nonzero;fill:rgb(100%,100%,100%);fill-opacity:1;" d="M 1.195312 7.472656 L 38.804688 7.472656 L 38.804688 32.542969 L 1.195312 32.542969 Z M 1.195312 7.472656 "/>
<path style=" stroke:none;fill-rule:nonzero;fill:rgb(100%,0%,0%);fill-opacity:1;" d="M 17.492188 7.472656 L 17.492188 17.5 L 1.195312 17.5 L 1.195312 22.515625 L 17.492188 22.515625 L 17.492188 32.542969 L 22.507812 32.542969 L 22.507812 22.515625 L 38.804688 22.515625 L 38.804688 17.5 L 22.507812 17.5 L 22.507812 7.472656 Z M 17.492188 7.472656 "/>
<g clip-path="url(#clip1)" clip-rule="nonzero">
<g clip-path="url(#clip2)" clip-rule="nonzero">
<path style=" stroke:none;fill-rule:nonzero;fill:rgb(100%,0%,0%);fill-opacity:1;" d="M 2.382812 21.695312 C 2.382812 17.886719 5.46875 14.800781 9.277344 14.800781 C 13.082031 14.800781 16.171875 17.886719 16.171875 21.695312 L 16.171875 3.144531 C 16.171875 6.949219 13.082031 10.039062 9.277344 10.039062 C 5.46875 10.039062 2.382812 6.949219 2.382812 3.144531 Z M 2.382812 21.695312 "/>
</g>
</g>
<g clip-path="url(#clip3)" clip-rule="nonzero">
<g clip-path="url(#clip4)" clip-rule="nonzero">
<path style=" stroke:none;fill-rule:nonzero;fill:rgb(100%,0%,0%);fill-opacity:1;" d="M 0 5.523438 C 3.808594 5.523438 6.894531 8.609375 6.894531 12.417969 C 6.894531 16.226562 3.808594 19.3125 0 19.3125 L 18.550781 19.3125 C 14.746094 19.3125 11.65625 16.226562 11.65625 12.417969 C 11.65625 8.609375 14.746094 5.523438 18.550781 5.523438 Z M 0 5.523438 "/>
</g>
</g>
<g clip-path="url(#clip5)" clip-rule="nonzero">
<g clip-path="url(#clip6)" clip-rule="nonzero">
<path style=" stroke:none;fill-rule:nonzero;fill:rgb(100%,0%,0%);fill-opacity:1;" d="M 23.828125 36.875 C 23.828125 33.066406 26.917969 29.980469 30.722656 29.980469 C 34.53125 29.980469 37.617188 33.066406 37.617188 36.875 L 37.617188 18.324219 C 37.617188 22.132812 34.53125 25.21875 30.722656 25.21875 C 26.917969 25.21875 23.828125 22.132812 23.828125 18.324219 Z M 23.828125 36.875 "/>
</g>
</g>
<g clip-path="url(#clip7)" clip-rule="nonzero">
<g clip-path="url(#clip8)" clip-rule="nonzero">
<path style=" stroke:none;fill-rule:nonzero;fill:rgb(100%,0%,0%);fill-opacity:1;" d="M 21.449219 20.703125 C 25.253906 20.703125 28.34375 23.792969 28.34375 27.597656 C 28.34375 31.40625 25.253906 34.492188 21.449219 34.492188 L 40 34.492188 C 36.191406 34.492188 33.105469 31.40625 33.105469 27.597656 C 33.105469 23.792969 36.191406 20.703125 40 20.703125 Z M 21.449219 20.703125 "/>
</g>
</g>
<g clip-path="url(#clip9)" clip-rule="nonzero">
<g clip-path="url(#clip10)" clip-rule="nonzero">
<path style=" stroke:none;fill-rule:nonzero;fill:rgb(100%,0%,0%);fill-opacity:1;" d="M 23.828125 21.695312 C 23.828125 17.886719 26.917969 14.800781 30.722656 14.800781 C 34.53125 14.800781 37.617188 17.886719 37.617188 21.695312 L 37.617188 3.144531 C 37.617188 6.949219 34.53125 10.039062 30.722656 10.039062 C 26.917969 10.039062 23.828125 6.949219 23.828125 3.144531 Z M 23.828125 21.695312 "/>
</g>
</g>
<g clip-path="url(#clip11)" clip-rule="nonzero">
<g clip-path="url(#clip12)" clip-rule="nonzero">
<path style=" stroke:none;fill-rule:nonzero;fill:rgb(100%,0%,0%);fill-opacity:1;" d="M 21.449219 5.523438 C 25.253906 5.523438 28.34375 8.609375 28.34375 12.417969 C 28.34375 16.226562 25.253906 19.3125 21.449219 19.3125 L 40 19.3125 C 36.191406 19.3125 33.105469 16.226562 33.105469 12.417969 C 33.105469 8.609375 36.191406 5.523438 40 5.523438 Z M 21.449219 5.523438 "/>
</g>
</g>
<g clip-path="url(#clip13)" clip-rule="nonzero">
<g clip-path="url(#clip14)" clip-rule="nonzero">
<path style=" stroke:none;fill-rule:nonzero;fill:rgb(100%,0%,0%);fill-opacity:1;" d="M 2.382812 36.875 C 2.382812 33.066406 5.46875 29.980469 9.277344 29.980469 C 13.082031 29.980469 16.171875 33.066406 16.171875 36.875 L 16.171875 18.324219 C 16.171875 22.132812 13.082031 25.21875 9.277344 25.21875 C 5.46875 25.21875 2.382812 22.132812 2.382812 18.324219 Z M 2.382812 36.875 "/>
</g>
</g>
<g clip-path="url(#clip15)" clip-rule="nonzero">
<g clip-path="url(#clip16)" clip-rule="nonzero">
<path style=" stroke:none;fill-rule:nonzero;fill:rgb(100%,0%,0%);fill-opacity:1;" d="M 0 20.703125 C 3.808594 20.703125 6.894531 23.792969 6.894531 27.597656 C 6.894531 31.40625 3.808594 34.492188 0 34.492188 L 18.550781 34.492188 C 14.746094 34.492188 11.65625 31.40625 11.65625 27.597656 C 11.65625 23.792969 14.746094 20.703125 18.550781 20.703125 Z M 0 20.703125 "/>
</g>
</g>
</g>
</svg>
