<?xml version="1.0" encoding="UTF-8"?>
<svg xmlns="http://www.w3.org/2000/svg" xmlns:xlink="http://www.w3.org/1999/xlink" width="40px" height="40px" viewBox="0 0 40 40" version="1.1">
<g id="surface1">
<rect x="0" y="0" width="40" height="40" style="fill:rgb(100%,100%,100%);fill-opacity:1;stroke:none;"/>
<path style=" stroke:none;fill-rule:nonzero;fill:rgb(100%,100%,100%);fill-opacity:1;" d="M 0 6.667969 L 40 6.667969 L 40 33.332031 L 0 33.332031 Z M 0 6.667969 "/>
<path style="fill:none;stroke-width:6;stroke-linecap:butt;stroke-linejoin:miter;stroke:rgb(90.980393%,6.666667%,17.647059%);stroke-opacity:1;stroke-miterlimit:4;" d="M 0 -18 L 0 18 M -18 0 L 18 0 " transform="matrix(1.111111,0,0,1.111111,20,20)"/>
<path style=" stroke:none;fill-rule:nonzero;fill:rgb(97.647059%,86.666667%,8.627451%);fill-opacity:1;" d="M 10 22.222656 L 11.109375 21.109375 L 21.109375 21.109375 L 21.109375 18.890625 L 11.109375 18.890625 L 10 17.777344 Z M 10 22.222656 "/>
<path style=" stroke:none;fill-rule:nonzero;fill:rgb(97.647059%,86.666667%,8.627451%);fill-opacity:1;" d="M 17.777344 10 L 18.890625 11.109375 L 18.890625 21.109375 L 21.109375 21.109375 L 21.109375 11.109375 L 22.222656 10 Z M 17.777344 10 "/>
<path style=" stroke:none;fill-rule:nonzero;fill:rgb(97.647059%,86.666667%,8.627451%);fill-opacity:1;" d="M 22.222656 30 L 21.109375 28.890625 L 21.109375 18.890625 L 18.890625 18.890625 L 18.890625 28.890625 L 17.777344 30 Z M 22.222656 30 "/>
<path style=" stroke:none;fill-rule:nonzero;fill:rgb(97.647059%,86.666667%,8.627451%);fill-opacity:1;" d="M 30 17.777344 L 28.890625 18.890625 L 18.890625 18.890625 L 18.890625 21.109375 L 28.890625 21.109375 L 30 22.222656 Z M 30 17.777344 "/>
</g>
</svg>
