<?xml version="1.0" encoding="UTF-8"?>
<svg xmlns="http://www.w3.org/2000/svg" xmlns:xlink="http://www.w3.org/1999/xlink" width="40px" height="40px" viewBox="0 0 40 40" version="1.1">
<g id="surface1">
<path style=" stroke:none;fill-rule:evenodd;fill:rgb(100%,100%,100%);fill-opacity:1;" d="M -19.886719 0 L 59.941406 0 L 59.941406 39.914062 L -19.886719 39.914062 Z M -19.886719 0 "/>
<path style=" stroke:none;fill-rule:nonzero;fill:rgb(63.137257%,6.27451%,6.666667%);fill-opacity:1;" d="M 31.65625 13.679688 Z M 26.039062 8.773438 L 25.042969 13.851562 L 31.992188 13.78125 L 31.246094 8.773438 "/>
<path style=" stroke:none;fill-rule:evenodd;fill:rgb(63.137257%,6.27451%,6.666667%);fill-opacity:1;" d="M 21.574219 6.0625 L 23.707031 6.0625 L 23.707031 6.59375 L 21.574219 6.59375 Z M 21.574219 6.0625 "/>
<path style=" stroke:none;fill-rule:evenodd;fill:rgb(63.137257%,6.27451%,6.666667%);fill-opacity:1;" d="M 19.015625 6.0625 L 21.078125 6.0625 L 21.078125 6.59375 L 19.015625 6.59375 Z M 19.015625 6.0625 "/>
<path style=" stroke:none;fill-rule:evenodd;fill:rgb(63.137257%,6.27451%,6.666667%);fill-opacity:1;" d="M 16.382812 6.027344 L 18.445312 6.027344 L 18.445312 6.523438 L 16.382812 6.523438 Z M 16.382812 6.027344 "/>
<path style=" stroke:none;fill-rule:nonzero;fill:rgb(63.137257%,6.27451%,6.666667%);fill-opacity:1;" d="M 23.582031 7.777344 Z M 16.402344 6.496094 L 16.402344 7.804688 L 23.707031 7.804688 L 23.707031 6.527344 L 16.402344 6.496094 "/>
<path style=" stroke:none;fill-rule:nonzero;fill:rgb(63.137257%,6.27451%,6.666667%);fill-opacity:1;" d="M 17.292969 8.347656 L 16.4375 13.742188 L 23.816406 13.78125 L 22.820312 8.382812 M 23.050781 13.574219 Z M 23.050781 13.574219 "/>
<path style=" stroke:none;fill-rule:evenodd;fill:rgb(83.92157%,8.235294%,9.019608%);fill-opacity:1;" d="M -20 30.042969 L 60.015625 30.042969 L 60.015625 40 L -20 40 Z M -20 30.042969 "/>
<path style=" stroke:none;fill-rule:evenodd;fill:rgb(63.137257%,6.27451%,6.666667%);fill-opacity:1;" d="M 6.457031 13.6875 L 33.636719 13.6875 L 33.636719 15.746094 L 6.457031 15.746094 Z M 6.457031 13.6875 "/>
<path style=" stroke:none;fill-rule:nonzero;fill:rgb(63.137257%,6.27451%,6.666667%);fill-opacity:1;" d="M 7.492188 15.519531 L 6.917969 25.804688 L 3.964844 25.839844 L 3.964844 27.492188 L 36.265625 27.492188 L 36.265625 25.839844 L 33.3125 25.875 L 32.738281 15.566406 Z M 7.492188 15.519531 "/>
<path style=" stroke:none;fill-rule:nonzero;fill:rgb(83.92157%,8.235294%,9.019608%);fill-opacity:1;" d="M 15.980469 18.304688 L 15.980469 20.003906 L 16.398438 20.003906 L 16.398438 18.304688 L 15.980469 18.304688 M 16.605469 18.304688 L 16.605469 20.003906 L 19.941406 20.003906 L 19.941406 18.304688 L 16.605469 18.304688 M 20.152344 18.304688 L 20.152344 20.003906 L 23.28125 20.003906 L 23.28125 18.304688 L 20.152344 18.304688 M 23.488281 18.304688 L 23.488281 20.003906 L 24.113281 20.003906 L 24.113281 18.304688 Z M 23.488281 18.304688 "/>
<path style=" stroke:none;fill-rule:nonzero;fill:rgb(83.92157%,8.235294%,9.019608%);fill-opacity:1;" d="M 28.667969 20 Z M 25.675781 18.300781 L 25.675781 20.039062 L 28.722656 20.039062 L 28.722656 18.339844 L 25.675781 18.300781 "/>
<path style=" stroke:none;fill-rule:nonzero;fill:rgb(83.92157%,8.235294%,9.019608%);fill-opacity:1;" d="M 24.738281 23.921875 L 24.738281 25.761719 L 27.035156 25.761719 L 27.035156 23.921875 L 24.738281 23.921875 M 27.242188 23.921875 L 27.242188 25.070312 L 27.660156 25.070312 L 27.660156 23.921875 L 27.242188 23.921875 M 30.160156 23.921875 L 30.160156 25.070312 L 30.578125 25.070312 L 30.578125 23.921875 L 30.160156 23.921875 M 30.789062 23.921875 L 30.789062 25.761719 L 33.082031 25.761719 L 33.082031 23.921875 Z M 30.789062 23.921875 "/>
<path style=" stroke:none;fill-rule:nonzero;fill:rgb(83.92157%,8.235294%,9.019608%);fill-opacity:1;" d="M 24.949219 22.050781 L 24.949219 23.714844 L 25.363281 23.714844 L 25.363281 22.050781 L 24.949219 22.050781 M 25.574219 22.050781 L 25.574219 23.714844 L 27.03125 23.714844 L 27.03125 22.050781 Z M 25.574219 22.050781 "/>
<path style=" stroke:none;fill-rule:nonzero;fill:rgb(83.92157%,8.235294%,9.019608%);fill-opacity:1;" d="M 30.785156 22.050781 L 30.785156 23.714844 L 32.28125 23.714844 L 32.28125 22.050781 L 30.785156 22.050781 M 32.496094 22.050781 L 32.496094 23.714844 L 32.921875 23.714844 L 32.921875 22.050781 Z M 32.496094 22.050781 "/>
<path style=" stroke:none;fill-rule:nonzero;fill:rgb(83.92157%,8.235294%,9.019608%);fill-opacity:1;" d="M 24.835938 15.773438 L 24.835938 16.222656 L 32.878906 16.222656 L 32.878906 15.773438 Z M 24.835938 15.773438 "/>
<path style=" stroke:none;fill-rule:nonzero;fill:rgb(83.92157%,8.235294%,9.019608%);fill-opacity:1;" d="M 7.933594 22.085938 L 7.933594 23.75 L 9.34375 23.75 L 9.34375 22.085938 Z M 7.933594 22.085938 "/>
<path style=" stroke:none;fill-rule:nonzero;fill:rgb(83.92157%,8.235294%,9.019608%);fill-opacity:1;" d="M 13.0625 22.050781 L 13.0625 23.785156 L 14.519531 23.785156 L 14.519531 22.050781 L 13.0625 22.050781 M 14.730469 22.050781 L 14.730469 23.785156 L 15.148438 23.785156 L 15.148438 22.050781 Z M 14.730469 22.050781 "/>
<path style=" stroke:none;fill-rule:nonzero;fill:rgb(83.92157%,8.235294%,9.019608%);fill-opacity:1;" d="M 15.875 15.808594 L 15.875 16.226562 L 24.164062 16.226562 L 24.164062 15.808594 Z M 15.875 15.808594 "/>
<path style=" stroke:none;fill-rule:nonzero;fill:rgb(83.92157%,8.235294%,9.019608%);fill-opacity:1;" d="M 7.449219 15.84375 L 7.449219 16.261719 L 15.027344 16.261719 L 15.027344 15.84375 Z M 7.449219 15.84375 "/>
<path style=" stroke:none;fill-rule:nonzero;fill:rgb(100%,100%,100%);fill-opacity:1;" d="M 24.460938 15.667969 C 23.664062 15.726562 24.566406 23.167969 24.566406 25.492188 C 24.566406 25.492188 25.519531 16.152344 24.460938 15.667969 Z M 24.460938 15.667969 "/>
<path style=" stroke:none;fill-rule:nonzero;fill:rgb(83.92157%,8.235294%,9.019608%);fill-opacity:1;" d="M 6.597656 14.421875 L 6.597656 15.566406 L 33.496094 15.566406 L 33.496094 14.421875 Z M 6.597656 14.421875 "/>
<path style=" stroke:none;fill-rule:nonzero;fill:rgb(100%,100%,100%);fill-opacity:1;" d="M 15.355469 15.703125 C 14.5625 15.761719 15.460938 23.339844 15.464844 25.703125 C 15.464844 25.703125 16.414062 16.199219 15.355469 15.703125 Z M 15.355469 15.703125 "/>
<path style=" stroke:none;fill-rule:nonzero;fill:rgb(83.92157%,8.235294%,9.019608%);fill-opacity:1;" d="M 7.101562 22.085938 L 7.101562 23.75 L 7.742188 23.75 L 7.742188 22.085938 Z M 7.101562 22.085938 "/>
<path style=" stroke:none;fill-rule:nonzero;fill:rgb(83.92157%,8.235294%,9.019608%);fill-opacity:1;" d="M 7.085938 23.886719 L 7.085938 25.761719 L 9.378906 25.761719 L 9.367188 23.886719 L 7.085938 23.886719 M 9.339844 25.722656 Z M 9.339844 25.722656 "/>
<path style=" stroke:none;fill-rule:nonzero;fill:rgb(83.92157%,8.235294%,9.019608%);fill-opacity:1;" d="M 35.523438 27.332031 Z M 4.027344 25.914062 L 4.027344 27.363281 L 36.082031 27.363281 L 36.082031 25.945312 L 4.027344 25.914062 "/>
<path style=" stroke:none;fill-rule:nonzero;fill:rgb(83.92157%,8.235294%,9.019608%);fill-opacity:1;" d="M 13.058594 23.921875 L 13.058594 25.734375 L 15.28125 25.734375 L 15.28125 23.921875 L 13.058594 23.921875 M 15.242188 25.695312 Z M 15.242188 25.695312 "/>
<path style=" stroke:none;fill-rule:nonzero;fill:rgb(83.92157%,8.235294%,9.019608%);fill-opacity:1;" d="M 15.761719 23.886719 L 15.761719 25.726562 L 18.054688 25.726562 L 18.042969 23.886719 L 15.761719 23.886719 M 18.015625 25.683594 Z M 18.015625 25.683594 "/>
<path style=" stroke:none;fill-rule:nonzero;fill:rgb(83.92157%,8.235294%,9.019608%);fill-opacity:1;" d="M 21.84375 23.921875 L 21.84375 25.761719 L 24.386719 25.761719 L 24.371094 23.921875 L 21.84375 23.921875 M 24.339844 25.722656 Z M 24.339844 25.722656 "/>
<path style=" stroke:none;fill-rule:nonzero;fill:rgb(83.92157%,8.235294%,9.019608%);fill-opacity:1;" d="M 10.898438 20.035156 Z M 7.910156 18.265625 L 7.910156 20.074219 L 10.949219 20.074219 L 10.949219 18.304688 L 7.910156 18.265625 "/>
<path style=" stroke:none;fill-rule:nonzero;fill:rgb(83.92157%,8.235294%,9.019608%);fill-opacity:1;" d="M 7.632812 20.035156 Z M 7.335938 18.304688 L 7.335938 20.074219 L 7.636719 20.074219 L 7.636719 18.339844 L 7.335938 18.304688 "/>
<path style=" stroke:none;fill-rule:nonzero;fill:rgb(83.92157%,8.235294%,9.019608%);fill-opacity:1;" d="M 14.335938 20.070312 Z M 11.175781 18.300781 L 11.175781 20.109375 L 14.394531 20.109375 L 14.394531 18.339844 L 11.175781 18.300781 "/>
<path style=" stroke:none;fill-rule:nonzero;fill:rgb(83.92157%,8.235294%,9.019608%);fill-opacity:1;" d="M 14.917969 20.070312 Z M 14.550781 18.339844 L 14.550781 20.109375 L 14.925781 20.109375 L 14.925781 18.375 L 14.550781 18.339844 "/>
<path style=" stroke:none;fill-rule:nonzero;fill:rgb(83.92157%,8.235294%,9.019608%);fill-opacity:1;" d="M 27.050781 21.851562 Z M 24.933594 20.222656 L 24.933594 21.886719 L 27.085938 21.886719 L 27.085938 20.257812 L 24.933594 20.222656 "/>
<path style=" stroke:none;fill-rule:nonzero;fill:rgb(83.92157%,8.235294%,9.019608%);fill-opacity:1;" d="M 32.878906 21.816406 Z M 30.730469 20.257812 L 30.730469 21.851562 L 32.917969 21.851562 L 32.917969 20.292969 L 30.730469 20.257812 "/>
<path style=" stroke:none;fill-rule:nonzero;fill:rgb(83.92157%,8.235294%,9.019608%);fill-opacity:1;" d="M 30.480469 21.851562 Z M 27.363281 20.257812 L 27.363281 21.886719 L 30.535156 21.886719 L 30.535156 20.292969 L 27.363281 20.257812 "/>
<path style=" stroke:none;fill-rule:nonzero;fill:rgb(100%,100%,100%);fill-opacity:1;" d="M 24.628906 14.367188 Z M 24.261719 13.644531 L 24.261719 14.382812 L 24.632812 14.382812 L 24.632812 13.660156 L 24.261719 13.644531 "/>
<path style=" stroke:none;fill-rule:nonzero;fill:rgb(83.92157%,8.235294%,9.019608%);fill-opacity:1;" d="M 25.410156 19.964844 Z M 25.007812 18.304688 L 25.007812 20.003906 L 25.414062 20.003906 L 25.414062 18.339844 L 25.007812 18.304688 "/>
<path style=" stroke:none;fill-rule:nonzero;fill:rgb(83.92157%,8.235294%,9.019608%);fill-opacity:1;" d="M 31.914062 20 Z M 29.019531 18.339844 L 29.019531 20.039062 L 31.964844 20.039062 L 31.964844 18.375 L 29.019531 18.339844 "/>
<path style=" stroke:none;fill-rule:nonzero;fill:rgb(83.92157%,8.235294%,9.019608%);fill-opacity:1;" d="M 32.800781 20 Z M 32.226562 18.339844 L 32.226562 20.039062 L 32.8125 20.039062 L 32.8125 18.375 L 32.226562 18.339844 "/>
<path style=" stroke:none;fill-rule:nonzero;fill:rgb(83.92157%,8.235294%,9.019608%);fill-opacity:1;" d="M 26.804688 18.117188 Z M 24.972656 16.417969 L 24.972656 18.152344 L 26.839844 18.152344 L 26.839844 16.457031 L 24.972656 16.417969 "/>
<path style=" stroke:none;fill-rule:nonzero;fill:rgb(83.92157%,8.235294%,9.019608%);fill-opacity:1;" d="M 30.40625 18.117188 Z M 27.132812 16.453125 L 27.132812 18.152344 L 30.464844 18.152344 L 30.464844 16.492188 L 27.132812 16.453125 "/>
<path style=" stroke:none;fill-rule:nonzero;fill:rgb(83.92157%,8.235294%,9.019608%);fill-opacity:1;" d="M 32.632812 18.117188 Z M 30.660156 16.417969 L 30.660156 18.152344 L 32.667969 18.152344 L 32.667969 16.457031 L 30.660156 16.417969 "/>
<path style=" stroke:none;fill-rule:nonzero;fill:rgb(83.92157%,8.235294%,9.019608%);fill-opacity:1;" d="M 15.761719 21.964844 L 15.761719 23.664062 L 16.703125 23.664062 L 16.703125 21.976562 L 15.761719 21.964844 M 16.6875 23.628906 Z M 16.6875 23.628906 "/>
<path style=" stroke:none;fill-rule:nonzero;fill:rgb(83.92157%,8.235294%,9.019608%);fill-opacity:1;" d="M 16.898438 22 L 16.898438 23.699219 L 18.066406 23.699219 L 18.066406 22.011719 L 16.898438 22 M 18.046875 23.664062 Z M 18.046875 23.664062 "/>
<path style=" stroke:none;fill-rule:nonzero;fill:rgb(83.92157%,8.235294%,9.019608%);fill-opacity:1;" d="M 21.84375 22.035156 L 21.84375 23.734375 L 23.355469 23.734375 L 23.355469 22.035156 L 21.84375 22.035156 M 23.328125 23.699219 Z M 23.328125 23.699219 "/>
<path style=" stroke:none;fill-rule:nonzero;fill:rgb(83.92157%,8.235294%,9.019608%);fill-opacity:1;" d="M 24.300781 23.699219 Z M 23.546875 22.035156 L 23.546875 23.734375 L 24.3125 23.734375 L 24.3125 22.074219 L 23.546875 22.035156 "/>
<path style=" stroke:none;fill-rule:nonzero;fill:rgb(83.92157%,8.235294%,9.019608%);fill-opacity:1;" d="M 7.234375 15.738281 L 7.234375 16.082031 L 15.277344 16.082031 L 15.277344 15.738281 Z M 7.234375 15.738281 "/>
<path style=" stroke:none;fill-rule:nonzero;fill:rgb(83.92157%,8.235294%,9.019608%);fill-opacity:1;" d="M 15.484375 15.738281 L 15.484375 16.082031 L 24.378906 16.082031 L 24.378906 15.738281 Z M 15.484375 15.738281 "/>
<path style=" stroke:none;fill-rule:nonzero;fill:rgb(83.92157%,8.235294%,9.019608%);fill-opacity:1;" d="M 24.582031 15.703125 L 24.582031 16.046875 L 33.089844 16.046875 L 33.089844 15.703125 Z M 24.582031 15.703125 "/>
<path style=" stroke:none;fill-rule:nonzero;fill:rgb(83.92157%,8.235294%,9.019608%);fill-opacity:1;" d="M 9.304688 21.886719 Z M 7.191406 20.222656 L 7.191406 21.921875 L 9.34375 21.921875 L 9.34375 20.257812 L 7.191406 20.222656 "/>
<path style=" stroke:none;fill-rule:nonzero;fill:rgb(83.92157%,8.235294%,9.019608%);fill-opacity:1;" d="M 15.035156 21.886719 Z M 13.09375 20.222656 L 13.09375 21.921875 L 15.070312 21.921875 L 15.070312 20.257812 L 13.09375 20.222656 "/>
<path style=" stroke:none;fill-rule:nonzero;fill:rgb(83.92157%,8.235294%,9.019608%);fill-opacity:1;" d="M 9.605469 20.257812 L 9.605469 21.957031 L 12.898438 21.957031 L 12.910156 20.269531 L 9.605469 20.257812 M 12.84375 21.921875 Z M 12.84375 21.921875 "/>
<path style=" stroke:none;fill-rule:nonzero;fill:rgb(83.92157%,8.235294%,9.019608%);fill-opacity:1;" d="M 15.902344 20.152344 L 15.902344 21.851562 L 18.089844 21.851562 L 18.105469 20.164062 L 15.902344 20.152344 M 18.054688 21.816406 Z M 18.054688 21.816406 "/>
<path style=" stroke:none;fill-rule:nonzero;fill:rgb(83.92157%,8.235294%,9.019608%);fill-opacity:1;" d="M 21.621094 21.816406 Z M 18.25 20.152344 L 18.25 21.851562 L 21.683594 21.851562 L 21.671875 20.175781 L 18.25 20.152344 "/>
<path style=" stroke:none;fill-rule:nonzero;fill:rgb(83.92157%,8.235294%,9.019608%);fill-opacity:1;" d="M 21.878906 20.1875 L 21.878906 21.886719 L 24.101562 21.886719 L 24.113281 20.1875 L 21.878906 20.1875 M 24.0625 21.851562 Z M 24.0625 21.851562 "/>
<path style=" stroke:none;fill-rule:nonzero;fill:rgb(83.92157%,8.235294%,9.019608%);fill-opacity:1;" d="M 18.15625 18.046875 Z M 15.9375 16.382812 L 15.9375 18.082031 L 18.195312 18.082031 L 18.195312 16.417969 L 15.9375 16.382812 "/>
<path style=" stroke:none;fill-rule:nonzero;fill:rgb(83.92157%,8.235294%,9.019608%);fill-opacity:1;" d="M 21.699219 18.082031 Z M 18.355469 16.382812 L 18.355469 18.117188 L 21.757812 18.117188 L 21.757812 16.417969 L 18.355469 16.382812 "/>
<path style=" stroke:none;fill-rule:nonzero;fill:rgb(83.92157%,8.235294%,9.019608%);fill-opacity:1;" d="M 23.957031 18.082031 Z M 21.984375 16.382812 L 21.984375 18.117188 L 23.992188 18.117188 L 23.992188 16.417969 L 21.984375 16.382812 "/>
<path style=" stroke:none;fill-rule:nonzero;fill:rgb(63.137257%,6.27451%,6.666667%);fill-opacity:1;" d="M 14.589844 14.25 Z M 8.828125 9.34375 L 7.972656 14.417969 L 14.925781 14.347656 L 14.144531 9.238281 "/>
<path style=" stroke:none;fill-rule:nonzero;fill:rgb(83.92157%,8.235294%,9.019608%);fill-opacity:1;" d="M 17.234375 9.675781 L 17.023438 10.507812 L 19.996094 10.507812 L 19.996094 9.675781 L 17.234375 9.675781 M 20.207031 9.675781 L 20.207031 10.507812 L 22.96875 10.507812 L 22.96875 9.675781 Z M 20.207031 9.675781 "/>
<path style=" stroke:none;fill-rule:nonzero;fill:rgb(83.92157%,8.235294%,9.019608%);fill-opacity:1;" d="M 17.023438 10.714844 L 17.023438 11.546875 L 18.078125 11.546875 L 18.078125 10.714844 L 17.023438 10.714844 M 18.289062 10.714844 L 18.289062 11.546875 L 21.664062 11.546875 L 21.664062 10.714844 L 18.289062 10.714844 M 21.875 10.714844 L 21.875 11.546875 L 23.140625 11.546875 L 23.140625 10.714844 Z M 21.875 10.714844 "/>
<path style=" stroke:none;fill-rule:nonzero;fill:rgb(83.92157%,8.235294%,9.019608%);fill-opacity:1;" d="M 17.445312 8.636719 L 17.234375 9.46875 L 18.082031 9.46875 L 18.082031 8.636719 L 17.445312 8.636719 M 18.296875 8.636719 L 18.296875 9.46875 L 21.699219 9.46875 L 21.699219 8.636719 L 18.296875 8.636719 M 21.910156 8.636719 L 21.910156 9.46875 L 22.761719 9.46875 L 22.761719 8.636719 Z M 21.910156 8.636719 "/>
<path style=" stroke:none;fill-rule:nonzero;fill:rgb(83.92157%,8.235294%,9.019608%);fill-opacity:1;" d="M 16.398438 6.761719 L 16.398438 7.179688 L 19.980469 7.179688 L 19.980469 6.761719 L 16.398438 6.761719 M 20.191406 6.761719 L 20.191406 7.179688 L 23.558594 7.179688 L 23.558594 6.761719 Z M 20.191406 6.761719 "/>
<path style=" stroke:none;fill-rule:nonzero;fill:rgb(83.92157%,8.235294%,9.019608%);fill-opacity:1;" d="M 16.398438 7.386719 L 16.398438 7.804688 L 18.066406 7.804688 L 18.066406 7.386719 L 16.398438 7.386719 M 18.273438 7.386719 L 18.273438 7.804688 L 21.613281 7.804688 L 21.613281 7.386719 L 18.273438 7.386719 M 21.820312 7.386719 L 21.820312 7.804688 L 23.488281 7.804688 L 23.488281 7.386719 Z M 21.820312 7.386719 "/>
<path style=" stroke:none;fill-rule:nonzero;fill:rgb(83.92157%,8.235294%,9.019608%);fill-opacity:1;" d="M 19.109375 6.140625 L 19.109375 6.554688 L 20.984375 6.554688 L 20.984375 6.140625 Z M 19.109375 6.140625 "/>
<path style=" stroke:none;fill-rule:nonzero;fill:rgb(83.92157%,8.235294%,9.019608%);fill-opacity:1;" d="M 6.597656 13.835938 L 6.597656 14.25 L 8.265625 14.25 L 8.265625 13.835938 Z M 6.597656 13.835938 "/>
<path style=" stroke:none;fill-rule:nonzero;fill:rgb(83.92157%,8.235294%,9.019608%);fill-opacity:1;" d="M 31.828125 13.835938 L 31.828125 14.25 L 33.496094 14.25 L 33.496094 13.835938 Z M 31.828125 13.835938 "/>
<path style=" stroke:none;fill-rule:nonzero;fill:rgb(83.92157%,8.235294%,9.019608%);fill-opacity:1;" d="M 9.957031 14.269531 Z M 8.367188 13.929688 L 8.367188 14.277344 L 9.984375 14.277344 L 9.984375 13.9375 L 8.367188 13.929688 "/>
<path style=" stroke:none;fill-rule:nonzero;fill:rgb(83.92157%,8.235294%,9.019608%);fill-opacity:1;" d="M 13.515625 14.308594 Z M 12.132812 14.015625 L 12.132812 14.3125 L 13.539062 14.3125 L 13.539062 14.023438 L 12.132812 14.015625 "/>
<path style=" stroke:none;fill-rule:nonzero;fill:rgb(100%,100%,100%);fill-opacity:1;" d="M 15.878906 14.402344 Z M 15.476562 13.574219 L 15.476562 14.417969 L 15.886719 14.417969 L 15.886719 13.589844 L 15.476562 13.574219 "/>
<path style=" stroke:none;fill-rule:nonzero;fill:rgb(83.92157%,8.235294%,9.019608%);fill-opacity:1;" d="M 9.710938 13.757812 Z M 8.328125 12.734375 L 8.328125 13.78125 L 9.734375 13.78125 L 9.734375 12.757812 L 8.328125 12.734375 "/>
<path style=" stroke:none;fill-rule:nonzero;fill:rgb(83.92157%,8.235294%,9.019608%);fill-opacity:1;" d="M 10.539062 13.757812 Z M 9.824219 12.769531 L 9.824219 13.78125 L 10.550781 13.78125 L 10.550781 12.792969 L 9.824219 12.769531 "/>
<path style=" stroke:none;fill-rule:nonzero;fill:rgb(83.92157%,8.235294%,9.019608%);fill-opacity:1;" d="M 14.621094 13.859375 Z M 13.378906 12.699219 L 13.378906 13.886719 L 14.640625 13.886719 L 14.640625 12.726562 L 13.378906 12.699219 "/>
<path style=" stroke:none;fill-rule:nonzero;fill:rgb(83.92157%,8.235294%,9.019608%);fill-opacity:1;" d="M 13.136719 13.765625 Z M 12.171875 12.75 L 12.171875 13.785156 L 13.15625 13.785156 L 13.15625 12.773438 L 12.171875 12.75 "/>
<path style=" stroke:none;fill-rule:nonzero;fill:rgb(63.137257%,6.27451%,6.666667%);fill-opacity:1;" d="M 15.078125 14.195312 Z M 13.523438 13.679688 L 13.523438 14.207031 L 15.105469 14.207031 L 15.105469 13.691406 L 13.523438 13.679688 "/>
<path style=" stroke:none;fill-rule:nonzero;fill:rgb(63.137257%,6.27451%,6.666667%);fill-opacity:1;" d="M 23.050781 13.574219 Z M 17.253906 8.382812 L 16.367188 7.804688 L 23.671875 7.804688 L 22.855469 8.453125 "/>
<path style=" stroke:none;fill-rule:nonzero;fill:rgb(83.92157%,8.235294%,9.019608%);fill-opacity:1;" d="M 16.476562 6.140625 L 16.476562 6.554688 L 18.355469 6.554688 L 18.355469 6.140625 Z M 16.476562 6.140625 "/>
<path style=" stroke:none;fill-rule:nonzero;fill:rgb(83.92157%,8.235294%,9.019608%);fill-opacity:1;" d="M 21.632812 6.175781 L 21.632812 6.589844 L 23.617188 6.589844 L 23.617188 6.175781 Z M 21.632812 6.175781 "/>
<path style=" stroke:none;fill-rule:nonzero;fill:rgb(83.92157%,8.235294%,9.019608%);fill-opacity:1;" d="M 22.515625 8.445312 Z M 17.292969 8.3125 L 17.292969 8.445312 L 22.609375 8.445312 L 22.609375 8.3125 L 17.292969 8.3125 "/>
<path style=" stroke:none;fill-rule:nonzero;fill:rgb(83.92157%,8.235294%,9.019608%);fill-opacity:1;" d="M 22.789062 8.371094 Z M 17.007812 8.238281 L 17.007812 8.375 L 22.890625 8.375 L 22.890625 8.242188 L 17.007812 8.238281 "/>
<path style=" stroke:none;fill-rule:nonzero;fill:rgb(83.92157%,8.235294%,9.019608%);fill-opacity:1;" d="M 23.035156 8.265625 Z M 16.96875 8.132812 L 16.96875 8.269531 L 23.140625 8.269531 L 23.140625 8.136719 L 16.96875 8.132812 "/>
<path style=" stroke:none;fill-rule:nonzero;fill:rgb(83.92157%,8.235294%,9.019608%);fill-opacity:1;" d="M 23.035156 8.265625 Z M 16.96875 8.132812 L 16.96875 8.269531 L 23.140625 8.269531 L 23.140625 8.136719 L 16.96875 8.132812 "/>
<path style=" stroke:none;fill-rule:nonzero;fill:rgb(83.92157%,8.235294%,9.019608%);fill-opacity:1;" d="M 23.207031 8.125 Z M 16.902344 7.992188 L 16.902344 8.125 L 23.320312 8.125 L 23.320312 7.992188 L 16.902344 7.992188 "/>
<path style=" stroke:none;fill-rule:nonzero;fill:rgb(83.92157%,8.235294%,9.019608%);fill-opacity:1;" d="M 18.992188 14.273438 Z M 17.753906 14 L 17.753906 14.277344 L 19.015625 14.277344 L 19.015625 14.007812 L 17.753906 14 "/>
<path style=" stroke:none;fill-rule:nonzero;fill:rgb(83.92157%,8.235294%,9.019608%);fill-opacity:1;" d="M 22.125 14.273438 Z M 21.058594 14 L 21.058594 14.277344 L 22.144531 14.277344 L 22.144531 14.007812 L 21.058594 14 "/>
<path style=" stroke:none;fill-rule:nonzero;fill:rgb(83.92157%,8.235294%,9.019608%);fill-opacity:1;" d="M 9.171875 18.117188 Z M 7.476562 16.382812 L 7.476562 18.152344 L 9.203125 18.152344 L 9.203125 16.421875 L 7.476562 16.382812 "/>
<path style=" stroke:none;fill-rule:nonzero;fill:rgb(83.92157%,8.235294%,9.019608%);fill-opacity:1;" d="M 18.972656 13.863281 Z M 16.613281 12.792969 L 16.613281 13.886719 L 19.015625 13.886719 L 19.015625 12.816406 L 16.613281 12.792969 "/>
<path style=" stroke:none;fill-rule:nonzero;fill:rgb(83.92157%,8.235294%,9.019608%);fill-opacity:1;" d="M 23.636719 13.863281 Z M 21.636719 12.792969 L 21.636719 13.886719 L 23.671875 13.886719 L 23.671875 12.816406 L 21.636719 12.792969 "/>
<path style=" stroke:none;fill-rule:nonzero;fill:rgb(83.92157%,8.235294%,9.019608%);fill-opacity:1;" d="M 21.351562 13.863281 Z M 20.777344 12.792969 L 20.777344 13.886719 L 21.363281 13.886719 L 21.363281 12.816406 L 20.777344 12.792969 "/>
<path style=" stroke:none;fill-rule:nonzero;fill:rgb(63.137257%,6.27451%,6.666667%);fill-opacity:1;" d="M 17.710938 14.230469 Z M 16.402344 13.679688 L 16.402344 14.242188 L 17.734375 14.242188 L 17.734375 13.691406 L 16.402344 13.679688 "/>
<path style=" stroke:none;fill-rule:nonzero;fill:rgb(83.92157%,8.235294%,9.019608%);fill-opacity:1;" d="M 13.6875 13.835938 L 13.6875 14.285156 L 15.355469 14.285156 L 15.355469 13.835938 L 13.6875 13.835938 M 15.980469 13.835938 L 15.980469 14.285156 L 17.648438 14.285156 L 17.648438 13.835938 Z M 15.980469 13.835938 "/>
<path style=" stroke:none;fill-rule:nonzero;fill:rgb(63.137257%,6.27451%,6.666667%);fill-opacity:1;" d="M 23.75 14.230469 Z M 22.160156 13.714844 L 22.160156 14.242188 L 23.78125 14.242188 L 23.78125 13.726562 L 22.160156 13.714844 "/>
<path style=" stroke:none;fill-rule:nonzero;fill:rgb(83.92157%,8.235294%,9.019608%);fill-opacity:1;" d="M 12.910156 18.117188 Z M 9.425781 16.417969 L 9.425781 18.152344 L 12.96875 18.152344 L 12.96875 16.457031 L 9.425781 16.417969 "/>
<path style=" stroke:none;fill-rule:nonzero;fill:rgb(83.92157%,8.235294%,9.019608%);fill-opacity:1;" d="M 14.929688 18.117188 Z M 13.128906 16.417969 L 13.128906 18.152344 L 14.960938 18.152344 L 14.960938 16.457031 L 13.128906 16.417969 "/>
<path style=" stroke:none;fill-rule:nonzero;fill:rgb(83.92157%,8.235294%,9.019608%);fill-opacity:1;" d="M 19.921875 12.621094 Z M 16.792969 11.6875 L 16.792969 12.640625 L 19.976562 12.640625 L 19.976562 11.710938 L 16.792969 11.6875 "/>
<path style=" stroke:none;fill-rule:nonzero;fill:rgb(83.92157%,8.235294%,9.019608%);fill-opacity:1;" d="M 23.296875 12.65625 Z M 20.171875 11.722656 L 20.171875 12.675781 L 23.351562 12.675781 L 23.351562 11.746094 L 20.171875 11.722656 "/>
<path style=" stroke:none;fill-rule:evenodd;fill:rgb(63.137257%,6.27451%,6.666667%);fill-opacity:1;" d="M 13.183594 6.949219 L 15.03125 6.949219 L 15.03125 7.484375 L 13.183594 7.484375 Z M 13.183594 6.949219 "/>
<path style=" stroke:none;fill-rule:evenodd;fill:rgb(63.137257%,6.27451%,6.666667%);fill-opacity:1;" d="M 10.480469 6.914062 L 12.542969 6.914062 L 12.542969 7.519531 L 10.480469 7.519531 Z M 10.480469 6.914062 "/>
<path style=" stroke:none;fill-rule:evenodd;fill:rgb(63.137257%,6.27451%,6.666667%);fill-opacity:1;" d="M 8.203125 6.949219 L 9.839844 6.949219 L 9.839844 7.484375 L 8.203125 7.484375 Z M 8.203125 6.949219 "/>
<path style=" stroke:none;fill-rule:nonzero;fill:rgb(63.137257%,6.27451%,6.666667%);fill-opacity:1;" d="M 14.808594 8.535156 Z M 8.824219 9.378906 L 8.1875 8.480469 L 15.03125 8.515625 L 14.214844 9.265625 "/>
<path style=" stroke:none;fill-rule:nonzero;fill:rgb(83.92157%,8.235294%,9.019608%);fill-opacity:1;" d="M 8.265625 8.011719 L 8.265625 8.425781 L 9.726562 8.425781 L 9.726562 8.011719 L 8.265625 8.011719 M 9.933594 8.011719 L 9.933594 8.425781 L 13.269531 8.425781 L 13.269531 8.011719 L 9.933594 8.011719 M 13.480469 8.011719 L 13.480469 8.425781 L 14.9375 8.425781 L 14.9375 8.011719 Z M 13.480469 8.011719 "/>
<path style=" stroke:none;fill-rule:nonzero;fill:rgb(83.92157%,8.235294%,9.019608%);fill-opacity:1;" d="M 8.265625 7.042969 L 8.265625 7.40625 L 9.726562 7.40625 L 9.726562 7.042969 L 8.265625 7.042969 M 10.558594 7.042969 L 10.558594 7.40625 L 12.4375 7.40625 L 12.4375 7.042969 Z M 10.558594 7.042969 "/>
<path style=" stroke:none;fill-rule:nonzero;fill:rgb(83.92157%,8.235294%,9.019608%);fill-opacity:1;" d="M 13.269531 7.078125 L 13.269531 7.394531 L 14.9375 7.394531 L 14.9375 7.078125 Z M 13.269531 7.078125 "/>
<path style=" stroke:none;fill-rule:evenodd;fill:rgb(63.137257%,6.27451%,6.666667%);fill-opacity:1;" d="M 8.203125 7.484375 L 15.03125 7.484375 L 15.03125 8.550781 L 8.203125 8.550781 Z M 8.203125 7.484375 "/>
<path style=" stroke:none;fill-rule:nonzero;fill:rgb(83.92157%,8.235294%,9.019608%);fill-opacity:1;" d="M 11.117188 12.515625 Z M 8.472656 11.703125 L 8.472656 12.535156 L 11.164062 12.535156 L 11.164062 11.722656 L 8.472656 11.703125 "/>
<path style=" stroke:none;fill-rule:nonzero;fill:rgb(83.92157%,8.235294%,9.019608%);fill-opacity:1;" d="M 14.445312 12.515625 Z M 11.335938 11.703125 L 11.335938 12.535156 L 14.5 12.535156 L 14.5 11.722656 L 11.335938 11.703125 "/>
<path style=" stroke:none;fill-rule:nonzero;fill:rgb(83.92157%,8.235294%,9.019608%);fill-opacity:1;" d="M 11.457031 7.90625 Z M 8.292969 7.601562 L 8.292969 7.914062 L 11.511719 7.914062 L 11.511719 7.605469 L 8.292969 7.601562 "/>
<path style=" stroke:none;fill-rule:nonzero;fill:rgb(83.92157%,8.235294%,9.019608%);fill-opacity:1;" d="M 9.75 11.484375 Z M 8.613281 10.621094 L 8.613281 11.503906 L 9.769531 11.503906 L 9.769531 10.640625 L 8.613281 10.621094 "/>
<path style=" stroke:none;fill-rule:nonzero;fill:rgb(83.92157%,8.235294%,9.019608%);fill-opacity:1;" d="M 13.0625 11.488281 Z M 9.996094 10.722656 L 9.996094 11.503906 L 13.117188 11.503906 L 13.117188 10.738281 L 9.996094 10.722656 "/>
<path style=" stroke:none;fill-rule:nonzero;fill:rgb(83.92157%,8.235294%,9.019608%);fill-opacity:1;" d="M 14.339844 11.519531 Z M 13.34375 10.65625 L 13.34375 11.539062 L 14.359375 11.539062 L 14.359375 10.675781 L 13.34375 10.65625 "/>
<path style=" stroke:none;fill-rule:nonzero;fill:rgb(83.92157%,8.235294%,9.019608%);fill-opacity:1;" d="M 11.332031 10.527344 Z M 8.757812 9.761719 L 8.757812 10.542969 L 11.375 10.542969 L 11.375 9.78125 L 8.757812 9.761719 "/>
<path style=" stroke:none;fill-rule:nonzero;fill:rgb(83.92157%,8.235294%,9.019608%);fill-opacity:1;" d="M 14.203125 10.527344 Z M 11.601562 9.761719 L 11.601562 10.542969 L 14.25 10.542969 L 14.25 9.78125 L 11.601562 9.761719 "/>
<path style=" stroke:none;fill-rule:nonzero;fill:rgb(83.92157%,8.235294%,9.019608%);fill-opacity:1;" d="M 13.402344 9.578125 Z M 9.574219 9.269531 L 9.574219 9.585938 L 13.46875 9.585938 L 13.46875 9.277344 L 9.574219 9.269531 "/>
<path style=" stroke:none;fill-rule:nonzero;fill:rgb(83.92157%,8.235294%,9.019608%);fill-opacity:1;" d="M 14.097656 9.578125 Z M 13.554688 9.269531 L 13.554688 9.585938 L 14.109375 9.585938 L 14.109375 9.277344 L 13.554688 9.269531 "/>
<path style=" stroke:none;fill-rule:nonzero;fill:rgb(83.92157%,8.235294%,9.019608%);fill-opacity:1;" d="M 9.4375 9.578125 Z M 8.828125 9.269531 L 8.828125 9.585938 L 9.449219 9.585938 L 9.449219 9.277344 L 8.828125 9.269531 "/>
<path style=" stroke:none;fill-rule:nonzero;fill:rgb(83.92157%,8.235294%,9.019608%);fill-opacity:1;" d="M 14.90625 7.90625 Z M 11.738281 7.601562 L 11.738281 7.914062 L 14.960938 7.914062 L 14.960938 7.605469 L 11.738281 7.601562 "/>
<path style=" stroke:none;fill-rule:nonzero;fill:rgb(83.92157%,8.235294%,9.019608%);fill-opacity:1;" d="M 9.886719 8.578125 Z M 8.328125 8.140625 L 8.328125 8.589844 L 9.914062 8.589844 L 9.914062 8.152344 L 8.328125 8.140625 "/>
<path style=" stroke:none;fill-rule:nonzero;fill:rgb(83.92157%,8.235294%,9.019608%);fill-opacity:1;" d="M 13.027344 8.527344 Z M 10.273438 8.125 L 10.273438 8.539062 L 13.078125 8.539062 L 13.078125 8.136719 L 10.273438 8.125 "/>
<path style=" stroke:none;fill-rule:nonzero;fill:rgb(83.92157%,8.235294%,9.019608%);fill-opacity:1;" d="M 14.898438 8.53125 Z M 13.351562 8.140625 L 13.351562 8.539062 L 14.925781 8.539062 L 14.925781 8.152344 L 13.351562 8.140625 "/>
<path style=" stroke:none;fill-rule:nonzero;fill:rgb(83.92157%,8.235294%,9.019608%);fill-opacity:1;" d="M 13.980469 9.105469 Z M 8.757812 8.988281 L 8.757812 9.105469 L 14.074219 9.105469 L 14.074219 8.988281 L 8.757812 8.988281 "/>
<path style=" stroke:none;fill-rule:nonzero;fill:rgb(83.92157%,8.235294%,9.019608%);fill-opacity:1;" d="M 14.257812 9.042969 Z M 8.472656 8.921875 L 8.472656 9.042969 L 14.359375 9.042969 L 14.359375 8.925781 L 8.472656 8.921875 "/>
<path style=" stroke:none;fill-rule:nonzero;fill:rgb(83.92157%,8.235294%,9.019608%);fill-opacity:1;" d="M 14.5 8.945312 Z M 8.4375 8.828125 L 8.4375 8.949219 L 14.605469 8.949219 L 14.605469 8.832031 L 8.4375 8.828125 "/>
<path style=" stroke:none;fill-rule:nonzero;fill:rgb(83.92157%,8.235294%,9.019608%);fill-opacity:1;" d="M 14.5 8.945312 Z M 8.4375 8.828125 L 8.4375 8.949219 L 14.605469 8.949219 L 14.605469 8.832031 L 8.4375 8.828125 "/>
<path style=" stroke:none;fill-rule:nonzero;fill:rgb(83.92157%,8.235294%,9.019608%);fill-opacity:1;" d="M 14.675781 8.820312 Z M 8.367188 8.703125 L 8.367188 8.824219 L 14.785156 8.824219 L 14.785156 8.703125 L 8.367188 8.703125 "/>
<path style=" stroke:none;fill-rule:nonzero;fill:rgb(83.92157%,8.235294%,9.019608%);fill-opacity:1;" d="M 27.671875 14.269531 Z M 26.5 13.964844 L 26.5 14.277344 L 27.691406 14.277344 L 27.691406 13.972656 L 26.5 13.964844 "/>
<path style=" stroke:none;fill-rule:nonzero;fill:rgb(83.92157%,8.235294%,9.019608%);fill-opacity:1;" d="M 31.605469 14.234375 Z M 29.84375 13.929688 L 29.84375 14.242188 L 31.636719 14.242188 L 31.636719 13.9375 L 29.84375 13.929688 "/>
<path style=" stroke:none;fill-rule:nonzero;fill:rgb(83.92157%,8.235294%,9.019608%);fill-opacity:1;" d="M 31.789062 13.792969 Z M 30.210938 12.832031 L 30.210938 13.816406 L 31.816406 13.816406 L 31.816406 12.855469 L 30.210938 12.832031 "/>
<path style=" stroke:none;fill-rule:nonzero;fill:rgb(83.92157%,8.235294%,9.019608%);fill-opacity:1;" d="M 29.992188 13.792969 Z M 29.347656 12.796875 L 29.347656 13.816406 L 30.003906 13.816406 L 30.003906 12.820312 L 29.347656 12.796875 "/>
<path style=" stroke:none;fill-rule:nonzero;fill:rgb(83.92157%,8.235294%,9.019608%);fill-opacity:1;" d="M 26.601562 13.828125 Z M 25.289062 12.761719 L 25.289062 13.851562 L 26.625 13.851562 L 26.625 12.785156 L 25.289062 12.761719 "/>
<path style=" stroke:none;fill-rule:nonzero;fill:rgb(83.92157%,8.235294%,9.019608%);fill-opacity:1;" d="M 27.675781 13.828125 Z M 26.847656 12.746094 L 26.847656 13.851562 L 27.691406 13.851562 L 27.691406 12.769531 L 26.847656 12.746094 "/>
<path style=" stroke:none;fill-rule:nonzero;fill:rgb(63.137257%,6.27451%,6.666667%);fill-opacity:1;" d="M 26.457031 14.300781 Z M 25.078125 13.679688 L 25.078125 14.3125 L 26.480469 14.3125 L 26.480469 13.695312 L 25.078125 13.679688 "/>
<path style=" stroke:none;fill-rule:nonzero;fill:rgb(83.92157%,8.235294%,9.019608%);fill-opacity:1;" d="M 22.308594 13.835938 L 22.308594 14.285156 L 24.152344 14.285156 L 24.152344 13.835938 L 22.308594 13.835938 M 24.765625 13.835938 L 24.765625 14.285156 L 26.40625 14.285156 L 26.40625 13.835938 Z M 24.765625 13.835938 "/>
<path style=" stroke:none;fill-rule:nonzero;fill:rgb(83.92157%,8.235294%,9.019608%);fill-opacity:1;" d="M 23.300781 12.65625 Z M 20.320312 11.722656 L 20.320312 12.675781 L 23.355469 12.675781 L 23.355469 11.746094 L 20.320312 11.722656 "/>
<path style=" stroke:none;fill-rule:evenodd;fill:rgb(63.137257%,6.27451%,6.666667%);fill-opacity:1;" d="M 30.285156 6.941406 L 32.136719 6.941406 L 32.136719 7.476562 L 30.285156 7.476562 Z M 30.285156 6.941406 "/>
<path style=" stroke:none;fill-rule:evenodd;fill:rgb(63.137257%,6.27451%,6.666667%);fill-opacity:1;" d="M 27.582031 6.90625 L 29.644531 6.90625 L 29.644531 7.511719 L 27.582031 7.511719 Z M 27.582031 6.90625 "/>
<path style=" stroke:none;fill-rule:evenodd;fill:rgb(63.137257%,6.27451%,6.666667%);fill-opacity:1;" d="M 25.308594 6.941406 L 26.945312 6.941406 L 26.945312 7.476562 L 25.308594 7.476562 Z M 25.308594 6.941406 "/>
<path style=" stroke:none;fill-rule:nonzero;fill:rgb(63.137257%,6.27451%,6.666667%);fill-opacity:1;" d="M 31.914062 8.527344 Z M 25.925781 9.371094 L 25.292969 8.472656 L 32.136719 8.507812 L 31.316406 9.257812 "/>
<path style=" stroke:none;fill-rule:nonzero;fill:rgb(83.92157%,8.235294%,9.019608%);fill-opacity:1;" d="M 25.367188 8.003906 L 25.367188 8.417969 L 26.828125 8.417969 L 26.828125 8.003906 L 25.367188 8.003906 M 27.035156 8.003906 L 27.035156 8.417969 L 30.375 8.417969 L 30.375 8.003906 L 27.035156 8.003906 M 30.582031 8.003906 L 30.582031 8.417969 L 32.042969 8.417969 L 32.042969 8.003906 Z M 30.582031 8.003906 "/>
<path style=" stroke:none;fill-rule:nonzero;fill:rgb(83.92157%,8.235294%,9.019608%);fill-opacity:1;" d="M 25.367188 7.035156 L 25.367188 7.347656 L 26.828125 7.347656 L 26.828125 7.035156 L 25.367188 7.035156 M 27.664062 7.035156 L 27.664062 7.347656 L 29.539062 7.347656 L 29.539062 7.035156 Z M 27.664062 7.035156 "/>
<path style=" stroke:none;fill-rule:nonzero;fill:rgb(83.92157%,8.235294%,9.019608%);fill-opacity:1;" d="M 30.375 7.070312 L 30.375 7.335938 L 32.042969 7.335938 L 32.042969 7.070312 Z M 30.375 7.070312 "/>
<path style=" stroke:none;fill-rule:evenodd;fill:rgb(63.137257%,6.27451%,6.666667%);fill-opacity:1;" d="M 25.308594 7.476562 L 32.136719 7.476562 L 32.136719 8.542969 L 25.308594 8.542969 Z M 25.308594 7.476562 "/>
<path style=" stroke:none;fill-rule:nonzero;fill:rgb(83.92157%,8.235294%,9.019608%);fill-opacity:1;" d="M 28.269531 12.507812 Z M 25.503906 11.644531 L 25.503906 12.527344 L 28.316406 12.527344 L 28.316406 11.664062 L 25.503906 11.644531 "/>
<path style=" stroke:none;fill-rule:nonzero;fill:rgb(83.92157%,8.235294%,9.019608%);fill-opacity:1;" d="M 31.550781 12.507812 Z M 28.578125 11.644531 L 28.578125 12.527344 L 31.601562 12.527344 L 31.601562 11.664062 L 28.578125 11.644531 "/>
<path style=" stroke:none;fill-rule:nonzero;fill:rgb(83.92157%,8.235294%,9.019608%);fill-opacity:1;" d="M 28.363281 7.898438 Z M 25.398438 7.589844 L 25.398438 7.90625 L 28.414062 7.90625 L 28.414062 7.597656 L 25.398438 7.589844 "/>
<path style=" stroke:none;fill-rule:nonzero;fill:rgb(83.92157%,8.235294%,9.019608%);fill-opacity:1;" d="M 26.855469 11.476562 Z M 25.71875 10.613281 L 25.71875 11.496094 L 26.875 11.496094 L 26.875 10.632812 L 25.71875 10.613281 "/>
<path style=" stroke:none;fill-rule:nonzero;fill:rgb(83.92157%,8.235294%,9.019608%);fill-opacity:1;" d="M 30.167969 11.476562 Z M 27.148438 10.613281 L 27.148438 11.496094 L 30.222656 11.496094 L 30.222656 10.632812 L 27.148438 10.613281 "/>
<path style=" stroke:none;fill-rule:nonzero;fill:rgb(83.92157%,8.235294%,9.019608%);fill-opacity:1;" d="M 31.441406 11.511719 Z M 30.445312 10.648438 L 30.445312 11.53125 L 31.460938 11.53125 L 31.460938 10.667969 L 30.445312 10.648438 "/>
<path style=" stroke:none;fill-rule:nonzero;fill:rgb(83.92157%,8.235294%,9.019608%);fill-opacity:1;" d="M 28.484375 10.421875 Z M 25.859375 9.804688 L 25.859375 10.433594 L 28.53125 10.433594 L 28.53125 9.816406 L 25.859375 9.804688 "/>
<path style=" stroke:none;fill-rule:nonzero;fill:rgb(83.92157%,8.235294%,9.019608%);fill-opacity:1;" d="M 31.308594 10.421875 Z M 28.753906 9.804688 L 28.753906 10.433594 L 31.355469 10.433594 L 31.355469 9.816406 L 28.753906 9.804688 "/>
<path style=" stroke:none;fill-rule:nonzero;fill:rgb(83.92157%,8.235294%,9.019608%);fill-opacity:1;" d="M 30.503906 9.570312 Z M 26.679688 9.261719 L 26.679688 9.574219 L 30.570312 9.574219 L 30.570312 9.269531 L 26.679688 9.261719 "/>
<path style=" stroke:none;fill-rule:nonzero;fill:rgb(83.92157%,8.235294%,9.019608%);fill-opacity:1;" d="M 31.203125 9.570312 Z M 30.660156 9.261719 L 30.660156 9.574219 L 31.210938 9.574219 L 31.210938 9.269531 L 30.660156 9.261719 "/>
<path style=" stroke:none;fill-rule:nonzero;fill:rgb(83.92157%,8.235294%,9.019608%);fill-opacity:1;" d="M 26.542969 9.570312 Z M 25.929688 9.261719 L 25.929688 9.574219 L 26.554688 9.574219 L 26.554688 9.269531 L 25.929688 9.261719 "/>
<path style=" stroke:none;fill-rule:nonzero;fill:rgb(83.92157%,8.235294%,9.019608%);fill-opacity:1;" d="M 32.007812 7.898438 Z M 28.738281 7.589844 L 28.738281 7.90625 L 32.066406 7.90625 L 32.066406 7.597656 L 28.738281 7.589844 "/>
<path style=" stroke:none;fill-rule:nonzero;fill:rgb(83.92157%,8.235294%,9.019608%);fill-opacity:1;" d="M 26.890625 8.46875 Z M 25.433594 7.984375 L 25.433594 8.480469 L 26.914062 8.480469 L 26.914062 7.992188 L 25.433594 7.984375 "/>
<path style=" stroke:none;fill-rule:nonzero;fill:rgb(83.92157%,8.235294%,9.019608%);fill-opacity:1;" d="M 30.03125 8.46875 Z M 27.175781 8.019531 L 27.175781 8.480469 L 30.082031 8.480469 L 30.082031 8.027344 L 27.175781 8.019531 "/>
<path style=" stroke:none;fill-rule:nonzero;fill:rgb(83.92157%,8.235294%,9.019608%);fill-opacity:1;" d="M 32 8.46875 Z M 30.304688 8.03125 L 30.304688 8.480469 L 32.03125 8.480469 L 32.03125 8.042969 L 30.304688 8.03125 "/>
<path style=" stroke:none;fill-rule:nonzero;fill:rgb(83.92157%,8.235294%,9.019608%);fill-opacity:1;" d="M 31.085938 9.097656 Z M 25.859375 8.976562 L 25.859375 9.097656 L 31.175781 9.097656 L 31.175781 8.980469 L 25.859375 8.976562 "/>
<path style=" stroke:none;fill-rule:nonzero;fill:rgb(83.92157%,8.235294%,9.019608%);fill-opacity:1;" d="M 31.359375 9.03125 Z M 25.574219 8.914062 L 25.574219 9.035156 L 31.460938 9.035156 L 31.460938 8.917969 L 25.574219 8.914062 "/>
<path style=" stroke:none;fill-rule:nonzero;fill:rgb(83.92157%,8.235294%,9.019608%);fill-opacity:1;" d="M 31.601562 8.9375 Z M 25.539062 8.820312 L 25.539062 8.941406 L 31.710938 8.941406 L 31.710938 8.824219 L 25.539062 8.820312 "/>
<path style=" stroke:none;fill-rule:nonzero;fill:rgb(83.92157%,8.235294%,9.019608%);fill-opacity:1;" d="M 31.601562 8.9375 Z M 25.539062 8.820312 L 25.539062 8.941406 L 31.710938 8.941406 L 31.710938 8.824219 L 25.539062 8.820312 "/>
<path style=" stroke:none;fill-rule:nonzero;fill:rgb(83.92157%,8.235294%,9.019608%);fill-opacity:1;" d="M 31.777344 8.8125 Z M 25.46875 8.695312 L 25.46875 8.8125 L 31.886719 8.8125 L 31.886719 8.695312 L 25.46875 8.695312 "/>
<path style=" stroke:none;fill-rule:nonzero;fill:rgb(83.92157%,8.235294%,9.019608%);fill-opacity:1;" d="M 31.085938 8.996094 Z M 25.859375 8.96875 L 25.859375 8.996094 L 31.175781 8.996094 L 31.175781 8.96875 L 25.859375 8.96875 "/>
<path style=" stroke:none;fill-rule:nonzero;fill:rgb(83.92157%,8.235294%,9.019608%);fill-opacity:1;" d="M 31.359375 8.980469 Z M 25.574219 8.949219 L 25.574219 8.980469 L 31.460938 8.980469 L 31.460938 8.953125 L 25.574219 8.949219 "/>
<path style=" stroke:none;fill-rule:nonzero;fill:rgb(83.92157%,8.235294%,9.019608%);fill-opacity:1;" d="M 31.601562 8.957031 Z M 25.539062 8.925781 L 25.539062 8.957031 L 31.710938 8.957031 L 31.710938 8.925781 L 25.539062 8.925781 "/>
<path style=" stroke:none;fill-rule:nonzero;fill:rgb(83.92157%,8.235294%,9.019608%);fill-opacity:1;" d="M 31.601562 8.957031 Z M 25.539062 8.925781 L 25.539062 8.957031 L 31.710938 8.957031 L 31.710938 8.925781 L 25.539062 8.925781 "/>
<path style=" stroke:none;fill-rule:nonzero;fill:rgb(83.92157%,8.235294%,9.019608%);fill-opacity:1;" d="M 31.777344 8.925781 Z M 25.46875 8.894531 L 25.46875 8.925781 L 31.886719 8.925781 L 31.886719 8.894531 L 25.46875 8.894531 "/>
<path style=" stroke:none;fill-rule:evenodd;fill:rgb(50.196081%,50.196081%,50.196081%);fill-opacity:1;" d="M 18.128906 36.140625 L 19.6875 36.140625 L 19.6875 38.402344 L 18.128906 38.402344 Z M 18.128906 36.140625 "/>
<path style=" stroke:none;fill-rule:evenodd;fill:rgb(100%,77.254903%,0%);fill-opacity:1;" d="M 18.332031 36.292969 L 19.6875 36.292969 L 19.6875 38.253906 L 18.332031 38.253906 Z M 18.332031 36.292969 "/>
<path style=" stroke:none;fill-rule:evenodd;fill:rgb(50.196081%,50.196081%,50.196081%);fill-opacity:1;" d="M 18.582031 36.695312 L 19.488281 36.695312 L 19.488281 38.050781 L 18.582031 38.050781 Z M 18.582031 36.695312 "/>
<path style=" stroke:none;fill-rule:evenodd;fill:rgb(83.92157%,8.235294%,9.019608%);fill-opacity:1;" d="M 18.785156 36.84375 L 19.335938 36.84375 L 19.335938 37.902344 L 18.785156 37.902344 Z M 18.785156 36.84375 "/>
<path style=" stroke:none;fill-rule:evenodd;fill:rgb(50.196081%,50.196081%,50.196081%);fill-opacity:1;" d="M 18.082031 37.046875 L 18.683594 37.046875 L 18.683594 37.75 L 18.082031 37.75 Z M 18.082031 37.046875 "/>
<path style=" stroke:none;fill-rule:evenodd;fill:rgb(83.92157%,8.235294%,9.019608%);fill-opacity:1;" d="M 18.082031 37.199219 L 18.734375 37.199219 L 18.734375 37.601562 L 18.082031 37.601562 Z M 18.082031 37.199219 "/>
<path style=" stroke:none;fill-rule:evenodd;fill:rgb(50.196081%,50.196081%,50.196081%);fill-opacity:1;" d="M 20.421875 39.296875 L 19.667969 39.296875 L 19.667969 33.414062 L 20.421875 33.414062 Z M 20.421875 39.296875 "/>
<path style=" stroke:none;fill-rule:evenodd;fill:rgb(100%,77.254903%,0%);fill-opacity:1;" d="M 20.269531 39.144531 L 19.816406 39.144531 L 19.816406 33.5625 L 20.269531 33.5625 Z M 20.269531 39.144531 "/>
<path style=" stroke:none;fill-rule:evenodd;fill:rgb(50.196081%,50.196081%,50.196081%);fill-opacity:1;" d="M 22.117188 31.835938 L 21.75 32.179688 L 19.78125 30.316406 L 20.148438 29.96875 Z M 22.117188 31.835938 "/>
<path style=" stroke:none;fill-rule:evenodd;fill:rgb(50.196081%,50.196081%,50.196081%);fill-opacity:1;" d="M 20.390625 33.757812 L 20.046875 33.378906 L 21.757812 31.503906 L 22.105469 31.882812 Z M 20.390625 33.757812 "/>
<path style=" stroke:none;fill-rule:evenodd;fill:rgb(100%,77.254903%,0%);fill-opacity:1;" d="M 19.871094 30.34375 L 20.167969 30.054688 L 22.03125 31.84375 L 21.734375 32.128906 Z M 19.871094 30.34375 "/>
<path style=" stroke:none;fill-rule:evenodd;fill:rgb(100%,77.254903%,0%);fill-opacity:1;" d="M 20.289062 33.765625 L 20.011719 33.460938 L 21.738281 31.550781 L 22.015625 31.855469 Z M 20.289062 33.765625 "/>
<path style=" stroke:none;fill-rule:evenodd;fill:rgb(50.196081%,50.196081%,50.196081%);fill-opacity:1;" d="M 18.035156 32.074219 L 18.382812 31.734375 L 20.097656 33.417969 L 19.75 33.757812 Z M 18.035156 32.074219 "/>
<path style=" stroke:none;fill-rule:evenodd;fill:rgb(50.196081%,50.196081%,50.196081%);fill-opacity:1;" d="M 19.910156 29.988281 L 20.285156 30.351562 L 18.273438 32.304688 L 17.898438 31.941406 Z M 19.910156 29.988281 "/>
<path style=" stroke:none;fill-rule:evenodd;fill:rgb(100%,77.254903%,0%);fill-opacity:1;" d="M 18.382812 32.148438 L 18.089844 31.855469 L 19.910156 30.039062 L 20.203125 30.332031 Z M 18.382812 32.148438 "/>
<path style=" stroke:none;fill-rule:evenodd;fill:rgb(50.196081%,50.196081%,50.196081%);fill-opacity:1;" d="M 19.855469 26.265625 L 20.257812 26.265625 L 20.257812 31.125 L 19.855469 31.125 Z M 19.855469 26.265625 "/>
<path style=" stroke:none;fill-rule:evenodd;fill:rgb(100%,77.254903%,0%);fill-opacity:1;" d="M 19.921875 26.332031 L 20.199219 26.332031 L 20.199219 31.027344 L 19.921875 31.027344 Z M 19.921875 26.332031 "/>
<path style=" stroke:none;fill-rule:evenodd;fill:rgb(100%,77.254903%,0%);fill-opacity:1;" d="M 18.003906 31.949219 L 18.3125 31.636719 L 20.253906 33.578125 L 19.941406 33.890625 Z M 18.003906 31.949219 "/>
<path style=" stroke:none;fill-rule:evenodd;fill:rgb(63.137257%,6.27451%,6.666667%);fill-opacity:1;" d="M 27.113281 22.164062 L 30.652344 22.164062 L 30.652344 25.820312 L 27.113281 25.820312 Z M 27.113281 22.164062 "/>
<path style=" stroke:none;fill-rule:evenodd;fill:rgb(63.137257%,6.27451%,6.666667%);fill-opacity:1;" d="M 28.886719 20.707031 C 29.855469 20.707031 30.644531 21.382812 30.644531 22.214844 C 30.644531 23.050781 29.855469 23.726562 28.886719 23.726562 C 27.914062 23.726562 27.128906 23.050781 27.128906 22.214844 C 27.128906 21.382812 27.914062 20.707031 28.886719 20.707031 Z M 28.886719 20.707031 "/>
<path style=" stroke:none;fill-rule:evenodd;fill:rgb(83.92157%,8.235294%,9.019608%);fill-opacity:1;" d="M 27.242188 22.292969 L 30.59375 22.292969 L 30.59375 25.820312 L 27.242188 25.820312 Z M 27.242188 22.292969 "/>
<path style=" stroke:none;fill-rule:evenodd;fill:rgb(83.92157%,8.235294%,9.019608%);fill-opacity:1;" d="M 28.917969 20.882812 C 29.835938 20.882812 30.582031 21.535156 30.582031 22.339844 C 30.582031 23.144531 29.835938 23.796875 28.917969 23.796875 C 28 23.796875 27.253906 23.144531 27.253906 22.339844 C 27.253906 21.535156 28 20.882812 28.917969 20.882812 Z M 28.917969 20.882812 "/>
<path style=" stroke:none;fill-rule:evenodd;fill:rgb(63.137257%,6.27451%,6.666667%);fill-opacity:1;" d="M 27.667969 22.507812 L 30.164062 22.507812 L 30.164062 25.820312 L 27.667969 25.820312 Z M 27.667969 22.507812 "/>
<path style=" stroke:none;fill-rule:evenodd;fill:rgb(63.137257%,6.27451%,6.666667%);fill-opacity:1;" d="M 28.917969 21.183594 C 29.601562 21.183594 30.15625 21.796875 30.15625 22.554688 C 30.15625 23.308594 29.601562 23.921875 28.917969 23.921875 C 28.234375 23.921875 27.679688 23.308594 27.679688 22.554688 C 27.679688 21.796875 28.234375 21.183594 28.917969 21.183594 Z M 28.917969 21.183594 "/>
<path style=" stroke:none;fill-rule:evenodd;fill:rgb(83.92157%,8.235294%,9.019608%);fill-opacity:1;" d="M 27.8125 22.597656 L 30 22.597656 L 30 25.757812 L 27.8125 25.757812 Z M 27.8125 22.597656 "/>
<path style=" stroke:none;fill-rule:evenodd;fill:rgb(83.92157%,8.235294%,9.019608%);fill-opacity:1;" d="M 28.90625 21.335938 C 29.507812 21.335938 29.996094 21.917969 29.996094 22.640625 C 29.996094 23.359375 29.507812 23.945312 28.90625 23.945312 C 28.308594 23.945312 27.820312 23.359375 27.820312 22.640625 C 27.820312 21.917969 28.308594 21.335938 28.90625 21.335938 Z M 28.90625 21.335938 "/>
<path style=" stroke:none;fill-rule:evenodd;fill:rgb(63.137257%,6.27451%,6.666667%);fill-opacity:1;" d="M 18.089844 22.082031 L 21.730469 22.082031 L 21.730469 25.738281 L 18.089844 25.738281 Z M 18.089844 22.082031 "/>
<path style=" stroke:none;fill-rule:evenodd;fill:rgb(63.137257%,6.27451%,6.666667%);fill-opacity:1;" d="M 19.910156 20.625 C 20.910156 20.625 21.71875 21.300781 21.71875 22.132812 C 21.71875 22.96875 20.910156 23.644531 19.910156 23.644531 C 18.914062 23.644531 18.105469 22.96875 18.105469 22.132812 C 18.105469 21.300781 18.914062 20.625 19.910156 20.625 Z M 19.910156 20.625 "/>
<path style=" stroke:none;fill-rule:evenodd;fill:rgb(83.92157%,8.235294%,9.019608%);fill-opacity:1;" d="M 18.21875 22.210938 L 21.667969 22.210938 L 21.667969 25.738281 L 18.21875 25.738281 Z M 18.21875 22.210938 "/>
<path style=" stroke:none;fill-rule:evenodd;fill:rgb(83.92157%,8.235294%,9.019608%);fill-opacity:1;" d="M 19.945312 20.800781 C 20.890625 20.800781 21.65625 21.453125 21.65625 22.257812 C 21.65625 23.0625 20.890625 23.714844 19.945312 23.714844 C 19 23.714844 18.234375 23.0625 18.234375 22.257812 C 18.234375 21.453125 19 20.800781 19.945312 20.800781 Z M 19.945312 20.800781 "/>
<path style=" stroke:none;fill-rule:evenodd;fill:rgb(63.137257%,6.27451%,6.666667%);fill-opacity:1;" d="M 18.65625 22.425781 L 21.226562 22.425781 L 21.226562 25.738281 L 18.65625 25.738281 Z M 18.65625 22.425781 "/>
<path style=" stroke:none;fill-rule:evenodd;fill:rgb(63.137257%,6.27451%,6.666667%);fill-opacity:1;" d="M 19.941406 21.101562 C 20.648438 21.101562 21.21875 21.714844 21.21875 22.472656 C 21.21875 23.226562 20.648438 23.839844 19.941406 23.839844 C 19.238281 23.839844 18.667969 23.226562 18.667969 22.472656 C 18.667969 21.714844 19.238281 21.101562 19.941406 21.101562 Z M 19.941406 21.101562 "/>
<path style=" stroke:none;fill-rule:evenodd;fill:rgb(83.92157%,8.235294%,9.019608%);fill-opacity:1;" d="M 18.804688 22.515625 L 21.058594 22.515625 L 21.058594 25.675781 L 18.804688 25.675781 Z M 18.804688 22.515625 "/>
<path style=" stroke:none;fill-rule:evenodd;fill:rgb(83.92157%,8.235294%,9.019608%);fill-opacity:1;" d="M 19.933594 21.253906 C 20.550781 21.253906 21.050781 21.839844 21.050781 22.558594 C 21.050781 23.28125 20.550781 23.863281 19.933594 23.863281 C 19.316406 23.863281 18.8125 23.28125 18.8125 22.558594 C 18.8125 21.839844 19.316406 21.253906 19.933594 21.253906 Z M 19.933594 21.253906 "/>
<path style=" stroke:none;fill-rule:evenodd;fill:rgb(63.137257%,6.27451%,6.666667%);fill-opacity:1;" d="M 9.390625 22.09375 L 12.980469 22.09375 L 12.980469 25.75 L 9.390625 25.75 Z M 9.390625 22.09375 "/>
<path style=" stroke:none;fill-rule:evenodd;fill:rgb(63.137257%,6.27451%,6.666667%);fill-opacity:1;" d="M 11.1875 20.636719 C 12.171875 20.636719 12.96875 21.3125 12.96875 22.148438 C 12.96875 22.980469 12.171875 23.65625 11.1875 23.65625 C 10.203125 23.65625 9.40625 22.980469 9.40625 22.148438 C 9.40625 21.3125 10.203125 20.636719 11.1875 20.636719 Z M 11.1875 20.636719 "/>
<path style=" stroke:none;fill-rule:evenodd;fill:rgb(83.92157%,8.235294%,9.019608%);fill-opacity:1;" d="M 9.515625 22.222656 L 12.914062 22.222656 L 12.914062 25.75 L 9.515625 25.75 Z M 9.515625 22.222656 "/>
<path style=" stroke:none;fill-rule:evenodd;fill:rgb(83.92157%,8.235294%,9.019608%);fill-opacity:1;" d="M 11.214844 20.8125 C 12.148438 20.8125 12.902344 21.464844 12.902344 22.273438 C 12.902344 23.078125 12.148438 23.730469 11.214844 23.730469 C 10.285156 23.730469 9.53125 23.078125 9.53125 22.273438 C 9.53125 21.464844 10.285156 20.8125 11.214844 20.8125 Z M 11.214844 20.8125 "/>
<path style=" stroke:none;fill-rule:evenodd;fill:rgb(63.137257%,6.27451%,6.666667%);fill-opacity:1;" d="M 9.949219 22.4375 L 12.484375 22.4375 L 12.484375 25.75 L 9.949219 25.75 Z M 9.949219 22.4375 "/>
<path style=" stroke:none;fill-rule:evenodd;fill:rgb(63.137257%,6.27451%,6.666667%);fill-opacity:1;" d="M 11.21875 21.117188 C 11.910156 21.117188 12.472656 21.726562 12.472656 22.484375 C 12.472656 23.238281 11.910156 23.851562 11.21875 23.851562 C 10.523438 23.851562 9.960938 23.238281 9.960938 22.484375 C 9.960938 21.726562 10.523438 21.117188 11.21875 21.117188 Z M 11.21875 21.117188 "/>
<path style=" stroke:none;fill-rule:evenodd;fill:rgb(83.92157%,8.235294%,9.019608%);fill-opacity:1;" d="M 10.09375 22.527344 L 12.316406 22.527344 L 12.316406 25.6875 L 10.09375 25.6875 Z M 10.09375 22.527344 "/>
<path style=" stroke:none;fill-rule:evenodd;fill:rgb(83.92157%,8.235294%,9.019608%);fill-opacity:1;" d="M 11.207031 21.265625 C 11.816406 21.265625 12.308594 21.851562 12.308594 22.570312 C 12.308594 23.292969 11.816406 23.878906 11.207031 23.878906 C 10.597656 23.878906 10.105469 23.292969 10.105469 22.570312 C 10.105469 21.851562 10.597656 21.265625 11.207031 21.265625 Z M 11.207031 21.265625 "/>
<path style=" stroke:none;fill-rule:nonzero;fill:rgb(63.137257%,6.27451%,6.666667%);fill-opacity:1;" d="M 18.207031 25.175781 L 18.207031 25.359375 L 18.695312 25.359375 L 18.695312 25.175781 Z M 18.207031 25.175781 "/>
<path style=" stroke:none;fill-rule:nonzero;fill:rgb(63.137257%,6.27451%,6.666667%);fill-opacity:1;" d="M 9.46875 25.050781 L 9.46875 25.230469 L 9.960938 25.230469 L 9.960938 25.050781 Z M 9.46875 25.050781 "/>
<path style=" stroke:none;fill-rule:nonzero;fill:rgb(63.137257%,6.27451%,6.666667%);fill-opacity:1;" d="M 9.46875 23.707031 L 9.46875 23.886719 L 9.960938 23.886719 L 9.960938 23.707031 Z M 9.46875 23.707031 "/>
<path style=" stroke:none;fill-rule:nonzero;fill:rgb(63.137257%,6.27451%,6.666667%);fill-opacity:1;" d="M 9.480469 22.4375 L 9.480469 22.617188 L 9.972656 22.617188 L 9.972656 22.4375 Z M 9.480469 22.4375 "/>
<path style=" stroke:none;fill-rule:nonzero;fill:rgb(63.137257%,6.27451%,6.666667%);fill-opacity:1;" d="M 12.472656 25.101562 L 12.472656 25.28125 L 12.964844 25.28125 L 12.964844 25.101562 Z M 12.472656 25.101562 "/>
<path style=" stroke:none;fill-rule:nonzero;fill:rgb(63.137257%,6.27451%,6.666667%);fill-opacity:1;" d="M 12.460938 23.742188 L 12.460938 23.925781 L 12.953125 23.925781 L 12.953125 23.742188 Z M 12.460938 23.742188 "/>
<path style=" stroke:none;fill-rule:nonzero;fill:rgb(63.137257%,6.27451%,6.666667%);fill-opacity:1;" d="M 12.421875 22.460938 L 12.421875 22.640625 L 12.914062 22.640625 L 12.914062 22.460938 Z M 12.421875 22.460938 "/>
<path style=" stroke:none;fill-rule:nonzero;fill:rgb(63.137257%,6.27451%,6.666667%);fill-opacity:1;" d="M 18.914062 21.722656 L 19.039062 21.59375 L 18.691406 21.246094 L 18.566406 21.375 Z M 18.914062 21.722656 "/>
<path style=" stroke:none;fill-rule:nonzero;fill:rgb(63.137257%,6.27451%,6.666667%);fill-opacity:1;" d="M 21.183594 25.164062 L 21.183594 25.34375 L 21.675781 25.34375 L 21.675781 25.164062 Z M 21.183594 25.164062 "/>
<path style=" stroke:none;fill-rule:nonzero;fill:rgb(63.137257%,6.27451%,6.666667%);fill-opacity:1;" d="M 18.21875 23.71875 L 18.21875 23.898438 L 18.710938 23.898438 L 18.710938 23.71875 Z M 18.21875 23.71875 "/>
<path style=" stroke:none;fill-rule:nonzero;fill:rgb(63.137257%,6.27451%,6.666667%);fill-opacity:1;" d="M 18.179688 22.425781 L 18.179688 22.605469 L 18.671875 22.605469 L 18.671875 22.425781 Z M 18.179688 22.425781 "/>
<path style=" stroke:none;fill-rule:nonzero;fill:rgb(63.137257%,6.27451%,6.666667%);fill-opacity:1;" d="M 21.183594 23.742188 L 21.183594 23.925781 L 21.675781 23.925781 L 21.675781 23.742188 Z M 21.183594 23.742188 "/>
<path style=" stroke:none;fill-rule:nonzero;fill:rgb(63.137257%,6.27451%,6.666667%);fill-opacity:1;" d="M 21.210938 22.359375 L 21.210938 22.542969 L 21.703125 22.542969 L 21.703125 22.359375 Z M 21.210938 22.359375 "/>
<path style=" stroke:none;fill-rule:nonzero;fill:rgb(63.137257%,6.27451%,6.666667%);fill-opacity:1;" d="M 27.207031 25.226562 L 27.207031 25.40625 L 27.699219 25.40625 L 27.699219 25.226562 Z M 27.207031 25.226562 "/>
<path style=" stroke:none;fill-rule:nonzero;fill:rgb(63.137257%,6.27451%,6.666667%);fill-opacity:1;" d="M 27.207031 23.71875 L 27.207031 23.898438 L 27.699219 23.898438 L 27.699219 23.71875 Z M 27.207031 23.71875 "/>
<path style=" stroke:none;fill-rule:nonzero;fill:rgb(63.137257%,6.27451%,6.666667%);fill-opacity:1;" d="M 27.21875 22.285156 L 27.21875 22.464844 L 27.710938 22.464844 L 27.710938 22.285156 Z M 27.21875 22.285156 "/>
<path style=" stroke:none;fill-rule:nonzero;fill:rgb(63.137257%,6.27451%,6.666667%);fill-opacity:1;" d="M 30.125 25.238281 L 30.125 25.421875 L 30.613281 25.421875 L 30.613281 25.238281 Z M 30.125 25.238281 "/>
<path style=" stroke:none;fill-rule:nonzero;fill:rgb(63.137257%,6.27451%,6.666667%);fill-opacity:1;" d="M 30.109375 23.730469 L 30.109375 23.910156 L 30.601562 23.910156 L 30.601562 23.730469 Z M 30.109375 23.730469 "/>
<path style=" stroke:none;fill-rule:nonzero;fill:rgb(63.137257%,6.27451%,6.666667%);fill-opacity:1;" d="M 30.125 22.335938 L 30.125 22.515625 L 30.613281 22.515625 L 30.613281 22.335938 Z M 30.125 22.335938 "/>
<path style=" stroke:none;fill-rule:evenodd;fill:rgb(63.137257%,6.27451%,6.666667%);fill-opacity:1;" d="M 27.769531 12.664062 L 29.28125 12.664062 L 29.28125 14.269531 L 27.769531 14.269531 Z M 27.769531 12.664062 "/>
<path style=" stroke:none;fill-rule:evenodd;fill:rgb(63.137257%,6.27451%,6.666667%);fill-opacity:1;" d="M 28.527344 12.027344 C 28.941406 12.027344 29.277344 12.324219 29.277344 12.6875 C 29.277344 13.054688 28.941406 13.351562 28.527344 13.351562 C 28.113281 13.351562 27.777344 13.054688 27.777344 12.6875 C 27.777344 12.324219 28.113281 12.027344 28.527344 12.027344 Z M 28.527344 12.027344 "/>
<path style=" stroke:none;fill-rule:evenodd;fill:rgb(83.92157%,8.235294%,9.019608%);fill-opacity:1;" d="M 27.824219 12.722656 L 29.253906 12.722656 L 29.253906 14.269531 L 27.824219 14.269531 Z M 27.824219 12.722656 "/>
<path style=" stroke:none;fill-rule:evenodd;fill:rgb(83.92157%,8.235294%,9.019608%);fill-opacity:1;" d="M 28.539062 12.105469 C 28.933594 12.105469 29.25 12.390625 29.25 12.742188 C 29.25 13.09375 28.933594 13.382812 28.539062 13.382812 C 28.148438 13.382812 27.832031 13.09375 27.832031 12.742188 C 27.832031 12.390625 28.148438 12.105469 28.539062 12.105469 Z M 28.539062 12.105469 "/>
<path style=" stroke:none;fill-rule:evenodd;fill:rgb(63.137257%,6.27451%,6.666667%);fill-opacity:1;" d="M 28.007812 12.816406 L 29.070312 12.816406 L 29.070312 14.269531 L 28.007812 14.269531 Z M 28.007812 12.816406 "/>
<path style=" stroke:none;fill-rule:evenodd;fill:rgb(63.137257%,6.27451%,6.666667%);fill-opacity:1;" d="M 28.539062 12.234375 C 28.832031 12.234375 29.066406 12.503906 29.066406 12.835938 C 29.066406 13.167969 28.832031 13.4375 28.539062 13.4375 C 28.246094 13.4375 28.011719 13.167969 28.011719 12.835938 C 28.011719 12.503906 28.246094 12.234375 28.539062 12.234375 Z M 28.539062 12.234375 "/>
<path style=" stroke:none;fill-rule:evenodd;fill:rgb(83.92157%,8.235294%,9.019608%);fill-opacity:1;" d="M 28.066406 12.855469 L 29.003906 12.855469 L 29.003906 14.242188 L 28.066406 14.242188 Z M 28.066406 12.855469 "/>
<path style=" stroke:none;fill-rule:evenodd;fill:rgb(83.92157%,8.235294%,9.019608%);fill-opacity:1;" d="M 28.535156 12.300781 C 28.792969 12.300781 29 12.558594 29 12.875 C 29 13.191406 28.792969 13.445312 28.535156 13.445312 C 28.28125 13.445312 28.070312 13.191406 28.070312 12.875 C 28.070312 12.558594 28.28125 12.300781 28.535156 12.300781 Z M 28.535156 12.300781 "/>
<path style=" stroke:none;fill-rule:nonzero;fill:rgb(63.137257%,6.27451%,6.666667%);fill-opacity:1;" d="M 29 20.722656 L 28.820312 20.722656 L 28.820312 21.214844 L 29 21.214844 Z M 29 20.722656 "/>
<path style=" stroke:none;fill-rule:nonzero;fill:rgb(63.137257%,6.27451%,6.666667%);fill-opacity:1;" d="M 21.355469 21.410156 L 21.226562 21.285156 L 20.878906 21.632812 L 21.007812 21.757812 Z M 21.355469 21.410156 "/>
<path style=" stroke:none;fill-rule:nonzero;fill:rgb(63.137257%,6.27451%,6.666667%);fill-opacity:1;" d="M 30.191406 21.398438 L 30.066406 21.269531 L 29.714844 21.617188 L 29.84375 21.746094 Z M 30.191406 21.398438 "/>
<path style=" stroke:none;fill-rule:nonzero;fill:rgb(63.137257%,6.27451%,6.666667%);fill-opacity:1;" d="M 27.988281 21.734375 L 28.117188 21.605469 L 27.769531 21.257812 L 27.640625 21.386719 Z M 27.988281 21.734375 "/>
<path style=" stroke:none;fill-rule:nonzero;fill:rgb(63.137257%,6.27451%,6.666667%);fill-opacity:1;" d="M 10.105469 21.144531 L 9.980469 21.273438 L 10.328125 21.621094 L 10.453125 21.492188 Z M 10.105469 21.144531 "/>
<path style=" stroke:none;fill-rule:nonzero;fill:rgb(63.137257%,6.27451%,6.666667%);fill-opacity:1;" d="M 20.039062 20.683594 L 19.855469 20.683594 L 19.855469 21.175781 L 20.039062 21.175781 Z M 20.039062 20.683594 "/>
<path style=" stroke:none;fill-rule:nonzero;fill:rgb(63.137257%,6.27451%,6.666667%);fill-opacity:1;" d="M 11.121094 21.25 L 11.300781 21.25 L 11.300781 20.761719 L 11.121094 20.761719 Z M 11.121094 21.25 "/>
<path style=" stroke:none;fill-rule:nonzero;fill:rgb(63.137257%,6.27451%,6.666667%);fill-opacity:1;" d="M 12.089844 21.582031 L 12.21875 21.707031 L 12.566406 21.359375 L 12.4375 21.234375 Z M 12.089844 21.582031 "/>
<path style=" stroke:none;fill-rule:nonzero;fill:rgb(63.137257%,6.27451%,6.666667%);fill-opacity:1;" d="M 28.019531 13.738281 L 28.019531 14.285156 L 29.808594 14.285156 L 29.808594 13.738281 Z M 28.019531 13.738281 "/>
<path style=" stroke:none;fill-rule:nonzero;fill:rgb(83.92157%,8.235294%,9.019608%);fill-opacity:1;" d="M 28.074219 13.835938 L 28.074219 14.25 L 29.742188 14.25 L 29.742188 13.835938 Z M 28.074219 13.835938 "/>
<path style=" stroke:none;fill-rule:evenodd;fill:rgb(63.137257%,6.27451%,6.666667%);fill-opacity:1;" d="M 19.0625 12.644531 L 20.769531 12.644531 L 20.769531 14.292969 L 19.0625 14.292969 Z M 19.0625 12.644531 "/>
<path style=" stroke:none;fill-rule:evenodd;fill:rgb(63.137257%,6.27451%,6.666667%);fill-opacity:1;" d="M 19.914062 11.984375 C 20.382812 11.984375 20.761719 12.292969 20.761719 12.667969 C 20.761719 13.042969 20.382812 13.347656 19.914062 13.347656 C 19.449219 13.347656 19.070312 13.042969 19.070312 12.667969 C 19.070312 12.292969 19.449219 11.984375 19.914062 11.984375 Z M 19.914062 11.984375 "/>
<path style=" stroke:none;fill-rule:evenodd;fill:rgb(83.92157%,8.235294%,9.019608%);fill-opacity:1;" d="M 19.121094 12.699219 L 20.738281 12.699219 L 20.738281 14.292969 L 19.121094 14.292969 Z M 19.121094 12.699219 "/>
<path style=" stroke:none;fill-rule:evenodd;fill:rgb(83.92157%,8.235294%,9.019608%);fill-opacity:1;" d="M 19.929688 12.066406 C 20.375 12.066406 20.734375 12.359375 20.734375 12.722656 C 20.734375 13.085938 20.375 13.378906 19.929688 13.378906 C 19.488281 13.378906 19.128906 13.085938 19.128906 12.722656 C 19.128906 12.359375 19.488281 12.066406 19.929688 12.066406 Z M 19.929688 12.066406 "/>
<path style=" stroke:none;fill-rule:evenodd;fill:rgb(63.137257%,6.27451%,6.666667%);fill-opacity:1;" d="M 19.328125 12.796875 L 20.53125 12.796875 L 20.53125 14.292969 L 19.328125 14.292969 Z M 19.328125 12.796875 "/>
<path style=" stroke:none;fill-rule:evenodd;fill:rgb(63.137257%,6.27451%,6.666667%);fill-opacity:1;" d="M 19.929688 12.203125 C 20.261719 12.203125 20.527344 12.480469 20.527344 12.820312 C 20.527344 13.160156 20.261719 13.4375 19.929688 13.4375 C 19.601562 13.4375 19.332031 13.160156 19.332031 12.820312 C 19.332031 12.480469 19.601562 12.203125 19.929688 12.203125 Z M 19.929688 12.203125 "/>
<path style=" stroke:none;fill-rule:evenodd;fill:rgb(83.92157%,8.235294%,9.019608%);fill-opacity:1;" d="M 19.398438 12.839844 L 20.453125 12.839844 L 20.453125 14.265625 L 19.398438 14.265625 Z M 19.398438 12.839844 "/>
<path style=" stroke:none;fill-rule:evenodd;fill:rgb(83.92157%,8.235294%,9.019608%);fill-opacity:1;" d="M 19.925781 12.269531 C 20.214844 12.269531 20.449219 12.535156 20.449219 12.859375 C 20.449219 13.183594 20.214844 13.449219 19.925781 13.449219 C 19.636719 13.449219 19.402344 13.183594 19.402344 12.859375 C 19.402344 12.535156 19.636719 12.269531 19.925781 12.269531 Z M 19.925781 12.269531 "/>
<path style=" stroke:none;fill-rule:nonzero;fill:rgb(63.137257%,6.27451%,6.666667%);fill-opacity:1;" d="M 19.085938 13.761719 L 19.085938 14.308594 L 21.074219 14.308594 L 21.074219 13.761719 Z M 19.085938 13.761719 "/>
<path style=" stroke:none;fill-rule:nonzero;fill:rgb(83.92157%,8.235294%,9.019608%);fill-opacity:1;" d="M 19.109375 13.871094 L 19.109375 14.289062 L 20.984375 14.289062 L 20.984375 13.871094 Z M 19.109375 13.871094 "/>
<path style=" stroke:none;fill-rule:evenodd;fill:rgb(63.137257%,6.27451%,6.666667%);fill-opacity:1;" d="M 10.328125 12.644531 L 12.035156 12.644531 L 12.035156 14.292969 L 10.328125 14.292969 Z M 10.328125 12.644531 "/>
<path style=" stroke:none;fill-rule:evenodd;fill:rgb(63.137257%,6.27451%,6.666667%);fill-opacity:1;" d="M 11.183594 11.984375 C 11.648438 11.984375 12.027344 12.292969 12.027344 12.667969 C 12.027344 13.042969 11.648438 13.347656 11.183594 13.347656 C 10.714844 13.347656 10.335938 13.042969 10.335938 12.667969 C 10.335938 12.292969 10.714844 11.984375 11.183594 11.984375 Z M 11.183594 11.984375 "/>
<path style=" stroke:none;fill-rule:evenodd;fill:rgb(83.92157%,8.235294%,9.019608%);fill-opacity:1;" d="M 10.386719 12.699219 L 12.003906 12.699219 L 12.003906 14.292969 L 10.386719 14.292969 Z M 10.386719 12.699219 "/>
<path style=" stroke:none;fill-rule:evenodd;fill:rgb(83.92157%,8.235294%,9.019608%);fill-opacity:1;" d="M 11.195312 12.066406 C 11.640625 12.066406 12 12.359375 12 12.722656 C 12 13.085938 11.640625 13.378906 11.195312 13.378906 C 10.753906 13.378906 10.394531 13.085938 10.394531 12.722656 C 10.394531 12.359375 10.753906 12.066406 11.195312 12.066406 Z M 11.195312 12.066406 "/>
<path style=" stroke:none;fill-rule:evenodd;fill:rgb(63.137257%,6.27451%,6.666667%);fill-opacity:1;" d="M 10.59375 12.796875 L 11.796875 12.796875 L 11.796875 14.292969 L 10.59375 14.292969 Z M 10.59375 12.796875 "/>
<path style=" stroke:none;fill-rule:evenodd;fill:rgb(63.137257%,6.27451%,6.666667%);fill-opacity:1;" d="M 11.195312 12.203125 C 11.527344 12.203125 11.792969 12.480469 11.792969 12.820312 C 11.792969 13.160156 11.527344 13.4375 11.195312 13.4375 C 10.867188 13.4375 10.597656 13.160156 10.597656 12.820312 C 10.597656 12.480469 10.867188 12.203125 11.195312 12.203125 Z M 11.195312 12.203125 "/>
<path style=" stroke:none;fill-rule:evenodd;fill:rgb(83.92157%,8.235294%,9.019608%);fill-opacity:1;" d="M 10.664062 12.839844 L 11.71875 12.839844 L 11.71875 14.265625 L 10.664062 14.265625 Z M 10.664062 12.839844 "/>
<path style=" stroke:none;fill-rule:evenodd;fill:rgb(83.92157%,8.235294%,9.019608%);fill-opacity:1;" d="M 11.191406 12.269531 C 11.480469 12.269531 11.714844 12.535156 11.714844 12.859375 C 11.714844 13.183594 11.480469 13.449219 11.191406 13.449219 C 10.902344 13.449219 10.667969 13.183594 10.667969 12.859375 C 10.667969 12.535156 10.902344 12.269531 11.191406 12.269531 Z M 11.191406 12.269531 "/>
<path style=" stroke:none;fill-rule:nonzero;fill:rgb(63.137257%,6.27451%,6.666667%);fill-opacity:1;" d="M 10.023438 13.585938 L 10.023438 14.242188 L 11.769531 14.242188 L 11.769531 13.585938 Z M 10.023438 13.585938 "/>
<path style=" stroke:none;fill-rule:nonzero;fill:rgb(83.92157%,8.235294%,9.019608%);fill-opacity:1;" d="M 11.664062 14.265625 Z M 10.144531 13.679688 L 10.144531 14.277344 L 11.691406 14.277344 L 11.691406 13.691406 L 10.144531 13.679688 "/>
</g>
</svg>
