<?xml version="1.0" encoding="UTF-8"?>
<svg xmlns="http://www.w3.org/2000/svg" xmlns:xlink="http://www.w3.org/1999/xlink" width="40px" height="40px" viewBox="0 0 40 40" version="1.1">
<g id="surface1">
<path style=" stroke:none;fill-rule:evenodd;fill:rgb(24.313726%,60.392159%,0%);fill-opacity:1;" d="M 0 0 L 60 0 L 60 13.429688 L 0 13.429688 Z M 0 0 "/>
<path style=" stroke:none;fill-rule:evenodd;fill:rgb(100%,100%,100%);fill-opacity:1;" d="M 0 13.429688 L 60 13.429688 L 60 26.570312 L 0 26.570312 Z M 0 13.429688 "/>
<path style=" stroke:none;fill-rule:evenodd;fill:rgb(89.019608%,12.941177%,9.411765%);fill-opacity:1;" d="M 0 26.570312 L 60 26.570312 L 60 40 L 0 40 Z M 0 26.570312 "/>
<path style=" stroke:none;fill-rule:evenodd;fill:rgb(33.333334%,40.392157%,89.411765%);fill-opacity:1;" d="M 0 0 L 0 40 L 20 20 Z M 0 0 "/>
<path style="fill-rule:evenodd;fill:rgb(80.000001%,80.000001%,80.000001%);fill-opacity:1;stroke-width:3.7907;stroke-linecap:butt;stroke-linejoin:miter;stroke:rgb(0%,0%,0%);stroke-opacity:1;stroke-miterlimit:4;" d="M 283.560318 148.704068 L 283.560318 591.758423 C 283.560318 627.062633 301.18019 662.63634 336.629694 662.63634 L 407.528703 662.63634 C 425.148575 662.63634 442.978208 697.940549 442.978208 697.940549 C 442.978208 697.940549 459.759038 662.63634 478.427712 662.63634 L 549.116961 662.63634 C 584.566465 662.63634 602.396098 627.062633 602.396098 591.758423 L 602.396098 148.704068 Z M 283.560318 148.704068 " transform="matrix(0.0186224,0,0,0.0144946,21.055353,14.04382)"/>
<path style="fill-rule:evenodd;fill:rgb(80.000001%,80.000001%,80.000001%);fill-opacity:1;stroke-width:1.25;stroke-linecap:butt;stroke-linejoin:miter;stroke:rgb(0%,0%,0%);stroke-opacity:1;stroke-miterlimit:4;" d="M 215.326923 731.683177 C 197.37973 731.683177 179.641226 714.165646 179.641226 696.378614 L 179.641226 607.712955 C 195.084159 623.343983 268.125059 678.591582 250.595243 696.378614 C 232.856739 714.165646 214.700858 696.378614 215.118235 696.378614 C 215.326923 696.378614 215.326923 731.683177 215.326923 731.683177 Z M 215.326923 731.683177 " transform="matrix(0.0187181,0,0,0.0144944,20.922612,12.527498)"/>
<path style=" stroke:none;fill-rule:evenodd;fill:rgb(80.000001%,80.000001%,80.000001%);fill-opacity:1;" d="M 24.949219 22.621094 C 25.28125 22.363281 25.28125 22.878906 25.613281 22.621094 L 25.28125 24.160156 C 24.957031 24.113281 24.949219 24.160156 24.761719 23.90625 C 24.761719 23.648438 24.761719 22.828125 24.949219 22.621094 Z M 24.949219 22.621094 "/>
<path style="fill-rule:evenodd;fill:rgb(80.000001%,80.000001%,80.000001%);fill-opacity:1;stroke-width:1.25;stroke-linecap:butt;stroke-linejoin:miter;stroke:rgb(0%,0%,0%);stroke-opacity:1;stroke-miterlimit:4;" d="M 215.341158 731.683477 C 197.393965 731.683477 179.655461 714.165946 179.655461 696.378914 L 179.655461 607.713255 C 195.098394 623.344283 268.139294 678.591882 250.609478 696.378914 C 232.870974 714.165946 214.715093 696.378914 215.13247 696.378914 C 215.341158 696.378914 215.341158 731.683477 215.341158 731.683477 Z M 215.341158 731.683477 " transform="matrix(-0.0187181,0,0,0.0144944,37.647967,12.527493)"/>
<path style=" stroke:none;fill-rule:evenodd;fill:rgb(80.000001%,80.000001%,80.000001%);fill-opacity:1;" d="M 33.570312 22.621094 C 33.238281 22.363281 33.238281 22.878906 32.90625 22.621094 L 33.238281 24.160156 C 33.5625 24.113281 33.570312 24.160156 33.757812 23.90625 C 33.757812 23.648438 33.757812 22.828125 33.570312 22.621094 Z M 33.570312 22.621094 "/>
<path style="fill-rule:evenodd;fill:rgb(80.000001%,80.000001%,80.000001%);fill-opacity:1;stroke-width:1.25;stroke-linecap:butt;stroke-linejoin:miter;stroke:rgb(0%,0%,0%);stroke-opacity:1;stroke-miterlimit:4;" d="M 513.776845 1140.79019 C 513.776845 1123.272659 478.299836 1087.698595 478.299836 1069.911563 C 478.299836 1052.394032 513.776845 1087.698595 584.730862 1087.698595 C 655.47619 1087.698595 690.953199 999.302437 673.214695 981.515405 C 690.953199 1016.819968 690.953199 1052.394032 690.953199 1069.911563 C 690.953199 1105.485627 655.47619 1140.79019 584.730862 1140.79019 Z M 513.776845 1140.79019 " transform="matrix(0.0187181,0,0,0.0144944,20.969007,8.394609)"/>
<path style="fill-rule:evenodd;fill:rgb(80.000001%,80.000001%,80.000001%);fill-opacity:1;stroke-width:1.25;stroke-linecap:butt;stroke-linejoin:miter;stroke:rgb(0%,0%,0%);stroke-opacity:1;stroke-miterlimit:4;" d="M 513.752632 1140.79019 C 513.752632 1123.272659 478.275624 1087.698595 478.275624 1069.911563 C 478.275624 1052.394032 513.752632 1087.698595 584.706649 1087.698595 C 655.451978 1087.698595 690.928987 999.302437 673.190482 981.515405 C 690.928987 1016.819968 690.928987 1052.394032 690.928987 1069.911563 C 690.928987 1105.485627 655.451978 1140.79019 584.706649 1140.79019 Z M 513.752632 1140.79019 " transform="matrix(-0.0187181,0,0,0.0144944,37.550071,8.394609)"/>
<path style=" stroke:none;fill-rule:evenodd;fill:rgb(80.000001%,80.000001%,80.000001%);fill-opacity:1;" d="M 27.933594 24.675781 C 27.933594 24.417969 28.597656 24.160156 28.597656 23.90625 L 28.597656 25.1875 L 27.933594 25.1875 Z M 27.933594 24.675781 "/>
<path style=" stroke:none;fill-rule:evenodd;fill:rgb(80.000001%,80.000001%,80.000001%);fill-opacity:1;" d="M 30.585938 24.675781 C 30.585938 24.417969 29.921875 24.160156 29.921875 23.90625 L 29.921875 25.1875 L 30.585938 25.1875 Z M 30.585938 24.675781 "/>
<path style="fill-rule:evenodd;fill:rgb(80.000001%,80.000001%,80.000001%);fill-opacity:1;stroke-width:1.25;stroke-linecap:butt;stroke-linejoin:miter;stroke:rgb(0%,0%,0%);stroke-opacity:1;stroke-miterlimit:4;" d="M 371.201875 1034.702667 C 371.201875 1052.220198 512.90122 1052.220198 512.90122 1034.702667 L 512.90122 1105.581293 C 512.90122 1123.098825 371.201875 1123.098825 371.201875 1105.581293 Z M 371.201875 1034.702667 " transform="matrix(0.0187181,0,0,0.0144944,20.985397,9.678378)"/>
<path style="fill:none;stroke-width:1.25;stroke-linecap:butt;stroke-linejoin:miter;stroke:rgb(0%,0%,0%);stroke-opacity:1;stroke-miterlimit:4;" d="M 249.719143 696.378614 C 231.980639 714.165646 231.980639 678.591582 214.242135 696.378614 C 196.50363 714.165646 231.980639 802.561804 302.725968 802.561804 C 373.679985 802.561804 409.156993 767.257241 409.156993 785.044272 C 409.156993 802.561804 373.679985 820.348835 373.679985 838.135867 C 373.679985 855.922899 515.37933 855.922899 515.37933 838.135867 C 515.37933 820.348835 479.902322 802.561804 479.902322 785.044272 C 479.902322 767.257241 515.37933 802.561804 586.333347 802.561804 C 657.078676 802.561804 692.555684 714.165646 674.81718 696.378614 C 657.078676 678.591582 657.078676 714.165646 639.340172 696.378614 " transform="matrix(0.0187181,0,0,0.0144944,20.939011,12.527498)"/>
<path style=" stroke:none;fill-rule:nonzero;fill:rgb(0%,0%,0%);fill-opacity:1;" d="M 33.347656 24.5 L 33.003906 23.929688 L 33.0625 23.90625 L 33.40625 24.476562 Z M 33.347656 24.5 "/>
<path style=" stroke:none;fill-rule:nonzero;fill:rgb(0%,0%,0%);fill-opacity:1;" d="M 33.132812 24.375 L 33.203125 24.375 C 33.222656 24.441406 33.222656 24.5 33.207031 24.542969 C 33.1875 24.589844 33.15625 24.621094 33.109375 24.636719 C 33.058594 24.652344 33.011719 24.652344 32.964844 24.636719 C 32.921875 24.621094 32.878906 24.59375 32.839844 24.550781 C 32.800781 24.503906 32.765625 24.457031 32.738281 24.398438 C 32.707031 24.339844 32.691406 24.28125 32.6875 24.230469 C 32.683594 24.179688 32.691406 24.136719 32.714844 24.101562 C 32.738281 24.066406 32.769531 24.039062 32.808594 24.027344 C 32.855469 24.011719 32.902344 24.011719 32.949219 24.03125 C 32.996094 24.050781 33.039062 24.085938 33.078125 24.136719 L 33.027344 24.175781 C 32.992188 24.136719 32.964844 24.109375 32.933594 24.097656 C 32.902344 24.085938 32.871094 24.082031 32.839844 24.09375 C 32.804688 24.105469 32.78125 24.125 32.765625 24.15625 C 32.753906 24.1875 32.75 24.21875 32.761719 24.261719 C 32.769531 24.300781 32.78125 24.339844 32.800781 24.378906 C 32.824219 24.429688 32.851562 24.46875 32.882812 24.503906 C 32.914062 24.535156 32.945312 24.558594 32.976562 24.570312 C 33.011719 24.578125 33.042969 24.578125 33.070312 24.570312 C 33.105469 24.558594 33.128906 24.535156 33.140625 24.503906 C 33.152344 24.46875 33.148438 24.429688 33.132812 24.375 Z M 33.132812 24.375 "/>
<path style=" stroke:none;fill-rule:nonzero;fill:rgb(0%,0%,0%);fill-opacity:1;" d="M 32.714844 24.769531 L 32.492188 24.160156 L 32.558594 24.144531 L 32.78125 24.753906 Z M 32.714844 24.769531 "/>
<path style=" stroke:none;fill-rule:nonzero;fill:rgb(0%,0%,0%);fill-opacity:1;" d="M 32.296875 24.835938 L 32.238281 24.277344 L 32.074219 24.289062 L 32.066406 24.214844 L 32.460938 24.1875 L 32.46875 24.261719 L 32.304688 24.273438 L 32.363281 24.832031 Z M 32.296875 24.835938 "/>
<path style=" stroke:none;fill-rule:nonzero;fill:rgb(0%,0%,0%);fill-opacity:1;" d="M 31.660156 24.667969 L 31.722656 24.660156 C 31.726562 24.691406 31.730469 24.71875 31.742188 24.738281 C 31.753906 24.757812 31.769531 24.773438 31.792969 24.785156 C 31.816406 24.800781 31.839844 24.804688 31.871094 24.804688 C 31.894531 24.804688 31.917969 24.800781 31.9375 24.792969 C 31.957031 24.78125 31.972656 24.769531 31.980469 24.753906 C 31.988281 24.734375 31.996094 24.71875 31.996094 24.699219 C 31.996094 24.679688 31.988281 24.660156 31.980469 24.644531 C 31.972656 24.628906 31.957031 24.617188 31.9375 24.609375 C 31.921875 24.601562 31.894531 24.589844 31.847656 24.578125 C 31.800781 24.5625 31.769531 24.550781 31.75 24.539062 C 31.726562 24.523438 31.707031 24.503906 31.695312 24.480469 C 31.683594 24.453125 31.679688 24.429688 31.679688 24.398438 C 31.679688 24.367188 31.6875 24.335938 31.699219 24.308594 C 31.714844 24.28125 31.734375 24.261719 31.761719 24.246094 C 31.789062 24.230469 31.820312 24.226562 31.855469 24.226562 C 31.890625 24.226562 31.925781 24.230469 31.953125 24.246094 C 31.980469 24.261719 32.003906 24.285156 32.019531 24.3125 C 32.035156 24.34375 32.042969 24.375 32.042969 24.414062 L 31.980469 24.421875 C 31.976562 24.378906 31.964844 24.351562 31.945312 24.328125 C 31.925781 24.308594 31.894531 24.296875 31.859375 24.296875 C 31.816406 24.296875 31.789062 24.308594 31.769531 24.328125 C 31.75 24.34375 31.742188 24.367188 31.742188 24.394531 C 31.742188 24.417969 31.75 24.433594 31.761719 24.449219 C 31.773438 24.464844 31.808594 24.480469 31.863281 24.496094 C 31.914062 24.511719 31.953125 24.523438 31.972656 24.535156 C 32.003906 24.554688 32.023438 24.574219 32.039062 24.601562 C 32.050781 24.625 32.058594 24.65625 32.058594 24.691406 C 32.058594 24.722656 32.050781 24.757812 32.035156 24.785156 C 32.019531 24.816406 32 24.839844 31.96875 24.855469 C 31.941406 24.871094 31.910156 24.878906 31.875 24.878906 C 31.828125 24.878906 31.789062 24.871094 31.757812 24.855469 C 31.726562 24.839844 31.703125 24.8125 31.6875 24.78125 C 31.667969 24.746094 31.660156 24.707031 31.660156 24.667969 Z M 31.660156 24.667969 "/>
<path style=" stroke:none;fill-rule:nonzero;fill:rgb(0%,0%,0%);fill-opacity:1;" d="M 31.480469 24.230469 L 31.546875 24.230469 L 31.523438 24.597656 C 31.519531 24.660156 31.511719 24.710938 31.5 24.75 C 31.484375 24.785156 31.464844 24.816406 31.433594 24.835938 C 31.402344 24.859375 31.363281 24.871094 31.3125 24.867188 C 31.265625 24.867188 31.230469 24.855469 31.199219 24.832031 C 31.171875 24.8125 31.152344 24.78125 31.140625 24.742188 C 31.128906 24.703125 31.125 24.648438 31.128906 24.582031 L 31.152344 24.214844 L 31.21875 24.21875 L 31.195312 24.585938 C 31.195312 24.640625 31.195312 24.679688 31.203125 24.707031 C 31.207031 24.734375 31.222656 24.753906 31.242188 24.769531 C 31.257812 24.785156 31.285156 24.792969 31.3125 24.792969 C 31.359375 24.792969 31.394531 24.78125 31.417969 24.753906 C 31.441406 24.726562 31.453125 24.675781 31.457031 24.59375 Z M 31.480469 24.230469 "/>
<path style=" stroke:none;fill-rule:nonzero;fill:rgb(0%,0%,0%);fill-opacity:1;" d="M 30.660156 24.652344 L 30.71875 24.644531 C 30.722656 24.691406 30.726562 24.726562 30.742188 24.742188 C 30.753906 24.761719 30.769531 24.769531 30.792969 24.769531 C 30.808594 24.769531 30.824219 24.765625 30.835938 24.753906 C 30.847656 24.746094 30.855469 24.730469 30.863281 24.714844 C 30.867188 24.699219 30.867188 24.671875 30.867188 24.636719 L 30.867188 24.199219 L 30.933594 24.199219 L 30.933594 24.632812 C 30.933594 24.683594 30.929688 24.726562 30.917969 24.753906 C 30.910156 24.785156 30.894531 24.804688 30.871094 24.820312 C 30.851562 24.835938 30.824219 24.84375 30.792969 24.84375 C 30.75 24.84375 30.714844 24.828125 30.691406 24.796875 C 30.667969 24.765625 30.660156 24.714844 30.660156 24.652344 Z M 30.660156 24.652344 "/>
<path style=" stroke:none;fill-rule:nonzero;fill:rgb(0%,0%,0%);fill-opacity:1;" d="M 29.53125 25.714844 L 29.53125 25.625 L 29.789062 25.167969 C 29.804688 25.132812 29.824219 25.105469 29.839844 25.082031 L 29.558594 25.082031 L 29.558594 24.996094 L 29.917969 24.996094 L 29.917969 25.082031 L 29.636719 25.578125 L 29.605469 25.628906 L 29.925781 25.628906 L 29.925781 25.714844 Z M 29.53125 25.714844 "/>
<path style=" stroke:none;fill-rule:nonzero;fill:rgb(0%,0%,0%);fill-opacity:1;" d="M 25.878906 24.832031 L 26.035156 24.128906 L 26.101562 24.140625 L 25.941406 24.84375 Z M 25.878906 24.832031 "/>
<path style=" stroke:none;fill-rule:nonzero;fill:rgb(0%,0%,0%);fill-opacity:1;" d="M 25.167969 24.554688 L 25.578125 23.925781 L 25.640625 23.953125 L 25.546875 24.550781 L 25.871094 24.054688 L 25.929688 24.078125 L 25.515625 24.710938 L 25.457031 24.683594 L 25.546875 24.085938 L 25.222656 24.582031 Z M 25.167969 24.554688 "/>
<path style=" stroke:none;fill-rule:nonzero;fill:rgb(0%,0%,0%);fill-opacity:1;" d="M 25.523438 23.851562 L 25.570312 23.890625 L 25.214844 24.183594 C 25.152344 24.234375 25.097656 24.273438 25.054688 24.292969 C 25.007812 24.316406 24.964844 24.332031 24.921875 24.332031 C 24.878906 24.332031 24.839844 24.320312 24.804688 24.292969 C 24.769531 24.265625 24.753906 24.234375 24.753906 24.199219 C 24.75 24.167969 24.765625 24.132812 24.792969 24.09375 C 24.820312 24.054688 24.867188 24.007812 24.933594 23.953125 L 25.289062 23.660156 L 25.335938 23.699219 L 24.980469 23.992188 C 24.929688 24.035156 24.890625 24.070312 24.871094 24.097656 C 24.851562 24.121094 24.84375 24.148438 24.84375 24.167969 C 24.84375 24.191406 24.851562 24.210938 24.875 24.226562 C 24.90625 24.257812 24.945312 24.265625 24.988281 24.253906 C 25.03125 24.246094 25.089844 24.207031 25.167969 24.144531 Z M 25.523438 23.851562 "/>
<path style=" stroke:none;fill-rule:nonzero;fill:rgb(0%,0%,0%);fill-opacity:1;" d="M 26.230469 24.886719 L 26.253906 24.171875 L 26.425781 24.175781 C 26.464844 24.175781 26.496094 24.179688 26.515625 24.1875 C 26.542969 24.199219 26.570312 24.214844 26.589844 24.242188 C 26.613281 24.273438 26.632812 24.316406 26.644531 24.363281 C 26.65625 24.414062 26.660156 24.472656 26.65625 24.535156 C 26.65625 24.589844 26.648438 24.636719 26.640625 24.679688 C 26.628906 24.722656 26.617188 24.757812 26.601562 24.785156 C 26.585938 24.808594 26.570312 24.832031 26.554688 24.847656 C 26.535156 24.863281 26.515625 24.875 26.492188 24.882812 C 26.46875 24.890625 26.441406 24.894531 26.410156 24.890625 Z M 26.300781 24.804688 L 26.40625 24.808594 C 26.441406 24.808594 26.464844 24.804688 26.484375 24.796875 C 26.503906 24.789062 26.519531 24.777344 26.53125 24.761719 C 26.546875 24.738281 26.5625 24.707031 26.570312 24.671875 C 26.582031 24.632812 26.585938 24.585938 26.589844 24.53125 C 26.589844 24.457031 26.585938 24.398438 26.570312 24.359375 C 26.554688 24.320312 26.53125 24.292969 26.507812 24.277344 C 26.492188 24.265625 26.460938 24.261719 26.421875 24.261719 L 26.316406 24.257812 Z M 26.300781 24.804688 "/>
<path style=" stroke:none;fill-rule:nonzero;fill:rgb(0%,0%,0%);fill-opacity:1;" d="M 26.695312 24.890625 L 26.886719 24.175781 L 26.957031 24.175781 L 27.164062 24.890625 L 27.085938 24.890625 L 27.027344 24.675781 L 26.820312 24.675781 L 26.765625 24.890625 Z M 26.839844 24.597656 L 27.007812 24.597656 L 26.957031 24.398438 C 26.941406 24.339844 26.929688 24.289062 26.921875 24.25 C 26.914062 24.296875 26.90625 24.34375 26.894531 24.386719 Z M 26.839844 24.597656 "/>
<path style=" stroke:none;fill-rule:nonzero;fill:rgb(0%,0%,0%);fill-opacity:1;" d="M 27.214844 24.890625 L 27.214844 24.175781 L 27.390625 24.175781 C 27.425781 24.175781 27.457031 24.179688 27.476562 24.1875 C 27.507812 24.195312 27.53125 24.214844 27.550781 24.238281 C 27.578125 24.269531 27.597656 24.3125 27.609375 24.359375 C 27.625 24.410156 27.628906 24.464844 27.628906 24.53125 C 27.628906 24.585938 27.625 24.632812 27.617188 24.675781 C 27.609375 24.71875 27.597656 24.753906 27.582031 24.78125 C 27.570312 24.808594 27.554688 24.828125 27.539062 24.84375 C 27.519531 24.859375 27.5 24.871094 27.476562 24.878906 C 27.453125 24.886719 27.425781 24.890625 27.398438 24.890625 Z M 27.28125 24.808594 L 27.390625 24.808594 C 27.421875 24.808594 27.449219 24.804688 27.46875 24.792969 C 27.484375 24.785156 27.5 24.773438 27.511719 24.757812 C 27.527344 24.734375 27.539062 24.707031 27.546875 24.667969 C 27.558594 24.628906 27.5625 24.582031 27.5625 24.527344 C 27.5625 24.453125 27.554688 24.398438 27.535156 24.355469 C 27.519531 24.316406 27.5 24.289062 27.472656 24.277344 C 27.457031 24.265625 27.425781 24.261719 27.386719 24.261719 L 27.28125 24.261719 Z M 27.28125 24.808594 "/>
<path style=" stroke:none;fill-rule:nonzero;fill:rgb(0%,0%,0%);fill-opacity:1;" d="M 28.636719 25.714844 L 28.636719 24.996094 L 28.824219 24.996094 C 28.859375 24.996094 28.882812 25 28.902344 25.003906 C 28.925781 25.011719 28.945312 25.019531 28.964844 25.039062 C 28.980469 25.054688 28.992188 25.078125 29.003906 25.105469 C 29.015625 25.136719 29.019531 25.167969 29.019531 25.203125 C 29.019531 25.265625 29.003906 25.316406 28.976562 25.359375 C 28.953125 25.402344 28.902344 25.421875 28.832031 25.421875 L 28.703125 25.421875 L 28.703125 25.714844 Z M 28.703125 25.335938 L 28.832031 25.335938 C 28.875 25.335938 28.90625 25.328125 28.921875 25.304688 C 28.941406 25.28125 28.949219 25.25 28.949219 25.207031 C 28.949219 25.175781 28.945312 25.152344 28.933594 25.128906 C 28.925781 25.109375 28.910156 25.09375 28.894531 25.089844 C 28.882812 25.082031 28.859375 25.082031 28.832031 25.082031 L 28.703125 25.082031 Z M 28.703125 25.335938 "/>
<path style=" stroke:none;fill-rule:nonzero;fill:rgb(0%,0%,0%);fill-opacity:1;" d="M 29.046875 25.714844 L 29.242188 24.996094 L 29.3125 24.996094 L 29.519531 25.714844 L 29.441406 25.714844 L 29.382812 25.496094 L 29.175781 25.496094 L 29.117188 25.714844 Z M 29.191406 25.417969 L 29.363281 25.417969 L 29.3125 25.222656 C 29.296875 25.160156 29.285156 25.109375 29.277344 25.074219 C 29.269531 25.117188 29.261719 25.164062 29.25 25.210938 Z M 29.191406 25.417969 "/>
<path style=" stroke:none;fill-rule:nonzero;fill:rgb(0%,0%,0%);fill-opacity:1;" d="M 33.496094 24.445312 L 33.160156 23.832031 L 33.214844 23.800781 L 33.84375 24.234375 L 33.789062 24.265625 L 33.601562 24.132812 L 33.445312 24.226562 L 33.546875 24.410156 Z M 33.40625 24.164062 L 33.535156 24.085938 L 33.363281 23.964844 C 33.308594 23.925781 33.269531 23.894531 33.238281 23.871094 C 33.261719 23.90625 33.285156 23.945312 33.308594 23.984375 Z M 33.40625 24.164062 "/>
<path style="fill-rule:evenodd;fill:rgb(40.784314%,16.078432%,0%);fill-opacity:1;stroke-width:5.0292;stroke-linecap:butt;stroke-linejoin:miter;stroke:rgb(0%,0%,0%);stroke-opacity:1;stroke-miterlimit:4;" d="M 419.270166 331.678854 C 419.270166 364.692332 438.952507 463.395894 381.602237 616.672755 C 377.190678 627.789539 388.389251 633.179494 397.891071 635.5376 C 407.392891 637.895706 412.143801 626.105178 412.143801 623.747072 C 412.143801 621.388967 414.519256 642.611917 424.021076 640.253811 C 433.183545 637.895706 442.685365 623.747072 442.685365 623.747072 C 442.685365 623.747072 447.436274 644.970022 459.313549 644.970022 C 470.851473 644.970022 470.851473 619.030861 470.851473 619.030861 C 470.851473 621.388967 478.99589 641.264428 488.49771 641.264428 C 497.99953 641.264428 512.59161 632.50575 504.107843 618.020244 C 444.382118 517.295449 447.436274 350.543699 447.436274 331.678854 C 447.436274 312.81401 475.263033 278.789915 502.75044 277.779298 L 492.230568 261.272559 C 485.104203 263.293793 476.959786 264.978154 462.707056 276.431809 C 448.454327 288.222337 440.30991 301.023482 440.30991 301.023482 L 440.30991 221.184765 L 416.894711 221.184765 L 419.270166 293.949165 C 419.270166 293.949165 411.125749 284.516743 398.909123 274.073704 C 387.71055 264.304409 367.010157 264.978154 354.45418 266.999387 L 353.096777 283.169254 C 368.028209 286.201104 387.371199 280.137404 396.873019 293.949165 C 408.410943 305.739693 419.270166 315.508987 419.270166 331.678854 Z M 419.270166 331.678854 " transform="matrix(0.011511,0,0,0.0115956,24.384738,15.782877)"/>
<path style="fill-rule:evenodd;fill:rgb(0%,57.254905%,0%);fill-opacity:1;stroke-width:4.4636;stroke-linecap:butt;stroke-linejoin:miter;stroke:rgb(0%,0%,0%);stroke-opacity:1;stroke-miterlimit:4;" d="M 310.457511 312.064613 L 310.457511 311.409896 C 310.457511 313.374047 310.457511 312.391972 311.439022 308.791029 C 312.175155 306.172162 313.892799 303.225937 315.610443 301.261787 C 318.554975 300.279712 322.971774 301.589145 326.407062 300.60707 C 328.615461 297.333486 332.296126 304.862729 332.296126 299.624995 C 336.467547 299.297636 336.712925 295.041978 337.939814 293.077827 C 342.111235 292.42311 343.092745 287.512735 346.282655 290.45896 C 349.227188 291.768394 346.773411 289.804243 351.435587 289.804243 C 354.134742 290.45896 355.361631 292.095752 358.060785 290.45896 C 358.551541 287.840093 359.287674 284.239151 359.778429 280.638209 C 358.551541 278.3467 358.796918 273.436325 358.796918 269.835382 C 361.005318 266.561799 365.176739 272.126891 368.857404 271.472174 C 369.838915 267.871232 373.028825 267.871232 371.311181 264.597648 C 371.065804 260.669348 370.32967 258.377839 371.311181 253.794822 C 372.53807 250.19388 374.501091 250.19388 377.936379 248.22973 C 379.163268 244.956146 377.936379 242.00992 378.91789 238.08162 C 382.843933 238.08162 382.598556 237.099545 383.089311 233.171244 C 384.3162 230.552377 385.788466 227.606152 387.996865 225.642001 C 389.959887 223.350493 392.168286 223.350493 393.88593 219.749551 C 395.112818 216.475967 395.112818 215.166533 398.793484 213.8571 C 401.492639 212.547666 403.701038 212.547666 405.418682 210.583516 C 407.136326 207.637291 408.608592 205.018424 411.307747 201.417481 C 414.006902 199.78069 426.521164 203.054273 430.447208 203.054273 C 432.655607 200.435406 435.845517 196.179747 438.053917 194.870314 C 441.489204 192.906164 442.961471 192.251447 447.869025 192.251447 C 452.285823 193.56088 454.003467 195.197672 458.665644 193.888239 C 460.628665 191.269372 462.591687 189.959938 467.008486 191.59673 C 470.443773 193.56088 472.406795 193.56088 473.633684 197.161823 C 475.596705 202.072198 475.351327 203.381632 480.504259 204.036349 C 485.657191 204.036349 486.147946 205.345782 489.583234 208.292007 C 494.736166 210.256158 494.490788 209.274083 494.490788 213.8571 C 498.171454 213.8571 498.662209 213.529741 498.662209 217.458042 C 501.115986 218.112759 503.569763 220.076909 505.287407 221.386343 C 507.495807 224.00521 507.986562 225.314643 512.894116 225.642001 C 516.574782 224.00521 517.556292 224.00521 517.80167 219.749551 C 520.500825 218.767476 520.99158 216.148608 521.973091 213.202383 C 524.18149 210.256158 525.408379 209.928799 530.315933 209.928799 C 534.732732 211.565591 534.487354 213.529741 533.751221 217.458042 C 536.450376 217.7854 537.431886 217.458042 537.922642 220.731626 C 539.14953 223.023134 538.904153 225.642001 536.941131 227.278793 C 539.14953 228.915585 540.376419 231.534452 541.112552 234.808036 C 539.640286 237.099545 540.621797 240.700487 541.112552 242.991995 C 544.057084 244.628787 545.529351 245.938221 549.455394 247.247654 C 551.418415 248.884446 555.589836 250.848597 559.51588 251.503313 C 563.932678 250.848597 565.404945 250.848597 569.576366 253.140105 C 571.539387 256.086331 571.784765 260.014631 573.747786 261.324065 C 575.710808 263.288215 579.391474 263.942932 581.109118 266.561799 C 583.808272 268.525949 584.789783 270.817458 588.715826 271.472174 C 590.188093 273.763683 593.378003 277.364625 594.359514 279.656134 C 595.341024 282.275001 595.83178 287.185376 597.058668 290.45896 L 597.058668 302.243862 C 596.813291 306.499521 596.077157 309.118388 596.077157 314.028763 C 595.341024 316.320272 594.359514 317.302347 594.359514 320.575931 C 592.887247 324.176873 591.414981 327.123099 589.45196 329.741966 C 588.470449 333.997624 586.998182 335.961775 585.280539 339.562717 C 585.280539 344.145734 586.016672 346.109884 586.016672 350.365543 C 584.299028 353.311769 582.336006 355.275919 578.655341 357.240069 C 575.956186 360.513653 574.238542 361.495728 573.747786 366.406104 C 572.030143 369.024971 572.27552 368.697612 568.594855 368.697612 C 564.423434 368.697612 560.742768 369.352329 557.062103 369.679688 C 553.626815 369.679688 552.399926 370.007046 550.436905 368.042896 C 546.265484 366.078745 543.075574 366.078745 538.658775 367.060821 C 536.450376 365.424029 535.468865 364.769312 531.297444 364.769312 C 528.107534 365.09667 525.163001 365.424029 521.236958 365.424029 C 518.783181 362.805162 517.310915 362.150445 512.894116 362.150445 C 510.440339 363.459878 505.778163 363.13252 502.097497 363.13252 C 498.171454 361.823087 497.680698 360.513653 496.208432 357.240069 C 493.509277 355.930636 492.527767 353.966485 488.601723 353.966485 C 485.166436 353.966485 480.258882 354.293844 477.805104 352.98441 C 475.10595 352.657052 472.406795 352.002335 470.443773 350.365543 C 468.726129 348.074035 466.763108 346.109884 464.554708 344.800451 C 460.874043 344.800451 458.665644 345.127809 457.193377 343.163659 C 454.248845 340.87215 452.285823 337.598567 448.850535 335.634416 C 445.660625 333.015549 443.697604 331.706116 441.97996 327.123099 C 441.97996 323.194798 442.961471 322.212723 438.79005 322.212723 C 436.090895 325.158948 434.864006 325.486307 429.711075 325.486307 C 426.275787 325.486307 422.595121 325.486307 420.386722 324.83159 C 416.706056 322.540081 415.479168 321.558006 411.307747 321.230648 C 408.608592 322.86744 405.173304 324.83159 401.247261 325.486307 C 397.811973 327.450457 395.848952 327.777815 394.622063 331.378757 C 391.432153 333.997624 389.714509 335.307058 385.543088 337.271208 C 383.089311 339.235358 380.880912 339.890075 379.654023 343.818376 C 378.91789 347.09196 377.936379 349.05611 377.936379 353.966485 C 378.672512 358.222144 378.427135 360.186295 376.218735 363.787237 C 374.501091 366.406104 371.556559 367.388179 368.857404 369.679688 C 364.685983 370.007046 364.195228 369.679688 361.250695 368.042896 C 358.306163 367.060821 355.116253 366.078745 351.435587 365.424029 C 346.773411 364.769312 345.301145 363.459878 343.092745 361.16837 L 351.435587 365.424029 C 346.773411 364.769312 345.301145 363.459878 343.092745 361.16837 C 337.939814 357.894786 336.958303 355.930636 331.314616 355.603277 C 326.161684 355.603277 323.953284 355.930636 322.971774 360.513653 C 325.916306 361.16837 323.707907 363.13252 322.235641 363.787237 C 320.027241 365.751387 316.837331 367.060821 313.892799 368.042896 C 312.66591 369.352329 312.911288 366.733462 310.457511 366.406104 C 307.022223 364.441954 305.549957 363.13252 302.114669 362.150445 C 300.642403 359.20422 298.679381 356.912711 296.470982 353.966485 C 294.753338 351.02026 293.035694 350.038185 290.581917 347.09196 C 289.355028 345.455168 286.410496 345.455168 284.692852 343.818376 C 283.711341 340.87215 281.502942 335.307058 282.239075 332.033474 C 283.956719 330.724041 284.93823 324.83159 287.146629 323.849515 C 290.581917 321.230648 291.808805 323.522156 296.470982 323.849515 C 300.642403 323.849515 290.581917 317.302347 294.753338 317.302347 C 298.679381 316.64763 299.170136 314.68348 300.642403 312.064613 Z M 310.457511 312.064613 " transform="matrix(0.0159193,0,0,0.0119326,22.315535,14.846558)"/>
<path style="fill:none;stroke-width:4.05;stroke-linecap:butt;stroke-linejoin:miter;stroke:rgb(0%,40.784314%,0%);stroke-opacity:1;stroke-miterlimit:4;" d="M 383.089311 253.096006 C 383.825444 253.904499 387.751487 255.521486 391.186775 255.521486 C 395.358196 256.329979 396.094329 257.946966 397.07584 261.450437 C 399.284239 262.797926 400.756506 263.067424 404.682549 263.067424 C 409.099348 263.875917 408.85397 265.223406 412.04388 268.187882 " transform="matrix(0.0159193,0,0,0.0144946,22.315535,13.995549)"/>
<path style="fill:none;stroke-width:4.05;stroke-linecap:butt;stroke-linejoin:miter;stroke:rgb(0%,40.784314%,0%);stroke-opacity:1;stroke-miterlimit:4;" d="M 358.796918 299.719122 C 360.75994 299.98862 366.894383 300.527616 371.311181 300.527616 C 374.746469 298.641131 376.218735 297.293642 378.91789 295.676656 C 382.843933 295.676656 384.070822 295.946153 386.279221 297.293642 C 388.48762 297.832638 393.395175 298.102136 395.358196 298.910629 C 395.358196 299.98862 395.112818 299.719122 396.339707 299.719122 " transform="matrix(0.0159193,0,0,0.0144946,22.315535,13.995549)"/>
<path style="fill:none;stroke-width:4.05;stroke-linecap:butt;stroke-linejoin:miter;stroke:rgb(0%,40.784314%,0%);stroke-opacity:1;stroke-miterlimit:4;" d="M 391.432153 286.513731 C 391.432153 286.244233 394.622063 284.357749 397.07584 283.818753 C 400.020373 281.932269 402.964905 280.854277 406.400193 279.776286 C 408.363214 279.237291 413.516146 279.237291 414.743035 278.967793 " transform="matrix(0.0159193,0,0,0.0144946,22.315535,13.995549)"/>
<path style="fill:none;stroke-width:4.05;stroke-linecap:butt;stroke-linejoin:miter;stroke:rgb(0%,40.784314%,0%);stroke-opacity:1;stroke-miterlimit:4;" d="M 432.164852 273.847335 L 432.164852 274.655828 C 432.164852 272.499846 431.919474 273.577837 433.882496 278.1593 C 434.618629 282.201766 435.60014 285.705238 437.072406 288.939211 C 439.526183 292.71218 441.243827 294.329167 444.679115 296.485149 C 447.623647 298.641131 449.832046 301.066611 453.021956 302.144602 C 455.230356 304.300585 457.929511 305.917571 461.119421 307.26506 C 465.536219 307.26506 468.726129 307.804056 472.89755 308.073554 L 475.351327 308.073554 " transform="matrix(0.0159193,0,0,0.0144946,22.315535,13.995549)"/>
<path style="fill:none;stroke-width:4.05;stroke-linecap:butt;stroke-linejoin:miter;stroke:rgb(0%,40.784314%,0%);stroke-opacity:1;stroke-miterlimit:4;" d="M 477.068971 227.224219 L 477.068971 228.032712 C 477.068971 225.87673 477.068971 226.954721 476.332838 231.536183 C 474.860572 234.231161 473.633684 236.656641 472.161417 238.812623 C 468.235374 240.42961 466.763108 243.124588 465.290842 246.358561 C 464.063953 248.784041 461.855554 251.479019 460.383288 253.904499 C 457.929511 257.138473 456.702622 258.216464 452.040446 259.83345 " transform="matrix(0.0159193,0,0,0.0144946,22.315535,13.995549)"/>
<path style="fill:none;stroke-width:4.05;stroke-linecap:butt;stroke-linejoin:miter;stroke:rgb(0%,40.784314%,0%);stroke-opacity:1;stroke-miterlimit:4;" d="M 510.440339 244.741575 C 510.440339 245.011072 508.722695 247.167055 507.741184 249.862032 C 506.268918 252.287512 505.778163 256.599477 505.287407 259.83345 C 505.287407 263.336922 505.287407 267.379388 506.268918 269.804868 C 508.722695 272.769344 509.458828 274.386331 513.630249 276.542313 L 506.268918 269.804868 C 508.722695 272.769344 509.458828 274.386331 513.630249 276.542313 " transform="matrix(0.0159193,0,0,0.0144946,22.315535,13.995549)"/>
<path style="fill:none;stroke-width:4.05;stroke-linecap:butt;stroke-linejoin:miter;stroke:rgb(0%,40.784314%,0%);stroke-opacity:1;stroke-miterlimit:4;" d="M 571.048632 273.847335 L 571.048632 274.655828 C 571.048632 272.230348 571.294009 273.847335 566.877211 277.350806 C 563.687301 280.315282 561.478901 282.740762 558.534369 284.627246 C 553.872193 285.974735 553.136059 285.974735 548.719261 285.43574 L 541.112552 285.43574 " transform="matrix(0.0159193,0,0,0.0144946,22.315535,13.995549)"/>
<path style="fill:none;stroke-width:4.05;stroke-linecap:butt;stroke-linejoin:miter;stroke:rgb(0%,40.784314%,0%);stroke-opacity:1;stroke-miterlimit:4;" d="M 582.826762 337.179314 L 582.090628 337.179314 C 584.299028 337.179314 583.072139 337.179314 578.655341 338.796301 C 574.974675 339.874292 570.803254 339.874292 567.858722 338.796301 C 564.914189 337.179314 561.969657 335.831825 559.51588 333.136847 C 558.288991 332.058856 558.043613 331.789358 557.062103 331.250363 " transform="matrix(0.0159193,0,0,0.0144946,22.315535,13.995549)"/>
<path style="fill:none;stroke-width:4.05;stroke-linecap:butt;stroke-linejoin:miter;stroke:rgb(0%,40.784314%,0%);stroke-opacity:1;stroke-miterlimit:4;" d="M 553.626815 363.051101 L 553.626815 362.242608 C 553.626815 364.668088 553.872193 363.051101 549.455394 359.54763 C 547.73775 356.852652 545.774728 355.774661 542.094063 353.079683 C 538.658775 349.037217 538.413397 347.42023 536.941131 343.108265 C 536.695753 339.604794 535.468865 336.370821 536.941131 333.945341 " transform="matrix(0.0159193,0,0,0.0144946,22.315535,13.995549)"/>
<path style="fill:none;stroke-width:4.05;stroke-linecap:butt;stroke-linejoin:miter;stroke:rgb(0%,40.784314%,0%);stroke-opacity:1;stroke-miterlimit:4;" d="M 492.037011 348.767719 C 493.754655 348.767719 500.625231 348.767719 503.815141 347.959225 C 506.02354 346.342239 508.722695 345.264248 511.912605 343.916759 C 513.875627 339.604794 515.347893 337.987807 515.347893 333.136847 " transform="matrix(0.0159193,0,0,0.0144946,22.315535,13.995549)"/>
<path style="fill:none;stroke-width:4.05;stroke-linecap:butt;stroke-linejoin:miter;stroke:rgb(0%,40.784314%,0%);stroke-opacity:1;stroke-miterlimit:4;" d="M 441.243827 323.973923 C 440.507694 322.356936 437.808539 316.427985 436.336273 312.924514 C 436.090895 309.421042 435.354762 306.726065 435.354762 302.953096 " transform="matrix(0.0159193,0,0,0.0144946,22.315535,13.995549)"/>
<path style="fill:none;stroke-width:4.05;stroke-linecap:butt;stroke-linejoin:miter;stroke:rgb(0%,40.784314%,0%);stroke-opacity:1;stroke-miterlimit:4;" d="M 328.860839 350.384706 C 329.596972 350.654203 333.277637 350.923701 335.486037 350.384706 C 339.166702 348.767719 342.60199 348.228723 346.282655 347.959225 C 348.245677 346.881234 351.435587 346.881234 352.907853 345.533745 C 356.588519 343.108265 356.833897 340.952283 358.796918 337.179314 C 359.042296 335.562327 359.533051 334.753834 359.778429 333.136847 " transform="matrix(0.0159193,0,0,0.0144946,22.315535,13.995549)"/>
<path style="fill:none;stroke-width:4.05;stroke-linecap:butt;stroke-linejoin:miter;stroke:rgb(0%,40.784314%,0%);stroke-opacity:1;stroke-miterlimit:4;" d="M 383.825444 337.987807 C 381.862422 337.987807 375.237224 338.257305 371.311181 337.179314 C 369.34816 335.831825 367.875893 333.945341 366.403627 332.058856 C 367.385138 332.058856 367.13976 332.597852 367.13976 331.250363 " transform="matrix(0.0159193,0,0,0.0144946,22.315535,13.995549)"/>
<path style="fill:none;stroke-width:4.05;stroke-linecap:butt;stroke-linejoin:miter;stroke:rgb(0%,40.784314%,0%);stroke-opacity:1;stroke-miterlimit:4;" d="M 393.88593 314.002505 C 394.131308 313.733007 398.302729 312.11602 401.247261 312.11602 C 402.964905 311.038029 406.154815 309.960038 408.85397 308.882047 C 410.326236 308.073554 411.307747 306.995562 413.025391 306.456567 " transform="matrix(0.0159193,0,0,0.0144946,22.315535,13.995549)"/>
<path style="fill:none;stroke-width:4.05;stroke-linecap:butt;stroke-linejoin:miter;stroke:rgb(0%,40.784314%,0%);stroke-opacity:1;stroke-miterlimit:4;" d="M 293.035694 347.150732 L 293.771827 347.150732 C 291.563428 347.150732 292.790316 347.150732 297.207115 346.342239 C 302.360047 346.072741 305.795334 344.186257 309.721378 343.108265 C 312.175155 340.682785 315.610443 338.257305 318.06422 337.179314 C 318.06422 335.831825 317.573464 335.831825 318.800353 335.562327 " transform="matrix(0.0159193,0,0,0.0144946,22.315535,13.995549)"/>
<path style="fill:none;stroke-width:4.05;stroke-linecap:butt;stroke-linejoin:miter;stroke:rgb(0%,40.784314%,0%);stroke-opacity:1;stroke-miterlimit:4;" d="M 504.551274 301.336109 L 505.287407 301.336109 C 503.079008 301.336109 504.305896 301.336109 508.722695 302.953096 C 512.157983 304.300585 515.347893 304.83958 518.783181 305.648074 C 521.727713 306.187069 522.709224 307.26506 527.126023 307.26506 C 531.297444 309.151545 532.033577 309.69054 535.223487 312.11602 C 537.922642 313.463509 539.640286 314.002505 543.566329 314.002505 C 545.774728 312.655016 549.946149 311.307527 551.909171 310.499034 C 553.136059 309.69054 553.381437 309.960038 553.626815 308.882047 " transform="matrix(0.0159193,0,0,0.0144946,22.315535,13.995549)"/>
<path style="fill:none;stroke-width:1.25;stroke-linecap:butt;stroke-linejoin:miter;stroke:rgb(0%,0%,0%);stroke-opacity:1;stroke-miterlimit:4;" d="M 430.867359 469.599052 L 430.867359 488.463897 C 430.867359 494.392848 430.376604 499.782804 428.65896 504.903262 C 428.65896 510.832213 428.413582 516.491667 426.205183 520.264636 C 425.714427 525.654591 424.978294 530.775049 424.978294 536.704 C 423.26065 541.824458 423.506028 548.831401 422.769895 554.221356 C 422.033762 559.88081 421.297629 566.348756 420.316118 570.930219 C 418.598474 574.43369 415.653941 581.171134 413.200164 583.866112 C 412.954787 588.717072 411.727898 591.41205 413.200164 595.454517 C 414.917808 600.574975 414.427053 606.503926 414.427053 611.893882 C 415.899319 616.744842 415.653941 622.134798 415.653941 627.255255 " transform="matrix(0.0159193,0,0,0.0144946,22.527597,13.947278)"/>
<path style="fill:none;stroke-width:1.25;stroke-linecap:butt;stroke-linejoin:miter;stroke:rgb(0%,0%,0%);stroke-opacity:1;stroke-miterlimit:4;" d="M 436.756424 493.045359 C 437.247179 495.470839 438.964823 503.825271 439.210201 509.484724 L 439.210201 535.356511 C 439.210201 541.824458 439.700956 547.214414 440.437089 553.143365 C 440.191712 560.150307 438.964823 562.575787 435.529535 568.504739 C 435.03878 573.894694 434.057269 579.28465 433.321136 584.944103 C 431.603492 589.795064 432.094248 595.724015 432.094248 601.383468 C 433.566514 607.851415 435.774913 608.929406 436.756424 614.319362 C 436.756424 617.822833 437.247179 619.43982 437.983312 621.326304 " transform="matrix(0.0159193,0,0,0.0144946,22.527597,13.947278)"/>
<path style="fill:none;stroke-width:1.25;stroke-linecap:butt;stroke-linejoin:miter;stroke:rgb(0%,0%,0%);stroke-opacity:1;stroke-miterlimit:4;" d="M 447.307665 535.356511 C 447.307665 537.512494 447.307665 548.022907 448.534554 552.065374 C 448.534554 557.994325 449.761442 562.575787 449.761442 568.504739 C 449.025309 573.625197 448.289176 577.398166 445.099266 580.093143 C 442.890866 584.674606 441.663978 588.447575 441.4186 594.376526 C 444.60851 596.532508 447.798421 602.461459 450.988331 604.886939 C 453.442108 610.276895 455.895885 610.546393 456.877396 616.744842 C 459.331173 619.43982 455.159752 620.787309 456.877396 622.673793 C 458.840417 625.099273 457.613529 624.021282 456.877396 626.177264 " transform="matrix(0.0159193,0,0,0.0144946,22.527597,13.947278)"/>
<path style="fill-rule:evenodd;fill:rgb(100%,81.960785%,0%);fill-opacity:1;stroke-width:3.125;stroke-linecap:butt;stroke-linejoin:miter;stroke:rgb(0%,0%,0%);stroke-opacity:1;stroke-miterlimit:4;" d="M 46.968476 -26.686213 L 61.225431 -53.199541 L 46.968476 -80.052783 L 77.34199 -81.072527 L 93.148614 -106.566111 L 109.265172 -81.072527 L 139.328752 -80.052783 L 125.071796 -53.199541 L 139.328752 -26.686213 L 109.265172 -25.666469 L 93.148614 0.16703 L 77.34199 -25.666469 Z M 46.968476 -26.686213 " transform="matrix(0.0126035,0,0,0.0114919,28.872877,15.509799)"/>
<path style="fill-rule:evenodd;fill:rgb(100%,81.960785%,0%);fill-opacity:1;stroke-width:3.125;stroke-linecap:butt;stroke-linejoin:miter;stroke:rgb(0%,0%,0%);stroke-opacity:1;stroke-miterlimit:4;" d="M 47.139043 -26.686213 L 61.395998 -53.199541 L 47.139043 -80.052783 L 77.202623 -81.072527 L 93.319181 -106.566111 L 109.125805 -81.072527 L 139.499319 -80.052783 L 125.242363 -53.199541 L 139.499319 -26.686213 L 109.125805 -25.666469 L 93.319181 0.16703 L 77.202623 -25.666469 Z M 47.139043 -26.686213 " transform="matrix(0.0126035,0,0,0.0114919,27.319946,15.509799)"/>
<path style="fill-rule:evenodd;fill:rgb(100%,81.960785%,0%);fill-opacity:1;stroke-width:3.125;stroke-linecap:butt;stroke-linejoin:miter;stroke:rgb(0%,0%,0%);stroke-opacity:1;stroke-miterlimit:4;" d="M 47.106609 -26.513576 L 61.209329 -53.123913 L 47.212618 -79.976273 L 77.332079 -80.841611 L 93.190707 -106.537016 L 109.251469 -81.129066 L 139.414134 -79.931971 L 125.311413 -53.321634 L 139.352145 -26.806323 L 109.188664 -25.603936 L 93.330035 0.091469 L 77.313294 -25.65353 Z M 47.106609 -26.513576 " transform="matrix(0.0124973,-0.0014883,0.00163221,0.0113952,25.989726,15.911298)"/>
<path style="fill-rule:evenodd;fill:rgb(100%,81.960785%,0%);fill-opacity:1;stroke-width:3.125;stroke-linecap:butt;stroke-linejoin:miter;stroke:rgb(0%,0%,0%);stroke-opacity:1;stroke-miterlimit:4;" d="M 47.215127 -26.569334 L 61.317848 -53.179671 L 47.013811 -80.072171 L 77.133273 -80.937509 L 93.299226 -106.592775 L 109.315967 -80.847776 L 139.522652 -79.98773 L 125.112607 -53.417532 L 139.416643 -26.525032 L 109.297182 -25.659694 L 93.131229 -0.00442864 L 77.421812 -25.709289 Z M 47.215127 -26.569334 " transform="matrix(-0.0124973,-0.0014883,-0.00163221,0.0113952,32.679508,15.873033)"/>
<path style="fill-rule:evenodd;fill:rgb(100%,81.960785%,0%);fill-opacity:1;stroke-width:3.125;stroke-linecap:butt;stroke-linejoin:miter;stroke:rgb(0%,0%,0%);stroke-opacity:1;stroke-miterlimit:4;" d="M 46.991827 -26.739139 L 61.269886 -53.431838 L 47.245855 -79.955415 L 77.16752 -80.9978 L 93.380695 -106.652358 L 109.316802 -80.899567 L 139.554007 -80.030549 L 125.275948 -53.337851 L 139.299979 -26.814274 L 109.265922 -25.451094 L 93.165139 -0.11733 L 77.11664 -25.549327 Z M 46.991827 -26.739139 " transform="matrix(-0.0118946,-0.00379975,-0.00416736,0.0108455,33.873299,16.671683)"/>
<path style="fill-rule:evenodd;fill:rgb(100%,81.960785%,0%);fill-opacity:1;stroke-width:3.125;stroke-linecap:butt;stroke-linejoin:miter;stroke:rgb(0%,0%,0%);stroke-opacity:1;stroke-miterlimit:4;" d="M 47.052558 -26.504643 L 61.330617 -53.197342 L 47.014085 -79.823397 L 77.340644 -81.084098 L 93.148925 -106.520341 L 109.197424 -81.088344 L 139.322237 -79.898531 L 125.044178 -53.205833 L 139.36071 -26.579778 L 109.146544 -25.639871 L 93.22587 0.117166 L 77.289764 -25.635625 Z M 47.052558 -26.504643 " transform="matrix(0.0118946,-0.00379975,0.00416736,0.0108455,24.753908,16.595151)"/>
</g>
</svg>
