<?xml version="1.0" encoding="UTF-8"?>
<svg xmlns="http://www.w3.org/2000/svg" xmlns:xlink="http://www.w3.org/1999/xlink" width="40px" height="40px" viewBox="0 0 40 40" version="1.1">
<g id="surface1">
<rect x="0" y="0" width="40" height="40" style="fill:rgb(0%,40.000001%,100%);fill-opacity:1;stroke:none;"/>
<path style=" stroke:none;fill-rule:evenodd;fill:rgb(100%,100%,100%);fill-opacity:1;" d="M 13.332031 0 L 26.667969 0 L 26.667969 40 L 13.332031 40 Z M 13.332031 0 "/>
<path style="fill:none;stroke-width:0.5;stroke-linecap:butt;stroke-linejoin:miter;stroke:rgb(0%,0%,0%);stroke-opacity:1;stroke-miterlimit:4;" d="M 401.84169 305.024179 C 400.049228 303.183094 390.699359 300.324567 384.01396 299.743171 C 378.297459 299.307125 374.5672 295.528055 371.176056 295.140458 C 361.293292 285.256736 348.406944 281.429217 339.977527 262.14627 C 338.378845 256.380766 337.264612 249.307122 337.070832 242.572626 C 340.268197 220.043555 342.302884 220.62495 347.050486 205.750918 " transform="matrix(-0.0806328,0,0,0.080625,52.190687,0.157427)"/>
<path style=" stroke:none;fill-rule:evenodd;fill:rgb(4.705882%,36.078432%,11.372549%);fill-opacity:1;" d="M 21.214844 24.5 C 21.226562 24.636719 21.636719 25.128906 22.34375 25.042969 C 22.28125 24.90625 22.125 24.808594 21.90625 24.601562 C 21.804688 24.5 21.207031 24.4375 21.214844 24.5 Z M 21.214844 24.5 "/>
<path style=" stroke:none;fill-rule:evenodd;fill:rgb(4.705882%,36.078432%,11.372549%);fill-opacity:1;" d="M 22.054688 24.359375 C 21.972656 24.367188 21.898438 24.417969 22.039062 24.539062 C 22.277344 24.738281 23.128906 24.921875 23.253906 24.667969 C 22.878906 24.617188 22.628906 24.539062 22.589844 24.539062 C 22.414062 24.484375 22.191406 24.347656 22.054688 24.359375 Z M 22.054688 24.359375 "/>
<path style=" stroke:none;fill-rule:evenodd;fill:rgb(4.705882%,36.078432%,11.372549%);fill-opacity:1;" d="M 21.628906 24.300781 C 21.800781 24.183594 21.933594 24.191406 22.046875 24.167969 C 22.332031 24.148438 22.523438 24.1875 22.644531 24.238281 C 22.820312 24.3125 23.074219 24.503906 23.109375 24.640625 C 22.847656 24.636719 22.675781 24.4375 22.335938 24.363281 C 22.164062 24.347656 21.847656 24.328125 21.628906 24.300781 Z M 21.628906 24.300781 "/>
<path style=" stroke:none;fill-rule:evenodd;fill:rgb(4.705882%,36.078432%,11.372549%);fill-opacity:1;" d="M 21.175781 24.25 C 21.671875 23.941406 22.140625 23.382812 22.191406 22.800781 C 21.570312 23.285156 21.152344 23.984375 21.175781 24.25 Z M 21.175781 24.25 "/>
<path style=" stroke:none;fill-rule:evenodd;fill:rgb(4.705882%,36.078432%,11.372549%);fill-opacity:1;" d="M 21.457031 24.242188 C 21.875 24.0625 22.445312 23.652344 22.511719 22.804688 C 21.9375 23.167969 21.753906 23.703125 21.457031 24.242188 Z M 21.457031 24.242188 "/>
<path style=" stroke:none;fill-rule:evenodd;fill:rgb(4.705882%,36.078432%,11.372549%);fill-opacity:1;" d="M 22.339844 23.835938 C 22.308594 23.59375 22.882812 22.347656 23.21875 22.023438 C 23.253906 22.503906 22.785156 23.855469 22.339844 23.835938 Z M 22.339844 23.835938 "/>
<path style=" stroke:none;fill-rule:evenodd;fill:rgb(4.705882%,36.078432%,11.372549%);fill-opacity:1;" d="M 22.324219 23.882812 C 22.410156 24.253906 23.359375 24.347656 23.664062 23.914062 C 23.285156 23.851562 22.8125 23.8125 22.324219 23.882812 Z M 22.324219 23.882812 "/>
<path style=" stroke:none;fill-rule:evenodd;fill:rgb(4.705882%,36.078432%,11.372549%);fill-opacity:1;" d="M 22.738281 23.628906 C 23.128906 23.871094 24.074219 23.699219 24.621094 23.265625 C 23.800781 23.015625 22.78125 23.488281 22.738281 23.628906 Z M 22.738281 23.628906 "/>
<path style=" stroke:none;fill-rule:evenodd;fill:rgb(4.705882%,36.078432%,11.372549%);fill-opacity:1;" d="M 23.488281 23.09375 C 23.546875 22.824219 24.347656 22.292969 24.859375 22.324219 C 24.535156 22.765625 24.421875 22.691406 24.25 22.886719 C 24.136719 23.03125 23.730469 23.140625 23.488281 23.09375 Z M 23.488281 23.09375 "/>
<path style=" stroke:none;fill-rule:evenodd;fill:rgb(4.705882%,36.078432%,11.372549%);fill-opacity:1;" d="M 23.75 22.480469 C 23.46875 22.375 23.53125 21.5625 23.71875 21.230469 C 23.910156 21.675781 23.960938 22.375 23.75 22.480469 Z M 23.75 22.480469 "/>
<path style=" stroke:none;fill-rule:evenodd;fill:rgb(4.705882%,36.078432%,11.372549%);fill-opacity:1;" d="M 24.136719 22.179688 C 23.761719 21.972656 23.898438 20.949219 24.097656 20.664062 C 24.253906 20.96875 24.335938 22.03125 24.136719 22.179688 Z M 24.136719 22.179688 "/>
<path style=" stroke:none;fill-rule:evenodd;fill:rgb(4.705882%,36.078432%,11.372549%);fill-opacity:1;" d="M 24.28125 22.171875 C 24.5 21.828125 25.257812 21.816406 25.589844 21.949219 C 25.226562 22.300781 24.671875 22.320312 24.28125 22.171875 Z M 24.28125 22.171875 "/>
<path style=" stroke:none;fill-rule:evenodd;fill:rgb(4.705882%,36.078432%,11.372549%);fill-opacity:1;" d="M 24.507812 21.953125 C 24.191406 21.464844 24.386719 21.203125 24.578125 20.597656 C 24.671875 21.113281 24.597656 21.65625 24.507812 21.953125 Z M 24.507812 21.953125 "/>
<path style=" stroke:none;fill-rule:evenodd;fill:rgb(4.705882%,36.078432%,11.372549%);fill-opacity:1;" d="M 24.902344 20.867188 C 24.957031 20.414062 25.367188 20.199219 25.835938 20.042969 C 25.738281 20.378906 25.535156 20.738281 24.902344 20.867188 Z M 24.902344 20.867188 "/>
<path style=" stroke:none;fill-rule:evenodd;fill:rgb(4.705882%,36.078432%,11.372549%);fill-opacity:1;" d="M 24.792969 21.113281 C 24.300781 21.03125 24.28125 20.566406 24.289062 20.109375 C 24.429688 20.359375 24.761719 20.683594 24.792969 21.113281 Z M 24.792969 21.113281 "/>
<path style=" stroke:none;fill-rule:evenodd;fill:rgb(4.705882%,36.078432%,11.372549%);fill-opacity:1;" d="M 24.667969 20.324219 C 24.78125 20.039062 24.578125 19.273438 24.082031 18.992188 C 24.089844 19.460938 24.40625 20.042969 24.667969 20.324219 Z M 24.667969 20.324219 "/>
<path style=" stroke:none;fill-rule:evenodd;fill:rgb(4.705882%,36.078432%,11.372549%);fill-opacity:1;" d="M 24.945312 20.160156 C 25.015625 19.988281 25.0625 19.902344 25.171875 19.6875 C 25.355469 19.296875 25.234375 19.425781 25.488281 18.953125 C 25.625 19.484375 25.351562 20.117188 24.945312 20.160156 Z M 24.945312 20.160156 "/>
<path style=" stroke:none;fill-rule:evenodd;fill:rgb(4.705882%,36.078432%,11.372549%);fill-opacity:1;" d="M 24.976562 18.738281 C 24.640625 18.921875 24.296875 18.800781 23.824219 18.425781 C 24.214844 18.390625 24.5625 18.578125 24.976562 18.738281 Z M 24.976562 18.738281 "/>
<path style=" stroke:none;fill-rule:evenodd;fill:rgb(4.705882%,36.078432%,11.372549%);fill-opacity:1;" d="M 24.882812 18.546875 C 25.085938 17.875 25.207031 17.761719 25.371094 17.03125 C 24.957031 17.367188 24.742188 18.097656 24.882812 18.546875 Z M 24.882812 18.546875 "/>
<path style=" stroke:none;fill-rule:evenodd;fill:rgb(4.705882%,36.078432%,11.372549%);fill-opacity:1;" d="M 24.808594 18.503906 C 24.351562 18.171875 24.246094 17.796875 23.71875 17.660156 C 23.730469 17.847656 24.484375 18.632812 24.808594 18.503906 Z M 24.808594 18.503906 "/>
<path style=" stroke:none;fill-rule:evenodd;fill:rgb(4.705882%,36.078432%,11.372549%);fill-opacity:1;" d="M 24.691406 18.042969 C 24.398438 17.679688 24.238281 17.386719 23.808594 17.125 C 23.875 17.566406 24.359375 18.207031 24.691406 18.042969 Z M 24.691406 18.042969 "/>
<path style=" stroke:none;fill-rule:evenodd;fill:rgb(4.705882%,36.078432%,11.372549%);fill-opacity:1;" d="M 24.136719 17.234375 C 24.230469 16.730469 23.605469 16.394531 23.386719 16.136719 C 23.363281 16.582031 23.753906 17.105469 24.136719 17.234375 Z M 24.136719 17.234375 "/>
<path style=" stroke:none;fill-rule:evenodd;fill:rgb(4.705882%,36.078432%,11.372549%);fill-opacity:1;" d="M 24.132812 16.652344 C 24.28125 16.199219 23.871094 15.890625 23.667969 15.65625 C 23.699219 16.101562 23.769531 16.558594 24.132812 16.652344 Z M 24.132812 16.652344 "/>
<path style=" stroke:none;fill-rule:evenodd;fill:rgb(4.705882%,36.078432%,11.372549%);fill-opacity:1;" d="M 24.726562 17.558594 C 24.90625 17.265625 24.800781 16.589844 24.6875 16.308594 C 24.542969 16.464844 24.472656 17.503906 24.726562 17.558594 Z M 24.726562 17.558594 "/>
<path style=" stroke:none;fill-rule:evenodd;fill:rgb(4.705882%,36.078432%,11.372549%);fill-opacity:1;" d="M 24.445312 16.960938 C 24.652344 16.601562 24.535156 16.21875 24.417969 15.933594 C 24.285156 16.355469 24.191406 16.757812 24.445312 16.960938 Z M 24.445312 16.960938 "/>
<path style=" stroke:none;fill-rule:evenodd;fill:rgb(4.705882%,36.078432%,11.372549%);fill-opacity:1;" d="M 24.863281 19.8125 C 25.164062 19.773438 25.378906 19.144531 25.167969 18.578125 C 24.976562 19.082031 24.976562 19.320312 24.863281 19.8125 Z M 24.863281 19.8125 "/>
<path style=" stroke:none;fill-rule:evenodd;fill:rgb(4.705882%,36.078432%,11.372549%);fill-opacity:1;" d="M 24.785156 18.695312 C 25.160156 18.714844 25.398438 18.390625 25.597656 17.824219 C 25.289062 18.019531 25.136719 18.546875 24.785156 18.695312 Z M 24.785156 18.695312 "/>
<path style=" stroke:none;fill-rule:evenodd;fill:rgb(4.705882%,36.078432%,11.372549%);fill-opacity:1;" d="M 25.039062 19.964844 C 24.695312 20.046875 24.308594 19.148438 24.574219 18.640625 C 24.863281 19.222656 24.929688 19.464844 25.039062 19.964844 Z M 25.039062 19.964844 "/>
<path style=" stroke:none;fill-rule:evenodd;fill:rgb(4.705882%,36.078432%,11.372549%);fill-opacity:1;" d="M 24.671875 21.285156 C 24.71875 20.941406 25.457031 20.855469 25.828125 20.929688 C 25.53125 21.167969 24.929688 21.316406 24.671875 21.285156 Z M 24.671875 21.285156 "/>
<path style=" stroke:none;fill-rule:evenodd;fill:rgb(4.705882%,36.078432%,11.372549%);fill-opacity:1;" d="M 24.496094 21.832031 C 24.707031 21.648438 25.039062 21.84375 25.570312 20.808594 C 24.855469 21.214844 24.582031 21.691406 24.496094 21.832031 Z M 24.496094 21.832031 "/>
<path style="fill:none;stroke-width:0.5;stroke-linecap:butt;stroke-linejoin:miter;stroke:rgb(0%,0%,0%);stroke-opacity:1;stroke-miterlimit:4;" d="M 399.58304 306.241495 C 398.129692 304.25506 390.669175 302.074828 384.032221 301.493432 C 378.267275 301.73568 372.986779 300.379091 368.190732 297.908161 C 358.356413 288.024439 347.359416 281.435292 338.93 262.152345 C 337.331318 256.386841 336.362419 251.057383 336.217085 244.322887 C 339.366005 221.793816 339.705119 219.613583 348.473649 204.691102 " transform="matrix(0.0806328,0,0,0.080625,-11.914816,0.0592808)"/>
<path style=" stroke:none;fill-rule:evenodd;fill:rgb(4.705882%,36.078432%,11.372549%);fill-opacity:1;" d="M 18.597656 24.511719 C 18.582031 24.644531 18.113281 25.0625 17.464844 25.054688 C 17.53125 24.917969 18.167969 24.769531 18.339844 24.523438 C 18.390625 24.449219 18.601562 24.449219 18.597656 24.511719 Z M 18.597656 24.511719 "/>
<path style=" stroke:none;fill-rule:evenodd;fill:rgb(4.705882%,36.078432%,11.372549%);fill-opacity:1;" d="M 18.121094 24.320312 C 18.203125 24.308594 18.246094 24.347656 18.105469 24.472656 C 17.867188 24.671875 17.464844 24.765625 16.871094 24.867188 C 17.070312 24.667969 17.546875 24.5 17.585938 24.503906 C 17.761719 24.445312 17.964844 24.347656 18.121094 24.320312 Z M 18.121094 24.320312 "/>
<path style=" stroke:none;fill-rule:evenodd;fill:rgb(4.705882%,36.078432%,11.372549%);fill-opacity:1;" d="M 18.464844 24.300781 C 18.402344 24.164062 18.339844 24.09375 18.230469 24.070312 C 17.945312 24.050781 17.722656 24.097656 17.632812 24.136719 C 17.535156 24.195312 17.230469 24.394531 17.195312 24.53125 C 17.429688 24.46875 17.582031 24.289062 17.917969 24.246094 C 18.078125 24.191406 18.308594 24.199219 18.464844 24.300781 Z M 18.464844 24.300781 "/>
<path style=" stroke:none;fill-rule:evenodd;fill:rgb(4.705882%,36.078432%,11.372549%);fill-opacity:1;" d="M 19.097656 24.148438 C 18.601562 23.84375 18.292969 23.453125 18.242188 22.871094 C 18.863281 23.355469 19.125 23.886719 19.097656 24.148438 Z M 19.097656 24.148438 "/>
<path style=" stroke:none;fill-rule:evenodd;fill:rgb(4.705882%,36.078432%,11.372549%);fill-opacity:1;" d="M 18.789062 24.234375 C 18.320312 24.03125 18.148438 23.65625 17.824219 23.035156 C 18.40625 23.328125 18.652344 23.636719 18.789062 24.234375 Z M 18.789062 24.234375 "/>
<path style=" stroke:none;fill-rule:evenodd;fill:rgb(4.705882%,36.078432%,11.372549%);fill-opacity:1;" d="M 17.734375 24.023438 C 17.839844 23.605469 17.660156 22.992188 17.355469 22.691406 C 17.328125 23.160156 17.417969 23.945312 17.734375 24.023438 Z M 17.734375 24.023438 "/>
<path style=" stroke:none;fill-rule:evenodd;fill:rgb(4.705882%,36.078432%,11.372549%);fill-opacity:1;" d="M 17.574219 23.914062 C 17.488281 24.285156 16.519531 24.289062 16.234375 23.945312 C 16.527344 24.011719 17.164062 24.023438 17.574219 23.914062 Z M 17.574219 23.914062 "/>
<path style=" stroke:none;fill-rule:evenodd;fill:rgb(4.705882%,36.078432%,11.372549%);fill-opacity:1;" d="M 17.316406 23.617188 C 17.019531 23.84375 15.816406 23.472656 15.800781 23.265625 C 15.960938 23.246094 17.273438 23.480469 17.316406 23.617188 Z M 17.316406 23.617188 "/>
<path style=" stroke:none;fill-rule:evenodd;fill:rgb(4.705882%,36.078432%,11.372549%);fill-opacity:1;" d="M 17.230469 23.542969 C 17.40625 23.195312 16.925781 22.109375 16.734375 22.117188 C 16.847656 22.929688 17.050781 23.300781 17.230469 23.542969 Z M 17.230469 23.542969 "/>
<path style=" stroke:none;fill-rule:evenodd;fill:rgb(4.705882%,36.078432%,11.372549%);fill-opacity:1;" d="M 16.917969 23.253906 C 16.804688 22.996094 15.96875 22.550781 15.542969 22.480469 C 15.890625 22.847656 16.113281 22.792969 16.230469 23.027344 C 16.320312 23.183594 16.695312 23.210938 16.917969 23.253906 Z M 16.917969 23.253906 "/>
<path style=" stroke:none;fill-rule:evenodd;fill:rgb(4.705882%,36.078432%,11.372549%);fill-opacity:1;" d="M 16.761719 23.058594 C 16.847656 22.730469 16.804688 22.601562 16.589844 22.363281 C 16.566406 22.707031 16.613281 22.84375 16.761719 23.058594 Z M 16.761719 23.058594 "/>
<path style=" stroke:none;fill-rule:evenodd;fill:rgb(4.705882%,36.078432%,11.372549%);fill-opacity:1;" d="M 16.445312 22.691406 C 16.679688 22.539062 16.539062 21.75 16.328125 21.527344 C 16.285156 22.097656 16.226562 22.601562 16.445312 22.691406 Z M 16.445312 22.691406 "/>
<path style=" stroke:none;fill-rule:evenodd;fill:rgb(4.705882%,36.078432%,11.372549%);fill-opacity:1;" d="M 16.027344 22.101562 C 16.433594 21.964844 16.117188 21.210938 15.988281 20.914062 C 15.832031 21.21875 16.105469 21.378906 16.027344 22.101562 Z M 16.027344 22.101562 "/>
<path style=" stroke:none;fill-rule:evenodd;fill:rgb(4.705882%,36.078432%,11.372549%);fill-opacity:1;" d="M 15.953125 22.152344 C 15.617188 21.832031 15.019531 21.804688 14.6875 21.9375 C 15.085938 22.074219 15.703125 22.160156 15.953125 22.152344 Z M 15.953125 22.152344 "/>
<path style=" stroke:none;fill-rule:evenodd;fill:rgb(4.705882%,36.078432%,11.372549%);fill-opacity:1;" d="M 15.601562 21.433594 C 15.511719 21.097656 14.769531 21.101562 14.410156 21.21875 C 14.734375 21.417969 15.351562 21.492188 15.601562 21.433594 Z M 15.601562 21.433594 "/>
<path style=" stroke:none;fill-rule:evenodd;fill:rgb(4.705882%,36.078432%,11.372549%);fill-opacity:1;" d="M 15.835938 21.960938 C 15.625 21.777344 15.292969 21.976562 14.761719 20.9375 C 15.476562 21.347656 15.75 21.820312 15.835938 21.960938 Z M 15.835938 21.960938 "/>
<path style=" stroke:none;fill-rule:evenodd;fill:rgb(4.705882%,36.078432%,11.372549%);fill-opacity:1;" d="M 15.75 21.972656 C 16.0625 21.484375 15.867188 21.226562 15.675781 20.617188 C 15.585938 21.132812 15.660156 21.675781 15.75 21.972656 Z M 15.75 21.972656 "/>
<path style=" stroke:none;fill-rule:evenodd;fill:rgb(4.705882%,36.078432%,11.372549%);fill-opacity:1;" d="M 15.273438 20.859375 C 15.179688 20.414062 14.757812 20.191406 14.332031 20.132812 C 14.449219 20.359375 14.769531 20.441406 15.273438 20.859375 Z M 15.273438 20.859375 "/>
<path style=" stroke:none;fill-rule:evenodd;fill:rgb(4.705882%,36.078432%,11.372549%);fill-opacity:1;" d="M 15.347656 21.085938 C 15.839844 21.039062 15.898438 20.574219 15.925781 20.121094 C 15.765625 20.359375 15.40625 20.65625 15.347656 21.085938 Z M 15.347656 21.085938 "/>
<path style=" stroke:none;fill-rule:evenodd;fill:rgb(4.705882%,36.078432%,11.372549%);fill-opacity:1;" d="M 15.339844 20.5 C 15.628906 20.53125 15.988281 19.902344 15.859375 19.398438 C 15.625 19.957031 15.605469 20.152344 15.339844 20.5 Z M 15.339844 20.5 "/>
<path style=" stroke:none;fill-rule:evenodd;fill:rgb(4.705882%,36.078432%,11.372549%);fill-opacity:1;" d="M 15.21875 19.96875 C 15.523438 19.949219 15.777344 19.335938 15.609375 18.761719 C 15.46875 19.292969 15.53125 19.527344 15.21875 19.96875 Z M 15.21875 19.96875 "/>
<path style=" stroke:none;fill-rule:evenodd;fill:rgb(4.705882%,36.078432%,11.372549%);fill-opacity:1;" d="M 15.164062 20.242188 C 15.09375 20.066406 14.953125 20.007812 14.886719 19.777344 C 14.769531 19.363281 14.546875 19.296875 14.582031 18.972656 C 15.101562 19.582031 15.242188 19.945312 15.164062 20.242188 Z M 15.164062 20.242188 "/>
<path style=" stroke:none;fill-rule:evenodd;fill:rgb(4.705882%,36.078432%,11.372549%);fill-opacity:1;" d="M 15.191406 19.789062 C 15.0625 18.613281 15.292969 19.113281 14.785156 18.003906 C 15.542969 18.683594 15.332031 19.742188 15.191406 19.789062 Z M 15.191406 19.789062 "/>
<path style=" stroke:none;fill-rule:evenodd;fill:rgb(4.705882%,36.078432%,11.372549%);fill-opacity:1;" d="M 15.226562 19.292969 C 15.199219 18.917969 15.523438 18.675781 16.085938 18.464844 C 15.894531 18.777344 15.371094 18.9375 15.226562 19.292969 Z M 15.226562 19.292969 "/>
<path style=" stroke:none;fill-rule:evenodd;fill:rgb(4.705882%,36.078432%,11.372549%);fill-opacity:1;" d="M 15.363281 18.429688 C 15.160156 17.757812 15.039062 17.644531 14.875 16.914062 C 15.289062 17.25 15.503906 17.980469 15.363281 18.429688 Z M 15.363281 18.429688 "/>
<path style=" stroke:none;fill-rule:evenodd;fill:rgb(4.705882%,36.078432%,11.372549%);fill-opacity:1;" d="M 15.546875 18.40625 C 16.003906 18.074219 16.109375 17.699219 16.632812 17.5625 C 16.625 17.75 15.871094 18.535156 15.546875 18.40625 Z M 15.546875 18.40625 "/>
<path style=" stroke:none;fill-rule:evenodd;fill:rgb(4.705882%,36.078432%,11.372549%);fill-opacity:1;" d="M 15.515625 18.09375 C 15.808594 17.730469 15.96875 17.4375 16.398438 17.175781 C 16.328125 17.617188 15.847656 18.257812 15.515625 18.09375 Z M 15.515625 18.09375 "/>
<path style=" stroke:none;fill-rule:evenodd;fill:rgb(4.705882%,36.078432%,11.372549%);fill-opacity:1;" d="M 16.179688 16.957031 C 16.195312 16.445312 16.875 16.246094 17.144531 16.039062 C 17.074219 16.480469 16.582031 16.914062 16.179688 16.957031 Z M 16.179688 16.957031 "/>
<path style=" stroke:none;fill-rule:evenodd;fill:rgb(4.705882%,36.078432%,11.372549%);fill-opacity:1;" d="M 16.125 16.605469 C 16.035156 16.136719 16.476562 15.878906 16.703125 15.671875 C 16.621094 16.109375 16.5 16.554688 16.125 16.605469 Z M 16.125 16.605469 "/>
<path style=" stroke:none;fill-rule:evenodd;fill:rgb(4.705882%,36.078432%,11.372549%);fill-opacity:1;" d="M 15.519531 17.359375 C 15.339844 17.066406 15.445312 16.394531 15.558594 16.109375 C 15.703125 16.265625 15.773438 17.308594 15.519531 17.359375 Z M 15.519531 17.359375 "/>
<path style=" stroke:none;fill-rule:evenodd;fill:rgb(4.705882%,36.078432%,11.372549%);fill-opacity:1;" d="M 15.835938 16.945312 C 15.683594 16.558594 15.851562 16.195312 16.011719 15.933594 C 16.082031 16.367188 16.117188 16.78125 15.835938 16.945312 Z M 15.835938 16.945312 "/>
<path style=" stroke:none;fill-rule:evenodd;fill:rgb(43.529412%,52.156866%,57.647061%);fill-opacity:1;" d="M 18.25 23.308594 C 19.617188 21.972656 20.804688 20.8125 22.703125 19.621094 C 19.628906 22.015625 19.722656 22.203125 18.429688 23.40625 C 18.375 23.359375 18.304688 23.351562 18.25 23.308594 Z M 18.25 23.308594 "/>
<path style=" stroke:none;fill-rule:evenodd;fill:rgb(41.568628%,5.098039%,2.352941%);fill-opacity:1;" d="M 15.820312 23.621094 L 16.328125 24.183594 L 17.871094 21.839844 L 18.519531 21.152344 L 18.363281 20.921875 L 17.367188 21.894531 L 17.25 22.125 Z M 15.820312 23.621094 "/>
<path style=" stroke:none;fill-rule:evenodd;fill:rgb(41.568628%,5.098039%,2.352941%);fill-opacity:1;" d="M 24.238281 23.660156 L 23.585938 24.234375 L 22.132812 21.875 L 21.289062 20.953125 L 21.515625 20.796875 L 22.636719 21.933594 L 22.753906 22.160156 Z M 24.238281 23.660156 "/>
<path style=" stroke:none;fill-rule:evenodd;fill:rgb(73.333335%,80.392158%,80.392158%);fill-opacity:1;" d="M 22.132812 22.230469 C 22.144531 22.144531 22.257812 21.980469 22.007812 21.757812 C 22.011719 21.640625 22.136719 21.515625 22.230469 21.457031 C 22.308594 21.457031 22.542969 21.617188 22.644531 21.796875 C 22.703125 21.925781 22.730469 22.121094 22.65625 22.269531 C 22.601562 22.355469 22.539062 22.449219 22.472656 22.488281 C 22.4375 22.511719 22.367188 22.503906 22.304688 22.480469 C 22.210938 22.433594 22.140625 22.296875 22.132812 22.230469 Z M 22.132812 22.230469 "/>
<path style=" stroke:none;fill-rule:evenodd;fill:rgb(0%,0%,0%);fill-opacity:1;" d="M 19.015625 18.0625 L 17.878906 16.914062 L 17.808594 16.917969 L 17.785156 16.992188 L 17.75 17.097656 L 17.613281 17.226562 L 15.839844 15.558594 L 17.507812 17.382812 L 17.585938 17.382812 L 17.832031 17.128906 L 17.933594 17.152344 L 18.773438 18.132812 Z M 19.015625 18.0625 "/>
<path style=" stroke:none;fill-rule:evenodd;fill:rgb(0%,0%,0%);fill-opacity:1;" d="M 20.5 24.902344 C 22.582031 21.523438 24.394531 19.195312 21.074219 16.207031 C 20.949219 16.082031 20.519531 15.6875 20.25 15.601562 C 20.214844 15.359375 20.398438 14.976562 19.929688 14.945312 C 19.730469 14.957031 19.628906 15.027344 19.632812 15.207031 C 19.636719 15.347656 19.707031 15.40625 19.671875 15.53125 C 19.65625 15.59375 19.5 15.738281 19.511719 15.921875 C 19.570312 16.308594 19.722656 16.402344 19.765625 16.457031 C 19.847656 16.539062 19.894531 16.59375 20.136719 16.695312 C 20.160156 16.726562 20.230469 16.785156 20.269531 16.824219 C 20.707031 16.917969 21.105469 16.871094 21.390625 17.011719 C 21.511719 17.050781 21.710938 17.257812 21.777344 17.363281 C 22.574219 18.242188 22.921875 19.648438 21.699219 21.136719 C 21.945312 21.15625 22.53125 20.152344 22.664062 19.300781 C 22.476562 20.570312 22.0625 21.015625 21.855469 21.394531 C 22.265625 21.121094 22.597656 20.15625 22.675781 19.960938 C 22.347656 21.714844 20.660156 23.882812 19.601562 24.335938 C 20.5625 24.113281 21.207031 23.15625 21.546875 22.8125 C 21.214844 23.5 20.53125 24.472656 20.5 24.902344 Z M 20.5 24.902344 "/>
<path style=" stroke:none;fill-rule:evenodd;fill:rgb(43.529412%,52.156866%,57.647061%);fill-opacity:1;" d="M 21.929688 23.398438 C 20.597656 22.050781 18.476562 20.019531 17.421875 19.796875 C 19.0625 20.859375 20.511719 22.28125 21.75 23.496094 C 21.804688 23.449219 21.875 23.441406 21.929688 23.398438 Z M 21.929688 23.398438 "/>
<path style=" stroke:none;fill-rule:evenodd;fill:rgb(0%,0%,0%);fill-opacity:1;" d="M 21.097656 18.152344 L 22.347656 16.914062 L 22.417969 16.917969 L 22.441406 16.992188 L 22.476562 17.097656 L 22.609375 17.226562 L 24.386719 15.558594 L 22.71875 17.382812 L 22.636719 17.382812 L 22.394531 17.128906 L 22.292969 17.152344 L 21.226562 18.332031 Z M 21.097656 18.152344 "/>
<path style=" stroke:none;fill-rule:evenodd;fill:rgb(89.019608%,81.176472%,43.137255%);fill-opacity:1;" d="M 17.785156 17.695312 C 17.851562 17.339844 17.960938 17.082031 18.332031 17.019531 C 19.296875 16.976562 20.191406 16.96875 21.199219 16.992188 C 21.488281 17.21875 21.1875 17.6875 20.886719 17.714844 C 21.347656 18.507812 21.976562 19.117188 22.0625 20.054688 C 22.09375 20.546875 21.917969 20.867188 21.746094 21.046875 C 20.417969 21.078125 19.777344 21.242188 18.667969 21.328125 C 18.355469 21.367188 18.125 21.007812 18.125 20.707031 C 18.128906 20.394531 18.257812 20.152344 18.601562 20.109375 C 18.707031 20.097656 18.855469 20.105469 18.988281 20.109375 C 18.730469 19.335938 17.734375 18.421875 17.785156 17.695312 Z M 17.785156 17.695312 "/>
<path style=" stroke:none;fill-rule:evenodd;fill:rgb(20%,39.215687%,27.450982%);fill-opacity:1;" d="M 19.527344 15.796875 C 19.414062 16.164062 19.703125 16.480469 19.746094 16.535156 C 19.828125 16.617188 19.882812 16.679688 20.121094 16.78125 C 20.148438 16.8125 20.488281 17.007812 20.539062 17.050781 C 20.902344 17.148438 21.09375 16.984375 21.507812 17.085938 C 21.402344 16.824219 20.296875 15.746094 19.527344 15.796875 Z M 19.527344 15.796875 "/>
<path style=" stroke:none;fill-rule:evenodd;fill:rgb(25.098041%,18.039216%,3.137255%);fill-opacity:1;" d="M 19.539062 15.964844 C 19.425781 16.144531 19.722656 16.582031 19.765625 16.636719 C 19.847656 16.714844 19.902344 16.78125 20.140625 16.882812 C 20.164062 16.914062 20.285156 16.972656 20.300781 16.992188 L 20.613281 17.050781 C 20.507812 16.789062 19.902344 15.878906 19.539062 15.964844 Z M 19.539062 15.964844 "/>
<path style=" stroke:none;fill-rule:evenodd;fill:rgb(0%,0%,0%);fill-opacity:1;" d="M 19.65625 15.34375 L 19.582031 15.394531 L 19.691406 15.449219 Z M 19.65625 15.34375 "/>
<path style=" stroke:none;fill-rule:evenodd;fill:rgb(54.901963%,21.176471%,11.372549%);fill-opacity:1;" d="M 19.511719 16.089844 C 19.570312 16.476562 19.714844 16.582031 19.761719 16.636719 C 19.839844 16.71875 19.902344 16.773438 20.140625 16.878906 C 20.234375 16.960938 20.273438 16.980469 20.347656 17.023438 L 20.597656 17.058594 C 20.492188 16.796875 19.863281 16.199219 19.511719 16.089844 Z M 19.511719 16.089844 "/>
<path style=" stroke:none;fill-rule:evenodd;fill:rgb(73.333335%,80.392158%,80.392158%);fill-opacity:1;" d="M 17.875 22.199219 C 17.863281 22.113281 17.75 21.949219 18 21.726562 C 17.996094 21.609375 17.871094 21.484375 17.777344 21.425781 C 17.699219 21.425781 17.464844 21.585938 17.363281 21.765625 C 17.304688 21.894531 17.277344 22.089844 17.351562 22.238281 C 17.40625 22.320312 17.46875 22.417969 17.539062 22.457031 C 17.570312 22.480469 17.644531 22.472656 17.703125 22.449219 C 17.796875 22.402344 17.867188 22.265625 17.875 22.199219 Z M 17.875 22.199219 "/>
<path style=" stroke:none;fill-rule:evenodd;fill:rgb(83.137256%,74.509805%,44.705883%);fill-opacity:1;" d="M 18.054688 23.433594 C 17.941406 23.5625 17.5 23.820312 17.414062 23.90625 C 17.339844 24 17.511719 24.128906 17.617188 24.144531 C 17.808594 24.003906 17.996094 23.808594 18.167969 23.691406 C 18.410156 23.46875 18.394531 23.449219 18.785156 23.566406 C 18.726562 23.359375 18.332031 23.195312 18.109375 23.148438 C 17.726562 23.1875 17.550781 23.347656 17.476562 23.566406 C 17.726562 23.375 17.898438 23.285156 18.054688 23.433594 Z M 18.054688 23.433594 "/>
<path style=" stroke:none;fill-rule:evenodd;fill:rgb(100%,100%,100%);fill-opacity:1;" d="M 22.199219 22.226562 C 22.203125 22.183594 22.226562 22.164062 22.226562 22.082031 C 22.3125 22.203125 22.351562 22.261719 22.460938 22.414062 C 22.421875 22.46875 22.363281 22.441406 22.3125 22.417969 C 22.261719 22.386719 22.191406 22.285156 22.199219 22.226562 Z M 22.199219 22.226562 "/>
<path style=" stroke:none;fill-rule:evenodd;fill:rgb(100%,100%,100%);fill-opacity:1;" d="M 17.820312 22.199219 C 17.816406 22.15625 17.792969 22.136719 17.792969 22.054688 C 17.707031 22.175781 17.667969 22.238281 17.558594 22.386719 C 17.597656 22.441406 17.65625 22.417969 17.707031 22.390625 C 17.757812 22.359375 17.828125 22.257812 17.820312 22.199219 Z M 17.820312 22.199219 "/>
<path style=" stroke:none;fill-rule:evenodd;fill:rgb(83.137256%,74.509805%,44.705883%);fill-opacity:1;" d="M 22.046875 23.523438 C 22.160156 23.652344 22.601562 23.90625 22.6875 23.992188 C 22.757812 24.089844 22.589844 24.21875 22.484375 24.234375 C 22.292969 24.089844 22.101562 23.894531 21.929688 23.78125 C 21.734375 23.542969 21.648438 23.554688 21.316406 23.65625 C 21.371094 23.449219 21.765625 23.285156 21.992188 23.238281 C 22.371094 23.277344 22.546875 23.433594 22.625 23.65625 C 22.371094 23.464844 22.199219 23.375 22.046875 23.523438 Z M 22.046875 23.523438 "/>
<path style=" stroke:none;fill-rule:evenodd;fill:rgb(0%,0%,0%);fill-opacity:1;" d="M 18.984375 20.113281 C 19.078125 20.246094 19.15625 20.546875 19.167969 20.738281 C 19.1875 21.109375 18.808594 21.300781 18.679688 21.285156 C 18.4375 21.253906 18.238281 21.070312 18.21875 20.785156 C 18.257812 20.453125 18.398438 20.269531 18.628906 20.257812 C 18.777344 20.285156 18.949219 20.464844 18.949219 20.683594 C 18.945312 20.863281 18.894531 21.042969 18.78125 21.046875 C 18.511719 21.027344 18.527344 20.871094 18.484375 20.785156 C 18.472656 20.722656 18.460938 20.558594 18.492188 20.515625 C 18.53125 20.464844 18.71875 20.398438 18.808594 20.527344 C 18.910156 20.628906 18.664062 20.472656 18.566406 20.542969 C 18.519531 20.613281 18.550781 20.726562 18.566406 20.773438 C 18.582031 20.820312 18.578125 20.96875 18.765625 20.960938 C 18.835938 20.949219 18.859375 20.808594 18.863281 20.671875 C 18.875 20.578125 18.742188 20.390625 18.613281 20.351562 C 18.519531 20.335938 18.296875 20.523438 18.304688 20.785156 C 18.324219 21.085938 18.570312 21.1875 18.699219 21.167969 C 18.832031 21.132812 19.113281 21.027344 19.101562 20.730469 C 19.070312 20.402344 19.011719 20.265625 18.90625 20.109375 C 18.945312 20.109375 18.941406 20.109375 18.984375 20.113281 Z M 18.984375 20.113281 "/>
<path style=" stroke:none;fill-rule:evenodd;fill:rgb(0%,0%,0%);fill-opacity:1;" d="M 20.9375 17.796875 L 20.878906 17.707031 L 19.65625 17.707031 C 19.3125 17.738281 18.785156 17.789062 18.601562 17.867188 C 18.136719 18.097656 18.011719 17.695312 17.984375 17.59375 C 17.957031 17.5 18.015625 17.332031 18.105469 17.273438 C 18.140625 17.207031 18.339844 17.132812 18.460938 17.175781 C 18.597656 17.234375 18.65625 17.40625 18.636719 17.523438 C 18.59375 17.695312 18.265625 17.804688 18.382812 17.628906 C 18.398438 17.550781 18.457031 17.335938 18.355469 17.179688 L 18.257812 17.199219 C 18.390625 17.472656 18.269531 17.609375 18.261719 17.691406 C 18.257812 17.820312 18.371094 17.808594 18.457031 17.808594 C 18.515625 17.804688 18.617188 17.726562 18.660156 17.6875 C 18.707031 17.644531 18.714844 17.5625 18.722656 17.464844 C 18.738281 17.207031 18.503906 17.023438 18.34375 17.046875 C 17.863281 17.167969 17.851562 17.570312 17.960938 17.777344 C 18.019531 17.882812 18.089844 17.949219 18.207031 18.007812 C 18.308594 18.039062 18.457031 18.019531 18.574219 17.976562 C 18.808594 17.894531 19.183594 17.820312 19.652344 17.808594 Z M 20.9375 17.796875 "/>
<path style=" stroke:none;fill-rule:nonzero;fill:rgb(54.901963%,21.176471%,11.372549%);fill-opacity:1;" d="M 20.082031 18.414062 L 20.132812 18.488281 L 20.125 18.488281 C 20.109375 18.472656 20.097656 18.460938 20.085938 18.453125 C 20.074219 18.449219 20.0625 18.441406 20.050781 18.4375 C 20.042969 18.4375 20.035156 18.4375 20.019531 18.4375 L 20 18.441406 L 20.144531 18.652344 C 20.152344 18.664062 20.160156 18.671875 20.164062 18.675781 C 20.167969 18.679688 20.171875 18.683594 20.179688 18.683594 C 20.183594 18.6875 20.191406 18.6875 20.199219 18.6875 L 20.210938 18.683594 L 20.214844 18.691406 L 20.066406 18.707031 L 20.0625 18.699219 L 20.070312 18.699219 C 20.078125 18.699219 20.085938 18.695312 20.085938 18.695312 C 20.089844 18.691406 20.089844 18.6875 20.089844 18.683594 C 20.089844 18.679688 20.082031 18.671875 20.074219 18.65625 L 19.929688 18.449219 L 19.910156 18.449219 C 19.890625 18.453125 19.878906 18.457031 19.875 18.464844 C 19.871094 18.476562 19.875 18.496094 19.886719 18.515625 L 19.878906 18.515625 L 19.828125 18.441406 Z M 20.082031 18.414062 "/>
<path style=" stroke:none;fill-rule:nonzero;fill:rgb(54.901963%,21.176471%,11.372549%);fill-opacity:1;" d="M 19.339844 18.511719 L 19.417969 18.621094 L 19.421875 18.621094 C 19.441406 18.621094 19.449219 18.613281 19.449219 18.601562 C 19.453125 18.589844 19.445312 18.574219 19.433594 18.550781 L 19.441406 18.550781 L 19.539062 18.691406 L 19.53125 18.695312 C 19.519531 18.679688 19.507812 18.664062 19.496094 18.65625 C 19.480469 18.648438 19.472656 18.640625 19.460938 18.640625 C 19.453125 18.636719 19.441406 18.636719 19.425781 18.636719 L 19.480469 18.714844 C 19.488281 18.726562 19.496094 18.738281 19.5 18.742188 C 19.503906 18.742188 19.507812 18.746094 19.515625 18.746094 C 19.519531 18.75 19.527344 18.75 19.535156 18.75 L 19.550781 18.746094 C 19.578125 18.746094 19.59375 18.738281 19.601562 18.722656 C 19.609375 18.710938 19.609375 18.691406 19.601562 18.664062 L 19.609375 18.664062 L 19.65625 18.753906 L 19.410156 18.777344 L 19.402344 18.769531 L 19.414062 18.769531 C 19.421875 18.769531 19.425781 18.765625 19.429688 18.765625 C 19.433594 18.761719 19.433594 18.757812 19.429688 18.753906 C 19.429688 18.75 19.425781 18.742188 19.417969 18.726562 L 19.292969 18.550781 C 19.285156 18.535156 19.28125 18.53125 19.277344 18.527344 C 19.273438 18.523438 19.269531 18.519531 19.261719 18.515625 C 19.253906 18.511719 19.246094 18.511719 19.238281 18.511719 L 19.226562 18.515625 L 19.222656 18.507812 L 19.460938 18.480469 L 19.515625 18.5625 L 19.507812 18.5625 C 19.488281 18.542969 19.472656 18.53125 19.460938 18.523438 C 19.449219 18.515625 19.433594 18.507812 19.417969 18.507812 C 19.40625 18.503906 19.390625 18.503906 19.371094 18.507812 Z M 19.339844 18.511719 "/>
<path style=" stroke:none;fill-rule:nonzero;fill:rgb(54.901963%,21.176471%,11.372549%);fill-opacity:1;" d="M 19.097656 18.804688 L 19.101562 18.8125 L 18.953125 18.828125 L 18.949219 18.820312 L 18.957031 18.820312 C 18.964844 18.816406 18.972656 18.816406 18.976562 18.8125 C 18.976562 18.808594 18.976562 18.804688 18.976562 18.800781 C 18.976562 18.796875 18.972656 18.789062 18.960938 18.777344 L 18.839844 18.597656 C 18.828125 18.582031 18.824219 18.574219 18.820312 18.570312 C 18.816406 18.566406 18.808594 18.566406 18.804688 18.5625 C 18.796875 18.5625 18.789062 18.5625 18.78125 18.5625 L 18.773438 18.5625 L 18.765625 18.554688 L 18.917969 18.539062 L 18.921875 18.546875 L 18.910156 18.546875 C 18.902344 18.546875 18.898438 18.550781 18.894531 18.554688 C 18.890625 18.554688 18.890625 18.558594 18.894531 18.566406 C 18.894531 18.566406 18.898438 18.578125 18.90625 18.589844 L 19.03125 18.769531 C 19.039062 18.78125 19.046875 18.792969 19.050781 18.792969 C 19.054688 18.796875 19.058594 18.800781 19.066406 18.804688 C 19.074219 18.804688 19.082031 18.804688 19.089844 18.804688 Z M 19.097656 18.804688 "/>
<path style=" stroke:none;fill-rule:nonzero;fill:rgb(54.901963%,21.176471%,11.372549%);fill-opacity:1;" d="M 18.863281 18.734375 L 18.917969 18.832031 L 18.664062 18.859375 L 18.660156 18.851562 L 18.671875 18.847656 C 18.679688 18.847656 18.683594 18.847656 18.6875 18.84375 C 18.691406 18.839844 18.691406 18.835938 18.6875 18.832031 C 18.6875 18.828125 18.683594 18.820312 18.675781 18.808594 L 18.550781 18.628906 C 18.542969 18.613281 18.535156 18.605469 18.53125 18.601562 C 18.527344 18.597656 18.523438 18.597656 18.515625 18.59375 C 18.507812 18.59375 18.503906 18.589844 18.492188 18.59375 L 18.484375 18.59375 L 18.480469 18.585938 L 18.632812 18.570312 L 18.636719 18.578125 L 18.625 18.578125 C 18.617188 18.578125 18.609375 18.582031 18.605469 18.585938 C 18.605469 18.585938 18.605469 18.589844 18.605469 18.59375 C 18.605469 18.597656 18.609375 18.605469 18.621094 18.621094 L 18.738281 18.792969 C 18.75 18.808594 18.753906 18.816406 18.757812 18.820312 C 18.765625 18.824219 18.769531 18.828125 18.773438 18.828125 C 18.78125 18.828125 18.789062 18.828125 18.800781 18.828125 L 18.824219 18.824219 C 18.839844 18.824219 18.851562 18.820312 18.859375 18.8125 C 18.863281 18.804688 18.867188 18.796875 18.867188 18.785156 C 18.867188 18.773438 18.863281 18.757812 18.855469 18.734375 Z M 18.863281 18.734375 "/>
<path style=" stroke:none;fill-rule:nonzero;fill:rgb(54.901963%,21.176471%,11.372549%);fill-opacity:1;" d="M 20.601562 18.652344 L 20.597656 18.644531 L 20.605469 18.644531 C 20.613281 18.640625 20.617188 18.640625 20.621094 18.636719 C 20.625 18.632812 20.625 18.628906 20.625 18.625 C 20.625 18.625 20.617188 18.613281 20.609375 18.601562 L 20.488281 18.421875 C 20.476562 18.40625 20.46875 18.398438 20.464844 18.394531 C 20.460938 18.394531 20.457031 18.390625 20.449219 18.386719 C 20.445312 18.386719 20.4375 18.386719 20.429688 18.386719 L 20.417969 18.386719 L 20.414062 18.378906 L 20.542969 18.367188 C 20.574219 18.363281 20.605469 18.363281 20.632812 18.371094 C 20.664062 18.378906 20.695312 18.394531 20.722656 18.414062 C 20.753906 18.433594 20.777344 18.457031 20.796875 18.484375 C 20.808594 18.503906 20.816406 18.523438 20.820312 18.539062 C 20.828125 18.554688 20.828125 18.570312 20.824219 18.582031 C 20.820312 18.59375 20.816406 18.605469 20.804688 18.613281 C 20.796875 18.617188 20.785156 18.625 20.765625 18.632812 C 20.757812 18.632812 20.746094 18.636719 20.726562 18.636719 Z M 20.535156 18.382812 L 20.679688 18.59375 C 20.6875 18.605469 20.691406 18.613281 20.695312 18.617188 C 20.699219 18.617188 20.699219 18.621094 20.703125 18.621094 C 20.710938 18.621094 20.714844 18.625 20.722656 18.621094 C 20.746094 18.621094 20.757812 18.609375 20.761719 18.59375 C 20.761719 18.570312 20.75 18.539062 20.71875 18.496094 C 20.695312 18.460938 20.671875 18.433594 20.644531 18.414062 C 20.625 18.398438 20.605469 18.386719 20.589844 18.382812 C 20.574219 18.382812 20.558594 18.382812 20.535156 18.382812 Z M 20.535156 18.382812 "/>
<path style=" stroke:none;fill-rule:nonzero;fill:rgb(54.901963%,21.176471%,11.372549%);fill-opacity:1;" d="M 20.410156 18.589844 L 20.308594 18.601562 L 20.316406 18.628906 C 20.316406 18.636719 20.320312 18.644531 20.324219 18.648438 C 20.332031 18.65625 20.335938 18.664062 20.347656 18.664062 C 20.351562 18.667969 20.363281 18.667969 20.378906 18.667969 L 20.382812 18.675781 L 20.289062 18.683594 L 20.28125 18.675781 C 20.292969 18.675781 20.296875 18.671875 20.300781 18.664062 C 20.300781 18.65625 20.300781 18.640625 20.296875 18.621094 L 20.25 18.390625 L 20.253906 18.390625 L 20.507812 18.601562 C 20.53125 18.621094 20.550781 18.636719 20.558594 18.640625 C 20.566406 18.644531 20.574219 18.644531 20.585938 18.644531 L 20.589844 18.652344 L 20.453125 18.667969 L 20.449219 18.660156 L 20.453125 18.660156 C 20.464844 18.660156 20.472656 18.65625 20.472656 18.652344 C 20.476562 18.648438 20.472656 18.648438 20.472656 18.644531 C 20.46875 18.640625 20.46875 18.636719 20.464844 18.636719 C 20.464844 18.632812 20.457031 18.628906 20.449219 18.621094 Z M 20.394531 18.574219 L 20.285156 18.484375 L 20.308594 18.585938 Z M 20.394531 18.574219 "/>
<path style=" stroke:none;fill-rule:nonzero;fill:rgb(54.901963%,21.176471%,11.372549%);fill-opacity:1;" d="M 19.714844 18.613281 L 19.769531 18.6875 C 19.777344 18.703125 19.785156 18.714844 19.789062 18.714844 C 19.792969 18.71875 19.800781 18.722656 19.804688 18.726562 C 19.8125 18.726562 19.820312 18.726562 19.835938 18.726562 L 19.839844 18.734375 L 19.695312 18.75 L 19.6875 18.742188 C 19.703125 18.738281 19.710938 18.738281 19.714844 18.734375 C 19.71875 18.730469 19.71875 18.726562 19.71875 18.722656 C 19.714844 18.71875 19.710938 18.710938 19.703125 18.695312 L 19.582031 18.519531 C 19.570312 18.503906 19.5625 18.496094 19.558594 18.492188 C 19.554688 18.488281 19.546875 18.484375 19.542969 18.484375 C 19.535156 18.484375 19.527344 18.484375 19.511719 18.484375 L 19.507812 18.476562 L 19.640625 18.460938 C 19.675781 18.457031 19.703125 18.457031 19.722656 18.460938 C 19.738281 18.464844 19.757812 18.472656 19.777344 18.480469 C 19.796875 18.492188 19.808594 18.507812 19.820312 18.523438 C 19.835938 18.542969 19.839844 18.5625 19.832031 18.574219 C 19.828125 18.585938 19.820312 18.59375 19.804688 18.597656 L 19.9375 18.683594 C 19.953125 18.695312 19.964844 18.699219 19.972656 18.703125 C 19.980469 18.707031 19.988281 18.707031 19.996094 18.707031 L 20 18.714844 L 19.910156 18.726562 L 19.734375 18.609375 Z M 19.625 18.480469 L 19.707031 18.597656 L 19.71875 18.597656 C 19.738281 18.59375 19.75 18.59375 19.757812 18.585938 C 19.765625 18.582031 19.769531 18.578125 19.769531 18.566406 C 19.769531 18.558594 19.761719 18.546875 19.753906 18.53125 C 19.738281 18.511719 19.722656 18.496094 19.707031 18.488281 C 19.6875 18.476562 19.667969 18.476562 19.648438 18.476562 Z M 19.625 18.480469 "/>
<path style=" stroke:none;fill-rule:nonzero;fill:rgb(54.901963%,21.176471%,11.372549%);fill-opacity:1;" d="M 19.203125 18.644531 C 19.234375 18.648438 19.261719 18.652344 19.277344 18.660156 C 19.300781 18.671875 19.320312 18.6875 19.332031 18.707031 C 19.347656 18.726562 19.351562 18.746094 19.339844 18.757812 C 19.332031 18.777344 19.304688 18.789062 19.265625 18.792969 L 19.121094 18.808594 L 19.117188 18.800781 C 19.128906 18.800781 19.136719 18.796875 19.140625 18.796875 C 19.144531 18.792969 19.144531 18.789062 19.144531 18.785156 C 19.144531 18.78125 19.136719 18.773438 19.128906 18.757812 L 19.007812 18.582031 C 18.996094 18.566406 18.988281 18.558594 18.984375 18.554688 C 18.980469 18.550781 18.976562 18.546875 18.96875 18.546875 C 18.960938 18.542969 18.953125 18.542969 18.941406 18.542969 L 18.933594 18.539062 L 19.070312 18.523438 C 19.105469 18.519531 19.128906 18.519531 19.148438 18.523438 C 19.164062 18.527344 19.179688 18.535156 19.195312 18.546875 C 19.210938 18.554688 19.222656 18.566406 19.230469 18.578125 C 19.242188 18.59375 19.242188 18.605469 19.242188 18.617188 C 19.238281 18.628906 19.226562 18.636719 19.203125 18.644531 Z M 19.125 18.648438 C 19.144531 18.644531 19.15625 18.644531 19.164062 18.636719 C 19.171875 18.632812 19.175781 18.625 19.171875 18.617188 C 19.171875 18.609375 19.167969 18.597656 19.160156 18.585938 C 19.152344 18.574219 19.144531 18.566406 19.132812 18.558594 C 19.121094 18.550781 19.113281 18.546875 19.101562 18.542969 C 19.085938 18.539062 19.070312 18.539062 19.050781 18.542969 Z M 19.136719 18.664062 L 19.195312 18.75 L 19.203125 18.761719 C 19.207031 18.769531 19.210938 18.773438 19.21875 18.777344 C 19.226562 18.78125 19.230469 18.78125 19.238281 18.78125 C 19.25 18.78125 19.257812 18.777344 19.265625 18.769531 C 19.273438 18.765625 19.273438 18.757812 19.273438 18.746094 C 19.273438 18.738281 19.269531 18.726562 19.261719 18.714844 C 19.25 18.703125 19.242188 18.691406 19.226562 18.683594 C 19.214844 18.671875 19.203125 18.667969 19.1875 18.664062 C 19.175781 18.660156 19.15625 18.660156 19.136719 18.664062 Z M 19.136719 18.664062 "/>
<path style=" stroke:none;fill-rule:nonzero;fill:rgb(54.901963%,21.176471%,11.372549%);fill-opacity:1;" d="M 20.207031 18.847656 L 20.277344 18.957031 L 20.285156 18.957031 C 20.304688 18.957031 20.3125 18.949219 20.3125 18.9375 C 20.316406 18.925781 20.308594 18.910156 20.296875 18.886719 L 20.304688 18.886719 L 20.398438 19.027344 L 20.390625 19.03125 C 20.378906 19.015625 20.367188 19 20.355469 18.992188 C 20.34375 18.984375 20.332031 18.976562 20.324219 18.976562 C 20.3125 18.972656 20.300781 18.972656 20.289062 18.972656 L 20.339844 19.050781 C 20.347656 19.0625 20.355469 19.074219 20.359375 19.078125 C 20.363281 19.078125 20.367188 19.082031 20.371094 19.082031 C 20.375 19.085938 20.382812 19.085938 20.390625 19.085938 L 20.40625 19.082031 C 20.433594 19.082031 20.453125 19.074219 20.460938 19.058594 C 20.46875 19.046875 20.46875 19.027344 20.460938 19 L 20.46875 19 L 20.511719 19.089844 L 20.265625 19.113281 L 20.257812 19.105469 L 20.269531 19.105469 C 20.277344 19.105469 20.28125 19.101562 20.285156 19.101562 C 20.289062 19.097656 20.289062 19.09375 20.289062 19.089844 C 20.289062 19.085938 20.285156 19.078125 20.273438 19.0625 L 20.160156 18.886719 C 20.152344 18.871094 20.144531 18.867188 20.144531 18.863281 C 20.136719 18.859375 20.132812 18.855469 20.128906 18.851562 C 20.121094 18.847656 20.113281 18.847656 20.101562 18.847656 L 20.09375 18.851562 L 20.089844 18.84375 L 20.328125 18.816406 L 20.378906 18.898438 L 20.371094 18.898438 C 20.355469 18.878906 20.339844 18.867188 20.328125 18.859375 C 20.3125 18.851562 20.300781 18.84375 20.285156 18.84375 C 20.273438 18.839844 20.257812 18.839844 20.238281 18.84375 Z M 20.207031 18.847656 "/>
<path style=" stroke:none;fill-rule:nonzero;fill:rgb(54.901963%,21.176471%,11.372549%);fill-opacity:1;" d="M 19.507812 18.90625 L 19.644531 18.890625 L 19.65625 18.945312 L 19.542969 18.957031 L 19.550781 18.984375 C 19.597656 18.980469 19.644531 18.988281 19.683594 19.007812 C 19.714844 19.023438 19.742188 19.042969 19.757812 19.070312 C 19.769531 19.085938 19.773438 19.101562 19.773438 19.121094 C 19.777344 19.136719 19.769531 19.148438 19.757812 19.160156 C 19.746094 19.171875 19.726562 19.179688 19.707031 19.179688 C 19.683594 19.183594 19.660156 19.179688 19.644531 19.171875 C 19.632812 19.167969 19.621094 19.164062 19.617188 19.15625 C 19.613281 19.148438 19.613281 19.144531 19.613281 19.140625 C 19.617188 19.132812 19.621094 19.132812 19.625 19.128906 C 19.632812 19.128906 19.636719 19.128906 19.644531 19.132812 C 19.652344 19.132812 19.664062 19.136719 19.683594 19.144531 C 19.695312 19.152344 19.707031 19.152344 19.714844 19.15625 C 19.71875 19.15625 19.726562 19.15625 19.730469 19.15625 C 19.742188 19.15625 19.75 19.148438 19.753906 19.140625 C 19.753906 19.132812 19.753906 19.121094 19.746094 19.109375 C 19.730469 19.085938 19.707031 19.070312 19.671875 19.058594 C 19.636719 19.046875 19.601562 19.042969 19.5625 19.046875 C 19.558594 19.046875 19.554688 19.046875 19.546875 19.046875 Z M 19.507812 18.90625 "/>
<path style=" stroke:none;fill-rule:nonzero;fill:rgb(54.901963%,21.176471%,11.372549%);fill-opacity:1;" d="M 19.363281 18.914062 L 19.507812 19.136719 C 19.519531 19.152344 19.527344 19.164062 19.53125 19.167969 C 19.535156 19.171875 19.542969 19.175781 19.546875 19.179688 C 19.554688 19.179688 19.5625 19.179688 19.574219 19.179688 L 19.582031 19.179688 L 19.585938 19.1875 L 19.4375 19.203125 L 19.429688 19.195312 L 19.4375 19.195312 C 19.449219 19.191406 19.457031 19.191406 19.460938 19.1875 C 19.464844 19.183594 19.464844 19.179688 19.464844 19.175781 C 19.464844 19.171875 19.457031 19.160156 19.445312 19.144531 L 19.355469 19 C 19.347656 18.988281 19.34375 18.980469 19.339844 18.976562 C 19.335938 18.976562 19.332031 18.972656 19.328125 18.972656 C 19.320312 18.96875 19.316406 18.96875 19.3125 18.96875 C 19.304688 18.96875 19.296875 18.972656 19.289062 18.976562 L 19.28125 18.972656 L 19.359375 18.914062 Z M 19.363281 18.914062 "/>
<path style=" stroke:none;fill-rule:nonzero;fill:rgb(54.901963%,21.176471%,11.372549%);fill-opacity:1;" d="M 19.949219 19.148438 L 19.945312 19.140625 L 19.953125 19.140625 C 19.960938 19.140625 19.96875 19.136719 19.96875 19.132812 C 19.972656 19.132812 19.976562 19.128906 19.972656 19.121094 C 19.972656 19.121094 19.96875 19.113281 19.960938 19.097656 L 19.84375 18.917969 C 19.835938 18.90625 19.828125 18.894531 19.824219 18.894531 C 19.820312 18.890625 19.816406 18.886719 19.808594 18.886719 C 19.804688 18.882812 19.796875 18.882812 19.789062 18.882812 L 19.777344 18.882812 L 19.773438 18.875 L 19.902344 18.863281 C 19.9375 18.859375 19.964844 18.859375 19.992188 18.867188 C 20.023438 18.875 20.054688 18.890625 20.082031 18.910156 C 20.109375 18.929688 20.132812 18.953125 20.148438 18.984375 C 20.164062 19 20.171875 19.019531 20.175781 19.035156 C 20.179688 19.054688 20.179688 19.066406 20.175781 19.078125 C 20.171875 19.089844 20.164062 19.101562 20.15625 19.109375 C 20.148438 19.117188 20.132812 19.121094 20.117188 19.128906 C 20.109375 19.128906 20.097656 19.132812 20.078125 19.132812 Z M 19.890625 18.878906 L 20.03125 19.09375 C 20.035156 19.105469 20.042969 19.109375 20.042969 19.113281 C 20.046875 19.117188 20.050781 19.117188 20.054688 19.117188 C 20.058594 19.121094 20.066406 19.121094 20.074219 19.121094 C 20.097656 19.117188 20.109375 19.105469 20.113281 19.089844 C 20.113281 19.070312 20.101562 19.035156 20.074219 18.992188 C 20.050781 18.957031 20.027344 18.929688 20.003906 18.910156 C 19.984375 18.894531 19.964844 18.886719 19.945312 18.882812 C 19.933594 18.878906 19.914062 18.878906 19.890625 18.878906 Z M 19.890625 18.878906 "/>
<path style=" stroke:none;fill-rule:nonzero;fill:rgb(54.901963%,21.176471%,11.372549%);fill-opacity:1;" d="M 21.417969 19.167969 L 21.492188 19.277344 L 21.5 19.277344 C 21.519531 19.273438 21.527344 19.265625 21.527344 19.253906 C 21.527344 19.242188 21.523438 19.226562 21.511719 19.207031 L 21.519531 19.207031 L 21.617188 19.347656 L 21.609375 19.347656 C 21.597656 19.332031 21.585938 19.320312 21.570312 19.3125 C 21.558594 19.300781 21.546875 19.296875 21.539062 19.292969 C 21.53125 19.292969 21.519531 19.289062 21.503906 19.292969 L 21.558594 19.367188 C 21.566406 19.382812 21.574219 19.390625 21.578125 19.394531 C 21.582031 19.398438 21.585938 19.402344 21.59375 19.402344 C 21.597656 19.40625 21.605469 19.40625 21.613281 19.40625 L 21.628906 19.402344 C 21.65625 19.398438 21.671875 19.390625 21.679688 19.378906 C 21.6875 19.363281 21.6875 19.34375 21.679688 19.320312 L 21.6875 19.320312 L 21.734375 19.40625 L 21.488281 19.433594 L 21.480469 19.425781 L 21.492188 19.425781 C 21.5 19.425781 21.503906 19.421875 21.507812 19.417969 C 21.511719 19.417969 21.511719 19.414062 21.511719 19.410156 C 21.507812 19.40625 21.503906 19.398438 21.496094 19.382812 L 21.371094 19.203125 C 21.363281 19.191406 21.355469 19.183594 21.351562 19.183594 C 21.347656 19.175781 21.34375 19.175781 21.339844 19.171875 C 21.328125 19.167969 21.320312 19.167969 21.3125 19.167969 L 21.304688 19.167969 L 21.296875 19.164062 L 21.535156 19.136719 L 21.59375 19.21875 L 21.582031 19.21875 C 21.566406 19.199219 21.550781 19.183594 21.539062 19.175781 C 21.523438 19.167969 21.507812 19.164062 21.492188 19.160156 C 21.484375 19.160156 21.46875 19.160156 21.445312 19.164062 Z M 21.417969 19.167969 "/>
<path style=" stroke:none;fill-rule:nonzero;fill:rgb(54.901963%,21.176471%,11.372549%);fill-opacity:1;" d="M 20.617188 19.425781 L 20.566406 19.238281 L 20.683594 19.226562 L 20.6875 19.234375 L 20.679688 19.234375 C 20.671875 19.238281 20.664062 19.238281 20.664062 19.242188 C 20.660156 19.246094 20.660156 19.246094 20.660156 19.253906 C 20.660156 19.253906 20.667969 19.265625 20.675781 19.277344 L 20.800781 19.457031 C 20.808594 19.472656 20.816406 19.480469 20.820312 19.484375 C 20.824219 19.484375 20.832031 19.488281 20.835938 19.492188 C 20.84375 19.492188 20.851562 19.492188 20.859375 19.492188 L 20.867188 19.492188 L 20.875 19.5 L 20.726562 19.515625 L 20.71875 19.507812 L 20.730469 19.507812 C 20.738281 19.503906 20.742188 19.503906 20.746094 19.5 C 20.75 19.496094 20.75 19.496094 20.746094 19.488281 C 20.746094 19.484375 20.742188 19.476562 20.730469 19.464844 L 20.59375 19.261719 L 20.65625 19.523438 L 20.652344 19.523438 L 20.367188 19.289062 L 20.5 19.480469 C 20.511719 19.492188 20.515625 19.5 20.519531 19.503906 C 20.527344 19.511719 20.535156 19.515625 20.542969 19.519531 C 20.550781 19.523438 20.5625 19.523438 20.574219 19.523438 L 20.582031 19.53125 L 20.484375 19.539062 L 20.480469 19.535156 L 20.480469 19.53125 C 20.488281 19.53125 20.492188 19.53125 20.496094 19.527344 C 20.5 19.527344 20.503906 19.523438 20.503906 19.519531 C 20.503906 19.515625 20.503906 19.507812 20.5 19.503906 C 20.5 19.5 20.496094 19.496094 20.488281 19.484375 L 20.367188 19.3125 C 20.355469 19.296875 20.351562 19.289062 20.347656 19.285156 C 20.34375 19.28125 20.335938 19.28125 20.332031 19.277344 C 20.324219 19.273438 20.316406 19.273438 20.308594 19.273438 L 20.300781 19.277344 L 20.292969 19.269531 L 20.410156 19.257812 Z M 20.617188 19.425781 "/>
<path style=" stroke:none;fill-rule:nonzero;fill:rgb(54.901963%,21.176471%,11.372549%);fill-opacity:1;" d="M 20.128906 19.304688 L 20.203125 19.414062 L 20.210938 19.414062 C 20.226562 19.410156 20.238281 19.40625 20.238281 19.394531 C 20.238281 19.382812 20.234375 19.363281 20.21875 19.34375 L 20.226562 19.34375 L 20.328125 19.484375 L 20.320312 19.484375 C 20.308594 19.46875 20.292969 19.457031 20.28125 19.449219 C 20.269531 19.441406 20.257812 19.433594 20.25 19.429688 C 20.238281 19.429688 20.226562 19.429688 20.214844 19.429688 L 20.269531 19.503906 C 20.277344 19.519531 20.285156 19.53125 20.289062 19.53125 C 20.292969 19.535156 20.296875 19.539062 20.300781 19.539062 C 20.308594 19.542969 20.3125 19.542969 20.324219 19.542969 L 20.339844 19.539062 C 20.367188 19.535156 20.382812 19.527344 20.390625 19.515625 C 20.398438 19.503906 20.398438 19.484375 20.386719 19.457031 L 20.394531 19.457031 L 20.441406 19.546875 L 20.195312 19.570312 L 20.191406 19.5625 L 20.203125 19.5625 C 20.210938 19.5625 20.214844 19.558594 20.21875 19.554688 C 20.222656 19.554688 20.222656 19.550781 20.21875 19.546875 C 20.21875 19.542969 20.214844 19.535156 20.203125 19.519531 L 20.082031 19.339844 C 20.070312 19.328125 20.066406 19.320312 20.0625 19.320312 C 20.058594 19.316406 20.054688 19.3125 20.046875 19.308594 C 20.039062 19.304688 20.03125 19.304688 20.023438 19.304688 L 20.011719 19.308594 L 20.007812 19.300781 L 20.246094 19.273438 L 20.300781 19.355469 L 20.292969 19.355469 C 20.277344 19.335938 20.261719 19.324219 20.246094 19.316406 C 20.234375 19.308594 20.21875 19.300781 20.203125 19.300781 C 20.195312 19.296875 20.179688 19.296875 20.15625 19.300781 Z M 20.128906 19.304688 "/>
<path style=" stroke:none;fill-rule:nonzero;fill:rgb(54.901963%,21.176471%,11.372549%);fill-opacity:1;" d="M 20.171875 19.566406 L 20.179688 19.574219 L 20.03125 19.589844 L 20.023438 19.582031 L 20.035156 19.582031 C 20.042969 19.578125 20.046875 19.578125 20.050781 19.574219 C 20.054688 19.570312 20.054688 19.570312 20.050781 19.5625 C 20.050781 19.558594 20.046875 19.550781 20.039062 19.539062 L 19.914062 19.359375 C 19.902344 19.34375 19.894531 19.335938 19.890625 19.332031 C 19.886719 19.332031 19.882812 19.328125 19.875 19.324219 C 19.871094 19.324219 19.863281 19.324219 19.855469 19.324219 L 19.84375 19.324219 L 19.839844 19.316406 L 19.988281 19.300781 L 19.996094 19.308594 L 19.984375 19.308594 C 19.976562 19.3125 19.972656 19.3125 19.96875 19.316406 C 19.964844 19.320312 19.964844 19.320312 19.964844 19.328125 C 19.964844 19.332031 19.972656 19.339844 19.980469 19.351562 L 20.105469 19.53125 C 20.117188 19.542969 20.121094 19.554688 20.125 19.558594 C 20.128906 19.558594 20.136719 19.5625 20.140625 19.566406 C 20.148438 19.566406 20.15625 19.566406 20.164062 19.566406 Z M 20.171875 19.566406 "/>
<path style=" stroke:none;fill-rule:nonzero;fill:rgb(54.901963%,21.176471%,11.372549%);fill-opacity:1;" d="M 19.816406 19.320312 L 19.867188 19.394531 L 19.859375 19.394531 C 19.84375 19.378906 19.832031 19.367188 19.820312 19.359375 C 19.808594 19.351562 19.796875 19.347656 19.785156 19.34375 C 19.777344 19.34375 19.769531 19.34375 19.753906 19.34375 L 19.734375 19.34375 L 19.878906 19.554688 C 19.890625 19.570312 19.894531 19.578125 19.898438 19.582031 C 19.902344 19.585938 19.910156 19.585938 19.914062 19.589844 C 19.921875 19.589844 19.929688 19.59375 19.9375 19.589844 L 19.945312 19.589844 L 19.953125 19.597656 L 19.804688 19.613281 L 19.796875 19.605469 L 19.808594 19.605469 C 19.816406 19.605469 19.820312 19.601562 19.824219 19.597656 C 19.828125 19.597656 19.828125 19.59375 19.828125 19.589844 C 19.824219 19.585938 19.820312 19.578125 19.8125 19.5625 L 19.664062 19.351562 L 19.644531 19.355469 C 19.625 19.355469 19.613281 19.363281 19.609375 19.371094 C 19.605469 19.382812 19.609375 19.398438 19.621094 19.421875 L 19.613281 19.421875 L 19.5625 19.347656 Z M 19.816406 19.320312 "/>
<path style=" stroke:none;fill-rule:nonzero;fill:rgb(54.901963%,21.176471%,11.372549%);fill-opacity:1;" d="M 19.125 19.410156 L 19.199219 19.519531 L 19.207031 19.519531 C 19.222656 19.519531 19.234375 19.511719 19.234375 19.5 C 19.234375 19.488281 19.230469 19.472656 19.214844 19.449219 L 19.222656 19.449219 L 19.324219 19.59375 L 19.316406 19.59375 C 19.304688 19.578125 19.289062 19.566406 19.277344 19.554688 C 19.265625 19.546875 19.253906 19.539062 19.246094 19.539062 C 19.238281 19.535156 19.226562 19.535156 19.210938 19.535156 L 19.265625 19.613281 C 19.273438 19.628906 19.28125 19.636719 19.285156 19.640625 C 19.289062 19.644531 19.292969 19.644531 19.300781 19.648438 C 19.304688 19.648438 19.3125 19.648438 19.320312 19.648438 L 19.335938 19.648438 C 19.363281 19.644531 19.378906 19.636719 19.386719 19.621094 C 19.394531 19.609375 19.394531 19.589844 19.382812 19.566406 L 19.390625 19.5625 L 19.441406 19.652344 L 19.195312 19.679688 L 19.1875 19.671875 L 19.199219 19.667969 C 19.207031 19.667969 19.210938 19.667969 19.214844 19.664062 C 19.21875 19.660156 19.21875 19.65625 19.214844 19.652344 C 19.214844 19.648438 19.210938 19.640625 19.203125 19.628906 L 19.078125 19.449219 C 19.066406 19.4375 19.0625 19.429688 19.058594 19.425781 C 19.054688 19.421875 19.050781 19.417969 19.042969 19.417969 C 19.035156 19.414062 19.027344 19.410156 19.019531 19.414062 L 19.007812 19.414062 L 19.003906 19.40625 L 19.242188 19.382812 L 19.296875 19.460938 L 19.289062 19.460938 C 19.273438 19.441406 19.257812 19.429688 19.242188 19.421875 C 19.230469 19.414062 19.214844 19.410156 19.199219 19.40625 C 19.191406 19.40625 19.175781 19.40625 19.152344 19.40625 Z M 19.125 19.410156 "/>
<path style=" stroke:none;fill-rule:nonzero;fill:rgb(54.901963%,21.176471%,11.372549%);fill-opacity:1;" d="M 18.953125 19.40625 L 19.019531 19.496094 L 19.011719 19.496094 C 18.992188 19.472656 18.96875 19.457031 18.941406 19.445312 C 18.917969 19.433594 18.894531 19.425781 18.875 19.429688 C 18.863281 19.429688 18.855469 19.4375 18.851562 19.445312 C 18.847656 19.453125 18.847656 19.460938 18.855469 19.46875 C 18.859375 19.476562 18.863281 19.480469 18.871094 19.484375 C 18.878906 19.492188 18.890625 19.496094 18.902344 19.503906 C 18.914062 19.507812 18.933594 19.511719 18.964844 19.519531 C 19.011719 19.535156 19.042969 19.546875 19.0625 19.558594 C 19.085938 19.570312 19.101562 19.585938 19.113281 19.605469 C 19.128906 19.625 19.132812 19.648438 19.128906 19.664062 C 19.121094 19.683594 19.101562 19.695312 19.074219 19.699219 C 19.066406 19.699219 19.054688 19.699219 19.046875 19.699219 C 19.039062 19.695312 19.023438 19.695312 19.011719 19.691406 C 19 19.6875 18.996094 19.6875 18.992188 19.6875 C 18.988281 19.691406 18.984375 19.691406 18.980469 19.695312 C 18.980469 19.699219 18.980469 19.703125 18.980469 19.707031 L 18.972656 19.707031 L 18.902344 19.605469 L 18.910156 19.605469 C 18.933594 19.632812 18.960938 19.652344 18.992188 19.667969 C 19.019531 19.679688 19.042969 19.6875 19.0625 19.683594 C 19.078125 19.683594 19.089844 19.675781 19.09375 19.667969 C 19.09375 19.660156 19.09375 19.648438 19.085938 19.636719 C 19.082031 19.632812 19.074219 19.625 19.066406 19.621094 C 19.058594 19.613281 19.050781 19.609375 19.039062 19.605469 C 19.027344 19.601562 19.011719 19.59375 18.984375 19.585938 C 18.953125 19.578125 18.925781 19.570312 18.910156 19.5625 C 18.890625 19.554688 18.875 19.546875 18.863281 19.535156 C 18.847656 19.527344 18.839844 19.515625 18.828125 19.503906 C 18.8125 19.480469 18.808594 19.460938 18.816406 19.445312 C 18.820312 19.425781 18.835938 19.417969 18.863281 19.414062 C 18.871094 19.414062 18.882812 19.414062 18.890625 19.414062 C 18.898438 19.417969 18.910156 19.417969 18.921875 19.421875 C 18.933594 19.425781 18.941406 19.425781 18.945312 19.425781 C 18.949219 19.425781 18.953125 19.425781 18.953125 19.421875 C 18.953125 19.417969 18.953125 19.414062 18.949219 19.40625 Z M 18.953125 19.40625 "/>
<path style=" stroke:none;fill-rule:nonzero;fill:rgb(54.901963%,21.176471%,11.372549%);fill-opacity:1;" d="M 19.503906 19.511719 L 19.554688 19.589844 C 19.566406 19.605469 19.574219 19.613281 19.578125 19.617188 C 19.582031 19.621094 19.585938 19.621094 19.59375 19.625 C 19.601562 19.625 19.609375 19.625 19.621094 19.625 L 19.628906 19.632812 L 19.484375 19.648438 L 19.476562 19.640625 C 19.492188 19.640625 19.5 19.636719 19.503906 19.632812 C 19.503906 19.632812 19.507812 19.628906 19.503906 19.625 C 19.503906 19.621094 19.5 19.609375 19.488281 19.597656 L 19.367188 19.417969 C 19.355469 19.40625 19.347656 19.394531 19.34375 19.390625 C 19.339844 19.386719 19.335938 19.386719 19.328125 19.382812 C 19.320312 19.382812 19.3125 19.382812 19.296875 19.382812 L 19.292969 19.375 L 19.417969 19.363281 C 19.457031 19.359375 19.492188 19.363281 19.519531 19.375 C 19.546875 19.386719 19.570312 19.402344 19.582031 19.421875 C 19.59375 19.441406 19.601562 19.457031 19.597656 19.46875 C 19.59375 19.484375 19.585938 19.496094 19.566406 19.5 C 19.554688 19.507812 19.535156 19.511719 19.503906 19.511719 Z M 19.410156 19.378906 L 19.492188 19.496094 C 19.496094 19.496094 19.5 19.496094 19.503906 19.496094 C 19.519531 19.496094 19.527344 19.488281 19.53125 19.480469 C 19.535156 19.46875 19.527344 19.453125 19.515625 19.433594 C 19.5 19.410156 19.484375 19.398438 19.46875 19.390625 C 19.453125 19.378906 19.4375 19.378906 19.417969 19.378906 Z M 19.410156 19.378906 "/>
<path style=" stroke:none;fill-rule:nonzero;fill:rgb(54.901963%,21.176471%,11.372549%);fill-opacity:1;" d="M 20.972656 19.332031 C 21.003906 19.335938 21.027344 19.34375 21.042969 19.351562 C 21.066406 19.359375 21.085938 19.375 21.101562 19.394531 C 21.113281 19.414062 21.117188 19.433594 21.109375 19.449219 C 21.101562 19.464844 21.074219 19.476562 21.035156 19.480469 L 20.890625 19.496094 L 20.886719 19.488281 C 20.898438 19.488281 20.90625 19.488281 20.910156 19.484375 C 20.914062 19.480469 20.914062 19.476562 20.914062 19.472656 C 20.910156 19.46875 20.90625 19.460938 20.894531 19.445312 L 20.773438 19.269531 C 20.761719 19.253906 20.753906 19.246094 20.75 19.242188 C 20.746094 19.238281 20.742188 19.234375 20.734375 19.234375 C 20.730469 19.230469 20.71875 19.230469 20.707031 19.234375 L 20.699219 19.226562 L 20.835938 19.210938 C 20.871094 19.207031 20.894531 19.207031 20.914062 19.210938 C 20.929688 19.214844 20.945312 19.222656 20.960938 19.234375 C 20.976562 19.242188 20.988281 19.253906 20.996094 19.265625 C 21.007812 19.28125 21.011719 19.292969 21.007812 19.304688 C 21.003906 19.316406 20.992188 19.324219 20.972656 19.332031 Z M 20.890625 19.335938 C 20.910156 19.335938 20.925781 19.332031 20.929688 19.324219 C 20.9375 19.320312 20.941406 19.3125 20.941406 19.304688 C 20.941406 19.296875 20.9375 19.285156 20.925781 19.273438 C 20.917969 19.261719 20.910156 19.253906 20.898438 19.246094 C 20.890625 19.238281 20.878906 19.234375 20.867188 19.230469 C 20.855469 19.226562 20.835938 19.226562 20.816406 19.230469 Z M 20.902344 19.351562 L 20.964844 19.4375 L 20.96875 19.449219 C 20.976562 19.457031 20.980469 19.460938 20.988281 19.464844 C 20.992188 19.46875 21 19.46875 21.007812 19.46875 C 21.019531 19.46875 21.027344 19.464844 21.035156 19.457031 C 21.039062 19.453125 21.042969 19.445312 21.042969 19.4375 C 21.039062 19.425781 21.035156 19.414062 21.027344 19.40625 C 21.019531 19.390625 21.007812 19.378906 20.996094 19.371094 C 20.980469 19.363281 20.96875 19.355469 20.953125 19.351562 C 20.941406 19.351562 20.921875 19.351562 20.902344 19.351562 Z M 20.902344 19.351562 "/>
<path style=" stroke:none;fill-rule:nonzero;fill:rgb(54.901963%,21.176471%,11.372549%);fill-opacity:1;" d="M 21.195312 19.332031 L 21.25 19.40625 C 21.257812 19.421875 21.265625 19.433594 21.269531 19.433594 C 21.273438 19.4375 21.28125 19.441406 21.285156 19.445312 C 21.292969 19.445312 21.304688 19.445312 21.316406 19.445312 L 21.320312 19.453125 L 21.175781 19.46875 L 21.171875 19.460938 C 21.183594 19.457031 21.191406 19.457031 21.195312 19.453125 C 21.199219 19.449219 21.199219 19.445312 21.199219 19.441406 C 21.199219 19.4375 21.191406 19.429688 21.183594 19.414062 L 21.058594 19.238281 C 21.046875 19.222656 21.042969 19.214844 21.035156 19.210938 C 21.03125 19.207031 21.027344 19.203125 21.019531 19.203125 C 21.015625 19.203125 21.003906 19.203125 20.992188 19.203125 L 20.984375 19.195312 L 21.117188 19.179688 C 21.152344 19.175781 21.179688 19.175781 21.199219 19.179688 C 21.21875 19.183594 21.238281 19.191406 21.253906 19.199219 C 21.273438 19.210938 21.289062 19.226562 21.300781 19.242188 C 21.3125 19.261719 21.320312 19.28125 21.3125 19.292969 C 21.308594 19.304688 21.300781 19.3125 21.285156 19.316406 L 21.417969 19.402344 C 21.433594 19.414062 21.445312 19.417969 21.453125 19.421875 C 21.460938 19.425781 21.46875 19.425781 21.476562 19.425781 L 21.480469 19.433594 L 21.390625 19.445312 L 21.214844 19.328125 Z M 21.101562 19.199219 L 21.1875 19.316406 L 21.199219 19.316406 C 21.21875 19.3125 21.230469 19.3125 21.238281 19.304688 C 21.246094 19.300781 21.25 19.296875 21.246094 19.285156 C 21.246094 19.277344 21.242188 19.265625 21.230469 19.25 C 21.21875 19.230469 21.203125 19.214844 21.183594 19.207031 C 21.167969 19.195312 21.148438 19.195312 21.125 19.195312 Z M 21.101562 19.199219 "/>
<path style=" stroke:none;fill-rule:nonzero;fill:rgb(54.901963%,21.176471%,11.372549%);fill-opacity:1;" d="M 20.960938 19.628906 L 21.066406 19.851562 C 21.074219 19.867188 21.078125 19.878906 21.082031 19.882812 C 21.085938 19.886719 21.09375 19.890625 21.097656 19.894531 C 21.105469 19.894531 21.113281 19.894531 21.125 19.894531 L 21.132812 19.894531 L 21.136719 19.902344 L 20.980469 19.917969 L 20.976562 19.910156 L 20.984375 19.910156 C 21 19.90625 21.007812 19.90625 21.011719 19.902344 C 21.015625 19.898438 21.015625 19.894531 21.015625 19.890625 C 21.015625 19.886719 21.011719 19.875 21.003906 19.859375 L 20.9375 19.714844 C 20.929688 19.703125 20.925781 19.695312 20.925781 19.691406 C 20.921875 19.691406 20.917969 19.6875 20.914062 19.6875 C 20.910156 19.683594 20.902344 19.683594 20.898438 19.683594 C 20.890625 19.683594 20.882812 19.6875 20.875 19.691406 L 20.867188 19.6875 L 20.953125 19.628906 Z M 20.960938 19.628906 "/>
<path style=" stroke:none;fill-rule:nonzero;fill:rgb(54.901963%,21.176471%,11.372549%);fill-opacity:1;" d="M 20.910156 19.925781 L 20.738281 19.941406 L 20.738281 19.9375 C 20.761719 19.875 20.777344 19.832031 20.777344 19.808594 C 20.777344 19.789062 20.777344 19.769531 20.765625 19.75 C 20.761719 19.734375 20.75 19.722656 20.734375 19.714844 C 20.722656 19.707031 20.707031 19.703125 20.695312 19.707031 C 20.671875 19.707031 20.660156 19.71875 20.660156 19.742188 L 20.648438 19.738281 C 20.644531 19.714844 20.648438 19.691406 20.65625 19.679688 C 20.667969 19.664062 20.683594 19.65625 20.703125 19.65625 C 20.71875 19.652344 20.734375 19.65625 20.75 19.660156 C 20.765625 19.664062 20.777344 19.671875 20.789062 19.683594 C 20.800781 19.695312 20.808594 19.703125 20.816406 19.714844 C 20.824219 19.730469 20.828125 19.75 20.824219 19.769531 C 20.820312 19.796875 20.804688 19.835938 20.777344 19.882812 L 20.839844 19.875 C 20.855469 19.875 20.867188 19.875 20.871094 19.871094 C 20.875 19.871094 20.878906 19.867188 20.878906 19.863281 C 20.878906 19.863281 20.882812 19.855469 20.882812 19.84375 L 20.890625 19.84375 Z M 20.910156 19.925781 "/>
<path style=" stroke:none;fill-rule:nonzero;fill:rgb(54.901963%,21.176471%,11.372549%);fill-opacity:1;" d="M 20.300781 19.699219 L 20.40625 19.917969 C 20.414062 19.9375 20.417969 19.945312 20.421875 19.953125 C 20.425781 19.957031 20.433594 19.960938 20.4375 19.960938 C 20.445312 19.964844 20.453125 19.964844 20.464844 19.964844 L 20.472656 19.964844 L 20.476562 19.96875 L 20.320312 19.988281 L 20.316406 19.980469 L 20.324219 19.976562 C 20.339844 19.976562 20.347656 19.972656 20.351562 19.972656 C 20.355469 19.96875 20.355469 19.964844 20.355469 19.960938 C 20.355469 19.953125 20.351562 19.945312 20.34375 19.925781 L 20.277344 19.785156 C 20.269531 19.773438 20.265625 19.765625 20.265625 19.761719 C 20.261719 19.757812 20.257812 19.757812 20.253906 19.753906 C 20.25 19.753906 20.242188 19.753906 20.238281 19.753906 C 20.230469 19.753906 20.222656 19.757812 20.214844 19.761719 L 20.207031 19.753906 L 20.292969 19.699219 Z M 20.300781 19.699219 "/>
<path style=" stroke:none;fill-rule:nonzero;fill:rgb(54.901963%,21.176471%,11.372549%);fill-opacity:1;" d="M 19.882812 19.761719 L 19.9375 19.875 L 19.941406 19.875 C 19.960938 19.871094 19.972656 19.863281 19.972656 19.851562 C 19.976562 19.839844 19.976562 19.824219 19.96875 19.804688 L 19.976562 19.800781 L 20.042969 19.945312 L 20.035156 19.945312 C 20.027344 19.929688 20.015625 19.917969 20.003906 19.910156 C 19.996094 19.898438 19.984375 19.894531 19.976562 19.890625 C 19.96875 19.886719 19.957031 19.886719 19.941406 19.890625 L 19.980469 19.964844 C 19.984375 19.980469 19.992188 19.988281 19.992188 19.992188 C 19.996094 19.996094 20 20 20.003906 20 C 20.011719 20 20.015625 20.003906 20.023438 20 L 20.042969 20 C 20.070312 19.996094 20.089844 19.988281 20.097656 19.976562 C 20.109375 19.960938 20.113281 19.941406 20.109375 19.917969 L 20.117188 19.917969 L 20.144531 20.003906 L 19.894531 20.03125 L 19.890625 20.023438 L 19.898438 20.023438 C 19.90625 20.023438 19.914062 20.019531 19.917969 20.015625 C 19.921875 20.015625 19.921875 20.011719 19.921875 20.003906 C 19.921875 20.003906 19.917969 19.992188 19.914062 19.980469 L 19.828125 19.800781 C 19.824219 19.789062 19.820312 19.78125 19.816406 19.777344 C 19.8125 19.773438 19.808594 19.769531 19.804688 19.769531 C 19.796875 19.765625 19.789062 19.765625 19.777344 19.765625 L 19.769531 19.765625 L 19.765625 19.757812 L 20.007812 19.734375 L 20.046875 19.8125 L 20.039062 19.816406 C 20.027344 19.796875 20.011719 19.78125 20 19.773438 C 19.988281 19.765625 19.976562 19.761719 19.960938 19.757812 C 19.953125 19.757812 19.9375 19.757812 19.914062 19.761719 Z M 19.882812 19.761719 "/>
<path style=" stroke:none;fill-rule:nonzero;fill:rgb(54.901963%,21.176471%,11.372549%);fill-opacity:1;" d="M 19.574219 20.0625 L 19.570312 20.058594 L 19.578125 20.054688 C 19.585938 20.054688 19.59375 20.054688 19.597656 20.050781 C 19.601562 20.046875 19.601562 20.042969 19.601562 20.039062 C 19.601562 20.035156 19.597656 20.027344 19.589844 20.011719 L 19.507812 19.835938 C 19.5 19.820312 19.496094 19.8125 19.492188 19.808594 C 19.488281 19.804688 19.484375 19.804688 19.480469 19.800781 C 19.472656 19.796875 19.464844 19.796875 19.457031 19.800781 L 19.449219 19.800781 L 19.445312 19.792969 L 19.574219 19.777344 C 19.609375 19.777344 19.640625 19.777344 19.664062 19.785156 C 19.695312 19.792969 19.722656 19.804688 19.746094 19.828125 C 19.769531 19.847656 19.789062 19.871094 19.800781 19.898438 C 19.8125 19.917969 19.816406 19.9375 19.816406 19.953125 C 19.820312 19.96875 19.816406 19.984375 19.8125 19.996094 C 19.804688 20.007812 19.796875 20.015625 19.785156 20.023438 C 19.777344 20.03125 19.761719 20.039062 19.742188 20.042969 C 19.734375 20.046875 19.722656 20.050781 19.703125 20.050781 Z M 19.5625 19.796875 L 19.664062 20.007812 C 19.667969 20.019531 19.671875 20.027344 19.675781 20.027344 C 19.675781 20.03125 19.679688 20.03125 19.683594 20.035156 C 19.6875 20.035156 19.695312 20.035156 19.699219 20.035156 C 19.726562 20.03125 19.738281 20.023438 19.746094 20.007812 C 19.753906 19.984375 19.746094 19.953125 19.726562 19.910156 C 19.710938 19.875 19.691406 19.847656 19.667969 19.828125 C 19.652344 19.8125 19.632812 19.800781 19.617188 19.796875 C 19.605469 19.792969 19.585938 19.792969 19.5625 19.796875 Z M 19.5625 19.796875 "/>
<path style=" stroke:none;fill-rule:nonzero;fill:rgb(54.901963%,21.176471%,11.372549%);fill-opacity:1;" d="M 20.585938 19.796875 C 20.613281 19.808594 20.632812 19.820312 20.648438 19.832031 C 20.660156 19.84375 20.671875 19.855469 20.679688 19.871094 C 20.6875 19.894531 20.6875 19.914062 20.679688 19.929688 C 20.667969 19.949219 20.648438 19.957031 20.617188 19.960938 C 20.589844 19.964844 20.5625 19.960938 20.539062 19.949219 C 20.519531 19.9375 20.503906 19.921875 20.496094 19.902344 C 20.488281 19.886719 20.484375 19.875 20.488281 19.863281 C 20.492188 19.851562 20.503906 19.839844 20.519531 19.828125 C 20.492188 19.8125 20.46875 19.800781 20.457031 19.792969 C 20.445312 19.78125 20.4375 19.769531 20.429688 19.757812 C 20.421875 19.738281 20.421875 19.722656 20.433594 19.707031 C 20.441406 19.691406 20.460938 19.679688 20.492188 19.679688 C 20.519531 19.675781 20.542969 19.679688 20.5625 19.691406 C 20.585938 19.699219 20.597656 19.714844 20.605469 19.730469 C 20.613281 19.746094 20.613281 19.757812 20.609375 19.765625 C 20.609375 19.777344 20.597656 19.789062 20.585938 19.796875 Z M 20.566406 19.789062 C 20.566406 19.78125 20.566406 19.773438 20.566406 19.765625 C 20.566406 19.757812 20.5625 19.746094 20.558594 19.738281 C 20.550781 19.71875 20.539062 19.707031 20.527344 19.699219 C 20.515625 19.691406 20.507812 19.691406 20.496094 19.691406 C 20.488281 19.691406 20.480469 19.695312 20.476562 19.703125 C 20.472656 19.710938 20.472656 19.71875 20.476562 19.730469 C 20.480469 19.738281 20.492188 19.75 20.503906 19.757812 C 20.515625 19.765625 20.535156 19.777344 20.566406 19.789062 Z M 20.542969 19.835938 C 20.539062 19.839844 20.539062 19.84375 20.539062 19.847656 C 20.535156 19.851562 20.535156 19.859375 20.539062 19.867188 C 20.539062 19.878906 20.542969 19.886719 20.546875 19.898438 C 20.554688 19.910156 20.5625 19.917969 20.570312 19.929688 C 20.578125 19.9375 20.582031 19.941406 20.59375 19.945312 C 20.601562 19.949219 20.609375 19.949219 20.613281 19.949219 C 20.625 19.945312 20.632812 19.941406 20.636719 19.933594 C 20.640625 19.925781 20.636719 19.917969 20.632812 19.902344 C 20.621094 19.878906 20.589844 19.855469 20.542969 19.835938 Z M 20.542969 19.835938 "/>
</g>
</svg>
