<?xml version="1.0" encoding="UTF-8"?>
<svg xmlns="http://www.w3.org/2000/svg" xmlns:xlink="http://www.w3.org/1999/xlink" width="40px" height="40px" viewBox="0 0 40 40" version="1.1">
<g id="surface1">
<path style=" stroke:none;fill-rule:evenodd;fill:rgb(22.352941%,58.039218%,3.137255%);fill-opacity:1;" d="M 0.152344 0 L 40 0 L 40 40 L 0.152344 40 Z M 0.152344 0 "/>
<path style=" stroke:none;fill-rule:evenodd;fill:rgb(100%,100%,100%);fill-opacity:1;" d="M 0.0117188 0 C -0.0429688 0.0078125 38.738281 20.125 38.738281 20.125 L 0 39.980469 Z M 0.0117188 0 "/>
<path style=" stroke:none;fill-rule:evenodd;fill:rgb(100%,87.058824%,3.137255%);fill-opacity:1;" d="M 0.0195312 1.683594 C 0.234375 1.683594 34.960938 19.839844 34.761719 20.019531 L 0.117188 38.605469 Z M 0.0195312 1.683594 "/>
<path style=" stroke:none;fill-rule:evenodd;fill:rgb(0%,0%,0%);fill-opacity:1;" d="M 0.117188 0.0664062 C 0.230469 0.0664062 18.300781 20.140625 18.300781 20.140625 L 0.117188 39.75 Z M 0.117188 0.0664062 "/>
<path style=" stroke:none;fill-rule:evenodd;fill:rgb(87.058824%,12.941177%,6.27451%);fill-opacity:1;" d="M 0.0195312 2.824219 C 0.121094 1.578125 16.324219 20.191406 16.324219 20.191406 L 0.0195312 37.640625 Z M 0.0195312 2.824219 "/>
</g>
</svg>
