<?xml version="1.0" encoding="UTF-8"?>
<svg xmlns="http://www.w3.org/2000/svg" xmlns:xlink="http://www.w3.org/1999/xlink" width="40px" height="40px" viewBox="0 0 40 40" version="1.1">
<g id="surface1">
<rect x="0" y="0" width="40" height="40" style="fill:rgb(72.941178%,0%,0%);fill-opacity:1;stroke:none;"/>
<path style=" stroke:none;fill-rule:evenodd;fill:rgb(100%,100%,100%);fill-opacity:1;" d="M 18.898438 19.359375 C 18.898438 19.359375 14.863281 17.625 15.441406 13.125 C 16.003906 10.957031 16.992188 9.484375 18.785156 8.679688 C 19.625 8.417969 20.484375 8.308594 21.359375 8.230469 C 21.128906 8.449219 20.9375 8.667969 20.839844 8.941406 C 20.644531 9.433594 20.789062 9.90625 21.042969 10.378906 C 21.367188 10.925781 21.558594 11.492188 21.621094 12.226562 C 21.742188 13.261719 21.296875 14.257812 20.484375 14.859375 C 19.964844 15.257812 19.355469 15.394531 18.859375 15.851562 C 18.472656 16.230469 18.238281 16.609375 18.148438 17.269531 C 18.136719 18.527344 18.480469 18.699219 18.898438 19.359375 Z M 18.898438 19.359375 "/>
<path style="fill:none;stroke-width:2.931125;stroke-linecap:butt;stroke-linejoin:miter;stroke:rgb(0%,0%,0%);stroke-opacity:1;stroke-miterlimit:4;" d="M 510.243437 236.21442 L 510.243437 235.85109 " transform="matrix(0.0537563,0,0,0.0537563,-9.295962,0.153561)"/>
<path style="fill:none;stroke-width:2.931125;stroke-linecap:butt;stroke-linejoin:miter;stroke:rgb(72.941178%,0%,0%);stroke-opacity:1;stroke-miterlimit:4;" d="M 514.966725 348.556006 C 485.755006 322.759587 488.298315 257.796212 510.534101 236.21442 " transform="matrix(0.0537563,0,0,0.0537563,-9.295962,0.153561)"/>
<path style=" stroke:none;fill-rule:evenodd;fill:rgb(72.941178%,0%,0%);fill-opacity:1;" d="M 18.117188 11.992188 L 18.636719 11.875 L 18.695312 11.371094 L 18.953125 11.800781 L 19.46875 11.683594 L 19.113281 12.070312 L 19.371094 12.5 L 18.890625 12.304688 L 18.535156 12.6875 L 18.597656 12.183594 Z M 18.117188 11.992188 "/>
<path style=" stroke:none;fill-rule:evenodd;fill:rgb(100%,100%,100%);fill-opacity:1;" d="M 19.238281 19.0625 C 19.238281 19.0625 19.71875 14.699219 24.1875 13.933594 C 26.425781 13.832031 28.125 14.347656 29.417969 15.824219 C 29.914062 16.550781 30.273438 17.339844 30.601562 18.15625 C 30.324219 18 30.058594 17.878906 29.769531 17.867188 C 29.242188 17.824219 28.832031 18.101562 28.453125 18.484375 C 28.027344 18.953125 27.539062 19.304688 26.855469 19.578125 C 25.902344 19.992188 24.820312 19.863281 24.007812 19.261719 C 23.472656 18.882812 23.164062 18.339844 22.585938 17.996094 C 22.109375 17.738281 21.675781 17.625 21.019531 17.734375 C 19.8125 18.089844 19.746094 18.46875 19.238281 19.0625 Z M 19.238281 19.0625 "/>
<path style="fill-rule:evenodd;fill:rgb(72.941178%,0%,0%);fill-opacity:1;stroke-width:2.931125;stroke-linecap:butt;stroke-linejoin:miter;stroke:rgb(0%,0%,0%);stroke-opacity:1;stroke-miterlimit:4;" d="M 510.194912 236.190905 L 510.231898 235.822231 " transform="matrix(0.0157517,0.0513969,-0.0513969,0.0157517,29.341344,-13.520955)"/>
<path style="fill:none;stroke-width:2.931125;stroke-linecap:butt;stroke-linejoin:miter;stroke:rgb(72.941178%,0%,0%);stroke-opacity:1;stroke-miterlimit:4;" d="M 514.957664 348.613005 C 485.780214 322.798589 488.288125 257.825736 510.584878 236.158414 " transform="matrix(0.0157517,0.0513969,-0.0513969,0.0157517,29.341344,-13.520955)"/>
<path style=" stroke:none;fill-rule:evenodd;fill:rgb(72.941178%,0%,0%);fill-opacity:1;" d="M 26.054688 16.160156 L 26.320312 16.617188 L 26.820312 16.53125 L 26.480469 16.902344 L 26.746094 17.363281 L 26.273438 17.132812 L 25.9375 17.503906 L 25.984375 16.988281 L 25.511719 16.761719 L 26.011719 16.671875 Z M 26.054688 16.160156 "/>
<path style=" stroke:none;fill-rule:evenodd;fill:rgb(100%,100%,100%);fill-opacity:1;" d="M 19.539062 19.378906 C 19.539062 19.378906 23.832031 18.445312 25.976562 22.441406 C 26.78125 24.53125 26.832031 26.304688 25.839844 28 C 25.308594 28.703125 24.675781 29.292969 24.007812 29.863281 C 24.066406 29.550781 24.097656 29.261719 24.019531 28.980469 C 23.890625 28.46875 23.5 28.167969 23.015625 27.929688 C 22.433594 27.675781 21.949219 27.324219 21.46875 26.765625 C 20.773438 25.992188 20.554688 24.925781 20.867188 23.960938 C 21.054688 23.335938 21.472656 22.871094 21.613281 22.210938 C 21.707031 21.675781 21.675781 21.230469 21.363281 20.644531 C 20.644531 19.613281 20.261719 19.671875 19.539062 19.375 Z M 19.539062 19.378906 "/>
<path style="fill-rule:evenodd;fill:rgb(72.941178%,0%,0%);fill-opacity:1;stroke-width:2.931125;stroke-linecap:butt;stroke-linejoin:miter;stroke:rgb(0%,0%,0%);stroke-opacity:1;stroke-miterlimit:4;" d="M 510.187503 236.197734 L 510.179174 235.834497 " transform="matrix(-0.0437329,0.0312593,-0.0312593,-0.0437329,53.644543,18.608081)"/>
<path style="fill:none;stroke-width:2.931125;stroke-linecap:butt;stroke-linejoin:miter;stroke:rgb(72.941178%,0%,0%);stroke-opacity:1;stroke-miterlimit:4;" d="M 514.974323 348.590509 C 485.729754 322.774513 488.310431 257.807232 510.550739 236.189405 " transform="matrix(-0.0437329,0.0312593,-0.0312593,-0.0437329,53.644543,18.608081)"/>
<path style=" stroke:none;fill-rule:evenodd;fill:rgb(72.941178%,0%,0%);fill-opacity:1;" d="M 24.457031 24.917969 L 24.105469 25.3125 L 24.347656 25.761719 L 23.886719 25.558594 L 23.535156 25.953125 L 23.605469 25.433594 L 23.144531 25.234375 L 23.648438 25.113281 L 23.714844 24.59375 L 23.957031 25.039062 Z M 24.457031 24.917969 "/>
<path style=" stroke:none;fill-rule:evenodd;fill:rgb(100%,100%,100%);fill-opacity:1;" d="M 19.445312 19.820312 C 19.445312 19.820312 21.542969 23.675781 18.308594 26.855469 C 16.53125 28.214844 14.84375 28.765625 12.9375 28.289062 C 12.117188 27.976562 11.371094 27.535156 10.632812 27.050781 C 10.949219 27.019531 11.234375 26.96875 11.484375 26.816406 C 11.9375 26.546875 12.117188 26.085938 12.210938 25.558594 C 12.292969 24.925781 12.492188 24.363281 12.894531 23.746094 C 13.441406 22.859375 14.402344 22.351562 15.417969 22.378906 C 16.070312 22.382812 16.632812 22.652344 17.304688 22.601562 C 17.84375 22.542969 18.265625 22.390625 18.742188 21.925781 C 19.527344 20.945312 19.363281 20.597656 19.445312 19.820312 Z M 19.445312 19.820312 "/>
<path style="fill-rule:evenodd;fill:rgb(72.941178%,0%,0%);fill-opacity:1;stroke-width:2.931125;stroke-linecap:butt;stroke-linejoin:miter;stroke:rgb(0%,0%,0%);stroke-opacity:1;stroke-miterlimit:4;" d="M 510.177939 236.17347 L 510.214796 235.867385 " transform="matrix(-0.0422831,-0.0331945,0.0331945,-0.0422831,29.759569,52.335292)"/>
<path style="fill:none;stroke-width:2.931125;stroke-linecap:butt;stroke-linejoin:miter;stroke:rgb(72.941178%,0%,0%);stroke-opacity:1;stroke-miterlimit:4;" d="M 514.911277 348.583406 C 485.777037 322.769339 488.313557 257.864976 510.541181 236.165455 " transform="matrix(-0.0422831,-0.0331945,0.0331945,-0.0422831,29.759569,52.335292)"/>
<path style=" stroke:none;fill-rule:evenodd;fill:rgb(72.941178%,0%,0%);fill-opacity:1;" d="M 15.507812 26.097656 L 15.027344 25.867188 L 14.667969 26.226562 L 14.734375 25.726562 L 14.253906 25.5 L 14.773438 25.421875 L 14.835938 24.921875 L 15.089844 25.371094 L 15.609375 25.289062 L 15.25 25.648438 Z M 15.507812 26.097656 "/>
<path style=" stroke:none;fill-rule:evenodd;fill:rgb(100%,100%,100%);fill-opacity:1;" d="M 18.96875 19.734375 C 18.96875 19.734375 16.027344 22.996094 11.953125 21.003906 C 10.082031 19.777344 9.003906 18.367188 8.820312 16.414062 C 8.839844 15.535156 9.011719 14.683594 9.222656 13.828125 C 9.355469 14.117188 9.496094 14.371094 9.726562 14.550781 C 10.128906 14.894531 10.621094 14.910156 11.152344 14.820312 C 11.773438 14.6875 12.375 14.6875 13.089844 14.863281 C 14.105469 15.085938 14.90625 15.824219 15.214844 16.789062 C 15.429688 17.40625 15.363281 18.027344 15.632812 18.644531 C 15.867188 19.132812 16.152344 19.476562 16.75 19.773438 C 17.933594 20.1875 18.210938 19.917969 18.96875 19.734375 Z M 18.96875 19.734375 "/>
<path style="fill-rule:evenodd;fill:rgb(72.941178%,0%,0%);fill-opacity:1;stroke-width:2.931125;stroke-linecap:butt;stroke-linejoin:miter;stroke:rgb(0%,0%,0%);stroke-opacity:1;stroke-miterlimit:4;" d="M 510.212737 236.205174 L 510.233719 235.814417 " transform="matrix(0.0172595,-0.0509099,0.0509099,0.0172595,-8.272604,40.269163)"/>
<path style="fill:none;stroke-width:2.931125;stroke-linecap:butt;stroke-linejoin:miter;stroke:rgb(72.941178%,0%,0%);stroke-opacity:1;stroke-miterlimit:4;" d="M 514.946484 348.619267 C 485.76833 322.755678 488.308945 257.825843 510.580163 236.157338 " transform="matrix(0.0172595,-0.0509099,0.0509099,0.0172595,-8.272604,40.269163)"/>
<path style=" stroke:none;fill-rule:evenodd;fill:rgb(72.941178%,0%,0%);fill-opacity:1;" d="M 11.738281 18.105469 L 11.796875 17.582031 L 11.339844 17.359375 L 11.828125 17.253906 L 11.882812 16.730469 L 12.132812 17.191406 L 12.625 17.085938 L 12.285156 17.476562 L 12.535156 17.9375 L 12.078125 17.714844 Z M 11.738281 18.105469 "/>
</g>
</svg>
