<?xml version="1.0" encoding="UTF-8"?>
<svg xmlns="http://www.w3.org/2000/svg" xmlns:xlink="http://www.w3.org/1999/xlink" width="40px" height="40px" viewBox="0 0 40 40" version="1.1">
<g id="surface1">
<rect x="0" y="0" width="40" height="40" style="fill:rgb(0%,0%,40.000001%);fill-opacity:1;stroke:none;"/>
<path style=" stroke:none;fill-rule:nonzero;fill:rgb(100%,100%,100%);fill-opacity:1;" d="M 0 0 L 0 1.5 L 18.28125 13.425781 L 20.582031 13.425781 L 20.582031 11.925781 L 2.300781 0 Z M 20.582031 0 L 20.582031 1.5 L 2.300781 13.425781 L 0 13.425781 L 0 11.925781 L 18.28125 0 Z M 20.582031 0 "/>
<path style=" stroke:none;fill-rule:nonzero;fill:rgb(100%,100%,100%);fill-opacity:1;" d="M 8.578125 0 L 8.578125 13.425781 L 12.007812 13.425781 L 12.007812 0 Z M 0 4.476562 L 0 8.949219 L 20.582031 8.949219 L 20.582031 4.476562 Z M 0 4.476562 "/>
<path style=" stroke:none;fill-rule:nonzero;fill:rgb(80.000001%,0%,0%);fill-opacity:1;" d="M 0 5.371094 L 0 8.054688 L 20.582031 8.054688 L 20.582031 5.371094 Z M 9.261719 0 L 9.261719 13.425781 L 11.320312 13.425781 L 11.320312 0 Z M 9.261719 0 "/>
<path style=" stroke:none;fill-rule:nonzero;fill:rgb(80.000001%,0%,0%);fill-opacity:1;" d="M 0 13.425781 L 6.859375 8.949219 L 8.394531 8.949219 L 1.535156 13.425781 Z M 0 0 L 6.859375 4.476562 L 5.328125 4.476562 L 0 1 Z M 12.1875 4.476562 L 19.050781 0 L 20.582031 0 L 13.722656 4.476562 Z M 20.582031 13.425781 L 13.722656 8.949219 L 15.257812 8.949219 L 20.582031 12.425781 Z M 20.582031 13.425781 "/>
<path style=" stroke:none;fill-rule:evenodd;fill:rgb(100%,100%,100%);fill-opacity:1;" d="M 5.398438 34.652344 L 4.121094 35.996094 L 4.378906 34.160156 L 2.53125 34 L 4.125 33.054688 L 3.097656 31.511719 L 4.832031 32.167969 L 5.398438 30.402344 L 5.96875 32.167969 L 7.699219 31.511719 L 6.675781 33.054688 L 8.269531 34 L 6.421875 34.160156 L 6.675781 35.996094 Z M 5.398438 34.652344 "/>
<path style=" stroke:none;fill-rule:evenodd;fill:rgb(100%,100%,100%);fill-opacity:1;" d="M 29.730469 36.46875 L 28.828125 37.414062 L 29.007812 36.125 L 27.710938 36.011719 L 28.832031 35.34375 L 28.109375 34.257812 L 29.328125 34.71875 L 29.730469 33.476562 L 30.128906 34.71875 L 31.347656 34.257812 L 30.625 35.34375 L 31.746094 36.011719 L 30.449219 36.125 L 30.628906 37.414062 Z M 29.730469 36.46875 "/>
<path style=" stroke:none;fill-rule:evenodd;fill:rgb(100%,100%,100%);fill-opacity:1;" d="M 29.730469 17.136719 L 28.828125 18.082031 L 29.007812 16.789062 L 27.710938 16.679688 L 28.832031 16.011719 L 28.109375 14.925781 L 29.328125 15.386719 L 29.730469 14.144531 L 30.128906 15.386719 L 31.347656 14.925781 L 30.625 16.011719 L 31.746094 16.679688 L 30.449219 16.789062 L 30.628906 18.082031 Z M 29.730469 17.136719 "/>
<path style=" stroke:none;fill-rule:evenodd;fill:rgb(100%,100%,100%);fill-opacity:1;" d="M 22.480469 24.992188 L 21.578125 25.9375 L 21.757812 24.644531 L 20.460938 24.53125 L 21.582031 23.867188 L 20.859375 22.78125 L 22.078125 23.242188 L 22.480469 22 L 22.878906 23.242188 L 24.097656 22.78125 L 23.375 23.867188 L 24.496094 24.53125 L 23.199219 24.644531 L 23.378906 25.9375 Z M 22.480469 24.992188 "/>
<path style=" stroke:none;fill-rule:evenodd;fill:rgb(100%,100%,100%);fill-opacity:1;" d="M 36.171875 23.058594 L 35.273438 24.003906 L 35.449219 22.710938 L 34.152344 22.597656 L 35.277344 21.933594 L 34.554688 20.847656 L 35.773438 21.308594 L 36.171875 20.066406 L 36.574219 21.308594 L 37.789062 20.847656 L 37.070312 21.933594 L 38.191406 22.597656 L 36.890625 22.710938 L 37.070312 24.003906 Z M 36.171875 23.058594 "/>
<path style=" stroke:none;fill-rule:evenodd;fill:rgb(100%,100%,100%);fill-opacity:1;" d="M 32.117188 27.257812 L 31.480469 26.71875 L 32.3125 26.65625 L 32.628906 25.882812 L 32.945312 26.65625 L 33.777344 26.71875 L 33.140625 27.257812 L 33.339844 28.070312 L 32.628906 27.628906 L 31.917969 28.070312 Z M 32.117188 27.257812 "/>
</g>
</svg>
