<?xml version="1.0" encoding="UTF-8"?>
<svg xmlns="http://www.w3.org/2000/svg" xmlns:xlink="http://www.w3.org/1999/xlink" width="40px" height="40px" viewBox="0 0 40 40" version="1.1">
<g id="surface1">
<path style=" stroke:none;fill-rule:evenodd;fill:rgb(100%,100%,100%);fill-opacity:1;" d="M -17.703125 10.867188 L 59.917969 10.867188 L 59.917969 27.761719 L -17.703125 27.761719 Z M -17.703125 10.867188 "/>
<path style=" stroke:none;fill-rule:evenodd;fill:rgb(3.137255%,48.235294%,80.784315%);fill-opacity:1;" d="M 59.773438 40 L -17.542969 40 L -17.542969 26.492188 L 59.773438 26.492188 Z M 59.773438 40 "/>
<path style=" stroke:none;fill-rule:evenodd;fill:rgb(3.137255%,48.235294%,80.784315%);fill-opacity:1;" d="M 59.964844 13.132812 L -17.703125 13.132812 L -17.703125 0 L 59.964844 0 Z M 59.964844 13.132812 "/>
<path style=" stroke:none;fill-rule:evenodd;fill:rgb(3.137255%,48.235294%,80.784315%);fill-opacity:1;" d="M 21.203125 21.019531 L 19.648438 22.09375 L 20.257812 20.367188 L 18.726562 19.3125 L 20.636719 19.304688 L 21.242188 17.582031 L 21.8125 19.300781 L 23.722656 19.289062 L 22.164062 20.359375 L 22.734375 22.078125 Z M 21.203125 21.019531 "/>
<path style=" stroke:none;fill-rule:evenodd;fill:rgb(3.137255%,48.235294%,80.784315%);fill-opacity:1;" d="M 32.371094 23.894531 L 30.816406 24.96875 L 31.425781 23.242188 L 29.894531 22.1875 L 31.804688 22.179688 L 32.410156 20.457031 L 32.980469 22.175781 L 34.890625 22.164062 L 33.332031 23.234375 L 33.902344 24.953125 Z M 32.371094 23.894531 "/>
<path style=" stroke:none;fill-rule:evenodd;fill:rgb(3.137255%,48.235294%,80.784315%);fill-opacity:1;" d="M 32.371094 17.925781 L 30.816406 18.996094 L 31.425781 17.273438 L 29.894531 16.21875 L 31.804688 16.210938 L 32.410156 14.484375 L 32.980469 16.203125 L 34.890625 16.191406 L 33.332031 17.265625 L 33.902344 18.980469 Z M 32.371094 17.925781 "/>
<path style=" stroke:none;fill-rule:evenodd;fill:rgb(3.137255%,48.235294%,80.784315%);fill-opacity:1;" d="M 7.714844 23.894531 L 6.15625 24.96875 L 6.769531 23.242188 L 5.234375 22.1875 L 7.144531 22.179688 L 7.753906 20.457031 L 8.320312 22.175781 L 10.230469 22.164062 L 8.671875 23.234375 L 9.246094 24.953125 Z M 7.714844 23.894531 "/>
<path style=" stroke:none;fill-rule:evenodd;fill:rgb(3.137255%,48.235294%,80.784315%);fill-opacity:1;" d="M 7.714844 17.925781 L 6.15625 18.996094 L 6.769531 17.273438 L 5.234375 16.21875 L 7.144531 16.210938 L 7.753906 14.484375 L 8.320312 16.203125 L 10.230469 16.191406 L 8.671875 17.265625 L 9.246094 18.980469 Z M 7.714844 17.925781 "/>
</g>
</svg>
