<?xml version="1.0" encoding="UTF-8"?>
<svg xmlns="http://www.w3.org/2000/svg" xmlns:xlink="http://www.w3.org/1999/xlink" width="40px" height="40px" viewBox="0 0 40 40" version="1.1">
<g id="surface1">
<path style=" stroke:none;fill-rule:evenodd;fill:rgb(100%,100%,100%);fill-opacity:1;" d="M -19.421875 11.304688 L 58.605469 11.304688 L 58.605469 25.484375 L -19.421875 25.484375 Z M -19.421875 11.304688 "/>
<path style=" stroke:none;fill-rule:evenodd;fill:rgb(0%,24.313726%,62.352943%);fill-opacity:1;" d="M -19.351562 24.148438 L 58.824219 24.148438 L 58.824219 40 L -19.351562 40 Z M -19.351562 24.148438 "/>
<path style=" stroke:none;fill-rule:evenodd;fill:rgb(83.92157%,8.235294%,9.019608%);fill-opacity:1;" d="M -19.53125 0 L 58.773438 0 L 58.773438 13.292969 L -19.53125 13.292969 Z M -19.53125 0 "/>
<path style="fill-rule:evenodd;fill:rgb(100%,100%,100%);fill-opacity:1;stroke-width:4;stroke-linecap:round;stroke-linejoin:miter;stroke:rgb(89.803922%,7.843138%,11.372549%);stroke-opacity:1;stroke-miterlimit:4;" d="M 99.468237 313.154727 C 190.742548 280.128756 291.771365 262.195299 390.535744 262.01774 C 489.47431 261.840181 590.154752 277.642931 689.790069 313.864963 L 763.819806 161.519356 L 711.737709 69.011125 C 711.737709 69.011125 618.721522 107.896543 618.024771 107.896543 C 617.328021 107.896543 552.530227 35.274919 552.530227 35.274919 L 469.268547 86.589465 L 391.232494 25.686734 L 317.72532 85.524111 L 232.025013 35.09736 L 169.491659 110.915045 L 75.604533 69.89892 L 25.4385 161.696915 Z M 99.468237 313.154727 " transform="matrix(0.0224255,0,0,0.0219997,10.968591,6.040368)"/>
<path style="fill-rule:evenodd;fill:rgb(0%,65.490198%,74.117649%);fill-opacity:1;stroke-width:1.25;stroke-linecap:butt;stroke-linejoin:miter;stroke:rgb(0%,51.764709%,99.215686%);stroke-opacity:1;stroke-miterlimit:4;" d="M 103.331902 305.549032 L 48.108661 156.793924 L 99.544681 73.086588 L 186.450671 111.443637 L 214.887084 267.753788 C 173.383421 277.852404 152.109088 284.704785 103.331902 305.549032 Z M 103.331902 305.549032 " transform="matrix(0.018165,0.0129008,-0.0131508,0.0178203,25.996672,5.221967)"/>
<path style="fill-rule:evenodd;fill:rgb(0%,65.490198%,74.117649%);fill-opacity:1;stroke-width:1.25;stroke-linecap:butt;stroke-linejoin:miter;stroke:rgb(0%,51.764709%,99.215686%);stroke-opacity:1;stroke-miterlimit:4;" d="M 103.468417 305.890243 L 40.135955 160.021762 L 90.348552 81.679276 L 180.309158 113.43372 L 217.46028 268.342977 C 177.212806 279.234522 149.10086 288.540314 103.468417 305.890243 Z M 103.468417 305.890243 " transform="matrix(0.0212892,0.00691361,-0.00704735,0.0208854,18.441235,4.532744)"/>
<path style="fill-rule:evenodd;fill:rgb(0%,65.490198%,74.117649%);fill-opacity:1;stroke-width:1.25;stroke-linecap:butt;stroke-linejoin:miter;stroke:rgb(0%,51.764709%,99.215686%);stroke-opacity:0.996078;stroke-miterlimit:4;" d="M 103.126177 305.519691 L 35.715569 160.454002 L 80.830162 80.3749 L 174.020537 121.746143 L 213.386938 271.428366 C 170.88516 280.483874 148.240769 287.763793 103.126177 305.519691 Z M 103.126177 305.519691 " transform="matrix(0.0224255,0,0,0.0219997,10.968591,6.040368)"/>
<path style="fill-rule:evenodd;fill:rgb(100%,100%,100%);fill-opacity:1;stroke-width:1.25;stroke-linecap:butt;stroke-linejoin:miter;stroke:rgb(100%,100%,100%);stroke-opacity:1;stroke-miterlimit:4;" d="M 82.223663 225.263031 C 103.300364 229.524446 118.454687 229.702005 137.441137 224.375236 C 160.259715 214.96461 168.272345 202.180363 175.588225 191.881942 C 179.071977 213.544138 175.414038 233.253185 149.460083 247.102785 C 126.29313 257.933883 94.765171 251.186642 82.223663 225.263031 Z M 82.223663 225.263031 " transform="matrix(0.0224255,0,0,0.0219997,10.968591,6.040368)"/>
<path style="fill-rule:evenodd;fill:rgb(98.039216%,96.862745%,1.176471%);fill-opacity:0.996078;stroke-width:1.25;stroke-linecap:butt;stroke-linejoin:miter;stroke:rgb(32.941177%,29.411766%,12.54902%);stroke-opacity:0.996078;stroke-miterlimit:4;" d="M 410.915695 120.503231 L 406.90938 121.568584 L 407.083568 129.026062 L 402.032127 130.091416 L 398.548374 136.838657 L 400.638626 138.791806 C 400.812813 138.969365 399.070937 143.763457 399.070937 143.763457 C 399.070937 143.763457 400.464438 145.539047 400.464438 145.539047 L 401.683751 149.622904 L 404.993316 149.978022 L 405.864254 154.772114 L 411.26407 155.659909 L 416.141324 159.211089 L 416.489699 161.341797 L 422.063703 161.519356 L 425.89583 162.762269 L 439.308277 161.164238 L 441.050153 158.323294 L 441.22434 154.594555 L 448.366033 154.239437 L 449.062783 148.202432 L 452.894911 148.202432 L 452.372348 141.277632 L 455.681913 141.63275 L 454.810974 138.259129 L 452.894911 135.595744 L 452.372348 131.334328 L 446.798344 125.83 L 445.579031 118.372523 C 445.579031 118.372523 441.921091 116.774492 441.921091 116.774492 C 441.921091 116.596933 441.746903 111.80284 441.746903 111.80284 L 445.753218 106.120953 L 445.404843 103.812686 L 441.572716 103.812686 L 438.785714 106.120953 C 438.785714 106.120953 435.127774 106.476071 435.127774 106.65363 L 435.127774 108.251661 C 435.127774 108.251661 435.998712 111.447722 435.998712 111.625281 C 435.998712 111.625281 431.644021 111.625281 431.644021 111.625281 L 431.644021 106.476071 L 425.547455 103.457568 C 425.547455 103.457568 419.799264 107.363866 419.799264 107.363866 C 419.799264 107.541425 419.450888 111.980399 419.450888 111.980399 L 416.663886 112.690635 L 413.876885 108.606779 L 408.999631 106.65363 L 406.386817 106.476071 L 406.212629 109.849692 L 411.438258 116.596933 Z M 410.915695 120.503231 " transform="matrix(0.0224255,0,0,0.0219997,10.968591,6.040368)"/>
<path style="fill:none;stroke-width:1.25;stroke-linecap:butt;stroke-linejoin:miter;stroke:rgb(32.941177%,29.411766%,12.54902%);stroke-opacity:1;stroke-miterlimit:4;" d="M 449.236971 148.024873 L 448.191845 143.941016 " transform="matrix(0.0224255,0,0,0.0219997,10.968591,6.040368)"/>
<path style="fill:none;stroke-width:1.25;stroke-linecap:butt;stroke-linejoin:miter;stroke:rgb(32.941177%,29.411766%,12.54902%);stroke-opacity:1;stroke-miterlimit:4;" d="M 452.372348 141.277632 L 450.456284 138.614247 " transform="matrix(0.0224255,0,0,0.0219997,10.968591,6.040368)"/>
<path style="fill-rule:evenodd;fill:rgb(32.941177%,29.411766%,12.54902%);fill-opacity:1;stroke-width:1.25;stroke-linecap:butt;stroke-linejoin:miter;stroke:rgb(32.941177%,29.411766%,12.941177%);stroke-opacity:1;stroke-miterlimit:4;" d="M 400.812813 138.259129 L 406.735192 137.904011 L 407.780318 143.23078 L 409.870569 145.00637 L 410.044757 154.594555 L 411.960821 155.48235 L 412.483384 151.576053 L 417.012262 151.220935 L 417.8832 159.03353 L 416.838074 160.098884 L 417.360637 161.341797 L 422.760453 161.164238 C 422.760453 161.164238 423.979766 159.03353 423.979766 159.03353 C 424.153954 159.03353 427.115143 158.678412 427.115143 158.855971 C 427.115143 159.03353 428.334457 161.164238 428.334457 161.164238 L 429.205395 158.145735 C 429.205395 158.145735 432.166584 157.080381 432.166584 157.080381 C 432.166584 157.25794 434.431023 160.80912 434.431023 160.80912 L 438.437338 160.276443 L 435.998712 157.968176 L 434.953586 152.818965 L 440.52759 149.978022 L 442.792029 153.70676 C 442.792029 153.70676 444.88228 153.70676 444.708093 153.70676 C 444.533905 153.529201 442.269466 149.445345 442.269466 149.445345 L 442.269466 140.567396 L 446.449969 134.707949 L 452.372348 134.175272 L 452.372348 131.689446 L 446.449969 126.362677 L 444.88228 118.727641 L 441.572716 117.12961 L 440.701778 118.017405 L 437.043838 118.372523 L 440.701778 123.876851 L 440.701778 127.428031 L 442.443654 128.315826 L 442.095278 137.904011 C 442.095278 137.904011 437.914776 138.614247 437.914776 138.614247 C 437.914776 138.791806 437.5664 144.118575 437.5664 144.118575 L 435.127774 146.604401 C 435.127774 146.604401 433.734273 151.753612 433.560085 151.753612 C 433.385898 151.753612 431.121459 154.772114 431.121459 154.772114 L 426.592581 154.949673 C 426.592581 154.949673 423.979766 152.286289 423.979766 152.286289 C 423.979766 152.10873 423.457203 148.55755 423.457203 148.55755 C 423.457203 148.55755 421.715327 147.847314 421.54114 147.847314 C 421.54114 147.847314 420.670202 143.763457 420.670202 143.763457 L 417.534825 142.165426 L 417.360637 139.679601 L 414.399447 138.259129 C 414.399447 138.259129 414.051072 136.128421 413.876885 135.950862 C 413.702697 135.950862 412.483384 135.063067 412.309196 135.063067 C 412.135008 135.063067 412.135008 128.848503 412.135008 128.848503 L 414.92201 128.493385 L 413.354322 126.540236 L 412.831759 124.764646 L 412.831759 122.989056 L 415.096198 120.858348 C 415.096198 120.858348 411.089883 120.325672 411.089883 120.503231 C 411.089883 120.503231 407.257755 122.101261 407.257755 122.101261 C 407.431943 122.101261 407.083568 129.203621 407.083568 129.203621 L 402.554689 130.624093 L 398.89675 136.483539 Z M 400.812813 138.259129 " transform="matrix(0.0224255,0,0,0.0219997,10.968591,6.040368)"/>
<path style="fill-rule:evenodd;fill:rgb(32.941177%,29.411766%,12.54902%);fill-opacity:1;stroke-width:1.25;stroke-linecap:butt;stroke-linejoin:miter;stroke:rgb(32.941177%,29.411766%,12.54902%);stroke-opacity:1;stroke-miterlimit:4;" d="M 423.631391 148.024873 L 426.766768 146.249283 L 426.592581 142.875662 L 423.631391 142.165426 L 422.586265 141.100073 L 425.89583 141.63275 L 429.727958 141.277632 L 431.121459 140.567396 C 430.598896 141.987867 430.076333 141.987867 430.076333 141.987867 C 429.902145 141.987867 427.811894 143.053221 427.811894 143.053221 L 427.986082 146.426842 C 427.986082 146.426842 434.779399 147.314637 434.605211 147.314637 C 434.605211 147.314637 434.605211 148.55755 434.431023 148.55755 C 434.256836 148.55755 427.289331 146.959519 427.289331 146.959519 L 423.108828 149.622904 Z M 423.631391 148.024873 " transform="matrix(0.0224255,0,0,0.0219997,10.968591,6.040368)"/>
<path style="fill-rule:evenodd;fill:rgb(32.941177%,29.411766%,12.54902%);fill-opacity:1;stroke-width:1.25;stroke-linecap:butt;stroke-linejoin:miter;stroke:rgb(32.941177%,29.411766%,12.54902%);stroke-opacity:1;stroke-miterlimit:4;" d="M 440.875965 127.428031 L 437.043838 130.624093 L 434.431023 135.063067 L 433.037522 135.418185 L 429.205395 130.091416 L 424.850704 130.268975 C 424.850704 130.268975 422.412078 136.30598 422.412078 136.483539 C 422.412078 136.483539 420.670202 136.30598 420.670202 136.30598 L 415.967136 131.15677 C 415.967136 131.15677 414.573635 128.670944 414.747823 128.670944 C 414.92201 128.670944 426.418393 128.670944 426.418393 128.670944 L 426.244205 123.166615 C 426.244205 123.166615 424.502329 122.633938 423.631391 122.101261 C 424.328142 121.923702 429.902145 121.923702 429.902145 121.923702 L 427.463519 123.521733 L 427.463519 128.315826 L 437.5664 128.315826 Z M 440.875965 127.428031 " transform="matrix(0.0224255,0,0,0.0219997,10.968591,6.040368)"/>
<path style=" stroke:none;fill-rule:evenodd;fill:rgb(47.450981%,41.568628%,22.745098%);fill-opacity:0.996078;" d="M 20.40625 8.902344 C 20.421875 8.902344 20.4375 8.917969 20.4375 8.933594 C 20.4375 8.949219 20.421875 8.960938 20.40625 8.960938 C 20.390625 8.960938 20.375 8.949219 20.375 8.933594 C 20.375 8.917969 20.390625 8.902344 20.40625 8.902344 Z M 20.40625 8.902344 "/>
<path style=" stroke:none;fill-rule:evenodd;fill:rgb(47.843137%,41.960785%,22.745098%);fill-opacity:1;" d="M 20.6875 8.890625 C 20.703125 8.890625 20.71875 8.90625 20.71875 8.921875 C 20.71875 8.9375 20.703125 8.949219 20.6875 8.949219 C 20.671875 8.949219 20.660156 8.9375 20.660156 8.921875 C 20.660156 8.90625 20.671875 8.890625 20.6875 8.890625 Z M 20.6875 8.890625 "/>
<path style="fill:none;stroke-width:1.25;stroke-linecap:butt;stroke-linejoin:miter;stroke:rgb(32.941177%,29.411766%,12.54902%);stroke-opacity:1;stroke-miterlimit:4;" d="M 413.528509 121.213466 C 417.709012 119.615436 420.670202 118.194964 425.89583 117.839846 C 430.773083 117.307169 434.605211 118.017405 438.959901 118.727641 " transform="matrix(0.0224255,0,0,0.0219997,10.968591,6.040368)"/>
<path style="fill-rule:evenodd;fill:rgb(32.941177%,29.411766%,12.54902%);fill-opacity:1;stroke-width:1.25;stroke-linecap:butt;stroke-linejoin:miter;stroke:rgb(32.941177%,29.411766%,12.54902%);stroke-opacity:1;stroke-miterlimit:4;" d="M 415.792948 112.335517 L 412.483384 112.335517 L 407.60613 107.186307 L 410.393132 107.541425 L 413.528509 108.961897 Z M 415.792948 112.335517 " transform="matrix(0.0224255,0,0,0.0219997,10.968591,6.040368)"/>
<path style="fill-rule:evenodd;fill:rgb(32.941177%,29.411766%,12.54902%);fill-opacity:1;stroke-width:1.25;stroke-linecap:butt;stroke-linejoin:miter;stroke:rgb(32.941177%,29.411766%,12.54902%);stroke-opacity:1;stroke-miterlimit:4;" d="M 436.521275 110.382368 L 444.18553 104.345363 L 441.746903 103.990245 L 438.785714 106.65363 L 435.476149 107.186307 Z M 436.521275 110.382368 " transform="matrix(0.0224255,0,0,0.0219997,10.968591,6.040368)"/>
<path style="fill-rule:evenodd;fill:rgb(32.941177%,29.411766%,12.54902%);fill-opacity:1;stroke-width:1.25;stroke-linecap:butt;stroke-linejoin:miter;stroke:rgb(32.941177%,29.411766%,12.54902%);stroke-opacity:1;stroke-miterlimit:4;" d="M 431.992397 111.447722 L 419.799264 111.980399 L 419.973451 110.559927 L 424.328142 110.20481 L 424.850704 108.42922 C 424.850704 108.42922 426.244205 108.251661 426.244205 108.42922 C 426.244205 108.42922 427.289331 110.027251 427.289331 110.027251 L 431.644021 110.737486 Z M 431.992397 111.447722 " transform="matrix(0.0224255,0,0,0.0219997,10.968591,6.040368)"/>
<path style="fill-rule:evenodd;fill:rgb(32.941177%,29.411766%,12.54902%);fill-opacity:1;stroke-width:1.25;stroke-linecap:butt;stroke-linejoin:miter;stroke:rgb(32.941177%,29.411766%,12.54902%);stroke-opacity:1;stroke-miterlimit:4;" d="M 431.295646 106.831189 L 427.115143 107.008748 L 426.766768 104.700481 Z M 431.295646 106.831189 " transform="matrix(0.0224255,0,0,0.0219997,10.968591,6.040368)"/>
<path style="fill-rule:evenodd;fill:rgb(32.941177%,29.411766%,12.54902%);fill-opacity:1;stroke-width:1.25;stroke-linecap:butt;stroke-linejoin:miter;stroke:rgb(32.941177%,29.411766%,12.54902%);stroke-opacity:1;stroke-miterlimit:4;" d="M 424.328142 104.700481 L 423.979766 107.008748 L 419.799264 107.718984 Z M 424.328142 104.700481 " transform="matrix(0.0224255,0,0,0.0219997,10.968591,6.040368)"/>
<path style="fill-rule:evenodd;fill:rgb(32.941177%,29.411766%,12.54902%);fill-opacity:1;stroke-width:1.25;stroke-linecap:butt;stroke-linejoin:miter;stroke:rgb(32.941177%,29.411766%,12.54902%);stroke-opacity:1;stroke-miterlimit:4;" d="M 400.987001 146.959519 L 403.077252 141.810309 L 401.335376 138.08157 L 399.419312 143.585898 Z M 400.987001 146.959519 " transform="matrix(0.0224255,0,0,0.0219997,10.968591,6.040368)"/>
<path style="fill-rule:evenodd;fill:rgb(32.941177%,29.411766%,12.54902%);fill-opacity:1;stroke-width:1.25;stroke-linecap:butt;stroke-linejoin:miter;stroke:rgb(32.941177%,29.411766%,12.54902%);stroke-opacity:1;stroke-miterlimit:4;" d="M 405.452161 149.867582 L 407.890788 143.475458 L 403.013535 148.624669 Z M 405.452161 149.867582 " transform="matrix(0.0224255,0,0,0.0219997,10.966113,6.042797)"/>
<path style="fill-rule:evenodd;fill:rgb(98.039216%,96.862745%,1.176471%);fill-opacity:0.996078;stroke-width:1.25;stroke-linecap:butt;stroke-linejoin:miter;stroke:rgb(32.941177%,29.411766%,12.54902%);stroke-opacity:0.996078;stroke-miterlimit:4;" d="M 410.911889 120.603368 L 406.905574 121.491163 L 407.079761 129.126199 L 402.02832 130.191553 L 398.544568 136.761235 L 400.63482 138.891943 C 400.809007 139.069502 399.067131 143.686035 399.067131 143.686035 C 399.067131 143.686035 400.460632 145.461625 400.460632 145.461625 L 401.679945 149.545482 L 405.163698 150.078159 L 405.860448 154.694692 L 411.260264 155.582487 L 416.137517 159.133667 L 416.485893 161.264375 L 422.059896 161.441934 L 425.892024 162.684847 L 439.30447 161.264375 L 441.046347 158.423431 L 441.220534 154.517133 L 448.362226 154.339574 L 449.058977 148.12501 L 452.891105 148.12501 L 452.368542 141.377769 L 455.678106 141.555328 L 454.807168 138.359266 L 452.891105 135.695881 L 452.368542 131.434466 L 446.794538 125.752578 L 445.575225 118.47266 C 445.575225 118.47266 441.917285 116.874629 441.917285 116.69707 C 441.917285 116.69707 441.743097 111.725419 441.743097 111.725419 L 445.749412 106.043531 L 445.401037 103.912823 L 441.568909 103.735264 L 438.781908 106.043531 C 438.781908 106.043531 435.123968 106.576208 435.123968 106.576208 L 435.123968 108.351798 C 435.123968 108.351798 435.994906 111.54786 435.994906 111.54786 C 435.994906 111.725419 431.640215 111.54786 431.640215 111.54786 L 431.640215 106.576208 L 425.543649 103.380146 C 425.543649 103.380146 419.795457 107.286444 419.795457 107.464003 C 419.795457 107.464003 419.447082 111.902978 419.447082 111.902978 L 416.66008 112.790772 L 413.873078 108.529357 L 408.995825 106.576208 L 406.383011 106.576208 L 406.208823 109.77227 L 411.434452 116.519511 Z M 410.911889 120.603368 " transform="matrix(0.0224255,0,0,0.0219997,9.46477,6.088946)"/>
<path style="fill:none;stroke-width:1.25;stroke-linecap:butt;stroke-linejoin:miter;stroke:rgb(32.941177%,29.411766%,12.54902%);stroke-opacity:1;stroke-miterlimit:4;" d="M 449.233165 148.12501 L 448.188039 143.863594 " transform="matrix(0.0224255,0,0,0.0219997,9.46477,6.088946)"/>
<path style="fill:none;stroke-width:1.25;stroke-linecap:butt;stroke-linejoin:miter;stroke:rgb(32.941177%,29.411766%,12.54902%);stroke-opacity:1;stroke-miterlimit:4;" d="M 452.368542 141.377769 L 450.452478 138.536825 " transform="matrix(0.0224255,0,0,0.0219997,9.46477,6.088946)"/>
<path style="fill-rule:evenodd;fill:rgb(32.941177%,29.411766%,12.54902%);fill-opacity:1;stroke-width:1.25;stroke-linecap:butt;stroke-linejoin:miter;stroke:rgb(32.941177%,29.411766%,12.941177%);stroke-opacity:1;stroke-miterlimit:4;" d="M 400.809007 138.181707 L 406.731386 137.826589 L 407.776512 143.153359 L 409.866763 144.928948 L 410.040951 154.694692 L 411.957015 155.404928 L 412.479577 151.498631 L 417.008456 151.321072 L 417.879394 159.133667 L 416.834268 160.021462 L 417.356831 161.264375 L 422.756647 161.264375 C 422.756647 161.264375 423.97596 159.133667 423.97596 159.133667 C 424.150148 159.133667 427.111337 158.778549 427.111337 158.956108 C 427.111337 158.956108 428.330651 161.264375 428.330651 161.264375 L 429.201589 158.245872 C 429.201589 158.245872 432.162778 157.002959 432.162778 157.180518 C 432.162778 157.180518 434.427217 160.909257 434.427217 160.909257 L 438.433532 160.37658 L 435.994906 158.068313 L 434.94978 152.919103 L 440.523784 149.9006 L 442.788223 153.629339 C 442.788223 153.629339 444.878474 153.806898 444.704287 153.629339 C 444.530099 153.629339 442.26566 149.367923 442.26566 149.367923 L 442.26566 140.489974 L 446.446163 134.808086 L 452.368542 134.09785 L 452.368542 131.612025 L 446.446163 126.285255 L 444.878474 118.827778 L 441.568909 117.052188 L 440.697971 118.117542 L 437.040031 118.47266 L 440.697971 123.799429 L 440.697971 127.350609 L 442.439848 128.238404 L 442.091472 138.004148 C 442.091472 138.004148 437.910969 138.536825 437.910969 138.714384 C 437.910969 138.714384 437.562594 144.041153 437.562594 144.041153 L 435.123968 146.526979 C 435.123968 146.526979 433.730467 151.67619 433.556279 151.67619 C 433.382091 151.67619 431.117652 154.694692 431.117652 154.694692 L 426.588774 154.872251 C 426.588774 154.872251 423.97596 152.386426 423.97596 152.208867 C 423.97596 152.208867 423.453397 148.480128 423.453397 148.480128 C 423.453397 148.480128 421.711521 147.947451 421.537334 147.947451 C 421.537334 147.947451 420.666395 143.863594 420.666395 143.863594 L 417.531018 142.088005 L 417.356831 139.602179 L 414.395641 138.359266 C 414.395641 138.359266 414.047266 136.050999 413.873078 136.050999 C 413.698891 135.87344 412.479577 134.985645 412.30539 134.985645 C 412.30539 134.985645 412.30539 128.94864 412.30539 128.94864 L 414.918204 128.415963 L 413.350516 126.462814 L 412.827953 124.864783 L 412.827953 123.089193 L 415.092392 120.780927 C 415.092392 120.780927 411.086077 120.24825 411.086077 120.425809 C 411.086077 120.603368 407.253949 122.201399 407.253949 122.02384 C 407.428137 122.02384 407.079761 129.303758 407.079761 129.303758 L 402.550883 130.72423 L 398.892943 136.583676 Z M 400.809007 138.181707 " transform="matrix(0.0224255,0,0,0.0219997,9.46477,6.088946)"/>
<path style="fill-rule:evenodd;fill:rgb(32.941177%,29.411766%,12.54902%);fill-opacity:1;stroke-width:1.25;stroke-linecap:butt;stroke-linejoin:miter;stroke:rgb(32.941177%,29.411766%,12.54902%);stroke-opacity:1;stroke-miterlimit:4;" d="M 423.627585 148.12501 L 426.762962 146.34942 L 426.588774 142.798241 L 423.627585 142.265564 L 422.582459 141.022651 L 425.892024 141.555328 L 429.724152 141.377769 L 431.117652 140.667533 C 430.59509 142.088005 430.072527 141.910446 430.072527 141.910446 C 429.898339 141.910446 427.808088 143.153359 427.808088 143.153359 L 427.982275 146.34942 C 427.982275 146.34942 434.775592 147.237215 434.601405 147.237215 C 434.601405 147.237215 434.601405 148.657687 434.427217 148.657687 C 434.25303 148.657687 427.285525 147.059656 427.285525 147.059656 L 423.105022 149.723041 Z M 423.627585 148.12501 " transform="matrix(0.0224255,0,0,0.0219997,9.46477,6.088946)"/>
<path style="fill-rule:evenodd;fill:rgb(32.941177%,29.411766%,12.54902%);fill-opacity:1;stroke-width:1.25;stroke-linecap:butt;stroke-linejoin:miter;stroke:rgb(32.941177%,29.411766%,12.54902%);stroke-opacity:1;stroke-miterlimit:4;" d="M 440.872159 127.528168 L 437.040031 130.546671 L 434.427217 135.163204 L 433.033716 135.340763 L 429.201589 130.191553 L 424.846898 130.191553 C 424.846898 130.191553 422.408272 136.406117 422.408272 136.406117 C 422.408272 136.583676 420.666395 136.228558 420.666395 136.228558 L 415.96333 131.079348 C 415.96333 131.079348 414.569829 128.593522 414.744016 128.593522 C 414.918204 128.593522 426.414587 128.771081 426.414587 128.771081 L 426.240399 123.266752 C 426.240399 123.266752 424.498523 122.556517 423.627585 122.02384 C 424.324335 121.846281 429.898339 121.846281 429.898339 121.846281 L 427.459712 123.444311 L 427.459712 128.238404 L 437.562594 128.415963 Z M 440.872159 127.528168 " transform="matrix(0.0224255,0,0,0.0219997,9.46477,6.088946)"/>
<path style=" stroke:none;fill-rule:evenodd;fill:rgb(47.450981%,41.568628%,22.745098%);fill-opacity:0.996078;" d="M 18.902344 8.953125 C 18.917969 8.953125 18.933594 8.964844 18.933594 8.980469 C 18.933594 8.996094 18.917969 9.011719 18.902344 9.011719 C 18.886719 9.011719 18.871094 8.996094 18.871094 8.980469 C 18.871094 8.964844 18.886719 8.953125 18.902344 8.953125 Z M 18.902344 8.953125 "/>
<path style=" stroke:none;fill-rule:evenodd;fill:rgb(47.843137%,41.960785%,22.745098%);fill-opacity:1;" d="M 19.183594 8.941406 C 19.203125 8.941406 19.214844 8.953125 19.214844 8.96875 C 19.214844 8.984375 19.203125 9 19.183594 9 C 19.167969 9 19.15625 8.984375 19.15625 8.96875 C 19.15625 8.953125 19.167969 8.941406 19.183594 8.941406 Z M 19.183594 8.941406 "/>
<path style="fill:none;stroke-width:1.25;stroke-linecap:butt;stroke-linejoin:miter;stroke:rgb(32.941177%,29.411766%,12.54902%);stroke-opacity:1;stroke-miterlimit:4;" d="M 413.524703 121.313604 C 417.705206 119.538014 420.666395 118.295101 425.892024 117.762424 C 430.769277 117.229747 434.601405 117.939983 438.956095 118.827778 " transform="matrix(0.0224255,0,0,0.0219997,9.46477,6.088946)"/>
<path style="fill-rule:evenodd;fill:rgb(32.941177%,29.411766%,12.54902%);fill-opacity:1;stroke-width:1.25;stroke-linecap:butt;stroke-linejoin:miter;stroke:rgb(32.941177%,29.411766%,12.54902%);stroke-opacity:1;stroke-miterlimit:4;" d="M 415.789142 112.435654 L 412.479577 112.435654 L 407.602324 107.108885 L 410.389326 107.464003 L 413.524703 108.884475 Z M 415.789142 112.435654 " transform="matrix(0.0224255,0,0,0.0219997,9.46477,6.088946)"/>
<path style="fill-rule:evenodd;fill:rgb(32.941177%,29.411766%,12.54902%);fill-opacity:1;stroke-width:1.25;stroke-linecap:butt;stroke-linejoin:miter;stroke:rgb(32.941177%,29.411766%,12.54902%);stroke-opacity:1;stroke-miterlimit:4;" d="M 436.517469 110.304947 L 444.181724 104.4455 L 441.743097 104.090382 L 438.781908 106.753767 L 435.472343 107.286444 Z M 436.517469 110.304947 " transform="matrix(0.0224255,0,0,0.0219997,9.46477,6.088946)"/>
<path style="fill-rule:evenodd;fill:rgb(32.941177%,29.411766%,12.54902%);fill-opacity:1;stroke-width:1.25;stroke-linecap:butt;stroke-linejoin:miter;stroke:rgb(32.941177%,29.411766%,12.54902%);stroke-opacity:1;stroke-miterlimit:4;" d="M 431.988591 111.54786 L 419.795457 111.902978 L 419.969645 110.660065 L 424.324335 110.127388 L 424.846898 108.351798 C 424.846898 108.351798 426.240399 108.351798 426.240399 108.351798 C 426.240399 108.529357 427.285525 109.949829 427.285525 109.949829 L 431.640215 110.837624 Z M 431.988591 111.54786 " transform="matrix(0.0224255,0,0,0.0219997,9.46477,6.088946)"/>
<path style="fill-rule:evenodd;fill:rgb(32.941177%,29.411766%,12.54902%);fill-opacity:1;stroke-width:1.25;stroke-linecap:butt;stroke-linejoin:miter;stroke:rgb(32.941177%,29.411766%,12.54902%);stroke-opacity:1;stroke-miterlimit:4;" d="M 431.29184 106.753767 L 427.111337 106.931326 L 426.762962 104.623059 Z M 431.29184 106.753767 " transform="matrix(0.0224255,0,0,0.0219997,9.46477,6.088946)"/>
<path style="fill-rule:evenodd;fill:rgb(32.941177%,29.411766%,12.54902%);fill-opacity:1;stroke-width:1.25;stroke-linecap:butt;stroke-linejoin:miter;stroke:rgb(32.941177%,29.411766%,12.54902%);stroke-opacity:1;stroke-miterlimit:4;" d="M 424.324335 104.800618 L 423.97596 107.108885 L 419.795457 107.641562 Z M 424.324335 104.800618 " transform="matrix(0.0224255,0,0,0.0219997,9.46477,6.088946)"/>
<path style="fill-rule:evenodd;fill:rgb(32.941177%,29.411766%,12.54902%);fill-opacity:1;stroke-width:1.25;stroke-linecap:butt;stroke-linejoin:miter;stroke:rgb(32.941177%,29.411766%,12.54902%);stroke-opacity:1;stroke-miterlimit:4;" d="M 400.983195 147.059656 L 403.073446 141.732887 L 401.33157 138.004148 L 399.415506 143.508477 Z M 400.983195 147.059656 " transform="matrix(0.0224255,0,0,0.0219997,9.46477,6.088946)"/>
<path style="fill-rule:evenodd;fill:rgb(32.941177%,29.411766%,12.54902%);fill-opacity:1;stroke-width:1.25;stroke-linecap:butt;stroke-linejoin:miter;stroke:rgb(32.941177%,29.411766%,12.54902%);stroke-opacity:1;stroke-miterlimit:4;" d="M 405.448355 149.79016 L 407.886982 143.575595 L 403.009729 148.547247 Z M 405.448355 149.79016 " transform="matrix(0.0224255,0,0,0.0219997,9.462292,6.091375)"/>
<path style="fill-rule:evenodd;fill:rgb(0%,6.27451%,43.921569%);fill-opacity:1;stroke-width:1.25;stroke-linecap:butt;stroke-linejoin:miter;stroke:rgb(0%,6.27451%,44.313726%);stroke-opacity:0.996078;stroke-miterlimit:4;" d="M 103.394967 305.447098 L 45.361471 157.093274 L 97.893581 77.228974 L 186.21396 112.337281 L 215.637686 268.433678 C 174.989351 278.932612 152.243249 285.967196 103.394967 305.447098 Z M 103.394967 305.447098 " transform="matrix(0.0201225,0.00971148,-0.00989903,0.0197406,22.150099,4.598979)"/>
<path style="fill-rule:evenodd;fill:rgb(98.039216%,96.862745%,1.176471%);fill-opacity:0.996078;stroke-width:1.25;stroke-linecap:butt;stroke-linejoin:miter;stroke:rgb(32.941177%,29.411766%,12.54902%);stroke-opacity:0.996078;stroke-miterlimit:4;" d="M 410.977031 120.564738 L 406.796528 121.630092 L 406.970716 129.087569 L 402.093462 130.152923 L 398.60971 136.722606 L 400.699961 138.853313 C 400.874149 139.030872 398.958085 143.647406 399.132273 143.647406 C 399.132273 143.647406 400.351586 145.422996 400.351586 145.422996 L 401.745087 149.506852 L 405.054652 150.039529 L 405.92559 154.833622 L 411.325406 155.721417 L 416.202659 159.095038 L 416.551035 161.403304 L 422.125038 161.580863 L 425.957166 162.823776 L 439.369612 161.225745 L 441.111489 158.384802 L 441.285676 154.478504 L 448.427368 154.300945 L 449.124119 148.26394 L 452.956246 148.26394 L 452.433684 141.339139 L 455.569061 141.694257 L 454.87231 138.320636 L 452.782059 135.657252 L 452.433684 131.395836 L 446.85968 125.713949 L 445.466179 118.43403 C 445.466179 118.43403 441.982427 116.836 441.982427 116.658441 C 441.982427 116.658441 441.634051 111.864348 441.634051 111.864348 L 445.814554 106.182461 L 445.466179 103.874194 L 441.634051 103.696635 L 438.847049 106.182461 C 438.847049 106.182461 435.014922 106.537579 435.014922 106.537579 L 435.014922 108.313168 C 435.014922 108.313168 436.060048 111.50923 436.060048 111.50923 C 436.060048 111.686789 431.705357 111.50923 431.705357 111.50923 L 431.53117 106.537579 L 425.434603 103.519076 C 425.434603 103.519076 419.686412 107.425373 419.686412 107.425373 C 419.686412 107.425373 419.512224 112.041907 419.512224 112.041907 L 416.725222 112.752143 L 413.93822 108.490727 L 409.060967 106.715137 L 406.273965 106.537579 L 406.273965 109.73364 L 411.325406 116.658441 Z M 410.977031 120.564738 " transform="matrix(0.0224255,0,0,0.0219997,10.244559,7.394483)"/>
<path style="fill:none;stroke-width:1.25;stroke-linecap:butt;stroke-linejoin:miter;stroke:rgb(32.941177%,29.411766%,12.54902%);stroke-opacity:1;stroke-miterlimit:4;" d="M 449.298306 148.086381 L 448.078993 144.002524 " transform="matrix(0.0224255,0,0,0.0219997,10.244559,7.394483)"/>
<path style="fill:none;stroke-width:1.25;stroke-linecap:butt;stroke-linejoin:miter;stroke:rgb(32.941177%,29.411766%,12.54902%);stroke-opacity:1;stroke-miterlimit:4;" d="M 452.259496 141.339139 L 450.51762 138.498195 " transform="matrix(0.0224255,0,0,0.0219997,10.244559,7.394483)"/>
<path style="fill-rule:evenodd;fill:rgb(32.941177%,29.411766%,12.54902%);fill-opacity:1;stroke-width:1.25;stroke-linecap:butt;stroke-linejoin:miter;stroke:rgb(32.941177%,29.411766%,12.941177%);stroke-opacity:1;stroke-miterlimit:4;" d="M 400.874149 138.143078 L 406.62234 137.965519 L 407.841654 143.114729 L 409.757718 144.890319 L 410.106093 154.656063 L 412.022157 155.366299 L 412.544719 151.63756 L 417.073597 151.282442 L 417.944536 159.095038 L 416.89941 160.160391 L 417.247785 161.225745 L 422.647601 161.225745 C 422.647601 161.225745 423.866914 159.095038 424.041102 159.095038 C 424.21529 159.095038 427.176479 158.73992 427.176479 158.917479 C 427.176479 158.917479 428.395793 161.225745 428.395793 161.225745 L 429.266731 158.207243 C 429.266731 158.207243 432.053732 156.96433 432.053732 157.141889 C 432.053732 157.141889 434.492359 160.870627 434.492359 160.870627 L 438.324487 160.33795 L 436.060048 158.029684 L 435.014922 152.880473 L 440.588926 149.86197 L 442.679177 153.590709 C 442.679177 153.590709 444.769428 153.768268 444.769428 153.590709 C 444.595241 153.590709 442.330802 149.329293 442.330802 149.329293 L 442.330802 140.451344 L 446.511305 134.769457 L 452.259496 134.059221 L 452.259496 131.750954 L 446.511305 126.246626 L 444.943616 118.789148 L 441.634051 117.191118 L 440.763113 118.078912 L 437.105173 118.43403 L 440.763113 123.7608 L 440.763113 127.31198 L 442.330802 128.199774 L 441.982427 137.965519 C 441.982427 137.965519 437.976111 138.498195 437.976111 138.675754 C 437.976111 138.675754 437.627736 144.002524 437.627736 144.002524 L 435.014922 146.665909 C 435.014922 146.665909 433.621421 151.63756 433.621421 151.63756 C 433.447233 151.63756 431.182794 154.833622 431.182794 154.833622 L 426.653916 154.833622 C 426.653916 154.833622 423.866914 152.347796 423.866914 152.170237 C 423.866914 152.170237 423.518539 148.441499 423.518539 148.441499 C 423.518539 148.441499 421.776663 147.908822 421.602475 147.908822 C 421.428288 147.908822 420.55735 143.824965 420.55735 143.824965 L 417.59616 142.049375 L 417.247785 139.563549 L 414.286596 138.320636 C 414.286596 138.320636 413.93822 136.189929 413.93822 136.01237 C 413.764033 135.834811 412.370532 134.947016 412.370532 134.947016 C 412.196344 134.947016 412.196344 128.91001 412.196344 128.91001 L 414.809158 128.554892 L 413.415657 126.601744 L 412.893095 124.826154 L 412.893095 123.050564 L 415.157534 120.919856 C 415.157534 120.919856 411.151218 120.387179 411.151218 120.387179 C 411.151218 120.564738 407.319091 122.162769 407.319091 122.162769 C 407.319091 122.162769 407.144903 129.265128 407.144903 129.265128 L 402.616025 130.6856 L 398.958085 136.545047 Z M 400.874149 138.143078 " transform="matrix(0.0224255,0,0,0.0219997,10.244559,7.394483)"/>
<path style="fill-rule:evenodd;fill:rgb(32.941177%,29.411766%,12.54902%);fill-opacity:1;stroke-width:1.25;stroke-linecap:butt;stroke-linejoin:miter;stroke:rgb(32.941177%,29.411766%,12.54902%);stroke-opacity:1;stroke-miterlimit:4;" d="M 423.692727 148.086381 L 426.653916 146.310791 L 426.653916 142.759611 L 423.692727 142.226934 L 422.647601 141.16158 L 425.782978 141.694257 L 429.789293 141.339139 L 431.182794 140.628903 C 430.486044 142.049375 430.137669 142.049375 429.963481 142.049375 C 429.963481 142.049375 427.87323 143.114729 427.87323 143.114729 L 427.87323 146.310791 C 427.87323 146.310791 434.840734 147.198586 434.666547 147.198586 C 434.492359 147.198586 434.666547 148.619058 434.492359 148.619058 C 434.143984 148.619058 427.350667 147.021027 427.350667 147.021027 L 422.995976 149.684411 Z M 423.692727 148.086381 " transform="matrix(0.0224255,0,0,0.0219997,10.244559,7.394483)"/>
<path style="fill-rule:evenodd;fill:rgb(32.941177%,29.411766%,12.54902%);fill-opacity:1;stroke-width:1.25;stroke-linecap:butt;stroke-linejoin:miter;stroke:rgb(32.941177%,29.411766%,12.54902%);stroke-opacity:1;stroke-miterlimit:4;" d="M 440.937301 127.489539 L 436.930986 130.508041 L 434.492359 135.124575 L 433.098858 135.302134 L 429.266731 130.152923 L 424.737853 130.330482 C 424.737853 130.330482 422.473414 136.367488 422.473414 136.367488 C 422.473414 136.545047 420.55735 136.189929 420.55735 136.189929 L 416.028472 131.218277 C 416.028472 131.218277 414.460783 128.554892 414.809158 128.554892 C 414.983346 128.554892 426.305541 128.732451 426.305541 128.732451 L 426.305541 123.228123 C 426.305541 123.228123 424.563665 122.695446 423.518539 122.162769 C 424.21529 121.807651 429.963481 121.807651 429.963481 121.807651 L 427.524854 123.583241 L 427.524854 128.199774 L 437.453549 128.377333 Z M 440.937301 127.489539 " transform="matrix(0.0224255,0,0,0.0219997,10.244559,7.394483)"/>
<path style=" stroke:none;fill-rule:evenodd;fill:rgb(47.450981%,41.568628%,22.745098%);fill-opacity:0.996078;" d="M 19.683594 10.257812 C 19.699219 10.257812 19.710938 10.269531 19.710938 10.285156 C 19.710938 10.304688 19.699219 10.316406 19.683594 10.316406 C 19.664062 10.316406 19.652344 10.304688 19.652344 10.285156 C 19.652344 10.269531 19.664062 10.257812 19.683594 10.257812 Z M 19.683594 10.257812 "/>
<path style=" stroke:none;fill-rule:evenodd;fill:rgb(47.843137%,41.960785%,22.745098%);fill-opacity:1;" d="M 19.964844 10.246094 C 19.980469 10.246094 19.996094 10.257812 19.996094 10.273438 C 19.996094 10.289062 19.980469 10.304688 19.964844 10.304688 C 19.949219 10.304688 19.933594 10.289062 19.933594 10.273438 C 19.933594 10.257812 19.949219 10.246094 19.964844 10.246094 Z M 19.964844 10.246094 "/>
<path style="fill:none;stroke-width:1.25;stroke-linecap:butt;stroke-linejoin:miter;stroke:rgb(32.941177%,29.411766%,12.54902%);stroke-opacity:1;stroke-miterlimit:4;" d="M 413.589845 121.274974 C 417.770348 119.676943 420.731537 118.256471 425.957166 117.723794 C 430.834419 117.191118 434.666547 117.901353 439.021237 118.789148 " transform="matrix(0.0224255,0,0,0.0219997,10.244559,7.394483)"/>
<path style="fill-rule:evenodd;fill:rgb(32.941177%,29.411766%,12.54902%);fill-opacity:1;stroke-width:1.25;stroke-linecap:butt;stroke-linejoin:miter;stroke:rgb(32.941177%,29.411766%,12.54902%);stroke-opacity:1;stroke-miterlimit:4;" d="M 415.854284 112.397025 L 412.370532 112.397025 L 407.667466 107.070255 L 410.28028 107.425373 L 413.589845 108.845845 Z M 415.854284 112.397025 " transform="matrix(0.0224255,0,0,0.0219997,10.244559,7.394483)"/>
<path style="fill-rule:evenodd;fill:rgb(32.941177%,29.411766%,12.54902%);fill-opacity:1;stroke-width:1.25;stroke-linecap:butt;stroke-linejoin:miter;stroke:rgb(32.941177%,29.411766%,12.54902%);stroke-opacity:1;stroke-miterlimit:4;" d="M 436.58261 110.443876 L 444.246866 104.406871 L 441.808239 104.051753 L 438.847049 106.715137 L 435.363297 107.247814 Z M 436.58261 110.443876 " transform="matrix(0.0224255,0,0,0.0219997,10.244559,7.394483)"/>
<path style="fill-rule:evenodd;fill:rgb(32.941177%,29.411766%,12.54902%);fill-opacity:1;stroke-width:1.25;stroke-linecap:butt;stroke-linejoin:miter;stroke:rgb(32.941177%,29.411766%,12.54902%);stroke-opacity:1;stroke-miterlimit:4;" d="M 432.053732 111.50923 L 419.860599 111.864348 L 420.034787 110.621435 L 424.389477 110.088758 L 424.91204 108.313168 C 424.91204 108.313168 426.305541 108.313168 426.305541 108.313168 C 426.305541 108.490727 427.176479 110.088758 427.176479 110.088758 L 431.53117 110.798994 Z M 432.053732 111.50923 " transform="matrix(0.0224255,0,0,0.0219997,10.244559,7.394483)"/>
<path style="fill-rule:evenodd;fill:rgb(32.941177%,29.411766%,12.54902%);fill-opacity:1;stroke-width:1.25;stroke-linecap:butt;stroke-linejoin:miter;stroke:rgb(32.941177%,29.411766%,12.54902%);stroke-opacity:1;stroke-miterlimit:4;" d="M 431.356982 106.892696 L 427.176479 106.892696 L 426.828104 104.58443 Z M 431.356982 106.892696 " transform="matrix(0.0224255,0,0,0.0219997,10.244559,7.394483)"/>
<path style="fill-rule:evenodd;fill:rgb(32.941177%,29.411766%,12.54902%);fill-opacity:1;stroke-width:1.25;stroke-linecap:butt;stroke-linejoin:miter;stroke:rgb(32.941177%,29.411766%,12.54902%);stroke-opacity:1;stroke-miterlimit:4;" d="M 424.21529 104.761989 L 423.866914 107.070255 L 419.860599 107.780491 Z M 424.21529 104.761989 " transform="matrix(0.0224255,0,0,0.0219997,10.244559,7.394483)"/>
<path style="fill-rule:evenodd;fill:rgb(32.941177%,29.411766%,12.54902%);fill-opacity:1;stroke-width:1.25;stroke-linecap:butt;stroke-linejoin:miter;stroke:rgb(32.941177%,29.411766%,12.54902%);stroke-opacity:1;stroke-miterlimit:4;" d="M 401.048337 147.021027 L 403.138588 141.694257 L 401.222524 138.143078 L 399.480648 143.469847 Z M 401.048337 147.021027 " transform="matrix(0.0224255,0,0,0.0219997,10.244559,7.394483)"/>
<path style="fill-rule:evenodd;fill:rgb(32.941177%,29.411766%,12.54902%);fill-opacity:1;stroke-width:1.25;stroke-linecap:butt;stroke-linejoin:miter;stroke:rgb(32.941177%,29.411766%,12.54902%);stroke-opacity:1;stroke-miterlimit:4;" d="M 405.33931 149.75153 L 407.952124 143.536966 L 403.07487 148.508618 Z M 405.33931 149.75153 " transform="matrix(0.0224255,0,0,0.0219997,10.242082,7.396913)"/>
<path style="fill-rule:evenodd;fill:rgb(62.7451%,12.941177%,4.705882%);fill-opacity:1;stroke-width:1.25;stroke-linecap:butt;stroke-linejoin:miter;stroke:rgb(62.7451%,12.941177%,4.705882%);stroke-opacity:0.996078;stroke-miterlimit:4;" d="M 476.932802 225.795707 L 472.752299 230.767359 L 473.100674 234.851216 L 481.635867 234.673657 C 484.422869 234.14098 485.11962 233.075626 485.642183 232.010272 C 486.513121 230.5898 485.990558 229.702005 486.164745 227.926415 Z M 476.932802 225.795707 " transform="matrix(0.0224255,0,0,0.0219997,10.968591,6.040368)"/>
<path style="fill-rule:evenodd;fill:rgb(62.7451%,12.941177%,4.705882%);fill-opacity:1;stroke-width:1.25;stroke-linecap:butt;stroke-linejoin:miter;stroke:rgb(62.7451%,12.941177%,4.705882%);stroke-opacity:0.996078;stroke-miterlimit:4;" d="M 476.639363 226.131894 L 473.155611 229.505515 L 473.155611 233.234254 L 480.645678 233.056695 C 483.43268 232.524018 483.781055 231.991341 484.303618 230.748428 C 485.174556 229.505515 485.000368 229.505515 485.174556 227.552366 Z M 476.639363 226.131894 " transform="matrix(0.0224255,0,0,0.0219997,11.440015,6.306409)"/>
<path style="fill-rule:evenodd;fill:rgb(62.7451%,12.941177%,4.705882%);fill-opacity:1;stroke-width:1.25;stroke-linecap:butt;stroke-linejoin:miter;stroke:rgb(62.7451%,12.941177%,4.705882%);stroke-opacity:0.996078;stroke-miterlimit:4;" d="M 476.855623 225.977592 L 472.849308 230.061448 L 473.023495 233.25751 L 481.210313 233.612628 C 483.997315 232.902392 483.474752 233.079951 484.34569 231.659479 C 485.216629 230.239007 485.042441 229.883889 485.216629 228.1083 Z M 476.855623 225.977592 " transform="matrix(0.0224255,0,0,0.0219997,12.185165,6.075429)"/>
<path style="fill-rule:evenodd;fill:rgb(62.7451%,12.941177%,4.705882%);fill-opacity:1;stroke-width:1.25;stroke-linecap:butt;stroke-linejoin:miter;stroke:rgb(62.7451%,12.941177%,4.705882%);stroke-opacity:0.996078;stroke-miterlimit:4;" d="M 477.790434 225.481923 L 473.261556 229.56578 L 473.261556 233.472078 L 481.796749 234.182313 C 484.583751 233.649636 484.757939 232.761842 485.454689 231.874047 C 486.325627 230.453575 485.977252 230.276016 486.15144 228.322867 Z M 477.790434 225.481923 " transform="matrix(0.0224255,0,0,0.0219997,12.695451,6.250396)"/>
<path style="fill-rule:evenodd;fill:rgb(62.7451%,12.941177%,4.705882%);fill-opacity:1;stroke-width:1.25;stroke-linecap:butt;stroke-linejoin:miter;stroke:rgb(0%,0%,0%);stroke-opacity:1;stroke-miterlimit:4;" d="M 497.138565 130.979211 L 513.338014 141.987867 C 516.299203 139.502042 522.744145 140.922514 525.182772 141.63275 C 529.71165 142.875662 532.847027 145.539047 536.679154 146.249283 C 543.820847 148.202432 552.35604 149.445345 558.800982 148.735109 C 565.245923 148.024873 570.819927 144.473693 575.522993 141.987867 L 575.522993 140.389837 L 572.387616 140.389837 C 567.161987 142.342985 560.020295 142.342985 554.446291 141.63275 C 548.872287 140.922514 547.304599 138.436688 539.117781 135.950862 L 538.42103 134.352831 C 548.523912 134.885508 550.614164 134.53039 554.794666 132.7548 C 558.800982 131.689446 560.717045 129.203621 562.981484 127.428031 L 562.981484 125.652441 L 559.846107 125.474882 C 556.01398 128.138267 553.575353 128.493385 547.652974 127.960708 C 542.07897 127.428031 537.201717 124.231969 533.543777 124.231969 C 529.71165 124.231969 529.885837 122.456379 526.227897 122.27882 C 520.305518 121.746143 513.860576 122.456379 508.286573 123.876851 C 501.493256 126.007559 500.44813 127.60559 497.138565 130.979211 Z M 497.138565 130.979211 " transform="matrix(0.0224255,0,0,0.0219997,10.968591,6.040368)"/>
<path style="fill-rule:evenodd;fill:rgb(0%,0%,0%);fill-opacity:1;stroke-width:1.25;stroke-linecap:butt;stroke-linejoin:miter;stroke:rgb(0%,0%,0%);stroke-opacity:1;stroke-miterlimit:4;" d="M 500.273942 128.493385 C 501.841631 129.026062 503.583507 129.38118 504.80282 130.091416 C 506.022134 130.801652 505.673758 130.801652 507.067259 131.867005 C 506.893072 130.624093 506.893072 130.624093 506.022134 129.558739 C 505.151196 128.493385 503.757695 127.60559 502.538381 126.717795 Z M 500.273942 128.493385 " transform="matrix(0.0224255,0,0,0.0219997,10.968591,6.040368)"/>
<path style="fill-rule:evenodd;fill:rgb(0%,0%,0%);fill-opacity:1;stroke-width:1.25;stroke-linecap:butt;stroke-linejoin:miter;stroke:rgb(0%,0%,0%);stroke-opacity:1;stroke-miterlimit:4;" d="M 513.860576 140.389837 C 513.860576 138.969365 513.163826 137.726452 512.641263 136.483539 C 512.1187 135.240626 511.596137 134.175272 510.551012 132.932359 C 511.944513 133.287477 512.641263 133.997713 513.686389 135.240626 C 514.731515 136.483539 514.557327 137.904011 514.905702 139.679601 Z M 513.860576 140.389837 " transform="matrix(0.0224255,0,0,0.0219997,10.968591,6.040368)"/>
<path style="fill-rule:evenodd;fill:rgb(0%,0%,0%);fill-opacity:1;stroke-width:1.25;stroke-linecap:butt;stroke-linejoin:miter;stroke:rgb(0%,0%,0%);stroke-opacity:1;stroke-miterlimit:4;" d="M 516.995954 122.989056 C 517.344329 124.05441 518.041079 124.764646 518.73783 126.895354 C 519.260393 128.670944 519.43458 131.334328 519.43458 131.334328 C 519.260393 129.913857 519.608768 128.315826 519.43458 126.895354 C 519.260393 125.474882 518.389454 124.231969 518.215267 122.811497 Z M 516.995954 122.989056 " transform="matrix(0.0224255,0,0,0.0219997,10.968591,6.040368)"/>
<path style="fill-rule:evenodd;fill:rgb(0%,0%,0%);fill-opacity:1;stroke-width:1.25;stroke-linecap:butt;stroke-linejoin:miter;stroke:rgb(0%,0%,0%);stroke-opacity:1;stroke-miterlimit:4;" d="M 529.758574 123.876851 L 530.455324 131.867005 L 531.152075 124.409528 Z M 529.758574 123.876851 " transform="matrix(0.0224255,0,0,0.0219997,10.975351,6.040368)"/>
<path style="fill-rule:evenodd;fill:rgb(0%,0%,0%);fill-opacity:1;stroke-width:1.25;stroke-linecap:butt;stroke-linejoin:miter;stroke:rgb(0%,0%,0%);stroke-opacity:1;stroke-miterlimit:4;" d="M 526.736212 140.304452 C 527.084587 139.061539 526.9104 137.818626 526.736212 136.575713 C 526.562025 135.155241 526.213649 134.089887 525.691087 132.669415 C 527.084587 133.734769 527.432963 135.155241 528.129713 136.575713 C 528.129713 137.996185 527.781338 139.416657 526.736212 140.304452 Z M 526.736212 140.304452 " transform="matrix(0.0224255,0,0,0.0219997,10.972816,6.03834)"/>
<path style="fill-rule:evenodd;fill:rgb(0%,0%,0%);fill-opacity:1;stroke-width:1.25;stroke-linecap:butt;stroke-linejoin:miter;stroke:rgb(0%,0%,0%);stroke-opacity:1;stroke-miterlimit:4;" d="M 540.398266 137.118987 C 540.572454 137.118987 540.920829 139.782372 540.224079 141.735521 C 539.701516 143.68867 539.178953 143.68867 538.133827 144.754024 C 539.527328 143.68867 540.920829 143.333552 541.443392 142.090639 C 541.791767 140.13749 540.572454 137.296546 540.398266 137.118987 Z M 540.398266 137.118987 " transform="matrix(0.0224255,0,0,0.0219997,10.971125,6.0342)"/>
<path style="fill-rule:evenodd;fill:rgb(0%,0%,0%);fill-opacity:1;stroke-width:1.25;stroke-linecap:butt;stroke-linejoin:miter;stroke:rgb(0%,0%,0%);stroke-opacity:1;stroke-miterlimit:4;" d="M 542.083381 133.79893 C 541.038255 133.976489 540.864068 130.070191 540.341505 128.117042 C 540.68988 127.939483 541.212443 127.939483 541.560818 128.827278 C 542.083381 129.359955 541.909194 132.200899 542.083381 133.79893 Z M 542.083381 133.79893 " transform="matrix(0.0224255,0,0,0.0219997,10.988023,6.048647)"/>
<path style="fill-rule:evenodd;fill:rgb(0%,0%,0%);fill-opacity:1;stroke-width:1.25;stroke-linecap:butt;stroke-linejoin:miter;stroke:rgb(0%,0%,0%);stroke-opacity:1;stroke-miterlimit:4;" d="M 552.181852 132.953584 L 552.530227 129.757522 L 553.575353 129.579963 L 553.575353 132.420907 C 553.575353 132.598466 552.35604 133.131143 552.181852 132.953584 Z M 552.181852 132.953584 " transform="matrix(0.0224255,0,0,0.0219997,10.968591,6.032088)"/>
<path style="fill-rule:evenodd;fill:rgb(0%,0%,0%);fill-opacity:1;stroke-width:1.25;stroke-linecap:butt;stroke-linejoin:miter;stroke:rgb(0%,0%,0%);stroke-opacity:1;stroke-miterlimit:4;" d="M 551.560407 141.831533 C 552.08297 142.896887 553.302283 144.1398 553.302283 145.205154 C 553.476471 146.270508 553.128095 146.803185 552.257157 148.401215 L 553.824846 148.578774 C 554.695784 147.158302 554.869972 146.270508 554.695784 145.205154 C 554.695784 144.1398 554.173221 143.074446 553.128095 142.186651 Z M 551.560407 141.831533 " transform="matrix(0.0224255,0,0,0.0219997,10.966902,6.032088)"/>
<path style="fill-rule:evenodd;fill:rgb(0%,0%,0%);fill-opacity:1;stroke-width:1.25;stroke-linecap:butt;stroke-linejoin:miter;stroke:rgb(0%,0%,0%);stroke-opacity:1;stroke-miterlimit:4;" d="M 562.520094 142.719328 L 562.868469 147.335861 L 564.087782 146.625626 L 563.913595 142.719328 Z M 562.520094 142.719328 " transform="matrix(0.0224255,0,0,0.0219997,10.971125,6.032088)"/>
<path style="fill-rule:evenodd;fill:rgb(86.274511%,56.862748%,1.176471%);fill-opacity:1;stroke-width:1.25;stroke-linecap:butt;stroke-linejoin:miter;stroke:rgb(32.941177%,29.411766%,12.54902%);stroke-opacity:1;stroke-miterlimit:4;" d="M 496.09344 131.867005 C 492.4355 132.932359 491.041999 135.063067 489.300123 136.838657 L 479.023053 131.511887 C 477.281177 132.932359 476.584427 134.885508 477.455365 137.016216 C 478.152115 138.969365 481.46168 142.342985 483.726119 143.941016 C 483.203556 146.78196 482.332618 148.912668 481.287492 151.398494 C 480.242366 154.239437 477.80374 157.790617 477.80374 159.03353 C 477.629552 160.276443 477.106989 163.117386 479.023053 163.827622 C 481.113305 164.537858 487.209871 163.294945 489.300123 163.472504 C 488.951747 164.537858 488.080809 166.491007 488.429184 167.378802 C 488.77756 168.266597 489.300123 168.444156 490.867811 168.621715 C 490.519436 169.687069 489.47431 170.929982 489.822685 171.640218 C 491.216186 172.528013 492.609687 172.350454 494.003188 172.350454 C 491.912937 174.65872 487.035684 179.097695 485.467995 181.228403 C 483.726119 183.53667 483.551931 186.022495 486.861496 185.667377 C 485.642183 187.087849 484.422869 188.508321 484.597057 189.573675 C 484.945432 190.994147 485.642183 192.059501 488.080809 191.171706 C 486.687308 194.367767 487.558246 197.208711 488.080809 200.582332 C 486.861496 203.068158 487.384059 205.376424 487.035684 208.394927 C 484.597057 209.815399 484.248682 211.590989 482.680993 214.431933 C 481.287492 217.450435 478.674678 218.160671 477.281177 224.730354 L 486.687308 227.216179 C 487.035684 225.795707 488.254997 224.907913 488.603372 223.665 C 488.951747 222.244528 488.951747 220.646497 488.77756 219.048466 C 490.693623 216.385081 494.525751 210.703194 495.745064 207.507132 C 497.835316 206.441778 499.228817 205.731542 500.796505 205.731542 C 502.364194 205.731542 503.409319 206.619337 504.977008 207.507132 C 504.280258 210.170517 502.190006 213.011461 502.190006 216.56264 L 502.190006 226.505943 C 501.667443 228.991769 498.880441 228.991769 497.835316 236.449246 L 506.370509 238.757513 C 507.76401 236.094129 510.028449 235.91657 510.551012 234.851216 L 511.247762 224.552795 C 512.292888 219.581143 519.086205 215.674845 519.086205 210.348076 C 521.524832 210.170517 522.39577 210.525635 523.440895 209.992958 C 524.660209 209.63784 525.182772 208.750045 526.05371 207.86225 C 526.576272 209.460281 527.795586 209.63784 528.840711 209.63784 C 529.885837 209.63784 531.976089 208.039809 532.847027 207.507132 C 533.36959 208.394927 533.717965 209.282722 534.937278 209.460281 C 536.156591 209.815399 539.814531 209.282722 541.208032 208.927604 L 534.240528 220.468938 C 533.892152 221.711851 534.240528 222.422087 533.717965 223.665 C 533.195402 224.907913 532.150276 225.44059 531.801901 226.505943 L 539.640344 228.459092 L 541.033845 225.085472 C 542.601533 224.375236 543.995034 224.020118 544.865972 222.777205 C 545.73691 221.711851 545.73691 219.581143 546.259473 218.515789 C 548.872287 216.385081 553.226978 212.123666 556.188167 208.572486 C 558.278419 208.927604 561.065421 210.525635 562.110546 213.18902 C 562.284734 215.852404 562.458921 221.001615 561.239608 224.375236 L 556.188167 232.542949 L 555.665604 233.963421 L 563.678235 236.804364 L 568.903863 232.898067 L 569.078051 227.216179 C 571.516678 222.422087 575.348805 219.936261 578.832557 217.095317 C 578.832557 216.917758 579.180933 210.880753 579.006745 210.703194 C 578.135807 209.992958 577.613244 210.348076 577.264869 209.105163 C 576.916494 207.86225 577.264869 204.48863 577.264869 203.245717 C 577.787432 202.535481 579.006745 201.825245 578.832557 201.292568 C 577.439056 199.694537 577.961619 195.61068 578.309995 192.414619 C 578.309995 188.863439 583.01306 184.602023 583.709811 182.471316 L 584.058186 178.742577 C 583.535623 177.854782 582.838873 177.322105 582.838873 176.43431 C 582.838873 175.724074 583.709811 174.481161 584.406561 173.593366 L 585.451687 171.817777 L 585.277499 162.407151 C 584.929124 161.519356 584.058186 159.921325 583.361435 159.743766 C 582.490497 159.566207 581.271184 160.454002 580.400246 161.519356 L 575.69718 165.070535 C 573.606929 165.780771 571.516678 165.95833 567.68455 165.070535 L 561.762171 165.070535 C 558.626794 165.95833 556.884918 166.135889 553.923728 164.892976 L 550.439976 164.892976 C 549.39485 165.425653 547.827162 166.491007 546.607848 166.668566 C 545.388535 167.023684 543.820847 167.023684 542.601533 166.668566 C 533.543777 167.201243 535.808216 167.911479 533.195402 168.444156 C 531.10515 168.089038 531.801901 167.023684 523.615083 167.023684 L 520.305518 165.95833 C 516.299203 163.294945 513.163826 158.855971 510.376824 153.884319 C 518.912017 151.398494 522.39577 148.735109 525.008584 142.875662 L 512.989638 143.408339 Z M 496.09344 131.867005 " transform="matrix(0.0224255,0,0,0.0219997,10.968591,6.040368)"/>
<path style="fill-rule:evenodd;fill:rgb(0%,0%,0%);fill-opacity:1;stroke-width:1.25;stroke-linecap:butt;stroke-linejoin:miter;stroke:rgb(0%,0%,0%);stroke-opacity:1;stroke-miterlimit:4;" d="M 491.686906 147.858141 L 494.996471 149.278613 C 495.519034 149.81129 496.215784 150.343967 496.738347 150.343967 C 497.26091 150.521526 497.783473 149.81129 498.306036 149.456172 L 501.441413 147.858141 C 499.525349 147.503023 499.002786 146.437669 496.912535 146.437669 C 494.996471 146.437669 493.60297 147.503023 491.686906 147.858141 Z M 491.686906 147.858141 " transform="matrix(0.0224255,0,0,0.0219997,10.973659,6.020598)"/>
<path style="fill-rule:evenodd;fill:rgb(0%,0%,0%);fill-opacity:1;stroke-width:1.25;stroke-linecap:butt;stroke-linejoin:miter;stroke:rgb(0%,0%,0%);stroke-opacity:1;stroke-miterlimit:4;" d="M 506.718884 147.847314 C 507.938197 148.379991 509.854261 149.800463 511.596137 149.800463 C 513.338014 149.622904 513.338014 148.379991 515.950828 147.492196 L 519.608768 144.296134 C 517.344329 144.296134 512.467076 144.828811 509.680074 145.716606 C 507.415635 146.249283 506.893072 147.137078 506.718884 147.847314 Z M 506.718884 147.847314 " transform="matrix(0.0224255,0,0,0.0219997,10.968591,6.040368)"/>
<path style="fill-rule:evenodd;fill:rgb(0%,0%,0%);fill-opacity:1;stroke-width:1.25;stroke-linecap:butt;stroke-linejoin:miter;stroke:rgb(0%,0%,0%);stroke-opacity:1;stroke-miterlimit:4;" d="M 497.858778 187.602252 C 497.858778 187.779811 497.510403 188.134929 497.162027 187.779811 C 496.98784 183.695955 496.116902 180.855011 494.897588 177.658949 C 496.291089 180.144775 497.336215 183.873514 497.858778 187.602252 Z M 497.858778 187.602252 " transform="matrix(0.0224255,0,0,0.0219997,10.971971,6.044676)"/>
<path style="fill-rule:evenodd;fill:rgb(0%,0%,0%);fill-opacity:1;stroke-width:1.25;stroke-linecap:butt;stroke-linejoin:miter;stroke:rgb(0%,0%,0%);stroke-opacity:1;stroke-miterlimit:4;" d="M 507.236529 204.603832 C 505.66884 204.603832 505.146277 204.426273 503.578589 204.603832 C 503.404401 200.519976 503.404401 195.903442 503.404401 192.884939 C 503.926964 193.062498 505.66884 194.838088 506.713966 197.679032 C 507.062341 199.80974 507.410716 202.295565 507.236529 204.603832 Z M 507.236529 204.603832 " transform="matrix(0.0224255,0,0,0.0219997,10.98042,6.037833)"/>
<path style="fill-rule:evenodd;fill:rgb(0%,0%,0%);fill-opacity:1;stroke-width:1.25;stroke-linecap:butt;stroke-linejoin:miter;stroke:rgb(0%,0%,0%);stroke-opacity:1;stroke-miterlimit:4;" d="M 518.041079 188.153203 C 518.73783 188.330762 519.782955 188.330762 519.957143 187.975644 C 520.131331 187.087849 519.260393 186.022495 519.086205 184.957141 C 517.866892 182.826434 517.170141 180.340608 516.821766 179.275254 C 516.299203 178.920136 515.77664 178.920136 515.77664 179.452813 C 516.473391 181.405962 517.692704 187.442967 518.041079 188.153203 Z M 518.041079 188.153203 " transform="matrix(0.0224255,0,0,0.0219997,10.968591,6.040368)"/>
<path style="fill-rule:evenodd;fill:rgb(0%,0%,0%);fill-opacity:1;stroke-width:1.25;stroke-linecap:butt;stroke-linejoin:miter;stroke:rgb(0%,0%,0%);stroke-opacity:1;stroke-miterlimit:4;" d="M 529.014899 186.91029 C 529.014899 187.442967 527.447211 186.732731 527.098835 186.200054 C 527.098835 185.1347 524.834396 177.144546 525.182772 176.789428 C 525.705334 176.611869 527.098835 179.452813 527.621398 180.873285 C 527.795586 181.583521 528.666524 184.424464 529.014899 186.91029 Z M 529.014899 186.91029 " transform="matrix(0.0224255,0,0,0.0219997,10.968591,6.040368)"/>
<path style="fill-rule:evenodd;fill:rgb(0%,0%,0%);fill-opacity:1;stroke-width:1.25;stroke-linecap:butt;stroke-linejoin:miter;stroke:rgb(0%,0%,0%);stroke-opacity:1;stroke-miterlimit:4;" d="M 527.447211 203.423276 C 527.447211 203.955953 528.666524 203.423276 529.189087 203.068158 C 530.582588 200.759891 532.498651 198.274065 533.021214 197.38627 C 533.36959 196.320916 534.937278 189.928793 534.414715 189.928793 C 534.240528 189.751234 532.847027 193.124855 531.10515 196.498475 C 529.189087 199.872096 527.447211 203.068158 527.447211 203.423276 Z M 527.447211 203.423276 " transform="matrix(0.0224255,0,0,0.0219997,10.968591,6.040368)"/>
<path style="fill-rule:evenodd;fill:rgb(0%,0%,0%);fill-opacity:1;stroke-width:1.25;stroke-linecap:butt;stroke-linejoin:miter;stroke:rgb(0%,0%,0%);stroke-opacity:1;stroke-miterlimit:4;" d="M 538.42103 199.872096 C 537.898468 200.227214 539.466156 194.367767 539.640344 193.479973 C 539.814531 191.704383 540.337094 188.863439 541.033845 185.1347 C 541.730595 190.283911 540.859657 195.965798 538.42103 199.872096 Z M 538.42103 199.872096 " transform="matrix(0.0224255,0,0,0.0219997,10.968591,6.040368)"/>
<path style="fill-rule:evenodd;fill:rgb(0%,0%,0%);fill-opacity:1;stroke-width:1.25;stroke-linecap:butt;stroke-linejoin:miter;stroke:rgb(0%,0%,0%);stroke-opacity:1;stroke-miterlimit:4;" d="M 545.04016 182.293757 C 544.691785 182.471316 539.988719 174.65872 540.337094 174.481161 C 540.511282 174.126043 544.343409 179.452813 544.865972 180.518167 C 545.04016 180.873285 545.214347 181.583521 545.04016 182.293757 Z M 545.04016 182.293757 " transform="matrix(0.0224255,0,0,0.0219997,10.968591,6.040368)"/>
<path style="fill-rule:evenodd;fill:rgb(0%,0%,0%);fill-opacity:1;stroke-width:1.25;stroke-linecap:butt;stroke-linejoin:miter;stroke:rgb(0%,0%,0%);stroke-opacity:1;stroke-miterlimit:4;" d="M 556.01398 188.153203 C 555.665604 187.798085 555.839792 185.312259 555.143042 182.471316 C 554.446291 179.807931 553.226978 177.144546 553.401165 176.256751 C 553.749541 175.901633 554.446291 176.079192 554.968854 176.611869 C 555.317229 178.2099 556.01398 183.891787 556.884918 187.798085 C 556.884918 188.153203 556.362355 188.330762 556.01398 188.153203 Z M 556.01398 188.153203 " transform="matrix(0.0224255,0,0,0.0219997,10.968591,6.040368)"/>
<path style="fill-rule:evenodd;fill:rgb(0%,0%,0%);fill-opacity:1;stroke-width:1.25;stroke-linecap:butt;stroke-linejoin:miter;stroke:rgb(0%,0%,0%);stroke-opacity:1;stroke-miterlimit:4;" d="M 563.678235 181.050844 C 563.32986 180.695726 564.72336 183.714229 565.768486 187.442967 C 566.813612 191.171706 567.336175 197.741388 567.510362 197.38627 C 568.207113 196.853593 568.207113 196.320916 569.252239 195.965798 C 570.297364 195.788239 574.303679 196.143357 574.129492 195.965798 C 571.690865 193.657532 569.252239 191.704383 567.510362 189.218557 C 565.768486 186.732731 564.72336 183.53667 563.678235 181.050844 Z M 563.678235 181.050844 " transform="matrix(0.0224255,0,0,0.0219997,10.968591,6.040368)"/>
<path style="fill-rule:evenodd;fill:rgb(0%,0%,0%);fill-opacity:1;stroke-width:1.25;stroke-linecap:butt;stroke-linejoin:miter;stroke:rgb(0%,0%,0%);stroke-opacity:1;stroke-miterlimit:4;" d="M 573.258554 214.96461 C 572.387616 215.674845 570.994115 216.029963 570.471552 215.852404 C 568.032925 210.703194 566.813612 207.507132 563.504047 202.002804 C 562.633109 200.759891 560.36867 200.93745 560.542858 200.404773 C 560.717045 199.872096 561.762171 200.049655 562.458921 199.16186 C 563.155672 198.451624 563.32986 197.208711 563.678235 196.853593 C 562.807297 199.16186 565.420111 202.890599 566.813612 205.731542 C 567.68455 205.909101 568.555488 205.909101 568.903863 206.441778 C 569.078051 206.796896 567.858738 206.974455 568.032925 208.039809 L 570.471552 213.011461 C 571.34249 213.544138 572.561803 213.899256 573.781117 214.076815 C 573.955304 214.431933 573.432741 214.787051 573.258554 214.96461 Z M 573.258554 214.96461 " transform="matrix(0.0224255,0,0,0.0219997,10.968591,6.040368)"/>
<path style="fill-rule:evenodd;fill:rgb(0%,0%,0%);fill-opacity:1;stroke-width:1.25;stroke-linecap:butt;stroke-linejoin:miter;stroke:rgb(0%,0%,0%);stroke-opacity:1;stroke-miterlimit:4;" d="M 578.135807 170.574864 C 579.703496 170.752423 581.096996 170.929982 581.445372 170.042187 C 582.490497 168.089038 583.01306 166.668566 582.31631 165.248094 C 580.051871 165.603212 578.135807 166.668566 577.264869 168.799274 C 577.264869 169.50951 577.439056 170.042187 578.135807 170.574864 Z M 578.135807 170.574864 " transform="matrix(0.0224255,0,0,0.0219997,10.968591,6.040368)"/>
<path style="fill-rule:evenodd;fill:rgb(99.215686%,98.823529%,98.823529%);fill-opacity:1;stroke-width:1.25;stroke-linecap:butt;stroke-linejoin:miter;stroke:rgb(99.215686%,98.823529%,98.823529%);stroke-opacity:1;stroke-miterlimit:4;" d="M 602.870449 169.154392 C 626.211589 174.303602 647.810854 179.98549 669.410118 187.087849 C 691.009382 194.190209 711.389334 202.535481 732.291848 211.768548 L 697.454324 283.679936 C 677.945311 276.222459 658.610486 270.007894 639.449848 263.79333 C 620.115023 257.401206 601.30276 251.719319 581.793747 245.682314 Z M 602.870449 169.154392 " transform="matrix(0.0224255,0,0,0.0219997,10.968591,6.040368)"/>
<path style="fill-rule:evenodd;fill:rgb(90.196079%,8.235294%,11.764706%);fill-opacity:1;stroke-width:1.25;stroke-linecap:butt;stroke-linejoin:miter;stroke:rgb(90.196079%,8.235294%,11.764706%);stroke-opacity:1;stroke-miterlimit:4;" d="M 598.34157 186.200054 C 598.34157 186.200054 630.914655 193.657532 662.442613 203.955953 C 693.970572 214.254374 724.627592 227.571297 724.453405 227.571297 C 724.279217 227.571297 704.770204 268.587422 704.770204 268.587422 C 685.783754 260.952386 665.752178 253.672468 646.068977 247.280344 C 626.211589 240.710662 606.528388 234.496098 586.322625 229.702005 Z M 598.34157 186.200054 " transform="matrix(0.0224255,0,0,0.0219997,10.968591,6.040368)"/>
<path style="fill-rule:evenodd;fill:rgb(0%,0%,0%);fill-opacity:1;stroke-width:1.25;stroke-linecap:butt;stroke-linejoin:miter;stroke:rgb(0.392157%,0%,0.392157%);stroke-opacity:0.996078;stroke-miterlimit:4;" d="M 600.954385 206.264219 C 604.263949 204.48863 606.354201 203.955953 608.096077 200.93745 L 619.59246 200.93745 L 619.766647 205.198865 C 622.553649 206.619337 624.295525 208.217368 627.082527 209.63784 C 629.869529 210.880753 633.875844 212.123666 636.837034 213.544138 L 661.571675 215.852404 C 664.88124 216.385081 669.758493 217.805553 672.545495 219.403584 C 675.506685 221.179174 677.248561 223.309882 678.816249 226.150825 C 683.86769 227.926415 689.093319 228.991769 694.318947 229.879564 C 699.544576 230.5898 706.163705 230.944918 711.215146 231.122477 C 713.653773 232.010272 713.653773 233.253185 712.608647 234.673657 C 712.608647 234.673657 709.647457 238.579954 701.983202 238.579954 C 694.318947 238.579954 685.783754 234.14098 681.951626 234.851216 C 682.125814 237.159482 686.132129 242.131134 690.661007 243.906724 L 690.48682 255.270499 L 688.396568 257.046089 L 686.306317 255.625617 C 688.048193 252.962232 687.351443 249.943729 686.654692 247.280344 C 684.912816 244.794519 684.738628 243.729165 681.603251 243.551606 C 677.771124 242.84137 675.158309 241.776016 670.281056 238.402395 L 668.53918 238.579954 C 667.494054 240.533103 666.448929 241.776016 664.010302 243.018929 L 659.133049 242.663811 C 659.133049 242.663811 647.985041 240.177985 647.985041 240.000426 C 647.985041 239.822867 647.810854 238.224836 648.159229 238.047277 C 648.507604 237.869718 651.991356 237.869718 652.339732 237.869718 C 654.604171 238.579954 659.655611 238.579954 659.655611 238.579954 L 659.481424 234.318539 L 666.971491 233.963421 C 665.57799 228.636651 665.055428 225.263031 658.087923 224.020118 L 636.140283 224.552795 L 636.488658 227.748856 C 630.914655 227.03862 621.160148 226.861061 616.108707 228.636651 C 613.147518 228.81421 608.792827 230.412241 606.876764 230.412241 L 604.786512 229.879564 C 603.218824 229.346887 603.218824 228.991769 603.741387 227.571297 C 613.321705 226.861061 614.715206 226.150825 617.502208 224.730354 C 617.676396 223.842559 616.457083 221.88941 616.108707 221.88941 C 610.186328 221.534292 605.483263 221.88941 603.741387 221.711851 C 601.30276 221.001615 597.993195 219.581143 597.993195 219.403584 C 597.993195 219.226025 597.470632 217.095317 597.64482 217.095317 C 597.819008 217.095317 601.476948 218.160671 601.651135 218.160671 C 605.65745 218.870907 612.450767 218.515789 614.192644 217.627994 L 614.366831 214.431933 C 614.192644 213.011461 613.147518 211.590989 612.799143 211.41343 C 612.450767 211.41343 606.354201 210.525635 604.089762 210.525635 C 600.431822 209.992958 601.128572 208.217368 600.954385 206.264219 Z M 600.954385 206.264219 " transform="matrix(0.0224255,0,0,0.0219997,10.968591,6.040368)"/>
<path style="fill-rule:evenodd;fill:rgb(99.215686%,99.215686%,99.215686%);fill-opacity:0.996078;stroke-width:1.25;stroke-linecap:butt;stroke-linejoin:miter;stroke:rgb(0.392157%,0%,0.392157%);stroke-opacity:0.996078;stroke-miterlimit:4;" d="M 648.681792 232.542949 C 651.991356 233.608303 654.604171 233.963421 659.481424 234.318539 L 666.971491 233.963421 C 665.57799 228.636651 665.055428 225.263031 658.087923 224.020118 L 636.140283 224.552795 L 636.488658 227.748856 C 643.107788 230.234682 646.417353 231.655154 648.681792 232.542949 Z M 648.681792 232.542949 " transform="matrix(0.0224255,0,0,0.0219997,10.968591,6.040368)"/>
<path style="fill-rule:evenodd;fill:rgb(0.392157%,6.666667%,44.313726%);fill-opacity:0.996078;stroke-width:1.25;stroke-linecap:butt;stroke-linejoin:miter;stroke:rgb(0.392157%,6.666667%,44.313726%);stroke-opacity:1;stroke-miterlimit:4;" d="M 101.192039 306.657446 L 37.5648 164.95617 L 84.82433 81.687068 L 176.39623 116.329703 L 216.563017 270.928663 C 174.472577 281.162075 147.67796 289.933955 101.192039 306.657446 Z M 101.192039 306.657446 " transform="matrix(0.0221222,0.00360596,-0.00367575,0.0217023,14.669851,4.979919)"/>
<path style="fill-rule:evenodd;fill:rgb(98.431373%,99.215686%,6.27451%);fill-opacity:0.996078;stroke-width:1.25;stroke-linecap:butt;stroke-linejoin:miter;stroke:rgb(99.215686%,77.64706%,1.960784%);stroke-opacity:0.996078;stroke-miterlimit:4;" d="M 78.217348 151.220935 L 91.978169 163.650063 L 88.146042 183.53667 L 107.132492 176.789428 L 121.241689 189.040998 L 124.377066 170.752423 L 140.053951 165.603212 L 128.209193 152.463847 L 132.041321 134.352831 C 132.041321 134.352831 113.229058 140.034719 113.229058 139.85716 C 113.229058 139.679601 100.861738 127.60559 100.68755 127.783149 C 100.513362 127.960708 96.507047 145.00637 96.507047 145.00637 Z M 78.217348 151.220935 " transform="matrix(0.0224255,0,0,0.0219997,10.968591,6.040368)"/>
<path style=" stroke:none;fill-rule:evenodd;fill:rgb(100%,77.254903%,0%);fill-opacity:1;" d="M 12.730469 9.371094 L 14.105469 9.679688 L 13.75 9.800781 L 13.433594 9.542969 C 13.433594 9.542969 13.691406 10.191406 13.6875 10.1875 C 13.683594 10.183594 13.386719 9.933594 13.375 9.925781 L 13.429688 9.542969 C 13.429688 9.542969 12.953125 10.074219 12.953125 10.070312 C 12.953125 10.066406 13.042969 9.636719 13.042969 9.636719 Z M 12.730469 9.371094 "/>
<path style=" stroke:none;fill-rule:evenodd;fill:rgb(100%,77.254903%,0%);fill-opacity:1;" d="M 13.128906 9.230469 L 13.433594 9.523438 L 13.226562 8.847656 Z M 13.128906 9.230469 "/>
<path style=" stroke:none;fill-rule:evenodd;fill:rgb(100%,77.254903%,0%);fill-opacity:1;" d="M 13.503906 9.121094 C 13.507812 9.125 13.433594 9.515625 13.433594 9.515625 C 13.46875 9.476562 13.929688 8.996094 13.925781 8.996094 C 13.921875 8.996094 13.511719 9.125 13.503906 9.121094 Z M 13.503906 9.121094 "/>
<path style="fill-rule:evenodd;fill:rgb(98.431373%,99.215686%,6.27451%);fill-opacity:0.996078;stroke-width:1.25;stroke-linecap:butt;stroke-linejoin:miter;stroke:rgb(99.215686%,77.64706%,1.960784%);stroke-opacity:0.996078;stroke-miterlimit:4;" d="M 78.176079 151.272592 L 91.993092 163.61436 L 88.113296 183.445791 L 107.110532 176.73047 L 121.174664 189.100473 L 124.283964 170.807993 L 140.016018 165.5969 L 128.134622 152.600216 L 131.98528 134.392439 C 131.98528 134.392439 113.217318 140.007583 113.352623 139.897889 C 113.24081 139.759961 100.771207 127.697293 100.635902 127.806986 C 100.500596 127.916679 96.632092 144.996044 96.632092 144.996044 Z M 78.176079 151.272592 " transform="matrix(0.0174207,0.0138546,-0.0141224,0.0170895,26.770547,5.030948)"/>
<path style=" stroke:none;fill-rule:evenodd;fill:rgb(100%,77.254903%,0%);fill-opacity:1;" d="M 26 8.707031 L 26.871094 9.796875 L 26.515625 9.671875 L 26.433594 9.273438 C 26.433594 9.273438 26.222656 9.9375 26.222656 9.929688 C 26.222656 9.925781 26.148438 9.550781 26.148438 9.535156 L 26.433594 9.273438 C 26.433594 9.273438 25.722656 9.386719 25.726562 9.386719 C 25.726562 9.382812 26.074219 9.105469 26.074219 9.105469 Z M 26 8.707031 "/>
<path style=" stroke:none;fill-rule:evenodd;fill:rgb(99.215686%,77.64706%,1.960784%);fill-opacity:1;" d="M 26.402344 8.84375 L 26.453125 9.261719 L 26.722656 8.605469 Z M 26.402344 8.84375 "/>
<path style=" stroke:none;fill-rule:evenodd;fill:rgb(99.215686%,77.64706%,1.960784%);fill-opacity:1;" d="M 26.765625 8.992188 C 26.765625 8.996094 26.453125 9.253906 26.457031 9.253906 C 26.507812 9.246094 27.171875 9.15625 27.171875 9.15625 C 27.167969 9.152344 26.765625 9 26.765625 8.992188 Z M 26.765625 8.992188 "/>
<path style="fill-rule:evenodd;fill:rgb(90.196079%,7.843138%,11.372549%);fill-opacity:1;stroke-width:1.25;stroke-linecap:butt;stroke-linejoin:miter;stroke:rgb(90.196079%,7.843138%,11.372549%);stroke-opacity:1;stroke-miterlimit:4;" d="M 175.414038 121.391025 C 196.839114 110.915045 220.877005 102.747332 246.308397 99.196153 C 270.694664 95.644973 295.08093 95.289855 320.163947 95.289855 C 320.163947 95.289855 323.473512 134.53039 323.473512 134.885508 C 303.790311 135.063067 289.158551 134.53039 254.321028 139.146924 C 219.83188 144.118575 205.548495 148.202432 184.471794 156.547704 Z M 175.414038 121.391025 " transform="matrix(0.0224255,0,0,0.0219997,10.968591,6.040368)"/>
<path style="fill-rule:evenodd;fill:rgb(90.196079%,7.843138%,11.372549%);fill-opacity:0.996078;stroke-width:1.25;stroke-linecap:butt;stroke-linejoin:miter;stroke:rgb(90.196079%,7.843138%,11.372549%);stroke-opacity:1;stroke-miterlimit:4;" d="M 193.703737 190.639029 C 193.355362 190.639029 204.677557 232.010272 204.677557 232.010272 C 225.231696 226.683502 246.13421 222.777205 267.210911 219.758702 C 288.113425 216.740199 310.40944 214.96461 330.789391 213.544138 L 327.131452 173.238249 C 305.706375 171.995336 281.320108 171.995336 259.198281 174.836279 C 237.250641 177.854782 215.825565 183.003993 193.703737 190.639029 Z M 193.703737 190.639029 " transform="matrix(0.0224255,0,0,0.0219997,10.968591,6.040368)"/>
<path style="fill-rule:evenodd;fill:rgb(100%,100%,100%);fill-opacity:1;stroke-width:4;stroke-linecap:butt;stroke-linejoin:miter;stroke:rgb(89.803922%,7.843138%,11.372549%);stroke-opacity:1;stroke-miterlimit:4;" d="M 95.287734 318.481497 L 694.14476 318.481497 L 694.14476 709.821495 C 678.816249 862.344662 535.111466 976.337529 403.774003 975.449734 C 261.985283 981.664298 105.216428 863.410016 93.894233 708.578582 Z M 95.287734 318.481497 " transform="matrix(0.0224255,0,0,0.0219997,10.968591,6.040368)"/>
<path style="fill-rule:evenodd;fill:rgb(83.92157%,8.235294%,9.019608%);fill-opacity:1;stroke-width:4;stroke-linecap:butt;stroke-linejoin:miter;stroke:rgb(89.803922%,7.843138%,11.372549%);stroke-opacity:1;stroke-miterlimit:4;" d="M 95.195934 318.452356 L 694.0984 318.452356 L 694.0984 709.94675 C 678.830476 862.246036 535.239293 976.192583 403.826097 975.451467 C 262.052524 981.750951 105.192788 863.35771 93.923607 708.649798 Z M 95.195934 318.452356 " transform="matrix(0.0214911,0,0,0.0210831,11.336944,6.633701)"/>
<path style=" stroke:none;fill-rule:evenodd;fill:rgb(100%,100%,100%);fill-opacity:1;" d="M 21.121094 13.390625 L 23.601562 13.390625 L 23.601562 16.082031 L 21.121094 16.082031 Z M 21.121094 13.390625 "/>
<path style=" stroke:none;fill-rule:evenodd;fill:rgb(100%,100%,100%);fill-opacity:1;" d="M 16.003906 13.390625 L 18.484375 13.390625 L 18.484375 16.082031 L 16.003906 16.082031 Z M 16.003906 13.390625 "/>
<path style=" stroke:none;fill-rule:evenodd;fill:rgb(100%,100%,100%);fill-opacity:1;" d="M 13.414062 16.167969 L 15.929688 16.167969 L 15.929688 18.796875 L 13.414062 18.796875 Z M 13.414062 16.167969 "/>
<path style=" stroke:none;fill-rule:evenodd;fill:rgb(100%,100%,100%);fill-opacity:1;" d="M 18.582031 16.167969 L 21.039062 16.167969 L 21.039062 18.796875 L 18.582031 18.796875 Z M 18.582031 16.167969 "/>
<path style=" stroke:none;fill-rule:evenodd;fill:rgb(100%,100%,100%);fill-opacity:1;" d="M 23.675781 16.167969 L 26.203125 16.167969 L 26.203125 18.796875 L 23.675781 18.796875 Z M 23.675781 16.167969 "/>
<path style=" stroke:none;fill-rule:evenodd;fill:rgb(100%,100%,100%);fill-opacity:1;" d="M 21.121094 18.878906 L 23.601562 18.878906 L 23.601562 21.546875 L 21.121094 21.546875 Z M 21.121094 18.878906 "/>
<path style=" stroke:none;fill-rule:evenodd;fill:rgb(100%,100%,100%);fill-opacity:1;" d="M 16.003906 18.878906 L 18.484375 18.878906 L 18.484375 21.546875 L 16.003906 21.546875 Z M 16.003906 18.878906 "/>
<path style=" stroke:none;fill-rule:evenodd;fill:rgb(100%,100%,100%);fill-opacity:1;" d="M 18.582031 21.625 L 21.039062 21.625 L 21.039062 24.292969 L 18.582031 24.292969 Z M 18.582031 21.625 "/>
<path style="fill-rule:evenodd;fill:rgb(100%,100%,100%);fill-opacity:1;stroke-width:1.25;stroke-linecap:butt;stroke-linejoin:miter;stroke:rgb(100%,100%,100%);stroke-opacity:1;stroke-miterlimit:4;" d="M 567.336175 709.466377 L 567.336175 828.608455 L 634.572595 828.786014 C 665.403803 782.975796 675.85506 738.408492 678.816249 709.466377 C 678.293686 709.466377 567.68455 709.466377 567.336175 709.466377 Z M 567.336175 709.466377 " transform="matrix(0.0224255,0,0,0.0219997,10.968591,6.040368)"/>
<path style="fill-rule:evenodd;fill:rgb(100%,100%,100%);fill-opacity:1;stroke-width:1.25;stroke-linecap:butt;stroke-linejoin:miter;stroke:rgb(100%,100%,100%);stroke-opacity:1;stroke-miterlimit:4;" d="M 453.417474 834.467901 L 453.417474 953.965097 C 501.319068 943.844235 540.337094 920.761567 562.633109 903.715905 L 562.633109 834.467901 Z M 453.417474 834.467901 " transform="matrix(0.0224255,0,0,0.0219997,10.968591,6.040368)"/>
<path style="fill-rule:evenodd;fill:rgb(100%,100%,100%);fill-opacity:1;stroke-width:1.25;stroke-linecap:butt;stroke-linejoin:miter;stroke:rgb(100%,100%,100%);stroke-opacity:1;stroke-miterlimit:4;" d="M 225.405883 834.290342 L 225.231696 901.762756 C 262.856221 929.639516 305.706375 946.152502 334.447331 952.367066 L 334.447331 834.290342 Z M 225.405883 834.290342 " transform="matrix(0.0224255,0,0,0.0219997,10.968591,6.040368)"/>
<path style="fill-rule:evenodd;fill:rgb(100%,100%,100%);fill-opacity:1;stroke-width:1.25;stroke-linecap:butt;stroke-linejoin:miter;stroke:rgb(100%,100%,100%);stroke-opacity:1;stroke-miterlimit:4;" d="M 109.396931 709.288818 C 112.880683 756.16439 132.389696 799.488782 153.466398 828.963573 L 220.52863 828.786014 L 220.52863 709.288818 Z M 109.396931 709.288818 " transform="matrix(0.0224255,0,0,0.0219997,10.968591,6.040368)"/>
</g>
</svg>
