<?xml version="1.0" encoding="UTF-8"?>
<svg xmlns="http://www.w3.org/2000/svg" xmlns:xlink="http://www.w3.org/1999/xlink" width="40px" height="40px" viewBox="0 0 40 40" version="1.1">
<g id="surface1">
<rect x="0" y="0" width="40" height="40" style="fill:rgb(100%,100%,100%);fill-opacity:1;stroke:none;"/>
<path style=" stroke:none;fill-rule:evenodd;fill:rgb(0%,0%,80.000001%);fill-opacity:1;" d="M 48.394531 9.003906 L -8.75 9.003906 L -8.75 3.75 L 48.394531 3.75 Z M 48.394531 9.003906 "/>
<path style=" stroke:none;fill-rule:evenodd;fill:rgb(0%,0%,80.000001%);fill-opacity:1;" d="M 48.394531 36.382812 L -8.75 36.382812 L -8.75 31.128906 L 48.394531 31.128906 Z M 48.394531 36.382812 "/>
<path style=" stroke:none;fill-rule:evenodd;fill:rgb(0%,0%,80.000001%);fill-opacity:1;" d="M 10.660156 14.90625 L 19.261719 29.867188 L 28.050781 14.964844 Z M 10.660156 14.90625 "/>
<path style=" stroke:none;fill-rule:evenodd;fill:rgb(100%,100%,100%);fill-opacity:1;" d="M 17.636719 24.828125 L 19.273438 27.601562 L 20.945312 24.839844 Z M 17.636719 24.828125 "/>
<path style=" stroke:none;fill-rule:evenodd;fill:rgb(0%,0%,80.000001%);fill-opacity:1;" d="M 10.625 25.046875 L 19.230469 10.082031 L 28.019531 24.984375 Z M 10.625 25.046875 "/>
<path style=" stroke:none;fill-rule:evenodd;fill:rgb(100%,100%,100%);fill-opacity:1;" d="M 17.636719 14.96875 L 19.273438 12.195312 L 20.945312 14.957031 Z M 17.636719 14.96875 "/>
<path style=" stroke:none;fill-rule:evenodd;fill:rgb(100%,100%,100%);fill-opacity:1;" d="M 14.214844 21.179688 L 12.527344 23.992188 L 15.722656 23.980469 Z M 14.214844 21.179688 "/>
<path style=" stroke:none;fill-rule:evenodd;fill:rgb(100%,100%,100%);fill-opacity:1;" d="M 12.554688 15.984375 L 15.773438 16.007812 L 14.226562 18.839844 Z M 12.554688 15.984375 "/>
<path style=" stroke:none;fill-rule:evenodd;fill:rgb(100%,100%,100%);fill-opacity:1;" d="M 24.371094 21.210938 L 25.996094 23.992188 L 22.738281 23.949219 Z M 24.371094 21.210938 "/>
<path style=" stroke:none;fill-rule:evenodd;fill:rgb(100%,100%,100%);fill-opacity:1;" d="M 25.96875 15.984375 L 22.746094 16.007812 L 24.296875 18.839844 Z M 25.96875 15.984375 "/>
<path style=" stroke:none;fill-rule:evenodd;fill:rgb(100%,100%,100%);fill-opacity:1;" d="M 17.039062 15.980469 L 14.824219 20.007812 L 17.070312 23.9375 L 21.191406 24.03125 L 23.695312 20.007812 L 21.382812 15.949219 Z M 17.039062 15.980469 "/>
</g>
</svg>
