<?xml version="1.0" encoding="UTF-8"?>
<svg xmlns="http://www.w3.org/2000/svg" xmlns:xlink="http://www.w3.org/1999/xlink" width="40px" height="40px" viewBox="0 0 40 40" version="1.1">
<g id="surface1">
<rect x="0" y="0" width="40" height="40" style="fill:rgb(72.941178%,0%,0%);fill-opacity:1;stroke:none;"/>
<path style="fill-rule:evenodd;fill:rgb(100%,93.725491%,0%);fill-opacity:0.988235;stroke-width:1.25;stroke-linecap:butt;stroke-linejoin:miter;stroke:rgb(0%,0%,0%);stroke-opacity:1;stroke-miterlimit:4;" d="M 238.848838 224.492901 C 238.969822 224.129949 239.211789 220.349202 239.090806 220.349202 C 238.969822 220.349202 233.374315 213.785824 233.495299 213.785824 C 233.616283 213.785824 240.693843 215.358615 240.693843 215.116647 C 240.693843 214.874679 243.476473 208.190317 243.476473 208.069333 C 243.476473 207.948349 246.894269 216.235748 246.894269 216.235748 L 253.820599 219.260346 L 248.950995 223.283062 C 248.950995 223.283062 250.070097 231.086525 250.070097 231.207509 C 250.070097 231.328493 245.200494 226.579874 245.200494 226.579874 L 239.846955 227.184794 C 239.846955 227.184794 239.090806 224.734869 238.848838 224.492901 Z M 238.848838 224.492901 " transform="matrix(0.129149,0,0,0.129149,-8.894056,0.381879)"/>
<path style="fill-rule:evenodd;fill:rgb(100%,100%,100%);fill-opacity:1;stroke-width:1.5945;stroke-linecap:butt;stroke-linejoin:miter;stroke:rgb(0%,0%,0%);stroke-opacity:1;stroke-miterlimit:4;" d="M 201.132099 122.200992 C 196.504464 124.590425 178.750073 144.885478 176.330394 148.03106 C 174.273667 152.628449 170.281198 158.435678 166.19799 162.186179 C 161.812323 165.513237 159.362399 170.050135 159.967318 174.345064 C 159.906826 179.668357 162.901178 183.32812 165.290611 187.078622 C 166.712172 188.802643 168.617669 189.891498 170.613904 190.042728 C 174.757603 190.587156 175.150801 191.857487 177.207528 192.643883 C 185.373943 203.774404 197.563073 211.971065 206.364654 218.473951 C 211.929914 221.438057 215.831646 224.371917 217.162469 225.974954 C 219.733377 230.905049 219.279688 235.683914 218.916736 238.012855 C 216.739025 246.209516 214.561315 254.406177 212.383604 262.602838 C 211.294749 269.317446 217.132223 267.805147 217.434683 266.474323 C 220.066083 263.056527 223.967815 265.44596 229.563321 245.72558 C 232.13423 242.277538 234.705138 238.829496 237.276047 235.351208 C 237.276047 235.351208 240.240153 234.171615 240.240153 233.869155 C 244.746804 228.455125 241.329008 225.370035 238.7581 224.402163 C 236.882849 223.706506 235.007598 223.010848 233.132347 222.315191 C 233.132347 222.315191 226.629461 215.812305 226.327001 215.812305 C 223.211665 206.799002 208.028183 187.562558 204.489403 184.900912 C 202.039478 182.330003 200.890131 181.271394 198.56119 179.849833 C 194.992165 178.125812 193.842817 177.581384 191.665107 176.704251 C 189.850348 175.978347 191.150925 173.982112 192.300272 173.074733 C 204.338173 166.511355 213.865657 159.222073 225.419622 151.811808 C 226.024542 151.41861 226.629461 151.025412 227.204135 150.632215 C 225.81282 142.738013 224.451751 134.843812 223.060435 126.949611 C 216.648287 124.681163 210.236139 122.382468 203.793745 120.114019 C 202.795628 120.809677 202.039478 121.505334 201.132099 122.200992 Z M 201.132099 122.200992 " transform="matrix(0.129149,0,0,0.129149,-8.894056,0.381879)"/>
<path style=" stroke:none;fill-rule:evenodd;fill:rgb(100%,92.54902%,0%);fill-opacity:1;" d="M 19.164062 32.277344 C 19.171875 32.246094 20.71875 31.964844 20.71875 31.964844 C 20.71875 31.964844 20.539062 32.539062 20.53125 32.539062 L 18.992188 33 Z M 19.164062 32.277344 "/>
<path style="fill:none;stroke-width:1.25;stroke-linecap:butt;stroke-linejoin:miter;stroke:rgb(0%,0%,0%);stroke-opacity:1;stroke-miterlimit:4;" d="M 186.009108 201.808415 C 188.307803 195.668481 194.719951 190.798878 199.045126 189.468055 " transform="matrix(0.129149,0,0,0.129149,-8.894056,0.381879)"/>
<path style="fill:none;stroke-width:1.38225;stroke-linecap:butt;stroke-linejoin:miter;stroke:rgb(0%,0%,0%);stroke-opacity:1;stroke-miterlimit:4;" d="M 216.829763 247.056403 C 217.585913 246.844681 221.033955 245.846564 222.032072 245.695334 C 223.090681 245.453366 224.149291 245.150906 225.177654 244.818201 C 226.387493 244.576233 227.113397 244.364511 228.353482 244.152789 C 229.321354 243.789837 230.258979 243.517623 231.287342 243.275656 M 214.652053 254.496915 C 214.742791 254.345685 215.559432 253.619781 216.164352 253.287075 C 216.829763 253.075354 219.219196 252.04699 220.096329 251.89576 C 221.064201 251.653792 222.001826 251.381579 222.909206 251.048873 C 223.967815 250.806905 224.633226 250.564937 225.752328 250.353215 C 226.599215 249.990263 227.446103 249.71805 228.383728 249.476082 " transform="matrix(0.129149,0,0,0.129149,-8.894056,0.381879)"/>
<path style="fill:none;stroke-width:1.25;stroke-linecap:butt;stroke-linejoin:miter;stroke:rgb(0%,0%,0%);stroke-opacity:1;stroke-miterlimit:4;" d="M 219.521656 203.562682 L 219.34018 203.562682 C 219.884607 203.562682 219.551902 203.50219 218.825998 204.40957 C 218.58403 205.105227 216.376074 206.647772 214.712545 206.647772 C 213.895903 206.73851 212.655818 206.829248 211.869422 206.829248 C 211.627454 206.829248 211.324995 206.647772 211.083027 206.647772 " transform="matrix(0.129149,0,0,0.129149,-8.894056,0.381879)"/>
<path style="fill:none;stroke-width:1.25;stroke-linecap:butt;stroke-linejoin:miter;stroke:rgb(0%,0%,0%);stroke-opacity:1;stroke-miterlimit:4;" d="M 219.34018 239.010972 L 220.217313 239.010972 C 221.094447 239.010972 222.001826 239.192448 222.788222 239.192448 C 223.665355 239.192448 224.512243 239.434416 225.389376 239.434416 C 226.236263 239.5554 227.294873 239.525154 228.202252 239.646138 C 229.20037 239.676384 230.017011 239.888106 231.045375 239.888106 C 231.892262 239.918352 232.345952 240.039336 233.283577 240.039336 L 231.045375 239.888106 C 231.892262 239.918352 232.345952 240.039336 233.283577 240.039336 " transform="matrix(0.129149,0,0,0.129149,-8.894056,0.381879)"/>
<path style="fill:none;stroke-width:1.25;stroke-linecap:butt;stroke-linejoin:miter;stroke:rgb(0%,0%,0%);stroke-opacity:1;stroke-miterlimit:4;" d="M 213.502705 260.031929 C 213.593443 259.910945 214.319347 259.185042 214.863774 258.82209 C 215.49894 258.610368 217.676651 257.612251 218.493292 257.461021 C 219.370426 257.188807 220.217313 256.916593 221.064201 256.583887 C 222.032072 256.34192 222.636992 256.130198 223.635109 255.88823 C 224.451751 255.525278 225.2079 255.28331 226.054788 255.041342 " transform="matrix(0.129149,0,0,0.129149,-8.894056,0.381879)"/>
<path style="fill:none;stroke-width:1.25;stroke-linecap:butt;stroke-linejoin:miter;stroke:rgb(0%,0%,0%);stroke-opacity:1;stroke-miterlimit:4;" d="M 229.623813 230.088408 C 229.139878 231.509969 229.775043 231.872921 230.017011 232.47784 C 230.470701 233.08276 231.650294 233.959893 233.465053 234.534567 C 234.160711 234.746289 234.705138 234.927765 235.52178 235.230225 C 236.066207 235.290717 236.338421 235.4117 236.731619 235.56293 " transform="matrix(0.129149,0,0,0.129149,-8.894056,0.381879)"/>
<path style="fill:none;stroke-width:1.25;stroke-linecap:butt;stroke-linejoin:miter;stroke:rgb(0%,0%,0%);stroke-opacity:1;stroke-miterlimit:4;" d="M 161.509863 178.246796 L 161.661093 178.246796 C 161.146911 178.246796 161.449371 178.277042 162.356751 177.551138 C 162.931424 176.946218 163.385114 176.643759 163.899296 176.008593 " transform="matrix(0.129149,0,0,0.129149,-8.894056,0.381879)"/>
<path style="fill:none;stroke-width:1.25;stroke-linecap:butt;stroke-linejoin:miter;stroke:rgb(0%,0%,0%);stroke-opacity:1;stroke-miterlimit:4;" d="M 172.640384 190.496418 C 172.761368 190.496418 182.651804 185.505831 183.710414 184.447222 C 184.466563 183.902794 185.041237 183.32812 185.948616 182.723201 C 186.52329 182.420741 186.946734 182.027543 187.491161 181.694837 C 187.944851 181.029426 188.549771 180.636228 188.85223 180.031309 C 189.487396 179.486881 189.215182 178.942453 189.699118 178.307288 C 189.941086 177.641876 190.36453 176.553021 190.515759 175.948101 " transform="matrix(0.129149,0,0,0.129149,-8.894056,0.381879)"/>
<path style="fill:none;stroke-width:1.25;stroke-linecap:butt;stroke-linejoin:miter;stroke:rgb(0%,0%,0%);stroke-opacity:1;stroke-miterlimit:4;" d="M 203.128334 183.358366 C 203.188826 183.721318 202.977104 184.810174 202.977104 185.657061 C 202.946858 186.624932 201.706773 189.619285 200.194473 190.496418 " transform="matrix(0.129149,0,0,0.129149,-8.894056,0.381879)"/>
<path style="fill:none;stroke-width:1.25;stroke-linecap:butt;stroke-linejoin:miter;stroke:rgb(0%,0%,0%);stroke-opacity:1;stroke-miterlimit:4;" d="M 185.343697 183.237383 C 185.404189 183.237383 186.916488 183.751564 189.426904 184.507714 C 192.451502 185.596569 198.772912 189.589039 199.377832 190.133466 C 200.012998 190.617402 201.162345 191.071092 201.616035 191.676011 C 202.281446 192.280931 202.795628 192.946343 203.340056 193.581508 C 203.944975 194.337658 204.489403 194.972823 204.882601 195.638235 C 206.788097 197.18078 211.929914 207.948349 212.11139 208.553269 C 212.41385 209.127943 212.746556 209.914338 212.958278 210.42852 C 213.351475 210.88221 213.623689 211.517375 214.016887 212.152541 C 214.349593 213.029674 214.773037 213.422872 215.19648 214.058038 C 215.771154 214.451235 216.557549 215.207385 217.283453 215.600583 C 218.039603 216.265994 218.765506 216.538208 219.34018 216.991898 C 220.156821 217.324604 229.230616 223.07134 229.654059 223.343554 C 230.470701 224.008965 233.011363 226.640366 231.22685 228.545863 C 230.470701 229.181028 229.805289 230.058162 229.139878 230.421114 C 228.504712 231.056279 227.597333 231.358739 226.841183 231.691445 C 222.757976 232.901284 220.671003 232.47784 219.854361 232.47784 L 219.007474 232.47784 " transform="matrix(0.129149,0,0,0.129149,-8.894056,0.381879)"/>
<path style="fill:none;stroke-width:1.25;stroke-linecap:butt;stroke-linejoin:miter;stroke:rgb(0%,0%,0%);stroke-opacity:1;stroke-miterlimit:4;" d="M 165.290611 162.972575 C 166.470204 163.426265 165.986269 163.093559 167.044878 163.577495 C 167.740535 163.879954 168.194225 163.879954 168.889883 164.121922 C 169.615786 164.36389 171.672513 164.726842 172.67063 165.724959 C 173.396534 166.390371 173.940962 166.934799 174.727357 167.418734 C 175.664983 168.0539 176.330394 168.326114 177.509987 168.810049 C 178.477859 169.203247 179.59696 169.596445 180.564832 169.626691 C 181.593195 169.687183 181.865409 169.656937 182.83328 169.656937 L 185.252959 169.656937 L 182.83328 169.656937 L 185.252959 169.656937 " transform="matrix(0.129149,0,0,0.129149,-8.894056,0.381879)"/>
<path style="fill-rule:evenodd;fill:rgb(100%,90.196079%,2.352941%);fill-opacity:1;stroke-width:1.25;stroke-linecap:butt;stroke-linejoin:miter;stroke:rgb(0%,0%,0%);stroke-opacity:1;stroke-miterlimit:4;" d="M 165.018397 174.466048 C 167.619552 174.284572 171.914481 175.070968 172.005219 175.070968 C 172.005219 175.070968 177.691463 174.98023 177.691463 174.98023 C 180.655569 174.67777 181.320981 173.528423 181.804917 172.742027 C 182.924018 171.018006 183.710414 170.413086 184.557301 169.112509 C 185.948616 168.084146 187.854113 170.503824 187.914605 170.503824 C 192.753962 175.070968 188.882476 180.666474 188.610263 180.817704 C 186.22083 183.025661 185.676402 183.176891 184.224595 181.785575 C 182.772788 180.061554 182.319098 179.275159 181.139505 178.670239 C 178.810565 177.551138 173.971208 178.428271 173.910716 178.428271 C 173.819978 178.428271 171.400299 179.365897 171.400299 179.365897 C 170.220706 179.789341 169.464556 180.817704 167.438076 181.180656 C 165.381349 181.331886 164.685691 181.120164 163.657328 179.456635 C 162.266013 177.30917 162.96167 174.708016 165.018397 174.466048 Z M 165.018397 174.466048 " transform="matrix(0.129149,0,0,0.129149,-8.894056,0.381879)"/>
<path style="fill-rule:evenodd;fill:rgb(100%,93.725491%,0%);fill-opacity:0.988235;stroke-width:1.25;stroke-linecap:butt;stroke-linejoin:miter;stroke:rgb(0%,0%,0%);stroke-opacity:1;stroke-miterlimit:4;" d="M 238.866934 224.504747 C 238.980536 224.117534 239.216993 220.364222 239.108252 220.372483 C 238.973146 220.365922 233.374804 213.783255 233.50991 213.789817 C 233.61865 213.781556 240.679005 215.356816 240.677306 215.11297 C 240.701971 214.883947 243.491601 208.194045 243.498163 208.05894 C 243.489901 207.950199 246.893982 216.213898 246.893982 216.213898 L 253.829429 219.245674 L 248.961593 223.275124 C 248.961593 223.275124 250.058918 231.074688 250.067179 231.183428 C 250.060617 231.318534 245.199149 226.572799 245.199149 226.572799 L 239.834649 227.165435 C 239.834649 227.165435 239.112479 224.746893 238.866934 224.504747 Z M 238.866934 224.504747 " transform="matrix(-0.0632926,-0.112576,0.112576,-0.0632926,19.672715,50.526037)"/>
<path style="fill-rule:evenodd;fill:rgb(100%,100%,100%);fill-opacity:1;stroke-width:1.5945;stroke-linecap:butt;stroke-linejoin:miter;stroke:rgb(0%,0%,0%);stroke-opacity:1;stroke-miterlimit:4;" d="M 201.136225 122.200997 C 196.497057 124.589376 178.773071 144.881853 176.330338 148.054027 C 174.280035 152.626589 170.28746 158.431979 166.190651 162.200941 C 161.790586 165.521818 159.349789 170.04833 159.95373 174.343527 C 159.912026 179.663676 162.916405 183.330621 165.294705 187.061957 C 166.713669 188.79659 168.623488 189.905026 170.63525 190.029816 C 174.765932 190.582534 175.123736 191.859357 177.21143 192.651414 C 185.392548 203.77435 197.575095 211.976863 206.34672 218.469882 C 211.945934 221.409677 215.838224 224.361369 217.181374 225.983981 C 219.732923 230.88838 219.256138 235.686329 218.912285 238.026012 C 216.740828 246.208518 214.554548 254.41739 212.409456 262.614719 C 211.311928 269.319088 217.127676 267.800397 217.422316 266.474006 C 220.066008 263.067828 223.973002 265.43791 229.575626 245.721385 C 232.140223 242.270738 234.70482 238.820091 237.269417 235.369444 C 237.269417 235.369444 240.239805 234.159463 240.252928 233.889252 C 244.754699 228.474238 241.330298 225.369218 238.749932 224.404267 C 236.88798 223.704429 235.011206 223.030955 233.12289 222.316294 C 233.12289 222.316294 226.613435 215.81126 226.3284 215.824501 C 223.219078 206.789657 207.938277 187.372506 204.411816 184.695887 C 200.933223 182.427866 202.348314 181.453825 198.649077 179.825125 C 195.918663 178.324732 197.81026 178.97184 191.664181 176.69615 C 189.843418 175.984769 191.146251 173.976052 192.28785 173.056441 C 204.333796 166.504614 213.868628 159.234964 225.428345 151.819892 C 226.02964 151.429279 226.60457 151.023844 227.205866 150.633232 C 225.815246 142.738169 224.424626 134.843107 223.075194 126.936502 C 216.64408 124.674053 210.227789 122.385239 203.796676 120.12279 C 202.788482 120.805117 202.035677 121.526931 201.136225 122.200997 Z M 201.136225 122.200997 " transform="matrix(-0.0632926,-0.112576,0.112576,-0.0632926,19.672715,50.526037)"/>
<path style=" stroke:none;fill-rule:evenodd;fill:rgb(100%,92.54902%,0%);fill-opacity:1;" d="M 33.726562 10.4375 C 33.695312 10.445312 32.6875 9.234375 32.6875 9.234375 C 32.6875 9.234375 33.277344 9.109375 33.28125 9.117188 L 34.441406 10.234375 Z M 33.726562 10.4375 "/>
<path style="fill:none;stroke-width:1.25;stroke-linecap:butt;stroke-linejoin:miter;stroke:rgb(0%,0%,0%);stroke-opacity:1;stroke-miterlimit:4;" d="M 186.00175 201.826742 C 188.318628 195.66912 194.7301 190.807297 199.061386 189.460275 " transform="matrix(-0.0632926,-0.112576,0.112576,-0.0632926,19.672715,50.526037)"/>
<path style="fill:none;stroke-width:1.38225;stroke-linecap:butt;stroke-linejoin:miter;stroke:rgb(0%,0%,0%);stroke-opacity:1;stroke-miterlimit:4;" d="M 216.806918 247.078444 C 217.589487 246.859144 221.037725 245.848423 222.034495 245.680154 C 223.102098 245.447613 224.158159 245.173885 225.191136 244.81778 C 226.36748 244.576978 227.108862 244.369221 228.352758 244.1317 C 229.318183 243.772314 230.265503 243.506847 231.291919 243.285848 M 214.660008 254.476681 C 214.760488 254.359679 215.554481 253.626322 216.167318 253.276898 C 216.841146 253.06586 219.205258 252.070198 220.093287 251.910191 C 221.066973 251.659546 221.987928 251.379256 222.912165 251.031412 C 223.979768 250.798872 224.627232 250.573011 225.747565 250.370116 C 226.592707 249.977804 227.457651 249.73542 228.363784 249.481495 " transform="matrix(-0.0632926,-0.112576,0.112576,-0.0632926,19.672715,50.526037)"/>
<path style="fill:none;stroke-width:1.25;stroke-linecap:butt;stroke-linejoin:miter;stroke:rgb(0%,0%,0%);stroke-opacity:1;stroke-miterlimit:4;" d="M 219.516205 203.562773 L 219.339911 203.567754 C 219.895157 203.567636 219.545851 203.510044 218.824391 204.422975 C 218.574101 205.115025 216.360037 206.646129 214.6943 206.646484 C 213.90347 206.757043 212.654593 206.81827 211.855501 206.820088 C 211.63802 206.836611 211.32164 206.658736 211.077794 206.660436 " transform="matrix(-0.0632926,-0.112576,0.112576,-0.0632926,19.672715,50.526037)"/>
<path style="fill:none;stroke-width:1.25;stroke-linecap:butt;stroke-linejoin:miter;stroke:rgb(0%,0%,0%);stroke-opacity:1;stroke-miterlimit:4;" d="M 219.350765 239.035905 L 219.527059 239.030925 L 220.21741 239.037368 C 221.098877 239.012466 222.01169 239.17868 222.795959 239.203227 C 223.662603 239.20469 224.504582 239.435177 225.371227 239.436639 C 226.246133 239.546843 227.303893 239.516961 228.205164 239.641987 C 229.192091 239.676377 230.007705 239.89204 231.050643 239.888522 C 231.902465 239.91635 232.342408 240.059599 233.291428 240.037978 L 231.050643 239.888522 C 231.902465 239.91635 232.342408 240.059599 233.291428 240.037978 " transform="matrix(-0.0632926,-0.112576,0.112576,-0.0632926,19.672715,50.526037)"/>
<path style="fill:none;stroke-width:1.25;stroke-linecap:butt;stroke-linejoin:miter;stroke:rgb(0%,0%,0%);stroke-opacity:1;stroke-miterlimit:4;" d="M 213.483148 260.026091 C 213.583627 259.909089 214.336432 259.187274 214.855352 258.819746 C 215.502816 258.593885 217.664269 257.588381 218.469922 257.451457 C 219.34969 257.182709 220.229458 256.913961 221.071319 256.589202 C 222.045004 256.338557 222.65128 256.124238 223.65133 255.888416 C 224.440461 255.534012 225.211488 255.273524 226.076433 255.031141 " transform="matrix(-0.0632926,-0.112576,0.112576,-0.0632926,19.672715,50.526037)"/>
<path style="fill:none;stroke-width:1.25;stroke-linecap:butt;stroke-linejoin:miter;stroke:rgb(0%,0%,0%);stroke-opacity:1;stroke-miterlimit:4;" d="M 229.616781 230.09542 C 229.127744 231.520709 229.760503 231.876458 230.01601 232.471192 C 230.474175 233.075768 231.635932 233.971821 233.463257 234.548096 C 234.184954 234.745656 234.718815 234.907008 235.54269 235.231412 C 236.06829 235.284024 236.346762 235.405888 236.730694 235.587043 " transform="matrix(-0.0632926,-0.112576,0.112576,-0.0632926,19.672715,50.526037)"/>
<path style="fill:none;stroke-width:1.25;stroke-linecap:butt;stroke-linejoin:miter;stroke:rgb(0%,0%,0%);stroke-opacity:1;stroke-miterlimit:4;" d="M 161.496731 178.264516 L 161.673025 178.259535 C 161.132602 178.233289 161.455543 178.276058 162.369819 177.575628 C 162.901862 176.937888 163.376313 176.649455 163.908356 176.011715 " transform="matrix(-0.0632926,-0.112576,0.112576,-0.0632926,19.672715,50.526037)"/>
<path style="fill:none;stroke-width:1.25;stroke-linecap:butt;stroke-linejoin:miter;stroke:rgb(0%,0%,0%);stroke-opacity:1;stroke-miterlimit:4;" d="M 172.656972 190.507193 C 172.765712 190.498932 182.650324 185.507855 183.730932 184.449857 C 184.447529 183.915878 185.017479 183.334149 185.954839 182.716095 C 186.538031 182.4194 186.936668 182.018946 187.508317 181.681063 C 187.946442 181.02522 188.547738 180.634608 188.862299 180.013391 C 189.470156 179.487673 189.226192 178.934127 189.717047 178.30793 C 189.952513 177.642244 190.383958 176.566261 190.522227 175.950025 " transform="matrix(-0.0632926,-0.112576,0.112576,-0.0632926,19.672715,50.526037)"/>
<path style="fill:none;stroke-width:1.25;stroke-linecap:butt;stroke-linejoin:miter;stroke:rgb(0%,0%,0%);stroke-opacity:1;stroke-miterlimit:4;" d="M 203.123095 183.346767 C 203.185786 183.729 202.956999 184.814825 202.970359 185.655105 C 202.950793 186.615667 201.722311 189.60305 200.216582 190.491434 " transform="matrix(-0.0632926,-0.112576,0.112576,-0.0632926,19.672715,50.526037)"/>
<path style="fill:none;stroke-width:1.25;stroke-linecap:butt;stroke-linejoin:miter;stroke:rgb(0%,0%,0%);stroke-opacity:1;stroke-miterlimit:4;" d="M 185.346982 183.241813 C 185.414535 183.245094 186.907377 183.737412 189.41521 184.522788 C 192.450343 185.604623 198.758248 189.567434 199.381165 190.125842 C 200.033727 190.63152 201.177263 191.066246 201.59424 191.682364 C 202.296251 192.285241 202.792323 192.945828 203.344406 193.568507 C 203.95748 194.329574 204.49474 194.978619 204.882072 195.647467 C 206.798571 197.176043 211.949656 207.948683 212.096422 208.551678 C 212.407939 209.108504 212.762344 209.897635 212.979944 210.436358 C 213.350753 210.887725 213.617801 211.523646 214.019956 212.166129 C 214.37108 213.022813 214.771534 213.42145 215.214877 214.052391 C 215.791625 214.446048 216.539805 215.213675 217.292846 215.602352 C 218.05913 216.276062 218.777545 216.541174 219.324648 216.987561 C 220.148523 217.311965 229.226448 223.075026 229.65983 223.35338 C 230.467301 224.015548 233.006835 226.657778 231.249236 228.549611 C 230.473346 229.18905 229.781532 230.049251 229.153872 230.425041 C 228.513089 231.071041 227.592133 231.351332 226.829367 231.72056 C 222.748489 232.930777 220.670756 232.491307 219.845299 232.478302 L 219.00502 232.491662 " transform="matrix(-0.0632926,-0.112576,0.112576,-0.0632926,19.672715,50.526037)"/>
<path style="fill:none;stroke-width:1.25;stroke-linecap:butt;stroke-linejoin:miter;stroke:rgb(0%,0%,0%);stroke-opacity:1;stroke-miterlimit:4;" d="M 165.61912 163.094069 L 165.795413 163.089089 C 165.334085 163.107311 165.577932 163.105611 166.490744 163.271825 C 167.194337 163.563303 168.194506 163.882727 168.886557 164.133016 C 169.619795 164.371764 170.562253 164.485248 170.965989 164.816332 C 171.758519 164.94962 172.223246 165.41909 172.852724 165.842393 C 173.592642 166.50128 174.139745 166.947666 174.930694 167.392353 C 175.873271 168.061083 176.603228 168.367383 177.522721 168.953737 C 178.435534 169.119952 179.097938 169.422971 180.084866 169.457361 C 181.015782 169.529657 181.8495 169.651403 182.85125 169.659428 L 185.248525 169.653974 L 182.85125 169.659428 L 185.248525 169.653974 " transform="matrix(-0.0632926,-0.112576,0.112576,-0.0632926,19.672715,50.526037)"/>
<path style="fill-rule:evenodd;fill:rgb(100%,90.196079%,2.352941%);fill-opacity:1;stroke-width:1.25;stroke-linecap:butt;stroke-linejoin:miter;stroke:rgb(0%,0%,0%);stroke-opacity:1;stroke-miterlimit:4;" d="M 165.026753 174.454483 C 167.621706 174.282579 171.904016 175.059339 171.997934 175.077443 C 171.997934 175.077443 177.677232 174.97408 177.677232 174.97408 C 180.684063 174.686755 181.321448 173.553062 181.822145 172.724206 C 182.920739 171.017045 183.70817 170.418794 184.569598 169.133473 C 185.946782 168.103422 187.835453 170.483819 187.929371 170.501923 C 192.759494 175.056542 188.885502 180.651012 188.605448 180.840547 C 186.223469 183.040617 185.688027 183.190664 184.226294 181.778972 C 182.766142 180.05588 182.329362 179.289834 181.113293 178.675533 C 178.798157 177.547412 173.975779 178.410141 173.893403 178.433225 C 173.799485 178.415122 171.397467 179.354773 171.397467 179.354773 C 170.21128 179.798233 169.483259 180.84627 167.422167 181.179527 C 165.370917 181.310125 164.675586 181.127389 163.647116 179.438805 C 162.274201 177.313678 162.968941 174.720187 165.026753 174.454483 Z M 165.026753 174.454483 " transform="matrix(-0.0632926,-0.112576,0.112576,-0.0632926,19.672715,50.526037)"/>
<path style="fill-rule:evenodd;fill:rgb(100%,93.725491%,0%);fill-opacity:0.988235;stroke-width:1.25;stroke-linecap:butt;stroke-linejoin:miter;stroke:rgb(0%,0%,0%);stroke-opacity:1;stroke-miterlimit:4;" d="M 238.871296 224.495399 C 238.987461 224.128365 239.21423 220.364041 239.105823 220.352164 C 238.970571 220.354224 233.378012 213.783463 233.513264 213.781403 C 233.621671 213.79328 240.680508 215.376822 240.690326 215.133163 C 240.700143 214.889503 243.493192 208.19104 243.491132 208.055788 C 243.50301 207.947381 246.875724 216.215929 246.875724 216.215929 L 253.834874 219.248518 L 248.971854 223.272843 C 248.971854 223.272843 250.050988 231.062244 250.053047 231.197496 C 250.055107 231.332747 245.193458 226.563649 245.193458 226.563649 L 239.818471 227.173108 C 239.818471 227.173108 239.105138 224.748875 238.871296 224.495399 Z M 238.871296 224.495399 " transform="matrix(-0.0595082,0.114619,-0.114619,-0.0595082,48.168906,-0.84021)"/>
<path style="fill-rule:evenodd;fill:rgb(100%,100%,100%);fill-opacity:1;stroke-width:1.5945;stroke-linecap:butt;stroke-linejoin:miter;stroke:rgb(0%,0%,0%);stroke-opacity:1;stroke-miterlimit:4;" d="M 201.138975 122.214271 C 196.507805 124.584611 178.756536 144.876841 176.31569 148.05258 C 174.302226 152.642284 170.29143 158.439367 166.182113 162.208704 C 161.795083 165.508779 159.34799 170.050973 159.967815 174.330008 C 159.913922 179.674512 162.891384 183.308869 165.289118 187.07381 C 166.695256 188.797548 168.606288 189.918352 170.637124 190.022708 C 174.77157 190.568519 175.143204 191.875106 177.211183 192.641783 C 185.37593 203.772998 197.581819 211.988198 206.338856 218.483711 C 211.957366 221.42849 215.83051 224.359263 217.1809 225.975624 C 219.731392 230.888144 219.249568 235.670976 218.906703 238.030123 C 216.744944 246.207087 214.570277 254.424833 212.381674 262.615734 C 211.293209 269.315295 217.114251 267.792647 217.44572 266.461825 C 220.072417 263.053274 223.978104 265.455947 229.575802 245.714066 C 232.147781 242.265763 234.71976 238.817461 237.291738 235.369158 C 237.291738 235.369158 240.249769 234.174205 240.231713 233.876857 C 244.748913 228.464383 241.306308 225.378241 238.761859 224.415895 C 236.897788 223.713754 235.006872 223.02555 233.142801 222.323409 C 233.142801 222.323409 226.617417 215.79391 226.320069 215.811967 C 223.206529 206.795414 207.921771 187.398604 204.403783 184.692403 C 200.946693 182.43171 202.338481 181.436476 198.64803 179.842223 C 195.919308 178.328023 197.809194 178.948601 191.673913 176.715164 C 189.822749 175.972242 191.145401 173.990494 192.29456 173.053069 C 204.343565 166.524799 213.878055 159.223124 225.440291 151.822927 C 226.0159 151.42184 226.632291 151.033661 227.2079 150.632574 C 225.829359 142.725977 224.423974 134.833318 223.05937 126.953566 C 216.652556 124.656623 210.232835 122.400462 203.799176 120.117456 C 202.795087 120.809163 202.034657 121.510687 201.138975 122.214271 Z M 201.138975 122.214271 " transform="matrix(-0.0595082,0.114619,-0.114619,-0.0595082,48.168906,-0.84021)"/>
<path style=" stroke:none;fill-rule:evenodd;fill:rgb(100%,92.54902%,0%);fill-opacity:1;" d="M 6.933594 9.363281 C 6.957031 9.386719 6.496094 10.890625 6.496094 10.890625 C 6.496094 10.890625 6.070312 10.464844 6.074219 10.457031 L 6.371094 8.878906 Z M 6.933594 9.363281 "/>
<path style="fill:none;stroke-width:1.25;stroke-linecap:butt;stroke-linejoin:miter;stroke:rgb(0%,0%,0%);stroke-opacity:1;stroke-miterlimit:4;" d="M 185.995478 201.815487 C 188.323385 195.665239 194.729441 190.805717 199.037929 189.454914 " transform="matrix(-0.0595082,0.114619,-0.114619,-0.0595082,48.168906,-0.84021)"/>
<path style="fill:none;stroke-width:1.38225;stroke-linecap:butt;stroke-linejoin:miter;stroke:rgb(0%,0%,0%);stroke-opacity:1;stroke-miterlimit:4;" d="M 216.81202 247.058349 C 217.593597 246.85705 221.028098 245.857765 222.026489 245.680221 C 223.091477 245.434022 224.169371 245.14704 225.192547 244.820307 C 226.365942 244.585985 227.106737 244.371779 228.347757 244.136427 C 229.316214 243.769942 230.272794 243.511865 231.310937 243.279602 M 214.638933 254.491429 C 214.74528 254.368054 215.5594 253.638656 216.148946 253.264413 C 216.836052 253.078081 219.201447 252.054493 220.105368 251.891916 C 221.061948 251.633838 222.018528 251.375761 222.933296 251.037151 C 223.971439 250.804888 224.630671 250.564868 225.750377 250.35842 C 226.610427 249.980058 227.472536 249.736948 228.375427 249.506745 " transform="matrix(-0.0595082,0.114619,-0.114619,-0.0595082,48.168906,-0.84021)"/>
<path style="fill:none;stroke-width:1.25;stroke-linecap:butt;stroke-linejoin:miter;stroke:rgb(0%,0%,0%);stroke-opacity:1;stroke-miterlimit:4;" d="M 219.518206 203.564204 L 219.342173 203.553356 C 219.88318 203.545117 219.557958 203.509485 218.841398 204.426794 C 218.581194 205.107172 216.35929 206.669708 214.68155 206.654673 C 213.911851 206.747565 212.654834 206.820821 211.843323 206.833179 C 211.640446 206.836269 211.313164 206.665385 211.069505 206.655567 " transform="matrix(-0.0595082,0.114619,-0.114619,-0.0595082,48.168906,-0.84021)"/>
<path style="fill:none;stroke-width:1.25;stroke-linecap:butt;stroke-linejoin:miter;stroke:rgb(0%,0%,0%);stroke-opacity:1;stroke-miterlimit:4;" d="M 219.35475 239.024395 L 219.516846 239.008398 L 220.207042 239.024944 C 221.100116 239.0384 221.995249 239.187108 222.779915 239.188687 C 223.659051 239.175299 224.515462 239.446351 225.367754 239.4469 C 226.24895 239.568763 227.276246 239.512534 228.198223 239.647305 C 229.199704 239.672638 230.014304 239.863158 231.042629 239.874554 C 231.908858 239.901947 232.357455 240.043927 233.29131 240.070291 L 231.042629 239.874554 C 231.908858 239.901947 232.357455 240.043927 233.29131 240.070291 " transform="matrix(-0.0595082,0.114619,-0.114619,-0.0595082,48.168906,-0.84021)"/>
<path style="fill:none;stroke-width:1.25;stroke-linecap:butt;stroke-linejoin:miter;stroke:rgb(0%,0%,0%);stroke-opacity:1;stroke-miterlimit:4;" d="M 213.492179 260.028443 C 213.584589 259.878224 214.34502 259.1767 214.880877 258.830332 C 215.513265 258.604248 217.648937 257.597686 218.485233 257.436139 C 219.347342 257.193029 220.222359 256.909137 221.069502 256.571557 C 222.040019 256.340324 222.645562 256.128178 223.65686 255.909852 C 224.449284 255.53252 225.202987 255.277533 226.065096 255.034422 " transform="matrix(-0.0595082,0.114619,-0.114619,-0.0595082,48.168906,-0.84021)"/>
<path style="fill:none;stroke-width:1.25;stroke-linecap:butt;stroke-linejoin:miter;stroke:rgb(0%,0%,0%);stroke-opacity:1;stroke-miterlimit:4;" d="M 229.622345 230.115215 C 229.129809 231.52966 229.757529 231.885365 230.023364 232.463034 C 230.479169 233.078395 231.62929 233.980805 233.464457 234.561631 C 234.17065 234.740273 234.714746 234.934912 235.544313 235.219902 C 236.08635 235.279289 236.332069 235.424358 236.753821 235.580275 " transform="matrix(-0.0595082,0.114619,-0.114619,-0.0595082,48.168906,-0.84021)"/>
<path style="fill:none;stroke-width:1.25;stroke-linecap:butt;stroke-linejoin:miter;stroke:rgb(0%,0%,0%);stroke-opacity:1;stroke-miterlimit:4;" d="M 161.488472 178.243589 L 161.664505 178.254437 C 161.123498 178.262676 161.44872 178.298308 162.35731 177.553942 C 162.915892 176.923133 163.385154 176.645421 163.902955 176.001705 " transform="matrix(-0.0595082,0.114619,-0.114619,-0.0595082,48.168906,-0.84021)"/>
<path style="fill:none;stroke-width:1.25;stroke-linecap:butt;stroke-linejoin:miter;stroke:rgb(0%,0%,0%);stroke-opacity:1;stroke-miterlimit:4;" d="M 172.633357 190.519912 C 172.768609 190.517852 182.649399 185.524244 183.728872 184.452597 C 184.464518 183.900261 185.02413 183.337078 185.934779 182.727965 C 186.525356 182.421348 186.938869 182.036258 187.474726 181.68989 C 187.951746 181.033266 188.527355 180.63218 188.856216 180.018397 C 189.470547 179.494966 189.218649 178.944142 189.695669 178.287518 C 189.942966 177.647922 190.359088 176.545791 190.525852 175.948006 " transform="matrix(-0.0595082,0.114619,-0.114619,-0.0595082,48.168906,-0.84021)"/>
<path style="fill:none;stroke-width:1.25;stroke-linecap:butt;stroke-linejoin:miter;stroke:rgb(0%,0%,0%);stroke-opacity:1;stroke-miterlimit:4;" d="M 203.125138 183.345516 C 203.185006 183.723397 202.971762 184.822438 202.98412 185.633948 C 202.94485 186.608585 201.705272 189.60369 200.19011 190.492576 " transform="matrix(-0.0595082,0.114619,-0.114619,-0.0595082,48.168906,-0.84021)"/>
<path style="fill:none;stroke-width:1.25;stroke-linecap:butt;stroke-linejoin:miter;stroke:rgb(0%,0%,0%);stroke-opacity:1;stroke-miterlimit:4;" d="M 185.347293 183.237459 C 185.388074 183.250366 186.896989 183.727935 189.425442 184.528185 C 192.472177 185.604636 198.755548 189.567441 199.386357 190.126024 C 200.030073 190.643825 201.172985 191.072854 201.614853 191.661371 C 202.300381 192.259705 202.797998 192.955599 203.321429 193.56993 C 203.955327 194.33139 204.492696 194.972565 204.867968 195.629738 C 206.799116 197.183141 211.941364 207.941008 212.112729 208.533644 C 212.405408 209.097375 212.755896 209.903737 212.967013 210.441654 C 213.36604 210.882012 213.618968 211.500462 213.99424 212.157634 C 214.372602 213.017684 214.784536 213.41726 215.213497 214.046558 C 215.774621 214.470919 216.529834 215.203475 217.279897 215.597902 C 218.048018 216.289676 218.796022 216.548851 219.3303 216.987149 C 220.160897 217.339765 229.230799 223.059399 229.654611 223.350568 C 230.47642 224.014468 233.005834 226.654554 231.235616 228.561947 C 230.474156 229.195846 229.797348 230.058436 229.16702 230.419772 C 228.487123 231.079485 227.585262 231.377313 226.83259 231.699927 C 222.751764 232.898451 220.66209 232.48384 219.850579 232.496198 L 218.998287 232.495649 " transform="matrix(-0.0595082,0.114619,-0.114619,-0.0595082,48.168906,-0.84021)"/>
<path style="fill:none;stroke-width:1.25;stroke-linecap:butt;stroke-linejoin:miter;stroke:rgb(0%,0%,0%);stroke-opacity:1;stroke-miterlimit:4;" d="M 165.62765 163.110016 L 165.789746 163.09402 C 165.343209 163.087291 165.586869 163.097109 166.495939 163.272661 C 167.204191 163.586555 168.209791 163.882392 168.89017 164.142597 C 169.624236 164.374928 170.559121 164.468917 170.983963 164.827711 C 171.770689 164.964542 172.237342 165.40387 172.853184 165.867982 C 173.59343 166.506068 174.127708 166.944366 174.919584 167.419326 C 175.862707 168.054322 176.611741 168.381123 177.513053 168.935586 C 178.422124 169.111138 179.103532 169.438969 180.105012 169.464302 C 181.02596 169.531447 181.866375 169.640404 182.853918 169.638893 L 185.248698 169.656536 L 182.853918 169.638893 L 185.248698 169.656536 " transform="matrix(-0.0595082,0.114619,-0.114619,-0.0595082,48.168906,-0.84021)"/>
<path style="fill:none;stroke-width:1.25;stroke-linecap:butt;stroke-linejoin:miter;stroke:rgb(0%,0%,0%);stroke-opacity:1;stroke-miterlimit:4;" d="M 221.246797 142.958104 L 220.89473 142.936409 C 221.5173 142.953985 221.368111 142.9292 220.383657 143.133588 C 219.363571 143.663199 218.003296 144.062707 217.103494 144.495788 C 216.080318 144.82252 214.990546 145.217909 214.010212 145.692801 C 212.910622 146.331849 211.890536 146.861459 210.914321 147.606854 C 209.921079 148.122528 208.929897 148.773453 207.991373 149.328878 C 207.024976 149.830614 206.234612 150.343198 205.406555 151.045752 C 204.722539 151.434962 203.770078 151.963542 203.008618 152.597441 C 202.254916 152.852428 201.735055 153.360893 201.28179 153.800701 C 200.360294 154.585848 199.798622 155.013779 198.85131 155.880489 C 198.371201 156.334235 197.703181 156.885541 196.969595 157.573128 C 196.193168 158.112556 195.342387 159.099551 194.715149 159.663764 C 194.33054 160.170168 193.75802 160.774133 193.169504 161.216001 C 192.731206 161.75028 192.228372 162.488466 191.639855 162.930335 C 191.269183 163.463584 190.656912 164.122267 190.072515 164.834639 C 189.607372 165.382854 188.980134 165.947067 188.528929 166.522128 C 187.930595 167.207655 187.453575 167.864278 186.799493 168.442428 C 186.697264 168.836306 186.42985 169.043303 186.284781 169.289022 " transform="matrix(-0.0595082,0.114619,-0.114619,-0.0595082,48.168906,-0.84021)"/>
<path style="fill-rule:evenodd;fill:rgb(100%,90.196079%,2.352941%);fill-opacity:1;stroke-width:1.25;stroke-linecap:butt;stroke-linejoin:miter;stroke:rgb(0%,0%,0%);stroke-opacity:1;stroke-miterlimit:4;" d="M 165.042845 174.455647 C 167.610568 174.28126 171.911231 175.081578 172.005701 175.066611 C 172.005701 175.066611 177.686274 174.980103 177.686274 174.980103 C 180.67163 174.69113 181.330381 173.531191 181.805341 172.739316 C 182.929234 171.031162 183.704631 170.424108 184.5642 169.125828 C 185.942051 168.10375 187.831869 170.496538 187.940277 170.508415 C 192.758055 175.061729 188.879422 180.653875 188.624915 180.82009 C 186.196495 183.03513 185.698329 183.191528 184.215777 181.780105 C 182.768858 180.043459 182.337837 179.278909 181.138147 178.674877 C 178.82136 177.560252 173.9915 178.431976 173.883092 178.420098 C 173.815467 178.421128 171.408261 179.364184 171.408261 179.364184 C 170.237956 179.801384 169.482675 180.841037 167.445111 181.183218 C 165.363676 181.309614 164.684327 181.117035 163.644193 179.441836 C 162.25872 177.298406 162.96347 174.717294 165.042845 174.455647 Z M 165.042845 174.455647 " transform="matrix(-0.0595082,0.114619,-0.114619,-0.0595082,48.168906,-0.84021)"/>
<path style="fill-rule:evenodd;fill:rgb(100%,93.725491%,0%);fill-opacity:0.988235;stroke-width:3.003;stroke-linecap:butt;stroke-linejoin:miter;stroke:rgb(0%,0%,0%);stroke-opacity:1;stroke-miterlimit:4;" d="M 469.858147 290.155208 C 467.532836 288.047895 512.658402 306.50505 518.83501 306.723048 C 527.336928 303.598412 562.289258 274.023363 562.289258 274.023363 C 562.652588 276.930001 563.88791 284.414596 567.230544 286.013247 C 553.714674 296.985809 541.434125 307.522374 527.990921 318.494935 C 528.935579 335.862101 525.738276 354.246591 534.603525 373.72107 C 534.603525 373.72107 523.994293 373.939068 523.994293 373.72107 C 514.693049 364.419827 511.423081 319.512259 511.423081 319.512259 C 496.599223 312.899655 481.775366 306.50505 466.951509 299.892447 C 469.058822 298.511794 470.802805 294.224502 469.858147 290.155208 Z M 469.858147 290.155208 " transform="matrix(0.0537563,0,0,0.0537563,-7.96875,0.0000000824141)"/>
<path style="fill:none;stroke-width:3.003;stroke-linecap:butt;stroke-linejoin:miter;stroke:rgb(0%,0%,0%);stroke-opacity:1;stroke-miterlimit:4;" d="M 512.731068 336.152765 C 513.457728 335.644103 504.59248 340.294725 502.339835 341.457381 C 461.356229 363.257171 440.283098 395.084865 438.975111 396.24752 C 438.248451 397.628174 436.940464 399.444823 435.777808 401.188806 C 434.833151 402.642126 433.452497 404.240777 432.50784 405.694096 C 431.272518 407.438079 428.656544 410.85338 427.203224 412.379365 C 426.985226 413.396689 427.857218 412.088701 427.566554 412.742695 " transform="matrix(0.0537563,0,0,0.0537563,-7.96875,0.0000000824141)"/>
<path style="fill:none;stroke-width:3.003;stroke-linecap:butt;stroke-linejoin:miter;stroke:rgb(0%,0%,0%);stroke-opacity:1;stroke-miterlimit:4;" d="M 540.707466 310.211015 C 539.90814 309.775019 548.119395 315.51563 550.154042 317.041616 C 588.376341 343.419362 626.23531 347.633988 627.906627 348.287982 C 629.432612 348.287982 631.685257 348.651312 633.79257 348.869309 C 635.536554 349.014641 637.498535 349.595969 639.242518 349.668635 C 641.422497 350.031965 645.637123 350.758625 647.67177 351.339952 C 648.616428 351.049289 647.090443 350.903957 647.744436 350.903957 " transform="matrix(0.0537563,0,0,0.0537563,-7.96875,0.0000000824141)"/>
</g>
</svg>
