<?xml version="1.0" encoding="UTF-8"?>
<svg xmlns="http://www.w3.org/2000/svg" xmlns:xlink="http://www.w3.org/1999/xlink" width="40px" height="40px" viewBox="0 0 40 40" version="1.1">
<g id="surface1">
<rect x="0" y="0" width="40" height="40" style="fill:rgb(100%,100%,100%);fill-opacity:1;stroke:none;"/>
<path style=" stroke:none;fill-rule:evenodd;fill:rgb(19.607843%,57.254905%,1.176471%);fill-opacity:1;" d="M -10 26.667969 L 50 26.667969 L 50 40 L -10 40 Z M -10 26.667969 "/>
<path style=" stroke:none;fill-rule:evenodd;fill:rgb(90.588236%,45.09804%,0%);fill-opacity:1;" d="M -10 0 L 50 0 L 50 13.332031 L -10 13.332031 Z M -10 0 "/>
<path style=" stroke:none;fill-rule:evenodd;fill:rgb(3.137255%,22.352941%,61.176473%);fill-opacity:1;" d="M 26.3125 20 C 26.3125 16.515625 23.484375 13.6875 20 13.6875 C 16.515625 13.6875 13.6875 16.515625 13.6875 20 C 13.6875 23.484375 16.515625 26.3125 20 26.3125 C 23.484375 26.3125 26.3125 23.484375 26.3125 20 Z M 26.3125 20 "/>
<path style=" stroke:none;fill-rule:evenodd;fill:rgb(100%,100%,100%);fill-opacity:1;" d="M 25.46875 18.582031 C 25.503906 18.710938 25.511719 18.777344 25.535156 18.898438 C 25.289062 18.972656 25.160156 19.140625 25.191406 19.304688 C 25.214844 19.453125 25.324219 19.664062 25.632812 19.621094 C 25.640625 19.742188 25.644531 19.8125 25.644531 19.945312 C 24.710938 19.945312 23.726562 19.890625 22.804688 19.808594 C 22.125 19.75 21.964844 19.941406 21.613281 19.96875 C 21.203125 20.003906 20.878906 19.980469 20.035156 20.011719 C 20.863281 19.839844 21.1875 19.738281 21.574219 19.675781 C 21.941406 19.617188 22.085938 19.753906 22.773438 19.484375 C 23.640625 19.140625 24.566406 18.832031 25.46875 18.582031 Z M 25.46875 18.582031 "/>
<path style=" stroke:none;fill-rule:evenodd;fill:rgb(100%,100%,100%);fill-opacity:1;" d="M 18.644531 14.566406 C 18.773438 14.535156 18.839844 14.527344 18.960938 14.503906 C 19.035156 14.75 19.199219 14.878906 19.363281 14.851562 C 19.511719 14.828125 19.726562 14.71875 19.683594 14.410156 C 19.804688 14.402344 19.875 14.398438 20.007812 14.398438 C 20.003906 15.335938 19.941406 16.320312 19.855469 17.242188 C 19.792969 17.917969 19.980469 18.082031 20.007812 18.433594 C 20.039062 18.84375 20.011719 19.167969 20.039062 20.011719 C 19.875 19.183594 19.773438 18.855469 19.714844 18.472656 C 19.65625 18.101562 19.792969 17.960938 19.53125 17.269531 C 19.191406 16.402344 18.886719 15.472656 18.644531 14.566406 Z M 18.644531 14.566406 "/>
<path style=" stroke:none;fill-rule:evenodd;fill:rgb(100%,100%,100%);fill-opacity:1;" d="M 20.082031 14.394531 C 20.214844 14.394531 20.28125 14.402344 20.402344 14.410156 C 20.414062 14.667969 20.539062 14.835938 20.707031 14.851562 C 20.855469 14.867188 21.089844 14.816406 21.125 14.503906 C 21.246094 14.53125 21.316406 14.542969 21.441406 14.578125 C 21.199219 15.480469 20.890625 16.417969 20.570312 17.285156 C 20.335938 17.925781 20.472656 18.132812 20.410156 18.480469 C 20.335938 18.882812 20.226562 19.1875 20.039062 20.011719 C 20.089844 19.167969 20.078125 18.828125 20.117188 18.441406 C 20.160156 18.070312 20.324219 17.964844 20.246094 17.234375 C 20.140625 16.304688 20.085938 15.328125 20.082031 14.394531 Z M 20.082031 14.394531 "/>
<path style=" stroke:none;fill-rule:evenodd;fill:rgb(100%,100%,100%);fill-opacity:1;" d="M 21.53125 14.59375 C 21.660156 14.628906 21.722656 14.65625 21.839844 14.695312 C 21.78125 14.949219 21.859375 15.140625 22.015625 15.199219 C 22.15625 15.253906 22.394531 15.265625 22.511719 14.972656 C 22.621094 15.027344 22.683594 15.058594 22.796875 15.125 C 22.328125 15.9375 21.789062 16.761719 21.253906 17.515625 C 20.863281 18.074219 20.945312 18.308594 20.792969 18.628906 C 20.617188 19 20.433594 19.265625 20.039062 20.011719 C 20.304688 19.210938 20.378906 18.878906 20.519531 18.515625 C 20.65625 18.164062 20.84375 18.109375 20.957031 17.382812 C 21.09375 16.457031 21.292969 15.5 21.53125 14.59375 Z M 21.53125 14.59375 "/>
<path style=" stroke:none;fill-rule:evenodd;fill:rgb(100%,100%,100%);fill-opacity:1;" d="M 22.878906 15.164062 C 22.992188 15.230469 23.046875 15.273438 23.148438 15.339844 C 23.027344 15.570312 23.054688 15.777344 23.191406 15.875 C 23.3125 15.960938 23.539062 16.035156 23.726562 15.785156 C 23.820312 15.863281 23.871094 15.914062 23.964844 16.003906 C 23.304688 16.667969 22.566406 17.324219 21.859375 17.914062 C 21.335938 18.351562 21.355469 18.601562 21.125 18.871094 C 20.859375 19.183594 20.613281 19.394531 20.035156 20.015625 C 20.503906 19.308594 20.660156 19.003906 20.890625 18.691406 C 21.109375 18.386719 21.304688 18.382812 21.605469 17.707031 C 21.976562 16.851562 22.414062 15.976562 22.878906 15.164062 Z M 22.878906 15.164062 "/>
<path style=" stroke:none;fill-rule:evenodd;fill:rgb(100%,100%,100%);fill-opacity:1;" d="M 24.027344 16.058594 C 24.121094 16.152344 24.160156 16.203125 24.242188 16.296875 C 24.066406 16.488281 24.039062 16.695312 24.148438 16.824219 C 24.242188 16.9375 24.445312 17.066406 24.691406 16.875 C 24.757812 16.976562 24.796875 17.035156 24.863281 17.148438 C 24.054688 17.617188 23.171875 18.0625 22.335938 18.453125 C 21.71875 18.742188 21.671875 18.984375 21.382812 19.1875 C 21.042969 19.421875 20.75 19.5625 20.035156 20.011719 C 20.667969 19.449219 20.898438 19.199219 21.199219 18.953125 C 21.492188 18.71875 21.679688 18.761719 22.144531 18.1875 C 22.722656 17.453125 23.371094 16.722656 24.027344 16.058594 Z M 24.027344 16.058594 "/>
<path style=" stroke:none;fill-rule:evenodd;fill:rgb(100%,100%,100%);fill-opacity:1;" d="M 24.925781 17.246094 C 24.992188 17.359375 25.015625 17.421875 25.070312 17.53125 C 24.851562 17.671875 24.769531 17.863281 24.839844 18.015625 C 24.902344 18.152344 25.0625 18.328125 25.351562 18.207031 C 25.390625 18.324219 25.410156 18.390625 25.445312 18.515625 C 24.539062 18.757812 23.574219 18.957031 22.664062 19.113281 C 21.992188 19.226562 21.882812 19.453125 21.550781 19.570312 C 21.164062 19.707031 20.84375 19.765625 20.035156 20.011719 C 20.792969 19.636719 21.082031 19.453125 21.4375 19.296875 C 21.78125 19.144531 21.953125 19.238281 22.546875 18.804688 C 23.300781 18.25 24.117188 17.714844 24.925781 17.246094 Z M 24.925781 17.246094 "/>
<path style=" stroke:none;fill-rule:evenodd;fill:rgb(100%,100%,100%);fill-opacity:1;" d="M 14.59375 21.402344 C 14.5625 21.277344 14.554688 21.207031 14.53125 21.085938 C 14.777344 21.011719 14.90625 20.847656 14.878906 20.683594 C 14.855469 20.535156 14.746094 20.324219 14.4375 20.367188 C 14.429688 20.242188 14.425781 20.171875 14.425781 20.042969 C 15.363281 20.042969 16.347656 20.105469 17.265625 20.191406 C 17.945312 20.253906 18.109375 20.066406 18.460938 20.039062 C 18.871094 20.007812 19.195312 20.035156 20.039062 20.007812 C 19.210938 20.171875 18.882812 20.273438 18.5 20.332031 C 18.128906 20.390625 17.988281 20.253906 17.296875 20.515625 C 16.429688 20.855469 15.5 21.160156 14.59375 21.402344 Z M 14.59375 21.402344 "/>
<path style=" stroke:none;fill-rule:evenodd;fill:rgb(100%,100%,100%);fill-opacity:1;" d="M 25.652344 20.019531 C 25.65625 20.148438 25.644531 20.214844 25.636719 20.339844 C 25.378906 20.351562 25.210938 20.476562 25.199219 20.644531 C 25.183594 20.792969 25.238281 21.027344 25.546875 21.0625 C 25.523438 21.183594 25.511719 21.25 25.476562 21.378906 C 24.574219 21.140625 23.632812 20.835938 22.765625 20.523438 C 22.121094 20.292969 21.917969 20.433594 21.570312 20.375 C 21.164062 20.300781 20.859375 20.195312 20.03125 20.011719 C 20.878906 20.058594 21.21875 20.042969 21.605469 20.078125 C 21.980469 20.117188 22.082031 20.285156 22.816406 20.199219 C 23.742188 20.089844 24.71875 20.027344 25.652344 20.019531 Z M 25.652344 20.019531 "/>
<path style=" stroke:none;fill-rule:evenodd;fill:rgb(100%,100%,100%);fill-opacity:1;" d="M 25.460938 21.46875 C 25.429688 21.597656 25.402344 21.660156 25.363281 21.777344 C 25.109375 21.71875 24.914062 21.800781 24.859375 21.957031 C 24.808594 22.097656 24.796875 22.335938 25.089844 22.453125 C 25.035156 22.5625 25.003906 22.625 24.9375 22.738281 C 24.125 22.277344 23.296875 21.738281 22.539062 21.210938 C 21.976562 20.824219 21.746094 20.90625 21.421875 20.757812 C 21.050781 20.582031 20.785156 20.402344 20.03125 20.011719 C 20.835938 20.273438 21.171875 20.347656 21.535156 20.484375 C 21.882812 20.617188 21.941406 20.804688 22.671875 20.914062 C 23.597656 21.042969 24.554688 21.238281 25.460938 21.46875 Z M 25.460938 21.46875 "/>
<path style=" stroke:none;fill-rule:evenodd;fill:rgb(100%,100%,100%);fill-opacity:1;" d="M 24.898438 22.824219 C 24.832031 22.9375 24.789062 22.992188 24.722656 23.09375 C 24.496094 22.972656 24.285156 23 24.191406 23.140625 C 24.105469 23.261719 24.035156 23.488281 24.285156 23.675781 C 24.203125 23.769531 24.15625 23.820312 24.066406 23.914062 C 23.398438 23.257812 22.738281 22.523438 22.140625 21.816406 C 21.703125 21.296875 21.453125 21.316406 21.183594 21.089844 C 20.867188 20.828125 20.65625 20.582031 20.03125 20.007812 C 20.742188 20.472656 21.046875 20.628906 21.363281 20.855469 C 21.664062 21.074219 21.671875 21.269531 22.347656 21.5625 C 23.207031 21.929688 24.082031 22.363281 24.898438 22.824219 Z M 24.898438 22.824219 "/>
<path style=" stroke:none;fill-rule:evenodd;fill:rgb(100%,100%,100%);fill-opacity:1;" d="M 24.003906 23.988281 C 23.910156 24.082031 23.855469 24.121094 23.765625 24.203125 C 23.574219 24.027344 23.367188 24 23.238281 24.109375 C 23.125 24.203125 22.996094 24.40625 23.191406 24.652344 C 23.089844 24.71875 23.027344 24.757812 22.917969 24.824219 C 22.445312 24.015625 21.996094 23.136719 21.601562 22.300781 C 21.3125 21.683594 21.066406 21.640625 20.863281 21.351562 C 20.628906 21.011719 20.488281 20.722656 20.03125 20.007812 C 20.597656 20.640625 20.851562 20.867188 21.097656 21.167969 C 21.332031 21.460938 21.289062 21.648438 21.867188 22.109375 C 22.601562 22.6875 23.335938 23.332031 24.003906 23.988281 Z M 24.003906 23.988281 "/>
<path style=" stroke:none;fill-rule:evenodd;fill:rgb(100%,100%,100%);fill-opacity:1;" d="M 22.828125 24.882812 C 22.714844 24.949219 22.652344 24.976562 22.542969 25.03125 C 22.402344 24.8125 22.210938 24.730469 22.058594 24.800781 C 21.921875 24.863281 21.746094 25.027344 21.871094 25.3125 C 21.753906 25.351562 21.6875 25.375 21.558594 25.410156 C 21.316406 24.507812 21.109375 23.539062 20.949219 22.628906 C 20.828125 21.960938 20.605469 21.851562 20.484375 21.519531 C 20.347656 21.132812 20.285156 20.816406 20.03125 20.007812 C 20.414062 20.761719 20.597656 21.050781 20.757812 21.40625 C 20.910156 21.746094 20.816406 21.917969 21.253906 22.515625 C 21.8125 23.261719 22.355469 24.078125 22.828125 24.882812 Z M 22.828125 24.882812 "/>
<path style=" stroke:none;fill-rule:evenodd;fill:rgb(100%,100%,100%);fill-opacity:1;" d="M 21.46875 25.441406 C 21.339844 25.476562 21.273438 25.484375 21.152344 25.507812 C 21.078125 25.261719 20.910156 25.132812 20.746094 25.164062 C 20.597656 25.1875 20.386719 25.296875 20.429688 25.605469 C 20.308594 25.617188 20.238281 25.617188 20.105469 25.621094 C 20.105469 24.683594 20.15625 23.699219 20.238281 22.777344 C 20.296875 22.097656 20.109375 21.9375 20.078125 21.585938 C 20.042969 21.175781 20.066406 20.851562 20.035156 20.007812 C 20.207031 20.835938 20.308594 21.160156 20.371094 21.546875 C 20.429688 21.914062 20.296875 22.058594 20.5625 22.746094 C 20.910156 23.613281 21.21875 24.539062 21.46875 25.441406 Z M 21.46875 25.441406 "/>
<path style=" stroke:none;fill-rule:evenodd;fill:rgb(100%,100%,100%);fill-opacity:1;" d="M 20 25.625 C 19.871094 25.628906 19.804688 25.617188 19.679688 25.609375 C 19.671875 25.351562 19.546875 25.183594 19.378906 25.167969 C 19.230469 25.15625 18.996094 25.207031 18.957031 25.515625 C 18.839844 25.492188 18.769531 25.476562 18.644531 25.445312 C 18.882812 24.539062 19.191406 23.601562 19.511719 22.734375 C 19.742188 22.09375 19.601562 21.890625 19.664062 21.539062 C 19.738281 21.136719 19.847656 20.832031 20.035156 20.007812 C 19.984375 20.851562 20 21.191406 19.960938 21.578125 C 19.917969 21.949219 19.753906 22.054688 19.832031 22.789062 C 19.941406 23.714844 19.996094 24.691406 20 25.625 Z M 20 25.625 "/>
<path style=" stroke:none;fill-rule:evenodd;fill:rgb(100%,100%,100%);fill-opacity:1;" d="M 18.550781 25.425781 C 18.425781 25.394531 18.363281 25.367188 18.246094 25.328125 C 18.304688 25.074219 18.226562 24.882812 18.070312 24.824219 C 17.925781 24.769531 17.6875 24.761719 17.574219 25.050781 C 17.460938 24.996094 17.398438 24.964844 17.285156 24.898438 C 17.753906 24.089844 18.292969 23.261719 18.824219 22.503906 C 19.214844 21.949219 19.132812 21.714844 19.28125 21.394531 C 19.457031 21.023438 19.640625 20.753906 20.035156 20.003906 C 19.769531 20.808594 19.695312 21.144531 19.558594 21.507812 C 19.421875 21.855469 19.234375 21.910156 19.121094 22.640625 C 18.988281 23.566406 18.789062 24.523438 18.550781 25.425781 Z M 18.550781 25.425781 "/>
<path style=" stroke:none;fill-rule:evenodd;fill:rgb(100%,100%,100%);fill-opacity:1;" d="M 17.199219 24.855469 C 17.085938 24.792969 17.03125 24.75 16.929688 24.683594 C 17.050781 24.453125 17.027344 24.246094 16.886719 24.148438 C 16.765625 24.0625 16.539062 23.988281 16.351562 24.242188 C 16.257812 24.160156 16.207031 24.113281 16.113281 24.019531 C 16.773438 23.355469 17.507812 22.699219 18.21875 22.105469 C 18.742188 21.667969 18.722656 21.421875 18.949219 21.148438 C 19.214844 20.835938 19.460938 20.625 20.035156 20.003906 C 19.570312 20.710938 19.414062 21.015625 19.183594 21.332031 C 18.964844 21.632812 18.769531 21.636719 18.472656 22.3125 C 18.101562 23.171875 17.664062 24.042969 17.199219 24.855469 Z M 17.199219 24.855469 "/>
<path style=" stroke:none;fill-rule:evenodd;fill:rgb(100%,100%,100%);fill-opacity:1;" d="M 16.039062 23.953125 C 15.945312 23.863281 15.90625 23.808594 15.824219 23.714844 C 16 23.527344 16.027344 23.320312 15.921875 23.191406 C 15.824219 23.074219 15.625 22.945312 15.378906 23.136719 C 15.308594 23.035156 15.273438 22.976562 15.207031 22.863281 C 16.015625 22.394531 16.898438 21.949219 17.738281 21.5625 C 18.355469 21.273438 18.398438 21.03125 18.691406 20.828125 C 19.03125 20.597656 19.320312 20.457031 20.039062 20.003906 C 19.40625 20.566406 19.171875 20.820312 18.871094 21.0625 C 18.582031 21.296875 18.390625 21.253906 17.925781 21.828125 C 17.347656 22.558594 16.695312 23.289062 16.039062 23.953125 Z M 16.039062 23.953125 "/>
<path style=" stroke:none;fill-rule:evenodd;fill:rgb(100%,100%,100%);fill-opacity:1;" d="M 15.144531 22.769531 C 15.078125 22.65625 15.054688 22.59375 15 22.484375 C 15.21875 22.347656 15.304688 22.15625 15.230469 22.003906 C 15.171875 21.867188 15.011719 21.6875 14.722656 21.8125 C 14.683594 21.695312 14.660156 21.625 14.628906 21.5 C 15.53125 21.261719 16.5 21.0625 17.410156 20.90625 C 18.082031 20.789062 18.191406 20.566406 18.523438 20.449219 C 18.910156 20.3125 19.230469 20.253906 20.039062 20.007812 C 19.28125 20.382812 18.992188 20.566406 18.636719 20.722656 C 18.292969 20.871094 18.121094 20.777344 17.523438 21.210938 C 16.773438 21.765625 15.953125 22.300781 15.144531 22.769531 Z M 15.144531 22.769531 "/>
<path style=" stroke:none;fill-rule:evenodd;fill:rgb(100%,100%,100%);fill-opacity:1;" d="M 17.296875 15.105469 C 17.410156 15.042969 17.472656 15.015625 17.585938 14.960938 C 17.71875 15.183594 17.914062 15.265625 18.066406 15.195312 C 18.203125 15.136719 18.378906 14.976562 18.257812 14.6875 C 18.375 14.648438 18.441406 14.628906 18.570312 14.59375 C 18.804688 15.5 19 16.46875 19.152344 17.378906 C 19.265625 18.050781 19.488281 18.160156 19.605469 18.496094 C 19.738281 18.882812 19.796875 19.203125 20.039062 20.011719 C 19.667969 19.25 19.484375 18.960938 19.328125 18.605469 C 19.179688 18.261719 19.277344 18.089844 18.84375 17.492188 C 18.292969 16.738281 17.761719 15.917969 17.296875 15.105469 Z M 17.296875 15.105469 "/>
<path style=" stroke:none;fill-rule:evenodd;fill:rgb(100%,100%,100%);fill-opacity:1;" d="M 14.421875 19.9375 C 14.421875 19.804688 14.429688 19.738281 14.4375 19.617188 C 14.699219 19.609375 14.867188 19.484375 14.882812 19.316406 C 14.898438 19.167969 14.847656 18.933594 14.539062 18.894531 C 14.5625 18.773438 14.578125 18.703125 14.613281 18.578125 C 15.515625 18.824219 16.449219 19.140625 17.316406 19.464844 C 17.953125 19.703125 18.160156 19.5625 18.507812 19.628906 C 18.910156 19.707031 19.214844 19.816406 20.039062 20.007812 C 19.195312 19.953125 18.855469 19.964844 18.46875 19.921875 C 18.097656 19.878906 17.996094 19.710938 17.261719 19.785156 C 16.332031 19.886719 15.355469 19.9375 14.421875 19.9375 Z M 14.421875 19.9375 "/>
<path style=" stroke:none;fill-rule:evenodd;fill:rgb(100%,100%,100%);fill-opacity:1;" d="M 14.625 18.5 C 14.660156 18.375 14.6875 18.3125 14.726562 18.195312 C 14.980469 18.253906 15.175781 18.175781 15.230469 18.019531 C 15.285156 17.878906 15.296875 17.640625 15.007812 17.523438 C 15.0625 17.410156 15.09375 17.347656 15.160156 17.234375 C 15.96875 17.707031 16.792969 18.25 17.546875 18.785156 C 18.101562 19.179688 18.335938 19.097656 18.65625 19.25 C 19.027344 19.425781 19.292969 19.609375 20.039062 20.007812 C 19.238281 19.738281 18.90625 19.664062 18.542969 19.523438 C 18.195312 19.386719 18.140625 19.199219 17.410156 19.082031 C 16.488281 18.941406 15.53125 18.742188 14.625 18.5 Z M 14.625 18.5 "/>
<path style=" stroke:none;fill-rule:evenodd;fill:rgb(100%,100%,100%);fill-opacity:1;" d="M 15.203125 17.148438 C 15.269531 17.035156 15.3125 16.984375 15.378906 16.878906 C 15.609375 17.003906 15.816406 16.976562 15.910156 16.839844 C 16 16.71875 16.074219 16.492188 15.824219 16.304688 C 15.90625 16.210938 15.953125 16.160156 16.046875 16.066406 C 16.703125 16.730469 17.359375 17.46875 17.949219 18.179688 C 18.382812 18.707031 18.632812 18.6875 18.902344 18.917969 C 19.214844 19.183594 19.421875 19.433594 20.039062 20.011719 C 19.335938 19.539062 19.035156 19.382812 18.71875 19.152344 C 18.417969 18.929688 18.414062 18.734375 17.742188 18.433594 C 16.882812 18.058594 16.011719 17.617188 15.203125 17.148438 Z M 15.203125 17.148438 "/>
<path style=" stroke:none;fill-rule:evenodd;fill:rgb(100%,100%,100%);fill-opacity:1;" d="M 16.128906 15.972656 C 16.222656 15.882812 16.277344 15.84375 16.371094 15.761719 C 16.558594 15.941406 16.765625 15.972656 16.894531 15.863281 C 17.011719 15.769531 17.144531 15.570312 16.953125 15.320312 C 17.054688 15.253906 17.113281 15.21875 17.230469 15.152344 C 17.691406 15.96875 18.125 16.851562 18.507812 17.695312 C 18.789062 18.316406 19.03125 18.363281 19.230469 18.65625 C 19.460938 18.996094 19.597656 19.289062 20.039062 20.011719 C 19.484375 19.371094 19.234375 19.140625 18.992188 18.835938 C 18.761719 18.539062 18.808594 18.351562 18.238281 17.882812 C 17.511719 17.296875 16.789062 16.640625 16.128906 15.972656 Z M 16.128906 15.972656 "/>
</g>
</svg>
