<?xml version="1.0" encoding="UTF-8"?>
<svg xmlns="http://www.w3.org/2000/svg" xmlns:xlink="http://www.w3.org/1999/xlink" width="40px" height="40px" viewBox="0 0 40 40" version="1.1">
<g id="surface1">
<rect x="0" y="0" width="40" height="40" style="fill:rgb(100%,100%,100%);fill-opacity:1;stroke:none;"/>
<path style=" stroke:none;fill-rule:evenodd;fill:rgb(0%,0%,38.82353%);fill-opacity:1;" d="M 80 34.785156 C 79.101562 35.324219 78.332031 36.582031 75.949219 36.582031 C 71.1875 36.582031 70 33.929688 66.425781 33.929688 C 64.046875 33.929688 62.855469 36.582031 60.476562 36.582031 C 55.714844 36.582031 54.523438 33.929688 50.953125 33.929688 C 48.570312 33.929688 47.378906 36.582031 45 36.582031 C 40.238281 36.582031 39.046875 33.929688 35.476562 33.929688 C 33.09375 33.929688 31.902344 36.582031 29.523438 36.582031 C 24.761719 36.582031 23.570312 33.929688 20 33.929688 C 17.617188 33.929688 16.429688 36.582031 14.046875 36.582031 C 9.285156 36.582031 8.09375 33.929688 4.523438 33.929688 C 2.144531 33.929688 1.429688 35.820312 0 35.820312 L 0 39.238281 C 1.429688 39.238281 2.144531 37.34375 4.523438 37.34375 C 8.09375 37.34375 9.285156 40 14.046875 40 C 16.429688 40 17.617188 37.34375 20 37.34375 C 23.570312 37.34375 24.761719 40 29.523438 40 C 31.902344 40 33.09375 37.34375 35.476562 37.34375 C 39.046875 37.34375 40.238281 40 45 40 C 47.378906 40 48.570312 37.34375 50.953125 37.34375 C 54.523438 37.34375 55.714844 40 60.476562 40 C 62.855469 40 64.046875 37.34375 66.425781 37.34375 C 70 37.34375 71.1875 40 75.949219 40 C 78.332031 40 79.101562 39.246094 80 38.707031 Z M 80 34.785156 "/>
<path style=" stroke:none;fill-rule:evenodd;fill:rgb(0%,0%,38.82353%);fill-opacity:1;" d="M 80 28.148438 C 79.101562 28.6875 78.332031 29.949219 75.949219 29.949219 C 71.1875 29.949219 70 27.296875 66.425781 27.296875 C 64.046875 27.296875 62.855469 29.949219 60.476562 29.949219 C 55.714844 29.949219 54.523438 27.296875 50.953125 27.296875 C 48.570312 27.296875 47.378906 29.949219 45 29.949219 C 40.238281 29.949219 39.046875 27.296875 35.476562 27.296875 C 33.09375 27.296875 31.902344 29.949219 29.523438 29.949219 C 24.761719 29.949219 23.570312 27.296875 20 27.296875 C 17.617188 27.296875 16.429688 29.949219 14.046875 29.949219 C 9.285156 29.949219 8.09375 27.296875 4.523438 27.296875 C 2.144531 27.296875 1.429688 29.1875 0 29.1875 L 0 32.601562 C 1.429688 32.601562 2.144531 30.710938 4.523438 30.710938 C 8.09375 30.710938 9.285156 33.367188 14.046875 33.367188 C 16.429688 33.367188 17.617188 30.710938 20 30.710938 C 23.570312 30.710938 24.761719 33.367188 29.523438 33.367188 C 31.902344 33.367188 33.09375 30.710938 35.476562 30.710938 C 39.046875 30.710938 40.238281 33.367188 45 33.367188 C 47.378906 33.367188 48.570312 30.710938 50.953125 30.710938 C 54.523438 30.710938 55.714844 33.367188 60.476562 33.367188 C 62.855469 33.367188 64.046875 30.710938 66.425781 30.710938 C 70 30.710938 71.1875 33.367188 75.949219 33.367188 C 78.332031 33.367188 79.101562 32.613281 80 32.074219 Z M 80 28.148438 "/>
<path style=" stroke:none;fill-rule:evenodd;fill:rgb(0%,0%,38.82353%);fill-opacity:1;" d="M 80 21.515625 C 79.101562 22.054688 78.332031 23.316406 75.949219 23.316406 C 71.1875 23.316406 70 20.660156 66.425781 20.660156 C 64.046875 20.660156 62.855469 23.316406 60.476562 23.316406 C 55.714844 23.316406 54.523438 20.660156 50.953125 20.660156 C 48.570312 20.660156 47.378906 23.316406 45 23.316406 C 40.238281 23.316406 39.046875 20.660156 35.476562 20.660156 C 33.09375 20.660156 31.902344 23.316406 29.523438 23.316406 C 24.761719 23.316406 23.570312 20.660156 20 20.660156 C 17.617188 20.660156 16.429688 23.316406 14.046875 23.316406 C 9.285156 23.316406 8.09375 20.660156 4.523438 20.660156 C 2.144531 20.660156 1.429688 22.554688 0 22.554688 L 0 25.96875 C 1.429688 25.96875 2.144531 24.078125 4.523438 24.078125 C 8.09375 24.078125 9.285156 26.730469 14.046875 26.730469 C 16.429688 26.730469 17.617188 24.078125 20 24.078125 C 23.570312 24.078125 24.761719 26.730469 29.523438 26.730469 C 31.902344 26.730469 33.09375 24.078125 35.476562 24.078125 C 39.046875 24.078125 40.238281 26.730469 45 26.730469 C 47.378906 26.730469 48.570312 24.078125 50.953125 24.078125 C 54.523438 24.078125 55.714844 26.730469 60.476562 26.730469 C 62.855469 26.730469 64.046875 24.078125 66.425781 24.078125 C 70 24.078125 71.1875 26.730469 75.949219 26.730469 C 78.332031 26.730469 79.101562 25.980469 80 25.441406 Z M 80 21.515625 "/>
<path style=" stroke:none;fill-rule:evenodd;fill:rgb(0%,0%,38.82353%);fill-opacity:1;" d="M 80 14.882812 C 79.101562 15.421875 78.332031 16.683594 75.949219 16.683594 C 71.1875 16.683594 70 14.027344 66.425781 14.027344 C 64.046875 14.027344 62.855469 16.683594 60.476562 16.683594 C 55.714844 16.683594 54.523438 14.027344 50.953125 14.027344 C 48.570312 14.027344 47.378906 16.683594 45 16.683594 C 40.238281 16.683594 39.046875 14.027344 35.476562 14.027344 C 33.09375 14.027344 31.902344 16.683594 29.523438 16.683594 C 24.761719 16.683594 23.570312 14.027344 20 14.027344 C 17.617188 14.027344 16.429688 16.683594 14.046875 16.683594 C 9.285156 16.683594 8.09375 14.027344 4.523438 14.027344 C 2.144531 14.027344 1.429688 15.917969 0 15.917969 L 0 19.335938 C 1.429688 19.335938 2.144531 17.445312 4.523438 17.445312 C 8.09375 17.445312 9.285156 20.097656 14.046875 20.097656 C 16.429688 20.097656 17.617188 17.445312 20 17.445312 C 23.570312 17.445312 24.761719 20.097656 29.523438 20.097656 C 31.902344 20.097656 33.09375 17.445312 35.476562 17.445312 C 39.046875 17.445312 40.238281 20.097656 45 20.097656 C 47.378906 20.097656 48.570312 17.445312 50.953125 17.445312 C 54.523438 17.445312 55.714844 20.097656 60.476562 20.097656 C 62.855469 20.097656 64.046875 17.445312 66.425781 17.445312 C 70 17.445312 71.1875 20.097656 75.949219 20.097656 C 78.332031 20.097656 79.101562 19.347656 80 18.808594 Z M 80 14.882812 "/>
<path style=" stroke:none;fill-rule:evenodd;fill:rgb(0%,0%,38.82353%);fill-opacity:1;" d="M 80 8.25 C 79.101562 8.789062 78.332031 10.046875 75.949219 10.046875 C 71.1875 10.046875 70 7.394531 66.425781 7.394531 C 64.046875 7.394531 62.855469 10.046875 60.476562 10.046875 C 55.714844 10.046875 54.523438 7.394531 50.953125 7.394531 C 48.570312 7.394531 47.378906 10.046875 45 10.046875 C 40.238281 10.046875 39.046875 7.394531 35.476562 7.394531 C 33.09375 7.394531 31.902344 10.046875 29.523438 10.046875 C 24.761719 10.046875 23.570312 7.394531 20 7.394531 C 17.617188 7.394531 16.429688 10.046875 14.046875 10.046875 C 9.285156 10.046875 8.09375 7.394531 4.523438 7.394531 C 2.144531 7.394531 1.429688 9.285156 0 9.285156 L 0 12.703125 C 1.429688 12.703125 2.144531 10.8125 4.523438 10.8125 C 8.09375 10.8125 9.285156 13.464844 14.046875 13.464844 C 16.429688 13.464844 17.617188 10.8125 20 10.8125 C 23.570312 10.8125 24.761719 13.464844 29.523438 13.464844 C 31.902344 13.464844 33.09375 10.8125 35.476562 10.8125 C 39.046875 10.8125 40.238281 13.464844 45 13.464844 C 47.378906 13.464844 48.570312 10.8125 50.953125 10.8125 C 54.523438 10.8125 55.714844 13.464844 60.476562 13.464844 C 62.855469 13.464844 64.046875 10.8125 66.425781 10.8125 C 70 10.8125 71.1875 13.464844 75.949219 13.464844 C 78.332031 13.464844 79.101562 12.710938 80 12.171875 Z M 80 8.25 "/>
<path style=" stroke:none;fill-rule:evenodd;fill:rgb(0%,0%,38.82353%);fill-opacity:1;" d="M 80 1.613281 C 79.101562 2.152344 78.332031 3.414062 75.949219 3.414062 C 71.1875 3.414062 70 0.761719 66.425781 0.761719 C 64.046875 0.761719 62.855469 3.414062 60.476562 3.414062 C 55.714844 3.414062 54.523438 0.761719 50.953125 0.761719 C 48.570312 0.761719 47.378906 3.414062 45 3.414062 C 40.238281 3.414062 39.046875 0.761719 35.476562 0.761719 C 33.09375 0.761719 31.902344 3.414062 29.523438 3.414062 C 24.761719 3.414062 23.570312 0.761719 20 0.761719 C 17.617188 0.761719 16.429688 3.414062 14.046875 3.414062 C 9.285156 3.414062 8.09375 0.761719 4.523438 0.761719 C 2.144531 0.761719 1.429688 2.652344 0 2.652344 L 0 6.066406 C 1.429688 6.066406 2.144531 4.175781 4.523438 4.175781 C 8.09375 4.175781 9.285156 6.832031 14.046875 6.832031 C 16.429688 6.832031 17.617188 4.175781 20 4.175781 C 23.570312 4.175781 24.761719 6.832031 29.523438 6.832031 C 31.902344 6.832031 33.09375 4.175781 35.476562 4.175781 C 39.046875 4.175781 40.238281 6.832031 45 6.832031 C 47.378906 6.832031 48.570312 4.175781 50.953125 4.175781 C 54.523438 4.175781 55.714844 6.832031 60.476562 6.832031 C 62.855469 6.832031 64.046875 4.175781 66.425781 4.175781 C 70 4.175781 71.1875 6.832031 75.949219 6.832031 C 78.332031 6.832031 79.101562 6.078125 80 5.539062 Z M 80 1.613281 "/>
<path style=" stroke:none;fill-rule:evenodd;fill:rgb(0%,0%,38.82353%);fill-opacity:1;" d="M 0 0.00390625 L 20.414062 0.00390625 L 20.414062 12.339844 L 0 12.339844 Z M 0 0.00390625 "/>
<path style=" stroke:none;fill-rule:nonzero;fill:rgb(100%,100%,100%);fill-opacity:1;" d="M 0 0.00390625 L 0 1.382812 L 18.132812 12.339844 L 20.414062 12.339844 L 20.414062 10.960938 L 2.28125 0.00390625 Z M 20.414062 0.00390625 L 20.414062 1.382812 L 2.28125 12.339844 L 0 12.339844 L 0 10.960938 L 18.132812 0.00390625 Z M 20.414062 0.00390625 "/>
<path style=" stroke:none;fill-rule:nonzero;fill:rgb(100%,100%,100%);fill-opacity:1;" d="M 8.507812 0.00390625 L 8.507812 12.339844 L 11.910156 12.339844 L 11.910156 0.00390625 Z M 0 4.117188 L 0 8.230469 L 20.414062 8.230469 L 20.414062 4.117188 Z M 0 4.117188 "/>
<path style=" stroke:none;fill-rule:nonzero;fill:rgb(80.000001%,0%,0%);fill-opacity:1;" d="M 0 4.9375 L 0 7.40625 L 20.414062 7.40625 L 20.414062 4.9375 Z M 9.1875 0.00390625 L 9.1875 12.339844 L 11.226562 12.339844 L 11.226562 0.00390625 Z M 9.1875 0.00390625 "/>
<path style=" stroke:none;fill-rule:nonzero;fill:rgb(80.000001%,0%,0%);fill-opacity:1;" d="M 0 12.339844 L 6.804688 8.230469 L 8.328125 8.230469 L 1.523438 12.339844 Z M 0 0.00390625 L 6.804688 4.117188 L 5.285156 4.117188 L 0 0.925781 Z M 12.089844 4.117188 L 18.894531 0.00390625 L 20.414062 0.00390625 L 13.609375 4.117188 Z M 20.414062 12.339844 L 13.609375 8.230469 L 15.132812 8.230469 L 20.414062 11.421875 Z M 20.414062 12.339844 "/>
<path style="fill-rule:evenodd;fill:rgb(63.529414%,26.274511%,0%);fill-opacity:1;stroke-width:6.9349;stroke-linecap:butt;stroke-linejoin:miter;stroke:rgb(100%,100%,100%);stroke-opacity:1;stroke-miterlimit:4;" d="M 814.926296 -301.146605 L 797.2439 407.475096 C 797.2439 444.803182 877.420242 444.803182 885.898103 407.475096 L 868.215707 -301.146605 Z M 814.926296 -301.146605 " transform="matrix(0.0161266,0,0,0.0383006,16.533822,20.893466)"/>
<path style="fill-rule:evenodd;fill:rgb(0%,42.745098%,0%);fill-opacity:1;stroke-width:8.25;stroke-linecap:butt;stroke-linejoin:miter;stroke:rgb(100%,100%,100%);stroke-opacity:1;stroke-miterlimit:4;" d="M 496.041017 549.173926 L 513.688173 620.142816 L 549.151017 567.024761 L 531.478527 655.522768 L 567.010886 620.119778 L 531.502702 708.604215 L 567.035061 673.201225 L 531.429019 761.908218 L 566.961378 726.505228 L 531.522709 832.70473 L 566.870697 797.237992 L 531.616398 903.501242 L 566.964387 868.034504 L 531.42786 974.456562 L 513.800711 1027.588187 L 496.034531 1045.289682 L 478.313692 1027.624795 L 460.736051 974.370971 L 425.298541 868.022129 L 460.642361 903.574458 L 425.204851 797.225617 L 460.646529 832.55539 L 425.111161 726.429104 L 460.55284 761.758878 L 425.184845 673.125102 L 460.528665 708.677431 L 425.16067 620.043655 L 460.602348 655.373428 L 442.97219 566.975778 L 478.299013 619.956868 Z M 496.041017 549.173926 " transform="matrix(-0.0183909,0.00526791,-0.0080865,-0.0152355,46.196368,25.199141)"/>
<path style="fill:none;stroke-width:1.25;stroke-linecap:butt;stroke-linejoin:miter;stroke:rgb(0%,0%,0%);stroke-opacity:1;stroke-miterlimit:4;" d="M 496.041017 549.173926 L 496.034531 1045.289682 " transform="matrix(-0.0183909,0.00526791,-0.0080865,-0.0152355,46.196368,25.199141)"/>
<path style="fill:none;stroke-width:1.25;stroke-linecap:butt;stroke-linejoin:miter;stroke:rgb(0%,0%,0%);stroke-opacity:1;stroke-miterlimit:4;" d="M 425.298541 868.022129 L 495.940841 974.49317 L 566.964387 868.034504 " transform="matrix(-0.0183909,0.00526791,-0.0080865,-0.0152355,46.196368,25.199141)"/>
<path style="fill:none;stroke-width:1.25;stroke-linecap:butt;stroke-linejoin:miter;stroke:rgb(0%,0%,0%);stroke-opacity:1;stroke-miterlimit:4;" d="M 425.204851 797.225617 L 496.12938 903.53785 L 566.870697 797.237992 " transform="matrix(-0.0183909,0.00526791,-0.0080865,-0.0152355,46.196368,25.199141)"/>
<path style="fill:none;stroke-width:1.25;stroke-linecap:butt;stroke-linejoin:miter;stroke:rgb(0%,0%,0%);stroke-opacity:1;stroke-miterlimit:4;" d="M 425.111161 726.429104 L 496.03569 832.741338 L 566.961378 726.505228 " transform="matrix(-0.0183909,0.00526791,-0.0080865,-0.0152355,46.196368,25.199141)"/>
<path style="fill:none;stroke-width:1.25;stroke-linecap:butt;stroke-linejoin:miter;stroke:rgb(0%,0%,0%);stroke-opacity:1;stroke-miterlimit:4;" d="M 425.184845 673.125102 L 496.039858 761.72227 L 567.035061 673.201225 " transform="matrix(-0.0183909,0.00526791,-0.0080865,-0.0152355,46.196368,25.199141)"/>
<path style="fill:none;stroke-width:1.25;stroke-linecap:butt;stroke-linejoin:miter;stroke:rgb(0%,0%,0%);stroke-opacity:1;stroke-miterlimit:4;" d="M 425.16067 620.043655 L 496.015684 708.640823 L 567.010886 620.119778 " transform="matrix(-0.0183909,0.00526791,-0.0080865,-0.0152355,46.196368,25.199141)"/>
<path style="fill:none;stroke-width:1.25;stroke-linecap:butt;stroke-linejoin:miter;stroke:rgb(0%,0%,0%);stroke-opacity:1;stroke-miterlimit:4;" d="M 442.97219 566.975778 L 496.061024 673.274441 L 549.151017 567.024761 " transform="matrix(-0.0183909,0.00526791,-0.0080865,-0.0152355,46.196368,25.199141)"/>
<path style="fill-rule:evenodd;fill:rgb(0%,42.745098%,0%);fill-opacity:1;stroke-width:8.25;stroke-linecap:butt;stroke-linejoin:miter;stroke:rgb(100%,100%,100%);stroke-opacity:1;stroke-miterlimit:4;" d="M 496.064184 549.196007 L 513.862483 620.080044 L 549.199508 566.831636 L 531.476769 655.554482 L 566.877594 620.146731 L 531.613571 708.667276 L 567.014396 673.259524 L 531.471939 761.776858 L 566.872765 726.369107 L 531.561531 832.592846 L 566.962356 797.185094 L 531.483699 903.543086 L 566.884524 868.135334 L 531.57329 974.359073 L 513.833962 1027.538069 L 496.078044 1045.173213 L 478.249124 1027.536221 L 460.682048 974.358589 L 425.102041 868.134365 L 460.592457 903.542601 L 425.179872 797.184126 L 460.670289 832.592362 L 425.090281 726.368138 L 460.580698 761.776374 L 425.231912 673.258555 L 460.722329 708.666791 L 425.262533 620.01151 L 460.585527 655.553998 L 442.834439 566.966766 L 478.277645 620.078196 Z M 496.064184 549.196007 " transform="matrix(0.0138305,-0.0141613,0.0172478,0.0114362,5.768352,7.306722)"/>
<path style="fill:none;stroke-width:1.25;stroke-linecap:butt;stroke-linejoin:miter;stroke:rgb(0%,0%,0%);stroke-opacity:1;stroke-miterlimit:4;" d="M 496.064184 549.196007 L 496.078044 1045.173213 " transform="matrix(0.0138305,-0.0141613,0.0172478,0.0114362,5.768352,7.306722)"/>
<path style="fill:none;stroke-width:1.25;stroke-linecap:butt;stroke-linejoin:miter;stroke:rgb(0%,0%,0%);stroke-opacity:1;stroke-miterlimit:4;" d="M 425.102041 868.134365 L 495.988453 974.357226 L 566.884524 868.135334 " transform="matrix(0.0138305,-0.0141613,0.0172478,0.0114362,5.768352,7.306722)"/>
<path style="fill:none;stroke-width:1.25;stroke-linecap:butt;stroke-linejoin:miter;stroke:rgb(0%,0%,0%);stroke-opacity:1;stroke-miterlimit:4;" d="M 425.179872 797.184126 L 496.177295 903.544449 L 566.962356 797.185094 " transform="matrix(0.0138305,-0.0141613,0.0172478,0.0114362,5.768352,7.306722)"/>
<path style="fill:none;stroke-width:1.25;stroke-linecap:butt;stroke-linejoin:miter;stroke:rgb(0%,0%,0%);stroke-opacity:1;stroke-miterlimit:4;" d="M 425.090281 726.368138 L 496.087703 832.728461 L 566.872765 726.369107 " transform="matrix(0.0138305,-0.0141613,0.0172478,0.0114362,5.768352,7.306722)"/>
<path style="fill:none;stroke-width:1.25;stroke-linecap:butt;stroke-linejoin:miter;stroke:rgb(0%,0%,0%);stroke-opacity:1;stroke-miterlimit:4;" d="M 425.231912 673.258555 L 496.165535 761.778222 L 567.014396 673.259524 " transform="matrix(0.0138305,-0.0141613,0.0172478,0.0114362,5.768352,7.306722)"/>
<path style="fill:none;stroke-width:1.25;stroke-linecap:butt;stroke-linejoin:miter;stroke:rgb(0%,0%,0%);stroke-opacity:1;stroke-miterlimit:4;" d="M 425.262533 620.01151 L 496.028733 708.665428 L 566.877594 620.146731 " transform="matrix(0.0138305,-0.0141613,0.0172478,0.0114362,5.768352,7.306722)"/>
<path style="fill:none;stroke-width:1.25;stroke-linecap:butt;stroke-linejoin:miter;stroke:rgb(0%,0%,0%);stroke-opacity:1;stroke-miterlimit:4;" d="M 442.834439 566.966766 L 496.123154 673.25904 L 549.199508 566.831636 " transform="matrix(0.0138305,-0.0141613,0.0172478,0.0114362,5.768352,7.306722)"/>
<path style="fill-rule:evenodd;fill:rgb(0%,42.745098%,0%);fill-opacity:1;stroke-width:8.25;stroke-linecap:butt;stroke-linejoin:miter;stroke:rgb(100%,100%,100%);stroke-opacity:1;stroke-miterlimit:4;" d="M 496.000575 549.231591 L 513.732404 620.117528 L 549.33479 566.903953 L 531.546066 655.522625 L 566.877775 620.045145 L 531.464114 708.662137 L 566.984784 673.270731 L 531.382161 761.801649 L 566.902832 726.410243 L 531.489052 832.685906 L 567.009722 797.2945 L 531.406982 903.484089 L 566.927652 868.092683 L 513.806983 1027.506177 L 496.100329 1045.326666 L 478.286549 1027.58024 L 460.554602 974.352974 L 425.198073 868.148014 L 460.636673 903.554791 L 425.091182 797.263757 L 460.529782 832.670534 L 425.173252 726.465574 L 460.611852 761.872351 L 425.255205 673.326062 L 460.693804 708.732839 L 425.148196 620.100476 L 460.586796 655.507253 L 442.855086 566.962645 L 478.293568 620.028093 Z M 496.000575 549.231591 " transform="matrix(0.00886714,0.0168432,-0.0194663,0.00840604,45.449651,-4.514083)"/>
<path style="fill:none;stroke-width:1.25;stroke-linecap:butt;stroke-linejoin:miter;stroke:rgb(0%,0%,0%);stroke-opacity:1;stroke-miterlimit:4;" d="M 496.000575 549.231591 L 496.100329 1045.326666 " transform="matrix(0.00886714,0.0168432,-0.0194663,0.00840604,45.449651,-4.514083)"/>
<path style="fill:none;stroke-width:1.25;stroke-linecap:butt;stroke-linejoin:miter;stroke:rgb(0%,0%,0%);stroke-opacity:1;stroke-miterlimit:4;" d="M 425.198073 868.148014 L 495.993438 974.442409 L 566.927652 868.092683 " transform="matrix(0.00886714,0.0168432,-0.0194663,0.00840604,45.449651,-4.514083)"/>
<path style="fill:none;stroke-width:1.25;stroke-linecap:butt;stroke-linejoin:miter;stroke:rgb(0%,0%,0%);stroke-opacity:1;stroke-miterlimit:4;" d="M 425.091182 797.263757 L 496.075509 903.644226 L 567.009722 797.2945 " transform="matrix(0.00886714,0.0168432,-0.0194663,0.00840604,45.449651,-4.514083)"/>
<path style="fill:none;stroke-width:1.25;stroke-linecap:butt;stroke-linejoin:miter;stroke:rgb(0%,0%,0%);stroke-opacity:1;stroke-miterlimit:4;" d="M 425.173252 726.465574 L 496.050216 832.59647 L 566.902832 726.410243 " transform="matrix(0.00886714,0.0168432,-0.0194663,0.00840604,45.449651,-4.514083)"/>
<path style="fill:none;stroke-width:1.25;stroke-linecap:butt;stroke-linejoin:miter;stroke:rgb(0%,0%,0%);stroke-opacity:1;stroke-miterlimit:4;" d="M 425.255205 673.326062 L 496.132286 761.798287 L 566.984784 673.270731 " transform="matrix(0.00886714,0.0168432,-0.0194663,0.00840604,45.449651,-4.514083)"/>
<path style="fill:none;stroke-width:1.25;stroke-linecap:butt;stroke-linejoin:miter;stroke:rgb(0%,0%,0%);stroke-opacity:1;stroke-miterlimit:4;" d="M 425.148196 620.100476 L 496.025278 708.572702 L 566.877775 620.045145 " transform="matrix(0.00886714,0.0168432,-0.0194663,0.00840604,45.449651,-4.514083)"/>
<path style="fill:none;stroke-width:1.25;stroke-linecap:butt;stroke-linejoin:miter;stroke:rgb(0%,0%,0%);stroke-opacity:1;stroke-miterlimit:4;" d="M 442.855086 566.962645 L 496.025514 673.255359 L 549.33479 566.903953 " transform="matrix(0.00886714,0.0168432,-0.0194663,0.00840604,45.449651,-4.514083)"/>
<path style="fill-rule:evenodd;fill:rgb(0%,42.745098%,0%);fill-opacity:1;stroke-width:8.25;stroke-linecap:butt;stroke-linejoin:miter;stroke:rgb(100%,100%,100%);stroke-opacity:1;stroke-miterlimit:4;" d="M 496.073177 549.171088 L 513.824321 620.139054 L 549.150588 566.901494 L 531.488956 655.502838 L 566.947792 620.007906 L 531.513488 708.554626 L 566.890967 673.326131 L 531.456663 761.872851 L 566.915499 726.377918 L 531.613764 832.667265 L 566.89397 797.29126 L 531.592235 903.580607 L 566.872442 868.204602 L 531.473434 974.346438 L 513.822567 1027.491112 L 496.003834 1045.298042 L 478.374495 1027.529374 L 460.577291 974.422962 L 425.161513 868.091211 L 460.59882 903.50962 L 425.183041 797.17787 L 460.620349 832.596279 L 425.20457 726.264528 L 460.73915 761.830448 L 425.180038 673.212741 L 460.617345 708.63115 L 425.155506 620.160953 L 460.592813 655.579362 L 442.985003 566.897352 L 478.278977 620.029805 Z M 496.073177 549.171088 " transform="matrix(-0.0122517,0.0151963,-0.0184021,-0.0100208,55.144536,15.452959)"/>
<path style="fill:none;stroke-width:1.25;stroke-linecap:butt;stroke-linejoin:miter;stroke:rgb(0%,0%,0%);stroke-opacity:1;stroke-miterlimit:4;" d="M 496.073177 549.171088 L 496.003834 1045.298042 " transform="matrix(-0.0122517,0.0151963,-0.0184021,-0.0100208,55.144536,15.452959)"/>
<path style="fill:none;stroke-width:1.25;stroke-linecap:butt;stroke-linejoin:miter;stroke:rgb(0%,0%,0%);stroke-opacity:1;stroke-miterlimit:4;" d="M 425.161513 868.091211 L 496.025363 974.3847 L 566.872442 868.204602 " transform="matrix(-0.0122517,0.0151963,-0.0184021,-0.0100208,55.144536,15.452959)"/>
<path style="fill:none;stroke-width:1.25;stroke-linecap:butt;stroke-linejoin:miter;stroke:rgb(0%,0%,0%);stroke-opacity:1;stroke-miterlimit:4;" d="M 425.183041 797.17787 L 496.046891 903.471358 L 566.89397 797.29126 " transform="matrix(-0.0122517,0.0151963,-0.0184021,-0.0100208,55.144536,15.452959)"/>
<path style="fill:none;stroke-width:1.25;stroke-linecap:butt;stroke-linejoin:miter;stroke:rgb(0%,0%,0%);stroke-opacity:1;stroke-miterlimit:4;" d="M 425.301842 726.412039 L 496.165692 832.705527 L 566.915499 726.377918 " transform="matrix(-0.0122517,0.0151963,-0.0184021,-0.0100208,55.144536,15.452959)"/>
<path style="fill:none;stroke-width:1.25;stroke-linecap:butt;stroke-linejoin:miter;stroke:rgb(0%,0%,0%);stroke-opacity:1;stroke-miterlimit:4;" d="M 425.180038 673.212741 L 496.008592 761.911113 L 566.890967 673.326131 " transform="matrix(-0.0122517,0.0151963,-0.0184021,-0.0100208,55.144536,15.452959)"/>
<path style="fill:none;stroke-width:1.25;stroke-linecap:butt;stroke-linejoin:miter;stroke:rgb(0%,0%,0%);stroke-opacity:1;stroke-miterlimit:4;" d="M 425.155506 620.160953 L 496.065416 708.592888 L 566.947792 620.007906 " transform="matrix(-0.0122517,0.0151963,-0.0184021,-0.0100208,55.144536,15.452959)"/>
<path style="fill:none;stroke-width:1.25;stroke-linecap:butt;stroke-linejoin:miter;stroke:rgb(0%,0%,0%);stroke-opacity:1;stroke-miterlimit:4;" d="M 442.985003 566.897352 L 496.076181 673.136217 L 549.150588 566.901494 " transform="matrix(-0.0122517,0.0151963,-0.0184021,-0.0100208,55.144536,15.452959)"/>
<path style="fill-rule:evenodd;fill:rgb(0%,42.745098%,0%);fill-opacity:1;stroke-width:8.25;stroke-linecap:butt;stroke-linejoin:miter;stroke:rgb(100%,100%,100%);stroke-opacity:1;stroke-miterlimit:4;" d="M 496.080007 549.229441 L 513.826698 619.99226 L 549.246431 566.856285 L 531.41922 655.546801 L 566.999602 620.08846 L 531.44809 708.74691 L 566.861342 673.141578 L 531.619934 761.789921 L 566.890212 726.341687 L 531.499349 832.677771 L 566.936758 797.376529 L 531.378764 903.565622 L 566.959147 868.107281 L 513.872853 1027.611407 L 495.999096 1045.267082 L 478.42425 1027.547274 L 460.671078 974.315098 L 425.188891 868.154836 L 460.648689 903.584346 L 425.309476 797.266985 L 460.602143 832.549504 L 425.119956 726.389242 L 460.579754 761.818752 L 425.091086 673.189133 L 460.550883 708.618643 L 425.229346 620.136015 L 460.689144 655.565525 L 442.924778 566.967973 L 478.23512 620.085225 Z M 496.080007 549.229441 " transform="matrix(-0.0121464,-0.0129816,0.0138106,-0.0118145,21.549775,30.944399)"/>
<path style="fill:none;stroke-width:1.25;stroke-linecap:butt;stroke-linejoin:miter;stroke:rgb(0%,0%,0%);stroke-opacity:1;stroke-miterlimit:4;" d="M 496.080007 549.229441 L 495.999096 1045.267082 " transform="matrix(-0.0121464,-0.0129816,0.0138106,-0.0118145,21.549775,30.944399)"/>
<path style="fill:none;stroke-width:1.25;stroke-linecap:butt;stroke-linejoin:miter;stroke:rgb(0%,0%,0%);stroke-opacity:1;stroke-miterlimit:4;" d="M 425.188891 868.154836 L 496.119681 974.379232 L 566.959147 868.107281 " transform="matrix(-0.0121464,-0.0129816,0.0138106,-0.0118145,21.549775,30.944399)"/>
<path style="fill:none;stroke-width:1.25;stroke-linecap:butt;stroke-linejoin:miter;stroke:rgb(0%,0%,0%);stroke-opacity:1;stroke-miterlimit:4;" d="M 425.309476 797.266985 L 496.097292 903.648479 L 566.936758 797.376529 " transform="matrix(-0.0121464,-0.0129816,0.0138106,-0.0118145,21.549775,30.944399)"/>
<path style="fill:none;stroke-width:1.25;stroke-linecap:butt;stroke-linejoin:miter;stroke:rgb(0%,0%,0%);stroke-opacity:1;stroke-miterlimit:4;" d="M 425.119956 726.389242 L 496.050746 832.613638 L 566.890212 726.341687 " transform="matrix(-0.0121464,-0.0129816,0.0138106,-0.0118145,21.549775,30.944399)"/>
<path style="fill:none;stroke-width:1.25;stroke-linecap:butt;stroke-linejoin:miter;stroke:rgb(0%,0%,0%);stroke-opacity:1;stroke-miterlimit:4;" d="M 425.091086 673.189133 L 496.028357 761.882885 L 567.028473 673.288569 " transform="matrix(-0.0121464,-0.0129816,0.0138106,-0.0118145,21.549775,30.944399)"/>
<path style="fill:none;stroke-width:1.25;stroke-linecap:butt;stroke-linejoin:miter;stroke:rgb(0%,0%,0%);stroke-opacity:1;stroke-miterlimit:4;" d="M 425.229346 620.136015 L 495.999487 708.682776 L 566.999602 620.08846 " transform="matrix(-0.0121464,-0.0129816,0.0138106,-0.0118145,21.549775,30.944399)"/>
<path style="fill:none;stroke-width:1.25;stroke-linecap:butt;stroke-linejoin:miter;stroke:rgb(0%,0%,0%);stroke-opacity:1;stroke-miterlimit:4;" d="M 442.924778 566.967973 L 496.131266 673.160302 L 549.246431 566.856285 " transform="matrix(-0.0121464,-0.0129816,0.0138106,-0.0118145,21.549775,30.944399)"/>
<path style="fill-rule:evenodd;fill:rgb(0%,42.745098%,0%);fill-opacity:1;stroke-width:8.25;stroke-linecap:butt;stroke-linejoin:miter;stroke:rgb(100%,100%,100%);stroke-opacity:1;stroke-miterlimit:4;" d="M 460.586023 549.315448 L 489.364831 619.989412 L 531.562581 566.886857 L 521.382427 655.461888 L 549.226094 620.133101 L 531.56473 708.568274 L 556.862617 673.176575 L 531.48006 761.886157 L 566.924929 726.490094 L 531.463066 832.59886 L 566.907935 797.202797 L 531.482209 903.567575 L 566.927078 868.171512 L 531.621345 974.329157 L 513.752353 1027.462667 L 496.107983 1045.185138 L 478.255985 1027.605945 L 460.592472 974.359701 L 425.145454 868.074346 L 460.609466 903.646998 L 425.282439 797.15451 L 460.590323 832.678283 L 425.143304 726.392928 L 460.727308 761.758447 L 414.961001 673.286542 L 460.691987 708.647698 L 407.44447 620.035935 L 450.509684 655.541311 L 425.157332 566.853546 L 460.56903 620.02815 Z M 460.586023 549.315448 " transform="matrix(-0.0211784,-0.0049977,-0.0122686,0.0159635,53.446964,-2.5179)"/>
<path style="fill:none;stroke-width:1.25;stroke-linecap:butt;stroke-linejoin:miter;stroke:rgb(0%,0%,0%);stroke-opacity:1;stroke-miterlimit:4;" d="M 467.218096 584.670826 L 496.068363 708.711552 L 496.107983 1045.185138 " transform="matrix(-0.0211784,-0.0049977,-0.0122686,0.0159635,53.446964,-2.5179)"/>
<path style="fill:none;stroke-width:1.25;stroke-linecap:butt;stroke-linejoin:miter;stroke:rgb(0%,0%,0%);stroke-opacity:1;stroke-miterlimit:4;" d="M 436.296886 885.758079 L 495.968848 974.423556 L 556.727781 885.777828 " transform="matrix(-0.0211784,-0.0049977,-0.0122686,0.0159635,53.446964,-2.5179)"/>
<path style="fill:none;stroke-width:1.25;stroke-linecap:butt;stroke-linejoin:miter;stroke:rgb(0%,0%,0%);stroke-opacity:1;stroke-miterlimit:4;" d="M 434.512607 814.970848 L 496.105834 903.50372 L 556.744775 815.065126 " transform="matrix(-0.0211784,-0.0049977,-0.0122686,0.0159635,53.446964,-2.5179)"/>
<path style="fill:none;stroke-width:1.25;stroke-linecap:butt;stroke-linejoin:miter;stroke:rgb(0%,0%,0%);stroke-opacity:1;stroke-miterlimit:4;" d="M 435.3941 744.039397 L 495.966698 832.742138 L 555.981124 744.108026 " transform="matrix(-0.0211784,-0.0049977,-0.0122686,0.0159635,53.446964,-2.5179)"/>
<path style="fill:none;stroke-width:1.25;stroke-linecap:butt;stroke-linejoin:miter;stroke:rgb(0%,0%,0%);stroke-opacity:1;stroke-miterlimit:4;" d="M 432.812999 690.865735 L 496.103684 761.822302 L 549.2091 690.845803 " transform="matrix(-0.0211784,-0.0049977,-0.0122686,0.0159635,53.446964,-2.5179)"/>
<path style="fill:none;stroke-width:1.25;stroke-linecap:butt;stroke-linejoin:miter;stroke:rgb(0%,0%,0%);stroke-opacity:1;stroke-miterlimit:4;" d="M 425.176476 637.822261 L 496.068363 708.711552 L 541.416448 637.753449 " transform="matrix(-0.0211784,-0.0049977,-0.0122686,0.0159635,53.446964,-2.5179)"/>
<path style="fill:none;stroke-width:1.25;stroke-linecap:butt;stroke-linejoin:miter;stroke:rgb(0%,0%,0%);stroke-opacity:1;stroke-miterlimit:4;" d="M 436.048414 593.264935 L 489.199099 680.13349 L 524.653571 584.544469 " transform="matrix(-0.0211784,-0.0049977,-0.0122686,0.0159635,53.446964,-2.5179)"/>
<path style="fill-rule:evenodd;fill:rgb(0%,42.745098%,0%);fill-opacity:1;stroke-width:8.25;stroke-linecap:butt;stroke-linejoin:miter;stroke:rgb(100%,100%,100%);stroke-opacity:1;stroke-miterlimit:4;" d="M 460.563228 549.142786 L 489.246772 620.162899 L 531.550113 566.907248 L 521.271534 655.534285 L 549.224453 620.098729 L 531.542154 708.708208 L 556.720567 673.21447 L 531.447567 761.85755 L 566.991187 726.388393 L 531.443588 832.75803 L 566.987208 797.288873 L 531.439609 903.65851 L 566.983228 868.189353 L 531.443185 974.352602 L 513.759098 1027.615035 L 496.080779 1045.324034 L 478.408228 1027.4796 L 460.546907 974.339278 L 425.190672 868.162705 L 460.543331 903.645186 L 425.194652 797.262225 L 460.54731 832.744706 L 425.198631 726.361745 L 460.55129 761.844226 L 414.928011 673.187822 L 460.645876 708.694884 L 407.431897 620.072081 L 450.375256 655.520961 L 425.108428 567.016035 L 460.559248 620.043266 Z M 460.563228 549.142786 " transform="matrix(0.0211024,0.00523073,0.000772512,0.0191182,18.809904,-10.813952)"/>
<path style="fill:none;stroke-width:1.25;stroke-linecap:butt;stroke-linejoin:miter;stroke:rgb(0%,0%,0%);stroke-opacity:1;stroke-miterlimit:4;" d="M 467.220808 584.712022 L 496.004302 708.623931 L 496.080779 1045.324034 " transform="matrix(0.0211024,0.00523073,0.000772512,0.0191182,18.809904,-10.813952)"/>
<path style="fill:none;stroke-width:1.25;stroke-linecap:butt;stroke-linejoin:miter;stroke:rgb(0%,0%,0%);stroke-opacity:1;stroke-miterlimit:4;" d="M 436.207432 885.784949 L 496.084759 974.423555 L 556.708629 885.91591 " transform="matrix(0.0211024,0.00523073,0.000772512,0.0191182,18.809904,-10.813952)"/>
<path style="fill:none;stroke-width:1.25;stroke-linecap:butt;stroke-linejoin:miter;stroke:rgb(0%,0%,0%);stroke-opacity:1;stroke-miterlimit:4;" d="M 434.543686 814.932116 L 496.088738 903.523075 L 556.712608 815.01543 " transform="matrix(0.0211024,0.00523073,0.000772512,0.0191182,18.809904,-10.813952)"/>
<path style="fill:none;stroke-width:1.25;stroke-linecap:butt;stroke-linejoin:miter;stroke:rgb(0%,0%,0%);stroke-opacity:1;stroke-miterlimit:4;" d="M 435.475019 743.982234 L 496.092718 832.622595 L 555.976215 744.113194 " transform="matrix(0.0211024,0.00523073,0.000772512,0.0191182,18.809904,-10.813952)"/>
<path style="fill:none;stroke-width:1.25;stroke-linecap:butt;stroke-linejoin:miter;stroke:rgb(0%,0%,0%);stroke-opacity:1;stroke-miterlimit:4;" d="M 432.787544 690.981099 L 496.096697 761.722115 L 549.220473 690.999209 " transform="matrix(0.0211024,0.00523073,0.000772512,0.0191182,18.809904,-10.813952)"/>
<path style="fill:none;stroke-width:1.25;stroke-linecap:butt;stroke-linejoin:miter;stroke:rgb(0%,0%,0%);stroke-opacity:1;stroke-miterlimit:4;" d="M 425.104448 637.916515 L 496.004302 708.623931 L 541.544932 637.728237 " transform="matrix(0.0211024,0.00523073,0.000772512,0.0191182,18.809904,-10.813952)"/>
<path style="fill:none;stroke-width:1.25;stroke-linecap:butt;stroke-linejoin:miter;stroke:rgb(0%,0%,0%);stroke-opacity:1;stroke-miterlimit:4;" d="M 436.181824 593.204267 L 489.269265 680.227123 L 524.603409 584.744901 " transform="matrix(0.0211024,0.00523073,0.000772512,0.0191182,18.809904,-10.813952)"/>
<path style="fill-rule:evenodd;fill:rgb(0%,42.745098%,0%);fill-opacity:1;stroke-width:8.25;stroke-linecap:butt;stroke-linejoin:miter;stroke:rgb(100%,100%,100%);stroke-opacity:1;stroke-miterlimit:4;" d="M 354.42991 531.514111 L 442.840864 620.020603 L 460.685852 566.884733 L 460.673814 655.609003 L 496.138101 620.06039 L 478.405956 708.628339 L 513.697818 673.309026 L 496.173606 761.847552 L 531.42996 726.328361 L 513.875957 832.697577 L 549.132311 797.178386 L 513.685776 903.62058 L 549.150064 868.071967 L 531.596061 974.441182 L 513.751072 1027.577052 L 496.001174 1045.25142 L 478.381875 1027.664164 L 460.614224 974.444951 L 407.42562 892.224089 L 442.911873 903.594926 L 407.412081 797.356377 L 442.894121 832.701345 L 389.674222 726.306475 L 425.19177 761.85132 L 372.150013 673.257717 L 425.108718 708.588551 L 354.382363 620.038504 L 407.58451 655.539793 L 336.584921 584.649981 L 407.471667 620.107714 Z M 354.42991 531.514111 " transform="matrix(0.00269756,-0.0183254,0.019064,0.0032555,9.020497,17.932687)"/>
<path style="fill:none;stroke-width:1.25;stroke-linecap:butt;stroke-linejoin:miter;stroke:rgb(0%,0%,0%);stroke-opacity:1;stroke-miterlimit:4;" d="M 378.891161 560.017544 L 442.953707 655.452682 L 460.721357 708.671894 L 469.405524 753.955835 L 478.263318 832.614233 L 487.678712 903.612357 L 496.001174 1045.25142 " transform="matrix(0.00269756,-0.0183254,0.019064,0.0032555,9.020497,17.932687)"/>
<path style="fill:none;stroke-width:1.25;stroke-linecap:butt;stroke-linejoin:miter;stroke:rgb(0%,0%,0%);stroke-opacity:1;stroke-miterlimit:4;" d="M 425.227275 903.638481 L 488.944067 974.329401 L 539.514697 885.827536 " transform="matrix(0.00269756,-0.0183254,0.019064,0.0032555,9.020497,17.932687)"/>
<path style="fill:none;stroke-width:1.25;stroke-linecap:butt;stroke-linejoin:miter;stroke:rgb(0%,0%,0%);stroke-opacity:1;stroke-miterlimit:4;" d="M 417.160291 815.032887 L 487.678712 903.612357 L 538.421768 814.881192 " transform="matrix(0.00269756,-0.0183254,0.019064,0.0032555,9.020497,17.932687)"/>
<path style="fill:none;stroke-width:1.25;stroke-linecap:butt;stroke-linejoin:miter;stroke:rgb(0%,0%,0%);stroke-opacity:1;stroke-miterlimit:4;" d="M 407.537263 752.465126 L 478.263318 832.614233 L 524.360815 744.130613 " transform="matrix(0.00269756,-0.0183254,0.019064,0.0032555,9.020497,17.932687)"/>
<path style="fill:none;stroke-width:1.25;stroke-linecap:butt;stroke-linejoin:miter;stroke:rgb(0%,0%,0%);stroke-opacity:1;stroke-miterlimit:4;" d="M 372.03717 637.825638 L 460.721357 708.671894 L 486.502735 637.81596 " transform="matrix(0.00269756,-0.0183254,0.019064,0.0032555,9.020497,17.932687)"/>
<path style="fill:none;stroke-width:1.25;stroke-linecap:butt;stroke-linejoin:miter;stroke:rgb(0%,0%,0%);stroke-opacity:1;stroke-miterlimit:4;" d="M 360.619773 602.353943 L 442.953707 655.452682 L 453.343474 602.34722 " transform="matrix(0.00269756,-0.0183254,0.019064,0.0032555,9.020497,17.932687)"/>
<path style="fill:none;stroke-width:1.25;stroke-linecap:butt;stroke-linejoin:miter;stroke:rgb(0%,0%,0%);stroke-opacity:1;stroke-miterlimit:4;" d="M 389.769312 690.844973 L 470.790344 761.75106 L 504.894186 690.946904 " transform="matrix(0.00269756,-0.0183254,0.019064,0.0032555,9.020497,17.932687)"/>
<path style="fill-rule:evenodd;fill:rgb(80.000001%,0%,0%);fill-opacity:1;stroke-width:1.25;stroke-linecap:butt;stroke-linejoin:miter;stroke:rgb(0%,0%,0%);stroke-opacity:1;stroke-miterlimit:4;" d="M 541.328154 1173.228392 L 539.863918 944.166103 L 478.732065 837.190833 C 463.357587 784.697392 471.044826 759.246026 495.570779 757.257638 C 520.462791 755.666928 544.988744 771.176354 580.496466 772.767064 C 616.004189 774.357775 609.415127 713.513104 662.127623 715.103814 C 714.47406 716.694525 806.354868 747.315699 884.325435 752.485507 C 962.296001 757.257638 1003.294609 725.045754 1092.979064 721.864333 C 1183.029577 718.285235 1206.823412 764.415835 1211.948238 764.415835 C 1217.073064 764.415835 1242.331135 745.724988 1267.955265 742.14589 C 1293.213336 738.964469 1301.998752 752.485507 1301.998752 752.485507 C 1301.998752 752.485507 1300.168457 810.148757 1288.454569 843.951352 C 1276.374622 878.151624 1233.911778 933.826486 1232.447542 933.826486 C 1230.617247 933.826486 1217.073064 1183.56801 1217.073064 1185.15872 C 1217.073064 1186.74943 541.328154 1178.398201 541.328154 1173.228392 Z M 541.328154 1173.228392 " transform="matrix(0.0106711,0,0,0.00982266,20.809374,16.264844)"/>
<path style="fill-rule:evenodd;fill:rgb(100%,94.509804%,0%);fill-opacity:1;stroke-width:1.25;stroke-linecap:butt;stroke-linejoin:miter;stroke:rgb(0%,0%,0%);stroke-opacity:1;stroke-miterlimit:4;" d="M 531.56517 584.666308 C 531.56517 584.666308 463.478197 532.570545 461.647902 407.302105 C 460.549725 335.72014 496.057447 283.624376 584.643725 283.624376 C 708.737725 283.624376 885.91028 336.515495 885.91028 336.515495 L 885.91028 354.410986 C 885.91028 354.410986 744.245448 301.12219 584.643725 301.12219 C 513.628279 301.12219 478.486616 353.217954 478.486616 406.50675 C 478.486616 495.188852 549.136002 584.666308 549.136002 584.666308 L 549.136002 726.239529 L 531.56517 726.239529 Z M 531.56517 584.666308 " transform="matrix(-0.0106711,0,0,0.00982266,39.715351,19.745305)"/>
<path style="fill-rule:evenodd;fill:rgb(100%,100%,100%);fill-opacity:1;stroke-width:1.25;stroke-linecap:butt;stroke-linejoin:miter;stroke:rgb(0%,0%,0%);stroke-opacity:1;stroke-miterlimit:4;" d="M 478.208153 549.379693 C 478.208153 558.923955 470.520914 566.877507 460.637321 566.877507 C 450.753728 566.877507 443.06649 558.923955 443.06649 549.379693 C 443.06649 539.437753 450.753728 531.484201 460.637321 531.484201 C 470.520914 531.484201 478.208153 539.437753 478.208153 549.379693 Z M 478.208153 549.379693 " transform="matrix(-0.0106711,0,0,0.00982266,39.54441,19.728632)"/>
<path style="fill-rule:evenodd;fill:rgb(100%,100%,100%);fill-opacity:1;stroke-width:1.25;stroke-linecap:butt;stroke-linejoin:miter;stroke:rgb(0%,0%,0%);stroke-opacity:1;stroke-miterlimit:4;" d="M 478.35372 549.342179 C 478.35372 558.886441 470.300423 566.839992 460.782889 566.839992 C 450.899296 566.839992 442.845998 558.886441 442.845998 549.342179 C 442.845998 539.400239 450.899296 531.446687 460.782889 531.446687 C 470.300423 531.446687 478.35372 539.400239 478.35372 549.342179 Z M 478.35372 549.342179 " transform="matrix(-0.0106711,0,0,0.00982266,39.733464,19.330563)"/>
<path style="fill-rule:evenodd;fill:rgb(100%,100%,100%);fill-opacity:1;stroke-width:1.25;stroke-linecap:butt;stroke-linejoin:miter;stroke:rgb(0%,0%,0%);stroke-opacity:1;stroke-miterlimit:4;" d="M 478.431846 549.251708 C 478.431846 558.79597 470.378548 566.749521 460.494955 566.749521 C 450.977421 566.749521 442.924123 559.193647 442.924123 549.251708 C 442.924123 539.309768 450.977421 531.356216 460.494955 531.356216 C 470.378548 531.356216 478.431846 539.309768 478.431846 549.251708 Z M 478.431846 549.251708 " transform="matrix(-0.0106711,0,0,0.00982266,39.831954,18.925202)"/>
<path style="fill-rule:evenodd;fill:rgb(100%,100%,100%);fill-opacity:1;stroke-width:1.25;stroke-linecap:butt;stroke-linejoin:miter;stroke:rgb(0%,0%,0%);stroke-opacity:1;stroke-miterlimit:4;" d="M 478.266724 549.238501 C 478.266724 559.180441 470.579485 566.736315 460.695892 566.736315 C 450.812299 566.736315 442.759001 559.180441 442.759001 549.238501 C 442.759001 539.296561 450.812299 531.34301 460.695892 531.34301 C 470.579485 531.34301 478.266724 539.296561 478.266724 549.238501 Z M 478.266724 549.238501 " transform="matrix(-0.0106711,0,0,0.00982266,39.90441,18.491738)"/>
<path style="fill-rule:evenodd;fill:rgb(100%,100%,100%);fill-opacity:1;stroke-width:1.25;stroke-linecap:butt;stroke-linejoin:miter;stroke:rgb(0%,0%,0%);stroke-opacity:1;stroke-miterlimit:4;" d="M 478.399019 549.367189 C 478.399019 558.911451 470.345721 566.865003 460.462128 566.865003 C 450.944594 566.865003 442.891296 558.911451 442.891296 549.367189 C 442.891296 539.42525 450.944594 531.471698 460.462128 531.471698 C 470.345721 531.471698 478.399019 539.42525 478.399019 549.367189 Z M 478.399019 549.367189 " transform="matrix(-0.0106711,0,0,0.00982266,39.886291,18.021724)"/>
<path style="fill-rule:evenodd;fill:rgb(100%,100%,100%);fill-opacity:1;stroke-width:1.25;stroke-linecap:butt;stroke-linejoin:miter;stroke:rgb(0%,0%,0%);stroke-opacity:1;stroke-miterlimit:4;" d="M 478.371283 549.128599 C 478.371283 559.070539 470.317985 567.024091 460.800451 567.024091 C 450.916858 567.024091 442.86356 559.070539 442.86356 549.128599 C 442.86356 539.584337 450.916858 531.630786 460.800451 531.630786 C 470.317985 531.630786 478.371283 539.584337 478.371283 549.128599 Z M 478.371283 549.128599 " transform="matrix(-0.0106711,0,0,0.00982266,39.272714,20.078755)"/>
<path style="fill-rule:evenodd;fill:rgb(100%,100%,100%);fill-opacity:1;stroke-width:1.25;stroke-linecap:butt;stroke-linejoin:miter;stroke:rgb(0%,0%,0%);stroke-opacity:1;stroke-miterlimit:4;" d="M 478.342839 549.221947 C 478.342839 559.163887 470.289541 567.117438 460.772007 567.117438 C 450.888414 567.117438 442.835116 559.163887 442.835116 549.221947 C 442.835116 539.280007 450.888414 531.326456 460.772007 531.326456 C 470.289541 531.326456 478.342839 539.280007 478.342839 549.221947 Z M 478.342839 549.221947 " transform="matrix(-0.0106711,0,0,0.00982266,39.725535,17.577838)"/>
<path style="fill-rule:evenodd;fill:rgb(100%,100%,100%);fill-opacity:1;stroke-width:1.25;stroke-linecap:butt;stroke-linejoin:miter;stroke:rgb(0%,0%,0%);stroke-opacity:1;stroke-miterlimit:4;" d="M 478.30663 549.070948 C 478.30663 559.012888 470.253332 566.96644 460.735798 566.96644 C 450.852205 566.96644 442.798907 559.012888 442.798907 549.070948 C 442.798907 539.526686 450.852205 531.573135 460.735798 531.573135 C 470.253332 531.573135 478.30663 539.526686 478.30663 549.070948 Z M 478.30663 549.070948 " transform="matrix(-0.0106711,0,0,0.00982266,39.381399,17.227759)"/>
<path style="fill-rule:evenodd;fill:rgb(100%,100%,100%);fill-opacity:1;stroke-width:1.25;stroke-linecap:butt;stroke-linejoin:miter;stroke:rgb(0%,0%,0%);stroke-opacity:1;stroke-miterlimit:4;" d="M 478.467767 549.367981 C 478.467767 558.912243 470.414469 566.865794 460.530876 566.865794 C 451.013342 566.865794 442.960044 558.912243 442.960044 549.367981 C 442.960044 539.426041 451.013342 531.472489 460.530876 531.472489 C 470.414469 531.472489 478.467767 539.426041 478.467767 549.367981 Z M 478.467767 549.367981 " transform="matrix(-0.0106711,0,0,0.00982266,38.910462,16.994372)"/>
<path style="fill-rule:evenodd;fill:rgb(100%,100%,100%);fill-opacity:1;stroke-width:1.25;stroke-linecap:butt;stroke-linejoin:miter;stroke:rgb(0%,0%,0%);stroke-opacity:1;stroke-miterlimit:4;" d="M 478.261851 549.188876 C 478.261851 559.130816 470.574612 567.084368 460.691019 567.084368 C 450.807426 567.084368 442.754129 559.130816 442.754129 549.188876 C 442.754129 539.246937 450.807426 531.691063 460.691019 531.691063 C 470.574612 531.691063 478.261851 539.246937 478.261851 549.188876 Z M 478.261851 549.188876 " transform="matrix(-0.0106711,0,0,0.00982266,38.439515,16.960976)"/>
<path style="fill-rule:evenodd;fill:rgb(100%,100%,100%);fill-opacity:1;stroke-width:1.25;stroke-linecap:butt;stroke-linejoin:miter;stroke:rgb(0%,0%,0%);stroke-opacity:1;stroke-miterlimit:4;" d="M 478.329517 549.079605 C 478.329517 559.021545 470.276219 566.975096 460.758685 566.975096 C 450.875092 566.975096 442.821794 559.021545 442.821794 549.079605 C 442.821794 539.535343 450.875092 531.581791 460.758685 531.581791 C 470.276219 531.581791 478.329517 539.535343 478.329517 549.079605 Z M 478.329517 549.079605 " transform="matrix(-0.0106711,0,0,0.00982266,37.932424,16.977674)"/>
<path style="fill-rule:evenodd;fill:rgb(100%,100%,100%);fill-opacity:1;stroke-width:1.25;stroke-linecap:butt;stroke-linejoin:miter;stroke:rgb(0%,0%,0%);stroke-opacity:1;stroke-miterlimit:4;" d="M 478.387188 549.050115 C 478.387188 558.992055 470.33389 566.945607 460.450297 566.945607 C 450.932763 566.945607 442.879465 558.992055 442.879465 549.050115 C 442.879465 539.505853 450.932763 531.552302 460.450297 531.552302 C 470.33389 531.552302 478.387188 539.505853 478.387188 549.050115 Z M 478.387188 549.050115 " transform="matrix(-0.0106711,0,0,0.00982266,37.425227,17.04437)"/>
<path style="fill-rule:evenodd;fill:rgb(100%,100%,100%);fill-opacity:1;stroke-width:1.25;stroke-linecap:butt;stroke-linejoin:miter;stroke:rgb(0%,0%,0%);stroke-opacity:1;stroke-miterlimit:4;" d="M 478.444843 549.020626 C 478.444843 558.962565 470.391546 566.916117 460.507953 566.916117 C 450.990419 566.916117 442.937121 558.962565 442.937121 549.020626 C 442.937121 539.476364 450.990419 531.522812 460.507953 531.522812 C 470.391546 531.522812 478.444843 539.476364 478.444843 549.020626 Z M 478.444843 549.020626 " transform="matrix(-0.0106711,0,0,0.00982266,36.91803,17.111066)"/>
<path style="fill-rule:evenodd;fill:rgb(100%,100%,100%);fill-opacity:1;stroke-width:1.25;stroke-linecap:butt;stroke-linejoin:miter;stroke:rgb(0%,0%,0%);stroke-opacity:1;stroke-miterlimit:4;" d="M 478.407061 549.289552 C 478.407061 558.833814 470.353763 566.787366 460.47017 566.787366 C 450.952636 566.787366 442.899338 558.833814 442.899338 549.289552 C 442.899338 539.347613 450.952636 531.394061 460.47017 531.394061 C 470.353763 531.394061 478.407061 539.347613 478.407061 549.289552 Z M 478.407061 549.289552 " transform="matrix(-0.0106711,0,0,0.00982266,36.374658,17.194362)"/>
<path style="fill-rule:evenodd;fill:rgb(100%,100%,100%);fill-opacity:1;stroke-width:1.25;stroke-linecap:butt;stroke-linejoin:miter;stroke:rgb(0%,0%,0%);stroke-opacity:1;stroke-miterlimit:4;" d="M 478.204136 549.329865 C 478.204136 558.874127 470.516897 566.827679 460.633304 566.827679 C 450.749711 566.827679 443.062472 558.874127 443.062472 549.329865 C 443.062472 539.387925 450.749711 531.434374 460.633304 531.434374 C 470.516897 531.434374 478.204136 539.387925 478.204136 549.329865 Z M 478.204136 549.329865 " transform="matrix(-0.0106711,0,0,0.00982266,35.903743,17.311153)"/>
<path style="fill-rule:evenodd;fill:rgb(100%,100%,100%);fill-opacity:1;stroke-width:1.25;stroke-linecap:butt;stroke-linejoin:miter;stroke:rgb(0%,0%,0%);stroke-opacity:1;stroke-miterlimit:4;" d="M 478.453603 549.382274 C 478.453603 558.926537 470.400305 566.880088 460.516712 566.880088 C 450.999178 566.880088 442.94588 558.926537 442.94588 549.382274 C 442.94588 539.440335 450.999178 531.486783 460.516712 531.486783 C 470.400305 531.486783 478.453603 539.440335 478.453603 549.382274 Z M 478.453603 549.382274 " transform="matrix(0.0106711,0,0,0.00982266,20.980314,19.728607)"/>
<path style="fill-rule:evenodd;fill:rgb(100%,100%,100%);fill-opacity:1;stroke-width:1.25;stroke-linecap:butt;stroke-linejoin:miter;stroke:rgb(0%,0%,0%);stroke-opacity:1;stroke-miterlimit:4;" d="M 478.233511 549.33918 C 478.233511 558.883442 470.546272 566.836994 460.662679 566.836994 C 450.779086 566.836994 443.091847 558.883442 443.091847 549.33918 C 443.091847 539.397241 450.779086 531.443689 460.662679 531.443689 C 470.546272 531.443689 478.233511 539.397241 478.233511 549.33918 Z M 478.233511 549.33918 " transform="matrix(0.0106711,0,0,0.00982266,20.791256,19.330593)"/>
<path style="fill-rule:evenodd;fill:rgb(100%,100%,100%);fill-opacity:1;stroke-width:1.25;stroke-linecap:butt;stroke-linejoin:miter;stroke:rgb(0%,0%,0%);stroke-opacity:1;stroke-miterlimit:4;" d="M 478.312236 549.2507 C 478.312236 559.19264 470.258938 566.748514 460.741405 566.748514 C 450.857812 566.748514 442.804514 559.19264 442.804514 549.2507 C 442.804514 539.308761 450.857812 531.355209 460.741405 531.355209 C 470.258938 531.355209 478.312236 539.308761 478.312236 549.2507 Z M 478.312236 549.2507 " transform="matrix(0.0106711,0,0,0.00982266,20.69276,18.925212)"/>
<path style="fill-rule:evenodd;fill:rgb(100%,100%,100%);fill-opacity:1;stroke-width:1.25;stroke-linecap:butt;stroke-linejoin:miter;stroke:rgb(0%,0%,0%);stroke-opacity:1;stroke-miterlimit:4;" d="M 478.512173 549.238478 C 478.512173 559.180418 470.458875 566.736292 460.575282 566.736292 C 450.691689 566.736292 443.00445 559.180418 443.00445 549.238478 C 443.00445 539.296539 450.691689 531.342987 460.575282 531.342987 C 470.458875 531.342987 478.512173 539.296539 478.512173 549.238478 Z M 478.512173 549.238478 " transform="matrix(0.0106711,0,0,0.00982266,20.620314,18.491738)"/>
<path style="fill-rule:evenodd;fill:rgb(100%,100%,100%);fill-opacity:1;stroke-width:1.25;stroke-linecap:butt;stroke-linejoin:miter;stroke:rgb(0%,0%,0%);stroke-opacity:1;stroke-miterlimit:4;" d="M 478.27941 549.367174 C 478.27941 558.911436 470.592172 566.864988 460.708579 566.864988 C 450.824986 566.864988 442.771688 558.911436 442.771688 549.367174 C 442.771688 539.425234 450.824986 531.471683 460.708579 531.471683 C 470.592172 531.471683 478.27941 539.425234 478.27941 549.367174 Z M 478.27941 549.367174 " transform="matrix(0.0106711,0,0,0.00982266,20.638423,18.021724)"/>
<path style="fill-rule:evenodd;fill:rgb(100%,100%,100%);fill-opacity:1;stroke-width:1.25;stroke-linecap:butt;stroke-linejoin:miter;stroke:rgb(0%,0%,0%);stroke-opacity:1;stroke-miterlimit:4;" d="M 478.222689 549.221932 C 478.222689 559.163871 470.53545 567.117423 460.651857 567.117423 C 450.768264 567.117423 443.081025 559.163871 443.081025 549.221932 C 443.081025 539.279992 450.768264 531.32644 460.651857 531.32644 C 470.53545 531.32644 478.222689 539.279992 478.222689 549.221932 Z M 478.222689 549.221932 " transform="matrix(0.0106711,0,0,0.00982266,20.799184,17.577838)"/>
<path style="fill-rule:evenodd;fill:rgb(100%,100%,100%);fill-opacity:1;stroke-width:1.25;stroke-linecap:butt;stroke-linejoin:miter;stroke:rgb(0%,0%,0%);stroke-opacity:1;stroke-miterlimit:4;" d="M 478.186021 549.071948 C 478.186021 559.013888 470.498782 566.967439 460.615189 566.967439 C 450.731596 566.967439 443.044357 559.013888 443.044357 549.071948 C 443.044357 539.527686 450.731596 531.574134 460.615189 531.574134 C 470.498782 531.574134 478.186021 539.527686 478.186021 549.071948 Z M 478.186021 549.071948 " transform="matrix(0.0106711,0,0,0.00982266,21.143326,17.227749)"/>
<path style="fill-rule:evenodd;fill:rgb(100%,100%,100%);fill-opacity:1;stroke-width:1.25;stroke-linecap:butt;stroke-linejoin:miter;stroke:rgb(0%,0%,0%);stroke-opacity:1;stroke-miterlimit:4;" d="M 478.348157 549.371971 C 478.348157 558.916233 470.294859 566.869785 460.777325 566.869785 C 450.893732 566.869785 442.840434 558.916233 442.840434 549.371971 C 442.840434 539.430031 450.893732 531.47648 460.777325 531.47648 C 470.294859 531.47648 478.348157 539.430031 478.348157 549.371971 Z M 478.348157 549.371971 " transform="matrix(0.0106711,0,0,0.00982266,21.614252,16.994333)"/>
<path style="fill-rule:evenodd;fill:rgb(100%,100%,100%);fill-opacity:1;stroke-width:1.25;stroke-linecap:butt;stroke-linejoin:miter;stroke:rgb(0%,0%,0%);stroke-opacity:1;stroke-miterlimit:4;" d="M 478.507301 549.187869 C 478.507301 559.129809 470.454003 567.083361 460.57041 567.083361 C 450.686817 567.083361 442.999578 559.129809 442.999578 549.187869 C 442.999578 539.24593 450.686817 531.690056 460.57041 531.690056 C 470.454003 531.690056 478.507301 539.24593 478.507301 549.187869 Z M 478.507301 549.187869 " transform="matrix(0.0106711,0,0,0.00982266,22.08521,16.960985)"/>
<path style="fill-rule:evenodd;fill:rgb(100%,100%,100%);fill-opacity:1;stroke-width:1.25;stroke-linecap:butt;stroke-linejoin:miter;stroke:rgb(0%,0%,0%);stroke-opacity:1;stroke-miterlimit:4;" d="M 478.208907 549.081581 C 478.208907 559.023521 470.521668 566.977072 460.638075 566.977072 C 450.754482 566.977072 443.067243 559.023521 443.067243 549.081581 C 443.067243 539.537319 450.754482 531.583767 460.638075 531.583767 C 470.521668 531.583767 478.208907 539.537319 478.208907 549.081581 Z M 478.208907 549.081581 " transform="matrix(0.0106711,0,0,0.00982266,22.5923,16.977654)"/>
<path style="fill-rule:evenodd;fill:rgb(100%,100%,100%);fill-opacity:1;stroke-width:1.25;stroke-linecap:butt;stroke-linejoin:miter;stroke:rgb(0%,0%,0%);stroke-opacity:1;stroke-miterlimit:4;" d="M 478.266578 549.052099 C 478.266578 558.994039 470.579339 566.94759 460.695746 566.94759 C 450.812153 566.94759 442.758855 558.994039 442.758855 549.052099 C 442.758855 539.507837 450.812153 531.554285 460.695746 531.554285 C 470.579339 531.554285 478.266578 539.507837 478.266578 549.052099 Z M 478.266578 549.052099 " transform="matrix(0.0106711,0,0,0.00982266,23.099497,17.04435)"/>
<path style="fill-rule:evenodd;fill:rgb(100%,100%,100%);fill-opacity:1;stroke-width:1.25;stroke-linecap:butt;stroke-linejoin:miter;stroke:rgb(0%,0%,0%);stroke-opacity:1;stroke-miterlimit:4;" d="M 478.324234 549.023617 C 478.324234 558.965556 470.270936 566.919108 460.753402 566.919108 C 450.869809 566.919108 442.816511 558.965556 442.816511 549.023617 C 442.816511 539.479354 450.869809 531.525803 460.753402 531.525803 C 470.270936 531.525803 478.324234 539.479354 478.324234 549.023617 Z M 478.324234 549.023617 " transform="matrix(0.0106711,0,0,0.00982266,23.606695,17.111036)"/>
<path style="fill-rule:evenodd;fill:rgb(100%,100%,100%);fill-opacity:1;stroke-width:1.25;stroke-linecap:butt;stroke-linejoin:miter;stroke:rgb(0%,0%,0%);stroke-opacity:1;stroke-miterlimit:4;" d="M 478.286452 549.285524 C 478.286452 558.829786 470.599213 566.783338 460.71562 566.783338 C 450.832027 566.783338 442.778729 558.829786 442.778729 549.285524 C 442.778729 539.343584 450.832027 531.390033 460.71562 531.390033 C 470.599213 531.390033 478.286452 539.343584 478.286452 549.285524 Z M 478.286452 549.285524 " transform="matrix(0.0106711,0,0,0.00982266,24.150067,17.194401)"/>
<path style="fill-rule:evenodd;fill:rgb(100%,100%,100%);fill-opacity:1;stroke-width:1.25;stroke-linecap:butt;stroke-linejoin:miter;stroke:rgb(0%,0%,0%);stroke-opacity:1;stroke-miterlimit:4;" d="M 478.449586 549.329857 C 478.449586 558.87412 470.396288 566.827671 460.512695 566.827671 C 450.995161 566.827671 442.941863 558.87412 442.941863 549.329857 C 442.941863 539.387918 450.995161 531.434366 460.512695 531.434366 C 470.396288 531.434366 478.449586 539.387918 478.449586 549.329857 Z M 478.449586 549.329857 " transform="matrix(0.0106711,0,0,0.00982266,24.620982,17.311153)"/>
<path style="fill-rule:evenodd;fill:rgb(100%,100%,100%);fill-opacity:1;stroke-width:1.25;stroke-linecap:butt;stroke-linejoin:miter;stroke:rgb(0%,0%,0%);stroke-opacity:1;stroke-miterlimit:4;" d="M 478.251673 549.125586 C 478.251673 559.067525 470.564434 567.021077 460.680841 567.021077 C 450.797248 567.021077 442.74395 559.067525 442.74395 549.125586 C 442.74395 539.581324 450.797248 531.627772 460.680841 531.627772 C 470.564434 531.627772 478.251673 539.581324 478.251673 549.125586 Z M 478.251673 549.125586 " transform="matrix(0.0106711,0,0,0.00982266,21.252,20.078785)"/>
<path style="fill-rule:evenodd;fill:rgb(100%,94.509804%,0%);fill-opacity:1;stroke-width:1.25;stroke-linecap:butt;stroke-linejoin:miter;stroke:rgb(0%,0%,0%);stroke-opacity:1;stroke-miterlimit:4;" d="M 531.445018 584.666308 C 531.445018 584.666308 463.358045 532.570545 461.52775 407.302105 C 460.795632 335.72014 495.937296 283.624376 584.523573 283.624376 C 708.617573 283.624376 885.790129 336.515495 885.790129 336.515495 L 885.790129 354.410986 C 885.790129 354.410986 744.125296 301.12219 584.523573 301.12219 C 513.874187 301.12219 478.366464 353.217954 478.366464 406.50675 C 478.366464 495.188852 549.381909 584.666308 549.381909 584.666308 L 549.381909 726.239529 L 531.445018 726.239529 Z M 531.445018 584.666308 " transform="matrix(0.0106711,0,0,0.00982266,20.809369,19.745305)"/>
<path style="fill-rule:evenodd;fill:rgb(100%,94.509804%,0%);fill-opacity:1;stroke-width:2.9915;stroke-linecap:butt;stroke-linejoin:miter;stroke:rgb(0%,0%,0%);stroke-opacity:1;stroke-miterlimit:4;" d="M 1240.238051 531.048948 C 1240.238051 531.048948 1255.612682 495.556002 1310.52208 495.556002 C 1348.958659 495.556002 1381.904297 531.048948 1381.904297 566.541894 L 1381.904297 637.527786 L 1417.046312 637.527786 L 1417.046312 566.541894 C 1417.046312 531.048948 1453.286515 495.556002 1488.428529 495.556002 C 1541.141551 495.556002 1558.712559 531.048948 1558.712559 531.048948 C 1558.712559 531.048948 1558.712559 425.61402 1488.428529 425.61402 C 1434.617319 425.61402 1417.046312 461.106966 1417.046312 461.106966 C 1417.046312 461.106966 1434.617319 407.867547 1434.617319 354.628128 C 1434.617319 301.38871 1399.475305 265.895764 1399.475305 265.895764 C 1399.475305 272.159225 1364.33329 301.38871 1364.33329 354.628128 C 1364.33329 407.867547 1381.904297 461.106966 1381.904297 461.106966 C 1381.904297 461.106966 1364.33329 425.61402 1310.52208 425.61402 C 1240.238051 425.61402 1240.238051 531.048948 1240.238051 531.048948 Z M 1240.238051 531.048948 " transform="matrix(0.003557,0,0,0.00374194,23.393166,24.145659)"/>
<path style="fill-rule:evenodd;fill:rgb(100%,94.509804%,0%);fill-opacity:1;stroke-width:2.9915;stroke-linecap:butt;stroke-linejoin:miter;stroke:rgb(0%,0%,0%);stroke-opacity:1;stroke-miterlimit:4;" d="M 1240.28333 531.048948 C 1240.28333 531.048948 1255.657962 495.556002 1310.56736 495.556002 C 1349.003938 495.556002 1381.949577 531.048948 1381.949577 566.541894 L 1381.949577 637.527786 L 1417.091592 637.527786 L 1417.091592 566.541894 C 1417.091592 531.048948 1453.331794 495.556002 1488.473809 495.556002 C 1541.186831 495.556002 1558.757838 531.048948 1558.757838 531.048948 C 1558.757838 531.048948 1558.757838 425.61402 1488.473809 425.61402 C 1434.662599 425.61402 1417.091592 461.106966 1417.091592 461.106966 C 1417.091592 461.106966 1434.662599 407.867547 1434.662599 354.628128 C 1434.662599 301.38871 1399.520584 265.895764 1399.520584 265.895764 C 1399.520584 272.159225 1364.37857 301.38871 1364.37857 354.628128 C 1364.37857 407.867547 1381.949577 461.106966 1381.949577 461.106966 C 1381.949577 461.106966 1364.37857 425.61402 1310.56736 425.61402 C 1240.28333 425.61402 1240.28333 531.048948 1240.28333 531.048948 Z M 1240.28333 531.048948 " transform="matrix(0.003557,0,0,0.00374194,27.174255,24.145659)"/>
<path style="fill-rule:evenodd;fill:rgb(100%,94.509804%,0%);fill-opacity:1;stroke-width:1.25;stroke-linecap:butt;stroke-linejoin:miter;stroke:rgb(0%,0%,0%);stroke-opacity:1;stroke-miterlimit:4;" d="M 531.445018 832.817121 L 531.445018 673.34841 C 531.445018 673.34841 566.952741 726.239529 620.031296 726.239529 C 663.592317 726.239529 708.617573 655.452918 708.617573 655.452918 C 708.617573 655.452918 750.348299 708.741715 797.203851 708.741715 C 839.300636 708.741715 885.790129 639.943493 885.790129 639.943493 C 885.790129 639.943493 928.98509 708.741715 974.376406 708.741715 C 1019.767722 708.741715 1062.962684 655.452918 1062.962684 655.452918 C 1062.962684 655.452918 1109.452176 726.239529 1169.119793 726.239529 C 1222.564407 726.239529 1240.135239 673.34841 1240.135239 673.34841 L 1240.135239 832.817121 Z M 531.445018 832.817121 " transform="matrix(0.0106711,0,0,0.00982266,20.809369,19.745305)"/>
<path style="fill-rule:evenodd;fill:rgb(100%,94.509804%,0%);fill-opacity:1;stroke-width:1.25;stroke-linecap:butt;stroke-linejoin:miter;stroke:rgb(0%,0%,0%);stroke-opacity:1;stroke-miterlimit:4;" d="M 708.614559 832.817121 L 708.614559 708.741715 C 708.614559 708.741715 815.137727 744.13502 815.137727 832.817121 Z M 708.614559 832.817121 " transform="matrix(0.0106711,0,0,0.00982266,18.918776,19.745305)"/>
<path style="fill-rule:evenodd;fill:rgb(100%,94.509804%,0%);fill-opacity:1;stroke-width:1.25;stroke-linecap:butt;stroke-linejoin:miter;stroke:rgb(0%,0%,0%);stroke-opacity:1;stroke-miterlimit:4;" d="M 708.665268 832.817121 L 708.665268 708.741715 C 708.665268 708.741715 814.822377 744.13502 814.822377 832.817121 Z M 708.665268 832.817121 " transform="matrix(-0.0106711,0,0,0.00982266,41.605202,19.745305)"/>
<path style="fill-rule:evenodd;fill:rgb(100%,94.509804%,0%);fill-opacity:1;stroke-width:1.25;stroke-linecap:butt;stroke-linejoin:miter;stroke:rgb(0%,0%,0%);stroke-opacity:1;stroke-miterlimit:4;" d="M 602.460464 832.817121 C 602.460464 744.13502 708.617573 688.06248 708.617573 688.06248 C 708.617573 688.06248 815.140742 744.13502 815.140742 832.817121 Z M 602.460464 832.817121 " transform="matrix(0.0106711,0,0,0.00982266,20.809369,19.745305)"/>
<path style="fill-rule:evenodd;fill:rgb(100%,94.509804%,0%);fill-opacity:1;stroke-width:1.25;stroke-linecap:butt;stroke-linejoin:miter;stroke:rgb(0%,0%,0%);stroke-opacity:1;stroke-miterlimit:4;" d="M 602.47513 832.817121 C 602.47513 744.13502 708.632239 688.06248 708.632239 688.06248 C 708.632239 688.06248 814.789349 744.13502 814.789349 832.817121 Z M 602.47513 832.817121 " transform="matrix(0.0106711,0,0,0.00982266,24.590462,19.745305)"/>
<path style="fill-rule:evenodd;fill:rgb(100%,94.509804%,0%);fill-opacity:1;stroke-width:1.25;stroke-linecap:butt;stroke-linejoin:miter;stroke:rgb(0%,0%,0%);stroke-opacity:1;stroke-miterlimit:4;" d="M 584.535667 847.667097 C 584.535667 758.984995 708.629667 688.198385 708.629667 688.198385 C 708.629667 688.198385 832.723667 758.984995 832.723667 847.667097 Z M 584.535667 847.667097 " transform="matrix(0.0106711,0,0,0.00982266,22.699865,19.599439)"/>
<path style="fill-rule:evenodd;fill:rgb(100%,100%,100%);fill-opacity:1;stroke-width:1.25;stroke-linecap:butt;stroke-linejoin:miter;stroke:rgb(0%,0%,0%);stroke-opacity:1;stroke-miterlimit:4;" d="M 1275.426615 655.647108 C 1240.255689 637.751617 1109.567931 620.253803 899.282815 620.253803 C 688.997698 620.253803 549.054433 637.751617 513.883507 655.647108 C 478.342361 673.144922 478.342361 708.538227 513.883507 726.433718 C 549.054433 743.931532 688.997698 761.827023 899.282815 761.827023 C 1109.567931 761.827023 1240.255689 743.931532 1275.426615 726.433718 C 1310.967762 708.538227 1310.967762 673.144922 1275.426615 655.647108 Z M 1275.426615 655.647108 " transform="matrix(0.0105512,0,0,0.00982266,20.77325,21.485585)"/>
<path style=" stroke:none;fill-rule:evenodd;fill:rgb(50.196081%,50.196081%,50.196081%);fill-opacity:1;" d="M 34.042969 28.621094 C 34.042969 28.96875 30.898438 28.96875 30.261719 28.96875 C 29.574219 28.96875 26.480469 29.0625 26.480469 28.621094 C 26.480469 28.273438 29.601562 28.273438 30.261719 28.273438 C 30.925781 28.273438 34.042969 28.34375 34.042969 28.621094 Z M 34.042969 28.621094 "/>
<path style=" stroke:none;fill-rule:evenodd;fill:rgb(80.000001%,0%,0%);fill-opacity:1;" d="M 26.859375 27.371094 C 26.859375 27.484375 26.773438 27.578125 26.671875 27.578125 C 26.566406 27.578125 26.480469 27.484375 26.480469 27.371094 C 26.480469 27.257812 26.566406 27.164062 26.671875 27.164062 C 26.773438 27.164062 26.859375 27.257812 26.859375 27.371094 Z M 26.859375 27.371094 "/>
<path style=" stroke:none;fill-rule:evenodd;fill:rgb(80.000001%,0%,0%);fill-opacity:1;" d="M 34.042969 27.371094 C 34.042969 27.484375 33.957031 27.578125 33.855469 27.578125 C 33.75 27.578125 33.664062 27.484375 33.664062 27.371094 C 33.664062 27.257812 33.75 27.164062 33.855469 27.164062 C 33.957031 27.164062 34.042969 27.257812 34.042969 27.371094 Z M 34.042969 27.371094 "/>
<path style=" stroke:none;fill-rule:evenodd;fill:rgb(0%,0%,0%);fill-opacity:1;" d="M 30.640625 27.261719 C 30.640625 27.375 30.472656 27.464844 30.261719 27.464844 C 30.054688 27.464844 29.882812 27.375 29.882812 27.261719 C 29.882812 27.148438 30.054688 27.054688 30.261719 27.054688 C 30.472656 27.054688 30.640625 27.148438 30.640625 27.261719 Z M 30.640625 27.261719 "/>
<path style=" stroke:none;fill-rule:evenodd;fill:rgb(0%,38.82353%,0%);fill-opacity:1;" d="M 32.453125 27.261719 C 32.453125 27.375 32.328125 27.464844 32.171875 27.464844 C 32.015625 27.464844 31.886719 27.375 31.886719 27.261719 C 31.886719 27.148438 32.015625 27.054688 32.171875 27.054688 C 32.328125 27.054688 32.453125 27.148438 32.453125 27.261719 Z M 32.453125 27.261719 "/>
<path style=" stroke:none;fill-rule:evenodd;fill:rgb(0%,38.82353%,0%);fill-opacity:1;" d="M 28.5625 27.261719 C 28.5625 27.375 28.433594 27.464844 28.277344 27.464844 C 28.121094 27.464844 27.992188 27.375 27.992188 27.261719 C 27.992188 27.148438 28.121094 27.054688 28.277344 27.054688 C 28.433594 27.054688 28.5625 27.148438 28.5625 27.261719 Z M 28.5625 27.261719 "/>
<path style="fill-rule:evenodd;fill:rgb(100%,94.509804%,0%);fill-opacity:1;stroke-width:2.1875;stroke-linecap:butt;stroke-linejoin:miter;stroke:rgb(0%,0%,0%);stroke-opacity:1;stroke-miterlimit:4;" d="M 1258.188142 495.838927 C 1258.188142 495.838927 1293.422466 442.947943 1328.656789 442.947943 L 1363.891113 442.947943 L 1363.891113 478.440577 C 1363.891113 531.331561 1311.35994 549.425845 1311.35994 549.425845 L 1452.937858 549.425845 C 1452.937858 549.425845 1399.766061 531.331561 1399.766061 478.440577 L 1399.766061 442.947943 L 1435.000384 442.947943 C 1470.234708 442.947943 1506.109656 495.838927 1506.109656 495.838927 L 1506.109656 354.564325 C 1506.109656 354.564325 1470.234708 407.455309 1435.000384 407.455309 L 1399.766061 407.455309 L 1399.766061 371.962675 C 1399.766061 319.071691 1452.937858 300.977407 1452.937858 300.977407 L 1311.35994 300.977407 C 1311.35994 300.977407 1363.891113 319.071691 1363.891113 371.962675 L 1363.891113 407.455309 L 1328.656789 407.455309 C 1293.422466 407.455309 1258.188142 354.564325 1258.188142 354.564325 Z M 1258.188142 495.838927 " transform="matrix(0.00609757,0,0,0.00561296,21.835922,23.275469)"/>
<path style="fill-rule:evenodd;fill:rgb(100%,94.509804%,0%);fill-opacity:1;stroke-width:3.3072;stroke-linecap:butt;stroke-linejoin:miter;stroke:rgb(0%,0%,0%);stroke-opacity:1;stroke-miterlimit:4;" d="M 1381.69668 549.363373 L 1452.164092 549.363373 C 1452.164092 549.363373 1399.633839 531.86556 1399.633839 478.576763 L 1399.633839 442.785781 L 1435.508158 442.785781 C 1470.101252 442.785781 1505.975571 496.074577 1505.975571 496.074577 L 1505.975571 354.501357 C 1505.975571 354.501357 1470.101252 407.790153 1435.508158 407.790153 L 1399.633839 407.790153 L 1399.633839 371.99917 C 1399.633839 318.710374 1452.164092 301.21256 1452.164092 301.21256 L 1381.69668 301.21256 Z M 1381.69668 549.363373 " transform="matrix(0.00304884,0,0,0.00491133,22.267899,24.008928)"/>
<path style="fill-rule:evenodd;fill:rgb(100%,94.509804%,0%);fill-opacity:1;stroke-width:3.3072;stroke-linecap:butt;stroke-linejoin:miter;stroke:rgb(0%,0%,0%);stroke-opacity:1;stroke-miterlimit:4;" d="M 1382.048964 549.363373 L 1452.516376 549.363373 C 1452.516376 549.363373 1399.986123 531.86556 1399.986123 478.576763 L 1399.986123 442.785781 L 1434.579217 442.785781 C 1470.453536 442.785781 1506.327855 496.074577 1506.327855 496.074577 L 1506.327855 354.501357 C 1506.327855 354.501357 1470.453536 407.790153 1434.579217 407.790153 L 1399.986123 407.790153 L 1399.986123 371.99917 C 1399.986123 318.710374 1452.516376 301.21256 1452.516376 301.21256 L 1382.048964 301.21256 Z M 1382.048964 549.363373 " transform="matrix(-0.00304884,0,0,0.00491133,38.256613,24.008928)"/>
<path style="fill-rule:evenodd;fill:rgb(100%,100%,100%);fill-opacity:1;stroke-width:1.25;stroke-linecap:butt;stroke-linejoin:miter;stroke:rgb(0%,0%,0%);stroke-opacity:1;stroke-miterlimit:4;" d="M 903.36096 602.164122 C 903.36096 612.106062 895.673722 620.059613 885.790129 620.059613 C 875.906536 620.059613 868.219297 612.106062 868.219297 602.164122 C 868.219297 592.61986 875.906536 584.666308 885.790129 584.666308 C 895.673722 584.666308 903.36096 592.61986 903.36096 602.164122 Z M 903.36096 602.164122 " transform="matrix(0.0106711,0,0,0.00982266,20.809369,19.745305)"/>
<path style="fill-rule:evenodd;fill:rgb(100%,94.509804%,0%);fill-opacity:1;stroke-width:2.1875;stroke-linecap:butt;stroke-linejoin:miter;stroke:rgb(0%,0%,0%);stroke-opacity:1;stroke-miterlimit:4;" d="M 1258.182881 496.208939 C 1258.182881 496.208939 1293.417205 442.62202 1328.651529 442.62202 L 1363.885852 442.62202 L 1363.885852 478.114655 C 1363.885852 531.701573 1311.354679 549.099923 1311.354679 549.099923 L 1452.932598 549.099923 C 1452.932598 549.099923 1399.7608 531.701573 1399.7608 478.114655 L 1399.7608 442.62202 L 1434.995124 442.62202 C 1470.229447 442.62202 1506.104395 496.208939 1506.104395 496.208939 L 1506.104395 354.238402 C 1506.104395 354.238402 1470.229447 407.82532 1434.995124 407.82532 L 1399.7608 407.82532 L 1399.7608 372.332686 C 1399.7608 318.745768 1452.932598 301.347418 1452.932598 301.347418 L 1311.354679 301.347418 C 1311.354679 301.347418 1363.885852 318.745768 1363.885852 372.332686 L 1363.885852 407.82532 L 1328.651529 407.82532 C 1293.417205 407.82532 1258.182881 354.238402 1258.182881 354.238402 Z M 1258.182881 496.208939 " transform="matrix(0.00609757,0,0,0.00561296,21.835954,19.621049)"/>
<path style="fill-rule:evenodd;fill:rgb(100%,100%,100%);fill-opacity:1;stroke-width:1.25;stroke-linecap:butt;stroke-linejoin:miter;stroke:rgb(0%,0%,0%);stroke-opacity:1;stroke-miterlimit:4;" d="M 903.493898 602.194309 C 903.493898 612.136249 895.4406 620.089801 885.923066 620.089801 C 876.039473 620.089801 867.986175 612.136249 867.986175 602.194309 C 867.986175 592.650047 876.039473 584.696496 885.923066 584.696496 C 895.4406 584.696496 903.493898 592.650047 903.493898 602.194309 Z M 903.493898 602.194309 " transform="matrix(0.0106711,0,0,0.00982266,20.827482,16.120009)"/>
<path style="fill-rule:evenodd;fill:rgb(100%,94.509804%,0%);fill-opacity:1;stroke-width:1.25;stroke-linecap:butt;stroke-linejoin:miter;stroke:rgb(0%,0%,0%);stroke-opacity:1;stroke-miterlimit:4;" d="M 850.281948 655.452177 L 921.297394 655.452177 L 921.297394 708.740973 L 850.281948 708.740973 Z M 850.281948 655.452177 " transform="matrix(0.0106711,0,0,0.00982266,20.809374,16.264844)"/>
<path style="fill-rule:evenodd;fill:rgb(100%,94.509804%,0%);fill-opacity:1;stroke-width:1.25;stroke-linecap:butt;stroke-linejoin:miter;stroke:rgb(0%,0%,0%);stroke-opacity:1;stroke-miterlimit:4;" d="M 850.281948 683.289608 L 921.297394 683.289608 L 921.297394 885.707498 L 850.281948 885.707498 Z M 850.281948 683.289608 " transform="matrix(0.0106711,0,0,0.00982266,20.809374,16.264844)"/>
<path style="fill-rule:evenodd;fill:rgb(100%,100%,100%);fill-opacity:1;stroke-width:1.25;stroke-linecap:butt;stroke-linejoin:miter;stroke:rgb(0%,0%,0%);stroke-opacity:1;stroke-miterlimit:4;" d="M 478.526549 549.134201 C 478.526549 559.07614 470.473252 567.029692 460.589659 567.029692 C 450.706066 567.029692 443.018827 559.07614 443.018827 549.134201 C 443.018827 539.589939 450.706066 531.636387 460.589659 531.636387 C 470.473252 531.636387 478.526549 539.589939 478.526549 549.134201 Z M 478.526549 549.134201 " transform="matrix(0.0106711,0,0,0.00982266,25.346723,19.223231)"/>
<path style="fill-rule:evenodd;fill:rgb(100%,100%,100%);fill-opacity:1;stroke-width:1.25;stroke-linecap:butt;stroke-linejoin:miter;stroke:rgb(0%,0%,0%);stroke-opacity:1;stroke-miterlimit:4;" d="M 478.526549 549.231265 C 478.526549 559.173205 470.473252 566.729079 460.589659 566.729079 C 450.706066 566.729079 443.018827 559.173205 443.018827 549.231265 C 443.018827 539.289325 450.706066 531.335774 460.589659 531.335774 C 470.473252 531.335774 478.526549 539.289325 478.526549 549.231265 Z M 478.526549 549.231265 " transform="matrix(0.0106711,0,0,0.00982266,25.346723,18.773059)"/>
<path style="fill-rule:evenodd;fill:rgb(100%,100%,100%);fill-opacity:1;stroke-width:1.25;stroke-linecap:butt;stroke-linejoin:miter;stroke:rgb(0%,0%,0%);stroke-opacity:1;stroke-miterlimit:4;" d="M 478.526549 549.032086 C 478.526549 558.974025 470.473252 566.927577 460.589659 566.927577 C 450.706066 566.927577 443.018827 558.974025 443.018827 549.032086 C 443.018827 539.487824 450.706066 531.534272 460.589659 531.534272 C 470.473252 531.534272 478.526549 539.487824 478.526549 549.032086 Z M 478.526549 549.032086 " transform="matrix(0.0106711,0,0,0.00982266,25.346723,18.353141)"/>
<path style="fill-rule:evenodd;fill:rgb(100%,100%,100%);fill-opacity:1;stroke-width:1.25;stroke-linecap:butt;stroke-linejoin:miter;stroke:rgb(0%,0%,0%);stroke-opacity:1;stroke-miterlimit:4;" d="M 478.526549 549.019879 C 478.526549 558.961818 470.473252 566.91537 460.589659 566.91537 C 450.706066 566.91537 443.018827 558.961818 443.018827 549.019879 C 443.018827 539.475617 450.706066 531.522065 460.589659 531.522065 C 470.473252 531.522065 478.526549 539.475617 478.526549 549.019879 Z M 478.526549 549.019879 " transform="matrix(0.0106711,0,0,0.00982266,25.346723,17.919667)"/>
<path style=" stroke:none;fill-rule:evenodd;fill:rgb(0%,0%,0%);fill-opacity:1;" d="M 30.664062 27.929688 C 30.664062 28.007812 30.492188 28.070312 30.28125 28.070312 C 30.066406 28.070312 29.894531 28.007812 29.894531 27.929688 C 29.894531 27.851562 30.066406 27.785156 30.28125 27.785156 C 30.492188 27.785156 30.664062 27.851562 30.664062 27.929688 Z M 30.664062 27.929688 "/>
<path style=" stroke:none;fill-rule:evenodd;fill:rgb(0%,0%,0%);fill-opacity:1;" d="M 34.144531 28.273438 C 34.125 28.328125 33.9375 28.332031 33.726562 28.285156 C 33.519531 28.234375 33.367188 28.152344 33.386719 28.097656 C 33.40625 28.046875 33.59375 28.042969 33.804688 28.089844 C 34.015625 28.136719 34.167969 28.21875 34.144531 28.273438 Z M 34.144531 28.273438 "/>
<path style=" stroke:none;fill-rule:evenodd;fill:rgb(0%,0%,0%);fill-opacity:1;" d="M 32.691406 28.039062 C 32.683594 28.109375 32.5 28.152344 32.285156 28.136719 C 32.066406 28.121094 31.898438 28.054688 31.90625 27.984375 C 31.914062 27.914062 32.097656 27.871094 32.3125 27.886719 C 32.53125 27.902344 32.699219 27.96875 32.691406 28.039062 Z M 32.691406 28.039062 "/>
<path style=" stroke:none;fill-rule:evenodd;fill:rgb(0%,0%,0%);fill-opacity:1;" d="M 26.292969 28.273438 C 26.316406 28.328125 26.503906 28.332031 26.710938 28.285156 C 26.921875 28.234375 27.074219 28.152344 27.054688 28.097656 C 27.03125 28.046875 26.84375 28.042969 26.636719 28.089844 C 26.425781 28.136719 26.273438 28.21875 26.292969 28.273438 Z M 26.292969 28.273438 "/>
<path style=" stroke:none;fill-rule:evenodd;fill:rgb(0%,0%,0%);fill-opacity:1;" d="M 27.824219 28.003906 C 27.832031 28.074219 28.011719 28.117188 28.230469 28.101562 C 28.445312 28.089844 28.613281 28.019531 28.605469 27.949219 C 28.597656 27.882812 28.414062 27.839844 28.199219 27.851562 C 27.984375 27.867188 27.8125 27.9375 27.824219 28.003906 Z M 27.824219 28.003906 "/>
</g>
</svg>
