<?xml version="1.0" encoding="UTF-8"?>
<svg xmlns="http://www.w3.org/2000/svg" xmlns:xlink="http://www.w3.org/1999/xlink" width="40px" height="40px" viewBox="0 0 40 40" version="1.1">
<g id="surface1">
<rect x="0" y="0" width="40" height="40" style="fill:rgb(100%,100%,100%);fill-opacity:1;stroke:none;"/>
<path style=" stroke:none;fill-rule:evenodd;fill:rgb(0%,0%,0%);fill-opacity:1;" d="M 0 26.667969 L 40 26.667969 L 40 40 L 0 40 Z M 0 26.667969 "/>
<path style=" stroke:none;fill-rule:evenodd;fill:rgb(95.294118%,0%,0%);fill-opacity:1;" d="M 0 0 L 40 0 L 40 13.332031 L 0 13.332031 Z M 0 0 "/>
<path style=" stroke:none;fill-rule:evenodd;fill:rgb(0%,33.725491%,13.725491%);fill-opacity:1;" d="M 38.09375 22.191406 L 36.445312 20.996094 L 34.800781 22.207031 L 35.425781 20.269531 L 33.769531 19.082031 L 35.804688 19.074219 L 36.421875 17.132812 L 37.058594 19.066406 L 39.09375 19.054688 L 37.449219 20.253906 Z M 38.09375 22.191406 "/>
<path style=" stroke:none;fill-rule:evenodd;fill:rgb(0%,33.725491%,13.725491%);fill-opacity:1;" d="M 15.097656 18.214844 C 15.113281 20.117188 15.097656 21.339844 15.097656 21.730469 C 14.894531 21.96875 14.6875 22.222656 14.535156 22.425781 C 14.46875 22.375 14.453125 22.375 14.453125 22.273438 C 14.453125 22.171875 14.433594 19.675781 14.453125 18.757812 C 14.757812 18.605469 14.960938 18.183594 15.097656 18.214844 Z M 14.402344 18.183594 C 14.554688 17.925781 14.722656 17.671875 14.84375 17.554688 C 14.960938 17.621094 14.945312 17.808594 14.960938 17.859375 C 14.84375 18.03125 14.554688 18.300781 14.46875 18.386719 C 14.433594 18.335938 14.46875 18.351562 14.402344 18.183594 Z M 15.25 16.007812 C 14.214844 16.6875 13.042969 17.503906 12.617188 17.859375 C 12.195312 18.214844 12.039062 18.4375 12.039062 19.046875 C 12.039062 19.660156 12.058594 20.355469 12.007812 20.679688 C 11.957031 21 11.804688 21.339844 11.429688 21.035156 C 11.054688 20.730469 10.785156 20.421875 10.613281 20.289062 C 10.445312 20.152344 10.140625 19.964844 9.730469 20.320312 C 9.324219 20.679688 7.421875 22.679688 7.066406 22.902344 C 6.710938 23.121094 6.640625 23.175781 6.386719 23.308594 C 6.914062 23.34375 7.507812 23.378906 7.984375 23.277344 C 8.609375 22.816406 9.339844 21.78125 9.578125 21.527344 C 9.816406 21.273438 10.054688 20.730469 10.582031 21.324219 C 11.105469 21.917969 11.089844 21.933594 11.34375 22.121094 C 11.597656 22.308594 11.921875 22.273438 12.140625 21.902344 C 12.363281 21.527344 12.378906 21.355469 12.464844 20.746094 C 12.550781 20.132812 12.601562 19.371094 12.738281 19.03125 C 12.871094 18.691406 13.144531 18.351562 13.601562 18.082031 C 14.0625 17.808594 14.144531 17.792969 14.246094 17.742188 C 14.453125 17.351562 14.945312 16.433594 15.148438 16.210938 C 15.234375 16.109375 15.25 16.058594 15.25 16.007812 Z M 10.648438 22.1875 C 10.394531 22.019531 10.308594 21.882812 10.171875 21.902344 C 10.039062 21.917969 9.75 22.308594 9.578125 22.410156 C 9.800781 22.597656 10.003906 22.765625 10.171875 22.734375 C 10.34375 22.699219 10.460938 22.324219 10.648438 22.1875 Z M 10.648438 22.1875 "/>
<path style=" stroke:none;fill-rule:evenodd;fill:rgb(0%,33.725491%,13.725491%);fill-opacity:1;" d="M 32.160156 17.417969 C 31.804688 17.503906 31.617188 17.980469 31.3125 18.300781 C 31.277344 19.253906 31.277344 22.207031 31.277344 22.597656 C 31.582031 22.242188 31.769531 22.035156 31.992188 21.902344 C 32.042969 20.320312 32.226562 18.113281 32.160156 17.417969 Z M 30.480469 17.402344 C 30.054688 17.671875 29.953125 17.945312 29.597656 18.25 C 29.578125 19.386719 29.628906 21 29.546875 21.222656 C 29.460938 21.441406 29.273438 21.902344 28.816406 21.851562 C 28.355469 21.800781 28.222656 21.714844 28.222656 21.238281 C 28.222656 20.761719 28.324219 17.722656 28.324219 17.230469 C 27.964844 17.402344 27.660156 17.929688 27.40625 18.148438 C 27.40625 19.335938 27.457031 20.847656 27.421875 21.171875 C 27.390625 21.492188 27.253906 22.019531 26.675781 22.003906 C 26.097656 21.984375 25.792969 21.695312 25.792969 21.359375 C 25.792969 21.019531 25.777344 18.792969 25.808594 18.402344 C 25.300781 18.761719 24.113281 19.472656 23.875 20.390625 C 23.636719 21.304688 24.011719 21.578125 24.351562 21.410156 C 24.691406 21.238281 24.84375 21.085938 25.03125 20.949219 C 25.082031 21.527344 25.097656 22.15625 25.675781 22.527344 C 26.25 22.902344 26.980469 22.765625 27.253906 22.5625 C 27.523438 22.359375 27.628906 22.222656 27.695312 22.121094 C 28.203125 22.511719 28.953125 22.714844 29.445312 22.292969 C 29.9375 21.867188 30.207031 21.441406 30.257812 20.96875 C 30.308594 20.492188 30.546875 18.046875 30.480469 17.402344 Z M 25.148438 19.710938 C 24.640625 19.949219 24.417969 20.304688 24.554688 20.527344 C 24.691406 20.746094 24.960938 20.492188 25.148438 20.40625 C 25.113281 20.066406 25.148438 19.878906 25.148438 19.710938 Z M 28.425781 16.109375 C 28.304688 16.5 28.222656 16.433594 28.070312 16.449219 C 27.914062 16.46875 27.8125 16.316406 27.695312 16.179688 C 27.578125 16.195312 27.558594 16.230469 27.472656 16.265625 C 27.746094 16.65625 27.949219 16.824219 28.273438 16.738281 C 28.59375 16.65625 28.613281 16.367188 28.613281 16.214844 C 28.5625 16.179688 28.542969 16.164062 28.425781 16.109375 Z M 28.136719 15.617188 C 27.984375 15.667969 27.949219 15.703125 27.898438 15.839844 C 27.984375 16.027344 28.101562 16.128906 28.222656 16.078125 C 28.339844 16.027344 28.355469 15.824219 28.289062 15.773438 C 28.222656 15.722656 28.253906 15.6875 28.136719 15.617188 Z M 28.136719 15.617188 "/>
<path style=" stroke:none;fill-rule:evenodd;fill:rgb(0%,33.725491%,13.725491%);fill-opacity:1;" d="M 4.882812 22.191406 L 3.234375 20.996094 L 1.59375 22.207031 L 2.21875 20.269531 L 0.558594 19.082031 L 2.597656 19.074219 L 3.214844 17.132812 L 3.847656 19.066406 L 5.886719 19.054688 L 4.242188 20.253906 Z M 4.882812 22.191406 "/>
<path style=" stroke:none;fill-rule:evenodd;fill:rgb(0%,33.725491%,13.725491%);fill-opacity:1;" d="M 21.453125 22.191406 L 19.804688 20.996094 L 18.164062 22.207031 L 18.789062 20.269531 L 17.128906 19.082031 L 19.167969 19.074219 L 19.785156 17.132812 L 20.417969 19.066406 L 22.457031 19.054688 L 20.8125 20.253906 Z M 21.453125 22.191406 "/>
</g>
</svg>
