<?xml version="1.0" encoding="UTF-8"?>
<svg xmlns="http://www.w3.org/2000/svg" xmlns:xlink="http://www.w3.org/1999/xlink" width="40px" height="40px" viewBox="0 0 256 256" version="1.1">
<g id="surface1">
<rect x="0" y="0" width="256" height="256" style="fill:rgb(100%,100%,100%);fill-opacity:1;stroke:none;"/>
<path style=" stroke:none;fill-rule:evenodd;fill:rgb(87.450981%,6.666667%,17.647059%);fill-opacity:1;" d="M -87.5 0 L -87.5 16.445312 L 98.273438 128.003906 L -87.5 239.5625 L -87.5 256.003906 L -59.5 256.003906 L 125.832031 144.445312 L 311.167969 256.003906 L 339.171875 256.003906 L 339.171875 239.5625 L 153.398438 128.003906 L 339.171875 16.445312 L 339.171875 0 L 311.167969 0 L 125.832031 111.558594 L -59.5 0 L -87.503906 0 Z M -87.5 0 "/>
<path style="fill-rule:nonzero;fill:rgb(90.980393%,6.666667%,17.647059%);fill-opacity:1;stroke-width:0.125;stroke-linecap:butt;stroke-linejoin:miter;stroke:rgb(0%,0%,0%);stroke-opacity:1;stroke-miterlimit:4;" d="M 132.660461 22.231954 C 135.81682 35.010262 134.085768 50.792058 119.830445 59.548482 C 105.575122 50.792058 103.844071 35.010262 107.002678 22.231954 C 110.361368 19.179008 125.635089 17.295084 132.660461 22.231954 Z M 132.660461 22.231954 " transform="matrix(1.737564,0,0,1.737564,-82.338028,-0.328654)"/>
<path style="fill-rule:nonzero;fill:rgb(97.647059%,86.666667%,8.627451%);fill-opacity:1;stroke-width:0.125;stroke-linecap:butt;stroke-linejoin:miter;stroke:rgb(0%,0%,0%);stroke-opacity:1;stroke-miterlimit:4;" d="M 119.810212 19.66685 C 125.037089 19.66685 129.902019 21.049443 132.772867 22.843442 C 133.334897 18.437129 135.333474 14.030815 137.689503 10.701351 C 135.230061 10.649644 134.128483 11.955801 134.103753 13.313665 C 133.490017 11.571373 131.080033 11.674787 130.338154 12.623493 C 133.026904 14.442221 130.95189 17.668272 128.519425 17.002829 C 127.377381 16.69034 126.772637 15.892258 126.559066 14.736725 C 126.822096 14.71874 127.082877 14.622071 127.303193 14.444469 C 127.869719 13.983605 127.957396 13.151801 127.496531 12.583027 C 127.037915 12.016501 126.206111 11.928824 125.637337 12.389688 C 125.070811 12.850553 124.983134 13.682357 125.443999 14.248883 C 125.594623 14.435477 125.787961 14.568116 125.994788 14.649048 C 125.225931 15.903499 123.847834 16.281183 122.858662 16.004664 C 121.577234 15.644965 121.039933 14.49168 121.039933 13.468786 C 121.039933 10.804764 123.600541 10.393359 124.369398 10.854223 C 124.319939 9.062472 121.500798 7.628172 120.630776 9.114179 C 121.601963 7.371887 121.552505 4.912444 119.810212 3.273566 C 118.06792 4.912444 118.016213 7.371887 118.991897 9.114179 C 118.119627 7.628172 115.302734 9.062472 115.251027 10.854223 C 116.019883 10.393359 118.580491 10.804764 118.580491 13.468786 C 118.580491 14.49168 118.043191 15.644965 116.761763 16.004664 C 115.774839 16.281183 114.394493 15.903499 113.625637 14.649048 C 113.834712 14.568116 114.025802 14.435477 114.176426 14.248883 C 114.63729 13.682357 114.549614 12.850553 113.983088 12.389688 C 113.416562 11.928824 112.582509 12.016501 112.123893 12.583027 C 111.663029 13.151801 111.750705 13.983605 112.317231 14.444469 C 112.537547 14.622071 112.798329 14.71874 113.061359 14.736725 C 112.847787 15.892258 112.243043 16.69034 111.100999 17.002829 C 108.668534 17.668272 106.59352 14.442221 109.282271 12.623493 C 108.540391 11.674787 106.132656 11.571373 105.516671 13.313665 C 105.491942 11.955801 104.390364 10.649644 101.930921 10.701351 C 104.28695 14.030815 106.285528 18.437129 106.849806 22.843442 C 109.718406 21.049443 114.585584 19.66685 119.810212 19.66685 Z M 119.810212 19.66685 " transform="matrix(1.737564,0,0,1.737564,-82.338028,-0.328654)"/>
<path style="fill-rule:nonzero;fill:rgb(97.647059%,86.666667%,8.627451%);fill-opacity:1;stroke-width:0.125;stroke-linecap:butt;stroke-linejoin:miter;stroke:rgb(0%,0%,0%);stroke-opacity:1;stroke-miterlimit:4;" d="M 130.650642 32.200114 C 130.335906 32.274302 130.335906 32.681211 130.169545 32.681211 C 130.990108 32.65873 131.388025 32.433918 131.635319 32.020264 C 131.455469 32.184377 131.612837 32.501362 131.552138 32.57555 C 132.152386 32.364226 132.437897 31.853903 132.228822 31.507693 C 132.363709 31.703279 132.754882 31.808941 132.874032 31.824678 C 132.453634 31.494204 132.754882 30.741084 132.078198 30.35216 C 132.30301 30.336423 132.739145 30.592709 132.860543 30.891708 C 132.754882 30.215025 132.64922 29.781138 132.093935 29.403454 C 132.152386 29.470897 132.469371 29.531596 132.604258 29.403454 C 132.244559 29.178642 132.138897 28.803206 132.168123 28.562657 C 132.210837 28.225439 131.988273 28.155747 131.567875 28.261409 C 131.187943 28.35583 130.320169 28.412033 129.809846 28.412033 C 128.757726 28.412033 127.840494 28.412033 126.968223 27.811785 C 128.276629 28.351334 129.944733 27.209289 129.944733 26.262831 C 129.944733 25.210711 128.652065 24.354178 126.035254 24.9252 C 123.420691 25.496223 120.235107 25.255674 120.235107 24.383404 C 120.235107 23.513382 122.519196 23.391983 123.692714 23.571833 C 124.863984 23.75393 125.70478 23.873081 127.898945 23.090735 C 127.359396 23.302058 125.614856 23.362758 124.232262 22.971585 C 122.849669 22.580412 119.452761 22.580412 119.423536 24.414877 C 119.392062 26.247094 123.040759 26.080734 126.185878 25.617621 C 128.020343 25.345599 128.982538 25.527696 128.982538 26.127944 C 128.982538 26.698966 127.298697 26.939515 126.006028 26.788891 C 124.71336 26.638267 123.391466 26.669741 121.858249 27.119365 C 120.579069 27.497049 119.69331 27.119365 118.281491 27.359913 C 117.595815 27.476815 115.936703 27.359913 115.11614 26.006546 C 114.612561 26.368493 113.095081 27.123861 112.841043 27.858996 C 112.479096 28.53568 112.719645 29.210115 113.200742 29.871062 C 113.805486 30.702866 112.899494 30.576972 112.254284 30.606197 C 111.368525 30.648911 110.181518 30.511776 109.563286 29.810363 C 109.014744 29.187634 108.284106 28.688552 107.701843 29.149416 C 107.402843 29.387717 107.690602 29.700205 107.926655 29.612529 C 108.162707 29.5271 108.439226 29.700205 108.691015 29.810363 C 108.29085 29.637258 107.847971 29.772145 107.677114 29.925017 C 107.441061 30.138588 107.72882 30.54325 108.014331 30.39937 C 108.239143 30.286964 108.702256 30.212776 109.001256 30.487047 C 108.677527 30.426348 108.338061 30.437588 108.176196 30.612942 C 108.014331 30.786047 108.140226 31.040084 108.490933 31.024347 C 109.052962 30.999618 109.196842 31.393039 109.758872 31.312107 C 109.412662 31.359317 109.217075 31.539167 109.12715 31.674054 C 109.65321 31.433505 110.233225 32.080963 110.916653 31.930339 C 110.649127 32.038249 110.221984 32.301279 110.224233 32.501362 C 110.628894 32.033753 113.351366 32.861061 113.412065 31.840415 C 113.486253 32.04949 113.470516 32.364226 113.261441 32.636249 C 113.6099 32.424926 114.733959 32.350738 115.077922 31.539167 C 115.109395 31.779715 115.064433 32.094452 114.85311 32.170888 C 115.215057 32.28779 115.68941 32.018016 116.175004 31.298618 C 116.368342 31.013107 116.415552 30.822017 116.381831 30.606197 C 116.862928 30.624182 117.213635 30.505032 117.589071 30.185799 C 117.980243 29.855325 118.400642 30.455573 119.061589 30.035175 C 119.724784 29.614777 120.295806 29.974476 120.655505 29.765401 C 121.015204 29.554078 121.512038 29.839589 121.903211 29.59904 C 122.294384 29.358491 122.899128 29.71819 123.546586 29.205619 C 124.564984 29.578807 125.751991 30.271227 128.667801 29.733927 C 130.335906 29.428183 130.861966 29.990213 130.861966 30.756821 C 130.861966 31.282881 130.553973 31.327843 130.320169 31.34358 C 129.391696 31.399783 128.99153 30.995122 128.625087 31.125513 C 128.380042 31.213189 128.229418 31.613355 128.584621 31.75049 C 128.290117 31.901114 128.328335 32.182129 128.478959 32.285542 C 128.629583 32.388956 129.01626 32.294535 129.27929 32.173136 C 128.942072 32.326008 128.591365 32.600279 128.791448 32.888038 C 128.912846 33.063391 129.218591 33.209519 129.504102 32.838579 C 129.791861 32.463144 130.315673 32.150655 130.650642 32.200114 Z M 130.650642 32.200114 " transform="matrix(1.737564,0,0,1.737564,-82.338028,-0.328654)"/>
<path style="fill-rule:nonzero;fill:rgb(97.647059%,86.666667%,8.627451%);fill-opacity:1;stroke-width:0.125;stroke-linecap:butt;stroke-linejoin:miter;stroke:rgb(0%,0%,0%);stroke-opacity:1;stroke-miterlimit:4;" d="M 112.13963 24.264253 C 111.298833 23.918043 111.013322 23.909051 111.208909 24.594727 C 111.292089 24.886982 111.492172 25.300636 111.696751 25.489478 C 111.703495 25.203967 111.809156 24.414877 112.13963 24.264253 Z M 112.13963 24.264253 " transform="matrix(1.737564,0,0,1.737564,-82.338028,-0.328654)"/>
<path style="fill-rule:nonzero;fill:rgb(97.647059%,86.666667%,8.627451%);fill-opacity:1;stroke-width:0.125;stroke-linecap:butt;stroke-linejoin:miter;stroke:rgb(0%,0%,0%);stroke-opacity:1;stroke-miterlimit:4;" d="M 114.769929 24.264253 C 115.612974 23.918043 115.896237 23.909051 115.702899 24.594727 C 115.619718 24.886982 115.415139 25.300636 115.212809 25.489478 C 115.206064 25.203967 115.100403 24.414877 114.769929 24.264253 Z M 114.769929 24.264253 " transform="matrix(1.737564,0,0,1.737564,-82.338028,-0.328654)"/>
<path style="fill-rule:nonzero;fill:rgb(97.647059%,86.666667%,8.627451%);fill-opacity:1;stroke-width:0.125;stroke-linecap:butt;stroke-linejoin:miter;stroke:rgb(0%,0%,0%);stroke-opacity:1;stroke-miterlimit:4;" d="M 113.459276 23.801141 C 115.053192 23.801141 115.251027 24.549764 115.244282 25.480486 C 115.237538 26.487643 114.695741 26.143681 114.387749 27.436349 C 114.268599 27.939928 113.863937 27.969154 113.459276 27.969154 C 113.054614 27.969154 112.652201 27.939928 112.530803 27.436349 C 112.225059 26.143681 111.681014 26.487643 111.674269 25.480486 C 111.667525 24.549764 111.865359 23.801141 113.459276 23.801141 Z M 113.459276 23.801141 " transform="matrix(1.737564,0,0,1.737564,-82.338028,-0.328654)"/>
<path style="fill-rule:nonzero;fill:rgb(97.647059%,86.666667%,8.627451%);fill-opacity:1;stroke-width:0.125;stroke-linecap:butt;stroke-linejoin:miter;stroke:rgb(0%,0%,0%);stroke-opacity:1;stroke-miterlimit:4;" d="M 109.360955 27.4948 C 108.954045 27.254252 108.691015 27.420613 108.526903 27.465575 C 109.052962 27.600462 109.073196 28.277146 110.275939 28.591883 C 110.006165 28.517695 109.855541 28.668319 109.599255 28.531183 C 110.09609 28.922356 110.651375 29.376476 111.824893 29.387717 C 112.479096 29.396709 112.027224 29.733927 111.600081 29.538341 C 112.042961 29.996957 112.921975 29.621521 113.477261 30.455573 C 113.582922 29.810363 112.440878 28.787469 112.966938 28.050086 C 111.346044 27.982642 111.211157 27.083395 110.275939 26.368493 C 109.516075 25.78623 109.448631 25.194975 109.111414 24.0889 C 108.958541 23.58757 108.371782 23.275081 108.048053 23.391983 C 107.762542 23.497645 107.659129 23.74269 107.901926 23.927035 C 108.146971 24.111381 108.459459 24.136111 108.526903 24.603719 C 108.209918 24.223787 107.733317 24.086652 107.506257 24.324953 C 107.366873 24.468832 107.423076 24.80605 107.722076 24.837524 C 108.209918 24.886982 107.859211 25.361335 108.412249 25.826696 C 107.922159 25.273659 107.497264 25.2242 107.234234 25.525448 C 107.076866 25.705298 107.234234 26.024531 107.571452 25.990809 C 108.061542 25.94135 108.628068 27.180064 109.360955 27.4948 Z M 109.360955 27.4948 " transform="matrix(1.737564,0,0,1.737564,-82.338028,-0.328654)"/>
<path style="fill-rule:nonzero;fill:rgb(97.647059%,86.666667%,8.627451%);fill-opacity:1;stroke-width:0.125;stroke-linecap:butt;stroke-linejoin:miter;stroke:rgb(0%,0%,0%);stroke-opacity:1;stroke-miterlimit:4;" d="M 122.429271 32.139414 C 122.172985 32.184377 122.249421 32.604775 121.903211 32.634001 C 122.730519 32.634001 123.150917 32.440662 123.54209 32.123678 C 123.36224 32.229339 123.288052 32.499113 123.272316 32.649737 C 123.708451 32.274302 124.744834 32.245076 125.28663 32.34849 C 125.826179 32.454151 125.916104 32.200114 126.11169 31.853903 C 126.307276 31.507693 126.037502 31.312107 125.767728 31.042332 C 125.495705 30.77031 125.435006 30.394874 125.495705 29.765401 C 124.052413 27.841011 121.467076 28.771732 121.43785 29.614777 C 122.37082 30.696122 122.48997 30.576972 123.272316 30.725348 C 124.052413 30.875972 124.531262 30.875972 124.007451 31.312107 C 123.827601 31.462731 123.076729 31.393039 122.48997 31.417768 C 121.179317 31.473971 120.579069 30.511776 120.192392 31.013107 C 119.87316 31.422264 120.201385 31.604362 120.851091 31.581881 C 120.401468 31.586377 119.805716 31.561648 119.906881 31.979798 C 120.079987 32.687955 120.754422 31.849407 121.017452 32.139414 C 120.79264 32.087708 120.441934 32.224843 120.428445 32.436166 C 120.417204 32.649737 120.929776 32.924008 121.491805 32.476632 C 121.799798 32.231587 122.193218 32.141663 122.429271 32.139414 Z M 122.429271 32.139414 " transform="matrix(1.737564,0,0,1.737564,-82.338028,-0.328654)"/>
<path style="fill:none;stroke-width:0.125;stroke-linecap:butt;stroke-linejoin:miter;stroke:rgb(0%,0%,0%);stroke-opacity:1;stroke-miterlimit:4;" d="M 123.551082 29.205619 C 123.081225 29.034762 122.651835 28.9291 122.101046 29.043754 " transform="matrix(1.737564,0,0,1.737564,-82.338028,-0.328654)"/>
<path style="fill:none;stroke-width:0.125;stroke-linecap:butt;stroke-linejoin:miter;stroke:rgb(0%,0%,0%);stroke-opacity:1;stroke-miterlimit:4;" d="M 116.480748 28.983055 C 116.094071 29.812611 116.327876 30.221769 116.384079 30.606197 " transform="matrix(1.737564,0,0,1.737564,-82.338028,-0.328654)"/>
<path style="fill:none;stroke-width:0.125;stroke-linecap:butt;stroke-linejoin:miter;stroke:rgb(0%,0%,0%);stroke-opacity:1;stroke-miterlimit:4;" d="M 112.368938 25.051095 C 112.634216 25.183734 112.78484 24.810546 113.173765 25.208463 C 113.065855 25.091561 112.933216 25.516456 112.634216 25.233193 " transform="matrix(1.737564,0,0,1.737564,-82.338028,-0.328654)"/>
<path style="fill:none;stroke-width:0.125;stroke-linecap:butt;stroke-linejoin:miter;stroke:rgb(0%,0%,0%);stroke-opacity:1;stroke-miterlimit:4;" d="M 114.529381 25.051095 C 114.264102 25.183734 114.115727 24.810546 113.726802 25.208463 C 113.834712 25.091561 113.967351 25.516456 114.264102 25.233193 " transform="matrix(1.737564,0,0,1.737564,-82.338028,-0.328654)"/>
<path style="fill:none;stroke-width:0.125;stroke-linecap:butt;stroke-linejoin:miter;stroke:rgb(0%,0%,0%);stroke-opacity:1;stroke-miterlimit:4;" d="M 113.72905 25.206215 C 113.639125 25.282651 113.630133 25.147764 113.699825 25.500719 C 113.827967 26.152673 113.978591 26.458418 113.450283 26.458418 C 112.912983 26.458418 113.077096 26.152673 113.20299 25.500719 C 113.272682 25.147764 113.26369 25.282651 113.173765 25.206215 " transform="matrix(1.737564,0,0,1.737564,-82.338028,-0.328654)"/>
<path style="fill-rule:nonzero;fill:rgb(100%,0%,8.627451%);fill-opacity:1;stroke-width:0.0625;stroke-linecap:butt;stroke-linejoin:miter;stroke:rgb(0%,0%,0%);stroke-opacity:1;stroke-miterlimit:4;" d="M 113.459276 27.706124 C 113.888667 27.706124 114.13596 27.699379 114.068516 27.096883 C 114.041539 26.856335 114.36302 26.759666 114.248366 26.368493 C 114.369764 26.84959 113.459276 26.80238 113.459276 26.584312 C 113.459276 26.80238 112.551036 26.84959 112.670186 26.368493 C 112.55778 26.759666 112.877013 26.856335 112.850036 27.096883 C 112.78484 27.699379 113.032133 27.706124 113.459276 27.706124 Z M 113.459276 27.706124 " transform="matrix(1.737564,0,0,1.737564,-82.338028,-0.328654)"/>
<path style="fill-rule:nonzero;fill:rgb(0%,0%,0%);fill-opacity:1;stroke-width:0.0625;stroke-linecap:butt;stroke-linejoin:miter;stroke:rgb(0%,0%,0%);stroke-opacity:1;stroke-miterlimit:4;" d="M 113.070351 26.489891 L 112.042961 26.202132 " transform="matrix(1.737564,0,0,1.737564,-82.338028,-0.328654)"/>
<path style="fill-rule:nonzero;fill:rgb(0%,0%,0%);fill-opacity:1;stroke-width:0.0625;stroke-linecap:butt;stroke-linejoin:miter;stroke:rgb(0%,0%,0%);stroke-opacity:1;stroke-miterlimit:4;" d="M 113.070351 26.543846 L 111.921562 26.532605 " transform="matrix(1.737564,0,0,1.737564,-82.338028,-0.328654)"/>
<path style="fill-rule:nonzero;fill:rgb(0%,0%,0%);fill-opacity:1;stroke-width:0.0625;stroke-linecap:butt;stroke-linejoin:miter;stroke:rgb(0%,0%,0%);stroke-opacity:1;stroke-miterlimit:4;" d="M 113.079344 26.602297 L 112.101412 26.865327 " transform="matrix(1.737564,0,0,1.737564,-82.338028,-0.328654)"/>
<path style="fill-rule:nonzero;fill:rgb(0%,0%,0%);fill-opacity:1;stroke-width:0.0625;stroke-linecap:butt;stroke-linejoin:miter;stroke:rgb(0%,0%,0%);stroke-opacity:1;stroke-miterlimit:4;" d="M 113.839208 26.489891 L 114.868847 26.202132 " transform="matrix(1.737564,0,0,1.737564,-82.338028,-0.328654)"/>
<path style="fill-rule:nonzero;fill:rgb(0%,0%,0%);fill-opacity:1;stroke-width:0.0625;stroke-linecap:butt;stroke-linejoin:miter;stroke:rgb(0%,0%,0%);stroke-opacity:1;stroke-miterlimit:4;" d="M 113.839208 26.543846 L 114.987997 26.532605 " transform="matrix(1.737564,0,0,1.737564,-82.338028,-0.328654)"/>
<path style="fill-rule:nonzero;fill:rgb(0%,0%,0%);fill-opacity:1;stroke-width:0.0625;stroke-linecap:butt;stroke-linejoin:miter;stroke:rgb(0%,0%,0%);stroke-opacity:1;stroke-miterlimit:4;" d="M 113.830216 26.602297 L 114.808147 26.865327 " transform="matrix(1.737564,0,0,1.737564,-82.338028,-0.328654)"/>
<path style="fill-rule:nonzero;fill:rgb(0%,31.764707%,72.941178%);fill-opacity:1;stroke-width:0.013;stroke-linecap:butt;stroke-linejoin:miter;stroke:rgb(0%,0%,0%);stroke-opacity:1;stroke-miterlimit:4;" d="M 108.128986 23.414464 C 107.829986 23.041277 107.081362 23.356013 107.067873 23.816878 C 107.319663 23.517878 107.733317 23.949517 107.958129 23.859592 C 108.113249 23.796645 108.250384 23.565088 108.128986 23.414464 Z M 108.128986 23.414464 " transform="matrix(1.737564,0,0,1.737564,-82.338028,-0.328654)"/>
<path style="fill-rule:nonzero;fill:rgb(0%,31.764707%,72.941178%);fill-opacity:1;stroke-width:0.013;stroke-linecap:butt;stroke-linejoin:miter;stroke:rgb(0%,0%,0%);stroke-opacity:1;stroke-miterlimit:4;" d="M 107.749053 24.295727 C 107.450054 23.922539 106.703678 24.237276 106.687941 24.69814 C 106.939731 24.39914 107.353384 24.830779 107.578196 24.740855 C 107.735565 24.677907 107.8727 24.446351 107.749053 24.295727 Z M 107.749053 24.295727 " transform="matrix(1.737564,0,0,1.737564,-82.338028,-0.328654)"/>
<path style="fill-rule:nonzero;fill:rgb(0%,31.764707%,72.941178%);fill-opacity:1;stroke-width:0.013;stroke-linecap:butt;stroke-linejoin:miter;stroke:rgb(0%,0%,0%);stroke-opacity:1;stroke-miterlimit:4;" d="M 107.548971 25.478238 C 107.211753 25.143268 106.503595 25.538937 106.539565 25.999801 C 106.757633 25.673824 107.216249 26.056004 107.429821 25.94135 C 107.578196 25.860418 107.688354 25.615373 107.548971 25.478238 Z M 107.548971 25.478238 " transform="matrix(1.737564,0,0,1.737564,-82.338028,-0.328654)"/>
<path style="fill-rule:nonzero;fill:rgb(0%,31.764707%,72.941178%);fill-opacity:1;stroke-width:0.013;stroke-linecap:butt;stroke-linejoin:miter;stroke:rgb(0%,0%,0%);stroke-opacity:1;stroke-miterlimit:4;" d="M 107.910918 29.147168 C 107.533234 28.852664 106.876783 29.329266 106.966708 29.781138 C 107.144309 29.432679 107.643392 29.760904 107.843474 29.621521 C 107.98061 29.524852 108.06379 29.268566 107.910918 29.147168 Z M 107.910918 29.147168 " transform="matrix(1.737564,0,0,1.737564,-82.338028,-0.328654)"/>
<path style="fill-rule:nonzero;fill:rgb(0%,31.764707%,72.941178%);fill-opacity:1;stroke-width:0.013;stroke-linecap:butt;stroke-linejoin:miter;stroke:rgb(0%,0%,0%);stroke-opacity:1;stroke-miterlimit:4;" d="M 107.890685 29.951995 C 107.441061 29.785634 106.962212 30.439836 107.187024 30.844498 C 107.249971 30.457821 107.825489 30.61519 107.971617 30.421851 C 108.075031 30.286964 108.072783 30.01719 107.890685 29.951995 Z M 107.890685 29.951995 " transform="matrix(1.737564,0,0,1.737564,-82.338028,-0.328654)"/>
<path style="fill-rule:nonzero;fill:rgb(0%,31.764707%,72.941178%);fill-opacity:1;stroke-width:0.013;stroke-linecap:butt;stroke-linejoin:miter;stroke:rgb(0%,0%,0%);stroke-opacity:1;stroke-miterlimit:4;" d="M 108.459459 30.549994 C 108.012083 30.385882 107.530986 31.040084 107.755798 31.444746 C 107.818745 31.058069 108.394264 31.215438 108.542639 31.019851 C 108.643805 30.887212 108.641557 30.617438 108.459459 30.549994 Z M 108.459459 30.549994 " transform="matrix(1.737564,0,0,1.737564,-82.338028,-0.328654)"/>
<path style="fill-rule:nonzero;fill:rgb(0%,31.764707%,72.941178%);fill-opacity:1;stroke-width:0.013;stroke-linecap:butt;stroke-linejoin:miter;stroke:rgb(0%,0%,0%);stroke-opacity:1;stroke-miterlimit:4;" d="M 120.199137 31.71452 C 119.751761 31.548159 119.272912 32.202362 119.497724 32.607023 C 119.560671 32.220347 120.133941 32.377715 120.282317 32.184377 C 120.383483 32.04949 120.381234 31.781964 120.199137 31.71452 Z M 120.199137 31.71452 " transform="matrix(1.737564,0,0,1.737564,-82.338028,-0.328654)"/>
<path style="fill-rule:nonzero;fill:rgb(0%,31.764707%,72.941178%);fill-opacity:1;stroke-width:0.013;stroke-linecap:butt;stroke-linejoin:miter;stroke:rgb(0%,0%,0%);stroke-opacity:1;stroke-miterlimit:4;" d="M 120.810625 32.258565 C 120.345265 32.143911 119.945099 32.84982 120.212626 33.225256 C 120.23061 32.834083 120.821866 32.924008 120.945512 32.714933 C 121.030941 32.571053 120.999467 32.303527 120.810625 32.258565 Z M 120.810625 32.258565 " transform="matrix(1.737564,0,0,1.737564,-82.338028,-0.328654)"/>
<path style="fill-rule:nonzero;fill:rgb(0%,31.764707%,72.941178%);fill-opacity:1;stroke-width:0.013;stroke-linecap:butt;stroke-linejoin:miter;stroke:rgb(0%,0%,0%);stroke-opacity:1;stroke-miterlimit:4;" d="M 120.378986 30.941167 C 119.965332 30.702866 119.38307 31.267144 119.535942 31.703279 C 119.664084 31.33234 120.203633 31.584129 120.381234 31.420016 C 120.504881 31.303114 120.547595 31.040084 120.378986 30.941167 Z M 120.378986 30.941167 " transform="matrix(1.737564,0,0,1.737564,-82.338028,-0.328654)"/>
<path style="fill-rule:nonzero;fill:rgb(0%,31.764707%,72.941178%);fill-opacity:1;stroke-width:0.013;stroke-linecap:butt;stroke-linejoin:miter;stroke:rgb(0%,0%,0%);stroke-opacity:1;stroke-miterlimit:4;" d="M 128.730749 31.883129 C 128.265388 31.770723 127.862975 32.474384 128.132749 32.84982 C 128.152982 32.458647 128.741989 32.55082 128.865636 32.339497 C 128.951064 32.195617 128.919591 31.928091 128.730749 31.883129 Z M 128.730749 31.883129 " transform="matrix(1.737564,0,0,1.737564,-82.338028,-0.328654)"/>
<path style="fill-rule:nonzero;fill:rgb(0%,31.764707%,72.941178%);fill-opacity:1;stroke-width:0.013;stroke-linecap:butt;stroke-linejoin:miter;stroke:rgb(0%,0%,0%);stroke-opacity:1;stroke-miterlimit:4;" d="M 128.750982 31.145746 C 128.328335 30.920934 127.764057 31.505445 127.932666 31.934836 C 128.04732 31.561648 128.595862 31.795452 128.768967 31.622347 C 128.888117 31.503197 128.921839 31.237919 128.750982 31.145746 Z M 128.750982 31.145746 " transform="matrix(1.737564,0,0,1.737564,-82.338028,-0.328654)"/>
<path style="fill-rule:nonzero;fill:rgb(0%,31.764707%,72.941178%);fill-opacity:1;stroke-width:0.013;stroke-linecap:butt;stroke-linejoin:miter;stroke:rgb(0%,0%,0%);stroke-opacity:1;stroke-miterlimit:4;" d="M 129.070215 32.541828 C 128.602606 32.449655 128.231666 33.171301 128.514929 33.535496 C 128.517177 33.142076 129.110681 33.207271 129.225335 32.9937 C 129.304019 32.845324 129.261305 32.580046 129.070215 32.541828 Z M 129.070215 32.541828 " transform="matrix(1.737564,0,0,1.737564,-82.338028,-0.328654)"/>
<path style="fill-rule:nonzero;fill:rgb(0%,31.764707%,72.941178%);fill-opacity:1;stroke-width:0.013;stroke-linecap:butt;stroke-linejoin:miter;stroke:rgb(0%,0%,0%);stroke-opacity:1;stroke-miterlimit:4;" d="M 113.49075 27.344176 C 113.783005 27.344176 113.902155 27.431853 113.902155 27.962409 C 113.902155 29.086469 113.890915 29.569814 113.528968 29.569814 C 113.164772 29.569814 113.189502 29.111198 113.189502 28.286138 C 113.189502 27.854499 113.189502 27.63868 113.104073 27.67465 C 113.104073 27.393635 113.22772 27.344176 113.49075 27.344176 Z M 113.49075 27.344176 " transform="matrix(1.737564,0,0,1.737564,-82.338028,-0.328654)"/>
<path style="fill-rule:nonzero;fill:rgb(97.647059%,86.666667%,8.627451%);fill-opacity:1;stroke-width:0.125;stroke-linecap:butt;stroke-linejoin:miter;stroke:rgb(0%,0%,0%);stroke-opacity:1;stroke-miterlimit:4;" d="M 130.649857 32.20094 C 130.335121 32.275877 130.335121 32.680538 130.170258 32.680538 C 130.989573 32.658057 131.386741 32.433245 131.634034 32.018592 C 131.454184 32.185952 131.611553 32.500689 131.551603 32.575626 C 132.153599 32.365802 132.438361 31.85373 132.228536 31.509019 C 132.363424 31.703856 132.755595 31.808768 132.875495 31.823755 C 132.453348 31.494031 132.755595 30.74216 132.078662 30.352486 C 132.303474 30.335001 132.740608 30.592286 132.860508 30.892035 C 132.755595 30.215101 132.648185 29.780465 132.093649 29.40328 C 132.153599 29.473222 132.468336 29.533172 132.603223 29.40328 C 132.243524 29.178468 132.138612 28.803782 132.168587 28.561485 C 132.211051 28.226765 131.988737 28.156823 131.56659 28.261735 C 131.186908 28.356656 130.320133 28.41161 129.808061 28.41161 C 128.756441 28.41161 127.839708 28.41161 126.967938 27.812112 C 128.276843 28.35166 129.942949 27.210115 129.942949 26.263407 C 129.942949 25.211787 128.651529 24.355004 126.036217 24.924527 C 123.420905 25.496549 120.23607 25.256749 120.23607 24.384979 C 120.23607 23.513208 122.51916 23.393309 123.693177 23.573158 C 124.864697 23.753008 125.703995 23.872907 127.899658 23.091061 C 127.36011 23.300886 125.61407 23.363334 124.232726 22.971162 C 122.848884 22.581488 119.454224 22.581488 119.421751 24.414954 C 119.391776 26.24842 123.041223 26.08106 126.186092 25.616449 C 128.019558 25.346674 128.981253 25.526524 128.981253 26.12852 C 128.981253 26.698044 127.30016 26.940341 126.006242 26.787968 C 124.714823 26.638094 123.39093 26.668069 121.857213 27.12019 C 120.578284 27.497375 119.694023 27.12019 118.280206 27.35999 C 117.595779 27.477392 115.937166 27.35999 115.117852 26.00862 C 114.613274 26.368319 113.094545 27.122688 112.839758 27.859572 C 112.480059 28.536505 112.719858 29.208443 113.199457 29.87039 C 113.806449 30.702194 112.899708 30.577298 112.255247 30.607273 C 111.368489 30.64724 110.181982 30.512352 109.5625 29.81044 C 109.015457 29.18846 108.286068 28.688878 107.701557 29.150991 C 107.401808 29.388293 107.689067 29.700532 107.926369 29.613105 C 108.161172 29.525678 108.440938 29.700532 108.690729 29.81044 C 108.291064 29.638084 107.848933 29.770473 107.676578 29.925344 C 107.439276 30.137666 107.729034 30.544825 108.013796 30.399946 C 108.241105 30.28754 108.703219 30.212603 109.002968 30.487373 C 108.67824 30.424926 108.338524 30.437415 108.17616 30.612269 C 108.013796 30.787123 108.141189 31.041909 108.490896 31.024424 C 109.052926 30.999445 109.195307 31.394115 109.759835 31.314182 C 109.412625 31.359144 109.217788 31.538993 109.127863 31.673881 C 109.652425 31.434081 110.234438 32.08104 110.916367 31.928667 C 110.649091 32.038576 110.221948 32.300856 110.224446 32.500689 C 110.629107 32.03358 113.351829 32.860388 113.411779 31.838743 C 113.486717 32.048567 113.471729 32.365802 113.261905 32.635576 C 113.609114 32.425752 114.733174 32.350814 115.077885 31.538993 C 115.10786 31.778793 115.062898 32.096027 114.853073 32.170965 C 115.21527 32.288367 115.689873 32.018592 116.176966 31.299194 C 116.369305 31.011934 116.414267 30.822093 116.381794 30.607273 C 116.863891 30.624758 117.213599 30.504859 117.588285 30.185126 C 117.980457 29.855402 118.400106 30.457398 119.062052 30.035252 C 119.723998 29.615603 120.29602 29.975302 120.655719 29.765477 C 121.015418 29.555653 121.512502 29.840415 121.902176 29.600615 C 122.294348 29.358318 122.898842 29.718017 123.545801 29.205945 C 124.564948 29.580632 125.753953 30.270055 128.666517 29.735502 C 130.337618 29.428259 130.86218 29.990289 130.86218 30.757148 C 130.86218 31.284207 130.552439 31.329169 130.320133 31.344156 C 129.39091 31.401608 128.991245 30.994449 128.624052 31.12434 C 128.379257 31.211767 128.229382 31.613931 128.584086 31.751316 C 128.29183 31.90119 128.329299 32.180956 128.479173 32.285869 C 128.629048 32.388283 129.016224 32.293362 129.278505 32.173463 C 128.941287 32.325835 128.591579 32.600605 128.791412 32.887865 C 128.911312 33.062719 129.218555 33.210095 129.503316 32.837907 C 129.790576 32.46322 130.315137 32.150981 130.649857 32.20094 Z M 130.649857 32.20094 " transform="matrix(1.563807,0,0,1.563807,-62.182288,23.475968)"/>
<path style="fill-rule:nonzero;fill:rgb(97.647059%,86.666667%,8.627451%);fill-opacity:1;stroke-width:0.125;stroke-linecap:butt;stroke-linejoin:miter;stroke:rgb(0%,0%,0%);stroke-opacity:1;stroke-miterlimit:4;" d="M 112.140343 24.265079 C 111.298547 23.91787 111.013786 23.907878 111.208623 24.594803 C 111.291054 24.887059 111.493384 25.301712 111.695715 25.489055 C 111.703209 25.204293 111.808121 24.414954 112.140343 24.265079 Z M 112.140343 24.265079 " transform="matrix(1.563807,0,0,1.563807,-62.182288,23.475968)"/>
<path style="fill-rule:nonzero;fill:rgb(97.647059%,86.666667%,8.627451%);fill-opacity:1;stroke-width:0.125;stroke-linecap:butt;stroke-linejoin:miter;stroke:rgb(0%,0%,0%);stroke-opacity:1;stroke-miterlimit:4;" d="M 114.770642 24.265079 C 115.612438 23.91787 115.8972 23.907878 115.702363 24.594803 C 115.619932 24.887059 115.415103 25.301712 115.212773 25.489055 C 115.205279 25.204293 115.100367 24.414954 114.770642 24.265079 Z M 114.770642 24.265079 " transform="matrix(1.563807,0,0,1.563807,-62.182288,23.475968)"/>
<path style="fill-rule:nonzero;fill:rgb(97.647059%,86.666667%,8.627451%);fill-opacity:1;stroke-width:0.125;stroke-linecap:butt;stroke-linejoin:miter;stroke:rgb(0%,0%,0%);stroke-opacity:1;stroke-miterlimit:4;" d="M 113.45924 23.802966 C 115.052906 23.802966 115.252739 24.549841 115.245245 25.481561 C 115.237752 26.488219 114.695705 26.143508 114.388462 27.434927 C 114.268562 27.942003 113.863901 27.96948 113.45924 27.96948 C 113.054578 27.96948 112.652415 27.942003 112.530017 27.434927 C 112.222774 26.143508 111.683225 26.488219 111.675732 25.481561 C 111.668238 24.549841 111.865573 23.802966 113.45924 23.802966 Z M 113.45924 23.802966 " transform="matrix(1.563807,0,0,1.563807,-62.182288,23.475968)"/>
<path style="fill-rule:nonzero;fill:rgb(97.647059%,86.666667%,8.627451%);fill-opacity:1;stroke-width:0.125;stroke-linecap:butt;stroke-linejoin:miter;stroke:rgb(0%,0%,0%);stroke-opacity:1;stroke-miterlimit:4;" d="M 109.360169 27.494877 C 108.95301 27.255078 108.693227 27.41994 108.525867 27.464902 C 109.052926 27.602287 109.072909 28.276723 110.276902 28.59146 C 110.007128 28.516522 109.854755 28.666397 109.599968 28.53151 C 110.097053 28.923682 110.651589 29.375803 111.825606 29.388293 C 112.480059 29.395787 112.027937 29.735502 111.598297 29.538167 C 112.042925 29.997783 112.922189 29.620598 113.479223 30.4549 C 113.584135 29.81044 112.440092 28.788794 112.967151 28.051911 C 111.346008 27.981969 111.21112 27.082722 110.276902 26.368319 C 109.515039 25.786306 109.447596 25.194302 109.112876 24.087728 C 108.958006 23.588146 108.370997 23.273409 108.046268 23.393309 C 107.764004 23.495723 107.659092 23.743016 107.903887 23.927861 C 108.146185 24.112707 108.458424 24.137686 108.525867 24.604795 C 108.208632 24.225113 107.73403 24.087728 107.50672 24.325029 C 107.366837 24.469908 107.421791 24.807126 107.72154 24.837101 C 108.208632 24.887059 107.858925 25.361662 108.413461 25.826273 C 107.921373 25.274235 107.496728 25.224277 107.234448 25.524026 C 107.077079 25.703875 107.234448 26.023608 107.571665 25.991135 C 108.061256 25.941177 108.628281 27.18014 109.360169 27.494877 Z M 109.360169 27.494877 " transform="matrix(1.563807,0,0,1.563807,-62.182288,23.475968)"/>
<path style="fill-rule:nonzero;fill:rgb(97.647059%,86.666667%,8.627451%);fill-opacity:1;stroke-width:0.125;stroke-linecap:butt;stroke-linejoin:miter;stroke:rgb(0%,0%,0%);stroke-opacity:1;stroke-miterlimit:4;" d="M 122.429235 32.138492 C 122.174448 32.183454 122.249385 32.605601 121.904674 32.635576 C 122.731482 32.635576 123.151131 32.440739 123.540805 32.123504 C 123.360955 32.228417 123.286018 32.500689 123.271031 32.650563 C 123.708165 32.273379 124.744798 32.243404 125.286844 32.348316 C 125.826393 32.455726 125.916317 32.198442 126.111154 31.85373 C 126.308489 31.509019 126.036217 31.311684 125.766443 31.041909 C 125.496669 30.772135 125.436719 30.394951 125.496669 29.765477 C 124.052877 27.839589 121.46754 28.771309 121.437565 29.613105 C 122.369285 30.697198 122.489185 30.5748 123.271031 30.727173 C 124.052877 30.877047 124.532475 30.877047 124.007914 31.311684 C 123.828065 31.461558 123.076194 31.391617 122.489185 31.416596 C 121.177782 31.474048 120.578284 30.512352 120.191107 31.011934 C 119.873873 31.42409 120.201099 31.603939 120.853054 31.583956 C 120.400932 31.586454 119.803931 31.561475 119.906346 31.981124 C 120.078701 32.688032 120.753137 31.848734 121.017916 32.14099 C 120.793104 32.086036 120.440898 32.223421 120.428409 32.438241 C 120.415919 32.650563 120.927991 32.925334 121.492519 32.478208 C 121.799762 32.233412 122.191933 32.14099 122.429235 32.138492 Z M 122.429235 32.138492 " transform="matrix(1.563807,0,0,1.563807,-62.182288,23.475968)"/>
<path style="fill:none;stroke-width:0.125;stroke-linecap:butt;stroke-linejoin:miter;stroke:rgb(0%,0%,0%);stroke-opacity:1;stroke-miterlimit:4;" d="M 123.550797 29.205945 C 123.081189 29.03359 122.651549 28.928677 122.102009 29.043581 " transform="matrix(1.563807,0,0,1.563807,-62.182288,23.475968)"/>
<path style="fill:none;stroke-width:0.125;stroke-linecap:butt;stroke-linejoin:miter;stroke:rgb(0%,0%,0%);stroke-opacity:1;stroke-miterlimit:4;" d="M 116.479213 28.983631 C 116.094535 29.812938 116.32684 30.222595 116.384292 30.607273 " transform="matrix(1.563807,0,0,1.563807,-62.182288,23.475968)"/>
<path style="fill:none;stroke-width:0.125;stroke-linecap:butt;stroke-linejoin:miter;stroke:rgb(0%,0%,0%);stroke-opacity:1;stroke-miterlimit:4;" d="M 112.370151 25.051921 C 112.634929 25.18431 112.784804 24.809624 113.17198 25.206791 C 113.067068 25.091887 112.932181 25.516532 112.634929 25.234268 " transform="matrix(1.563807,0,0,1.563807,-62.182288,23.475968)"/>
<path style="fill:none;stroke-width:0.125;stroke-linecap:butt;stroke-linejoin:miter;stroke:rgb(0%,0%,0%);stroke-opacity:1;stroke-miterlimit:4;" d="M 114.530843 25.051921 C 114.266065 25.18431 114.11619 24.809624 113.726516 25.206791 C 113.833926 25.091887 113.966315 25.516532 114.266065 25.234268 " transform="matrix(1.563807,0,0,1.563807,-62.182288,23.475968)"/>
<path style="fill:none;stroke-width:0.125;stroke-linecap:butt;stroke-linejoin:miter;stroke:rgb(0%,0%,0%);stroke-opacity:1;stroke-miterlimit:4;" d="M 113.729014 25.206791 C 113.639089 25.281729 113.629097 25.146841 113.699039 25.501545 C 113.826432 26.153499 113.978805 26.458244 113.451746 26.458244 C 112.912197 26.458244 113.077059 26.153499 113.201955 25.501545 C 113.271896 25.146841 113.264403 25.281729 113.17198 25.206791 " transform="matrix(1.563807,0,0,1.563807,-62.182288,23.475968)"/>
<path style="fill-rule:nonzero;fill:rgb(100%,0%,8.627451%);fill-opacity:1;stroke-width:0.0625;stroke-linecap:butt;stroke-linejoin:miter;stroke:rgb(0%,0%,0%);stroke-opacity:1;stroke-miterlimit:4;" d="M 113.45924 27.707199 C 113.88888 27.707199 114.136173 27.699706 114.06873 27.097709 C 114.041253 26.855412 114.360985 26.760491 114.248579 26.368319 C 114.368479 26.850416 113.45924 26.802956 113.45924 26.585638 C 113.45924 26.802956 112.55 26.850416 112.6699 26.368319 C 112.557494 26.760491 112.877227 26.855412 112.852247 27.097709 C 112.784804 27.699706 113.032097 27.707199 113.45924 27.707199 Z M 113.45924 27.707199 " transform="matrix(1.563807,0,0,1.563807,-62.182288,23.475968)"/>
<path style="fill-rule:nonzero;fill:rgb(0%,0%,0%);fill-opacity:1;stroke-width:0.0625;stroke-linecap:butt;stroke-linejoin:miter;stroke:rgb(0%,0%,0%);stroke-opacity:1;stroke-miterlimit:4;" d="M 113.069566 26.488219 L 112.042925 26.20096 " transform="matrix(1.563807,0,0,1.563807,-62.182288,23.475968)"/>
<path style="fill-rule:nonzero;fill:rgb(0%,0%,0%);fill-opacity:1;stroke-width:0.0625;stroke-linecap:butt;stroke-linejoin:miter;stroke:rgb(0%,0%,0%);stroke-opacity:1;stroke-miterlimit:4;" d="M 113.069566 26.543173 L 111.923025 26.533182 " transform="matrix(1.563807,0,0,1.563807,-62.182288,23.475968)"/>
<path style="fill-rule:nonzero;fill:rgb(0%,0%,0%);fill-opacity:1;stroke-width:0.0625;stroke-linecap:butt;stroke-linejoin:miter;stroke:rgb(0%,0%,0%);stroke-opacity:1;stroke-miterlimit:4;" d="M 113.079557 26.603123 L 112.100376 26.865404 " transform="matrix(1.563807,0,0,1.563807,-62.182288,23.475968)"/>
<path style="fill-rule:nonzero;fill:rgb(0%,0%,0%);fill-opacity:1;stroke-width:0.0625;stroke-linecap:butt;stroke-linejoin:miter;stroke:rgb(0%,0%,0%);stroke-opacity:1;stroke-miterlimit:4;" d="M 113.838922 26.488219 L 114.868061 26.20096 " transform="matrix(1.563807,0,0,1.563807,-62.182288,23.475968)"/>
<path style="fill-rule:nonzero;fill:rgb(0%,0%,0%);fill-opacity:1;stroke-width:0.0625;stroke-linecap:butt;stroke-linejoin:miter;stroke:rgb(0%,0%,0%);stroke-opacity:1;stroke-miterlimit:4;" d="M 113.838922 26.543173 L 114.987961 26.533182 " transform="matrix(1.563807,0,0,1.563807,-62.182288,23.475968)"/>
<path style="fill-rule:nonzero;fill:rgb(0%,0%,0%);fill-opacity:1;stroke-width:0.0625;stroke-linecap:butt;stroke-linejoin:miter;stroke:rgb(0%,0%,0%);stroke-opacity:1;stroke-miterlimit:4;" d="M 113.82893 26.603123 L 114.808111 26.865404 " transform="matrix(1.563807,0,0,1.563807,-62.182288,23.475968)"/>
<path style="fill-rule:nonzero;fill:rgb(0%,31.764707%,72.941178%);fill-opacity:1;stroke-width:0.013;stroke-linecap:butt;stroke-linejoin:miter;stroke:rgb(0%,0%,0%);stroke-opacity:1;stroke-miterlimit:4;" d="M 108.131197 23.413292 C 107.831448 23.041103 107.082075 23.35584 107.067088 23.817953 C 107.319376 23.518204 107.73403 23.950342 107.958841 23.860418 C 108.113712 23.795472 108.251097 23.565664 108.131197 23.413292 Z M 108.131197 23.413292 " transform="matrix(1.563807,0,0,1.563807,-62.182288,23.475968)"/>
<path style="fill-rule:nonzero;fill:rgb(0%,31.764707%,72.941178%);fill-opacity:1;stroke-width:0.013;stroke-linecap:butt;stroke-linejoin:miter;stroke:rgb(0%,0%,0%);stroke-opacity:1;stroke-miterlimit:4;" d="M 107.749017 24.295054 C 107.451766 23.922865 106.702393 24.237602 106.687405 24.699716 C 106.939694 24.399966 107.351849 24.832105 107.579159 24.739682 C 107.73403 24.677234 107.871415 24.447427 107.749017 24.295054 Z M 107.749017 24.295054 " transform="matrix(1.563807,0,0,1.563807,-62.182288,23.475968)"/>
<path style="fill-rule:nonzero;fill:rgb(0%,31.764707%,72.941178%);fill-opacity:1;stroke-width:0.013;stroke-linecap:butt;stroke-linejoin:miter;stroke:rgb(0%,0%,0%);stroke-opacity:1;stroke-miterlimit:4;" d="M 107.549184 25.479063 C 107.211966 25.141846 106.50256 25.539013 106.540029 26.001127 C 106.757347 25.6739 107.216962 26.056081 107.429285 25.941177 C 107.579159 25.861244 107.689067 25.616449 107.549184 25.479063 Z M 107.549184 25.479063 " transform="matrix(1.563807,0,0,1.563807,-62.182288,23.475968)"/>
<path style="fill-rule:nonzero;fill:rgb(0%,31.764707%,72.941178%);fill-opacity:1;stroke-width:0.013;stroke-linecap:butt;stroke-linejoin:miter;stroke:rgb(0%,0%,0%);stroke-opacity:1;stroke-miterlimit:4;" d="M 107.908883 29.148493 C 107.534197 28.85374 106.877246 29.328343 106.967171 29.780465 C 107.144523 29.433255 107.644105 29.760481 107.843938 29.620598 C 107.981323 29.52318 108.063754 29.268393 107.908883 29.148493 Z M 107.908883 29.148493 " transform="matrix(1.563807,0,0,1.563807,-62.182288,23.475968)"/>
<path style="fill-rule:nonzero;fill:rgb(0%,31.764707%,72.941178%);fill-opacity:1;stroke-width:0.013;stroke-linecap:butt;stroke-linejoin:miter;stroke:rgb(0%,0%,0%);stroke-opacity:1;stroke-miterlimit:4;" d="M 107.8889 29.950323 C 107.441774 29.785461 106.962175 30.439913 107.186987 30.844574 C 107.249435 30.457398 107.823954 30.614767 107.971331 30.41993 C 108.073745 30.28754 108.071247 30.017766 107.8889 29.950323 Z M 107.8889 29.950323 " transform="matrix(1.563807,0,0,1.563807,-62.182288,23.475968)"/>
<path style="fill-rule:nonzero;fill:rgb(0%,31.764707%,72.941178%);fill-opacity:1;stroke-width:0.013;stroke-linecap:butt;stroke-linejoin:miter;stroke:rgb(0%,0%,0%);stroke-opacity:1;stroke-miterlimit:4;" d="M 108.460921 30.549821 C 108.011298 30.384959 107.531699 31.039411 107.756511 31.444073 C 107.818959 31.056897 108.395976 31.214265 108.540855 31.021926 C 108.643269 30.887039 108.640771 30.617265 108.460921 30.549821 Z M 108.460921 30.549821 " transform="matrix(1.563807,0,0,1.563807,-62.182288,23.475968)"/>
<path style="fill-rule:nonzero;fill:rgb(0%,31.764707%,72.941178%);fill-opacity:1;stroke-width:0.013;stroke-linecap:butt;stroke-linejoin:miter;stroke:rgb(0%,0%,0%);stroke-opacity:1;stroke-miterlimit:4;" d="M 120.201099 31.713847 C 119.751475 31.548985 119.271877 32.203438 119.496688 32.608099 C 119.559136 32.220923 120.136153 32.378291 120.281032 32.183454 C 120.383447 32.048567 120.380949 31.781291 120.201099 31.713847 Z M 120.201099 31.713847 " transform="matrix(1.563807,0,0,1.563807,-62.182288,23.475968)"/>
<path style="fill-rule:nonzero;fill:rgb(0%,31.764707%,72.941178%);fill-opacity:1;stroke-width:0.013;stroke-linecap:butt;stroke-linejoin:miter;stroke:rgb(0%,0%,0%);stroke-opacity:1;stroke-miterlimit:4;" d="M 120.810589 32.258392 C 120.345978 32.145986 119.943814 32.850396 120.213589 33.225083 C 120.231074 32.832911 120.820581 32.925334 120.945476 32.715509 C 121.030405 32.57063 120.997932 32.303354 120.810589 32.258392 Z M 120.810589 32.258392 " transform="matrix(1.563807,0,0,1.563807,-62.182288,23.475968)"/>
<path style="fill-rule:nonzero;fill:rgb(0%,31.764707%,72.941178%);fill-opacity:1;stroke-width:0.013;stroke-linecap:butt;stroke-linejoin:miter;stroke:rgb(0%,0%,0%);stroke-opacity:1;stroke-miterlimit:4;" d="M 120.380949 30.941993 C 119.966296 30.702194 119.381785 31.266721 119.534157 31.703856 C 119.664048 31.331667 120.203597 31.583956 120.380949 31.419094 C 120.503346 31.30419 120.548309 31.039411 120.380949 30.941993 Z M 120.380949 30.941993 " transform="matrix(1.563807,0,0,1.563807,-62.182288,23.475968)"/>
<path style="fill-rule:nonzero;fill:rgb(0%,31.764707%,72.941178%);fill-opacity:1;stroke-width:0.013;stroke-linecap:butt;stroke-linejoin:miter;stroke:rgb(0%,0%,0%);stroke-opacity:1;stroke-miterlimit:4;" d="M 128.728964 31.883705 C 128.266851 31.768801 127.864687 32.47571 128.131964 32.850396 C 128.151947 32.458224 128.741454 32.550647 128.863851 32.340823 C 128.951278 32.195944 128.918805 31.928667 128.728964 31.883705 Z M 128.728964 31.883705 " transform="matrix(1.563807,0,0,1.563807,-62.182288,23.475968)"/>
<path style="fill-rule:nonzero;fill:rgb(0%,31.764707%,72.941178%);fill-opacity:1;stroke-width:0.013;stroke-linecap:butt;stroke-linejoin:miter;stroke:rgb(0%,0%,0%);stroke-opacity:1;stroke-miterlimit:4;" d="M 128.748948 31.146822 C 128.329299 30.92201 127.764771 31.504023 127.932131 31.936161 C 128.047035 31.561475 128.596575 31.79378 128.768931 31.623922 C 128.886333 31.504023 128.921303 31.236746 128.748948 31.146822 Z M 128.748948 31.146822 " transform="matrix(1.563807,0,0,1.563807,-62.182288,23.475968)"/>
<path style="fill-rule:nonzero;fill:rgb(0%,31.764707%,72.941178%);fill-opacity:1;stroke-width:0.013;stroke-linecap:butt;stroke-linejoin:miter;stroke:rgb(0%,0%,0%);stroke-opacity:1;stroke-miterlimit:4;" d="M 129.071178 32.543153 C 128.601571 32.448233 128.23188 33.170129 128.516642 33.534824 C 128.51914 33.142652 129.111145 33.207597 129.226048 32.992777 C 129.305982 32.8454 129.261019 32.580622 129.071178 32.543153 Z M 129.071178 32.543153 " transform="matrix(1.563807,0,0,1.563807,-62.182288,23.475968)"/>
<path style="fill-rule:nonzero;fill:rgb(0%,31.764707%,72.941178%);fill-opacity:1;stroke-width:0.013;stroke-linecap:butt;stroke-linejoin:miter;stroke:rgb(0%,0%,0%);stroke-opacity:1;stroke-miterlimit:4;" d="M 113.489215 27.345002 C 113.783968 27.345002 113.903868 27.429931 113.903868 27.961986 C 113.903868 29.086046 113.88888 29.57064 113.529181 29.57064 C 113.164486 29.57064 113.189465 29.111025 113.189465 28.284217 C 113.189465 27.854576 113.189465 27.639756 113.102038 27.674726 C 113.102038 27.392463 113.226934 27.345002 113.489215 27.345002 Z M 113.489215 27.345002 " transform="matrix(1.563807,0,0,1.563807,-62.182288,23.475968)"/>
<path style="fill-rule:nonzero;fill:rgb(97.647059%,86.666667%,8.627451%);fill-opacity:1;stroke-width:0.125;stroke-linecap:butt;stroke-linejoin:miter;stroke:rgb(0%,0%,0%);stroke-opacity:1;stroke-miterlimit:4;" d="M 130.648382 32.20112 C 130.33633 32.276057 130.33633 32.680718 130.16856 32.680718 C 130.990633 32.659736 131.38657 32.431927 131.63487 32.018273 C 131.453678 32.186132 131.611382 32.500869 131.550985 32.575806 C 132.151602 32.365982 132.440167 31.853411 132.228776 31.508699 C 132.362992 31.703536 132.755574 31.808448 132.876369 31.823436 C 132.453588 31.493712 132.755574 30.741341 132.077783 30.351667 C 132.302595 30.33668 132.738797 30.591466 132.859592 30.891216 C 132.755574 30.21678 132.648201 29.779146 132.09456 29.40446 C 132.151602 29.473402 132.470365 29.533352 132.604581 29.40446 C 132.245553 29.179648 132.13818 28.801964 132.168379 28.562164 C 132.211999 28.226445 131.987187 28.157503 131.567762 28.262415 C 131.188602 28.355337 130.319553 28.41229 129.809532 28.41229 C 128.755936 28.41229 127.839911 28.41229 126.967507 27.809794 C 128.276113 28.35234 129.943748 27.210295 129.943748 26.263088 C 129.943748 25.210968 128.651918 24.353685 126.034705 24.926206 C 123.420847 25.49573 120.236571 25.255931 120.236571 24.38366 C 120.236571 23.51139 122.518244 23.391491 123.692635 23.57134 C 124.86367 23.754187 125.705876 23.874087 127.900308 23.091741 C 127.360089 23.301566 125.61528 23.361516 124.232854 22.971842 C 122.850429 22.582168 119.451407 22.582168 119.424564 24.413635 C 119.394365 26.2481 123.038331 26.080241 126.185698 25.61563 C 128.021103 25.345855 128.980748 25.525705 128.980748 26.128201 C 128.980748 26.697724 127.299691 26.940521 126.004506 26.787649 C 124.712677 26.637774 123.390649 26.667749 121.85723 27.120371 C 120.578822 27.495057 119.692996 27.120371 118.280372 27.36017 C 117.59587 27.477072 115.934946 27.36017 115.116229 26.008301 C 114.612918 26.368 113.096277 27.123368 112.841266 27.860751 C 112.478883 28.535187 112.720472 29.209623 113.200294 29.869071 C 113.807622 30.702374 112.901664 30.576479 112.254071 30.606454 C 111.368245 30.648419 110.180433 30.513532 109.563039 29.809121 C 109.016109 29.18864 108.284631 28.688059 107.700791 29.149673 C 107.40216 29.386475 107.690725 29.701211 107.925603 29.614284 C 108.160481 29.527357 108.43898 29.701211 108.690635 29.809121 C 108.291342 29.638264 107.848429 29.770154 107.677303 29.926023 C 107.43907 30.138845 107.727634 30.543507 108.016199 30.399627 C 108.241011 30.28872 108.700701 30.213782 109.002687 30.486554 C 108.677213 30.426604 108.338317 30.438594 108.177258 30.612449 C 108.016199 30.786303 108.140349 31.04109 108.489311 31.026103 C 109.053018 30.999125 109.1973 31.394794 109.757652 31.313862 C 109.412046 31.358824 109.217433 31.538674 109.126837 31.673561 C 109.653635 31.433762 110.234119 32.08122 110.915266 31.928348 C 110.650189 32.039255 110.220698 32.300037 110.224053 32.500869 C 110.630057 32.03326 113.351287 32.860568 113.411685 31.838423 C 113.485503 32.048248 113.472082 32.365982 113.260691 32.635756 C 113.609653 32.425932 114.733713 32.350994 115.079319 31.538674 C 115.109518 31.778473 115.062542 32.096208 114.854507 32.171145 C 115.213535 32.288047 115.690002 32.018273 116.176535 31.298875 C 116.367793 31.011115 116.414769 30.822273 116.381215 30.606454 C 116.864393 30.624439 117.213354 30.504539 117.589159 30.186805 C 117.978386 29.854083 118.401167 30.456579 119.062181 30.03693 C 119.723195 29.614284 120.293613 29.976981 120.655996 29.764159 C 121.015024 29.554334 121.511624 29.839096 121.904206 29.599297 C 122.293432 29.359497 122.90076 29.716199 123.548353 29.206625 C 124.565039 29.578314 125.752851 30.270735 128.66534 29.734184 C 130.33633 29.42844 130.859772 29.991968 130.859772 30.756329 C 130.859772 31.283887 130.554431 31.32885 130.319553 31.343837 C 129.390107 31.400789 128.990814 30.996128 128.625075 31.12502 C 128.380131 31.211947 128.229138 31.613611 128.58481 31.751496 C 128.289535 31.901371 128.3298 32.183135 128.477437 32.28505 C 128.62843 32.386964 129.017657 32.294042 129.279378 32.171145 C 128.940483 32.324017 128.591521 32.599786 128.78949 32.887545 C 128.91364 33.0614 129.218981 33.211275 129.50419 32.836588 C 129.789399 32.461902 130.316197 32.150162 130.648382 32.20112 Z M 130.648382 32.20112 " transform="matrix(1.164168,0,0,1.303173,-14.225531,47.454347)"/>
<path style="fill-rule:nonzero;fill:rgb(97.647059%,86.666667%,8.627451%);fill-opacity:1;stroke-width:0.125;stroke-linecap:butt;stroke-linejoin:miter;stroke:rgb(0%,0%,0%);stroke-opacity:1;stroke-miterlimit:4;" d="M 112.139987 24.263761 C 111.297782 23.919049 111.012572 23.910057 111.207186 24.593485 C 111.291071 24.887239 111.492395 25.300893 111.697074 25.489735 C 111.703785 25.204973 111.807803 24.413635 112.139987 24.263761 Z M 112.139987 24.263761 " transform="matrix(1.164168,0,0,1.303173,-14.225531,47.454347)"/>
<path style="fill-rule:nonzero;fill:rgb(97.647059%,86.666667%,8.627451%);fill-opacity:1;stroke-width:0.125;stroke-linecap:butt;stroke-linejoin:miter;stroke:rgb(0%,0%,0%);stroke-opacity:1;stroke-miterlimit:4;" d="M 114.770622 24.263761 C 115.612828 23.919049 115.894682 23.910057 115.703424 24.593485 C 115.619539 24.887239 115.414859 25.300893 115.213535 25.489735 C 115.206824 25.204973 115.099452 24.413635 114.770622 24.263761 Z M 114.770622 24.263761 " transform="matrix(1.164168,0,0,1.303173,-14.225531,47.454347)"/>
<path style="fill-rule:nonzero;fill:rgb(97.647059%,86.666667%,8.627451%);fill-opacity:1;stroke-width:0.125;stroke-linecap:butt;stroke-linejoin:miter;stroke:rgb(0%,0%,0%);stroke-opacity:1;stroke-miterlimit:4;" d="M 113.45866 23.802147 C 115.052476 23.802147 115.250445 24.548522 115.243734 25.480742 C 115.237023 26.4879 114.696803 26.143188 114.388106 27.435107 C 114.267312 27.941683 113.864664 27.968661 113.45866 27.968661 C 113.052657 27.968661 112.653364 27.941683 112.532569 27.435107 C 112.223872 26.143188 111.683653 26.4879 111.673587 25.480742 C 111.666876 24.548522 111.864844 23.802147 113.45866 23.802147 Z M 113.45866 23.802147 " transform="matrix(1.164168,0,0,1.303173,-14.225531,47.454347)"/>
<path style="fill-rule:nonzero;fill:rgb(97.647059%,86.666667%,8.627451%);fill-opacity:1;stroke-width:0.125;stroke-linecap:butt;stroke-linejoin:miter;stroke:rgb(0%,0%,0%);stroke-opacity:1;stroke-miterlimit:4;" d="M 109.35836 27.495057 C 108.952356 27.255258 108.690635 27.42012 108.52622 27.465082 C 109.053018 27.599969 109.07315 28.277403 110.27774 28.592139 C 110.005952 28.517202 109.854959 28.667077 109.599948 28.532189 C 110.096548 28.921863 110.653545 29.374485 111.82458 29.389472 C 112.478883 29.395467 112.025904 29.734184 111.599768 29.539347 C 112.042681 29.997963 112.921796 29.623277 113.478793 30.456579 C 113.58281 29.809121 112.441974 28.786976 112.965416 28.052591 C 111.344757 27.980651 111.210541 27.084401 110.27774 26.368 C 109.516063 25.786487 109.448955 25.195981 109.113415 24.086909 C 108.959067 23.586327 108.371871 23.274588 108.046398 23.394488 C 107.764544 23.496403 107.660526 23.742197 107.902115 23.928042 C 108.14706 24.110889 108.459112 24.137866 108.52622 24.605475 C 108.207457 24.224793 107.734345 24.086909 107.506178 24.323711 C 107.368606 24.46759 107.422293 24.806307 107.720924 24.836282 C 108.207457 24.887239 107.858495 25.360843 108.412136 25.825454 C 107.922248 25.273916 107.496112 25.225956 107.23439 25.525705 C 107.076687 25.705554 107.23439 26.023289 107.573286 25.990316 C 108.059819 25.939359 108.626882 27.180321 109.35836 27.495057 Z M 109.35836 27.495057 " transform="matrix(1.164168,0,0,1.303173,-14.225531,47.454347)"/>
<path style="fill-rule:nonzero;fill:rgb(97.647059%,86.666667%,8.627451%);fill-opacity:1;stroke-width:0.125;stroke-linecap:butt;stroke-linejoin:miter;stroke:rgb(0%,0%,0%);stroke-opacity:1;stroke-miterlimit:4;" d="M 122.431004 32.138172 C 122.172638 32.183135 122.249812 32.605781 121.904206 32.635756 C 122.729635 32.635756 123.152415 32.440919 123.541642 32.123185 C 123.36045 32.228097 123.286631 32.500869 123.27321 32.650744 C 123.709412 32.27306 124.746231 32.243085 125.28645 32.350994 C 125.82667 32.455907 125.917266 32.198122 126.111879 31.853411 C 126.306493 31.508699 126.03806 31.313862 125.766273 31.04109 C 125.494485 30.771316 125.437444 30.39663 125.494485 29.764159 C 124.051663 27.839769 121.468004 28.771989 121.437805 29.614284 C 122.370607 30.696379 122.491401 30.576479 123.27321 30.726354 C 124.051663 30.876228 124.531485 30.876228 124.008043 31.313862 C 123.826851 31.463737 123.075241 31.391797 122.491401 31.418774 C 121.179439 31.475727 120.578822 30.510534 120.192951 31.011115 C 119.874188 31.421772 120.203017 31.604619 120.85061 31.583636 C 120.400986 31.586634 119.803724 31.562654 119.907742 31.982303 C 120.078867 32.686713 120.753303 31.850413 121.01838 32.14117 C 120.793568 32.087215 120.441251 32.2251 120.427829 32.437922 C 120.417763 32.650744 120.927784 32.923515 121.491491 32.476889 C 121.800188 32.234092 122.19277 32.14117 122.431004 32.138172 Z M 122.431004 32.138172 " transform="matrix(1.164168,0,0,1.303173,-14.225531,47.454347)"/>
<path style="fill:none;stroke-width:0.125;stroke-linecap:butt;stroke-linejoin:miter;stroke:rgb(0%,0%,0%);stroke-opacity:1;stroke-miterlimit:4;" d="M 123.548353 29.206625 C 123.081952 29.035768 122.65246 28.930856 122.102174 29.041763 " transform="matrix(1.164168,0,0,1.303173,-14.225531,47.454347)"/>
<path style="fill:none;stroke-width:0.125;stroke-linecap:butt;stroke-linejoin:miter;stroke:rgb(0%,0%,0%);stroke-opacity:1;stroke-miterlimit:4;" d="M 116.478522 28.981813 C 116.09265 29.812119 116.327528 30.222775 116.38457 30.606454 " transform="matrix(1.164168,0,0,1.303173,-14.225531,47.454347)"/>
<path style="fill:none;stroke-width:0.125;stroke-linecap:butt;stroke-linejoin:miter;stroke:rgb(0%,0%,0%);stroke-opacity:1;stroke-miterlimit:4;" d="M 112.37151 25.052101 C 112.636587 25.183991 112.784224 24.809304 113.173451 25.207971 C 113.066078 25.091069 112.931862 25.516712 112.636587 25.234948 " transform="matrix(1.164168,0,0,1.303173,-14.225531,47.454347)"/>
<path style="fill:none;stroke-width:0.125;stroke-linecap:butt;stroke-linejoin:miter;stroke:rgb(0%,0%,0%);stroke-opacity:1;stroke-miterlimit:4;" d="M 114.529033 25.052101 C 114.263957 25.183991 114.116319 24.809304 113.727092 25.207971 C 113.834465 25.091069 113.965326 25.516712 114.263957 25.234948 " transform="matrix(1.164168,0,0,1.303173,-14.225531,47.454347)"/>
<path style="fill:none;stroke-width:0.125;stroke-linecap:butt;stroke-linejoin:miter;stroke:rgb(0%,0%,0%);stroke-opacity:1;stroke-miterlimit:4;" d="M 113.730448 25.207971 C 113.639852 25.282908 113.629786 25.148021 113.700249 25.501725 C 113.827754 26.152181 113.978747 26.457925 113.451949 26.457925 C 112.91173 26.457925 113.076144 26.152181 113.20365 25.501725 C 113.274113 25.148021 113.264047 25.282908 113.173451 25.207971 " transform="matrix(1.164168,0,0,1.303173,-14.225531,47.454347)"/>
<path style="fill-rule:nonzero;fill:rgb(100%,0%,8.627451%);fill-opacity:1;stroke-width:0.0625;stroke-linecap:butt;stroke-linejoin:miter;stroke:rgb(0%,0%,0%);stroke-opacity:1;stroke-miterlimit:4;" d="M 113.45866 27.704882 C 113.888152 27.704882 114.136451 27.698887 114.069343 27.096391 C 114.0425 26.856591 114.361263 26.760672 114.250535 26.368 C 114.367974 26.850596 113.45866 26.802636 113.45866 26.58382 C 113.45866 26.802636 112.549346 26.850596 112.670141 26.368 C 112.559413 26.760672 112.878176 26.856591 112.851333 27.096391 C 112.784224 27.698887 113.032524 27.704882 113.45866 27.704882 Z M 113.45866 27.704882 " transform="matrix(1.164168,0,0,1.303173,-14.225531,47.454347)"/>
<path style="fill-rule:nonzero;fill:rgb(0%,0%,0%);fill-opacity:1;stroke-width:0.0625;stroke-linecap:butt;stroke-linejoin:miter;stroke:rgb(0%,0%,0%);stroke-opacity:1;stroke-miterlimit:4;" d="M 113.069434 26.4879 L 112.042681 26.203138 " transform="matrix(1.164168,0,0,1.303173,-14.225531,47.454347)"/>
<path style="fill-rule:nonzero;fill:rgb(0%,0%,0%);fill-opacity:1;stroke-width:0.0625;stroke-linecap:butt;stroke-linejoin:miter;stroke:rgb(0%,0%,0%);stroke-opacity:1;stroke-miterlimit:4;" d="M 113.069434 26.541855 L 111.921886 26.532862 " transform="matrix(1.164168,0,0,1.303173,-14.225531,47.454347)"/>
<path style="fill-rule:nonzero;fill:rgb(0%,0%,0%);fill-opacity:1;stroke-width:0.0625;stroke-linecap:butt;stroke-linejoin:miter;stroke:rgb(0%,0%,0%);stroke-opacity:1;stroke-miterlimit:4;" d="M 113.0795 26.601805 L 112.099723 26.865584 " transform="matrix(1.164168,0,0,1.303173,-14.225531,47.454347)"/>
<path style="fill-rule:nonzero;fill:rgb(0%,0%,0%);fill-opacity:1;stroke-width:0.0625;stroke-linecap:butt;stroke-linejoin:miter;stroke:rgb(0%,0%,0%);stroke-opacity:1;stroke-miterlimit:4;" d="M 113.841176 26.4879 L 114.867929 26.203138 " transform="matrix(1.164168,0,0,1.303173,-14.225531,47.454347)"/>
<path style="fill-rule:nonzero;fill:rgb(0%,0%,0%);fill-opacity:1;stroke-width:0.0625;stroke-linecap:butt;stroke-linejoin:miter;stroke:rgb(0%,0%,0%);stroke-opacity:1;stroke-miterlimit:4;" d="M 113.841176 26.541855 L 114.988723 26.532862 " transform="matrix(1.164168,0,0,1.303173,-14.225531,47.454347)"/>
<path style="fill-rule:nonzero;fill:rgb(0%,0%,0%);fill-opacity:1;stroke-width:0.0625;stroke-linecap:butt;stroke-linejoin:miter;stroke:rgb(0%,0%,0%);stroke-opacity:1;stroke-miterlimit:4;" d="M 113.83111 26.601805 L 114.807532 26.865584 " transform="matrix(1.164168,0,0,1.303173,-14.225531,47.454347)"/>
<path style="fill-rule:nonzero;fill:rgb(0%,31.764707%,72.941178%);fill-opacity:1;stroke-width:0.013;stroke-linecap:butt;stroke-linejoin:miter;stroke:rgb(0%,0%,0%);stroke-opacity:1;stroke-miterlimit:4;" d="M 108.130283 23.41547 C 107.831652 23.040784 107.083397 23.355521 107.06662 23.817134 C 107.321631 23.517385 107.734345 23.949024 107.959157 23.859099 C 108.113506 23.796152 108.251077 23.565345 108.130283 23.41547 Z M 108.130283 23.41547 " transform="matrix(1.164168,0,0,1.303173,-14.225531,47.454347)"/>
<path style="fill-rule:nonzero;fill:rgb(0%,31.764707%,72.941178%);fill-opacity:1;stroke-width:0.013;stroke-linecap:butt;stroke-linejoin:miter;stroke:rgb(0%,0%,0%);stroke-opacity:1;stroke-miterlimit:4;" d="M 107.751122 24.293736 C 107.452491 23.922047 106.704237 24.236783 106.68746 24.698397 C 106.939115 24.398648 107.351829 24.830287 107.579997 24.740362 C 107.734345 24.677415 107.871917 24.446608 107.751122 24.293736 Z M 107.751122 24.293736 " transform="matrix(1.164168,0,0,1.303173,-14.225531,47.454347)"/>
<path style="fill-rule:nonzero;fill:rgb(0%,31.764707%,72.941178%);fill-opacity:1;stroke-width:0.013;stroke-linecap:butt;stroke-linejoin:miter;stroke:rgb(0%,0%,0%);stroke-opacity:1;stroke-miterlimit:4;" d="M 107.549798 25.477745 C 107.210903 25.142026 106.502913 25.540692 106.539822 25.999309 C 106.757923 25.672582 107.217613 26.056261 107.429004 25.939359 C 107.576641 25.861424 107.68737 25.61563 107.549798 25.477745 Z M 107.549798 25.477745 " transform="matrix(1.164168,0,0,1.303173,-14.225531,47.454347)"/>
<path style="fill-rule:nonzero;fill:rgb(0%,31.764707%,72.941178%);fill-opacity:1;stroke-width:0.013;stroke-linecap:butt;stroke-linejoin:miter;stroke:rgb(0%,0%,0%);stroke-opacity:1;stroke-miterlimit:4;" d="M 107.908826 29.146675 C 107.533021 28.852921 106.875362 29.329522 106.965958 29.782144 C 107.143795 29.434435 107.643749 29.761161 107.841718 29.620279 C 107.982645 29.524359 108.063175 29.269572 107.908826 29.146675 Z M 107.908826 29.146675 " transform="matrix(1.164168,0,0,1.303173,-14.225531,47.454347)"/>
<path style="fill-rule:nonzero;fill:rgb(0%,31.764707%,72.941178%);fill-opacity:1;stroke-width:0.013;stroke-linecap:butt;stroke-linejoin:miter;stroke:rgb(0%,0%,0%);stroke-opacity:1;stroke-miterlimit:4;" d="M 107.888694 29.950003 C 107.442425 29.785141 106.962603 30.441592 107.187415 30.843256 C 107.247812 30.456579 107.824941 30.615446 107.972579 30.420609 C 108.073241 30.285722 108.073241 30.018946 107.888694 29.950003 Z M 107.888694 29.950003 " transform="matrix(1.164168,0,0,1.303173,-14.225531,47.454347)"/>
<path style="fill-rule:nonzero;fill:rgb(0%,31.764707%,72.941178%);fill-opacity:1;stroke-width:0.013;stroke-linecap:butt;stroke-linejoin:miter;stroke:rgb(0%,0%,0%);stroke-opacity:1;stroke-miterlimit:4;" d="M 108.459112 30.549502 C 108.012844 30.38464 107.533021 31.04109 107.754478 31.445752 C 107.81823 31.056078 108.395359 31.214945 108.542997 31.020108 C 108.643659 30.885221 108.643659 30.618444 108.459112 30.549502 Z M 108.459112 30.549502 " transform="matrix(1.164168,0,0,1.303173,-14.225531,47.454347)"/>
<path style="fill-rule:nonzero;fill:rgb(0%,31.764707%,72.941178%);fill-opacity:1;stroke-width:0.013;stroke-linecap:butt;stroke-linejoin:miter;stroke:rgb(0%,0%,0%);stroke-opacity:1;stroke-miterlimit:4;" d="M 120.199662 31.712529 C 119.753393 31.547666 119.273571 32.204117 119.498383 32.608779 C 119.55878 32.219105 120.135909 32.377972 120.283547 32.183135 C 120.384209 32.048248 120.380853 31.781471 120.199662 31.712529 Z M 120.199662 31.712529 " transform="matrix(1.164168,0,0,1.303173,-14.225531,47.454347)"/>
<path style="fill-rule:nonzero;fill:rgb(0%,31.764707%,72.941178%);fill-opacity:1;stroke-width:0.013;stroke-linecap:butt;stroke-linejoin:miter;stroke:rgb(0%,0%,0%);stroke-opacity:1;stroke-miterlimit:4;" d="M 120.810345 32.258072 C 120.347299 32.144167 119.944651 32.848578 120.213083 33.226262 C 120.22986 32.833591 120.820411 32.923515 120.944561 32.716688 C 121.031801 32.569811 120.998247 32.303034 120.810345 32.258072 Z M 120.810345 32.258072 " transform="matrix(1.164168,0,0,1.303173,-14.225531,47.454347)"/>
<path style="fill-rule:nonzero;fill:rgb(0%,31.764707%,72.941178%);fill-opacity:1;stroke-width:0.013;stroke-linecap:butt;stroke-linejoin:miter;stroke:rgb(0%,0%,0%);stroke-opacity:1;stroke-miterlimit:4;" d="M 120.380853 30.942173 C 119.964784 30.702374 119.380944 31.265902 119.535292 31.703536 C 119.662798 31.331847 120.203017 31.586634 120.380853 31.418774 C 120.505003 31.30487 120.548624 31.038093 120.380853 30.942173 Z M 120.380853 30.942173 " transform="matrix(1.164168,0,0,1.303173,-14.225531,47.454347)"/>
<path style="fill-rule:nonzero;fill:rgb(0%,31.764707%,72.941178%);fill-opacity:1;stroke-width:0.013;stroke-linecap:butt;stroke-linejoin:miter;stroke:rgb(0%,0%,0%);stroke-opacity:1;stroke-miterlimit:4;" d="M 128.729092 31.883386 C 128.266047 31.769481 127.863399 32.473892 128.131831 32.851576 C 128.151963 32.458904 128.742514 32.548829 128.866664 32.339004 C 128.950549 32.195125 128.92035 31.928348 128.729092 31.883386 Z M 128.729092 31.883386 " transform="matrix(1.164168,0,0,1.303173,-14.225531,47.454347)"/>
<path style="fill-rule:nonzero;fill:rgb(0%,31.764707%,72.941178%);fill-opacity:1;stroke-width:0.013;stroke-linecap:butt;stroke-linejoin:miter;stroke:rgb(0%,0%,0%);stroke-opacity:1;stroke-miterlimit:4;" d="M 128.749225 31.146003 C 128.3298 30.921191 127.766092 31.505702 127.930507 31.934343 C 128.047946 31.559656 128.594876 31.796458 128.769357 31.622604 C 128.886796 31.502704 128.92035 31.238925 128.749225 31.146003 Z M 128.749225 31.146003 " transform="matrix(1.164168,0,0,1.303173,-14.225531,47.454347)"/>
<path style="fill-rule:nonzero;fill:rgb(0%,31.764707%,72.941178%);fill-opacity:1;stroke-width:0.013;stroke-linecap:butt;stroke-linejoin:miter;stroke:rgb(0%,0%,0%);stroke-opacity:1;stroke-miterlimit:4;" d="M 129.071343 32.542834 C 128.601587 32.449912 128.232493 33.172307 128.514347 33.535004 C 128.517702 33.142332 129.111608 33.208277 129.225692 32.992458 C 129.306222 32.845581 129.262601 32.578804 129.071343 32.542834 Z M 129.071343 32.542834 " transform="matrix(1.164168,0,0,1.303173,-14.225531,47.454347)"/>
<path style="fill-rule:nonzero;fill:rgb(0%,31.764707%,72.941178%);fill-opacity:1;stroke-width:0.013;stroke-linecap:butt;stroke-linejoin:miter;stroke:rgb(0%,0%,0%);stroke-opacity:1;stroke-miterlimit:4;" d="M 113.488859 27.345183 C 113.784134 27.345183 113.901573 27.43211 113.901573 27.962666 C 113.901573 29.086725 113.891507 29.572319 113.529124 29.572319 C 113.163385 29.572319 113.190228 29.110705 113.190228 28.286395 C 113.190228 27.854756 113.190228 27.638937 113.102988 27.674907 C 113.102988 27.393142 113.227137 27.345183 113.488859 27.345183 Z M 113.488859 27.345183 " transform="matrix(1.164168,0,0,1.303173,-14.225531,47.454347)"/>
</g>
</svg>
