<?xml version="1.0" encoding="UTF-8"?>
<svg xmlns="http://www.w3.org/2000/svg" xmlns:xlink="http://www.w3.org/1999/xlink" width="40px" height="40px" viewBox="0 0 256 256" version="1.1">
<g id="surface1">
<path style=" stroke:none;fill-rule:evenodd;fill:rgb(100%,100%,100%);fill-opacity:1;" d="M -58.019531 0.566406 L 317.414062 0.566406 L 317.414062 255.433594 L -58.019531 255.433594 Z M -58.019531 0.566406 "/>
<path style=" stroke:none;fill-rule:evenodd;fill:rgb(0%,53.725493%,0%);fill-opacity:1;" d="M -58.019531 182.480469 L 317.414062 182.480469 L 317.414062 256 L -58.019531 256 Z M -58.019531 182.480469 "/>
<path style=" stroke:none;fill-rule:evenodd;fill:rgb(76.078433%,21.568628%,26.274511%);fill-opacity:1;" d="M -59 92.710938 L 316.433594 92.710938 L 316.433594 166.230469 L -59 166.230469 Z M -59 92.710938 "/>
<path style=" stroke:none;fill-rule:evenodd;fill:rgb(0%,0%,0%);fill-opacity:1;" d="M -58.019531 -1.054688 L 317.414062 -1.054688 L 317.414062 78.984375 L -58.019531 78.984375 Z M -58.019531 -1.054688 "/>
<path style="fill-rule:evenodd;fill:rgb(100%,100%,100%);fill-opacity:1;stroke-width:1.0805;stroke-linecap:butt;stroke-linejoin:miter;stroke:rgb(0%,0%,0%);stroke-opacity:1;stroke-miterlimit:4;" d="M 158.632812 436.28125 C 196.585938 365.632812 323.828125 131.640625 322.578125 130.960938 C 301.773438 118.75 339.398438 99.984375 367.03125 55.992188 C 347.34375 103.273438 349.4375 147.398438 329.226562 134.695312 C 295.609375 198.148438 191.695312 392.085938 165.859375 439.992188 C 163.125 438.523438 162.320312 437.929688 158.632812 436.28125 Z M 158.632812 436.28125 " transform="matrix(0.5,0,0,0.5,0,0)"/>
<path style="fill-rule:evenodd;fill:rgb(100%,100%,100%);fill-opacity:1;stroke-width:1.0805;stroke-linecap:butt;stroke-linejoin:miter;stroke:rgb(0%,0%,0%);stroke-opacity:1;stroke-miterlimit:4;" d="M 349.007812 439.046875 C 311.046875 368.40625 183.796875 134.40625 185.0625 133.726562 C 205.867188 121.515625 168.242188 102.757812 140.601562 58.765625 C 160.296875 106.046875 158.203125 150.171875 178.414062 137.46875 C 212.03125 200.914062 315.945312 394.859375 341.773438 442.765625 C 344.515625 441.296875 345.320312 440.695312 349.007812 439.054688 Z M 349.007812 439.046875 " transform="matrix(0.5,0,0,0.5,0,0)"/>
<path style="fill-rule:evenodd;fill:rgb(76.078433%,21.568628%,26.274511%);fill-opacity:1;stroke-width:1.1357;stroke-linecap:butt;stroke-linejoin:miter;stroke:rgb(0%,0%,0%);stroke-opacity:1;stroke-miterlimit:4;" d="M 252.53125 85.4375 C 372.117188 169.734375 370.15625 373.625 252.53125 444.203125 C 142.742188 369.703125 127.0625 167.773438 252.53125 85.4375 Z M 252.53125 85.4375 " transform="matrix(0.5,0,0,0.5,0,0)"/>
<path style=" stroke:none;fill-rule:evenodd;fill:rgb(100%,100%,98.431373%);fill-opacity:1;" d="M 134.113281 130.453125 C 134.113281 136.679688 130.824219 141.726562 126.761719 141.726562 C 122.703125 141.726562 119.410156 136.679688 119.410156 130.453125 C 119.410156 124.226562 122.703125 119.179688 126.761719 119.179688 C 130.824219 119.179688 134.113281 124.226562 134.113281 130.453125 Z M 134.113281 130.453125 "/>
<path style="fill-rule:evenodd;fill:rgb(100%,100%,100%);fill-opacity:1;stroke-width:0.3741;stroke-linecap:butt;stroke-linejoin:miter;stroke:rgb(0%,0%,0%);stroke-opacity:1;stroke-miterlimit:4;" d="M 251.78125 93.28125 C 285.40625 125.8125 284.851562 204.5 251.78125 231.734375 C 220.90625 202.984375 216.5 125.054688 251.78125 93.28125 Z M 251.78125 93.28125 " transform="matrix(0.5,0,0,0.5,0,0)"/>
<path style="fill-rule:evenodd;fill:rgb(100%,100%,100%);fill-opacity:1;stroke-width:0.3741;stroke-linecap:butt;stroke-linejoin:miter;stroke:rgb(0%,0%,0%);stroke-opacity:1;stroke-miterlimit:4;" d="M 251.78125 297.171875 C 285.40625 329.703125 284.851562 408.390625 251.78125 435.632812 C 220.90625 406.882812 216.5 328.953125 251.78125 297.171875 Z M 251.78125 297.171875 " transform="matrix(0.5,0,0,0.5,0,0)"/>
<path style=" stroke:none;fill-rule:evenodd;fill:rgb(76.078433%,21.568628%,26.274511%);fill-opacity:1;" d="M 122.34375 46.640625 L 129.207031 46.640625 L 129.207031 117.21875 L 122.34375 117.21875 Z M 122.34375 46.640625 "/>
<path style=" stroke:none;fill-rule:evenodd;fill:rgb(76.078433%,21.568628%,26.274511%);fill-opacity:1;" d="M 123.324219 147.605469 L 130.1875 147.605469 L 130.1875 218.183594 L 123.324219 218.183594 Z M 123.324219 147.605469 "/>
<path style="fill-rule:evenodd;fill:rgb(0%,0%,0%);fill-opacity:1;stroke-width:0.31486;stroke-linecap:butt;stroke-linejoin:miter;stroke:rgb(0%,0%,0%);stroke-opacity:1;stroke-miterlimit:4;" d="M 179.28125 181.5 C 199.679688 219.484375 199.34375 311.351562 179.28125 343.15625 C 160.554688 309.59375 157.875 218.609375 179.28125 181.5 Z M 179.28125 181.5 " transform="matrix(0.5,0,0,0.5,0,0)"/>
<path style="fill-rule:evenodd;fill:rgb(0%,0%,0%);fill-opacity:1;stroke-width:0.31486;stroke-linecap:butt;stroke-linejoin:miter;stroke:rgb(0%,0%,0%);stroke-opacity:1;stroke-miterlimit:4;" d="M 328.28125 183.460938 C 348.679688 221.445312 348.34375 313.3125 328.28125 345.117188 C 309.554688 311.554688 306.875 220.570312 328.28125 183.460938 Z M 328.28125 183.460938 " transform="matrix(0.5,0,0,0.5,0,0)"/>
</g>
</svg>
