<?xml version="1.0" encoding="UTF-8"?>
<svg xmlns="http://www.w3.org/2000/svg" xmlns:xlink="http://www.w3.org/1999/xlink" width="40px" height="40px" viewBox="0 0 256 256" version="1.1">
<defs>
<clipPath id="clip1">
  <path d="M 0 0 L 255.992188 0 L 255.992188 255.992188 L 0 255.992188 Z M 0 0 "/>
</clipPath>
</defs>
<g id="surface1">
<g clip-path="url(#clip1)" clip-rule="nonzero">
<path style=" stroke:none;fill-rule:evenodd;fill:rgb(74.509805%,0%,15.294118%);fill-opacity:1;" d="M -64 0 L 320.375 0 L 320.375 255.992188 L -64 255.992188 Z M -64 0 "/>
</g>
<path style=" stroke:none;fill-rule:evenodd;fill:rgb(100%,100%,0%);fill-opacity:1;" d="M 52.722656 130.566406 C 59.554688 122.261719 73.699219 130.367188 85.246094 124.386719 C 71.566406 125.140625 64.109375 117.820312 53.304688 118.847656 C 64.5 111.96875 74.035156 121.097656 86.554688 117.429688 C 69.972656 116.035156 70.691406 108.621094 55.613281 107.566406 C 69.007812 101.855469 75.628906 113.445312 88.75 110.808594 C 73.289062 107.238281 71.230469 98.128906 59.730469 96.203125 C 76.535156 93.667969 75.441406 103.597656 91.914062 104.8125 C 75.191406 97.640625 79.574219 91.414062 65.589844 85.953125 C 81.238281 85.582031 80.203125 96.425781 96.054688 99.269531 C 82.484375 90.660156 84.160156 82.804688 72.980469 76.65625 C 86.242188 76.894531 87.539062 90.46875 101.070312 94.675781 C 89 85.097656 92.171875 77.019531 81.742188 68.464844 C 94.933594 71.558594 93.011719 83.269531 106.75 90.738281 C 96.570312 79.433594 100.476562 71.339844 91.59375 62.082031 C 104.28125 66.167969 99.460938 77.296875 112.625 87.878906 C 105.078125 75.453125 109.738281 67.527344 102.3125 57.042969 C 114.089844 63.125 108.386719 74.476562 119.320312 85.820312 C 114.175781 73.066406 119.328125 65.144531 114.066406 53.851562 C 124.144531 61.378906 118.152344 73.511719 126.277344 85.085938 C 123.316406 69.125 130.199219 66.5 128.058594 52.523438 C 135.710938 61.917969 127.15625 71.316406 133.03125 85.152344 C 132.316406 69.417969 140.679688 65.757812 139.230469 53.121094 C 146.8125 64.445312 134.976562 74.296875 139.925781 86.421875 C 141.207031 71.492188 151.019531 67.625 151.171875 56.007812 C 157.136719 66.671875 144.117188 74.339844 146.230469 88.484375 C 150.515625 72.886719 160.96875 70.957031 162.199219 60.472656 C 165.816406 72.808594 151.566406 78.546875 152.402344 92.222656 C 156.644531 78.351562 169.710938 76.726562 172.382812 66.484375 C 174.03125 79.539062 161.179688 81.855469 157.566406 96.277344 C 164.320312 84.503906 176.136719 83.539062 181.457031 74.230469 C 181.039062 87.136719 166.535156 88.832031 162.082031 100.917969 C 170.445312 90.664062 180.925781 92.441406 189.289062 83.351562 C 188.40625 95 173.644531 94.339844 165.785156 106.402344 C 174.851562 98.035156 188.5 100.542969 195.449219 93.339844 C 195.113281 103.644531 176.996094 102.867188 168.453125 112.078125 C 178.988281 106.304688 192.332031 109.695312 200.0625 104.335938 C 198.652344 113.367188 179.527344 111.257812 170.386719 118.308594 C 182.992188 114.816406 192.722656 120.210938 202.9375 116.308594 C 197.964844 125.105469 180.621094 119.539062 171.410156 125.253906 C 182.347656 123.402344 193.972656 130.03125 203.953125 127.902344 C 200.671875 135.503906 181.664062 127.445312 171.410156 132.171875 C 183.664062 132.0625 191.609375 139.890625 202.976562 139.371094 C 196.796875 146.253906 180.082031 136.789062 170.347656 138.40625 C 182.226562 140.863281 191.300781 150.707031 200.308594 151.179688 C 192.917969 156.855469 179.097656 143.933594 167.878906 145.574219 C 179.429688 148.664062 189.132812 161.808594 195.761719 162.097656 C 188.621094 166.976562 174.503906 150.867188 164.835938 151.4375 C 176.582031 156.746094 181.96875 170.195312 189.683594 172.085938 C 180.132812 175.148438 170.75 157.476562 160.488281 156.863281 C 172.375 164.359375 173.046875 175.824219 182.195312 180.925781 C 172.566406 183.28125 165.714844 163.34375 155.566406 161.660156 C 165.3125 168.824219 166.78125 184.125 173.242188 188.964844 C 163.4375 189.480469 159.898438 168.609375 149.847656 165.625 C 158.457031 172.816406 156.394531 188.414062 163.089844 195.054688 C 152.875 192.960938 154.191406 174.789062 143.53125 168.667969 C 151.191406 178.328125 147.292969 192.089844 152.285156 199.835938 C 142.351562 195.816406 146.667969 179.550781 137.179688 170.339844 C 142.355469 180.632812 136.792969 192.632812 140.875 202.582031 C 131.796875 198.15625 137.902344 178.890625 130.945312 171.25 C 134.144531 183.144531 128.246094 192.984375 130.625 203.648438 C 121.34375 192.886719 132.03125 182.054688 123.984375 171.085938 C 126.121094 183.675781 117.316406 192.433594 118.699219 202.96875 C 111.34375 194.375 122.652344 180.582031 116.9375 169.730469 C 118.167969 182.109375 106.800781 192.949219 107.578125 200.746094 C 101.589844 190.761719 114.226562 178.953125 110.84375 167.605469 C 110.132812 179.390625 98.660156 185.792969 96.5 196.53125 C 92.644531 184.6875 106.28125 176.125 105.101562 164.488281 C 101.199219 175.558594 90.113281 180 86.207031 190.730469 C 83.011719 178.917969 99.164062 172.644531 99.589844 160.21875 C 94.597656 171.875 81.332031 174.433594 76.953125 183.351562 C 75.316406 171.601562 93.855469 166.347656 94.546875 155.214844 C 88.578125 165.90625 74.0625 166.339844 69.050781 174.839844 C 68.292969 163.132812 87.839844 161.683594 90.910156 149.429688 C 84.96875 158.566406 69.042969 157.382812 62.417969 164.8125 C 63.464844 153.949219 84.613281 153.28125 87.980469 143.511719 C 80.121094 151.097656 65.5 147.953125 57.269531 153.96875 C 61.851562 143.300781 81.6875 145.5625 86.171875 137.835938 C 77.390625 142.417969 61.832031 137.976562 54.175781 142.558594 C 61.136719 132.453125 76.574219 138.488281 85.3125 131.53125 C 71.101562 133.605469 62.5625 127.949219 52.722656 130.566406 Z M 52.722656 130.566406 "/>
<path style=" stroke:none;fill-rule:evenodd;fill:rgb(100%,100%,0%);fill-opacity:1;" d="M 177.957031 128.050781 C 177.957031 155.449219 155.746094 177.660156 128.347656 177.660156 C 100.949219 177.660156 78.738281 155.449219 78.738281 128.050781 C 78.738281 100.652344 100.949219 78.441406 128.347656 78.441406 C 155.746094 78.441406 177.957031 100.652344 177.957031 128.050781 Z M 177.957031 128.050781 "/>
<path style=" stroke:none;fill-rule:evenodd;fill:rgb(74.509805%,0%,15.294118%);fill-opacity:1;" d="M 171.574219 128.148438 C 171.574219 151.96875 152.265625 171.277344 128.445312 171.277344 C 104.625 171.277344 85.316406 151.96875 85.316406 128.148438 C 85.316406 104.328125 104.625 85.015625 128.445312 85.015625 C 152.265625 85.015625 171.574219 104.328125 171.574219 128.148438 Z M 171.574219 128.148438 "/>
<path style=" stroke:none;fill-rule:evenodd;fill:rgb(100%,100%,0%);fill-opacity:1;" d="M 165.578125 128.246094 C 165.578125 148.699219 148.996094 165.28125 128.542969 165.28125 C 108.085938 165.28125 91.503906 148.699219 91.503906 128.246094 C 91.503906 107.789062 108.085938 91.207031 128.542969 91.207031 C 148.996094 91.207031 165.578125 107.789062 165.578125 128.246094 Z M 165.578125 128.246094 "/>
<path style=" stroke:none;fill-rule:evenodd;fill:rgb(74.509805%,0%,15.294118%);fill-opacity:1;" d="M 97.015625 103.972656 C 107.265625 103.746094 120.03125 104.683594 128.445312 111.421875 C 137.375 105.84375 147.949219 103.265625 158.714844 104.265625 C 160.550781 107.617188 162.390625 110.96875 164.226562 114.320312 C 156.230469 113.515625 148.429688 114.644531 139.179688 118.382812 C 150.976562 127.730469 156.875 139.785156 156.488281 154.453125 C 155.136719 156.128906 153.007812 158 151.65625 159.675781 C 153.621094 145.425781 146.109375 129.535156 135.214844 121.1875 C 144.078125 133.984375 149.367188 145.523438 147.882812 161.417969 C 146.304688 162.351562 144.433594 163.671875 142.855469 164.609375 C 145.175781 150.585938 141.886719 134.144531 131.539062 124.570312 C 137.503906 133.339844 143.46875 149.070312 139.761719 165.089844 C 138.148438 165.574219 135.667969 166.929688 134.054688 167.414062 C 138.214844 154.292969 135.601562 137.882812 128.640625 128.054688 C 121.742188 137.949219 119.484375 153.066406 123.417969 167.023438 C 121.480469 166.542969 120.03125 165.960938 118.097656 165.476562 C 115.261719 150.457031 119.195312 133.5 126.027344 124.667969 C 119.066406 128.699219 112.488281 145.976562 114.324219 163.640625 C 112.648438 162.867188 111.359375 162.285156 109.683594 161.511719 C 107.429688 148.328125 113.390625 131.179688 121.964844 121.285156 C 112.230469 127.410156 104.332031 142.429688 105.71875 158.613281 C 104.238281 157.289062 102.851562 156.644531 101.367188 155.324219 C 99.660156 141.207031 107.816406 126.988281 117.421875 118.480469 C 109.328125 114.867188 102.398438 114.160156 92.375 114.320312 C 93.953125 111.066406 95.4375 107.230469 97.015625 103.972656 Z M 97.015625 103.972656 "/>
</g>
</svg>
