<?xml version="1.0" encoding="UTF-8"?>
<svg xmlns="http://www.w3.org/2000/svg" xmlns:xlink="http://www.w3.org/1999/xlink" width="40px" height="40px" viewBox="0 0 256 256" version="1.1">
<defs>
<clipPath id="clip1">
  <path d="M 0 0 L 255.992188 0 L 255.992188 255.992188 L 0 255.992188 Z M 0 0 "/>
</clipPath>
<clipPath id="clip2">
  <path d="M 0 64 L 255.992188 64 L 255.992188 192 L 0 192 Z M 0 64 "/>
</clipPath>
</defs>
<g id="surface1">
<g clip-path="url(#clip1)" clip-rule="nonzero">
<path style=" stroke:none;fill-rule:evenodd;fill:rgb(10.588235%,0%,45.09804%);fill-opacity:1;" d="M -64 0 L 319.988281 0 L 319.988281 255.992188 L -64 255.992188 Z M -64 0 "/>
</g>
<g clip-path="url(#clip2)" clip-rule="nonzero">
<path style=" stroke:none;fill-rule:evenodd;fill:rgb(90.196079%,0%,2.352941%);fill-opacity:1;" d="M -64 64 L 319.988281 64 L 319.988281 191.996094 L -64 191.996094 Z M -64 64 "/>
</g>
<path style="fill-rule:evenodd;fill:rgb(100%,100%,100%);fill-opacity:1;stroke-width:1.1702;stroke-linecap:butt;stroke-linejoin:miter;stroke:rgb(90.196079%,0%,0%);stroke-opacity:1;stroke-miterlimit:4;" d="M 214.368771 -113.982847 L 529.722491 -113.982847 L 529.722491 -62.987 L 214.368771 -62.987 Z M 214.368771 -113.982847 " transform="matrix(0.51605,0,0,0.51605,-64,182.852096)"/>
<path style="fill-rule:evenodd;fill:rgb(100%,100%,100%);fill-opacity:1;stroke-width:1.25;stroke-linecap:butt;stroke-linejoin:miter;stroke:rgb(90.196079%,0%,0%);stroke-opacity:1;stroke-miterlimit:4;" d="M 220.000641 279.998226 L 214.99987 294.997584 L 534.997242 294.997584 L 529.99647 279.998226 Z M 220.000641 279.998226 " transform="matrix(0.5257,0,0,0.412778,-69.142644,34.770528)"/>
<path style="fill-rule:evenodd;fill:rgb(100%,100%,100%);fill-opacity:1;stroke-width:1.1225;stroke-linecap:butt;stroke-linejoin:miter;stroke:rgb(90.196079%,0%,0%);stroke-opacity:1;stroke-miterlimit:4;" d="M 244.997252 279.996976 L 239.999496 294.996335 L 299.997071 294.996335 L 294.999314 279.996976 Z M 244.997252 279.996976 " transform="matrix(0.637786,0,0,0.412778,18.810541,34.771044)"/>
<path style="fill-rule:evenodd;fill:rgb(100%,100%,100%);fill-opacity:1;stroke-width:1.5196;stroke-linecap:butt;stroke-linejoin:miter;stroke:rgb(90.196079%,0%,0%);stroke-opacity:1;stroke-miterlimit:4;" d="M 245.001697 279.996976 L 240.003589 294.996335 L 300.005205 294.996335 L 294.994936 279.996976 Z M 245.001697 279.996976 " transform="matrix(0.321215,0,0,0.412778,105.594673,34.771044)"/>
<path style="fill-rule:evenodd;fill:rgb(100%,100%,100%);fill-opacity:1;stroke-width:2.0241;stroke-linecap:butt;stroke-linejoin:miter;stroke:rgb(90.196079%,0%,0%);stroke-opacity:1;stroke-miterlimit:4;" d="M 244.996136 279.996976 L 239.99106 294.996335 L 299.995525 294.996335 L 295.009265 279.996976 Z M 244.996136 279.996976 " transform="matrix(0.207602,0,0,0.412778,136.279001,34.771044)"/>
<path style="fill-rule:evenodd;fill:rgb(100%,100%,100%);fill-opacity:1;stroke-width:1.0977;stroke-linecap:butt;stroke-linejoin:miter;stroke:rgb(90.196079%,0%,0%);stroke-opacity:1;stroke-miterlimit:4;" d="M 244.997711 279.998226 L 239.998753 294.997584 L 299.997907 294.997584 L 294.998948 279.998226 Z M 244.997711 279.998226 " transform="matrix(0.670452,0,0,0.412778,-53.028777,34.770528)"/>
<path style="fill-rule:evenodd;fill:rgb(100%,100%,100%);fill-opacity:1;stroke-width:1.186062;stroke-linecap:butt;stroke-linejoin:miter;stroke:rgb(90.196079%,0%,0%);stroke-opacity:1;stroke-miterlimit:4;" d="M 212.597503 239.582618 L 531.501327 239.582618 L 531.501327 251.580305 L 212.597503 251.580305 Z M 212.597503 239.582618 " transform="matrix(0.51605,0,0,0.51605,-64,0.000113374)"/>
<path style="fill-rule:evenodd;fill:rgb(100%,100%,100%);fill-opacity:1;stroke-width:1.11675;stroke-linecap:butt;stroke-linejoin:miter;stroke:rgb(90.196079%,0%,0%);stroke-opacity:1;stroke-miterlimit:4;" d="M 462.792806 -113.869305 L 525.286753 -113.869305 L 525.286753 -63.077834 L 462.792806 -63.077834 Z M 462.792806 -113.869305 " transform="matrix(0.51605,0,0,0.51605,-64,182.852096)"/>
<path style="fill-rule:evenodd;fill:rgb(100%,100%,100%);fill-opacity:1;stroke-width:0.80466;stroke-linecap:butt;stroke-linejoin:miter;stroke:rgb(90.196079%,0%,0%);stroke-opacity:1;stroke-miterlimit:4;" d="M 507.498384 -90.070738 L 513.750806 -90.070738 L 513.750806 -63.085403 L 507.498384 -63.085403 Z M 507.498384 -90.070738 " transform="matrix(0.51605,0,0,0.51605,-64,182.852096)"/>
<path style="fill-rule:evenodd;fill:rgb(100%,100%,100%);fill-opacity:1;stroke-width:0.80467;stroke-linecap:butt;stroke-linejoin:miter;stroke:rgb(90.196079%,0%,0%);stroke-opacity:1;stroke-miterlimit:4;" d="M 479.998322 -90.070738 L 486.250744 -90.070738 L 486.250744 -63.085403 L 479.998322 -63.085403 Z M 479.998322 -90.070738 " transform="matrix(0.51605,0,0,0.51605,-64,182.852096)"/>
<path style="fill-rule:evenodd;fill:rgb(100%,100%,100%);fill-opacity:1;stroke-width:1.5543;stroke-linecap:butt;stroke-linejoin:miter;stroke:rgb(90.196079%,0%,0%);stroke-opacity:1;stroke-miterlimit:4;" d="M 244.997135 279.998226 L 239.998036 294.997584 L 299.998833 294.997584 L 294.999733 279.998226 Z M 244.997135 279.998226 " transform="matrix(0.336779,0,0,0.412778,36.95486,34.770528)"/>
<path style="fill-rule:evenodd;fill:rgb(100%,100%,100%);fill-opacity:1;stroke-width:1.9557;stroke-linecap:butt;stroke-linejoin:miter;stroke:rgb(90.196079%,0%,0%);stroke-opacity:1;stroke-miterlimit:4;" d="M 244.992437 279.998226 L 239.999229 294.997584 L 299.991699 294.997584 L 294.998491 279.998226 Z M 244.992437 279.998226 " transform="matrix(0.211224,0,0,0.412778,70.962551,34.770528)"/>
<path style="fill-rule:evenodd;fill:rgb(100%,100%,100%);fill-opacity:1;stroke-width:1.148575;stroke-linecap:butt;stroke-linejoin:miter;stroke:rgb(90.196079%,0%,0%);stroke-opacity:1;stroke-miterlimit:4;" d="M 338.79652 -113.982847 L 404.651333 -113.982847 L 404.651333 -62.987 L 338.79652 -62.987 Z M 338.79652 -113.982847 " transform="matrix(0.51605,0,0,0.51605,-64,182.852096)"/>
<path style="fill-rule:evenodd;fill:rgb(100%,100%,100%);fill-opacity:1;stroke-width:1.0398;stroke-linecap:butt;stroke-linejoin:miter;stroke:rgb(90.196079%,0%,0%);stroke-opacity:1;stroke-miterlimit:4;" d="M 391.268423 -90.070738 L 397.520846 -90.070738 L 397.520846 -63.085403 L 391.268423 -63.085403 Z M 391.268423 -90.070738 " transform="matrix(0.51605,0,0,0.51605,-64,182.852096)"/>
<path style="fill-rule:evenodd;fill:rgb(100%,100%,100%);fill-opacity:1;stroke-width:1.0402;stroke-linecap:butt;stroke-linejoin:miter;stroke:rgb(90.196079%,0%,0%);stroke-opacity:1;stroke-miterlimit:4;" d="M 347.781538 -90.078307 L 354.033961 -90.078307 L 354.033961 -63.085403 L 347.781538 -63.085403 Z M 347.781538 -90.078307 " transform="matrix(0.51605,0,0,0.51605,-64,182.852096)"/>
<path style="fill-rule:evenodd;fill:rgb(100%,100%,100%);fill-opacity:1;stroke-width:0.89065;stroke-linecap:butt;stroke-linejoin:miter;stroke:rgb(90.196079%,0%,0%);stroke-opacity:1;stroke-miterlimit:4;" d="M 356.100439 -126.321163 L 387.990822 -126.321163 L 387.990822 -63.002139 L 356.100439 -63.002139 Z M 356.100439 -126.321163 " transform="matrix(0.51605,0,0,0.51605,-64,182.852096)"/>
<path style="fill-rule:evenodd;fill:rgb(100%,100%,100%);fill-opacity:1;stroke-width:1.0398;stroke-linecap:butt;stroke-linejoin:miter;stroke:rgb(90.196079%,0%,0%);stroke-opacity:1;stroke-miterlimit:4;" d="M 380.020119 -90.070738 L 386.272541 -90.070738 L 386.272541 -63.085403 L 380.020119 -63.085403 Z M 380.020119 -90.070738 " transform="matrix(0.51605,0,0,0.51605,-64,182.852096)"/>
<path style="fill-rule:evenodd;fill:rgb(100%,100%,100%);fill-opacity:1;stroke-width:1.0402;stroke-linecap:butt;stroke-linejoin:miter;stroke:rgb(90.196079%,0%,0%);stroke-opacity:1;stroke-miterlimit:4;" d="M 359.029843 -90.070738 L 365.282266 -90.070738 L 365.282266 -63.085403 L 359.029843 -63.085403 Z M 359.029843 -90.070738 " transform="matrix(0.51605,0,0,0.51605,-64,182.852096)"/>
<path style="fill-rule:evenodd;fill:rgb(100%,100%,100%);fill-opacity:1;stroke-width:1.25;stroke-linecap:butt;stroke-linejoin:miter;stroke:rgb(90.196079%,0%,0%);stroke-opacity:1;stroke-miterlimit:4;" d="M 358.182057 217.134256 L 371.648231 240.114462 L 385.916774 217.134256 Z M 358.182057 217.134256 " transform="matrix(0.51605,0,0,0.436857,-64,28.061363)"/>
<path style="fill-rule:evenodd;fill:rgb(100%,100%,100%);fill-opacity:1;stroke-width:1.1785;stroke-linecap:butt;stroke-linejoin:miter;stroke:rgb(90.196079%,0%,0%);stroke-opacity:1;stroke-miterlimit:4;" d="M 487.590549 -113.982847 L 505.303223 -113.982847 L 505.303223 -50.989313 L 487.590549 -50.989313 Z M 487.590549 -113.982847 " transform="matrix(0.51605,0,0,0.51605,-64,182.852096)"/>
<path style="fill-rule:evenodd;fill:rgb(100%,100%,100%);fill-opacity:1;stroke-width:1.1779;stroke-linecap:butt;stroke-linejoin:miter;stroke:rgb(90.196079%,0%,0%);stroke-opacity:1;stroke-miterlimit:4;" d="M 490.542662 -113.982847 L 502.335972 -113.982847 L 502.335972 -50.989313 L 490.542662 -50.989313 Z M 490.542662 -113.982847 " transform="matrix(0.51605,0,0,0.51605,-64,182.852096)"/>
<path style="fill-rule:evenodd;fill:rgb(100%,100%,100%);fill-opacity:1;stroke-width:1.1225;stroke-linecap:butt;stroke-linejoin:miter;stroke:rgb(90.196079%,0%,0%);stroke-opacity:1;stroke-miterlimit:4;" d="M 245.000856 279.996976 L 239.99738 294.996335 L 300.002354 294.996335 L 294.998877 279.996976 Z M 245.000856 279.996976 " transform="matrix(0.637838,0,0,0.412778,-107.579388,34.771044)"/>
<path style="fill-rule:evenodd;fill:rgb(100%,100%,100%);fill-opacity:1;stroke-width:1.6368;stroke-linecap:butt;stroke-linejoin:miter;stroke:rgb(90.196079%,0%,0%);stroke-opacity:1;stroke-miterlimit:4;" d="M 244.998179 279.996976 L 239.996123 294.996335 L 299.994753 294.996335 L 295.005722 279.996976 Z M 244.998179 279.996976 " transform="matrix(0.299877,0,0,0.412778,-17.113761,34.771044)"/>
<path style="fill-rule:evenodd;fill:rgb(100%,100%,100%);fill-opacity:1;stroke-width:2.0493;stroke-linecap:butt;stroke-linejoin:miter;stroke:rgb(90.196079%,0%,0%);stroke-opacity:1;stroke-miterlimit:4;" d="M 245.009017 279.996976 L 240.007177 294.996335 L 300.008836 294.996335 L 295.006997 279.996976 Z M 245.009017 279.996976 " transform="matrix(0.191336,0,0,0.412778,12.148334,34.771044)"/>
<path style="fill-rule:evenodd;fill:rgb(100%,100%,100%);fill-opacity:1;stroke-width:1.114525;stroke-linecap:butt;stroke-linejoin:miter;stroke:rgb(90.196079%,0%,0%);stroke-opacity:1;stroke-miterlimit:4;" d="M 217.911305 -113.982847 L 279.920803 -113.982847 L 279.920803 -62.987 L 217.911305 -62.987 Z M 217.911305 -113.982847 " transform="matrix(0.51605,0,0,0.51605,-64,182.852096)"/>
<path style="fill-rule:evenodd;fill:rgb(100%,100%,100%);fill-opacity:1;stroke-width:0.80467;stroke-linecap:butt;stroke-linejoin:miter;stroke:rgb(90.196079%,0%,0%);stroke-opacity:1;stroke-miterlimit:4;" d="M 229.999827 -90.063168 L 236.252249 -90.063168 L 236.252249 -63.077834 L 229.999827 -63.077834 Z M 229.999827 -90.063168 " transform="matrix(0.51605,0,0,0.51605,-64,182.852096)"/>
<path style="fill-rule:evenodd;fill:rgb(100%,100%,100%);fill-opacity:1;stroke-width:0.80467;stroke-linecap:butt;stroke-linejoin:miter;stroke:rgb(90.196079%,0%,0%);stroke-opacity:1;stroke-miterlimit:4;" d="M 258.748859 -90.063168 L 265.001281 -90.063168 L 265.001281 -63.077834 L 258.748859 -63.077834 Z M 258.748859 -90.063168 " transform="matrix(0.51605,0,0,0.51605,-64,182.852096)"/>
<path style="fill-rule:evenodd;fill:rgb(100%,100%,100%);fill-opacity:1;stroke-width:1.1785;stroke-linecap:butt;stroke-linejoin:miter;stroke:rgb(90.196079%,0%,0%);stroke-opacity:1;stroke-miterlimit:4;" d="M 239.166514 -113.982847 L 256.886757 -113.982847 L 256.886757 -50.989313 L 239.166514 -50.989313 Z M 239.166514 -113.982847 " transform="matrix(0.51605,0,0,0.51605,-64,182.852096)"/>
<path style="fill-rule:evenodd;fill:rgb(100%,100%,100%);fill-opacity:1;stroke-width:1.1779;stroke-linecap:butt;stroke-linejoin:miter;stroke:rgb(90.196079%,0%,0%);stroke-opacity:1;stroke-miterlimit:4;" d="M 242.111057 -113.982847 L 253.911936 -113.982847 L 253.911936 -50.989313 L 242.111057 -50.989313 Z M 242.111057 -113.982847 " transform="matrix(0.51605,0,0,0.51605,-64,182.852096)"/>
<path style="fill-rule:evenodd;fill:rgb(100%,100%,100%);fill-opacity:1;stroke-width:1.199163;stroke-linecap:butt;stroke-linejoin:miter;stroke:rgb(90.196079%,0%,0%);stroke-opacity:1;stroke-miterlimit:4;" d="M 209.062538 228.349452 L 535.036293 228.349452 L 535.036293 240.347139 L 209.062538 240.347139 Z M 209.062538 228.349452 " transform="matrix(0.51605,0,0,0.51605,-64,0.000113374)"/>
<path style="fill-rule:evenodd;fill:rgb(100%,100%,100%);fill-opacity:1;stroke-width:1.25;stroke-linecap:butt;stroke-linejoin:miter;stroke:rgb(90.196079%,0%,0%);stroke-opacity:1;stroke-miterlimit:4;" d="M 187.50272 328.558291 L 593.751405 328.558291 L 593.751405 346.058735 L 187.50272 346.058735 Z M 187.50272 328.558291 " transform="matrix(0.540098,0,0,0.454899,-82.988576,25.429736)"/>
<path style="fill-rule:evenodd;fill:rgb(100%,100%,100%);fill-opacity:1;stroke-width:1.122325;stroke-linecap:butt;stroke-linejoin:miter;stroke:rgb(90.196079%,0%,0%);stroke-opacity:1;stroke-miterlimit:4;" d="M 226.247143 284.807179 L 553.74853 284.807179 L 553.74853 302.307623 L 226.247143 302.307623 Z M 226.247143 284.807179 " transform="matrix(0.540098,0,0,0.454899,-82.988576,25.429736)"/>
<path style="fill-rule:evenodd;fill:rgb(100%,100%,100%);fill-opacity:1;stroke-width:1.139325;stroke-linecap:butt;stroke-linejoin:miter;stroke:rgb(90.196079%,0%,0%);stroke-opacity:1;stroke-miterlimit:4;" d="M 221.249495 288.559728 L 558.75341 288.559728 L 558.75341 306.060172 L 221.249495 306.060172 Z M 221.249495 288.559728 " transform="matrix(0.540098,0,0,0.454899,-82.988576,25.429736)"/>
<path style="fill-rule:evenodd;fill:rgb(100%,100%,100%);fill-opacity:1;stroke-width:1.25;stroke-linecap:butt;stroke-linejoin:miter;stroke:rgb(90.196079%,0%,0%);stroke-opacity:1;stroke-miterlimit:4;" d="M 187.50272 328.558291 L 593.751405 328.558291 L 593.751405 346.058735 L 187.50272 346.058735 Z M 187.50272 328.558291 " transform="matrix(0.540098,0,0,0.454899,-82.988576,25.429736)"/>
<path style="fill-rule:evenodd;fill:rgb(100%,100%,100%);fill-opacity:1;stroke-width:1.17055;stroke-linecap:butt;stroke-linejoin:miter;stroke:rgb(90.196079%,0%,0%);stroke-opacity:1;stroke-miterlimit:4;" d="M 212.498189 298.563662 L 568.748704 298.563662 L 568.748704 316.064106 L 212.498189 316.064106 Z M 212.498189 298.563662 " transform="matrix(0.540098,0,0,0.454899,-82.988576,25.429736)"/>
<path style="fill-rule:evenodd;fill:rgb(100%,100%,100%);fill-opacity:1;stroke-width:1.210925;stroke-linecap:butt;stroke-linejoin:miter;stroke:rgb(90.196079%,0%,0%);stroke-opacity:1;stroke-miterlimit:4;" d="M 200.000454 311.057846 L 581.246439 311.057846 L 581.246439 328.558291 L 200.000454 328.558291 Z M 200.000454 311.057846 " transform="matrix(0.540098,0,0,0.454899,-82.988576,25.429736)"/>
<path style="fill-rule:evenodd;fill:rgb(100%,100%,100%);fill-opacity:1;stroke-width:1.287125;stroke-linecap:butt;stroke-linejoin:miter;stroke:rgb(90.196079%,0%,0%);stroke-opacity:1;stroke-miterlimit:4;" d="M 287.501144 283.558931 L 306.247094 283.558931 L 306.247094 346.058934 L 287.501144 346.058934 Z M 287.501144 283.558931 " transform="matrix(0.487605,0,0,0.445812,-80.761303,28.578077)"/>
<path style="fill-rule:evenodd;fill:rgb(100%,100%,100%);fill-opacity:1;stroke-width:1.050963;stroke-linecap:butt;stroke-linejoin:miter;stroke:rgb(90.196079%,0%,0%);stroke-opacity:1;stroke-miterlimit:4;" d="M 290.617458 283.558931 L 303.122769 283.558931 L 303.122769 346.058934 L 290.617458 346.058934 Z M 290.617458 283.558931 " transform="matrix(0.487605,0,0,0.445812,-80.761303,28.578077)"/>
<path style="fill-rule:evenodd;fill:rgb(100%,100%,100%);fill-opacity:1;stroke-width:1.287125;stroke-linecap:butt;stroke-linejoin:miter;stroke:rgb(90.196079%,0%,0%);stroke-opacity:1;stroke-miterlimit:4;" d="M 287.501586 283.558637 L 306.247536 283.558637 L 306.247536 346.05864 L 287.501586 346.05864 Z M 287.501586 283.558637 " transform="matrix(0.487605,0,0,0.445812,47.234575,28.578208)"/>
<path style="fill-rule:evenodd;fill:rgb(100%,100%,100%);fill-opacity:1;stroke-width:1.050963;stroke-linecap:butt;stroke-linejoin:miter;stroke:rgb(90.196079%,0%,0%);stroke-opacity:1;stroke-miterlimit:4;" d="M 290.6179 283.558637 L 303.123211 283.558637 L 303.123211 346.05864 L 290.6179 346.05864 Z M 290.6179 283.558637 " transform="matrix(0.487605,0,0,0.445812,47.234575,28.578208)"/>
<path style="fill-rule:evenodd;fill:rgb(100%,100%,100%);fill-opacity:1;stroke-width:1.2011;stroke-linecap:butt;stroke-linejoin:miter;stroke:rgb(90.196079%,0%,0%);stroke-opacity:1;stroke-miterlimit:4;" d="M 365.501782 240.347139 L 379.740046 240.347139 L 379.740046 354.328952 L 365.501782 354.328952 Z M 365.501782 240.347139 " transform="matrix(0.51605,0,0,0.51605,-64,0.000113374)"/>
<path style="fill-rule:evenodd;fill:rgb(100%,100%,100%);fill-opacity:1;stroke-width:1.25;stroke-linecap:butt;stroke-linejoin:miter;stroke:rgb(90.196079%,0%,0%);stroke-opacity:1;stroke-miterlimit:4;" d="M 217.916977 220.299623 L 218.101472 183.388226 C 218.101472 183.388226 221.462494 190.622073 247.612689 192.204756 C 272.367136 191.265876 276.466139 186.839727 277.581132 182.923256 L 276.562398 220.433749 Z M 217.916977 220.299623 " transform="matrix(0.486971,0,0,0.436857,70.787096,28.061363)"/>
<path style="fill-rule:evenodd;fill:rgb(100%,100%,100%);fill-opacity:1;stroke-width:3.5278;stroke-linecap:butt;stroke-linejoin:miter;stroke:rgb(90.196079%,0%,0%);stroke-opacity:1;stroke-miterlimit:4;" d="M 330.923773 208.551437 L 312.505608 188.111011 C 318.638912 182.811641 330.047586 191.896275 330.047586 191.896275 C 330.047586 191.896275 336.18089 168.402402 362.502984 158.560715 C 388.825078 168.402402 394.958381 191.896275 394.958381 191.896275 C 394.958381 191.896275 406.367056 182.811641 412.500359 188.111011 L 394.082195 208.576673 L 330.923773 208.576673 Z M 330.923773 208.551437 " transform="matrix(0.213996,0,0,0.154794,114.328297,73.135385)"/>
<path style="fill-rule:evenodd;fill:rgb(100%,100%,100%);fill-opacity:1;stroke-width:2.615;stroke-linecap:butt;stroke-linejoin:miter;stroke:rgb(90.196079%,0%,0%);stroke-opacity:1;stroke-miterlimit:4;" d="M 330.92284 208.560905 L 312.500327 188.102259 C 318.636484 182.802839 330.038222 191.905585 330.038222 191.905585 C 330.038222 191.905585 336.188421 168.418698 362.502284 158.558893 C 388.816148 168.418698 394.952305 191.905585 394.952305 191.905585 C 394.952305 191.905585 406.354043 182.802839 412.504241 188.102259 L 394.081729 208.560905 Z M 330.92284 208.560905 " transform="matrix(0.278192,0,0,0.21671,91.057023,68.423854)"/>
<path style="fill-rule:evenodd;fill:rgb(100%,100%,100%);fill-opacity:1;stroke-width:3.3833;stroke-linecap:butt;stroke-linejoin:miter;stroke:rgb(90.196079%,0%,0%);stroke-opacity:1;stroke-miterlimit:4;" d="M 0.00720428 280.515707 C 0.793847 280.515707 30.110663 332.818287 0.00720428 333.622353 C -30.11544 334.407274 0.00720428 282.104695 0.00720428 280.515707 Z M 0.00720428 280.515707 " transform="matrix(0.203595,0,0,0.204041,191.982908,23.450771)"/>
<path style="fill-rule:evenodd;fill:rgb(100%,100%,100%);fill-opacity:1;stroke-width:5.9629;stroke-linecap:butt;stroke-linejoin:miter;stroke:rgb(90.196079%,0%,0%);stroke-opacity:1;stroke-miterlimit:4;" d="M 330.911454 208.583058 L 312.492415 188.104926 C 318.640006 182.817145 330.033227 191.902514 330.033227 191.902514 C 330.033227 191.902514 336.180819 168.395925 362.503905 158.541425 C 388.826991 168.395925 394.950847 191.902514 394.950847 191.902514 C 394.950847 191.902514 406.367803 182.817145 412.491659 188.104926 L 394.07262 208.583058 Z M 330.911454 208.583058 " transform="matrix(0.164572,0,0,0.0812605,132.342169,77.284819)"/>
<path style="fill-rule:evenodd;fill:rgb(100%,100%,100%);fill-opacity:1;stroke-width:8.3211;stroke-linecap:butt;stroke-linejoin:miter;stroke:rgb(90.196079%,0%,0%);stroke-opacity:1;stroke-miterlimit:4;" d="M 330.942517 208.553589 L 330.064273 191.873044 C 330.064273 191.873044 336.165756 168.414527 362.513067 158.560026 C 388.814155 168.414527 394.961861 191.873044 394.961861 191.873044 L 394.083617 208.553589 Z M 330.942517 208.553589 " transform="matrix(0.0845081,0,0,0.0812605,161.364692,78.638776)"/>
<path style="fill-rule:evenodd;fill:rgb(100%,100%,100%);fill-opacity:1;stroke-width:5.0956;stroke-linecap:butt;stroke-linejoin:miter;stroke:rgb(90.196079%,0%,0%);stroke-opacity:1;stroke-miterlimit:4;" d="M 330.911704 208.543474 L 330.033461 191.887558 C 330.033461 191.887558 336.181167 168.417858 362.505366 158.575726 C 388.806454 168.417858 394.95416 191.887558 394.95416 191.887558 L 394.075916 208.543474 Z M 330.911704 208.543474 " transform="matrix(0.169016,0,0,0.108351,130.730685,77.052514)"/>
<path style="fill-rule:evenodd;fill:rgb(100%,100%,100%);fill-opacity:1;stroke-width:5.0956;stroke-linecap:butt;stroke-linejoin:miter;stroke:rgb(90.196079%,0%,0%);stroke-opacity:1;stroke-miterlimit:4;" d="M 330.911704 208.560714 L 330.033461 191.904798 C 330.033461 191.904798 336.181167 168.399047 362.505366 158.556914 C 388.806454 168.399047 394.95416 191.904798 394.95416 191.904798 L 394.075916 208.560714 Z M 330.911704 208.560714 " transform="matrix(0.169016,0,0,0.108351,130.730685,79.761584)"/>
<path style="fill-rule:evenodd;fill:rgb(100%,100%,100%);fill-opacity:1;stroke-width:3.6515;stroke-linecap:butt;stroke-linejoin:miter;stroke:rgb(90.196079%,0%,0%);stroke-opacity:1;stroke-miterlimit:4;" d="M 330.911454 208.555535 L 312.492415 188.114184 C 318.640006 182.814574 330.033227 191.899619 330.033227 191.899619 C 330.033227 191.899619 336.180819 168.411894 362.503905 158.569762 C 388.826991 168.411894 394.950847 191.899619 394.950847 191.899619 C 394.950847 191.899619 406.367803 182.814574 412.491659 188.114184 L 394.07262 208.573561 L 330.911454 208.573561 Z M 330.911454 208.555535 " transform="matrix(0.164572,0,0,0.216702,132.342169,65.289914)"/>
<path style="fill-rule:evenodd;fill:rgb(100%,100%,100%);fill-opacity:1;stroke-width:3.6515;stroke-linecap:butt;stroke-linejoin:miter;stroke:rgb(90.196079%,0%,0%);stroke-opacity:1;stroke-miterlimit:4;" d="M 330.911454 208.557435 L 312.492415 188.116084 C 318.640006 182.798448 330.033227 191.901519 330.033227 191.901519 C 330.033227 191.901519 336.180819 168.413793 362.503905 158.571661 C 388.826991 168.413793 394.950847 191.901519 394.950847 191.901519 C 394.950847 191.901519 406.367803 182.798448 412.491659 188.116084 L 394.07262 208.557435 Z M 330.911454 208.557435 " transform="matrix(0.164572,0,0,0.216702,132.342169,70.707472)"/>
<path style="fill-rule:evenodd;fill:rgb(100%,100%,100%);fill-opacity:1;stroke-width:3.2227;stroke-linecap:butt;stroke-linejoin:miter;stroke:rgb(90.196079%,0%,0%);stroke-opacity:1;stroke-miterlimit:4;" d="M 330.911704 208.555153 L 330.033461 191.899237 C 330.033461 191.899237 336.181167 168.407906 362.505366 158.558564 C 388.806454 168.407906 394.95416 191.899237 394.95416 191.899237 L 394.075916 208.555153 Z M 330.911704 208.555153 " transform="matrix(0.169016,0,0,0.270878,130.730685,67.534372)"/>
<path style="fill-rule:evenodd;fill:rgb(100%,100%,100%);fill-opacity:1;stroke-width:4.2164;stroke-linecap:butt;stroke-linejoin:miter;stroke:rgb(90.196079%,0%,0%);stroke-opacity:1;stroke-miterlimit:4;" d="M 330.911454 208.548356 L 312.492415 188.119022 C 318.640006 182.807395 330.033227 191.89244 330.033227 191.89244 C 330.033227 191.89244 336.180819 168.410723 362.503905 158.556574 C 388.826991 168.410723 394.950847 191.89244 394.950847 191.89244 C 394.950847 191.89244 406.367803 182.807395 412.491659 188.119022 L 394.07262 208.572391 L 330.911454 208.572391 Z M 330.911454 208.548356 " transform="matrix(0.164572,0,0,0.162527,132.342169,90.132665)"/>
<path style="fill-rule:evenodd;fill:rgb(100%,100%,100%);fill-opacity:1;stroke-width:3.5278;stroke-linecap:butt;stroke-linejoin:miter;stroke:rgb(90.196079%,0%,0%);stroke-opacity:1;stroke-miterlimit:4;" d="M 330.914247 208.553897 L 312.496083 188.11347 C 318.647641 182.8141 330.038061 191.898735 330.038061 191.898735 C 330.038061 191.898735 336.189619 168.404861 362.493459 158.563174 C 388.815552 168.404861 394.948856 191.898735 394.948856 191.898735 C 394.948856 191.898735 406.35753 182.8141 412.509088 188.11347 L 394.07267 208.553897 Z M 330.914247 208.553897 " transform="matrix(0.213996,0,0,0.154794,-13.482164,71.978755)"/>
<path style="fill-rule:evenodd;fill:rgb(100%,100%,100%);fill-opacity:1;stroke-width:2.615;stroke-linecap:butt;stroke-linejoin:miter;stroke:rgb(90.196079%,0%,0%);stroke-opacity:1;stroke-miterlimit:4;" d="M 330.915513 208.562662 L 312.493 188.104016 C 318.643199 182.804596 330.044937 191.907342 330.044937 191.907342 C 330.044937 191.907342 336.181094 168.420455 362.494957 158.56065 C 388.822862 168.420455 394.959019 191.907342 394.959019 191.907342 C 394.959019 191.907342 406.360757 182.804596 412.496914 188.104016 L 394.074402 208.562662 Z M 330.915513 208.562662 " transform="matrix(0.278192,0,0,0.21671,-36.753439,67.267224)"/>
<path style="fill-rule:evenodd;fill:rgb(100%,100%,100%);fill-opacity:1;stroke-width:1.25;stroke-linecap:butt;stroke-linejoin:miter;stroke:rgb(90.196079%,0%,0%);stroke-opacity:1;stroke-miterlimit:4;" d="M 217.918444 220.299623 L 218.102939 183.388226 C 218.102939 183.388226 221.463961 190.622073 247.614156 192.204756 C 272.368603 191.265876 276.467606 186.839727 277.582599 182.923256 L 276.563865 220.433749 Z M 217.918444 220.299623 " transform="matrix(0.486971,0,0,0.436857,-55.928462,28.061363)"/>
<path style="fill-rule:evenodd;fill:rgb(100%,100%,100%);fill-opacity:1;stroke-width:3.3833;stroke-linecap:butt;stroke-linejoin:miter;stroke:rgb(90.196079%,0%,0%);stroke-opacity:1;stroke-miterlimit:4;" d="M -0.00290786 280.515707 C 0.783734 280.515707 30.119737 332.818287 -0.00290786 333.622353 C -30.106366 334.407274 -0.00290786 282.104695 -0.00290786 280.515707 Z M -0.00290786 280.515707 " transform="matrix(0.203595,0,0,0.204041,63.984967,23.450771)"/>
<path style="fill-rule:evenodd;fill:rgb(100%,100%,100%);fill-opacity:1;stroke-width:5.9629;stroke-linecap:butt;stroke-linejoin:miter;stroke:rgb(90.196079%,0%,0%);stroke-opacity:1;stroke-miterlimit:4;" d="M 330.92268 208.583058 L 312.503641 188.104926 C 318.651232 182.817145 330.044453 191.902514 330.044453 191.902514 C 330.044453 191.902514 336.192045 168.395925 362.491395 158.541425 C 388.814481 168.395925 394.962073 191.902514 394.962073 191.902514 C 394.962073 191.902514 406.355293 182.817145 412.502885 188.104926 L 394.083846 208.583058 Z M 330.92268 208.583058 " transform="matrix(0.164572,0,0,0.0812605,4.344227,77.284819)"/>
<path style="fill-rule:evenodd;fill:rgb(100%,100%,100%);fill-opacity:1;stroke-width:8.3211;stroke-linecap:butt;stroke-linejoin:miter;stroke:rgb(90.196079%,0%,0%);stroke-opacity:1;stroke-miterlimit:4;" d="M 330.918155 208.553589 L 330.039911 191.873044 C 330.039911 191.873044 336.187617 168.414527 362.488705 158.560026 C 388.836016 168.414527 394.937499 191.873044 394.937499 191.873044 L 394.059255 208.553589 Z M 330.918155 208.553589 " transform="matrix(0.0845081,0,0,0.0812605,33.366751,78.638776)"/>
<path style="fill-rule:evenodd;fill:rgb(100%,100%,100%);fill-opacity:1;stroke-width:5.0956;stroke-linecap:butt;stroke-linejoin:miter;stroke:rgb(90.196079%,0%,0%);stroke-opacity:1;stroke-miterlimit:4;" d="M 330.922635 208.543474 L 330.044391 191.887558 C 330.044391 191.887558 336.192097 168.417858 362.493185 158.575726 C 388.817385 168.417858 394.965091 191.887558 394.965091 191.887558 L 394.086847 208.543474 Z M 330.922635 208.543474 " transform="matrix(0.169016,0,0,0.108351,2.732744,77.052514)"/>
<path style="fill-rule:evenodd;fill:rgb(100%,100%,100%);fill-opacity:1;stroke-width:5.0956;stroke-linecap:butt;stroke-linejoin:miter;stroke:rgb(90.196079%,0%,0%);stroke-opacity:1;stroke-miterlimit:4;" d="M 330.922635 208.560714 L 330.044391 191.904798 C 330.044391 191.904798 336.192097 168.399047 362.493185 158.556914 C 388.817385 168.399047 394.965091 191.904798 394.965091 191.904798 L 394.086847 208.560714 Z M 330.922635 208.560714 " transform="matrix(0.169016,0,0,0.108351,2.732744,79.761584)"/>
<path style="fill-rule:evenodd;fill:rgb(100%,100%,100%);fill-opacity:1;stroke-width:3.6515;stroke-linecap:butt;stroke-linejoin:miter;stroke:rgb(90.196079%,0%,0%);stroke-opacity:1;stroke-miterlimit:4;" d="M 330.92268 208.555535 L 312.503641 188.114184 C 318.651232 182.814574 330.044453 191.899619 330.044453 191.899619 C 330.044453 191.899619 336.192045 168.411894 362.491395 158.569762 C 388.814481 168.411894 394.962073 191.899619 394.962073 191.899619 C 394.962073 191.899619 406.355293 182.814574 412.502885 188.114184 L 394.083846 208.573561 L 330.92268 208.573561 Z M 330.92268 208.555535 " transform="matrix(0.164572,0,0,0.216702,4.344227,65.289914)"/>
<path style="fill-rule:evenodd;fill:rgb(100%,100%,100%);fill-opacity:1;stroke-width:3.6515;stroke-linecap:butt;stroke-linejoin:miter;stroke:rgb(90.196079%,0%,0%);stroke-opacity:1;stroke-miterlimit:4;" d="M 330.92268 208.557435 L 312.503641 188.116084 C 318.651232 182.798448 330.044453 191.901519 330.044453 191.901519 C 330.044453 191.901519 336.192045 168.413793 362.491395 158.571661 C 388.814481 168.413793 394.962073 191.901519 394.962073 191.901519 C 394.962073 191.901519 406.355293 182.798448 412.502885 188.116084 L 394.083846 208.557435 Z M 330.92268 208.557435 " transform="matrix(0.164572,0,0,0.216702,4.344227,70.707472)"/>
<path style="fill-rule:evenodd;fill:rgb(100%,100%,100%);fill-opacity:1;stroke-width:3.2227;stroke-linecap:butt;stroke-linejoin:miter;stroke:rgb(90.196079%,0%,0%);stroke-opacity:1;stroke-miterlimit:4;" d="M 330.922635 208.555153 L 330.044391 191.899237 C 330.044391 191.899237 336.192097 168.407906 362.493185 158.558564 C 388.817385 168.407906 394.965091 191.899237 394.965091 191.899237 L 394.086847 208.555153 Z M 330.922635 208.555153 " transform="matrix(0.169016,0,0,0.270878,2.732744,67.534372)"/>
<path style="fill-rule:evenodd;fill:rgb(100%,100%,100%);fill-opacity:1;stroke-width:4.2164;stroke-linecap:butt;stroke-linejoin:miter;stroke:rgb(90.196079%,0%,0%);stroke-opacity:1;stroke-miterlimit:4;" d="M 330.92268 208.548356 L 312.503641 188.119022 C 318.651232 182.807395 330.044453 191.89244 330.044453 191.89244 C 330.044453 191.89244 336.192045 168.410723 362.491395 158.556574 C 388.814481 168.410723 394.962073 191.89244 394.962073 191.89244 C 394.962073 191.89244 406.355293 182.807395 412.502885 188.119022 L 394.083846 208.572391 L 330.92268 208.572391 Z M 330.92268 208.548356 " transform="matrix(0.164572,0,0,0.162527,4.344227,90.132665)"/>
<path style="fill-rule:evenodd;fill:rgb(100%,100%,100%);fill-opacity:1;stroke-width:1.2256;stroke-linecap:butt;stroke-linejoin:miter;stroke:rgb(90.196079%,0%,0%);stroke-opacity:1;stroke-miterlimit:4;" d="M 335.980659 226.282973 L 408.118172 226.282973 C 411.683415 226.282973 414.567402 229.16696 414.567402 232.732203 C 414.567402 236.289877 411.683415 239.181433 408.118172 239.181433 L 335.980659 239.181433 C 332.415415 239.181433 329.531429 236.289877 329.531429 232.732203 C 329.531429 229.16696 332.415415 226.282973 335.980659 226.282973 Z M 335.980659 226.282973 " transform="matrix(0.51605,0,0,0.51605,-64,0.000113374)"/>
<path style="fill-rule:evenodd;fill:rgb(100%,100%,100%);fill-opacity:1;stroke-width:1.5789;stroke-linecap:butt;stroke-linejoin:miter;stroke:rgb(90.196079%,0%,0%);stroke-opacity:1;stroke-miterlimit:4;" d="M 353.247332 -212.599915 L 354.337343 -269.290564 C 354.337343 -269.290564 351.052171 -255.382834 341.211797 -255.382834 L 190.290733 -255.382834 C 180.450358 -255.382834 177.165187 -269.290564 177.165187 -269.290564 L 178.255198 -212.599915 Z M 353.247332 -212.599915 " transform="matrix(0.258025,0,0,0.387037,59.423673,202.96773)"/>
<path style="fill-rule:evenodd;fill:rgb(100%,100%,100%);fill-opacity:1;stroke-width:2.3995;stroke-linecap:butt;stroke-linejoin:miter;stroke:rgb(90.196079%,0%,0%);stroke-opacity:1;stroke-miterlimit:4;" d="M 510.481582 70.216223 L 510.897906 44.608438 C 510.897906 44.608438 534.458032 41.61669 531.184216 35.277346 C 527.910399 28.951182 499.581475 43.264129 499.581475 43.264129 L 386.246858 43.264129 C 386.246858 43.264129 357.917934 28.951182 354.644118 35.277346 C 351.370301 41.61669 374.930427 44.608438 374.930427 44.608438 L 375.327827 70.216223 Z M 510.481582 70.216223 " transform="matrix(0.20642,0,0,0.296388,36.5678,89.9114)"/>
<path style="fill-rule:evenodd;fill:rgb(100%,100%,100%);fill-opacity:1;stroke-width:2.1904;stroke-linecap:butt;stroke-linejoin:miter;stroke:rgb(90.196079%,0%,0%);stroke-opacity:1;stroke-miterlimit:4;" d="M 510.489282 70.225376 L 510.899297 44.604412 C 510.899297 44.604412 534.459425 41.612663 531.19507 35.27332 C 527.914945 28.947155 499.576559 43.260102 499.576559 43.260102 L 386.238783 43.260102 C 386.238783 43.260102 357.916166 28.947155 354.636041 35.27332 C 351.371686 41.612663 374.931814 44.604412 374.931814 44.604412 L 375.34183 70.225376 Z M 510.489282 70.225376 " transform="matrix(0.247704,0,0,0.296388,18.284145,96.104)"/>
<path style="fill-rule:evenodd;fill:rgb(100%,100%,100%);fill-opacity:1;stroke-width:6.2465;stroke-linecap:butt;stroke-linejoin:miter;stroke:rgb(90.196079%,0%,0%);stroke-opacity:1;stroke-miterlimit:4;" d="M 510.50582 70.222344 L 510.91388 44.619475 C 510.91388 44.619475 534.46479 41.603961 531.200307 35.282981 C 527.935825 28.933006 503.918561 16.928942 469.350023 4.199996 C 445.099582 -1.71505 500.654078 -22.156752 448.30577 -23.519532 C 400.271242 -22.765653 442.884397 -0.207293 427.261517 5.098851 C 388.379199 16.928942 357.891265 28.933006 354.626782 35.282981 C 351.3623 41.603961 374.913209 44.619475 374.913209 44.619475 L 375.321269 70.222344 Z M 510.50582 70.222344 " transform="matrix(0.0670091,0,0,0.13472,98.127407,69.191989)"/>
<path style="fill-rule:evenodd;fill:rgb(100%,100%,100%);fill-opacity:1;stroke-width:3.152;stroke-linecap:butt;stroke-linejoin:miter;stroke:rgb(90.196079%,0%,0%);stroke-opacity:1;stroke-miterlimit:4;" d="M 510.50118 70.214319 L 510.901938 44.602439 C 510.901938 44.602439 534.466513 41.606332 531.180296 35.275849 C 527.920797 28.945365 499.573843 43.265467 499.573843 43.265467 L 386.23946 43.265467 C 386.23946 43.265467 357.919223 28.945365 354.633007 35.275849 C 351.373508 41.606332 374.938082 44.602439 374.938082 44.602439 L 375.338841 70.214319 Z M 510.50118 70.214319 " transform="matrix(0.146207,0,0,0.242502,63.232102,80.890841)"/>
<path style="fill-rule:evenodd;fill:rgb(100%,100%,100%);fill-opacity:1;stroke-width:2.8773;stroke-linecap:butt;stroke-linejoin:miter;stroke:rgb(90.196079%,0%,0%);stroke-opacity:1;stroke-miterlimit:4;" d="M 510.479234 70.225444 L 510.902237 44.613564 C 510.902237 44.613564 534.456798 41.617458 531.184094 35.270866 C 527.911391 28.940383 499.592486 43.260484 499.592486 43.260484 L 386.250075 43.260484 C 386.250075 43.260484 357.908907 28.940383 354.636203 35.270866 C 351.3635 41.617458 374.918061 44.613564 374.918061 44.613564 L 375.341063 70.225444 Z M 510.479234 70.225444 " transform="matrix(0.175457,0,0,0.242502,50.28441,85.958456)"/>
<path style="fill-rule:evenodd;fill:rgb(100%,100%,100%);fill-opacity:1;stroke-width:4.7552;stroke-linecap:butt;stroke-linejoin:miter;stroke:rgb(90.196079%,0%,0%);stroke-opacity:1;stroke-miterlimit:4;" d="M 510.504311 70.221208 L 510.917201 44.600422 C 510.917201 44.600422 534.451951 41.61133 531.190117 35.277303 C 527.928283 28.943275 499.604005 43.271937 499.604005 43.271937 L 386.224316 43.271937 C 386.224316 43.271937 357.900038 28.943275 354.638204 35.277303 C 351.37637 41.61133 374.91112 44.600422 374.91112 44.600422 L 375.324011 70.221208 Z M 510.504311 70.221208 " transform="matrix(0.0946074,0,0,0.164661,86.093118,77.144321)"/>
<path style="fill-rule:evenodd;fill:rgb(100%,100%,100%);fill-opacity:1;stroke-width:4.3408;stroke-linecap:butt;stroke-linejoin:miter;stroke:rgb(90.196079%,0%,0%);stroke-opacity:1;stroke-miterlimit:4;" d="M 510.481859 70.217284 L 510.894742 44.620221 C 510.894742 44.620221 534.463471 41.607406 531.194815 35.273378 C 527.926159 28.939351 499.57487 43.268013 499.57487 43.268013 L 386.23853 43.268013 C 386.23853 43.268013 357.921649 28.939351 354.652993 35.273378 C 351.384337 41.607406 374.918659 44.620221 374.918659 44.620221 L 375.331542 70.217284 Z M 510.481859 70.217284 " transform="matrix(0.113531,0,0,0.164661,77.712455,80.586374)"/>
<path style="fill-rule:evenodd;fill:rgb(100%,100%,100%);fill-opacity:1;stroke-width:6.2465;stroke-linecap:butt;stroke-linejoin:miter;stroke:rgb(90.196079%,0%,0%);stroke-opacity:1;stroke-miterlimit:4;" d="M 510.473337 70.221714 L 510.881397 44.618844 C 510.881397 44.618844 534.432306 41.603331 531.167824 35.282351 C 527.903341 28.932375 499.572297 43.256064 499.572297 43.256064 L 386.24812 43.256064 C 386.24812 43.256064 357.917075 28.932375 354.652593 35.282351 C 351.388111 41.603331 374.93902 44.618844 374.93902 44.618844 L 375.34708 70.221714 Z M 510.473337 70.221714 " transform="matrix(0.0670091,0,0,0.13472,98.313177,72.13348)"/>
<path style="fill-rule:evenodd;fill:rgb(100%,100%,100%);fill-opacity:1;stroke-width:5.7021;stroke-linecap:butt;stroke-linejoin:miter;stroke:rgb(90.196079%,0%,0%);stroke-opacity:1;stroke-miterlimit:4;" d="M 510.483622 70.212641 L 510.920801 44.609772 C 510.920801 44.609772 534.479915 41.623254 531.176782 35.273278 C 527.922224 28.952298 499.602712 43.275987 499.602712 43.275987 L 386.227513 43.275987 C 386.227513 43.275987 357.908001 28.952298 354.653443 35.273278 C 351.35031 41.623254 374.909423 44.609772 374.909423 44.609772 L 375.346603 70.212641 Z M 510.483622 70.212641 " transform="matrix(0.0804161,0,0,0.13472,92.378603,74.951109)"/>
<path style="fill-rule:evenodd;fill:rgb(100%,100%,100%);fill-opacity:1;stroke-width:5.4435;stroke-linecap:butt;stroke-linejoin:miter;stroke:rgb(90.196079%,0%,0%);stroke-opacity:1;stroke-miterlimit:4;" d="M 330.913838 208.563062 L 312.499532 188.122454 C 318.651876 182.823037 330.059346 191.907751 330.059346 191.907751 C 330.059346 191.907751 336.168965 168.396846 362.487325 158.555071 C 388.805684 168.396846 394.958028 191.907751 394.958028 191.907751 C 394.958028 191.907751 406.365498 182.823037 412.517842 188.122454 L 394.060811 208.563062 Z M 330.913838 208.563062 " transform="matrix(0.0914286,0,0,0.0928758,94.850489,65.195949)"/>
<path style="fill-rule:evenodd;fill:rgb(100%,100%,100%);fill-opacity:1;stroke-width:5.4435;stroke-linecap:butt;stroke-linejoin:miter;stroke:rgb(90.196079%,0%,0%);stroke-opacity:1;stroke-miterlimit:4;" d="M 330.907491 208.543492 L 312.504799 188.102883 C 318.63903 182.803466 330.052971 191.888181 330.052971 191.888181 C 330.052971 191.888181 336.187202 168.419334 362.494201 158.57756 C 388.8012 168.419334 394.965949 191.888181 394.965949 191.888181 C 394.965949 191.888181 406.349372 182.803466 412.514121 188.102883 L 394.080911 208.585551 L 330.907491 208.585551 Z M 330.907491 208.543492 " transform="matrix(0.127996,0,0,0.0928758,81.598329,68.291516)"/>
<path style="fill-rule:evenodd;fill:rgb(100%,100%,100%);fill-opacity:1;stroke-width:4.4097;stroke-linecap:butt;stroke-linejoin:miter;stroke:rgb(90.196079%,0%,0%);stroke-opacity:1;stroke-miterlimit:4;" d="M 330.927494 208.546382 L 312.501727 188.105293 C 318.643649 182.805751 330.046262 191.89068 330.046262 191.89068 C 330.046262 191.89068 336.188184 168.421281 362.491635 158.579275 C 388.82179 168.421281 394.963713 191.89068 394.963713 191.89068 C 394.963713 191.89068 406.366325 182.805751 412.508248 188.105293 L 394.08248 208.577927 L 330.927494 208.577927 Z M 330.927494 208.546382 " transform="matrix(0.14628,0,0,0.123831,74.967084,67.249615)"/>
<path style="fill-rule:evenodd;fill:rgb(100%,100%,100%);fill-opacity:1;stroke-width:3.5278;stroke-linecap:butt;stroke-linejoin:miter;stroke:rgb(90.196079%,0%,0%);stroke-opacity:1;stroke-miterlimit:4;" d="M 330.917869 208.566137 L 312.503043 188.100102 C 318.634197 182.800635 330.04199 191.910671 330.04199 191.910671 C 330.04199 191.910671 336.173144 168.416368 362.492245 158.574502 C 388.811345 168.416368 394.963862 191.910671 394.963862 191.910671 C 394.963862 191.910671 406.350292 182.800635 412.502809 188.100102 L 394.087983 208.566137 Z M 330.917869 208.566137 " transform="matrix(0.182852,0,0,0.154792,61.709759,67.446199)"/>
<path style="fill-rule:evenodd;fill:rgb(100%,100%,100%);fill-opacity:1;stroke-width:1.4582;stroke-linecap:butt;stroke-linejoin:miter;stroke:rgb(90.196079%,0%,0%);stroke-opacity:1;stroke-miterlimit:4;" d="M 358.181727 217.130385 L 371.654794 240.11316 L 385.915089 217.130385 Z M 358.181727 217.130385 " transform="matrix(0.476355,0,0,0.347747,-49.231186,29.700625)"/>
<path style="fill-rule:evenodd;fill:rgb(100%,100%,100%);fill-opacity:1;stroke-width:3.0506;stroke-linecap:butt;stroke-linejoin:miter;stroke:rgb(90.196079%,0%,0%);stroke-opacity:1;stroke-miterlimit:4;" d="M 330.911475 208.553059 L 312.503943 188.104891 C 318.645721 182.80603 330.039165 191.909201 330.039165 191.909201 C 330.039165 191.909201 336.180943 168.403999 362.492676 158.576197 C 388.822212 168.403999 394.96399 191.909201 394.96399 191.909201 C 394.96399 191.909201 406.357433 182.80603 412.499212 188.104891 L 394.073877 208.575703 L 330.929277 208.575703 Z M 330.911475 208.553059 " transform="matrix(0.219424,0,0,0.172502,48.452433,70.114086)"/>
<path style="fill-rule:evenodd;fill:rgb(100%,100%,100%);fill-opacity:1;stroke-width:1.25;stroke-linecap:butt;stroke-linejoin:miter;stroke:rgb(90.196079%,0%,0%);stroke-opacity:1;stroke-miterlimit:4;" d="M 358.182216 217.133381 L 371.64839 240.113587 L 385.916932 217.133381 Z M 358.182216 217.133381 " transform="matrix(0.51605,0,0,0.436857,-64.000082,19.13987)"/>
<path style="fill-rule:evenodd;fill:rgb(100%,100%,100%);fill-opacity:1;stroke-width:2.615;stroke-linecap:butt;stroke-linejoin:miter;stroke:rgb(90.196079%,0%,0%);stroke-opacity:1;stroke-miterlimit:4;" d="M 330.918159 208.568816 L 312.4968 188.109908 C 318.642731 182.810421 330.047212 191.895257 330.047212 191.895257 C 330.047212 191.895257 336.176709 168.408071 362.502326 158.566165 C 388.811511 168.408071 394.957441 191.895257 394.957441 191.895257 C 394.957441 191.895257 406.361922 182.810421 412.507853 188.109908 L 394.070061 208.568816 Z M 330.918159 208.568816 " transform="matrix(0.237708,0,0,0.216707,41.826354,69.918811)"/>
<path style="fill-rule:evenodd;fill:rgb(100%,100%,100%);fill-opacity:1;stroke-width:2.615;stroke-linecap:butt;stroke-linejoin:miter;stroke:rgb(90.196079%,0%,0%);stroke-opacity:1;stroke-miterlimit:4;" d="M 330.918159 208.568803 L 312.4968 188.109896 C 318.642731 182.810408 330.047212 191.895244 330.047212 191.895244 C 330.047212 191.895244 336.176709 168.408058 362.502326 158.566152 C 388.811511 168.408058 394.957441 191.895244 394.957441 191.895244 C 394.957441 191.895244 406.361922 182.810408 412.507853 188.109896 L 394.070061 208.568803 Z M 330.918159 208.568803 " transform="matrix(0.237708,0,0,0.216707,41.826354,78.832876)"/>
<path style="fill-rule:evenodd;fill:rgb(100%,100%,100%);fill-opacity:1;stroke-width:1.0398;stroke-linecap:butt;stroke-linejoin:miter;stroke:rgb(90.196079%,0%,0%);stroke-opacity:1;stroke-miterlimit:4;" d="M 285.340578 -90.070738 L 291.593001 -90.070738 L 291.593001 -63.085403 L 285.340578 -63.085403 Z M 285.340578 -90.070738 " transform="matrix(0.51605,0,0,0.51605,-64,182.852096)"/>
<path style="fill-rule:evenodd;fill:rgb(100%,100%,100%);fill-opacity:1;stroke-width:1.0398;stroke-linecap:butt;stroke-linejoin:miter;stroke:rgb(90.196079%,0%,0%);stroke-opacity:1;stroke-miterlimit:4;" d="M 306.588217 -90.070738 L 312.84064 -90.070738 L 312.84064 -63.085403 L 306.588217 -63.085403 Z M 306.588217 -90.070738 " transform="matrix(0.51605,0,0,0.51605,-64,182.852096)"/>
<path style="fill-rule:evenodd;fill:rgb(100%,100%,100%);fill-opacity:1;stroke-width:1.0398;stroke-linecap:butt;stroke-linejoin:miter;stroke:rgb(90.196079%,0%,0%);stroke-opacity:1;stroke-miterlimit:4;" d="M 296.588883 -90.070738 L 302.841306 -90.070738 L 302.841306 -63.085403 L 296.588883 -63.085403 Z M 296.588883 -90.070738 " transform="matrix(0.51605,0,0,0.51605,-64,182.852096)"/>
<path style="fill-rule:evenodd;fill:rgb(100%,100%,100%);fill-opacity:1;stroke-width:1.0398;stroke-linecap:butt;stroke-linejoin:miter;stroke:rgb(90.196079%,0%,0%);stroke-opacity:1;stroke-miterlimit:4;" d="M 410.139234 -90.070738 L 416.391656 -90.070738 L 416.391656 -63.085403 L 410.139234 -63.085403 Z M 410.139234 -90.070738 " transform="matrix(0.51605,0,0,0.51605,-64,182.852096)"/>
<path style="fill-rule:evenodd;fill:rgb(100%,100%,100%);fill-opacity:1;stroke-width:1.0398;stroke-linecap:butt;stroke-linejoin:miter;stroke:rgb(90.196079%,0%,0%);stroke-opacity:1;stroke-miterlimit:4;" d="M 452.642081 -90.070738 L 458.886934 -90.070738 L 458.886934 -63.085403 L 452.642081 -63.085403 Z M 452.642081 -90.070738 " transform="matrix(0.51605,0,0,0.51605,-64,182.852096)"/>
<path style="fill-rule:evenodd;fill:rgb(100%,100%,100%);fill-opacity:1;stroke-width:1.0398;stroke-linecap:butt;stroke-linejoin:miter;stroke:rgb(90.196079%,0%,0%);stroke-opacity:1;stroke-miterlimit:4;" d="M 431.386873 -90.070738 L 437.639295 -90.070738 L 437.639295 -63.085403 L 431.386873 -63.085403 Z M 431.386873 -90.070738 " transform="matrix(0.51605,0,0,0.51605,-64,182.852096)"/>
<path style="fill-rule:evenodd;fill:rgb(100%,100%,100%);fill-opacity:1;stroke-width:1.0398;stroke-linecap:butt;stroke-linejoin:miter;stroke:rgb(90.196079%,0%,0%);stroke-opacity:1;stroke-miterlimit:4;" d="M 421.387538 -90.078307 L 427.639961 -90.078307 L 427.639961 -63.085403 L 421.387538 -63.085403 Z M 421.387538 -90.078307 " transform="matrix(0.51605,0,0,0.51605,-64,182.852096)"/>
<path style="fill-rule:evenodd;fill:rgb(100%,100%,100%);fill-opacity:1;stroke-width:1.0398;stroke-linecap:butt;stroke-linejoin:miter;stroke:rgb(90.196079%,0%,0%);stroke-opacity:1;stroke-miterlimit:4;" d="M 441.393776 -90.078307 L 447.638629 -90.078307 L 447.638629 -63.085403 L 441.393776 -63.085403 Z M 441.393776 -90.078307 " transform="matrix(0.51605,0,0,0.51605,-64,182.852096)"/>
<path style="fill-rule:evenodd;fill:rgb(100%,100%,100%);fill-opacity:1;stroke-width:1.0398;stroke-linecap:butt;stroke-linejoin:miter;stroke:rgb(90.196079%,0%,0%);stroke-opacity:1;stroke-miterlimit:4;" d="M 327.843426 -90.070738 L 334.088279 -90.070738 L 334.088279 -63.085403 L 327.843426 -63.085403 Z M 327.843426 -90.070738 " transform="matrix(0.51605,0,0,0.51605,-64,182.852096)"/>
<path style="fill-rule:evenodd;fill:rgb(100%,100%,100%);fill-opacity:1;stroke-width:1.0398;stroke-linecap:butt;stroke-linejoin:miter;stroke:rgb(90.196079%,0%,0%);stroke-opacity:1;stroke-miterlimit:4;" d="M 316.587552 -90.070738 L 322.839974 -90.070738 L 322.839974 -63.085403 L 316.587552 -63.085403 Z M 316.587552 -90.070738 " transform="matrix(0.51605,0,0,0.51605,-64,182.852096)"/>
</g>
</svg>
