<?xml version="1.0" encoding="UTF-8"?>
<svg xmlns="http://www.w3.org/2000/svg" xmlns:xlink="http://www.w3.org/1999/xlink" width="40px" height="40px" viewBox="0 0 256 256" version="1.1">
<defs>
<clipPath id="clip1">
  <path d="M 0 0 L 255.988281 0 L 255.988281 154 L 0 154 Z M 0 0 "/>
</clipPath>
<clipPath id="clip2">
  <path d="M 0 151 L 255.988281 151 L 255.988281 255.992188 L 0 255.992188 Z M 0 151 "/>
</clipPath>
<clipPath id="clip3">
  <path d="M 0 205 L 255.988281 205 L 255.988281 243 L 0 243 Z M 0 205 "/>
</clipPath>
<clipPath id="clip4">
  <path d="M 0 168 L 255.988281 168 L 255.988281 207 L 0 207 Z M 0 168 "/>
</clipPath>
<clipPath id="clip5">
  <path d="M 0 132 L 255.988281 132 L 255.988281 171 L 0 171 Z M 0 132 "/>
</clipPath>
</defs>
<g id="surface1">
<g clip-path="url(#clip1)" clip-rule="nonzero">
<path style=" stroke:none;fill-rule:evenodd;fill:rgb(90.588236%,24.313726%,17.647059%);fill-opacity:1;" d="M -82.140625 0 L 335.742188 0 L 335.742188 153.242188 L -82.140625 153.242188 Z M -82.140625 0 "/>
</g>
<path style="fill-rule:evenodd;fill:rgb(99.607843%,78.039217%,29.019609%);fill-opacity:1;stroke-width:1.25;stroke-linecap:butt;stroke-linejoin:miter;stroke:rgb(84.705883%,66.666669%,24.705882%);stroke-opacity:1;stroke-miterlimit:4;" d="M 330.308945 587.190227 C 315.722432 575.800195 288.543541 579.653569 284.068467 548.691686 C 304.877855 564.808991 301.100728 547.770864 332.174048 563.125706 Z M 330.308945 587.190227 " transform="matrix(0.666015,0,0,0.666015,-117.850251,-250.038727)"/>
<path style="fill-rule:evenodd;fill:rgb(99.607843%,78.039217%,29.019609%);fill-opacity:1;stroke-width:1.25;stroke-linecap:butt;stroke-linejoin:miter;stroke:rgb(84.705883%,66.666669%,24.705882%);stroke-opacity:1;stroke-miterlimit:4;" d="M 330.311243 587.191121 C 315.72096 575.799714 288.545404 579.653927 284.070175 548.691868 C 304.875088 564.805132 301.099279 547.770523 332.176496 563.122328 Z M 330.311243 587.191121 " transform="matrix(0.633996,0.204048,-0.204048,0.633996,15.125849,-308.007916)"/>
<path style="fill-rule:evenodd;fill:rgb(99.607843%,78.039217%,29.019609%);fill-opacity:1;stroke-width:1.25;stroke-linecap:butt;stroke-linejoin:miter;stroke:rgb(84.705883%,66.666669%,24.705882%);stroke-opacity:1;stroke-miterlimit:4;" d="M 330.310911 587.189551 C 315.723016 575.800274 288.547913 579.65393 284.072382 548.691284 C 304.876928 564.80483 301.099712 547.772273 332.173602 563.12487 Z M 330.310911 587.189551 " transform="matrix(0.507826,0.430942,-0.430942,0.507826,193.182963,-315.531315)"/>
<path style="fill-rule:evenodd;fill:rgb(99.607843%,78.039217%,29.019609%);fill-opacity:1;stroke-width:1.25;stroke-linecap:butt;stroke-linejoin:miter;stroke:rgb(84.705883%,66.666669%,24.705882%);stroke-opacity:1;stroke-miterlimit:4;" d="M 330.311157 587.190196 C 315.721381 575.796679 288.542453 579.652395 284.072239 548.690278 C 304.876735 564.807096 301.10278 547.76796 332.177715 563.124933 Z M 330.311157 587.190196 " transform="matrix(0.351012,0.566051,-0.566051,0.351012,331.576946,-274.27498)"/>
<path style="fill-rule:evenodd;fill:rgb(99.607843%,78.039217%,29.019609%);fill-opacity:1;stroke-width:1.25;stroke-linecap:butt;stroke-linejoin:miter;stroke:rgb(84.705883%,66.666669%,24.705882%);stroke-opacity:1;stroke-miterlimit:4;" d="M 330.307592 587.191657 C 315.722054 575.798045 288.547568 579.652234 284.070958 548.690026 C 304.875832 564.805145 301.100013 547.771713 332.172776 563.127215 Z M 330.307592 587.191657 " transform="matrix(0.0885001,0.660132,-0.660132,0.0885001,479.993411,-156.181152)"/>
<path style="fill-rule:evenodd;fill:rgb(99.607843%,78.039217%,29.019609%);fill-opacity:1;stroke-width:1.25;stroke-linecap:butt;stroke-linejoin:miter;stroke:rgb(84.705883%,66.666669%,24.705882%);stroke-opacity:1;stroke-miterlimit:4;" d="M 330.307933 587.190576 C 315.716888 575.796728 288.544173 579.651371 284.071707 548.691597 C 304.8758 564.807324 301.099437 547.771231 332.178009 563.125406 Z M 330.307933 587.190576 " transform="matrix(-0.125284,0.654145,-0.654145,-0.125284,556.528965,-27.362962)"/>
<path style="fill-rule:evenodd;fill:rgb(99.607843%,78.039217%,29.019609%);fill-opacity:1;stroke-width:1.25;stroke-linecap:butt;stroke-linejoin:miter;stroke:rgb(84.705883%,66.666669%,24.705882%);stroke-opacity:1;stroke-miterlimit:4;" d="M 330.310734 587.191963 C 315.720453 575.798881 288.54564 579.653747 284.071844 548.691749 C 304.878257 564.803153 301.098903 547.769738 332.177671 563.125644 Z M 330.310734 587.191963 " transform="matrix(-0.311755,0.588543,-0.588543,-0.311755,587.872135,108.579803)"/>
<path style="fill-rule:evenodd;fill:rgb(99.607843%,78.039217%,29.019609%);fill-opacity:1;stroke-width:1.25;stroke-linecap:butt;stroke-linejoin:miter;stroke:rgb(84.705883%,66.666669%,24.705882%);stroke-opacity:1;stroke-miterlimit:4;" d="M 330.308898 587.187841 C 315.72035 575.796602 288.545884 579.650335 284.073425 548.689497 C 304.880088 564.806427 301.102482 547.769407 332.175707 563.127545 Z M 330.308898 587.187841 " transform="matrix(-0.464821,0.477014,-0.477014,-0.464821,579.854112,242.839831)"/>
<path style="fill-rule:evenodd;fill:rgb(99.607843%,78.039217%,29.019609%);fill-opacity:1;stroke-width:1.25;stroke-linecap:butt;stroke-linejoin:miter;stroke:rgb(84.705883%,66.666669%,24.705882%);stroke-opacity:1;stroke-miterlimit:4;" d="M 368.350833 490.640274 L 353.006169 573.373599 L 375.911376 574.53795 Z M 368.350833 490.640274 " transform="matrix(0.135812,0.652062,-0.652062,0.135812,459.636007,-177.017561)"/>
<path style="fill-rule:evenodd;fill:rgb(99.607843%,78.039217%,29.019609%);fill-opacity:1;stroke-width:1.25;stroke-linecap:butt;stroke-linejoin:miter;stroke:rgb(84.705883%,66.666669%,24.705882%);stroke-opacity:1;stroke-miterlimit:4;" d="M 368.530995 489.849414 L 353.494865 571.98788 L 381.678823 573.881774 Z M 368.530995 489.849414 " transform="matrix(0.346732,0.568654,-0.568654,0.346732,332.269388,-270.213916)"/>
<path style="fill-rule:evenodd;fill:rgb(99.607843%,78.039217%,29.019609%);fill-opacity:1;stroke-width:1.25;stroke-linecap:butt;stroke-linejoin:miter;stroke:rgb(84.705883%,66.666669%,24.705882%);stroke-opacity:1;stroke-miterlimit:4;" d="M 380.099507 573.398979 L 368.348502 490.63743 L 353.489917 573.829965 Z M 380.099507 573.398979 " transform="matrix(0.532417,0.400135,-0.400135,0.532417,167.3431,-317.061995)"/>
<path style="fill-rule:evenodd;fill:rgb(99.607843%,78.039217%,29.019609%);fill-opacity:1;stroke-width:1.2539;stroke-linecap:butt;stroke-linejoin:miter;stroke:rgb(84.705883%,66.666669%,24.705882%);stroke-opacity:1;stroke-miterlimit:4;" d="M 381.861291 573.236643 L 368.34843 490.63843 L 352.942555 573.175427 Z M 381.861291 573.236643 " transform="matrix(0.632329,0.209254,-0.207963,0.628425,17.484393,-303.821869)"/>
<path style="fill-rule:evenodd;fill:rgb(99.607843%,78.039217%,29.019609%);fill-opacity:1;stroke-width:1.25;stroke-linecap:butt;stroke-linejoin:miter;stroke:rgb(84.705883%,66.666669%,24.705882%);stroke-opacity:1;stroke-miterlimit:4;" d="M 381.892533 573.401368 L 368.350008 490.638888 L 353.347073 573.759139 Z M 381.892533 573.401368 " transform="matrix(0.666015,0,0,0.666015,-117.850251,-250.038727)"/>
<path style="fill-rule:evenodd;fill:rgb(99.607843%,78.039217%,29.019609%);fill-opacity:1;stroke-width:1.2526;stroke-linecap:butt;stroke-linejoin:miter;stroke:rgb(84.705883%,66.666669%,24.705882%);stroke-opacity:1;stroke-miterlimit:4;" d="M 378.510182 569.669877 L 368.351601 490.639661 L 350.434154 574.188124 Z M 378.510182 569.669877 " transform="matrix(0.613898,-0.25439,0.251906,0.6152,-244.03811,-127.019547)"/>
<path style="fill-rule:evenodd;fill:rgb(99.607843%,78.039217%,29.019609%);fill-opacity:1;stroke-width:1.25;stroke-linecap:butt;stroke-linejoin:miter;stroke:rgb(84.705883%,66.666669%,24.705882%);stroke-opacity:1;stroke-miterlimit:4;" d="M 378.507843 569.66946 L 368.351705 490.640461 L 350.566498 574.127838 Z M 378.507843 569.66946 " transform="matrix(0.491061,-0.449956,0.449956,0.491061,-314.419577,17.366082)"/>
<path style="fill-rule:evenodd;fill:rgb(99.607843%,78.039217%,29.019609%);fill-opacity:1;stroke-width:1.25;stroke-linecap:butt;stroke-linejoin:miter;stroke:rgb(84.705883%,66.666669%,24.705882%);stroke-opacity:1;stroke-miterlimit:4;" d="M 368.350118 490.641375 L 348.737756 573.102947 L 378.511079 569.673202 Z M 368.350118 490.641375 " transform="matrix(0.293735,-0.597758,0.597758,0.293735,-328.513577,185.511048)"/>
<path style="fill-rule:evenodd;fill:rgb(99.607843%,78.039217%,29.019609%);fill-opacity:1;stroke-width:1.25;stroke-linecap:butt;stroke-linejoin:miter;stroke:rgb(84.705883%,66.666669%,24.705882%);stroke-opacity:1;stroke-miterlimit:4;" d="M 373.860853 567.24721 L 368.347383 490.635183 L 349.472509 569.029269 Z M 373.860853 567.24721 " transform="matrix(0.0571361,-0.663568,0.663568,0.0571361,-281.733169,346.105556)"/>
<path style="fill-rule:evenodd;fill:rgb(99.607843%,78.039217%,29.019609%);fill-opacity:1;stroke-width:1.187;stroke-linecap:butt;stroke-linejoin:miter;stroke:rgb(84.705883%,66.666669%,24.705882%);stroke-opacity:1;stroke-miterlimit:4;" d="M 429.772592 602.067422 C 429.772592 626.231582 410.180632 645.823542 386.016472 645.823542 C 361.857881 645.823542 342.265921 626.231582 342.265921 602.067422 C 342.265921 577.908831 361.857881 558.316871 386.016472 558.316871 C 410.180632 558.316871 429.772592 577.908831 429.772592 602.067422 Z M 429.772592 602.067422 " transform="matrix(0.70142,0,0,0.70142,-143.880667,-282.673067)"/>
<g clip-path="url(#clip2)" clip-rule="nonzero">
<path style=" stroke:none;fill-rule:evenodd;fill:rgb(0%,34.901962%,53.725493%);fill-opacity:1;" d="M -82.5625 151.695312 L 337.386719 151.695312 L 337.386719 255.996094 L -82.5625 255.996094 Z M -82.5625 151.695312 "/>
</g>
<g clip-path="url(#clip3)" clip-rule="nonzero">
<path style=" stroke:none;fill-rule:evenodd;fill:rgb(100%,100%,100%);fill-opacity:1;" d="M -82.800781 226.980469 C -74.992188 230.59375 -63.804688 239.640625 -51.839844 239.632812 C -31.820312 239.503906 -31.289062 225.921875 -11.007812 226.566406 C 9.324219 227.085938 5.648438 241.382812 33.105469 241.3125 C 55.789062 241.253906 63.117188 223.980469 82.667969 226.050781 C 97.148438 225.304688 103.078125 242.40625 125.335938 242.621094 C 148.421875 243.117188 156.898438 223.984375 171.378906 225.566406 C 186.804688 225.566406 191.859375 240.976562 213.503906 241.085938 C 241.070312 241.226562 245.917969 225.050781 263.164062 226.085938 C 275.4375 225.824219 285.117188 237.941406 303.105469 238.242188 C 317.460938 238.488281 329.476562 227.636719 337.59375 223.757812 L 337.996094 205.34375 C 329.488281 208.507812 316.800781 218.878906 304.117188 218.992188 C 285.863281 219.660156 274.570312 207.019531 261.886719 207.136719 C 246.6875 207.273438 240.632812 222.777344 214.851562 222.777344 C 191.296875 222.777344 185.890625 207.136719 170.691406 207.136719 C 155.835938 207.25 151.285156 224.148438 125.566406 223.832031 C 104.589844 223.582031 96.414062 207.703125 81.558594 207.816406 C 65.808594 207.816406 49.523438 223.257812 32.082031 222.511719 C 8.015625 221.496094 2.8125 207.816406 -12.9375 207.816406 C -24.707031 207.816406 -37.410156 220.632812 -51.589844 220.847656 C -65.691406 221.066406 -81.535156 208.09375 -83 207.816406 Z M -82.800781 226.980469 "/>
</g>
<g clip-path="url(#clip4)" clip-rule="nonzero">
<path style=" stroke:none;fill-rule:evenodd;fill:rgb(100%,100%,100%);fill-opacity:1;" d="M -82.800781 190.515625 C -74.992188 194.128906 -63.804688 203.175781 -51.839844 203.167969 C -31.820312 203.035156 -31.289062 189.453125 -11.007812 190.101562 C 9.324219 190.617188 5.648438 204.917969 33.105469 204.84375 C 55.789062 204.785156 63.117188 187.511719 82.667969 189.582031 C 97.148438 188.835938 103.078125 205.9375 125.335938 206.15625 C 148.421875 206.648438 156.898438 187.515625 171.378906 189.101562 C 186.804688 189.101562 191.859375 204.511719 213.503906 204.621094 C 241.070312 204.761719 245.917969 188.582031 263.164062 189.617188 C 275.4375 189.359375 285.117188 201.472656 303.105469 201.777344 C 317.460938 202.019531 329.476562 191.167969 337.59375 187.289062 L 337.996094 168.878906 C 329.488281 172.039062 316.800781 182.414062 304.117188 182.527344 C 285.863281 183.195312 274.570312 170.554688 261.886719 170.667969 C 246.6875 170.804688 240.632812 186.308594 214.851562 186.308594 C 191.296875 186.308594 185.890625 170.667969 170.691406 170.667969 C 155.835938 170.78125 151.285156 187.679688 125.566406 187.367188 C 104.589844 187.113281 96.414062 171.238281 81.558594 171.351562 C 65.808594 171.351562 49.523438 186.789062 32.082031 186.046875 C 8.015625 185.027344 2.8125 171.351562 -12.9375 171.351562 C -24.707031 171.351562 -37.410156 184.167969 -51.589844 184.382812 C -65.691406 184.597656 -81.535156 171.628906 -83 171.351562 Z M -82.800781 190.515625 "/>
</g>
<g clip-path="url(#clip5)" clip-rule="nonzero">
<path style=" stroke:none;fill-rule:evenodd;fill:rgb(100%,100%,100%);fill-opacity:1;" d="M -82.800781 154.445312 C -75 158.058594 -63.824219 167.105469 -51.871094 167.09375 C -31.867188 166.964844 -31.335938 153.382812 -11.074219 154.03125 C 9.238281 154.546875 5.566406 168.847656 32.996094 168.773438 C 55.65625 168.714844 62.980469 151.441406 82.515625 153.511719 C 96.980469 152.765625 102.902344 169.867188 125.140625 170.085938 C 148.203125 170.578125 156.671875 151.445312 171.140625 153.03125 C 186.554688 153.03125 191.605469 168.441406 213.226562 168.550781 C 240.769531 168.691406 245.609375 152.511719 262.839844 153.546875 C 275.105469 153.289062 284.773438 165.402344 302.746094 165.707031 C 317.085938 165.949219 329.089844 155.097656 337.199219 151.21875 L 337.601562 132.804688 C 329.101562 135.96875 316.429688 146.34375 303.757812 146.457031 C 285.519531 147.125 274.238281 134.484375 261.566406 134.597656 C 246.378906 134.734375 240.328125 150.238281 214.570312 150.238281 C 191.039062 150.238281 185.640625 134.597656 170.457031 134.597656 C 155.613281 134.710938 151.066406 151.609375 125.375 151.296875 C 104.414062 151.042969 96.246094 135.167969 81.402344 135.28125 C 65.667969 135.28125 49.398438 150.71875 31.976562 149.976562 C 7.929688 148.957031 2.734375 135.28125 -13 135.28125 C -24.761719 135.28125 -37.453125 148.097656 -51.617188 148.3125 C -65.707031 148.527344 -81.535156 135.558594 -83 135.28125 Z M -82.800781 154.445312 "/>
</g>
<path style="fill-rule:evenodd;fill:rgb(100%,78.431374%,29.411766%);fill-opacity:1;stroke-width:1.25;stroke-linecap:butt;stroke-linejoin:miter;stroke:rgb(84.705883%,66.666669%,24.705882%);stroke-opacity:1;stroke-miterlimit:4;" d="M 279.652044 432.427733 C 325.4761 429.289903 317.124192 425.377879 335.569943 422.433597 C 358.819215 425.630078 361.476107 439.700462 374.426256 448.33976 C 374.426256 448.33976 369.55822 464.797241 353.628598 462.468795 C 351.487835 455.864688 361.341209 453.823632 332.983432 436.539171 C 316.502491 435.559699 287.006884 439.430667 279.652044 432.427733 Z M 279.652044 432.427733 " transform="matrix(0.666015,0,0,0.666015,-117.850251,-250.038727)"/>
<path style="fill-rule:evenodd;fill:rgb(100%,78.431374%,29.411766%);fill-opacity:1;stroke-width:1.25;stroke-linecap:butt;stroke-linejoin:miter;stroke:rgb(84.705883%,66.666669%,24.705882%);stroke-opacity:1;stroke-miterlimit:4;" d="M 385.689615 468.001104 L 418.704284 466.6404 L 418.704284 458.482041 C 396.434485 457.772363 392.422754 460.751836 385.689615 468.001104 Z M 385.689615 468.001104 " transform="matrix(-0.666015,0,0,-0.666015,419.910416,366.645206)"/>
<path style="fill-rule:evenodd;fill:rgb(100%,78.431374%,29.411766%);fill-opacity:1;stroke-width:1.25;stroke-linecap:butt;stroke-linejoin:round;stroke:rgb(84.705883%,66.666669%,24.705882%);stroke-opacity:1;stroke-miterlimit:4;" d="M 308.197504 456.539175 C 313.951171 453.594893 316.813341 454.797239 321.798679 454.603691 C 325.229765 460.820701 328.467302 461.401346 335.9805 462.17554 C 347.435048 478.29871 363.552353 478.492259 365.886665 478.492259 C 388.350012 477.905748 395.470248 462.17554 410.54943 460.427739 L 426.479052 460.427739 C 423.82216 455.899879 421.751778 453.307503 415.992246 453.049438 C 404.144737 452.404277 388.801625 452.726858 375.399863 455.770846 L 356.56115 460.427739 C 351.059682 457.776712 337.599269 443.665272 328.989297 443.923337 C 323.939442 445.284041 323.939442 447.031842 321.411583 448.973191 C 316.555277 451.043573 311.704836 450.05237 308.197504 456.539175 Z M 308.197504 456.539175 " transform="matrix(0.666015,0,0,0.666015,-117.850251,-250.038727)"/>
<path style="fill-rule:evenodd;fill:rgb(100%,78.431374%,29.411766%);fill-opacity:1;stroke-width:1.6303;stroke-linecap:butt;stroke-linejoin:miter;stroke:rgb(84.705883%,66.666669%,24.705882%);stroke-opacity:1;stroke-miterlimit:4;" d="M 330.537545 451.110082 C 330.537545 452.823502 329.145391 454.215656 327.431971 454.215656 C 325.71855 454.215656 324.326396 452.823502 324.326396 451.110082 C 324.326396 449.396661 325.71855 448.004507 327.431971 448.004507 C 329.145391 448.004507 330.537545 449.396661 330.537545 451.110082 Z M 330.537545 451.110082 " transform="matrix(0.510674,0,0,0.510674,-66.257996,-180.91724)"/>
<path style="fill-rule:evenodd;fill:rgb(100%,78.431374%,29.411766%);fill-opacity:1;stroke-width:1.25;stroke-linecap:butt;stroke-linejoin:miter;stroke:rgb(84.705883%,66.666669%,24.705882%);stroke-opacity:1;stroke-miterlimit:4;" d="M 346.267892 456.351492 C 379.998104 415.694592 409.452655 420.679931 447.83976 417.899871 C 449.135948 422.62128 448.684335 429.682865 430.36175 435.958526 C 405.311892 439.647676 360.449713 466.058239 360.256165 466.058239 C 351.904257 465.671142 346.074344 456.932137 346.273758 456.351492 Z M 346.267892 456.351492 " transform="matrix(0.666015,0,0,0.666015,-117.850251,-250.038727)"/>
<path style="fill:none;stroke-width:1.25;stroke-linecap:round;stroke-linejoin:miter;stroke:rgb(85.09804%,64.313728%,24.313726%);stroke-opacity:1;stroke-miterlimit:4;" d="M 415.558228 429.858818 L 440.432134 430.937997 " transform="matrix(0.666015,0,0,0.666015,-117.850251,-250.038727)"/>
<path style="fill:none;stroke-width:1.25;stroke-linecap:round;stroke-linejoin:miter;stroke:rgb(85.09804%,64.313728%,24.313726%);stroke-opacity:1;stroke-miterlimit:4;" d="M 412.860281 433.91747 L 430.989317 435.401341 " transform="matrix(0.666015,0,0,0.666015,-117.850251,-250.038727)"/>
</g>
</svg>
