<?xml version="1.0" encoding="UTF-8"?>
<svg xmlns="http://www.w3.org/2000/svg" xmlns:xlink="http://www.w3.org/1999/xlink" width="40px" height="40px" viewBox="0 0 256 256" version="1.1">
<g id="surface1">
<path style=" stroke:none;fill-rule:evenodd;fill:rgb(100%,91.37255%,0%);fill-opacity:1;" d="M -53.9375 0.121094 L 314.886719 0.121094 L 314.886719 255.765625 L -53.9375 255.765625 Z M -53.9375 0.121094 "/>
<path style=" stroke:none;fill-rule:evenodd;fill:rgb(20.784314%,63.137257%,0%);fill-opacity:1;" d="M -54.121094 0.121094 L -53.691406 184.414062 L 233.300781 0 L -54.117188 0.121094 Z M -54.121094 0.121094 "/>
<path style=" stroke:none;fill-rule:evenodd;fill:rgb(78.039217%,0%,0%);fill-opacity:1;" d="M 315.332031 255.765625 L 314.679688 64.140625 L 25.179688 255.910156 Z M 315.332031 255.765625 "/>
<path style=" stroke:none;fill-rule:evenodd;fill:rgb(0%,0%,0%);fill-opacity:1;" d="M -53.9375 198.308594 L -53.691406 256 L 8.933594 255.917969 L 314.8125 50.847656 L 314.46875 0.6875 L 252.578125 0.121094 L -53.945312 198.308594 Z M -53.9375 198.308594 "/>
<path style=" stroke:none;fill-rule:evenodd;fill:rgb(100%,100%,100%);fill-opacity:1;" d="M 228.941406 92.570312 L 206.875 91.800781 L 198.191406 112.464844 L 193.273438 91.332031 L 171.203125 90.59375 L 190.230469 78.308594 L 185.273438 57.183594 L 201.953125 70.722656 L 220.960938 58.402344 L 212.238281 79.058594 Z M 228.941406 92.570312 "/>
<path style=" stroke:none;fill-rule:evenodd;fill:rgb(100%,100%,100%);fill-opacity:1;" d="M 91.316406 182.027344 L 69.25 181.257812 L 60.5625 201.925781 L 55.644531 180.792969 L 33.578125 180.050781 L 52.601562 167.765625 L 47.648438 146.644531 L 64.324219 160.179688 L 83.332031 147.863281 L 74.613281 168.519531 Z M 91.316406 182.027344 "/>
</g>
</svg>
