<?xml version="1.0" encoding="UTF-8"?>
<svg xmlns="http://www.w3.org/2000/svg" xmlns:xlink="http://www.w3.org/1999/xlink" width="40px" height="40px" viewBox="0 0 40 40" version="1.1">
<g id="surface1">
<path style=" stroke:none;fill-rule:evenodd;fill:rgb(100%,100%,100%);fill-opacity:1;" d="M 47.703125 39.964844 L -9.339844 39.964844 L -9.339844 -0.0351562 L 47.703125 -0.0351562 Z M 47.703125 39.964844 "/>
<path style=" stroke:none;fill-rule:evenodd;fill:rgb(100%,100%,100%);fill-opacity:1;" d="M 19.679688 20 C 19.679688 24.855469 15.742188 28.792969 10.886719 28.792969 C 6.035156 28.792969 2.097656 24.855469 2.097656 20 C 2.097656 15.148438 6.035156 11.210938 10.886719 11.210938 C 15.742188 11.210938 19.679688 15.148438 19.679688 20 Z M 19.679688 20 "/>
<path style=" stroke:none;fill-rule:evenodd;fill:rgb(78.039217%,0%,0%);fill-opacity:1;" d="M 30.703125 20.511719 C 30.703125 26.84375 25.625 31.980469 19.355469 31.980469 C 13.085938 31.980469 8.007812 26.84375 8.007812 20.511719 C 8.007812 14.175781 13.085938 9.042969 19.355469 9.042969 C 25.625 9.042969 30.703125 14.175781 30.703125 20.511719 Z M 30.703125 20.511719 "/>
<path style=" stroke:none;fill-rule:evenodd;fill:rgb(0%,0%,0%);fill-opacity:1;" d="M -3.859375 9.878906 L 2.675781 2.316406 L 4.222656 3.65625 L -2.3125 11.21875 Z M -3.859375 9.878906 "/>
<path style=" stroke:none;fill-rule:evenodd;fill:rgb(0%,0%,0%);fill-opacity:1;" d="M -1.71875 11.726562 L 4.816406 4.167969 L 6.363281 5.507812 L -0.171875 13.066406 Z M -1.71875 11.726562 "/>
<path style=" stroke:none;fill-rule:evenodd;fill:rgb(0%,0%,0%);fill-opacity:1;" d="M -3.859375 9.878906 L 2.675781 2.316406 L 4.222656 3.65625 L -2.3125 11.21875 Z M -3.859375 9.878906 "/>
<path style=" stroke:none;fill-rule:evenodd;fill:rgb(0%,0%,0%);fill-opacity:1;" d="M -3.859375 9.878906 L 2.675781 2.316406 L 4.222656 3.65625 L -2.3125 11.21875 Z M -3.859375 9.878906 "/>
<path style=" stroke:none;fill-rule:evenodd;fill:rgb(0%,0%,0%);fill-opacity:1;" d="M 0.464844 13.617188 L 7 6.058594 L 8.550781 7.398438 L 2.015625 14.957031 Z M 0.464844 13.617188 "/>
<path style=" stroke:none;fill-rule:evenodd;fill:rgb(0%,0%,0%);fill-opacity:1;" d="M -3.859375 9.878906 L 2.675781 2.316406 L 4.222656 3.65625 L -2.3125 11.21875 Z M -3.859375 9.878906 "/>
<path style=" stroke:none;fill-rule:evenodd;fill:rgb(0%,0%,0%);fill-opacity:1;" d="M -3.859375 9.878906 L 2.675781 2.316406 L 4.222656 3.65625 L -2.3125 11.21875 Z M -3.859375 9.878906 "/>
<path style=" stroke:none;fill-rule:evenodd;fill:rgb(0%,0%,0%);fill-opacity:1;" d="M 35.890625 2.316406 L 42.375 9.917969 L 40.820312 11.25 L 34.335938 3.644531 Z M 35.890625 2.316406 "/>
<path style=" stroke:none;fill-rule:evenodd;fill:rgb(0%,0%,0%);fill-opacity:1;" d="M 31.539062 6.027344 L 38.023438 13.632812 L 36.464844 14.960938 L 29.980469 7.355469 Z M 31.539062 6.027344 "/>
<path style=" stroke:none;fill-rule:evenodd;fill:rgb(100%,100%,100%);fill-opacity:1;" d="M 32.621094 10.40625 L 38.761719 5.109375 L 39.90625 6.433594 L 33.34375 12.332031 Z M 32.621094 10.40625 "/>
<path style=" stroke:none;fill-rule:evenodd;fill:rgb(0%,0%,0%);fill-opacity:1;" d="M 40.175781 29.0625 L 33.890625 36.550781 L 32.351562 35.269531 L 38.632812 27.78125 Z M 40.175781 29.0625 "/>
<path style=" stroke:none;fill-rule:evenodd;fill:rgb(0%,0%,0%);fill-opacity:1;" d="M 33.738281 4.152344 L 40.222656 11.757812 L 38.664062 13.085938 L 32.179688 5.480469 Z M 33.738281 4.152344 "/>
<path style=" stroke:none;fill-rule:evenodd;fill:rgb(0%,0%,0%);fill-opacity:1;" d="M 42.304688 30.835938 L 36.019531 38.320312 L 34.480469 37.039062 L 40.761719 29.550781 Z M 42.304688 30.835938 "/>
<path style=" stroke:none;fill-rule:evenodd;fill:rgb(0%,0%,0%);fill-opacity:1;" d="M 38 27.253906 L 31.71875 34.742188 L 30.175781 33.460938 L 36.457031 25.972656 Z M 38 27.253906 "/>
<path style=" stroke:none;fill-rule:evenodd;fill:rgb(23.921569%,34.509805%,59.215689%);fill-opacity:1;" d="M 8.171875 18.492188 C 8.53125 21.378906 9.054688 24.597656 13.5 24.933594 C 15.164062 25.03125 18.40625 24.535156 19.519531 19.996094 C 20.980469 15.632812 25.378906 14.378906 28.371094 16.746094 C 30.066406 17.851562 30.535156 19.609375 30.65625 20.929688 C 30.523438 25.167969 28.089844 28.835938 24.96875 30.472656 C 21.378906 32.605469 16.410156 32.648438 12.054688 29.417969 C 10.09375 27.574219 7.351562 24.179688 8.171875 18.492188 Z M 8.171875 18.492188 "/>
<path style=" stroke:none;fill-rule:evenodd;fill:rgb(100%,100%,100%);fill-opacity:1;" d="M 34.054688 28.953125 L 40.207031 34.238281 L 39.066406 35.566406 L 32.257812 29.953125 Z M 34.054688 28.953125 "/>
<path style=" stroke:none;fill-rule:evenodd;fill:rgb(0%,0%,0%);fill-opacity:1;" d="M -0.148438 27.90625 L 6.335938 35.511719 L 4.78125 36.839844 L -1.703125 29.234375 Z M -0.148438 27.90625 "/>
<path style=" stroke:none;fill-rule:evenodd;fill:rgb(100%,100%,100%);fill-opacity:1;" d="M -1.265625 34.160156 L 4.875 28.863281 L 6.019531 30.1875 L -0.542969 36.085938 Z M -1.265625 34.160156 "/>
<path style=" stroke:none;fill-rule:evenodd;fill:rgb(0%,0%,0%);fill-opacity:1;" d="M 2.003906 26.070312 L 8.488281 33.675781 L 6.933594 35.003906 L 0.449219 27.398438 Z M 2.003906 26.070312 "/>
<path style=" stroke:none;fill-rule:evenodd;fill:rgb(0%,0%,0%);fill-opacity:1;" d="M -2.347656 29.78125 L 4.136719 37.386719 L 2.582031 38.714844 L -3.902344 31.109375 Z M -2.347656 29.78125 "/>
</g>
</svg>
