<?xml version="1.0" encoding="UTF-8"?>
<svg xmlns="http://www.w3.org/2000/svg" xmlns:xlink="http://www.w3.org/1999/xlink" width="40px" height="40px" viewBox="0 0 256 256" version="1.1">
<g id="surface1">
<rect x="0" y="0" width="256" height="256" style="fill:rgb(0%,0%,40.000001%);fill-opacity:1;stroke:none;"/>
<path style=" stroke:none;fill-rule:evenodd;fill:rgb(0%,0%,40.000001%);fill-opacity:1;" d="M 0 0 L 256 0 L 256 128 L 0 128 Z M 0 0 "/>
<path style=" stroke:none;fill-rule:nonzero;fill:rgb(100%,100%,100%);fill-opacity:1;" d="M 0 0 L 0 14.3125 L 227.378906 128 L 256 128 L 256 113.691406 L 28.621094 0 Z M 256 0 L 256 14.308594 L 28.621094 128 L 0 128 L 0 113.6875 L 227.378906 0 Z M 256 0 "/>
<path style=" stroke:none;fill-rule:nonzero;fill:rgb(100%,100%,100%);fill-opacity:1;" d="M 106.667969 0 L 106.667969 128 L 149.332031 128 L 149.332031 0 Z M 0 42.667969 L 0 85.332031 L 256 85.332031 L 256 42.667969 Z M 0 42.667969 "/>
<path style=" stroke:none;fill-rule:nonzero;fill:rgb(80.000001%,0%,0%);fill-opacity:1;" d="M 0 51.199219 L 0 76.800781 L 256 76.800781 L 256 51.199219 Z M 115.199219 0 L 115.199219 128 L 140.800781 128 L 140.800781 0 Z M 115.199219 0 "/>
<path style=" stroke:none;fill-rule:nonzero;fill:rgb(80.000001%,0%,0%);fill-opacity:1;" d="M 0 128 L 85.332031 85.332031 L 104.414062 85.332031 L 19.082031 128 Z M 0 0 L 85.332031 42.667969 L 66.253906 42.667969 L 0 9.539062 Z M 151.585938 42.667969 L 236.917969 0 L 256 0 L 170.664062 42.667969 Z M 256 128 L 170.664062 85.332031 L 189.746094 85.332031 L 256 118.460938 Z M 256 128 "/>
<path style=" stroke:none;fill-rule:evenodd;fill:rgb(100%,100%,100%);fill-opacity:1;" d="M 153.953125 92.953125 C 153.386719 93.296875 152.253906 94.324219 151.121094 93.980469 C 149.988281 93.636719 147.4375 89.1875 144.605469 89.871094 C 141.773438 90.554688 140.074219 91.582031 138.941406 91.582031 C 137.808594 91.582031 134.691406 92.609375 134.691406 95.351562 C 134.691406 98.089844 134.972656 100.144531 135.539062 100.144531 C 136.105469 100.144531 136.957031 98.433594 136.957031 98.433594 C 136.957031 98.433594 137.238281 101.855469 139.222656 101.855469 C 141.207031 101.855469 145.457031 102.199219 145.738281 103.226562 C 146.023438 104.253906 143.757812 106.652344 144.324219 108.707031 C 144.890625 110.757812 147.4375 114.183594 147.4375 114.183594 C 147.4375 114.183594 143.757812 116.921875 143.757812 118.636719 C 143.757812 120.347656 144.324219 122.058594 144.324219 122.058594 L 127.890625 122.746094 C 127.890625 122.746094 126.757812 171.371094 127.324219 175.136719 C 127.890625 178.902344 129.308594 188.148438 129.308594 188.148438 C 129.308594 188.148438 125.625 186.949219 122.507812 190.03125 C 119.390625 193.113281 108.484375 198.421875 108.203125 200.816406 C 107.917969 203.214844 106.925781 205.269531 108.058594 206.980469 C 109.195312 208.695312 113.179688 213.347656 112.027344 213.148438 C 108.222656 212.492188 106.808594 207.085938 104.234375 205.101562 C 101.707031 203.148438 96.730469 203.558594 96.164062 205.613281 C 95.59375 207.667969 95.878906 211.089844 96.164062 211.777344 C 96.445312 212.460938 99.5625 223.417969 100.410156 225.816406 C 101.261719 228.214844 110.183594 231.808594 114.152344 231.464844 C 121.660156 231.636719 125.058594 228.214844 125.339844 228.554688 C 125.625 228.898438 141.492188 245.261719 174.070312 245.335938 C 199.429688 245.390625 218.546875 228.898438 218.546875 229.242188 C 218.546875 229.582031 229.027344 232.664062 232.710938 231.636719 C 236.394531 230.609375 241.777344 228.210938 242.910156 225.816406 C 244.042969 223.417969 247.160156 211.089844 247.445312 209.039062 C 247.726562 206.984375 247.445312 204.585938 244.894531 203.902344 C 242.34375 203.214844 240.929688 203.386719 239.511719 204.070312 C 238.09375 204.757812 237.671875 206.640625 235.546875 210.0625 C 234.414062 211.09375 231.4375 213.832031 232.289062 213.144531 C 233.136719 212.460938 234.980469 207.324219 235.261719 205.613281 C 235.546875 203.902344 236.394531 200.820312 234.414062 199.105469 C 232.429688 197.394531 229.390625 196.695312 225.914062 194.140625 C 222.609375 191.878906 219.964844 188.148438 217.980469 188.148438 C 215.996094 188.148438 213.730469 187.121094 214.015625 187.121094 C 214.296875 187.121094 216.570312 182.148438 216.003906 177.011719 C 215.4375 171.875 216.28125 122.746094 215.996094 122.746094 C 215.714844 122.746094 201.832031 123.773438 201.832031 123.089844 C 201.832031 122.402344 202.964844 117.609375 201.832031 114.527344 C 200.699219 111.445312 195.882812 109.390625 197.300781 108.707031 C 198.714844 108.019531 204.949219 106.308594 204.664062 103.570312 C 204.382812 100.832031 200.414062 101.171875 198.714844 100.144531 C 197.015625 99.117188 191.917969 94.324219 191.351562 94.324219 C 190.785156 94.324219 206.082031 85.078125 204.949219 85.078125 C 203.816406 85.078125 197.867188 83.367188 195.882812 84.394531 C 195.882812 82.683594 204.097656 77.546875 202.683594 76.859375 C 201.265625 76.175781 194.75 75.492188 196.449219 75.148438 C 198.148438 74.804688 198.714844 70.695312 198.433594 70.695312 C 198.148438 70.695312 191.066406 71.722656 191.066406 71.722656 C 191.066406 71.722656 189.367188 69.328125 188.800781 69.328125 C 188.234375 69.328125 185.683594 70.695312 185.683594 70.695312 L 184.269531 66.929688 L 181.152344 68.984375 L 179.734375 67.273438 C 179.734375 67.273438 177.183594 67.957031 177.183594 67.273438 C 177.292969 67.246094 176.890625 65.554688 176.492188 65.554688 C 176.089844 65.554688 173.285156 67.730469 173.1875 67.609375 C 173.085938 67.488281 169.980469 63.132812 169.980469 63.253906 C 169.980469 63.375 167.777344 71.484375 167.675781 71.484375 C 167.578125 71.484375 165.472656 71.726562 165.375 71.847656 C 165.273438 71.96875 154.15625 65.433594 154.253906 65.554688 C 154.355469 65.675781 157.160156 71.847656 157.160156 71.847656 C 157.160156 71.847656 154.757812 73.179688 154.757812 73.300781 C 154.757812 73.421875 155.15625 76.085938 155.15625 76.085938 L 147.742188 73.542969 C 147.742188 73.542969 150.546875 79.234375 150.347656 79.234375 C 150.148438 79.234375 144.839844 79.476562 144.941406 79.476562 C 145.039062 79.476562 147.445312 84.195312 147.445312 84.195312 L 146.542969 86.980469 C 146.542969 86.980469 154.519531 92.613281 153.953125 92.953125 Z M 201.265625 212.117188 C 201.972656 213.144531 205.796875 217.9375 205.230469 217.9375 C 204.664062 217.9375 195.175781 224.273438 191.351562 225.472656 C 187.527344 226.671875 175.0625 228.898438 175.769531 228.726562 C 176.476562 228.554688 186.960938 222.8125 191.210938 220.074219 C 195.460938 217.335938 201.265625 212.460938 201.265625 212.117188 Z M 142.054688 211.945312 C 141.488281 212.628906 138.796875 217.9375 138.796875 217.9375 C 138.796875 217.9375 146.585938 223.417969 152.394531 225.472656 C 158.203125 227.527344 168.117188 228.210938 167.550781 228.039062 C 166.984375 227.871094 155.085938 222.5625 151.6875 219.824219 C 148.285156 217.082031 142.195312 211.945312 142.054688 211.945312 Z M 142.054688 211.945312 "/>
<path style="fill-rule:evenodd;fill:rgb(99.607843%,77.254903%,0%);fill-opacity:1;stroke-width:1.25;stroke-linecap:butt;stroke-linejoin:miter;stroke:rgb(42.745098%,40.000001%,40.000001%);stroke-opacity:1;stroke-miterlimit:4;" d="M 394.649111 -212.977818 C 394.649111 -212.977818 423.42125 -195.701466 429.996443 -191.593408 C 436.571636 -187.485351 457.952351 -169.402394 459.607486 -170.208999 C 461.239948 -171.034362 472.757873 -180.07584 472.757873 -180.07584 C 472.757873 -180.07584 448.905792 -198.984161 434.122944 -203.110976 C 419.317422 -207.219034 394.649111 -211.327092 394.649111 -212.977818 Z M 394.649111 -212.977818 " transform="matrix(0.172286,0,0,0.208242,80.284902,129.495386)"/>
<path style="fill-rule:evenodd;fill:rgb(99.607843%,77.254903%,0%);fill-opacity:1;stroke-width:1.25;stroke-linecap:butt;stroke-linejoin:miter;stroke:rgb(42.745098%,40.000001%,40.000001%);stroke-opacity:1;stroke-miterlimit:4;" d="M 390.545283 -231.886138 C 393.016649 -231.886138 438.226771 -208.851002 452.193389 -197.352192 C 466.182679 -185.834624 471.941642 -171.034362 473.574104 -171.034362 C 475.229238 -171.034362 496.609953 -174.335815 495.771049 -174.335815 C 494.954818 -174.335815 485.908259 -203.917581 465.366449 -212.977818 C 444.801965 -222.019297 391.361514 -231.886138 390.545283 -231.886138 Z M 390.545283 -231.886138 " transform="matrix(0.172286,0,0,0.208242,80.284902,129.495386)"/>
<path style="fill-rule:evenodd;fill:rgb(99.607843%,77.254903%,0%);fill-opacity:1;stroke-width:1.25;stroke-linecap:butt;stroke-linejoin:miter;stroke:rgb(42.745098%,40.000001%,40.000001%);stroke-opacity:1;stroke-miterlimit:4;" d="M 603.490854 -296.000703 C 602.65195 -296.000703 594.444295 -271.352358 591.97293 -263.942847 C 589.501564 -256.552095 585.397736 -240.92647 585.397736 -240.92647 C 585.397736 -240.92647 549.2115 -237.643775 550.866635 -241.751833 C 552.499097 -245.85989 605.939547 -296.000703 603.490854 -296.000703 Z M 603.490854 -296.000703 " transform="matrix(0.172286,0,0,0.208242,80.284902,130.463897)"/>
<path style="fill-rule:evenodd;fill:rgb(99.607843%,77.254903%,0%);fill-opacity:1;stroke-width:1.25;stroke-linecap:butt;stroke-linejoin:miter;stroke:rgb(42.745098%,40.000001%,40.000001%);stroke-opacity:1;stroke-miterlimit:4;" d="M 398.752938 -261.486663 C 398.752938 -261.486663 441.514368 -232.711501 456.319889 -216.260513 C 471.102738 -199.809524 485.908259 -171.034362 486.72449 -171.034362 C 487.563394 -171.034362 527.014554 -179.269236 527.014554 -178.443872 C 527.014554 -177.618509 480.988201 -224.476628 458.768582 -238.451527 C 436.571636 -252.445185 399.591842 -259.835937 398.752938 -261.486663 Z M 398.752938 -261.486663 " transform="matrix(0.172286,0,0,0.208242,80.284902,129.495386)"/>
<path style="fill-rule:evenodd;fill:rgb(99.607843%,77.254903%,0%);fill-opacity:1;stroke-width:1.25;stroke-linecap:butt;stroke-linejoin:miter;stroke:rgb(42.745098%,40.000001%,40.000001%);stroke-opacity:1;stroke-miterlimit:4;" d="M 443.169503 -273.809689 C 443.169503 -273.809689 464.527545 -240.92647 468.654045 -229.408902 C 472.757873 -217.910092 485.092028 -188.309567 485.092028 -188.309567 L 518.806899 -188.309567 C 518.806899 -188.309567 502.346243 -225.300844 484.275798 -243.383801 C 466.182679 -261.485516 443.985734 -272.158962 443.169503 -273.809689 Z M 443.169503 -273.809689 " transform="matrix(0.172286,0,0,0.208242,80.284902,130.463897)"/>
<path style="fill-rule:evenodd;fill:rgb(99.607843%,77.254903%,0%);fill-opacity:1;stroke-width:1.25;stroke-linecap:butt;stroke-linejoin:miter;stroke:rgb(42.745098%,40.000001%,40.000001%);stroke-opacity:1;stroke-miterlimit:4;" d="M 454.664755 -291.892646 C 455.480985 -289.435314 485.908259 -260.660153 493.299684 -241.751833 C 500.691108 -222.843513 506.45007 -199.001772 506.45007 -199.001772 L 536.061113 -206.392524 C 536.061113 -206.392524 509.737667 -254.901369 493.299684 -268.050905 C 476.8617 -281.219199 456.297216 -290.260678 454.664755 -291.892646 Z M 454.664755 -291.892646 " transform="matrix(0.172286,0,0,0.208242,80.284902,130.463897)"/>
<path style="fill-rule:evenodd;fill:rgb(99.607843%,77.254903%,0%);fill-opacity:1;stroke-width:1.25;stroke-linecap:butt;stroke-linejoin:miter;stroke:rgb(42.745098%,40.000001%,40.000001%);stroke-opacity:1;stroke-miterlimit:4;" d="M 700.508965 -209.676365 C 700.508965 -209.676365 638.838187 -203.110976 616.641241 -197.352192 C 594.444295 -191.593408 582.11014 -170.208999 582.11014 -170.208999 C 582.11014 -170.208999 610.882279 -159.535552 612.537413 -161.16752 C 614.169875 -162.818247 631.446763 -180.07584 650.356112 -186.659988 C 669.265461 -193.244135 702.141427 -208.851002 700.508965 -209.676365 Z M 700.508965 -209.676365 " transform="matrix(0.172286,0,0,0.208242,80.284902,129.495386)"/>
<path style="fill-rule:evenodd;fill:rgb(99.607843%,77.254903%,0%);fill-opacity:1;stroke-width:1.25;stroke-linecap:butt;stroke-linejoin:miter;stroke:rgb(42.745098%,40.000001%,40.000001%);stroke-opacity:1;stroke-miterlimit:4;" d="M 698.0376 -249.969095 C 696.382465 -249.143732 647.045842 -208.851002 631.424089 -195.701466 C 615.802337 -182.55193 601.019489 -168.577031 599.364354 -167.751668 C 597.731892 -166.926304 567.304618 -171.859725 568.93708 -173.510452 C 570.592215 -175.14242 614.169875 -210.501729 642.942014 -226.127354 C 671.714153 -241.75298 695.566234 -248.318369 698.0376 -249.969095 Z M 698.0376 -249.969095 " transform="matrix(0.172286,0,0,0.208242,80.284902,129.495386)"/>
<path style="fill-rule:evenodd;fill:rgb(99.607843%,77.254903%,0%);fill-opacity:1;stroke-width:1.25;stroke-linecap:butt;stroke-linejoin:miter;stroke:rgb(42.745098%,40.000001%,40.000001%);stroke-opacity:1;stroke-miterlimit:4;" d="M 685.703444 -278.744257 C 680.760712 -273.004231 632.262993 -233.536865 619.112607 -219.561965 C 605.939547 -205.568308 584.581505 -180.901204 584.581505 -180.901204 C 584.581505 -180.901204 559.07429 -192.418772 560.729425 -197.352192 C 562.361886 -202.285613 596.892988 -231.060775 621.561299 -247.511764 C 646.229611 -263.943994 688.17481 -277.112289 685.703444 -278.744257 Z M 685.703444 -278.744257 " transform="matrix(0.172286,0,0,0.208242,80.284902,129.495386)"/>
<path style="fill-rule:evenodd;fill:rgb(99.607843%,77.254903%,0%);fill-opacity:1;stroke-width:1.25;stroke-linecap:butt;stroke-linejoin:miter;stroke:rgb(42.745098%,40.000001%,40.000001%);stroke-opacity:1;stroke-miterlimit:4;" d="M 636.366821 -282.045709 C 635.55059 -281.220346 606.778451 -250.794458 601.019489 -242.578343 C 595.260526 -234.362228 578.006312 -198.177556 578.006312 -198.177556 C 578.006312 -198.177556 552.499097 -220.36857 552.499097 -221.193933 C 552.499097 -222.019297 584.581505 -255.727879 603.490854 -268.877415 C 622.400203 -282.045709 637.183052 -279.56962 636.366821 -282.045709 Z M 636.366821 -282.045709 " transform="matrix(0.172286,0,0,0.208242,80.284902,129.495386)"/>
<path style="fill-rule:evenodd;fill:rgb(99.607843%,77.254903%,0%);fill-opacity:1;stroke-width:1.25;stroke-linecap:butt;stroke-linejoin:miter;stroke:rgb(42.745098%,40.000001%,40.000001%);stroke-opacity:1;stroke-miterlimit:4;" d="M 565.082656 -241.770591 C 565.082656 -235.993049 560.412002 -231.303485 554.630366 -231.303485 C 548.848731 -231.303485 544.155403 -235.993049 544.155403 -241.770591 C 544.155403 -247.548133 548.848731 -252.237697 554.630366 -252.237697 C 560.412002 -252.237697 565.082656 -247.548133 565.082656 -241.770591 Z M 565.082656 -241.770591 " transform="matrix(0.172286,0,0,0.208242,80.284902,130.463897)"/>
<path style="fill-rule:evenodd;fill:rgb(99.607843%,77.254903%,0%);fill-opacity:1;stroke-width:1.25;stroke-linecap:butt;stroke-linejoin:miter;stroke:rgb(42.745098%,40.000001%,40.000001%);stroke-opacity:1;stroke-miterlimit:4;" d="M 586.009909 -227.81445 C 586.009909 -222.674688 581.339255 -218.510356 575.557619 -218.510356 C 569.775984 -218.510356 565.082656 -222.674688 565.082656 -227.81445 C 565.082656 -232.954212 569.775984 -237.118544 575.557619 -237.118544 C 581.339255 -237.118544 586.009909 -232.954212 586.009909 -227.81445 Z M 586.009909 -227.81445 " transform="matrix(0.172286,0,0,0.208242,80.284902,130.463897)"/>
<path style="fill-rule:evenodd;fill:rgb(99.607843%,77.254903%,0%);fill-opacity:1;stroke-width:1.25;stroke-linecap:butt;stroke-linejoin:miter;stroke:rgb(42.745098%,40.000001%,40.000001%);stroke-opacity:1;stroke-miterlimit:4;" d="M 539.507421 -238.281556 C 539.507421 -233.141794 533.793805 -228.977462 526.719804 -228.977462 C 519.645803 -228.977462 513.932187 -233.141794 513.932187 -238.281556 C 513.932187 -243.421317 519.645803 -247.58565 526.719804 -247.58565 C 533.793805 -247.58565 539.507421 -243.421317 539.507421 -238.281556 Z M 539.507421 -238.281556 " transform="matrix(0.172286,0,0,0.208242,80.284902,130.463897)"/>
<path style="fill-rule:evenodd;fill:rgb(99.607843%,77.254903%,0%);fill-opacity:1;stroke-width:1.25;stroke-linecap:butt;stroke-linejoin:miter;stroke:rgb(42.745098%,40.000001%,40.000001%);stroke-opacity:1;stroke-miterlimit:4;" d="M 573.222292 -219.091862 C 573.222292 -209.131229 566.715118 -201.06518 558.688847 -201.06518 C 550.662577 -201.06518 544.155403 -209.131229 544.155403 -219.091862 C 544.155403 -229.052495 550.662577 -237.118544 558.688847 -237.118544 C 566.715118 -237.118544 573.222292 -229.033736 573.222292 -219.091862 Z M 573.222292 -219.091862 " transform="matrix(0.172286,0,0,0.208242,80.284902,130.463897)"/>
<path style="fill-rule:evenodd;fill:rgb(99.607843%,77.254903%,0%);fill-opacity:1;stroke-width:1.25;stroke-linecap:butt;stroke-linejoin:miter;stroke:rgb(42.745098%,40.000001%,40.000001%);stroke-opacity:1;stroke-miterlimit:4;" d="M 533.703113 -218.510356 C 533.703113 -210.800714 527.195939 -204.554215 519.169668 -204.554215 C 511.143398 -204.554215 504.636224 -210.800714 504.636224 -218.510356 C 504.636224 -226.219998 511.143398 -232.466497 519.169668 -232.466497 C 527.195939 -232.466497 533.703113 -226.219998 533.703113 -218.510356 Z M 533.703113 -218.510356 " transform="matrix(0.172286,0,0,0.208242,80.284902,130.463897)"/>
<path style="fill-rule:evenodd;fill:rgb(99.607843%,77.254903%,0%);fill-opacity:1;stroke-width:1.25;stroke-linecap:butt;stroke-linejoin:miter;stroke:rgb(42.745098%,40.000001%,40.000001%);stroke-opacity:1;stroke-miterlimit:4;" d="M 513.932187 -207.461744 C 513.932187 -200.708773 508.989455 -195.250121 502.890397 -195.250121 C 496.791338 -195.250121 491.848606 -200.708773 491.848606 -207.461744 C 491.848606 -214.195957 496.791338 -219.673368 502.890397 -219.673368 C 508.989455 -219.673368 513.932187 -214.195957 513.932187 -207.461744 Z M 513.932187 -207.461744 " transform="matrix(0.172286,0,0,0.208242,80.284902,130.463897)"/>
<path style="fill-rule:evenodd;fill:rgb(99.607843%,77.254903%,0%);fill-opacity:1;stroke-width:1.25;stroke-linecap:butt;stroke-linejoin:miter;stroke:rgb(42.745098%,40.000001%,40.000001%);stroke-opacity:1;stroke-miterlimit:4;" d="M 595.328545 -208.624756 C 595.328545 -200.596223 587.77841 -194.087109 578.459774 -194.087109 C 569.141138 -194.087109 561.591002 -200.596223 561.591002 -208.624756 C 561.591002 -216.653289 569.141138 -223.162403 578.459774 -223.162403 C 587.77841 -223.162403 595.328545 -216.653289 595.328545 -208.624756 Z M 595.328545 -208.624756 " transform="matrix(0.172286,0,0,0.208242,80.284902,130.463897)"/>
<path style="fill-rule:evenodd;fill:rgb(99.607843%,77.254903%,0%);fill-opacity:1;stroke-width:1.25;stroke-linecap:butt;stroke-linejoin:miter;stroke:rgb(42.745098%,40.000001%,40.000001%);stroke-opacity:1;stroke-miterlimit:4;" d="M 554.630366 -229.558968 C 554.630366 -224.738096 548.644673 -220.836379 541.253249 -220.836379 C 533.861824 -220.836379 527.876131 -224.738096 527.876131 -229.558968 C 527.876131 -234.379839 533.861824 -238.281556 541.253249 -238.281556 C 548.644673 -238.281556 554.630366 -234.379839 554.630366 -229.558968 Z M 554.630366 -229.558968 " transform="matrix(0.172286,0,0,0.208242,80.284902,130.463897)"/>
<path style="fill-rule:evenodd;fill:rgb(99.607843%,77.254903%,0%);fill-opacity:1;stroke-width:1.25;stroke-linecap:butt;stroke-linejoin:miter;stroke:rgb(42.745098%,40.000001%,40.000001%);stroke-opacity:1;stroke-miterlimit:4;" d="M 556.94302 -210.369274 C 556.94302 -203.297412 548.622 -197.576144 538.351094 -197.576144 C 528.080189 -197.576144 519.736495 -203.297412 519.736495 -210.369274 C 519.736495 -217.441135 528.080189 -223.162403 538.351094 -223.162403 C 548.622 -223.162403 556.94302 -217.441135 556.94302 -210.369274 Z M 556.94302 -210.369274 " transform="matrix(0.172286,0,0,0.208242,80.284902,130.463897)"/>
<path style="fill-rule:evenodd;fill:rgb(99.607843%,77.254903%,0%);fill-opacity:1;stroke-width:1.25;stroke-linecap:butt;stroke-linejoin:miter;stroke:rgb(42.745098%,40.000001%,40.000001%);stroke-opacity:1;stroke-miterlimit:4;" d="M 604.624508 -187.709303 C 604.624508 -179.024231 596.802296 -172.008644 587.18891 -172.008644 C 577.55285 -172.008644 569.730638 -179.024231 569.730638 -187.709303 C 569.730638 -196.375616 577.55285 -203.391203 587.18891 -203.391203 C 596.802296 -203.391203 604.624508 -196.375616 604.624508 -187.709303 Z M 604.624508 -187.709303 " transform="matrix(0.172286,0,0,0.208242,80.284902,130.463897)"/>
<path style="fill-rule:evenodd;fill:rgb(99.607843%,77.254903%,0%);fill-opacity:1;stroke-width:1.25;stroke-linecap:butt;stroke-linejoin:miter;stroke:rgb(42.745098%,40.000001%,40.000001%);stroke-opacity:1;stroke-miterlimit:4;" d="M 509.284205 -191.761086 C 509.284205 -185.983543 504.862955 -181.312738 499.398742 -181.312738 C 493.93453 -181.312738 489.513279 -185.983543 489.513279 -191.761086 C 489.513279 -197.557386 493.93453 -202.228191 499.398742 -202.228191 C 504.862955 -202.228191 509.284205 -197.557386 509.284205 -191.761086 Z M 509.284205 -191.761086 " transform="matrix(0.172286,0,0,0.208242,80.284902,130.463897)"/>
<path style="fill-rule:evenodd;fill:rgb(99.607843%,77.254903%,0%);fill-opacity:1;stroke-width:1.25;stroke-linecap:butt;stroke-linejoin:miter;stroke:rgb(42.745098%,40.000001%,40.000001%);stroke-opacity:1;stroke-miterlimit:4;" d="M 579.049274 -193.505603 C 579.049274 -186.133609 572.270023 -180.130968 563.926329 -180.130968 C 555.582635 -180.130968 548.803384 -186.133609 548.803384 -193.505603 C 548.803384 -200.896355 555.582635 -206.880238 563.926329 -206.880238 C 572.270023 -206.880238 579.049274 -200.896355 579.049274 -193.505603 Z M 579.049274 -193.505603 " transform="matrix(0.172286,0,0,0.208242,80.284902,130.463897)"/>
<path style="fill-rule:evenodd;fill:rgb(99.607843%,77.254903%,0%);fill-opacity:1;stroke-width:1.25;stroke-linecap:butt;stroke-linejoin:miter;stroke:rgb(42.745098%,40.000001%,40.000001%);stroke-opacity:1;stroke-miterlimit:4;" d="M 531.367786 -194.087109 C 531.367786 -187.671786 525.382092 -182.456992 517.990668 -182.456992 C 510.621917 -182.456992 504.636224 -187.671786 504.636224 -194.087109 C 504.636224 -200.502432 510.621917 -205.717227 517.990668 -205.717227 C 525.382092 -205.717227 531.367786 -200.502432 531.367786 -194.087109 Z M 531.367786 -194.087109 " transform="matrix(0.172286,0,0,0.208242,80.284902,130.463897)"/>
<path style="fill-rule:evenodd;fill:rgb(99.607843%,77.254903%,0%);fill-opacity:1;stroke-width:1.25;stroke-linecap:butt;stroke-linejoin:miter;stroke:rgb(42.745098%,40.000001%,40.000001%);stroke-opacity:1;stroke-miterlimit:4;" d="M 554.630366 -190.616832 C 554.630366 -183.54497 548.372596 -177.823703 540.686422 -177.823703 C 532.977574 -177.823703 526.719804 -183.54497 526.719804 -190.616832 C 526.719804 -197.669936 532.977574 -203.391203 540.686422 -203.391203 C 548.372596 -203.391203 554.630366 -197.669936 554.630366 -190.616832 Z M 554.630366 -190.616832 " transform="matrix(0.172286,0,0,0.208242,80.284902,130.463897)"/>
<path style="fill-rule:evenodd;fill:rgb(99.607843%,77.254903%,0%);fill-opacity:1;stroke-width:1.25;stroke-linecap:butt;stroke-linejoin:miter;stroke:rgb(42.745098%,40.000001%,40.000001%);stroke-opacity:1;stroke-miterlimit:4;" d="M 494.161261 -267.356849 C 497.652915 -267.356849 522.071823 -259.215767 522.071823 -259.215767 C 522.071823 -259.215767 491.825933 -247.58565 496.473915 -248.748661 C 501.144569 -249.911673 530.211458 -253.400708 527.876131 -253.400708 C 525.563477 -253.400708 502.300896 -231.303485 509.284205 -232.466497 C 516.244841 -233.629509 530.211458 -247.58565 531.367786 -247.58565 C 532.524113 -247.58565 546.49073 -225.488426 547.647057 -226.651438 C 548.803384 -227.81445 547.647057 -248.748661 548.803384 -248.748661 C 549.959712 -248.748661 577.870273 -234.79252 575.557619 -235.955532 C 573.222292 -237.118544 556.94302 -253.400708 558.099347 -253.400708 C 559.278348 -253.400708 596.484873 -249.911673 594.149545 -251.074685 C 591.836891 -252.237697 569.730638 -262.704802 569.730638 -262.704802 C 569.730638 -262.704802 586.009909 -277.805197 582.518255 -277.805197 C 579.049274 -277.805197 552.295039 -262.704802 554.630366 -263.867814 C 556.94302 -265.030826 583.697255 -295.250373 583.697255 -295.250373 L 556.94302 -282.457244 C 556.94302 -282.457244 561.591002 -301.065432 559.278348 -299.90242 C 556.94302 -298.739408 538.351094 -275.497932 537.172094 -275.497932 C 536.015767 -275.497932 531.367786 -298.739408 531.367786 -298.739408 C 531.367786 -298.739408 532.524113 -273.171908 525.563477 -272.008896 C 518.580168 -270.845885 494.161261 -266.193838 494.161261 -267.356849 Z M 494.161261 -267.356849 " transform="matrix(0.172286,0,0,0.208242,80.284902,130.463897)"/>
<path style=" stroke:none;fill-rule:evenodd;fill:rgb(0%,21.960784%,60.784316%);fill-opacity:1;" d="M 152.371094 113.9375 C 152.472656 114.421875 155.675781 123.140625 160.585938 122.898438 C 165.492188 122.65625 167.496094 121.203125 167.296875 121.082031 C 167.09375 120.960938 164.992188 119.507812 163.789062 116.359375 C 162.585938 113.210938 162.386719 111.878906 162.386719 111.878906 Z M 152.371094 113.9375 "/>
<path style=" stroke:none;fill-rule:evenodd;fill:rgb(0%,21.960784%,60.784316%);fill-opacity:1;" d="M 169.898438 110.546875 C 169.898438 110.546875 173.503906 119.144531 175.109375 120.355469 C 176.710938 121.566406 180.417969 122.535156 182.019531 122.414062 C 183.621094 122.292969 185.523438 122.414062 185.523438 122.414062 C 185.523438 122.414062 183.921875 121.566406 182.621094 116.84375 C 181.316406 112.121094 180.917969 110.546875 180.917969 110.546875 Z M 169.898438 110.546875 "/>
<path style=" stroke:none;fill-rule:evenodd;fill:rgb(0%,21.960784%,60.784316%);fill-opacity:1;" d="M 191.933594 113.695312 C 191.933594 113.695312 191.234375 119.992188 191.933594 121.566406 C 192.636719 123.140625 196.140625 126.046875 196.140625 126.046875 C 196.140625 126.046875 200.347656 125.441406 200.449219 121.566406 C 200.550781 117.691406 199.046875 114.058594 199.046875 114.058594 Z M 191.933594 113.695312 "/>
<path style="fill-rule:evenodd;fill:rgb(0%,31.764707%,12.54902%);fill-opacity:1;stroke-width:1.25;stroke-linecap:butt;stroke-linejoin:miter;stroke:rgb(0%,0%,0%);stroke-opacity:1;stroke-miterlimit:4;" d="M 288.936709 21.015498 C 288.936709 21.015498 290.093037 25.667545 288.936709 29.15658 C 287.780382 32.645615 277.894919 41.949709 277.894919 49.509286 C 277.894919 57.068862 289.52621 80.310339 324.986907 80.891845 C 360.447605 81.47335 405.204266 61.702151 404.637439 61.120645 C 404.047939 60.539139 319.749426 4.151827 318.593099 4.733333 C 317.436771 5.314839 288.936709 22.178509 288.936709 21.015498 Z M 288.936709 21.015498 " transform="matrix(0.172286,0,0,0.208242,99.185149,98.303385)"/>
<path style="fill-rule:evenodd;fill:rgb(0%,31.764707%,12.54902%);fill-opacity:1;stroke-width:1.25;stroke-linecap:butt;stroke-linejoin:miter;stroke:rgb(0%,0%,0%);stroke-opacity:1;stroke-miterlimit:4;" d="M 523.240322 61.120645 C 523.240322 61.120645 530.790458 81.47335 533.692612 83.799374 C 536.594767 86.125397 537.773767 90.777444 538.340594 90.777444 C 538.930094 90.777444 587.178409 101.24455 587.178409 101.24455 C 587.178409 101.24455 591.826391 87.869915 584.865755 77.402809 C 577.882446 66.935704 551.717711 39.623686 551.717711 39.623686 L 523.217649 61.120645 Z M 523.240322 61.120645 " transform="matrix(0.172286,0,0,0.208242,99.185149,98.303385)"/>
<path style="fill-rule:evenodd;fill:rgb(0%,31.764707%,12.54902%);fill-opacity:1;stroke-width:1.25;stroke-linecap:butt;stroke-linejoin:miter;stroke:rgb(0%,0%,0%);stroke-opacity:1;stroke-miterlimit:4;" d="M 556.365693 36.13465 C 557.52202 36.13465 569.15331 46.02025 578.471946 40.786697 C 587.767909 35.553145 602.868181 21.597004 602.868181 21.597004 C 602.868181 21.597004 590.080563 25.667545 580.7846 25.086039 C 571.488637 24.504533 556.955193 36.716156 556.365693 36.13465 Z M 556.365693 36.13465 " transform="matrix(0.172286,0,0,0.208242,99.185149,98.303385)"/>
<path style="fill-rule:evenodd;fill:rgb(0%,31.764707%,12.54902%);fill-opacity:1;stroke-width:1.25;stroke-linecap:butt;stroke-linejoin:miter;stroke:rgb(0%,0%,0%);stroke-opacity:1;stroke-miterlimit:4;" d="M 287.190882 23.341521 C 287.190882 23.341521 283.721901 13.455921 274.403265 12.874415 C 265.107302 12.29291 248.23853 14.037427 242.434221 9.38538 C 236.629913 4.733333 234.884086 -6.315278 231.959258 -5.733773 C 229.057104 -5.152267 221.506968 -5.733773 220.917468 -5.733773 C 220.350641 -5.733773 217.425814 -15.037867 225.56545 -19.689914 C 233.705086 -24.341961 240.688394 -20.271419 245.336376 -23.760455 C 249.984357 -27.230732 256.967666 -29.556755 266.263629 -30.138261 C 275.582265 -30.719767 290.682537 -18.526902 297.665845 -15.619372 C 304.649154 -12.711843 319.749426 -9.222808 325.576407 -12.130337 C 331.380716 -15.037867 363.939259 -27.830996 375.57055 -28.393743 C 387.20184 -28.975249 411.620748 -29.556755 420.91671 -28.975249 C 430.212673 -28.393743 466.852371 -23.760455 477.894162 -18.526902 C 488.935952 -13.293349 547.65923 7.059357 555.798866 11.711404 C 563.938502 16.363451 581.963601 23.341521 581.963601 23.341521 C 581.963601 23.341521 549.971884 54.72408 534.282113 59.957633 C 518.592341 65.191186 468.598199 73.332268 438.941809 71.587751 C 409.28542 69.843233 386.02284 66.935704 363.349759 55.305586 C 340.676679 43.694227 316.257771 32.645615 315.101444 26.830556 C 313.945117 21.015498 314.511944 13.455921 314.511944 13.455921 Z M 287.190882 23.341521 " transform="matrix(0.172286,0,0,0.208242,99.185149,98.303385)"/>
<path style="fill-rule:evenodd;fill:rgb(0%,31.764707%,12.54902%);fill-opacity:1;stroke-width:1.25;stroke-linecap:butt;stroke-linejoin:miter;stroke:rgb(0%,0%,0%);stroke-opacity:1;stroke-miterlimit:4;" d="M 251.140684 -14.456361 C 249.984357 -13.874855 244.180049 -11.548831 245.336376 -10.38582 C 246.492703 -9.222808 248.82803 -5.733773 255.811339 -6.315278 C 262.771975 -6.896784 270.344783 -10.967325 270.344783 -10.967325 C 270.344783 -10.967325 261.615648 -15.037867 251.140684 -14.456361 Z M 251.140684 -14.456361 " transform="matrix(0.172286,0,0,0.208242,99.185149,98.303385)"/>
<path style="fill-rule:evenodd;fill:rgb(0%,0%,0%);fill-opacity:1;stroke-width:1.25;stroke-linecap:butt;stroke-linejoin:miter;stroke:rgb(0%,0%,0%);stroke-opacity:1;stroke-miterlimit:4;" d="M 250.573857 -13.293349 L 250.573857 -6.896784 C 250.573857 -6.896784 258.713493 -4.570761 258.713493 -6.315278 C 258.713493 -8.059796 259.28032 -12.130337 257.557166 -12.130337 C 255.811339 -12.130337 251.140684 -12.711843 250.573857 -13.293349 Z M 250.573857 -13.293349 " transform="matrix(0.172286,0,0,0.208242,99.185149,98.303385)"/>
<path style="fill-rule:evenodd;fill:rgb(0%,9.019608%,2.745098%);fill-opacity:1;stroke-width:1.25;stroke-linecap:butt;stroke-linejoin:miter;stroke:rgb(0%,0%,2.745098%);stroke-opacity:1;stroke-miterlimit:4;" d="M 331.947543 -8.453719 C 334.010793 -12.149095 331.947543 -17.082516 343.873583 -22.8413 C 355.799624 -28.600084 376.545492 -26.949358 376.545492 -26.949358 C 376.545492 -26.949358 370.582472 -22.428619 370.378414 -17.701539 C 370.174357 -12.974459 370.809203 -10.911051 370.809203 -10.911051 C 370.809203 -10.911051 359.495336 -14.625185 350.856892 -12.355436 C 342.218448 -10.104446 332.151601 -7.834697 331.947543 -8.453719 Z M 331.947543 -8.453719 " transform="matrix(0.172286,0,0,0.208242,99.185149,98.303385)"/>
<path style="fill-rule:evenodd;fill:rgb(0%,9.019608%,2.745098%);fill-opacity:1;stroke-width:1.25;stroke-linecap:butt;stroke-linejoin:miter;stroke:rgb(0%,0%,2.745098%);stroke-opacity:1;stroke-miterlimit:4;" d="M 385.410667 -28.600084 C 384.163647 -27.981062 375.117088 -17.907879 376.16005 -14.831526 C 377.180338 -11.736414 389.310436 -4.345662 393.210206 -4.964684 C 397.109976 -5.583707 414.999036 -14.212503 416.019325 -18.526902 C 417.062287 -22.8413 417.878518 -28.600084 416.427441 -29.838129 C 414.999036 -31.057416 385.614724 -28.187403 385.410667 -28.600084 Z M 385.410667 -28.600084 " transform="matrix(0.172286,0,0,0.208242,99.185149,98.303385)"/>
<path style="fill-rule:evenodd;fill:rgb(0%,9.019608%,2.745098%);fill-opacity:1;stroke-width:1.25;stroke-linecap:butt;stroke-linejoin:miter;stroke:rgb(0%,0%,2.745098%);stroke-opacity:1;stroke-miterlimit:4;" d="M 424.657769 -30.232052 C 422.390461 -27.981062 423.229365 -17.082516 424.045596 -15.844472 C 424.861826 -14.625185 439.055175 -0.443945 442.138714 0.381418 C 445.222253 1.206781 468.031372 -1.044209 469.890564 -3.520299 C 471.727084 -5.97763 477.281988 -16.463494 475.626853 -18.939583 C 473.994392 -21.396915 469.05166 -24.698367 453.838023 -27.981062 C 438.647059 -31.263756 429.6005 -30.851075 424.657769 -30.232052 Z M 424.657769 -30.232052 " transform="matrix(0.172286,0,0,0.208242,99.185149,98.303385)"/>
<path style="fill-rule:evenodd;fill:rgb(0%,9.019608%,2.745098%);fill-opacity:1;stroke-width:1.25;stroke-linecap:butt;stroke-linejoin:miter;stroke:rgb(0%,0%,2.745098%);stroke-opacity:1;stroke-miterlimit:4;" d="M 482.81422 -16.463494 C 486.509932 -14.625185 508.094705 -4.139321 520.836976 4.283135 C 533.579247 12.724349 538.726036 22.38485 542.421748 23.210213 C 546.11746 24.016818 561.12704 14.97534 561.739213 12.518009 C 562.374059 10.041919 543.46471 -3.107617 530.722439 -9.072742 C 517.957495 -15.037867 482.81422 -15.844472 482.81422 -16.463494 Z M 482.81422 -16.463494 " transform="matrix(0.172286,0,0,0.208242,99.185149,98.303385)"/>
<path style="fill-rule:evenodd;fill:rgb(0%,9.019608%,2.745098%);fill-opacity:1;stroke-width:1.25;stroke-linecap:butt;stroke-linejoin:miter;stroke:rgb(0%,0%,2.745098%);stroke-opacity:1;stroke-miterlimit:4;" d="M 478.302277 -7.628356 C 476.443084 -5.97763 501.315454 37.391453 506.054127 38.817081 C 510.770128 40.261466 539.134152 30.394625 538.726036 27.11193 C 538.317921 23.810478 530.926497 17.245089 513.445552 7.584588 C 495.98728 -2.075913 481.793931 -8.453719 478.302277 -7.628356 Z M 478.302277 -7.628356 " transform="matrix(0.172286,0,0,0.208242,99.185149,98.303385)"/>
<path style="fill-rule:evenodd;fill:rgb(0%,9.019608%,2.745098%);fill-opacity:1;stroke-width:1.25;stroke-linecap:butt;stroke-linejoin:miter;stroke:rgb(0%,0%,2.745098%);stroke-opacity:1;stroke-miterlimit:4;" d="M 447.466888 8.20361 C 443.567118 10.454601 437.40004 49.302945 441.29981 51.160012 C 445.19958 52.998321 493.311856 46.432932 495.148376 42.118533 C 497.007568 37.804135 475.422796 3.47653 469.05166 3.47653 C 462.680525 3.47653 451.1626 5.108498 447.466888 8.20361 Z M 447.466888 8.20361 " transform="matrix(0.172286,0,0,0.208242,99.185149,98.303385)"/>
<path style="fill-rule:evenodd;fill:rgb(0%,9.019608%,2.745098%);fill-opacity:1;stroke-width:1.25;stroke-linecap:butt;stroke-linejoin:miter;stroke:rgb(0%,0%,2.745098%);stroke-opacity:1;stroke-miterlimit:4;" d="M 397.722149 -0.0312634 C 392.598033 4.695817 393.618322 40.880489 395.88563 43.131479 C 398.130265 45.401228 426.721019 52.79198 429.804558 50.128308 C 432.888097 47.445878 436.991924 6.759225 434.112443 3.682871 C 431.232962 0.587759 423.206692 -6.802993 417.062287 -7.422015 C 410.895209 -8.041038 400.60163 -1.456891 397.722149 -0.0312634 Z M 397.722149 -0.0312634 " transform="matrix(0.172286,0,0,0.208242,99.185149,98.303385)"/>
<path style="fill-rule:evenodd;fill:rgb(0%,9.019608%,2.745098%);fill-opacity:1;stroke-width:1.25;stroke-linecap:butt;stroke-linejoin:miter;stroke:rgb(0%,0%,2.745098%);stroke-opacity:1;stroke-miterlimit:4;" d="M 333.194562 -0.650286 C 328.455889 3.063849 328.251831 12.724349 333.39862 14.356317 C 338.522736 16.007044 351.287681 21.559487 363.191048 26.699249 C 375.117088 31.83901 381.896339 37.991718 385.387993 37.804135 C 388.902321 37.597794 392.189918 1.413122 388.471532 -0.650286 C 384.77582 -2.694935 373.892742 -4.345662 363.599163 -3.93298 C 353.328258 -3.520299 338.318679 -2.488595 333.194562 -0.650286 Z M 333.194562 -0.650286 " transform="matrix(0.172286,0,0,0.208242,99.185149,98.303385)"/>
<path style=" stroke:none;fill-rule:evenodd;fill:rgb(83.137256%,5.882353%,5.882353%);fill-opacity:0.996078;" d="M 120.085938 194 C 121.539062 192.585938 123.796875 189.128906 126.863281 188.96875 C 129.933594 188.8125 133.160156 191.640625 133.160156 191.640625 C 133.160156 191.640625 136.390625 204.84375 136.226562 204.84375 C 136.066406 204.84375 130.902344 208.617188 130.738281 208.617188 C 130.578125 208.617188 128.480469 203.429688 126.542969 203.902344 C 124.605469 204.375 124.765625 211.445312 124.445312 210.976562 C 124.121094 210.503906 115.886719 200.757812 116.210938 200.445312 C 116.535156 200.128906 120.246094 194.472656 120.085938 194 Z M 120.085938 194 "/>
<path style=" stroke:none;fill-rule:evenodd;fill:rgb(83.137256%,5.882353%,5.882353%);fill-opacity:0.996078;" d="M 205.324219 192.269531 C 206.292969 192.113281 210.648438 188.8125 213.71875 188.96875 C 216.785156 189.125 218.558594 190.542969 220.175781 191.957031 C 221.789062 193.371094 223.726562 196.984375 223.726562 196.984375 C 223.726562 196.984375 219.851562 207.671875 219.527344 207.671875 C 219.207031 207.671875 217.589844 208.617188 217.269531 207.832031 C 216.945312 207.042969 215.976562 204.53125 214.039062 204.214844 C 212.101562 203.902344 211.617188 207.671875 211.617188 207.671875 Z M 205.324219 192.269531 "/>
<path style=" stroke:none;fill-rule:evenodd;fill:rgb(99.215686%,86.274511%,34.901962%);fill-opacity:0.996078;" d="M 207.421875 195.574219 C 207.421875 196.519531 213.394531 211.292969 223.078125 214.121094 C 232.765625 216.949219 235.832031 211.449219 236.960938 209.5625 C 238.089844 207.675781 242.128906 207.835938 242.128906 207.835938 C 242.128906 207.835938 241.160156 221.667969 239.542969 223.394531 C 237.929688 225.125 236.636719 228.894531 227.597656 229.054688 C 218.558594 229.210938 210.328125 220.566406 207.582031 218.050781 C 204.835938 215.535156 201.285156 208.933594 199.832031 205.949219 C 198.382812 202.960938 207.582031 195.890625 207.421875 195.574219 Z M 207.421875 195.574219 "/>
<path style=" stroke:none;fill-rule:evenodd;fill:rgb(99.215686%,86.274511%,34.901962%);fill-opacity:0.996078;" d="M 102.167969 224.960938 C 102.328125 224.960938 106.527344 229.519531 112.660156 229.046875 C 118.792969 228.578125 129.285156 224.960938 134.128906 218.675781 C 138.972656 212.386719 141.394531 205.628906 141.394531 205.628906 C 141.394531 205.628906 134.292969 193.054688 134.128906 193.054688 C 133.96875 193.054688 133.324219 197.140625 132.03125 199.8125 C 130.738281 202.484375 127.1875 210.03125 121.214844 212.386719 C 115.242188 214.746094 115.242188 215.6875 112.820312 215.375 C 110.398438 215.058594 104.105469 211.289062 104.105469 211.128906 C 104.105469 210.972656 101.039062 218.519531 101.039062 218.519531 C 101.039062 218.519531 100.390625 223.390625 102.167969 224.960938 Z M 102.167969 224.960938 "/>
<path style=" stroke:none;fill-rule:evenodd;fill:rgb(99.215686%,86.274511%,34.901962%);fill-opacity:0.996078;" d="M 119.976562 193.5625 C 119.519531 193.5625 108.105469 199.789062 108.5625 202.453125 C 109.019531 205.121094 128.195312 242.910156 169.285156 243.355469 C 210.375 243.796875 235.492188 209.121094 233.664062 203.34375 C 231.835938 197.5625 219.054688 190.894531 219.054688 190.894531 C 219.054688 190.894531 222.25 193.5625 221.792969 197.121094 C 221.335938 200.675781 207.179688 231.351562 171.570312 230.460938 C 135.957031 229.574219 119.0625 202.457031 119.0625 199.34375 C 119.0625 196.230469 120.886719 194.453125 119.976562 193.5625 Z M 119.976562 193.5625 "/>
<path style=" stroke:none;fill-rule:evenodd;fill:rgb(83.137256%,5.882353%,5.882353%);fill-opacity:0.996078;" d="M 231.308594 221.039062 C 232.277344 220.25 238.25 203.90625 241.640625 204.375 C 245.03125 204.847656 243.902344 209.71875 243.578125 210.976562 C 243.253906 212.234375 239.863281 223.550781 239.863281 223.550781 C 239.863281 223.550781 240.027344 220.878906 237.765625 220.25 C 235.507812 219.621094 231.792969 221.351562 231.308594 221.039062 Z M 231.308594 221.039062 "/>
<path style=" stroke:none;fill-rule:evenodd;fill:rgb(83.137256%,5.882353%,5.882353%);fill-opacity:0.996078;" d="M 102.167969 225.128906 C 102.167969 224.238281 99.429688 221.128906 102.625 220.238281 C 105.820312 219.351562 109.929688 221.128906 109.929688 221.128906 C 109.929688 221.128906 107.648438 214.460938 104.90625 209.125 C 102.167969 203.789062 101.253906 204.679688 98.972656 205.566406 C 96.6875 206.457031 96.746094 208.808594 98.113281 212.367188 C 99.484375 215.921875 102.167969 226.019531 102.167969 225.128906 Z M 102.167969 225.128906 "/>
<path style=" stroke:none;fill-rule:evenodd;fill:rgb(99.215686%,76.862746%,0%);fill-opacity:1;" d="M 139.839844 194.644531 L 143.800781 181.21875 L 132.792969 172.777344 L 146.582031 172.460938 L 151.078125 159.210938 L 155.636719 172.4375 L 169.421875 172.691406 L 158.453125 181.183594 L 162.476562 194.589844 L 151.140625 186.609375 Z M 139.839844 194.644531 "/>
<path style=" stroke:none;fill-rule:evenodd;fill:rgb(100%,100%,100%);fill-opacity:1;" d="M 214.171875 124.769531 L 214.171875 176.417969 C 214.273438 201.664062 188.535156 223.769531 171.441406 228.070312 C 154.347656 223.769531 128.605469 201.664062 128.707031 176.421875 L 128.707031 124.769531 Z M 214.171875 124.769531 "/>
<path style="fill-rule:evenodd;fill:rgb(83.137256%,5.882353%,5.882353%);fill-opacity:0.996078;stroke-width:1.25;stroke-linecap:butt;stroke-linejoin:miter;stroke:rgb(0%,0%,0%);stroke-opacity:1;stroke-miterlimit:4;" d="M 177.157758 325.988496 L 177.588546 486.715235 C 177.588546 486.715235 179.96922 483.412497 212.595782 485.432995 C 245.222345 487.434066 248.033807 520.849996 283.449159 520.849996 C 318.887183 520.849996 318.887183 485.432995 354.325208 485.432995 C 389.763233 485.432995 389.763233 520.849996 425.201257 520.849996 C 460.616609 520.849996 460.616609 485.432995 496.054634 485.432995 C 531.492658 485.432995 531.492658 520.849996 568.925914 522.889922 C 602.346035 520.849996 602.346035 485.432995 637.988117 483.412497 L 673.222084 485.432995 L 673.222084 325.969068 L 177.157758 325.969068 Z M 177.157758 325.988496 " transform="matrix(0.172286,0,0,0.201064,98.185264,59.224889)"/>
<path style=" stroke:none;fill-rule:evenodd;fill:rgb(0%,38.431373%,73.333335%);fill-opacity:0.996078;" d="M 128.707031 167.515625 L 128.707031 178.199219 L 134.8125 178.199219 C 140.433594 178.605469 140.917969 185.324219 147.019531 185.324219 C 153.125 185.324219 153.125 178.199219 159.230469 178.199219 C 165.335938 178.199219 165.335938 185.324219 171.441406 185.324219 C 177.542969 185.324219 177.542969 178.199219 183.648438 178.199219 C 189.753906 178.199219 189.410156 184.917969 195.859375 185.324219 C 201.617188 184.917969 201.929688 178.605469 208.066406 178.199219 L 214.171875 178.199219 L 214.171875 167.515625 L 208.066406 167.515625 C 201.960938 167.515625 201.960938 174.640625 195.859375 174.640625 C 189.753906 174.640625 189.753906 167.515625 183.648438 167.515625 C 177.542969 167.515625 177.542969 174.640625 171.441406 174.640625 C 165.335938 174.640625 165.335938 167.515625 159.230469 167.515625 C 153.125 167.515625 153.125 174.640625 147.019531 174.640625 C 140.917969 174.640625 140.917969 167.515625 134.8125 167.515625 Z M 128.707031 167.515625 "/>
<path style=" stroke:none;fill-rule:evenodd;fill:rgb(0%,38.431373%,73.333335%);fill-opacity:0.996078;" d="M 130.550781 188.886719 L 134.8125 199.574219 C 140.433594 199.976562 140.917969 206.695312 147.023438 206.695312 C 153.125 206.695312 153.125 199.574219 159.230469 199.574219 C 165.335938 199.574219 165.335938 206.695312 171.441406 206.695312 C 177.542969 206.695312 177.542969 199.574219 183.648438 199.574219 C 189.753906 199.574219 189.410156 206.289062 195.859375 206.695312 C 201.617188 206.289062 201.785156 199.976562 207.925781 199.574219 L 212.332031 188.71875 L 208.066406 188.886719 C 201.964844 188.886719 201.964844 196.011719 195.859375 196.011719 C 189.753906 196.011719 189.753906 188.886719 183.648438 188.886719 C 177.542969 188.886719 177.542969 196.011719 171.441406 196.011719 C 165.335938 196.011719 165.335938 188.886719 159.230469 188.886719 C 153.125 188.886719 153.125 196.011719 147.023438 196.011719 C 140.917969 196.011719 140.917969 188.886719 134.8125 188.886719 Z M 130.550781 188.886719 "/>
<path style=" stroke:none;fill-rule:evenodd;fill:rgb(0%,38.431373%,73.333335%);fill-opacity:0.996078;" d="M 171.441406 228.070312 C 177.546875 228.070312 191.53125 217.382812 191.390625 217.382812 C 191.53125 217.382812 189.753906 210.257812 183.648438 210.257812 C 177.546875 210.257812 177.546875 217.382812 171.441406 217.382812 C 165.335938 217.382812 165.335938 210.257812 159.230469 210.257812 C 153.125 210.257812 151.570312 217.382812 151.554688 217.382812 C 151.273438 217.382812 165.335938 228.070312 171.441406 228.070312 Z M 171.441406 228.070312 "/>
<path style="fill-rule:evenodd;fill:rgb(99.215686%,76.862746%,0%);fill-opacity:0.996078;stroke-width:0.625;stroke-linecap:butt;stroke-linejoin:miter;stroke:rgb(0%,0%,0%);stroke-opacity:1;stroke-miterlimit:4;" d="M 90.847307 117.571886 C 91.67306 117.571886 99.072363 118.803648 104.411922 118.393061 C 109.75612 117.982474 111.815864 115.924206 111.815864 115.513619 L 111.815864 114.281857 L 118.80229 114.281857 C 118.80229 114.281857 120.03628 120.035409 119.215166 120.445996 C 118.389413 120.856583 116.334309 122.504264 115.926072 122.504264 C 115.513195 122.504264 115.926072 119.624822 115.100319 120.445996 C 114.279205 121.267171 113.870968 122.504264 113.870968 122.504264 C 113.870968 122.504264 113.045215 121.267171 112.636977 121.267171 C 112.224101 121.267171 111.402987 122.504264 111.402987 122.504264 C 111.402987 122.504264 111.402987 121.267171 110.990111 121.267171 C 110.581873 121.267171 108.526769 123.325438 108.526769 123.325438 L 106.471665 121.677758 C 106.471665 121.677758 105.237675 123.736026 104.824799 123.736026 C 104.411922 123.736026 101.948581 122.093677 101.948581 122.093677 L 97.838373 124.5572 C 97.838373 124.5572 97.838373 120.856583 97.01262 121.267171 C 96.191506 121.677758 91.668421 121.677758 91.668421 121.677758 C 91.668421 121.677758 90.43907 124.146613 90.026194 124.146613 C 89.613317 124.146613 87.97109 122.093677 88.383966 122.093677 C 88.792203 122.093677 89.613317 120.856583 89.20508 120.445996 C 88.792203 120.035409 86.737099 120.445996 86.737099 120.035409 C 86.737099 119.624822 85.915985 117.155967 86.328862 117.155967 C 86.737099 117.155967 88.383966 117.571886 88.383966 117.571886 L 88.383966 115.103031 L 90.43907 115.103031 Z M 90.847307 117.571886 " transform="matrix(0.842035,0,0,0.732564,63.382329,63.300783)"/>
<path style="fill-rule:evenodd;fill:rgb(99.215686%,76.862746%,0%);fill-opacity:0.996078;stroke-width:0.625;stroke-linecap:butt;stroke-linejoin:miter;stroke:rgb(0%,0%,0%);stroke-opacity:1;stroke-miterlimit:4;" d="M 98.24661 94.136427 C 97.838373 94.136427 94.957516 97.426456 95.370392 101.12174 C 95.783268 104.822357 102.769694 110.165321 102.769694 110.165321 C 102.769694 110.165321 106.471665 108.522973 107.701016 110.165321 C 108.935007 111.813002 108.935007 116.74538 108.526769 116.74538 C 108.113893 116.74538 103.182571 117.977141 103.182571 117.155967 C 103.182571 116.334793 103.182571 115.513619 102.769694 115.513619 C 102.356818 115.513619 97.838373 115.924206 97.838373 115.924206 L 98.24661 114.276525 L 94.136402 113.455351 L 95.783268 111.813002 C 95.783268 111.813002 89.20508 108.93356 89.613317 108.93356 C 90.026194 108.93356 92.494174 107.291212 92.494174 107.291212 L 87.558213 104.001182 L 90.43907 104.001182 C 90.43907 104.001182 86.328862 100.711153 86.737099 100.711153 C 87.149976 100.711153 89.20508 101.12174 89.20508 101.12174 L 87.97109 97.837043 L 89.20508 97.837043 L 87.97109 95.368188 L 90.026194 94.547014 L 91.260184 96.59995 L 90.847307 91.667572 L 93.728164 92.078159 L 93.728164 96.189362 C 93.728164 96.189362 94.957516 93.72584 94.957516 93.315253 C 94.957516 92.904665 98.659486 94.957601 98.24661 94.136427 Z M 98.24661 94.136427 " transform="matrix(0.842035,0,0,0.732564,63.382329,63.300783)"/>
<path style=" stroke:none;fill-rule:evenodd;fill:rgb(0%,0%,0%);fill-opacity:0.996078;" d="M 199.765625 150.929688 C 199.332031 151.304688 198.035156 152.132812 198.035156 152.132812 C 198.035156 152.132812 200.976562 151.910156 200.890625 151.910156 C 200.804688 151.910156 199.851562 151.15625 199.765625 150.929688 Z M 199.765625 150.929688 "/>
<path style=" stroke:none;fill-rule:evenodd;fill:rgb(0%,0%,0%);fill-opacity:0.996078;" d="M 202.277344 152.359375 C 202.101562 152.585938 201.582031 154.917969 201.929688 154.765625 C 202.277344 154.617188 203.660156 152.886719 203.660156 152.886719 Z M 202.277344 152.359375 "/>
<path style=" stroke:none;fill-rule:evenodd;fill:rgb(0%,0%,0%);fill-opacity:0.996078;" d="M 206.25 152.660156 C 206.683594 153.035156 208.671875 154.765625 208.414062 154.390625 C 208.152344 154.015625 207.894531 152.433594 207.722656 152.359375 C 207.546875 152.28125 206.421875 152.808594 206.25 152.660156 Z M 206.25 152.660156 "/>
<path style=" stroke:none;fill-rule:evenodd;fill:rgb(0%,0%,0%);fill-opacity:0.996078;" d="M 171.382812 150.175781 C 171.121094 150.25 168.960938 151.683594 168.960938 151.683594 C 168.960938 151.683594 172.59375 151.078125 172.417969 151.078125 C 172.246094 151.078125 171.296875 150.402344 171.382812 150.175781 Z M 171.382812 150.175781 "/>
<path style=" stroke:none;fill-rule:evenodd;fill:rgb(0%,0%,0%);fill-opacity:0.996078;" d="M 173.628906 151.984375 C 173.285156 152.285156 172.160156 154.394531 172.589844 154.320312 C 173.023438 154.242188 174.929688 152.886719 174.929688 152.886719 Z M 173.628906 151.984375 "/>
<path style=" stroke:none;fill-rule:evenodd;fill:rgb(0%,0%,0%);fill-opacity:0.996078;" d="M 172.242188 149.046875 C 171.980469 148.972656 170.164062 148.21875 170.25 148.21875 C 170.335938 148.21875 172.671875 147.691406 172.671875 147.691406 Z M 172.242188 149.046875 "/>
<path style=" stroke:none;fill-rule:evenodd;fill:rgb(0%,0%,0%);fill-opacity:0.996078;" d="M 137.976562 148.074219 L 135.378906 146.265625 L 138.667969 147.167969 Z M 137.976562 148.074219 "/>
<path style=" stroke:none;fill-rule:evenodd;fill:rgb(0%,0%,0%);fill-opacity:0.996078;" d="M 135.726562 149.273438 C 135.378906 149.273438 132.09375 151.082031 132.179688 151.082031 C 132.265625 151.082031 136.765625 151.15625 136.679688 151.082031 C 136.59375 151.007812 135.898438 149.425781 135.726562 149.273438 Z M 135.726562 149.273438 "/>
<path style=" stroke:none;fill-rule:evenodd;fill:rgb(0%,0%,0%);fill-opacity:0.996078;" d="M 137.804688 151.910156 C 137.457031 152.0625 134.859375 153.792969 135.035156 153.792969 C 135.207031 153.792969 138.929688 153.867188 138.929688 153.792969 C 138.929688 153.71875 137.890625 151.988281 137.804688 151.910156 Z M 137.804688 151.910156 "/>
<path style=" stroke:none;fill-rule:evenodd;fill:rgb(0%,0%,0%);fill-opacity:0.996078;" d="M 137.457031 133.164062 C 137.457031 133.164062 136.503906 131.054688 136.589844 131.054688 C 136.679688 131.054688 139.015625 132.710938 139.015625 132.710938 Z M 137.457031 133.164062 "/>
<path style=" stroke:none;fill-rule:evenodd;fill:rgb(0%,0%,0%);fill-opacity:0.996078;" d="M 140.054688 130.527344 C 140.054688 130.453125 140.3125 129.171875 140.3125 129.171875 C 140.3125 129.171875 142.648438 130.753906 142.5625 130.753906 C 142.476562 130.753906 140.226562 130.753906 140.054688 130.527344 Z M 140.054688 130.527344 "/>
<path style=" stroke:none;fill-rule:evenodd;fill:rgb(0%,0%,0%);fill-opacity:0.996078;" d="M 143.6875 131.507812 C 143.6875 131.429688 143.949219 129.546875 143.949219 129.546875 C 143.949219 129.546875 146.109375 132.109375 145.9375 132.183594 C 145.765625 132.257812 143.859375 131.808594 143.6875 131.507812 Z M 143.6875 131.507812 "/>
<path style="fill-rule:evenodd;fill:rgb(99.215686%,76.862746%,0%);fill-opacity:0.996078;stroke-width:0.625;stroke-linecap:butt;stroke-linejoin:miter;stroke:rgb(0%,0%,0%);stroke-opacity:1;stroke-miterlimit:4;" d="M 137.257713 110.861811 C 137.257713 111.064439 141.576679 114.562428 141.678738 115.383602 C 141.780797 116.204776 133.866559 116.407404 133.866559 116.407404 C 133.866559 116.407404 131.607336 114.663742 130.888282 114.765055 C 130.169227 114.866369 129.85841 116.615363 129.85841 116.615363 L 131.709396 117.644497 L 128.216183 117.847125 L 129.246054 119.798747 L 131.918153 119.596119 L 131.301158 121.446427 C 131.301158 121.446427 132.943386 122.678189 133.254203 122.475561 C 133.560381 122.267602 134.590253 120.417293 135.411366 120.10802 C 136.23248 119.798747 137.976767 119.798747 137.976767 119.798747 C 137.976767 119.798747 136.640718 122.059642 137.257713 122.059642 C 137.874708 122.059642 140.648866 119.697433 140.648866 119.697433 C 140.648866 119.697433 141.265862 121.857015 141.367921 121.857015 C 141.474619 121.857015 143.427664 119.38816 143.427664 119.38816 C 143.427664 119.38816 143.427664 121.345114 143.733842 121.345114 C 144.04002 121.345114 146.920877 118.876259 146.920877 118.876259 C 146.920877 118.876259 149.1801 121.755701 149.490917 121.547741 C 149.797095 121.345114 150.107912 118.465672 150.41409 118.465672 C 150.720268 118.465672 152.673313 118.156398 152.673313 118.055084 C 152.673313 117.948438 151.443962 116.924637 151.235204 115.484916 C 151.031085 114.045195 151.443962 110.653852 151.337263 110.653852 C 151.235204 110.653852 137.46647 111.165753 137.257713 110.861811 Z M 137.257713 110.861811 " transform="matrix(0.842035,0,0,0.732564,62.807068,63.466341)"/>
<path style="fill-rule:evenodd;fill:rgb(99.215686%,76.862746%,0%);fill-opacity:0.996078;stroke-width:0.625;stroke-linecap:butt;stroke-linejoin:miter;stroke:rgb(0%,0%,0%);stroke-opacity:1;stroke-miterlimit:4;" d="M 115.370622 104.601691 L 155.656229 104.601691 C 159.766437 104.601691 163.463769 102.95401 163.463769 100.490487 C 163.463769 98.021632 156.890219 97.611045 154.422239 98.43222 C 151.954258 99.258726 141.265862 104.191104 136.747416 103.780517 C 132.224331 103.364597 128.114123 100.490487 127.701247 97.611045 C 127.293009 94.736935 129.756351 92.26808 134.279436 92.26808 C 138.80252 92.26808 144.554956 93.910429 145.788946 93.499842 C 147.022936 93.089255 149.899154 89.799225 151.133144 89.388638 C 152.367135 88.978051 156.069105 88.567464 156.069105 88.567464 L 154.422239 89.799225 L 159.766437 88.567464 C 159.766437 88.567464 155.656229 93.089255 151.546021 94.321016 C 147.435813 95.55811 138.80252 95.147523 135.513426 95.147523 C 132.224331 95.147523 130.582104 94.736935 130.990341 97.200458 C 131.403218 99.669313 133.871198 101.311662 135.926302 100.901075 C 137.981406 100.490487 144.146718 98.43222 144.146718 98.43222 L 142.499852 97.200458 L 149.899154 96.789871 C 149.899154 96.789871 149.490917 95.55811 149.899154 95.55811 C 150.312031 95.55811 154.014001 95.968697 154.014001 95.968697 C 154.014001 95.968697 151.546021 94.736935 151.954258 94.736935 C 152.367135 94.736935 154.014001 94.736935 157.298457 95.147523 C 160.587551 95.55811 167.578616 96.789871 167.16574 100.0799 C 166.752863 103.364597 164.289522 106.244039 161.413304 106.244039 C 158.532447 106.244039 156.069105 105.422865 156.069105 106.654627 C 156.069105 107.886388 159.3582 108.712894 161.413304 108.712894 C 163.463769 108.712894 165.931749 107.065214 166.344626 107.065214 C 166.752863 107.065214 167.578616 109.534069 167.986853 109.534069 C 168.39973 109.534069 170.86771 108.712894 170.86771 108.712894 L 169.220844 113.234685 L 172.097062 114.055859 C 172.097062 114.055859 170.454834 115.698208 170.86771 115.698208 C 171.275948 115.698208 173.743928 115.698208 173.743928 116.108795 C 173.743928 116.519382 170.454834 118.988237 170.454834 119.398824 C 170.454834 119.809411 172.922814 121.041173 172.922814 121.041173 C 172.922814 121.041173 171.275948 123.510028 170.86771 123.099441 C 170.454834 122.688853 168.807967 120.630586 168.807967 120.630586 C 168.807967 120.630586 168.39973 122.278266 167.578616 122.278266 C 166.752863 122.278266 165.110636 121.867679 165.110636 121.867679 C 165.110636 121.867679 166.344626 119.398824 165.931749 119.398824 C 165.523512 119.398824 163.463769 121.041173 163.463769 120.630586 L 162.234418 119.393492 C 162.234418 119.393492 165.523512 118.060417 165.523512 116.108795 C 165.523512 114.157173 164.187462 112.200219 158.226269 111.896278 C 152.265075 111.587004 152.163016 113.330666 147.741991 113.128039 C 143.325605 112.920079 143.325605 111.176417 140.03651 111.176417 C 136.747416 111.176417 126.573955 115.287621 121.846752 115.180975 C 117.119548 115.079661 111.158355 114.770388 111.362474 114.56776 C 111.566592 114.3598 115.268563 104.905632 115.370622 104.601691 Z M 115.370622 104.601691 " transform="matrix(0.842035,0,0,0.732564,62.807068,63.466341)"/>
<path style="fill-rule:evenodd;fill:rgb(99.215686%,76.862746%,0%);fill-opacity:0.996078;stroke-width:0.625;stroke-linecap:butt;stroke-linejoin:miter;stroke:rgb(0%,0%,0%);stroke-opacity:1;stroke-miterlimit:4;" d="M 106.879903 102.460148 C 106.467026 102.668107 102.871754 103.180008 102.667635 106.981938 C 102.458877 110.783868 102.973813 110.783868 103.38669 110.581241 C 103.794927 110.373281 104.62068 107.083252 104.62068 107.083252 C 104.62068 107.083252 103.38669 111.605042 104.722739 112.634176 C 106.058789 113.66331 107.496898 114.073898 107.496898 114.073898 L 108.011834 110.474595 C 108.011834 110.474595 106.981962 113.972584 109.449942 115.204345 C 111.917923 116.436107 112.841096 115.513619 112.636977 114.585798 C 112.42822 113.66331 111.709165 111.301101 111.709165 111.301101 C 111.709165 111.301101 113.66221 113.455351 113.764269 113.66331 C 113.866329 113.865938 114.794141 115.513619 117.262121 114.793758 C 119.725463 114.073898 117.981176 112.431549 117.981176 112.431549 L 114.99826 109.968026 C 114.99826 109.968026 118.083235 113.15141 119.419285 112.026294 C 120.755334 110.895847 118.389413 108.426992 118.491473 108.528305 C 118.598171 108.634951 120.444517 112.026294 121.163572 109.866713 C 121.882626 107.707131 120.03628 107.088584 119.419285 105.035649 C 118.80229 102.977381 118.287354 102.774753 118.904349 101.542992 C 119.521344 100.305898 119.623403 97.943689 119.623403 97.943689 C 119.623403 97.943689 122.193443 98.562236 121.984686 96.402654 C 121.780567 94.243073 119.210527 93.731172 118.70023 93.629858 C 118.185295 93.523212 118.287354 91.368963 118.083235 91.470277 C 117.874477 91.57159 116.23225 92.803352 116.23225 92.803352 C 116.23225 92.803352 114.794141 89.412009 114.483324 89.619969 C 114.177146 89.827928 112.530279 91.57159 111.300928 91.672904 C 110.066938 91.77955 109.347883 93.523212 109.347883 93.523212 C 109.347883 93.523212 105.028917 91.470277 105.130977 94.86162 C 105.237675 98.252963 107.701016 97.431788 107.701016 97.533102 C 107.701016 97.634416 107.292779 102.262852 106.879903 102.46548 Z M 106.879903 102.460148 " transform="matrix(0.842035,0,0,0.732564,63.382329,63.300783)"/>
<path style=" stroke:none;fill-rule:evenodd;fill:rgb(0%,0%,0%);fill-opacity:0.996078;" d="M 155.382812 134.546875 C 155.796875 134.417969 156.410156 133.886719 157.121094 133.953125 C 157.832031 134.015625 158.96875 134.558594 158.40625 134.859375 C 157.839844 135.15625 157.425781 135.28125 156.789062 135.132812 C 156.152344 134.984375 155.664062 134.664062 155.382812 134.546875 Z M 155.382812 134.546875 "/>
<path style=" stroke:none;fill-rule:evenodd;fill:rgb(0%,0%,0%);fill-opacity:0.996078;" d="M 162.441406 134.46875 C 162.023438 134.34375 161.410156 133.8125 160.703125 133.875 C 159.992188 133.941406 158.855469 134.484375 159.417969 134.78125 C 159.980469 135.078125 160.398438 135.207031 161.035156 135.058594 C 161.671875 134.90625 162.160156 134.585938 162.441406 134.46875 Z M 162.441406 134.46875 "/>
<path style="fill-rule:evenodd;fill:rgb(0%,0%,22.352941%);fill-opacity:0.996078;stroke-width:0.375;stroke-linecap:butt;stroke-linejoin:miter;stroke:rgb(0%,0%,0%);stroke-opacity:1;stroke-miterlimit:4;" d="M 110.990293 103.168334 C 111.092353 103.685568 111.40317 107.999398 111.607288 107.690125 C 111.811407 107.386184 113.356214 103.27498 113.249516 103.27498 C 113.147457 103.27498 111.092353 103.376294 110.990293 103.168334 Z M 110.990293 103.168334 " transform="matrix(0.842035,0,0,0.732564,63.499363,63.336678)"/>
<path style="fill:none;stroke-width:0.75;stroke-linecap:butt;stroke-linejoin:miter;stroke:rgb(0%,0%,0%);stroke-opacity:1;stroke-miterlimit:4;" d="M 109.960422 103.171639 C 110.006812 101.955874 110.781535 102.041191 112.428402 102.243819 C 114.07063 102.451778 114.891744 103.272953 114.789684 103.480912 C 114.687625 103.68354 113.351575 104.195441 112.219644 104.094127 C 110.883595 103.68354 109.923309 104.184776 109.960422 103.171639 Z M 109.960422 103.171639 " transform="matrix(0.842035,0,0,0.732564,63.499363,63.443632)"/>
<path style="fill:none;stroke-width:1.25;stroke-linecap:butt;stroke-linejoin:miter;stroke:rgb(0%,0%,0%);stroke-opacity:1;stroke-miterlimit:4;" d="M 112.428402 100.078905 L 112.224283 102.030527 " transform="matrix(0.842035,0,0,0.732564,63.499363,63.443632)"/>
<path style="fill:none;stroke-width:1.25;stroke-linecap:butt;stroke-linejoin:miter;stroke:rgb(0%,0%,0%);stroke-opacity:1;stroke-miterlimit:4;" d="M 119.322047 94.842586 C 119.322047 94.842586 120.658097 95.461133 120.449339 96.07968 C 120.24522 96.692894 119.322047 97.002167 119.322047 97.002167 " transform="matrix(0.842035,0,0,0.732564,63.499363,63.443632)"/>
<path style="fill:none;stroke-width:1.25;stroke-linecap:butt;stroke-linejoin:miter;stroke:rgb(0%,0%,0%);stroke-opacity:1;stroke-miterlimit:4;" d="M 108.118714 94.330685 C 107.812536 94.431999 107.39966 94.639958 107.195541 95.461133 C 106.991423 96.282307 108.118714 96.794208 108.118714 96.794208 " transform="matrix(0.842035,0,0,0.732564,63.499363,63.443632)"/>
<path style="fill:none;stroke-width:1.25;stroke-linecap:butt;stroke-linejoin:miter;stroke:rgb(0%,0%,0%);stroke-opacity:1;stroke-miterlimit:4;" d="M 111.188243 136.132203 C 111.188243 136.132203 109.736217 137.582589 112.208837 137.582589 C 114.676817 137.582589 112.93253 136.276175 112.93253 136.276175 " transform="matrix(0.842035,0,0,0.732564,63.621745,35.973698)"/>
<path style=" stroke:none;fill-rule:evenodd;fill:rgb(99.215686%,76.862746%,0%);fill-opacity:1;" d="M 161.820312 219.003906 L 165.417969 207.1875 L 155.429688 199.757812 L 167.941406 199.476562 L 172.019531 187.8125 L 176.15625 199.457031 L 188.667969 199.679688 L 178.710938 207.15625 L 182.363281 218.957031 L 172.074219 211.933594 Z M 161.820312 219.003906 "/>
<path style=" stroke:none;fill-rule:evenodd;fill:rgb(0%,18.82353%,9.019608%);fill-opacity:0.996078;" d="M 163.523438 215.835938 L 166.523438 206.449219 L 158.199219 200.546875 L 168.621094 200.324219 L 172.023438 191.058594 L 175.46875 200.308594 L 185.894531 200.488281 L 177.597656 206.425781 L 180.640625 215.800781 L 172.070312 210.21875 Z M 163.523438 215.835938 "/>
<path style=" stroke:none;fill-rule:evenodd;fill:rgb(99.215686%,76.862746%,0%);fill-opacity:1;" d="M 141.234375 195.066406 L 144.792969 183.890625 L 134.910156 176.863281 L 147.285156 176.601562 L 151.320312 165.570312 L 155.414062 176.582031 L 167.789062 176.792969 L 157.941406 183.863281 L 161.554688 195.023438 L 151.378906 188.382812 Z M 141.234375 195.066406 "/>
<path style=" stroke:none;fill-rule:evenodd;fill:rgb(0%,18.82353%,9.019608%);fill-opacity:0.996078;" d="M 142.921875 192.070312 L 145.886719 183.191406 L 137.652344 177.609375 L 147.96875 177.402344 L 151.332031 168.636719 L 154.738281 177.386719 L 165.054688 177.554688 L 156.847656 183.167969 L 159.855469 192.035156 L 151.375 186.757812 Z M 142.921875 192.070312 "/>
<path style=" stroke:none;fill-rule:evenodd;fill:rgb(99.215686%,76.862746%,0%);fill-opacity:1;" d="M 182.710938 195.066406 L 186.3125 183.890625 L 176.304688 176.863281 L 188.839844 176.601562 L 192.929688 165.570312 L 197.074219 176.582031 L 209.609375 176.792969 L 199.632812 183.863281 L 203.292969 195.023438 L 192.984375 188.382812 Z M 182.710938 195.066406 "/>
<path style=" stroke:none;fill-rule:evenodd;fill:rgb(0%,18.82353%,9.019608%);fill-opacity:0.996078;" d="M 184.421875 192.070312 L 187.421875 183.191406 L 179.082031 177.609375 L 189.527344 177.402344 L 192.9375 168.636719 L 196.390625 177.386719 L 206.835938 177.554688 L 198.523438 183.167969 L 201.570312 192.035156 L 192.980469 186.757812 Z M 184.421875 192.070312 "/>
<path style=" stroke:none;fill-rule:nonzero;fill:rgb(0%,0%,0%);fill-opacity:1;" d="M 111.753906 204.492188 L 117.929688 201.003906 L 118.511719 202.273438 L 116.089844 203.640625 L 116.890625 205.394531 L 119.3125 204.023438 L 119.894531 205.292969 L 113.714844 208.785156 L 113.136719 207.515625 L 115.933594 205.933594 L 115.132812 204.179688 L 112.332031 205.761719 L 111.753906 204.492188 M 114.339844 209.898438 L 120.105469 205.628906 L 122.078125 208.917969 L 121.121094 209.628906 L 119.855469 207.523438 L 118.523438 208.511719 L 119.699219 210.46875 L 118.785156 211.144531 L 117.609375 209.1875 L 116.023438 210.363281 L 117.316406 212.515625 L 116.339844 213.238281 L 114.339844 209.894531 M 118.355469 216.09375 L 123.441406 210.867188 L 124.3125 211.914062 L 122.320312 213.964844 L 123.519531 215.40625 L 125.515625 213.355469 L 126.386719 214.402344 L 121.296875 219.628906 L 120.425781 218.582031 L 122.734375 216.214844 L 121.53125 214.773438 L 119.226562 217.140625 L 118.355469 216.09375 M 125 219.191406 L 125.824219 219.996094 L 127.324219 217.160156 L 125 219.191406 M 121.773438 220.15625 L 127.515625 215.511719 L 128.816406 216.78125 L 125.433594 223.722656 L 124.386719 222.703125 L 125.277344 221 L 124.160156 219.910156 L 122.761719 221.121094 L 121.773438 220.15625 M 126.78125 224.8125 L 130.203125 219.625 L 129.007812 218.652344 L 129.683594 217.625 L 133.121094 220.425781 L 132.441406 221.449219 L 131.246094 220.476562 L 127.824219 225.660156 L 126.78125 224.8125 M 129.59375 227.058594 L 133.203125 220.484375 L 134.296875 221.226562 L 132.882812 223.804688 L 134.390625 224.828125 L 135.804688 222.25 L 136.902344 222.992188 L 133.292969 229.566406 L 132.195312 228.824219 L 133.832031 225.84375 L 132.324219 224.820312 L 130.6875 227.800781 L 129.59375 227.058594 M 136.378906 231.351562 L 139.289062 224.367188 L 142.578125 226.058594 L 142.101562 227.199219 L 139.984375 226.113281 L 139.296875 227.761719 L 141.292969 228.789062 L 140.828125 229.90625 L 138.832031 228.878906 L 137.550781 231.953125 L 136.378906 231.351562 M 142.804688 230.289062 C 142.402344 231.472656 142.207031 232.246094 142.226562 232.605469 C 142.246094 232.964844 142.425781 233.214844 142.761719 233.359375 C 143.09375 233.496094 143.371094 233.445312 143.59375 233.195312 C 143.820312 232.945312 144.136719 232.222656 144.546875 231.023438 C 144.957031 229.828125 145.152344 229.050781 145.132812 228.695312 C 145.113281 228.335938 144.9375 228.085938 144.601562 227.945312 C 144.269531 227.804688 143.988281 227.863281 143.761719 228.117188 C 143.53125 228.367188 143.214844 229.09375 142.804688 230.289062 M 141.574219 229.769531 C 141.832031 229.007812 142.074219 228.410156 142.292969 227.984375 C 142.515625 227.554688 142.734375 227.25 142.949219 227.078125 C 143.25 226.832031 143.554688 226.691406 143.863281 226.660156 C 144.171875 226.632812 144.539062 226.707031 144.964844 226.886719 C 145.390625 227.066406 145.710938 227.28125 145.921875 227.53125 C 146.136719 227.78125 146.28125 228.109375 146.359375 228.515625 C 146.417969 228.8125 146.398438 229.199219 146.304688 229.679688 C 146.214844 230.164062 146.039062 230.785156 145.78125 231.542969 C 145.519531 232.300781 145.28125 232.894531 145.058594 233.328125 C 144.839844 233.753906 144.621094 234.058594 144.40625 234.238281 C 144.105469 234.484375 143.796875 234.625 143.488281 234.652344 C 143.179688 234.683594 142.8125 234.609375 142.386719 234.429688 C 141.960938 234.25 141.640625 234.035156 141.429688 233.785156 C 141.214844 233.535156 141.070312 233.207031 140.996094 232.800781 C 140.9375 232.511719 140.953125 232.125 141.042969 231.644531 C 141.136719 231.160156 141.3125 230.535156 141.574219 229.769531 M 147.53125 228.136719 L 148.769531 228.542969 L 147.4375 233.519531 C 147.285156 234.085938 147.242188 234.492188 147.3125 234.738281 C 147.382812 234.980469 147.582031 235.15625 147.898438 235.261719 C 148.214844 235.367188 148.460938 235.335938 148.636719 235.171875 C 148.816406 235.007812 148.980469 234.636719 149.136719 234.058594 L 150.464844 229.105469 L 151.683594 229.507812 L 150.320312 234.601562 C 150.1875 235.097656 150.066406 235.453125 149.949219 235.664062 C 149.839844 235.875 149.703125 236.046875 149.539062 236.179688 C 149.292969 236.378906 149.003906 236.496094 148.675781 236.53125 C 148.347656 236.5625 147.984375 236.511719 147.582031 236.378906 C 146.824219 236.125 146.335938 235.765625 146.121094 235.300781 C 145.90625 234.828125 145.921875 234.140625 146.167969 233.230469 L 147.53125 228.136719 M 150.847656 237.214844 L 152.359375 229.699219 L 153.65625 230.023438 L 154.359375 235.714844 L 155.378906 230.453125 L 156.570312 230.746094 L 155.058594 238.261719 L 153.769531 237.941406 L 153.058594 232.234375 L 152.03125 237.507812 L 150.847656 237.214844 M 157.621094 237.597656 L 158.183594 237.695312 C 158.472656 237.746094 158.675781 237.757812 158.800781 237.730469 C 158.921875 237.703125 159.023438 237.640625 159.109375 237.542969 C 159.253906 237.363281 159.375 237.109375 159.476562 236.777344 C 159.574219 236.4375 159.675781 235.890625 159.785156 235.132812 C 159.886719 234.398438 159.933594 233.855469 159.921875 233.507812 C 159.910156 233.164062 159.84375 232.890625 159.726562 232.695312 C 159.664062 232.597656 159.578125 232.519531 159.464844 232.46875 C 159.351562 232.410156 159.171875 232.363281 158.925781 232.316406 L 158.378906 232.222656 L 157.621094 237.597656 M 156.214844 238.5 L 157.285156 230.894531 L 159.335938 231.25 C 159.753906 231.324219 160.078125 231.421875 160.3125 231.542969 C 160.550781 231.664062 160.738281 231.828125 160.871094 232.035156 C 161.074219 232.335938 161.199219 232.695312 161.238281 233.109375 C 161.285156 233.523438 161.25 234.148438 161.128906 234.984375 C 160.976562 236.0625 160.835938 236.820312 160.707031 237.257812 C 160.574219 237.691406 160.40625 238.050781 160.199219 238.332031 C 159.996094 238.621094 159.746094 238.800781 159.449219 238.875 C 159.152344 238.949219 158.660156 238.925781 157.96875 238.804688 L 156.214844 238.5 M 161.574219 239.382812 L 162.238281 231.71875 L 165.78125 232.097656 L 165.671875 233.371094 L 163.402344 233.128906 L 163.25 234.902344 L 165.359375 235.128906 L 165.253906 236.339844 L 163.144531 236.113281 L 162.960938 238.226562 L 165.28125 238.472656 L 165.167969 239.765625 L 161.574219 239.382812 M 167.425781 238.761719 L 167.996094 238.785156 C 168.289062 238.796875 168.492188 238.78125 168.609375 238.738281 C 168.730469 238.695312 168.824219 238.621094 168.898438 238.511719 C 169.023438 238.316406 169.117188 238.046875 169.179688 237.699219 C 169.242188 237.351562 169.285156 236.796875 169.3125 236.03125 C 169.335938 235.285156 169.324219 234.738281 169.273438 234.398438 C 169.226562 234.054688 169.132812 233.796875 168.992188 233.617188 C 168.921875 233.527344 168.824219 233.460938 168.707031 233.425781 C 168.589844 233.382812 168.40625 233.359375 168.15625 233.347656 L 167.601562 233.324219 L 167.425781 238.761719 M 166.125 239.84375 L 166.375 232.152344 L 168.449219 232.234375 C 168.871094 232.25 169.203125 232.304688 169.449219 232.394531 C 169.699219 232.484375 169.902344 232.621094 170.058594 232.808594 C 170.292969 233.082031 170.453125 233.421875 170.539062 233.828125 C 170.628906 234.230469 170.660156 234.855469 170.632812 235.703125 C 170.597656 236.796875 170.535156 237.566406 170.453125 238.015625 C 170.371094 238.464844 170.238281 238.84375 170.066406 239.152344 C 169.894531 239.460938 169.667969 239.675781 169.378906 239.789062 C 169.09375 239.902344 168.601562 239.945312 167.902344 239.917969 L 166.125 239.84375 M 173.84375 239.945312 L 173.570312 232.253906 L 174.859375 232.195312 L 175.132812 239.886719 L 173.84375 239.945312 M 177.289062 239.742188 L 176.816406 233.335938 L 175.335938 233.46875 L 175.242188 232.203125 L 179.488281 231.816406 L 179.582031 233.082031 L 178.105469 233.21875 L 178.578125 239.625 L 177.289062 239.742188 M 181.835938 231.488281 L 183.109375 231.242188 L 183.910156 236.355469 C 184 236.941406 184.125 237.324219 184.285156 237.511719 C 184.449219 237.691406 184.691406 237.75 185.019531 237.6875 C 185.347656 237.625 185.554688 237.476562 185.644531 237.242188 C 185.738281 237.007812 185.742188 236.59375 185.648438 236 L 184.851562 230.90625 L 186.105469 230.664062 L 186.925781 235.898438 C 187.003906 236.410156 187.035156 236.785156 187.019531 237.03125 C 187.003906 237.277344 186.953125 237.496094 186.859375 237.699219 C 186.71875 238 186.507812 238.246094 186.226562 238.441406 C 185.945312 238.628906 185.597656 238.765625 185.183594 238.84375 C 184.402344 238.996094 183.824219 238.914062 183.441406 238.601562 C 183.0625 238.285156 182.800781 237.660156 182.65625 236.722656 L 181.835938 231.488281 M 188.730469 233.441406 L 189.253906 233.296875 C 189.644531 233.191406 189.902344 233.035156 190.019531 232.824219 C 190.140625 232.609375 190.15625 232.296875 190.066406 231.886719 C 189.976562 231.472656 189.839844 231.203125 189.660156 231.085938 C 189.480469 230.960938 189.1875 230.953125 188.785156 231.0625 L 188.242188 231.210938 L 188.730469 233.441406 M 188.441406 237.976562 L 186.800781 230.496094 L 188.980469 229.90625 C 189.644531 229.726562 190.15625 229.761719 190.519531 230.011719 C 190.886719 230.265625 191.148438 230.765625 191.3125 231.515625 C 191.476562 232.253906 191.441406 232.847656 191.207031 233.292969 C 190.976562 233.738281 190.542969 234.046875 189.90625 234.21875 L 188.992188 234.464844 L 189.6875 237.636719 L 188.441406 237.972656 M 193.390625 232.554688 C 193.734375 233.761719 194.015625 234.5 194.230469 234.769531 C 194.449219 235.035156 194.726562 235.109375 195.070312 234.988281 C 195.410156 234.867188 195.59375 234.636719 195.628906 234.285156 C 195.667969 233.933594 195.511719 233.148438 195.164062 231.929688 C 194.816406 230.707031 194.535156 229.964844 194.320312 229.699219 C 194.105469 229.429688 193.828125 229.355469 193.488281 229.476562 C 193.148438 229.597656 192.960938 229.835938 192.921875 230.191406 C 192.886719 230.546875 193.042969 231.335938 193.390625 232.554688 M 192.132812 232.996094 C 191.910156 232.21875 191.765625 231.585938 191.699219 231.097656 C 191.632812 230.609375 191.636719 230.222656 191.707031 229.9375 C 191.804688 229.535156 191.964844 229.21875 192.191406 228.980469 C 192.414062 228.742188 192.746094 228.546875 193.179688 228.394531 C 193.613281 228.242188 193.984375 228.191406 194.292969 228.238281 C 194.597656 228.289062 194.898438 228.445312 195.1875 228.710938 C 195.394531 228.902344 195.597656 229.21875 195.792969 229.660156 C 195.992188 230.101562 196.199219 230.710938 196.421875 231.484375 C 196.640625 232.257812 196.785156 232.886719 196.855469 233.378906 C 196.921875 233.867188 196.917969 234.253906 196.851562 234.542969 C 196.753906 234.945312 196.589844 235.265625 196.363281 235.503906 C 196.140625 235.738281 195.808594 235.933594 195.375 236.085938 C 194.941406 236.238281 194.570312 236.292969 194.261719 236.242188 C 193.957031 236.195312 193.660156 236.035156 193.375 235.769531 C 193.164062 235.585938 192.964844 235.269531 192.765625 234.832031 C 192.566406 234.386719 192.355469 233.773438 192.132812 232.996094 M 198.464844 234.757812 L 195.886719 227.609375 L 197.121094 227.0625 L 200.597656 231.3125 L 198.761719 226.332031 L 199.894531 225.828125 L 202.472656 232.972656 L 201.25 233.519531 L 197.753906 229.261719 L 199.59375 234.253906 L 198.464844 234.757812 M 206.492188 230.816406 L 203.789062 225.128906 L 202.476562 225.902344 L 201.941406 224.777344 L 205.710938 222.566406 L 206.242188 223.6875 L 204.929688 224.460938 L 207.632812 230.144531 L 206.492188 230.816406 M 209.542969 228.996094 L 205.84375 222.488281 L 206.925781 221.726562 L 208.378906 224.277344 L 209.871094 223.230469 L 208.421875 220.675781 L 209.503906 219.914062 L 213.207031 226.425781 L 212.121094 227.1875 L 210.445312 224.234375 L 208.949219 225.285156 L 210.625 228.234375 L 209.542969 228.996094 M 214.164062 225.667969 L 209.988281 219.523438 L 212.828125 217.140625 L 213.523438 218.160156 L 211.707031 219.6875 L 212.671875 221.105469 L 214.363281 219.6875 L 215.023438 220.660156 L 213.332031 222.078125 L 214.480469 223.769531 L 216.34375 222.210938 L 217.046875 223.246094 L 214.164062 225.667969 M 217.726562 219.0625 L 218.648438 218.054688 L 218.960938 218.410156 C 219.261719 218.746094 219.5 218.9375 219.6875 218.976562 C 219.871094 219.015625 220.054688 218.933594 220.242188 218.726562 C 220.4375 218.515625 220.535156 218.300781 220.539062 218.082031 C 220.546875 217.859375 220.453125 217.640625 220.265625 217.425781 C 220.121094 217.265625 219.960938 217.160156 219.785156 217.121094 C 219.609375 217.082031 219.324219 217.09375 218.921875 217.167969 L 218.125 217.3125 C 217.441406 217.441406 216.953125 217.464844 216.660156 217.382812 C 216.371094 217.296875 216.089844 217.097656 215.816406 216.789062 C 215.40625 216.328125 215.210938 215.832031 215.226562 215.304688 C 215.238281 214.773438 215.464844 214.273438 215.894531 213.800781 C 216.355469 213.300781 216.828125 213.054688 217.316406 213.070312 C 217.808594 213.082031 218.28125 213.347656 218.742188 213.867188 C 218.789062 213.917969 218.824219 213.960938 218.847656 213.992188 C 218.871094 214.019531 218.894531 214.046875 218.910156 214.070312 L 218.035156 215.023438 L 217.90625 214.878906 C 217.644531 214.578125 217.414062 214.414062 217.210938 214.382812 C 217.011719 214.351562 216.808594 214.445312 216.609375 214.664062 C 216.460938 214.824219 216.386719 215 216.386719 215.191406 C 216.386719 215.378906 216.464844 215.554688 216.617188 215.726562 C 216.820312 215.957031 217.234375 216.007812 217.863281 215.875 C 217.867188 215.871094 217.875 215.871094 217.878906 215.871094 L 218.722656 215.699219 C 219.320312 215.570312 219.785156 215.554688 220.125 215.652344 C 220.460938 215.746094 220.792969 215.976562 221.117188 216.34375 C 221.558594 216.84375 221.769531 217.367188 221.753906 217.917969 C 221.734375 218.472656 221.488281 219.007812 221.011719 219.527344 C 220.515625 220.070312 220.019531 220.332031 219.523438 220.3125 C 219.027344 220.292969 218.523438 219.988281 218.003906 219.402344 C 217.949219 219.339844 217.863281 219.234375 217.746094 219.082031 L 217.726562 219.0625 M 223.089844 216.898438 L 217.777344 211.953125 L 220.066406 208.921875 L 220.949219 209.746094 L 219.484375 211.683594 L 220.714844 212.828125 L 222.074219 211.023438 L 222.917969 211.804688 L 221.554688 213.609375 L 223.015625 214.972656 L 224.515625 212.988281 L 225.410156 213.820312 L 223.089844 216.898438 M 224.4375 210.007812 L 225.050781 208.996094 L 222.332031 207.699219 L 224.4375 210.007812 M 225.710938 213.441406 L 220.835938 207.699219 L 221.800781 206.105469 L 228.429688 208.953125 L 227.652344 210.234375 L 226.015625 209.46875 L 225.1875 210.839844 L 226.445312 212.226562 L 225.710938 213.441406 M 226.53125 207.179688 L 227.121094 205.902344 L 227.519531 206.128906 C 227.898438 206.347656 228.179688 206.441406 228.367188 206.417969 C 228.550781 206.386719 228.703125 206.246094 228.824219 205.988281 C 228.949219 205.714844 228.980469 205.476562 228.921875 205.269531 C 228.867188 205.054688 228.71875 204.878906 228.476562 204.742188 C 228.292969 204.636719 228.113281 204.597656 227.9375 204.621094 C 227.757812 204.644531 227.488281 204.757812 227.128906 204.964844 L 226.414062 205.382812 C 225.800781 205.742188 225.34375 205.9375 225.042969 205.960938 C 224.742188 205.980469 224.421875 205.890625 224.074219 205.691406 C 223.554688 205.398438 223.230469 204.996094 223.09375 204.488281 C 222.957031 203.980469 223.027344 203.425781 223.304688 202.828125 C 223.597656 202.191406 223.976562 201.792969 224.445312 201.636719 C 224.914062 201.476562 225.441406 201.5625 226.023438 201.894531 C 226.085938 201.929688 226.128906 201.957031 226.160156 201.976562 C 226.191406 201.996094 226.21875 202.011719 226.242188 202.03125 L 225.683594 203.238281 L 225.519531 203.144531 C 225.183594 202.957031 224.917969 202.878906 224.71875 202.917969 C 224.515625 202.957031 224.351562 203.117188 224.222656 203.394531 C 224.128906 203.601562 224.109375 203.792969 224.164062 203.976562 C 224.21875 204.152344 224.339844 204.292969 224.53125 204.402344 C 224.792969 204.550781 225.199219 204.453125 225.757812 204.109375 C 225.761719 204.101562 225.765625 204.101562 225.769531 204.097656 L 226.523438 203.640625 C 227.054688 203.308594 227.492188 203.132812 227.84375 203.105469 C 228.1875 203.078125 228.566406 203.183594 228.980469 203.417969 C 229.539062 203.738281 229.890625 204.160156 230.027344 204.691406 C 230.167969 205.21875 230.085938 205.816406 229.78125 206.476562 C 229.460938 207.164062 229.066406 207.585938 228.589844 207.742188 C 228.113281 207.894531 227.546875 207.78125 226.890625 207.40625 C 226.824219 207.367188 226.710938 207.296875 226.554688 207.195312 L 226.53125 207.179688 "/>
</g>
</svg>
