<?xml version="1.0" encoding="UTF-8"?>
<svg xmlns="http://www.w3.org/2000/svg" xmlns:xlink="http://www.w3.org/1999/xlink" width="40px" height="40px" viewBox="0 0 256 256" version="1.1">
<g id="surface1">
<rect x="0" y="0" width="256" height="256" style="fill:rgb(43.529412%,86.274511%,100%);fill-opacity:1;stroke:none;"/>
<path style=" stroke:none;fill-rule:evenodd;fill:rgb(100%,89.411765%,0%);fill-opacity:1;" d="M 21.496094 248.964844 C 23.230469 250.664062 22.65625 253.519531 27.480469 253.152344 C 34.84375 253.152344 35.054688 248.648438 35.054688 245.5 C 35.054688 242.363281 24.085938 237.96875 23.582031 233.347656 C 23.066406 228.722656 26.113281 227.429688 28.660156 227.429688 C 31.191406 227.429688 32.96875 228.914062 32.96875 230.203125 C 32.96875 231.496094 31.703125 231.867188 29.925781 231.867188 C 28.148438 231.867188 30.6875 230.945312 29.164062 230.203125 C 27.640625 229.464844 26.625 231.3125 26.625 232.425781 C 26.625 233.53125 30.429688 233.898438 32.96875 233.070312 C 33.484375 235.566406 33.730469 235.753906 30.175781 240 C 32.722656 238.335938 32.964844 237.96875 35.765625 238.894531 C 32.96875 236.488281 35.0625 231.589844 35.160156 230.34375 C 35.253906 229.097656 34.625 227.613281 33.484375 226.875 C 31.449219 225.027344 27.003906 224.941406 24.339844 226.132812 C 20.460938 227.867188 20.273438 232.96875 21.289062 234.640625 L 32.039062 245.664062 C 32.800781 246.960938 33.066406 250.5625 28.5 250.746094 C 23.675781 251.113281 22.019531 244.539062 21.164062 242.351562 C 20.015625 244.738281 18.734375 251.332031 13.910156 250.964844 C 9.335938 250.78125 8.460938 247.175781 9.21875 245.878906 L 20.265625 234.640625 C 21.273438 232.96875 21.085938 227.867188 17.207031 226.132812 C 14.542969 224.941406 10.105469 225.027344 8.070312 226.875 C 6.929688 227.613281 6.292969 229.097656 6.386719 230.34375 C 6.484375 231.589844 8.578125 236.488281 5.78125 238.894531 C 8.582031 237.96875 8.832031 238.335938 11.371094 240 C 7.816406 235.753906 8.070312 235.566406 8.578125 233.070312 C 11.117188 233.898438 14.929688 233.53125 14.929688 232.425781 C 14.929688 231.3125 13.90625 229.464844 12.382812 230.203125 C 10.867188 230.945312 13.398438 231.867188 11.628906 231.867188 C 9.84375 231.867188 8.578125 231.496094 8.578125 230.203125 C 8.578125 228.914062 10.355469 227.429688 12.894531 227.429688 C 15.433594 227.429688 18.480469 228.722656 17.964844 233.347656 C 17.460938 237.96875 6.203125 243.011719 6.203125 246.152344 C 6.203125 249.296875 6.988281 253.152344 14.351562 253.152344 C 19.175781 253.519531 19.746094 250.664062 21.496094 248.964844 Z M 21.496094 248.964844 "/>
<path style=" stroke:none;fill-rule:evenodd;fill:rgb(100%,89.411765%,0%);fill-opacity:1;" d="M 20.910156 182.996094 C 22.644531 181.296875 24.070312 176.265625 28.894531 176.632812 C 36.257812 176.632812 39.046875 180.703125 39.046875 183.847656 C 39.046875 186.988281 24.070312 212.691406 23.566406 217.308594 C 23.054688 221.9375 26.097656 223.226562 28.644531 223.226562 C 31.175781 223.226562 32.957031 221.746094 32.957031 220.457031 C 32.957031 219.164062 31.691406 218.792969 29.910156 218.792969 C 28.132812 218.792969 30.671875 219.714844 29.148438 220.457031 C 27.628906 221.195312 26.609375 219.347656 26.609375 218.234375 C 26.609375 217.125 30.417969 216.757812 32.957031 217.589844 C 33.46875 215.09375 33.71875 214.90625 30.160156 210.65625 C 32.707031 212.324219 32.949219 212.691406 35.75 211.765625 C 32.957031 214.171875 35.050781 219.070312 35.144531 220.316406 C 35.238281 221.5625 34.609375 223.042969 33.46875 223.785156 C 31.433594 225.632812 26.992188 225.714844 24.328125 224.523438 C 20.449219 222.792969 20.257812 217.6875 21.273438 216.019531 L 35.746094 184.769531 C 36.503906 183.472656 34.476562 179.222656 29.910156 179.039062 C 25.089844 178.671875 23.433594 183.726562 22.578125 185.914062 L 29.148438 185.433594 C 29.148438 185.433594 29.40625 186.445312 29.148438 187.105469 C 25.753906 187.328125 22.578125 187.945312 22.578125 187.945312 L 22.328125 191.273438 L 25.570312 191.273438 L 25.316406 192.75 C 25.316406 192.75 22.578125 192.566406 22.328125 192.75 C 22.074219 192.933594 21.816406 196.082031 21.816406 196.082031 C 21.816406 196.082031 21.3125 196.265625 20.761719 196.265625 C 20.207031 196.265625 19.699219 196.082031 19.699219 196.082031 C 19.699219 196.082031 19.445312 192.933594 19.195312 192.75 C 18.941406 192.566406 16.203125 192.75 16.203125 192.75 L 15.953125 191.273438 L 19.195312 191.273438 L 18.941406 187.945312 C 18.941406 187.945312 15.761719 187.328125 12.367188 187.105469 C 12.117188 186.445312 12.367188 185.433594 12.367188 185.433594 L 18.941406 185.914062 C 18.082031 183.726562 16.429688 178.671875 11.613281 179.039062 C 7.039062 179.222656 5.011719 183.472656 5.773438 184.769531 L 20.25 216.019531 C 21.261719 217.6875 21.070312 222.792969 17.191406 224.523438 C 14.527344 225.714844 10.089844 225.632812 8.054688 223.785156 C 6.914062 223.042969 6.277344 221.5625 6.375 220.316406 C 6.46875 219.070312 8.5625 214.171875 5.765625 211.765625 C 8.570312 212.691406 8.816406 212.324219 11.359375 210.65625 C 7.800781 214.90625 8.054688 215.09375 8.5625 217.589844 C 11.101562 216.757812 14.914062 217.125 14.914062 218.234375 C 14.914062 219.347656 13.890625 221.195312 12.367188 220.457031 C 10.851562 219.714844 13.386719 218.792969 11.613281 218.792969 C 9.828125 218.792969 8.5625 219.164062 8.5625 220.457031 C 8.5625 221.746094 10.339844 223.226562 12.878906 223.226562 C 15.417969 223.226562 18.464844 221.9375 17.953125 217.308594 C 17.445312 212.691406 2.472656 186.988281 2.472656 183.847656 C 2.472656 180.703125 5.261719 176.632812 12.625 176.632812 C 17.445312 176.265625 19.160156 181.296875 20.910156 182.996094 Z M 20.910156 182.996094 "/>
<path style=" stroke:none;fill-rule:evenodd;fill:rgb(100%,89.411765%,0%);fill-opacity:1;" d="M 20.910156 170.257812 C 22.644531 171.957031 24.070312 176.988281 28.894531 176.621094 C 36.257812 176.621094 39.046875 172.550781 39.046875 169.40625 C 39.046875 166.265625 24.070312 140.5625 23.566406 135.941406 C 23.054688 131.316406 26.097656 130.027344 28.644531 130.027344 C 31.175781 130.027344 32.957031 131.507812 32.957031 132.796875 C 32.957031 134.089844 31.691406 134.460938 29.910156 134.460938 C 28.132812 134.460938 30.671875 133.539062 29.148438 132.796875 C 27.628906 132.058594 26.609375 133.90625 26.609375 135.019531 C 26.609375 136.128906 30.417969 136.496094 32.957031 135.664062 C 33.46875 138.160156 33.71875 138.347656 30.160156 142.597656 C 32.707031 140.929688 32.949219 140.5625 35.75 141.488281 C 32.957031 139.082031 35.050781 134.183594 35.144531 132.9375 C 35.238281 131.691406 34.609375 130.210938 33.46875 129.46875 C 31.433594 127.621094 26.992188 127.535156 24.328125 128.726562 C 20.449219 130.460938 20.257812 135.566406 21.273438 137.234375 L 35.746094 168.480469 C 36.503906 169.78125 34.476562 174.03125 29.910156 174.214844 C 25.085938 174.582031 23.433594 169.527344 22.578125 167.339844 L 29.148438 167.820312 C 29.148438 167.820312 29.40625 166.808594 29.148438 166.148438 C 25.753906 165.925781 22.578125 165.308594 22.578125 165.308594 L 22.328125 161.980469 L 25.570312 161.980469 L 25.316406 160.503906 C 25.316406 160.503906 22.578125 160.6875 22.328125 160.503906 C 22.074219 160.320312 21.816406 157.171875 21.816406 157.171875 C 21.816406 157.171875 21.3125 156.988281 20.761719 156.988281 C 20.207031 156.988281 19.699219 157.171875 19.699219 157.171875 C 19.699219 157.171875 19.445312 160.320312 19.195312 160.503906 C 18.941406 160.6875 16.203125 160.503906 16.203125 160.503906 L 15.953125 161.980469 L 19.195312 161.980469 L 18.941406 165.308594 C 18.941406 165.308594 15.761719 165.925781 12.367188 166.148438 C 12.117188 166.808594 12.367188 167.820312 12.367188 167.820312 L 18.941406 167.339844 C 18.082031 169.527344 16.429688 174.582031 11.613281 174.214844 C 7.039062 174.03125 5.011719 169.78125 5.773438 168.480469 L 20.25 137.234375 C 21.261719 135.566406 21.070312 130.460938 17.191406 128.726562 C 14.527344 127.535156 10.089844 127.621094 8.054688 129.46875 C 6.914062 130.210938 6.277344 131.691406 6.375 132.9375 C 6.46875 134.183594 8.5625 139.082031 5.765625 141.488281 C 8.570312 140.5625 8.816406 140.929688 11.355469 142.597656 C 7.800781 138.347656 8.054688 138.160156 8.5625 135.664062 C 11.101562 136.496094 14.914062 136.128906 14.914062 135.019531 C 14.914062 133.90625 13.890625 132.058594 12.367188 132.796875 C 10.851562 133.539062 13.382812 134.460938 11.613281 134.460938 C 9.828125 134.460938 8.5625 134.089844 8.5625 132.796875 C 8.5625 131.507812 10.339844 130.027344 12.878906 130.027344 C 15.417969 130.027344 18.464844 131.316406 17.953125 135.941406 C 17.445312 140.5625 2.472656 166.265625 2.472656 169.40625 C 2.472656 172.550781 5.261719 176.621094 12.625 176.621094 C 17.445312 176.988281 19.160156 171.957031 20.910156 170.257812 Z M 20.910156 170.257812 "/>
<path style=" stroke:none;fill-rule:evenodd;fill:rgb(100%,89.411765%,0%);fill-opacity:1;" d="M 20.910156 85.574219 C 22.644531 83.875 24.070312 78.84375 28.894531 79.210938 C 36.257812 79.210938 39.046875 83.28125 39.046875 86.425781 C 39.046875 89.566406 24.070312 115.265625 23.566406 119.886719 C 23.054688 124.515625 26.097656 125.804688 28.644531 125.804688 C 31.175781 125.804688 32.957031 124.324219 32.957031 123.035156 C 32.957031 121.742188 31.691406 121.367188 29.910156 121.367188 C 28.132812 121.367188 30.671875 122.292969 29.148438 123.035156 C 27.628906 123.773438 26.609375 121.925781 26.609375 120.8125 C 26.609375 119.703125 30.417969 119.335938 32.957031 120.167969 C 33.46875 117.671875 33.71875 117.484375 30.160156 113.234375 C 32.707031 114.898438 32.949219 115.265625 35.75 114.34375 C 32.957031 116.75 35.050781 121.648438 35.144531 122.894531 C 35.238281 124.140625 34.609375 125.621094 33.46875 126.363281 C 31.433594 128.210938 26.992188 128.292969 24.328125 127.101562 C 20.449219 125.371094 20.257812 120.265625 21.273438 118.597656 L 35.746094 87.347656 C 36.503906 86.050781 34.476562 81.796875 29.910156 81.613281 C 25.089844 81.246094 23.433594 86.300781 22.578125 88.488281 L 29.148438 88.011719 C 29.148438 88.011719 29.40625 89.023438 29.148438 89.679688 C 25.753906 89.902344 22.578125 90.523438 22.578125 90.523438 L 22.328125 93.851562 L 25.570312 93.851562 L 25.316406 95.328125 C 25.316406 95.328125 22.578125 95.144531 22.328125 95.328125 C 22.074219 95.511719 21.816406 98.660156 21.816406 98.660156 C 21.816406 98.660156 21.3125 98.84375 20.761719 98.84375 C 20.207031 98.84375 19.699219 98.660156 19.699219 98.660156 C 19.699219 98.660156 19.445312 95.511719 19.195312 95.328125 C 18.941406 95.144531 16.203125 95.328125 16.203125 95.328125 L 15.953125 93.851562 L 19.195312 93.851562 L 18.941406 90.523438 C 18.941406 90.523438 15.761719 89.902344 12.367188 89.679688 C 12.117188 89.023438 12.367188 88.011719 12.367188 88.011719 L 18.941406 88.488281 C 18.082031 86.300781 16.429688 81.246094 11.613281 81.613281 C 7.039062 81.796875 5.011719 86.050781 5.773438 87.347656 L 20.25 118.597656 C 21.261719 120.265625 21.070312 125.371094 17.191406 127.101562 C 14.527344 128.292969 10.089844 128.210938 8.054688 126.363281 C 6.914062 125.621094 6.277344 124.140625 6.375 122.894531 C 6.46875 121.648438 8.5625 116.75 5.765625 114.34375 C 8.570312 115.265625 8.816406 114.898438 11.359375 113.234375 C 7.800781 117.484375 8.054688 117.671875 8.5625 120.167969 C 11.101562 119.335938 14.914062 119.703125 14.914062 120.8125 C 14.914062 121.925781 13.890625 123.773438 12.367188 123.035156 C 10.851562 122.292969 13.386719 121.367188 11.613281 121.367188 C 9.828125 121.367188 8.5625 121.742188 8.5625 123.035156 C 8.5625 124.324219 10.339844 125.804688 12.878906 125.804688 C 15.417969 125.804688 18.464844 124.515625 17.953125 119.886719 C 17.445312 115.265625 2.472656 89.566406 2.472656 86.425781 C 2.472656 83.28125 5.261719 79.210938 12.625 79.210938 C 17.445312 78.84375 19.160156 83.875 20.910156 85.574219 Z M 20.910156 85.574219 "/>
<path style=" stroke:none;fill-rule:evenodd;fill:rgb(100%,89.411765%,0%);fill-opacity:1;" d="M 20.910156 72.835938 C 22.644531 74.535156 24.070312 79.566406 28.894531 79.199219 C 36.257812 79.199219 39.046875 75.128906 39.046875 71.984375 C 39.046875 68.84375 24.070312 43.140625 23.566406 38.519531 C 23.054688 33.894531 26.097656 32.601562 28.644531 32.601562 C 31.175781 32.601562 32.957031 34.082031 32.957031 35.375 C 32.957031 36.667969 31.691406 37.039062 29.910156 37.039062 C 28.132812 37.039062 30.671875 36.117188 29.148438 35.375 C 27.628906 34.636719 26.609375 36.484375 26.609375 37.597656 C 26.609375 38.703125 30.417969 39.070312 32.957031 38.242188 C 33.46875 40.738281 33.71875 40.925781 30.160156 45.171875 C 32.707031 43.507812 32.949219 43.140625 35.75 44.066406 C 32.957031 41.660156 35.050781 36.761719 35.144531 35.515625 C 35.238281 34.265625 34.609375 32.785156 33.46875 32.046875 C 31.433594 30.199219 26.992188 30.113281 24.328125 31.304688 C 20.449219 33.039062 20.257812 38.140625 21.273438 39.8125 L 35.746094 71.058594 C 36.503906 72.355469 34.476562 76.609375 29.910156 76.792969 C 25.085938 77.160156 23.433594 72.105469 22.578125 69.917969 L 29.148438 70.398438 C 29.148438 70.398438 29.40625 69.382812 29.148438 68.726562 C 25.753906 68.503906 22.578125 67.886719 22.578125 67.886719 L 22.328125 64.558594 L 25.570312 64.558594 L 25.316406 63.082031 C 25.316406 63.082031 22.578125 63.265625 22.328125 63.082031 C 22.074219 62.898438 21.816406 59.746094 21.816406 59.746094 C 21.816406 59.746094 21.3125 59.5625 20.761719 59.5625 C 20.207031 59.5625 19.699219 59.746094 19.699219 59.746094 C 19.699219 59.746094 19.445312 62.898438 19.195312 63.082031 C 18.941406 63.265625 16.203125 63.082031 16.203125 63.082031 L 15.953125 64.558594 L 19.195312 64.558594 L 18.941406 67.886719 C 18.941406 67.886719 15.761719 68.503906 12.367188 68.726562 C 12.117188 69.382812 12.367188 70.398438 12.367188 70.398438 L 18.941406 69.917969 C 18.082031 72.105469 16.429688 77.160156 11.613281 76.792969 C 7.039062 76.609375 5.011719 72.355469 5.773438 71.058594 L 20.25 39.8125 C 21.261719 38.140625 21.070312 33.039062 17.191406 31.304688 C 14.527344 30.113281 10.089844 30.199219 8.054688 32.046875 C 6.914062 32.785156 6.277344 34.265625 6.375 35.515625 C 6.46875 36.761719 8.5625 41.660156 5.765625 44.066406 C 8.570312 43.140625 8.816406 43.507812 11.355469 45.171875 C 7.800781 40.925781 8.054688 40.738281 8.5625 38.242188 C 11.101562 39.070312 14.914062 38.703125 14.914062 37.597656 C 14.914062 36.484375 13.890625 34.636719 12.367188 35.375 C 10.851562 36.117188 13.382812 37.039062 11.613281 37.039062 C 9.828125 37.039062 8.5625 36.667969 8.5625 35.375 C 8.5625 34.082031 10.339844 32.601562 12.878906 32.601562 C 15.417969 32.601562 18.464844 33.894531 17.953125 38.519531 C 17.445312 43.140625 2.472656 68.84375 2.472656 71.984375 C 2.472656 75.128906 5.261719 79.199219 12.625 79.199219 C 17.445312 79.566406 19.160156 74.535156 20.910156 72.835938 Z M 20.910156 72.835938 "/>
<path style=" stroke:none;fill-rule:evenodd;fill:rgb(100%,89.411765%,0%);fill-opacity:1;" d="M 21.492188 6.855469 C 23.230469 5.15625 22.65625 2.300781 27.480469 2.667969 C 34.84375 2.667969 35.054688 7.171875 35.054688 10.316406 C 35.054688 13.457031 24.085938 17.851562 23.578125 22.472656 C 23.066406 27.097656 26.113281 28.390625 28.660156 28.390625 C 31.191406 28.390625 32.96875 26.90625 32.96875 25.617188 C 32.96875 24.324219 31.703125 23.953125 29.925781 23.953125 C 28.148438 23.953125 30.6875 24.875 29.164062 25.617188 C 27.640625 26.355469 26.625 24.507812 26.625 23.394531 C 26.625 22.289062 30.429688 21.921875 32.96875 22.75 C 33.484375 20.253906 33.730469 20.066406 30.175781 15.820312 C 32.722656 17.484375 32.960938 17.851562 35.765625 16.925781 C 32.96875 19.332031 35.0625 24.230469 35.160156 25.476562 C 35.253906 26.722656 34.625 28.207031 33.484375 28.945312 C 31.449219 30.792969 27.003906 30.878906 24.339844 29.6875 C 20.460938 27.953125 20.273438 22.851562 21.289062 21.179688 L 32.039062 10.15625 C 32.800781 8.859375 33.066406 5.257812 28.5 5.074219 C 23.675781 4.707031 22.019531 11.28125 21.164062 13.46875 C 20.015625 11.082031 18.734375 4.488281 13.910156 4.855469 C 9.335938 5.039062 8.457031 8.644531 9.21875 9.941406 L 20.265625 21.179688 C 21.273438 22.851562 21.085938 27.953125 17.203125 29.6875 C 14.539062 30.878906 10.105469 30.792969 8.070312 28.945312 C 6.929688 28.207031 6.292969 26.722656 6.386719 25.476562 C 6.484375 24.230469 8.574219 19.332031 5.78125 16.925781 C 8.582031 17.851562 8.832031 17.484375 11.371094 15.820312 C 7.816406 20.066406 8.070312 20.253906 8.574219 22.75 C 11.117188 21.921875 14.929688 22.289062 14.929688 23.394531 C 14.929688 24.507812 13.902344 26.355469 12.382812 25.617188 C 10.867188 24.875 13.398438 23.953125 11.628906 23.953125 C 9.84375 23.953125 8.574219 24.324219 8.574219 25.617188 C 8.574219 26.90625 10.355469 28.390625 12.894531 28.390625 C 15.433594 28.390625 18.480469 27.097656 17.964844 22.472656 C 17.460938 17.851562 6.203125 12.808594 6.203125 9.667969 C 6.203125 6.523438 6.988281 2.667969 14.351562 2.667969 C 19.175781 2.300781 19.746094 5.15625 21.492188 6.855469 Z M 21.492188 6.855469 "/>
<path style=" stroke:none;fill-rule:evenodd;fill:rgb(100%,89.411765%,0%);fill-opacity:1;" d="M 145.511719 72.226562 C 169.015625 72.226562 188.070312 90.277344 188.070312 112.550781 C 188.070312 134.820312 169.015625 152.875 145.511719 152.875 C 122.003906 152.875 102.949219 134.820312 102.949219 112.550781 C 102.949219 90.277344 122.003906 72.226562 145.511719 72.226562 Z M 145.511719 72.226562 "/>
<path style=" stroke:none;fill-rule:evenodd;fill:rgb(100%,89.411765%,0%);fill-opacity:1;" d="M 143.46875 48.175781 C 143.117188 48.175781 141.203125 61.597656 140.464844 64.617188 C 139.800781 71.332031 149.5 71.085938 147.910156 64.351562 L 143.472656 48.175781 Z M 143.46875 48.175781 "/>
<path style=" stroke:none;fill-rule:evenodd;fill:rgb(100%,89.411765%,0%);fill-opacity:1;" d="M 146.886719 178.105469 C 147.238281 178.132812 150.128906 164.867188 151.089844 161.90625 C 152.242188 155.25 142.550781 154.855469 143.640625 161.679688 Z M 146.886719 178.105469 "/>
<path style=" stroke:none;fill-rule:evenodd;fill:rgb(100%,89.411765%,0%);fill-opacity:1;" d="M 79.085938 112.304688 C 79.054688 112.640625 93.042969 115.445312 96.164062 116.367188 C 103.179688 117.492188 103.644531 108.308594 96.4375 109.308594 Z M 79.085938 112.304688 "/>
<path style=" stroke:none;fill-rule:evenodd;fill:rgb(100%,89.411765%,0%);fill-opacity:1;" d="M 214.945312 113.898438 C 214.960938 113.566406 200.863281 111.261719 197.703125 110.453125 C 190.640625 109.578125 190.585938 118.769531 197.742188 117.515625 Z M 214.945312 113.898438 "/>
<path style=" stroke:none;fill-rule:evenodd;fill:rgb(100%,89.411765%,0%);fill-opacity:1;" d="M 93.394531 69.820312 C 93.152344 70.066406 102.339844 80.445312 104.199219 82.996094 C 108.992188 87.980469 115.328125 81.023438 109.003906 77.597656 Z M 93.394531 69.820312 "/>
<path style=" stroke:none;fill-rule:evenodd;fill:rgb(100%,89.411765%,0%);fill-opacity:1;" d="M 198.976562 155.320312 C 199.191406 155.054688 189.089844 145.472656 187.007812 143.085938 C 181.773438 138.511719 176.097656 145.964844 182.710938 148.855469 Z M 198.976562 155.320312 "/>
<path style=" stroke:none;fill-rule:evenodd;fill:rgb(100%,89.411765%,0%);fill-opacity:1;" d="M 114.484375 55.308594 C 114.164062 55.449219 118.46875 68.367188 119.15625 71.394531 C 121.574219 77.738281 130.238281 73.601562 125.773438 68.148438 Z M 114.484375 55.308594 "/>
<path style=" stroke:none;fill-rule:evenodd;fill:rgb(100%,89.411765%,0%);fill-opacity:1;" d="M 175.988281 171.480469 C 176.320312 171.363281 172.972656 158.191406 172.511719 155.125 C 170.5625 148.640625 161.613281 152.195312 165.667969 157.929688 Z M 175.988281 171.480469 "/>
<path style=" stroke:none;fill-rule:evenodd;fill:rgb(100%,89.411765%,0%);fill-opacity:1;" d="M 191.078125 64.300781 C 190.824219 64.070312 179.722656 72.605469 177.003906 74.324219 C 171.664062 78.785156 178.90625 84.902344 182.621094 78.964844 Z M 191.078125 64.300781 "/>
<path style=" stroke:none;fill-rule:evenodd;fill:rgb(100%,89.411765%,0%);fill-opacity:1;" d="M 99.621094 161.164062 C 99.859375 161.414062 111.558594 153.628906 114.398438 152.09375 C 120.046875 147.992188 113.273438 141.414062 109.132812 147.09375 Z M 99.621094 161.164062 "/>
<path style=" stroke:none;fill-rule:evenodd;fill:rgb(100%,89.411765%,0%);fill-opacity:1;" d="M 82.074219 89.078125 C 81.929688 89.386719 94.136719 96.4375 96.757812 98.289062 C 102.980469 101.5625 106.636719 93.050781 99.492188 91.722656 L 82.074219 89.082031 Z M 82.074219 89.078125 "/>
<path style=" stroke:none;fill-rule:evenodd;fill:rgb(100%,89.411765%,0%);fill-opacity:1;" d="M 209.035156 138.300781 C 209.203125 138.003906 197.542969 130.167969 195.066406 128.144531 C 189.09375 124.472656 184.820312 132.722656 191.855469 134.519531 Z M 209.035156 138.300781 "/>
<path style=" stroke:none;fill-rule:evenodd;fill:rgb(100%,89.411765%,0%);fill-opacity:1;" d="M 168.683594 51.859375 C 168.355469 51.734375 161.398438 63.566406 159.546875 66.121094 C 156.339844 72.140625 165.464844 75.269531 166.582031 68.449219 Z M 168.683594 51.859375 "/>
<path style=" stroke:none;fill-rule:evenodd;fill:rgb(100%,89.411765%,0%);fill-opacity:1;" d="M 121.761719 173.984375 C 122.078125 174.132812 129.886719 162.785156 131.921875 160.359375 C 135.5625 154.566406 126.691406 150.84375 125.074219 157.570312 Z M 121.761719 173.984375 "/>
<path style=" stroke:none;fill-rule:evenodd;fill:rgb(100%,89.411765%,0%);fill-opacity:1;" d="M 83.019531 139.339844 C 83.148438 139.652344 97.011719 136.347656 100.246094 135.875 C 107.070312 133.964844 103.226562 125.523438 97.214844 129.421875 Z M 83.019531 139.339844 "/>
<path style=" stroke:none;fill-rule:evenodd;fill:rgb(100%,89.411765%,0%);fill-opacity:1;" d="M 209.066406 88.054688 C 208.960938 87.734375 194.886719 90.121094 191.628906 90.375 C 184.679688 91.835938 187.894531 100.507812 194.175781 97.011719 Z M 209.066406 88.054688 "/>
<path style=" stroke:none;fill-rule:evenodd;fill:rgb(100%,89.411765%,0%);fill-opacity:1;" d="M 157.308594 49.058594 C 156.964844 48.988281 152.238281 61.773438 150.875 64.589844 C 148.800781 71.039062 158.351562 72.648438 158.226562 65.746094 Z M 157.308594 49.058594 "/>
<path style=" stroke:none;fill-rule:evenodd;fill:rgb(100%,89.411765%,0%);fill-opacity:1;" d="M 133.074219 176.984375 C 133.414062 177.078125 139.066406 164.636719 140.632812 161.917969 C 143.175781 155.617188 133.765625 153.386719 133.382812 160.277344 Z M 133.074219 176.984375 "/>
<path style=" stroke:none;fill-rule:evenodd;fill:rgb(100%,89.411765%,0%);fill-opacity:1;" d="M 128.191406 50.320312 C 127.84375 50.390625 129.148438 63.878906 129.140625 66.976562 C 130.078125 73.664062 139.472656 71.371094 136.335938 65.140625 Z M 128.191406 50.320312 "/>
<path style=" stroke:none;fill-rule:evenodd;fill:rgb(100%,89.411765%,0%);fill-opacity:1;" d="M 162.195312 176.230469 C 162.546875 176.179688 162.230469 162.636719 162.46875 159.550781 C 162.019531 152.816406 152.480469 154.488281 155.152344 160.910156 Z M 162.195312 176.230469 "/>
<path style=" stroke:none;fill-rule:evenodd;fill:rgb(100%,89.411765%,0%);fill-opacity:1;" d="M 104.078125 61.546875 C 103.789062 61.738281 110.460938 73.71875 111.710938 76.582031 C 115.289062 82.410156 123.03125 76.875 117.609375 72.265625 Z M 104.078125 61.546875 "/>
<path style=" stroke:none;fill-rule:evenodd;fill:rgb(100%,89.411765%,0%);fill-opacity:1;" d="M 186.511719 165.429688 C 186.8125 165.257812 181.035156 152.867188 180 149.929688 C 176.859375 143.878906 168.726562 148.890625 173.796875 153.847656 Z M 186.511719 165.429688 "/>
<path style=" stroke:none;fill-rule:evenodd;fill:rgb(100%,89.411765%,0%);fill-opacity:1;" d="M 86.5 78.320312 C 86.300781 78.597656 97.0625 87.515625 99.3125 89.765625 C 104.859375 93.992188 109.992188 86.191406 103.1875 83.730469 Z M 86.5 78.320312 "/>
<path style=" stroke:none;fill-rule:evenodd;fill:rgb(100%,89.411765%,0%);fill-opacity:1;" d="M 203.59375 148.128906 C 203.8125 147.867188 193.730469 138.261719 191.652344 135.871094 C 186.429688 131.289062 180.738281 138.730469 187.34375 141.632812 Z M 203.59375 148.128906 "/>
<path style=" stroke:none;fill-rule:evenodd;fill:rgb(100%,89.411765%,0%);fill-opacity:1;" d="M 78.785156 99.265625 C 78.695312 99.589844 91.953125 104.65625 94.855469 106.078125 C 101.5625 108.34375 103.703125 99.378906 96.421875 99.175781 Z M 78.785156 99.265625 "/>
<path style=" stroke:none;fill-rule:evenodd;fill:rgb(100%,89.411765%,0%);fill-opacity:1;" d="M 212.519531 128.175781 C 212.632812 127.859375 199.777344 121.929688 196.988281 120.320312 C 190.464844 117.617188 187.671875 126.421875 194.917969 127.105469 Z M 212.519531 128.175781 "/>
<path style=" stroke:none;fill-rule:evenodd;fill:rgb(100%,89.411765%,0%);fill-opacity:1;" d="M 78.351562 124.980469 C 78.398438 125.3125 92.695312 125.109375 95.953125 125.355469 C 103.058594 124.980469 101.363281 115.929688 94.570312 118.417969 Z M 78.351562 124.980469 "/>
<path style=" stroke:none;fill-rule:evenodd;fill:rgb(100%,89.411765%,0%);fill-opacity:1;" d="M 213.453125 102.484375 C 213.429688 102.148438 199.15625 101.410156 195.921875 100.953125 C 188.804688 100.859375 189.832031 110 196.792969 107.964844 Z M 213.453125 102.484375 "/>
<path style=" stroke:none;fill-rule:evenodd;fill:rgb(100%,89.411765%,0%);fill-opacity:1;" d="M 90.589844 151.714844 C 90.789062 151.992188 103.554688 145.894531 106.597656 144.765625 C 112.816406 141.484375 107.117188 134.046875 102.152344 139.097656 Z M 90.589844 151.714844 "/>
<path style=" stroke:none;fill-rule:evenodd;fill:rgb(100%,89.411765%,0%);fill-opacity:1;" d="M 201.738281 75.550781 C 201.5625 75.257812 188.382812 80.503906 185.261719 81.429688 C 178.816406 84.292969 183.957031 92.089844 189.28125 87.378906 L 201.742188 75.550781 Z M 201.738281 75.550781 "/>
<path style=" stroke:none;fill-rule:evenodd;fill:rgb(100%,89.411765%,0%);fill-opacity:1;" d="M 111.414062 169.386719 C 111.714844 169.566406 120.851562 159.148438 123.167969 156.960938 C 127.488281 151.601562 119.132812 146.9375 116.703125 153.445312 Z M 111.414062 169.386719 "/>
<path style=" stroke:none;fill-rule:evenodd;fill:rgb(100%,89.411765%,0%);fill-opacity:1;" d="M 181.269531 57.53125 C 180.984375 57.332031 171.105469 67.121094 168.636719 69.152344 C 163.933594 74.214844 171.925781 79.417969 174.824219 73.085938 Z M 181.269531 57.53125 "/>
<path style=" stroke:none;fill-rule:evenodd;fill:rgb(100%,89.411765%,0%);fill-opacity:1;" d="M 80.476562 139.40625 C 81.160156 141.984375 81.328125 156.488281 96.675781 170.347656 C 112.019531 184.207031 138.105469 187.269531 138.105469 187.269531 C 138.105469 187.269531 138.277344 189.203125 136.402344 189.367188 C 134.523438 189.527344 125.660156 187.753906 121.226562 186.464844 C 116.792969 185.175781 112.871094 182.917969 112.359375 183.082031 C 111.847656 183.242188 110.996094 184.691406 109.632812 184.53125 C 108.269531 184.371094 101.960938 178.085938 99.230469 176.472656 C 96.503906 174.859375 87.296875 165.351562 84.226562 160.679688 C 81.160156 156.003906 80.476562 152.941406 79.453125 152.941406 C 78.429688 152.941406 74.851562 155.199219 74.851562 155.199219 C 74.851562 155.199219 71.609375 150.523438 68.710938 143.109375 C 65.8125 135.699219 66.15625 131.347656 66.835938 131.023438 C 67.519531 130.703125 67.519531 136.503906 69.734375 141.820312 C 71.953125 147.140625 75.019531 148.753906 75.019531 148.753906 C 75.019531 148.753906 72.972656 146.011719 71.441406 139.082031 C 69.90625 132.152344 69.394531 125.542969 70.417969 123.449219 C 71.441406 121.355469 72.460938 120.710938 72.632812 120.871094 C 72.804688 121.03125 70.757812 124.09375 72.121094 131.992188 C 73.484375 139.886719 77.40625 146.65625 78.261719 146.335938 C 79.113281 146.011719 77.75 144.402344 77.066406 139.726562 C 76.382812 135.054688 77.75 132.152344 78.941406 131.832031 C 79.453125 131.347656 80.304688 136.988281 80.476562 139.40625 Z M 80.476562 139.40625 "/>
<path style=" stroke:none;fill-rule:evenodd;fill:rgb(100%,89.411765%,0%);fill-opacity:1;" d="M 69.734375 152.617188 C 66.835938 150.039062 62.230469 141.015625 61.210938 141.496094 C 60.1875 141.980469 68.710938 154.875 68.882812 156.003906 C 69.050781 157.128906 70.925781 160.675781 69.5625 160.191406 C 68.199219 159.710938 57.96875 149.558594 59.164062 151.492188 C 60.355469 153.425781 68.027344 162.289062 67.515625 162.773438 C 67.003906 163.253906 61.210938 157.9375 61.039062 158.582031 C 60.867188 159.226562 66.835938 164.542969 66.664062 165.1875 C 66.496094 165.832031 62.914062 161.804688 62.914062 162.609375 C 62.914062 163.417969 66.664062 167.445312 66.664062 168.089844 C 66.664062 168.734375 63.425781 165.1875 64.449219 167.125 C 65.472656 169.058594 68.371094 170.832031 68.199219 171.476562 C 68.027344 172.121094 65.8125 170.667969 65.8125 170.992188 C 65.8125 171.3125 70.074219 172.765625 71.097656 173.890625 C 72.121094 175.019531 79.113281 182.59375 84.398438 186.464844 C 89.683594 190.332031 104.6875 196.9375 105.710938 196.9375 C 106.734375 196.9375 108.265625 194.84375 107.925781 194.039062 C 107.585938 193.230469 92.921875 188.558594 88.828125 185.011719 C 84.738281 181.464844 74.679688 173.085938 73.824219 172.601562 C 72.972656 172.121094 70.757812 172.28125 70.757812 171.796875 C 70.757812 171.3125 73.65625 172.121094 73.484375 171.796875 C 73.316406 171.476562 69.394531 169.863281 69.5625 169.539062 C 69.734375 169.21875 72.292969 170.1875 72.292969 169.863281 C 72.292969 169.539062 67.6875 167.125 67.859375 166.640625 C 68.027344 166.15625 71.269531 168.089844 71.269531 167.769531 C 71.269531 167.445312 66.835938 164.542969 67.003906 164.0625 C 67.175781 163.578125 70.414062 166.316406 70.246094 165.671875 C 70.074219 165.027344 67.6875 161.644531 67.6875 161.160156 C 67.6875 160.675781 71.609375 164.707031 71.949219 163.898438 C 72.292969 163.09375 70.585938 156.484375 70.757812 156.324219 C 70.925781 156.164062 73.644531 157.792969 74.15625 156.824219 C 74.664062 155.859375 72.152344 154.511719 69.734375 152.617188 Z M 69.734375 152.617188 "/>
<path style=" stroke:none;fill-rule:evenodd;fill:rgb(100%,89.411765%,0%);fill-opacity:1;" d="M 120.046875 203.367188 C 117.980469 203.625 117.050781 202.960938 118.222656 201.371094 C 119.847656 201.257812 124.167969 199.949219 125.695312 199.347656 C 127.222656 198.75 128.851562 197.890625 130.210938 196.734375 C 131.5625 195.476562 132.285156 197.542969 131.609375 198.613281 C 131.046875 199.363281 128.511719 200.71875 126.648438 201.4375 C 123.945312 202.289062 121.621094 203.464844 120.046875 203.367188 Z M 120.046875 203.367188 "/>
<path style=" stroke:none;fill-rule:evenodd;fill:rgb(100%,89.411765%,0%);fill-opacity:1;" d="M 133.671875 198.074219 C 132.308594 196.621094 133.503906 195.65625 135.546875 194.527344 C 138.617188 192.917969 137.765625 190.820312 141.6875 189.046875 C 143.390625 188.082031 167.773438 178.734375 175.785156 173.738281 C 183.800781 168.742188 206.136719 152.785156 212.101562 141.828125 C 218.070312 130.867188 215.171875 130.0625 216.023438 129.578125 C 216.875 129.097656 217.730469 131.191406 217.558594 133.609375 C 217.386719 136.023438 215.511719 143.277344 216.023438 143.921875 C 216.535156 144.566406 225.058594 138.28125 228.46875 130.546875 C 231.878906 122.808594 234.609375 114.75 236.3125 114.75 C 238.019531 114.75 233.414062 127.96875 230.515625 133.125 C 227.617188 138.28125 224.207031 140.859375 225.058594 141.988281 C 225.914062 143.117188 234.4375 136.347656 237.335938 131.351562 C 240.234375 126.355469 242.964844 121.84375 243.472656 122.808594 C 243.984375 123.777344 240.746094 134.414062 236.144531 139.410156 C 231.539062 144.40625 226.085938 147.953125 226.9375 148.757812 C 227.789062 149.5625 233.925781 150.371094 240.40625 146.179688 C 246.882812 141.988281 247.566406 135.863281 248.417969 136.1875 C 249.273438 136.507812 247.566406 144.890625 241.429688 150.046875 C 235.289062 155.203125 226.9375 155.6875 227.277344 156.816406 C 227.617188 157.945312 245.011719 152.140625 244.667969 153.433594 C 244.328125 154.722656 222.164062 162.941406 221.992188 163.746094 C 221.992188 164.390625 225.742188 164.550781 231.710938 163.261719 C 237.679688 161.972656 243.304688 157.621094 244.15625 158.589844 C 244.328125 160.039062 239.894531 163.585938 233.074219 165.195312 C 226.253906 166.808594 222.84375 169.066406 222.675781 169.546875 C 222.503906 170.03125 234.78125 168.097656 234.78125 168.742188 C 234.78125 169.386719 218.753906 172.289062 218.582031 173.09375 C 218.410156 173.898438 233.925781 170.191406 233.585938 171 C 233.246094 171.804688 212.613281 177.605469 212.785156 177.929688 C 212.957031 178.25 230.003906 174.382812 229.664062 175.027344 C 229.324219 175.671875 200.851562 183.246094 200.679688 183.730469 C 200.507812 184.214844 225.742188 178.410156 225.570312 178.894531 C 225.402344 179.378906 212.445312 182.441406 212.445312 182.761719 C 212.445312 183.085938 222.84375 181.152344 222.675781 181.632812 C 222.503906 182.117188 196.417969 188.402344 195.90625 189.371094 C 195.394531 190.339844 209.375 186.792969 209.203125 188.566406 C 209.035156 190.339844 179.027344 200.007812 178.855469 198.234375 C 178.683594 196.460938 197.097656 191.949219 196.929688 191.464844 C 196.757812 190.984375 186.359375 192.59375 186.1875 191.628906 C 186.015625 190.660156 193.007812 188.566406 192.496094 188.082031 C 191.984375 187.597656 186.699219 189.53125 187.210938 188.402344 C 187.722656 187.277344 197.609375 182.925781 197.441406 182.601562 C 197.269531 182.28125 193.859375 183.730469 194.199219 182.601562 C 194.542969 181.472656 215.683594 175.671875 215.34375 175.027344 C 215 174.382812 205.625 176.476562 204.773438 176.636719 C 204.429688 175.996094 217.898438 171.320312 217.558594 170.515625 C 217.21875 169.710938 210.398438 173.253906 210.058594 172.289062 C 209.714844 171.320312 221.820312 166.808594 221.140625 166.164062 C 220.457031 165.519531 214.832031 167.9375 214.148438 167.292969 C 213.46875 166.648438 225.570312 158.589844 223.695312 158.425781 C 221.820312 158.265625 219.605469 160.847656 219.265625 159.234375 C 219.605469 157.136719 228.8125 153.753906 226.765625 152.140625 C 223.527344 151.175781 212.445312 152.789062 207.839844 155.367188 C 203.238281 157.945312 188.0625 172.289062 184.3125 174.542969 C 180.558594 176.800781 167.941406 181.796875 165.554688 182.761719 C 161.804688 184.050781 161.121094 185.988281 157.371094 187.757812 C 150.550781 189.53125 150.550781 191.464844 147.3125 192.59375 C 146.121094 192.917969 133.84375 198.558594 133.671875 198.074219 Z M 133.671875 198.074219 "/>
<path style=" stroke:none;fill-rule:evenodd;fill:rgb(100%,89.411765%,0%);fill-opacity:1;" d="M 116.453125 205.324219 C 114.40625 206.289062 112.53125 208.871094 113.722656 209.835938 C 114.40625 211.125 116.453125 207.097656 118.15625 207.257812 C 119.863281 207.417969 122.25 207.417969 126.855469 207.742188 C 131.457031 208.0625 133.84375 206.773438 136.402344 206.933594 C 138.960938 207.097656 144.757812 205.644531 147.484375 205.644531 C 150.214844 205.644531 150.722656 205.96875 151.066406 204.839844 C 151.40625 203.710938 142.539062 204.515625 138.617188 204.355469 C 134.695312 204.195312 129.75 205.164062 126.855469 205.164062 C 124.125 205 119.351562 204.195312 116.453125 205.324219 Z M 116.453125 205.324219 "/>
<path style=" stroke:none;fill-rule:evenodd;fill:rgb(100%,89.411765%,0%);fill-opacity:1;" d="M 127.707031 202.582031 C 128.742188 202.582031 129.582031 203.269531 129.582031 204.113281 C 129.582031 204.960938 128.742188 205.644531 127.707031 205.644531 C 126.667969 205.644531 125.828125 204.960938 125.828125 204.113281 C 125.828125 203.269531 126.667969 202.582031 127.707031 202.582031 Z M 127.707031 202.582031 "/>
<path style=" stroke:none;fill-rule:evenodd;fill:rgb(100%,89.411765%,0%);fill-opacity:1;" d="M 173.101562 201.128906 C 174.976562 200.804688 179.984375 202.417969 183.441406 203.222656 C 189.804688 205.480469 201.558594 204.351562 201.558594 205.480469 C 201.558594 206.609375 200.828125 208.058594 198.023438 208.21875 C 195.214844 208.382812 188.464844 207.253906 188.652344 207.253906 C 188.839844 207.253906 194.078125 209.507812 192.582031 210.15625 C 191.085938 210.800781 186.59375 208.863281 185.847656 209.347656 C 185.097656 209.832031 189.960938 210.800781 189.214844 211.121094 C 188.464844 211.445312 185.085938 210.636719 183.964844 210.800781 C 182.84375 210.960938 184.910156 212.089844 183.601562 212.570312 C 182.292969 213.054688 180.09375 211.929688 179.15625 212.25 C 178.222656 212.574219 181.171875 214.34375 179.859375 214.507812 C 178.550781 214.667969 175.398438 213.699219 173.714844 213.539062 C 172.03125 213.378906 175.371094 215.152344 174.25 215.3125 C 173.125 215.472656 170.074219 214.023438 169.324219 214.023438 C 168.578125 214.023438 169.386719 215.957031 168.265625 215.957031 C 167.140625 215.957031 165.820312 214.34375 165.257812 214.34375 C 164.699219 214.34375 165.269531 216.277344 164.148438 216.277344 C 163.027344 216.277344 162.625 214.183594 161.6875 214.34375 C 160.582031 214.507812 161.714844 217.085938 160.21875 216.921875 C 158.722656 216.761719 158.523438 214.183594 157.402344 214.34375 C 156.28125 214.507812 157.601562 216.921875 156.480469 216.921875 C 155.359375 216.921875 155.175781 214.507812 154.050781 214.34375 C 152.929688 214.183594 153.484375 216.601562 152.738281 216.601562 C 151.988281 216.601562 151.433594 214.34375 151.058594 214.34375 C 150.6875 214.34375 151.054688 216.601562 149.746094 216.441406 C 148.433594 216.277344 148.441406 213.863281 148.066406 214.023438 C 147.691406 214.183594 147.6875 215.796875 146.753906 215.796875 C 145.816406 215.796875 145.820312 214.183594 145.449219 214.34375 C 145.074219 214.507812 143.757812 216.601562 142.824219 216.277344 C 141.890625 215.957031 143.050781 214.34375 142.675781 214.34375 C 142.300781 214.34375 141.140625 215.472656 140.394531 215.3125 C 139.644531 215.152344 140.429688 213.863281 140.242188 213.863281 C 140.054688 213.863281 138.335938 214.667969 137.585938 214.667969 C 136.839844 214.667969 134.78125 215.796875 134.21875 214.828125 C 133.660156 213.863281 135.683594 213.863281 136.058594 212.894531 C 136.429688 211.925781 134.96875 209.1875 136.464844 208.21875 C 137.960938 207.253906 142.636719 209.507812 149.558594 207.898438 C 162.277344 204.675781 172.09375 200.96875 173.101562 201.128906 Z M 173.101562 201.128906 "/>
</g>
</svg>
