<?xml version="1.0" encoding="UTF-8"?>
<svg xmlns="http://www.w3.org/2000/svg" xmlns:xlink="http://www.w3.org/1999/xlink" width="40px" height="40px" viewBox="0 0 256 256" version="1.1">
<defs>
<clipPath id="clip1">
  <path d="M 0 191 L 255.992188 191 L 255.992188 255.992188 L 0 255.992188 Z M 0 191 "/>
</clipPath>
<clipPath id="clip2">
  <path d="M 0 0 L 255.992188 0 L 255.992188 64 L 0 64 Z M 0 0 "/>
</clipPath>
<clipPath id="clip3">
  <path d="M 0 64 L 255.992188 64 L 255.992188 192 L 0 192 Z M 0 64 "/>
</clipPath>
</defs>
<g id="surface1">
<g clip-path="url(#clip1)" clip-rule="nonzero">
<path style=" stroke:none;fill-rule:evenodd;fill:rgb(100%,0%,0%);fill-opacity:1;" d="M -64 191.996094 L 319.988281 191.996094 L 319.988281 255.996094 L -64 255.996094 Z M -64 191.996094 "/>
</g>
<g clip-path="url(#clip2)" clip-rule="nonzero">
<path style=" stroke:none;fill-rule:evenodd;fill:rgb(100%,0%,0%);fill-opacity:1;" d="M -64 0 L 319.988281 0 L 319.988281 64 L -64 64 Z M -64 0 "/>
</g>
<g clip-path="url(#clip3)" clip-rule="nonzero">
<path style=" stroke:none;fill-rule:evenodd;fill:rgb(100%,100%,100%);fill-opacity:1;" d="M -64 64 L 319.988281 64 L 319.988281 191.996094 L -64 191.996094 Z M -64 64 "/>
</g>
<path style=" stroke:none;fill-rule:nonzero;fill:rgb(0%,47.450981%,0%);fill-opacity:1;" d="M 126.039062 64.96875 C 122.136719 72.765625 119.53125 72.765625 113.023438 77.964844 C 110.421875 80.5625 106.515625 81.863281 111.722656 84.464844 C 106.515625 87.0625 103.914062 88.359375 101.308594 93.558594 L 102.609375 94.859375 C 102.609375 94.859375 107.558594 92.433594 107.816406 93.558594 C 108.683594 94.597656 101.304688 98.585938 100.351562 99.191406 C 99.402344 99.796875 94.800781 102.65625 94.800781 102.65625 C 88.292969 107.851562 84.386719 106.554688 80.480469 114.351562 L 93.5 113.050781 C 96.101562 122.148438 86.992188 123.445312 80.480469 127.34375 L 70.070312 133.84375 C 72.671875 142.9375 80.480469 137.742188 86.992188 135.140625 L 88.292969 136.441406 L 88.292969 139.039062 L 75.277344 145.539062 C 75.277344 145.539062 59.910156 154.328125 59.65625 154.632812 C 59.550781 155.105469 59.65625 157.230469 59.65625 157.230469 C 64.863281 158.53125 72.671875 159.832031 77.878906 157.230469 C 84.386719 154.632812 85.6875 152.035156 93.5 152.035156 C 84.386719 158.53125 77.878906 161.132812 67.464844 162.429688 L 67.464844 167.628906 C 75.277344 167.628906 80.480469 167.628906 86.992188 166.328125 L 103.914062 161.132812 C 107.816406 161.132812 111.722656 165.027344 110.421875 168.925781 C 106.515625 183.222656 90.894531 180.621094 85.6875 192.316406 L 106.515625 184.519531 C 111.722656 181.921875 116.929688 179.324219 123.4375 180.621094 C 131.246094 183.222656 131.246094 188.417969 141.660156 191.019531 L 139.058594 184.519531 C 141.660156 185.820312 144.265625 185.820312 146.867188 187.121094 C 153.375 189.71875 154.675781 192.316406 162.488281 191.019531 C 155.980469 183.222656 154.675781 184.519531 149.46875 179.324219 C 144.265625 171.527344 141.660156 159.832031 149.46875 158.53125 L 158.582031 161.132812 C 167.695312 162.429688 167.695312 159.832031 180.710938 165.027344 C 188.519531 167.628906 191.125 171.527344 200.234375 168.925781 C 196.332031 159.832031 182.011719 153.332031 172.902344 150.734375 C 183.3125 144.238281 180.710938 153.332031 195.027344 149.433594 L 195.027344 146.835938 C 184.617188 139.039062 180.710938 132.542969 166.390625 132.542969 C 166.390625 132.542969 188.519531 129.945312 188.519531 129.945312 L 188.519531 127.34375 C 188.519531 127.34375 166.695312 121.617188 166.1875 121.414062 C 166.339844 120.757812 166.875 119.734375 168.324219 119.167969 C 172.46875 121.851562 185 121.539062 185.714844 121.488281 C 185.347656 118.289062 179.410156 115.648438 174.203125 113.050781 C 174.203125 113.050781 151.90625 99.308594 151.796875 98.09375 C 152.238281 94.609375 160.953125 98.648438 170.296875 101.355469 C 167.695312 96.15625 162.488281 93.558594 157.28125 92.257812 L 165.089844 90.960938 C 159.882812 79.265625 146.867188 80.5625 139.058594 75.367188 C 133.851562 71.46875 133.851562 68.867188 126.039062 64.96875 Z M 126.039062 64.96875 "/>
<path style="fill-rule:evenodd;fill:rgb(100%,100%,100%);fill-opacity:1;stroke-width:3.1188;stroke-linecap:round;stroke-linejoin:round;stroke:rgb(100%,100%,100%);stroke-opacity:1;stroke-miterlimit:4;" d="M 341.006819 293.62919 C 342.88406 287.626561 345.344153 282.320329 334.118557 277.203334 C 322.885391 272.086339 339.72757 297.663743 341.006819 293.62919 Z M 341.006819 293.62919 " transform="matrix(0.51605,0,0,0.51605,-64,0.0000059215)"/>
<path style="fill-rule:evenodd;fill:rgb(100%,100%,100%);fill-opacity:1;stroke-width:3.1188;stroke-linecap:round;stroke-linejoin:round;stroke:rgb(100%,100%,100%);stroke-opacity:1;stroke-miterlimit:4;" d="M 354.306463 281.631503 C 352.043177 281.926714 350.862332 290.192628 355.388905 292.448345 C 360.422635 293.235575 356.282108 281.729906 354.306463 281.631503 Z M 354.306463 281.631503 " transform="matrix(0.51605,0,0,0.51605,-64,0.0000059215)"/>
<path style="fill-rule:evenodd;fill:rgb(100%,100%,100%);fill-opacity:1;stroke-width:3.1188;stroke-linecap:round;stroke-linejoin:round;stroke:rgb(100%,100%,100%);stroke-opacity:1;stroke-miterlimit:4;" d="M 367.41687 280.753438 C 365.05518 281.442265 364.956776 293.046337 373.23026 290.979858 C 381.511314 288.91338 373.131856 279.769401 367.41687 280.753438 Z M 367.41687 280.753438 " transform="matrix(0.51605,0,0,0.51605,-64,0.0000059215)"/>
<path style="fill-rule:evenodd;fill:rgb(100%,100%,100%);fill-opacity:1;stroke-width:3.1188;stroke-linecap:round;stroke-linejoin:round;stroke:rgb(100%,100%,100%);stroke-opacity:1;stroke-miterlimit:4;" d="M 382.692159 250.937104 C 384.463426 248.083396 382.593755 236.38092 375.493546 241.301107 C 368.400907 246.221294 380.421303 251.724334 382.692159 250.937104 Z M 382.692159 250.937104 " transform="matrix(0.51605,0,0,0.51605,-64,0.0000059215)"/>
<path style="fill-rule:evenodd;fill:rgb(100%,100%,100%);fill-opacity:1;stroke-width:3.1188;stroke-linecap:round;stroke-linejoin:round;stroke:rgb(100%,100%,100%);stroke-opacity:1;stroke-miterlimit:4;" d="M 367.220062 241.210273 C 369.392514 240.423043 369.589322 233.239569 363.382316 235.10924 C 357.175311 236.978912 365.547199 242.686329 367.220062 241.210273 Z M 367.220062 241.210273 " transform="matrix(0.51605,0,0,0.51605,-64,0.0000059215)"/>
<path style="fill-rule:evenodd;fill:rgb(100%,100%,100%);fill-opacity:1;stroke-width:3.1188;stroke-linecap:round;stroke-linejoin:round;stroke:rgb(100%,100%,100%);stroke-opacity:1;stroke-miterlimit:4;" d="M 353.231592 244.056412 C 353.231592 244.056412 348.894258 238.061353 345.540961 239.340601 C 341.3096 243.367585 353.526803 244.154815 353.231592 244.056412 Z M 353.231592 244.056412 " transform="matrix(0.51605,0,0,0.51605,-64,0.0000059215)"/>
<path style="fill-rule:evenodd;fill:rgb(100%,100%,100%);fill-opacity:1;stroke-width:3.1188;stroke-linecap:round;stroke-linejoin:round;stroke:rgb(100%,100%,100%);stroke-opacity:1;stroke-miterlimit:4;" d="M 305.180287 263.230003 C 307.027249 263.396532 320.70537 260.974286 325.436319 255.660484 C 330.167268 250.354251 301.092747 257.938909 301.092747 258.037313 C 301.092747 258.135716 303.840482 262.730414 305.180287 263.230003 Z M 305.180287 263.230003 " transform="matrix(0.51605,0,0,0.51605,-64,0.0000059215)"/>
<path style="fill-rule:evenodd;fill:rgb(100%,100%,100%);fill-opacity:1;stroke-width:3.1188;stroke-linecap:round;stroke-linejoin:round;stroke:rgb(100%,100%,100%);stroke-opacity:1;stroke-miterlimit:4;" d="M 441.908504 229.356406 C 442.612469 228.107436 434.626627 222.407588 429.880538 224.655735 C 428.654276 228.856818 441.870656 230.226901 441.908504 229.356406 Z M 441.908504 229.356406 " transform="matrix(0.51605,0,0,0.51605,-64,0.0000059215)"/>
<path style="fill-rule:evenodd;fill:rgb(100%,100%,100%);fill-opacity:1;stroke-width:3.1188;stroke-linecap:round;stroke-linejoin:round;stroke:rgb(100%,100%,100%);stroke-opacity:1;stroke-miterlimit:4;" d="M 414.998865 215.829676 C 416.48249 213.664794 411.554734 204.816026 401.69922 209.728644 C 391.843707 214.648831 412.046752 219.273807 414.998865 215.829676 Z M 414.998865 215.829676 " transform="matrix(0.51605,0,0,0.51605,-64,0.0000059215)"/>
<path style="fill-rule:evenodd;fill:rgb(100%,100%,100%);fill-opacity:1;stroke-width:3.1188;stroke-linecap:round;stroke-linejoin:round;stroke:rgb(100%,100%,100%);stroke-opacity:1;stroke-miterlimit:4;" d="M 383.873004 210.621847 C 383.873004 210.621847 386.333097 202.651144 392.244891 204.225604 C 398.943915 209.342599 384.168215 210.917059 383.873004 210.621847 Z M 383.873004 210.621847 " transform="matrix(0.51605,0,0,0.51605,-64,0.0000059215)"/>
<path style="fill-rule:evenodd;fill:rgb(100%,100%,100%);fill-opacity:1;stroke-width:3.1188;stroke-linecap:round;stroke-linejoin:round;stroke:rgb(100%,100%,100%);stroke-opacity:1;stroke-miterlimit:4;" d="M 378.059613 204.619219 C 377.17398 202.355933 370.966974 203.733585 363.874335 208.358561 C 356.774127 212.983537 380.224496 209.736214 378.059613 204.619219 Z M 378.059613 204.619219 " transform="matrix(0.51605,0,0,0.51605,-64,0.0000059215)"/>
<path style="fill-rule:evenodd;fill:rgb(100%,100%,100%);fill-opacity:1;stroke-width:3.1188;stroke-linecap:round;stroke-linejoin:round;stroke:rgb(100%,100%,100%);stroke-opacity:1;stroke-miterlimit:4;" d="M 396.188611 183.167203 C 396.188611 183.167203 402.509159 180.343772 404.37126 183.167203 C 407.028161 187.398564 396.090207 183.265607 396.188611 183.167203 Z M 396.188611 183.167203 " transform="matrix(0.51605,0,0,0.51605,-64,0.0000059215)"/>
<path style="fill-rule:evenodd;fill:rgb(100%,100%,100%);fill-opacity:1;stroke-width:3.1188;stroke-linecap:round;stroke-linejoin:round;stroke:rgb(100%,100%,100%);stroke-opacity:1;stroke-miterlimit:4;" d="M 390.882378 180.411898 C 389.59556 177.853401 382.608894 177.611176 382.782993 181.305101 C 381.609717 184.204227 391.873985 183.659222 390.882378 180.411898 Z M 390.882378 180.411898 " transform="matrix(0.51605,0,0,0.51605,-64,0.0000059215)"/>
<path style="fill-rule:evenodd;fill:rgb(100%,100%,100%);fill-opacity:1;stroke-width:3.1188;stroke-linecap:round;stroke-linejoin:round;stroke:rgb(100%,100%,100%);stroke-opacity:1;stroke-miterlimit:4;" d="M 374.206728 180.419468 C 373.517902 178.943411 363.571554 180.449746 360.611873 186.422096 C 365.357961 188.730799 376.37918 184.15881 374.206728 180.419468 Z M 374.206728 180.419468 " transform="matrix(0.51605,0,0,0.51605,-64,0.0000059215)"/>
<path style="fill-rule:evenodd;fill:rgb(100%,100%,100%);fill-opacity:1;stroke-width:3.1188;stroke-linecap:round;stroke-linejoin:round;stroke:rgb(100%,100%,100%);stroke-opacity:1;stroke-miterlimit:4;" d="M 352.928811 186.5205 C 352.928811 186.5205 339.841113 194.521481 339.038744 200.387858 C 339.432359 205.451866 355.290501 191.243879 355.290501 191.243879 C 355.290501 191.243879 356.675723 185.634866 352.928811 186.5205 Z M 352.928811 186.5205 " transform="matrix(0.51605,0,0,0.51605,-64,0.0000059215)"/>
<path style="fill-rule:evenodd;fill:rgb(100%,100%,100%);fill-opacity:1;stroke-width:3.1188;stroke-linecap:round;stroke-linejoin:round;stroke:rgb(100%,100%,100%);stroke-opacity:1;stroke-miterlimit:4;" d="M 338.448322 179.238623 C 338.819228 177.611176 344.92026 173.841556 345.442557 174.121628 C 345.942145 175.764214 340.461814 180.207521 338.448322 179.238623 Z M 338.448322 179.238623 " transform="matrix(0.51605,0,0,0.51605,-64,0.0000059215)"/>
<path style="fill-rule:evenodd;fill:rgb(100%,100%,100%);fill-opacity:1;stroke-width:3.1188;stroke-linecap:round;stroke-linejoin:round;stroke:rgb(100%,100%,100%);stroke-opacity:1;stroke-miterlimit:4;" d="M 342.588848 209.827048 C 342.88406 207.465358 327.018348 207.662165 333.036116 214.944043 C 338.039568 221.052644 343.67129 210.909489 342.588848 209.827048 Z M 342.588848 209.827048 " transform="matrix(0.51605,0,0,0.51605,-64,0.0000059215)"/>
<path style="fill-rule:evenodd;fill:rgb(100%,100%,100%);fill-opacity:1;stroke-width:3.1188;stroke-linecap:round;stroke-linejoin:round;stroke:rgb(100%,100%,100%);stroke-opacity:1;stroke-miterlimit:4;" d="M 328.138637 220.280553 C 327.31356 218.683385 326.125145 214.429315 323.952693 214.0357 C 322.181426 213.937297 312.643832 215.905371 311.909589 217.517679 C 311.515974 218.796928 315.860878 226.661658 317.336934 226.858465 C 319.017367 227.547291 327.843426 221.067783 328.138637 220.280553 Z M 328.138637 220.280553 " transform="matrix(0.51605,0,0,0.51605,-64,0.0000059215)"/>
<path style="fill-rule:evenodd;fill:rgb(100%,100%,100%);fill-opacity:1;stroke-width:3.1188;stroke-linecap:round;stroke-linejoin:round;stroke:rgb(100%,100%,100%);stroke-opacity:1;stroke-miterlimit:4;" d="M 413.719616 273.660799 C 414.211635 271.987936 430.425544 266.386492 436.019418 271.745711 C 442.620038 280.791286 413.326001 276.514508 413.719616 273.660799 Z M 413.719616 273.660799 " transform="matrix(0.51605,0,0,0.51605,-64,0.0000059215)"/>
<path style="fill-rule:evenodd;fill:rgb(100%,100%,100%);fill-opacity:1;stroke-width:3.1188;stroke-linecap:round;stroke-linejoin:round;stroke:rgb(100%,100%,100%);stroke-opacity:1;stroke-miterlimit:4;" d="M 458.281373 284.258126 C 461.831477 278.247928 447.373696 271.125011 441.234817 277.990564 C 443.331573 286.241339 455.412525 289.231299 458.281373 284.258126 Z M 458.281373 284.258126 " transform="matrix(0.51605,0,0,0.51605,-64,0.0000059215)"/>
</g>
</svg>
