<?xml version="1.0" encoding="UTF-8"?>
<svg xmlns="http://www.w3.org/2000/svg" xmlns:xlink="http://www.w3.org/1999/xlink" width="40px" height="40px" viewBox="0 0 256 256" version="1.1">
<g id="surface1">
<path style=" stroke:none;fill-rule:evenodd;fill:rgb(89.411765%,6.27451%,30.19608%);fill-opacity:1;" d="M 0 127.914062 L 384.285156 127.914062 L 384.285156 256.007812 L 0 256.007812 Z M 0 127.914062 "/>
<path style=" stroke:none;fill-rule:evenodd;fill:rgb(54.11765%,52.156866%,100%);fill-opacity:1;" d="M 0 0 L 384.285156 0 L 384.285156 127.914062 L 0 127.914062 Z M 0 0 "/>
<path style=" stroke:none;fill-rule:evenodd;fill:rgb(95.294118%,93.725491%,49.019608%);fill-opacity:1;" d="M 74.988281 77.546875 L 100.078125 77.453125 C 100.078125 77.453125 109.34375 66.320312 104.4375 59.027344 C 99.53125 51.734375 80.300781 58.796875 80.226562 58.796875 C 80.148438 58.796875 80.070312 54.878906 75.320312 54.804688 C 70.570312 54.878906 70.492188 58.796875 70.414062 58.796875 C 70.335938 58.796875 51.105469 51.734375 46.203125 59.027344 C 41.296875 66.320312 50.5625 77.453125 50.5625 77.453125 L 74.992188 77.546875 Z M 74.988281 77.546875 "/>
<path style=" stroke:none;fill-rule:evenodd;fill:rgb(0%,0%,0%);fill-opacity:1;" d="M 75.003906 77.546875 L 99.085938 77.453125 C 99.085938 77.453125 107.980469 66.640625 103.273438 59.554688 C 98.5625 52.46875 80.101562 59.332031 80.027344 59.332031 C 79.953125 59.332031 79.878906 55.527344 75.320312 55.453125 C 70.761719 55.527344 70.6875 59.332031 70.613281 59.332031 C 70.535156 59.332031 52.074219 52.46875 47.367188 59.554688 C 42.660156 66.640625 51.554688 77.453125 51.554688 77.453125 Z M 75.003906 77.546875 "/>
<path style=" stroke:none;fill-rule:evenodd;fill:rgb(95.294118%,93.725491%,49.019608%);fill-opacity:1;" d="M 103.003906 62.414062 L 102.71875 62.414062 L 102.71875 65.839844 L 103.003906 65.839844 Z M 103.003906 62.414062 "/>
<path style=" stroke:none;fill-rule:evenodd;fill:rgb(95.294118%,93.725491%,49.019608%);fill-opacity:1;" d="M 101.964844 60.558594 L 101.679688 60.558594 L 101.679688 67.597656 L 101.964844 67.597656 Z M 101.964844 60.558594 "/>
<path style=" stroke:none;fill-rule:evenodd;fill:rgb(95.294118%,93.725491%,49.019608%);fill-opacity:1;" d="M 100.972656 59.59375 L 100.640625 59.59375 L 100.640625 68.855469 L 100.972656 68.855469 Z M 100.972656 59.59375 "/>
<path style=" stroke:none;fill-rule:evenodd;fill:rgb(95.294118%,93.725491%,49.019608%);fill-opacity:1;" d="M 99.703125 58.917969 L 99.339844 58.917969 L 99.339844 69.996094 L 99.703125 69.996094 Z M 99.703125 58.917969 "/>
<path style=" stroke:none;fill-rule:evenodd;fill:rgb(95.294118%,93.725491%,49.019608%);fill-opacity:1;" d="M 98.261719 58.519531 L 97.898438 58.519531 L 97.898438 70.9375 L 98.261719 70.9375 Z M 98.261719 58.519531 "/>
<path style=" stroke:none;fill-rule:evenodd;fill:rgb(95.294118%,93.725491%,49.019608%);fill-opacity:1;" d="M 96.789062 58.039062 L 96.429688 58.039062 L 96.429688 71.570312 L 96.789062 71.570312 Z M 96.789062 58.039062 "/>
<path style=" stroke:none;fill-rule:evenodd;fill:rgb(95.294118%,93.725491%,49.019608%);fill-opacity:1;" d="M 95.539062 57.933594 L 95.175781 57.933594 L 95.175781 72.035156 L 95.539062 72.035156 Z M 95.539062 57.933594 "/>
<path style=" stroke:none;fill-rule:evenodd;fill:rgb(95.294118%,93.725491%,49.019608%);fill-opacity:1;" d="M 94.285156 57.933594 L 93.921875 57.933594 L 93.921875 72.429688 L 94.285156 72.429688 Z M 94.285156 57.933594 "/>
<path style=" stroke:none;fill-rule:evenodd;fill:rgb(95.294118%,93.725491%,49.019608%);fill-opacity:1;" d="M 92.714844 57.964844 L 92.378906 57.964844 L 92.378906 73.085938 L 92.714844 73.085938 Z M 92.714844 57.964844 "/>
<path style=" stroke:none;fill-rule:evenodd;fill:rgb(95.294118%,93.725491%,49.019608%);fill-opacity:1;" d="M 91.242188 58.113281 L 90.832031 58.113281 L 90.832031 73.238281 L 91.242188 73.238281 Z M 91.242188 58.113281 "/>
<path style=" stroke:none;fill-rule:evenodd;fill:rgb(95.294118%,93.725491%,49.019608%);fill-opacity:1;" d="M 89.632812 58.484375 L 89.21875 58.484375 L 89.21875 73.386719 L 89.632812 73.386719 Z M 89.632812 58.484375 "/>
<path style=" stroke:none;fill-rule:evenodd;fill:rgb(95.294118%,93.725491%,49.019608%);fill-opacity:1;" d="M 88.058594 59.0625 L 87.667969 59.0625 L 87.667969 73.496094 L 88.058594 73.496094 Z M 88.058594 59.0625 "/>
<path style=" stroke:none;fill-rule:evenodd;fill:rgb(95.294118%,93.725491%,49.019608%);fill-opacity:1;" d="M 86.410156 59.722656 L 86.046875 59.722656 L 86.046875 73.386719 L 86.410156 73.386719 Z M 86.410156 59.722656 "/>
<path style=" stroke:none;fill-rule:evenodd;fill:rgb(95.294118%,93.725491%,49.019608%);fill-opacity:1;" d="M 85.046875 60.167969 L 84.683594 60.167969 L 84.683594 72.917969 L 85.046875 72.917969 Z M 85.046875 60.167969 "/>
<path style=" stroke:none;fill-rule:evenodd;fill:rgb(95.294118%,93.725491%,49.019608%);fill-opacity:1;" d="M 83.59375 61.03125 L 83.285156 61.03125 L 83.285156 72.527344 L 83.59375 72.527344 Z M 83.59375 61.03125 "/>
<path style=" stroke:none;fill-rule:evenodd;fill:rgb(95.294118%,93.725491%,49.019608%);fill-opacity:1;" d="M 82.324219 62.144531 L 82.0625 62.144531 L 82.0625 71.972656 L 82.324219 71.972656 Z M 82.324219 62.144531 "/>
<path style=" stroke:none;fill-rule:evenodd;fill:rgb(95.294118%,93.725491%,49.019608%);fill-opacity:1;" d="M 81.183594 63.238281 L 80.875 63.238281 L 80.875 71.230469 L 81.183594 71.230469 Z M 81.183594 63.238281 "/>
<path style=" stroke:none;fill-rule:evenodd;fill:rgb(95.294118%,93.725491%,49.019608%);fill-opacity:1;" d="M 80.066406 64.90625 L 79.789062 64.90625 L 79.789062 70.007812 L 80.066406 70.007812 Z M 80.066406 64.90625 "/>
<path style=" stroke:none;fill-rule:evenodd;fill:rgb(95.294118%,93.725491%,49.019608%);fill-opacity:1;" d="M 47.488281 62.074219 L 47.777344 62.074219 L 47.777344 65.496094 L 47.488281 65.496094 Z M 47.488281 62.074219 "/>
<path style=" stroke:none;fill-rule:evenodd;fill:rgb(95.294118%,93.725491%,49.019608%);fill-opacity:1;" d="M 48.527344 60.214844 L 48.8125 60.214844 L 48.8125 67.257812 L 48.527344 67.257812 Z M 48.527344 60.214844 "/>
<path style=" stroke:none;fill-rule:evenodd;fill:rgb(95.294118%,93.725491%,49.019608%);fill-opacity:1;" d="M 49.519531 59.253906 L 49.855469 59.253906 L 49.855469 68.515625 L 49.519531 68.515625 Z M 49.519531 59.253906 "/>
<path style=" stroke:none;fill-rule:evenodd;fill:rgb(95.294118%,93.725491%,49.019608%);fill-opacity:1;" d="M 50.789062 58.574219 L 51.152344 58.574219 L 51.152344 69.652344 L 50.789062 69.652344 Z M 50.789062 58.574219 "/>
<path style=" stroke:none;fill-rule:evenodd;fill:rgb(95.294118%,93.725491%,49.019608%);fill-opacity:1;" d="M 52.230469 58.179688 L 52.59375 58.179688 L 52.59375 70.59375 L 52.230469 70.59375 Z M 52.230469 58.179688 "/>
<path style=" stroke:none;fill-rule:evenodd;fill:rgb(95.294118%,93.725491%,49.019608%);fill-opacity:1;" d="M 53.703125 57.699219 L 54.0625 57.699219 L 54.0625 71.226562 L 53.703125 71.226562 Z M 53.703125 57.699219 "/>
<path style=" stroke:none;fill-rule:evenodd;fill:rgb(95.294118%,93.725491%,49.019608%);fill-opacity:1;" d="M 54.953125 57.59375 L 55.316406 57.59375 L 55.316406 71.691406 L 54.953125 71.691406 Z M 54.953125 57.59375 "/>
<path style=" stroke:none;fill-rule:evenodd;fill:rgb(95.294118%,93.725491%,49.019608%);fill-opacity:1;" d="M 56.207031 57.59375 L 56.570312 57.59375 L 56.570312 72.089844 L 56.207031 72.089844 Z M 56.207031 57.59375 "/>
<path style=" stroke:none;fill-rule:evenodd;fill:rgb(95.294118%,93.725491%,49.019608%);fill-opacity:1;" d="M 57.777344 57.625 L 58.113281 57.625 L 58.113281 72.742188 L 57.777344 72.742188 Z M 57.777344 57.625 "/>
<path style=" stroke:none;fill-rule:evenodd;fill:rgb(95.294118%,93.725491%,49.019608%);fill-opacity:1;" d="M 59.25 57.769531 L 59.664062 57.769531 L 59.664062 72.898438 L 59.25 72.898438 Z M 59.25 57.769531 "/>
<path style=" stroke:none;fill-rule:evenodd;fill:rgb(95.294118%,93.725491%,49.019608%);fill-opacity:1;" d="M 60.859375 58.140625 L 61.273438 58.140625 L 61.273438 73.046875 L 60.859375 73.046875 Z M 60.859375 58.140625 "/>
<path style=" stroke:none;fill-rule:evenodd;fill:rgb(95.294118%,93.725491%,49.019608%);fill-opacity:1;" d="M 62.4375 58.71875 L 62.824219 58.71875 L 62.824219 73.152344 L 62.4375 73.152344 Z M 62.4375 58.71875 "/>
<path style=" stroke:none;fill-rule:evenodd;fill:rgb(95.294118%,93.725491%,49.019608%);fill-opacity:1;" d="M 64.082031 59.378906 L 64.445312 59.378906 L 64.445312 73.046875 L 64.082031 73.046875 Z M 64.082031 59.378906 "/>
<path style=" stroke:none;fill-rule:evenodd;fill:rgb(95.294118%,93.725491%,49.019608%);fill-opacity:1;" d="M 65.445312 59.828125 L 65.808594 59.828125 L 65.808594 72.574219 L 65.445312 72.574219 Z M 65.445312 59.828125 "/>
<path style=" stroke:none;fill-rule:evenodd;fill:rgb(95.294118%,93.725491%,49.019608%);fill-opacity:1;" d="M 66.898438 60.6875 L 67.207031 60.6875 L 67.207031 72.1875 L 66.898438 72.1875 Z M 66.898438 60.6875 "/>
<path style=" stroke:none;fill-rule:evenodd;fill:rgb(95.294118%,93.725491%,49.019608%);fill-opacity:1;" d="M 68.167969 61.804688 L 68.429688 61.804688 L 68.429688 71.628906 L 68.167969 71.628906 Z M 68.167969 61.804688 "/>
<path style=" stroke:none;fill-rule:evenodd;fill:rgb(95.294118%,93.725491%,49.019608%);fill-opacity:1;" d="M 69.308594 62.894531 L 69.621094 62.894531 L 69.621094 70.886719 L 69.308594 70.886719 Z M 69.308594 62.894531 "/>
<path style=" stroke:none;fill-rule:evenodd;fill:rgb(95.294118%,93.725491%,49.019608%);fill-opacity:1;" d="M 70.425781 64.5625 L 70.703125 64.5625 L 70.703125 69.667969 L 70.425781 69.667969 Z M 70.425781 64.5625 "/>
<path style=" stroke:none;fill-rule:evenodd;fill:rgb(95.294118%,93.725491%,49.019608%);fill-opacity:1;" d="M 74.890625 46.53125 L 74.859375 46.011719 C 74.859375 45.910156 74.128906 45.324219 74.128906 43.839844 C 74.128906 42.355469 74.757812 41.765625 75.089844 41.765625 C 75.421875 41.765625 76.148438 42.25 76.179688 43.804688 C 76.214844 45.359375 75.453125 45.945312 75.453125 45.945312 L 75.386719 46.566406 C 75.386719 46.566406 75.917969 46.601562 75.949219 46.601562 C 75.984375 46.601562 76.675781 45.980469 78.464844 46.046875 C 80.25 46.117188 80.347656 46.875 80.382812 47.117188 C 80.414062 47.359375 80.117188 48.085938 78.332031 48.085938 C 76.546875 48.085938 76.015625 47.222656 75.984375 47.222656 C 75.949219 47.222656 75.421875 47.1875 75.421875 47.1875 L 75.421875 47.636719 C 75.421875 47.636719 76.113281 48.1875 76.082031 50.019531 C 76.050781 51.847656 75.355469 51.953125 75.15625 51.953125 C 74.890625 51.953125 74.328125 51.847656 74.296875 50.054688 C 74.363281 48.222656 74.824219 47.707031 74.824219 47.671875 L 74.824219 47.222656 L 74.328125 47.222656 C 74.328125 47.222656 73.800781 47.671875 71.980469 47.707031 C 70.164062 47.738281 70.0625 47.1875 70.03125 46.875 C 69.996094 46.566406 70.359375 46.011719 71.949219 45.980469 C 73.535156 45.945312 74.296875 46.53125 74.296875 46.53125 Z M 74.890625 46.53125 "/>
<path style=" stroke:none;fill-rule:evenodd;fill:rgb(95.294118%,93.725491%,49.019608%);fill-opacity:1;" d="M 69.609375 56.117188 C 70.164062 56.117188 70.613281 56.597656 70.613281 57.1875 C 70.613281 57.777344 70.164062 58.253906 69.609375 58.253906 C 69.050781 58.253906 68.601562 57.777344 68.601562 57.1875 C 68.601562 56.597656 69.050781 56.117188 69.609375 56.117188 Z M 69.609375 56.117188 "/>
<path style=" stroke:none;fill-rule:evenodd;fill:rgb(95.294118%,93.725491%,49.019608%);fill-opacity:1;" d="M 67.578125 55.683594 C 68.132812 55.683594 68.582031 56.164062 68.582031 56.753906 C 68.582031 57.34375 68.132812 57.824219 67.578125 57.824219 C 67.023438 57.824219 66.574219 57.34375 66.574219 56.753906 C 66.574219 56.164062 67.023438 55.683594 67.578125 55.683594 Z M 67.578125 55.683594 "/>
<path style=" stroke:none;fill-rule:evenodd;fill:rgb(95.294118%,93.725491%,49.019608%);fill-opacity:1;" d="M 65.445312 55.039062 C 66 55.039062 66.453125 55.515625 66.453125 56.105469 C 66.453125 56.699219 66 57.175781 65.445312 57.175781 C 64.890625 57.175781 64.441406 56.699219 64.441406 56.105469 C 64.441406 55.515625 64.890625 55.039062 65.445312 55.039062 Z M 65.445312 55.039062 "/>
<path style=" stroke:none;fill-rule:evenodd;fill:rgb(95.294118%,93.725491%,49.019608%);fill-opacity:1;" d="M 63.3125 54.5 C 63.867188 54.5 64.316406 54.976562 64.316406 55.566406 C 64.316406 56.15625 63.867188 56.636719 63.3125 56.636719 C 62.757812 56.636719 62.308594 56.15625 62.308594 55.566406 C 62.308594 54.976562 62.757812 54.5 63.3125 54.5 Z M 63.3125 54.5 "/>
<path style=" stroke:none;fill-rule:evenodd;fill:rgb(95.294118%,93.725491%,49.019608%);fill-opacity:1;" d="M 61.082031 54.066406 C 61.636719 54.066406 62.085938 54.546875 62.085938 55.136719 C 62.085938 55.726562 61.636719 56.203125 61.082031 56.203125 C 60.523438 56.203125 60.074219 55.726562 60.074219 55.136719 C 60.074219 54.546875 60.523438 54.066406 61.082031 54.066406 Z M 61.082031 54.066406 "/>
<path style=" stroke:none;fill-rule:evenodd;fill:rgb(95.294118%,93.725491%,49.019608%);fill-opacity:1;" d="M 58.847656 53.742188 C 59.402344 53.742188 59.851562 54.222656 59.851562 54.8125 C 59.851562 55.402344 59.402344 55.878906 58.847656 55.878906 C 58.292969 55.878906 57.84375 55.402344 57.84375 54.8125 C 57.84375 54.222656 58.292969 53.742188 58.847656 53.742188 Z M 58.847656 53.742188 "/>
<path style=" stroke:none;fill-rule:evenodd;fill:rgb(95.294118%,93.725491%,49.019608%);fill-opacity:1;" d="M 56.714844 53.527344 C 57.269531 53.527344 57.71875 54.003906 57.71875 54.59375 C 57.71875 55.1875 57.269531 55.664062 56.714844 55.664062 C 56.160156 55.664062 55.710938 55.1875 55.710938 54.59375 C 55.710938 54.003906 56.160156 53.527344 56.714844 53.527344 Z M 56.714844 53.527344 "/>
<path style=" stroke:none;fill-rule:evenodd;fill:rgb(95.294118%,93.725491%,49.019608%);fill-opacity:1;" d="M 54.480469 53.417969 C 55.035156 53.417969 55.484375 53.898438 55.484375 54.488281 C 55.484375 55.078125 55.035156 55.554688 54.480469 55.554688 C 53.925781 55.554688 53.476562 55.078125 53.476562 54.488281 C 53.476562 53.898438 53.925781 53.417969 54.480469 53.417969 Z M 54.480469 53.417969 "/>
<path style=" stroke:none;fill-rule:evenodd;fill:rgb(95.294118%,93.725491%,49.019608%);fill-opacity:1;" d="M 52.351562 53.742188 C 52.90625 53.742188 53.355469 54.222656 53.355469 54.8125 C 53.355469 55.402344 52.90625 55.878906 52.351562 55.878906 C 51.792969 55.878906 51.34375 55.402344 51.34375 54.8125 C 51.34375 54.222656 51.792969 53.742188 52.351562 53.742188 Z M 52.351562 53.742188 "/>
<path style=" stroke:none;fill-rule:evenodd;fill:rgb(95.294118%,93.725491%,49.019608%);fill-opacity:1;" d="M 50.117188 54.066406 C 50.671875 54.066406 51.121094 54.546875 51.121094 55.136719 C 51.121094 55.726562 50.671875 56.203125 50.117188 56.203125 C 49.5625 56.203125 49.109375 55.726562 49.109375 55.136719 C 49.109375 54.546875 49.5625 54.066406 50.117188 54.066406 Z M 50.117188 54.066406 "/>
<path style=" stroke:none;fill-rule:evenodd;fill:rgb(95.294118%,93.725491%,49.019608%);fill-opacity:1;" d="M 48.085938 54.820312 C 48.640625 54.820312 49.089844 55.300781 49.089844 55.890625 C 49.089844 56.480469 48.640625 56.960938 48.085938 56.960938 C 47.53125 56.960938 47.082031 56.480469 47.082031 55.890625 C 47.082031 55.300781 47.53125 54.820312 48.085938 54.820312 Z M 48.085938 54.820312 "/>
<path style=" stroke:none;fill-rule:evenodd;fill:rgb(95.294118%,93.725491%,49.019608%);fill-opacity:1;" d="M 46.15625 56.226562 C 46.710938 56.226562 47.160156 56.703125 47.160156 57.292969 C 47.160156 57.886719 46.710938 58.363281 46.15625 58.363281 C 45.601562 58.363281 45.152344 57.886719 45.152344 57.292969 C 45.152344 56.703125 45.601562 56.226562 46.15625 56.226562 Z M 46.15625 56.226562 "/>
<path style=" stroke:none;fill-rule:evenodd;fill:rgb(95.294118%,93.725491%,49.019608%);fill-opacity:1;" d="M 44.835938 58.171875 C 45.390625 58.171875 45.84375 58.648438 45.84375 59.238281 C 45.84375 59.828125 45.390625 60.308594 44.835938 60.308594 C 44.28125 60.308594 43.832031 59.828125 43.832031 59.238281 C 43.832031 58.648438 44.28125 58.171875 44.835938 58.171875 Z M 44.835938 58.171875 "/>
<path style=" stroke:none;fill-rule:evenodd;fill:rgb(95.294118%,93.725491%,49.019608%);fill-opacity:1;" d="M 44.023438 60.21875 C 44.582031 60.21875 45.03125 60.699219 45.03125 61.289062 C 45.03125 61.878906 44.582031 62.359375 44.023438 62.359375 C 43.46875 62.359375 43.019531 61.878906 43.019531 61.289062 C 43.019531 60.699219 43.46875 60.21875 44.023438 60.21875 Z M 44.023438 60.21875 "/>
<path style=" stroke:none;fill-rule:evenodd;fill:rgb(95.294118%,93.725491%,49.019608%);fill-opacity:1;" d="M 43.71875 62.488281 C 44.277344 62.488281 44.726562 62.964844 44.726562 63.554688 C 44.726562 64.144531 44.277344 64.625 43.71875 64.625 C 43.164062 64.625 42.714844 64.144531 42.714844 63.554688 C 42.714844 62.964844 43.164062 62.488281 43.71875 62.488281 Z M 43.71875 62.488281 "/>
<path style=" stroke:none;fill-rule:evenodd;fill:rgb(95.294118%,93.725491%,49.019608%);fill-opacity:1;" d="M 43.820312 64.863281 C 44.378906 64.863281 44.828125 65.34375 44.828125 65.933594 C 44.828125 66.523438 44.378906 67 43.820312 67 C 43.265625 67 42.816406 66.523438 42.816406 65.933594 C 42.816406 65.34375 43.265625 64.863281 43.820312 64.863281 Z M 43.820312 64.863281 "/>
<path style=" stroke:none;fill-rule:evenodd;fill:rgb(95.294118%,93.725491%,49.019608%);fill-opacity:1;" d="M 44.328125 67.128906 C 44.882812 67.128906 45.335938 67.609375 45.335938 68.199219 C 45.335938 68.789062 44.882812 69.269531 44.328125 69.269531 C 43.773438 69.269531 43.324219 68.789062 43.324219 68.199219 C 43.324219 67.609375 43.773438 67.128906 44.328125 67.128906 Z M 44.328125 67.128906 "/>
<path style=" stroke:none;fill-rule:evenodd;fill:rgb(95.294118%,93.725491%,49.019608%);fill-opacity:1;" d="M 45.140625 69.398438 C 45.695312 69.398438 46.148438 69.875 46.148438 70.464844 C 46.148438 71.054688 45.695312 71.535156 45.140625 71.535156 C 44.585938 71.535156 44.136719 71.054688 44.136719 70.464844 C 44.136719 69.875 44.585938 69.398438 45.140625 69.398438 Z M 45.140625 69.398438 "/>
<path style=" stroke:none;fill-rule:evenodd;fill:rgb(95.294118%,93.725491%,49.019608%);fill-opacity:1;" d="M 46.054688 71.339844 C 46.609375 71.339844 47.058594 71.820312 47.058594 72.410156 C 47.058594 73 46.609375 73.480469 46.054688 73.480469 C 45.5 73.480469 45.050781 73 45.050781 72.410156 C 45.050781 71.820312 45.5 71.339844 46.054688 71.339844 Z M 46.054688 71.339844 "/>
<path style=" stroke:none;fill-rule:evenodd;fill:rgb(95.294118%,93.725491%,49.019608%);fill-opacity:1;" d="M 81.082031 56.117188 C 80.523438 56.117188 80.074219 56.597656 80.074219 57.1875 C 80.074219 57.777344 80.523438 58.253906 81.082031 58.253906 C 81.636719 58.253906 82.085938 57.777344 82.085938 57.1875 C 82.085938 56.597656 81.636719 56.117188 81.082031 56.117188 Z M 81.082031 56.117188 "/>
<path style=" stroke:none;fill-rule:evenodd;fill:rgb(95.294118%,93.725491%,49.019608%);fill-opacity:1;" d="M 83.109375 55.683594 C 82.554688 55.683594 82.105469 56.164062 82.105469 56.753906 C 82.105469 57.34375 82.554688 57.824219 83.109375 57.824219 C 83.664062 57.824219 84.113281 57.34375 84.113281 56.753906 C 84.113281 56.164062 83.664062 55.683594 83.109375 55.683594 Z M 83.109375 55.683594 "/>
<path style=" stroke:none;fill-rule:evenodd;fill:rgb(95.294118%,93.725491%,49.019608%);fill-opacity:1;" d="M 85.242188 55.039062 C 84.6875 55.039062 84.234375 55.515625 84.234375 56.105469 C 84.234375 56.699219 84.6875 57.175781 85.242188 57.175781 C 85.796875 57.175781 86.246094 56.699219 86.246094 56.105469 C 86.246094 55.515625 85.796875 55.039062 85.242188 55.039062 Z M 85.242188 55.039062 "/>
<path style=" stroke:none;fill-rule:evenodd;fill:rgb(95.294118%,93.725491%,49.019608%);fill-opacity:1;" d="M 87.375 54.5 C 86.820312 54.5 86.371094 54.976562 86.371094 55.566406 C 86.371094 56.15625 86.820312 56.636719 87.375 56.636719 C 87.929688 56.636719 88.378906 56.15625 88.378906 55.566406 C 88.378906 54.976562 87.929688 54.5 87.375 54.5 Z M 87.375 54.5 "/>
<path style=" stroke:none;fill-rule:evenodd;fill:rgb(95.294118%,93.725491%,49.019608%);fill-opacity:1;" d="M 89.609375 54.066406 C 89.050781 54.066406 88.601562 54.546875 88.601562 55.136719 C 88.601562 55.726562 89.050781 56.203125 89.609375 56.203125 C 90.164062 56.203125 90.613281 55.726562 90.613281 55.136719 C 90.613281 54.546875 90.164062 54.066406 89.609375 54.066406 Z M 89.609375 54.066406 "/>
<path style=" stroke:none;fill-rule:evenodd;fill:rgb(95.294118%,93.725491%,49.019608%);fill-opacity:1;" d="M 91.839844 53.742188 C 91.285156 53.742188 90.835938 54.222656 90.835938 54.8125 C 90.835938 55.402344 91.285156 55.878906 91.839844 55.878906 C 92.394531 55.878906 92.84375 55.402344 92.84375 54.8125 C 92.84375 54.222656 92.394531 53.742188 91.839844 53.742188 Z M 91.839844 53.742188 "/>
<path style=" stroke:none;fill-rule:evenodd;fill:rgb(95.294118%,93.725491%,49.019608%);fill-opacity:1;" d="M 93.972656 53.527344 C 93.417969 53.527344 92.96875 54.003906 92.96875 54.59375 C 92.96875 55.1875 93.417969 55.664062 93.972656 55.664062 C 94.527344 55.664062 94.976562 55.1875 94.976562 54.59375 C 94.976562 54.003906 94.527344 53.527344 93.972656 53.527344 Z M 93.972656 53.527344 "/>
<path style=" stroke:none;fill-rule:evenodd;fill:rgb(95.294118%,93.725491%,49.019608%);fill-opacity:1;" d="M 96.207031 53.417969 C 95.652344 53.417969 95.203125 53.898438 95.203125 54.488281 C 95.203125 55.078125 95.652344 55.554688 96.207031 55.554688 C 96.761719 55.554688 97.210938 55.078125 97.210938 54.488281 C 97.210938 53.898438 96.761719 53.417969 96.207031 53.417969 Z M 96.207031 53.417969 "/>
<path style=" stroke:none;fill-rule:evenodd;fill:rgb(95.294118%,93.725491%,49.019608%);fill-opacity:1;" d="M 98.339844 53.742188 C 97.78125 53.742188 97.332031 54.222656 97.332031 54.8125 C 97.332031 55.402344 97.78125 55.878906 98.339844 55.878906 C 98.894531 55.878906 99.34375 55.402344 99.34375 54.8125 C 99.34375 54.222656 98.894531 53.742188 98.339844 53.742188 Z M 98.339844 53.742188 "/>
<path style=" stroke:none;fill-rule:evenodd;fill:rgb(95.294118%,93.725491%,49.019608%);fill-opacity:1;" d="M 100.570312 54.066406 C 100.015625 54.066406 99.566406 54.546875 99.566406 55.136719 C 99.566406 55.726562 100.015625 56.203125 100.570312 56.203125 C 101.125 56.203125 101.578125 55.726562 101.578125 55.136719 C 101.578125 54.546875 101.125 54.066406 100.570312 54.066406 Z M 100.570312 54.066406 "/>
<path style=" stroke:none;fill-rule:evenodd;fill:rgb(95.294118%,93.725491%,49.019608%);fill-opacity:1;" d="M 102.601562 54.820312 C 102.046875 54.820312 101.597656 55.300781 101.597656 55.890625 C 101.597656 56.480469 102.046875 56.960938 102.601562 56.960938 C 103.15625 56.960938 103.605469 56.480469 103.605469 55.890625 C 103.605469 55.300781 103.15625 54.820312 102.601562 54.820312 Z M 102.601562 54.820312 "/>
<path style=" stroke:none;fill-rule:evenodd;fill:rgb(95.294118%,93.725491%,49.019608%);fill-opacity:1;" d="M 104.53125 56.226562 C 103.976562 56.226562 103.527344 56.703125 103.527344 57.292969 C 103.527344 57.886719 103.976562 58.363281 104.53125 58.363281 C 105.085938 58.363281 105.535156 57.886719 105.535156 57.292969 C 105.535156 56.703125 105.085938 56.226562 104.53125 56.226562 Z M 104.53125 56.226562 "/>
<path style=" stroke:none;fill-rule:evenodd;fill:rgb(95.294118%,93.725491%,49.019608%);fill-opacity:1;" d="M 105.851562 58.171875 C 105.296875 58.171875 104.84375 58.648438 104.84375 59.238281 C 104.84375 59.828125 105.296875 60.308594 105.851562 60.308594 C 106.40625 60.308594 106.855469 59.828125 106.855469 59.238281 C 106.855469 58.648438 106.40625 58.171875 105.851562 58.171875 Z M 105.851562 58.171875 "/>
<path style=" stroke:none;fill-rule:evenodd;fill:rgb(95.294118%,93.725491%,49.019608%);fill-opacity:1;" d="M 106.664062 60.21875 C 106.109375 60.21875 105.65625 60.699219 105.65625 61.289062 C 105.65625 61.878906 106.109375 62.359375 106.664062 62.359375 C 107.21875 62.359375 107.667969 61.878906 107.667969 61.289062 C 107.667969 60.699219 107.21875 60.21875 106.664062 60.21875 Z M 106.664062 60.21875 "/>
<path style=" stroke:none;fill-rule:evenodd;fill:rgb(95.294118%,93.725491%,49.019608%);fill-opacity:1;" d="M 106.96875 62.488281 C 106.410156 62.488281 105.960938 62.964844 105.960938 63.554688 C 105.960938 64.144531 106.410156 64.625 106.96875 64.625 C 107.523438 64.625 107.972656 64.144531 107.972656 63.554688 C 107.972656 62.964844 107.523438 62.488281 106.96875 62.488281 Z M 106.96875 62.488281 "/>
<path style=" stroke:none;fill-rule:evenodd;fill:rgb(95.294118%,93.725491%,49.019608%);fill-opacity:1;" d="M 106.867188 64.863281 C 106.3125 64.863281 105.859375 65.34375 105.859375 65.933594 C 105.859375 66.523438 106.3125 67 106.867188 67 C 107.421875 67 107.871094 66.523438 107.871094 65.933594 C 107.871094 65.34375 107.421875 64.863281 106.867188 64.863281 Z M 106.867188 64.863281 "/>
<path style=" stroke:none;fill-rule:evenodd;fill:rgb(95.294118%,93.725491%,49.019608%);fill-opacity:1;" d="M 106.359375 67.128906 C 105.804688 67.128906 105.351562 67.609375 105.351562 68.199219 C 105.351562 68.789062 105.804688 69.269531 106.359375 69.269531 C 106.914062 69.269531 107.363281 68.789062 107.363281 68.199219 C 107.363281 67.609375 106.914062 67.128906 106.359375 67.128906 Z M 106.359375 67.128906 "/>
<path style=" stroke:none;fill-rule:evenodd;fill:rgb(95.294118%,93.725491%,49.019608%);fill-opacity:1;" d="M 105.546875 69.398438 C 104.992188 69.398438 104.539062 69.875 104.539062 70.464844 C 104.539062 71.054688 104.992188 71.535156 105.546875 71.535156 C 106.101562 71.535156 106.550781 71.054688 106.550781 70.464844 C 106.550781 69.875 106.101562 69.398438 105.546875 69.398438 Z M 105.546875 69.398438 "/>
<path style=" stroke:none;fill-rule:evenodd;fill:rgb(95.294118%,93.725491%,49.019608%);fill-opacity:1;" d="M 104.632812 71.339844 C 104.078125 71.339844 103.628906 71.820312 103.628906 72.410156 C 103.628906 73 104.078125 73.480469 104.632812 73.480469 C 105.1875 73.480469 105.636719 73 105.636719 72.410156 C 105.636719 71.820312 105.1875 71.339844 104.632812 71.339844 Z M 104.632812 71.339844 "/>
<path style=" stroke:none;fill-rule:evenodd;fill:rgb(95.294118%,93.725491%,49.019608%);fill-opacity:1;" d="M 108.792969 73.382812 L 103.058594 90.324219 C 103.058594 90.324219 93.578125 86.359375 75.800781 86.359375 C 58.019531 86.359375 49.921875 89.828125 49.921875 89.828125 L 41.582031 73.179688 C 49 71.800781 51.261719 78.125 51.261719 78.125 C 51.261719 78.125 51.765625 70.742188 57.59375 69.429688 C 62.515625 68.578125 66.867188 74.964844 66.867188 74.964844 C 66.867188 74.964844 67.890625 67.777344 75.164062 67.578125 C 82.4375 67.777344 83.464844 74.964844 83.464844 74.964844 C 83.464844 74.964844 87.8125 68.578125 92.734375 69.429688 C 98.5625 70.742188 99.066406 78.125 99.066406 78.125 C 99.066406 78.125 101.328125 71.800781 108.792969 73.382812 Z M 108.792969 73.382812 "/>
<path style=" stroke:none;fill-rule:evenodd;fill:rgb(0%,0%,0%);fill-opacity:1;" d="M 76.640625 85.433594 L 76.644531 85.433594 C 91.3125 85.433594 103.203125 87.3125 103.203125 89.632812 C 103.203125 91.953125 91.3125 93.832031 76.644531 93.832031 L 76.640625 93.832031 C 61.972656 93.832031 50.082031 91.953125 50.082031 89.632812 C 50.082031 87.3125 61.972656 85.433594 76.640625 85.433594 Z M 76.640625 85.433594 "/>
<path style=" stroke:none;fill-rule:evenodd;fill:rgb(0%,0%,0%);fill-opacity:1;" d="M 76 68.859375 C 76.328125 68.859375 76.59375 69.238281 76.59375 69.710938 C 76.59375 70.183594 76.328125 70.5625 76 70.5625 C 75.675781 70.5625 75.410156 70.183594 75.410156 69.710938 C 75.410156 69.238281 75.675781 68.859375 76 68.859375 Z M 76 68.859375 "/>
<path style=" stroke:none;fill-rule:evenodd;fill:rgb(0%,0%,0%);fill-opacity:1;" d="M 77.613281 69.289062 C 77.941406 69.289062 78.207031 69.671875 78.207031 70.140625 C 78.207031 70.613281 77.941406 70.996094 77.613281 70.996094 C 77.289062 70.996094 77.023438 70.613281 77.023438 70.140625 C 77.023438 69.671875 77.289062 69.289062 77.613281 69.289062 Z M 77.613281 69.289062 "/>
<path style=" stroke:none;fill-rule:evenodd;fill:rgb(0%,0%,0%);fill-opacity:1;" d="M 74.519531 68.859375 C 74.847656 68.859375 75.113281 69.238281 75.113281 69.710938 C 75.113281 70.183594 74.847656 70.5625 74.519531 70.5625 C 74.191406 70.5625 73.925781 70.183594 73.925781 69.710938 C 73.925781 69.238281 74.191406 68.859375 74.519531 68.859375 Z M 74.519531 68.859375 "/>
<path style=" stroke:none;fill-rule:evenodd;fill:rgb(0%,0%,0%);fill-opacity:1;" d="M 71.691406 70.152344 C 72.019531 70.152344 72.285156 70.535156 72.285156 71.003906 C 72.285156 71.476562 72.019531 71.859375 71.691406 71.859375 C 71.367188 71.859375 71.101562 71.476562 71.101562 71.003906 C 71.101562 70.535156 71.367188 70.152344 71.691406 70.152344 Z M 71.691406 70.152344 "/>
<path style=" stroke:none;fill-rule:evenodd;fill:rgb(0%,0%,0%);fill-opacity:1;" d="M 73.039062 69.289062 C 73.367188 69.289062 73.628906 69.671875 73.628906 70.140625 C 73.628906 70.613281 73.367188 70.996094 73.039062 70.996094 C 72.710938 70.996094 72.445312 70.613281 72.445312 70.140625 C 72.445312 69.671875 72.710938 69.289062 73.039062 69.289062 Z M 73.039062 69.289062 "/>
<path style=" stroke:none;fill-rule:evenodd;fill:rgb(0%,0%,0%);fill-opacity:1;" d="M 70.617188 71.449219 C 70.941406 71.449219 71.207031 71.832031 71.207031 72.300781 C 71.207031 72.773438 70.941406 73.15625 70.617188 73.15625 C 70.289062 73.15625 70.023438 72.773438 70.023438 72.300781 C 70.023438 71.832031 70.289062 71.449219 70.617188 71.449219 Z M 70.617188 71.449219 "/>
<path style=" stroke:none;fill-rule:evenodd;fill:rgb(0%,0%,0%);fill-opacity:1;" d="M 78.960938 70.261719 C 79.289062 70.261719 79.554688 70.644531 79.554688 71.113281 C 79.554688 71.585938 79.289062 71.964844 78.960938 71.964844 C 78.636719 71.964844 78.371094 71.585938 78.371094 71.113281 C 78.371094 70.644531 78.636719 70.261719 78.960938 70.261719 Z M 78.960938 70.261719 "/>
<path style=" stroke:none;fill-rule:evenodd;fill:rgb(0%,0%,0%);fill-opacity:1;" d="M 80.171875 71.449219 C 80.5 71.449219 80.765625 71.832031 80.765625 72.300781 C 80.765625 72.773438 80.5 73.15625 80.171875 73.15625 C 79.84375 73.15625 79.582031 72.773438 79.582031 72.300781 C 79.582031 71.832031 79.84375 71.449219 80.171875 71.449219 Z M 80.171875 71.449219 "/>
<path style=" stroke:none;fill-rule:evenodd;fill:rgb(0%,0%,0%);fill-opacity:1;" d="M 93.171875 71.261719 C 93.492188 71.316406 93.699219 71.738281 93.628906 72.203125 C 93.5625 72.667969 93.242188 73 92.921875 72.949219 C 92.597656 72.894531 92.390625 72.472656 92.460938 72.007812 C 92.53125 71.542969 92.847656 71.207031 93.171875 71.261719 Z M 93.171875 71.261719 "/>
<path style=" stroke:none;fill-rule:evenodd;fill:rgb(0%,0%,0%);fill-opacity:1;" d="M 94.703125 71.957031 C 95.023438 72.007812 95.230469 72.429688 95.160156 72.894531 C 95.09375 73.359375 94.773438 73.695312 94.453125 73.640625 C 94.128906 73.585938 93.921875 73.164062 93.992188 72.699219 C 94.0625 72.234375 94.378906 71.902344 94.703125 71.957031 Z M 94.703125 71.957031 "/>
<path style=" stroke:none;fill-rule:evenodd;fill:rgb(0%,0%,0%);fill-opacity:1;" d="M 91.707031 71.019531 C 92.03125 71.070312 92.234375 71.492188 92.167969 71.957031 C 92.097656 72.421875 91.78125 72.757812 91.457031 72.703125 C 91.132812 72.648438 90.929688 72.226562 90.996094 71.761719 C 91.066406 71.296875 91.382812 70.964844 91.707031 71.019531 Z M 91.707031 71.019531 "/>
<path style=" stroke:none;fill-rule:evenodd;fill:rgb(0%,0%,0%);fill-opacity:1;" d="M 88.726562 71.828125 C 89.046875 71.882812 89.253906 72.304688 89.1875 72.769531 C 89.117188 73.234375 88.800781 73.570312 88.476562 73.515625 C 88.152344 73.460938 87.945312 73.039062 88.015625 72.574219 C 88.085938 72.109375 88.402344 71.773438 88.726562 71.828125 Z M 88.726562 71.828125 "/>
<path style=" stroke:none;fill-rule:evenodd;fill:rgb(0%,0%,0%);fill-opacity:1;" d="M 90.179688 71.199219 C 90.503906 71.253906 90.710938 71.671875 90.640625 72.140625 C 90.570312 72.605469 90.253906 72.9375 89.929688 72.882812 C 89.609375 72.828125 89.402344 72.410156 89.472656 71.941406 C 89.539062 71.476562 89.859375 71.144531 90.179688 71.199219 Z M 90.179688 71.199219 "/>
<path style=" stroke:none;fill-rule:evenodd;fill:rgb(0%,0%,0%);fill-opacity:1;" d="M 87.472656 72.933594 C 87.792969 72.984375 88 73.40625 87.933594 73.871094 C 87.863281 74.335938 87.546875 74.671875 87.222656 74.617188 C 86.898438 74.5625 86.691406 74.140625 86.761719 73.675781 C 86.832031 73.210938 87.148438 72.878906 87.472656 72.933594 Z M 87.472656 72.933594 "/>
<path style=" stroke:none;fill-rule:evenodd;fill:rgb(0%,0%,0%);fill-opacity:1;" d="M 95.890625 73.136719 C 96.214844 73.191406 96.417969 73.613281 96.351562 74.078125 C 96.28125 74.542969 95.964844 74.878906 95.640625 74.824219 C 95.316406 74.769531 95.113281 74.347656 95.179688 73.882812 C 95.25 73.417969 95.566406 73.085938 95.890625 73.136719 Z M 95.890625 73.136719 "/>
<path style=" stroke:none;fill-rule:evenodd;fill:rgb(0%,0%,0%);fill-opacity:1;" d="M 96.910156 74.511719 C 97.234375 74.566406 97.441406 74.988281 97.371094 75.453125 C 97.304688 75.917969 96.984375 76.25 96.664062 76.195312 C 96.339844 76.144531 96.132812 75.722656 96.203125 75.257812 C 96.269531 74.792969 96.589844 74.457031 96.910156 74.511719 Z M 96.910156 74.511719 "/>
<path style=" stroke:none;fill-rule:evenodd;fill:rgb(0%,0%,0%);fill-opacity:1;" d="M 58.46875 70.613281 C 58.792969 70.550781 59.117188 70.875 59.195312 71.335938 C 59.277344 71.800781 59.082031 72.226562 58.757812 72.289062 C 58.4375 72.351562 58.113281 72.027344 58.03125 71.5625 C 57.953125 71.101562 58.148438 70.675781 58.46875 70.613281 Z M 58.46875 70.613281 "/>
<path style=" stroke:none;fill-rule:evenodd;fill:rgb(0%,0%,0%);fill-opacity:1;" d="M 60.128906 70.726562 C 60.453125 70.664062 60.777344 70.988281 60.859375 71.453125 C 60.9375 71.914062 60.742188 72.339844 60.417969 72.402344 C 60.097656 72.464844 59.773438 72.140625 59.691406 71.679688 C 59.613281 71.214844 59.808594 70.789062 60.128906 70.726562 Z M 60.128906 70.726562 "/>
<path style=" stroke:none;fill-rule:evenodd;fill:rgb(0%,0%,0%);fill-opacity:1;" d="M 57.011719 70.894531 C 57.335938 70.832031 57.660156 71.15625 57.738281 71.621094 C 57.820312 72.085938 57.625 72.511719 57.300781 72.574219 C 56.980469 72.636719 56.65625 72.3125 56.574219 71.847656 C 56.496094 71.386719 56.691406 70.957031 57.011719 70.894531 Z M 57.011719 70.894531 "/>
<path style=" stroke:none;fill-rule:evenodd;fill:rgb(0%,0%,0%);fill-opacity:1;" d="M 54.453125 72.710938 C 54.773438 72.648438 55.101562 72.972656 55.179688 73.4375 C 55.257812 73.898438 55.0625 74.328125 54.742188 74.390625 C 54.421875 74.453125 54.09375 74.128906 54.015625 73.664062 C 53.933594 73.199219 54.128906 72.773438 54.453125 72.710938 Z M 54.453125 72.710938 "/>
<path style=" stroke:none;fill-rule:evenodd;fill:rgb(0%,0%,0%);fill-opacity:1;" d="M 55.628906 71.605469 C 55.949219 71.542969 56.277344 71.867188 56.355469 72.328125 C 56.4375 72.792969 56.238281 73.21875 55.917969 73.28125 C 55.597656 73.34375 55.269531 73.019531 55.191406 72.554688 C 55.109375 72.09375 55.308594 71.667969 55.628906 71.605469 Z M 55.628906 71.605469 "/>
<path style=" stroke:none;fill-rule:evenodd;fill:rgb(0%,0%,0%);fill-opacity:1;" d="M 53.613281 74.195312 C 53.933594 74.132812 54.257812 74.457031 54.339844 74.917969 C 54.417969 75.382812 54.222656 75.808594 53.902344 75.871094 C 53.578125 75.933594 53.253906 75.609375 53.175781 75.144531 C 53.09375 74.683594 53.289062 74.257812 53.613281 74.195312 Z M 53.613281 74.195312 "/>
<path style=" stroke:none;fill-rule:evenodd;fill:rgb(0%,0%,0%);fill-opacity:1;" d="M 61.621094 71.421875 C 61.941406 71.359375 62.265625 71.683594 62.347656 72.148438 C 62.425781 72.613281 62.230469 73.039062 61.910156 73.101562 C 61.585938 73.164062 61.261719 72.839844 61.183594 72.375 C 61.101562 71.914062 61.296875 71.484375 61.621094 71.421875 Z M 61.621094 71.421875 "/>
<path style=" stroke:none;fill-rule:evenodd;fill:rgb(0%,0%,0%);fill-opacity:1;" d="M 63.011719 72.359375 C 63.332031 72.296875 63.660156 72.621094 63.738281 73.085938 C 63.820312 73.546875 63.625 73.976562 63.300781 74.039062 C 62.980469 74.101562 62.65625 73.777344 62.574219 73.3125 C 62.496094 72.847656 62.691406 72.421875 63.011719 72.359375 Z M 63.011719 72.359375 "/>
<path style=" stroke:none;fill-rule:evenodd;fill:rgb(0%,0%,0%);fill-opacity:1;" d="M 43.089844 73.84375 C 43.410156 73.773438 43.742188 74.089844 43.832031 74.554688 C 43.921875 75.015625 43.738281 75.445312 43.417969 75.515625 C 43.097656 75.585938 42.761719 75.269531 42.671875 74.808594 C 42.582031 74.347656 42.769531 73.917969 43.089844 73.84375 Z M 43.089844 73.84375 "/>
<path style=" stroke:none;fill-rule:evenodd;fill:rgb(0%,0%,0%);fill-opacity:1;" d="M 44.753906 73.921875 C 45.074219 73.851562 45.40625 74.167969 45.496094 74.628906 C 45.585938 75.089844 45.402344 75.523438 45.082031 75.59375 C 44.761719 75.664062 44.429688 75.347656 44.339844 74.886719 C 44.25 74.425781 44.433594 73.992188 44.753906 73.921875 Z M 44.753906 73.921875 "/>
<path style=" stroke:none;fill-rule:evenodd;fill:rgb(0%,0%,0%);fill-opacity:1;" d="M 46.257812 74.578125 C 46.578125 74.507812 46.910156 74.824219 47 75.285156 C 47.089844 75.746094 46.902344 76.179688 46.582031 76.25 C 46.261719 76.320312 45.929688 76.003906 45.839844 75.542969 C 45.75 75.082031 45.9375 74.648438 46.257812 74.578125 Z M 46.257812 74.578125 "/>
<path style=" stroke:none;fill-rule:evenodd;fill:rgb(0%,0%,0%);fill-opacity:1;" d="M 47.671875 75.484375 C 47.992188 75.414062 48.324219 75.730469 48.414062 76.191406 C 48.503906 76.652344 48.316406 77.082031 47.996094 77.152344 C 47.675781 77.222656 47.34375 76.90625 47.253906 76.445312 C 47.164062 75.984375 47.351562 75.554688 47.671875 75.484375 Z M 47.671875 75.484375 "/>
<path style=" stroke:none;fill-rule:evenodd;fill:rgb(0%,0%,0%);fill-opacity:1;" d="M 107.679688 74.191406 C 107.984375 74.324219 108.09375 74.785156 107.925781 75.21875 C 107.757812 75.65625 107.375 75.902344 107.074219 75.773438 C 106.769531 75.640625 106.660156 75.179688 106.828125 74.746094 C 106.996094 74.308594 107.378906 74.0625 107.679688 74.191406 Z M 107.679688 74.191406 "/>
<path style=" stroke:none;fill-rule:evenodd;fill:rgb(0%,0%,0%);fill-opacity:1;" d="M 104.601562 74.253906 C 104.90625 74.386719 105.015625 74.847656 104.847656 75.28125 C 104.679688 75.71875 104.300781 75.964844 103.996094 75.832031 C 103.695312 75.703125 103.585938 75.242188 103.75 74.804688 C 103.917969 74.371094 104.300781 74.125 104.601562 74.253906 Z M 104.601562 74.253906 "/>
<path style=" stroke:none;fill-rule:evenodd;fill:rgb(0%,0%,0%);fill-opacity:1;" d="M 106.15625 73.996094 C 106.457031 74.128906 106.566406 74.585938 106.402344 75.023438 C 106.234375 75.460938 105.851562 75.707031 105.550781 75.574219 C 105.246094 75.445312 105.136719 74.984375 105.304688 74.546875 C 105.472656 74.113281 105.851562 73.863281 106.15625 73.996094 Z M 106.15625 73.996094 "/>
<path style=" stroke:none;fill-rule:evenodd;fill:rgb(0%,0%,0%);fill-opacity:1;" d="M 103.144531 75.023438 C 103.445312 75.152344 103.558594 75.613281 103.390625 76.050781 C 103.222656 76.484375 102.839844 76.730469 102.539062 76.601562 C 102.234375 76.46875 102.125 76.007812 102.292969 75.574219 C 102.460938 75.136719 102.839844 74.890625 103.144531 75.023438 Z M 103.144531 75.023438 "/>
<path style=" stroke:none;fill-rule:evenodd;fill:rgb(0%,0%,0%);fill-opacity:1;" d="M 71.136719 74.925781 C 75.296875 78.230469 75.371094 84.433594 75.371094 84.433594 C 75.371094 84.433594 74.703125 77.90625 79.160156 75.25 C 76.855469 75.972656 76.929688 75.8125 75.667969 75.734375 L 75.371094 73.636719 C 75.371094 73.636719 75.148438 74.683594 74.703125 75.652344 C 73.738281 75.972656 73.515625 75.972656 71.136719 74.925781 Z M 71.136719 74.925781 "/>
<path style=" stroke:none;fill-rule:evenodd;fill:rgb(0%,0%,0%);fill-opacity:1;" d="M 54.707031 77.339844 C 59.480469 79.511719 60.925781 85.523438 60.925781 85.523438 C 60.925781 85.523438 58.832031 79.347656 62.574219 75.648438 C 60.496094 76.929688 60.535156 76.753906 59.289062 76.992188 L 58.535156 75.027344 C 58.535156 75.027344 58.550781 76.101562 58.332031 77.152344 C 57.464844 77.707031 57.25 77.765625 54.707031 77.339844 Z M 54.707031 77.339844 "/>
<path style=" stroke:none;fill-rule:evenodd;fill:rgb(0%,0%,0%);fill-opacity:1;" d="M 88.46875 75.398438 C 91.722656 79.699219 90.347656 85.726562 90.347656 85.726562 C 90.347656 85.726562 91.222656 79.230469 96.160156 77.832031 C 93.761719 77.925781 93.871094 77.789062 92.667969 77.378906 L 92.871094 75.269531 C 92.871094 75.269531 92.410156 76.226562 91.753906 77.042969 C 90.742188 77.101562 90.527344 77.042969 88.46875 75.398438 Z M 88.46875 75.398438 "/>
<path style=" stroke:none;fill-rule:evenodd;fill:rgb(0%,0%,0%);fill-opacity:1;" d="M 45.722656 80.417969 C 49.3125 82.1875 51.175781 87.429688 51.175781 87.429688 C 51.175781 87.429688 48.84375 82.0625 50.871094 78.699219 C 49.632812 79.886719 49.632812 79.730469 48.8125 79.976562 L 48.015625 78.273438 C 48.015625 78.273438 48.179688 79.21875 48.183594 80.148438 C 47.667969 80.660156 47.527344 80.714844 45.722656 80.417969 Z M 45.722656 80.417969 "/>
<path style=" stroke:none;fill-rule:evenodd;fill:rgb(0%,0%,0%);fill-opacity:1;" d="M 100.847656 78.109375 C 101.535156 82.253906 98.550781 86.875 98.550781 86.875 C 98.550781 86.875 101.363281 81.773438 105.117188 81.621094 C 103.492188 81.21875 103.613281 81.128906 102.957031 80.554688 L 103.8125 78.882812 C 103.8125 78.882812 103.179688 79.566406 102.460938 80.101562 C 101.773438 79.945312 101.648438 79.855469 100.847656 78.109375 Z M 100.847656 78.109375 "/>
<path style=" stroke:none;fill-rule:evenodd;fill:rgb(95.294118%,93.725491%,49.019608%);fill-opacity:1;" d="M 75.140625 51.882812 C 76.101562 51.882812 76.878906 52.695312 76.878906 53.695312 C 76.878906 54.695312 76.101562 55.507812 75.140625 55.507812 C 74.183594 55.507812 73.40625 54.695312 73.40625 53.695312 C 73.40625 52.695312 74.183594 51.882812 75.140625 51.882812 Z M 75.140625 51.882812 "/>
<path style=" stroke:none;fill-rule:evenodd;fill:rgb(0%,0%,0%);fill-opacity:1;" d="M 75.027344 51.882812 L 75.390625 51.882812 L 75.390625 55.507812 L 75.027344 55.507812 Z M 75.027344 51.882812 "/>
<path style=" stroke:none;fill-rule:evenodd;fill:rgb(95.294118%,93.725491%,49.019608%);fill-opacity:1;" d="M 75.292969 63.351562 C 75.734375 63.351562 76.09375 63.757812 76.09375 64.257812 C 76.09375 64.757812 75.734375 65.164062 75.292969 65.164062 C 74.847656 65.164062 74.488281 64.757812 74.488281 64.257812 C 74.488281 63.757812 74.847656 63.351562 75.292969 63.351562 Z M 75.292969 63.351562 "/>
<path style=" stroke:none;fill-rule:evenodd;fill:rgb(95.294118%,93.725491%,49.019608%);fill-opacity:1;" d="M 75.242188 61.515625 C 75.65625 61.515625 75.992188 61.898438 75.992188 62.371094 C 75.992188 62.839844 75.65625 63.222656 75.242188 63.222656 C 74.824219 63.222656 74.488281 62.839844 74.488281 62.371094 C 74.488281 61.898438 74.824219 61.515625 75.242188 61.515625 Z M 75.242188 61.515625 "/>
<path style=" stroke:none;fill-rule:evenodd;fill:rgb(95.294118%,93.725491%,49.019608%);fill-opacity:1;" d="M 75.242188 59.789062 C 75.65625 59.789062 75.992188 60.144531 75.992188 60.585938 C 75.992188 61.027344 75.65625 61.386719 75.242188 61.386719 C 74.824219 61.386719 74.488281 61.027344 74.488281 60.585938 C 74.488281 60.144531 74.824219 59.789062 75.242188 59.789062 Z M 75.242188 59.789062 "/>
<path style=" stroke:none;fill-rule:evenodd;fill:rgb(95.294118%,93.725491%,49.019608%);fill-opacity:1;" d="M 75.242188 58.386719 C 75.601562 58.386719 75.890625 58.671875 75.890625 59.023438 C 75.890625 59.375 75.601562 59.660156 75.242188 59.660156 C 74.882812 59.660156 74.59375 59.375 74.59375 59.023438 C 74.59375 58.671875 74.882812 58.386719 75.242188 58.386719 Z M 75.242188 58.386719 "/>
<path style=" stroke:none;fill-rule:evenodd;fill:rgb(95.294118%,93.725491%,49.019608%);fill-opacity:1;" d="M 75.242188 56.765625 C 75.601562 56.765625 75.890625 57.097656 75.890625 57.511719 C 75.890625 57.921875 75.601562 58.253906 75.242188 58.253906 C 74.882812 58.253906 74.59375 57.921875 74.59375 57.511719 C 74.59375 57.097656 74.882812 56.765625 75.242188 56.765625 Z M 75.242188 56.765625 "/>
<path style=" stroke:none;fill-rule:evenodd;fill:rgb(95.294118%,93.725491%,49.019608%);fill-opacity:1;" d="M 75.242188 55.578125 C 75.546875 55.578125 75.792969 55.816406 75.792969 56.105469 C 75.792969 56.398438 75.546875 56.636719 75.242188 56.636719 C 74.941406 56.636719 74.695312 56.398438 74.695312 56.105469 C 74.695312 55.816406 74.941406 55.578125 75.242188 55.578125 Z M 75.242188 55.578125 "/>
<path style=" stroke:none;fill-rule:evenodd;fill:rgb(0%,0%,0%);fill-opacity:1;" d="M 76.941406 53.492188 L 76.945312 53.871094 L 73.472656 53.894531 L 73.46875 53.511719 Z M 76.941406 53.492188 "/>
<path style=" stroke:none;fill-rule:evenodd;fill:rgb(95.294118%,93.725491%,49.019608%);fill-opacity:1;" d="M 75.292969 65.1875 C 75.847656 65.1875 76.296875 65.667969 76.296875 66.257812 C 76.296875 66.847656 75.847656 67.328125 75.292969 67.328125 C 74.738281 67.328125 74.289062 66.847656 74.289062 66.257812 C 74.289062 65.667969 74.738281 65.1875 75.292969 65.1875 Z M 75.292969 65.1875 "/>
</g>
</svg>
