<?xml version="1.0" encoding="UTF-8"?>
<svg xmlns="http://www.w3.org/2000/svg" xmlns:xlink="http://www.w3.org/1999/xlink" width="40px" height="40px" viewBox="0 0 256 300" version="1.1">
<g id="surface1">
<path style=" stroke:none;fill-rule:nonzero;fill:rgb(100%,74.509805%,16.078432%);fill-opacity:1;" d="M 0 1.050781 L 256.097656 1.050781 L 256.097656 301.484375 L 0 301.484375 Z M 0 1.050781 "/>
<path style=" stroke:none;fill-rule:nonzero;fill:rgb(92.156863%,45.490196%,0%);fill-opacity:1;" d="M 10.671875 151.265625 L 45.882812 26.085938 L 81.097656 26.085938 L 81.097656 276.445312 L 45.882812 276.445312 Z M 10.671875 151.265625 "/>
<path style=" stroke:none;fill-rule:nonzero;fill:rgb(0%,32.549021%,30.588236%);fill-opacity:1;" d="M 10.671875 26.085938 L 45.882812 26.085938 L 45.882812 276.445312 L 10.671875 276.445312 Z M 10.671875 26.085938 "/>
<path style=" stroke:none;fill-rule:nonzero;fill:rgb(55.29412%,8.235294%,22.745098%);fill-opacity:1;" d="M 91.769531 26.085938 L 246.492188 26.085938 L 246.492188 276.445312 L 91.769531 276.445312 Z M 91.769531 26.085938 "/>
<path style="fill-rule:nonzero;fill:rgb(100%,74.509805%,16.078432%);fill-opacity:1;stroke-width:2.125757;stroke-linecap:butt;stroke-linejoin:miter;stroke:rgb(0%,0%,0%);stroke-opacity:1;stroke-miterlimit:4;" d="M 1086.102907 466.063049 C 1086.102907 466.063049 1092.893567 479.90238 1100.416374 485.542649 C 1111.545002 493.897736 1134.35137 493.289243 1144.034009 503.040745 C 1155.638533 514.531915 1143.137129 529.720855 1143.246951 531.039258 L 1143.869276 539.058893 C 1143.869276 539.058893 1136.053611 539.152508 1132.758951 539.667387 C 1127.798657 540.439706 1125.876773 544.472927 1116.651725 543.872235 C 1093.460981 542.366603 1094.394468 521.474984 1093.076604 503.625835 C 1091.923473 496.823187 1089.232834 487.961022 1087.695326 481.166175 C 1086.377462 475.338677 1086.102907 466.063049 1086.102907 466.063049 Z M 1086.102907 466.063049 " transform="matrix(0.213414,0,0,0.500724,0,1.048951)"/>
<path style="fill-rule:nonzero;fill:rgb(100%,74.509805%,16.078432%);fill-opacity:1;stroke-width:2.125757;stroke-linecap:butt;stroke-linejoin:miter;stroke:rgb(0%,0%,0%);stroke-opacity:1;stroke-miterlimit:4;" d="M 1086.096988 466.063049 C 1086.096988 466.063049 1092.905951 479.90238 1100.410454 485.542649 C 1111.539083 493.897736 1134.34545 493.289243 1144.046393 503.040745 C 1155.650917 514.531915 1143.13121 529.720855 1143.241032 531.039258 L 1143.88166 539.058893 C 1143.88166 539.058893 1136.047691 539.152508 1132.753031 539.667387 C 1127.811042 540.439706 1125.870853 544.472927 1116.645806 543.872235 C 1093.455061 542.366603 1094.388548 521.474984 1093.088988 503.625835 C 1091.917553 496.823187 1089.226915 487.961022 1087.689407 481.166175 C 1086.371543 475.338677 1086.096988 466.063049 1086.096988 466.063049 Z M 1086.096988 466.063049 " transform="matrix(-0.213414,0,0,0.500724,338.260455,1.048951)"/>
<path style="fill-rule:nonzero;fill:rgb(100%,74.509805%,16.078432%);fill-opacity:1;stroke-width:2.125757;stroke-linecap:butt;stroke-linejoin:miter;stroke:rgb(0%,0%,0%);stroke-opacity:1;stroke-miterlimit:4;" d="M 1086.102907 466.057512 C 1086.102907 466.057512 1092.893567 479.904645 1100.416374 485.537113 C 1111.545002 493.8922 1134.35137 493.291508 1144.034009 503.04301 C 1155.638533 514.53418 1143.137129 529.72312 1143.246951 531.041523 L 1143.869276 539.061158 C 1143.869276 539.061158 1136.053611 539.154773 1132.758951 539.669652 C 1127.798657 540.441971 1125.876773 544.475192 1116.651725 543.8745 C 1093.460981 542.368868 1094.394468 521.477249 1093.076604 503.620299 C 1091.923473 496.825452 1089.232834 487.963287 1087.695326 481.16844 C 1086.377462 475.340942 1086.102907 466.057512 1086.102907 466.057512 Z M 1086.102907 466.057512 " transform="matrix(0.213414,0,0,-0.500724,0,301.483433)"/>
<path style="fill-rule:nonzero;fill:rgb(100%,74.509805%,16.078432%);fill-opacity:1;stroke-width:2.125757;stroke-linecap:butt;stroke-linejoin:miter;stroke:rgb(0%,0%,0%);stroke-opacity:1;stroke-miterlimit:4;" d="M 1086.096988 466.057512 C 1086.096988 466.057512 1092.905951 479.904645 1100.410454 485.537113 C 1111.539083 493.8922 1134.34545 493.291508 1144.046393 503.04301 C 1155.650917 514.53418 1143.13121 529.72312 1143.241032 531.041523 L 1143.88166 539.061158 C 1143.88166 539.061158 1136.047691 539.154773 1132.753031 539.669652 C 1127.811042 540.441971 1125.870853 544.475192 1116.645806 543.8745 C 1093.455061 542.368868 1094.388548 521.477249 1093.088988 503.620299 C 1091.917553 496.825452 1089.226915 487.963287 1087.689407 481.16844 C 1086.371543 475.340942 1086.096988 466.057512 1086.096988 466.057512 Z M 1086.096988 466.057512 " transform="matrix(-0.213414,0,0,-0.500724,338.260455,301.483433)"/>
<path style="fill-rule:nonzero;fill:rgb(100%,74.509805%,16.078432%);fill-opacity:1;stroke-width:5.5598;stroke-linecap:butt;stroke-linejoin:miter;stroke:rgb(0%,0%,0%);stroke-opacity:1;stroke-miterlimit:4;" d="M 681.536987 479.559128 L 685.89326 477.039339 L 687.760234 479.566929 C 690.249532 482.921446 697.13171 482.88244 701.689323 479.488917 L 705.16702 476.891117 L 708.095606 479.488917 C 711.939376 482.905843 719.114413 482.905843 723.690329 479.496718 C 726.893471 477.10955 727.332759 477.062743 729.455984 478.880423 C 730.718937 479.96479 734.434581 481.19738 737.692633 481.618645 C 743.586414 482.383163 743.659628 482.344157 747.100717 477.179761 C 749.992697 472.850094 750.450288 471.102625 749.754749 466.905578 C 749.297157 464.128351 748.802958 459.650461 748.656529 456.966847 C 748.400278 452.091096 748.436885 452.067693 755.520404 449.594712 C 759.437388 448.229501 763.976697 446.40402 765.605723 445.530286 C 768.424488 444.009051 776.240153 434.827037 776.240153 433.017158 C 776.240153 432.541285 773.183441 431.807972 769.467797 431.386707 C 754.623524 429.725051 752.115922 421.760024 761.761953 406.968946 C 777.484802 382.839829 786.966101 359.342609 787.039316 344.372103 C 787.057619 337.678672 787.441996 335.439727 788.302269 336.89075 C 791.816572 342.835266 785.520111 367.767907 775.983902 385.671665 L 772.158436 392.879975 L 775.819169 392.037445 C 777.832572 391.569373 789.675043 386.576604 802.13984 380.928534 C 836.257872 365.482155 847.972218 362.447487 870.046439 363.383631 C 888.551445 364.15595 896.422021 367.775708 909.490838 381.466817 C 916.409624 388.729736 923.072158 393.917535 935.262399 401.54711 C 961.235301 417.812616 962.315217 419.216832 963.559866 438.337578 C 964.804516 457.707962 964.182191 458.761124 949.520955 461.998623 C 937.001248 464.768049 929.148975 470.603348 927.044054 478.716598 C 925.92753 483.046265 928.288703 483.171084 934.603467 479.114459 L 939.234295 476.142201 L 941.284305 479.114459 C 943.993248 483.022861 949.740599 483.038464 954.517856 479.153465 L 958.123678 476.212412 L 961.821018 479.153465 C 967.531762 483.717168 975.16439 482.609397 977.305919 476.898918 C 977.726903 475.798948 978.825123 476.150002 981.058171 478.092502 C 985.24971 481.727862 995.975658 483.288102 997.128789 480.432862 C 997.568077 479.340694 996.726108 476.641478 995.261815 474.441539 C 989.020265 465.080097 987.061773 460.61781 986.988558 455.523625 C 986.878736 448.440134 988.983658 445.023208 997.055574 439.258119 C 1006.848035 432.25264 1009.86814 423.22665 1002.418548 423.22665 C 997.824328 423.22665 993.193501 419.162224 990.228307 412.539004 C 984.224705 399.074129 985.396139 383.986605 994.419846 358.882338 C 1003.571679 333.38021 1004.596685 328.676085 1004.633292 311.622658 C 1004.669899 297.837935 1004.32213 295.450767 1001.173899 287.891402 C 999.252014 283.26529 995.371637 276.38463 992.534569 272.593246 L 987.372935 265.704785 L 993.998862 260.212739 C 1014.224413 243.455757 1010.087784 216.018931 985.725605 205.448303 C 978.276013 202.210804 976.40904 201.929961 963.358526 202.015774 C 955.524557 202.070382 943.572264 203.100141 936.818211 204.309327 C 929.917729 205.541917 918.23999 206.524868 910.222985 206.556073 C 897.501937 206.610682 895.342105 206.298634 890.436722 203.685231 C 885.33 200.962612 884.451424 199.675413 883.444722 193.379844 C 883.243382 192.084844 882.328199 190.797646 881.431319 190.516802 C 879.692471 189.970718 871.675465 196.937191 870.485727 200.026467 C 869.90001 201.547702 869.424114 201.446286 867.70357 199.410172 C 866.550439 198.060565 864.95802 194.963487 864.152659 192.521711 C 862.139255 186.389967 864.628554 181.787258 871.840198 178.339127 L 877.422816 175.671116 L 874.128156 173.6194 C 867.319193 169.398949 855.751276 172.285394 851.559737 179.259668 C 850.369998 181.225571 849.088742 182.848221 848.686061 182.848221 C 848.283381 182.848221 846.050333 180.975933 843.689161 178.666777 C 834.885097 170.077654 837.923506 157.369496 849.674459 153.492299 C 855.952616 151.424981 861.498627 153.000823 862.651758 157.182268 C 864.40891 163.563651 869.881706 155.177359 868.911612 147.594591 C 868.25268 142.562815 868.344198 142.383388 871.840198 142.383388 C 876.69067 142.383388 886.995633 148.749168 890.198775 153.702932 C 893.896115 159.460218 893.62156 168.525215 889.558146 175.288857 L 886.355005 180.593674 L 890.528241 179.751144 C 896.678272 178.518554 902.645267 174.703767 905.665372 170.077654 C 908.868514 165.1863 909.19798 155.661033 906.379215 150.527842 C 903.633665 145.542875 903.944828 144.754953 907.989938 146.432212 C 914.89042 149.295253 918.58776 152.454739 921.351614 157.868773 C 923.840912 162.736723 923.987341 163.953711 922.63287 169.024492 C 921.790902 172.152774 919.942231 176.271808 918.514545 178.175301 C 916.281498 181.131957 916.208284 181.631234 917.983739 181.631234 C 921.296703 181.631234 928.197184 178.502952 930.649876 175.89735 C 931.876221 174.578947 933.688284 171.325846 934.658378 168.681239 L 936.41553 163.867897 L 938.447237 167.534462 C 941.302609 172.730063 946.866923 177.395181 953.63928 180.305029 C 960.942442 183.433311 963.980851 183.604938 960.155385 180.687288 C 957.592871 178.713584 952.852222 164.804042 954.279908 163.446632 C 955.14018 162.643109 965.042463 170.264883 976.335825 180.414246 C 987.043469 190.017526 993.760915 193.16141 1003.571679 193.16141 C 1016.127994 193.16141 1023.431156 182.239727 1017.793627 171.910936 C 1014.498968 165.888409 1007.177501 165.05368 1002.894444 170.210274 C 1000.935951 172.58184 1000.386841 174.461929 1000.954255 176.950513 C 1001.668098 180.000783 1001.393543 180.406445 998.611386 180.406445 C 994.968956 180.406445 987.775616 175.741326 975.017961 165.084885 C 955.542861 148.834982 931.876221 135.065861 914.798901 130.034085 C 903.835006 126.804388 880.406314 125.548395 869.277685 127.584508 C 857.215569 129.792248 842.93871 136.696312 835.177956 144.08405 C 821.395296 157.182268 821.175652 174.602351 834.592239 190.469995 L 838.436009 195.018096 L 835.836888 199.051317 C 832.048029 204.933423 832.377495 212.836041 836.623946 218.663538 C 838.509223 221.230134 840.394501 223.328657 840.833789 223.328657 C 841.273077 223.328657 841.748972 221.674802 841.913705 219.662092 C 842.279778 214.567907 844.476218 211.150981 848.22847 209.801373 C 851.596344 208.576584 853.792784 209.153873 869.277685 215.332425 C 885.567947 221.838627 912.34621 222.283296 940.826714 216.526009 C 954.792411 213.709775 971.26571 213.8736 978.513961 216.908268 C 991.784119 222.470525 994.859134 236.941754 985.103281 247.933647 C 980.875134 252.684579 976.81172 254.627078 963.120578 258.379456 C 952.705793 261.234696 950.253101 261.429726 926.586462 261.187889 C 906.360911 260.985058 899.094356 261.375118 890.839403 263.099183 C 881.888911 264.971472 876.379507 265.158701 850.058836 264.495598 L 819.61984 263.731081 L 822.987715 266.523911 C 824.854689 268.060748 827.472113 269.948638 828.826584 270.720957 C 831.114542 272.039361 831.041328 272.218788 827.636846 273.482583 C 825.623443 274.223697 821.175652 274.832191 817.734563 274.832191 L 811.493013 274.832191 L 810.651044 280.144809 C 810.193453 283.062459 810.23006 286.463782 810.742563 287.711975 C 811.474709 289.553058 811.200154 289.810498 809.259966 289.10839 C 807.960405 288.632517 804.299672 287.696372 801.133138 287.025469 C 797.984908 286.354566 793.738457 284.989355 791.70675 283.990802 C 788.265661 282.313543 787.899588 282.36035 786.636635 284.591494 C 785.501808 286.588602 774.922289 294.460014 773.384781 294.460014 C 773.12853 294.460014 772.799064 292.93878 772.652634 291.082094 C 772.506205 289.233209 770.987001 284.404265 769.266456 280.355442 C 767.545912 276.306618 765.752153 271.891138 765.276257 270.54153 C 764.562414 268.505416 764.232948 268.404 763.372676 269.933036 C 762.805262 270.939391 761.963294 273.701016 761.505702 276.064781 C 761.066414 278.420744 759.473995 282.258935 757.973095 284.583693 L 755.245849 288.811944 L 753.507 285.199988 C 751.640026 281.314989 748.546707 277.289569 747.430183 277.289569 C 747.045806 277.289569 746.405178 278.52996 746.002497 280.043393 C 745.142225 283.218483 737.802455 292.002636 736.008696 292.002636 C 735.349764 292.002636 734.800654 289.521854 734.800654 286.487186 C 734.800654 283.452519 734.214937 280.963935 733.501094 280.963935 C 732.805555 280.963935 732.219837 281.751857 732.219837 282.711404 C 732.219837 285.043964 725.94168 292.002636 723.836758 292.002636 C 722.921575 292.002636 721.438978 292.829563 720.560402 293.843719 C 718.25414 296.480526 716.350559 296.113869 717.320653 293.211822 C 717.778245 291.854413 717.485386 288.679324 716.661722 286.159536 C 715.85636 283.639747 714.977784 280.963935 714.739837 280.199418 C 714.428674 279.247671 712.177323 279.505111 707.41837 281.026345 C 699.749135 283.491525 697.168318 283.054657 701.121909 279.95758 C 702.567899 278.826406 704.764339 274.910203 706.008988 271.251439 C 707.235334 267.584874 709.0657 264.339574 710.072402 264.035328 C 711.463481 263.59846 711.390266 264.136743 709.742936 266.360086 C 708.571501 267.951531 707.601407 270.08906 707.601407 271.118819 C 707.601407 272.156379 706.722831 274.598155 705.642915 276.548455 C 704.562999 278.506557 703.885763 280.300833 704.142014 280.534869 C 704.379962 280.768905 707.308548 279.661135 710.639816 278.069689 L 716.680025 275.167642 L 716.698329 277.757641 C 716.716633 279.185261 717.448779 282.945441 718.327355 286.12053 L 719.919774 291.885618 L 724.019795 289.997727 C 728.229638 288.063029 732.219837 281.174568 732.219837 275.830745 C 732.219837 273.193938 733.720738 273.599601 734.343062 276.400232 C 734.526099 277.22716 735.47789 280.316436 736.447984 283.273091 L 738.241743 288.640318 L 741.060508 285.254596 C 742.598016 283.390109 744.538204 279.731345 745.361869 277.117943 C 746.807859 272.593246 749.040906 270.650747 749.040906 273.935053 C 749.040906 276.306618 755.5021 284.794325 756.765053 284.068814 C 757.35077 283.717759 758.558812 280.527068 759.419084 276.985322 C 761.212844 269.613187 764.123126 264.604815 765.953493 265.681381 C 766.649032 266.087044 766.923587 266.874965 766.557514 267.42885 C 766.191441 267.990537 767.692341 272.780475 769.870477 278.077491 C 772.048614 283.374507 774.245053 288.710529 774.739252 289.935317 C 775.52631 291.893419 776.258457 291.612576 780.925891 287.477939 C 783.836174 284.911343 786.490206 282.0327 786.801368 281.088755 C 787.277263 279.653333 787.936195 279.707942 790.645138 281.393001 C 794.4523 283.756765 807.264866 287.563752 808.253264 286.627608 C 808.619337 286.276554 809.003714 282.914236 809.095233 279.161858 L 809.259966 272.328005 L 812.939002 273.092523 C 814.970709 273.505986 819.21716 273.482583 822.401997 273.030113 L 828.185956 272.210987 L 823.024322 268.677043 C 820.187254 266.734543 817.331882 264.222556 816.67295 263.091382 C 815.959107 261.889997 813.433201 260.86804 810.57783 260.618401 C 802.871986 259.9631 789.180844 252.294519 789.180844 248.627954 C 789.180844 247.933647 791.084426 249.111629 793.390688 251.233555 C 798.534018 255.93768 805.672447 258.894336 811.895693 258.894336 L 816.563128 258.894336 L 813.671149 255.056144 C 812.023819 252.848404 810.541222 248.674761 810.175149 245.234431 C 809.626039 239.750187 809.040322 238.884253 803.329578 234.90564 C 799.888489 232.510671 795.623735 228.92992 793.866583 226.940613 L 790.645138 223.328657 L 789.016112 227.619318 C 788.119232 229.983082 787.002708 231.909979 786.56342 231.909979 C 786.124132 231.909979 784.385284 230.529166 782.719651 228.844107 C 781.035713 227.159047 779.333472 225.786035 778.930792 225.793837 C 778.509807 225.801638 777.045514 228.071788 775.636132 230.841214 L 773.091922 235.872989 L 771.115127 232.970942 C 770.03521 231.379497 767.472697 228.555462 765.44099 226.698776 C 763.39098 224.84209 762.311063 223.328657 763.04321 223.328657 C 763.775357 223.328657 766.301263 225.263355 768.644132 227.619318 L 772.927189 231.91778 L 774.666038 228.766095 C 775.709347 226.901607 776.093724 224.030765 775.617828 221.713808 C 774.940593 218.335888 775.032111 218.140858 776.331671 220.262785 C 777.155336 221.612393 779.662938 224.19459 781.895986 226.01227 L 785.959399 229.304377 L 788.75986 224.171187 C 791.542017 219.0614 791.560321 219.053598 792.841578 222.103868 C 794.525515 226.183897 806.807274 236.247447 817.276971 242.129553 C 818.887694 243.042294 818.210458 239.921813 815.226961 232.752509 C 814.439903 230.856817 813.799275 227.432089 813.799275 225.146337 C 813.799275 221.752814 812.810877 220.247182 808.472908 216.947274 C 802.213054 212.18074 800.199651 208.795018 799.009913 201.110834 C 798.534018 197.998155 797.435798 194.534421 796.575525 193.41885 C 795.312572 191.757194 795.092928 192.685537 795.440698 198.466227 C 795.660342 202.359027 795.166143 207.203573 794.305871 209.224084 L 792.768363 212.906251 L 791.578625 209.840379 C 790.919693 208.147518 788.00941 205.222068 785.117431 203.318575 C 782.225452 201.422882 780.193745 199.550594 780.614729 199.160534 C 781.01741 198.770474 784.000907 200.502341 787.222352 203.006526 C 792.127735 206.821314 793.207651 207.234778 793.90319 205.549718 C 794.690248 203.576014 793.90319 194.986891 792.347379 188.987767 C 791.578625 185.992105 791.651839 186.007708 795.34918 189.705477 C 798.076426 192.428097 799.577327 195.681198 800.748761 201.352672 C 802.231358 208.560982 802.981808 209.762367 809.644343 215.613268 C 813.652845 219.123809 817.130542 221.807423 817.386793 221.565585 C 817.643044 221.323748 818.137243 212.235348 818.503317 201.360473 C 819.198856 180.523463 818.411798 175.561899 813.396594 169.125907 L 810.815777 165.818198 L 814.860887 161.441724 C 820.150647 155.739045 822.585034 151.167541 823.646647 144.92658 L 824.488615 139.855798 L 819.912699 144.185465 C 816.178751 147.735012 814.384992 148.522934 810.047023 148.522934 C 805.745662 148.522934 804.080028 147.797422 801.169745 144.715947 C 797.710353 141.010376 791.542017 137.453028 785.629933 135.721162 C 783.433494 135.073662 782.719651 135.354505 782.719651 136.836733 C 782.719651 137.9211 781.511609 141.049382 780.029012 143.787604 L 777.338373 148.772572 L 771.719148 143.210315 C 768.278058 139.80119 764.178037 137.148781 761.139629 136.345258 C 753.360571 134.301343 752.939587 134.504174 752.939587 140.300467 C 752.939587 149.100223 749.169032 150.730674 742.414979 144.887574 C 737.271649 140.433087 732.988591 139.465738 723.232737 140.542304 L 715.691627 141.369232 L 717.046099 144.770556 C 718.180926 147.617994 717.924674 148.819379 715.490287 152.049077 C 711.554999 157.283683 706.429972 159.553833 698.541093 159.553833 C 694.916967 159.553833 690.359354 160.310549 688.437469 161.22329 C 686.515584 162.143832 681.738328 163.204795 677.821343 163.579253 C 673.904359 163.953711 669.731123 164.624614 668.541385 165.069282 C 666.692715 165.755788 666.491374 165.1863 667.077092 160.96585 C 667.992275 154.506455 663.489573 149.747722 656.460965 149.747722 C 647.34574 149.747722 643.135897 157.907779 646.705112 168.665636 C 647.382347 170.740756 648.297531 174.00946 648.700211 175.928555 C 649.121196 177.917862 653.23952 183.207076 658.273028 188.246653 C 663.1235 193.099 667.699416 198.146378 668.449866 199.464781 C 669.21862 200.790985 671.689615 202.905111 673.995877 204.168905 L 678.150809 206.478061 L 677.601699 202.023575 C 676.997678 197.132222 678.059291 196.367704 680.658411 199.815835 C 681.591898 201.056226 683.953071 203.045532 685.911563 204.254719 C 689.004883 206.150411 689.480778 206.189417 689.480778 204.543363 C 689.480778 203.498002 690.103103 201.087431 690.871857 199.183938 L 692.281239 195.735806 L 694.697323 200.43213 C 696.03349 203.014328 700.371459 208.888633 704.343355 213.48354 C 712.030894 222.392513 716.734936 232.346846 714.300549 234.640399 C 713.330454 235.568742 710.676423 235.498532 705.16702 234.398562 C 700.902265 233.54043 695.63081 233.08796 693.452674 233.384406 C 688.986579 234.008502 688.63881 233.431213 691.384359 229.998684 C 694.276339 226.378927 693.818747 225.778234 688.126307 225.778234 C 681.555291 225.778234 665.228421 222.626549 658.968568 220.145767 C 652.873447 217.735195 651.464065 218.335888 649.670306 224.116578 C 648.864944 226.714378 647.382347 231.434106 646.375646 234.593592 L 644.563583 240.335277 L 651.152902 239.703379 C 654.795332 239.352325 659.444463 238.556603 661.531081 237.932507 C 663.599395 237.316212 665.484673 236.988561 665.704317 237.199194 C 665.942264 237.417627 665.027081 239.664373 663.654306 242.191963 L 661.183311 246.779069 L 665.301636 245.944341 C 667.552987 245.48407 670.957469 244.352896 672.86105 243.440155 C 676.15571 241.840909 676.411961 241.957927 679.029385 246.139371 C 682.232527 251.272562 684.776736 251.061929 685.34415 245.61669 C 685.948171 239.984223 687.796841 240.81115 691.274537 248.2769 C 694.624108 255.454006 698.120108 257.989396 698.77904 253.737741 C 699.016988 252.325724 700.810747 250.024369 702.805847 248.627954 C 706.814349 245.796118 709.834454 246.646449 711.573302 251.085333 C 713.367062 255.68024 709.358559 260.41557 697.717428 267.475657 C 674.398558 281.619236 660.835542 300.958415 656.955164 325.602412 C 653.477468 347.835836 664.368149 370.810376 686.259333 387.309917 C 696.710726 395.212535 713.348758 403.544218 712.287145 400.361328 C 707.802747 386.857447 707.949177 361.090078 712.543397 356.744809 C 713.238936 356.089508 713.000988 358.780922 712.01259 362.720529 C 708.370161 377.386789 709.96258 389.08079 719.297449 416.47861 C 727.753743 441.263028 726.582308 451.85706 714.611711 458.854738 C 710.786245 461.101484 708.296946 461.475942 697.973679 461.351123 C 686.771836 461.210701 685.54549 461.436936 681.957972 464.307778 C 678.461971 467.085006 673.940966 476.212412 673.940966 480.471868 C 673.940966 482.773223 676.503479 482.468976 681.536987 479.566929 Z M 681.536987 479.559128 " transform="matrix(0.213414,0,0,0.500724,0,1.048951)"/>
<path style="fill-rule:nonzero;fill:rgb(100%,74.509805%,16.078432%);fill-opacity:1;stroke-width:5.5598;stroke-linecap:butt;stroke-linejoin:miter;stroke:rgb(0%,0%,0%);stroke-opacity:1;stroke-miterlimit:4;" d="M 863.457119 479.059851 L 868.142858 476.040786 L 871.345999 479.059851 C 875.519235 483.01506 880.424617 482.929247 884.43312 478.825815 C 886.190272 477.031538 887.764387 475.791147 887.92912 476.064189 C 888.112157 476.337231 888.880911 477.663436 889.667968 479.013043 C 890.67467 480.721507 892.706377 481.579639 896.385414 481.84488 C 900.833204 482.156928 902.022943 481.727862 903.798398 479.176869 L 905.90332 476.1344 L 910.534147 479.106658 C 923.200284 487.251112 929.954336 478.708797 924.2802 461.694376 C 921.406525 453.050644 922.98064 448.182694 932.260598 437.175199 C 936.177583 432.533484 939.380724 427.57972 939.380724 426.167703 C 939.380724 423.913156 938.666881 423.608909 933.450336 423.710324 C 928.471739 423.81174 927.007446 423.273457 924.390022 420.387013 C 920.125268 415.690689 920.381519 410.315661 925.140472 404.347742 L 928.965938 399.573406 L 922.193582 394.9863 C 918.477938 392.466512 911.778796 386.498592 907.294398 381.724257 C 897.245686 371.005406 887.361707 365.919022 874.329497 364.772245 L 865.580345 363.999926 L 865.598648 370.615345 C 865.616952 379.126457 869.607151 387.32552 880.516136 401.196056 C 892.926021 416.977887 893.786293 419.419663 894.298796 440.046041 L 894.71978 457.489528 L 891.132262 460.890852 C 887.892513 463.972327 886.42822 464.362387 875.958523 464.97088 C 866.001329 465.540368 863.896407 466.055247 860.967821 468.645246 C 857.087444 472.085576 855.934313 473.957865 854.726271 478.708797 C 854.030732 481.478223 854.32359 482.078916 856.31869 482.078916 C 857.654857 482.078916 860.857999 480.721507 863.457119 479.059851 Z M 863.457119 479.059851 " transform="matrix(0.213414,0,0,0.500724,0,1.048951)"/>
<path style="fill-rule:nonzero;fill:rgb(100%,74.509805%,16.078432%);fill-opacity:1;stroke-width:5.5598;stroke-linecap:butt;stroke-linejoin:miter;stroke:rgb(0%,0%,0%);stroke-opacity:1;stroke-miterlimit:4;" d="M 596.827623 433.976706 C 597.925843 432.478875 598.841026 430.060503 598.841026 428.601678 C 598.841026 426.393938 599.829424 425.808848 604.661592 425.122342 L 610.500461 424.287613 L 606.60178 421.190536 C 601.989257 417.508369 601.568272 414.629726 605.631686 414.629726 C 609.6951 414.629726 616.558975 410.417077 617.602283 407.296596 C 618.096482 405.853374 617.78532 403.918676 616.906744 402.920122 C 614.63709 400.330123 610.372336 400.720183 609.566974 403.591025 C 608.725006 406.688102 607.279016 406.695903 604.039267 403.62223 C 599.170492 399.01172 599.06067 389.455248 603.819623 383.892991 C 606.070974 381.271787 606.052671 381.100161 603.178995 378.393144 C 600.103979 375.483295 597.907539 369.718207 599.353529 368.345196 C 599.811121 367.91613 602.245508 368.259383 604.75311 369.117515 C 608.322325 370.342303 609.731707 370.357906 611.196001 369.203328 C 615.643791 365.70839 610.829927 361.207096 603.691498 362.20565 C 600.817822 362.603511 599.628084 362.20565 599.225403 360.715621 C 598.914241 359.584446 596.406639 358.110019 593.569571 357.392309 C 588.517759 356.112911 588.481152 356.128514 588.481152 359.615651 C 588.481152 363.430439 586.303015 364.148149 582.148083 361.698572 C 578.798512 359.709265 575.522156 361.253903 575.522156 364.842456 C 575.522156 368.181371 578.890031 369.835225 584.911937 369.445165 C 589.542764 369.14872 589.707497 372.581248 585.314617 377.52721 L 582.166387 381.076757 L 584.655685 384.673111 C 588.37133 389.993531 588.060167 398.824491 584.015057 403.216568 L 580.830219 406.656897 L 578.761905 403.895272 C 575.869926 400.064882 571.916334 400.322322 570.818114 404.410151 C 570.104271 407.093765 570.708292 408.318553 574.057863 411.158191 C 576.309214 413.069485 579.603874 414.629726 581.379329 414.629726 C 585.753905 414.629726 585.589172 418.070056 581.03156 421.549392 L 577.462345 424.272011 L 582.971748 425.122342 C 585.991853 425.598215 588.481152 426.479751 588.481152 427.088245 C 588.481152 429.428605 592.288314 436.707127 593.51466 436.707127 C 594.228503 436.707127 595.711099 435.474537 596.827623 433.976706 Z M 596.827623 433.976706 " transform="matrix(0.213414,0,0,0.500724,0,1.048951)"/>
<path style="fill-rule:nonzero;fill:rgb(100%,74.509805%,16.078432%);fill-opacity:1;stroke-width:5.5598;stroke-linecap:butt;stroke-linejoin:miter;stroke:rgb(0%,0%,0%);stroke-opacity:1;stroke-miterlimit:4;" d="M 668.486474 402.920122 C 673.483374 400.946418 684.300841 391.787807 684.300841 389.525458 C 684.300841 388.807748 681.317343 385.523442 677.65661 382.223534 C 669.987374 375.272663 661.622599 363.563059 659.462767 356.721405 C 658.327939 353.148455 652.873447 347.040114 637.516672 332.139819 L 617.053174 312.309164 L 611.159393 313.799193 C 607.919644 314.61832 603.966053 315.312626 602.373634 315.33603 C 599.628084 315.382837 599.682995 315.538861 603.325424 318.362896 L 607.187498 321.335154 L 612.568775 318.347294 C 617.803624 315.437446 617.98666 315.421843 618.645592 317.762204 C 619.011666 319.127414 618.206304 321.498979 616.760315 323.238647 C 615.350933 324.923707 614.563875 326.842803 614.984859 327.490302 C 615.405844 328.145603 614.051372 329.510814 611.983058 330.52497 C 608.157592 332.405059 605.485257 338.591412 608.505362 338.591412 C 611.232608 338.591412 617.254514 331.180271 616.558975 328.668284 C 616.211205 327.381086 616.375938 326.062682 616.943352 325.735032 C 619.286221 324.36202 619.139791 330.181717 616.760315 333.052559 C 615.350933 334.737619 614.563875 336.648913 614.984859 337.304214 C 615.405844 337.959515 614.051372 339.316924 611.983058 340.33108 C 608.175896 342.203369 605.485257 348.405324 608.487058 348.405324 C 611.433948 348.405324 617.346032 341.314032 616.613886 338.669424 C 616.229509 337.280811 616.375938 335.876594 616.943352 335.541143 C 618.517467 334.620601 619.359435 339.215509 618.041571 341.470056 C 617.327729 342.679242 617.327729 344.325296 618.059875 345.628096 C 619.359435 347.99186 618.041571 352.539961 615.625488 353.951979 C 614.582179 354.560472 615.296022 355.746255 617.803624 357.641947 C 621.42775 360.380169 621.500964 360.668813 621.500964 372.768477 C 621.500964 382.886636 621.903645 385.492237 623.770619 387.255309 C 625.857237 389.229013 626.02197 389.236814 626.02197 387.341122 C 626.02197 385.273804 629.664399 382.746214 632.629593 382.746214 C 633.508169 382.746214 638.980965 387.380128 644.801531 393.051602 C 650.658703 398.762081 656.772128 403.614429 658.510976 403.926477 C 660.231521 404.230724 662.098494 404.558374 662.647604 404.651989 C 663.215018 404.745603 665.832442 403.965483 668.486474 402.920122 Z M 668.486474 402.920122 " transform="matrix(0.213414,0,0,0.500724,0,1.048951)"/>
<path style="fill-rule:nonzero;fill:rgb(100%,74.509805%,16.078432%);fill-opacity:1;stroke-width:5.5598;stroke-linecap:butt;stroke-linejoin:miter;stroke:rgb(0%,0%,0%);stroke-opacity:1;stroke-miterlimit:4;" d="M 605.961152 353.998786 C 605.961152 350.737884 599.243707 347.258548 591.190094 346.361409 C 584.692293 345.628096 584.600774 345.674904 584.600774 348.912402 C 584.600774 351.603817 585.607476 352.656979 590.091874 354.60728 C 597.303518 357.743363 605.961152 357.407911 605.961152 353.998786 Z M 605.961152 353.998786 " transform="matrix(0.213414,0,0,0.500724,0,1.048951)"/>
<path style="fill-rule:nonzero;fill:rgb(100%,74.509805%,16.078432%);fill-opacity:1;stroke-width:5.5598;stroke-linecap:butt;stroke-linejoin:miter;stroke:rgb(0%,0%,0%);stroke-opacity:1;stroke-miterlimit:4;" d="M 613.337529 353.70234 C 616.613886 350.722281 618.169697 347.180536 616.192901 347.180536 C 613.923247 347.180536 607.901341 352.586768 607.901341 354.622882 C 607.901341 357.805772 609.017864 357.610742 613.337529 353.70234 Z M 613.337529 353.70234 " transform="matrix(0.213414,0,0,0.500724,0,1.048951)"/>
<path style="fill-rule:nonzero;fill:rgb(100%,74.509805%,16.078432%);fill-opacity:1;stroke-width:5.5598;stroke-linecap:butt;stroke-linejoin:miter;stroke:rgb(0%,0%,0%);stroke-opacity:1;stroke-miterlimit:4;" d="M 606.345529 344.060055 C 606.620084 342.218971 605.485257 340.994183 602.062471 339.449545 C 594.722702 336.134034 585.918638 334.589396 583.795413 336.258853 C 579.896732 339.324725 582.495853 343.44376 588.810618 344.177073 C 591.336523 344.48132 594.777613 345.253639 596.46155 345.901138 C 601.293717 347.781228 605.906241 346.923096 606.345529 344.060055 Z M 606.345529 344.060055 " transform="matrix(0.213414,0,0,0.500724,0,1.048951)"/>
<path style="fill-rule:nonzero;fill:rgb(100%,74.509805%,16.078432%);fill-opacity:1;stroke-width:5.5598;stroke-linecap:butt;stroke-linejoin:miter;stroke:rgb(0%,0%,0%);stroke-opacity:1;stroke-miterlimit:4;" d="M 606.345529 334.207137 C 606.729906 331.585933 605.064273 330.649789 591.354827 325.828646 C 581.141382 322.224491 576.602073 323.925153 579.878429 330.13491 C 581.013256 332.295843 582.935141 333.286595 587.218199 333.926294 C 590.403036 334.402167 594.759309 335.338311 596.882534 336.001413 C 602.593278 337.772286 605.887938 337.14819 606.345529 334.207137 Z M 606.345529 334.207137 " transform="matrix(0.213414,0,0,0.500724,0,1.048951)"/>
<path style="fill-rule:nonzero;fill:rgb(100%,74.509805%,16.078432%);fill-opacity:1;stroke-width:5.5598;stroke-linecap:butt;stroke-linejoin:miter;stroke:rgb(0%,0%,0%);stroke-opacity:1;stroke-miterlimit:4;" d="M 613.1911 324.978315 C 615.259414 322.887593 616.961655 320.414612 616.961655 319.486269 C 616.961655 316.482807 608.79822 321.795425 607.754911 325.485394 C 606.510262 329.900874 608.523665 329.713645 613.209404 324.978315 Z M 613.1911 324.978315 " transform="matrix(0.213414,0,0,0.500724,0,1.048951)"/>
<path style="fill-rule:nonzero;fill:rgb(100%,74.509805%,16.078432%);fill-opacity:1;stroke-width:5.5598;stroke-linecap:butt;stroke-linejoin:miter;stroke:rgb(0%,0%,0%);stroke-opacity:1;stroke-miterlimit:4;" d="M 606.345529 324.36202 C 606.784817 321.37416 601.824524 318.674944 592.050366 316.599825 C 584.875329 315.07859 581.708795 315.936723 582.257905 319.267836 C 582.550764 321.093317 584.93024 322.419521 591.702597 324.533647 C 602.55667 327.919368 605.814723 327.880362 606.345529 324.36202 Z M 606.345529 324.36202 " transform="matrix(0.213414,0,0,0.500724,0,1.048951)"/>
<path style="fill-rule:nonzero;fill:rgb(100%,74.509805%,16.078432%);fill-opacity:1;stroke-width:5.5598;stroke-linecap:butt;stroke-linejoin:miter;stroke:rgb(0%,0%,0%);stroke-opacity:1;stroke-miterlimit:4;" d="M 615.900043 310.452478 C 628.41975 304.874619 629.499666 290.816853 617.693802 287.126885 C 612.788419 285.590048 609.658493 286.416975 607.791519 289.740287 C 606.345529 292.283479 607.315623 296.909592 609.274116 296.909592 C 609.933048 296.909592 610.482158 297.759923 610.482158 298.805284 C 610.482158 303.688836 591.354827 305.904377 583.520858 301.925764 C 580.757005 300.529349 579.567266 296.909592 581.855225 296.909592 C 583.575769 296.909592 584.747204 293.211822 583.886932 290.598419 C 582.67889 287.041071 579.091371 285.808482 573.89313 287.165891 C 562.16048 290.239564 562.489946 304.032089 574.44224 309.890791 C 584.234701 314.68853 605.723205 314.977175 615.900043 310.452478 Z M 615.900043 310.452478 " transform="matrix(0.213414,0,0,0.500724,0,1.048951)"/>
<path style="fill-rule:nonzero;fill:rgb(100%,74.509805%,16.078432%);fill-opacity:1;stroke-width:5.5598;stroke-linecap:butt;stroke-linejoin:miter;stroke:rgb(0%,0%,0%);stroke-opacity:1;stroke-miterlimit:4;" d="M 608.102681 299.640012 C 608.834828 298.953506 608.523665 297.900344 607.29732 296.940796 C 604.643288 294.850074 604.789718 291.737395 607.7 288.172246 C 609.89644 285.496433 610.170995 281.494417 610.921446 241.099794 C 612.221006 171.489671 617.400943 119.128005 624.22821 106.568071 C 626.937153 101.5675 626.552776 101.551898 619.542472 106.326233 C 610.500461 112.47358 603.618283 120.485415 597.523162 131.953181 C 585.991853 153.609317 582.001654 182.731203 582.001654 244.914582 C 582.001654 280.222821 582.239602 284.841133 584.253005 288.156643 C 586.156586 291.308329 586.266408 292.470708 584.911937 295.840827 C 584.051665 298.025163 583.648984 300.108084 584.051665 300.474741 C 586.614178 302.908716 605.338828 302.269017 608.102681 299.647813 Z M 608.102681 299.640012 " transform="matrix(0.213414,0,0,0.500724,0,1.048951)"/>
<path style="fill-rule:nonzero;fill:rgb(100%,74.509805%,16.078432%);fill-opacity:1;stroke-width:5.5598;stroke-linecap:butt;stroke-linejoin:miter;stroke:rgb(0%,0%,0%);stroke-opacity:1;stroke-miterlimit:4;" d="M 713.348758 233.259587 C 713.733135 232.658894 712.872863 229.624227 711.40857 226.511547 C 709.157219 221.667001 708.242035 220.863477 705.02059 220.863477 C 694.916967 220.863477 678.681615 216.346581 661.933761 208.888633 C 652.269426 204.574568 648.919855 203.583815 647.766724 204.683785 C 644.801531 207.484416 649.725217 214.138841 657.339541 217.63378 C 664.093594 220.730857 682.964673 224.545644 691.5857 224.545644 C 696.5826 224.545644 696.692422 224.771879 693.855354 228.875311 L 691.768736 231.902178 L 697.424569 232.042599 C 700.517888 232.128412 704.81925 232.612087 706.960779 233.126966 C 712.506789 234.460972 712.5617 234.468773 713.348758 233.259587 Z M 713.348758 233.259587 " transform="matrix(0.213414,0,0,0.500724,0,1.048951)"/>
<path style="fill-rule:nonzero;fill:rgb(0%,0%,0%);fill-opacity:1;stroke-width:5.5598;stroke-linecap:butt;stroke-linejoin:miter;stroke:rgb(0%,0%,0%);stroke-opacity:1;stroke-miterlimit:4;" d="M 772.341472 264.628219 C 772.341472 262.833942 767.070016 257.958191 761.707042 254.814307 C 757.515503 252.349127 756.819964 252.271115 756.80166 254.283825 C 756.783356 257.341896 754.074414 265.010478 753.012801 265.010478 C 752.40878 265.010478 751.511901 263.512647 751.036005 261.679365 C 750.541806 259.846082 748.5101 256.234126 746.496696 253.651928 L 742.854267 248.955605 L 740.017199 253.308675 C 737.363167 257.3653 732.787251 261.336112 730.755544 261.336112 C 730.261345 261.336112 730.169827 259.198582 730.5359 256.58518 C 730.938581 253.753344 730.627418 251.498796 729.767146 250.999519 C 728.980088 250.531447 728.321156 250.695273 728.321156 251.358375 C 728.321156 252.88741 721.951481 260.111323 720.615313 260.111323 C 720.0479 260.111323 719.279146 258.036203 718.876465 255.508614 C 718.492088 252.981025 717.814852 248.979008 717.393868 246.615244 C 716.972884 244.259281 717.869763 245.858528 719.407271 250.172592 L 722.189429 258.028402 L 725.246141 253.238464 C 726.930078 250.609459 728.321156 247.738617 728.321156 246.84928 C 728.321156 245.967744 728.88857 245.577684 729.584109 245.983347 C 730.279649 246.389009 731.231439 249.548496 731.725638 253.012229 L 732.604214 259.307799 L 735.972089 255.617831 C 737.820759 253.589518 739.980591 250.866899 740.785953 249.579701 C 742.213639 247.278346 742.286853 247.278346 745.123921 249.681116 C 746.71634 251.030724 749.169032 254.260422 750.56011 256.858222 C 751.969492 259.448221 753.287356 261.382919 753.525304 261.148883 C 753.744948 260.914847 754.257451 258.239035 754.660131 255.204367 C 755.062812 252.1697 755.410582 249.5719 755.447189 249.431478 C 755.648529 248.682563 765.58742 255.141958 769.266456 258.410661 C 771.627629 260.516986 773.860676 261.936804 774.245053 261.577949 C 774.62943 261.219094 774.940593 258.122017 774.940593 254.689488 C 774.940593 249.369068 774.373179 247.94925 771.13343 245.039401 C 767.381179 241.700487 767.28966 241.677083 765.898582 244.126661 C 764.104823 247.293949 761.999901 247.340756 761.999901 244.204673 C 761.999901 241.918921 754.916383 233.126966 753.086016 233.126966 C 752.610121 233.126966 751.127524 235.061664 749.773053 237.417627 C 748.436885 239.781391 746.990895 241.708288 746.569911 241.708288 C 744.757848 241.700487 734.800654 230.591576 734.800654 228.586667 C 734.800654 226.995222 735.47789 227.400884 737.216738 230.061094 C 738.552906 232.089406 741.206937 235.108472 743.110518 236.777929 C 746.990895 240.155849 748.400278 239.328922 749.882875 232.822719 C 750.303859 230.966033 751.054309 229.4526 751.530204 229.4526 C 753.195838 229.4526 761.853472 238.658018 763.079817 241.716089 L 764.306163 244.781962 L 765.221346 241.404041 C 766.356174 237.285007 767.619126 237.128983 769.431189 240.889162 C 770.18164 242.465005 773.915587 245.733708 777.72275 248.152081 L 784.659839 252.55976 L 786.050918 248.128677 C 786.801368 245.694702 787.826373 244.290486 788.302269 245.015998 C 788.997808 246.100365 787.204049 253.441296 785.831274 255.017138 C 785.629933 255.258976 783.396886 253.948374 780.852677 252.115091 L 776.240153 248.776177 L 776.221849 254.751897 C 776.203546 258.036203 775.855776 261.960208 775.416488 263.481442 C 774.574519 266.445899 772.341472 267.280627 772.341472 264.628219 Z M 772.341472 264.628219 " transform="matrix(0.213414,0,0,0.500724,0,1.048951)"/>
<path style="fill-rule:nonzero;fill:rgb(0%,0%,0%);fill-opacity:1;stroke-width:5.5598;stroke-linecap:butt;stroke-linejoin:miter;stroke:rgb(0%,0%,0%);stroke-opacity:1;stroke-miterlimit:4;" d="M 737.820759 217.033087 C 729.584109 210.160228 728.33946 208.584386 728.522497 205.331285 L 728.723837 201.85975 L 729.254643 205.206465 C 729.565806 207.164567 731.762246 210.097819 734.526099 212.25095 L 739.248445 215.94872 L 742.158728 212.578601 C 743.751147 210.729716 745.087314 208.529777 745.105618 207.687247 C 745.178832 205.487309 745.581513 205.674537 751.145827 210.511282 C 756.106121 214.801943 756.179335 214.825347 756.911482 212.040318 C 757.332466 210.487879 757.186037 207.570229 756.582016 205.549718 C 754.971294 199.995263 755.282456 199.160534 757.735147 202.50725 C 758.961493 204.176707 760.919985 206.53267 762.109723 207.749657 C 764.159734 209.863783 764.287859 209.832578 765.03831 207.133362 C 765.477598 205.580923 765.843671 202.741286 765.861975 200.82219 L 765.880278 197.335053 L 770.346373 202.398033 C 774.519608 207.125561 774.903985 207.297187 776.166938 205.050441 C 776.917389 203.724237 777.539713 200.533545 777.558017 197.959149 C 777.576321 194.628036 777.92409 193.793307 778.766059 195.057102 C 780.175441 197.171228 779.205347 202.928514 776.587923 207.83547 L 774.720949 211.353812 L 772.268258 207.523422 C 769.120027 202.632069 768.076718 202.710081 766.063315 207.991494 C 764.159734 212.984263 762.915084 213.358721 761.048111 209.528331 C 759.858372 207.039748 759.620425 207.343995 758.778456 212.562999 L 757.826665 218.359291 L 752.152529 213.951612 L 746.460089 209.543933 L 743.91588 212.445981 C 742.506497 214.045227 741.335063 216.042335 741.316759 216.884864 C 741.261848 218.710346 739.907377 218.764954 737.820759 217.033087 Z M 737.820759 217.033087 " transform="matrix(0.213414,0,0,0.500724,0,1.048951)"/>
<path style="fill-rule:nonzero;fill:rgb(0%,0%,0%);fill-opacity:1;stroke-width:5.5598;stroke-linecap:butt;stroke-linejoin:miter;stroke:rgb(0%,0%,0%);stroke-opacity:1;stroke-miterlimit:4;" d="M 811.035421 191.429543 C 808.051924 188.730327 805.983609 186.155931 806.459505 185.703461 C 806.9354 185.258793 807.466206 185.133973 807.630939 185.422618 C 807.813976 185.711262 810.266667 188.285659 813.085432 191.140899 C 819.564929 197.717312 818.228762 197.904541 811.035421 191.429543 Z M 811.035421 191.429543 " transform="matrix(0.213414,0,0,0.500724,0,1.048951)"/>
<path style="fill-rule:nonzero;fill:rgb(0%,0%,0%);fill-opacity:1;stroke-width:5.5598;stroke-linecap:butt;stroke-linejoin:miter;stroke:rgb(0%,0%,0%);stroke-opacity:1;stroke-miterlimit:4;" d="M 713.513491 181.35039 C 710.786245 177.668223 710.969282 175.226447 714.282245 171.232232 C 716.680025 168.345787 717.778245 167.947926 721.969785 168.486209 C 724.660423 168.82166 730.426078 171.193226 734.818958 173.75202 C 739.870769 176.708675 745.087314 178.690181 749.150728 179.181656 C 752.646728 179.610722 755.520404 179.766746 755.520404 179.540512 C 755.520404 179.306476 754.05611 176.93491 752.280655 174.266899 C 748.052508 167.924522 748.198937 167.238017 752.976194 171.037202 C 757.863273 174.945604 763.720446 176.084579 776.807567 175.686718 L 783.195546 175.491688 L 779.498205 171.825123 C 774.299964 166.699734 775.892383 166.239463 781.621431 171.208828 C 787.002708 175.873947 786.654939 176.201597 775.361577 177.332772 C 770.547713 177.808645 765.386079 177.457591 761.084718 176.365423 C 754.660131 174.734971 754.422184 174.758375 755.630226 176.911507 C 756.325765 178.151898 757.460592 179.173855 758.156131 179.173855 C 758.851671 179.173855 759.400781 179.797951 759.400781 180.57027 C 759.400781 182.934034 745.526602 180.851114 738.900675 177.496597 C 723.74524 169.828015 721.841659 169.157112 718.235837 170.296088 C 716.222434 170.927985 714.20903 172.77687 713.531795 174.633556 C 711.207229 180.819909 719.992989 185.63325 723.598811 180.164608 C 724.660423 178.573163 724.404172 177.488796 722.573806 175.561899 C 720.0479 172.917291 720.285847 172.542834 723.690329 173.783225 C 726.106413 174.664761 726.435879 180.468855 724.184528 182.606384 C 721.603711 185.040359 715.728235 184.353853 713.513491 181.35039 Z M 713.513491 181.35039 " transform="matrix(0.213414,0,0,0.500724,0,1.048951)"/>
<path style="fill-rule:nonzero;fill:rgb(0%,0%,0%);fill-opacity:1;stroke-width:5.5598;stroke-linecap:butt;stroke-linejoin:miter;stroke:rgb(0%,0%,0%);stroke-opacity:1;stroke-miterlimit:4;" d="M 773.183441 166.067836 C 771.298163 164.27356 772.78076 163.836693 781.273661 163.680669 C 791.779965 163.485638 798.167944 161.730368 805.690751 156.979436 C 811.73096 153.164649 813.359987 153.921365 807.630939 157.868773 C 802.414395 161.472928 794.269264 164.242355 786.398687 165.084885 C 782.591525 165.498349 778.253556 166.067836 776.752656 166.34868 C 775.251755 166.629523 773.659336 166.504704 773.183441 166.067836 Z M 773.183441 166.067836 " transform="matrix(0.213414,0,0,0.500724,0,1.048951)"/>
<path style=" stroke:none;fill-rule:nonzero;fill:rgb(100%,74.509805%,16.078432%);fill-opacity:1;" d="M 145.449219 241.175781 L 146.378906 239.914062 L 146.777344 241.179688 C 147.308594 242.859375 148.777344 242.839844 149.75 241.140625 L 150.492188 239.839844 L 151.117188 241.140625 C 151.9375 242.851562 153.46875 242.851562 154.445312 241.144531 C 155.128906 239.949219 155.222656 239.925781 155.675781 240.835938 C 155.945312 241.378906 156.738281 241.996094 157.433594 242.207031 C 158.691406 242.589844 158.707031 242.570312 159.441406 239.984375 C 160.058594 237.816406 160.15625 236.941406 160.007812 234.839844 C 159.910156 233.449219 159.804688 231.207031 159.773438 229.863281 C 159.71875 227.421875 159.726562 227.410156 161.238281 226.171875 C 162.074219 225.488281 163.042969 224.574219 163.390625 224.136719 C 163.992188 223.375 165.660156 218.777344 165.660156 217.871094 C 165.660156 217.632812 165.007812 217.265625 164.214844 217.054688 C 161.046875 216.222656 160.511719 212.234375 162.570312 204.828125 C 165.925781 192.746094 167.949219 180.980469 167.964844 173.484375 C 167.96875 170.132812 168.050781 169.011719 168.234375 169.738281 C 168.984375 172.714844 167.640625 185.199219 165.605469 194.164062 L 164.789062 197.773438 L 165.570312 197.351562 C 166 197.117188 168.527344 194.617188 171.1875 191.789062 C 178.46875 184.054688 180.96875 182.535156 185.679688 183.003906 C 189.628906 183.390625 191.308594 185.203125 194.097656 192.058594 C 195.574219 195.695312 196.996094 198.292969 199.597656 202.113281 C 205.140625 210.257812 205.371094 210.960938 205.636719 220.535156 C 205.902344 230.234375 205.769531 230.761719 202.640625 232.382812 C 199.96875 233.769531 198.292969 236.691406 197.84375 240.753906 C 197.605469 242.921875 198.109375 242.984375 199.457031 240.953125 L 200.445312 239.464844 L 200.882812 240.953125 C 201.460938 242.910156 202.6875 242.917969 203.707031 240.972656 L 204.476562 239.5 L 205.265625 240.972656 C 206.484375 243.257812 208.113281 242.703125 208.570312 239.84375 C 208.660156 239.292969 208.894531 239.46875 209.371094 240.441406 C 210.265625 242.261719 212.554688 243.042969 212.800781 241.613281 C 212.894531 241.066406 212.714844 239.714844 212.402344 238.613281 C 211.070312 233.925781 210.652344 231.691406 210.636719 229.140625 C 210.613281 225.59375 211.0625 223.882812 212.785156 220.996094 C 214.875 217.488281 215.519531 212.96875 213.929688 212.96875 C 212.949219 212.96875 211.960938 210.933594 211.328125 207.617188 C 210.046875 200.875 210.296875 193.320312 212.222656 180.75 C 214.175781 167.980469 214.394531 165.625 214.402344 157.085938 C 214.410156 150.183594 214.335938 148.988281 213.664062 145.203125 C 213.253906 142.886719 212.425781 139.441406 211.820312 137.542969 L 210.71875 134.09375 L 212.132812 131.34375 C 216.449219 122.953125 215.566406 109.214844 210.367188 103.921875 C 208.777344 102.300781 208.378906 102.160156 205.59375 102.203125 C 203.921875 102.230469 201.371094 102.746094 199.929688 103.351562 C 198.457031 103.96875 195.964844 104.460938 194.253906 104.476562 C 191.539062 104.503906 191.078125 104.347656 190.03125 103.039062 C 188.941406 101.675781 188.753906 101.03125 188.539062 97.878906 C 188.496094 97.230469 188.300781 96.585938 188.109375 96.445312 C 187.738281 96.171875 186.027344 99.660156 185.773438 101.207031 C 185.648438 101.96875 185.546875 101.917969 185.179688 100.898438 C 184.933594 100.222656 184.59375 98.671875 184.421875 97.449219 C 183.992188 94.378906 184.523438 92.074219 186.0625 90.347656 L 187.253906 89.011719 L 186.550781 87.984375 C 185.097656 85.871094 182.628906 87.316406 181.734375 90.808594 C 181.480469 91.792969 181.207031 92.605469 181.121094 92.605469 C 181.035156 92.605469 180.558594 91.667969 180.054688 90.511719 C 178.175781 86.210938 178.824219 79.847656 181.332031 77.90625 C 182.671875 76.871094 183.855469 77.660156 184.101562 79.753906 C 184.476562 82.949219 185.644531 78.75 185.4375 74.953125 C 185.296875 72.433594 185.316406 72.34375 186.0625 72.34375 C 187.097656 72.34375 189.296875 75.53125 189.980469 78.011719 C 190.769531 80.894531 190.710938 85.433594 189.84375 88.820312 L 189.160156 91.476562 L 190.050781 91.054688 C 191.363281 90.4375 192.636719 88.527344 193.28125 86.210938 C 193.964844 83.761719 194.035156 78.992188 193.433594 76.421875 C 192.847656 73.925781 192.914062 73.53125 193.777344 74.371094 C 195.25 75.804688 196.039062 77.386719 196.628906 80.097656 C 197.160156 82.535156 197.191406 83.144531 196.902344 85.683594 C 196.722656 87.25 196.328125 89.3125 196.023438 90.265625 C 195.546875 91.746094 195.53125 91.996094 195.910156 91.996094 C 196.617188 91.996094 198.089844 90.429688 198.613281 89.125 C 198.875 88.464844 199.261719 86.835938 199.46875 85.511719 L 199.84375 83.101562 L 200.277344 84.9375 C 200.886719 87.539062 202.074219 89.875 203.519531 91.332031 C 205.078125 92.898438 205.726562 92.984375 204.910156 91.523438 C 204.363281 90.535156 203.351562 83.570312 203.65625 82.890625 C 203.839844 82.488281 205.953125 86.304688 208.363281 91.386719 C 210.648438 96.195312 212.082031 97.769531 214.175781 97.769531 C 216.855469 97.769531 218.414062 92.300781 217.210938 87.128906 C 216.507812 84.113281 214.945312 83.695312 214.03125 86.277344 C 213.613281 87.464844 213.496094 88.40625 213.617188 89.652344 C 213.769531 91.179688 213.710938 91.382812 213.117188 91.382812 C 212.339844 91.382812 210.804688 89.046875 208.082031 83.710938 C 203.925781 75.574219 198.875 68.679688 195.230469 66.160156 C 192.890625 64.542969 187.890625 63.914062 185.515625 64.933594 C 182.941406 66.039062 179.894531 69.496094 178.238281 73.195312 C 175.296875 79.753906 175.25 88.476562 178.113281 96.421875 L 178.933594 98.699219 L 178.378906 100.71875 C 177.570312 103.664062 177.640625 107.621094 178.546875 110.539062 C 178.949219 111.824219 179.351562 112.875 179.445312 112.875 C 179.539062 112.875 179.640625 112.046875 179.675781 111.039062 C 179.753906 108.488281 180.222656 106.777344 181.023438 106.101562 C 181.742188 105.488281 182.210938 105.777344 185.515625 108.871094 C 188.992188 112.128906 194.707031 112.351562 200.785156 109.46875 C 203.765625 108.058594 207.28125 108.140625 208.828125 109.660156 C 211.660156 112.445312 212.316406 119.691406 210.234375 125.195312 C 209.332031 127.574219 208.464844 128.546875 205.542969 130.425781 C 203.320312 131.855469 202.796875 131.953125 197.746094 131.832031 C 193.429688 131.730469 191.878906 131.925781 190.117188 132.789062 C 188.207031 133.726562 187.03125 133.820312 181.414062 133.488281 L 174.917969 133.105469 L 175.636719 134.503906 C 176.035156 135.273438 176.59375 136.21875 176.882812 136.605469 C 177.371094 137.265625 177.355469 137.355469 176.628906 137.988281 C 176.199219 138.359375 175.25 138.664062 174.515625 138.664062 L 173.183594 138.664062 L 173.003906 141.324219 C 172.90625 142.785156 172.914062 144.488281 173.023438 145.113281 C 173.179688 146.035156 173.121094 146.164062 172.707031 145.8125 C 172.429688 145.574219 171.648438 145.105469 170.972656 144.769531 C 170.300781 144.433594 169.394531 143.75 168.960938 143.25 C 168.226562 142.410156 168.148438 142.433594 167.878906 143.550781 C 167.636719 144.550781 165.378906 148.492188 165.050781 148.492188 C 164.996094 148.492188 164.925781 147.730469 164.894531 146.800781 C 164.863281 145.875 164.539062 143.457031 164.171875 141.429688 C 163.804688 139.402344 163.421875 137.191406 163.320312 136.515625 C 163.167969 135.496094 163.097656 135.445312 162.914062 136.210938 C 162.792969 136.714844 162.613281 138.097656 162.515625 139.28125 C 162.421875 140.460938 162.082031 142.382812 161.761719 143.546875 L 161.179688 145.664062 L 160.808594 143.855469 C 160.410156 141.910156 159.75 139.894531 159.511719 139.894531 C 159.429688 139.894531 159.292969 140.515625 159.207031 141.273438 C 159.023438 142.863281 157.457031 147.261719 157.074219 147.261719 C 156.933594 147.261719 156.816406 146.019531 156.816406 144.5 C 156.816406 142.980469 156.691406 141.734375 156.539062 141.734375 C 156.390625 141.734375 156.265625 142.128906 156.265625 142.609375 C 156.265625 143.777344 154.925781 147.261719 154.476562 147.261719 C 154.28125 147.261719 153.964844 147.675781 153.777344 148.183594 C 153.285156 149.503906 152.878906 149.320312 153.085938 147.867188 C 153.183594 147.1875 153.121094 145.597656 152.945312 144.335938 C 152.773438 143.074219 152.585938 141.734375 152.535156 141.351562 C 152.46875 140.875 151.988281 141.003906 150.972656 141.765625 C 149.335938 143 148.785156 142.78125 149.628906 141.230469 C 149.9375 140.664062 150.40625 138.703125 150.671875 136.871094 C 150.933594 135.035156 151.324219 133.410156 151.539062 133.257812 C 151.835938 133.039062 151.820312 133.308594 151.46875 134.421875 C 151.21875 135.21875 151.011719 136.289062 151.011719 136.804688 C 151.011719 137.324219 150.824219 138.546875 150.59375 139.523438 C 150.363281 140.503906 150.21875 141.402344 150.273438 141.519531 C 150.324219 141.636719 150.949219 141.082031 151.660156 140.285156 L 152.949219 138.832031 L 152.953125 140.128906 C 152.957031 140.84375 153.113281 142.726562 153.300781 144.316406 L 153.640625 147.203125 L 154.515625 146.257812 C 155.414062 145.289062 156.265625 141.839844 156.265625 139.164062 C 156.265625 137.84375 156.585938 138.046875 156.71875 139.449219 C 156.757812 139.863281 156.960938 141.410156 157.167969 142.890625 L 157.550781 145.578125 L 158.152344 143.882812 C 158.480469 142.949219 158.894531 141.117188 159.070312 139.808594 C 159.378906 137.542969 159.855469 136.570312 159.855469 138.214844 C 159.855469 139.402344 161.234375 143.652344 161.503906 143.289062 C 161.628906 143.113281 161.886719 141.515625 162.070312 139.742188 C 162.453125 136.050781 163.074219 133.542969 163.464844 134.082031 C 163.613281 134.285156 163.671875 134.679688 163.59375 134.957031 C 163.515625 135.238281 163.835938 137.636719 164.300781 140.289062 C 164.765625 142.941406 165.234375 145.613281 165.339844 146.226562 C 165.507812 147.207031 165.664062 147.066406 166.660156 144.996094 C 167.28125 143.710938 167.847656 142.269531 167.914062 141.796875 C 168.015625 141.078125 168.15625 141.105469 168.734375 141.949219 C 169.546875 143.132812 172.28125 145.039062 172.492188 144.570312 C 172.570312 144.394531 172.652344 142.710938 172.671875 140.832031 L 172.707031 137.410156 L 173.492188 137.792969 C 173.925781 138 174.832031 137.988281 175.511719 137.761719 L 176.746094 137.351562 L 175.644531 135.582031 C 175.039062 134.609375 174.429688 133.351562 174.289062 132.785156 C 174.136719 132.183594 173.597656 131.671875 172.988281 131.546875 C 171.34375 131.21875 168.421875 127.378906 168.421875 125.542969 C 168.421875 125.195312 168.828125 125.785156 169.320312 126.847656 C 170.417969 129.203125 171.941406 130.683594 173.269531 130.683594 L 174.265625 130.683594 L 173.648438 128.761719 C 173.296875 127.65625 172.980469 125.566406 172.902344 123.84375 C 172.785156 121.097656 172.660156 120.664062 171.441406 118.671875 C 170.707031 117.472656 169.796875 115.679688 169.421875 114.683594 L 168.734375 112.875 L 168.386719 115.023438 C 168.195312 116.207031 167.957031 117.171875 167.863281 117.171875 C 167.769531 117.171875 167.398438 116.480469 167.042969 115.636719 C 166.683594 114.792969 166.320312 114.105469 166.234375 114.109375 C 166.144531 114.113281 165.832031 115.25 165.53125 116.636719 L 164.988281 119.15625 L 164.566406 117.703125 C 164.335938 116.90625 163.789062 115.492188 163.355469 114.5625 C 162.917969 113.632812 162.6875 112.875 162.84375 112.875 C 163 112.875 163.539062 113.84375 164.039062 115.023438 L 164.953125 117.175781 L 165.324219 115.597656 C 165.546875 114.664062 165.628906 113.226562 165.527344 112.066406 C 165.382812 110.375 165.402344 110.277344 165.679688 111.339844 C 165.855469 112.015625 166.390625 113.308594 166.867188 114.21875 L 167.734375 115.867188 L 168.332031 113.296875 C 168.925781 110.738281 168.929688 110.734375 169.203125 112.261719 C 169.5625 114.304688 172.183594 119.34375 174.417969 122.289062 C 174.761719 122.746094 174.617188 121.183594 173.980469 117.59375 C 173.8125 116.644531 173.675781 114.929688 173.675781 113.785156 C 173.675781 112.085938 173.464844 111.332031 172.539062 109.679688 C 171.203125 107.292969 170.773438 105.597656 170.519531 101.75 C 170.417969 100.191406 170.183594 98.457031 170 97.898438 C 169.730469 97.066406 169.683594 97.53125 169.757812 100.425781 C 169.804688 102.375 169.699219 104.800781 169.515625 105.8125 L 169.1875 107.65625 L 168.933594 106.121094 C 168.792969 105.273438 168.171875 103.808594 167.554688 102.855469 C 166.9375 101.90625 166.503906 100.96875 166.59375 100.773438 C 166.679688 100.578125 167.316406 101.445312 168.003906 102.699219 C 169.050781 104.609375 169.28125 104.816406 169.429688 103.972656 C 169.597656 102.984375 169.429688 98.683594 169.097656 95.679688 C 168.933594 94.179688 168.949219 94.1875 169.738281 96.039062 C 170.320312 97.402344 170.640625 99.03125 170.890625 101.871094 C 171.207031 105.480469 171.367188 106.082031 172.789062 109.011719 C 173.644531 110.769531 174.386719 112.113281 174.441406 111.992188 C 174.496094 111.871094 174.601562 107.320312 174.679688 101.875 C 174.828125 91.441406 174.660156 88.957031 173.589844 85.734375 L 173.039062 84.078125 L 173.902344 81.886719 C 175.03125 79.03125 175.550781 76.742188 175.777344 73.617188 L 175.957031 71.078125 L 174.980469 73.246094 C 174.183594 75.023438 173.800781 75.417969 172.875 75.417969 C 171.957031 75.417969 171.601562 75.054688 170.980469 73.511719 C 170.242188 71.65625 168.925781 69.875 167.664062 69.007812 C 167.195312 68.683594 167.042969 68.824219 167.042969 69.566406 C 167.042969 70.109375 166.785156 71.675781 166.46875 73.046875 L 165.894531 75.542969 L 164.695312 72.757812 C 163.960938 71.050781 163.085938 69.722656 162.4375 69.320312 C 160.777344 68.296875 160.6875 68.398438 160.6875 71.300781 C 160.6875 75.707031 159.882812 76.523438 158.441406 73.597656 C 157.34375 71.367188 156.429688 70.882812 154.347656 71.421875 L 152.738281 71.835938 L 153.027344 73.539062 C 153.269531 74.964844 153.214844 75.566406 152.695312 77.183594 C 151.855469 79.804688 150.761719 80.941406 149.078125 80.941406 C 148.304688 80.941406 147.332031 81.320312 146.921875 81.777344 C 146.511719 82.238281 145.492188 82.769531 144.65625 82.957031 C 143.820312 83.144531 142.929688 83.480469 142.675781 83.703125 C 142.28125 84.046875 142.238281 83.761719 142.363281 81.648438 C 142.558594 78.414062 141.597656 76.03125 140.097656 76.03125 C 138.152344 76.03125 137.253906 80.117188 138.015625 85.503906 C 138.160156 86.542969 138.355469 88.179688 138.441406 89.140625 C 138.53125 90.136719 139.410156 92.785156 140.484375 95.308594 C 141.519531 97.738281 142.496094 100.265625 142.65625 100.925781 C 142.820312 101.589844 143.347656 102.648438 143.839844 103.28125 L 144.726562 104.4375 L 144.609375 102.207031 C 144.480469 99.757812 144.707031 99.375 145.261719 101.101562 C 145.460938 101.722656 145.964844 102.71875 146.382812 103.324219 C 147.042969 104.273438 147.144531 104.292969 147.144531 103.46875 C 147.144531 102.945312 147.277344 101.738281 147.441406 100.785156 L 147.742188 99.058594 L 148.257812 101.410156 C 148.542969 102.703125 149.46875 105.644531 150.316406 107.945312 C 151.957031 112.40625 152.960938 117.390625 152.441406 118.539062 C 152.234375 119.003906 151.667969 118.96875 150.492188 118.417969 C 149.582031 117.988281 148.457031 117.761719 147.992188 117.910156 C 147.039062 118.222656 146.964844 117.933594 147.550781 116.214844 C 148.167969 114.402344 148.070312 114.101562 146.855469 114.101562 C 145.453125 114.101562 141.96875 112.523438 140.632812 111.28125 C 139.332031 110.074219 139.03125 110.375 138.648438 113.269531 C 138.476562 114.570312 138.160156 116.933594 137.945312 118.515625 L 137.558594 121.390625 L 138.964844 121.074219 C 139.742188 120.898438 140.734375 120.5 141.179688 120.1875 C 141.621094 119.878906 142.023438 119.714844 142.070312 119.820312 C 142.121094 119.929688 141.925781 121.054688 141.632812 122.320312 L 141.105469 124.617188 L 141.984375 124.199219 C 142.464844 123.96875 143.191406 123.402344 143.597656 122.945312 C 144.300781 122.144531 144.355469 122.203125 144.914062 124.296875 C 145.597656 126.867188 146.140625 126.761719 146.261719 124.035156 C 146.390625 121.214844 146.785156 121.628906 147.527344 125.367188 C 148.242188 128.960938 148.988281 130.230469 149.128906 128.101562 C 149.179688 127.394531 149.5625 126.242188 149.988281 125.542969 C 150.84375 124.125 151.488281 124.550781 151.859375 126.773438 C 152.242188 129.074219 151.386719 131.445312 148.902344 134.980469 C 143.925781 142.0625 141.03125 151.746094 140.203125 164.085938 C 139.460938 175.21875 141.785156 186.722656 146.457031 194.984375 C 148.6875 198.941406 152.238281 203.113281 152.011719 201.519531 C 151.054688 194.757812 151.085938 181.855469 152.066406 179.679688 C 152.214844 179.351562 152.164062 180.699219 151.953125 182.671875 C 151.175781 190.015625 151.515625 195.871094 153.507812 209.589844 C 155.3125 222 155.0625 227.304688 152.507812 230.808594 C 151.691406 231.933594 151.160156 232.121094 148.957031 232.058594 C 146.566406 231.988281 146.304688 232.101562 145.539062 233.539062 C 144.792969 234.929688 143.828125 239.5 143.828125 241.632812 C 143.828125 242.785156 144.375 242.632812 145.449219 241.179688 Z M 145.449219 241.175781 "/>
<path style=" stroke:none;fill-rule:nonzero;fill:rgb(100%,74.509805%,16.078432%);fill-opacity:1;" d="M 184.273438 240.925781 L 185.273438 239.414062 L 185.957031 240.925781 C 186.847656 242.90625 187.894531 242.863281 188.75 240.808594 C 189.125 239.910156 189.460938 239.289062 189.496094 239.425781 C 189.535156 239.5625 189.699219 240.226562 189.867188 240.902344 C 190.082031 241.757812 190.515625 242.1875 191.300781 242.320312 C 192.25 242.476562 192.503906 242.261719 192.882812 240.984375 L 193.332031 239.460938 L 194.320312 240.949219 C 197.023438 245.027344 198.464844 240.75 197.253906 232.230469 C 196.640625 227.902344 196.976562 225.464844 198.957031 219.953125 C 199.792969 217.628906 200.476562 215.148438 200.476562 214.441406 C 200.476562 213.3125 200.324219 213.160156 199.210938 213.210938 C 198.148438 213.261719 197.835938 212.992188 197.277344 211.546875 C 196.367188 209.195312 196.421875 206.503906 197.4375 203.515625 L 198.253906 201.125 L 196.808594 198.828125 C 196.015625 197.566406 194.585938 194.578125 193.628906 192.1875 C 191.484375 186.820312 189.375 184.273438 186.59375 183.699219 L 184.726562 183.3125 L 184.730469 186.625 C 184.734375 190.886719 185.585938 194.992188 187.914062 201.9375 C 190.5625 209.839844 190.746094 211.0625 190.855469 221.390625 L 190.945312 230.125 L 190.179688 231.828125 C 189.488281 233.371094 189.175781 233.566406 186.941406 233.871094 C 184.816406 234.15625 184.367188 234.414062 183.742188 235.710938 C 182.914062 237.433594 182.667969 238.371094 182.410156 240.75 C 182.261719 242.136719 182.324219 242.4375 182.75 242.4375 C 183.035156 242.4375 183.71875 241.757812 184.273438 240.925781 Z M 184.273438 240.925781 "/>
<path style=" stroke:none;fill-rule:nonzero;fill:rgb(100%,74.509805%,16.078432%);fill-opacity:1;" d="M 127.371094 218.351562 C 127.605469 217.601562 127.800781 216.390625 127.800781 215.660156 C 127.800781 214.554688 128.011719 214.261719 129.042969 213.917969 L 130.289062 213.5 L 129.457031 211.949219 C 128.472656 210.105469 128.382812 208.664062 129.25 208.664062 C 130.117188 208.664062 131.582031 206.554688 131.804688 204.992188 C 131.910156 204.269531 131.84375 203.300781 131.65625 202.800781 C 131.171875 201.503906 130.261719 201.699219 130.089844 203.136719 C 129.910156 204.6875 129.601562 204.691406 128.910156 203.152344 C 127.871094 200.84375 127.847656 196.058594 128.863281 193.273438 C 129.34375 191.960938 129.339844 191.875 128.726562 190.519531 C 128.070312 189.0625 127.601562 186.175781 127.910156 185.488281 C 128.007812 185.273438 128.527344 185.445312 129.0625 185.875 C 129.824219 186.488281 130.125 186.496094 130.4375 185.917969 C 131.386719 184.167969 130.359375 181.914062 128.835938 182.414062 C 128.222656 182.613281 127.96875 182.414062 127.882812 181.667969 C 127.816406 181.101562 127.28125 180.363281 126.675781 180.003906 C 125.597656 179.363281 125.589844 179.371094 125.589844 181.117188 C 125.589844 183.027344 125.125 183.386719 124.238281 182.160156 C 123.523438 181.164062 122.824219 181.9375 122.824219 183.734375 C 122.824219 185.40625 123.542969 186.234375 124.828125 186.039062 C 125.816406 185.890625 125.851562 187.609375 124.914062 190.085938 L 124.242188 191.863281 L 124.773438 193.664062 C 125.566406 196.328125 125.5 200.75 124.636719 202.949219 L 123.957031 204.671875 L 123.515625 203.289062 C 122.898438 201.371094 122.054688 201.5 121.820312 203.546875 C 121.667969 204.890625 121.796875 205.503906 122.511719 206.925781 C 122.992188 207.882812 123.695312 208.664062 124.074219 208.664062 C 125.007812 208.664062 124.972656 210.386719 124 212.128906 L 123.238281 213.492188 L 124.414062 213.917969 C 125.058594 214.15625 125.589844 214.597656 125.589844 214.902344 C 125.589844 216.074219 126.402344 219.71875 126.664062 219.71875 C 126.816406 219.71875 127.132812 219.101562 127.371094 218.351562 Z M 127.371094 218.351562 "/>
<path style=" stroke:none;fill-rule:nonzero;fill:rgb(100%,74.509805%,16.078432%);fill-opacity:1;" d="M 142.664062 202.800781 C 143.730469 201.8125 146.039062 197.226562 146.039062 196.09375 C 146.039062 195.734375 145.402344 194.089844 144.621094 192.4375 C 142.984375 188.957031 141.199219 183.09375 140.738281 179.667969 C 140.496094 177.878906 139.332031 174.820312 136.054688 167.359375 L 131.6875 157.429688 L 130.429688 158.175781 C 129.738281 158.585938 128.894531 158.933594 128.554688 158.945312 C 127.96875 158.96875 127.980469 159.046875 128.757812 160.460938 L 129.582031 161.949219 L 130.730469 160.453125 C 131.847656 158.996094 131.886719 158.988281 132.027344 160.160156 C 132.105469 160.84375 131.933594 162.03125 131.625 162.902344 C 131.324219 163.746094 131.15625 164.707031 131.246094 165.03125 C 131.335938 165.359375 131.046875 166.042969 130.605469 166.550781 C 129.789062 167.492188 129.21875 170.589844 129.863281 170.589844 C 130.445312 170.589844 131.730469 166.878906 131.582031 165.621094 C 131.507812 164.976562 131.542969 164.316406 131.664062 164.152344 C 132.164062 163.464844 132.132812 166.378906 131.625 167.816406 C 131.324219 168.660156 131.15625 169.617188 131.246094 169.945312 C 131.335938 170.273438 131.046875 170.953125 130.605469 171.460938 C 129.792969 172.398438 129.21875 175.503906 129.859375 175.503906 C 130.488281 175.503906 131.75 171.953125 131.59375 170.628906 C 131.511719 169.933594 131.542969 169.230469 131.664062 169.0625 C 132 168.601562 132.179688 170.902344 131.898438 172.03125 C 131.746094 172.636719 131.746094 173.460938 131.902344 174.113281 C 132.179688 175.296875 131.898438 177.574219 131.382812 178.28125 C 131.160156 178.585938 131.3125 179.179688 131.847656 180.128906 C 132.621094 181.5 132.636719 181.644531 132.636719 187.703125 C 132.636719 192.769531 132.722656 194.074219 133.121094 194.957031 C 133.566406 195.945312 133.601562 195.949219 133.601562 195 C 133.601562 193.964844 134.378906 192.699219 135.011719 192.699219 C 135.199219 192.699219 136.367188 195.019531 137.609375 197.859375 C 138.859375 200.71875 140.164062 203.148438 140.535156 203.304688 C 140.902344 203.457031 141.300781 203.621094 141.417969 203.667969 C 141.539062 203.714844 142.097656 203.324219 142.664062 202.800781 Z M 142.664062 202.800781 "/>
<path style=" stroke:none;fill-rule:nonzero;fill:rgb(100%,74.509805%,16.078432%);fill-opacity:1;" d="M 129.320312 178.304688 C 129.320312 176.671875 127.886719 174.929688 126.167969 174.480469 C 124.78125 174.113281 124.761719 174.136719 124.761719 175.757812 C 124.761719 177.105469 124.976562 177.632812 125.933594 178.609375 C 127.472656 180.179688 129.320312 180.011719 129.320312 178.304688 Z M 129.320312 178.304688 "/>
<path style=" stroke:none;fill-rule:nonzero;fill:rgb(100%,74.509805%,16.078432%);fill-opacity:1;" d="M 130.894531 178.15625 C 131.59375 176.664062 131.925781 174.890625 131.503906 174.890625 C 131.019531 174.890625 129.734375 177.597656 129.734375 178.617188 C 129.734375 180.210938 129.972656 180.113281 130.894531 178.15625 Z M 130.894531 178.15625 "/>
<path style=" stroke:none;fill-rule:nonzero;fill:rgb(100%,74.509805%,16.078432%);fill-opacity:1;" d="M 129.402344 173.328125 C 129.460938 172.40625 129.21875 171.792969 128.488281 171.019531 C 126.921875 169.359375 125.042969 168.585938 124.589844 169.421875 C 123.757812 170.957031 124.3125 173.019531 125.660156 173.386719 C 126.199219 173.539062 126.933594 173.925781 127.292969 174.25 C 128.324219 175.191406 129.308594 174.761719 129.402344 173.328125 Z M 129.402344 173.328125 "/>
<path style=" stroke:none;fill-rule:nonzero;fill:rgb(100%,74.509805%,16.078432%);fill-opacity:1;" d="M 129.402344 168.394531 C 129.484375 167.082031 129.128906 166.613281 126.203125 164.199219 C 124.023438 162.394531 123.054688 163.246094 123.753906 166.355469 C 123.996094 167.4375 124.40625 167.933594 125.320312 168.253906 C 126 168.492188 126.929688 168.960938 127.382812 169.292969 C 128.601562 170.179688 129.304688 169.867188 129.402344 168.394531 Z M 129.402344 168.394531 "/>
<path style=" stroke:none;fill-rule:nonzero;fill:rgb(100%,74.509805%,16.078432%);fill-opacity:1;" d="M 130.863281 163.773438 C 131.304688 162.726562 131.667969 161.488281 131.667969 161.023438 C 131.667969 159.519531 129.925781 162.179688 129.703125 164.027344 C 129.4375 166.238281 129.867188 166.144531 130.867188 163.773438 Z M 130.863281 163.773438 "/>
<path style=" stroke:none;fill-rule:nonzero;fill:rgb(100%,74.509805%,16.078432%);fill-opacity:1;" d="M 129.402344 163.464844 C 129.496094 161.96875 128.4375 160.617188 126.351562 159.578125 C 124.820312 158.816406 124.144531 159.246094 124.261719 160.914062 C 124.324219 161.828125 124.832031 162.492188 126.277344 163.550781 C 128.59375 165.246094 129.289062 165.226562 129.402344 163.464844 Z M 129.402344 163.464844 "/>
<path style=" stroke:none;fill-rule:nonzero;fill:rgb(100%,74.509805%,16.078432%);fill-opacity:1;" d="M 131.441406 156.5 C 134.113281 153.707031 134.34375 146.667969 131.824219 144.820312 C 130.777344 144.050781 130.109375 144.464844 129.710938 146.128906 C 129.402344 147.402344 129.609375 149.71875 130.027344 149.71875 C 130.167969 149.71875 130.285156 150.144531 130.285156 150.667969 C 130.285156 153.113281 126.203125 154.222656 124.53125 152.230469 C 123.941406 151.53125 123.6875 149.71875 124.175781 149.71875 C 124.542969 149.71875 124.792969 147.867188 124.609375 146.558594 C 124.351562 144.777344 123.585938 144.160156 122.476562 144.839844 C 119.972656 146.378906 120.042969 153.285156 122.59375 156.21875 C 124.683594 158.621094 129.269531 158.765625 131.441406 156.5 Z M 131.441406 156.5 "/>
<path style=" stroke:none;fill-rule:nonzero;fill:rgb(100%,74.509805%,16.078432%);fill-opacity:1;" d="M 129.777344 151.085938 C 129.933594 150.742188 129.867188 150.214844 129.605469 149.734375 C 129.039062 148.6875 129.070312 147.128906 129.691406 145.34375 C 130.160156 144.003906 130.21875 142 130.378906 121.773438 C 130.65625 86.917969 131.761719 60.699219 133.21875 54.410156 C 133.796875 51.90625 133.714844 51.898438 132.21875 54.289062 C 130.289062 57.367188 128.820312 61.378906 127.519531 67.121094 C 125.058594 77.964844 124.207031 92.546875 124.207031 123.683594 C 124.207031 141.363281 124.257812 143.675781 124.6875 145.335938 C 125.09375 146.914062 125.117188 147.496094 124.828125 149.183594 C 124.644531 150.277344 124.558594 151.320312 124.644531 151.503906 C 125.191406 152.722656 129.1875 152.402344 129.777344 151.089844 Z M 129.777344 151.085938 "/>
<path style=" stroke:none;fill-rule:nonzero;fill:rgb(100%,74.509805%,16.078432%);fill-opacity:1;" d="M 152.238281 117.847656 C 152.320312 117.546875 152.136719 116.027344 151.824219 114.46875 C 151.34375 112.042969 151.148438 111.640625 150.460938 111.640625 C 148.304688 111.640625 144.839844 109.378906 141.265625 105.644531 C 139.203125 103.484375 138.488281 102.988281 138.242188 103.539062 C 137.609375 104.941406 138.660156 108.273438 140.285156 110.023438 C 141.726562 111.574219 145.753906 113.484375 147.59375 113.484375 C 148.660156 113.484375 148.683594 113.597656 148.078125 115.652344 L 147.632812 117.167969 L 148.839844 117.238281 C 149.5 117.28125 150.417969 117.523438 150.875 117.78125 C 152.058594 118.449219 152.070312 118.453125 152.238281 117.847656 Z M 152.238281 117.847656 "/>
<path style=" stroke:none;fill-rule:nonzero;fill:rgb(0%,0%,0%);fill-opacity:1;" d="M 164.828125 133.554688 C 164.828125 132.65625 163.703125 130.214844 162.558594 128.640625 C 161.664062 127.40625 161.515625 127.367188 161.511719 128.375 C 161.507812 129.90625 160.929688 133.746094 160.703125 133.746094 C 160.574219 133.746094 160.382812 132.996094 160.28125 132.078125 C 160.175781 131.160156 159.742188 129.351562 159.3125 128.058594 L 158.535156 125.707031 L 157.929688 127.886719 C 157.363281 129.917969 156.386719 131.90625 155.953125 131.90625 C 155.847656 131.90625 155.828125 130.835938 155.90625 129.527344 C 155.992188 128.109375 155.925781 126.980469 155.742188 126.730469 C 155.574219 126.496094 155.433594 126.578125 155.433594 126.910156 C 155.433594 127.675781 154.074219 131.292969 153.789062 131.292969 C 153.667969 131.292969 153.503906 130.253906 153.417969 128.988281 C 153.335938 127.722656 153.191406 125.71875 153.101562 124.535156 C 153.011719 123.355469 153.203125 124.15625 153.53125 126.316406 L 154.125 130.25 L 154.777344 127.851562 C 155.136719 126.535156 155.433594 125.097656 155.433594 124.652344 C 155.433594 124.210938 155.554688 124.015625 155.703125 124.21875 C 155.851562 124.421875 156.054688 126.003906 156.160156 127.738281 L 156.347656 130.890625 L 157.066406 129.042969 C 157.460938 128.027344 157.921875 126.664062 158.09375 126.019531 C 158.398438 124.867188 158.414062 124.867188 159.019531 126.070312 C 159.359375 126.746094 159.882812 128.363281 160.179688 129.664062 C 160.480469 130.960938 160.761719 131.929688 160.8125 131.8125 C 160.859375 131.695312 160.96875 130.355469 161.054688 128.835938 C 161.140625 127.316406 161.214844 126.015625 161.222656 125.945312 C 161.265625 125.570312 163.386719 128.804688 164.171875 130.441406 C 164.675781 131.496094 165.152344 132.207031 165.234375 132.027344 C 165.316406 131.847656 165.382812 130.296875 165.382812 128.578125 C 165.382812 125.914062 165.261719 125.203125 164.570312 123.746094 C 163.769531 122.074219 163.75 122.0625 163.453125 123.289062 C 163.070312 124.875 162.621094 124.898438 162.621094 123.328125 C 162.621094 122.183594 161.109375 117.78125 160.71875 117.78125 C 160.617188 117.78125 160.300781 118.75 160.011719 119.929688 C 159.726562 121.113281 159.417969 122.078125 159.328125 122.078125 C 158.941406 122.074219 156.816406 116.511719 156.816406 115.507812 C 156.816406 114.710938 156.960938 114.914062 157.332031 116.246094 C 157.617188 117.261719 158.183594 118.773438 158.589844 119.609375 C 159.417969 121.300781 159.71875 120.886719 160.035156 117.628906 C 160.125 116.699219 160.285156 115.941406 160.386719 115.941406 C 160.742188 115.941406 162.589844 120.550781 162.851562 122.082031 L 163.113281 123.617188 L 163.308594 121.925781 C 163.550781 119.863281 163.820312 119.785156 164.207031 121.667969 C 164.367188 122.457031 165.164062 124.09375 165.976562 125.304688 L 167.457031 127.511719 L 167.753906 125.292969 C 167.914062 124.074219 168.132812 123.371094 168.234375 123.734375 C 168.382812 124.277344 168 127.953125 167.707031 128.742188 C 167.664062 128.863281 167.1875 128.207031 166.644531 127.289062 L 165.660156 125.617188 L 165.65625 128.609375 C 165.652344 130.253906 165.578125 132.21875 165.484375 132.980469 C 165.304688 134.464844 164.828125 134.882812 164.828125 133.554688 Z M 164.828125 133.554688 "/>
<path style=" stroke:none;fill-rule:nonzero;fill:rgb(0%,0%,0%);fill-opacity:1;" d="M 157.460938 109.722656 C 155.703125 106.28125 155.4375 105.492188 155.476562 103.863281 L 155.519531 102.125 L 155.632812 103.800781 C 155.699219 104.78125 156.167969 106.25 156.757812 107.328125 L 157.765625 109.179688 L 158.386719 107.492188 C 158.726562 106.566406 159.011719 105.464844 159.015625 105.042969 C 159.03125 103.941406 159.117188 104.035156 160.304688 106.457031 C 161.363281 108.605469 161.378906 108.617188 161.535156 107.222656 C 161.625 106.445312 161.59375 104.984375 161.464844 103.972656 C 161.121094 101.191406 161.1875 100.773438 161.710938 102.449219 C 161.972656 103.285156 162.390625 104.464844 162.644531 105.074219 C 163.082031 106.132812 163.109375 106.117188 163.269531 104.765625 C 163.363281 103.988281 163.441406 102.566406 163.445312 101.605469 L 163.449219 99.859375 L 164.402344 102.394531 C 165.292969 104.761719 165.375 104.847656 165.644531 103.722656 C 165.804688 103.058594 165.9375 101.460938 165.941406 100.171875 C 165.945312 98.503906 166.019531 98.085938 166.199219 98.71875 C 166.5 99.777344 166.292969 102.660156 165.734375 105.117188 L 165.335938 106.878906 L 164.8125 104.960938 C 164.140625 102.511719 163.917969 102.550781 163.488281 105.195312 C 163.082031 107.695312 162.816406 107.882812 162.417969 105.964844 C 162.164062 104.71875 162.113281 104.871094 161.933594 107.484375 L 161.730469 110.386719 L 160.519531 108.179688 L 159.304688 105.972656 L 158.761719 107.425781 C 158.460938 108.226562 158.210938 109.226562 158.207031 109.648438 C 158.195312 110.5625 157.90625 110.589844 157.460938 109.722656 Z M 157.460938 109.722656 "/>
<path style=" stroke:none;fill-rule:nonzero;fill:rgb(0%,0%,0%);fill-opacity:1;" d="M 173.085938 96.902344 C 172.449219 95.550781 172.007812 94.261719 172.109375 94.035156 C 172.210938 93.8125 172.324219 93.75 172.359375 93.894531 C 172.398438 94.039062 172.921875 95.328125 173.523438 96.757812 C 174.90625 100.050781 174.621094 100.144531 173.085938 96.902344 Z M 173.085938 96.902344 "/>
<path style=" stroke:none;fill-rule:nonzero;fill:rgb(0%,0%,0%);fill-opacity:1;" d="M 152.273438 91.855469 C 151.691406 90.011719 151.730469 88.789062 152.4375 86.789062 C 152.949219 85.34375 153.183594 85.144531 154.078125 85.414062 C 154.652344 85.582031 155.882812 86.769531 156.820312 88.050781 C 157.898438 89.53125 159.011719 90.523438 159.878906 90.769531 C 160.625 90.984375 161.238281 91.0625 161.238281 90.949219 C 161.238281 90.832031 160.925781 89.644531 160.546875 88.308594 C 159.644531 85.132812 159.675781 84.789062 160.695312 86.691406 C 161.738281 88.648438 162.988281 89.21875 165.78125 89.019531 L 167.144531 88.921875 L 166.355469 87.085938 C 165.246094 84.519531 165.585938 84.289062 166.808594 86.777344 C 167.957031 89.113281 167.882812 89.277344 165.472656 89.84375 C 164.445312 90.082031 163.34375 89.90625 162.425781 89.359375 C 161.054688 88.542969 161.003906 88.554688 161.261719 89.632812 C 161.410156 90.253906 161.652344 90.765625 161.800781 90.765625 C 161.949219 90.765625 162.066406 91.078125 162.066406 91.464844 C 162.066406 92.648438 159.105469 91.605469 157.691406 89.925781 C 154.457031 86.085938 154.050781 85.75 153.28125 86.320312 C 152.851562 86.636719 152.421875 87.5625 152.277344 88.492188 C 151.78125 91.589844 153.65625 94 154.425781 91.261719 C 154.652344 90.464844 154.597656 89.921875 154.207031 88.957031 C 153.667969 87.632812 153.71875 87.445312 154.445312 88.066406 C 154.960938 88.507812 155.03125 91.414062 154.550781 92.484375 C 154 93.703125 152.746094 93.359375 152.273438 91.855469 Z M 152.273438 91.855469 "/>
<path style=" stroke:none;fill-rule:nonzero;fill:rgb(0%,0%,0%);fill-opacity:1;" d="M 165.007812 84.203125 C 164.605469 83.304688 164.921875 83.085938 166.734375 83.007812 C 168.976562 82.910156 170.339844 82.03125 171.945312 79.652344 C 173.234375 77.742188 173.582031 78.121094 172.359375 80.097656 C 171.246094 81.902344 169.507812 83.289062 167.828125 83.710938 C 167.015625 83.917969 166.089844 84.203125 165.769531 84.34375 C 165.449219 84.484375 165.109375 84.421875 165.007812 84.203125 Z M 165.007812 84.203125 "/>
</g>
</svg>
