<?xml version="1.0" encoding="UTF-8"?>
<svg xmlns="http://www.w3.org/2000/svg" xmlns:xlink="http://www.w3.org/1999/xlink" width="40px" height="40px" viewBox="0 0 256 256" version="1.1">
<g id="surface1">
<rect x="0" y="0" width="256" height="256" style="fill:rgb(100%,100%,100%);fill-opacity:1;stroke:none;"/>
<path style=" stroke:none;fill-rule:nonzero;fill:rgb(0%,58.431375%,26.274511%);fill-opacity:1;" d="M -63 179.199219 L 321 179.199219 L 321 256 L -63 256 Z M -63 179.199219 "/>
<path style=" stroke:none;fill-rule:nonzero;fill:rgb(0%,12.54902%,62.352943%);fill-opacity:1;" d="M -63 0 L 321 0 L 321 76.800781 L -63 76.800781 Z M -63 0 "/>
<path style="fill-rule:nonzero;fill:rgb(0%,0%,0%);fill-opacity:1;stroke-width:0.879545;stroke-linecap:butt;stroke-linejoin:miter;stroke:rgb(0%,0%,0%);stroke-opacity:1;stroke-miterlimit:4;" d="M 224.57479 108.911398 C 223.068976 108.943608 221.603425 110.610471 221.603425 110.610471 L 221.732265 128.406449 L 216.111635 134.292811 L 220.661285 134.292811 L 220.621023 144.499327 L 193.717692 180.727428 L 189.739768 179.35448 L 182.786452 194.183119 C 182.786452 194.183119 199.98252 204.949283 224.937151 204.655368 C 252.331683 204.329242 267.212663 193.687892 267.212663 193.687892 L 260.029852 179.048486 L 256.510919 180.578457 L 229.261332 144.535563 L 229.22107 134.027079 L 233.77072 134.027079 L 227.58239 128.213189 L 227.618626 110.481632 C 227.618626 110.481632 226.076577 108.879188 224.57479 108.911398 Z M 224.57479 108.911398 " transform="matrix(0.970198,0,0,0.970198,-89.081272,-24.11486)"/>
<path style="fill:none;stroke-width:4.397728;stroke-linecap:butt;stroke-linejoin:miter;stroke:rgb(0%,0%,0%);stroke-opacity:1;stroke-miterlimit:4;" d="M 233.951901 151.517062 L 215.346649 151.517062 C 215.346649 151.517062 208.594646 137.288333 209.689783 127.343522 C 210.805051 117.213504 216.594783 112.422279 224.288927 112.337728 C 233.388227 112.237072 238.155294 116.798801 239.596688 126.936871 C 241.026003 136.986365 233.951901 151.517062 233.951901 151.517062 Z M 233.951901 151.517062 " transform="matrix(0.970198,0,0,0.970198,-89.081272,-24.11486)"/>
<path style=" stroke:none;fill-rule:nonzero;fill:rgb(100%,100%,100%);fill-opacity:1;" d="M 97.246094 155.792969 C 96.949219 156.1875 94.785156 160.515625 94.785156 160.515625 L 98.523438 159.726562 Z M 97.246094 155.792969 "/>
<path style=" stroke:none;fill-rule:nonzero;fill:rgb(100%,100%,100%);fill-opacity:1;" d="M 99.410156 161.398438 L 95.476562 162.679688 L 100.195312 164.546875 Z M 99.410156 161.398438 "/>
<path style=" stroke:none;fill-rule:nonzero;fill:rgb(100%,100%,100%);fill-opacity:1;" d="M 101.179688 155.890625 L 103.148438 161.695312 L 107.964844 160.316406 L 106.6875 157.5625 Z M 101.179688 155.890625 "/>
<path style=" stroke:none;fill-rule:nonzero;fill:rgb(100%,100%,100%);fill-opacity:1;" d="M 104.230469 163.761719 L 104.917969 166.121094 L 111.3125 167.695312 L 108.753906 162.285156 Z M 104.230469 163.761719 "/>
<path style=" stroke:none;fill-rule:nonzero;fill:rgb(100%,100%,100%);fill-opacity:1;" d="M 111.3125 158.84375 L 113.574219 164.25 L 118.394531 162.382812 L 116.820312 160.023438 Z M 111.3125 158.84375 "/>
<path style=" stroke:none;fill-rule:nonzero;fill:rgb(100%,100%,100%);fill-opacity:1;" d="M 114.457031 166.21875 L 115.246094 168.285156 L 122.71875 169.367188 L 119.574219 164.449219 Z M 114.457031 166.21875 "/>
<path style=" stroke:none;fill-rule:nonzero;fill:rgb(100%,100%,100%);fill-opacity:1;" d="M 121.636719 160.414062 L 124.390625 165.234375 L 131.375 162.679688 L 130.589844 160.808594 Z M 121.636719 160.414062 "/>
<path style=" stroke:none;fill-rule:nonzero;fill:rgb(100%,100%,100%);fill-opacity:1;" d="M 125.671875 167.003906 L 127.148438 169.5625 L 135.800781 169.269531 L 132.554688 164.449219 Z M 125.671875 167.003906 "/>
<path style=" stroke:none;fill-rule:nonzero;fill:rgb(100%,100%,100%);fill-opacity:1;" d="M 134.820312 160.613281 L 137.179688 164.644531 L 142.6875 161.988281 L 141.210938 159.824219 Z M 134.820312 160.613281 "/>
<path style=" stroke:none;fill-rule:nonzero;fill:rgb(100%,100%,100%);fill-opacity:1;" d="M 143.867188 163.660156 L 138.359375 166.414062 L 139.835938 168.777344 L 147.210938 167.597656 Z M 143.867188 163.660156 "/>
<path style=" stroke:none;fill-rule:nonzero;fill:rgb(100%,100%,100%);fill-opacity:1;" d="M 145.636719 159.433594 L 148.492188 162.972656 L 153.113281 159.332031 L 151.539062 157.660156 Z M 145.636719 159.433594 "/>
<path style=" stroke:none;fill-rule:nonzero;fill:rgb(100%,100%,100%);fill-opacity:1;" d="M 154.097656 161.300781 L 149.671875 164.644531 L 150.851562 166.710938 L 156.949219 165.136719 Z M 154.097656 161.300781 "/>
<path style=" stroke:none;fill-rule:nonzero;fill:rgb(100%,100%,100%);fill-opacity:1;" d="M 160.195312 154.316406 L 161.277344 155.890625 L 158.226562 160.414062 L 155.082031 156.382812 Z M 160.195312 154.316406 "/>
<path style=" stroke:none;fill-rule:nonzero;fill:rgb(100%,100%,100%);fill-opacity:1;" d="M 162.261719 158.25 L 164.128906 161.988281 L 160.390625 163.269531 L 160.097656 161.496094 Z M 162.261719 158.25 "/>
</g>
</svg>
