<?xml version="1.0" encoding="UTF-8"?>
<svg xmlns="http://www.w3.org/2000/svg" xmlns:xlink="http://www.w3.org/1999/xlink" width="40px" height="40px" viewBox="0 0 256 256" version="1.1">
<g id="surface1">
<rect x="0" y="0" width="256" height="256" style="fill:rgb(92.156863%,0%,7.450981%);fill-opacity:1;stroke:none;"/>
<path style=" stroke:none;fill-rule:evenodd;fill:rgb(4.313726%,31.37255%,20.784314%);fill-opacity:1;" d="M 148.40625 156.683594 L 81.703125 203.328125 L 98.890625 150.699219 L 107.820312 157.164062 L 101.414062 176.390625 L 144.914062 145.042969 Z M 155.246094 126.222656 L 178.53125 204.472656 L 134.808594 171.847656 L 143.800781 165.472656 L 159.359375 177.148438 L 143.097656 125.785156 Z M 127.648438 110.683594 L 209.601562 110.78125 L 164.941406 142.992188 L 161.367188 132.566406 L 177.972656 121.449219 L 123.796875 122.214844 L 127.652344 110.683594 Z M 104.476562 131.605469 L 130.425781 53.238281 L 148.285156 107.113281 L 137.265625 107.253906 L 130.6875 86.617188 L 114.226562 138.863281 Z M 117.777344 159.769531 L 51.660156 111.238281 L 107.46875 110.808594 L 104.214844 121.335938 L 83.5 121.253906 L 127.679688 152.722656 Z M 117.777344 159.769531 "/>
</g>
</svg>
