<?xml version="1.0" encoding="UTF-8"?>
<svg xmlns="http://www.w3.org/2000/svg" xmlns:xlink="http://www.w3.org/1999/xlink" width="40px" height="40px" viewBox="0 0 256 256" version="1.1">
<g id="surface1">
<path style=" stroke:none;fill-rule:evenodd;fill:rgb(0%,19.215687%,61.176473%);fill-opacity:1;" d="M 0 0 L 85.332031 0 L 85.332031 256 L 0 256 Z M 0 0 "/>
<path style=" stroke:none;fill-rule:evenodd;fill:rgb(100%,87.058824%,0%);fill-opacity:1;" d="M 85.332031 0 L 170.667969 0 L 170.667969 256 L 85.332031 256 Z M 85.332031 0 "/>
<path style=" stroke:none;fill-rule:evenodd;fill:rgb(87.058824%,12.941177%,6.27451%);fill-opacity:1;" d="M 170.667969 0 L 256 0 L 256 256 L 170.667969 256 Z M 170.667969 0 "/>
<path style="fill-rule:evenodd;fill:rgb(100%,9.803922%,0%);fill-opacity:1;stroke-width:1.25;stroke-linecap:butt;stroke-linejoin:miter;stroke:rgb(0%,0%,0%);stroke-opacity:1;stroke-miterlimit:4;" d="M 173.621916 690.940505 L 173.622222 754.726496 C 173.622143 758.26329 173.622064 761.800084 170.076442 761.79804 C 166.54245 761.803699 162.98861 768.887413 162.9921 772.44408 C 162.991943 779.517667 166.529425 783.068675 170.075047 783.070718 L 201.970446 783.061535 C 205.516067 783.063579 209.050138 779.521127 209.058357 772.435369 C 208.830332 768.712484 205.509402 761.803071 201.96378 761.801028 C 198.429788 761.806687 198.418237 758.262191 198.426376 754.713226 L 198.41801 690.939406 " transform="matrix(0.233474,-0.147758,0.15463,0.223098,-2.571376,32.248883)"/>
<path style="fill-rule:evenodd;fill:rgb(65.490198%,48.235294%,23.137255%);fill-opacity:1;stroke-width:3.125;stroke-linecap:butt;stroke-linejoin:miter;stroke:rgb(0%,0%,0%);stroke-opacity:1;stroke-miterlimit:4;" d="M 177.165796 696.258863 C 177.169631 720.718133 167.653751 740.545477 155.911541 740.548954 C 144.169332 740.552432 134.65665 720.722469 134.652815 696.263199 C 134.648981 671.803928 144.174258 651.965414 155.90707 651.973107 C 167.64928 651.96963 177.161961 671.799593 177.165796 696.258863 Z M 177.165796 696.258863 " transform="matrix(0.214291,-0.172261,0.180273,0.204768,-14.829068,38.630906)"/>
<path style="fill-rule:evenodd;fill:rgb(100%,9.803922%,0%);fill-opacity:1;stroke-width:1.25;stroke-linecap:butt;stroke-linejoin:miter;stroke:rgb(0%,0%,0%);stroke-opacity:1;stroke-miterlimit:4;" d="M 173.624959 690.937397 L 173.62526 754.720355 C 173.623642 758.265694 173.622024 761.811033 170.071341 761.803861 C 166.527775 761.809434 162.993152 768.898886 162.984418 772.431479 C 162.993362 779.515357 166.530247 783.074669 170.073813 783.069095 L 201.962901 783.070771 C 205.506468 783.065198 209.058768 779.527031 209.049824 772.443153 C 208.818798 768.71004 205.511112 761.812709 201.960429 761.805537 C 198.429042 761.80431 198.41848 758.265771 198.420098 754.720432 L 198.419798 690.937474 " transform="matrix(0.244507,0.130445,-0.136511,0.233641,156.676957,-29.126544)"/>
<path style="fill-rule:evenodd;fill:rgb(65.490198%,48.235294%,23.137255%);fill-opacity:1;stroke-width:3.125;stroke-linecap:butt;stroke-linejoin:miter;stroke:rgb(0%,0%,0%);stroke-opacity:1;stroke-miterlimit:4;" d="M 421.644854 701.580387 L 393.300182 701.580387 C 392.365589 702.514652 384.30298 755.650983 375.584762 775.985848 C 364.95551 800.787668 333.12355 822.684507 333.12355 822.684507 C 333.12355 822.684507 352.192038 828.728035 357.869342 832.684064 C 359.278206 832.260725 389.701301 825.589488 393.244385 786.613114 C 396.78747 825.589488 372.041678 843.31133 372.041678 843.31133 C 372.041678 843.31133 407.472518 853.938596 407.472518 878.740417 C 407.472518 853.938596 442.903359 843.31133 442.903359 843.31133 C 442.903359 843.31133 425.132142 825.589488 421.589058 786.613114 C 428.675226 825.589488 455.666831 832.260725 457.089644 832.684064 C 462.752999 828.728035 481.835436 822.684507 481.835436 822.684507 C 481.835436 822.684507 449.989527 800.787668 439.360275 775.985848 C 430.642056 755.650983 422.593397 702.514652 421.644854 701.580387 Z M 421.644854 701.580387 " transform="matrix(0.280035,0,0,0.26759,14.858282,-43.16948)"/>
<path style="fill-rule:evenodd;fill:rgb(65.490198%,48.235294%,23.137255%);fill-opacity:1;stroke-width:3.125;stroke-linecap:butt;stroke-linejoin:miter;stroke:rgb(0%,0%,0%);stroke-opacity:1;stroke-miterlimit:4;" d="M 336.612009 467.698343 L 389.758269 485.420185 C 407.473689 485.420185 425.18911 467.712941 425.18911 450.005697 C 425.788923 410.591386 411.016774 396.840171 407.473689 396.840171 L 414.559858 389.745594 L 403.930605 379.118328 C 403.930605 379.118328 407.487639 360.739581 442.90453 361.425682 C 478.33537 362.097185 478.33537 379.132926 478.33537 396.854768 C 478.33537 414.562013 460.61995 414.562013 460.61995 450.005697 C 460.61995 467.712941 478.33537 485.434783 496.06474 485.434783 L 549.211 467.712941 L 549.211 644.872971 L 336.612009 644.872971 Z M 336.612009 467.698343 " transform="matrix(0.280035,0,0,0.26759,4.920454,-27.99905)"/>
<path style="fill:none;stroke-width:0.60302;stroke-linecap:butt;stroke-linejoin:miter;stroke:rgb(0%,0%,0%);stroke-opacity:1;stroke-miterlimit:4;" d="M 302.141636 292.232085 L 316.785505 307.212819 L 331.429373 292.232085 L 346.073241 307.212819 L 375.360978 292.232085 L 389.658928 308.055356 L 404.648715 292.232085 L 426.268599 308.055356 L 448.58032 292.232085 L 463.224189 307.212819 L 477.92571 292.232085 " transform="matrix(0.0677545,0,0,0.190088,101.532461,43.500998)"/>
<path style="fill:none;stroke-width:0.25;stroke-linecap:butt;stroke-linejoin:miter;stroke:rgb(0%,0%,0%);stroke-opacity:1;stroke-miterlimit:4;" d="M 432.275659 435.831021 L 425.189491 474.807395 " transform="matrix(0.280035,0,0,0.26759,4.920347,-27.999017)"/>
<path style="fill:none;stroke-width:0.25;stroke-linecap:butt;stroke-linejoin:miter;stroke:rgb(0%,0%,0%);stroke-opacity:1;stroke-miterlimit:4;" d="M 435.832769 435.831021 L 435.832769 474.807395 " transform="matrix(0.280035,0,0,0.26759,4.920325,-27.999017)"/>
<path style="fill:none;stroke-width:0.25;stroke-linecap:butt;stroke-linejoin:miter;stroke:rgb(0%,0%,0%);stroke-opacity:1;stroke-miterlimit:4;" d="M 442.904759 435.831143 L 442.904759 474.807517 " transform="matrix(0.280035,0,0,0.26759,4.920389,-27.99905)"/>
<path style="fill:none;stroke-width:0.25;stroke-linecap:butt;stroke-linejoin:miter;stroke:rgb(0%,0%,0%);stroke-opacity:1;stroke-miterlimit:4;" d="M 450.004876 435.831021 L 453.54796 474.807395 " transform="matrix(0.280035,0,0,0.26759,4.920389,-27.999017)"/>
<path style="fill:none;stroke-width:0.25;stroke-linecap:butt;stroke-linejoin:miter;stroke:rgb(0%,0%,0%);stroke-opacity:1;stroke-miterlimit:4;" d="M 457.091044 435.831143 L 460.634128 474.807517 " transform="matrix(0.280035,0,0,0.26759,4.920389,-27.99905)"/>
<path style="fill-rule:evenodd;fill:rgb(65.490198%,48.235294%,23.137255%);fill-opacity:1;stroke-width:3.125;stroke-linecap:butt;stroke-linejoin:miter;stroke:rgb(0%,0%,0%);stroke-opacity:1;stroke-miterlimit:4;" d="M 318.898658 361.425224 C 354.329498 379.132468 354.329498 414.576153 354.329498 432.283397 C 353.088024 448.399471 354.329498 786.618055 354.329498 786.618055 C 354.329498 786.618055 352.027889 766.589746 336.614078 751.188968 L 301.183238 715.745284 C 288.238427 703.979382 283.467818 680.316198 283.467818 662.594356 L 283.467818 414.576153 C 283.467818 414.576153 283.467818 396.854311 318.898658 361.425224 Z M 318.898658 361.425224 " transform="matrix(-0.280035,0,0,0.26759,178.564501,-27.998927)"/>
<path style="fill:none;stroke-width:3.125;stroke-linecap:butt;stroke-linejoin:miter;stroke:rgb(0%,0%,0%);stroke-opacity:1;stroke-miterlimit:4;" d="M 283.453869 574.013667 C 283.872343 574.013667 301.169289 556.306423 301.169289 556.306423 L 318.898658 574.013667 C 318.898658 574.013667 336.614078 556.306423 336.614078 556.306423 L 354.329498 574.013667 " transform="matrix(-0.280035,0,0,0.26759,178.564501,-65.924528)"/>
<path style="fill:none;stroke-width:3.125;stroke-linecap:butt;stroke-linejoin:miter;stroke:rgb(0%,0%,0%);stroke-opacity:1;stroke-miterlimit:4;" d="M 283.453869 574.023682 C 283.872343 574.023682 301.169289 556.30184 301.169289 556.30184 L 318.898658 574.023682 C 318.898658 574.023682 336.614078 556.30184 336.614078 556.30184 L 354.329498 574.023682 " transform="matrix(-0.280035,0,0,-0.26759,178.564501,246.013145)"/>
<path style="fill:none;stroke-width:3.125;stroke-linecap:butt;stroke-linejoin:miter;stroke:rgb(0%,0%,0%);stroke-opacity:1;stroke-miterlimit:4;" d="M 283.453869 574.02244 C 283.872343 574.02244 301.169289 556.300598 301.169289 556.300598 L 318.898658 574.02244 C 318.898658 574.02244 336.614078 556.300598 336.614078 556.300598 L 354.329498 574.02244 " transform="matrix(-0.280035,0,0,0.26759,178.564501,-46.962032)"/>
<path style="fill:none;stroke-width:3.125;stroke-linecap:butt;stroke-linejoin:miter;stroke:rgb(0%,0%,0%);stroke-opacity:1;stroke-miterlimit:4;" d="M 301.392475 556.987533 L 301.183238 715.747605 " transform="matrix(-0.280035,0,0,0.507645,178.564501,-199.810505)"/>
<path style="fill:none;stroke-width:3.125;stroke-linecap:butt;stroke-linejoin:miter;stroke:rgb(0%,0%,0%);stroke-opacity:1;stroke-miterlimit:4;" d="M 301.388648 539.266498 L 301.179411 715.74951 " transform="matrix(-0.280035,0,0,0.455625,173.661086,-158.031679)"/>
<path style="fill:none;stroke-width:3.125;stroke-linecap:butt;stroke-linejoin:miter;stroke:rgb(0%,0%,0%);stroke-opacity:1;stroke-miterlimit:4;" d="M 301.384037 539.271495 L 301.188749 715.748801 " transform="matrix(-0.280035,0,0,0.510401,168.698857,-192.307288)"/>
<path style="fill-rule:evenodd;fill:rgb(65.490198%,48.235294%,23.137255%);fill-opacity:1;stroke-width:3.125;stroke-linecap:butt;stroke-linejoin:miter;stroke:rgb(0%,0%,0%);stroke-opacity:1;stroke-miterlimit:4;" d="M 318.90598 361.425224 C 354.336821 379.132468 354.336821 414.576153 354.336821 432.283397 C 353.081397 448.399471 354.336821 786.618055 354.336821 786.618055 C 354.336821 786.618055 352.021262 766.589746 336.621401 751.188968 L 318.90598 733.467126 L 301.176611 715.745284 C 288.2318 703.979382 283.461191 680.316198 283.461191 662.594356 L 283.461191 414.576153 C 283.461191 414.576153 283.461191 396.854311 318.90598 361.425224 Z M 318.90598 361.425224 " transform="matrix(0.280035,0,0,0.26759,79.339699,-27.998927)"/>
<path style="fill:none;stroke-width:3.125;stroke-linecap:butt;stroke-linejoin:miter;stroke:rgb(0%,0%,0%);stroke-opacity:1;stroke-miterlimit:4;" d="M 283.461191 574.013667 C 283.879665 574.013667 301.176611 556.306423 301.176611 556.306423 L 318.892031 574.013667 C 318.892031 574.013667 336.607451 556.306423 336.607451 556.306423 L 354.322872 574.013667 " transform="matrix(0.280035,0,0,0.26759,79.339699,-65.924528)"/>
<path style="fill:none;stroke-width:3.125;stroke-linecap:butt;stroke-linejoin:miter;stroke:rgb(0%,0%,0%);stroke-opacity:1;stroke-miterlimit:4;" d="M 283.461191 574.023682 C 283.879665 574.023682 301.176611 556.30184 301.176611 556.30184 L 318.892031 574.023682 C 318.892031 574.023682 336.607451 556.30184 336.607451 556.30184 L 354.322872 574.023682 " transform="matrix(0.280035,0,0,-0.26759,79.339699,246.013145)"/>
<path style="fill:none;stroke-width:3.125;stroke-linecap:butt;stroke-linejoin:miter;stroke:rgb(0%,0%,0%);stroke-opacity:1;stroke-miterlimit:4;" d="M 283.461191 574.02244 C 283.879665 574.02244 301.176611 556.300598 301.176611 556.300598 L 318.892031 574.02244 C 318.892031 574.02244 336.607451 556.300598 336.607451 556.300598 L 354.322872 574.02244 " transform="matrix(0.280035,0,0,0.26759,79.339699,-46.962032)"/>
<path style="fill:none;stroke-width:3.125;stroke-linecap:butt;stroke-linejoin:miter;stroke:rgb(0%,0%,0%);stroke-opacity:1;stroke-miterlimit:4;" d="M 301.385848 556.987533 L 301.176611 715.747605 " transform="matrix(0.280035,0,0,0.507645,79.339699,-199.810505)"/>
<path style="fill:none;stroke-width:3.125;stroke-linecap:butt;stroke-linejoin:miter;stroke:rgb(0%,0%,0%);stroke-opacity:1;stroke-miterlimit:4;" d="M 301.395971 539.266498 L 301.186733 715.74951 " transform="matrix(0.280035,0,0,0.455625,84.243114,-158.031679)"/>
<path style="fill:none;stroke-width:3.125;stroke-linecap:butt;stroke-linejoin:miter;stroke:rgb(0%,0%,0%);stroke-opacity:1;stroke-miterlimit:4;" d="M 301.38745 539.271495 L 301.178213 715.748801 " transform="matrix(0.280035,0,0,0.510401,89.202531,-192.307288)"/>
<path style="fill-rule:evenodd;fill:rgb(65.490198%,48.235294%,23.137255%);fill-opacity:1;stroke-width:3.125;stroke-linecap:butt;stroke-linejoin:miter;stroke:rgb(0%,0%,0%);stroke-opacity:1;stroke-miterlimit:4;" d="M 177.174137 696.257685 C 177.168339 720.72487 167.657303 740.549507 155.91765 740.554316 C 144.172382 740.54565 134.646596 720.729905 134.652394 696.262719 C 134.645316 671.800898 144.169227 651.970897 155.908881 651.966088 C 167.654149 651.974754 177.167058 671.795864 177.174137 696.257685 Z M 177.174137 696.257685 " transform="matrix(0.258495,0.102918,-0.107704,0.247007,145.117121,-36.605497)"/>
<path style=" stroke:none;fill-rule:evenodd;fill:rgb(100%,0%,0%);fill-opacity:1;" d="M 99.183594 101.898438 L 158.71875 101.898438 L 158.71875 130.34375 L 99.183594 130.34375 Z M 99.183594 101.898438 "/>
<path style=" stroke:none;fill-rule:evenodd;fill:rgb(33.725491%,30.19608%,100%);fill-opacity:1;" d="M 99.183594 130.34375 L 158.71875 130.34375 L 158.71875 144.566406 C 158.71875 154.046875 143.835938 154.046875 128.949219 163.527344 C 114.066406 154.046875 99.183594 154.046875 99.183594 144.566406 Z M 99.183594 130.34375 "/>
<path style="fill:none;stroke-width:2.5;stroke-linecap:butt;stroke-linejoin:miter;stroke:rgb(100%,100%,0%);stroke-opacity:1;stroke-miterlimit:4;" d="M 336.610618 485.43428 L 549.209609 485.43428 L 549.209609 644.887066 C 549.209609 680.316152 496.063349 680.316152 442.903139 715.745238 C 389.756879 680.316152 336.610618 680.316152 336.610618 644.887066 Z M 336.610618 485.43428 " transform="matrix(0.280035,0,0,0.26759,4.920843,-27.998915)"/>
<path style="fill-rule:evenodd;fill:rgb(100%,100%,0%);fill-opacity:1;stroke-width:3.0112;stroke-linecap:butt;stroke-linejoin:miter;stroke:rgb(0%,0%,0%);stroke-opacity:1;stroke-miterlimit:4;" d="M 385.586852 129.897329 C 385.586852 129.897329 334.971365 185.359126 334.971365 238.489289 C 334.971365 291.65054 388.117626 309.370957 388.117626 309.370957 C 388.117626 309.370957 370.402206 309.370957 370.402206 380.221538 C 370.402206 415.662372 423.548467 397.941955 423.548467 415.662372 C 423.548467 433.382789 422.811155 476.253763 423.548467 504.233369 C 423.548467 521.953786 388.117626 504.233369 388.117626 521.953786 C 388.117626 530.813995 414.700721 575.115038 441.263888 575.115038 C 467.846982 575.115038 494.410149 530.813995 494.410149 521.953786 C 494.410149 504.233369 458.979308 521.953786 458.979308 504.233369 L 458.979308 415.662372 C 458.979308 397.941955 512.145497 415.662372 512.145497 380.221538 C 512.145497 309.370957 494.410149 309.370957 494.410149 309.370957 C 494.410149 309.370957 547.576338 291.65054 547.576338 238.489289 C 547.576338 185.359126 496.960851 129.897329 496.960851 129.897329 C 496.960851 129.897329 525.417117 203.048454 525.417117 238.489289 C 525.417117 256.209706 512.145497 291.65054 476.694729 291.65054 C 476.694729 291.65054 467.747346 273.930123 458.979308 291.65054 C 458.979308 291.65054 448.796429 273.930123 441.263888 291.65054 C 438.673332 297.774965 434.070112 273.930123 423.548467 291.65054 C 419.084739 296.344896 415.577525 273.930123 405.833047 291.65054 C 388.117626 291.65054 352.686785 273.930123 352.686785 238.489289 C 352.686785 203.079543 385.586852 129.897329 385.586852 129.897329 Z M 385.586852 129.897329 " transform="matrix(0.196024,0,0,0.12565,42.450691,87.471427)"/>
<path style="fill-rule:evenodd;fill:rgb(100%,100%,0%);fill-opacity:1;stroke-width:3.0112;stroke-linecap:butt;stroke-linejoin:miter;stroke:rgb(0%,0%,0%);stroke-opacity:1;stroke-miterlimit:4;" d="M 382.689227 248.027748 C 379.142158 251.571832 387.252592 309.303085 389.763439 311.82125 C 393.310509 315.365333 414.572999 315.365333 418.120068 311.82125 C 420.630915 309.271997 418.120068 255.115915 414.572999 251.571832 C 411.025929 248.027748 385.180147 245.509584 382.689227 248.027748 Z M 382.689227 248.027748 " transform="matrix(0.196024,0,0,0.12565,43.198383,112.46433)"/>
<path style="fill-rule:evenodd;fill:rgb(100%,100%,0%);fill-opacity:1;stroke-width:3.0112;stroke-linecap:butt;stroke-linejoin:miter;stroke:rgb(0%,0%,0%);stroke-opacity:1;stroke-miterlimit:4;" d="M 382.678767 248.027748 C 379.131697 251.571832 387.262059 309.303085 389.772906 311.82125 C 393.300048 315.365333 414.562538 315.365333 418.109608 311.82125 C 420.640382 309.271997 418.109608 255.115915 414.562538 251.571832 C 411.035396 248.027748 385.189614 245.509584 382.678767 248.027748 Z M 382.678767 248.027748 " transform="matrix(-0.196024,0,0,0.12565,214.705816,112.46433)"/>
<path style="fill-rule:evenodd;fill:rgb(100%,100%,0%);fill-opacity:1;stroke-width:3.0112;stroke-linecap:butt;stroke-linejoin:miter;stroke:rgb(0%,0%,0%);stroke-opacity:1;stroke-miterlimit:4;" d="M 414.568237 228.550125 C 414.568237 237.353351 407.425406 244.48571 398.618227 244.48571 C 389.811048 244.48571 382.685555 237.353351 382.685555 228.550125 C 382.685555 219.721961 389.811048 212.589602 398.618227 212.589602 C 407.425406 212.589602 414.568237 219.721961 414.568237 228.550125 Z M 414.568237 228.550125 " transform="matrix(0.225313,0,0,0.156636,31.951618,105.204621)"/>
<path style="fill-rule:evenodd;fill:rgb(100%,100%,0%);fill-opacity:1;stroke-width:3.0112;stroke-linecap:butt;stroke-linejoin:miter;stroke:rgb(0%,0%,0%);stroke-opacity:1;stroke-miterlimit:4;" d="M 414.571685 228.546215 C 414.571685 237.349291 407.428943 244.481527 398.621874 244.481527 C 389.814804 244.481527 382.672063 237.349291 382.672063 228.546215 C 382.672063 219.74314 389.814804 212.585965 398.621874 212.585965 C 407.428943 212.585965 414.571685 219.74314 414.571685 228.546215 Z M 414.571685 228.546215 " transform="matrix(0.225316,0,0,0.156639,46.320772,105.204621)"/>
<path style=" stroke:none;fill-rule:evenodd;fill:rgb(0%,0%,0%);fill-opacity:1;" d="M 135.203125 155.507812 C 135.203125 156.121094 134.425781 156.617188 133.46875 156.617188 C 132.507812 156.617188 131.730469 156.121094 131.730469 155.507812 C 131.730469 154.890625 132.507812 154.394531 133.46875 154.394531 C 134.425781 154.394531 135.203125 154.890625 135.203125 155.507812 Z M 135.203125 155.507812 "/>
<path style=" stroke:none;fill-rule:evenodd;fill:rgb(0%,0%,0%);fill-opacity:1;" d="M 126.171875 155.507812 C 126.171875 156.121094 125.394531 156.617188 124.4375 156.617188 C 123.476562 156.617188 122.699219 156.121094 122.699219 155.507812 C 122.699219 154.890625 123.476562 154.394531 124.4375 154.394531 C 125.394531 154.394531 126.171875 154.890625 126.171875 155.507812 Z M 126.171875 155.507812 "/>
<path style="fill-rule:evenodd;fill:rgb(100%,100%,0%);fill-opacity:1;stroke-width:1.25;stroke-linecap:butt;stroke-linejoin:miter;stroke:rgb(0%,0%,0%);stroke-opacity:1;stroke-miterlimit:4;" d="M 439.375018 549.924738 L 431.596975 539.660233 L 418.814675 541.410885 L 420.573313 528.647585 L 410.321737 520.86691 L 420.573313 513.086235 L 418.814675 500.322936 L 431.596975 502.073588 L 439.375018 491.809082 L 447.153062 502.073588 L 459.921064 500.322936 L 458.162426 513.086235 L 468.414002 520.86691 L 458.162426 528.647585 L 459.921064 541.410885 L 447.153062 539.660233 Z M 439.375018 549.924738 " transform="matrix(0.273205,0,0,0.261063,8.913699,-23.651199)"/>
<path style="fill-rule:evenodd;fill:rgb(100%,100%,0%);fill-opacity:1;stroke-width:1.25;stroke-linecap:butt;stroke-linejoin:miter;stroke:rgb(0%,0%,0%);stroke-opacity:1;stroke-miterlimit:4;" d="M 496.064778 591.736641 L 517.323282 602.363907 L 538.581786 591.736641 L 517.323282 581.094777 Z M 496.064778 591.736641 " transform="matrix(0.280035,0,0,0.26759,4.920443,-27.99905)"/>
<path style="fill-rule:evenodd;fill:rgb(100%,100%,0%);fill-opacity:1;stroke-width:1.25;stroke-linecap:butt;stroke-linejoin:miter;stroke:rgb(0%,0%,0%);stroke-opacity:1;stroke-miterlimit:4;" d="M 496.058368 591.73629 L 517.316872 602.363556 L 538.575377 591.73629 L 517.316872 581.094426 Z M 496.058368 591.73629 " transform="matrix(0.280035,0,0,0.26759,-37.745731,-27.998956)"/>
<path style="fill-rule:evenodd;fill:rgb(100%,100%,0%);fill-opacity:1;stroke-width:1.25;stroke-linecap:butt;stroke-linejoin:miter;stroke:rgb(0%,0%,0%);stroke-opacity:1;stroke-miterlimit:4;" d="M 535.03784 659.067 C 531.504529 651.970825 520.860339 648.433531 513.785913 648.427715 C 506.69212 648.427612 499.610424 648.434456 492.525915 659.061904 C 492.526449 644.888028 503.016139 637.798544 513.77663 637.800164 C 524.53712 637.801784 535.038331 648.310391 535.03784 659.067 Z M 535.03784 659.067 " transform="matrix(0.242838,-0.133262,0.13946,0.232046,-68.770806,65.686926)"/>
<path style="fill-rule:evenodd;fill:rgb(100%,100%,0%);fill-opacity:1;stroke-width:1.25;stroke-linecap:butt;stroke-linejoin:miter;stroke:rgb(0%,0%,0%);stroke-opacity:1;stroke-miterlimit:4;" d="M 386.215492 651.977119 C 386.215492 655.889354 383.049035 659.057097 379.129324 659.057097 C 375.223562 659.057097 372.043156 655.889354 372.043156 651.977119 C 372.043156 648.050286 375.223562 644.882543 379.129324 644.882543 C 383.049035 644.882543 386.215492 648.050286 386.215492 651.977119 Z M 386.215492 651.977119 " transform="matrix(0.280035,0,0,0.26759,3.92818,-32.739892)"/>
<path style="fill-rule:evenodd;fill:rgb(100%,100%,0%);fill-opacity:1;stroke-width:1.25;stroke-linecap:butt;stroke-linejoin:miter;stroke:rgb(0%,0%,0%);stroke-opacity:1;stroke-miterlimit:4;" d="M 386.216124 651.97554 C 386.216124 655.887775 383.049667 659.055518 379.129956 659.055518 C 375.224194 659.055518 372.043788 655.887775 372.043788 651.97554 C 372.043788 648.063305 375.224194 644.880964 379.129956 644.880964 C 383.049667 644.880964 386.216124 648.063305 386.216124 651.97554 Z M 386.216124 651.97554 " transform="matrix(0.280035,0,0,0.26759,1.943628,-26.102751)"/>
<path style="fill-rule:evenodd;fill:rgb(100%,100%,0%);fill-opacity:1;stroke-width:1.25;stroke-linecap:butt;stroke-linejoin:miter;stroke:rgb(0%,0%,0%);stroke-opacity:1;stroke-miterlimit:4;" d="M 386.21604 651.974286 C 386.21604 655.886522 383.049583 659.054264 379.129872 659.054264 C 375.22411 659.054264 372.043704 655.886522 372.043704 651.974286 C 372.043704 648.062051 375.22411 644.87971 379.129872 644.87971 C 383.049583 644.87971 386.21604 648.062051 386.21604 651.974286 Z M 386.21604 651.974286 " transform="matrix(0.280035,0,0,0.26759,0.951464,-29.895384)"/>
<path style="fill-rule:evenodd;fill:rgb(100%,100%,0%);fill-opacity:1;stroke-width:1.25;stroke-linecap:butt;stroke-linejoin:miter;stroke:rgb(0%,0%,0%);stroke-opacity:1;stroke-miterlimit:4;" d="M 386.21496 651.97554 C 386.21496 655.887775 383.048503 659.055518 379.128792 659.055518 C 375.22303 659.055518 372.042624 655.887775 372.042624 651.97554 C 372.042624 648.063305 375.22303 644.880964 379.128792 644.880964 C 383.048503 644.880964 386.21496 648.063305 386.21496 651.97554 Z M 386.21496 651.97554 " transform="matrix(0.280035,0,0,0.26759,5.912704,-26.102751)"/>
<path style="fill-rule:evenodd;fill:rgb(100%,100%,0%);fill-opacity:1;stroke-width:1.25;stroke-linecap:butt;stroke-linejoin:miter;stroke:rgb(0%,0%,0%);stroke-opacity:1;stroke-miterlimit:4;" d="M 386.214744 651.974286 C 386.214744 655.886522 383.048287 659.054264 379.128576 659.054264 C 375.222814 659.054264 372.042408 655.886522 372.042408 651.974286 C 372.042408 648.062051 375.222814 644.87971 379.128576 644.87971 C 383.048287 644.87971 386.214744 648.062051 386.214744 651.974286 Z M 386.214744 651.974286 " transform="matrix(0.280035,0,0,0.26759,6.904952,-29.895384)"/>
<path style="fill-rule:evenodd;fill:rgb(100%,100%,0%);fill-opacity:1;stroke-width:1.25;stroke-linecap:butt;stroke-linejoin:miter;stroke:rgb(0%,0%,0%);stroke-opacity:1;stroke-miterlimit:4;" d="M 386.215392 651.963576 C 386.215392 655.890409 383.048935 659.058152 379.129224 659.058152 C 375.223462 659.058152 372.043056 655.890409 372.043056 651.963576 C 372.043056 648.051341 375.223462 644.883598 379.129224 644.883598 C 383.048935 644.883598 386.215392 648.051341 386.215392 651.963576 Z M 386.215392 651.963576 " transform="matrix(0.280035,0,0,0.26759,3.928208,-28.947206)"/>
<path style=" stroke:none;fill-rule:evenodd;fill:rgb(85.490197%,27.058825%,0%);fill-opacity:1;" d="M 119.363281 79.460938 C 114.355469 79.460938 113.691406 80.25 111.425781 81.042969 C 111.425781 78.859375 117 76.300781 122.007812 76.300781 C 122.007812 77.878906 120.6875 79.460938 119.363281 79.460938 Z M 119.363281 79.460938 "/>
<path style=" stroke:none;fill-rule:evenodd;fill:rgb(79.215688%,78.823531%,78.039217%);fill-opacity:1;" d="M 126.96875 74.402344 C 126.96875 75.449219 126.078125 76.296875 124.984375 76.296875 C 123.886719 76.296875 123 75.449219 123 74.402344 C 123 73.355469 123.886719 72.503906 124.984375 72.503906 C 126.078125 72.503906 126.96875 73.355469 126.96875 74.402344 Z M 126.96875 74.402344 "/>
<path style="fill-rule:evenodd;fill:rgb(100%,100%,0%);fill-opacity:1;stroke-width:1.25;stroke-linecap:butt;stroke-linejoin:miter;stroke:rgb(0%,0%,0%);stroke-opacity:1;stroke-miterlimit:4;" d="M 361.413788 357.863613 L 361.413788 368.505477 L 379.143157 368.505477 L 379.143157 421.656406 L 389.772409 421.656406 L 389.772409 368.505477 L 407.487829 368.505477 L 407.487829 357.863613 L 389.772409 357.863613 L 389.772409 343.703657 L 379.143157 343.703657 L 379.143157 357.863613 Z M 361.413788 357.863613 " transform="matrix(0.280035,0,0,0.26759,4.9204,-27.999001)"/>
<path style=" stroke:none;fill-rule:evenodd;fill:rgb(85.490197%,27.058825%,0%);fill-opacity:1;" d="M 122 76.300781 C 116.15625 76.300781 112.738281 76.828125 110.09375 77.882812 C 110.09375 74.972656 113.511719 71.558594 119.355469 71.558594 C 120.675781 71.558594 122 74.71875 122 76.300781 Z M 122 76.300781 "/>
<path style="fill-rule:evenodd;fill:rgb(0%,52.156866%,0%);fill-opacity:1;stroke-width:0.875;stroke-linecap:butt;stroke-linejoin:miter;stroke:rgb(0%,0%,0%);stroke-opacity:1;stroke-miterlimit:4;" d="M 67.327649 613.002553 C 53.149287 598.819977 50.691914 591.631481 70.867389 602.892325 L 354.616905 850.370701 L 351.251409 857.341801 L 67.317532 612.974646 Z M 67.327649 613.002553 " transform="matrix(0.157772,0.120512,-0.0571943,0.0962842,94.848038,59.508274)"/>
<path style=" stroke:none;fill-rule:evenodd;fill:rgb(0%,56.078434%,0%);fill-opacity:1;" d="M 91.167969 164.816406 C 91.480469 160.515625 83.605469 155.859375 83.292969 156.164062 C 82.980469 156.464844 83.773438 158.96875 85.265625 160.273438 C 82.40625 158.800781 79.410156 157.894531 79.347656 158.535156 C 79.113281 159.394531 83.792969 161.457031 84.179688 162.25 C 84.246094 162.820312 80.746094 162.746094 80.808594 163.3125 C 80.871094 163.882812 90.664062 168.828125 91.167969 164.816406 Z M 91.167969 164.816406 "/>
<path style=" stroke:none;fill-rule:evenodd;fill:rgb(0%,56.078434%,0%);fill-opacity:1;" d="M 83.300781 152.285156 C 83.613281 147.984375 75.734375 143.328125 75.425781 143.632812 C 75.113281 143.933594 75.902344 146.4375 77.398438 147.742188 C 74.535156 146.269531 71.539062 145.363281 71.476562 146.003906 C 71.246094 146.863281 75.921875 148.925781 76.3125 149.71875 C 76.375 150.289062 72.875 150.214844 72.9375 150.78125 C 73.003906 151.351562 82.792969 156.296875 83.300781 152.285156 Z M 83.300781 152.285156 "/>
<path style=" stroke:none;fill-rule:evenodd;fill:rgb(0%,56.078434%,0%);fill-opacity:1;" d="M 77.277344 140.90625 C 77.589844 136.605469 69.714844 131.949219 69.402344 132.253906 C 69.089844 132.554688 69.882812 135.058594 71.375 136.367188 C 68.515625 134.890625 65.519531 133.984375 65.457031 134.625 C 65.222656 135.488281 69.902344 137.546875 70.289062 138.34375 C 70.351562 138.910156 66.855469 138.835938 66.917969 139.40625 C 66.980469 139.972656 76.773438 144.921875 77.277344 140.90625 Z M 77.277344 140.90625 "/>
<path style=" stroke:none;fill-rule:evenodd;fill:rgb(0%,56.078434%,0%);fill-opacity:1;" d="M 71.324219 128.578125 C 71.636719 124.277344 63.761719 119.625 63.449219 119.925781 C 63.136719 120.226562 63.925781 122.730469 65.421875 124.039062 C 62.5625 122.5625 59.566406 121.65625 59.503906 122.296875 C 59.269531 123.160156 63.949219 125.21875 64.335938 126.015625 C 64.398438 126.582031 60.898438 126.507812 60.964844 127.078125 C 61.027344 127.644531 70.820312 132.59375 71.324219 128.578125 Z M 71.324219 128.578125 "/>
<path style=" stroke:none;fill-rule:evenodd;fill:rgb(0%,56.078434%,0%);fill-opacity:1;" d="M 73.371094 128.019531 C 77.179688 125.710938 76.433594 116.890625 75.996094 116.832031 C 75.554688 116.769531 73.914062 118.863281 73.699219 120.785156 C 73.246094 117.710938 72.234375 114.867188 71.65625 115.199219 C 70.792969 115.53125 71.828125 120.351562 71.390625 121.121094 C 70.949219 121.507812 68.9375 118.769531 68.496094 119.15625 C 68.054688 119.542969 69.6875 130.011719 73.371094 128.019531 Z M 73.371094 128.019531 "/>
<path style=" stroke:none;fill-rule:evenodd;fill:rgb(0%,56.078434%,0%);fill-opacity:1;" d="M 78.890625 138.84375 C 83.289062 137.882812 85.667969 129.328125 85.273438 129.132812 C 84.878906 128.933594 82.601562 130.382812 81.726562 132.128906 C 82.375 129.085938 82.414062 126.082031 81.753906 126.210938 C 80.824219 126.246094 80.117188 131.125 79.433594 131.710938 C 78.882812 131.933594 77.941406 128.710938 77.390625 128.933594 C 76.839844 129.15625 74.722656 139.546875 78.890625 138.84375 Z M 78.890625 138.84375 "/>
<path style=" stroke:none;fill-rule:evenodd;fill:rgb(0%,56.078434%,0%);fill-opacity:1;" d="M 85.484375 149.914062 C 89.496094 147.941406 89.578125 139.09375 89.148438 138.992188 C 88.714844 138.894531 86.882812 140.839844 86.488281 142.738281 C 86.324219 139.636719 85.585938 136.71875 84.980469 136.996094 C 84.085938 137.253906 84.667969 142.144531 84.15625 142.875 C 83.683594 143.222656 81.933594 140.324219 81.460938 140.667969 C 80.984375 141.015625 81.628906 151.582031 85.484375 149.914062 Z M 85.484375 149.914062 "/>
<path style=" stroke:none;fill-rule:evenodd;fill:rgb(0%,56.078434%,0%);fill-opacity:1;" d="M 92.621094 164.371094 C 96.820312 162.792969 97.839844 154 97.421875 153.859375 C 97.003906 153.71875 94.972656 155.476562 94.382812 157.324219 C 94.546875 154.226562 94.121094 151.25 93.488281 151.46875 C 92.574219 151.640625 92.632812 156.5625 92.046875 157.238281 C 91.535156 157.535156 90.105469 154.484375 89.597656 154.78125 C 89.085938 155.082031 88.609375 165.65625 92.621094 164.367188 Z M 92.621094 164.371094 "/>
<path style="fill-rule:evenodd;fill:rgb(100%,9.803922%,0%);fill-opacity:1;stroke-width:1.25;stroke-linecap:butt;stroke-linejoin:miter;stroke:rgb(0%,0%,0%);stroke-opacity:1;stroke-miterlimit:4;" d="M 209.060386 775.981692 C 209.053597 783.809991 198.743031 790.151683 186.030859 790.160184 C 173.311571 790.15594 162.995307 783.811064 163.002096 775.982764 C 162.996705 768.161265 173.312335 761.800027 186.031623 761.804272 C 198.750911 761.808516 209.067175 768.153392 209.060386 775.981692 Z M 209.060386 775.981692 " transform="matrix(0.244507,0.130445,-0.136511,0.233641,156.676957,-29.126544)"/>
<path style="fill-rule:evenodd;fill:rgb(100%,100%,0%);fill-opacity:1;stroke-width:0.625;stroke-linecap:butt;stroke-linejoin:miter;stroke:rgb(0%,0%,0%);stroke-opacity:1;stroke-miterlimit:4;" d="M 155.90752 414.580812 L 155.910464 407.482683 L 163.001474 407.484696 L 162.987246 400.392291 L 170.078255 400.394304 L 170.092484 407.486708 L 177.159669 407.476269 L 177.173897 414.568673 L 170.082887 414.56666 L 170.07746 432.290943 L 163.003622 432.283206 L 162.991877 414.564648 Z M 155.90752 414.580812 " transform="matrix(0.202743,0.063847,-0.0742093,0.191538,181.812902,29.024421)"/>
<path style="fill-rule:evenodd;fill:rgb(100%,100%,0%);fill-opacity:1;stroke-width:0.63046;stroke-linecap:butt;stroke-linejoin:miter;stroke:rgb(0%,0%,0%);stroke-opacity:1;stroke-miterlimit:4;" d="M 163.000344 474.805969 L 170.067529 474.79553 L 170.071254 680.305644 L 162.980244 680.303631 Z M 163.000344 474.805969 " transform="matrix(0.202743,0.063847,-0.0742093,0.191538,181.8129,29.024427)"/>
<path style="fill-rule:evenodd;fill:rgb(100%,100%,0%);fill-opacity:1;stroke-width:0.625;stroke-linecap:butt;stroke-linejoin:miter;stroke:rgb(0%,0%,0%);stroke-opacity:1;stroke-miterlimit:4;" d="M 159.45145 676.768875 L 173.63347 676.772901 L 173.617651 733.473774 L 159.452803 733.464025 Z M 159.45145 676.768875 " transform="matrix(0.202743,0.063847,-0.0742093,0.191538,181.8129,29.024427)"/>
<path style="fill-rule:evenodd;fill:rgb(100%,100%,0%);fill-opacity:1;stroke-width:0.625;stroke-linecap:butt;stroke-linejoin:miter;stroke:rgb(0%,0%,0%);stroke-opacity:1;stroke-miterlimit:4;" d="M 155.909668 439.379292 L 177.176045 439.367153 C 191.340893 439.376902 173.620148 478.342738 173.620148 478.342738 L 159.461953 478.351165 C 159.461953 478.351165 141.74482 439.369542 155.909668 439.379292 Z M 155.909668 439.379292 " transform="matrix(0.202743,0.063847,-0.0742093,0.191538,181.8129,29.024427)"/>
<path style="fill-rule:evenodd;fill:rgb(100%,100%,0%);fill-opacity:1;stroke-width:0.625;stroke-linecap:butt;stroke-linejoin:miter;stroke:rgb(0%,0%,0%);stroke-opacity:1;stroke-miterlimit:4;" d="M 173.617936 434.067882 C 173.61435 437.005828 170.451219 439.365442 166.522358 439.369858 C 162.610669 439.368551 159.449502 436.996079 159.453088 434.058133 C 159.439503 431.125911 162.613152 428.742396 166.524841 428.743704 C 170.453702 428.739288 173.621523 431.129936 173.617936 434.067882 Z M 173.617936 434.067882 " transform="matrix(0.202743,0.063847,-0.0742093,0.191538,181.8129,29.024427)"/>
<path style="fill-rule:evenodd;fill:rgb(100%,9.803922%,0%);fill-opacity:1;stroke-width:1.25;stroke-linecap:butt;stroke-linejoin:miter;stroke:rgb(0%,0%,0%);stroke-opacity:1;stroke-miterlimit:4;" d="M 209.058278 775.972163 C 209.060406 783.800157 198.745927 790.15325 186.030188 790.153502 C 173.314449 790.153754 162.99415 783.808868 162.992021 775.980873 C 162.989893 768.152879 173.316002 761.807488 186.031741 761.807236 C 198.74748 761.806985 209.067779 768.151871 209.058278 775.972163 Z M 209.058278 775.972163 " transform="matrix(0.233474,-0.147758,0.15463,0.223098,-2.571376,32.248883)"/>
</g>
</svg>
