<?xml version="1.0" encoding="UTF-8"?>
<svg xmlns="http://www.w3.org/2000/svg" xmlns:xlink="http://www.w3.org/1999/xlink" width="40px" height="40px" viewBox="0 0 40 40" version="1.1">
<g id="surface1">
<path style=" stroke:none;fill-rule:evenodd;fill:rgb(92.941177%,16.078432%,22.352941%);fill-opacity:1;" d="M 0 0 L 60 0 L 60 20 L 26.667969 20 Z M 0 0 "/>
<path style=" stroke:none;fill-rule:evenodd;fill:rgb(0%,13.725491%,58.431375%);fill-opacity:1;" d="M 0 40 L 60 40 L 60 20 L 26.667969 20 Z M 0 40 "/>
<path style=" stroke:none;fill-rule:evenodd;fill:rgb(100%,100%,100%);fill-opacity:1;" d="M 0 0 L 26.667969 20 L 0 40 Z M 0 0 "/>
<path style=" stroke:none;fill-rule:nonzero;fill:rgb(100%,100%,0%);fill-opacity:1;" d="M 13.460938 15.097656 L 13.46875 14.789062 C 13.46875 14.789062 13.300781 14.523438 13.496094 14.238281 C 13.496094 14.238281 13.085938 14.023438 13.179688 13.683594 C 13.179688 13.683594 12.808594 13.585938 12.835938 13.179688 C 12.835938 13.179688 12.4375 13.152344 12.394531 12.8125 C 12.394531 12.8125 11.996094 12.878906 11.820312 12.546875 C 11.820312 12.546875 11.429688 12.621094 11.316406 12.347656 C 11.316406 12.347656 10.9375 12.480469 10.714844 12.15625 C 10.714844 12.15625 10.3125 12.320312 10.144531 12.015625 C 9.980469 12.320312 9.578125 12.15625 9.578125 12.15625 C 9.355469 12.476562 8.972656 12.34375 8.972656 12.34375 C 8.867188 12.621094 8.476562 12.542969 8.476562 12.542969 C 8.304688 12.875 7.902344 12.808594 7.902344 12.808594 C 7.863281 13.148438 7.464844 13.175781 7.464844 13.175781 C 7.496094 13.585938 7.125 13.675781 7.125 13.675781 C 7.222656 14.015625 6.8125 14.234375 6.8125 14.234375 C 7.011719 14.519531 6.847656 14.78125 6.847656 14.78125 L 6.839844 15.066406 L 13.460938 15.097656 "/>
<path style="fill:none;stroke-width:0.27124;stroke-linecap:butt;stroke-linejoin:miter;stroke:rgb(0%,0%,0%);stroke-opacity:1;stroke-miterlimit:4;" d="M 377.183696 843.106311 L 377.270931 839.6602 C 377.270931 839.6602 375.395386 836.693928 377.576252 833.509547 C 377.576252 833.509547 372.996433 831.110356 374.043249 827.315272 C 374.043249 827.315272 369.899604 826.224731 370.204925 821.688079 C 370.204925 821.688079 365.755958 821.382727 365.276167 817.587643 C 365.276167 817.587643 360.8272 818.329212 358.864421 814.621371 C 358.864421 814.621371 354.502689 815.450182 353.237786 812.396667 C 353.237786 812.396667 349.006906 813.879803 346.520718 810.259206 C 346.520718 810.259206 342.028134 812.091315 340.152589 808.688826 C 338.320662 812.091315 333.828078 810.259206 333.828078 810.259206 C 331.34189 813.836181 327.067392 812.353045 327.067392 812.353045 C 325.889725 815.450182 321.527992 814.577749 321.527992 814.577749 C 319.60883 818.28559 315.116246 817.544022 315.116246 817.544022 C 314.680073 821.339106 310.231106 821.644457 310.231106 821.644457 C 310.580044 826.224731 306.436399 827.228029 306.436399 827.228029 C 307.526832 831.023113 302.947013 833.465925 302.947013 833.465925 C 305.171496 836.650306 303.339569 839.572957 303.339569 839.572957 L 303.252334 842.757337 Z M 377.183696 843.106311 " transform="matrix(0.0895573,0,0,0.0895484,-20.318619,-60.401179)"/>
<path style=" stroke:none;fill-rule:nonzero;fill:rgb(100%,0%,0%);fill-opacity:1;" d="M 13.304688 14.710938 C 12.265625 14.605469 11.066406 14.359375 10.144531 14.878906 C 9.523438 14.515625 8.660156 14.539062 7.925781 14.609375 C 7.527344 14.679688 7.058594 14.679688 6.640625 14.75 L 6.574219 14.757812 C 5.816406 14.808594 5.132812 14.585938 4.472656 14.289062 C 4.683594 15.476562 4.914062 16.691406 5.027344 17.929688 C 5.277344 19.769531 4.160156 21.3125 4.617188 23.125 C 4.890625 23.996094 5.847656 24.503906 6.726562 24.605469 C 7.574219 24.65625 8.453125 24.792969 9.238281 24.964844 C 9.386719 24.996094 9.566406 25.066406 9.667969 25.109375 C 9.882812 25.199219 10.042969 25.332031 10.183594 25.476562 C 10.65625 24.980469 11.351562 24.84375 12.035156 24.769531 C 13.273438 24.625 14.796875 24.707031 15.554688 23.585938 L 15.554688 23.523438 C 15.964844 22.902344 15.910156 21.957031 15.730469 21.257812 C 15.71875 21.011719 15.652344 20.796875 15.617188 20.5625 C 14.863281 18.570312 15.511719 16.328125 15.835938 14.316406 C 15.4375 14.535156 14.996094 14.636719 14.554688 14.746094 C 14.203125 14.792969 13.808594 14.769531 13.453125 14.75 L 13.304688 14.710938 "/>
<path style=" stroke:none;fill-rule:nonzero;fill:rgb(50.196081%,81.176472%,88.235295%);fill-opacity:1;" d="M 14.859375 20.433594 C 14.855469 20.566406 14.925781 20.667969 14.949219 20.789062 C 15.09375 21.660156 15.234375 22.816406 14.335938 23.355469 C 13.34375 23.988281 12.042969 23.71875 10.894531 24.050781 C 10.664062 24.117188 10.347656 24.328125 10.1875 24.476562 C 10.082031 24.40625 9.980469 24.304688 9.84375 24.242188 C 8.898438 23.738281 7.671875 23.90625 6.605469 23.636719 C 6.066406 23.464844 5.507812 23.050781 5.375 22.5 C 5.023438 21.0625 5.859375 19.835938 5.761719 18.40625 C 5.699219 17.316406 5.515625 16.269531 5.261719 15.25 C 6.097656 15.636719 7.0625 15.703125 8 15.515625 C 8.695312 15.417969 9.503906 15.417969 10.15625 15.710938 C 10.511719 15.554688 10.933594 15.488281 11.320312 15.445312 C 12.054688 15.515625 12.84375 15.648438 13.601562 15.644531 C 14.105469 15.617188 14.566406 15.472656 15.003906 15.277344 C 14.746094 16.964844 14.242188 18.734375 14.859375 20.433594 "/>
<path style=" stroke:none;fill-rule:nonzero;fill:rgb(100%,100%,100%);fill-opacity:1;" d="M 13.359375 20.769531 L 13.351562 19.183594 L 13.546875 19.183594 L 11.117188 17.613281 L 11.113281 16.800781 L 11.347656 16.800781 L 10.132812 15.929688 L 8.925781 16.796875 L 9.160156 16.796875 L 9.164062 17.613281 L 6.75 19.179688 L 6.941406 19.179688 L 6.949219 20.769531 L 13.359375 20.773438 "/>
<path style="fill:none;stroke-width:1.1642;stroke-linecap:butt;stroke-linejoin:miter;stroke:rgb(0%,0%,0%);stroke-opacity:1;stroke-miterlimit:4;" d="M 376.049646 906.444951 L 375.962411 888.73456 L 378.143278 888.73456 L 351.013303 871.198655 L 350.969685 862.125351 L 353.586725 862.125351 L 340.021737 852.397723 L 326.543985 862.08173 L 329.161024 862.08173 L 329.204641 871.198655 L 302.249136 888.690938 L 304.386385 888.690938 L 304.473619 906.444951 L 376.049646 906.488573 Z M 376.049646 906.444951 " transform="matrix(0.0895573,0,0,0.0895484,-20.318619,-60.401179)"/>
<path style=" stroke:none;fill-rule:nonzero;fill:rgb(100%,100%,100%);fill-opacity:1;" d="M 14.105469 22.855469 L 14.105469 23.355469 L 6.285156 23.347656 L 6.28125 22.851562 L 14.105469 22.855469 "/>
<path style="fill:none;stroke-width:1.1642;stroke-linecap:butt;stroke-linejoin:miter;stroke:rgb(0%,0%,0%);stroke-opacity:1;stroke-miterlimit:4;" d="M 384.380555 929.738914 L 384.380555 935.322486 L 297.058674 935.235242 L 297.015057 929.695292 Z M 384.380555 929.738914 " transform="matrix(0.0895573,0,0,0.0895484,-20.318619,-60.401179)"/>
<path style="fill-rule:nonzero;fill:rgb(100%,100%,100%);fill-opacity:1;stroke-width:1.1642;stroke-linecap:butt;stroke-linejoin:miter;stroke:rgb(0%,0%,0%);stroke-opacity:1;stroke-miterlimit:4;" d="M 302.859778 929.433562 L 302.772544 910.63263 L 306.305547 910.63263 L 306.08746 929.651671 L 306.305547 910.807116 L 301.245937 910.63263 L 301.245937 906.619438 L 379.277328 906.706681 L 379.320945 910.676252 L 374.52304 910.676252 L 374.610274 929.695292 L 374.435805 910.676252 L 378.012426 910.676252 L 378.09966 929.520806 " transform="matrix(0.0895573,0,0,0.0895484,-20.318619,-60.401179)"/>
<path style="fill:none;stroke-width:1.1642;stroke-linecap:butt;stroke-linejoin:miter;stroke:rgb(0%,0%,0%);stroke-opacity:1;stroke-miterlimit:4;" d="M 319.60883 924.809667 L 319.565213 911.67955 L 309.097055 911.67955 L 309.140673 924.766046 L 319.60883 924.809667 " transform="matrix(0.0895573,0,0,0.0895484,-20.318619,-60.401179)"/>
<path style="fill:none;stroke-width:1.1642;stroke-linecap:butt;stroke-linejoin:miter;stroke:rgb(0%,0%,0%);stroke-opacity:1;stroke-miterlimit:4;" d="M 311.932181 914.427714 L 311.975799 922.017881 L 316.773704 922.017881 L 316.730087 914.427714 L 311.932181 914.427714 " transform="matrix(0.0895573,0,0,0.0895484,-20.318619,-60.401179)"/>
<path style="fill:none;stroke-width:1.1642;stroke-linecap:butt;stroke-linejoin:miter;stroke:rgb(0%,0%,0%);stroke-opacity:1;stroke-miterlimit:4;" d="M 370.859185 924.853289 L 370.815567 911.766793 L 360.34741 911.723171 L 360.391027 924.853289 L 370.859185 924.853289 " transform="matrix(0.0895573,0,0,0.0895484,-20.318619,-60.401179)"/>
<path style="fill:none;stroke-width:1.1642;stroke-linecap:butt;stroke-linejoin:miter;stroke:rgb(0%,0%,0%);stroke-opacity:1;stroke-miterlimit:4;" d="M 363.182536 914.471335 L 363.226153 922.061503 L 368.024059 922.061503 L 367.980441 914.471335 L 363.182536 914.471335 " transform="matrix(0.0895573,0,0,0.0895484,-20.318619,-60.401179)"/>
<path style="fill:none;stroke-width:1.1642;stroke-linecap:butt;stroke-linejoin:miter;stroke:rgb(0%,0%,0%);stroke-opacity:1;stroke-miterlimit:4;" d="M 370.77195 903.5223 L 370.728333 890.392183 L 360.260175 890.392183 L 360.303792 903.5223 Z M 370.77195 903.5223 " transform="matrix(0.0895573,0,0,0.0895484,-20.318619,-60.401179)"/>
<path style="fill:none;stroke-width:1.1642;stroke-linecap:butt;stroke-linejoin:miter;stroke:rgb(0%,0%,0%);stroke-opacity:1;stroke-miterlimit:4;" d="M 363.095301 893.140347 L 363.138918 900.774136 L 367.936824 900.774136 L 367.936824 893.140347 L 363.095301 893.140347 " transform="matrix(0.0895573,0,0,0.0895484,-20.318619,-60.401179)"/>
<path style="fill:none;stroke-width:1.1642;stroke-linecap:butt;stroke-linejoin:miter;stroke:rgb(0%,0%,0%);stroke-opacity:1;stroke-miterlimit:4;" d="M 319.521596 903.478679 L 319.477978 890.392183 L 309.009821 890.392183 L 309.053438 903.435057 L 319.521596 903.435057 Z M 319.521596 903.478679 " transform="matrix(0.0895573,0,0,0.0895484,-20.318619,-60.401179)"/>
<path style="fill:none;stroke-width:1.1642;stroke-linecap:butt;stroke-linejoin:miter;stroke:rgb(0%,0%,0%);stroke-opacity:1;stroke-miterlimit:4;" d="M 311.844947 893.096725 L 311.888564 900.686893 L 316.68647 900.686893 L 316.642852 893.096725 L 311.844947 893.096725 " transform="matrix(0.0895573,0,0,0.0895484,-20.318619,-60.401179)"/>
<path style="fill:none;stroke-width:1.1642;stroke-linecap:butt;stroke-linejoin:miter;stroke:rgb(0%,0%,0%);stroke-opacity:1;stroke-miterlimit:4;" d="M 338.495131 903.478679 L 338.451514 890.392183 L 327.983356 890.392183 L 328.026974 903.478679 L 338.495131 903.478679 " transform="matrix(0.0895573,0,0,0.0895484,-20.318619,-60.401179)"/>
<path style="fill:none;stroke-width:1.1642;stroke-linecap:butt;stroke-linejoin:miter;stroke:rgb(0%,0%,0%);stroke-opacity:1;stroke-miterlimit:4;" d="M 330.818482 893.140347 L 330.8621 900.730515 L 335.660005 900.730515 L 335.616388 893.140347 L 330.818482 893.140347 " transform="matrix(0.0895573,0,0,0.0895484,-20.318619,-60.401179)"/>
<path style="fill:none;stroke-width:1.1642;stroke-linecap:butt;stroke-linejoin:miter;stroke:rgb(0%,0%,0%);stroke-opacity:1;stroke-miterlimit:4;" d="M 353.106934 903.5223 L 353.063317 890.392183 L 342.595159 890.392183 L 342.638777 903.478679 L 353.106934 903.5223 " transform="matrix(0.0895573,0,0,0.0895484,-20.318619,-60.401179)"/>
<path style="fill:none;stroke-width:1.1642;stroke-linecap:butt;stroke-linejoin:miter;stroke:rgb(0%,0%,0%);stroke-opacity:1;stroke-miterlimit:4;" d="M 345.430285 893.140347 L 345.473903 900.730515 L 350.271808 900.730515 L 350.228191 893.140347 L 345.430285 893.140347 " transform="matrix(0.0895573,0,0,0.0895484,-20.318619,-60.401179)"/>
<path style=" stroke:none;fill-rule:nonzero;fill:rgb(100%,100%,100%);fill-opacity:1;" d="M 11.539062 20.148438 L 11.550781 22.851562 L 8.832031 22.847656 L 8.824219 20.144531 L 11.539062 20.148438 "/>
<path style="fill:none;stroke-width:1.1642;stroke-linecap:butt;stroke-linejoin:miter;stroke:rgb(0%,0%,0%);stroke-opacity:1;stroke-miterlimit:4;" d="M 355.723974 899.509108 L 355.854826 929.695292 L 325.497169 929.651671 L 325.409934 899.465487 Z M 355.723974 899.509108 " transform="matrix(0.0895573,0,0,0.0895484,-20.318619,-60.401179)"/>
<path style="fill:none;stroke-width:1.1642;stroke-linecap:butt;stroke-linejoin:miter;stroke:rgb(0%,0%,0%);stroke-opacity:1;stroke-miterlimit:4;" d="M 325.191848 908.102574 L 355.767591 908.146196 " transform="matrix(0.0895573,0,0,0.0895484,-20.318619,-60.401179)"/>
<path style="fill:none;stroke-width:1.1642;stroke-linecap:butt;stroke-linejoin:miter;stroke:rgb(0%,0%,0%);stroke-opacity:1;stroke-miterlimit:4;" d="M 329.030172 929.695292 L 328.89932 908.320682 " transform="matrix(0.0895573,0,0,0.0895484,-20.318619,-60.401179)"/>
<path style="fill:none;stroke-width:1.1642;stroke-linecap:butt;stroke-linejoin:miter;stroke:rgb(0%,0%,0%);stroke-opacity:1;stroke-miterlimit:4;" d="M 352.147353 929.695292 L 352.016501 908.364304 " transform="matrix(0.0895573,0,0,0.0895484,-20.318619,-60.401179)"/>
<path style="fill:none;stroke-width:1.1642;stroke-linecap:butt;stroke-linejoin:miter;stroke:rgb(0%,0%,0%);stroke-opacity:1;stroke-miterlimit:4;" d="M 366.802774 886.640721 L 349.704783 874.164928 L 330.513161 874.121306 L 313.58964 886.597099 L 366.802774 886.640721 " transform="matrix(0.0895573,0,0,0.0895484,-20.318619,-60.401179)"/>
<path style="fill:none;stroke-width:1.1642;stroke-linecap:butt;stroke-linejoin:miter;stroke:rgb(0%,0%,0%);stroke-opacity:1;stroke-miterlimit:4;" d="M 331.99615 863.782974 L 332.039767 871.416764 L 348.178177 871.416764 L 348.134559 863.826596 L 331.99615 863.782974 " transform="matrix(0.0895573,0,0,0.0895484,-20.318619,-60.401179)"/>
<path style="fill:none;stroke-width:1.1642;stroke-linecap:butt;stroke-linejoin:miter;stroke:rgb(0%,0%,0%);stroke-opacity:1;stroke-miterlimit:4;" d="M 336.357882 865.702327 L 336.4015 869.497411 L 343.816444 869.497411 L 343.772827 865.702327 L 336.357882 865.702327 " transform="matrix(0.0895573,0,0,0.0895484,-20.318619,-60.401179)"/>
<path style="fill:none;stroke-width:1.1642;stroke-linecap:butt;stroke-linejoin:miter;stroke:rgb(0%,0%,0%);stroke-opacity:1;stroke-miterlimit:4;" d="M 340.021737 855.145887 L 349.006906 861.471027 L 331.123804 861.471027 L 340.021737 855.145887 " transform="matrix(0.0895573,0,0,0.0895484,-20.318619,-60.401179)"/>
<path style="fill-rule:nonzero;fill:rgb(100%,100%,100%);fill-opacity:1;stroke-width:1.1642;stroke-linecap:butt;stroke-linejoin:miter;stroke:rgb(0%,0%,0%);stroke-opacity:1;stroke-miterlimit:4;" d="M 376.354967 850.827343 C 378.884772 850.783722 379.539032 861.340162 379.539032 866.57476 C 381.763515 867.185463 386.605038 870.238979 388.742287 873.030765 L 364.0985 872.987143 C 366.235748 870.238979 371.033654 867.185463 373.21452 866.57476 C 373.21452 861.340162 373.737928 850.783722 376.354967 850.827343 " transform="matrix(0.0895573,0,0,0.0895484,-20.318619,-60.401179)"/>
<path style="fill:none;stroke-width:1.1642;stroke-linecap:butt;stroke-linejoin:miter;stroke:rgb(0%,0%,0%);stroke-opacity:1;stroke-miterlimit:4;" d="M 326.805689 900.33792 L 329.030172 900.33792 L 328.375912 901.515704 C 328.375912 901.515704 329.422728 902.867976 328.375912 904.438355 L 328.986555 905.528896 L 326.849306 905.528896 L 327.416331 904.525598 C 327.416331 904.525598 326.325898 902.693489 327.459948 901.515704 L 326.805689 900.33792 " transform="matrix(0.0895573,0,0,0.0895484,-20.318619,-60.401179)"/>
<path style="fill:none;stroke-width:1.1642;stroke-linecap:butt;stroke-linejoin:miter;stroke:rgb(0%,0%,0%);stroke-opacity:1;stroke-miterlimit:4;" d="M 331.298273 900.33792 L 333.522756 900.33792 L 332.868496 901.515704 C 332.868496 901.515704 333.958929 902.867976 332.868496 904.438355 L 333.479139 905.528896 L 331.34189 905.528896 L 331.908915 904.525598 C 331.908915 904.525598 330.8621 902.693489 331.952533 901.515704 L 331.298273 900.33792 " transform="matrix(0.0895573,0,0,0.0895484,-20.318619,-60.401179)"/>
<path style="fill:none;stroke-width:1.1642;stroke-linecap:butt;stroke-linejoin:miter;stroke:rgb(0%,0%,0%);stroke-opacity:1;stroke-miterlimit:4;" d="M 336.22703 900.33792 L 338.451514 900.33792 L 337.797254 901.515704 C 337.797254 901.515704 338.84407 902.867976 337.797254 904.438355 L 338.364279 905.572518 L 336.270648 905.528896 L 336.837673 904.525598 C 336.837673 904.525598 335.74724 902.693489 336.88129 901.515704 Z M 336.22703 900.33792 " transform="matrix(0.0895573,0,0,0.0895484,-20.318619,-60.401179)"/>
<path style="fill:none;stroke-width:1.1642;stroke-linecap:butt;stroke-linejoin:miter;stroke:rgb(0%,0%,0%);stroke-opacity:1;stroke-miterlimit:4;" d="M 341.76643 900.33792 L 343.990914 900.33792 L 343.336654 901.559326 C 343.336654 901.559326 344.427087 902.911597 343.336654 904.481977 L 343.947296 905.572518 L 341.810048 905.572518 L 342.377073 904.525598 C 342.377073 904.525598 341.28664 902.693489 342.464307 901.559326 Z M 341.76643 900.33792 " transform="matrix(0.0895573,0,0,0.0895484,-20.318619,-60.401179)"/>
<path style="fill:none;stroke-width:1.1642;stroke-linecap:butt;stroke-linejoin:miter;stroke:rgb(0%,0%,0%);stroke-opacity:1;stroke-miterlimit:4;" d="M 346.695188 900.33792 L 348.919671 900.33792 L 348.265411 901.559326 C 348.265411 901.559326 349.312227 902.911597 348.265411 904.481977 L 348.832437 905.572518 L 346.738805 905.572518 L 347.262213 904.525598 C 347.262213 904.525598 346.215397 902.737111 347.349448 901.559326 L 346.695188 900.33792 " transform="matrix(0.0895573,0,0,0.0895484,-20.318619,-60.401179)"/>
<path style="fill:none;stroke-width:1.1642;stroke-linecap:butt;stroke-linejoin:miter;stroke:rgb(0%,0%,0%);stroke-opacity:1;stroke-miterlimit:4;" d="M 351.580328 900.381541 L 353.804811 900.33792 L 353.150552 901.559326 C 353.150552 901.559326 354.240985 902.911597 353.194169 904.481977 L 353.717577 905.572518 L 351.623945 905.572518 L 352.19097 904.525598 C 352.19097 904.525598 351.100537 902.737111 352.234588 901.559326 L 351.580328 900.381541 " transform="matrix(0.0895573,0,0,0.0895484,-20.318619,-60.401179)"/>
<path style="fill-rule:nonzero;fill:rgb(100%,100%,0%);fill-opacity:1;stroke-width:0.27124;stroke-linecap:butt;stroke-linejoin:miter;stroke:rgb(0%,0%,0%);stroke-opacity:1;stroke-miterlimit:4;" d="M 340.719615 968.387699 C 352.060118 968.43132 366.017662 966.119373 372.56026 962.716884 L 386.953977 961.451856 L 387.215681 978.987761 C 375.046448 985.705495 346.956892 987.14501 340.763232 987.101388 C 334.569572 987.14501 306.131078 985.705495 293.87461 978.944139 L 294.049079 961.408234 L 308.442796 962.716884 C 314.985394 966.075751 329.379111 968.387699 340.719615 968.387699 " transform="matrix(0.0895573,0,0,0.0895484,-20.318619,-60.401179)"/>
<path style=" stroke:none;fill-rule:nonzero;fill:rgb(100%,100%,0%);fill-opacity:1;" d="M 2.6875 19.617188 L 3.820312 19.980469 L 3.476562 21.816406 L 2.40625 21.980469 C 2.40625 21.980469 2.222656 21.015625 2.6875 19.617188 "/>
<path style="fill:none;stroke-width:0.27124;stroke-linecap:butt;stroke-linejoin:miter;stroke:rgb(0%,0%,0%);stroke-opacity:1;stroke-miterlimit:4;" d="M 256.88712 893.576563 L 269.536144 897.633377 L 265.697819 918.135554 L 253.746673 919.967664 C 253.746673 919.967664 251.696659 909.193115 256.88712 893.576563 Z M 256.88712 893.576563 " transform="matrix(0.0895573,0,0,0.0895484,-20.318619,-60.401179)"/>
<path style="fill-rule:nonzero;fill:rgb(49.411765%,49.411765%,49.411765%);fill-opacity:1;stroke-width:0.27124;stroke-linecap:butt;stroke-linejoin:miter;stroke:rgb(0%,0%,0%);stroke-opacity:1;stroke-miterlimit:4;" d="M 265.697819 917.917446 L 253.746673 919.967664 L 261.29247 909.193115 L 265.697819 917.917446 " transform="matrix(0.0895573,0,0,0.0895484,-20.318619,-60.401179)"/>
<path style=" stroke:none;fill-rule:nonzero;fill:rgb(100%,100%,0%);fill-opacity:1;" d="M 2.007812 20.941406 L 3.101562 21.019531 C 3.125 21.945312 3.238281 25.480469 7.460938 25.671875 L 7.328125 26.957031 C 2.191406 27.011719 1.800781 22.625 2.007812 20.941406 "/>
<path style="fill:none;stroke-width:0.27124;stroke-linecap:butt;stroke-linejoin:miter;stroke:rgb(0%,0%,0%);stroke-opacity:1;stroke-miterlimit:4;" d="M 249.297706 908.364304 L 261.510556 909.236737 C 261.77226 919.575069 263.037163 959.052665 310.187489 961.190126 L 308.7045 975.54165 C 251.34772 976.152353 246.985988 927.165236 249.297706 908.364304 Z M 249.297706 908.364304 " transform="matrix(0.0895573,0,0,0.0895484,-20.318619,-60.401179)"/>
<path style="fill:none;stroke-width:0.27124;stroke-linecap:butt;stroke-linejoin:miter;stroke:rgb(0%,0%,0%);stroke-opacity:1;stroke-miterlimit:4;" d="M 294.092696 978.507922 L 308.486413 975.367163 " transform="matrix(0.0895573,0,0,0.0895484,-20.318619,-60.401179)"/>
<path style=" stroke:none;fill-rule:nonzero;fill:rgb(100%,100%,0%);fill-opacity:1;" d="M 17.609375 19.632812 L 16.480469 19.988281 L 16.839844 21.824219 L 17.914062 21.996094 C 17.914062 21.996094 18.085938 21.03125 17.609375 19.628906 "/>
<path style="fill:none;stroke-width:0.27124;stroke-linecap:butt;stroke-linejoin:miter;stroke:rgb(0%,0%,0%);stroke-opacity:1;stroke-miterlimit:4;" d="M 423.505293 893.75105 L 410.899887 897.72062 L 414.912681 918.222798 L 426.907444 920.14215 C 426.907444 920.14215 428.826607 909.367602 423.505293 893.707428 Z M 423.505293 893.75105 " transform="matrix(0.0895573,0,0,0.0895484,-20.318619,-60.401179)"/>
<path style="fill-rule:nonzero;fill:rgb(49.411765%,49.411765%,49.411765%);fill-opacity:1;stroke-width:0.27124;stroke-linecap:butt;stroke-linejoin:miter;stroke:rgb(0%,0%,0%);stroke-opacity:1;stroke-miterlimit:4;" d="M 414.912681 918.004689 L 426.907444 920.14215 L 419.230796 909.367602 L 414.912681 918.004689 " transform="matrix(0.0895573,0,0,0.0895484,-20.318619,-60.401179)"/>
<path style=" stroke:none;fill-rule:nonzero;fill:rgb(100%,100%,0%);fill-opacity:1;" d="M 18.300781 20.957031 L 17.207031 21.03125 C 17.191406 21.957031 17.109375 25.492188 12.890625 25.679688 L 13.03125 26.964844 C 18.167969 27.023438 18.523438 22.636719 18.300781 20.953125 "/>
<path style="fill:none;stroke-width:0.27124;stroke-linecap:butt;stroke-linejoin:miter;stroke:rgb(0%,0%,0%);stroke-opacity:1;stroke-miterlimit:4;" d="M 431.225559 908.538791 L 419.012709 909.367602 C 418.83824 919.705934 417.922276 959.18353 370.815567 961.277369 L 372.385791 975.628893 C 429.74257 976.283218 433.711747 927.296101 431.225559 908.495169 Z M 431.225559 908.538791 " transform="matrix(0.0895573,0,0,0.0895484,-20.318619,-60.401179)"/>
<path style="fill:none;stroke-width:0.27124;stroke-linecap:butt;stroke-linejoin:miter;stroke:rgb(0%,0%,0%);stroke-opacity:1;stroke-miterlimit:4;" d="M 387.041211 978.551544 L 372.603878 975.410785 " transform="matrix(0.0895573,0,0,0.0895484,-20.318619,-60.401179)"/>
<path style=" stroke:none;fill-rule:nonzero;fill:rgb(0%,62.352943%,77.254903%);fill-opacity:1;" d="M 9.511719 27.089844 C 9.480469 27.109375 9.441406 27.113281 9.398438 27.113281 L 9.191406 27.101562 L 9.210938 26.847656 L 9.414062 26.859375 C 9.453125 26.859375 9.484375 26.867188 9.503906 26.878906 C 9.542969 26.902344 9.5625 26.941406 9.558594 26.996094 C 9.554688 27.042969 9.539062 27.074219 9.507812 27.089844 M 9.167969 27.492188 L 9.1875 27.183594 L 9.425781 27.199219 C 9.503906 27.203125 9.558594 27.183594 9.597656 27.144531 C 9.636719 27.105469 9.660156 27.054688 9.660156 27 C 9.667969 26.933594 9.648438 26.878906 9.609375 26.839844 C 9.574219 26.800781 9.519531 26.78125 9.453125 26.773438 L 9.113281 26.753906 L 9.066406 27.484375 L 9.167969 27.492188 "/>
<path style=" stroke:none;fill-rule:nonzero;fill:rgb(0%,62.352943%,77.254903%);fill-opacity:1;" d="M 9.90625 26.878906 L 10.15625 26.882812 C 10.191406 26.886719 10.21875 26.890625 10.242188 26.902344 C 10.277344 26.917969 10.296875 26.953125 10.296875 27.007812 C 10.296875 27.054688 10.28125 27.089844 10.253906 27.109375 C 10.226562 27.125 10.1875 27.136719 10.144531 27.136719 L 9.902344 27.132812 L 9.90625 26.878906 M 9.902344 27.527344 L 9.90625 27.214844 L 10.136719 27.21875 C 10.179688 27.21875 10.210938 27.222656 10.230469 27.234375 C 10.265625 27.25 10.28125 27.28125 10.285156 27.328125 L 10.289062 27.449219 C 10.292969 27.480469 10.292969 27.496094 10.292969 27.511719 C 10.296875 27.519531 10.300781 27.527344 10.304688 27.535156 L 10.429688 27.535156 L 10.425781 27.519531 C 10.414062 27.511719 10.402344 27.496094 10.394531 27.472656 C 10.390625 27.460938 10.390625 27.4375 10.386719 27.410156 L 10.386719 27.3125 C 10.382812 27.269531 10.375 27.238281 10.359375 27.222656 C 10.34375 27.203125 10.324219 27.1875 10.292969 27.175781 C 10.328125 27.15625 10.355469 27.136719 10.375 27.109375 C 10.390625 27.082031 10.402344 27.042969 10.402344 27 C 10.402344 26.914062 10.367188 26.859375 10.296875 26.828125 C 10.257812 26.808594 10.210938 26.800781 10.15625 26.800781 L 9.804688 26.796875 L 9.800781 27.53125 L 9.902344 27.53125 "/>
<path style=" stroke:none;fill-rule:nonzero;fill:rgb(0%,62.352943%,77.254903%);fill-opacity:1;" d="M 10.679688 27.375 C 10.636719 27.320312 10.613281 27.253906 10.605469 27.171875 C 10.601562 27.070312 10.621094 26.992188 10.667969 26.941406 C 10.714844 26.882812 10.773438 26.855469 10.855469 26.851562 C 10.933594 26.847656 11 26.875 11.046875 26.921875 C 11.097656 26.972656 11.125 27.039062 11.128906 27.125 C 11.132812 27.207031 11.117188 27.28125 11.082031 27.34375 C 11.042969 27.410156 10.984375 27.445312 10.890625 27.449219 C 10.796875 27.453125 10.726562 27.429688 10.679688 27.375 M 10.5625 26.914062 C 10.515625 26.988281 10.496094 27.070312 10.5 27.171875 C 10.507812 27.28125 10.539062 27.371094 10.605469 27.441406 C 10.675781 27.507812 10.769531 27.542969 10.882812 27.535156 C 11.007812 27.53125 11.101562 27.484375 11.164062 27.398438 C 11.214844 27.320312 11.242188 27.230469 11.234375 27.117188 C 11.226562 27.015625 11.199219 26.9375 11.144531 26.875 C 11.078125 26.792969 10.976562 26.757812 10.84375 26.765625 C 10.714844 26.773438 10.621094 26.820312 10.558594 26.914062 "/>
<path style=" stroke:none;fill-rule:nonzero;fill:rgb(0%,62.352943%,77.254903%);fill-opacity:1;" d="M 14.003906 25.859375 C 14.074219 25.847656 14.132812 25.851562 14.191406 25.871094 C 14.273438 25.894531 14.328125 25.957031 14.363281 26.050781 L 14.261719 26.0625 C 14.238281 26.011719 14.207031 25.980469 14.164062 25.960938 C 14.125 25.941406 14.074219 25.9375 14.015625 25.945312 C 13.945312 25.957031 13.890625 25.992188 13.851562 26.046875 C 13.8125 26.105469 13.800781 26.183594 13.820312 26.285156 C 13.832031 26.367188 13.863281 26.4375 13.914062 26.484375 C 13.960938 26.53125 14.027344 26.546875 14.117188 26.535156 C 14.183594 26.523438 14.238281 26.5 14.273438 26.453125 C 14.316406 26.410156 14.324219 26.34375 14.3125 26.257812 L 14.078125 26.292969 L 14.066406 26.214844 L 14.394531 26.164062 L 14.457031 26.550781 L 14.390625 26.558594 L 14.351562 26.472656 C 14.324219 26.511719 14.296875 26.542969 14.273438 26.558594 C 14.234375 26.59375 14.179688 26.613281 14.109375 26.621094 C 14.023438 26.636719 13.941406 26.621094 13.867188 26.574219 C 13.789062 26.511719 13.734375 26.425781 13.714844 26.300781 C 13.695312 26.183594 13.714844 26.078125 13.769531 25.996094 C 13.824219 25.917969 13.898438 25.875 14.003906 25.859375 "/>
<path style=" stroke:none;fill-rule:nonzero;fill:rgb(0%,62.352943%,77.254903%);fill-opacity:1;" d="M 14.742188 25.804688 L 14.976562 25.71875 C 15.007812 25.707031 15.039062 25.703125 15.0625 25.707031 C 15.105469 25.707031 15.136719 25.734375 15.152344 25.785156 C 15.171875 25.828125 15.171875 25.867188 15.152344 25.894531 C 15.132812 25.921875 15.101562 25.941406 15.054688 25.957031 L 14.835938 26.039062 L 14.742188 25.804688 M 14.976562 26.410156 L 14.863281 26.117188 L 15.082031 26.035156 C 15.121094 26.023438 15.148438 26.015625 15.171875 26.019531 C 15.210938 26.023438 15.238281 26.046875 15.257812 26.09375 L 15.308594 26.203125 C 15.320312 26.230469 15.328125 26.25 15.335938 26.257812 C 15.339844 26.265625 15.347656 26.273438 15.351562 26.277344 L 15.46875 26.234375 L 15.464844 26.21875 C 15.445312 26.21875 15.429688 26.210938 15.417969 26.191406 C 15.40625 26.175781 15.398438 26.15625 15.386719 26.132812 L 15.347656 26.042969 C 15.328125 26.003906 15.3125 25.976562 15.289062 25.964844 C 15.269531 25.953125 15.242188 25.945312 15.214844 25.941406 C 15.238281 25.914062 15.253906 25.886719 15.261719 25.855469 C 15.269531 25.820312 15.265625 25.785156 15.25 25.742188 C 15.21875 25.664062 15.164062 25.621094 15.085938 25.617188 C 15.046875 25.613281 15 25.621094 14.945312 25.640625 L 14.617188 25.757812 L 14.882812 26.445312 L 14.976562 26.410156 "/>
<path style=" stroke:none;fill-rule:nonzero;fill:rgb(0%,62.352943%,77.254903%);fill-opacity:1;" d="M 15.835938 26.046875 L 15.417969 25.4375 L 15.875 25.144531 L 15.925781 25.21875 L 15.550781 25.457031 L 15.679688 25.644531 L 16.027344 25.421875 L 16.074219 25.492188 L 15.726562 25.714844 L 15.867188 25.921875 L 16.25 25.675781 L 16.300781 25.746094 L 15.835938 26.046875 "/>
<path style=" stroke:none;fill-rule:nonzero;fill:rgb(0%,62.352943%,77.254903%);fill-opacity:1;" d="M 16.199219 24.96875 L 16.320312 24.835938 C 16.375 24.777344 16.433594 24.75 16.5 24.757812 C 16.5625 24.761719 16.628906 24.796875 16.699219 24.859375 C 16.71875 24.871094 16.734375 24.890625 16.753906 24.914062 C 16.785156 24.953125 16.800781 24.988281 16.8125 25.023438 C 16.824219 25.066406 16.820312 25.105469 16.804688 25.144531 C 16.796875 25.164062 16.78125 25.183594 16.753906 25.210938 L 16.632812 25.34375 L 16.199219 24.964844 M 16.835938 25.253906 C 16.917969 25.160156 16.9375 25.058594 16.886719 24.945312 C 16.859375 24.882812 16.816406 24.824219 16.753906 24.769531 C 16.675781 24.703125 16.597656 24.667969 16.511719 24.660156 C 16.417969 24.652344 16.339844 24.6875 16.269531 24.765625 L 16.066406 24.984375 L 16.628906 25.476562 L 16.835938 25.253906 "/>
<path style=" stroke:none;fill-rule:nonzero;fill:rgb(0%,62.352943%,77.254903%);fill-opacity:1;" d="M 17.269531 24.683594 L 16.621094 24.304688 L 16.675781 24.21875 L 17.324219 24.597656 L 17.273438 24.6875 "/>
<path style=" stroke:none;fill-rule:nonzero;fill:rgb(0%,62.352943%,77.254903%);fill-opacity:1;" d="M 17.527344 24.242188 L 16.824219 23.960938 L 17.03125 23.46875 L 17.117188 23.503906 L 16.949219 23.910156 L 17.160156 23.992188 L 17.316406 23.617188 L 17.398438 23.652344 L 17.242188 24.023438 L 17.476562 24.121094 L 17.652344 23.710938 L 17.734375 23.742188 L 17.523438 24.242188 "/>
<path style=" stroke:none;fill-rule:nonzero;fill:rgb(0%,62.352943%,77.254903%);fill-opacity:1;" d="M 17.847656 23.382812 L 17.109375 23.21875 L 17.132812 23.105469 L 17.816406 22.875 L 17.21875 22.742188 L 17.238281 22.652344 L 17.976562 22.8125 L 17.953125 22.921875 L 17.269531 23.15625 L 17.867188 23.289062 L 17.847656 23.382812 "/>
<path style=" stroke:none;fill-rule:nonzero;fill:rgb(0%,62.352943%,77.254903%);fill-opacity:1;" d="M 17.789062 22.445312 L 17.796875 22.355469 C 17.839844 22.355469 17.875 22.347656 17.902344 22.332031 C 17.957031 22.304688 17.988281 22.25 17.996094 22.167969 C 18 22.128906 18 22.097656 17.988281 22.066406 C 17.972656 22.003906 17.9375 21.96875 17.882812 21.964844 C 17.84375 21.960938 17.8125 21.96875 17.792969 21.992188 C 17.773438 22.019531 17.753906 22.054688 17.738281 22.109375 L 17.703125 22.203125 C 17.683594 22.265625 17.664062 22.3125 17.640625 22.335938 C 17.605469 22.382812 17.558594 22.398438 17.492188 22.394531 C 17.425781 22.386719 17.371094 22.359375 17.332031 22.308594 C 17.292969 22.261719 17.277344 22.195312 17.289062 22.109375 C 17.292969 22.035156 17.320312 21.972656 17.363281 21.921875 C 17.40625 21.875 17.46875 21.851562 17.550781 21.859375 L 17.542969 21.953125 C 17.503906 21.953125 17.472656 21.960938 17.449219 21.976562 C 17.40625 22 17.382812 22.050781 17.375 22.121094 C 17.367188 22.179688 17.378906 22.222656 17.398438 22.253906 C 17.421875 22.277344 17.453125 22.292969 17.484375 22.296875 C 17.523438 22.300781 17.550781 22.289062 17.570312 22.261719 C 17.582031 22.242188 17.601562 22.199219 17.625 22.132812 L 17.65625 22.03125 C 17.671875 21.984375 17.691406 21.949219 17.714844 21.921875 C 17.757812 21.882812 17.808594 21.863281 17.878906 21.867188 C 17.960938 21.875 18.015625 21.910156 18.046875 21.972656 C 18.078125 22.035156 18.089844 22.105469 18.082031 22.183594 C 18.070312 22.273438 18.042969 22.339844 17.988281 22.386719 C 17.9375 22.4375 17.871094 22.453125 17.789062 22.445312 "/>
<path style=" stroke:none;fill-rule:nonzero;fill:rgb(0%,62.352943%,77.254903%);fill-opacity:1;" d="M 2.507812 22.402344 L 2.527344 22.492188 C 2.484375 22.5 2.453125 22.519531 2.429688 22.539062 C 2.386719 22.578125 2.371094 22.640625 2.386719 22.722656 C 2.390625 22.757812 2.40625 22.792969 2.421875 22.820312 C 2.453125 22.875 2.496094 22.894531 2.550781 22.886719 C 2.589844 22.878906 2.617188 22.867188 2.628906 22.835938 C 2.640625 22.808594 2.648438 22.765625 2.652344 22.710938 L 2.65625 22.609375 C 2.660156 22.546875 2.667969 22.496094 2.679688 22.46875 C 2.703125 22.417969 2.746094 22.386719 2.808594 22.375 C 2.875 22.363281 2.933594 22.378906 2.984375 22.417969 C 3.035156 22.453125 3.070312 22.515625 3.082031 22.597656 C 3.097656 22.671875 3.089844 22.738281 3.0625 22.796875 C 3.035156 22.855469 2.980469 22.894531 2.894531 22.910156 L 2.878906 22.816406 C 2.917969 22.800781 2.945312 22.789062 2.964844 22.769531 C 3 22.730469 3.007812 22.679688 2.996094 22.605469 C 2.984375 22.546875 2.964844 22.511719 2.933594 22.492188 C 2.90625 22.46875 2.875 22.460938 2.84375 22.464844 C 2.804688 22.472656 2.78125 22.492188 2.769531 22.523438 C 2.761719 22.546875 2.757812 22.589844 2.753906 22.660156 L 2.75 22.765625 C 2.746094 22.816406 2.738281 22.859375 2.722656 22.886719 C 2.695312 22.9375 2.648438 22.972656 2.582031 22.980469 C 2.5 22.996094 2.433594 22.976562 2.390625 22.921875 C 2.34375 22.871094 2.3125 22.808594 2.300781 22.730469 C 2.28125 22.636719 2.292969 22.566406 2.332031 22.507812 C 2.371094 22.449219 2.429688 22.414062 2.507812 22.402344 "/>
<path style=" stroke:none;fill-rule:nonzero;fill:rgb(0%,62.352943%,77.254903%);fill-opacity:1;" d="M 2.464844 23.367188 L 3.183594 23.152344 L 3.351562 23.660156 L 3.265625 23.6875 L 3.125 23.269531 L 2.90625 23.335938 L 3.035156 23.71875 L 2.949219 23.746094 L 2.824219 23.359375 L 2.582031 23.433594 L 2.71875 23.859375 L 2.632812 23.882812 L 2.464844 23.367188 "/>
<path style=" stroke:none;fill-rule:nonzero;fill:rgb(0%,62.352943%,77.254903%);fill-opacity:1;" d="M 2.78125 24.246094 L 3.445312 23.898438 L 3.515625 24.019531 L 3.0625 24.503906 L 3.726562 24.386719 L 3.796875 24.511719 L 3.132812 24.859375 L 3.085938 24.777344 L 3.476562 24.574219 C 3.492188 24.566406 3.511719 24.554688 3.542969 24.535156 C 3.574219 24.523438 3.609375 24.503906 3.644531 24.484375 L 2.984375 24.597656 L 2.933594 24.511719 L 3.386719 24.03125 L 3.363281 24.042969 C 3.351562 24.050781 3.328125 24.0625 3.292969 24.082031 C 3.261719 24.101562 3.234375 24.113281 3.21875 24.121094 L 2.832031 24.328125 L 2.78125 24.246094 "/>
<path style=" stroke:none;fill-rule:nonzero;fill:rgb(0%,62.352943%,77.254903%);fill-opacity:1;" d="M 4.019531 25.222656 C 3.984375 25.214844 3.953125 25.199219 3.917969 25.164062 L 3.78125 25.019531 L 3.96875 24.847656 L 4.109375 24.992188 C 4.136719 25.015625 4.152344 25.042969 4.164062 25.066406 C 4.175781 25.109375 4.164062 25.148438 4.125 25.183594 C 4.085938 25.21875 4.050781 25.230469 4.019531 25.222656 M 3.484375 25.292969 L 3.714844 25.078125 L 3.878906 25.246094 C 3.933594 25.300781 3.988281 25.324219 4.042969 25.324219 C 4.101562 25.320312 4.152344 25.296875 4.195312 25.257812 C 4.242188 25.214844 4.265625 25.160156 4.265625 25.105469 C 4.265625 25.054688 4.242188 25.003906 4.195312 24.957031 L 3.960938 24.714844 L 3.414062 25.21875 L 3.484375 25.292969 "/>
<path style=" stroke:none;fill-rule:nonzero;fill:rgb(0%,62.352943%,77.254903%);fill-opacity:1;" d="M 4.148438 25.878906 L 4.542969 25.257812 L 5.015625 25.542969 L 4.964844 25.617188 L 4.578125 25.386719 L 4.460938 25.574219 L 4.816406 25.789062 L 4.769531 25.859375 L 4.414062 25.644531 L 4.277344 25.855469 L 4.667969 26.09375 L 4.621094 26.164062 L 4.148438 25.878906 "/>
<path style=" stroke:none;fill-rule:nonzero;fill:rgb(0%,62.352943%,77.254903%);fill-opacity:1;" d="M 5.324219 25.757812 L 5.5625 25.835938 C 5.59375 25.847656 5.621094 25.859375 5.636719 25.875 C 5.667969 25.902344 5.675781 25.945312 5.65625 25.992188 C 5.640625 26.039062 5.621094 26.066406 5.585938 26.078125 C 5.554688 26.082031 5.515625 26.082031 5.46875 26.070312 L 5.242188 25.996094 L 5.324219 25.757812 M 5.117188 26.371094 L 5.214844 26.074219 L 5.4375 26.148438 C 5.476562 26.15625 5.507812 26.171875 5.519531 26.1875 C 5.546875 26.210938 5.554688 26.246094 5.542969 26.292969 L 5.507812 26.410156 C 5.5 26.441406 5.5 26.460938 5.496094 26.46875 C 5.496094 26.476562 5.496094 26.488281 5.496094 26.492188 L 5.613281 26.53125 L 5.621094 26.515625 C 5.609375 26.503906 5.601562 26.488281 5.601562 26.464844 C 5.605469 26.449219 5.609375 26.429688 5.617188 26.402344 L 5.644531 26.308594 C 5.65625 26.269531 5.660156 26.238281 5.648438 26.214844 C 5.640625 26.191406 5.625 26.167969 5.601562 26.148438 C 5.640625 26.144531 5.671875 26.132812 5.699219 26.109375 C 5.722656 26.089844 5.746094 26.058594 5.757812 26.015625 C 5.785156 25.933594 5.769531 25.871094 5.710938 25.820312 C 5.683594 25.792969 5.640625 25.769531 5.585938 25.75 L 5.25 25.648438 L 5.019531 26.34375 L 5.117188 26.371094 "/>
<path style=" stroke:none;fill-rule:nonzero;fill:rgb(73.725492%,44.313726%,37.254903%);fill-opacity:1;" d="M 6.128906 13.722656 C 6.214844 13.515625 7.015625 12.949219 9.632812 13.199219 C 9.632812 13.199219 10.074219 13.46875 10.335938 13.433594 C 10.484375 13.414062 10.25 13.441406 10.054688 13.28125 C 9.855469 13.121094 9.816406 12.789062 10.265625 12.800781 C 10.714844 12.8125 12.394531 12.90625 12.425781 13.058594 C 12.457031 13.210938 11.539062 13.273438 11.195312 13.265625 C 10.855469 13.253906 10.894531 13.429688 11.234375 13.414062 C 12.300781 13.378906 13.464844 13 14.695312 13.871094 C 14.839844 13.976562 14.324219 13.992188 13.921875 13.824219 C 13.921875 13.824219 12.839844 13.878906 12.371094 13.804688 C 12.371094 13.804688 12.011719 14.097656 11.539062 14.066406 C 11.601562 14.21875 11.367188 14.785156 9.890625 14.359375 C 9.648438 14.433594 8.761719 14.582031 8.855469 14.320312 C 8.621094 14.320312 8.214844 14.394531 8.152344 14.261719 C 8.09375 14.132812 8.875 13.933594 9.011719 13.792969 C 9.011719 13.792969 7.359375 13.808594 7.046875 13.695312 C 7.046875 13.695312 6.070312 13.910156 6.128906 13.722656 "/>
<path style=" stroke:none;fill-rule:nonzero;fill:rgb(0%,52.941179%,21.568628%);fill-opacity:1;" d="M 6.660156 16.035156 C 6.695312 15.988281 6.707031 15.902344 6.785156 15.902344 C 6.945312 15.945312 7.058594 16.246094 7.257812 16.050781 C 7.332031 16.035156 7.359375 16.132812 7.417969 16.144531 C 7.453125 16.3125 7.589844 16.113281 7.6875 16.121094 C 7.902344 16.027344 8.164062 16.003906 8.417969 16.050781 C 8.425781 16.214844 8.296875 16.394531 8.136719 16.488281 C 8.140625 16.652344 8.289062 16.757812 8.285156 16.921875 C 8.261719 16.984375 8.28125 17.082031 8.1875 17.101562 C 8.070312 17.078125 7.953125 17.066406 7.855469 17 C 7.84375 16.988281 7.835938 16.964844 7.808594 16.972656 C 7.796875 17.027344 7.882812 17.082031 7.917969 17.140625 C 7.859375 17.242188 7.757812 17.148438 7.675781 17.148438 C 7.652344 17.207031 7.675781 17.28125 7.613281 17.320312 C 7.511719 17.316406 7.488281 17.203125 7.425781 17.144531 C 7.359375 17.214844 7.472656 17.257812 7.488281 17.316406 C 7.445312 17.53125 7.453125 17.738281 7.238281 17.878906 L 7.09375 17.953125 C 7.054688 17.84375 7.078125 17.679688 7.050781 17.566406 C 6.96875 17.707031 6.902344 17.828125 6.777344 17.945312 C 6.628906 17.898438 6.542969 17.722656 6.511719 17.582031 C 6.453125 17.414062 6.488281 17.214844 6.617188 17.097656 C 6.574219 17.007812 6.421875 17.027344 6.398438 16.90625 C 6.167969 16.753906 6.042969 17.167969 5.894531 16.953125 C 5.84375 16.753906 5.902344 16.503906 6.046875 16.355469 C 6.015625 16.273438 5.90625 16.296875 5.84375 16.25 C 5.699219 16.125 5.492188 15.996094 5.503906 15.773438 C 5.898438 15.625 6.371094 15.734375 6.65625 16.035156 "/>
<path style=" stroke:none;fill-rule:nonzero;fill:rgb(100%,100%,0%);fill-opacity:1;" d="M 6.863281 16.011719 C 6.855469 16.195312 6.984375 16.0625 7.082031 16.171875 C 7.007812 16.140625 6.953125 16.304688 6.875 16.210938 L 6.828125 16.253906 C 6.855469 16.316406 6.910156 16.324219 6.855469 16.394531 C 6.773438 16.425781 6.757812 16.324219 6.71875 16.28125 C 6.710938 16.265625 6.730469 16.230469 6.703125 16.21875 C 6.65625 16.257812 6.605469 16.273438 6.542969 16.265625 C 6.523438 16.230469 6.492188 16.183594 6.527344 16.15625 C 6.589844 16.074219 6.6875 16.1875 6.734375 16.128906 C 6.742188 16.078125 6.695312 16.011719 6.753906 15.976562 C 6.796875 15.984375 6.847656 15.960938 6.863281 16.011719 "/>
<path style=" stroke:none;fill-rule:nonzero;fill:rgb(100%,100%,0%);fill-opacity:1;" d="M 7.351562 16.160156 C 7.359375 16.195312 7.335938 16.246094 7.378906 16.269531 C 7.441406 16.238281 7.503906 16.261719 7.539062 16.320312 C 7.535156 16.351562 7.546875 16.394531 7.503906 16.410156 L 7.414062 16.390625 C 7.417969 16.375 7.390625 16.363281 7.378906 16.34375 C 7.335938 16.332031 7.3125 16.367188 7.28125 16.386719 C 7.304688 16.421875 7.359375 16.441406 7.347656 16.484375 C 7.292969 16.539062 7.265625 16.4375 7.203125 16.464844 C 7.164062 16.449219 7.21875 16.363281 7.15625 16.335938 C 7.078125 16.335938 7.128906 16.460938 7.03125 16.414062 C 6.996094 16.375 6.964844 16.320312 7 16.277344 C 7.042969 16.25 7.109375 16.257812 7.144531 16.292969 C 7.203125 16.226562 7.210938 15.972656 7.351562 16.160156 "/>
<path style=" stroke:none;fill-rule:nonzero;fill:rgb(100%,100%,0%);fill-opacity:1;" d="M 6.742188 16.425781 C 6.785156 16.480469 6.734375 16.558594 6.785156 16.625 C 6.867188 16.472656 6.941406 16.65625 7.039062 16.640625 C 7.066406 16.675781 7.046875 16.726562 7.050781 16.765625 C 6.933594 16.796875 6.792969 16.835938 6.691406 16.742188 L 6.660156 16.773438 C 6.722656 16.832031 6.78125 16.894531 6.730469 16.992188 C 6.644531 17.011719 6.507812 17.011719 6.464844 16.921875 C 6.441406 16.847656 6.519531 16.792969 6.4375 16.734375 C 6.378906 16.804688 6.382812 16.902344 6.261719 16.835938 C 6.183594 16.796875 6.164062 16.710938 6.199219 16.636719 C 6.277344 16.515625 6.417969 16.640625 6.5 16.582031 C 6.511719 16.476562 6.472656 16.382812 6.570312 16.324219 C 6.65625 16.308594 6.695312 16.371094 6.746094 16.425781 "/>
<path style=" stroke:none;fill-rule:nonzero;fill:rgb(100%,100%,100%);fill-opacity:1;" d="M 7.074219 16.488281 C 7.035156 16.671875 6.902344 16.480469 6.835938 16.472656 C 6.921875 16.320312 6.976562 16.523438 7.074219 16.488281 "/>
<path style=" stroke:none;fill-rule:nonzero;fill:rgb(100%,100%,100%);fill-opacity:1;" d="M 7.5 16.6875 C 7.40625 16.714844 7.421875 16.59375 7.375 16.546875 L 7.410156 16.515625 C 7.445312 16.558594 7.46875 16.632812 7.5 16.6875 "/>
<path style=" stroke:none;fill-rule:nonzero;fill:rgb(100%,100%,0%);fill-opacity:1;" d="M 7.371094 16.648438 C 7.398438 16.710938 7.3125 16.761719 7.386719 16.808594 C 7.410156 16.789062 7.441406 16.761719 7.453125 16.75 C 7.515625 16.769531 7.59375 16.78125 7.636719 16.84375 C 7.6875 16.976562 7.550781 16.972656 7.476562 17.011719 L 7.398438 17.007812 C 7.417969 16.96875 7.367188 16.953125 7.355469 16.929688 C 7.320312 16.921875 7.289062 16.929688 7.269531 16.960938 C 7.289062 17.046875 7.390625 17.109375 7.285156 17.1875 C 7.195312 17.179688 7.054688 17.214844 7.0625 17.089844 C 7.03125 17.019531 7.15625 16.910156 7.019531 16.90625 C 6.976562 17.003906 6.929688 17.09375 6.8125 17.003906 L 6.828125 16.867188 C 6.9375 16.871094 7.066406 16.890625 7.117188 16.769531 C 7.148438 16.679688 7.0625 16.597656 7.140625 16.527344 C 7.253906 16.5 7.316406 16.574219 7.371094 16.648438 "/>
<path style=" stroke:none;fill-rule:nonzero;fill:rgb(0%,0%,0%);fill-opacity:1;" d="M 7.292969 16.851562 C 7.320312 16.921875 7.242188 16.925781 7.207031 16.957031 C 7.160156 16.960938 7.125 16.941406 7.097656 16.910156 C 7.074219 16.828125 7.136719 16.820312 7.179688 16.789062 C 7.234375 16.765625 7.257812 16.828125 7.292969 16.851562 "/>
<path style=" stroke:none;fill-rule:nonzero;fill:rgb(100%,100%,100%);fill-opacity:1;" d="M 7.226562 16.898438 C 7.214844 16.914062 7.195312 16.90625 7.179688 16.914062 L 7.160156 16.832031 C 7.199219 16.835938 7.246094 16.847656 7.226562 16.898438 "/>
</g>
</svg>
