<?xml version="1.0" encoding="UTF-8"?>
<svg xmlns="http://www.w3.org/2000/svg" xmlns:xlink="http://www.w3.org/1999/xlink" width="40px" height="40px" viewBox="0 0 40 40" version="1.1">
<g id="surface1">
<path style=" stroke:none;fill-rule:evenodd;fill:rgb(23.137255%,35.294119%,63.921571%);fill-opacity:1;" d="M 0 0 L 39.992188 0 L 39.992188 40 L 0 40 Z M 0 0 "/>
<path style=" stroke:none;fill-rule:evenodd;fill:rgb(100%,100%,100%);fill-opacity:1;" d="M 10.863281 0.0976562 L 10.441406 6.96875 L 8.636719 2.585938 L 9.328125 7.25 L 6.53125 3.480469 L 8.367188 7.78125 L 4.691406 4.933594 L 7.550781 8.515625 L 3.398438 6.675781 L 7.035156 9.425781 L 2.511719 8.828125 L 6.789062 10.523438 L 0.078125 11.136719 L 6.804688 11.585938 L 2.542969 13.339844 L 7.019531 12.734375 L 3.398438 15.410156 L 7.601562 13.5625 L 4.734375 17.171875 L 8.382812 14.410156 L 6.574219 18.613281 L 9.496094 14.957031 L 8.703125 19.515625 L 10.542969 15.257812 L 10.957031 21.984375 L 11.605469 15.273438 L 13.1875 19.558594 L 12.585938 14.941406 L 15.492188 18.601562 L 13.582031 14.328125 L 17.226562 17.269531 L 14.328125 13.597656 L 18.664062 15.402344 L 14.828125 12.601562 L 19.5 13.386719 L 15.027344 11.667969 L 21.984375 11.238281 L 15.027344 10.589844 L 19.605469 9.0625 L 14.859375 9.660156 L 18.78125 6.917969 L 14.363281 8.695312 L 17.414062 4.996094 L 13.699219 7.898438 L 15.484375 3.460938 L 12.601562 7.234375 L 13.21875 2.527344 L 11.503906 6.96875 Z M 10.863281 0.0976562 "/>
<path style=" stroke:none;fill-rule:evenodd;fill:rgb(88.627452%,68.235296%,34.117648%);fill-opacity:1;" d="M 0 38.921875 L 39.996094 0 L 39.992188 7.242188 L 0 40 Z M 0 38.921875 "/>
<path style=" stroke:none;fill-rule:evenodd;fill:rgb(100%,100%,100%);fill-opacity:1;" d="M 1.398438 40 L 40 14.933594 L 39.992188 6.976562 L 0 40 Z M 1.398438 40 "/>
</g>
</svg>
