<?xml version="1.0" encoding="UTF-8"?>
<svg xmlns="http://www.w3.org/2000/svg" xmlns:xlink="http://www.w3.org/1999/xlink" width="40px" height="40px" viewBox="0 0 40 40" version="1.1">
<g id="surface1">
<path style=" stroke:none;fill-rule:nonzero;fill:rgb(99.607843%,79.607844%,0%);fill-opacity:1;" d="M -9.972656 0 L 50.027344 0 L 50.027344 20 L -9.972656 20 Z M -9.972656 0 "/>
<path style=" stroke:none;fill-rule:nonzero;fill:rgb(91.764706%,15.686275%,22.352941%);fill-opacity:1;" d="M -9.972656 20 L 50.027344 20 L 50.027344 40 L -9.972656 40 Z M -9.972656 20 "/>
<path style=" stroke:none;fill-rule:nonzero;fill:rgb(20.392157%,69.803923%,20%);fill-opacity:1;" d="M -9.972656 13.332031 L 50.027344 13.332031 L 50.027344 26.667969 L -9.972656 26.667969 Z M -9.972656 13.332031 "/>
<path style=" stroke:none;fill-rule:nonzero;fill:rgb(100%,100%,100%);fill-opacity:1;" d="M 16.152344 18.589844 L 23.902344 24.222656 L 11.363281 33.332031 Z M 16.152344 18.589844 "/>
<path style=" stroke:none;fill-rule:nonzero;fill:rgb(100%,100%,100%);fill-opacity:1;" d="M 21.507812 16.851562 L 18.546875 25.960938 L 6.007812 16.851562 Z M 21.507812 16.851562 "/>
<path style=" stroke:none;fill-rule:nonzero;fill:rgb(100%,100%,100%);fill-opacity:1;" d="M 24.816406 21.40625 L 15.238281 21.40625 L 20.027344 6.667969 Z M 24.816406 21.40625 "/>
<path style=" stroke:none;fill-rule:nonzero;fill:rgb(100%,100%,100%);fill-opacity:1;" d="M 21.507812 25.960938 L 18.546875 16.851562 L 34.042969 16.851562 Z M 21.507812 25.960938 "/>
<path style=" stroke:none;fill-rule:nonzero;fill:rgb(100%,100%,100%);fill-opacity:1;" d="M 16.152344 24.222656 L 23.902344 18.589844 L 28.691406 33.332031 Z M 16.152344 24.222656 "/>
</g>
</svg>
