<?xml version="1.0" encoding="UTF-8"?>
<svg xmlns="http://www.w3.org/2000/svg" xmlns:xlink="http://www.w3.org/1999/xlink" width="40px" height="40px" viewBox="0 0 40 40" version="1.1">
<g id="surface1">
<rect x="0" y="0" width="40" height="40" style="fill:rgb(83.92157%,8.235294%,9.019608%);fill-opacity:1;stroke:none;"/>
<path style=" stroke:none;fill-rule:evenodd;fill:rgb(0.392157%,55.686277%,87.450981%);fill-opacity:1;" d="M 13.332031 0 L 26.667969 0 L 26.667969 40 L 13.332031 40 Z M 13.332031 0 "/>
<path style=" stroke:none;fill-rule:evenodd;fill:rgb(100%,84.313726%,0%);fill-opacity:0.866667;" d="M 6.496094 14.800781 C 7.074219 14.816406 7.164062 14.617188 7.164062 14.417969 L 7.164062 13.730469 C 7.164062 13.648438 7.386719 13.5625 7.386719 13.414062 C 7.386719 13.261719 7.273438 13.09375 7.230469 12.992188 C 7.164062 13.246094 7.050781 13.496094 6.851562 13.578125 C 6.761719 13.378906 6.738281 13.3125 6.785156 13.210938 C 6.828125 13.109375 6.785156 12.960938 6.695312 12.808594 C 6.628906 13.128906 6.429688 13.210938 6.40625 13.3125 C 6.382812 13.414062 6.316406 13.695312 6.183594 13.546875 C 6.050781 13.394531 5.960938 13.210938 5.894531 13.011719 C 5.761719 13.414062 5.828125 13.496094 5.871094 13.5625 C 5.914062 13.628906 5.960938 13.832031 5.960938 13.914062 C 5.960938 14 5.871094 14.332031 5.914062 14.433594 C 5.960938 14.535156 5.984375 14.835938 6.496094 14.800781 Z M 6.496094 14.800781 "/>
<path style=" stroke:none;fill-rule:evenodd;fill:rgb(100%,84.313726%,0%);fill-opacity:0.866667;" d="M 8.105469 16.25 C 8.105469 16.855469 7.453125 17.347656 6.644531 17.347656 C 5.839844 17.347656 5.1875 16.855469 5.1875 16.25 C 5.1875 15.644531 5.839844 15.152344 6.644531 15.152344 C 7.453125 15.152344 8.105469 15.644531 8.105469 16.25 Z M 8.105469 16.25 "/>
<path style=" stroke:none;fill-rule:evenodd;fill:rgb(100%,84.313726%,0%);fill-opacity:0.866667;" d="M 8.683594 16.683594 C 7.910156 17.761719 6.425781 18.058594 5.328125 17.335938 C 5.035156 17.148438 4.824219 16.933594 4.621094 16.660156 C 4.804688 17.4375 5.355469 17.984375 6.121094 18.179688 C 7.242188 18.46875 8.390625 17.796875 8.683594 16.683594 Z M 8.683594 16.683594 "/>
<path style=" stroke:none;fill-rule:evenodd;fill:rgb(100%,84.313726%,0%);fill-opacity:0.866667;" d="M 4.410156 25.167969 L 8.757812 25.167969 L 8.757812 26.070312 L 4.410156 26.070312 Z M 4.410156 25.167969 "/>
<path style=" stroke:none;fill-rule:evenodd;fill:rgb(100%,84.313726%,0%);fill-opacity:0.866667;" d="M 4.625 18.78125 L 6.5625 19.957031 L 8.519531 18.78125 Z M 4.625 18.78125 "/>
<path style=" stroke:none;fill-rule:evenodd;fill:rgb(100%,84.313726%,0%);fill-opacity:0.866667;" d="M 4.625 20.054688 L 8.542969 20.054688 L 8.542969 20.957031 L 4.625 20.957031 Z M 4.625 20.054688 "/>
<path style=" stroke:none;fill-rule:evenodd;fill:rgb(100%,84.313726%,0%);fill-opacity:0.866667;" d="M 4.625 26.652344 L 6.5625 27.570312 L 8.519531 26.652344 Z M 4.625 26.652344 "/>
<path style=" stroke:none;fill-rule:evenodd;fill:rgb(100%,84.313726%,0%);fill-opacity:0.866667;" d="M 1.691406 18.792969 L 3.582031 18.792969 L 3.582031 27.53125 L 1.691406 27.53125 Z M 1.691406 18.792969 "/>
<path style=" stroke:none;fill-rule:evenodd;fill:rgb(100%,84.313726%,0%);fill-opacity:0.866667;" d="M 9.472656 18.792969 L 11.363281 18.792969 L 11.363281 27.53125 L 9.472656 27.53125 Z M 9.472656 18.792969 "/>
<path style=" stroke:none;fill-rule:evenodd;fill:rgb(100%,84.313726%,0%);fill-opacity:0.866667;" d="M 5.246094 21.863281 C 5.824219 21.4375 6.6875 21.117188 7 21.460938 C 7.308594 21.820312 7.382812 22.140625 7.316406 22.429688 C 7.222656 22.679688 6.808594 22.980469 6.503906 22.820312 C 6.148438 22.652344 5.585938 23.230469 5.523438 23.550781 C 5.4375 23.886719 5.429688 24.292969 5.527344 24.667969 C 4.605469 23.589844 4.539062 22.34375 5.246094 21.863281 Z M 6.816406 22.394531 C 6.65625 22.488281 6.425781 22.394531 6.296875 22.183594 C 6.171875 21.972656 6.269531 21.894531 6.429688 21.800781 C 6.589844 21.707031 6.75 21.632812 6.875 21.84375 C 7.003906 22.054688 6.976562 22.300781 6.816406 22.394531 Z M 7.707031 24.308594 C 7.136719 24.746094 6.195312 24.914062 5.882812 24.574219 C 5.566406 24.21875 5.828125 23.769531 5.894531 23.480469 C 5.980469 23.226562 6.394531 23.003906 6.699219 23.160156 C 7.054688 23.320312 7.621094 22.6875 7.554688 22.28125 C 7.632812 21.941406 7.523438 21.882812 7.359375 21.382812 C 8.292969 22.445312 8.40625 23.816406 7.707031 24.308594 Z M 6.4375 23.632812 C 6.59375 23.535156 6.78125 23.585938 6.910156 23.796875 C 7.039062 24.003906 7.03125 24.171875 6.875 24.265625 C 6.714844 24.363281 6.46875 24.355469 6.339844 24.144531 C 6.210938 23.9375 6.277344 23.730469 6.4375 23.632812 Z M 6.4375 23.632812 "/>
</g>
</svg>
