<?xml version="1.0" encoding="UTF-8"?>
<svg xmlns="http://www.w3.org/2000/svg" xmlns:xlink="http://www.w3.org/1999/xlink" width="40px" height="40px" viewBox="0 0 40 40" version="1.1">
<g id="surface1">
<rect x="0" y="0" width="40" height="40" style="fill:rgb(9.803922%,61.56863%,0%);fill-opacity:1;stroke:none;"/>
<path style=" stroke:none;fill-rule:evenodd;fill:rgb(99.607843%,100%,100%);fill-opacity:1;" d="M 19.898438 22.398438 C 18.957031 23.050781 17.972656 23.632812 17.035156 24.285156 C 15.855469 24.367188 14.710938 24.382812 13.5 24.320312 C 13.5 24.320312 10.964844 23.894531 10.320312 22.785156 C 10.285156 22.679688 11.140625 22.285156 11.140625 22.285156 C 12.4375 23.203125 13.878906 24.011719 16.570312 23.894531 C 13.25 23.59375 11 21.761719 10.320312 20.070312 C 12.117188 18.808594 15.09375 18.832031 17.535156 20.570312 C 16.773438 19.621094 14.226562 18.558594 12.320312 18.859375 C 12.046875 18.570312 11.808594 18.214844 11.535156 17.929688 C 13.726562 17.441406 16.773438 18.84375 17.890625 20 C 16.710938 18.109375 15.855469 15.964844 17.25 13.359375 C 17.523438 13.621094 17.832031 13.882812 18.105469 14.144531 C 17.058594 16.058594 17.4375 18.296875 18.285156 19.859375 C 16.820312 16.832031 18 13.847656 19.925781 12.394531 C 22.175781 13.75 22.820312 17.359375 21.496094 19.929688 C 22.246094 19.5 22.855469 16.285156 21.820312 14.144531 C 22.058594 13.859375 22.296875 13.574219 22.535156 13.285156 C 24.09375 15.394531 23.152344 18.785156 21.855469 20.070312 C 22.84375 19.214844 25.402344 17.535156 28.390625 17.929688 C 28.152344 18.214844 27.769531 18.464844 27.53125 18.75 C 25.082031 18.65625 23.09375 19.703125 22.210938 20.605469 C 24.367188 19.179688 27.34375 18.464844 29.53125 20.070312 C 28.519531 22.773438 25.652344 23.582031 23.285156 23.820312 C 25.296875 23.976562 27.164062 23.382812 28.675781 22.320312 C 28.960938 22.476562 29.246094 22.632812 29.53125 22.785156 C 28.890625 23.394531 27.960938 24 26.640625 24.179688 C 25.367188 24.34375 24.164062 24.296875 22.890625 24.320312 C 21.902344 23.679688 20.886719 23.039062 19.898438 22.398438 Z M 19.898438 22.398438 "/>
<path style=" stroke:none;fill-rule:evenodd;fill:rgb(100%,100%,100%);fill-opacity:1;" d="M 19.898438 23.03125 L 17.449219 24.871094 L 10.882812 24.847656 C 10.964844 25.113281 11.214844 25.449219 11.363281 25.605469 L 17.878906 25.628906 L 19.898438 24.066406 L 21.84375 25.605469 L 28.433594 25.605469 C 28.625 25.402344 28.824219 25.125 29 24.886719 L 22.324219 24.898438 Z M 19.898438 23.03125 "/>
<path style=" stroke:none;fill-rule:evenodd;fill:rgb(100%,100%,100%);fill-opacity:1;" d="M 16.136719 29.359375 C 18.019531 30.292969 22.027344 30.214844 23.835938 29.339844 Z M 16.136719 29.359375 "/>
<path style=" stroke:none;fill-rule:evenodd;fill:rgb(100%,100%,100%);fill-opacity:1;" d="M 11.800781 26.234375 C 11.875 26.234375 27.992188 26.222656 27.992188 26.222656 C 27.710938 26.542969 27.378906 26.886719 27.03125 27.183594 L 12.628906 27.121094 C 12.359375 26.933594 12 26.496094 11.800781 26.234375 Z M 11.800781 26.234375 "/>
<path style=" stroke:none;fill-rule:evenodd;fill:rgb(100%,100%,100%);fill-opacity:1;" d="M 12.910156 27.398438 L 26.816406 27.4375 C 26.554688 27.636719 26.34375 27.878906 26.046875 28.03125 L 13.6875 28.019531 C 13.402344 27.867188 13.109375 27.605469 12.910156 27.398438 Z M 12.910156 27.398438 "/>
<path style=" stroke:none;fill-rule:evenodd;fill:rgb(100%,100%,100%);fill-opacity:1;" d="M 14.179688 28.433594 L 25.542969 28.40625 C 25.238281 28.597656 24.898438 28.808594 24.519531 28.988281 L 15.203125 28.988281 C 14.886719 28.878906 14.519531 28.644531 14.179688 28.433594 Z M 14.179688 28.433594 "/>
<path style=" stroke:none;fill-rule:evenodd;fill:rgb(99.607843%,71.764708%,0%);fill-opacity:1;" d="M 25.925781 12.359375 L 25.515625 11.757812 L 24.808594 11.933594 L 25.253906 11.355469 L 24.871094 10.738281 L 25.554688 10.984375 L 26.023438 10.429688 L 26 11.15625 L 26.675781 11.429688 L 25.976562 11.632812 Z M 25.925781 12.359375 "/>
<path style=" stroke:none;fill-rule:evenodd;fill:rgb(99.607843%,71.764708%,0%);fill-opacity:1;" d="M 20.789062 11.5 L 19.976562 10.945312 L 19.171875 11.515625 L 19.449219 10.570312 L 18.660156 9.984375 L 19.644531 9.957031 L 19.960938 9.023438 L 20.289062 9.949219 L 21.273438 9.960938 L 20.496094 10.5625 Z M 20.789062 11.5 "/>
<path style=" stroke:none;fill-rule:evenodd;fill:rgb(99.607843%,71.764708%,0%);fill-opacity:1;" d="M 29.332031 16.347656 L 28.660156 16.0625 L 28.160156 16.59375 L 28.222656 15.867188 L 27.566406 15.558594 L 28.273438 15.390625 L 28.367188 14.671875 L 28.742188 15.292969 L 29.457031 15.15625 L 28.980469 15.707031 Z M 29.332031 16.347656 "/>
<path style=" stroke:none;fill-rule:evenodd;fill:rgb(99.607843%,71.764708%,0%);fill-opacity:1;" d="M 13.894531 12.347656 L 14.300781 11.746094 L 15.007812 11.921875 L 14.5625 11.34375 L 14.949219 10.726562 L 14.261719 10.972656 L 13.792969 10.417969 L 13.816406 11.144531 L 13.140625 11.417969 L 13.839844 11.621094 Z M 13.894531 12.347656 "/>
<path style=" stroke:none;fill-rule:evenodd;fill:rgb(99.607843%,71.764708%,0%);fill-opacity:1;" d="M 10.328125 16.320312 L 10.996094 16.035156 L 11.496094 16.566406 L 11.433594 15.839844 L 12.089844 15.53125 L 11.382812 15.367188 L 11.289062 14.644531 L 10.914062 15.265625 L 10.199219 15.132812 L 10.675781 15.679688 Z M 10.328125 16.320312 "/>
</g>
</svg>
