<?xml version="1.0" encoding="UTF-8"?>
<svg xmlns="http://www.w3.org/2000/svg" xmlns:xlink="http://www.w3.org/1999/xlink" width="40px" height="40px" viewBox="0 0 40 40" version="1.1">
<g id="surface1">
<rect x="0" y="0" width="40" height="40" style="fill:rgb(0%,44.313726%,73.725492%);fill-opacity:1;stroke:none;"/>
<path style="fill-rule:evenodd;fill:rgb(100%,100%,100%);fill-opacity:1;stroke-width:1.9196;stroke-linecap:butt;stroke-linejoin:miter;stroke:rgb(0%,0%,0%);stroke-opacity:1;stroke-miterlimit:4;" d="M 553.434765 392.452306 C 553.434765 392.452306 570.923381 373.946347 587.733768 377.482826 C 592.77204 357.959523 611.810893 356.457731 611.810893 356.457731 C 611.810893 356.457731 609.969986 334.899741 634.337781 330.200584 C 635.01601 315.570218 649.791711 303.458988 649.791711 303.458988 C 649.791711 303.458988 646.788126 280.738321 662.242055 275.554715 C 652.843741 257.533204 665.43942 244.404631 665.294085 244.065517 C 665.100305 243.726402 649.307261 215.628349 663.453178 207.586492 C 648.483698 194.942368 653.32819 180.651116 653.32819 180.651116 C 653.32819 180.651116 637.002252 176.436408 642.912532 156.961551 C 629.444844 154.58775 626.780374 132.884425 626.780374 132.884425 C 626.780374 132.884425 606.094393 137.099133 603.575257 119.126068 C 589.91379 121.30609 588.411997 107.838402 588.266662 107.838402 C 588.072883 107.838402 561.185952 115.056695 555.808566 94.709829 C 545.344463 100.087215 540.839086 90.495121 540.839086 90.495121 C 540.839086 90.495121 525.869606 97.907193 516.907295 83.615942 C 499.079565 94.709829 489.196801 83.083048 489.196801 83.083048 C 489.196801 83.083048 465.797905 98.585422 458.046718 86.619527 C 444.28836 100.620109 431.983351 94.564494 431.983351 94.564494 C 431.983351 94.564494 421.567693 113.070453 404.757306 108.322851 C 400.881712 125.472353 381.552189 125.811467 381.552189 125.811467 C 381.552189 125.811467 383.538431 140.974727 360.333314 144.995655 C 357.329729 162.823386 345.218499 165.875416 345.218499 165.875416 C 345.218499 165.875416 346.381177 183.170252 335.432625 188.741418 C 339.308219 198.478847 329.231676 210.444742 329.231676 210.444742 C 329.231676 210.444742 339.986448 223.91243 325.356082 239.027245 C 339.501999 242.709059 329.231676 267.125298 329.231676 267.125298 C 329.231676 267.125298 348.706533 275.845384 336.449969 292.025987 C 350.402106 296.531365 346.042063 307.673696 346.187398 314.213761 C 355.101263 318.234689 363.04623 316.248447 359.170636 334.221513 C 386.590461 337.273542 373.607222 352.388358 373.607222 352.388358 C 373.607222 352.388358 386.396681 352.921252 381.358409 362.997795 C 404.757306 362.513346 408.100005 380.486411 408.100005 380.486411 C 408.100005 380.486411 429.803329 374.76991 432.66158 383.199327 C 435.51983 391.580298 423.263265 448.260854 423.263265 448.260854 C 423.263265 448.260854 404.902641 448.260854 391.289618 433.630488 C 359.315971 432.806925 366.388929 411.781829 365.90448 411.781829 C 365.371586 411.781829 355.295043 415.657423 350.062991 398.168807 C 328.698782 402.52885 329.37701 384.507339 329.231676 384.362005 C 329.037896 384.168225 319.639582 380.001962 323.176061 371.088097 C 301.133622 373.074338 302.829194 351.564794 302.829194 351.564794 C 297.984702 349.578552 296.19224 345.12162 296.918914 340.616242 C 294.060664 339.598899 274.537361 339.259784 284.662349 313.535532 C 265.96261 302.29631 277.589391 289.313072 277.589391 289.313072 C 277.589391 289.313072 251.865139 276.039164 271.679111 260.730569 C 256.90341 238.88191 272.890234 227.933358 272.890234 227.933358 C 272.890234 227.933358 252.349588 207.053598 273.229348 192.277897 C 269.838204 160.643365 288.683278 153.085957 288.683278 153.085957 C 288.683278 153.085957 278.752069 127.361705 305.687445 116.558487 C 307.334572 90.495121 326.179646 89.816892 326.179646 89.816892 C 326.179646 89.816892 326.71254 69.130911 356.312386 71.165597 C 362.028886 52.659638 382.181973 56.389897 382.181973 56.389897 C 382.181973 56.389897 388.431368 34.008344 415.851192 44.763116 C 429.803329 17.488626 450.48931 31.489208 450.48931 31.489208 C 450.48931 31.489208 463.617883 22.914457 470.157948 25.578928 C 478.490474 11.287676 496.221315 25.046034 507.702761 27.807394 C 511.869024 26.160267 526.693169 14.96949 538.12617 29.115407 C 553.240985 19.184198 566.224224 37.011929 566.224224 37.011929 C 566.224224 37.011929 587.055539 26.402491 596.841413 50.624951 C 641.071625 46.604023 634.676896 75.52564 634.676896 75.52564 C 634.676896 75.52564 669.508793 67.629118 661.902941 102.267236 C 693.537473 104.447257 690.340109 125.327018 690.340109 125.327018 C 690.340109 125.327018 710.347861 140.490278 701.627775 154.1033 C 719.455505 154.926864 712.866996 172.076366 712.866996 172.076366 C 712.866996 172.076366 726.528464 177.308417 715.240797 198.478847 C 741.304164 219.358607 720.279069 240.044588 720.133734 239.850809 C 719.939955 239.705474 734.085871 256.709641 721.296412 276.184499 C 725.172006 307.140802 709.524297 315.085769 709.524297 315.085769 C 709.524297 315.085769 713.545225 335.093521 696.056609 340.810022 C 695.717495 364.354253 673.529721 367.212503 673.529721 367.212503 C 673.529721 367.212503 679.391557 377.434381 657.397563 388.189153 C 656.525554 403.933752 633.514218 405.241765 633.514218 405.241765 C 633.514218 405.241765 631.334196 434.163382 602.02502 426.412195 C 594.952061 449.617312 560.653058 442.738133 559.974829 442.399019 C 559.2966 442.059904 553.434765 392.597641 553.434765 392.452306 Z M 553.434765 392.452306 " transform="matrix(0.0806328,0,0,0.0806328,-20,-0.000000818203)"/>
<path style="fill-rule:evenodd;fill:rgb(12.941177%,47.450981%,0%);fill-opacity:1;stroke-width:1.9196;stroke-linecap:butt;stroke-linejoin:round;stroke:rgb(0%,0%,0%);stroke-opacity:1;stroke-miterlimit:4;" d="M 340.858456 114.81447 C 340.955346 114.81447 348.270529 121.2092 346.914071 130.752849 C 345.557614 140.344943 339.986448 153.667296 341.100681 163.598505 C 341.77891 167.570988 341.536685 174.740836 341.536685 174.740836 C 341.536685 174.740836 334.899731 165.294077 334.802841 155.169089 C 334.705952 145.092545 342.021134 135.500451 342.021134 128.039933 C 342.021134 120.579416 340.664677 114.669136 340.858456 114.81447 Z M 340.858456 114.81447 " transform="matrix(0.0806328,0,0,0.0806328,-20,-0.000000818203)"/>
<path style="fill-rule:evenodd;fill:rgb(12.941177%,47.450981%,0%);fill-opacity:1;stroke-width:1.9196;stroke-linecap:butt;stroke-linejoin:round;stroke:rgb(0%,0%,0%);stroke-opacity:1;stroke-miterlimit:4;" d="M 337.225087 117.672721 C 337.225087 117.672721 327.584548 126.877255 326.373425 135.791121 C 325.452972 140.393388 325.065413 161.854488 324.968523 171.349692 C 324.774743 174.256387 323.56362 185.786278 323.321395 190.000986 C 323.030726 194.167249 330.394354 182.831138 330.781913 173.578158 C 330.588133 164.034509 330.588133 143.881422 331.557032 140.829392 C 332.380595 136.953799 332.235261 132.642201 333.543274 128.766607 C 335.335736 123.340776 337.321977 117.76961 337.225087 117.672721 Z M 337.225087 117.672721 " transform="matrix(0.0806328,0,0,0.0806328,-20,-0.000000818203)"/>
<path style="fill-rule:evenodd;fill:rgb(100%,82.352942%,0%);fill-opacity:1;stroke-width:1;stroke-linecap:butt;stroke-linejoin:miter;stroke:rgb(93.725491%,54.11765%,6.27451%);stroke-opacity:1;stroke-miterlimit:4;" d="M 155.881927 42.984588 C 155.881927 42.984588 162.367833 39.981386 164.23537 34.404012 C 166.102907 28.826638 158.607522 28.750927 157.623279 30.542753 C 156.639037 32.309342 158.4561 36.725815 158.001834 37.886716 C 157.522331 39.072855 154.872448 41.87416 155.881927 42.984588 Z M 155.881927 42.984588 " transform="matrix(0.154783,0,0,0.154783,0.12998,0.41704)"/>
<path style="fill-rule:evenodd;fill:rgb(100%,82.352942%,0%);fill-opacity:1;stroke-width:1.25;stroke-linecap:butt;stroke-linejoin:miter;stroke:rgb(93.725491%,54.11765%,6.27451%);stroke-opacity:1;stroke-miterlimit:4;" d="M 98.291123 45.028784 C 98.291123 45.028784 102.5057 39.224277 101.395273 33.445007 C 100.310082 27.665737 93.748466 31.274626 93.748466 33.293585 C 93.748466 35.337781 97.508777 38.290508 97.660199 39.552358 C 97.811621 40.78897 96.877852 44.549281 98.291123 45.028784 Z M 98.291123 45.028784 " transform="matrix(0.154783,0,0,0.154783,0.12998,0.41704)"/>
<path style="fill-rule:evenodd;fill:rgb(100%,82.352942%,0%);fill-opacity:1;stroke-width:1.25;stroke-linecap:butt;stroke-linejoin:miter;stroke:rgb(93.725491%,54.11765%,6.27451%);stroke-opacity:1;stroke-miterlimit:4;" d="M 86.884005 48.461014 C 86.884005 48.461014 91.098582 42.681744 89.988155 36.902474 C 88.902964 31.123204 82.341348 34.706856 82.341348 36.725815 C 82.341348 38.770011 86.101659 41.747975 86.253081 42.984588 C 86.404503 44.246437 85.470734 47.981511 86.884005 48.461014 Z M 86.884005 48.461014 " transform="matrix(0.154783,0,0,0.154783,0.12998,0.41704)"/>
<path style="fill-rule:evenodd;fill:rgb(100%,82.352942%,0%);fill-opacity:1;stroke-width:1.25;stroke-linecap:butt;stroke-linejoin:miter;stroke:rgb(93.725491%,54.11765%,6.27451%);stroke-opacity:1;stroke-miterlimit:4;" d="M 74.215038 52.372747 C 74.215038 52.372747 78.429615 46.56824 77.344424 40.78897 C 76.259234 35.0097 69.697617 38.618589 69.697617 40.637548 C 69.697617 42.681744 73.432691 45.634471 73.584113 46.896321 C 73.760772 48.132933 72.801767 51.893244 74.215038 52.372747 Z M 74.215038 52.372747 " transform="matrix(0.154783,0,0,0.154783,0.12998,0.41704)"/>
<path style="fill-rule:evenodd;fill:rgb(100%,82.352942%,0%);fill-opacity:1;stroke-width:1.25;stroke-linecap:butt;stroke-linejoin:miter;stroke:rgb(93.725491%,54.11765%,6.27451%);stroke-opacity:1;stroke-miterlimit:4;" d="M 65.306382 61.256166 C 65.306382 61.256166 69.520959 55.476896 68.435768 49.697626 C 67.350578 43.918356 60.788961 47.527245 60.788961 49.546204 C 60.788961 51.5904 64.524035 54.543128 64.675457 55.804977 C 64.852116 57.041589 63.918347 60.8019 65.306382 61.256166 Z M 65.306382 61.256166 " transform="matrix(0.154783,0,0,0.154783,0.12998,0.41704)"/>
<path style="fill-rule:evenodd;fill:rgb(100%,82.352942%,0%);fill-opacity:1;stroke-width:1.25;stroke-linecap:butt;stroke-linejoin:miter;stroke:rgb(93.725491%,54.11765%,6.27451%);stroke-opacity:1;stroke-miterlimit:4;" d="M 55.94346 69.861979 C 55.94346 69.861979 60.158036 64.082709 59.072846 58.303439 C 57.962419 52.524169 51.400802 56.107821 51.400802 58.152017 C 51.400802 60.170976 55.161113 63.14894 55.312535 64.385552 C 55.463957 65.647402 54.530188 69.382476 55.94346 69.861979 Z M 55.94346 69.861979 " transform="matrix(0.154783,0,0,0.154783,0.12998,0.41704)"/>
<path style="fill-rule:evenodd;fill:rgb(100%,82.352942%,0%);fill-opacity:1;stroke-width:1;stroke-linecap:butt;stroke-linejoin:miter;stroke:rgb(93.725491%,54.11765%,6.27451%);stroke-opacity:1;stroke-miterlimit:4;" d="M 77.495846 19.791797 C 77.495846 19.791797 71.867998 24.233507 71.363259 30.088488 C 70.883756 35.968705 78.152008 34.25259 78.707222 32.309342 C 79.262435 30.340857 76.435893 26.479598 76.612552 25.242986 C 76.814448 23.981137 78.732459 20.624618 77.495846 19.791797 Z M 77.495846 19.791797 " transform="matrix(0.154783,0,0,0.154783,0.12998,0.41704)"/>
<path style="fill-rule:evenodd;fill:rgb(100%,82.352942%,0%);fill-opacity:1;stroke-width:1;stroke-linecap:butt;stroke-linejoin:miter;stroke:rgb(93.725491%,54.11765%,6.27451%);stroke-opacity:1;stroke-miterlimit:4;" d="M 96.246927 14.012527 C 96.246927 14.012527 90.619079 18.454237 90.11434 24.309218 C 89.634837 30.164199 96.903089 28.47332 97.458303 26.530072 C 98.013517 24.561587 95.186974 20.700329 95.363633 19.463716 C 95.565529 18.201867 97.48354 14.845348 96.246927 14.012527 Z M 96.246927 14.012527 " transform="matrix(0.154783,0,0,0.154783,0.12998,0.41704)"/>
<path style="fill-rule:evenodd;fill:rgb(100%,82.352942%,0%);fill-opacity:1;stroke-width:1;stroke-linecap:butt;stroke-linejoin:miter;stroke:rgb(93.725491%,54.11765%,6.27451%);stroke-opacity:1;stroke-miterlimit:4;" d="M 26.365711 64.637922 C 26.365711 64.637922 27.55185 71.679042 32.447825 74.95985 C 37.3438 78.215421 39.362759 70.997643 37.924251 69.584372 C 36.460506 68.1711 31.715952 68.776788 30.706473 68.019679 C 29.722231 67.237332 27.678035 63.956524 26.365711 64.637922 Z M 26.365711 64.637922 " transform="matrix(0.154783,0,0,0.154783,0.12998,0.41704)"/>
<path style="fill-rule:evenodd;fill:rgb(100%,82.352942%,0%);fill-opacity:1;stroke-width:1;stroke-linecap:butt;stroke-linejoin:miter;stroke:rgb(93.725491%,54.11765%,6.27451%);stroke-opacity:1;stroke-miterlimit:4;" d="M 17.002789 88.587823 C 17.002789 88.587823 17.053263 95.755127 21.394025 99.742571 C 25.70955 103.730015 28.838936 96.941265 27.627561 95.300861 C 26.416185 93.685694 21.646395 93.534272 20.7631 92.625741 C 19.905043 91.717209 18.41606 88.133557 17.002789 88.587823 Z M 17.002789 88.587823 " transform="matrix(0.154783,0,0,0.154783,0.12998,0.41704)"/>
<path style="fill-rule:evenodd;fill:rgb(100%,82.352942%,0%);fill-opacity:1;stroke-width:1;stroke-linecap:butt;stroke-linejoin:miter;stroke:rgb(93.725491%,54.11765%,6.27451%);stroke-opacity:1;stroke-miterlimit:4;" d="M 38.60565 115.364266 C 38.60565 115.364266 36.056714 108.676464 30.605525 106.455609 C 25.154336 104.234754 24.599122 111.679666 26.315237 112.790093 C 28.006115 113.90052 32.548773 112.361064 33.684437 112.916278 C 34.820102 113.471492 37.444748 116.298034 38.60565 115.364266 Z M 38.60565 115.364266 " transform="matrix(0.154783,0,0,0.154783,0.12998,0.41704)"/>
<path style="fill-rule:evenodd;fill:rgb(100%,82.352942%,0%);fill-opacity:1;stroke-width:1;stroke-linecap:butt;stroke-linejoin:miter;stroke:rgb(93.725491%,54.11765%,6.27451%);stroke-opacity:1;stroke-miterlimit:4;" d="M 34.113466 103.805726 C 34.113466 103.805726 38.454228 98.102167 37.469985 92.29766 C 36.485743 86.493153 29.848415 89.975857 29.823178 91.994816 C 29.772704 94.013775 33.482542 97.06745 33.608726 98.3293 C 33.734911 99.565912 32.725432 103.300986 34.113466 103.805726 Z M 34.113466 103.805726 " transform="matrix(0.154783,0,0,0.154783,0.12998,0.41704)"/>
<path style="fill-rule:evenodd;fill:rgb(100%,82.352942%,0%);fill-opacity:1;stroke-width:1;stroke-linecap:butt;stroke-linejoin:miter;stroke:rgb(93.725491%,54.11765%,6.27451%);stroke-opacity:1;stroke-miterlimit:4;" d="M 169.156582 48.763858 C 169.156582 48.763858 175.667725 45.760656 177.510025 40.183282 C 179.377562 34.605908 171.882177 34.555434 170.897934 36.322023 C 169.913692 38.088612 171.755992 42.505085 171.276489 43.691223 C 170.796986 44.852125 168.147103 47.678667 169.156582 48.763858 Z M 169.156582 48.763858 " transform="matrix(0.154783,0,0,0.154783,0.12998,0.41704)"/>
<path style="fill-rule:evenodd;fill:rgb(100%,82.352942%,0%);fill-opacity:1;stroke-width:1;stroke-linecap:butt;stroke-linejoin:miter;stroke:rgb(93.725491%,54.11765%,6.27451%);stroke-opacity:1;stroke-miterlimit:4;" d="M 188.816195 58.555809 C 188.816195 58.555809 192.62698 52.524169 191.163234 46.82061 C 189.674252 41.117051 183.365005 45.154969 183.516427 47.173928 C 183.642612 49.192886 187.579582 51.918481 187.831952 53.155093 C 188.059085 54.391706 187.377686 58.177254 188.816195 58.555809 Z M 188.816195 58.555809 " transform="matrix(0.154783,0,0,0.154783,0.12998,0.41704)"/>
<path style="fill-rule:evenodd;fill:rgb(100%,82.352942%,0%);fill-opacity:1;stroke-width:1;stroke-linecap:butt;stroke-linejoin:miter;stroke:rgb(93.725491%,54.11765%,6.27451%);stroke-opacity:1;stroke-miterlimit:4;" d="M 242.444791 114.253838 C 242.444791 114.253838 239.895856 107.566037 234.444667 105.345182 C 228.993477 103.124327 228.438264 110.594475 230.154379 111.679666 C 231.845257 112.790093 236.387915 111.250637 237.523579 111.80585 C 238.659243 112.361064 241.28389 115.187607 242.444791 114.253838 Z M 242.444791 114.253838 " transform="matrix(0.154783,0,0,0.154783,0.12998,0.41704)"/>
<path style="fill-rule:evenodd;fill:rgb(100%,82.352942%,0%);fill-opacity:1;stroke-width:1;stroke-linecap:butt;stroke-linejoin:miter;stroke:rgb(93.725491%,54.11765%,6.27451%);stroke-opacity:1;stroke-miterlimit:4;" d="M 216.223562 118.392704 C 216.223562 118.392704 216.374984 111.250637 220.740983 107.313667 C 225.106981 103.376697 228.160657 110.21592 226.924045 111.831087 C 225.687432 113.446255 220.917642 113.521966 220.034347 114.430497 C 219.151053 115.339029 217.611596 118.872207 216.223562 118.392704 Z M 216.223562 118.392704 " transform="matrix(0.154783,0,0,0.154783,0.12998,0.41704)"/>
<path style="fill-rule:evenodd;fill:rgb(100%,82.352942%,0%);fill-opacity:1;stroke-width:1;stroke-linecap:butt;stroke-linejoin:miter;stroke:rgb(93.725491%,54.11765%,6.27451%);stroke-opacity:1;stroke-miterlimit:4;" d="M 212.008985 42.530322 C 212.008985 42.530322 205.321184 39.981386 200.021417 42.555559 C 194.746886 45.154969 199.945706 50.530447 201.888954 49.975233 C 203.857439 49.445256 205.724976 45.054021 206.885877 44.574518 C 208.046778 44.095015 211.908037 43.994067 212.008985 42.530322 Z M 212.008985 42.530322 " transform="matrix(0.154783,0,0,0.154783,0.12998,0.41704)"/>
<path style="fill-rule:evenodd;fill:rgb(100%,82.352942%,0%);fill-opacity:1;stroke-width:1;stroke-linecap:butt;stroke-linejoin:miter;stroke:rgb(93.725491%,54.11765%,6.27451%);stroke-opacity:1;stroke-miterlimit:4;" d="M 196.690134 29.709933 C 196.690134 29.709933 190.002333 27.160997 184.702566 29.760407 C 179.428036 32.334579 184.626855 37.710058 186.59534 37.180081 C 188.538588 36.624867 190.406125 32.233631 191.592263 31.754129 C 192.753165 31.274626 196.614423 31.198915 196.690134 29.709933 Z M 196.690134 29.709933 " transform="matrix(0.154783,0,0,0.154783,0.12998,0.41704)"/>
<path style="fill-rule:evenodd;fill:rgb(100%,82.352942%,0%);fill-opacity:1;stroke-width:1;stroke-linecap:butt;stroke-linejoin:miter;stroke:rgb(93.725491%,54.11765%,6.27451%);stroke-opacity:1;stroke-miterlimit:4;" d="M 173.850662 17.495231 C 173.850662 17.495231 168.197576 21.86123 167.617126 27.716211 C 167.036675 33.571192 174.355401 31.956025 174.910615 30.012777 C 175.491066 28.069529 172.714997 24.157796 172.916893 22.921183 C 173.118789 21.659334 175.087274 18.328052 173.850662 17.495231 Z M 173.850662 17.495231 " transform="matrix(0.154783,0,0,0.154783,0.12998,0.41704)"/>
<path style="fill-rule:evenodd;fill:rgb(100%,82.352942%,0%);fill-opacity:1;stroke-width:1;stroke-linecap:butt;stroke-linejoin:miter;stroke:rgb(93.725491%,54.11765%,6.27451%);stroke-opacity:1;stroke-miterlimit:4;" d="M 158.986076 13.911579 C 158.986076 13.911579 156.411904 20.574144 158.960839 25.899148 C 161.484538 31.198915 166.91049 26.025333 166.380513 24.056848 C 165.875774 22.1136 161.484538 20.195589 161.005035 19.034687 C 160.525533 17.873786 160.475059 14.012527 158.986076 13.911579 Z M 158.986076 13.911579 " transform="matrix(0.154783,0,0,0.154783,0.12998,0.41704)"/>
<path style="fill-rule:evenodd;fill:rgb(100%,82.352942%,0%);fill-opacity:1;stroke-width:1;stroke-linecap:butt;stroke-linejoin:miter;stroke:rgb(93.725491%,54.11765%,6.27451%);stroke-opacity:1;stroke-miterlimit:4;" d="M 116.815072 39.628069 C 116.815072 39.628069 121.458677 34.176879 120.777278 28.321898 C 120.09588 22.466918 113.30713 25.596304 113.155709 27.615263 C 113.004287 29.634222 116.537465 32.864556 116.587939 34.126405 C 116.66365 35.388255 115.452274 39.047618 116.815072 39.628069 Z M 116.815072 39.628069 " transform="matrix(0.154783,0,0,0.154783,0.12998,0.41704)"/>
<path style="fill-rule:evenodd;fill:rgb(54.901963%,54.11765%,54.901963%);fill-opacity:1;stroke-width:1.9196;stroke-linecap:butt;stroke-linejoin:miter;stroke:rgb(0%,0%,0%);stroke-opacity:1;stroke-miterlimit:4;" d="M 522.236237 103.720584 C 522.236237 103.720584 543.503556 105.077041 544.569345 117.285161 C 545.586688 129.493281 539.482628 136.953799 539.482628 136.953799 C 539.482628 136.953799 542.195544 163.307835 521.315783 171.010577 C 498.982675 173.723493 464.005443 171.640361 464.005443 171.640361 C 464.005443 171.640361 453.73512 174.159497 449.568857 152.843732 C 445.402594 131.576413 444.239915 116.558487 444.239915 116.558487 C 444.239915 116.558487 446.323047 104.641037 461.340972 103.865918 C 476.358897 103.139245 522.090902 104.059698 522.236237 103.720584 Z M 522.236237 103.720584 " transform="matrix(0.0806328,0,0,0.0806328,-20,-0.000000818203)"/>
<path style="fill:none;stroke-width:1.9196;stroke-linecap:round;stroke-linejoin:miter;stroke:rgb(0%,0%,0%);stroke-opacity:1;stroke-miterlimit:4;" d="M 539.337293 136.808464 C 539.337293 136.808464 527.904292 151.099715 529.06697 156.864661 " transform="matrix(0.0806328,0,0,0.0806328,-20,-0.000000818203)"/>
<path style="fill-rule:evenodd;fill:rgb(54.901963%,54.11765%,54.901963%);fill-opacity:1;stroke-width:1.9196;stroke-linecap:butt;stroke-linejoin:miter;stroke:rgb(0%,0%,0%);stroke-opacity:1;stroke-miterlimit:4;" d="M 524.028699 170.283904 C 526.838504 172.657705 529.551419 175.322175 530.132758 184.139151 C 530.714098 192.907681 531.295437 201.676212 531.295437 201.676212 L 546.216472 335.67486 L 559.2966 432.5647 L 560.217054 447.63107 C 560.217054 447.63107 557.068134 458.628067 548.299603 459.54852 C 541.904874 472.919318 507.218311 476.794912 503.778722 476.649577 C 500.629802 476.504242 489.632805 471.901975 482.947406 472.483314 C 476.213563 473.064653 464.635227 477.521586 459.403175 476.794912 C 454.219569 476.068238 442.447453 472.04731 440.364322 463.569449 C 425.782401 458.918736 423.4086 447.776405 423.4086 447.776405 L 439.153199 335.67486 L 454.510239 193.973469 C 454.510239 193.973469 456.302701 175.031506 463.860108 172.2217 C 471.75663 171.495027 512.547253 172.948374 524.028699 170.283904 Z M 524.028699 170.283904 " transform="matrix(0.0806328,0,0,0.0806328,-20,-0.000000818203)"/>
<path style="fill:none;stroke-width:1.9196;stroke-linecap:butt;stroke-linejoin:miter;stroke:rgb(0%,0%,0%);stroke-opacity:1;stroke-miterlimit:4;" d="M 443.610132 364.257363 L 440.509657 463.424114 " transform="matrix(0.0806328,0,0,0.0806328,-20,-0.000000818203)"/>
<path style="fill:none;stroke-width:1.9196;stroke-linecap:butt;stroke-linejoin:miter;stroke:rgb(0%,0%,0%);stroke-opacity:1;stroke-miterlimit:4;" d="M 539.967077 377.337491 L 548.735608 459.112516 " transform="matrix(0.0806328,0,0,0.0806328,-20,-0.000000818203)"/>
<path style="fill:none;stroke-width:1;stroke-linecap:butt;stroke-linejoin:miter;stroke:rgb(0%,0%,0%);stroke-opacity:1;stroke-miterlimit:4;" d="M 285.292133 312.760413 L 284.953019 313.874646 " transform="matrix(0.0806328,0,0,0.0806328,-20,-0.000000818203)"/>
<path style="fill:none;stroke-width:1;stroke-linecap:butt;stroke-linejoin:miter;stroke:rgb(0%,0%,0%);stroke-opacity:1;stroke-miterlimit:4;" d="M 697.122397 309.127044 L 697.461512 310.289722 " transform="matrix(0.0806328,0,0,0.0806328,-20,-0.000000818203)"/>
<path style="fill:none;stroke-width:1.9196;stroke-linecap:butt;stroke-linejoin:round;stroke:rgb(41.960785%,9.411765%,70.980394%);stroke-opacity:1;stroke-miterlimit:4;" d="M 274.246692 178.907099 C 274.246692 178.907099 280.738311 187.917854 281.949434 193.101461 C 283.112112 198.285067 285.292133 208.506945 288.101939 212.673209 C 290.960189 216.839472 307.189237 240.093033 308.012801 249.782017 C 308.20658 256.128302 301.327402 267.028409 291.153969 267.173743 C 284.759239 267.028409 268.384856 262.862146 267.706627 248.813119 C 267.028398 234.764092 272.744899 234.424978 273.423128 225.898672 C 274.052912 217.372366 274.246692 179.052434 274.246692 178.907099 Z M 274.246692 178.907099 " transform="matrix(0.0806328,0,0,0.0806328,-20,-0.000000818203)"/>
<path style="fill:none;stroke-width:1;stroke-linecap:butt;stroke-linejoin:round;stroke:rgb(41.960785%,9.411765%,70.980394%);stroke-opacity:1;stroke-miterlimit:4;" d="M 386.299791 55.905448 C 386.299791 55.905448 379.517503 56.389897 374.333896 59.199702 C 370.312968 61.718838 363.482234 65.255317 358.686187 71.892271 C 346.574957 81.339031 328.359667 85.747518 322.594722 93.595595 C 319.155132 98.924537 319.348912 111.810885 327.972108 117.236716 C 333.494829 120.385636 349.675432 125.327018 357.523509 113.700237 C 365.420031 102.025011 360.720874 98.779202 364.596467 91.173349 C 370.942752 73.636288 386.202901 56.050782 386.299791 55.905448 Z M 386.299791 55.905448 " transform="matrix(0.0806328,0,0,0.0806328,-20,-0.000000818203)"/>
<path style="fill:none;stroke-width:1;stroke-linecap:butt;stroke-linejoin:round;stroke:rgb(41.960785%,9.411765%,70.980394%);stroke-opacity:1;stroke-miterlimit:4;" d="M 550.092065 38.852836 C 550.092065 38.852836 545.053794 34.347458 539.385738 32.554996 C 534.831916 31.392318 527.177618 31.925212 519.281096 31.150094 C 504.020947 29.018517 488.324793 17.973075 478.684254 19.329533 C 472.483304 20.540656 463.375659 29.648301 465.45879 39.627955 C 467.057473 45.780459 473.936651 58.230804 487.791898 55.808558 C 501.647146 53.337867 501.501811 50.334282 509.689002 47.766701 C 529.599864 36.62437 549.898286 38.901281 550.092065 38.852836 Z M 550.092065 38.852836 " transform="matrix(0.0806328,0,0,0.0806328,-20,-0.000000818203)"/>
<path style="fill:none;stroke-width:1;stroke-linecap:butt;stroke-linejoin:round;stroke:rgb(41.960785%,9.411765%,70.980394%);stroke-opacity:1;stroke-miterlimit:4;" d="M 712.527882 196.73483 C 713.642115 194.118804 711.558984 189.274312 710.057191 183.557812 C 708.652288 179.003989 706.472267 172.027921 701.191771 165.826971 C 694.942376 151.777944 696.008164 132.496866 689.75877 125.036348 C 685.398727 120.434081 672.899937 117.527386 665.53631 124.600344 C 661.127822 129.202612 652.456181 143.736087 661.902941 154.151745 C 671.301255 164.615848 675.419073 160.643365 681.910693 166.262975 C 697.364622 176.630188 704.922029 194.845478 712.527882 196.73483 Z M 712.527882 196.73483 " transform="matrix(0.0806328,0,0,0.0806328,-20,-0.000000818203)"/>
<path style="fill:none;stroke-width:1;stroke-linecap:butt;stroke-linejoin:round;stroke:rgb(41.960785%,9.411765%,70.980394%);stroke-opacity:1;stroke-miterlimit:4;" d="M 706.956716 319.397367 C 709.088293 316.490672 712.866996 310.871061 712.430992 306.171904 C 712.043433 302.441645 714.126564 291.202424 714.368789 286.261042 C 715.725247 270.952447 725.317341 258.502103 722.74976 245.228195 C 721.199523 239.027245 712.140323 230.258714 702.257559 232.826295 C 696.201944 234.667202 682.685811 242.12772 685.786286 255.837632 C 688.935206 269.547544 693.343694 269.353765 696.250389 277.395621 C 704.679805 294.012229 699.302419 313.729311 706.956716 319.397367 Z M 706.956716 319.397367 " transform="matrix(0.0806328,0,0,0.0806328,-20,-0.000000818203)"/>
<path style="fill:none;stroke-width:1.9196;stroke-linecap:butt;stroke-linejoin:miter;stroke:rgb(0%,0%,0%);stroke-opacity:1;stroke-miterlimit:4;" d="M 594.273832 416.771656 C 594.273832 416.771656 591.706252 421.761483 602.073465 426.121526 " transform="matrix(0.0806328,0,0,0.0806328,-20,-0.000000818203)"/>
<path style="fill:none;stroke-width:1.9196;stroke-linecap:butt;stroke-linejoin:miter;stroke:rgb(0%,0%,0%);stroke-opacity:1;stroke-miterlimit:4;" d="M 615.056703 404.999541 C 615.056703 404.999541 626.635039 402.189735 634.434671 404.999541 " transform="matrix(0.0806328,0,0,0.0806328,-20,-0.000000818203)"/>
<path style="fill:none;stroke-width:1.9196;stroke-linecap:butt;stroke-linejoin:miter;stroke:rgb(0%,0%,0%);stroke-opacity:1;stroke-miterlimit:4;" d="M 649.597931 375.835699 C 649.597931 376.029478 647.999249 381.019305 657.203783 388.189153 " transform="matrix(0.0806328,0,0,0.0806328,-20,-0.000000818203)"/>
<path style="fill:none;stroke-width:1.9196;stroke-linecap:butt;stroke-linejoin:miter;stroke:rgb(0%,0%,0%);stroke-opacity:1;stroke-miterlimit:4;" d="M 656.18644 362.85246 C 656.18644 362.85246 662.968729 367.842287 674.353285 367.648507 " transform="matrix(0.0806328,0,0,0.0806328,-20,-0.000000818203)"/>
<path style="fill:none;stroke-width:1.9196;stroke-linecap:butt;stroke-linejoin:miter;stroke:rgb(0%,0%,0%);stroke-opacity:1;stroke-miterlimit:4;" d="M 587.685323 377.434381 C 587.685323 377.434381 588.121328 390.611399 581.290594 396.763904 " transform="matrix(0.0806328,0,0,0.0806328,-20,-0.000000818203)"/>
<path style="fill:none;stroke-width:1.9196;stroke-linecap:butt;stroke-linejoin:miter;stroke:rgb(0%,0%,0%);stroke-opacity:1;stroke-miterlimit:4;" d="M 610.454436 357.03907 C 610.454436 357.03907 621.645212 359.848875 630.849747 355.246608 " transform="matrix(0.0806328,0,0,0.0806328,-20,-0.000000818203)"/>
<path style="fill:none;stroke-width:1.9196;stroke-linecap:butt;stroke-linejoin:miter;stroke:rgb(0%,0%,0%);stroke-opacity:1;stroke-miterlimit:4;" d="M 682.152917 337.709547 C 682.152917 337.709547 684.526718 341.100691 696.928618 340.470907 " transform="matrix(0.0806328,0,0,0.0806328,-20,-0.000000818203)"/>
<path style="fill:none;stroke-width:1.9196;stroke-linecap:butt;stroke-linejoin:miter;stroke:rgb(0%,0%,0%);stroke-opacity:1;stroke-miterlimit:4;" d="M 633.853332 329.909915 C 634.240891 330.103694 648.386808 334.705962 657.397563 330.491254 " transform="matrix(0.0806328,0,0,0.0806328,-20,-0.000000818203)"/>
<path style="fill:none;stroke-width:1.9196;stroke-linecap:butt;stroke-linejoin:miter;stroke:rgb(0%,0%,0%);stroke-opacity:1;stroke-miterlimit:4;" d="M 662.19361 275.603159 C 662.19361 275.603159 662.774949 274.779596 667.183437 290.18508 " transform="matrix(0.0806328,0,0,0.0806328,-20,-0.000000818203)"/>
<path style="fill:none;stroke-width:1.9196;stroke-linecap:butt;stroke-linejoin:miter;stroke:rgb(0%,0%,0%);stroke-opacity:1;stroke-miterlimit:4;" d="M 673.142162 232.244956 C 673.142162 232.244956 672.560823 240.432148 665.972314 244.017072 " transform="matrix(0.0806328,0,0,0.0806328,-20,-0.000000818203)"/>
<path style="fill:none;stroke-width:1.9196;stroke-linecap:butt;stroke-linejoin:miter;stroke:rgb(0%,0%,0%);stroke-opacity:1;stroke-miterlimit:4;" d="M 715.289242 198.721072 C 715.289242 198.721072 705.697148 206.520704 707.48961 209.669623 " transform="matrix(0.0806328,0,0,0.0806328,-20,-0.000000818203)"/>
<path style="fill:none;stroke-width:1.9196;stroke-linecap:butt;stroke-linejoin:miter;stroke:rgb(0%,0%,0%);stroke-opacity:1;stroke-miterlimit:4;" d="M 667.570996 193.101461 C 667.570996 193.101461 672.560823 201.482432 664.373632 207.295822 " transform="matrix(0.0806328,0,0,0.0806328,-20,-0.000000818203)"/>
<path style="fill:none;stroke-width:1.9196;stroke-linecap:butt;stroke-linejoin:miter;stroke:rgb(0%,0%,0%);stroke-opacity:1;stroke-miterlimit:4;" d="M 643.396981 157.203775 C 643.396981 157.203775 652.020177 156.767771 655.798881 164.179844 " transform="matrix(0.0806328,0,0,0.0806328,-20,-0.000000818203)"/>
<path style="fill:none;stroke-width:1.9196;stroke-linecap:butt;stroke-linejoin:miter;stroke:rgb(0%,0%,0%);stroke-opacity:1;stroke-miterlimit:4;" d="M 627.216378 132.835981 L 633.853332 132.835981 " transform="matrix(0.0806328,0,0,0.0806328,-20,-0.000000818203)"/>
<path style="fill:none;stroke-width:1.9196;stroke-linecap:butt;stroke-linejoin:miter;stroke:rgb(0%,0%,0%);stroke-opacity:1;stroke-miterlimit:4;" d="M 661.370046 102.848575 C 661.370046 103.0908 663.162509 104.689482 659.771364 108.080626 " transform="matrix(0.0806328,0,0,0.0806328,-20,-0.000000818203)"/>
<path style="fill:none;stroke-width:1.9196;stroke-linecap:butt;stroke-linejoin:miter;stroke:rgb(0%,0%,0%);stroke-opacity:1;stroke-miterlimit:4;" d="M 600.087223 103.672139 C 600.087223 103.672139 604.68949 110.841987 603.865927 119.658962 " transform="matrix(0.0806328,0,0,0.0806328,-20,-0.000000818203)"/>
<path style="fill:none;stroke-width:1.9196;stroke-linecap:butt;stroke-linejoin:miter;stroke:rgb(0%,0%,0%);stroke-opacity:1;stroke-miterlimit:4;" d="M 626.635039 79.304344 C 628.621281 79.110564 635.403569 76.106979 635.403569 76.106979 " transform="matrix(0.0806328,0,0,0.0806328,-20,-0.000000818203)"/>
<path style="fill:none;stroke-width:1.9196;stroke-linecap:butt;stroke-linejoin:miter;stroke:rgb(0%,0%,0%);stroke-opacity:1;stroke-miterlimit:4;" d="M 597.083638 50.770286 C 596.889858 50.770286 594.516057 59.732596 598.8761 62.929961 " transform="matrix(0.0806328,0,0,0.0806328,-20,-0.000000818203)"/>
<path style="fill:none;stroke-width:1.9196;stroke-linecap:butt;stroke-linejoin:miter;stroke:rgb(0%,0%,0%);stroke-opacity:1;stroke-miterlimit:4;" d="M 586.086641 91.706244 C 586.086641 101.249893 593.692493 98.876092 588.508887 108.080626 " transform="matrix(0.0806328,0,0,0.0806328,-20,-0.000000818203)"/>
<path style="fill:none;stroke-width:1.9196;stroke-linecap:butt;stroke-linejoin:miter;stroke:rgb(0%,0%,0%);stroke-opacity:1;stroke-miterlimit:4;" d="M 567.532237 83.712832 C 567.338457 83.712832 555.566341 92.868922 555.566341 94.467604 " transform="matrix(0.0806328,0,0,0.0806328,-20,-0.000000818203)"/>
<path style="fill:none;stroke-width:1.9196;stroke-linecap:butt;stroke-linejoin:miter;stroke:rgb(0%,0%,0%);stroke-opacity:1;stroke-miterlimit:4;" d="M 536.769713 78.723005 C 536.769713 78.723005 541.759539 83.712832 540.596861 90.495121 " transform="matrix(0.0806328,0,0,0.0806328,-20,-0.000000818203)"/>
<path style="fill:none;stroke-width:1.9196;stroke-linecap:butt;stroke-linejoin:miter;stroke:rgb(0%,0%,0%);stroke-opacity:1;stroke-miterlimit:4;" d="M 522.187792 74.702077 C 522.187792 74.702077 519.620211 82.307929 516.229066 84.294171 " transform="matrix(0.0806328,0,0,0.0806328,-20,-0.000000818203)"/>
<path style="fill:none;stroke-width:1.9196;stroke-linecap:butt;stroke-linejoin:miter;stroke:rgb(0%,0%,0%);stroke-opacity:1;stroke-miterlimit:4;" d="M 495.639976 72.715835 C 495.446196 73.103394 491.473712 81.72659 488.663907 83.276827 " transform="matrix(0.0806328,0,0,0.0806328,-20,-0.000000818203)"/>
<path style="fill:none;stroke-width:1.9196;stroke-linecap:butt;stroke-linejoin:miter;stroke:rgb(0%,0%,0%);stroke-opacity:1;stroke-miterlimit:4;" d="M 459.306286 72.909615 C 459.500065 72.909615 463.327214 80.903026 458.288942 86.716417 " transform="matrix(0.0806328,0,0,0.0806328,-20,-0.000000818203)"/>
<path style="fill:none;stroke-width:1.9196;stroke-linecap:butt;stroke-linejoin:miter;stroke:rgb(0%,0%,0%);stroke-opacity:1;stroke-miterlimit:4;" d="M 450.925314 31.586098 C 451.119094 31.779878 451.700433 37.787048 447.921729 42.970654 " transform="matrix(0.0806328,0,0,0.0806328,-20,-0.000000818203)"/>
<path style="fill:none;stroke-width:1.9196;stroke-linecap:butt;stroke-linejoin:miter;stroke:rgb(0%,0%,0%);stroke-opacity:1;stroke-miterlimit:4;" d="M 414.979184 45.150675 C 414.979184 45.344455 416.577866 51.932964 406.016874 54.161431 " transform="matrix(0.0806328,0,0,0.0806328,-20,-0.000000818203)"/>
<path style="fill:none;stroke-width:1.9196;stroke-linecap:butt;stroke-linejoin:miter;stroke:rgb(0%,0%,0%);stroke-opacity:1;stroke-miterlimit:4;" d="M 394.632318 106.04594 C 394.826097 106.481944 404.805751 108.080626 404.805751 108.080626 " transform="matrix(0.0806328,0,0,0.0806328,-20,-0.000000818203)"/>
<path style="fill:none;stroke-width:1.9196;stroke-linecap:butt;stroke-linejoin:miter;stroke:rgb(0%,0%,0%);stroke-opacity:1;stroke-miterlimit:4;" d="M 369.683184 129.251056 C 369.876963 129.008832 381.842859 125.423908 381.842859 125.423908 " transform="matrix(0.0806328,0,0,0.0806328,-20,-0.000000818203)"/>
<path style="fill:none;stroke-width:1.9196;stroke-linecap:butt;stroke-linejoin:miter;stroke:rgb(0%,0%,0%);stroke-opacity:1;stroke-miterlimit:4;" d="M 350.305216 144.220537 C 350.692775 144.220537 358.686187 145.576994 360.672429 144.608096 " transform="matrix(0.0806328,0,0,0.0806328,-20,-0.000000818203)"/>
<path style="fill:none;stroke-width:1.9196;stroke-linecap:butt;stroke-linejoin:miter;stroke:rgb(0%,0%,0%);stroke-opacity:1;stroke-miterlimit:4;" d="M 344.685605 151.584165 C 344.685605 151.584165 347.301631 152.989067 345.121609 166.359865 " transform="matrix(0.0806328,0,0,0.0806328,-20,-0.000000818203)"/>
<path style="fill:none;stroke-width:1.9196;stroke-linecap:butt;stroke-linejoin:miter;stroke:rgb(0%,0%,0%);stroke-opacity:1;stroke-miterlimit:4;" d="M 305.735889 116.461598 L 310.531937 123.631446 " transform="matrix(0.0806328,0,0,0.0806328,-20,-0.000000818203)"/>
<path style="fill:none;stroke-width:1.9196;stroke-linecap:butt;stroke-linejoin:miter;stroke:rgb(0%,0%,0%);stroke-opacity:1;stroke-miterlimit:4;" d="M 289.409951 153.376627 C 289.409951 153.182847 294.205999 160.59492 300.552283 161.999822 " transform="matrix(0.0806328,0,0,0.0806328,-20,-0.000000818203)"/>
<path style="fill:none;stroke-width:1.9196;stroke-linecap:butt;stroke-linejoin:miter;stroke:rgb(0%,0%,0%);stroke-opacity:1;stroke-miterlimit:4;" d="M 327.148544 190.921439 C 327.342324 190.921439 334.899731 189.322757 336.110854 188.547638 " transform="matrix(0.0806328,0,0,0.0806328,-20,-0.000000818203)"/>
<path style="fill:none;stroke-width:1.9196;stroke-linecap:butt;stroke-linejoin:miter;stroke:rgb(0%,0%,0%);stroke-opacity:1;stroke-miterlimit:4;" d="M 323.708955 218.09904 C 323.951179 218.09904 323.515175 213.109213 329.716125 209.669623 " transform="matrix(0.0806328,0,0,0.0806328,-20,-0.000000818203)"/>
<path style="fill:none;stroke-width:1.9196;stroke-linecap:butt;stroke-linejoin:miter;stroke:rgb(0%,0%,0%);stroke-opacity:1;stroke-miterlimit:4;" d="M 315.521763 230.452494 C 315.521763 230.646274 321.335154 237.864567 325.307637 238.833465 " transform="matrix(0.0806328,0,0,0.0806328,-20,-0.000000818203)"/>
<path style="fill:none;stroke-width:1.9196;stroke-linecap:butt;stroke-linejoin:miter;stroke:rgb(0%,0%,0%);stroke-opacity:1;stroke-miterlimit:4;" d="M 312.130619 244.259296 C 312.760403 244.017072 318.961353 238.639686 326.131201 239.027245 " transform="matrix(0.0806328,0,0,0.0806328,-20,-0.000000818203)"/>
<path style="fill:none;stroke-width:1.9196;stroke-linecap:butt;stroke-linejoin:miter;stroke:rgb(0%,0%,0%);stroke-opacity:1;stroke-miterlimit:4;" d="M 310.144377 262.813701 C 310.144377 262.813701 310.338157 269.01465 328.698782 267.415968 " transform="matrix(0.0806328,0,0,0.0806328,-20,-0.000000818203)"/>
<path style="fill:none;stroke-width:1.9196;stroke-linecap:butt;stroke-linejoin:miter;stroke:rgb(0%,0%,0%);stroke-opacity:1;stroke-miterlimit:4;" d="M 311.936839 284.56547 C 311.936839 284.37169 317.36267 272.212015 328.311222 267.609748 " transform="matrix(0.0806328,0,0,0.0806328,-20,-0.000000818203)"/>
<path style="fill:none;stroke-width:1.9196;stroke-linecap:butt;stroke-linejoin:miter;stroke:rgb(0%,0%,0%);stroke-opacity:1;stroke-miterlimit:4;" d="M 326.71254 300.164734 C 326.71254 300.164734 328.311222 294.981127 337.515757 291.347758 " transform="matrix(0.0806328,0,0,0.0806328,-20,-0.000000818203)"/>
<path style="fill:none;stroke-width:1.9196;stroke-linecap:butt;stroke-linejoin:miter;stroke:rgb(0%,0%,0%);stroke-opacity:1;stroke-miterlimit:4;" d="M 336.885973 320.70538 C 336.885973 320.70538 343.522927 315.327994 345.896728 314.50443 " transform="matrix(0.0806328,0,0,0.0806328,-20,-0.000000818203)"/>
<path style="fill:none;stroke-width:1.9196;stroke-linecap:butt;stroke-linejoin:miter;stroke:rgb(0%,0%,0%);stroke-opacity:1;stroke-miterlimit:4;" d="M 345.121609 336.692203 C 345.121609 336.692203 349.094093 340.906911 359.073746 333.688618 " transform="matrix(0.0806328,0,0,0.0806328,-20,-0.000000818203)"/>
<path style="fill:none;stroke-width:1.9196;stroke-linecap:butt;stroke-linejoin:miter;stroke:rgb(0%,0%,0%);stroke-opacity:1;stroke-miterlimit:4;" d="M 296.967359 340.083348 C 298.178482 339.889568 312.760403 336.498424 317.75023 344.055831 " transform="matrix(0.0806328,0,0,0.0806328,-20,-0.000000818203)"/>
<path style="fill:none;stroke-width:1.9196;stroke-linecap:butt;stroke-linejoin:miter;stroke:rgb(0%,0%,0%);stroke-opacity:1;stroke-miterlimit:4;" d="M 302.780749 352.049243 C 302.780749 352.049243 318.137789 350.063001 320.124031 351.661684 " transform="matrix(0.0806328,0,0,0.0806328,-20,-0.000000818203)"/>
<path style="fill:none;stroke-width:1.9196;stroke-linecap:butt;stroke-linejoin:miter;stroke:rgb(0%,0%,0%);stroke-opacity:1;stroke-miterlimit:4;" d="M 357.668844 355.246608 C 357.668844 355.246608 355.682602 359.461316 374.673011 352.485247 " transform="matrix(0.0806328,0,0,0.0806328,-20,-0.000000818203)"/>
<path style="fill:none;stroke-width:1.9196;stroke-linecap:butt;stroke-linejoin:miter;stroke:rgb(0%,0%,0%);stroke-opacity:1;stroke-miterlimit:4;" d="M 381.26152 362.85246 C 377.82193 368.617406 382.036638 373.219673 377.628151 375.835699 " transform="matrix(0.0806328,0,0,0.0806328,-20,-0.000000818203)"/>
<path style="fill:none;stroke-width:1.9196;stroke-linecap:butt;stroke-linejoin:miter;stroke:rgb(0%,0%,0%);stroke-opacity:1;stroke-miterlimit:4;" d="M 323.515175 370.845872 C 324.144959 370.409868 330.539688 368.229846 329.522345 359.025312 " transform="matrix(0.0806328,0,0,0.0806328,-20,-0.000000818203)"/>
<path style="fill:none;stroke-width:1.9196;stroke-linecap:butt;stroke-linejoin:miter;stroke:rgb(0%,0%,0%);stroke-opacity:1;stroke-miterlimit:4;" d="M 329.328565 384.604229 C 330.103684 384.41045 340.713122 379.808182 342.893143 382.230428 " transform="matrix(0.0806328,0,0,0.0806328,-20,-0.000000818203)"/>
<path style="fill:none;stroke-width:1.9196;stroke-linecap:butt;stroke-linejoin:miter;stroke:rgb(0%,0%,0%);stroke-opacity:1;stroke-miterlimit:4;" d="M 350.111436 397.975027 C 350.111436 397.975027 351.467894 388.625158 354.471479 387.607814 " transform="matrix(0.0806328,0,0,0.0806328,-20,-0.000000818203)"/>
<path style="fill:none;stroke-width:1.9196;stroke-linecap:butt;stroke-linejoin:miter;stroke:rgb(0%,0%,0%);stroke-opacity:1;stroke-miterlimit:4;" d="M 366.049815 412.169389 C 366.049815 412.169389 374.86679 411.975609 378.645494 409.165804 " transform="matrix(0.0806328,0,0,0.0806328,-20,-0.000000818203)"/>
<path style="fill:none;stroke-width:1.9196;stroke-linecap:butt;stroke-linejoin:miter;stroke:rgb(0%,0%,0%);stroke-opacity:1;stroke-miterlimit:4;" d="M 383.053982 380.437966 C 383.247761 380.631746 391.192728 384.798009 408.196895 380.631746 " transform="matrix(0.0806328,0,0,0.0806328,-20,-0.000000818203)"/>
<path style="fill:none;stroke-width:1.9196;stroke-linecap:butt;stroke-linejoin:miter;stroke:rgb(0%,0%,0%);stroke-opacity:1;stroke-miterlimit:4;" d="M 389.400266 418.564118 C 389.400266 418.564118 391.822512 430.723793 391.628732 433.533598 " transform="matrix(0.0806328,0,0,0.0806328,-20,-0.000000818203)"/>
<path style="fill-rule:evenodd;fill:rgb(87.058824%,12.54902%,6.27451%);fill-opacity:1;stroke-width:1.25;stroke-linecap:butt;stroke-linejoin:miter;stroke:rgb(0%,0%,0%);stroke-opacity:1;stroke-miterlimit:4;" d="M 232.829338 119.033984 C 232.839003 116.924189 232.042385 114.970913 230.762002 113.925415 C 229.459043 112.851745 227.859377 112.861145 226.569329 113.925441 C 225.282506 114.964695 224.479458 116.927372 224.495595 119.040296 C 224.48593 121.15009 225.285773 123.078324 226.562931 124.148864 C 227.869115 125.197493 229.468781 125.188092 230.755604 124.148838 C 232.045651 123.084542 232.845474 121.146908 232.829338 119.033984 Z M 232.829338 119.033984 " transform="matrix(0.14907,-0.0186327,0.0191977,0.153588,-0.867981,4.704517)"/>
<path style="fill-rule:evenodd;fill:rgb(87.058824%,12.54902%,6.27451%);fill-opacity:1;stroke-width:1.25;stroke-linecap:butt;stroke-linejoin:miter;stroke:rgb(0%,0%,0%);stroke-opacity:1;stroke-miterlimit:4;" d="M 232.832358 119.026997 C 232.842023 116.917203 232.045405 114.963927 230.765022 113.918429 C 229.458838 112.8698 227.862397 112.854159 226.572349 113.918455 C 225.282302 114.98275 224.482479 116.920385 224.472814 119.030179 C 224.48895 121.143103 225.285568 123.09638 226.565951 124.141878 C 227.872135 125.190506 229.468576 125.206148 230.758624 124.141852 C 232.048672 123.077556 232.848495 121.139921 232.832358 119.026997 Z M 232.832358 119.026997 " transform="matrix(0.14907,-0.0186327,0.0191977,0.153588,-1.00111,3.068928)"/>
<path style="fill-rule:evenodd;fill:rgb(87.058824%,12.54902%,6.27451%);fill-opacity:1;stroke-width:1.25;stroke-linecap:butt;stroke-linejoin:miter;stroke:rgb(0%,0%,0%);stroke-opacity:1;stroke-miterlimit:4;" d="M 232.833805 119.033461 C 232.851053 116.92009 232.03453 114.967871 230.750116 113.924603 C 229.471182 112.856664 227.87488 112.858257 226.573218 113.92836 C 225.277037 114.973793 224.47184 116.922286 224.48001 119.040976 C 224.49366 121.134996 225.284765 123.081895 226.563699 124.149834 C 227.873531 125.198421 229.469833 125.196828 230.740597 124.146076 C 232.042259 123.075974 232.847455 121.127481 232.833805 119.033461 Z M 232.833805 119.033461 " transform="matrix(0.146856,-0.0316608,0.0326205,0.151306,-2.415886,4.626816)"/>
<path style="fill-rule:evenodd;fill:rgb(87.058824%,12.54902%,6.27451%);fill-opacity:1;stroke-width:1.25;stroke-linecap:butt;stroke-linejoin:miter;stroke:rgb(0%,0%,0%);stroke-opacity:1;stroke-miterlimit:4;" d="M 232.840947 119.017805 C 232.831658 116.918446 232.042238 114.972207 230.758505 113.914507 C 229.474773 112.856808 227.870025 112.858032 226.560622 113.910759 C 225.274401 114.974918 224.482254 116.933814 224.491543 119.033173 C 224.465872 121.1436 225.278474 123.101271 226.573985 124.136472 C 227.857717 125.194171 229.462465 125.192947 230.748687 124.128788 C 232.046311 123.09856 232.838458 121.139664 232.840947 119.017805 Z M 232.840947 119.017805 " transform="matrix(0.133934,-0.0680518,0.0701135,0.137992,-4.475271,12.859247)"/>
<path style="fill-rule:evenodd;fill:rgb(87.058824%,12.54902%,6.27451%);fill-opacity:1;stroke-width:1.25;stroke-linecap:butt;stroke-linejoin:miter;stroke:rgb(0%,0%,0%);stroke-opacity:1;stroke-miterlimit:4;" d="M 232.842352 119.043594 C 232.844841 116.921735 232.055421 114.975496 230.748508 113.906365 C 229.452997 112.871164 227.860027 112.84989 226.573805 113.914049 C 225.287584 114.978208 224.472256 116.925671 224.481545 119.025031 C 224.479056 121.146889 225.268476 123.093128 226.587168 124.139761 C 227.8709 125.19746 229.452467 125.184804 230.750092 124.154576 C 232.036313 123.090417 232.851641 121.142953 232.842352 119.043594 Z M 232.842352 119.043594 " transform="matrix(0.133934,-0.0680518,0.0701135,0.137992,-5.121798,11.394846)"/>
<path style="fill-rule:evenodd;fill:rgb(87.058824%,12.54902%,6.27451%);fill-opacity:1;stroke-width:1.25;stroke-linecap:butt;stroke-linejoin:miter;stroke:rgb(0%,0%,0%);stroke-opacity:1;stroke-miterlimit:4;" d="M 232.830098 119.038456 C 232.844008 116.909002 232.034534 114.967094 230.743403 113.923085 C 229.465971 112.857626 227.864689 112.874084 226.587046 113.916628 C 225.273604 114.967327 224.481795 116.925693 224.481584 119.033696 C 224.481373 121.141699 225.290847 123.083608 226.568279 124.149067 C 227.85941 125.193075 229.446994 125.198068 230.760436 124.147369 C 232.051777 123.083375 232.829887 121.146459 232.830098 119.038456 Z M 232.830098 119.038456 " transform="matrix(0.12769,-0.0791497,0.0815473,0.131559,-5.948957,13.271742)"/>
<path style="fill-rule:evenodd;fill:rgb(87.058824%,12.54902%,6.27451%);fill-opacity:1;stroke-width:1.25;stroke-linecap:butt;stroke-linejoin:miter;stroke:rgb(0%,0%,0%);stroke-opacity:1;stroke-miterlimit:4;" d="M 232.838584 119.024702 C 232.845889 116.935071 232.035659 114.970153 230.739275 113.914962 C 229.463563 112.87508 227.867075 112.867387 226.584057 113.917135 C 225.264596 114.971641 224.478337 116.928866 224.491704 119.033805 C 224.468627 121.143501 225.294629 123.088355 226.570341 124.128237 C 227.850954 125.203492 229.463214 125.191121 230.746231 124.141372 C 232.029249 123.091624 232.836179 121.149705 232.838584 119.024702 Z M 232.838584 119.024702 " transform="matrix(0.11944,-0.0911237,0.093885,0.123058,-6.519951,15.652146)"/>
<path style="fill-rule:evenodd;fill:rgb(87.058824%,12.54902%,6.27451%);fill-opacity:1;stroke-width:1.25;stroke-linecap:butt;stroke-linejoin:miter;stroke:rgb(0%,0%,0%);stroke-opacity:1;stroke-miterlimit:4;" d="M 232.852602 119.027458 C 232.841422 116.921451 232.03775 114.96699 230.763402 113.917307 C 229.452285 112.867204 227.871206 112.849103 226.571269 113.905005 C 225.289501 114.978963 224.475324 116.914902 224.486505 119.020908 C 224.479084 121.144548 225.282756 123.099009 226.575705 124.131058 C 227.868221 125.198795 229.467902 125.199263 230.767838 124.14336 C 232.031005 123.087036 232.845181 121.151097 232.852602 119.027458 Z M 232.852602 119.027458 " transform="matrix(0.104969,-0.107475,0.110732,0.10815,-6.376312,19.910839)"/>
<path style="fill-rule:evenodd;fill:rgb(87.058824%,12.54902%,6.27451%);fill-opacity:1;stroke-width:1.25;stroke-linecap:butt;stroke-linejoin:miter;stroke:rgb(0%,0%,0%);stroke-opacity:1;stroke-miterlimit:4;" d="M 232.839927 119.036485 C 232.845522 116.9199 232.056367 114.97406 230.745537 113.926343 C 229.454901 112.862727 227.86697 112.845538 226.587119 113.918107 C 225.290888 114.971077 224.471918 116.915626 224.486517 119.016313 C 224.480922 121.132899 225.286457 123.098338 226.560713 124.142354 C 227.871543 125.190072 229.459474 125.207261 230.755705 124.154291 C 232.035556 123.081722 232.854526 121.137173 232.839927 119.036485 Z M 232.839927 119.036485 " transform="matrix(0.0946373,-0.116674,0.12021,0.0975054,-6.473671,22.102563)"/>
<path style="fill-rule:evenodd;fill:rgb(87.058824%,12.54902%,6.27451%);fill-opacity:1;stroke-width:1.25;stroke-linecap:butt;stroke-linejoin:miter;stroke:rgb(0%,0%,0%);stroke-opacity:1;stroke-miterlimit:4;" d="M 232.840425 119.02477 C 232.833966 116.911799 232.033322 114.973831 230.754596 113.907151 C 229.453237 112.852895 227.869696 112.852328 226.574796 113.911042 C 225.279896 114.969756 224.474365 116.919581 224.480824 119.032552 C 224.487283 121.145522 225.287927 123.08349 226.566653 124.15017 C 227.868012 125.204427 229.451554 125.204993 230.746454 124.146279 C 232.041354 123.087565 232.846884 121.13774 232.840425 119.02477 Z M 232.840425 119.02477 " transform="matrix(0.0739552,-0.130767,0.134729,0.0761964,-4.841796,26.94881)"/>
<path style="fill-rule:evenodd;fill:rgb(87.058824%,12.54902%,6.27451%);fill-opacity:1;stroke-width:1.25;stroke-linecap:butt;stroke-linejoin:miter;stroke:rgb(0%,0%,0%);stroke-opacity:1;stroke-miterlimit:4;" d="M 232.837534 119.030067 C 232.854963 116.918504 232.03906 114.977825 230.744823 113.910865 C 229.461273 112.866913 227.866683 112.872622 226.578722 113.906852 C 225.277743 114.974462 224.475353 116.931224 224.481629 119.032414 C 224.487904 121.133604 225.280103 123.084656 226.57434 124.151615 C 227.85789 125.195568 229.45248 125.189859 230.764145 124.145256 C 232.04142 123.088018 232.84381 121.131257 232.837534 119.030067 Z M 232.837534 119.030067 " transform="matrix(0.0617475,-0.136955,0.141105,0.0636173,-4.387664,29.022898)"/>
<path style="fill-rule:evenodd;fill:rgb(87.058824%,12.54902%,6.27451%);fill-opacity:1;stroke-width:1.25;stroke-linecap:butt;stroke-linejoin:miter;stroke:rgb(0%,0%,0%);stroke-opacity:1;stroke-miterlimit:4;" d="M 232.845887 119.03248 C 232.844779 116.932356 232.033848 114.963348 230.745968 113.920757 C 229.449015 112.854516 227.86954 112.859859 226.582768 113.917392 C 225.271629 114.983732 224.484937 116.910783 224.495118 119.034556 C 224.471859 121.143487 225.273717 123.088845 226.57067 124.155086 C 227.858549 125.197677 229.471466 125.207177 230.758238 124.149644 C 232.045009 123.092111 232.846994 121.132603 232.845887 119.03248 Z M 232.845887 119.03248 " transform="matrix(0.0524265,-0.140786,0.145053,0.0540145,-4.285816,30.414396)"/>
<path style="fill-rule:evenodd;fill:rgb(87.058824%,12.54902%,6.27451%);fill-opacity:1;stroke-width:1.25;stroke-linecap:butt;stroke-linejoin:miter;stroke:rgb(0%,0%,0%);stroke-opacity:1;stroke-miterlimit:4;" d="M 232.838743 119.029496 C 232.83847 116.928765 232.041991 114.971538 230.754273 113.912994 C 229.466555 112.854451 227.870042 112.853739 226.564796 113.927155 C 225.27735 114.969342 224.477318 116.925858 224.47759 119.026588 C 224.477863 121.127318 225.274342 123.084546 226.56206 124.143089 C 227.874767 125.194657 229.471279 125.195369 230.758725 124.153182 C 232.038983 123.086742 232.839015 121.130226 232.838743 119.029496 Z M 232.838743 119.029496 " transform="matrix(0.0415282,-0.144377,0.148752,0.0427866,-3.8128,32.07831)"/>
<path style="fill-rule:evenodd;fill:rgb(87.058824%,12.54902%,6.27451%);fill-opacity:1;stroke-width:1.25;stroke-linecap:butt;stroke-linejoin:miter;stroke:rgb(0%,0%,0%);stroke-opacity:1;stroke-miterlimit:4;" d="M 232.837277 119.018906 C 232.854253 116.931 232.048966 114.969186 230.757709 113.90628 C 229.469706 112.868412 227.870037 112.860735 226.565058 113.910773 C 225.289129 114.982691 224.491494 116.91179 224.477771 119.024734 C 224.489846 121.13452 225.269335 123.099492 226.583136 124.134202 C 227.874393 125.197109 229.448264 125.207943 230.74999 124.132867 C 232.054969 123.082829 232.849352 121.128692 232.837277 119.018906 Z M 232.837277 119.018906 " transform="matrix(0.0187984,-0.14905,0.153566,0.019368,-0.880797,35.649147)"/>
<path style="fill-rule:evenodd;fill:rgb(87.058824%,12.54902%,6.27451%);fill-opacity:1;stroke-width:1.25;stroke-linecap:butt;stroke-linejoin:miter;stroke:rgb(0%,0%,0%);stroke-opacity:1;stroke-miterlimit:4;" d="M 232.852464 119.039276 C 232.842771 116.91805 232.033934 114.979514 230.740956 113.918593 C 229.447977 112.857672 227.861067 112.869009 226.576738 113.904098 C 225.267473 114.965416 224.489399 116.915289 224.473112 119.037528 C 224.481762 121.133538 225.291642 123.09729 226.583577 124.132994 C 227.876556 125.193916 229.464509 125.207795 230.747794 124.147489 C 232.05706 123.086172 232.835134 121.136299 232.852464 119.039276 Z M 232.852464 119.039276 " transform="matrix(0.00602801,-0.15011,0.154659,0.0062105,0.197596,37.362593)"/>
<path style="fill-rule:evenodd;fill:rgb(87.058824%,12.54902%,6.27451%);fill-opacity:1;stroke-width:1.25;stroke-linecap:butt;stroke-linejoin:miter;stroke:rgb(0%,0%,0%);stroke-opacity:1;stroke-miterlimit:4;" d="M 232.843476 119.035351 C 232.833782 116.914124 232.050926 114.974576 230.757948 113.913655 C 229.464969 112.852734 227.878059 112.864071 226.568793 113.925389 C 225.284465 114.960478 224.48041 116.911363 224.490104 119.03259 C 224.472774 121.129612 225.282653 123.093364 226.575632 124.154285 C 227.867568 125.18999 229.455521 125.203869 230.764787 124.142551 C 232.048072 123.082246 232.852126 121.13136 232.843476 119.035351 Z M 232.843476 119.035351 " transform="matrix(0.00602801,-0.15011,0.154659,0.0062105,-1.41893,37.419862)"/>
<path style="fill-rule:evenodd;fill:rgb(87.058824%,12.54902%,6.27451%);fill-opacity:1;stroke-width:1.25;stroke-linecap:butt;stroke-linejoin:miter;stroke:rgb(0%,0%,0%);stroke-opacity:1;stroke-miterlimit:4;" d="M 232.833441 119.016657 C 232.846509 116.922644 232.054954 114.960765 230.752803 113.921113 C 229.456446 112.856859 227.854448 112.863857 226.564578 113.923842 C 225.280501 114.959225 224.470058 116.928102 224.482339 119.027739 C 224.488825 121.151978 225.286174 123.089255 226.582531 124.153509 C 227.859334 125.187536 229.455538 125.205141 230.745408 124.145156 C 232.035279 123.085171 232.839928 121.140896 232.833441 119.016657 Z M 232.833441 119.016657 " transform="matrix(-0.033478,-0.146452,0.150892,-0.0344918,6.33228,41.637691)"/>
<path style="fill-rule:evenodd;fill:rgb(87.058824%,12.54902%,6.27451%);fill-opacity:1;stroke-width:1.25;stroke-linecap:butt;stroke-linejoin:miter;stroke:rgb(0%,0%,0%);stroke-opacity:1;stroke-miterlimit:4;" d="M 232.839741 119.022981 C 232.841501 116.931826 232.039207 114.963689 230.748819 113.904298 C 229.450566 112.86896 227.871541 112.859182 226.571527 113.915 C 225.271513 114.970818 224.469999 116.921543 224.493022 119.020332 C 224.483396 121.135541 225.28569 123.103678 226.583944 124.139015 C 227.874332 125.198407 229.453357 125.208185 230.75337 124.152367 C 232.053384 123.09655 232.830115 121.138191 232.839741 119.022981 Z M 232.839741 119.022981 " transform="matrix(-0.0454427,-0.143193,0.147533,-0.0468202,7.794512,42.776895)"/>
<path style="fill-rule:evenodd;fill:rgb(87.058824%,12.54902%,6.27451%);fill-opacity:1;stroke-width:1.25;stroke-linecap:butt;stroke-linejoin:miter;stroke:rgb(0%,0%,0%);stroke-opacity:1;stroke-miterlimit:4;" d="M 232.828465 119.032583 C 232.841532 116.931431 232.045464 114.972254 230.74793 113.900707 C 229.463305 112.862578 227.868726 112.852031 226.571034 113.915054 C 225.273342 114.978077 224.474832 116.926707 224.485435 119.038303 C 224.472367 121.139454 225.279197 123.075658 226.576731 124.147205 C 227.861355 125.185333 229.455934 125.19588 230.753626 124.132858 C 232.040557 123.092809 232.839068 121.144178 232.828465 119.032583 Z M 232.828465 119.032583 " transform="matrix(-0.0621747,-0.13676,0.140905,-0.0640599,10.906884,44.005865)"/>
<path style="fill-rule:evenodd;fill:rgb(87.058824%,12.54902%,6.27451%);fill-opacity:1;stroke-width:1.25;stroke-linecap:butt;stroke-linejoin:miter;stroke:rgb(0%,0%,0%);stroke-opacity:1;stroke-miterlimit:4;" d="M 232.851582 119.035232 C 232.852398 116.922244 232.041654 114.974449 230.743919 113.918998 C 229.446183 112.863547 227.862633 112.868105 226.564083 113.925642 C 225.278273 114.96118 224.470059 116.923166 224.481985 119.014154 C 224.48117 121.127142 225.279172 123.096936 226.576908 124.152387 C 227.874643 125.207838 229.458193 125.20328 230.756744 124.145743 C 232.055295 123.088206 232.850767 121.148219 232.851582 119.035232 Z M 232.851582 119.035232 " transform="matrix(-0.0736147,-0.130957,0.134926,-0.0758466,12.713198,44.861819)"/>
<path style="fill-rule:evenodd;fill:rgb(87.058824%,12.54902%,6.27451%);fill-opacity:1;stroke-width:1.25;stroke-linecap:butt;stroke-linejoin:miter;stroke:rgb(0%,0%,0%);stroke-opacity:1;stroke-miterlimit:4;" d="M 232.842774 119.028925 C 232.835322 116.913687 232.05696 114.976851 230.758031 113.919763 C 229.459102 112.862676 227.857098 112.867387 226.565621 113.925538 C 225.274143 114.983689 224.486777 116.919395 224.494229 119.034633 C 224.480533 121.135187 225.280042 123.086707 226.578971 124.143795 C 227.8779 125.200882 229.443629 125.202012 230.756253 124.158545 C 232.04773 123.100394 232.850226 121.144163 232.842774 119.028925 Z M 232.842774 119.028925 " transform="matrix(-0.0874105,-0.122182,0.125885,-0.0900588,15.517397,45.516547)"/>
<path style="fill-rule:evenodd;fill:rgb(87.058824%,12.54902%,6.27451%);fill-opacity:1;stroke-width:1.25;stroke-linecap:butt;stroke-linejoin:miter;stroke:rgb(0%,0%,0%);stroke-opacity:1;stroke-miterlimit:4;" d="M 232.842187 119.046044 C 232.832962 116.916406 232.045891 114.97237 230.759453 113.908436 C 229.456151 112.863712 227.851395 112.862774 226.574182 113.928479 C 225.277177 114.977816 224.496147 116.918072 224.48558 119.031342 C 224.475014 121.144612 225.262084 123.088649 226.565386 124.133373 C 227.851824 125.197306 229.456581 125.198245 230.753585 124.148908 C 232.05059 123.099571 232.848484 121.140105 232.842187 119.046044 Z M 232.842187 119.046044 " transform="matrix(-0.0974357,-0.114347,0.117813,-0.100387,17.439335,45.962322)"/>
<path style="fill-rule:evenodd;fill:rgb(87.058824%,12.54902%,6.27451%);fill-opacity:1;stroke-width:1.25;stroke-linecap:butt;stroke-linejoin:miter;stroke:rgb(0%,0%,0%);stroke-opacity:1;stroke-miterlimit:4;" d="M 232.83867 119.024064 C 232.840004 116.936096 232.051781 114.979117 230.75605 113.918329 C 229.46032 112.857541 227.860635 112.851991 226.563862 113.914861 C 225.26709 114.97773 224.492398 116.928876 224.472825 119.034831 C 224.490022 121.140502 225.278245 123.097481 226.573975 124.158269 C 227.851174 125.201354 229.45086 125.206904 230.747632 124.144034 C 232.044405 123.081165 232.837627 121.147722 232.83867 119.024064 Z M 232.83867 119.024064 " transform="matrix(-0.105384,-0.107066,0.110312,-0.108577,18.970136,46.508704)"/>
<path style="fill-rule:evenodd;fill:rgb(87.058824%,12.54902%,6.27451%);fill-opacity:1;stroke-width:1.25;stroke-linecap:butt;stroke-linejoin:miter;stroke:rgb(0%,0%,0%);stroke-opacity:1;stroke-miterlimit:4;" d="M 232.842487 119.033362 C 232.843353 116.903722 232.054716 114.966381 230.753606 113.921853 C 229.472223 112.860885 227.867487 112.867753 226.568298 113.917277 C 225.269109 114.966802 224.489677 116.913717 224.471871 119.02421 C 224.490732 121.137408 225.279369 123.074749 226.577691 124.154865 C 227.878801 125.199393 229.46381 125.208965 230.74606 124.140294 C 232.045249 123.09077 232.844408 121.127414 232.842487 119.033362 Z M 232.842487 119.033362 " transform="matrix(-0.113976,-0.0978707,0.100836,-0.117431,21.05506,46.829106)"/>
<path style="fill-rule:evenodd;fill:rgb(87.058824%,12.54902%,6.27451%);fill-opacity:1;stroke-width:1.25;stroke-linecap:butt;stroke-linejoin:miter;stroke:rgb(0%,0%,0%);stroke-opacity:1;stroke-miterlimit:4;" d="M 232.834492 119.035136 C 232.845691 116.913904 232.037398 114.972352 230.759421 113.926522 C 229.466705 112.859901 227.858378 112.861813 226.575883 113.902119 C 225.286707 114.977521 224.486672 116.920985 224.496894 119.027912 C 224.485695 121.149144 225.293988 123.090696 226.571965 124.136526 C 227.864681 125.203147 229.473008 125.201235 230.740764 124.140138 C 232.044679 123.085527 232.844713 121.142063 232.834492 119.035136 Z M 232.834492 119.035136 " transform="matrix(-0.123763,-0.0851584,0.0877386,-0.127513,23.938663,46.510254)"/>
<path style="fill-rule:evenodd;fill:rgb(87.058824%,12.54902%,6.27451%);fill-opacity:1;stroke-width:1.25;stroke-linecap:butt;stroke-linejoin:miter;stroke:rgb(0%,0%,0%);stroke-opacity:1;stroke-miterlimit:4;" d="M 232.841326 119.017406 C 232.855496 116.928723 232.050281 114.982698 230.748937 113.923901 C 229.447593 112.865104 227.865856 112.847378 226.572022 113.923142 C 225.267347 114.975967 224.467192 116.914788 224.487495 119.015889 C 224.484165 121.127511 225.265746 123.084057 226.56709 124.142854 C 227.868434 125.201651 229.462965 125.185916 230.744005 124.143613 C 232.04868 123.090787 232.837995 121.129028 232.841326 119.017406 Z M 232.841326 119.017406 " transform="matrix(-0.136551,-0.0626328,0.0645305,-0.14069,28.883971,44.468669)"/>
<path style="fill-rule:evenodd;fill:rgb(87.058824%,12.54902%,6.27451%);fill-opacity:1;stroke-width:1.25;stroke-linecap:butt;stroke-linejoin:miter;stroke:rgb(0%,0%,0%);stroke-opacity:1;stroke-miterlimit:4;" d="M 232.837575 119.019101 C 232.849182 116.927655 232.057409 114.977573 230.763677 113.92201 C 229.469944 112.866447 227.866078 112.853798 226.569392 113.91348 C 225.272707 114.973163 224.493787 116.925995 224.490833 119.04124 C 224.479227 121.132686 225.271 123.082768 226.564732 124.138331 C 227.858464 125.193894 229.462331 125.206543 230.759016 124.146861 C 232.055702 123.087179 232.834622 121.134346 232.837575 119.019101 Z M 232.837575 119.019101 " transform="matrix(-0.141666,-0.0499948,0.0515101,-0.14596,30.995208,43.860374)"/>
<path style="fill-rule:evenodd;fill:rgb(87.058824%,12.54902%,6.27451%);fill-opacity:1;stroke-width:1.25;stroke-linecap:butt;stroke-linejoin:miter;stroke:rgb(0%,0%,0%);stroke-opacity:1;stroke-miterlimit:4;" d="M 232.838391 119.0178 C 232.847795 116.930259 232.034692 114.980003 230.758772 113.925062 C 229.456962 112.872453 227.862658 112.857908 226.58033 113.921855 C 225.269116 114.956787 224.49091 116.923845 224.484502 119.042732 C 224.475098 121.130273 225.288201 123.08053 226.56412 124.13547 C 227.86593 125.18808 229.460235 125.202625 230.742563 124.138677 C 232.050781 123.072399 232.831983 121.136688 232.838391 119.0178 Z M 232.838391 119.0178 " transform="matrix(-0.149588,-0.0111235,0.0142959,-0.123551,36.722169,35.37673)"/>
<path style="fill-rule:evenodd;fill:rgb(87.058824%,12.54902%,6.27451%);fill-opacity:1;stroke-width:1.25;stroke-linecap:butt;stroke-linejoin:miter;stroke:rgb(0%,0%,0%);stroke-opacity:1;stroke-miterlimit:4;" d="M 232.85314 119.030239 C 232.835618 116.911599 232.032197 114.966833 230.742994 113.906074 C 229.45957 112.869921 227.857573 112.861971 226.585892 113.919853 C 225.28308 114.958737 224.490283 116.920159 224.476674 119.019802 C 224.494196 121.138443 225.272266 123.088817 226.561468 124.149576 C 227.876023 125.204726 229.44689 125.193679 230.749701 124.154794 C 232.046734 123.091304 232.839532 121.129883 232.85314 119.030239 Z M 232.85314 119.030239 " transform="matrix(-0.146472,-0.0333882,0.0343989,-0.150912,33.750341,42.307903)"/>
<path style=" stroke:none;fill-rule:evenodd;fill:rgb(100%,89.019608%,0%);fill-opacity:1;" d="M 34.824219 15.796875 C 35.023438 15.585938 35.207031 15.523438 35.441406 15.601562 C 35.359375 15.039062 35.183594 14.851562 34.964844 14.917969 C 34.75 14.984375 34.652344 15.273438 34.824219 15.796875 Z M 34.824219 15.796875 "/>
<path style=" stroke:none;fill-rule:evenodd;fill:rgb(100%,89.019608%,0%);fill-opacity:1;" d="M 35.128906 17.492188 C 35.34375 17.292969 35.53125 17.25 35.757812 17.34375 C 35.71875 16.777344 35.558594 16.574219 35.335938 16.625 C 35.113281 16.675781 34.996094 16.957031 35.128906 17.492188 Z M 35.128906 17.492188 "/>
<path style=" stroke:none;fill-rule:evenodd;fill:rgb(100%,89.019608%,0%);fill-opacity:1;" d="M 34.410156 14.25 C 34.546875 13.992188 34.710938 13.890625 34.957031 13.90625 C 34.734375 13.382812 34.515625 13.242188 34.324219 13.363281 C 34.128906 13.484375 34.109375 13.789062 34.410156 14.25 Z M 34.410156 14.25 "/>
<path style=" stroke:none;fill-rule:evenodd;fill:rgb(100%,89.019608%,0%);fill-opacity:1;" d="M 33.65625 12.707031 C 33.792969 12.453125 33.957031 12.347656 34.203125 12.363281 C 33.980469 11.839844 33.761719 11.703125 33.570312 11.820312 C 33.375 11.941406 33.355469 12.246094 33.65625 12.707031 Z M 33.65625 12.707031 "/>
<path style=" stroke:none;fill-rule:evenodd;fill:rgb(100%,89.019608%,0%);fill-opacity:1;" d="M 31.847656 9.882812 C 31.941406 9.609375 32.085938 9.476562 32.332031 9.453125 C 32.027344 8.972656 31.789062 8.871094 31.617188 9.023438 C 31.449219 9.171875 31.476562 9.476562 31.847656 9.882812 Z M 31.847656 9.882812 "/>
<path style=" stroke:none;fill-rule:evenodd;fill:rgb(100%,89.019608%,0%);fill-opacity:1;" d="M 30.664062 8.652344 C 30.75 8.375 30.890625 8.238281 31.132812 8.203125 C 30.8125 7.738281 30.570312 7.644531 30.402344 7.800781 C 30.238281 7.957031 30.277344 8.257812 30.664062 8.652344 Z M 30.664062 8.652344 "/>
<path style=" stroke:none;fill-rule:evenodd;fill:rgb(100%,89.019608%,0%);fill-opacity:1;" d="M 28.179688 6.554688 C 28.171875 6.261719 28.265625 6.089844 28.488281 5.984375 C 28.039062 5.636719 27.777344 5.625 27.667969 5.824219 C 27.558594 6.023438 27.691406 6.300781 28.179688 6.554688 Z M 28.179688 6.554688 "/>
<path style=" stroke:none;fill-rule:evenodd;fill:rgb(100%,89.019608%,0%);fill-opacity:1;" d="M 29.472656 7.523438 C 29.519531 7.238281 29.636719 7.082031 29.875 7.015625 C 29.492188 6.597656 29.238281 6.539062 29.097656 6.714844 C 28.953125 6.894531 29.035156 7.1875 29.472656 7.523438 Z M 29.472656 7.523438 "/>
<path style=" stroke:none;fill-rule:evenodd;fill:rgb(100%,89.019608%,0%);fill-opacity:1;" d="M 26.703125 5.742188 C 26.667969 5.453125 26.742188 5.269531 26.949219 5.140625 C 26.46875 4.84375 26.207031 4.855469 26.121094 5.066406 C 26.03125 5.277344 26.191406 5.535156 26.703125 5.742188 Z M 26.703125 5.742188 "/>
<path style=" stroke:none;fill-rule:evenodd;fill:rgb(100%,89.019608%,0%);fill-opacity:1;" d="M 25.195312 5.082031 C 25.121094 4.800781 25.164062 4.613281 25.355469 4.453125 C 24.835938 4.226562 24.578125 4.277344 24.523438 4.5 C 24.464844 4.71875 24.660156 4.953125 25.195312 5.082031 Z M 25.195312 5.082031 "/>
<path style=" stroke:none;fill-rule:evenodd;fill:rgb(100%,89.019608%,0%);fill-opacity:1;" d="M 23.570312 4.578125 C 23.472656 4.304688 23.5 4.113281 23.675781 3.9375 C 23.136719 3.757812 22.886719 3.832031 22.851562 4.054688 C 22.8125 4.277344 23.027344 4.496094 23.570312 4.578125 Z M 23.570312 4.578125 "/>
<path style=" stroke:none;fill-rule:evenodd;fill:rgb(100%,89.019608%,0%);fill-opacity:1;" d="M 21.976562 4.269531 C 21.855469 4.003906 21.871094 3.808594 22.035156 3.625 C 21.484375 3.484375 21.238281 3.574219 21.21875 3.796875 C 21.195312 4.023438 21.425781 4.226562 21.976562 4.269531 Z M 21.976562 4.269531 "/>
<path style=" stroke:none;fill-rule:evenodd;fill:rgb(100%,89.019608%,0%);fill-opacity:1;" d="M 20.285156 4.140625 C 20.140625 3.886719 20.132812 3.695312 20.277344 3.492188 C 19.714844 3.410156 19.480469 3.523438 19.484375 3.75 C 19.484375 3.976562 19.734375 4.15625 20.285156 4.140625 Z M 20.285156 4.140625 "/>
<path style=" stroke:none;fill-rule:evenodd;fill:rgb(100%,89.019608%,0%);fill-opacity:1;" d="M 16.976562 4.390625 C 16.773438 4.179688 16.722656 3.992188 16.8125 3.761719 C 16.246094 3.816406 16.046875 3.984375 16.105469 4.203125 C 16.160156 4.421875 16.445312 4.535156 16.976562 4.390625 Z M 16.976562 4.390625 "/>
<path style=" stroke:none;fill-rule:evenodd;fill:rgb(100%,89.019608%,0%);fill-opacity:1;" d="M 18.605469 4.175781 C 18.433594 3.941406 18.40625 3.746094 18.527344 3.53125 C 17.960938 3.507812 17.738281 3.648438 17.765625 3.875 C 17.792969 4.097656 18.058594 4.25 18.605469 4.175781 Z M 18.605469 4.175781 "/>
<path style=" stroke:none;fill-rule:evenodd;fill:rgb(100%,89.019608%,0%);fill-opacity:1;" d="M 15.378906 4.734375 C 15.148438 4.554688 15.070312 4.378906 15.125 4.136719 C 14.574219 4.273438 14.402344 4.46875 14.488281 4.675781 C 14.574219 4.886719 14.871094 4.957031 15.378906 4.734375 Z M 15.378906 4.734375 "/>
<path style=" stroke:none;fill-rule:evenodd;fill:rgb(100%,89.019608%,0%);fill-opacity:1;" d="M 12.316406 6.140625 C 12.058594 6.011719 11.949219 5.851562 11.957031 5.605469 C 11.441406 5.839844 11.308594 6.066406 11.433594 6.253906 C 11.558594 6.441406 11.863281 6.453125 12.316406 6.140625 Z M 12.316406 6.140625 "/>
<path style=" stroke:none;fill-rule:evenodd;fill:rgb(100%,89.019608%,0%);fill-opacity:1;" d="M 13.792969 5.386719 C 13.550781 5.226562 13.460938 5.054688 13.5 4.808594 C 12.960938 4.984375 12.800781 5.1875 12.902344 5.390625 C 13.003906 5.59375 13.304688 5.644531 13.792969 5.386719 Z M 13.792969 5.386719 "/>
<path style=" stroke:none;fill-rule:evenodd;fill:rgb(100%,89.019608%,0%);fill-opacity:1;" d="M 9.574219 8.050781 C 9.292969 7.980469 9.148438 7.84375 9.109375 7.601562 C 8.652344 7.941406 8.570312 8.1875 8.730469 8.347656 C 8.894531 8.503906 9.195312 8.453125 9.574219 8.050781 Z M 9.574219 8.050781 "/>
<path style=" stroke:none;fill-rule:evenodd;fill:rgb(100%,89.019608%,0%);fill-opacity:1;" d="M 10.882812 6.980469 C 10.605469 6.886719 10.476562 6.742188 10.453125 6.496094 C 9.972656 6.796875 9.871094 7.039062 10.019531 7.207031 C 10.171875 7.378906 10.472656 7.351562 10.882812 6.980469 Z M 10.882812 6.980469 "/>
<path style=" stroke:none;fill-rule:evenodd;fill:rgb(100%,89.019608%,0%);fill-opacity:1;" d="M 8.410156 9.199219 C 8.121094 9.152344 7.96875 9.03125 7.90625 8.792969 C 7.484375 9.171875 7.421875 9.425781 7.597656 9.566406 C 7.773438 9.710938 8.070312 9.632812 8.410156 9.199219 Z M 8.410156 9.199219 "/>
<path style=" stroke:none;fill-rule:evenodd;fill:rgb(100%,89.019608%,0%);fill-opacity:1;" d="M 7.367188 10.550781 C 7.078125 10.53125 6.914062 10.421875 6.828125 10.191406 C 6.441406 10.609375 6.402344 10.867188 6.59375 10.992188 C 6.78125 11.117188 7.066406 11.015625 7.367188 10.550781 Z M 7.367188 10.550781 "/>
<path style=" stroke:none;fill-rule:evenodd;fill:rgb(100%,89.019608%,0%);fill-opacity:1;" d="M 6.496094 11.933594 C 6.203125 11.957031 6.027344 11.878906 5.90625 11.664062 C 5.589844 12.132812 5.589844 12.394531 5.796875 12.488281 C 6.003906 12.585938 6.269531 12.4375 6.496094 11.933594 Z M 6.496094 11.933594 "/>
<path style=" stroke:none;fill-rule:evenodd;fill:rgb(100%,89.019608%,0%);fill-opacity:1;" d="M 5.726562 13.414062 C 5.445312 13.472656 5.257812 13.417969 5.109375 13.21875 C 4.855469 13.726562 4.890625 13.984375 5.109375 14.054688 C 5.324219 14.121094 5.570312 13.941406 5.726562 13.414062 Z M 5.726562 13.414062 "/>
<path style=" stroke:none;fill-rule:evenodd;fill:rgb(100%,89.019608%,0%);fill-opacity:1;" d="M 5.117188 14.929688 C 4.84375 15.035156 4.652344 15.007812 4.472656 14.835938 C 4.304688 15.378906 4.378906 15.625 4.605469 15.660156 C 4.828125 15.695312 5.042969 15.476562 5.117188 14.929688 Z M 5.117188 14.929688 "/>
<path style=" stroke:none;fill-rule:evenodd;fill:rgb(100%,89.019608%,0%);fill-opacity:1;" d="M 4.707031 16.621094 C 4.441406 16.742188 4.246094 16.730469 4.058594 16.570312 C 3.925781 17.121094 4.019531 17.363281 4.246094 17.382812 C 4.46875 17.402344 4.667969 17.167969 4.707031 16.621094 Z M 4.707031 16.621094 "/>
<path style=" stroke:none;fill-rule:evenodd;fill:rgb(100%,89.019608%,0%);fill-opacity:1;" d="M 4.539062 18.027344 C 4.289062 18.15625 4.097656 18.171875 3.894531 18.074219 C 3.820312 18.523438 3.9375 18.699219 4.164062 18.683594 C 4.390625 18.667969 4.5625 18.460938 4.539062 18.027344 Z M 4.539062 18.027344 "/>
<path style=" stroke:none;fill-rule:evenodd;fill:rgb(100%,89.019608%,0%);fill-opacity:1;" d="M 32.980469 11.335938 C 33.082031 11.0625 33.226562 10.933594 33.472656 10.914062 C 33.179688 10.429688 32.941406 10.324219 32.765625 10.46875 C 32.59375 10.617188 32.617188 10.921875 32.980469 11.335938 Z M 32.980469 11.335938 "/>
<path style=" stroke:none;fill-rule:evenodd;fill:rgb(100%,89.019608%,0%);fill-opacity:1;" d="M 35.3125 19.210938 C 35.527344 19.011719 35.71875 18.964844 35.945312 19.0625 C 35.90625 18.496094 35.742188 18.292969 35.519531 18.34375 C 35.300781 18.394531 35.179688 18.675781 35.3125 19.210938 Z M 35.3125 19.210938 "/>
<path style="fill-rule:evenodd;fill:rgb(12.941177%,47.450981%,0%);fill-opacity:1;stroke-width:1.9196;stroke-linecap:butt;stroke-linejoin:round;stroke:rgb(0%,0%,0%);stroke-opacity:1;stroke-miterlimit:4;" d="M 658.463351 123.922115 C 658.366461 123.922115 650.46994 131.818637 651.874842 141.410731 C 653.2313 151.002825 659.286915 162.774941 658.172682 172.70615 C 657.058449 182.637358 655.265987 189.225867 655.265987 189.225867 C 655.265987 189.225867 664.518966 178.71332 664.615856 168.588331 C 664.712746 158.511788 658.269572 145.23788 658.269572 137.825807 C 658.269572 130.36529 658.608686 123.77678 658.463351 123.922115 Z M 658.463351 123.922115 " transform="matrix(0.0806328,0,0,0.0806328,-20,-0.000000818203)"/>
<path style="fill-rule:evenodd;fill:rgb(12.941177%,47.450981%,0%);fill-opacity:1;stroke-width:1.9196;stroke-linecap:butt;stroke-linejoin:round;stroke:rgb(0%,0%,0%);stroke-opacity:1;stroke-miterlimit:4;" d="M 673.093717 156.089542 C 673.093717 156.089542 666.941212 160.643365 667.522551 171.107467 C 668.10389 181.523125 678.907107 200.707313 678.907107 200.707313 C 678.907107 200.707313 686.755185 216.887917 686.51296 221.05418 C 686.270735 225.268888 687.966308 217.033251 687.191189 207.780272 C 686.41607 198.575737 674.547065 178.180426 674.547065 178.180426 C 674.547065 178.180426 671.979484 174.014162 672.221709 167.086539 C 672.463933 160.11047 673.142162 156.186432 673.093717 156.089542 Z M 673.093717 156.089542 " transform="matrix(0.0806328,0,0,0.0806328,-20,-0.000000818203)"/>
<path style=" stroke:none;fill-rule:evenodd;fill:rgb(41.960785%,9.411765%,70.980394%);fill-opacity:1;" d="M 19.34375 2.15625 C 19.34375 1.984375 19.148438 1.839844 18.90625 1.839844 C 18.664062 1.839844 18.46875 1.984375 18.46875 2.15625 C 18.46875 2.332031 18.664062 2.472656 18.90625 2.472656 C 19.148438 2.472656 19.34375 2.332031 19.34375 2.15625 Z M 19.34375 2.15625 "/>
<path style=" stroke:none;fill-rule:evenodd;fill:rgb(41.960785%,9.411765%,70.980394%);fill-opacity:1;" d="M 19.53125 2.890625 C 19.53125 2.722656 19.328125 2.589844 19.078125 2.589844 C 18.832031 2.589844 18.628906 2.722656 18.628906 2.890625 C 18.628906 3.058594 18.832031 3.191406 19.078125 3.191406 C 19.328125 3.191406 19.53125 3.058594 19.53125 2.890625 Z M 19.53125 2.890625 "/>
<path style=" stroke:none;fill-rule:evenodd;fill:rgb(41.960785%,9.411765%,70.980394%);fill-opacity:1;" d="M 20.089844 2.023438 C 20.089844 2.023438 19.574219 2.40625 19.789062 2.5625 C 20 2.714844 20.585938 2.226562 20.585938 2.226562 Z M 20.089844 2.023438 "/>
<path style=" stroke:none;fill-rule:evenodd;fill:rgb(41.960785%,9.411765%,70.980394%);fill-opacity:1;" d="M 35.222656 10.863281 C 35.222656 10.753906 35.171875 10.652344 35.089844 10.597656 C 35.003906 10.542969 34.902344 10.542969 34.820312 10.597656 C 34.734375 10.652344 34.683594 10.753906 34.683594 10.863281 C 34.683594 10.972656 34.734375 11.074219 34.820312 11.128906 C 34.902344 11.183594 35.003906 11.183594 35.089844 11.128906 C 35.171875 11.074219 35.222656 10.972656 35.222656 10.863281 Z M 35.222656 10.863281 "/>
<path style=" stroke:none;fill-rule:evenodd;fill:rgb(41.960785%,9.411765%,70.980394%);fill-opacity:1;" d="M 35.027344 10.128906 C 35.027344 9.945312 34.902344 9.796875 34.746094 9.796875 C 34.589844 9.796875 34.460938 9.945312 34.460938 10.128906 C 34.460938 10.3125 34.589844 10.460938 34.746094 10.460938 C 34.902344 10.460938 35.027344 10.3125 35.027344 10.128906 Z M 35.027344 10.128906 "/>
<path style=" stroke:none;fill-rule:evenodd;fill:rgb(41.960785%,9.411765%,70.980394%);fill-opacity:1;" d="M 35.164062 11.625 C 35.164062 11.53125 35.113281 11.453125 35.050781 11.453125 C 34.992188 11.453125 34.941406 11.53125 34.941406 11.625 C 34.941406 11.71875 34.992188 11.796875 35.050781 11.796875 C 35.113281 11.796875 35.164062 11.71875 35.164062 11.625 Z M 35.164062 11.625 "/>
<path style=" stroke:none;fill-rule:evenodd;fill:rgb(41.960785%,9.411765%,70.980394%);fill-opacity:1;" d="M 35.617188 10.285156 C 35.617188 10.179688 35.566406 10.089844 35.507812 10.089844 C 35.445312 10.089844 35.394531 10.179688 35.394531 10.285156 C 35.394531 10.394531 35.445312 10.484375 35.507812 10.484375 C 35.566406 10.484375 35.617188 10.394531 35.617188 10.285156 Z M 35.617188 10.285156 "/>
<path style=" stroke:none;fill-rule:evenodd;fill:rgb(41.960785%,9.411765%,70.980394%);fill-opacity:1;" d="M 34.375 10.421875 C 34.375 10.332031 34.328125 10.261719 34.265625 10.261719 C 34.203125 10.261719 34.15625 10.332031 34.15625 10.421875 C 34.15625 10.511719 34.203125 10.582031 34.265625 10.582031 C 34.328125 10.582031 34.375 10.511719 34.375 10.421875 Z M 34.375 10.421875 "/>
<path style=" stroke:none;fill-rule:evenodd;fill:rgb(41.960785%,9.411765%,70.980394%);fill-opacity:1;" d="M 34.574219 11.476562 C 34.574219 11.335938 34.46875 11.21875 34.339844 11.21875 C 34.210938 11.21875 34.105469 11.335938 34.105469 11.476562 C 34.105469 11.621094 34.210938 11.734375 34.339844 11.734375 C 34.46875 11.734375 34.574219 11.621094 34.574219 11.476562 Z M 34.574219 11.476562 "/>
<path style=" stroke:none;fill-rule:evenodd;fill:rgb(41.960785%,9.411765%,70.980394%);fill-opacity:1;" d="M 33.957031 11.011719 C 33.957031 10.890625 33.871094 10.789062 33.761719 10.789062 C 33.652344 10.789062 33.566406 10.890625 33.566406 11.011719 C 33.566406 11.132812 33.652344 11.230469 33.761719 11.230469 C 33.871094 11.230469 33.957031 11.132812 33.957031 11.011719 Z M 33.957031 11.011719 "/>
<path style=" stroke:none;fill-rule:evenodd;fill:rgb(41.960785%,9.411765%,70.980394%);fill-opacity:1;" d="M 33.859375 10.382812 C 33.859375 10.320312 33.828125 10.257812 33.773438 10.226562 C 33.722656 10.191406 33.65625 10.191406 33.601562 10.226562 C 33.550781 10.257812 33.515625 10.320312 33.515625 10.382812 C 33.515625 10.449219 33.550781 10.511719 33.601562 10.542969 C 33.65625 10.578125 33.722656 10.578125 33.773438 10.542969 C 33.828125 10.511719 33.859375 10.449219 33.859375 10.382812 Z M 33.859375 10.382812 "/>
<path style=" stroke:none;fill-rule:evenodd;fill:rgb(41.960785%,9.411765%,70.980394%);fill-opacity:1;" d="M 36.660156 13.570312 C 36.40625 13.234375 36 13.09375 35.753906 13.253906 C 35.503906 13.414062 35.511719 13.816406 35.765625 14.152344 C 36.019531 14.484375 36.425781 14.625 36.671875 14.464844 C 36.917969 14.304688 36.914062 13.902344 36.660156 13.570312 Z M 36.660156 13.570312 "/>
<path style=" stroke:none;fill-rule:evenodd;fill:rgb(41.960785%,9.411765%,70.980394%);fill-opacity:1;" d="M 37.378906 19.746094 C 37.429688 19.332031 37.230469 18.972656 36.933594 18.9375 C 36.636719 18.902344 36.355469 19.207031 36.308594 19.617188 C 36.257812 20.027344 36.460938 20.386719 36.753906 20.425781 C 37.050781 20.460938 37.332031 20.15625 37.378906 19.746094 Z M 37.378906 19.746094 "/>
<path style=" stroke:none;fill-rule:evenodd;fill:rgb(41.960785%,9.411765%,70.980394%);fill-opacity:1;" d="M 37.53125 23.339844 C 37.617188 22.933594 37.449219 22.554688 37.15625 22.496094 C 36.863281 22.433594 36.558594 22.714844 36.476562 23.117188 C 36.390625 23.523438 36.558594 23.902344 36.851562 23.960938 C 37.144531 24.023438 37.449219 23.742188 37.53125 23.339844 Z M 37.53125 23.339844 "/>
<path style=" stroke:none;fill-rule:evenodd;fill:rgb(41.960785%,9.411765%,70.980394%);fill-opacity:1;" d="M 38.226562 19.972656 C 38.226562 19.8125 38.117188 19.679688 37.980469 19.679688 C 37.84375 19.679688 37.734375 19.8125 37.734375 19.972656 C 37.734375 20.136719 37.84375 20.269531 37.980469 20.269531 C 38.117188 20.269531 38.226562 20.136719 38.226562 19.972656 Z M 38.226562 19.972656 "/>
<path style=" stroke:none;fill-rule:evenodd;fill:rgb(41.960785%,9.411765%,70.980394%);fill-opacity:1;" d="M 37.625 20.648438 L 37.121094 21.222656 C 37.121094 21.222656 36.648438 21.234375 36.671875 21.386719 C 36.695312 21.539062 37.324219 22 37.316406 22.183594 C 37.3125 22.371094 37.734375 22.140625 37.734375 22.140625 C 37.734375 22.140625 38.074219 21.117188 38.074219 21.109375 C 38.074219 21.105469 38.054688 20.398438 37.871094 20.410156 C 37.6875 20.421875 37.636719 20.636719 37.625 20.648438 Z M 37.625 20.648438 "/>
<path style=" stroke:none;fill-rule:evenodd;fill:rgb(41.960785%,9.411765%,70.980394%);fill-opacity:1;" d="M 4.511719 20.425781 C 4.511719 20.292969 4.402344 20.183594 4.269531 20.183594 C 4.136719 20.183594 4.03125 20.292969 4.03125 20.425781 C 4.03125 20.554688 4.136719 20.664062 4.269531 20.664062 C 4.402344 20.664062 4.511719 20.554688 4.511719 20.425781 Z M 4.511719 20.425781 "/>
<path style=" stroke:none;fill-rule:evenodd;fill:rgb(41.960785%,9.411765%,70.980394%);fill-opacity:1;" d="M 4.734375 19.691406 C 4.734375 19.550781 4.628906 19.4375 4.496094 19.4375 C 4.363281 19.4375 4.257812 19.550781 4.257812 19.691406 C 4.257812 19.832031 4.363281 19.945312 4.496094 19.945312 C 4.628906 19.945312 4.734375 19.832031 4.734375 19.691406 Z M 4.734375 19.691406 "/>
<path style=" stroke:none;fill-rule:evenodd;fill:rgb(41.960785%,9.411765%,70.980394%);fill-opacity:1;" d="M 2.769531 16.210938 C 2.679688 16.007812 2.492188 15.898438 2.351562 15.960938 C 2.210938 16.023438 2.167969 16.238281 2.257812 16.4375 C 2.347656 16.640625 2.535156 16.75 2.675781 16.6875 C 2.816406 16.625 2.859375 16.410156 2.769531 16.210938 Z M 2.769531 16.210938 "/>
<path style=" stroke:none;fill-rule:evenodd;fill:rgb(41.960785%,9.411765%,70.980394%);fill-opacity:1;" d="M 3.363281 18.378906 C 3.238281 18.117188 2.980469 17.972656 2.789062 18.054688 C 2.59375 18.136719 2.539062 18.414062 2.660156 18.675781 C 2.785156 18.9375 3.042969 19.082031 3.234375 19 C 3.429688 18.917969 3.484375 18.640625 3.363281 18.378906 Z M 3.363281 18.378906 "/>
<path style=" stroke:none;fill-rule:evenodd;fill:rgb(41.960785%,9.411765%,70.980394%);fill-opacity:1;" d="M 4 19.96875 C 4.039062 19.644531 3.902344 19.34375 3.695312 19.300781 C 3.492188 19.257812 3.289062 19.488281 3.25 19.8125 C 3.210938 20.140625 3.34375 20.4375 3.550781 20.480469 C 3.757812 20.527344 3.957031 20.296875 4 19.96875 Z M 4 19.96875 "/>
<path style=" stroke:none;fill-rule:evenodd;fill:rgb(41.960785%,9.411765%,70.980394%);fill-opacity:1;" d="M 2.976562 20.203125 C 3.105469 19.898438 3.058594 19.574219 2.871094 19.476562 C 2.683594 19.378906 2.429688 19.542969 2.300781 19.847656 C 2.171875 20.148438 2.222656 20.472656 2.40625 20.574219 C 2.59375 20.671875 2.851562 20.503906 2.976562 20.203125 Z M 2.976562 20.203125 "/>
<path style=" stroke:none;fill-rule:evenodd;fill:rgb(41.960785%,9.411765%,70.980394%);fill-opacity:1;" d="M 2.511719 19.519531 C 2.511719 19.363281 2.394531 19.238281 2.246094 19.238281 C 2.097656 19.238281 1.980469 19.363281 1.980469 19.519531 C 1.980469 19.671875 2.097656 19.796875 2.246094 19.796875 C 2.394531 19.796875 2.511719 19.671875 2.511719 19.519531 Z M 2.511719 19.519531 "/>
<path style=" stroke:none;fill-rule:evenodd;fill:rgb(41.960785%,9.411765%,70.980394%);fill-opacity:1;" d="M 2.300781 18.828125 C 2.300781 18.6875 2.191406 18.574219 2.058594 18.574219 C 1.929688 18.574219 1.820312 18.6875 1.820312 18.828125 C 1.820312 18.964844 1.929688 19.078125 2.058594 19.078125 C 2.191406 19.078125 2.300781 18.964844 2.300781 18.828125 Z M 2.300781 18.828125 "/>
<path style=" stroke:none;fill-rule:evenodd;fill:rgb(41.960785%,9.411765%,70.980394%);fill-opacity:1;" d="M 2.527344 17.496094 C 2.527344 17.261719 2.421875 17.070312 2.292969 17.070312 C 2.164062 17.070312 2.058594 17.261719 2.058594 17.496094 C 2.058594 17.730469 2.164062 17.921875 2.292969 17.921875 C 2.421875 17.921875 2.527344 17.730469 2.527344 17.496094 Z M 2.527344 17.496094 "/>
<path style=" stroke:none;fill-rule:evenodd;fill:rgb(41.960785%,9.411765%,70.980394%);fill-opacity:1;" d="M 3.242188 17.394531 C 3.273438 17.160156 3.195312 16.957031 3.070312 16.941406 C 2.941406 16.921875 2.8125 17.097656 2.78125 17.332031 C 2.75 17.566406 2.828125 17.769531 2.957031 17.785156 C 3.082031 17.800781 3.210938 17.625 3.242188 17.394531 Z M 3.242188 17.394531 "/>
<path style=" stroke:none;fill-rule:evenodd;fill:rgb(41.960785%,9.411765%,70.980394%);fill-opacity:1;" d="M 8.351562 7.203125 C 8.445312 6.871094 8.347656 6.539062 8.132812 6.460938 C 7.917969 6.382812 7.664062 6.585938 7.570312 6.917969 C 7.472656 7.246094 7.570312 7.578125 7.789062 7.65625 C 8.003906 7.738281 8.253906 7.535156 8.351562 7.203125 Z M 8.351562 7.203125 "/>
<path style=" stroke:none;fill-rule:evenodd;fill:rgb(41.960785%,9.411765%,70.980394%);fill-opacity:1;" d="M 7.378906 8.671875 C 7.664062 8.429688 7.785156 8.097656 7.652344 7.925781 C 7.515625 7.753906 7.175781 7.8125 6.894531 8.054688 C 6.609375 8.296875 6.488281 8.632812 6.621094 8.800781 C 6.757812 8.972656 7.097656 8.914062 7.378906 8.671875 Z M 7.378906 8.671875 "/>
<path style=" stroke:none;fill-rule:evenodd;fill:rgb(41.960785%,9.411765%,70.980394%);fill-opacity:1;" d="M 6.8125 7.855469 C 7.097656 7.648438 7.214844 7.363281 7.082031 7.214844 C 6.949219 7.070312 6.613281 7.117188 6.332031 7.324219 C 6.050781 7.535156 5.929688 7.820312 6.0625 7.96875 C 6.195312 8.113281 6.53125 8.066406 6.8125 7.855469 Z M 6.8125 7.855469 "/>
<path style=" stroke:none;fill-rule:evenodd;fill:rgb(41.960785%,9.411765%,70.980394%);fill-opacity:1;" d="M 8.996094 6.421875 C 9.1875 6.277344 9.265625 6.078125 9.175781 5.972656 C 9.085938 5.871094 8.859375 5.90625 8.671875 6.050781 C 8.480469 6.195312 8.402344 6.398438 8.492188 6.5 C 8.578125 6.601562 8.804688 6.566406 8.996094 6.421875 Z M 8.996094 6.421875 "/>
<path style=" stroke:none;fill-rule:evenodd;fill:rgb(41.960785%,9.411765%,70.980394%);fill-opacity:1;" d="M 7.859375 7.8125 C 7.988281 7.613281 7.996094 7.394531 7.878906 7.328125 C 7.757812 7.261719 7.558594 7.371094 7.425781 7.574219 C 7.296875 7.773438 7.289062 7.988281 7.410156 8.054688 C 7.527344 8.121094 7.730469 8.011719 7.859375 7.8125 Z M 7.859375 7.8125 "/>
<path style=" stroke:none;fill-rule:evenodd;fill:rgb(41.960785%,9.411765%,70.980394%);fill-opacity:1;" d="M 9.5 6.953125 C 9.703125 6.78125 9.785156 6.554688 9.679688 6.445312 C 9.570312 6.335938 9.320312 6.386719 9.117188 6.558594 C 8.914062 6.730469 8.832031 6.957031 8.9375 7.066406 C 9.046875 7.175781 9.296875 7.125 9.5 6.953125 Z M 9.5 6.953125 "/>
<path style=" stroke:none;fill-rule:evenodd;fill:rgb(41.960785%,9.411765%,70.980394%);fill-opacity:1;" d="M 6.535156 8.957031 C 6.722656 8.949219 6.867188 8.851562 6.855469 8.746094 C 6.84375 8.636719 6.675781 8.558594 6.484375 8.566406 C 6.296875 8.578125 6.152344 8.671875 6.164062 8.78125 C 6.179688 8.886719 6.34375 8.96875 6.535156 8.957031 Z M 6.535156 8.957031 "/>
<path style=" stroke:none;fill-rule:evenodd;fill:rgb(41.960785%,9.411765%,70.980394%);fill-opacity:1;" d="M 10.125 5.886719 C 10.253906 5.6875 10.265625 5.472656 10.144531 5.40625 C 10.027344 5.339844 9.824219 5.449219 9.695312 5.648438 C 9.566406 5.847656 9.554688 6.066406 9.675781 6.132812 C 9.792969 6.199219 9.996094 6.089844 10.125 5.886719 Z M 10.125 5.886719 "/>
<path style="fill-rule:evenodd;fill:rgb(100%,82.352942%,0%);fill-opacity:1;stroke-width:1;stroke-linecap:butt;stroke-linejoin:miter;stroke:rgb(93.725491%,54.11765%,6.27451%);stroke-opacity:1;stroke-miterlimit:4;" d="M 641.798299 148.48369 C 641.798299 148.48369 649.161927 136.856909 646.303676 125.956802 C 643.445426 115.00825 631.334196 122.759437 631.624866 126.635031 C 631.86709 130.510624 639.424498 135.742676 639.908947 138.116477 C 640.344951 140.490278 639.036938 147.757016 641.798299 148.48369 Z M 641.798299 148.48369 " transform="matrix(0.0806328,0,0,0.0806328,-20,-0.000000818203)"/>
<path style="fill-rule:evenodd;fill:rgb(12.941177%,47.450981%,0%);fill-opacity:1;stroke-width:2.3996;stroke-linecap:butt;stroke-linejoin:round;stroke:rgb(0%,0%,0%);stroke-opacity:1;stroke-miterlimit:4;" d="M 501.647146 51.884519 C 501.647146 51.884519 528.098072 52.901863 528.291852 70.002919 C 528.194962 72.66739 528.291852 75.864755 527.322953 83.470607 C 532.555004 80.612357 536.091484 72.76428 535.36481 67.726008 C 535.4617 50.334282 511.772134 38.465277 501.647146 51.884519 Z M 501.647146 51.884519 " transform="matrix(0.0806328,0,0,0.0806328,-20,-0.000000818203)"/>
<path style="fill-rule:evenodd;fill:rgb(12.941177%,47.450981%,0%);fill-opacity:1;stroke-width:2.3996;stroke-linecap:butt;stroke-linejoin:round;stroke:rgb(0%,0%,0%);stroke-opacity:1;stroke-miterlimit:4;" d="M 484.885203 51.109401 C 484.885203 51.109401 506.200968 46.652468 506.394748 63.753525 C 506.540082 80.903026 499.612459 83.615942 499.612459 83.615942 C 499.612459 83.615942 515.986842 80.127908 516.035287 62.736181 C 516.132177 45.3929 495.010192 37.690158 484.885203 51.109401 Z M 484.885203 51.109401 " transform="matrix(0.0806328,0,0,0.0806328,-20,-0.000000818203)"/>
<path style="fill-rule:evenodd;fill:rgb(96.862745%,87.450981%,45.09804%);fill-opacity:1;stroke-width:1.25;stroke-linecap:butt;stroke-linejoin:round;stroke:rgb(0%,0%,0%);stroke-opacity:1;stroke-miterlimit:4;" d="M 160.247926 215.977067 C 160.247926 215.977067 212.210881 201.289141 227.908287 137.515275 C 218.797735 202.980019 161.938804 223.724822 161.938804 223.724822 Z M 160.247926 215.977067 " transform="matrix(0.154783,0,0,0.154783,0.12998,0.465009)"/>
<path style=" stroke:none;fill-rule:evenodd;fill:rgb(54.901963%,9.411765%,0%);fill-opacity:1;" d="M 25.761719 34.507812 C 26.007812 34.507812 26.625 33.828125 26.976562 33.75 C 27.332031 33.671875 27.371094 33.316406 26.964844 33.304688 C 26.558594 33.292969 26.207031 33.761719 26.207031 33.761719 C 26.207031 33.761719 25.851562 34.0625 25.484375 34.101562 C 25.121094 34.140625 25.355469 34.597656 25.761719 34.507812 Z M 25.761719 34.507812 "/>
<path style="fill-rule:evenodd;fill:rgb(54.901963%,9.411765%,0%);fill-opacity:1;stroke-width:1.25;stroke-linecap:butt;stroke-linejoin:miter;stroke:rgb(54.901963%,9.411765%,0%);stroke-opacity:1;stroke-miterlimit:4;" d="M 195.503996 197.629778 C 195.503996 197.629778 190.103281 200.759164 190.860391 201.516274 C 191.6175 202.273383 196.437765 198.538309 196.513476 198.462598 C 196.614423 198.386887 198.557671 196.014611 195.503996 197.629778 Z M 195.503996 197.629778 " transform="matrix(0.154783,0,0,0.154783,0.12998,0.465009)"/>
<path style=" stroke:none;fill-rule:evenodd;fill:rgb(54.901963%,9.411765%,0%);fill-opacity:1;" d="M 27.472656 33.253906 C 27.472656 33.253906 27.226562 33.160156 27.867188 32.914062 C 28.507812 32.664062 28.46875 32.375 28.675781 32.257812 C 28.886719 32.140625 29.332031 31.828125 29.421875 32.007812 C 29.515625 32.191406 28.953125 32.558594 28.820312 32.597656 C 28.691406 32.636719 28.050781 33.226562 27.867188 33.277344 C 27.683594 33.332031 27.550781 33.304688 27.472656 33.253906 Z M 27.472656 33.253906 "/>
<path style="fill:none;stroke-width:1.625;stroke-linecap:round;stroke-linejoin:miter;stroke:rgb(54.901963%,9.411765%,0%);stroke-opacity:1;stroke-miterlimit:4;" d="M 203.529358 189.680127 C 199.99618 193.642334 199.99618 193.566623 199.99618 193.566623 " transform="matrix(0.154783,0,0,0.154783,0.12998,0.465009)"/>
<path style="fill:none;stroke-width:1.5;stroke-linecap:round;stroke-linejoin:miter;stroke:rgb(54.901963%,9.411765%,0%);stroke-opacity:1;stroke-miterlimit:4;" d="M 208.879599 183.168984 L 205.497843 187.30785 " transform="matrix(0.154783,0,0,0.154783,0.12998,0.465009)"/>
<path style="fill:none;stroke-width:1.375;stroke-linecap:round;stroke-linejoin:miter;stroke:rgb(54.901963%,9.411765%,0%);stroke-opacity:1;stroke-miterlimit:4;" d="M 214.179366 174.714594 L 210.393818 180.796708 " transform="matrix(0.154783,0,0,0.154783,0.12998,0.465009)"/>
<path style="fill:none;stroke-width:1.25;stroke-linecap:round;stroke-linejoin:miter;stroke:rgb(54.901963%,9.411765%,0%);stroke-opacity:1;stroke-miterlimit:4;" d="M 218.67155 166.108781 L 215.542164 172.367554 " transform="matrix(0.154783,0,0,0.154783,0.12998,0.465009)"/>
<path style="fill:none;stroke-width:1.25;stroke-linecap:round;stroke-linejoin:miter;stroke:rgb(54.901963%,9.411765%,0%);stroke-opacity:1;stroke-miterlimit:4;" d="M 220.690509 161.540887 L 219.681029 163.736505 " transform="matrix(0.154783,0,0,0.154783,0.12998,0.465009)"/>
<path style="fill:none;stroke-width:0.75;stroke-linecap:round;stroke-linejoin:miter;stroke:rgb(54.901963%,9.411765%,0%);stroke-opacity:1;stroke-miterlimit:4;" d="M 222.987075 155.534484 L 222.129017 158.15913 " transform="matrix(0.154783,0,0,0.154783,0.12998,0.465009)"/>
<path style="fill-rule:evenodd;fill:rgb(96.862745%,87.450981%,45.09804%);fill-opacity:1;stroke-width:1.25;stroke-linecap:butt;stroke-linejoin:round;stroke:rgb(0%,0%,0%);stroke-opacity:1;stroke-miterlimit:4;" d="M 160.261027 215.958092 C 160.261027 215.958092 212.218148 201.282321 227.90716 137.522044 C 218.789195 202.968051 161.941993 223.7422 161.941993 223.7422 Z M 160.261027 215.958092 " transform="matrix(-0.153372,0,0,0.157573,38.974032,-0.349399)"/>
<path style=" stroke:none;fill-rule:evenodd;fill:rgb(54.901963%,9.411765%,0%);fill-opacity:1;" d="M 13.578125 34.308594 C 13.332031 34.308594 12.722656 33.613281 12.371094 33.535156 C 12.023438 33.453125 11.984375 33.09375 12.382812 33.082031 C 12.785156 33.070312 13.136719 33.546875 13.136719 33.546875 C 13.136719 33.546875 13.488281 33.855469 13.847656 33.894531 C 14.210938 33.933594 13.980469 34.398438 13.578125 34.308594 Z M 13.578125 34.308594 "/>
<path style="fill-rule:evenodd;fill:rgb(54.901963%,9.411765%,0%);fill-opacity:1;stroke-width:1.25;stroke-linecap:butt;stroke-linejoin:miter;stroke:rgb(54.901963%,9.411765%,0%);stroke-opacity:1;stroke-miterlimit:4;" d="M 195.510368 197.613378 C 195.510368 197.613378 190.110902 200.736937 190.849508 201.505432 C 191.613584 202.273927 196.427258 198.555404 196.529135 198.456243 C 196.605542 198.381873 198.5412 196.002018 195.510368 197.613378 Z M 195.510368 197.613378 " transform="matrix(-0.153372,0,0,0.157573,38.974032,-0.349399)"/>
<path style=" stroke:none;fill-rule:evenodd;fill:rgb(54.901963%,9.411765%,0%);fill-opacity:1;" d="M 11.878906 33.027344 C 11.878906 33.027344 12.125 32.9375 11.492188 32.683594 C 10.855469 32.429688 10.894531 32.136719 10.6875 32.015625 C 10.480469 31.898438 10.039062 31.578125 9.949219 31.765625 C 9.855469 31.949219 10.414062 32.324219 10.542969 32.363281 C 10.671875 32.402344 11.308594 33.003906 11.492188 33.054688 C 11.671875 33.109375 11.800781 33.082031 11.878906 33.027344 Z M 11.878906 33.027344 "/>
<path style="fill:none;stroke-width:1.625;stroke-linecap:round;stroke-linejoin:miter;stroke:rgb(54.901963%,9.411765%,0%);stroke-opacity:1;stroke-miterlimit:4;" d="M 203.533158 189.680529 C 199.992943 193.646953 199.992943 193.572583 199.992943 193.572583 " transform="matrix(-0.153372,0,0,0.157573,38.974032,-0.349399)"/>
<path style="fill:none;stroke-width:1.5;stroke-linecap:round;stroke-linejoin:miter;stroke:rgb(54.901963%,9.411765%,0%);stroke-opacity:1;stroke-miterlimit:4;" d="M 208.881685 183.160718 L 205.494285 187.300674 " transform="matrix(-0.153372,0,0,0.157573,38.974032,-0.349399)"/>
<path style="fill:none;stroke-width:1.375;stroke-linecap:round;stroke-linejoin:miter;stroke:rgb(54.901963%,9.411765%,0%);stroke-opacity:1;stroke-miterlimit:4;" d="M 214.179274 174.732066 L 210.384367 180.805653 " transform="matrix(-0.153372,0,0,0.157573,38.974032,-0.349399)"/>
<path style="fill:none;stroke-width:1.25;stroke-linecap:round;stroke-linejoin:miter;stroke:rgb(54.901963%,9.411765%,0%);stroke-opacity:1;stroke-miterlimit:4;" d="M 218.661849 166.105092 L 215.55461 172.352211 " transform="matrix(-0.153372,0,0,0.157573,38.974032,-0.349399)"/>
<path style="fill:none;stroke-width:1.25;stroke-linecap:round;stroke-linejoin:miter;stroke:rgb(54.901963%,9.411765%,0%);stroke-opacity:1;stroke-miterlimit:4;" d="M 220.699383 161.518913 L 219.680616 163.725237 " transform="matrix(-0.153372,0,0,0.157573,38.974032,-0.349399)"/>
<path style="fill:none;stroke-width:0.75;stroke-linecap:round;stroke-linejoin:miter;stroke:rgb(54.901963%,9.411765%,0%);stroke-opacity:1;stroke-miterlimit:4;" d="M 222.991609 155.519696 L 222.125657 158.147452 " transform="matrix(-0.153372,0,0,0.157573,38.974032,-0.349399)"/>
<path style="fill-rule:evenodd;fill:rgb(12.941177%,47.450981%,0%);fill-opacity:1;stroke-width:2.3996;stroke-linecap:butt;stroke-linejoin:round;stroke:rgb(0%,0%,0%);stroke-opacity:1;stroke-miterlimit:4;" d="M 691.890346 247.214436 C 692.374795 254.917179 699.883758 262.280806 696.977063 275.651604 C 693.198359 290.863309 679.972896 326.954775 682.249807 333.301059 C 678.325768 327.923673 679.003997 322.885401 678.664883 315.376439 C 678.325768 307.819031 689.613435 279.914757 690.582333 270.419553 C 690.582333 261.941692 691.405897 250.314911 691.890346 247.214436 Z M 691.890346 247.214436 " transform="matrix(0.0806328,0,0,0.0806328,-20,-0.000000818203)"/>
<path style="fill-rule:evenodd;fill:rgb(12.941177%,47.450981%,0%);fill-opacity:1;stroke-width:2.3996;stroke-linecap:butt;stroke-linejoin:round;stroke:rgb(0%,0%,0%);stroke-opacity:1;stroke-miterlimit:4;" d="M 691.890346 247.408216 C 691.890346 247.408216 704.146911 262.91059 703.468682 275.167155 C 702.838898 287.42372 695.959719 301.811861 698.285075 308.158146 C 694.361037 302.78076 693.343694 299.34117 693.053024 291.832208 C 692.71391 284.323245 699.060194 275.990719 697.752181 267.803527 C 696.444168 259.664781 691.745011 247.408216 691.890346 247.408216 Z M 691.890346 247.408216 " transform="matrix(0.0806328,0,0,0.0806328,-20,-0.000000818203)"/>
<path style="fill-rule:evenodd;fill:rgb(12.941177%,47.450981%,0%);fill-opacity:1;stroke-width:2.3996;stroke-linecap:butt;stroke-linejoin:round;stroke:rgb(0%,0%,0%);stroke-opacity:1;stroke-miterlimit:4;" d="M 290.524185 250.79936 C 290.039735 258.502103 284.323235 265.381281 287.22993 278.752079 C 291.008634 293.963784 304.379432 313.244862 302.2963 335.287301 C 306.171894 329.909915 307.334572 323.8543 307.673686 316.345337 C 308.012801 308.836375 292.801096 283.499681 291.832197 274.004477 C 291.832197 265.526616 291.008634 253.94828 290.524185 250.79936 Z M 290.524185 250.79936 " transform="matrix(0.0806328,0,0,0.0806328,-20,-0.000000818203)"/>
<path style="fill-rule:evenodd;fill:rgb(12.941177%,47.450981%,0%);fill-opacity:1;stroke-width:2.3996;stroke-linecap:butt;stroke-linejoin:round;stroke:rgb(0%,0%,0%);stroke-opacity:1;stroke-miterlimit:4;" d="M 290.524185 250.99314 C 290.524185 250.99314 278.606734 266.011065 279.236518 278.26763 C 279.381853 286.454822 294.448223 320.60849 292.122867 326.954775 C 296.046906 321.577388 297.209584 322.207172 297.064249 314.068426 C 292.655761 293.14022 284.807684 279.720978 286.115697 271.582231 C 287.42371 263.39504 290.669519 250.99314 290.524185 250.99314 Z M 290.524185 250.99314 " transform="matrix(0.0806328,0,0,0.0806328,-20,-0.000000818203)"/>
<path style="fill-rule:nonzero;fill:rgb(100%,100%,100%);fill-opacity:1;stroke-width:1.4936;stroke-linecap:square;stroke-linejoin:round;stroke:rgb(0%,0%,0%);stroke-opacity:1;stroke-miterlimit:4;" d="M 99.97276 125.792624 L 122.116528 194.022867 L 193.86668 194.022867 L 135.829744 236.169333 L 158.009696 304.435753 L 99.97276 262.253111 L 41.899641 304.435753 L 64.079593 236.20551 L 6.042657 194.022867 L 77.792809 194.022867 Z M 99.97276 125.792624 " transform="matrix(0.107959,0,0,0.107975,9.062483,-4.426258)"/>
</g>
</svg>
