<?xml version="1.0" encoding="UTF-8"?>
<svg xmlns="http://www.w3.org/2000/svg" xmlns:xlink="http://www.w3.org/1999/xlink" width="40px" height="40px" viewBox="0 0 40 40" version="1.1">
<g id="surface1">
<rect x="0" y="0" width="40" height="40" style="fill:rgb(0%,0%,40.000001%);fill-opacity:1;stroke:none;"/>
<path style=" stroke:none;fill-rule:evenodd;fill:rgb(100%,100%,100%);fill-opacity:1;" d="M 21.992188 18.042969 L 37.703125 18.042969 L 37.683594 29.289062 C 37.816406 33.8125 35.015625 36.617188 29.859375 37.882812 C 26.199219 36.96875 21.980469 35.078125 21.976562 29.417969 Z M 21.992188 18.042969 "/>
<path style="fill-rule:evenodd;fill:rgb(0%,63.529414%,74.117649%);fill-opacity:1;stroke-width:1.25;stroke-linecap:butt;stroke-linejoin:miter;stroke:rgb(0%,0%,0%);stroke-opacity:1;stroke-miterlimit:4;" d="M 44.052866 22.730062 L 213.348022 22.730062 L 213.171811 143.516336 C 214.581502 192.067252 184.405291 222.187207 128.854629 235.758698 C 89.427316 225.952201 43.920708 205.638743 43.876655 144.873485 Z M 44.052866 22.730062 " transform="matrix(0.0886719,0,0,0.0892266,18.433594,16.354687)"/>
<path style=" stroke:none;fill-rule:evenodd;fill:rgb(64.705884%,23.921569%,3.137255%);fill-opacity:1;" d="M 37.238281 30.4375 C 36.691406 34.570312 33.527344 36.378906 29.859375 37.339844 C 26.613281 36.460938 23.121094 35.0625 22.445312 30.457031 Z M 37.238281 30.4375 "/>
<path style="fill-rule:evenodd;fill:rgb(100%,77.64706%,70.980394%);fill-opacity:1;stroke-width:1.25;stroke-linecap:butt;stroke-linejoin:round;stroke:rgb(0%,0%,0%);stroke-opacity:1;stroke-miterlimit:4;" d="M 155.770929 197.189395 C 155.859035 197.276953 156.431722 206.470544 151.453748 212.118036 C 155.859035 213.518964 158.85463 211.811583 160.264321 210.016644 C 161.674013 208.265483 162.158594 205.988975 162.158594 205.988975 C 162.158594 205.988975 163.392075 205.244732 163.568286 203.537351 C 163.656392 201.217064 162.643176 201.217064 161.762119 200.735495 L 161.982383 195.482014 C 161.982383 195.482014 156.916304 192.373705 155.770929 197.189395 Z M 155.770929 197.189395 " transform="matrix(0.0886719,0,0,0.0892266,18.433594,16.354687)"/>
<path style="fill-rule:evenodd;fill:rgb(100%,60.392159%,3.137255%);fill-opacity:1;stroke-width:1.25;stroke-linecap:round;stroke-linejoin:miter;stroke:rgb(0%,0%,0%);stroke-opacity:1;stroke-miterlimit:4;" d="M 155.506612 210.323097 L 154.008815 209.097284 " transform="matrix(0.0886719,0,0,0.0892266,18.433594,16.354687)"/>
<path style="fill-rule:evenodd;fill:rgb(100%,77.64706%,70.980394%);fill-opacity:1;stroke-width:1.25;stroke-linecap:butt;stroke-linejoin:miter;stroke:rgb(0%,0%,0%);stroke-opacity:1;stroke-miterlimit:4;" d="M 141.62996 69.398481 C 141.62996 69.398481 141.762118 75.002194 141.409696 75.6151 C 141.057273 76.184227 137.841414 77.672713 137.841414 77.672713 L 140.572691 83.495321 C 140.572691 83.495321 148.281942 82.400845 148.325995 82.400845 C 148.370048 82.400845 151.62996 73.688824 151.62996 73.688824 C 151.62996 73.688824 149.911898 70.799409 150.352427 67.778658 C 147.753308 59.635763 141.762118 69.44226 141.62996 69.398481 Z M 141.62996 69.398481 " transform="matrix(0.0886719,0,0,0.0892266,18.433594,16.354687)"/>
<path style="fill-rule:evenodd;fill:rgb(0%,31.764707%,12.941177%);fill-opacity:1;stroke-width:1.25;stroke-linecap:butt;stroke-linejoin:round;stroke:rgb(0%,0%,0%);stroke-opacity:1;stroke-miterlimit:4;" d="M 131.453748 203.099561 C 131.453748 203.099561 135.770929 207.389903 140.748903 206.864555 C 152.026436 205.638743 155.286348 195.569572 158.766524 195.482014 C 162.2467 195.394456 164.40529 201.567296 167.709255 200.823053 C 164.889872 195.65713 161.850224 184.23081 162.334806 176.131694 C 162.819387 168.076357 162.819387 134.060071 162.819387 134.060071 C 162.819387 134.060071 157.180621 116.50469 154.537449 113.615276 C 157.180621 110.813419 158.942735 105.822613 158.85463 100.350237 C 158.766524 94.921641 158.85463 88.923917 158.85463 88.923917 C 158.85463 88.923917 160.176215 87.391652 160.08811 83.188868 C 160.000004 78.942304 152.951546 72.857022 152.026436 73.119697 C 151.057273 73.42615 142.2467 81.043696 141.497801 82.794856 C 140.748903 84.589796 139.691634 76.315564 141.409696 75.571321 C 143.083704 74.827078 137.444938 74.345509 133.876656 78.592072 C 130.308374 82.794856 131.365643 203.274677 131.453748 203.099561 Z M 131.453748 203.099561 " transform="matrix(0.0886719,0,0,0.0892266,18.433594,16.354687)"/>
<path style=" stroke:none;fill-rule:evenodd;fill:rgb(0%,0%,0%);fill-opacity:1;" d="M 26.335938 20.378906 L 29.265625 20.390625 L 29.242188 19.03125 L 30.3125 19.042969 L 30.320312 20.390625 L 33.242188 20.390625 L 33.25 21.441406 L 30.320312 21.453125 L 30.296875 33.871094 L 29.257812 33.878906 L 29.242188 21.441406 L 26.332031 21.453125 Z M 26.335938 20.378906 "/>
<path style="fill-rule:evenodd;fill:rgb(100%,77.64706%,70.980394%);fill-opacity:1;stroke-width:1.25;stroke-linecap:butt;stroke-linejoin:miter;stroke:rgb(0%,0%,0%);stroke-opacity:1;stroke-miterlimit:4;" d="M 122.026435 81.963055 C 122.026435 81.963055 119.779739 81.569044 118.061678 82.094392 C 116.299563 82.61974 120.70485 62.525177 120.70485 60.861575 C 122.2467 60.117332 129.867845 58.716404 129.647581 53.331586 C 129.118947 50.09194 117.841413 53.550481 118.061678 57.665708 C 117.312779 59.723321 109.955951 80.693464 111.409695 87.610547 C 114.008814 89.66816 118.766524 89.274149 122.026435 88.748801 Z M 122.026435 81.963055 " transform="matrix(0.0886719,0,0,0.0892266,18.433594,16.354687)"/>
<path style="fill:none;stroke-width:0.625;stroke-linecap:round;stroke-linejoin:miter;stroke:rgb(0%,0%,0%);stroke-opacity:1;stroke-miterlimit:4;" d="M 124.229079 53.200249 C 124.229079 53.200249 123.568286 56.921465 126.960356 57.446813 " transform="matrix(0.0886719,0,0,0.0892266,18.433594,16.354687)"/>
<path style="fill:none;stroke-width:0.375;stroke-linecap:butt;stroke-linejoin:miter;stroke:rgb(0%,0%,0%);stroke-opacity:1;stroke-miterlimit:4;" d="M 129.207052 53.15647 C 129.074894 53.200249 124.801766 55.870769 124.801766 55.870769 " transform="matrix(0.0886719,0,0,0.0892266,18.433594,16.354687)"/>
<path style="fill:none;stroke-width:0.375;stroke-linecap:butt;stroke-linejoin:miter;stroke:rgb(0%,0%,0%);stroke-opacity:1;stroke-miterlimit:4;" d="M 128.942735 54.820073 L 125.94714 57.009023 " transform="matrix(0.0886719,0,0,0.0892266,18.433594,16.354687)"/>
<path style="fill:none;stroke-width:0.375;stroke-linecap:butt;stroke-linejoin:miter;stroke:rgb(0%,0%,0%);stroke-opacity:1;stroke-miterlimit:4;" d="M 127.797361 52.368448 L 124.493396 54.338504 " transform="matrix(0.0886719,0,0,0.0892266,18.433594,16.354687)"/>
<path style="fill-rule:evenodd;fill:rgb(100%,60.392159%,3.137255%);fill-opacity:1;stroke-width:1.25;stroke-linecap:butt;stroke-linejoin:miter;stroke:rgb(0%,0%,0%);stroke-opacity:1;stroke-miterlimit:4;" d="M 95.506611 163.56712 L 125.63877 194.825329 C 136.035246 183.35523 128.810576 140.539363 115.110136 132.659143 C 113.48018 137.737507 110.660797 143.822789 107.709255 145.792844 C 101.189431 150.214523 85.154188 155.424225 90.528638 158.751429 C 91.718065 157.087827 94.933924 155.468004 96.431722 159.232998 C 98.193836 165.143164 89.779739 165.537175 89.779739 165.537175 C 89.779739 165.537175 84.40529 164.88049 83.48018 159.408114 C 82.511017 153.979518 91.453748 149.03249 92.202647 148.638479 C 92.951545 148.332026 104.581501 145.267496 106.56388 134.935651 C 109.030841 124.778922 111.541854 126.267408 112.026435 126.092292 C 127.224673 127.580778 137.180621 154.811319 137.753308 173.986523 C 138.325995 193.117948 129.955951 205.813859 128.458154 206.64566 C 126.960356 207.52124 92.202647 165.449617 92.202647 165.449617 Z M 95.506611 163.56712 " transform="matrix(0.0886719,0,0,0.0892266,18.433594,16.354687)"/>
<path style="fill:none;stroke-width:1.25;stroke-linecap:butt;stroke-linejoin:miter;stroke:rgb(0%,0%,0%);stroke-opacity:1;stroke-miterlimit:4;" d="M 117.444938 134.454082 L 117.665202 190.885219 " transform="matrix(0.0886719,0,0,0.0892266,18.433594,16.354687)"/>
<path style="fill:none;stroke-width:1.25;stroke-linecap:butt;stroke-linejoin:miter;stroke:rgb(0%,0%,0%);stroke-opacity:1;stroke-miterlimit:4;" d="M 114.09692 135.460999 C 114.09692 135.592336 114.273131 186.726213 114.273131 186.726213 " transform="matrix(0.0886719,0,0,0.0892266,18.433594,16.354687)"/>
<path style="fill:none;stroke-width:1.25;stroke-linecap:butt;stroke-linejoin:miter;stroke:rgb(0%,0%,0%);stroke-opacity:1;stroke-miterlimit:4;" d="M 110.440532 142.90343 L 110.616744 183.661683 " transform="matrix(0.0886719,0,0,0.0892266,18.433594,16.354687)"/>
<path style="fill:none;stroke-width:1.25;stroke-linecap:butt;stroke-linejoin:miter;stroke:rgb(0%,0%,0%);stroke-opacity:1;stroke-miterlimit:4;" d="M 107.400885 145.792844 L 107.621149 179.502677 " transform="matrix(0.0886719,0,0,0.0892266,18.433594,16.354687)"/>
<path style="fill:none;stroke-width:1.25;stroke-linecap:butt;stroke-linejoin:miter;stroke:rgb(0%,0%,0%);stroke-opacity:1;stroke-miterlimit:4;" d="M 104.229078 147.325109 L 104.229078 175.781462 " transform="matrix(0.0886719,0,0,0.0892266,18.433594,16.354687)"/>
<path style="fill:none;stroke-width:1.25;stroke-linecap:butt;stroke-linejoin:miter;stroke:rgb(0%,0%,0%);stroke-opacity:1;stroke-miterlimit:4;" d="M 100.748902 149.557838 L 100.748902 172.104026 " transform="matrix(0.0886719,0,0,0.0892266,18.433594,16.354687)"/>
<path style="fill:none;stroke-width:1.25;stroke-linecap:butt;stroke-linejoin:miter;stroke:rgb(0%,0%,0%);stroke-opacity:1;stroke-miterlimit:4;" d="M 97.753307 151.352778 L 97.753307 168.645484 " transform="matrix(0.0886719,0,0,0.0892266,18.433594,16.354687)"/>
<path style="fill:none;stroke-width:1.25;stroke-linecap:round;stroke-linejoin:miter;stroke:rgb(100%,87.450981%,0%);stroke-opacity:1;stroke-miterlimit:4;" d="M 95.02203 167.113219 L 126.079299 202.70555 " transform="matrix(0.0886719,0,0,0.0892266,18.433594,16.354687)"/>
<path style="fill:none;stroke-width:1.25;stroke-linecap:round;stroke-linejoin:miter;stroke:rgb(100%,87.450981%,0%);stroke-opacity:1;stroke-miterlimit:4;" d="M 127.621149 144.698369 C 127.621149 144.698369 141.674013 175.475009 128.634365 200.823053 " transform="matrix(0.0886719,0,0,0.0892266,18.433594,16.354687)"/>
<path style="fill:none;stroke-width:1.25;stroke-linecap:round;stroke-linejoin:miter;stroke:rgb(100%,87.450981%,0%);stroke-opacity:1;stroke-miterlimit:4;" d="M 91.365642 160.633926 C 91.365642 160.633926 92.378858 157.919628 93.700444 159.057882 " transform="matrix(0.0886719,0,0,0.0892266,18.433594,16.354687)"/>
<path style="fill:none;stroke-width:1.25;stroke-linecap:round;stroke-linejoin:miter;stroke:rgb(100%,87.450981%,0%);stroke-opacity:1;stroke-miterlimit:4;" d="M 88.898682 152.753706 C 88.898682 152.753706 83.303968 157.744512 86.387669 160.94038 " transform="matrix(0.0886719,0,0,0.0892266,18.433594,16.354687)"/>
<path style="fill:none;stroke-width:1.25;stroke-linecap:butt;stroke-linejoin:miter;stroke:rgb(0%,0%,0%);stroke-opacity:1;stroke-miterlimit:4;" d="M 141.01322 83.013752 C 141.01322 83.013752 141.497801 87.304094 140.572691 90.587519 C 139.603528 93.870945 144.140973 102.976978 142.422911 104.859475 " transform="matrix(0.0886719,0,0,0.0892266,18.433594,16.354687)"/>
<path style="fill:none;stroke-width:1.25;stroke-linecap:butt;stroke-linejoin:miter;stroke:rgb(0%,0%,0%);stroke-opacity:1;stroke-miterlimit:4;" d="M 142.907493 113.702834 L 154.757713 113.615276 " transform="matrix(0.0886719,0,0,0.0892266,18.433594,16.354687)"/>
<path style="fill:none;stroke-width:1.25;stroke-linecap:round;stroke-linejoin:miter;stroke:rgb(0%,0%,0%);stroke-opacity:1;stroke-miterlimit:4;" d="M 138.590312 118.474745 C 138.678418 118.69364 140.000004 124.691364 139.603528 128.80659 " transform="matrix(0.0886719,0,0,0.0892266,18.433594,16.354687)"/>
<path style="fill:none;stroke-width:1.25;stroke-linecap:round;stroke-linejoin:miter;stroke:rgb(0%,0%,0%);stroke-opacity:1;stroke-miterlimit:4;" d="M 142.422911 120.663695 C 142.070488 121.889508 137.180621 135.767452 137.356832 136.336579 " transform="matrix(0.0886719,0,0,0.0892266,18.433594,16.354687)"/>
<path style="fill:none;stroke-width:1.25;stroke-linecap:round;stroke-linejoin:miter;stroke:rgb(0%,0%,0%);stroke-opacity:1;stroke-miterlimit:4;" d="M 145.3304 114.359519 C 145.462559 114.622193 144.977977 123.202878 143.656392 124.42869 " transform="matrix(0.0886719,0,0,0.0892266,18.433594,16.354687)"/>
<path style="fill:none;stroke-width:1.25;stroke-linecap:round;stroke-linejoin:miter;stroke:rgb(0%,0%,0%);stroke-opacity:1;stroke-miterlimit:4;" d="M 151.365643 113.702834 C 151.365643 113.702834 159.074894 131.520888 158.986788 138.569308 C 158.85463 145.617728 161.585907 159.889683 159.823793 166.19386 " transform="matrix(0.0886719,0,0,0.0892266,18.433594,16.354687)"/>
<path style="fill:none;stroke-width:1.25;stroke-linecap:round;stroke-linejoin:miter;stroke:rgb(0%,0%,0%);stroke-opacity:1;stroke-miterlimit:4;" d="M 153.78855 138.394192 C 153.78855 138.394192 153.215863 151.659231 147.709255 156.781374 C 142.158594 161.947297 160.925114 176.700821 160.925114 176.700821 " transform="matrix(0.0886719,0,0,0.0892266,18.433594,16.354687)"/>
<path style="fill:none;stroke-width:1.25;stroke-linecap:round;stroke-linejoin:miter;stroke:rgb(0%,0%,0%);stroke-opacity:1;stroke-miterlimit:4;" d="M 153.612339 175.86902 C 153.612339 175.86902 155.682823 194.081086 159.163 195.394456 " transform="matrix(0.0886719,0,0,0.0892266,18.433594,16.354687)"/>
<path style="fill:none;stroke-width:1.25;stroke-linecap:round;stroke-linejoin:miter;stroke:rgb(0%,0%,0%);stroke-opacity:1;stroke-miterlimit:4;" d="M 136.607933 145.355054 C 136.696039 145.53017 134.757713 157.656954 136.343616 159.627009 C 137.929519 161.597065 151.189431 180.071804 150.616744 199.247008 " transform="matrix(0.0886719,0,0,0.0892266,18.433594,16.354687)"/>
<path style="fill:none;stroke-width:1.25;stroke-linecap:round;stroke-linejoin:miter;stroke:rgb(0%,0%,0%);stroke-opacity:1;stroke-miterlimit:4;" d="M 146.828198 193.511959 C 146.828198 193.511959 146.475775 205.069616 135.770929 205.988975 " transform="matrix(0.0886719,0,0,0.0892266,18.433594,16.354687)"/>
<path style="fill:none;stroke-width:1.25;stroke-linecap:round;stroke-linejoin:miter;stroke:rgb(0%,0%,0%);stroke-opacity:1;stroke-miterlimit:4;" d="M 143.656392 185.894412 C 143.656392 185.894412 146.872251 197.933638 135.94714 205.551185 " transform="matrix(0.0886719,0,0,0.0892266,18.433594,16.354687)"/>
<path style="fill:none;stroke-width:1.25;stroke-linecap:round;stroke-linejoin:miter;stroke:rgb(0%,0%,0%);stroke-opacity:1;stroke-miterlimit:4;" d="M 147.885466 156.868932 C 147.885466 156.868932 160.176215 169.652401 160.748903 175.299893 " transform="matrix(0.0886719,0,0,0.0892266,18.433594,16.354687)"/>
<path style="fill:none;stroke-width:1.25;stroke-linecap:round;stroke-linejoin:miter;stroke:rgb(0%,0%,0%);stroke-opacity:1;stroke-miterlimit:4;" d="M 151.453748 113.965508 C 151.453748 113.965508 153.612339 123.071541 152.775334 124.691364 " transform="matrix(0.0886719,0,0,0.0892266,18.433594,16.354687)"/>
<path style="fill-rule:evenodd;fill:rgb(100%,77.64706%,70.980394%);fill-opacity:1;stroke-width:1.25;stroke-linecap:butt;stroke-linejoin:miter;stroke:rgb(0%,0%,0%);stroke-opacity:1;stroke-miterlimit:4;" d="M 113.524233 132.702922 C 113.524233 132.702922 112.202647 130.382634 112.378858 127.843452 C 112.511017 125.260491 111.93833 121.32038 120.176215 118.124513 C 125.198242 113.00237 130.792955 109.981618 133.832603 108.405574 C 138.281942 105.51616 141.189431 106.172845 143.78855 105.209707 C 145.550665 103.239652 145.462559 98.861751 147.268726 95.009199 C 149.074894 91.112867 152.290753 83.145089 155.726876 84.370901 C 159.207052 85.596713 156.475775 95.972337 155.154189 99.605994 C 153.832603 103.239652 152.687229 107.004646 150.39648 109.237375 C 148.061678 111.470104 137.621149 115.497773 135.550665 116.242016 C 133.524233 116.986259 124.140973 119.087651 121.762118 122.414856 C 119.339211 125.698281 119.515422 130.55775 113.524233 132.702922 Z M 113.524233 132.702922 " transform="matrix(0.0886719,0,0,0.0892266,18.433594,16.354687)"/>
<path style="fill:none;stroke-width:1.25;stroke-linecap:butt;stroke-linejoin:miter;stroke:rgb(0%,0%,0%);stroke-opacity:1;stroke-miterlimit:4;" d="M 112.86344 125.785839 C 113.083704 125.698281 116.960356 124.472469 118.766524 127.93101 " transform="matrix(0.0886719,0,0,0.0892266,18.433594,16.354687)"/>
<path style="fill-rule:evenodd;fill:rgb(100%,77.64706%,70.980394%);fill-opacity:1;stroke-width:1.25;stroke-linecap:butt;stroke-linejoin:round;stroke:rgb(0%,0%,0%);stroke-opacity:1;stroke-miterlimit:4;" d="M 141.894277 55.214084 C 141.894277 55.214084 140.176215 58.01594 139.691634 59.7671 C 139.295158 61.036691 138.105731 59.679542 137.488991 62.481398 L 138.502206 62.656514 C 138.105731 63.488316 137.973572 64.845465 137.885466 65.195697 C 137.797361 65.50215 137.224673 67.034415 137.312779 68.172669 C 137.356832 68.741796 138.458154 71.280978 147.444938 67.428426 C 156.387669 63.532095 144.537449 52.587343 141.894277 55.214084 Z M 141.894277 55.214084 " transform="matrix(0.0886719,0,0,0.0892266,18.433594,16.354687)"/>
<path style="fill-rule:evenodd;fill:rgb(77.254903%,57.254905%,0%);fill-opacity:1;stroke-width:1.2611;stroke-linecap:round;stroke-linejoin:round;stroke:rgb(0%,0%,0%);stroke-opacity:1;stroke-miterlimit:4;" d="M 140.881061 55.564316 C 141.806171 55.082747 148.370048 54.51362 147.268726 67.25331 C 148.546259 67.078194 149.295158 66.903078 150.044057 68.172669 C 150.792955 69.398481 150.70485 70.886967 152.026436 70.886967 C 153.392074 70.886967 153.568286 70.624293 153.876656 69.617376 C 154.229079 68.654238 159.427317 70.799409 160.748903 66.202614 C 160.528638 65.283255 157.577097 63.882327 157.224674 62.218724 C 157.973572 59.942216 156.916304 52.456006 147.356832 52.018216 C 142.422911 51.930658 141.409696 53.988272 140.881061 55.564316 Z M 140.881061 55.564316 " transform="matrix(0.0886719,0,0,0.0892266,18.433594,16.354687)"/>
<path style="fill:none;stroke-width:1.25;stroke-linecap:round;stroke-linejoin:miter;stroke:rgb(0%,0%,0%);stroke-opacity:1;stroke-miterlimit:4;" d="M 140.440533 58.103498 C 140.484585 58.191056 143.392074 59.022857 143.700444 60.423785 " transform="matrix(0.0886719,0,0,0.0892266,18.433594,16.354687)"/>
<path style=" stroke:none;fill-rule:evenodd;fill:rgb(0%,0%,0%);fill-opacity:1;" d="M 31.042969 21.84375 C 31.042969 21.882812 31.011719 21.910156 30.976562 21.910156 C 30.941406 21.910156 30.910156 21.882812 30.910156 21.84375 C 30.910156 21.804688 30.941406 21.773438 30.976562 21.773438 C 31.011719 21.773438 31.042969 21.804688 31.042969 21.84375 Z M 31.042969 21.84375 "/>
<path style="fill:none;stroke-width:1.25;stroke-linecap:round;stroke-linejoin:round;stroke:rgb(0%,0%,0%);stroke-opacity:1;stroke-miterlimit:4;" d="M 154.361237 61.562039 C 154.361237 61.562039 153.303969 66.640404 157.973572 68.610459 " transform="matrix(0.0886719,0,0,0.0892266,18.433594,16.354687)"/>
<path style="fill:none;stroke-width:1.25;stroke-linecap:round;stroke-linejoin:round;stroke:rgb(0%,0%,0%);stroke-opacity:1;stroke-miterlimit:4;" d="M 150.925114 62.174945 C 150.925114 62.174945 152.643176 62.262503 152.643176 63.838548 C 152.643176 65.458371 151.233484 65.633487 151.365643 66.946857 C 151.497801 68.216448 153.78855 68.654238 153.876656 69.748713 " transform="matrix(0.0886719,0,0,0.0892266,18.433594,16.354687)"/>
<path style="fill:none;stroke-width:1.25;stroke-linecap:round;stroke-linejoin:round;stroke:rgb(0%,0%,0%);stroke-opacity:1;stroke-miterlimit:4;" d="M 143.392074 52.806238 C 143.48018 52.806238 151.62996 53.725598 151.189431 55.739432 C 150.70485 57.797045 149.427317 56.965244 149.47137 58.716404 C 149.515422 60.467564 152.731282 59.416868 152.731282 59.416868 C 152.731282 59.416868 152.951546 57.928382 154.317185 58.059719 C 155.682823 58.191056 155.02203 59.723321 156.916304 59.723321 " transform="matrix(0.0886719,0,0,0.0892266,18.433594,16.354687)"/>
<path style="fill:none;stroke-width:1.25;stroke-linecap:round;stroke-linejoin:miter;stroke:rgb(0%,0%,0%);stroke-opacity:1;stroke-miterlimit:4;" d="M 138.414101 65.458371 L 140.352427 65.414592 " transform="matrix(0.0886719,0,0,0.0892266,18.433594,16.354687)"/>
<path style="fill:none;stroke-width:1.25;stroke-linecap:round;stroke-linejoin:miter;stroke:rgb(0%,0%,0%);stroke-opacity:1;stroke-miterlimit:4;" d="M 143.436127 73.688824 C 143.436127 73.688824 144.185026 77.059807 141.453748 76.753354 " transform="matrix(0.0886719,0,0,0.0892266,18.433594,16.354687)"/>
<path style=" stroke:none;fill-rule:nonzero;fill:rgb(100%,100%,100%);fill-opacity:1;" d="M 0 0.00390625 L 0 1.660156 L 19.996094 14.804688 L 22.511719 14.804688 L 22.511719 13.152344 L 2.515625 0.00390625 Z M 22.511719 0.00390625 L 22.511719 1.660156 L 2.515625 14.804688 L 0 14.804688 L 0 13.152344 L 19.996094 0.00390625 Z M 22.511719 0.00390625 "/>
<path style=" stroke:none;fill-rule:nonzero;fill:rgb(100%,100%,100%);fill-opacity:1;" d="M 9.378906 0.00390625 L 9.378906 14.804688 L 13.132812 14.804688 L 13.132812 0.00390625 Z M 0 4.9375 L 0 9.871094 L 22.511719 9.871094 L 22.511719 4.9375 Z M 0 4.9375 "/>
<path style=" stroke:none;fill-rule:nonzero;fill:rgb(80.000001%,0%,0%);fill-opacity:1;" d="M 0 5.925781 L 0 8.886719 L 22.511719 8.886719 L 22.511719 5.925781 Z M 10.132812 0.00390625 L 10.132812 14.804688 L 12.382812 14.804688 L 12.382812 0.00390625 Z M 10.132812 0.00390625 "/>
<path style=" stroke:none;fill-rule:nonzero;fill:rgb(80.000001%,0%,0%);fill-opacity:1;" d="M 0 14.804688 L 7.503906 9.871094 L 9.183594 9.871094 L 1.679688 14.804688 Z M 0 0.00390625 L 7.503906 4.9375 L 5.828125 4.9375 L 0 1.109375 Z M 13.332031 4.9375 L 20.835938 0.00390625 L 22.511719 0.00390625 L 15.007812 4.9375 Z M 22.511719 14.804688 L 15.007812 9.871094 L 16.6875 9.871094 L 22.511719 13.703125 Z M 22.511719 14.804688 "/>
</g>
</svg>
