<?xml version="1.0" encoding="UTF-8"?>
<svg xmlns="http://www.w3.org/2000/svg" xmlns:xlink="http://www.w3.org/1999/xlink" width="40px" height="40px" viewBox="0 0 40 40" version="1.1">
<g id="surface1">
<path style=" stroke:none;fill-rule:evenodd;fill:rgb(80.784315%,0%,0%);fill-opacity:1;" d="M 20 0 L 40 0 L 40 40 L 20 40 Z M 20 0 "/>
<path style=" stroke:none;fill-rule:evenodd;fill:rgb(100%,100%,100%);fill-opacity:1;" d="M 0 0 L 20 0 L 20 40 L 0 40 Z M 0 0 "/>
<path style=" stroke:none;fill-rule:evenodd;fill:rgb(94.509804%,93.333334%,93.333334%);fill-opacity:1;" d="M 8.1875 8.441406 C 8.1875 8.507812 8.117188 8.558594 8.03125 8.558594 C 7.941406 8.558594 7.871094 8.507812 7.871094 8.441406 C 7.871094 8.378906 7.941406 8.328125 8.03125 8.328125 C 8.117188 8.328125 8.1875 8.378906 8.1875 8.441406 Z M 8.1875 8.441406 "/>
<path style=" stroke:none;fill-rule:evenodd;fill:rgb(80.000001%,0%,0%);fill-opacity:1;" d="M 3.183594 7.890625 L 3.183594 10.796875 L 6.089844 10.796875 C 6.089844 11.28125 6.574219 11.765625 7.058594 11.765625 L 7.058594 14.671875 L 9.964844 14.671875 L 9.964844 11.765625 C 10.453125 11.765625 10.9375 11.28125 10.9375 10.796875 L 13.84375 10.796875 L 13.84375 7.890625 L 10.9375 7.890625 C 10.9375 7.40625 10.453125 6.921875 9.964844 6.921875 L 9.964844 4.011719 L 7.058594 4.011719 L 7.058594 6.921875 C 6.574219 6.921875 6.089844 7.40625 6.089844 7.890625 Z M 3.183594 7.890625 "/>
<path style=" stroke:none;fill-rule:evenodd;fill:rgb(100%,90.196079%,0%);fill-opacity:1;" d="M 3.28125 7.984375 L 3.28125 10.699219 L 6.1875 10.699219 C 6.1875 11.183594 6.671875 11.667969 7.15625 11.667969 L 7.15625 14.574219 L 9.871094 14.574219 L 9.871094 11.667969 C 10.355469 11.667969 10.839844 11.183594 10.839844 10.699219 L 13.746094 10.699219 L 13.746094 7.984375 L 10.839844 7.984375 C 10.839844 7.5 10.355469 7.015625 9.871094 7.015625 L 9.871094 4.109375 L 7.15625 4.109375 L 7.15625 7.015625 C 6.671875 7.015625 6.1875 7.5 6.1875 7.984375 Z M 3.28125 7.984375 "/>
<path style=" stroke:none;fill-rule:evenodd;fill:rgb(43.921569%,43.921569%,43.921569%);fill-opacity:1;" d="M 3.375 8.082031 L 3.375 10.601562 L 6.28125 10.601562 C 6.28125 11.085938 6.765625 11.570312 7.25 11.570312 L 7.25 14.476562 L 9.769531 14.476562 L 9.769531 11.570312 C 10.253906 11.570312 10.738281 11.085938 10.738281 10.601562 L 13.644531 10.601562 L 13.644531 8.082031 L 10.738281 8.082031 C 10.738281 7.597656 10.253906 7.113281 9.769531 7.113281 L 9.769531 4.207031 L 7.25 4.207031 L 7.25 7.113281 C 6.765625 7.113281 6.28125 7.597656 6.28125 8.082031 Z M 3.375 8.082031 "/>
<path style=" stroke:none;fill-rule:evenodd;fill:rgb(62.7451%,62.7451%,62.7451%);fill-opacity:1;" d="M 3.472656 8.179688 L 3.472656 10.503906 L 6.378906 10.503906 C 6.378906 10.988281 6.863281 11.472656 7.347656 11.472656 L 7.347656 14.382812 L 9.671875 14.382812 L 9.671875 11.472656 C 10.15625 11.472656 10.640625 10.988281 10.640625 10.503906 L 13.550781 10.503906 L 13.550781 8.179688 L 10.640625 8.179688 C 10.640625 7.695312 10.15625 7.210938 9.671875 7.210938 L 9.671875 4.304688 L 7.347656 4.304688 L 7.347656 7.210938 C 6.863281 7.210938 6.378906 7.695312 6.378906 8.179688 Z M 3.472656 8.179688 "/>
<path style=" stroke:none;fill-rule:evenodd;fill:rgb(81.568629%,81.568629%,81.568629%);fill-opacity:1;" d="M 7.371094 6.96875 C 7.542969 7.140625 7.40625 7.554688 7.0625 7.894531 C 6.722656 8.234375 6.308594 8.375 6.140625 8.203125 C 5.96875 8.035156 6.105469 7.621094 6.449219 7.277344 C 6.789062 6.9375 7.203125 6.800781 7.371094 6.96875 Z M 7.371094 6.96875 "/>
<path style=" stroke:none;fill-rule:evenodd;fill:rgb(50.196081%,50.196081%,50.196081%);fill-opacity:1;" d="M 7.167969 7.175781 C 7.335938 7.347656 7.292969 7.667969 7.066406 7.894531 C 6.835938 8.121094 6.515625 8.167969 6.34375 8 C 6.175781 7.828125 6.222656 7.507812 6.449219 7.277344 C 6.675781 7.050781 6.996094 7.003906 7.167969 7.175781 Z M 7.167969 7.175781 "/>
<path style=" stroke:none;fill-rule:evenodd;fill:rgb(81.568629%,81.568629%,81.568629%);fill-opacity:1;" d="M 6.3125 7.691406 L 6.378906 7.621094 L 6.652344 7.757812 L 6.515625 7.484375 L 6.585938 7.414062 L 6.859375 7.964844 Z M 6.3125 7.691406 "/>
<path style=" stroke:none;fill-rule:evenodd;fill:rgb(81.568629%,81.568629%,81.568629%);fill-opacity:1;" d="M 6.722656 7.277344 L 6.789062 7.210938 L 7.203125 7.621094 L 7.132812 7.691406 Z M 6.722656 7.277344 "/>
<path style=" stroke:none;fill-rule:evenodd;fill:rgb(81.568629%,81.568629%,81.568629%);fill-opacity:1;" d="M 10.882812 8.203125 C 10.714844 8.375 10.300781 8.234375 9.957031 7.894531 C 9.617188 7.554688 9.480469 7.140625 9.648438 6.96875 C 9.820312 6.800781 10.234375 6.9375 10.574219 7.277344 C 10.914062 7.621094 11.054688 8.035156 10.882812 8.203125 Z M 10.882812 8.203125 "/>
<path style=" stroke:none;fill-rule:evenodd;fill:rgb(50.196081%,50.196081%,50.196081%);fill-opacity:1;" d="M 10.679688 8 C 10.507812 8.167969 10.1875 8.121094 9.957031 7.894531 C 9.730469 7.667969 9.683594 7.347656 9.855469 7.175781 C 10.027344 7.007812 10.347656 7.050781 10.574219 7.277344 C 10.800781 7.507812 10.847656 7.828125 10.679688 8 Z M 10.679688 8 "/>
<path style=" stroke:none;fill-rule:evenodd;fill:rgb(81.568629%,81.568629%,81.568629%);fill-opacity:1;" d="M 10.164062 7.140625 L 10.234375 7.210938 L 10.09375 7.484375 L 10.371094 7.347656 L 10.4375 7.414062 L 9.890625 7.691406 Z M 10.164062 7.140625 "/>
<path style=" stroke:none;fill-rule:evenodd;fill:rgb(81.568629%,81.568629%,81.568629%);fill-opacity:1;" d="M 10.574219 7.554688 L 10.644531 7.621094 L 10.234375 8.03125 L 10.164062 7.964844 Z M 10.574219 7.554688 "/>
<path style=" stroke:none;fill-rule:evenodd;fill:rgb(81.568629%,81.568629%,81.568629%);fill-opacity:1;" d="M 9.648438 11.714844 C 9.480469 11.542969 9.617188 11.128906 9.957031 10.789062 C 10.300781 10.449219 10.714844 10.3125 10.882812 10.480469 C 11.054688 10.652344 10.914062 11.066406 10.574219 11.40625 C 10.234375 11.746094 9.820312 11.882812 9.648438 11.714844 Z M 9.648438 11.714844 "/>
<path style=" stroke:none;fill-rule:evenodd;fill:rgb(50.196081%,50.196081%,50.196081%);fill-opacity:1;" d="M 9.855469 11.507812 C 9.683594 11.339844 9.730469 11.015625 9.957031 10.789062 C 10.1875 10.5625 10.507812 10.515625 10.679688 10.6875 C 10.847656 10.855469 10.800781 11.179688 10.574219 11.40625 C 10.347656 11.632812 10.027344 11.679688 9.855469 11.507812 Z M 9.855469 11.507812 "/>
<path style=" stroke:none;fill-rule:evenodd;fill:rgb(81.568629%,81.568629%,81.568629%);fill-opacity:1;" d="M 10.710938 10.996094 L 10.644531 11.0625 L 10.371094 10.925781 L 10.507812 11.199219 L 10.4375 11.269531 L 10.164062 10.722656 Z M 10.710938 10.996094 "/>
<path style=" stroke:none;fill-rule:evenodd;fill:rgb(81.568629%,81.568629%,81.568629%);fill-opacity:1;" d="M 10.300781 11.40625 L 10.234375 11.476562 L 9.820312 11.0625 L 9.890625 10.996094 Z M 10.300781 11.40625 "/>
<path style=" stroke:none;fill-rule:evenodd;fill:rgb(81.568629%,81.568629%,81.568629%);fill-opacity:1;" d="M 6.140625 10.480469 C 6.308594 10.3125 6.722656 10.449219 7.066406 10.789062 C 7.40625 11.128906 7.542969 11.542969 7.371094 11.714844 C 7.203125 11.882812 6.789062 11.746094 6.449219 11.40625 C 6.105469 11.066406 5.96875 10.652344 6.140625 10.480469 Z M 6.140625 10.480469 "/>
<path style=" stroke:none;fill-rule:evenodd;fill:rgb(50.196081%,50.196081%,50.196081%);fill-opacity:1;" d="M 6.34375 10.6875 C 6.515625 10.515625 6.835938 10.5625 7.066406 10.789062 C 7.292969 11.015625 7.335938 11.339844 7.167969 11.507812 C 6.996094 11.679688 6.675781 11.632812 6.449219 11.40625 C 6.222656 11.179688 6.175781 10.855469 6.34375 10.6875 Z M 6.34375 10.6875 "/>
<path style=" stroke:none;fill-rule:evenodd;fill:rgb(81.568629%,81.568629%,81.568629%);fill-opacity:1;" d="M 6.859375 11.542969 L 6.789062 11.476562 L 6.925781 11.199219 L 6.652344 11.335938 L 6.585938 11.269531 L 7.132812 10.996094 Z M 6.859375 11.542969 "/>
<path style=" stroke:none;fill-rule:evenodd;fill:rgb(81.568629%,81.568629%,81.568629%);fill-opacity:1;" d="M 6.449219 11.132812 L 6.378906 11.0625 L 6.789062 10.652344 L 6.859375 10.722656 Z M 6.449219 11.132812 "/>
<path style="fill:none;stroke-width:1.25;stroke-linecap:butt;stroke-linejoin:miter;stroke:rgb(43.921569%,43.921569%,43.921569%);stroke-opacity:1;stroke-miterlimit:4;" d="M 269.311684 414.61283 C 269.311684 455.609316 235.238175 489.035021 193.121562 489.035021 C 151.00495 489.035021 116.93144 455.609316 116.93144 414.61283 C 116.93144 373.4735 151.00495 340.190639 193.121562 340.190639 C 235.238175 340.190639 269.311684 373.4735 269.311684 414.61283 Z M 269.311684 414.61283 " transform="matrix(0.0267116,0,0,0.0273461,3.353142,-1.994291)"/>
<path style="fill:none;stroke-width:1.25;stroke-linecap:butt;stroke-linejoin:miter;stroke:rgb(43.921569%,43.921569%,43.921569%);stroke-opacity:1;stroke-miterlimit:4;" d="M 269.32147 414.629249 C 269.32147 455.688485 235.156888 489.060832 193.122937 489.060832 C 151.088986 489.060832 116.924404 455.688485 116.924404 414.629249 C 116.924404 373.382527 151.088986 340.197665 193.122937 340.197665 C 235.156888 340.197665 269.32147 373.382527 269.32147 414.629249 Z M 269.32147 414.629249 " transform="matrix(0.0203519,0,0,0.020835,4.581309,0.704954)"/>
<path style=" stroke:none;fill-rule:evenodd;fill:rgb(81.568629%,81.568629%,81.568629%);fill-opacity:1;" d="M 7.832031 10.988281 C 7.832031 11.042969 7.789062 11.085938 7.734375 11.085938 C 7.683594 11.085938 7.640625 11.042969 7.640625 10.988281 C 7.640625 10.9375 7.683594 10.894531 7.734375 10.894531 C 7.789062 10.894531 7.832031 10.9375 7.832031 10.988281 Z M 7.832031 10.988281 "/>
<path style=" stroke:none;fill-rule:evenodd;fill:rgb(81.568629%,81.568629%,81.568629%);fill-opacity:1;" d="M 9.382812 10.988281 C 9.382812 11.042969 9.339844 11.085938 9.285156 11.085938 C 9.234375 11.085938 9.191406 11.042969 9.191406 10.988281 C 9.191406 10.9375 9.234375 10.894531 9.285156 10.894531 C 9.339844 10.894531 9.382812 10.9375 9.382812 10.988281 Z M 9.382812 10.988281 "/>
<path style=" stroke:none;fill-rule:evenodd;fill:rgb(81.568629%,81.568629%,81.568629%);fill-opacity:1;" d="M 8.445312 10.988281 L 8.445312 11.089844 L 8.316406 11.089844 C 8.1875 11.089844 8.1875 11.191406 8.316406 11.191406 L 8.445312 11.191406 L 8.445312 11.292969 C 8.449219 11.398438 8.558594 11.410156 8.566406 11.300781 L 8.574219 11.191406 L 8.707031 11.191406 C 8.835938 11.191406 8.835938 11.089844 8.707031 11.089844 L 8.574219 11.089844 L 8.574219 10.988281 C 8.574219 10.886719 8.445312 10.886719 8.445312 10.988281 Z M 8.445312 10.988281 "/>
<path style="fill-rule:evenodd;fill:rgb(81.568629%,81.568629%,81.568629%);fill-opacity:1;stroke-width:1.25;stroke-linecap:butt;stroke-linejoin:miter;stroke:rgb(43.921569%,43.921569%,43.921569%);stroke-opacity:1;stroke-miterlimit:4;" d="M 180.925281 163.044724 L 180.925281 170.294262 C 180.925281 170.294262 177.465927 175.61059 155.844963 177.060498 C 134.656418 178.993708 131.197064 177.060498 131.197064 177.060498 C 131.629483 183.34343 135.953676 194.942691 134.656418 208.958465 C 135.521257 225.390751 130.332225 239.889826 130.332225 239.889826 C 131.197064 240.856432 128.602548 241.339734 123.845936 240.856432 C 127.73771 237.473314 127.30529 227.323961 127.73771 212.824885 C 128.170129 197.842506 113.900293 176.093892 116.927228 170.294262 C 119.954163 164.011329 180.925281 163.044724 180.925281 163.044724 Z M 180.925281 163.044724 " transform="matrix(0.00903348,0,0,0.00808241,6.396865,8.240799)"/>
<path style="fill-rule:evenodd;fill:rgb(81.568629%,81.568629%,81.568629%);fill-opacity:1;stroke-width:1.25;stroke-linecap:butt;stroke-linejoin:miter;stroke:rgb(43.921569%,43.921569%,43.921569%);stroke-opacity:1;stroke-miterlimit:4;" d="M 272.763488 162.399256 C 293.519614 160.949348 328.545576 161.432651 328.545576 161.432651 C 328.545576 161.432651 336.761542 179.798147 336.761542 189.9475 C 336.329123 200.580156 333.302188 209.279601 329.410414 204.929878 C 325.518641 200.580156 331.140091 201.063458 332.00493 189.9475 C 332.869768 179.314844 325.518641 167.715584 325.518641 167.715584 C 325.518641 167.715584 310.383966 174.965121 287.898163 173.515214 C 265.412361 172.065306 275.358004 162.882558 272.763488 162.399256 Z M 272.763488 162.399256 " transform="matrix(0.00903348,0,0,0.00808241,6.332872,8.038985)"/>
<path style="fill-rule:evenodd;fill:rgb(81.568629%,81.568629%,81.568629%);fill-opacity:1;stroke-width:1.25;stroke-linecap:butt;stroke-linejoin:miter;stroke:rgb(43.921569%,43.921569%,43.921569%);stroke-opacity:1;stroke-miterlimit:4;" d="M 312.386364 274.146826 C 333.142489 272.696919 346.547487 276.563339 346.547487 276.563339 C 346.547487 276.563339 355.195872 294.928835 354.763453 305.078188 C 354.331034 315.227541 351.304099 323.926987 347.412325 319.577264 C 343.520552 315.227541 349.574422 316.194146 350.006841 305.078188 C 350.87168 293.96223 343.520552 282.846272 343.520552 282.846272 C 343.520552 282.846272 328.385877 290.09581 305.900075 288.645902 C 283.414272 287.195994 289.900561 285.746087 287.306046 285.262784 C 284.71153 284.779482 284.279111 292.02902 250.117988 292.995625 C 215.956864 293.96223 198.660093 285.262784 198.660093 285.262784 C 198.660093 285.262784 195.200739 290.579112 174.012194 292.02902 C 152.39123 293.96223 149.364295 292.02902 149.364295 292.02902 C 149.796715 298.311953 153.688488 309.911213 152.82365 323.926987 C 153.688488 340.359273 148.499457 354.858349 148.499457 354.858349 C 149.364295 355.824954 146.76978 356.308256 142.013168 355.824954 C 145.472522 352.441836 145.040103 342.292483 145.472522 327.793407 C 145.904941 312.811029 132.067524 291.062415 135.094459 285.262784 C 137.688975 278.979851 153.256069 284.779482 156.283004 281.396364 C 159.309939 278.496549 142.445587 256.264633 145.472522 235.482624 C 148.931876 214.700615 166.228647 220.500245 188.282031 221.46685 C 209.902995 221.950153 257.901535 228.233086 269.576855 221.46685 C 281.252176 214.217312 276.063144 188.118976 287.306046 171.68669 C 294.657173 161.054034 305.035236 157.670916 315.845718 157.670916 C 322.764426 157.670916 333.574908 185.702463 333.574908 192.952001 L 329.683135 196.335119 L 326.223781 196.335119 L 326.223781 200.201539 C 318.440234 201.168144 317.142976 192.468699 311.953944 185.702463 C 310.224267 195.851816 319.305072 228.233086 319.305072 249.498397 C 319.305072 267.380591 312.818783 275.113431 312.386364 274.146826 Z M 312.386364 274.146826 " transform="matrix(0.00903348,0,0,0.00808241,6.041346,7.284232)"/>
<path style="fill-rule:evenodd;fill:rgb(81.568629%,81.568629%,81.568629%);fill-opacity:1;stroke-width:1.25;stroke-linecap:butt;stroke-linejoin:miter;stroke:rgb(43.921569%,43.921569%,43.921569%);stroke-opacity:1;stroke-miterlimit:4;" d="M 209.128295 131.123149 C 209.560714 138.372687 181.88588 153.838368 179.291365 160.121301 C 177.129268 166.404234 186.642493 169.787352 183.615558 173.653772 C 180.588623 177.03689 178.426526 176.070285 177.561688 176.553587 C 177.129268 177.03689 167.183625 151.905158 167.183625 151.905158 C 167.183625 151.905158 193.128782 138.85599 192.263943 133.056359 C 191.399105 127.740032 173.237495 124.356914 169.778141 109.857838 C 166.751206 95.842065 168.480883 68.29382 165.886367 62.49419 C 162.859432 56.69456 131.292825 51.378232 131.292825 42.678786 C 131.292825 33.979341 163.724271 9.814214 167.616044 6.431096 C 171.075398 3.047979 174.534753 9.814214 171.075398 13.680634 C 167.616044 17.063752 141.670887 38.812366 141.670887 42.678786 C 141.670887 46.061904 162.859432 49.445022 170.21056 49.445022 C 177.129268 49.445022 180.588623 46.061904 180.588623 42.678786 C 180.588623 39.295668 173.669914 38.812366 173.669914 32.046131 C 173.669914 24.796593 177.129268 21.413475 184.047977 21.413475 C 187.93975 21.413475 194.42604 25.763198 194.858459 32.046131 C 195.290878 37.845761 188.37217 38.329063 187.93975 42.678786 C 187.074912 46.545206 194.858459 49.445022 201.777167 49.445022 C 209.128295 49.445022 233.343775 70.22703 236.803129 73.610148 C 240.262483 77.476568 243.721837 77.476568 240.262483 80.859686 C 236.803129 84.242804 238.965225 88.592527 235.505871 85.209409 C 232.478936 81.826291 231.614098 77.959871 231.614098 77.959871 C 231.614098 74.576753 205.668941 60.077677 201.777167 63.944098 C 198.317813 67.327215 201.777167 109.857838 201.777167 113.240956 C 201.777167 120.490494 209.560714 120.490494 209.128295 131.123149 Z M 209.128295 131.123149 " transform="matrix(0.00903348,0,0,0.00808241,6.356938,8.190209)"/>
<path style=" stroke:none;fill-rule:evenodd;fill:rgb(65.490198%,65.490198%,65.490198%);fill-opacity:1;" d="M 7.835938 8.585938 L 8.222656 8.585938 L 8.222656 8.988281 L 7.835938 8.988281 Z M 7.835938 8.585938 "/>
<path style=" stroke:none;fill-rule:evenodd;fill:rgb(50.196081%,50.196081%,50.196081%);fill-opacity:1;" d="M 7.792969 8.097656 L 9.082031 10.03125 C 9.09375 10.046875 9.09375 10.0625 9.085938 10.066406 C 9.078125 10.070312 9.066406 10.0625 9.054688 10.046875 L 7.765625 8.113281 C 7.753906 8.09375 7.75 8.078125 7.757812 8.074219 C 7.765625 8.070312 7.78125 8.082031 7.792969 8.097656 Z M 7.792969 8.097656 "/>
<path style="fill-rule:evenodd;fill:rgb(81.568629%,81.568629%,81.568629%);fill-opacity:1;stroke-width:1.25;stroke-linecap:butt;stroke-linejoin:miter;stroke:rgb(43.921569%,43.921569%,43.921569%);stroke-opacity:1;stroke-miterlimit:4;" d="M 180.740842 42.36258 C 180.740842 46.229 177.713907 49.612118 173.822134 49.612118 C 169.497941 49.612118 166.471006 46.229 166.471006 42.36258 C 166.471006 38.49616 169.497941 35.596345 173.822134 35.596345 C 177.713907 35.596345 180.740842 38.49616 180.740842 42.36258 Z M 180.740842 42.36258 " transform="matrix(0.00903348,0,0,0.00808241,6.300875,7.927139)"/>
<path style=" stroke:none;fill-rule:evenodd;fill:rgb(50.196081%,50.196081%,50.196081%);fill-opacity:1;" d="M 9.054688 8.792969 C 9.054688 8.816406 8.90625 8.84375 8.734375 8.84375 C 8.5625 8.84375 8.414062 8.816406 8.414062 8.792969 C 8.414062 8.769531 8.5625 8.828125 8.734375 8.828125 C 8.90625 8.828125 9.054688 8.769531 9.054688 8.792969 Z M 9.054688 8.792969 "/>
<path style=" stroke:none;fill-rule:evenodd;fill:rgb(65.490198%,65.490198%,65.490198%);fill-opacity:1;" d="M 7.871094 8.988281 L 8.1875 8.988281 L 8.1875 9.101562 L 7.871094 9.101562 Z M 7.871094 8.988281 "/>
<path style=" stroke:none;fill-rule:evenodd;fill:rgb(50.196081%,50.196081%,50.196081%);fill-opacity:1;" d="M 8.910156 8.703125 C 8.878906 8.761719 8.847656 8.804688 8.84375 8.796875 C 8.839844 8.789062 8.859375 8.738281 8.890625 8.679688 C 8.921875 8.621094 8.953125 8.578125 8.957031 8.585938 C 8.960938 8.59375 8.941406 8.648438 8.910156 8.703125 Z M 8.910156 8.703125 "/>
<path style=" stroke:none;fill-rule:evenodd;fill:rgb(50.196081%,50.196081%,50.196081%);fill-opacity:1;" d="M 8.992188 8.855469 C 8.957031 8.886719 8.925781 8.90625 8.925781 8.898438 C 8.925781 8.894531 8.953125 8.863281 8.988281 8.832031 C 9.023438 8.800781 9.050781 8.78125 9.054688 8.789062 C 9.054688 8.792969 9.027344 8.824219 8.992188 8.855469 Z M 8.992188 8.855469 "/>
<path style=" stroke:none;fill-rule:evenodd;fill:rgb(50.196081%,50.196081%,50.196081%);fill-opacity:1;" d="M 8.949219 8.78125 C 8.976562 8.828125 8.992188 8.871094 8.988281 8.871094 C 8.984375 8.875 8.957031 8.835938 8.933594 8.789062 C 8.90625 8.742188 8.890625 8.703125 8.894531 8.699219 C 8.898438 8.699219 8.925781 8.734375 8.949219 8.78125 Z M 8.949219 8.78125 "/>
<path style=" stroke:none;fill-rule:evenodd;fill:rgb(50.196081%,50.196081%,50.196081%);fill-opacity:1;" d="M 8.925781 9.03125 C 8.925781 9.039062 8.824219 9.042969 8.703125 9.042969 C 8.578125 9.042969 8.476562 9.039062 8.476562 9.03125 C 8.476562 9.023438 8.578125 9.015625 8.703125 9.015625 C 8.824219 9.015625 8.925781 9.023438 8.925781 9.03125 Z M 8.925781 9.03125 "/>
<path style=" stroke:none;fill-rule:evenodd;fill:rgb(50.196081%,50.196081%,50.196081%);fill-opacity:1;" d="M 8.1875 9 C 8.1875 9.007812 8.117188 9.015625 8.03125 9.015625 C 7.941406 9.015625 7.871094 9.007812 7.871094 9 C 7.871094 8.992188 7.941406 8.988281 8.03125 8.988281 C 8.117188 8.988281 8.1875 8.992188 8.1875 9 Z M 8.1875 9 "/>
<path style="fill-rule:evenodd;fill:rgb(81.568629%,81.568629%,81.568629%);fill-opacity:1;stroke-width:1.25;stroke-linecap:butt;stroke-linejoin:miter;stroke:rgb(50.196081%,50.196081%,50.196081%);stroke-opacity:1;stroke-miterlimit:4;" d="M 375.317606 171.66921 C 375.317606 171.66921 384.5764 207.960548 422.272919 209.060285 C 460.630781 209.060285 473.85763 198.06291 458.646754 178.267635 C 442.774535 159.572098 414.33681 165.070785 417.643522 181.566848 C 421.611577 198.06291 407.062043 203.561598 403.755331 192.564223 C 400.448619 180.46711 386.560427 146.375248 411.030098 144.175773 C 435.499768 141.976298 487.745821 128.779448 500.97267 152.973673 C 513.538177 177.167898 486.423136 199.162648 506.924752 203.561598 C 528.08771 209.060285 530.73308 198.06291 567.106915 194.763698 C 602.819407 191.464485 616.707598 205.761073 629.273104 203.561598 C 641.177268 202.46186 639.854583 166.170523 629.934447 157.372623 C 620.01431 148.574723 601.496722 147.474986 596.205982 137.577348 C 591.576585 127.679711 578.349736 135.377873 579.672421 124.380498 C 580.995106 113.383123 598.190009 132.078661 598.851352 126.579973 C 598.851352 126.579973 601.496722 122.181023 602.158064 121.081286 C 600.174037 121.081286 598.851352 122.181023 596.867325 123.280761 C 598.851352 121.081286 598.851352 119.981548 599.512694 117.782073 C 598.851352 117.782073 596.867325 121.081286 596.205982 119.981548 C 596.205982 118.881811 598.851352 114.482861 597.528667 116.682336 C 596.867325 116.682336 593.560612 119.981548 593.560612 117.782073 C 593.560612 116.682336 595.54464 114.482861 594.883297 113.383123 C 594.221955 113.383123 591.576585 114.482861 591.576585 115.582598 C 592.89927 112.283386 592.89927 112.283386 591.576585 108.984173 C 590.2539 106.784698 589.592558 106.784698 586.947188 110.083911 C 588.269873 105.684961 588.269873 104.585224 586.285845 103.485486 C 584.301818 102.385749 584.301818 100.186274 582.317791 107.884436 C 582.979133 100.186274 580.995106 99.086536 581.656448 95.787324 C 582.317791 92.488111 584.963161 91.388374 589.592558 92.488111 C 598.851352 92.488111 603.480749 110.083911 606.787461 110.083911 C 609.432831 110.083911 612.739543 91.388374 625.30505 99.086536 C 637.870556 106.784698 639.193241 107.884436 645.806665 112.283386 C 651.758747 116.682336 641.177268 124.380498 645.145323 133.178398 C 648.452035 141.976298 672.921706 171.66921 666.308281 202.46186 C 659.033514 234.354247 641.177268 238.753197 639.193241 251.950047 C 637.870556 266.246635 696.730034 260.747947 711.279567 265.146897 C 726.490444 269.545847 735.749238 288.241384 736.41058 290.440859 C 737.071923 293.740072 709.956882 293.740072 709.956882 293.740072 C 709.956882 293.740072 696.730034 281.642959 663.662911 280.543222 C 630.595789 279.443484 618.030283 257.448735 606.126119 255.24926 C 593.560612 251.950047 567.106915 259.64821 552.557381 258.548472 C 538.007847 257.448735 523.458313 254.149522 513.538177 251.950047 C 504.279382 249.750572 457.324069 287.141647 457.324069 295.939547 C 447.403932 294.839809 424.256947 292.640334 424.918289 293.740072 C 426.240974 294.839809 429.547686 277.24401 447.403932 273.944797 C 465.260178 270.645585 483.116424 256.348997 482.455082 246.45136 C 481.793739 237.65346 485.761794 204.661335 487.745821 191.464485 C 489.068506 177.167898 495.681931 170.569473 494.359246 162.871311 C 492.375218 156.272886 471.873603 148.574723 452.033329 148.574723 C 432.193056 148.574723 410.368755 150.774198 407.062043 158.472361 C 403.755331 166.170523 406.400701 189.26501 410.368755 187.065535 C 414.33681 183.766323 409.707413 169.469735 413.675468 166.170523 C 418.304865 162.871311 428.886344 160.671836 439.467823 159.572098 C 450.049302 159.572098 467.905548 174.968423 467.905548 179.367373 C 467.905548 183.766323 473.85763 200.262385 465.260178 206.86081 C 457.324069 212.359498 440.129165 215.65871 423.595604 213.459235 C 407.723386 212.359498 391.189824 203.561598 385.237742 196.963173 C 379.28566 191.464485 375.317606 172.768948 375.317606 171.66921 Z M 375.317606 171.66921 " transform="matrix(0.00590655,0,0,0.00355198,5.267544,9.386327)"/>
<path style=" stroke:none;fill-rule:evenodd;fill:rgb(0%,0%,0%);fill-opacity:1;" d="M 8.910156 9.808594 C 8.910156 9.820312 8.898438 9.832031 8.886719 9.832031 C 8.871094 9.832031 8.859375 9.820312 8.859375 9.808594 C 8.859375 9.792969 8.871094 9.78125 8.886719 9.78125 C 8.898438 9.78125 8.910156 9.792969 8.910156 9.808594 Z M 8.910156 9.808594 "/>
<path style=" stroke:none;fill-rule:nonzero;fill:rgb(81.568629%,81.568629%,81.568629%);fill-opacity:1;" d="M 10.117188 9.433594 L 10.242188 9.460938 L 10.449219 9.320312 L 10.433594 9.394531 L 10.324219 9.46875 C 10.304688 9.480469 10.285156 9.492188 10.265625 9.503906 C 10.277344 9.519531 10.292969 9.542969 10.308594 9.566406 L 10.375 9.675781 L 10.359375 9.746094 L 10.230469 9.523438 L 10.105469 9.496094 Z M 10.117188 9.433594 "/>
<path style=" stroke:none;fill-rule:nonzero;fill:rgb(81.568629%,81.568629%,81.568629%);fill-opacity:1;" d="M 9.90625 8.519531 L 10.148438 8.40625 L 10.082031 8.265625 L 10.113281 8.25 L 10.269531 8.59375 L 10.238281 8.609375 L 10.171875 8.464844 L 9.933594 8.574219 Z M 9.90625 8.519531 "/>
<path style=" stroke:none;fill-rule:nonzero;fill:rgb(81.568629%,81.568629%,81.568629%);fill-opacity:1;" d="M 9.53125 8.066406 L 9.753906 7.863281 L 9.796875 7.910156 L 9.792969 8.253906 L 9.964844 8.09375 L 10.007812 8.136719 L 9.785156 8.339844 L 9.742188 8.292969 L 9.746094 7.949219 L 9.574219 8.109375 Z M 9.53125 8.066406 "/>
<path style=" stroke:none;fill-rule:nonzero;fill:rgb(81.568629%,81.568629%,81.568629%);fill-opacity:1;" d="M 8.5625 7.671875 L 8.597656 7.375 L 8.660156 7.382812 L 8.628906 7.644531 L 8.859375 7.671875 L 8.855469 7.707031 Z M 8.5625 7.671875 "/>
<path style=" stroke:none;fill-rule:nonzero;fill:rgb(81.568629%,81.568629%,81.568629%);fill-opacity:1;" d="M 8.085938 7.714844 L 8.03125 7.417969 L 8.09375 7.410156 L 8.140625 7.667969 L 8.371094 7.628906 L 8.378906 7.664062 Z M 8.085938 7.714844 "/>
<path style=" stroke:none;fill-rule:nonzero;fill:rgb(81.568629%,81.568629%,81.568629%);fill-opacity:1;" d="M 7.203125 8.152344 L 7.179688 8.125 L 7.335938 7.996094 L 7.40625 8.085938 C 7.394531 8.117188 7.375 8.144531 7.355469 8.171875 C 7.335938 8.199219 7.308594 8.222656 7.28125 8.246094 C 7.246094 8.273438 7.210938 8.296875 7.171875 8.308594 C 7.132812 8.324219 7.101562 8.328125 7.070312 8.320312 C 7.039062 8.3125 7.015625 8.296875 6.996094 8.277344 C 6.980469 8.253906 6.96875 8.226562 6.96875 8.195312 C 6.96875 8.160156 6.976562 8.128906 7 8.097656 C 7.019531 8.066406 7.046875 8.035156 7.085938 8.003906 C 7.113281 7.984375 7.136719 7.964844 7.164062 7.953125 C 7.191406 7.941406 7.214844 7.9375 7.234375 7.9375 C 7.253906 7.9375 7.273438 7.941406 7.292969 7.953125 L 7.253906 7.996094 C 7.238281 7.988281 7.226562 7.984375 7.210938 7.984375 C 7.199219 7.984375 7.179688 7.988281 7.164062 7.996094 C 7.144531 8.003906 7.125 8.015625 7.105469 8.03125 C 7.082031 8.046875 7.066406 8.066406 7.054688 8.082031 C 7.039062 8.101562 7.03125 8.117188 7.027344 8.132812 C 7.023438 8.148438 7.023438 8.160156 7.023438 8.175781 C 7.023438 8.195312 7.03125 8.214844 7.046875 8.234375 C 7.0625 8.253906 7.082031 8.265625 7.105469 8.273438 C 7.128906 8.277344 7.152344 8.273438 7.179688 8.265625 C 7.207031 8.253906 7.234375 8.238281 7.257812 8.21875 C 7.277344 8.203125 7.296875 8.183594 7.3125 8.160156 C 7.332031 8.140625 7.339844 8.121094 7.347656 8.105469 L 7.3125 8.0625 Z M 7.203125 8.152344 "/>
<path style=" stroke:none;fill-rule:nonzero;fill:rgb(81.568629%,81.568629%,81.568629%);fill-opacity:1;" d="M 7.191406 10.316406 L 6.949219 10.488281 L 6.761719 10.226562 L 6.789062 10.207031 L 6.941406 10.417969 L 7.015625 10.363281 L 6.886719 10.179688 L 6.917969 10.160156 L 7.046875 10.34375 L 7.15625 10.261719 Z M 7.191406 10.316406 "/>
<path style=" stroke:none;fill-rule:nonzero;fill:rgb(81.568629%,81.568629%,81.568629%);fill-opacity:1;" d="M 6.832031 9.921875 C 6.867188 9.914062 6.890625 9.890625 6.902344 9.855469 C 6.914062 9.820312 6.914062 9.78125 6.898438 9.734375 C 6.886719 9.691406 6.867188 9.65625 6.835938 9.632812 C 6.808594 9.609375 6.777344 9.601562 6.738281 9.613281 C 6.714844 9.617188 6.695312 9.628906 6.683594 9.648438 C 6.667969 9.664062 6.660156 9.6875 6.65625 9.714844 C 6.65625 9.742188 6.65625 9.769531 6.664062 9.800781 C 6.679688 9.84375 6.699219 9.878906 6.726562 9.902344 C 6.753906 9.929688 6.789062 9.9375 6.832031 9.921875 Z M 6.847656 9.984375 C 6.800781 10 6.757812 9.988281 6.71875 9.957031 C 6.679688 9.921875 6.652344 9.875 6.632812 9.808594 C 6.621094 9.769531 6.617188 9.726562 6.621094 9.691406 C 6.621094 9.652344 6.632812 9.621094 6.652344 9.597656 C 6.667969 9.574219 6.691406 9.558594 6.722656 9.550781 C 6.75 9.542969 6.78125 9.542969 6.808594 9.554688 C 6.835938 9.566406 6.863281 9.589844 6.882812 9.621094 C 6.90625 9.652344 6.921875 9.6875 6.933594 9.726562 C 6.945312 9.769531 6.949219 9.808594 6.945312 9.847656 C 6.941406 9.882812 6.929688 9.914062 6.914062 9.9375 C 6.894531 9.964844 6.875 9.980469 6.847656 9.984375 Z M 6.847656 9.984375 "/>
<path style=" stroke:none;fill-rule:nonzero;fill:rgb(81.568629%,81.568629%,81.568629%);fill-opacity:1;" d="M 6.875 9.375 L 6.574219 9.367188 L 6.578125 9.15625 C 6.578125 9.113281 6.582031 9.082031 6.585938 9.0625 C 6.59375 9.039062 6.601562 9.023438 6.617188 9.007812 C 6.632812 8.996094 6.648438 8.988281 6.664062 8.988281 C 6.683594 8.992188 6.703125 9 6.714844 9.023438 C 6.730469 9.046875 6.738281 9.082031 6.742188 9.125 C 6.746094 9.109375 6.753906 9.097656 6.757812 9.089844 C 6.769531 9.070312 6.78125 9.054688 6.800781 9.035156 L 6.882812 8.957031 L 6.882812 9.035156 L 6.816406 9.097656 C 6.796875 9.113281 6.785156 9.128906 6.773438 9.140625 C 6.765625 9.152344 6.757812 9.164062 6.753906 9.171875 C 6.75 9.183594 6.746094 9.191406 6.746094 9.199219 C 6.742188 9.207031 6.742188 9.21875 6.742188 9.234375 L 6.742188 9.308594 L 6.875 9.3125 Z M 6.707031 9.308594 L 6.710938 9.171875 C 6.710938 9.144531 6.710938 9.121094 6.707031 9.105469 C 6.703125 9.089844 6.695312 9.078125 6.6875 9.066406 C 6.679688 9.058594 6.671875 9.054688 6.660156 9.054688 C 6.648438 9.054688 6.636719 9.0625 6.625 9.078125 C 6.617188 9.09375 6.613281 9.121094 6.609375 9.15625 L 6.605469 9.304688 Z M 6.707031 9.308594 "/>
<path style=" stroke:none;fill-rule:nonzero;fill:rgb(81.568629%,81.568629%,81.568629%);fill-opacity:1;" d="M 7.542969 7.984375 L 7.546875 7.632812 L 7.601562 7.597656 L 7.925781 7.753906 L 7.863281 7.792969 L 7.769531 7.742188 L 7.597656 7.84375 L 7.601562 7.949219 Z M 7.597656 7.808594 L 7.734375 7.726562 L 7.648438 7.679688 C 7.625 7.664062 7.605469 7.652344 7.589844 7.644531 C 7.59375 7.664062 7.597656 7.683594 7.597656 7.707031 Z M 7.597656 7.808594 "/>
<path style=" stroke:none;fill-rule:nonzero;fill:rgb(81.568629%,81.568629%,81.568629%);fill-opacity:1;" d="M 9.050781 7.714844 L 9.375 7.578125 L 9.429688 7.617188 L 9.410156 7.976562 L 9.351562 7.933594 L 9.359375 7.828125 L 9.199219 7.710938 L 9.105469 7.753906 Z M 9.234375 7.695312 L 9.363281 7.789062 L 9.375 7.691406 C 9.375 7.664062 9.378906 7.640625 9.382812 7.621094 C 9.367188 7.632812 9.347656 7.644531 9.328125 7.652344 Z M 9.234375 7.695312 "/>
<path style=" stroke:none;fill-rule:nonzero;fill:rgb(81.568629%,81.568629%,81.568629%);fill-opacity:1;" d="M 10.039062 8.816406 L 10.332031 8.746094 L 10.382812 8.949219 C 10.390625 8.992188 10.394531 9.023438 10.394531 9.046875 C 10.394531 9.070312 10.390625 9.085938 10.378906 9.105469 C 10.371094 9.121094 10.355469 9.128906 10.339844 9.132812 C 10.320312 9.136719 10.300781 9.132812 10.28125 9.113281 C 10.261719 9.097656 10.242188 9.066406 10.230469 9.023438 C 10.230469 9.039062 10.226562 9.054688 10.222656 9.0625 C 10.21875 9.082031 10.207031 9.101562 10.195312 9.121094 L 10.136719 9.222656 L 10.117188 9.144531 L 10.164062 9.070312 C 10.179688 9.046875 10.1875 9.03125 10.195312 9.015625 C 10.199219 9.003906 10.203125 8.988281 10.207031 8.980469 C 10.207031 8.96875 10.207031 8.960938 10.207031 8.949219 C 10.207031 8.941406 10.203125 8.933594 10.199219 8.914062 L 10.183594 8.84375 L 10.054688 8.875 Z M 10.21875 8.835938 L 10.25 8.96875 C 10.253906 8.996094 10.261719 9.019531 10.269531 9.03125 C 10.277344 9.046875 10.285156 9.058594 10.296875 9.066406 C 10.304688 9.070312 10.316406 9.074219 10.324219 9.070312 C 10.339844 9.066406 10.347656 9.054688 10.355469 9.039062 C 10.359375 9.019531 10.359375 8.996094 10.347656 8.960938 L 10.3125 8.8125 Z M 10.21875 8.835938 "/>
</g>
</svg>
