<?xml version="1.0" encoding="UTF-8"?>
<svg xmlns="http://www.w3.org/2000/svg" xmlns:xlink="http://www.w3.org/1999/xlink" width="40px" height="40px" viewBox="0 0 40 40" version="1.1">
<g id="surface1">
<rect x="0" y="0" width="40" height="40" style="fill:rgb(17.647059%,61.176473%,29.411766%);fill-opacity:1;stroke:none;"/>
<path style=" stroke:none;fill-rule:evenodd;fill:rgb(100%,100%,100%);fill-opacity:1;" d="M 25.449219 11.234375 C 15.074219 14.210938 16.550781 27.78125 26.277344 28.816406 C 10.875 31.765625 8.679688 9.699219 25.449219 11.234375 Z M 25.449219 11.234375 "/>
<path style=" stroke:none;fill-rule:evenodd;fill:rgb(71.764708%,7.843138%,0.392157%);fill-opacity:1;" d="M 0 -0.0117188 L 40 -0.0117188 L 40 5.535156 L 0 5.535156 Z M 0 -0.0117188 "/>
<path style=" stroke:none;fill-rule:evenodd;fill:rgb(71.764708%,7.843138%,0.392157%);fill-opacity:1;" d="M 0 34.148438 L 40 34.148438 L 40 40 L 0 40 Z M 0 34.148438 "/>
<path style=" stroke:none;fill-rule:evenodd;fill:rgb(71.764708%,7.843138%,0.392157%);fill-opacity:1;" d="M 0 0.953125 L 5.601562 0.953125 L 5.601562 39.046875 L 0 39.046875 Z M 0 0.953125 "/>
<path style=" stroke:none;fill-rule:evenodd;fill:rgb(71.764708%,7.843138%,0.392157%);fill-opacity:1;" d="M 34.398438 0.953125 L 40 0.953125 L 40 39.046875 L 34.398438 39.046875 Z M 34.398438 0.953125 "/>
</g>
</svg>
