<?xml version="1.0" encoding="UTF-8"?>
<svg xmlns="http://www.w3.org/2000/svg" xmlns:xlink="http://www.w3.org/1999/xlink" width="40px" height="40px" viewBox="0 0 256 256" version="1.1">
<g id="surface1">
<rect x="0" y="0" width="256" height="256" style="fill:rgb(95.686275%,7.843138%,3.137255%);fill-opacity:1;stroke:none;"/>
<path style=" stroke:none;fill-rule:evenodd;fill:rgb(12.941177%,52.941179%,23.137255%);fill-opacity:1;" d="M -64.921875 170.667969 L 319.082031 170.667969 L 319.082031 256 L -64.921875 256 Z M -64.921875 170.667969 "/>
<path style=" stroke:none;fill-rule:evenodd;fill:rgb(0%,0%,0%);fill-opacity:1;" d="M -64.921875 0 L 319.082031 0 L 319.082031 85.332031 L -64.921875 85.332031 Z M -64.921875 0 "/>
<path style=" stroke:none;fill-rule:evenodd;fill:rgb(95.294118%,8.235294%,3.529412%);fill-opacity:1;" d="M 80.089844 77.320312 C 91.242188 50.15625 122.34375 37.164062 149.503906 48.316406 C 163.183594 53.933594 172.875 63.621094 178.496094 77.300781 Z M 80.089844 77.320312 "/>
<path style=" stroke:none;fill-rule:evenodd;fill:rgb(95.294118%,8.235294%,3.529412%);fill-opacity:1;" d="M 67.105469 80.832031 C 55.378906 79.957031 42.917969 77.269531 40.886719 76.53125 C 38.851562 75.789062 38.773438 74.550781 39.023438 73.605469 C 39.273438 72.660156 40.570312 71.582031 42.085938 71.984375 C 44.929688 72.734375 56.480469 75.792969 67.105469 80.832031 Z M 67.105469 80.832031 "/>
<path style=" stroke:none;fill-rule:evenodd;fill:rgb(95.294118%,8.235294%,3.529412%);fill-opacity:1;" d="M 129.421875 33.460938 C 127.320312 21.890625 126.789062 9.15625 126.992188 7 C 127.199219 4.847656 128.375 4.460938 129.355469 4.464844 C 130.335938 4.46875 131.699219 5.453125 131.695312 7.023438 C 131.679688 9.960938 131.628906 21.910156 129.421875 33.460938 Z M 129.421875 33.460938 "/>
<path style=" stroke:none;fill-rule:evenodd;fill:rgb(95.294118%,8.235294%,3.529412%);fill-opacity:1;" d="M 135.191406 33.726562 C 134.085938 22.023438 134.648438 9.285156 135.039062 7.160156 C 135.425781 5.03125 136.632812 4.746094 137.609375 4.832031 C 138.585938 4.921875 139.863281 6.019531 139.71875 7.582031 C 139.457031 10.507812 138.378906 22.410156 135.191406 33.726562 Z M 135.191406 33.726562 "/>
<path style=" stroke:none;fill-rule:evenodd;fill:rgb(95.294118%,8.235294%,3.529412%);fill-opacity:1;" d="M 140.421875 34.4375 C 140.28125 22.679688 141.890625 10.035156 142.453125 7.945312 C 143.015625 5.855469 144.242188 5.671875 145.207031 5.839844 C 146.171875 6.007812 147.355469 7.207031 147.085938 8.753906 C 146.578125 11.648438 144.527344 23.421875 140.417969 34.4375 Z M 140.421875 34.4375 "/>
<path style=" stroke:none;fill-rule:evenodd;fill:rgb(95.294118%,8.235294%,3.529412%);fill-opacity:1;" d="M 145.925781 35.667969 C 146.824219 23.945312 149.539062 11.488281 150.28125 9.457031 C 151.027344 7.425781 152.265625 7.351562 153.210938 7.601562 C 154.15625 7.855469 155.230469 9.15625 154.824219 10.667969 C 154.066406 13.507812 150.988281 25.054688 145.925781 35.667969 Z M 145.925781 35.667969 "/>
<path style=" stroke:none;fill-rule:evenodd;fill:rgb(95.294118%,8.235294%,3.529412%);fill-opacity:1;" d="M 151.347656 37.394531 C 153.28125 25.796875 157.089844 13.632812 158.011719 11.675781 C 158.933594 9.71875 160.171875 9.753906 161.09375 10.085938 C 162.011719 10.421875 162.964844 11.8125 162.429688 13.285156 C 161.421875 16.046875 157.332031 27.273438 151.347656 37.394531 Z M 151.347656 37.394531 "/>
<path style=" stroke:none;fill-rule:evenodd;fill:rgb(95.294118%,8.235294%,3.529412%);fill-opacity:1;" d="M 156.40625 39.507812 C 159.324219 28.117188 164.160156 16.324219 165.246094 14.453125 C 166.332031 12.582031 167.5625 12.722656 168.453125 13.132812 C 169.339844 13.546875 170.171875 15.011719 169.511719 16.433594 C 168.269531 19.097656 163.234375 29.9375 156.40625 39.507812 Z M 156.40625 39.507812 "/>
<path style=" stroke:none;fill-rule:evenodd;fill:rgb(95.294118%,8.235294%,3.529412%);fill-opacity:1;" d="M 161.382812 42.113281 C 165.285156 31.023438 171.136719 19.699219 172.378906 17.929688 C 173.625 16.160156 174.839844 16.40625 175.6875 16.894531 C 176.539062 17.382812 177.238281 18.917969 176.453125 20.277344 C 174.988281 22.820312 169.019531 33.175781 161.382812 42.113281 Z M 161.382812 42.113281 "/>
<path style=" stroke:none;fill-rule:evenodd;fill:rgb(95.294118%,8.235294%,3.529412%);fill-opacity:1;" d="M 166.089844 45.128906 C 170.945312 34.421875 177.757812 23.648438 179.152344 21.992188 C 180.550781 20.339844 181.738281 20.691406 182.539062 21.253906 C 183.34375 21.816406 183.90625 23.402344 183.007812 24.6875 C 181.324219 27.097656 174.476562 36.890625 166.089844 45.128906 Z M 166.089844 45.128906 "/>
<path style=" stroke:none;fill-rule:evenodd;fill:rgb(95.294118%,8.235294%,3.529412%);fill-opacity:1;" d="M 170.519531 48.546875 C 176.289062 38.304688 184.019531 28.164062 185.550781 26.640625 C 187.085938 25.113281 188.238281 25.570312 188.988281 26.199219 C 189.742188 26.828125 190.164062 28.457031 189.15625 29.660156 C 187.269531 31.910156 179.59375 41.070312 170.515625 48.546875 Z M 170.519531 48.546875 "/>
<path style=" stroke:none;fill-rule:evenodd;fill:rgb(95.294118%,8.235294%,3.529412%);fill-opacity:1;" d="M 174.644531 52.347656 C 181.292969 42.648438 189.875 33.222656 191.539062 31.839844 C 193.199219 30.453125 194.308594 31.007812 195 31.699219 C 195.695312 32.390625 195.972656 34.054688 194.863281 35.160156 C 192.785156 37.242188 184.339844 45.695312 174.644531 52.347656 Z M 174.644531 52.347656 "/>
<path style=" stroke:none;fill-rule:evenodd;fill:rgb(95.294118%,8.235294%,3.529412%);fill-opacity:1;" d="M 178.429688 56.507812 C 185.902344 47.429688 195.28125 38.796875 197.058594 37.5625 C 198.835938 36.328125 199.890625 36.976562 200.519531 37.726562 C 201.148438 38.476562 201.28125 40.15625 200.078125 41.164062 C 197.828125 43.054688 188.671875 50.734375 178.429688 56.507812 Z M 178.429688 56.507812 "/>
<path style=" stroke:none;fill-rule:evenodd;fill:rgb(95.294118%,8.235294%,3.529412%);fill-opacity:1;" d="M 181.691406 60.773438 C 189.894531 52.351562 199.964844 44.535156 201.839844 43.453125 C 203.714844 42.371094 204.710938 43.109375 205.273438 43.90625 C 205.839844 44.707031 205.828125 46.394531 204.546875 47.296875 C 202.144531 48.992188 192.378906 55.875 181.691406 60.773438 Z M 181.691406 60.773438 "/>
<path style=" stroke:none;fill-rule:evenodd;fill:rgb(95.294118%,8.235294%,3.529412%);fill-opacity:1;" d="M 184.640625 65.398438 C 193.535156 57.710938 204.238281 50.78125 206.195312 49.863281 C 208.15625 48.949219 209.089844 49.765625 209.582031 50.609375 C 210.074219 51.457031 209.921875 53.136719 208.566406 53.925781 C 206.03125 55.40625 195.710938 61.433594 184.640625 65.398438 Z M 184.640625 65.398438 "/>
<path style=" stroke:none;fill-rule:evenodd;fill:rgb(95.294118%,8.235294%,3.529412%);fill-opacity:1;" d="M 187.375 70.671875 C 196.945312 63.835938 208.242188 57.929688 210.277344 57.199219 C 212.316406 56.46875 213.164062 57.367188 213.578125 58.253906 C 213.992188 59.144531 213.683594 60.800781 212.261719 61.460938 C 209.597656 62.703125 198.765625 67.746094 187.375 70.671875 Z M 187.375 70.671875 "/>
<path style=" stroke:none;fill-rule:evenodd;fill:rgb(95.294118%,8.235294%,3.529412%);fill-opacity:1;" d="M 189.460938 75.757812 C 199.582031 69.773438 211.34375 64.855469 213.433594 64.300781 C 215.527344 63.746094 216.296875 64.714844 216.632812 65.636719 C 216.96875 66.558594 216.519531 68.179688 215.046875 68.71875 C 212.285156 69.726562 201.058594 73.820312 189.460938 75.757812 Z M 189.460938 75.757812 "/>
<path style=" stroke:none;fill-rule:evenodd;fill:rgb(95.294118%,8.235294%,3.529412%);fill-opacity:1;" d="M 191.148438 81.152344 C 201.753906 76.078125 213.902344 72.21875 216.035156 71.851562 C 218.167969 71.484375 218.851562 72.515625 219.105469 73.464844 C 219.359375 74.410156 218.765625 75.988281 217.253906 76.394531 C 214.414062 77.152344 202.871094 80.242188 191.148438 81.152344 Z M 191.148438 81.152344 "/>
<path style=" stroke:none;fill-rule:evenodd;fill:rgb(95.294118%,8.235294%,3.529412%);fill-opacity:1;" d="M 123.777344 33.679688 C 120.613281 22.355469 118.90625 9.722656 118.910156 7.558594 C 118.917969 5.394531 120.050781 4.898438 121.027344 4.8125 C 122.003906 4.726562 123.457031 5.582031 123.59375 7.144531 C 123.851562 10.070312 124.90625 21.976562 123.777344 33.679688 Z M 123.777344 33.679688 "/>
<path style=" stroke:none;fill-rule:evenodd;fill:rgb(95.294118%,8.235294%,3.529412%);fill-opacity:1;" d="M 118.226562 34.394531 C 114.085938 23.390625 111.28125 10.957031 111.097656 8.800781 C 110.914062 6.644531 112.003906 6.050781 112.96875 5.882812 C 113.933594 5.710938 115.453125 6.433594 115.726562 7.976562 C 116.242188 10.871094 118.328125 22.636719 118.226562 34.394531 Z M 118.226562 34.394531 "/>
<path style=" stroke:none;fill-rule:evenodd;fill:rgb(95.294118%,8.235294%,3.529412%);fill-opacity:1;" d="M 112.710938 35.609375 C 107.613281 25.011719 103.726562 12.871094 103.351562 10.742188 C 102.980469 8.609375 104.011719 7.925781 104.957031 7.667969 C 105.90625 7.414062 107.484375 8 107.890625 9.515625 C 108.660156 12.351562 111.777344 23.886719 112.710938 35.609375 Z M 112.710938 35.609375 "/>
<path style=" stroke:none;fill-rule:evenodd;fill:rgb(95.294118%,8.235294%,3.529412%);fill-opacity:1;" d="M 107.511719 37.234375 C 101.535156 27.105469 96.632812 15.339844 96.078125 13.25 C 95.527344 11.15625 96.496094 10.386719 97.417969 10.050781 C 98.339844 9.714844 99.960938 10.167969 100.496094 11.640625 C 101.503906 14.402344 105.585938 25.632812 107.511719 37.234375 Z M 107.511719 37.234375 "/>
<path style=" stroke:none;fill-rule:evenodd;fill:rgb(95.294118%,8.235294%,3.529412%);fill-opacity:1;" d="M 102.429688 39.3125 C 95.609375 29.738281 89.714844 18.433594 88.984375 16.398438 C 88.253906 14.359375 89.15625 13.507812 90.042969 13.097656 C 90.933594 12.683594 92.589844 12.996094 93.25 14.417969 C 94.484375 17.082031 99.519531 27.921875 102.429688 39.3125 Z M 102.429688 39.3125 "/>
<path style=" stroke:none;fill-rule:evenodd;fill:rgb(95.294118%,8.235294%,3.529412%);fill-opacity:1;" d="M 97.296875 41.960938 C 89.640625 33.039062 82.75 22.3125 81.839844 20.351562 C 80.929688 18.386719 81.753906 17.460938 82.601562 16.96875 C 83.449219 16.476562 85.125 16.636719 85.910156 17.996094 C 87.382812 20.539062 93.371094 30.878906 97.296875 41.964844 Z M 97.296875 41.960938 "/>
<path style=" stroke:none;fill-rule:evenodd;fill:rgb(95.294118%,8.235294%,3.529412%);fill-opacity:1;" d="M 92.621094 44.921875 C 84.222656 36.695312 76.433594 26.601562 75.359375 24.726562 C 74.28125 22.847656 75.019531 21.851562 75.820312 21.289062 C 76.625 20.730469 78.308594 20.742188 79.207031 22.027344 C 80.894531 24.433594 87.753906 34.222656 92.621094 44.921875 Z M 92.621094 44.921875 "/>
<path style=" stroke:none;fill-rule:evenodd;fill:rgb(95.294118%,8.235294%,3.529412%);fill-opacity:1;" d="M 88.242188 48.21875 C 79.171875 40.734375 70.550781 31.34375 69.320312 29.566406 C 68.085938 27.789062 68.738281 26.734375 69.488281 26.105469 C 70.238281 25.476562 71.917969 25.347656 72.925781 26.550781 C 74.8125 28.804688 82.480469 37.96875 88.242188 48.21875 Z M 88.242188 48.21875 "/>
<path style=" stroke:none;fill-rule:evenodd;fill:rgb(95.294118%,8.235294%,3.529412%);fill-opacity:1;" d="M 83.984375 52.046875 C 74.285156 45.40625 64.859375 36.820312 63.472656 35.160156 C 62.089844 33.496094 62.640625 32.390625 63.332031 31.695312 C 64.027344 31.003906 65.6875 30.726562 66.796875 31.832031 C 68.875 33.910156 77.332031 42.355469 83.984375 52.046875 Z M 83.984375 52.046875 "/>
<path style=" stroke:none;fill-rule:evenodd;fill:rgb(95.294118%,8.235294%,3.529412%);fill-opacity:1;" d="M 80.3125 55.976562 C 70.085938 50.167969 59.976562 42.40625 58.457031 40.867188 C 56.9375 39.328125 57.394531 38.175781 58.027344 37.425781 C 58.660156 36.679688 60.292969 36.261719 61.488281 37.273438 C 63.734375 39.167969 72.867188 46.875 80.3125 55.976562 Z M 80.3125 55.976562 "/>
<path style=" stroke:none;fill-rule:evenodd;fill:rgb(95.294118%,8.235294%,3.529412%);fill-opacity:1;" d="M 76.789062 60.46875 C 66.089844 55.59375 55.328125 48.757812 53.675781 47.359375 C 52.027344 45.960938 52.378906 44.777344 52.941406 43.972656 C 53.507812 43.171875 55.09375 42.613281 56.378906 43.511719 C 58.785156 45.199219 68.566406 52.066406 76.789062 60.46875 Z M 76.789062 60.46875 "/>
<path style=" stroke:none;fill-rule:evenodd;fill:rgb(95.294118%,8.235294%,3.529412%);fill-opacity:1;" d="M 73.636719 65.332031 C 62.539062 61.441406 51.207031 55.609375 49.433594 54.363281 C 47.664062 53.121094 47.910156 51.90625 48.398438 51.058594 C 48.886719 50.207031 50.417969 49.507812 51.777344 50.289062 C 54.324219 51.753906 64.6875 57.707031 73.636719 65.332031 Z M 73.636719 65.332031 "/>
<path style=" stroke:none;fill-rule:evenodd;fill:rgb(95.294118%,8.235294%,3.529412%);fill-opacity:1;" d="M 71.015625 70.277344 C 59.625 67.367188 47.824219 62.542969 45.953125 61.457031 C 44.082031 60.375 44.21875 59.144531 44.632812 58.253906 C 45.042969 57.367188 46.507812 56.535156 47.929688 57.195312 C 50.597656 58.429688 61.4375 63.457031 71.015625 70.277344 Z M 71.015625 70.277344 "/>
<path style=" stroke:none;fill-rule:evenodd;fill:rgb(95.294118%,8.235294%,3.529412%);fill-opacity:1;" d="M 68.917969 75.234375 C 57.320312 73.289062 45.160156 69.46875 43.203125 68.546875 C 41.246094 67.625 41.28125 66.382812 41.617188 65.464844 C 41.953125 64.542969 43.34375 63.59375 44.816406 64.128906 C 47.578125 65.140625 58.800781 69.242188 68.917969 75.234375 Z M 68.917969 75.234375 "/>
<path style=" stroke:none;fill-rule:evenodd;fill:rgb(95.294118%,8.235294%,3.529412%);fill-opacity:1;" d="M 67.105469 80.832031 C 55.378906 79.957031 42.917969 77.269531 40.886719 76.53125 C 38.851562 75.789062 38.773438 74.550781 39.023438 73.605469 C 39.273438 72.660156 40.570312 71.582031 42.085938 71.984375 C 44.929688 72.734375 56.480469 75.792969 67.105469 80.832031 Z M 67.105469 80.832031 "/>
<path style=" stroke:none;fill-rule:evenodd;fill:rgb(0%,0%,0%);fill-opacity:1;" d="M 34.542969 77.574219 L 225.15625 77.574219 L 225.15625 84.5 L 34.542969 84.5 Z M 34.542969 77.574219 "/>
</g>
</svg>
