<?xml version="1.0" encoding="UTF-8"?>
<svg xmlns="http://www.w3.org/2000/svg" xmlns:xlink="http://www.w3.org/1999/xlink" width="40px" height="40px" viewBox="0 0 256 256" version="1.1">
<g id="surface1">
<rect x="0" y="0" width="256" height="256" style="fill:rgb(90.980393%,0%,3.137255%);fill-opacity:1;stroke:none;"/>
<path style=" stroke:none;fill-rule:evenodd;fill:rgb(100%,100%,100%);fill-opacity:1;" d="M 0 18.285156 L 256 18.285156 L 256 36.574219 L 0 36.574219 Z M 0 18.285156 "/>
<path style=" stroke:none;fill-rule:evenodd;fill:rgb(100%,100%,100%);fill-opacity:1;" d="M 0 54.859375 L 256 54.859375 L 256 73.144531 L 0 73.144531 Z M 0 54.859375 "/>
<path style=" stroke:none;fill-rule:evenodd;fill:rgb(100%,100%,100%);fill-opacity:1;" d="M 0 91.429688 L 256 91.429688 L 256 109.714844 L 0 109.714844 Z M 0 91.429688 "/>
<path style=" stroke:none;fill-rule:evenodd;fill:rgb(100%,100%,100%);fill-opacity:1;" d="M 0 128 L 256 128 L 256 146.289062 L 0 146.289062 Z M 0 128 "/>
<path style=" stroke:none;fill-rule:evenodd;fill:rgb(100%,100%,100%);fill-opacity:1;" d="M 0 164.574219 L 256 164.574219 L 256 182.859375 L 0 182.859375 Z M 0 164.574219 "/>
<path style=" stroke:none;fill-rule:evenodd;fill:rgb(100%,100%,100%);fill-opacity:1;" d="M 0 201.148438 L 256 201.148438 L 256 219.433594 L 0 219.433594 Z M 0 201.148438 "/>
<path style=" stroke:none;fill-rule:evenodd;fill:rgb(100%,100%,100%);fill-opacity:1;" d="M 0 237.71875 L 256 237.71875 L 256 256.003906 L 0 256.003906 Z M 0 237.71875 "/>
<path style=" stroke:none;fill-rule:evenodd;fill:rgb(0%,2.352941%,53.725493%);fill-opacity:1;" d="M -0.480469 -0.332031 L 130.445312 -0.332031 L 130.445312 75.175781 L -0.480469 75.175781 Z M -0.480469 -0.332031 "/>
<path style=" stroke:none;fill-rule:evenodd;fill:rgb(100%,93.333334%,0%);fill-opacity:1;" d="M 65.988281 63.84375 C 51.902344 71.683594 34.289062 66.386719 26.679688 52.1875 C 19.066406 37.992188 24.320312 20.242188 38.410156 12.570312 C 47.117188 7.828125 56.683594 7.734375 65.375 12.398438 C 60.472656 11.21875 56.09375 11.28125 51.332031 12.695312 C 37.46875 16.8125 29.5 31.613281 33.546875 45.730469 C 37.589844 59.847656 52.121094 67.960938 65.984375 63.84375 Z M 65.988281 63.84375 "/>
<path style=" stroke:none;fill-rule:evenodd;fill:rgb(100%,93.333334%,0%);fill-opacity:1;" d="M 61.136719 19.726562 L 75.824219 28.496094 L 70.898438 12.113281 L 80.328125 26.386719 L 82.996094 9.488281 L 85.296875 26.441406 L 95.03125 12.375 L 89.753906 28.644531 L 104.628906 20.195312 L 92.808594 32.566406 L 109.878906 31.40625 L 93.863281 37.421875 L 109.746094 43.785156 L 92.707031 42.257812 L 104.253906 54.878906 L 89.566406 46.113281 L 94.492188 62.492188 L 85.066406 48.21875 L 82.394531 65.117188 L 80.09375 48.164062 L 70.359375 62.234375 L 75.636719 45.960938 L 60.761719 54.410156 L 72.582031 42.042969 L 55.511719 43.199219 L 71.527344 37.183594 L 55.644531 30.824219 L 72.683594 32.347656 Z M 61.136719 19.726562 "/>
</g>
</svg>
