<?xml version="1.0" encoding="UTF-8"?>
<svg xmlns="http://www.w3.org/2000/svg" xmlns:xlink="http://www.w3.org/1999/xlink" width="40px" height="40px" viewBox="0 0 256 256" version="1.1">
<defs>
<clipPath id="clip1">
  <path d="M 0 0 L 255.992188 0 L 255.992188 80 L 0 80 Z M 0 0 "/>
</clipPath>
<clipPath id="clip2">
  <path d="M 0 79 L 255.992188 79 L 255.992188 88 L 0 88 Z M 0 79 "/>
</clipPath>
<clipPath id="clip3">
  <path d="M 0 87 L 255.992188 87 L 255.992188 168 L 0 168 Z M 0 87 "/>
</clipPath>
<clipPath id="clip4">
  <path d="M 0 167 L 255.992188 167 L 255.992188 176 L 0 176 Z M 0 167 "/>
</clipPath>
<clipPath id="clip5">
  <path d="M 0 175 L 255.992188 175 L 255.992188 255.992188 L 0 255.992188 Z M 0 175 "/>
</clipPath>
<clipPath id="clip6">
  <path d="M 0 0 L 169 0 L 169 255.992188 L 0 255.992188 Z M 0 0 "/>
</clipPath>
</defs>
<g id="surface1">
<g clip-path="url(#clip1)" clip-rule="nonzero">
<path style=" stroke:none;fill-rule:evenodd;fill:rgb(0%,60.392159%,0%);fill-opacity:1;" d="M 0 0 L 383.988281 0 L 383.988281 80 L 0 80 Z M 0 0 "/>
</g>
<g clip-path="url(#clip2)" clip-rule="nonzero">
<path style=" stroke:none;fill-rule:evenodd;fill:rgb(100%,100%,100%);fill-opacity:1;" d="M 0 79.976562 L 383.988281 79.976562 L 383.988281 87.988281 L 0 87.988281 Z M 0 79.976562 "/>
</g>
<g clip-path="url(#clip3)" clip-rule="nonzero">
<path style=" stroke:none;fill-rule:evenodd;fill:rgb(0%,0%,0%);fill-opacity:1;" d="M 0 87.988281 L 383.988281 87.988281 L 383.988281 167.984375 L 0 167.984375 Z M 0 87.988281 "/>
</g>
<g clip-path="url(#clip4)" clip-rule="nonzero">
<path style=" stroke:none;fill-rule:evenodd;fill:rgb(100%,100%,100%);fill-opacity:1;" d="M 0 167.984375 L 383.988281 167.984375 L 383.988281 175.992188 L 0 175.992188 Z M 0 167.984375 "/>
</g>
<g clip-path="url(#clip5)" clip-rule="nonzero">
<path style=" stroke:none;fill-rule:evenodd;fill:rgb(100%,79.215688%,0%);fill-opacity:1;" d="M 0 175.992188 L 383.988281 175.992188 L 383.988281 255.992188 L 0 255.992188 Z M 0 175.992188 "/>
</g>
<g clip-path="url(#clip6)" clip-rule="nonzero">
<path style=" stroke:none;fill-rule:evenodd;fill:rgb(100%,0%,0%);fill-opacity:1;" d="M 0 0 L 0 255.992188 L 168.003906 127.996094 Z M 0 0 "/>
</g>
<path style=" stroke:none;fill-rule:evenodd;fill:rgb(100%,79.215688%,0%);fill-opacity:1;" d="M 99.261719 166.480469 L 73.648438 147.730469 L 48.066406 166.484375 L 57.988281 136.332031 L 32.242188 117.796875 L 63.988281 117.914062 L 73.65625 87.703125 L 83.355469 117.933594 L 115.074219 117.789062 L 89.324219 136.355469 Z M 99.261719 166.480469 "/>
<path style="fill-rule:evenodd;fill:rgb(100%,100%,100%);fill-opacity:1;stroke-width:1.25;stroke-linecap:round;stroke-linejoin:round;stroke:rgb(0%,0%,0%);stroke-opacity:1;stroke-miterlimit:4;" d="M 77.114548 167.906022 L 118.94258 167.906022 C 122.307953 171.687637 129.818046 173.228624 136.97389 167.861741 C 150.089985 160.688184 175.454263 167.906022 175.454263 167.906022 L 180.449183 162.601133 L 168.27185 122.641767 L 163.905723 117.956815 C 163.905723 117.956815 154.535818 112.341958 136.743628 114.210625 C 118.94258 116.088148 112.69893 113.590688 112.69893 113.590688 C 112.69893 113.590688 97.094231 115.459355 92.719247 117.646847 C 92.24101 118.036521 87.724326 122.641767 87.724326 122.641767 Z M 77.114548 167.906022 " transform="matrix(0.441073,0,0,0.441073,17.404818,71.390394)"/>
<path style="fill:none;stroke-width:1.25;stroke-linecap:round;stroke-linejoin:round;stroke:rgb(0%,0%,0%);stroke-opacity:1;stroke-miterlimit:4;" d="M 85.545691 157.606212 C 85.545691 157.606212 125.505056 152.611291 137.053596 167.914878 C 130.526545 172.378424 124.7877 172.74153 118.632612 168.224847 C 119.615655 166.595298 132.997437 152.611291 167.02312 157.296244 " transform="matrix(0.441073,0,0,0.441073,17.404818,71.390394)"/>
<path style="fill:none;stroke-width:1.25;stroke-linecap:butt;stroke-linejoin:miter;stroke:rgb(0%,0%,0%);stroke-opacity:1;stroke-miterlimit:4;" d="M 128.312485 117.646847 L 128.002516 161.671227 " transform="matrix(0.441073,0,0,0.441073,17.404818,71.390394)"/>
<path style="fill:none;stroke-width:1.25;stroke-linecap:butt;stroke-linejoin:miter;stroke:rgb(0%,0%,0%);stroke-opacity:1;stroke-miterlimit:4;" d="M 163.896867 118.266784 L 171.389248 153.240085 " transform="matrix(0.441073,0,0,0.441073,17.404818,71.390394)"/>
<path style="fill:none;stroke-width:1.25;stroke-linecap:round;stroke-linejoin:round;stroke:rgb(0%,0%,0%);stroke-opacity:1;stroke-miterlimit:4;" d="M 93.13549 117.717697 L 88.973056 135.749006 " transform="matrix(0.441073,0,0,0.441073,17.404818,71.390394)"/>
<path style="fill-rule:evenodd;fill:rgb(0%,0%,0%);fill-opacity:1;stroke-width:1.25;stroke-linecap:round;stroke-linejoin:round;stroke:rgb(0%,0%,0%);stroke-opacity:1;stroke-miterlimit:4;" d="M 49.943596 172.706105 L 59.782882 184.245789 C 60.934193 184.936576 61.961517 184.892295 62.988841 184.245789 L 77.566216 166.745854 L 83.694736 159.164911 C 84.642354 158.040168 84.943466 156.791438 84.854904 155.666695 L 96.562856 145.26061 C 97.51933 145.33146 98.094986 145.437735 99.05146 145.499729 C 97.917861 145.207473 97.085374 144.658386 97.979855 143.418512 L 100.601303 141.381576 L 102.647095 144.003024 C 102.647095 144.003024 99.733391 147.793496 99.441135 147.793496 L 96.226319 147.793496 L 90.106655 153.337503 L 92.781241 155.70212 L 96.810831 166.745854 L 101.770327 163.247638 L 98.564367 151.876223 L 105.560798 144.29528 L 102.939351 140.212552 L 104.68403 137.88336 C 104.68403 137.88336 128.905853 153.124953 138.240332 149.051082 C 138.497164 149.139644 138.807132 138.16676 138.807132 138.16676 C 138.807132 138.16676 113.726254 135.545312 113.141742 130.585817 C 112.55723 125.635177 118.685749 125.050665 118.685749 125.050665 L 116.055445 121.260194 L 116.639957 119.214402 L 121.014941 124.758409 L 130.933933 116.300698 L 189.252288 182.784509 C 192.440536 181.500354 193.11361 180.721005 193.335016 177.541614 C 193.25531 177.461907 136.185684 111.925714 136.185684 111.925714 L 140.551812 107.258474 C 141.419723 106.293144 141.720836 105.876901 141.720836 104.344771 L 148.425011 98.508507 C 150.444234 99.20815 151.72839 100.412599 152.799995 102.006723 L 171.238691 86.384311 C 171.725785 86.871405 173.204777 87.358498 174.205533 86.809411 L 204.688719 57.548386 L 171.468954 81.017428 L 170.291074 80.14066 C 170.291074 79.166474 171.504379 78.927355 170.291074 77.2181 C 169.006918 75.677114 167.085114 78.67938 166.792858 78.67938 C 166.500602 78.67938 161.983918 77.085257 161.000875 75.057177 L 160.673194 80.432916 L 152.215483 88.306116 L 145.803563 88.01386 L 136.469084 97.056083 L 135.30006 100.554299 L 136.76134 103.468003 C 136.76134 103.468003 131.801844 107.842986 131.801844 107.55073 C 131.801844 107.258474 130.801089 106.257719 130.756808 106.133732 L 135.007804 102.298979 L 135.592316 99.677531 L 134.175317 97.46347 C 133.741361 97.773439 128.303629 103.468003 128.011373 102.883491 C 127.524279 102.34326 112.264974 85.100156 112.264974 85.100156 L 113.132885 81.894196 L 103.22275 71.098437 C 99.609403 69.849707 93.888271 69.646013 92.719247 77.519213 C 91.81591 79.361311 84.270392 77.802612 84.270392 77.802612 L 80.187664 78.67938 L 57.143721 111.341202 L 69.976417 126.795345 L 96.226319 93.557868 L 97.005668 84.134826 L 102.505395 90.289914 C 104.347493 90.529033 106.092173 90.546745 107.757146 89.714258 L 123.308708 107.063637 L 120.713829 109.596522 C 121.590597 110.561853 122.192821 111.18179 123.069589 112.155976 C 123.946357 111.571464 124.778844 110.871821 125.655612 110.287309 C 125.947868 110.676984 126.434961 111.420908 126.727217 111.810583 C 125.42535 112.519082 124.504301 113.457844 123.202433 114.166343 C 121.121216 112.811338 119.110849 111.119796 119.261405 108.427498 L 110.511438 115.716186 L 110.219182 117.177466 L 84.270392 138.751272 L 81.932344 139.043528 L 81.347832 145.75656 L 98.263255 131.754841 L 98.263255 129.709049 L 100.016791 131.170329 L 113.132885 120.675682 C 113.132885 120.675682 114.009653 121.844706 113.717397 121.844706 C 113.425141 121.844706 102.053726 132.339353 102.053726 132.339353 L 101.76147 133.508377 L 99.724535 135.253056 L 98.555511 134.376288 L 82.809112 148.378008 L 80.47992 148.378008 L 71.729953 157.127975 C 69.471611 157.322812 67.514381 157.561931 65.601433 158.872655 L 49.93474 172.706105 Z M 49.943596 172.706105 " transform="matrix(0.441073,0,0,0.441073,17.404818,71.390394)"/>
</g>
</svg>
