<?xml version="1.0" encoding="UTF-8"?>
<svg xmlns="http://www.w3.org/2000/svg" xmlns:xlink="http://www.w3.org/1999/xlink" width="40px" height="40px" viewBox="0 0 256 256" version="1.1">
<g id="surface1">
<rect x="0" y="0" width="256" height="256" style="fill:rgb(100%,100%,100%);fill-opacity:1;stroke:none;"/>
<path style=" stroke:none;fill-rule:evenodd;fill:rgb(21.176471%,38.431373%,63.529414%);fill-opacity:1;" d="M -54.117188 0.121094 L -53.691406 184.410156 L 233.300781 0 L -54.121094 0.117188 Z M -54.117188 0.121094 "/>
<path style=" stroke:none;fill-rule:evenodd;fill:rgb(21.960784%,63.137257%,0%);fill-opacity:1;" d="M 315.34375 255.765625 L 314.671875 64.140625 L 25.179688 255.910156 L 315.347656 255.769531 Z M 315.34375 255.765625 "/>
<path style=" stroke:none;fill-rule:evenodd;fill:rgb(78.039217%,0%,0%);fill-opacity:1;" d="M -53.933594 198.304688 L -53.691406 256 L 8.933594 255.921875 L 314.8125 50.851562 L 314.46875 0.691406 L 252.589844 0.121094 L -53.9375 198.304688 Z M -53.933594 198.304688 "/>
<path style=" stroke:none;fill-rule:evenodd;fill:rgb(100%,90.588236%,0%);fill-opacity:1;" d="M 77.042969 91.695312 L 65.449219 84.695312 L 58.746094 96.484375 L 52.21875 84.621094 L 40.523438 91.492188 L 40.808594 77.941406 L 27.253906 78.046875 L 34.277344 66.441406 L 22.5 59.757812 L 34.378906 53.210938 L 27.53125 41.527344 L 41.082031 41.785156 L 41 28.234375 L 52.59375 35.234375 L 59.300781 23.445312 L 65.824219 35.308594 L 77.519531 28.441406 L 77.234375 41.988281 L 90.785156 41.882812 L 83.765625 53.488281 L 95.542969 60.171875 L 83.664062 66.71875 L 90.511719 78.402344 L 76.960938 78.144531 Z M 77.042969 91.695312 "/>
<path style=" stroke:none;fill-rule:evenodd;fill:rgb(21.176471%,38.431373%,63.529414%);fill-opacity:1;" d="M 83.882812 59.964844 C 83.882812 73.589844 72.753906 84.632812 59.023438 84.632812 C 45.292969 84.632812 34.164062 73.589844 34.164062 59.964844 C 34.164062 46.34375 45.292969 35.296875 59.023438 35.296875 C 72.753906 35.296875 83.882812 46.34375 83.882812 59.964844 Z M 83.882812 59.964844 "/>
<path style=" stroke:none;fill-rule:evenodd;fill:rgb(100%,90.588236%,0%);fill-opacity:1;" d="M 78.488281 59.964844 C 78.488281 70.714844 69.773438 79.429688 59.023438 79.429688 C 48.273438 79.429688 39.558594 70.714844 39.558594 59.964844 C 39.558594 49.214844 48.273438 40.5 59.023438 40.5 C 69.773438 40.5 78.488281 49.214844 78.488281 59.964844 Z M 78.488281 59.964844 "/>
</g>
</svg>
