<?xml version="1.0" encoding="UTF-8"?>
<svg xmlns="http://www.w3.org/2000/svg" xmlns:xlink="http://www.w3.org/1999/xlink" width="40px" height="40px" viewBox="0 0 256 256" version="1.1">
<defs>
<clipPath id="clip1">
  <path d="M 0 0 L 255.992188 0 L 255.992188 255.992188 L 0 255.992188 Z M 0 0 "/>
</clipPath>
<clipPath id="clip2">
  <path d="M 0 0 L 255.992188 0 L 255.992188 86 L 0 86 Z M 0 0 "/>
</clipPath>
<clipPath id="clip3">
  <path d="M 0 170 L 255.992188 170 L 255.992188 255.992188 L 0 255.992188 Z M 0 170 "/>
</clipPath>
</defs>
<g id="surface1">
<g clip-path="url(#clip1)" clip-rule="nonzero">
<path style=" stroke:none;fill-rule:evenodd;fill:rgb(100%,100%,100%);fill-opacity:1;" d="M 276.144531 255.992188 L -23 255.992188 L -23 0 L 276.144531 0 Z M 276.144531 255.992188 "/>
</g>
<g clip-path="url(#clip2)" clip-rule="nonzero">
<path style=" stroke:none;fill-rule:evenodd;fill:rgb(100%,43.921569%,0%);fill-opacity:1;" d="M 276.144531 85.335938 L -23 85.335938 L -23 0.00390625 L 276.144531 0.00390625 Z M 276.144531 85.335938 "/>
</g>
<g clip-path="url(#clip3)" clip-rule="nonzero">
<path style=" stroke:none;fill-rule:evenodd;fill:rgb(21.176471%,63.137257%,0%);fill-opacity:1;" d="M 276.144531 255.992188 L -23 255.992188 L -23 170.664062 L 276.144531 170.664062 Z M 276.144531 255.992188 "/>
</g>
<path style=" stroke:none;fill-rule:evenodd;fill:rgb(100%,43.921569%,0%);fill-opacity:1;" d="M 151.257812 127.996094 C 151.257812 141.628906 140.207031 152.679688 126.574219 152.679688 C 112.941406 152.679688 101.890625 141.628906 101.890625 127.996094 C 101.890625 114.363281 112.941406 103.3125 126.574219 103.3125 C 140.207031 103.3125 151.257812 114.363281 151.257812 127.996094 Z M 151.257812 127.996094 "/>
</g>
</svg>
