<?xml version="1.0" encoding="UTF-8"?>
<svg xmlns="http://www.w3.org/2000/svg" xmlns:xlink="http://www.w3.org/1999/xlink" width="40px" height="40px" viewBox="0 0 256 256" version="1.1">
<g id="surface1">
<path style=" stroke:none;fill-rule:evenodd;fill:rgb(100%,100%,100%);fill-opacity:1;" d="M 77.914062 0 L 178.09375 0 L 178.09375 256 L 77.914062 256 Z M 77.914062 0 "/>
<path style=" stroke:none;fill-rule:evenodd;fill:rgb(9.803922%,50.980395%,0%);fill-opacity:1;" d="M 0 0 L 77.914062 0 L 77.914062 256 L 0 256 Z M 0 0 "/>
<path style=" stroke:none;fill-rule:evenodd;fill:rgb(9.803922%,50.980395%,0%);fill-opacity:1;" d="M 178.09375 0 L 256 0 L 256 256 L 178.09375 256 Z M 178.09375 0 "/>
<path style="fill-rule:evenodd;fill:rgb(9.803922%,50.980395%,0%);fill-opacity:1;stroke-width:1.2902;stroke-linecap:round;stroke-linejoin:round;stroke:rgb(0%,0%,0%);stroke-opacity:1;stroke-miterlimit:4;" d="M 239.219352 396.404261 L 239.219352 467.731941 C 248.834736 467.827008 258.436539 467.922076 268.038342 468.030724 C 268.038342 468.030724 258.830389 405.924578 263.88254 397.599393 C 268.934691 389.274209 273.688059 390.469342 273.688059 390.469342 C 273.688059 390.469342 292.416328 396.119059 294.494229 395.222709 C 296.57213 394.32636 294.195446 388.092658 304.299748 388.975426 C 307.5592 387.793875 305.780083 382.144157 308.754333 381.845374 C 311.728583 381.546591 369.081361 397.898177 381.562347 382.44294 C 378.289314 373.832554 366.989879 381.845374 364.02921 382.144157 C 361.353743 382.144157 350.054309 376.793223 343.521823 382.144157 C 337.573323 377.689573 310.53345 374.715322 310.53345 374.715322 C 306.975215 371.157087 375.016281 376.508021 378.88688 373.832554 C 386.8997 365.806153 364.02921 366.688921 360.457394 369.364388 C 354.115043 365.50737 346.170128 365.806153 341.308112 368.48162 C 338.985752 362.913389 316.875801 365.303654 304.598531 363.728252 C 300.660026 361.419473 301.339079 360.102112 304.000965 358.676101 C 329.65557 359.762585 355.187946 363.089943 380.964781 361.935553 C 387.93186 352.863411 372.177841 349.454568 362.535295 357.182186 C 356.871996 347.879166 345.300941 356.883402 337.573323 356.000634 C 329.845705 355.104285 333.417521 345.597549 343.22304 347.077884 C 353.028559 348.571799 370.561696 346.493898 373.834729 342.025733 C 377.094181 337.571148 371.879058 333.048658 355.704026 337.272365 C 350.230863 331.921431 338.170889 337.272365 332.521172 339.065064 C 325.010851 334.868519 307.5592 338.467497 301.624281 339.947832 C 295.79801 336.335272 332.23597 330.441096 332.23597 330.441096 C 346.292358 330.196637 354.223692 327.765629 358.678276 326.584078 C 379.932621 315.189576 358.365912 313.967281 347.215869 322.251722 C 340.289533 316.846464 333.716304 322.713478 327.482602 324.791379 C 321.235319 326.882861 309.351899 328.363195 309.351899 327.466846 C 309.351899 326.584078 326.28747 316.180993 326.28747 316.180993 C 326.28747 316.180993 347.09364 314.700658 351.249441 314.103092 C 355.405243 313.505525 376.700331 302.572779 347.677625 309.933709 C 337.573323 310.830058 331.638404 310.232492 327.767804 310.531275 C 305.372651 308.222497 329.859286 306.076691 329.859286 306.076691 C 329.859286 306.076691 361.57104 303.156765 361.95131 301.622106 C 362.562457 289.249768 336.092988 295.076039 335.794205 295.076039 C 335.875692 286.248356 311.131017 295.374822 311.131017 295.076039 C 306.404811 292.291924 313.806484 289.439903 313.806484 289.439903 C 320.338969 287.85092 330.117326 287.389164 332.670564 285.311264 C 332.670564 285.311264 351.140793 285.121129 353.327342 280.218369 C 348.804852 267.737384 314.268239 282.445662 309.650682 284.686535 C 303.403399 284.686535 313.806484 274.582233 314.105267 274.28345 C 314.40405 273.984667 342.625474 272.789535 356.002809 254.672412 C 356.926321 243.631018 340.24879 260.906115 340.24879 260.906115 C 339.012914 246.605268 322.131668 261.802464 312.326149 262.984016 C 302.52063 264.179148 302.221847 258.529431 309.053116 257.646663 C 315.884385 256.750313 323.612003 257.34788 327.469021 246.944794 C 331.339621 236.541709 342.924257 247.542361 345.002158 243.671761 C 347.080059 239.814743 340.846356 236.541709 340.846356 236.541709 C 340.846356 236.541709 349.470324 227.63254 335.495422 227.931323 C 321.534102 228.216525 303.403399 226.138624 303.403399 226.138624 C 303.403399 226.138624 317.962285 220.502488 331.638404 220.78769 C 345.300941 221.086473 337.872106 210.982171 324.793554 210.982171 C 311.728583 210.982171 304.897314 206.527587 304.897314 206.527587 C 312.326149 203.757052 319.754984 200.986518 327.183819 198.215983 C 326.68132 196.124502 326.192402 194.046601 325.689903 191.9687 C 325.689903 191.9687 338.768455 181.565615 320.338969 183.942299 C 301.923064 186.318983 299.845163 186.617766 299.845163 186.617766 C 299.845163 186.617766 262.999772 192.267483 262.700989 192.267483 C 262.402206 192.267483 252.596687 189.293233 262.103422 186.916549 C 271.610158 184.539865 305.182516 177.708596 310.234667 179.487714 C 315.286818 181.266832 309.650682 167.006728 291.818762 165.22761 C 273.986842 163.448493 262.999772 169.682195 262.999772 169.682195 C 262.999772 169.682195 251.401554 165.526394 262.103422 161.954577 C 272.805291 158.396342 289.740861 163.14971 289.740861 163.14971 C 289.740861 163.14971 308.754333 157.499992 293.000314 155.123309 C 277.259875 152.746625 272.289211 157.255534 265.077673 157.499992 C 262.19849 153.901014 289.795185 153.045408 291.519979 150.071158 C 288.613634 144.720223 271.515091 150.071158 261.505856 150.071158 C 257.254987 148.264878 256.983366 145.344952 261.804639 143.538672 C 272.004009 143.13124 281.592231 143.742388 291.7916 143.334956 C 291.492817 137.888955 291.818762 131.451537 291.519979 126.005535 C 278.577237 123.642432 263.393622 127.703167 256.12776 127.36364 C 258.06985 121.41514 286.033234 119.894062 289.143295 118.277917 C 295.607875 110.183611 261.804639 118.277917 261.505856 118.277917 C 255.61168 117.40873 255.99195 113.687522 259.726739 111.446648 C 268.337125 110.455232 287.66296 112.696105 286.196207 106.856253 C 285.082561 101.38309 272.805291 104.316597 267.75314 105.498148 C 262.700989 106.693281 255.272154 105.796931 255.272154 105.796931 C 252.039864 101.437414 284.389927 103.216532 284.091144 99.848431 C 283.670131 95.991412 263.583757 98.666879 256.752488 98.965663 C 251.415135 95.271617 282.407094 92.840609 282.909593 92.419596 C 284.023239 82.546172 262.103422 92.419596 257.947621 92.419596 C 253.778238 92.419596 255.856139 86.185894 255.856139 86.185894 C 255.856139 86.185894 264.480106 82.315294 264.181323 81.731309 C 263.88254 81.133743 257.648838 79.055842 257.051271 79.055842 C 256.453705 79.055842 257.051271 72.210992 257.051271 72.210992 C 257.051271 72.210992 264.181323 66.873639 263.583757 65.379723 C 262.999772 63.899389 255.272154 66.574856 255.272154 66.574856 L 255.272154 60.626356 C 255.272154 60.626356 260.90829 60.028789 261.505856 57.353322 C 262.103422 54.691436 254.674588 54.392653 254.674588 54.392653 C 253.683171 43.989568 252.691754 33.586483 251.700337 23.183398 C 250.803988 32.893849 249.92122 42.604301 249.02487 52.314752 C 245.765418 52.80367 242.492385 53.292588 239.219352 53.795087 C 239.219352 53.795087 246.05062 57.652105 247.245753 61.522705 C 248.427304 65.379723 238.920568 64.198172 238.920568 64.198172 C 238.920568 64.198172 246.648186 70.730657 247.245753 73.107341 C 247.843319 75.484025 236.543884 76.081592 236.543884 76.081592 C 236.543884 76.081592 246.05062 82.91286 246.648186 86.78346 C 247.245753 90.640478 246.648186 92.718379 246.648186 92.718379 C 246.648186 92.718379 230.907748 79.055842 220.803446 82.91286 C 215.54758 85.656233 232.822676 86.932851 244.271502 96.874181 C 244.24434 99.101473 216.471091 90.110817 215.452512 95.692629 C 216.090822 97.240869 245.113528 101.410252 247.245753 105.199365 C 236.652533 105.593215 214.719135 102.877005 215.452512 106.394497 C 213.238801 110.441651 236.150034 108.132872 245.751837 111.446648 C 248.576696 114.638195 248.277913 117.340825 243.375153 117.680351 C 234.126457 113.252928 213.415355 109.952733 213.374611 115.60245 C 213.496841 117.109947 234.778348 116.132111 242.492385 121.252167 C 232.184367 123.588108 197.253904 116.485218 197.036607 119.948386 C 198.028024 121.564531 203.569093 128.681002 213.075828 128.382219 C 222.582564 128.083436 244.570286 132.239238 246.05062 135.213488 C 247.544536 138.187738 217.530413 128.979785 206.230979 134.317138 C 194.945125 139.668072 238.621785 136.40862 245.751837 142.941106 C 252.89547 149.473591 231.491733 142.343539 231.491733 142.343539 C 231.491733 142.343539 201.776394 138.187738 197.321809 140.265639 C 192.867224 142.343539 187.815073 147.096907 187.815073 147.096907 C 187.815073 147.096907 190.789324 153.045408 193.749993 151.850275 C 196.724243 150.668724 192.867224 155.422092 192.867224 155.422092 C 192.867224 155.422092 234.465984 165.526394 243.673936 174.435563 C 252.89547 183.358314 190.789324 160.474243 190.789324 160.474243 C 190.789324 160.474243 165.827352 169.682195 192.269658 170.279761 C 189.227503 174.734346 193.763574 177.409813 193.763574 177.409813 C 193.763574 177.409813 237.739017 186.617766 242.193602 193.747818 C 246.648186 200.877869 212.179479 186.916549 204.451861 183.05953 C 196.724243 179.188931 174.736521 185.436214 175.035304 186.916549 C 175.334088 188.410465 185.737173 190.488365 186.035956 193.163832 C 186.321158 195.825718 173.256187 196.722068 173.256187 199.098752 C 173.256187 201.475436 228.816266 213.073653 243.673936 225.554639 C 258.531606 238.022044 199.997276 210.696969 199.997276 210.696969 C 199.997276 210.696969 203.270309 215.151554 199.997276 216.333105 C 196.724243 217.528238 185.139606 199.696318 166.126135 210.696969 C 162.662967 215.219459 182.708598 218.804857 187.815073 219.307356 C 186.076699 223.789102 184.54204 225.255856 191.672092 229.710441 C 198.802144 234.165025 177.710771 223.177955 177.710771 223.76194 C 177.710771 224.359507 179.191106 231.489558 179.191106 231.489558 C 172.617877 226.138624 164.659381 224.522479 157.203384 230.009224 C 157.203384 230.009224 156.904601 235.360158 164.632219 238.61961 C 160.422093 247.243578 169.385587 244.568111 183.659272 252.594512 C 162.459251 247.053443 160.775201 257.34788 175.931654 259.724563 C 191.088107 262.101247 232.686866 263.581582 242.492385 276.361351 C 252.297904 289.14112 228.558226 271.458592 225.855597 271.010417 C 225.258031 271.3092 224.660465 277.556483 224.660465 277.556483 C 218.318114 273.876019 212.478262 270.589404 204.900036 269.027583 C 204.302469 270.222716 204.451861 271.906766 203.854295 273.088318 C 196.982283 268.131234 190.965877 264.668066 180.983805 264.179148 C 180.576373 265.768131 180.182523 267.343533 179.788672 268.932516 C 179.788672 268.932516 171.463488 258.529431 155.125484 268.932516 C 145.999017 275.478583 189.594191 271.3092 196.724243 279.036818 C 203.854295 286.764436 198.218158 287.945987 198.218158 287.945987 C 192.269658 285.773019 186.321158 283.58647 180.386238 281.413502 C 180.386238 281.413502 159.281285 277.556483 153.346366 282.309851 C 147.397866 287.063219 240.115701 298.647856 242.791168 311.427625 C 244.583867 318.353961 220.993581 304.148181 200.594842 298.050289 C 199.79356 300.331906 199.005859 302.613523 198.218158 304.881558 C 198.218158 304.881558 190.110271 296.746509 180.983805 295.374822 C 180.685022 295.374822 182.762922 303.401224 182.762922 303.401224 C 182.762922 303.401224 159.878851 292.699355 148.294215 298.349073 C 136.709578 303.99879 188.711423 306.97304 193.464791 312.310393 C 198.218158 317.661327 177.710771 308.752158 175.931654 312.310393 C 174.138955 315.882209 148.891781 305.777907 149.190564 310.531275 C 149.475766 315.284643 152.7488 317.96011 152.7488 317.96011 C 152.7488 317.96011 205.34821 323.012261 207.127328 329.259545 C 208.906446 335.493247 178.009555 325.687728 178.009555 325.687728 C 178.009555 325.687728 175.035304 330.142313 177.411988 332.220214 C 179.788672 334.311696 159.580068 320.336794 161.372767 329.544747 C 154.813119 326.937185 137.89113 318.85646 140.267814 325.090162 C 142.644498 331.337445 188.113857 340.246615 188.113857 340.246615 C 188.113857 340.246615 168.204036 341.740531 169.100385 346.792682 C 143.486523 331.188054 144.138413 341.142964 144.722399 341.441747 C 145.319965 341.740531 111.747607 333.116563 137.008362 346.792682 C 162.255535 360.455219 150.670899 358.078535 150.969682 358.377318 C 151.268465 358.676101 153.645149 365.208587 153.047583 365.208587 C 152.450017 365.208587 135.813229 356.299417 130.163512 355.701851 C 124.527376 355.104285 97.772705 363.130686 126.306493 375.611672 C 154.8267 388.092658 172.359837 372.637422 188.113857 374.416539 C 203.867876 376.209238 211.296711 378.884705 209.802795 383.936856 C 208.32246 388.989007 193.722831 367.381555 178.349081 386.069081 C 160.870268 382.605913 149.00043 380.595918 158.018247 393.443592 C 129.470878 382.782467 112.04639 396.703044 147.995432 402.352761 C 183.333327 403.398502 205.049427 393.742375 205.049427 393.742375 C 205.049427 393.742375 210.997927 404.729445 219.608314 397.001827 C 228.232281 389.274209 228.531064 399.976077 228.829847 399.976077 C 229.11505 399.976077 237.141451 396.417842 237.141451 396.417842 L 239.219352 396.417842 Z M 239.219352 396.404261 " transform="matrix(0.287625,0,0,0.287625,52.674999,52.16)"/>
<path style="fill-rule:evenodd;fill:rgb(100%,100%,100%);fill-opacity:1;stroke-width:1.290125;stroke-linecap:round;stroke-linejoin:round;stroke:rgb(0%,0%,0%);stroke-opacity:1;stroke-miterlimit:4;" d="M 242.696101 354.221516 L 242.696101 349.237271 C 242.696101 349.237271 231.478152 347.254437 226.004989 348.368083 C 222.759118 346.507479 219.703381 344.06289 215.819201 346.12721 C 215.072243 347.743355 222.92209 351.980643 225.529652 351.980643 C 228.585389 353.922733 242.696101 354.465975 242.696101 354.221516 Z M 242.696101 354.221516 " transform="matrix(0.287625,0,0,0.287625,52.674999,52.16)"/>
<path style="fill-rule:evenodd;fill:rgb(100%,100%,100%);fill-opacity:1;stroke-width:1.290125;stroke-linecap:round;stroke-linejoin:round;stroke:rgb(0%,0%,0%);stroke-opacity:1;stroke-miterlimit:4;" d="M 242.573871 362.315823 C 242.573871 362.315823 231.342342 358.200764 226.860595 362.940551 C 227.593972 367.96554 240.074958 370.396548 242.696101 369.024862 C 245.303662 367.666757 242.696101 362.560282 242.573871 362.315823 Z M 242.573871 362.315823 " transform="matrix(0.287625,0,0,0.287625,52.674999,52.16)"/>
<path style="fill-rule:evenodd;fill:rgb(100%,100%,100%);fill-opacity:1;stroke-width:1.290125;stroke-linecap:round;stroke-linejoin:round;stroke:rgb(0%,0%,0%);stroke-opacity:1;stroke-miterlimit:4;" d="M 261.492275 364.298656 L 261.492275 367.788986 C 261.492275 367.788986 274.923935 370.396548 277.287038 367.530946 C 279.65014 364.678926 266.59875 362.804741 261.492275 364.298656 Z M 261.492275 364.298656 " transform="matrix(0.287625,0,0,0.287625,52.674999,52.16)"/>
<path style="fill-rule:evenodd;fill:rgb(100%,100%,100%);fill-opacity:1;stroke-width:1.290125;stroke-linecap:round;stroke-linejoin:round;stroke:rgb(0%,0%,0%);stroke-opacity:1;stroke-miterlimit:4;" d="M 260.867547 350.418822 L 261.370046 354.357327 C 261.370046 354.357327 272.941101 356.964889 277.422848 350.622538 C 281.891014 344.266606 267.250641 350.663281 260.867547 350.418822 Z M 260.867547 350.418822 " transform="matrix(0.287625,0,0,0.287625,52.674999,52.16)"/>
<path style="fill-rule:evenodd;fill:rgb(100%,100%,100%);fill-opacity:1;stroke-width:1.290125;stroke-linecap:round;stroke-linejoin:round;stroke:rgb(0%,0%,0%);stroke-opacity:1;stroke-miterlimit:4;" d="M 261.492275 336.932838 L 261.492275 339.5404 C 261.492275 339.5404 270.197729 340.912086 272.194143 337.177297 C 274.176977 333.442508 261.736734 337.177297 261.492275 336.932838 Z M 261.492275 336.932838 " transform="matrix(0.287625,0,0,0.287625,52.674999,52.16)"/>
<path style="fill-rule:evenodd;fill:rgb(100%,100%,100%);fill-opacity:1;stroke-width:1.290125;stroke-linecap:round;stroke-linejoin:round;stroke:rgb(0%,0%,0%);stroke-opacity:1;stroke-miterlimit:4;" d="M 243.293667 328.892856 C 241.949143 326.977928 237.222937 322.238141 224.524654 320.880036 C 215.710552 320.852874 240.455227 333.84994 243.293667 328.892856 Z M 243.293667 328.892856 " transform="matrix(0.287625,0,0,0.287625,52.674999,52.16)"/>
<path style="fill-rule:evenodd;fill:rgb(100%,100%,100%);fill-opacity:1;stroke-width:1.290125;stroke-linecap:round;stroke-linejoin:round;stroke:rgb(0%,0%,0%);stroke-opacity:1;stroke-miterlimit:4;" d="M 261.234235 315.651332 C 261.234235 315.651332 260.745317 319.263891 260.867547 319.263891 C 260.989776 319.263891 290.732278 310.422627 297.699357 311.047355 C 303.919479 309.281819 305.168935 304.949463 304.910895 304.949463 C 299.600704 301.078864 273.932518 308.059524 261.234235 315.651332 Z M 261.234235 315.651332 " transform="matrix(0.287625,0,0,0.287625,52.674999,52.16)"/>
<path style="fill-rule:evenodd;fill:rgb(100%,100%,100%);fill-opacity:1;stroke-width:1.290125;stroke-linecap:round;stroke-linejoin:round;stroke:rgb(0%,0%,0%);stroke-opacity:1;stroke-miterlimit:4;" d="M 261.858964 305.071693 C 261.736734 305.696421 261.492275 308.548442 261.492275 308.548442 C 261.492275 308.548442 282.515742 304.446964 288.111135 300.467717 C 293.720109 296.488469 262.103422 305.193922 261.858964 305.071693 Z M 261.858964 305.071693 " transform="matrix(0.287625,0,0,0.287625,52.674999,52.16)"/>
<path style="fill-rule:evenodd;fill:rgb(100%,100%,100%);fill-opacity:1;stroke-width:1.290125;stroke-linecap:round;stroke-linejoin:round;stroke:rgb(0%,0%,0%);stroke-opacity:1;stroke-miterlimit:4;" d="M 260.989776 294.750094 L 260.989776 298.254005 C 260.989776 298.254005 275.032583 297.832993 277.911766 294.994553 C 279.758789 292.169694 265.539428 294.600702 260.989776 294.750094 Z M 260.989776 294.750094 " transform="matrix(0.287625,0,0,0.287625,52.674999,52.16)"/>
<path style="fill-rule:evenodd;fill:rgb(100%,100%,100%);fill-opacity:1;stroke-width:1.290125;stroke-linecap:round;stroke-linejoin:round;stroke:rgb(0%,0%,0%);stroke-opacity:1;stroke-miterlimit:4;" d="M 290.284103 324.207394 C 290.284103 324.207394 297.577128 325.225973 298.935233 323.107329 C 298.663612 319.358958 290.284103 324.329623 290.284103 324.207394 Z M 290.284103 324.207394 " transform="matrix(0.287625,0,0,0.287625,52.674999,52.16)"/>
<path style="fill-rule:evenodd;fill:rgb(100%,100%,100%);fill-opacity:1;stroke-width:1.290125;stroke-linecap:round;stroke-linejoin:round;stroke:rgb(0%,0%,0%);stroke-opacity:1;stroke-miterlimit:4;" d="M 261.614505 281.685123 C 261.478694 282.29627 261.736734 289.39916 261.736734 289.39916 C 261.736734 289.39916 295.458484 278.697292 297.563547 276.700877 C 299.682191 274.704463 304.381234 268.715219 261.614505 281.685123 Z M 261.614505 281.685123 " transform="matrix(0.287625,0,0,0.287625,52.674999,52.16)"/>
<path style="fill-rule:evenodd;fill:rgb(100%,100%,100%);fill-opacity:1;stroke-width:1.290125;stroke-linecap:round;stroke-linejoin:round;stroke:rgb(0%,0%,0%);stroke-opacity:1;stroke-miterlimit:4;" d="M 260.609507 270.983255 L 260.609507 276.578648 C 260.609507 276.578648 274.176977 275.587231 280.397098 270.480756 C 286.61722 265.374281 260.609507 271.105484 260.609507 270.983255 Z M 260.609507 270.983255 " transform="matrix(0.287625,0,0,0.287625,52.674999,52.16)"/>
<path style="fill-rule:evenodd;fill:rgb(100%,100%,100%);fill-opacity:1;stroke-width:1.290125;stroke-linecap:round;stroke-linejoin:round;stroke:rgb(0%,0%,0%);stroke-opacity:1;stroke-miterlimit:4;" d="M 244.312246 258.284972 L 245.181433 263.391447 C 245.181433 263.391447 200.513356 248.95479 200.635586 248.95479 C 200.757815 248.95479 198.381131 241.607441 244.312246 258.284972 Z M 244.312246 258.284972 " transform="matrix(0.287625,0,0,0.287625,52.674999,52.16)"/>
<path style="fill-rule:evenodd;fill:rgb(100%,100%,100%);fill-opacity:1;stroke-width:1.290125;stroke-linecap:round;stroke-linejoin:round;stroke:rgb(0%,0%,0%);stroke-opacity:1;stroke-miterlimit:4;" d="M 245.059203 240.371566 C 244.936974 240.874065 244.936974 245.220001 244.814745 245.097772 C 244.692515 244.975542 213.822786 232.15503 212.70914 233.282257 C 208.607663 223.680454 245.059203 240.616025 245.059203 240.371566 Z M 245.059203 240.371566 " transform="matrix(0.287625,0,0,0.287625,52.674999,52.16)"/>
<path style="fill-rule:evenodd;fill:rgb(100%,100%,100%);fill-opacity:1;stroke-width:1.290125;stroke-linecap:round;stroke-linejoin:round;stroke:rgb(0%,0%,0%);stroke-opacity:1;stroke-miterlimit:4;" d="M 260.120589 248.330062 C 260.120589 248.452291 260.623088 252.689579 260.623088 252.689579 C 260.623088 252.689579 279.527911 248.710331 280.655138 246.836146 C 281.768784 244.975542 260.120589 248.452291 260.120589 248.330062 Z M 260.120589 248.330062 " transform="matrix(0.287625,0,0,0.287625,52.674999,52.16)"/>
<path style="fill-rule:evenodd;fill:rgb(100%,100%,100%);fill-opacity:1;stroke-width:1.290125;stroke-linecap:round;stroke-linejoin:round;stroke:rgb(0%,0%,0%);stroke-opacity:1;stroke-miterlimit:4;" d="M 260.555183 258.407202 C 260.731736 259.480105 261.112006 262.888948 261.112006 262.888948 C 261.112006 262.888948 268.703813 262.26422 269.817459 260.525845 C 270.944687 258.787471 260.555183 258.529431 260.555183 258.407202 Z M 260.555183 258.407202 " transform="matrix(0.287625,0,0,0.287625,52.674999,52.16)"/>
<path style="fill-rule:evenodd;fill:rgb(100%,100%,100%);fill-opacity:1;stroke-width:1.290125;stroke-linecap:round;stroke-linejoin:round;stroke:rgb(0%,0%,0%);stroke-opacity:1;stroke-miterlimit:4;" d="M 259.373631 235.38732 C 259.373631 235.767589 259.495861 239.624608 259.495861 239.624608 C 259.495861 239.624608 280.274869 235.509549 282.515742 233.526716 C 284.756616 231.530302 258.993362 235.38732 259.373631 235.38732 Z M 259.373631 235.38732 " transform="matrix(0.287625,0,0,0.287625,52.674999,52.16)"/>
<path style="fill-rule:evenodd;fill:rgb(100%,100%,100%);fill-opacity:1;stroke-width:1.290125;stroke-linecap:round;stroke-linejoin:round;stroke:rgb(0%,0%,0%);stroke-opacity:1;stroke-miterlimit:4;" d="M 259.495861 223.938494 C 259.495861 224.182953 258.748903 228.175782 259.237821 228.175782 C 259.74032 228.175782 284.498576 223.938494 288.355594 220.461745 C 292.212613 216.971415 259.862549 224.318763 259.495861 223.938494 Z M 259.495861 223.938494 " transform="matrix(0.287625,0,0,0.287625,52.674999,52.16)"/>
<path style="fill-rule:evenodd;fill:rgb(100%,100%,100%);fill-opacity:1;stroke-width:1.290125;stroke-linecap:round;stroke-linejoin:round;stroke:rgb(0%,0%,0%);stroke-opacity:1;stroke-miterlimit:4;" d="M 259.115591 203.784214 L 259.115591 208.143732 C 259.115591 208.143732 275.168394 204.789212 278.156225 201.421111 C 281.144056 198.066592 259.115591 204.042254 259.115591 203.784214 Z M 259.115591 203.784214 " transform="matrix(0.287625,0,0,0.287625,52.674999,52.16)"/>
<path style="fill-rule:evenodd;fill:rgb(100%,100%,100%);fill-opacity:1;stroke-width:1.290125;stroke-linecap:round;stroke-linejoin:round;stroke:rgb(0%,0%,0%);stroke-opacity:1;stroke-miterlimit:4;" d="M 256.3858 174.421982 L 256.752488 181.008792 C 256.752488 181.008792 278.278454 178.034542 281.388515 174.421982 C 284.498576 170.809422 256.249989 174.421982 256.3858 174.421982 Z M 256.3858 174.421982 " transform="matrix(0.287625,0,0,0.287625,52.674999,52.16)"/>
<path style="fill-rule:evenodd;fill:rgb(100%,100%,100%);fill-opacity:1;stroke-width:1.290125;stroke-linecap:round;stroke-linejoin:round;stroke:rgb(0%,0%,0%);stroke-opacity:1;stroke-miterlimit:4;" d="M 246.43089 125.014118 L 246.43089 129.129177 C 246.43089 129.129177 236.23152 128.626678 238.716853 126.888303 C 241.202185 125.149929 246.43089 125.394388 246.43089 125.014118 Z M 246.43089 125.014118 " transform="matrix(0.287625,0,0,0.287625,52.674999,52.16)"/>
<path style="fill-rule:evenodd;fill:rgb(100%,100%,100%);fill-opacity:1;stroke-width:1.290125;stroke-linecap:round;stroke-linejoin:round;stroke:rgb(0%,0%,0%);stroke-opacity:1;stroke-miterlimit:4;" d="M 255.883301 130.500863 L 256.141341 136.096256 C 256.141341 136.096256 269.328542 134.86038 270.319958 132.741736 C 271.324956 130.623092 256.141341 130.500863 255.896882 130.500863 Z M 255.883301 130.500863 " transform="matrix(0.287625,0,0,0.287625,52.674999,52.16)"/>
<path style="fill-rule:evenodd;fill:rgb(100%,100%,100%);fill-opacity:1;stroke-width:1.290125;stroke-linecap:round;stroke-linejoin:round;stroke:rgb(0%,0%,0%);stroke-opacity:1;stroke-miterlimit:4;" d="M 255.136343 138.595169 C 255.136343 138.595169 255.394383 142.071918 255.638842 142.071918 C 255.883301 142.071918 260.867547 141.70523 261.981193 140.333544 C 263.10842 138.961858 255.638842 138.839628 255.136343 138.595169 Z M 255.136343 138.595169 " transform="matrix(0.287625,0,0,0.287625,52.674999,52.16)"/>
<path style="fill-rule:evenodd;fill:rgb(100%,100%,100%);fill-opacity:1;stroke-width:1.290125;stroke-linecap:round;stroke-linejoin:round;stroke:rgb(0%,0%,0%);stroke-opacity:1;stroke-miterlimit:4;" d="M 243.945557 154.512161 C 243.945557 154.87885 244.312246 159.863095 244.067787 159.740866 C 243.809747 159.605055 215.194472 151.402101 212.58691 151.52433 C 209.965768 151.646559 209.21881 144.923939 243.945557 154.512161 Z M 243.945557 154.512161 " transform="matrix(0.287625,0,0,0.287625,52.674999,52.16)"/>
<path style="fill-rule:evenodd;fill:rgb(100%,100%,100%);fill-opacity:1;stroke-width:1.290125;stroke-linecap:round;stroke-linejoin:round;stroke:rgb(0%,0%,0%);stroke-opacity:1;stroke-miterlimit:4;" d="M 246.295079 163.855924 C 246.295079 164.847341 246.919807 170.076046 245.928391 169.818006 C 244.936974 169.573547 226.521069 163.720114 228.381673 161.981739 C 230.242277 160.243365 246.295079 164.222613 246.295079 163.855924 Z M 246.295079 163.855924 " transform="matrix(0.287625,0,0,0.287625,52.674999,52.16)"/>
<path style="fill-rule:evenodd;fill:rgb(100%,100%,100%);fill-opacity:1;stroke-width:1.290125;stroke-linecap:round;stroke-linejoin:round;stroke:rgb(0%,0%,0%);stroke-opacity:1;stroke-miterlimit:4;" d="M 244.692515 203.159486 L 244.814745 207.885692 C 244.814745 207.885692 212.70914 198.188821 211.595494 196.572676 C 210.468266 194.94295 207.358206 187.364724 244.692515 203.159486 Z M 244.692515 203.159486 " transform="matrix(0.287625,0,0,0.287625,52.674999,52.16)"/>
<path style="fill-rule:evenodd;fill:rgb(100%,100%,100%);fill-opacity:1;stroke-width:1.290125;stroke-linecap:round;stroke-linejoin:round;stroke:rgb(0%,0%,0%);stroke-opacity:1;stroke-miterlimit:4;" d="M 245.928391 214.744122 C 245.928391 214.866352 246.186431 219.225869 246.05062 219.225869 C 245.928391 219.225869 202.387541 203.920025 202.387541 203.920025 C 202.387541 203.920025 198.897211 192.471199 245.928391 214.744122 Z M 245.928391 214.744122 " transform="matrix(0.287625,0,0,0.287625,52.674999,52.16)"/>
<path style="fill-rule:evenodd;fill:rgb(100%,100%,100%);fill-opacity:1;stroke-width:1.290125;stroke-linecap:butt;stroke-linejoin:round;stroke:rgb(0%,0%,0%);stroke-opacity:1;stroke-miterlimit:4;" d="M 194.171005 365.76541 C 194.171005 365.914801 194.021614 370.532359 194.021614 370.532359 C 194.021614 370.532359 185.533457 368.155675 182.85799 363.388726 C 187.760749 362.044202 194.320397 365.914801 194.171005 365.76541 Z M 194.171005 365.76541 " transform="matrix(0.287625,0,0,0.287625,52.674999,52.16)"/>
</g>
</svg>
