<?xml version="1.0" encoding="UTF-8"?>
<svg xmlns="http://www.w3.org/2000/svg" xmlns:xlink="http://www.w3.org/1999/xlink" width="40px" height="40px" viewBox="0 0 256 256" version="1.1">
<defs>
<clipPath id="clip1">
  <path d="M 0 170 L 255.992188 170 L 255.992188 255.992188 L 0 255.992188 Z M 0 170 "/>
</clipPath>
<clipPath id="clip2">
  <path d="M 0 0 L 255.992188 0 L 255.992188 86 L 0 86 Z M 0 0 "/>
</clipPath>
<clipPath id="clip3">
  <path d="M 0 85 L 255.992188 85 L 255.992188 171 L 0 171 Z M 0 85 "/>
</clipPath>
</defs>
<g id="surface1">
<g clip-path="url(#clip1)" clip-rule="nonzero">
<path style=" stroke:none;fill-rule:evenodd;fill:rgb(32.549021%,52.941179%,95.686275%);fill-opacity:1;" d="M -85 170.054688 L 341.046875 170.054688 L 341.046875 255.996094 L -85 255.996094 Z M -85 170.054688 "/>
</g>
<g clip-path="url(#clip2)" clip-rule="nonzero">
<path style=" stroke:none;fill-rule:evenodd;fill:rgb(32.549021%,52.941179%,95.686275%);fill-opacity:1;" d="M -85 0 L 341.046875 0 L 341.046875 85.941406 L -85 85.941406 Z M -85 0 "/>
</g>
<g clip-path="url(#clip3)" clip-rule="nonzero">
<path style=" stroke:none;fill-rule:evenodd;fill:rgb(100%,100%,100%);fill-opacity:1;" d="M -85 85.941406 L 341.046875 85.941406 L 341.046875 170.054688 L -85 170.054688 Z M -85 85.941406 "/>
</g>
<path style=" stroke:none;fill-rule:evenodd;fill:rgb(100%,82.352942%,0%);fill-opacity:1;" d="M 103.25 143.003906 L 127.816406 100.660156 L 152.382812 143.003906 Z M 103.25 143.003906 "/>
<path style=" stroke:none;fill-rule:evenodd;fill:rgb(0%,100%,100%);fill-opacity:1;" d="M 105.726562 141.863281 L 127.867188 103.492188 L 150.003906 141.863281 Z M 105.726562 141.863281 "/>
<path style="fill:none;stroke-width:1.25;stroke-linecap:butt;stroke-linejoin:miter;stroke:rgb(100%,82.352942%,0%);stroke-opacity:1;stroke-miterlimit:4;" d="M 462.739714 556.657255 L 461.551799 448.342752 " transform="matrix(0.124956,0,0,0.125034,70.314458,52.332648)"/>
<path style="fill:none;stroke-width:1.25;stroke-linecap:butt;stroke-linejoin:miter;stroke:rgb(100%,82.352942%,0%);stroke-opacity:1;stroke-miterlimit:4;" d="M 468.616766 563.717848 L 507.474088 509.576217 " transform="matrix(0.124956,0,0,0.125034,70.314458,52.332648)"/>
<path style="fill:none;stroke-width:1.25;stroke-linecap:butt;stroke-linejoin:miter;stroke:rgb(100%,82.352942%,0%);stroke-opacity:1;stroke-miterlimit:4;" d="M 474.52508 569.622504 L 536.921874 543.723247 " transform="matrix(0.124956,0,0,0.125034,70.314458,52.332648)"/>
<path style="fill:none;stroke-width:1.25;stroke-linecap:butt;stroke-linejoin:miter;stroke:rgb(100%,82.352942%,0%);stroke-opacity:1;stroke-miterlimit:4;" d="M 479.214218 577.870277 L 552.208463 580.213394 " transform="matrix(0.124956,0,0,0.125034,70.314458,52.332648)"/>
<path style="fill:none;stroke-width:1.25;stroke-linecap:butt;stroke-linejoin:miter;stroke:rgb(100%,82.352942%,0%);stroke-opacity:1;stroke-miterlimit:4;" d="M 474.52508 587.274018 L 516.883625 624.951344 " transform="matrix(0.124956,0,0,0.125034,70.314458,52.332645)"/>
<path style="fill:none;stroke-width:1.25;stroke-linecap:butt;stroke-linejoin:miter;stroke:rgb(100%,82.352942%,0%);stroke-opacity:1;stroke-miterlimit:4;" d="M 462.739714 583.743691 L 462.739714 617.89072 " transform="matrix(0.124956,0,0,0.125034,70.314458,52.332648)"/>
<path style="fill:none;stroke-width:1.25;stroke-linecap:butt;stroke-linejoin:miter;stroke:rgb(100%,82.352942%,0%);stroke-opacity:1;stroke-miterlimit:4;" d="M 449.766432 575.495918 L 394.434606 623.764134 " transform="matrix(0.124956,0,0,0.125034,70.314458,52.332648)"/>
<path style="fill:none;stroke-width:1.25;stroke-linecap:butt;stroke-linejoin:miter;stroke:rgb(100%,82.352942%,0%);stroke-opacity:1;stroke-miterlimit:4;" d="M 455.674746 579.026214 L 430.947359 624.951314 " transform="matrix(0.124956,0,0,0.125034,70.314458,52.332648)"/>
<path style="fill:none;stroke-width:1.25;stroke-linecap:butt;stroke-linejoin:miter;stroke:rgb(100%,82.352942%,0%);stroke-opacity:1;stroke-miterlimit:4;" d="M 446.265209 569.622504 L 354.42063 601.395174 " transform="matrix(0.124956,0,0,0.125034,70.314458,52.332648)"/>
<path style="fill:none;stroke-width:1.25;stroke-linecap:butt;stroke-linejoin:miter;stroke:rgb(100%,82.352942%,0%);stroke-opacity:1;stroke-miterlimit:4;" d="M 445.077294 564.905027 L 380.304671 562.530669 " transform="matrix(0.124956,0,0,0.125034,70.314458,52.332648)"/>
<path style="fill:none;stroke-width:1.25;stroke-linecap:butt;stroke-linejoin:miter;stroke:rgb(100%,82.352942%,0%);stroke-opacity:1;stroke-miterlimit:4;" d="M 393.246691 537.818591 L 449.766432 556.657255 " transform="matrix(0.124956,0,0,0.125034,70.314458,52.332648)"/>
<path style="fill:none;stroke-width:1.25;stroke-linecap:butt;stroke-linejoin:miter;stroke:rgb(100%,82.352942%,0%);stroke-opacity:1;stroke-miterlimit:4;" d="M 420.349908 489.550375 L 454.486831 555.501317 " transform="matrix(0.124956,0,0,0.125034,70.314458,52.332648)"/>
<path style=" stroke:none;fill-rule:evenodd;fill:rgb(76.862746%,32.549021%,84.313726%);fill-opacity:1;" d="M 127.875 119.628906 C 123.445312 119.628906 120.21875 120.441406 117.496094 121.398438 L 119.570312 117.800781 L 120.265625 116.601562 L 120.957031 115.402344 L 121.648438 114.207031 L 122.414062 112.984375 C 123.445312 112.078125 125.660156 111.652344 127.871094 111.652344 C 130.085938 111.652344 132.300781 112.101562 133.410156 113.003906 L 134.101562 114.207031 L 134.792969 115.402344 L 138.25 121.398438 C 135.378906 120.441406 132.300781 119.628906 127.875 119.628906 Z M 127.875 119.628906 "/>
<path style=" stroke:none;fill-rule:evenodd;fill:rgb(31.37255%,0%,75.686276%);fill-opacity:1;" d="M 127.875 118.785156 C 123.433594 118.777344 118.46875 120.109375 118.191406 120.199219 L 119.574219 117.800781 L 120.265625 116.605469 L 120.957031 115.402344 L 121.648438 114.207031 L 122.414062 112.984375 C 123.445312 112.078125 125.660156 111.652344 127.875 111.652344 C 130.089844 111.652344 132.300781 112.101562 133.410156 113.007812 L 134.101562 114.207031 L 134.792969 115.402344 L 135.484375 116.605469 L 136.175781 117.800781 L 136.867188 119 L 137.5625 120.199219 C 137.5625 120.199219 132.300781 118.785156 127.875 118.785156 Z M 127.875 118.785156 "/>
<path style=" stroke:none;fill-rule:evenodd;fill:rgb(0%,32.549021%,84.313726%);fill-opacity:1;" d="M 127.875 117.824219 C 124.59375 117.8125 119.289062 118.71875 118.917969 118.890625 L 119.570312 117.800781 L 120.265625 116.601562 L 120.953125 115.402344 L 121.648438 114.203125 L 122.414062 112.984375 C 123.445312 112.074219 125.660156 111.652344 127.871094 111.652344 C 130.085938 111.652344 132.300781 112.101562 133.40625 113.003906 L 134.101562 114.203125 L 136.867188 119 C 136.867188 119 132.300781 117.824219 127.875 117.824219 Z M 127.875 117.824219 "/>
<path style=" stroke:none;fill-rule:evenodd;fill:rgb(0%,62.352943%,62.352943%);fill-opacity:1;" d="M 127.871094 116.832031 C 123.523438 116.824219 119.910156 117.660156 119.570312 117.800781 L 121.644531 114.203125 L 122.410156 112.984375 C 123.445312 112.074219 125.65625 111.652344 127.871094 111.652344 C 130.085938 111.652344 132.300781 112.097656 133.40625 113.003906 L 135.480469 116.601562 L 136.175781 117.800781 C 136.175781 117.800781 132.296875 116.832031 127.871094 116.832031 Z M 127.871094 116.832031 "/>
<path style=" stroke:none;fill-rule:evenodd;fill:rgb(100%,100%,0%);fill-opacity:1;" d="M 127.875 115.984375 C 123.425781 115.96875 120.628906 116.542969 120.265625 116.601562 L 120.953125 115.402344 L 121.648438 114.203125 L 122.414062 112.984375 C 123.445312 112.074219 125.660156 111.652344 127.871094 111.652344 C 130.085938 111.652344 132.300781 112.101562 133.40625 113.003906 L 134.101562 114.203125 L 135.484375 116.601562 C 135.484375 116.601562 132.300781 115.984375 127.875 115.984375 Z M 127.875 115.984375 "/>
<path style=" stroke:none;fill-rule:evenodd;fill:rgb(100%,33.333334%,0%);fill-opacity:1;" d="M 127.835938 114.878906 C 123.960938 114.796875 121.113281 115.410156 120.953125 115.402344 L 121.644531 114.203125 L 122.410156 112.980469 C 123.445312 112.074219 125.660156 111.652344 127.871094 111.652344 C 130.085938 111.652344 132.300781 112.097656 133.40625 113.003906 L 134.789062 115.402344 C 134.789062 115.402344 132.261719 114.878906 127.835938 114.878906 Z M 127.835938 114.878906 "/>
<path style=" stroke:none;fill-rule:evenodd;fill:rgb(100%,4.313726%,0%);fill-opacity:1;" d="M 127.980469 113.59375 C 124.089844 113.625 122.074219 114.136719 121.644531 114.207031 L 122.410156 112.984375 C 123.441406 112.078125 125.65625 111.652344 127.867188 111.652344 C 130.082031 111.652344 132.296875 112.101562 133.402344 113.007812 L 134.097656 114.207031 C 134.097656 114.207031 132.40625 113.59375 127.980469 113.59375 Z M 127.980469 113.59375 "/>
<path style=" stroke:none;fill-rule:evenodd;fill:rgb(26.274511%,38.82353%,100%);fill-opacity:1;" d="M 105.726562 141.863281 L 111.953125 131.070312 L 143.777344 131.070312 L 150.003906 141.863281 Z M 105.726562 141.863281 "/>
<path style="fill-rule:evenodd;fill:rgb(42.745098%,65.490198%,0%);fill-opacity:1;stroke-width:1.25;stroke-linecap:butt;stroke-linejoin:miter;stroke:rgb(0%,0%,0%);stroke-opacity:1;stroke-miterlimit:4;" d="M 334.69309 674.392577 C 334.69309 674.392577 363.008671 669.393927 381.303899 654.397976 C 399.63145 639.402026 399.63145 614.440016 407.97097 614.440016 C 416.278167 614.440016 417.959001 642.744873 437.935062 652.742174 C 457.911123 662.739474 489.556047 676.04838 489.556047 676.04838 Z M 334.69309 674.392577 " transform="matrix(0.120848,0,0,0.125034,86.994491,51.603947)"/>
<path style=" stroke:none;fill-rule:evenodd;fill:rgb(100%,74.117649%,0%);fill-opacity:1;" d="M 141.125 134.464844 C 135.691406 131.96875 138.910156 133.21875 137.300781 132.175781 C 136.496094 130.09375 135.289062 128.429688 136.296875 128.429688 C 137.300781 128.429688 137.503906 131.96875 139.917969 133.21875 C 142.332031 134.464844 143.339844 134.777344 143.339844 134.777344 Z M 141.125 134.464844 "/>
<path style="fill-rule:evenodd;fill:rgb(42.745098%,65.490198%,0%);fill-opacity:1;stroke-width:1.25;stroke-linecap:butt;stroke-linejoin:miter;stroke:rgb(0%,0%,0%);stroke-opacity:1;stroke-miterlimit:4;" d="M 334.699896 674.392577 C 334.699896 674.392577 362.983154 669.393927 381.310705 654.397976 C 399.638256 639.402026 399.638256 614.440016 407.945453 614.440016 C 416.284973 614.440016 417.933483 642.744873 437.941868 652.742174 C 457.917929 662.739474 489.562854 676.04838 489.562854 676.04838 Z M 334.699896 674.392577 " transform="matrix(0.120848,0,0,0.125034,82.466325,51.603947)"/>
<path style=" stroke:none;fill-rule:evenodd;fill:rgb(100%,74.117649%,0%);fill-opacity:1;" d="M 136.597656 134.464844 C 131.164062 131.96875 134.382812 133.21875 132.773438 132.175781 C 131.96875 130.09375 130.761719 128.429688 131.765625 128.429688 C 132.773438 128.429688 132.972656 131.96875 135.390625 133.21875 C 137.804688 134.464844 138.808594 134.777344 138.808594 134.777344 Z M 136.597656 134.464844 "/>
<path style="fill-rule:evenodd;fill:rgb(42.745098%,65.490198%,0%);fill-opacity:1;stroke-width:1.25;stroke-linecap:butt;stroke-linejoin:miter;stroke:rgb(0%,0%,0%);stroke-opacity:1;stroke-miterlimit:4;" d="M 334.6977 674.392647 C 334.6977 674.392647 362.980957 669.393997 381.308508 654.398046 C 399.636059 639.402096 399.636059 614.440086 407.943256 614.440086 C 416.282777 614.440086 417.931287 642.744943 437.939671 652.742244 C 457.915732 662.739544 489.560657 676.04845 489.560657 676.04845 Z M 334.6977 674.392647 " transform="matrix(0.120848,0,0,0.125034,77.939247,51.603938)"/>
<path style=" stroke:none;fill-rule:evenodd;fill:rgb(100%,74.117649%,0%);fill-opacity:1;" d="M 132.070312 134.464844 C 126.636719 131.96875 129.855469 133.21875 128.246094 132.175781 C 127.441406 130.09375 126.234375 128.429688 127.238281 128.429688 C 128.246094 128.429688 128.445312 131.96875 130.863281 133.21875 C 133.277344 134.464844 134.28125 134.777344 134.28125 134.777344 Z M 132.070312 134.464844 "/>
<path style="fill-rule:evenodd;fill:rgb(42.745098%,65.490198%,0%);fill-opacity:1;stroke-width:1.25;stroke-linecap:butt;stroke-linejoin:miter;stroke:rgb(0%,0%,0%);stroke-opacity:1;stroke-miterlimit:4;" d="M 334.685326 674.381646 C 334.685326 674.381646 363.000907 669.382996 381.328458 654.387045 C 399.623686 639.422335 399.623686 614.429084 407.963206 614.429084 C 416.270403 614.429084 417.951237 642.733941 437.927298 652.731242 C 457.903358 662.728542 489.548283 676.037449 489.548283 676.037449 Z M 334.685326 674.381646 " transform="matrix(0.120848,0,0,0.125034,72.807929,51.499845)"/>
<path style=" stroke:none;fill-rule:evenodd;fill:rgb(100%,74.117649%,0%);fill-opacity:1;" d="M 126.9375 134.363281 C 121.503906 131.863281 124.722656 133.113281 123.113281 132.070312 C 122.308594 129.988281 121.101562 128.324219 122.109375 128.324219 C 123.113281 128.324219 123.316406 131.863281 125.730469 133.113281 C 128.144531 134.363281 129.152344 134.675781 129.152344 134.675781 Z M 126.9375 134.363281 "/>
<path style="fill-rule:evenodd;fill:rgb(42.745098%,65.490198%,0%);fill-opacity:1;stroke-width:1.25;stroke-linecap:butt;stroke-linejoin:miter;stroke:rgb(0%,0%,0%);stroke-opacity:1;stroke-miterlimit:4;" d="M 334.678401 674.381615 C 334.678401 674.381615 362.993983 669.382965 381.321534 654.387014 C 399.616761 639.422305 399.616761 614.429054 407.956282 614.429054 C 416.295802 614.429054 417.944312 642.733911 437.920373 652.731211 C 457.896434 662.728512 489.541359 676.037418 489.541359 676.037418 Z M 334.678401 674.381615 " transform="matrix(0.120848,0,0,0.125034,68.984548,51.499848)"/>
<path style=" stroke:none;fill-rule:evenodd;fill:rgb(100%,74.117649%,0%);fill-opacity:1;" d="M 123.113281 134.363281 C 117.679688 131.863281 120.902344 133.113281 119.292969 132.070312 C 118.488281 129.988281 117.277344 128.324219 118.285156 128.324219 C 119.292969 128.324219 119.492188 131.863281 121.90625 133.113281 C 124.320312 134.363281 125.328125 134.675781 125.328125 134.675781 Z M 123.113281 134.363281 "/>
<path style="fill-rule:evenodd;fill:rgb(100%,0%,0%);fill-opacity:1;stroke-width:1.25;stroke-linecap:butt;stroke-linejoin:miter;stroke:rgb(0%,0%,0%);stroke-opacity:1;stroke-miterlimit:4;" d="M 437.992265 565.51854 C 438.410682 565.51854 438.736118 563.605071 439.758917 561.930786 C 441.990478 560.376093 444.361512 559.060583 447.429909 558.402828 C 449.10358 557.565685 452.497413 557.864665 455.100901 557.864665 C 458.680697 558.163644 458.913151 559.718338 460.958749 561.930786 C 461.888566 563.784459 464.027146 566.355683 465.096435 569.046498 C 466.258707 570.421804 467.188524 572.634252 468.025359 574.308538 C 468.908686 576.102415 469.792012 578.853026 471.000774 581.364454 C 471.605155 584.234657 472.163046 586.38731 472.163046 589.616288 C 472.163046 592.964859 471.605155 594.39996 471.000774 596.672205 C 469.187631 597.270164 465.700816 597.569143 463.934164 596.672205 C 462.028039 594.997919 458.773678 596.074246 457.425444 594.340164 C 454.031611 593.861797 453.241266 589.855472 451.567595 587.882207 C 450.358833 586.148126 450.405324 584.832616 449.196562 583.158331 C 447.336927 581.842821 447.104473 580.228332 446.267637 577.836496 C 446.965 575.325068 448.266744 574.786905 450.358833 573.710579 C 451.521105 572.096089 452.125486 571.438334 452.125486 568.448539 C 451.707068 565.099969 450.498306 565.458744 447.429909 564.920581 C 443.617659 564.920581 441.665042 565.279357 437.992265 565.51854 Z M 437.992265 565.51854 " transform="matrix(0.0840219,0,0,0.0653264,89.788904,85.931718)"/>
<path style="fill:none;stroke-width:1.25;stroke-linecap:butt;stroke-linejoin:miter;stroke:rgb(0%,100%,100%);stroke-opacity:1;stroke-miterlimit:4;" d="M 314.373186 690.882591 L 315.552492 690.882591 C 312.386987 690.882591 314.000774 690.817067 320.269716 692.062012 C 325.70073 692.717246 330.821401 693.241434 336.748965 693.241434 " transform="matrix(0.125869,0,0,0.178848,68.856092,14.011055)"/>
<path style="fill:none;stroke-width:1.25;stroke-linecap:butt;stroke-linejoin:miter;stroke:rgb(0%,100%,100%);stroke-opacity:1;stroke-miterlimit:4;" d="M 308.476657 708.552072 L 308.476657 707.37265 C 308.476657 711.063802 308.197347 708.792324 314.373186 703.834386 C 319.649029 702.917058 322.131778 704.773555 328.493823 705.013807 C 331.907604 706.717416 338.021374 706.149546 341.466189 705.013807 C 343.204114 704.271208 343.235148 703.419404 345.004107 702.654964 " transform="matrix(0.125869,0,0,0.178848,68.856092,14.011055)"/>
<path style="fill:none;stroke-width:1.25;stroke-linecap:butt;stroke-linejoin:miter;stroke:rgb(0%,100%,100%);stroke-opacity:1;stroke-miterlimit:4;" d="M 321.449022 710.910914 L 321.449022 709.731493 C 322.224881 710.037269 326.69383 709.731493 329.673129 709.731493 C 335.848969 709.731493 340.597227 709.425717 343.824801 712.090336 L 346.152378 712.090336 " transform="matrix(0.125869,0,0,0.178848,68.856092,14.011055)"/>
<path style="fill:none;stroke-width:1.25;stroke-linecap:butt;stroke-linejoin:miter;stroke:rgb(0%,100%,100%);stroke-opacity:1;stroke-miterlimit:4;" d="M 366.169545 686.186746 L 372.066075 686.186746 C 375.821234 684.91996 381.283282 684.941801 385.007406 686.186746 C 386.497056 691.05732 388.421187 691.952807 394.441854 692.062012 C 396.428054 690.576815 400.493556 689.550281 402.665961 688.545589 " transform="matrix(0.125869,0,0,0.178848,68.856092,14.011055)"/>
<path style="fill:none;stroke-width:1.25;stroke-linecap:butt;stroke-linejoin:miter;stroke:rgb(0%,100%,100%);stroke-opacity:1;stroke-miterlimit:4;" d="M 369.707463 694.420855 L 386.186712 694.420855 " transform="matrix(0.125869,0,0,0.178848,68.856092,14.011055)"/>
<path style="fill:none;stroke-width:1.25;stroke-linecap:butt;stroke-linejoin:miter;stroke:rgb(0%,100%,100%);stroke-opacity:1;stroke-miterlimit:4;" d="M 380.321217 705.013807 L 380.321217 703.834386 C 380.321217 707.525538 380.010873 705.275901 386.186712 700.317962 C 390.872902 698.002802 393.355651 696.714175 400.338384 697.95912 C 405.334917 700.623738 407.103876 702.1963 413.279715 702.654964 C 418.865901 702.654964 421.348651 701.759478 426.221046 701.497384 " transform="matrix(0.125869,0,0,0.178848,68.856092,14.011055)"/>
<path style="fill:none;stroke-width:1.25;stroke-linecap:butt;stroke-linejoin:miter;stroke:rgb(0%,100%,100%);stroke-opacity:1;stroke-miterlimit:4;" d="M 395.62116 710.910914 L 396.800466 710.910914 C 393.510823 710.910914 395.248748 711.063802 401.51769 708.552072 C 407.352151 710.015428 411.32455 712.002971 417.996939 712.090336 C 421.814166 711.893766 424.576225 710.910914 428.579658 710.910914 " transform="matrix(0.125869,0,0,0.178848,68.856092,14.011055)"/>
<path style="fill:none;stroke-width:1.25;stroke-linecap:butt;stroke-linejoin:miter;stroke:rgb(0%,100%,100%);stroke-opacity:1;stroke-miterlimit:4;" d="M 438.014106 686.186746 L 443.910636 686.186746 C 449.651994 686.186746 455.269214 686.077541 460.389885 687.366168 L 476.869134 687.366168 C 478.420852 687.366168 478.04844 687.759308 478.04844 686.186746 " transform="matrix(0.125869,0,0,0.178848,68.856092,14.011055)"/>
<path style="fill:none;stroke-width:1.25;stroke-linecap:butt;stroke-linejoin:miter;stroke:rgb(0%,100%,100%);stroke-opacity:1;stroke-miterlimit:4;" d="M 433.296882 695.600277 L 434.476188 695.600277 C 431.186545 695.600277 432.92447 695.753165 439.193412 693.241434 C 444.127876 693.634574 449.714062 694.333491 453.314049 696.779698 C 458.496788 699.051176 460.545057 700.995038 467.434686 701.497384 C 471.376051 701.278973 471.65536 699.728252 475.689828 699.138541 " transform="matrix(0.125869,0,0,0.178848,68.856092,14.011055)"/>
<path style="fill:none;stroke-width:1.25;stroke-linecap:butt;stroke-linejoin:miter;stroke:rgb(0%,100%,100%);stroke-opacity:1;stroke-miterlimit:4;" d="M 450.955437 707.37265 C 452.817499 706.455322 458.993338 704.096479 463.896768 706.193229 C 469.017439 707.460015 474.634659 707.37265 480.407052 707.37265 C 484.069107 705.800088 490.275981 704.467779 493.348383 702.654964 L 496.886301 702.654964 " transform="matrix(0.125869,0,0,0.178848,68.856092,14.011055)"/>
<path style="fill:none;stroke-width:1.25;stroke-linecap:butt;stroke-linejoin:miter;stroke:rgb(0%,100%,100%);stroke-opacity:1;stroke-miterlimit:4;" d="M 500.424219 692.062012 C 502.782831 692.062012 512.869 691.515984 518.082774 693.241434 C 524.444819 692.476994 526.679293 689.375552 531.024105 686.186746 C 535.368916 686.186746 539.030972 686.295952 542.78613 687.366168 " transform="matrix(0.125869,0,0,0.178848,68.856092,14.011055)"/>
<path style="fill:none;stroke-width:1.25;stroke-linecap:butt;stroke-linejoin:miter;stroke:rgb(0%,100%,100%);stroke-opacity:1;stroke-miterlimit:4;" d="M 522.768963 706.193229 C 522.862066 706.193229 527.486187 705.275901 531.024105 705.013807 C 536.330982 701.03872 537.262013 705.101172 542.78613 706.193229 C 548.961969 704.817237 552.034372 701.781319 554.57919 697.95912 " transform="matrix(0.125869,0,0,0.178848,68.856092,14.011055)"/>
<path style="fill:none;stroke-width:1.25;stroke-linecap:butt;stroke-linejoin:miter;stroke:rgb(0%,100%,100%);stroke-opacity:1;stroke-miterlimit:4;" d="M 535.741329 697.95912 L 536.920635 697.95912 C 533.444786 697.95912 535.399951 698.15569 541.606824 694.420855 C 545.765429 692.345947 546.261979 690.249198 552.220578 689.703169 C 555.510221 687.235121 557.961936 689.397393 560.444685 690.882591 " transform="matrix(0.125869,0,0,0.178848,68.856092,14.011055)"/>
<path style="fill:none;stroke-width:1.25;stroke-linecap:butt;stroke-linejoin:miter;stroke:rgb(0%,100%,100%);stroke-opacity:1;stroke-miterlimit:4;" d="M 560.444685 707.37265 C 560.661926 706.433481 562.803297 701.344496 563.982603 699.138541 C 569.227411 697.019951 571.741195 696.080782 575.775663 701.475543 C 580.027371 702.654964 584.030804 704.970125 588.716994 706.193229 C 590.454918 706.193229 589.61699 706.477163 591.075606 705.013807 " transform="matrix(0.125869,0,0,0.178848,68.856092,14.011055)"/>
<path style="fill:none;stroke-width:1.25;stroke-linecap:butt;stroke-linejoin:miter;stroke:rgb(0%,100%,100%);stroke-opacity:1;stroke-miterlimit:4;" d="M 576.954969 690.882591 L 576.954969 689.703169 C 576.954969 693.394322 576.706694 691.188367 581.641158 685.007325 C 587.103207 686.012017 588.530788 689.310029 591.075606 693.241434 C 596.910067 693.241434 600.758328 693.110387 604.016937 690.882591 " transform="matrix(0.125869,0,0,0.178848,68.856092,14.011055)"/>
<path style="fill:none;stroke-width:1.25;stroke-linecap:butt;stroke-linejoin:miter;stroke:rgb(0%,100%,100%);stroke-opacity:1;stroke-miterlimit:4;" d="M 605.196243 703.834386 C 605.910033 702.786011 610.627257 695.119772 614.630691 699.138541 C 619.844464 700.558215 620.651358 702.938899 626.392716 705.013807 C 627.385816 703.266516 628.503053 702.917058 631.10994 702.654964 " transform="matrix(0.125869,0,0,0.178848,68.856092,14.011055)"/>
<path style="fill:none;stroke-width:1.25;stroke-linecap:butt;stroke-linejoin:miter;stroke:rgb(0%,100%,100%);stroke-opacity:1;stroke-miterlimit:4;" d="M 501.603525 708.552072 L 502.782831 708.552072 C 499.462153 708.552072 501.231112 708.704959 507.46902 706.193229 C 512.37245 703.375722 514.793131 702.218142 518.082774 697.95912 C 523.544822 698.15569 527.734462 699.138541 533.382717 699.138541 C 533.382717 697.565979 532.97927 697.95912 534.562023 697.95912 " transform="matrix(0.125869,0,0,0.178848,68.856092,14.011055)"/>
<path style="fill:none;stroke-width:1.25;stroke-linecap:butt;stroke-linejoin:miter;stroke:rgb(0%,100%,100%);stroke-opacity:1;stroke-miterlimit:4;" d="M 350.869602 694.420855 C 350.869602 693.612733 354.097177 692.324106 357.945438 690.882591 C 360.738531 688.785842 363.066109 690.751544 367.348851 690.882591 " transform="matrix(0.125869,0,0,0.178848,68.856092,14.011055)"/>
<path style="fill:none;stroke-width:1.25;stroke-linecap:butt;stroke-linejoin:miter;stroke:rgb(0%,100%,100%);stroke-opacity:1;stroke-miterlimit:4;" d="M 356.766132 705.013807 L 357.945438 705.013807 C 354.655795 705.013807 356.39372 705.166695 362.631628 702.654964 C 367.162645 703.288357 369.179879 705.537994 374.424687 706.193229 " transform="matrix(0.125869,0,0,0.178848,68.856092,14.011055)"/>
<path style="fill-rule:nonzero;fill:rgb(100%,82.352942%,0%);fill-opacity:1;stroke-width:1.25;stroke-linecap:butt;stroke-linejoin:miter;stroke:rgb(0%,0%,0%);stroke-opacity:1;stroke-miterlimit:4;" d="M 749.405889 355.126958 C 749.433127 366.850783 754.141411 372.217157 765.795994 372.222364 C 768.482923 372.211581 771.940031 371.500923 773.987532 370.562206 C 781.21357 367.103807 781.875229 361.465812 781.855951 354.243975 L 781.852835 334.078312 C 781.855213 332.233659 782.822535 330.155053 787.884504 330.169633 L 787.896666 328.950121 L 773.024114 328.964007 L 773.04319 330.18303 C 778.10467 330.166353 779.042845 332.21514 779.040467 334.059793 L 779.043584 354.225456 C 779.045252 360.322041 778.998698 369.326994 767.031738 369.326676 C 759.03294 369.326789 755.943211 365.56085 755.943365 355.587418 L 755.950453 334.077214 C 755.952831 332.232562 756.920643 330.185213 761.576033 330.174891 L 761.588194 328.955378 L 743.778324 328.952701 L 743.7974 330.171724 C 748.45279 330.161402 749.422203 332.2097 749.420314 334.08561 Z M 749.405889 355.126958 " transform="matrix(-0.00195519,0.125019,-0.124941,-0.0019564,207.147773,32.028421)"/>
<path style="fill-rule:nonzero;fill:rgb(100%,82.352942%,0%);fill-opacity:1;stroke-width:1.25;stroke-linecap:butt;stroke-linejoin:miter;stroke:rgb(0%,0%,0%);stroke-opacity:1;stroke-miterlimit:4;" d="M 735.972233 328.038346 L 734.64199 328.047495 C 733.030046 332.7919 728.031486 328.036424 720.244992 328.059137 C 707.496605 328.049162 698.294018 337.532836 698.28652 350.257861 C 698.289326 365.295511 710.123381 372.219029 721.007202 372.216129 C 726.261543 372.200551 733.420718 369.766669 737.140817 367.669936 L 737.121272 355.510424 C 737.132933 351.8717 737.463257 349.803419 741.618101 349.73887 L 741.620344 348.536253 L 725.297078 348.525167 L 725.289904 349.758655 C 730.605946 349.752931 730.933348 351.862943 730.921687 355.501666 L 730.918529 365.03 C 730.936154 366.900593 730.938693 367.280886 729.054554 368.182947 C 726.898957 369.19994 724.210159 369.593603 721.83719 369.594504 C 711.081702 369.586242 705.649223 360.614363 705.639982 350.767476 C 705.657635 339.563623 710.251356 330.61016 720.88344 330.598713 C 728.444118 330.603249 732.642951 334.819457 735.071481 341.602085 L 736.555978 341.617572 Z M 735.972233 328.038346 " transform="matrix(0.0197069,0.123468,-0.123392,0.0197191,190.133721,25.494158)"/>
<path style="fill-rule:nonzero;fill:rgb(100%,82.352942%,0%);fill-opacity:1;stroke-width:1.25;stroke-linecap:butt;stroke-linejoin:miter;stroke:rgb(0%,0%,0%);stroke-opacity:1;stroke-miterlimit:4;" d="M 558.203806 328.118607 L 556.851279 328.108242 C 554.717588 333.308247 551.55321 328.054642 542.765838 328.065284 C 529.89689 328.064865 520.883079 337.462347 520.886743 350.197824 C 520.863169 364.217685 530.415642 372.196301 542.884441 372.205207 C 549.030802 372.201764 555.619421 369.020918 559.538029 364.202856 L 558.432837 362.927846 C 554.021773 367.302382 549.733348 369.33613 543.474951 369.351712 C 532.958902 369.340441 528.307296 359.67143 528.317907 350.708967 C 528.314978 339.193822 532.855603 330.681998 543.395649 330.673234 C 550.694462 330.684401 555.387149 335.476029 557.236098 342.519716 L 558.768677 342.501855 Z M 558.203806 328.118607 " transform="matrix(0.0959215,0.0801316,-0.080082,0.0959809,124.736569,24.226316)"/>
<path style="fill-rule:nonzero;fill:rgb(100%,82.352942%,0%);fill-opacity:1;stroke-width:1.25;stroke-linecap:butt;stroke-linejoin:miter;stroke:rgb(0%,0%,0%);stroke-opacity:1;stroke-miterlimit:4;" d="M 511.396217 334.067786 C 511.403737 332.221928 512.374495 330.176676 517.670782 330.167244 L 517.672032 328.951307 L 498.611384 328.944685 L 498.610133 330.160622 C 503.921653 330.178453 504.885795 332.224684 504.878275 334.070543 L 504.888603 366.210363 C 504.881083 368.056222 503.910325 370.101473 498.614038 370.110906 L 498.612787 371.326842 L 517.673436 371.333465 L 517.674686 370.117528 C 512.363166 370.099696 511.399025 368.053465 511.406545 366.207606 Z M 511.396217 334.067786 " transform="matrix(0.109048,0.066568,-0.0609262,0.106082,111.016361,27.796028)"/>
<path style="fill-rule:nonzero;fill:rgb(100%,82.352942%,0%);fill-opacity:1;stroke-width:1.25;stroke-linecap:butt;stroke-linejoin:miter;stroke:rgb(0%,0%,0%);stroke-opacity:1;stroke-miterlimit:4;" d="M 490.430094 334.08033 C 490.426056 332.217692 491.387912 330.151804 496.612837 330.15547 L 496.620744 328.965744 L 481.381132 328.941032 L 481.385347 330.159552 C 486.651205 330.179883 487.610419 332.216651 487.614456 334.079289 L 487.599832 359.74552 L 462.972589 328.962322 L 452.017833 328.964169 L 452.009926 330.153895 C 455.1576 330.218534 455.736643 330.788292 457.704089 333.044649 L 458.208819 333.679589 L 458.234765 366.209843 C 458.226681 368.043687 457.264824 370.109575 452.011088 370.118039 L 452.015303 371.336559 L 467.242793 371.332476 L 467.26739 370.101827 C 462.013654 370.11029 461.042318 368.044728 461.050402 366.210884 L 461.047816 336.95881 L 489.458339 372.216857 L 490.410529 372.222759 Z M 490.430094 334.08033 " transform="matrix(0.115167,0.0485143,-0.0484843,0.115239,103.536476,33.348777)"/>
<path style="fill-rule:nonzero;fill:rgb(100%,82.352942%,0%);fill-opacity:1;stroke-width:1.25;stroke-linecap:butt;stroke-linejoin:miter;stroke:rgb(0%,0%,0%);stroke-opacity:1;stroke-miterlimit:4;" d="M 431.462984 371.308502 L 434.361194 360.495695 L 432.543762 360.494224 C 429.182284 368.645588 424.297753 368.696445 419.190656 368.699833 L 410.729394 368.68116 C 409.446415 368.705915 409.072309 367.353584 409.056138 366.196071 L 409.079911 350.443561 L 418.104691 350.455167 C 422.396638 350.44467 426.020729 351.669589 426.017321 356.680045 L 427.362678 356.651042 L 427.377146 341.682013 L 426.029667 341.679847 C 426.026259 346.690303 422.376378 347.846997 418.082309 347.826324 L 409.059651 347.845887 L 409.061225 334.067664 C 409.07771 332.469533 410.301248 331.572037 411.900359 331.588378 L 422.17693 331.577354 C 426.658131 331.585281 428.777175 334.634972 429.482771 338.094071 L 430.892628 338.091988 L 430.896507 328.948066 L 396.899761 328.946333 L 396.920177 330.166184 C 401.588511 330.161366 402.543773 332.225649 402.544271 334.073135 L 402.539185 366.201542 C 402.539682 368.049028 401.583948 370.118212 396.913492 370.09186 L 396.90272 371.313836 Z M 431.462984 371.308502 " transform="matrix(0.124668,0.00849629,-0.00849103,0.124745,81.953141,47.019218)"/>
<path style="fill-rule:nonzero;fill:rgb(100%,82.352942%,0%);fill-opacity:1;stroke-width:1.25;stroke-linecap:butt;stroke-linejoin:miter;stroke:rgb(0%,0%,0%);stroke-opacity:1;stroke-miterlimit:4;" d="M 284.472814 328.125576 L 283.127413 328.113922 C 281.010096 333.296699 277.788734 328.05679 269.051345 328.058777 C 256.175709 328.073555 247.152906 337.473555 247.159318 350.190035 C 247.144268 364.208604 256.69011 372.221815 269.158323 372.215849 C 275.301305 372.212439 281.913085 369.022733 285.808457 364.223392 L 284.720236 362.942904 C 280.301464 367.278938 276.026155 369.327433 269.727659 369.346192 C 259.237445 369.345337 254.565623 359.682984 254.565238 350.696262 C 254.559203 339.185516 259.118423 330.697063 269.694489 330.676885 C 276.97389 330.668075 281.660394 335.480777 283.502089 342.51479 L 285.029739 342.527297 Z M 284.472814 328.125576 " transform="matrix(0.106865,-0.0648012,0.0647611,0.106931,59.057016,78.722276)"/>
<path style="fill-rule:nonzero;fill:rgb(100%,82.352942%,0%);fill-opacity:1;stroke-width:1.25;stroke-linecap:butt;stroke-linejoin:miter;stroke:rgb(0%,0%,0%);stroke-opacity:1;stroke-miterlimit:4;" d="M 237.666213 334.078701 C 237.660878 332.214195 238.658617 330.163072 243.964723 330.156356 L 243.955994 328.936059 L 224.88437 328.952837 L 224.893099 330.173134 C 230.199206 330.166418 231.154169 332.204761 231.159503 334.069268 L 231.137237 366.198738 C 231.142572 368.063244 230.188821 370.110078 224.882714 370.116794 L 224.867292 371.317243 L 243.963067 371.320313 L 243.954338 370.100016 C 238.648231 370.106732 237.669117 368.048541 237.687934 366.203882 Z M 237.666213 334.078701 " transform="matrix(0.09654,-0.0793852,0.079336,0.0965998,56.406691,86.196793)"/>
<path style="fill-rule:nonzero;fill:rgb(100%,82.352942%,0%);fill-opacity:1;stroke-width:1.25;stroke-linecap:butt;stroke-linejoin:miter;stroke:rgb(0%,0%,0%);stroke-opacity:1;stroke-miterlimit:4;" d="M 219.813036 371.314985 L 222.881044 360.192873 L 221.289403 360.192492 C 217.778098 368.936772 212.081477 368.688738 203.946557 368.681881 C 199.966849 368.703018 197.532487 367.993719 197.55942 366.203835 L 197.555831 334.060667 C 197.539796 332.225366 198.502953 330.15222 203.166825 330.172359 L 203.178022 328.956807 L 185.382205 328.966658 L 185.393702 330.160739 C 190.057573 330.180878 191.019212 332.197419 191.034037 334.0769 L 191.016142 366.19736 C 191.009482 368.054132 190.069019 370.105807 185.382454 370.107139 L 185.371256 371.322691 Z M 219.813036 371.314985 " transform="matrix(0.0858762,-0.090827,0.0907708,0.0859294,54.602323,92.663539)"/>
<path style="fill-rule:nonzero;fill:rgb(100%,82.352942%,0%);fill-opacity:1;stroke-width:1.25;stroke-linecap:butt;stroke-linejoin:miter;stroke:rgb(0%,0%,0%);stroke-opacity:1;stroke-miterlimit:4;" d="M 102.392867 355.131099 C 102.37905 366.85059 107.110626 372.221698 118.769003 372.201296 C 121.439689 372.220833 124.900056 371.531956 126.968066 370.562284 C 134.190256 367.105966 134.819233 361.479692 134.826774 354.235453 L 134.840217 334.069281 C 134.841061 332.22329 135.785849 330.153821 140.833073 330.173554 L 140.852675 328.95632 L 125.992435 328.958785 L 126.000351 330.161227 C 131.047575 330.180961 132.003183 332.222644 132.00234 334.068634 L 132.016414 354.220015 C 132.030559 360.316881 131.950254 369.339297 119.997729 369.34036 C 111.972953 369.324077 108.925167 365.567735 108.906455 355.569302 L 108.907813 334.060964 C 108.908657 332.214973 109.868246 330.173039 114.551485 330.175482 L 114.528768 328.945505 L 96.760813 328.949372 L 96.741211 330.166606 C 101.424449 330.16905 102.380057 332.210733 102.379214 334.056723 Z M 102.392867 355.131099 " transform="matrix(0.0591631,-0.110131,0.110063,0.0591997,52.050713,105.573274)"/>
<path style="fill-rule:nonzero;fill:rgb(100%,82.352942%,0%);fill-opacity:1;stroke-width:1.25;stroke-linecap:butt;stroke-linejoin:miter;stroke:rgb(0%,0%,0%);stroke-opacity:1;stroke-miterlimit:4;" d="M 56.380442 371.319677 L 59.236747 360.521653 L 57.447652 360.494499 C 54.061571 368.624907 49.202648 368.697461 44.074221 368.696051 L 35.631016 368.683637 C 34.35657 368.681763 33.966065 367.356966 33.96135 366.210525 L 33.956241 350.466981 L 42.999935 350.455756 C 47.270547 350.468166 50.920829 351.687404 50.92083 356.65937 L 52.262652 356.679735 L 52.281114 341.696427 L 50.939292 341.676062 C 50.914739 346.684776 47.286065 347.819743 42.990899 347.844081 L 33.971758 347.818558 L 33.98256 334.079763 C 33.978435 332.455132 35.174308 331.580206 36.798009 331.576463 L 47.085506 331.573197 C 51.57671 331.57367 53.686775 334.660495 54.368785 338.094668 L 55.802536 338.096776 L 55.801553 328.949829 L 21.814233 328.942769 L 21.800483 330.15662 C 26.487725 330.181904 27.434917 332.224807 27.451024 334.070159 L 27.429815 366.200921 C 27.445923 368.046274 26.487535 370.117028 21.800292 370.091744 L 21.823275 371.330171 Z M 56.380442 371.319677 " transform="matrix(0.0243402,-0.122638,0.122562,0.0243553,50.606218,119.495779)"/>
<path style="fill-rule:nonzero;fill:rgb(100%,82.352942%,0%);fill-opacity:1;stroke-width:1.25;stroke-linecap:butt;stroke-linejoin:miter;stroke:rgb(0%,0%,0%);stroke-opacity:1;stroke-miterlimit:4;" d="M -15.443926 366.201298 C -15.42434 368.045595 -16.402108 370.119323 -20.87008 370.104246 L -20.888373 371.323689 L -3.267069 371.324134 L -3.280015 370.105022 C -7.966667 370.092267 -8.925442 368.070367 -8.91412 366.194479 L -8.911287 351.751038 L -5.319692 351.619108 L 9.917504 371.30917 L 20.196764 371.325059 L 20.215057 370.105615 C 17.338661 369.917322 15.856443 368.620025 14.115674 366.512642 L 1.452399 350.890672 C 7.473735 350.076421 13.032816 346.922369 13.0545 340.138112 C 13.037641 332.666483 6.655771 328.951458 -3.998369 328.939549 L -20.869583 328.962402 L -20.888209 330.150586 C -16.388997 330.165331 -15.42989 332.21849 -15.441544 334.063119 Z M -8.908086 334.400152 C -8.908714 331.398931 -8.346396 331.392959 -4.159915 331.379763 C 1.588893 331.381238 6.05185 333.86613 6.056759 340.212425 C 6.067643 347.121387 0.370656 349.057655 -8.905276 349.375002 Z M -8.908086 334.400152 " transform="matrix(0.00132691,-0.125026,0.124949,0.00132773,50.506253,128.434449)"/>
<path style="fill-rule:nonzero;fill:rgb(100%,82.352942%,0%);fill-opacity:1;stroke-width:1.25;stroke-linecap:butt;stroke-linejoin:miter;stroke:rgb(0%,0%,0%);stroke-opacity:1;stroke-miterlimit:4;" d="M 66.468633 366.212425 C 66.481498 368.047139 65.517488 370.096667 60.849827 370.116338 L 60.860834 371.306621 L 78.652761 371.321192 L 78.634089 370.100603 C 73.966428 370.120274 72.990534 368.045443 73.007957 366.203069 L 73.021502 352.495503 C 74.878578 352.702978 76.71266 352.819533 78.584323 352.829848 C 86.767966 352.823816 94.836132 349.557994 94.823979 340.081027 C 94.817397 332.537352 87.146284 328.963543 77.280369 328.943606 L 61.170714 328.955004 L 61.159099 330.183254 C 65.508552 330.17957 66.476781 332.224094 66.489645 334.058808 Z M 73.014382 334.246612 C 72.99929 331.638581 73.142321 331.312201 75.817168 331.312855 C 81.970044 331.3045 87.840943 333.366653 87.86174 340.584282 C 87.845328 348.037036 83.040207 350.31638 76.144723 350.319076 C 75.114195 350.321745 74.022721 350.210848 73.007152 350.145244 Z M 73.014382 334.246612 " transform="matrix(0.030638,-0.121218,0.121143,0.030657,50.826143,116.732536)"/>
<path style="fill-rule:nonzero;fill:rgb(100%,82.352942%,0%);fill-opacity:1;stroke-width:1.25;stroke-linecap:butt;stroke-linejoin:miter;stroke:rgb(0%,0%,0%);stroke-opacity:1;stroke-miterlimit:4;" d="M 149.360925 366.185588 C 149.374177 368.049588 148.412656 370.102851 143.210823 370.094891 L 143.224691 371.308527 L 163.363799 371.313811 C 173.411582 371.312665 180.088838 367.33808 180.073577 359.664345 C 180.080875 353.542209 174.886773 350.126226 169.397618 349.058917 C 174.309234 347.894874 177.905383 345.133695 177.914961 339.774579 C 177.903213 331.563134 170.215555 328.946904 160.367484 328.960372 L 143.210722 328.95815 L 143.22459 330.171786 C 148.408427 330.154185 149.354052 332.202856 149.367304 334.066857 Z M 155.900642 350.45615 L 159.0827 350.471534 C 165.098483 350.441687 172.721182 351.880251 172.725997 359.484878 C 172.727914 366.97685 167.785484 368.965443 161.127022 368.950748 C 156.462788 368.946615 155.878225 367.790683 155.881828 365.570735 Z M 155.895555 347.898239 L 155.903307 333.364911 C 155.888914 331.119401 157.929582 331.250193 163.826326 331.648235 C 168.303574 332.472173 171.370541 335.091846 171.356925 339.956799 C 171.377546 345.14173 167.581684 347.890587 161.122934 347.888214 Z M 155.895555 347.898239 " transform="matrix(0.0719336,-0.102238,0.102174,0.0719782,52.977891,99.66293)"/>
<path style="fill-rule:nonzero;fill:rgb(100%,82.352942%,0%);fill-opacity:1;stroke-width:1.25;stroke-linecap:butt;stroke-linejoin:miter;stroke:rgb(0%,0%,0%);stroke-opacity:1;stroke-miterlimit:4;" d="M 368.226585 371.306655 C 385.376559 371.33084 394.034171 363.264488 394.047063 350.260712 C 394.042397 335.876743 384.110099 328.95848 367.741706 328.964041 L 351.217484 328.957424 L 351.216047 330.179448 C 355.888974 330.168612 356.85759 332.218533 356.838635 334.065925 L 356.836832 366.186033 C 356.846609 368.067007 355.904369 370.092935 351.231442 370.103771 L 351.230005 371.325795 Z M 363.38347 334.577427 C 363.372696 331.505576 363.950721 331.331393 367.024452 331.320921 C 378.878181 331.307228 387.058366 337.775189 387.048387 350.340477 C 387.060795 362.218105 379.516855 369.274705 366.455437 368.692624 C 365.048104 368.645309 363.380231 367.919559 363.375802 365.568951 Z M 363.38347 334.577427 " transform="matrix(0.124576,-0.00974213,0.0097361,0.124654,76.032085,54.040863)"/>
<path style="fill-rule:nonzero;fill:rgb(100%,82.352942%,0%);fill-opacity:1;stroke-width:1.25;stroke-linecap:butt;stroke-linejoin:miter;stroke:rgb(0%,0%,0%);stroke-opacity:1;stroke-miterlimit:4;" d="M 613.864627 366.212314 C 613.859663 368.061694 612.902022 370.110294 608.432791 370.11815 L 608.445397 371.324164 L 626.011713 371.326939 L 626.041912 370.109924 C 621.363597 370.103069 620.402718 368.045604 620.407682 366.196224 L 620.395803 351.73387 L 623.990836 351.608455 L 639.221297 371.331472 L 649.504808 371.312304 L 649.519092 370.122196 C 646.634729 369.905245 645.169514 368.639068 643.441996 366.527664 L 630.765483 350.893991 C 636.778432 350.05587 642.365012 346.931642 642.340408 340.161584 C 642.354229 332.651535 635.949515 328.935861 625.344421 328.946417 L 608.421271 328.960867 L 608.433876 330.16688 C 612.903107 330.159025 613.863986 332.21649 613.859022 334.06587 Z M 620.393292 334.371463 C 620.380711 331.385788 620.970096 331.371203 625.128719 331.397546 C 630.900195 331.397235 635.373783 333.89803 635.374247 340.217971 C 635.388971 347.127465 629.677286 349.051777 620.408457 349.380559 Z M 620.393292 334.371463 " transform="matrix(0.0636153,0.107618,-0.107551,0.0636547,154.015085,19.977669)"/>
<path style="fill-rule:nonzero;fill:rgb(100%,82.352942%,0%);fill-opacity:1;stroke-width:1.25;stroke-linecap:butt;stroke-linejoin:miter;stroke:rgb(0%,0%,0%);stroke-opacity:1;stroke-miterlimit:4;" d="M 584.953388 328.049254 L 583.647967 328.045649 L 570.666668 358.912664 C 568.040136 365.100796 566.380823 369.760148 562.414056 370.083613 L 562.405456 371.300821 L 575.083384 371.332843 L 575.068865 370.094623 C 572.901568 370.110334 570.72806 369.529007 570.715781 367.405739 C 570.714052 365.038604 573.346724 359.912106 574.18375 357.504643 L 590.952426 357.494844 L 593.268114 362.936512 C 595.684663 368.638812 595.764352 369.851775 590.311395 370.091832 L 590.302794 371.309039 L 606.63002 371.320466 L 606.638621 370.103258 C 603.041849 370.298316 601.709703 366.468625 600.566562 363.824517 Z M 582.648002 337.274993 L 590.05313 354.861136 L 575.275171 354.863714 Z M 582.648002 337.274993 " transform="matrix(0.0840406,0.09253,-0.0924727,0.0840927,136.035119,21.358041)"/>
<path style="fill-rule:nonzero;fill:rgb(100%,82.352942%,0%);fill-opacity:1;stroke-width:1.25;stroke-linecap:butt;stroke-linejoin:miter;stroke:rgb(0%,0%,0%);stroke-opacity:1;stroke-miterlimit:4;" d="M 673.832426 328.05959 L 672.57293 328.05317 L 659.549911 358.90061 C 656.935259 365.092999 655.281468 369.795268 651.323645 370.106978 L 651.300606 371.325826 L 663.990469 371.329245 L 663.984899 370.097843 C 661.802237 370.096024 659.632839 369.519683 659.639141 367.405911 C 659.618929 365.041541 662.244735 359.912315 663.103031 357.489613 L 679.850497 357.498203 L 682.178242 362.9233 C 684.589719 368.624098 684.665067 369.851978 679.206316 370.085474 L 679.211886 371.316875 L 695.524633 371.305415 L 695.547672 370.086566 C 691.947813 370.282236 690.594853 366.445523 689.456797 363.829646 Z M 671.535932 337.259142 L 678.962945 354.855689 L 664.188807 354.859482 Z M 671.535932 337.259142 " transform="matrix(0.0502062,0.114497,-0.114426,0.0502373,165.626033,20.820396)"/>
<path style="fill-rule:nonzero;fill:rgb(100%,82.352942%,0%);fill-opacity:1;stroke-width:1.25;stroke-linecap:butt;stroke-linejoin:miter;stroke:rgb(0%,0%,0%);stroke-opacity:1;stroke-miterlimit:4;" d="M 812.455082 328.064514 L 811.195714 328.056305 L 798.176478 358.905899 C 795.575573 365.100653 793.895038 369.769806 789.940214 370.112385 L 789.924836 371.310424 L 802.604238 371.319405 L 802.615938 370.090323 C 800.414802 370.099239 798.240544 369.538343 798.238669 367.397966 C 798.242077 365.036609 800.874944 359.908368 801.719691 357.478823 L 818.487443 357.47568 L 820.770025 362.934529 C 823.206124 368.627027 823.287498 369.845083 817.845101 370.112048 L 817.829724 371.310087 L 834.159456 371.327354 L 834.171156 370.098272 C 830.577593 370.303617 829.241863 366.463969 828.08058 363.831351 Z M 810.148846 337.277861 L 817.581712 354.875748 L 802.794247 354.864657 Z M 810.148846 337.277861 " transform="matrix(-0.0146999,0.124166,-0.124089,-0.014709,216.769411,37.036023)"/>
<path style="fill-rule:nonzero;fill:rgb(100%,82.352942%,0%);fill-opacity:1;stroke-width:1.25;stroke-linecap:butt;stroke-linejoin:miter;stroke:rgb(0%,0%,0%);stroke-opacity:1;stroke-miterlimit:4;" d="M 311.234341 328.043499 L 309.957339 328.040602 L 296.957368 358.913129 C 294.333024 365.098134 292.673983 369.784049 288.687087 370.083214 L 288.696262 371.330604 L 301.350067 371.313423 L 301.358415 370.106606 C 299.181656 370.082549 297.015063 369.524692 297.015145 367.406994 C 297.008781 365.051433 299.653376 359.916529 300.482669 357.489444 L 317.234502 357.486148 L 319.542025 362.940496 C 321.966216 368.60925 322.045029 369.850679 316.595278 370.106757 L 316.58693 371.313573 L 332.903411 371.305466 L 332.911759 370.09865 C 329.336699 370.292443 327.997126 366.46623 326.829065 363.817414 Z M 308.914255 337.273814 L 316.321933 354.871562 L 301.561006 354.858725 Z M 308.914255 337.273814 " transform="matrix(0.116134,-0.0461475,0.0461189,0.116206,63.550196,69.909897)"/>
<path style="fill-rule:nonzero;fill:rgb(100%,82.352942%,0%);fill-opacity:1;stroke-width:1.25;stroke-linecap:butt;stroke-linejoin:miter;stroke:rgb(0%,0%,0%);stroke-opacity:1;stroke-miterlimit:4;" d="M 728.916772 940.009031 L 733.303396 929.333445 L 731.702116 929.138783 C 727.186109 937.432204 721.569163 936.498698 713.49294 935.522996 C 709.537676 935.065954 707.194227 934.076626 707.408149 932.293651 L 711.238668 900.38123 C 711.467969 898.556821 712.65114 896.639172 717.302305 897.189962 L 717.427556 895.96342 L 699.7697 893.87658 L 699.631426 895.074704 C 704.254189 895.638508 704.964624 897.788796 704.735322 899.613205 L 700.933205 931.512611 C 700.716927 933.365439 699.533756 935.283088 694.882591 934.732298 L 694.744317 935.930421 Z M 728.916772 940.009031 " transform="matrix(0.0520556,-0.113668,0.113598,0.0520878,15.940831,178.204132)"/>
<path style="fill-rule:nonzero;fill:rgb(100%,82.352942%,0%);fill-opacity:1;stroke-width:1.25;stroke-linecap:butt;stroke-linejoin:miter;stroke:rgb(0%,0%,0%);stroke-opacity:1;stroke-miterlimit:4;" d="M 594.212917 883.946935 L 598.768005 884.502702 C 603.233051 885.01768 606.447793 885.226591 606.844058 893.725411 L 608.354202 893.888867 L 609.282035 883.039593 L 573.445255 878.769419 L 571.761493 889.514884 L 573.294577 889.699577 C 573.95042 887.794819 574.553528 885.670934 576.065629 884.175752 C 578.248351 881.726157 583.149241 882.644655 587.725554 883.177496 L 583.639836 917.499967 C 583.423917 919.343692 582.215168 921.247456 577.571752 920.695063 L 577.420159 921.917134 L 595.105403 924.027955 L 595.235771 922.82881 C 590.592354 922.276417 589.890055 920.136056 590.105973 918.292331 Z M 594.212917 883.946935 " transform="matrix(0.0916917,-0.0849442,0.0848916,0.0917485,16.065787,123.128016)"/>
<path style="fill-rule:nonzero;fill:rgb(100%,82.352942%,0%);fill-opacity:1;stroke-width:1.25;stroke-linecap:butt;stroke-linejoin:miter;stroke:rgb(0%,0%,0%);stroke-opacity:1;stroke-miterlimit:4;" d="M 564.326611 882.831908 C 564.53495 881.009912 565.743211 879.073372 570.932094 879.686196 L 571.080046 878.47668 L 555.95934 876.676005 L 555.811387 877.885522 C 561.027449 878.51379 561.738846 880.678741 561.530507 882.500738 L 558.474177 908.001239 L 537.666382 874.510089 L 526.788318 873.215754 L 526.640366 874.425271 C 529.739134 874.856557 530.25253 875.47168 531.968891 877.956148 L 532.408803 878.637315 L 528.517766 910.921973 C 528.293993 912.771132 527.128346 914.695953 521.912284 914.067684 L 521.764332 915.277201 L 536.885038 917.077875 L 537.032991 915.868359 C 531.816929 915.240091 531.117277 913.117746 531.34105 911.268587 L 534.794934 882.221025 L 558.82976 920.600167 L 559.775999 920.70665 Z M 564.326611 882.831908 " transform="matrix(0.108642,-0.0617717,0.0617334,0.108709,26.799536,95.090445)"/>
<path style="fill-rule:nonzero;fill:rgb(100%,82.352942%,0%);fill-opacity:1;stroke-width:1.25;stroke-linecap:butt;stroke-linejoin:miter;stroke:rgb(0%,0%,0%);stroke-opacity:1;stroke-miterlimit:4;" d="M 517.252086 914.73562 L 521.386087 904.339413 L 519.603088 904.114721 C 515.278026 911.776592 510.438445 911.25709 505.353415 910.680364 L 496.969455 909.652854 C 495.688162 909.513296 495.464503 908.132173 495.61903 906.99042 L 497.48442 891.362157 L 506.450366 892.437813 C 510.697151 892.938481 514.185802 894.591381 513.59543 899.534905 L 514.935382 899.696096 L 516.687977 884.825397 L 515.348025 884.664205 C 514.786983 889.618546 511.026317 890.329409 506.750203 889.817923 L 497.784256 888.742268 L 499.419363 875.093578 C 499.607913 873.498195 500.917112 872.748988 502.513322 872.93809 L 512.749751 874.182615 C 517.194135 874.689562 518.939673 877.99719 519.215537 881.495367 L 520.614149 881.678192 L 521.700616 872.588836 L 487.964077 868.571269 L 487.817259 869.782462 C 492.448432 870.324998 493.152093 872.482518 492.946532 874.304716 L 489.135389 906.230869 C 488.929827 908.053067 487.72236 909.971939 483.091188 909.429403 L 482.94437 910.640596 Z M 517.252086 914.73562 " transform="matrix(0.117238,-0.0432642,0.0432374,0.11731,38.686633,77.828285)"/>
<path style="fill-rule:nonzero;fill:rgb(100%,82.352942%,0%);fill-opacity:1;stroke-width:1.25;stroke-linecap:butt;stroke-linejoin:miter;stroke:rgb(0%,0%,0%);stroke-opacity:1;stroke-miterlimit:4;" d="M 484.051995 867.24355 L 482.715817 867.083948 C 480.027607 871.988241 477.473894 866.399343 468.742487 865.354213 C 455.971713 863.825132 445.903333 872.122345 444.396491 884.762071 C 442.740506 898.675529 451.239976 907.758725 463.640734 909.226067 C 469.73062 909.957138 476.658457 907.565646 481.114499 903.273062 L 480.179285 901.850072 C 475.29673 905.659734 470.794666 907.189036 464.550606 906.43224 C 454.138697 905.201729 450.634614 895.051628 451.709452 886.14065 C 453.077434 874.713024 458.582176 866.794591 469.086589 868.040537 C 476.327644 868.90034 480.382024 874.232855 481.398982 881.434078 L 482.920168 881.62455 Z M 484.051995 867.24355 " transform="matrix(0.123252,-0.0205781,0.0205653,0.123328,55.473267,61.934869)"/>
<path style="fill-rule:nonzero;fill:rgb(100%,82.352942%,0%);fill-opacity:1;stroke-width:1.25;stroke-linecap:butt;stroke-linejoin:miter;stroke:rgb(0%,0%,0%);stroke-opacity:1;stroke-miterlimit:4;" d="M 379.901153 854.813312 L 378.574025 854.664897 C 375.842748 859.551255 373.310948 853.968139 364.591483 852.924587 C 351.823663 851.415789 341.749417 859.680038 340.246313 872.312255 C 338.558252 886.245472 347.094787 895.313469 359.476937 896.794591 C 365.57294 897.535926 372.512379 895.116681 376.964858 890.817252 L 376.023599 889.427837 C 371.130101 893.201816 366.640332 894.748474 360.384979 894.0033 C 349.978124 892.747495 346.490165 882.605968 347.53465 873.701328 C 348.898231 862.267013 354.432087 854.353068 364.900528 855.598099 C 372.164309 856.484011 376.235769 861.797768 377.24386 869.011241 L 378.766515 869.188881 Z M 379.901153 854.813312 " transform="matrix(0.123087,0.0215471,-0.0215337,0.123163,93.392519,45.067816)"/>
<path style="fill-rule:nonzero;fill:rgb(100%,82.352942%,0%);fill-opacity:1;stroke-width:1.25;stroke-linecap:butt;stroke-linejoin:miter;stroke:rgb(0%,0%,0%);stroke-opacity:1;stroke-miterlimit:4;" d="M 332.755053 855.182527 C 332.965504 853.331801 334.167558 851.420386 339.4261 852.038153 L 339.570938 850.857244 L 320.645981 848.586046 L 320.509869 849.796954 C 325.768411 850.414721 326.48674 852.548397 326.246273 854.407854 L 322.434411 886.296222 C 322.22396 888.146948 321.021906 890.058363 315.763364 889.440596 L 315.627252 890.651504 L 334.552208 892.922702 L 334.688321 891.711794 C 329.421053 891.064028 328.702724 888.930352 328.913174 887.079626 Z M 332.755053 855.182527 " transform="matrix(0.119983,0.0349232,-0.0349016,0.120057,106.316754,43.247199)"/>
<path style="fill-rule:nonzero;fill:rgb(100%,82.352942%,0%);fill-opacity:1;stroke-width:1.25;stroke-linecap:butt;stroke-linejoin:miter;stroke:rgb(0%,0%,0%);stroke-opacity:1;stroke-miterlimit:4;" d="M 268.311597 884.997516 L 272.468717 874.619622 L 270.687023 874.387822 C 266.355321 882.05813 261.535681 881.545655 256.440157 880.950146 L 248.066609 879.930904 C 246.786146 879.786241 246.569336 878.404086 246.686314 877.253375 L 248.557749 861.624416 L 257.528355 862.706536 C 261.784629 863.208754 265.247885 864.849376 264.660951 869.788104 L 266.001433 869.968531 L 267.771716 855.109181 L 266.431233 854.928753 C 265.861146 859.893792 262.084951 860.605162 257.828678 860.102943 L 248.858072 859.020824 L 250.501894 845.355352 C 250.71368 843.772968 252.011064 843.01647 253.593739 843.227311 L 263.827962 844.427783 C 268.283255 844.95096 269.998359 848.267347 270.287654 851.791811 L 271.697636 851.964836 L 272.770352 842.856989 L 239.041334 838.819085 L 238.888547 840.02982 C 243.516533 840.590814 244.265057 842.74543 244.022714 844.569961 L 240.22398 876.494295 C 239.981637 878.318825 238.809467 880.256447 234.155154 879.712311 L 234.028695 880.906189 Z M 268.311597 884.997516 " transform="matrix(0.105233,0.0674207,-0.067379,0.105298,138.410536,46.428433)"/>
<path style="fill-rule:nonzero;fill:rgb(100%,82.352942%,0%);fill-opacity:1;stroke-width:1.25;stroke-linecap:butt;stroke-linejoin:miter;stroke:rgb(0%,0%,0%);stroke-opacity:1;stroke-miterlimit:4;" d="M 230.885182 843.008282 C 231.094117 841.161667 232.281971 839.24538 236.919173 839.788315 L 237.064377 838.579764 L 224.428922 837.077629 L 206.545985 867.500672 L 195.708755 833.651398 L 183.117405 832.15211 L 182.972202 833.360661 C 188.047573 833.97617 188.771073 836.126562 188.541524 837.949702 L 184.734619 869.857155 C 184.525684 871.703771 183.33783 873.620057 178.106656 873.016635 L 177.984942 874.204558 L 193.081618 875.998439 L 193.226822 874.789889 C 188.019137 874.165839 187.316252 872.038921 187.525186 870.192306 L 191.070923 840.593122 L 202.858912 877.183205 L 203.782229 877.287097 L 224.349605 843.05141 L 220.641419 874.123761 C 220.408995 875.991004 219.221141 877.90729 214.583939 877.364355 L 214.438735 878.572906 L 232.105457 880.687703 L 232.25066 879.479152 C 227.616332 878.892115 226.913447 876.765197 227.122382 874.918582 Z M 230.885182 843.008282 " transform="matrix(0.0938909,0.0825035,-0.0824524,0.0939491,153.64647,52.255189)"/>
<path style="fill-rule:nonzero;fill:rgb(100%,82.352942%,0%);fill-opacity:1;stroke-width:1.25;stroke-linecap:butt;stroke-linejoin:miter;stroke:rgb(0%,0%,0%);stroke-opacity:1;stroke-miterlimit:4;" d="M 278.836599 881.10471 C 278.635158 882.924335 277.439702 884.860297 272.981869 884.339572 L 272.840065 885.533229 L 290.305599 887.623568 L 290.476561 886.418639 C 285.839142 885.866859 285.104218 883.705845 285.334816 881.874947 L 287.054361 867.51065 L 290.620892 867.806545 L 303.412039 889.188505 L 313.64312 890.424797 L 313.773659 889.202 C 310.958603 888.682567 309.623298 887.222599 308.17003 884.937364 L 297.434539 867.918912 C 303.525204 867.808365 309.417049 865.363037 310.228118 858.618406 C 311.105449 851.178256 305.196326 846.730271 294.657762 845.478874 L 277.858881 843.46575 L 277.728343 844.688547 C 282.186176 845.209271 282.880677 847.352418 282.661344 849.212456 Z M 289.115164 850.301314 C 289.469675 847.317171 290.026325 847.369925 294.176675 847.875545 C 299.869077 848.555379 304.04794 851.562109 303.294521 857.849015 C 302.458934 864.70361 296.569731 865.942093 287.320078 865.163748 Z M 289.115164 850.301314 " transform="matrix(0.116549,0.0450872,-0.0450593,0.116621,116.348249,43.074653)"/>
<path style="fill-rule:nonzero;fill:rgb(100%,82.352942%,0%);fill-opacity:1;stroke-width:1.25;stroke-linecap:butt;stroke-linejoin:miter;stroke:rgb(0%,0%,0%);stroke-opacity:1;stroke-miterlimit:4;" d="M 406.460532 857.936696 L 405.210095 857.780488 L 388.641808 886.866385 C 385.29689 892.708557 383.077364 897.176101 379.107228 897.019893 L 378.982184 898.207072 L 391.549073 899.706667 L 391.705378 898.519488 C 389.548375 898.269555 387.453893 897.426033 387.70398 895.332848 C 387.985329 892.989731 391.173942 888.209772 392.299336 885.897896 L 408.961405 887.866115 L 410.586973 893.552079 C 412.337584 899.487976 412.243802 900.706397 406.835663 900.331499 L 406.679358 901.518678 L 422.872514 903.455655 L 423.028819 902.268476 C 419.433813 902.018543 418.558507 898.050865 417.745723 895.301607 Z M 403.084353 866.8093 L 408.367448 885.17934 L 393.706077 883.398571 Z M 403.084353 866.8093 " transform="matrix(0.124956,0,0,0.125034,73.257055,51.603955)"/>
<path style="fill-rule:nonzero;fill:rgb(100%,82.352942%,0%);fill-opacity:1;stroke-width:1.25;stroke-linecap:butt;stroke-linejoin:miter;stroke:rgb(0%,0%,0%);stroke-opacity:1;stroke-miterlimit:4;" d="M 159.319595 828.407431 L 158.055736 828.264682 L 141.513228 857.356065 C 138.166228 863.208631 135.943777 867.633458 131.958506 867.48934 L 131.824464 868.68431 L 144.410229 870.189287 L 144.544271 868.994317 C 142.380342 868.729817 140.291639 867.911259 140.547924 865.815945 C 140.841821 863.443602 144.055978 858.673322 145.172504 856.369938 L 161.809182 858.366453 L 163.464972 864.035283 C 165.195808 869.982275 165.131002 871.18661 159.683567 870.802389 L 159.549525 871.99736 L 175.727364 873.945914 L 175.879014 872.725114 C 172.302153 872.481076 171.442815 868.528047 170.587908 865.788719 L 159.345409 828.425029 Z M 155.957857 837.276652 L 161.248828 855.638757 L 146.550762 853.904475 Z M 155.957857 837.276652 " transform="matrix(0.0703854,0.103312,-0.103248,0.070429,175.665021,68.962141)"/>
<path style="fill-rule:nonzero;fill:rgb(100%,82.352942%,0%);fill-opacity:1;stroke-width:1.25;stroke-linecap:butt;stroke-linejoin:miter;stroke:rgb(0%,0%,0%);stroke-opacity:1;stroke-miterlimit:4;" d="M 612.479753 920.966273 C 612.257776 922.790206 611.077966 924.710084 606.615371 924.191502 L 606.475188 925.400558 L 623.949266 927.473834 L 624.08945 926.264779 C 619.450406 925.735321 618.741462 923.566194 618.963438 921.742261 L 620.681677 907.368651 L 624.24939 907.677099 L 637.048974 929.033967 L 647.268747 930.26162 L 647.408931 929.052564 C 644.563164 928.522932 643.279118 927.071117 641.802246 924.78824 L 631.084925 907.766295 C 637.157915 907.653514 643.041364 905.204358 643.850167 898.47939 C 644.725435 891.027901 638.820729 886.56809 628.268768 885.342103 L 611.500487 883.312326 L 611.360304 884.521382 C 615.799496 885.060662 616.511131 887.185675 616.286464 889.053722 Z M 622.751309 890.138508 C 623.087376 887.170331 623.660835 887.205675 627.791242 887.725923 C 633.507 888.388162 637.683845 891.413084 636.901956 897.696912 C 636.085079 904.554222 630.209476 905.786165 620.959352 904.994653 Z M 622.751309 890.138508 " transform="matrix(0.0827836,-0.0936578,0.0935998,0.0828349,13.989013,136.512878)"/>
<path style="fill-rule:nonzero;fill:rgb(100%,82.352942%,0%);fill-opacity:1;stroke-width:1.25;stroke-linecap:butt;stroke-linejoin:miter;stroke:rgb(0%,0%,0%);stroke-opacity:1;stroke-miterlimit:4;" d="M 676.546094 890.194661 L 675.280455 890.039913 L 658.715008 919.136844 C 655.392227 924.990233 653.167229 929.410616 649.188406 929.262114 L 649.046488 930.485583 L 661.630001 931.966282 L 661.787109 930.770136 C 659.607911 930.515262 657.528513 929.668385 657.773119 927.600936 C 658.06003 925.223824 661.277237 920.466395 662.377527 918.137804 L 679.040235 920.140412 L 680.688487 925.805257 C 682.418844 931.746361 682.346727 932.966789 676.917091 932.587654 L 676.759983 933.7838 L 692.958317 935.722684 L 693.115425 934.526538 C 689.509833 934.277828 688.663795 930.313024 687.81544 927.565608 Z M 673.188679 899.071788 L 678.458968 917.423338 L 663.766057 915.684725 Z M 673.188679 899.071788 " transform="matrix(0.06072,-0.10928,0.109212,0.0607577,13.887799,167.244921)"/>
<path style="fill-rule:evenodd;fill:rgb(100%,82.352942%,0%);fill-opacity:1;stroke-width:1.25;stroke-linecap:butt;stroke-linejoin:miter;stroke:rgb(0%,0%,0%);stroke-opacity:1;stroke-miterlimit:4;" d="M 186.480619 676.046938 C 186.480619 670.985805 182.197874 666.89316 176.914778 666.89316 C 171.631683 666.89316 167.348937 670.985805 167.348937 676.046938 C 167.348937 681.108072 171.631683 685.200717 176.914778 685.200717 C 182.197874 685.200717 186.480619 681.108072 186.480619 676.046938 Z M 186.480619 676.046938 " transform="matrix(0.124956,0,0,0.125034,73.569158,53.373658)"/>
<path style="fill-rule:evenodd;fill:rgb(100%,82.352942%,0%);fill-opacity:1;stroke-width:1.25;stroke-linecap:butt;stroke-linejoin:miter;stroke:rgb(0%,0%,0%);stroke-opacity:1;stroke-miterlimit:4;" d="M 186.502141 676.043841 C 186.502141 670.982708 182.219395 666.890063 176.905039 666.890063 C 171.621943 666.890063 167.339197 670.982708 167.339197 676.043841 C 167.339197 681.104975 171.621943 685.19762 176.905039 685.19762 C 182.219395 685.19762 186.502141 681.104975 186.502141 676.043841 Z M 186.502141 676.043841 " transform="matrix(0.124956,0,0,0.125034,137.550844,54.831077)"/>
</g>
</svg>
