<?xml version="1.0" encoding="UTF-8"?>
<svg xmlns="http://www.w3.org/2000/svg" xmlns:xlink="http://www.w3.org/1999/xlink" width="40px" height="40px" viewBox="0 0 256 256" version="1.1">
<g id="surface1">
<rect x="0" y="0" width="256" height="256" style="fill:rgb(100%,100%,100%);fill-opacity:1;stroke:none;"/>
<path style="fill-rule:evenodd;fill:rgb(80.784315%,0%,0%);fill-opacity:1;stroke-width:12.431;stroke-linecap:butt;stroke-linejoin:miter;stroke:rgb(0%,0%,38.82353%);stroke-opacity:1;stroke-miterlimit:4;" d="M 6.270579 489.83224 L 369.373585 489.817262 L 131.710928 248.807033 L 378.322912 249.099103 L 6.293045 11.48138 Z M 6.270579 489.83224 " transform="matrix(0.5216,0,0,0.5216,-0.00120255,-2.7465)"/>
<path style=" stroke:none;fill-rule:evenodd;fill:rgb(100%,100%,100%);fill-opacity:1;" d="M 90.367188 185.878906 L 76.875 190.347656 L 87.429688 200.277344 L 73.210938 199.367188 L 79.070312 212.480469 L 66.296875 206.335938 L 66.558594 220.636719 L 57.164062 210.183594 L 51.792969 223.5 L 47.21875 210.339844 L 37.039062 220.636719 L 37.96875 206.769531 L 24.527344 212.480469 L 30.828125 200.023438 L 16.160156 200.277344 L 26.875 191.117188 L 13.226562 185.878906 L 26.71875 181.417969 L 16.160156 171.488281 L 30.378906 172.394531 L 24.527344 159.285156 L 37.300781 165.429688 L 37.039062 151.125 L 46.429688 161.574219 L 51.792969 148.265625 L 56.375 161.425781 L 66.558594 151.125 L 65.621094 164.992188 L 79.070312 159.285156 L 72.769531 171.746094 L 87.429688 171.488281 L 76.714844 180.648438 Z M 90.367188 185.878906 "/>
<path style=" stroke:none;fill-rule:evenodd;fill:rgb(100%,100%,100%);fill-opacity:1;" d="M 74.160156 93.539062 L 68.496094 97.734375 L 71.285156 100.042969 C 78.066406 94.800781 82.890625 90.011719 86.664062 82.0625 C 87.546875 92.671875 77.820312 116.488281 52.296875 116.753906 C 24.980469 116.730469 15.503906 91.457031 16.558594 81.613281 C 21.574219 90.71875 24.636719 95.15625 32.515625 99.898438 L 34.925781 97.6875 L 29.589844 93.242188 L 36.457031 91.453125 L 32.761719 85.234375 L 39.960938 85.757812 L 39.054688 78.515625 L 45.363281 82.207031 L 47.335938 75.464844 L 51.871094 80.894531 L 56.117188 75.746094 L 58.425781 82.742188 L 64.320312 78.640625 L 63.566406 85.753906 L 70.632812 84.925781 L 67.320312 91.503906 Z M 74.160156 93.539062 "/>
</g>
</svg>
