<?xml version="1.0" encoding="UTF-8"?>
<svg xmlns="http://www.w3.org/2000/svg" xmlns:xlink="http://www.w3.org/1999/xlink" width="40px" height="40px" viewBox="0 0 40 40" version="1.1">
<g id="surface1">
<rect x="0" y="0" width="40" height="40" style="fill:rgb(0%,12.941177%,43.921569%);fill-opacity:1;stroke:none;"/>
<path style=" stroke:none;fill-rule:evenodd;fill:rgb(100%,69.803923%,5.098039%);fill-opacity:1;" d="M -10.9375 18.289062 L 69.0625 18.289062 L 69.0625 21.710938 L -10.9375 21.710938 Z M -10.9375 18.289062 "/>
<path style=" stroke:none;fill-rule:evenodd;fill:rgb(100%,100%,100%);fill-opacity:1;" d="M 12.640625 34.214844 L 10.070312 31.640625 L 9.242188 35.183594 L 8.300781 31.667969 L 5.8125 34.324219 L 6.757812 30.808594 L 3.273438 31.863281 L 5.851562 29.292969 L 2.308594 28.460938 L 5.824219 27.523438 L 3.167969 25.035156 L 6.683594 25.980469 L 5.628906 22.496094 L 8.199219 25.074219 L 9.027344 21.527344 L 9.96875 25.046875 L 12.457031 22.390625 L 11.511719 25.90625 L 14.996094 24.851562 L 12.417969 27.421875 L 15.960938 28.25 L 12.445312 29.1875 L 15.101562 31.679688 L 11.585938 30.734375 Z M 12.640625 34.214844 "/>
</g>
</svg>
