<?xml version="1.0" encoding="UTF-8"?>
<svg xmlns="http://www.w3.org/2000/svg" xmlns:xlink="http://www.w3.org/1999/xlink" width="40px" height="40px" viewBox="0 0 40 40" version="1.1">
<g id="surface1">
<path style=" stroke:none;fill-rule:evenodd;fill:rgb(100%,100%,100%);fill-opacity:1;" d="M 0 0 L 40.28125 0 L 40.28125 20.003906 L 0 20.003906 Z M 0 0 "/>
<path style=" stroke:none;fill-rule:nonzero;fill:rgb(80.000001%,0%,0%);fill-opacity:1;" d="M 0 0 L 0 1.5 L 9.613281 6.441406 L 13.230469 6.546875 Z M 0 0 "/>
<path style=" stroke:none;fill-rule:nonzero;fill:rgb(0%,0%,40.000001%);fill-opacity:1;" d="M 4.117188 0 L 15.769531 6.085938 L 15.769531 0 Z M 4.117188 0 "/>
<path style=" stroke:none;fill-rule:nonzero;fill:rgb(80.000001%,0%,0%);fill-opacity:1;" d="M 17.324219 0 L 17.324219 7.769531 L 0 7.769531 L 0 12.210938 L 17.324219 12.210938 L 17.324219 19.980469 L 22.65625 19.980469 L 22.65625 12.210938 L 39.976562 12.210938 L 39.976562 7.769531 L 22.65625 7.769531 L 22.65625 0 Z M 17.324219 0 "/>
<path style=" stroke:none;fill-rule:nonzero;fill:rgb(0%,0%,40.000001%);fill-opacity:1;" d="M 24.210938 0 L 24.210938 5.734375 L 35.609375 0.0429688 Z M 24.210938 0 "/>
<path style=" stroke:none;fill-rule:nonzero;fill:rgb(80.000001%,0%,0%);fill-opacity:1;" d="M 24.570312 6.359375 L 27.777344 6.335938 L 40.230469 0.0429688 L 36.925781 0.0976562 Z M 24.570312 6.359375 "/>
<path style=" stroke:none;fill-rule:nonzero;fill:rgb(0%,0%,40.000001%);fill-opacity:1;" d="M 0 13.507812 L 0 17.761719 L 7.996094 13.550781 L 0 13.503906 Z M 0 13.507812 "/>
<path style=" stroke:none;fill-rule:nonzero;fill:rgb(80.000001%,0%,0%);fill-opacity:1;" d="M 30.789062 13.683594 L 27.457031 13.65625 L 40.019531 19.910156 L 39.9375 18.480469 Z M 3.121094 20.015625 L 14.902344 13.832031 L 11.808594 13.851562 L 0 20.007812 "/>
<path style=" stroke:none;fill-rule:nonzero;fill:rgb(0%,0%,40.000001%);fill-opacity:1;" d="M 40.148438 1.757812 L 30.632812 6.476562 L 40.019531 6.511719 L 40.019531 13.542969 L 32.023438 13.542969 L 39.945312 17.832031 L 40.0625 20.015625 L 35.832031 19.964844 L 24.25 14.28125 L 24.25 20.015625 L 15.8125 20.015625 L 15.8125 14.28125 L 4.949219 20 L 0.0429688 20.015625 L 0.0429688 40 L 79.996094 40 L 79.996094 0.0351562 L 40.230469 0 M 0.0429688 2.253906 L 0 6.40625 L 8.417969 6.511719 Z M 0.0429688 2.253906 "/>
<path style=" stroke:none;fill-rule:evenodd;fill:rgb(100%,85.09804%,0%);fill-opacity:1;" d="M 0 20 L 42.210938 20 L 42.210938 40 L 0 40 Z M 0 20 "/>
<path style=" stroke:none;fill-rule:evenodd;fill:rgb(0%,0%,40.392157%);fill-opacity:1;" d="M 23.457031 10.101562 C 23.457031 12.007812 21.914062 13.550781 20.007812 13.550781 C 18.101562 13.550781 16.558594 12.007812 16.558594 10.101562 C 16.558594 8.199219 18.101562 6.652344 20.007812 6.652344 C 21.910156 6.652344 23.457031 8.199219 23.457031 10.101562 Z M 23.457031 10.101562 "/>
<path style=" stroke:none;fill-rule:evenodd;fill:rgb(100%,95.686275%,5.098039%);fill-opacity:1;" d="M 18.289062 12.421875 L 18.957031 10.441406 L 17.214844 9.214844 L 19.367188 9.21875 L 20.03125 7.234375 L 20.695312 9.21875 L 22.84375 9.214844 L 21.101562 10.441406 L 21.769531 12.421875 L 20.03125 11.195312 Z M 18.289062 12.421875 "/>
<path style=" stroke:none;fill-rule:evenodd;fill:rgb(100%,95.686275%,5.098039%);fill-opacity:1;" d="M 30.8125 11.042969 L 31.140625 10.113281 L 30.277344 9.542969 L 31.34375 9.542969 L 31.671875 8.613281 L 32.003906 9.542969 L 33.070312 9.542969 L 32.207031 10.113281 L 32.535156 11.042969 L 31.671875 10.46875 Z M 30.8125 11.042969 "/>
<path style=" stroke:none;fill-rule:evenodd;fill:rgb(100%,95.686275%,5.098039%);fill-opacity:1;" d="M 19.144531 17.941406 L 19.476562 17.011719 L 18.613281 16.4375 L 19.679688 16.441406 L 20.007812 15.511719 L 20.335938 16.441406 L 21.402344 16.4375 L 20.539062 17.011719 L 20.871094 17.941406 L 20.007812 17.367188 Z M 19.144531 17.941406 "/>
<path style=" stroke:none;fill-rule:evenodd;fill:rgb(100%,95.686275%,5.098039%);fill-opacity:1;" d="M 19.144531 4.46875 L 19.476562 3.542969 L 18.613281 2.96875 L 19.679688 2.96875 L 20.007812 2.042969 L 20.335938 2.96875 L 21.402344 2.96875 L 20.539062 3.542969 L 20.871094 4.46875 L 20.007812 3.894531 Z M 19.144531 4.46875 "/>
<path style=" stroke:none;fill-rule:evenodd;fill:rgb(100%,95.686275%,5.098039%);fill-opacity:1;" d="M 7.441406 11.042969 L 7.773438 10.113281 L 6.910156 9.542969 L 7.976562 9.542969 L 8.304688 8.613281 L 8.632812 9.542969 L 9.699219 9.542969 L 8.835938 10.113281 L 9.167969 11.042969 L 8.304688 10.46875 Z M 7.441406 11.042969 "/>
</g>
</svg>
