<?xml version="1.0" encoding="UTF-8"?>
<svg xmlns="http://www.w3.org/2000/svg" xmlns:xlink="http://www.w3.org/1999/xlink" width="40px" height="40px" viewBox="0 0 40 40" version="1.1">
<g id="surface1">
<rect x="0" y="0" width="40" height="40" style="fill:rgb(0%,0%,41.568628%);fill-opacity:1;stroke:none;"/>
<path style=" stroke:none;fill-rule:evenodd;fill:rgb(100%,100%,100%);fill-opacity:1;" d="M 0 0 L 18.898438 18.03125 L 22.773438 18.03125 L 4.285156 0.0078125 Z M 0 0 "/>
<path style=" stroke:none;fill-rule:evenodd;fill:rgb(100%,0%,0%);fill-opacity:1;" d="M 21.355469 18.027344 L 2.855469 0 L 1.414062 0.0234375 L 19.996094 18.027344 Z M 21.355469 18.027344 "/>
<path style=" stroke:none;fill-rule:evenodd;fill:rgb(100%,100%,100%);fill-opacity:1;" d="M 22.773438 0 L 3.875 18.03125 L 0 18.03125 L 18.488281 0.0078125 Z M 22.773438 0 "/>
<path style=" stroke:none;fill-rule:evenodd;fill:rgb(100%,0%,0%);fill-opacity:1;" d="M 21.351562 0 L 2.859375 18.027344 L 1.417969 18.03125 L 19.992188 0 Z M 21.351562 0 "/>
<path style=" stroke:none;fill-rule:evenodd;fill:rgb(100%,100%,100%);fill-opacity:1;" d="M 9.566406 0 L 13.207031 0 L 13.207031 18.027344 L 9.566406 18.027344 Z M 9.566406 0 "/>
<path style=" stroke:none;fill-rule:evenodd;fill:rgb(100%,100%,100%);fill-opacity:1;" d="M 0 7.210938 L 22.773438 7.210938 L 22.773438 10.816406 L 0 10.816406 Z M 0 7.210938 "/>
<path style=" stroke:none;fill-rule:evenodd;fill:rgb(100%,0%,0%);fill-opacity:1;" d="M 10.363281 0 L 12.410156 0 L 12.410156 18.027344 L 10.363281 18.027344 Z M 10.363281 0 "/>
<path style=" stroke:none;fill-rule:evenodd;fill:rgb(100%,0%,0%);fill-opacity:1;" d="M 0 8.113281 L 22.773438 8.113281 L 22.773438 9.917969 L 0 9.917969 Z M 0 8.113281 "/>
<path style=" stroke:none;fill-rule:evenodd;fill:rgb(100%,100%,100%);fill-opacity:1;" d="M 31.25 15.570312 L 29.722656 14.441406 L 28.136719 15.492188 L 28.734375 13.679688 L 27.25 12.488281 L 29.148438 12.496094 L 29.816406 10.710938 L 30.394531 12.53125 L 32.289062 12.617188 L 30.75 13.730469 Z M 31.25 15.570312 "/>
<path style=" stroke:none;fill-rule:evenodd;fill:rgb(100%,0%,0%);fill-opacity:1;" d="M 30.636719 14.65625 L 29.734375 14.003906 L 28.808594 14.628906 L 29.148438 13.5625 L 28.269531 12.871094 L 29.386719 12.863281 L 29.765625 11.8125 L 30.117188 12.875 L 31.230469 12.917969 L 30.332031 13.578125 Z M 30.636719 14.65625 "/>
<path style=" stroke:none;fill-rule:evenodd;fill:rgb(100%,100%,100%);fill-opacity:1;" d="M 25.382812 25.316406 L 23.851562 24.183594 L 22.265625 25.234375 L 22.863281 23.421875 L 21.378906 22.230469 L 23.277344 22.242188 L 23.949219 20.457031 L 24.523438 22.273438 L 26.421875 22.363281 L 24.878906 23.476562 Z M 25.382812 25.316406 "/>
<path style=" stroke:none;fill-rule:evenodd;fill:rgb(100%,0%,0%);fill-opacity:1;" d="M 24.769531 24.402344 L 23.863281 23.746094 L 22.9375 24.371094 L 23.277344 23.304688 L 22.398438 22.613281 L 23.515625 22.609375 L 23.898438 21.554688 L 24.246094 22.621094 L 25.359375 22.660156 L 24.460938 23.324219 Z M 24.769531 24.402344 "/>
<path style=" stroke:none;fill-rule:evenodd;fill:rgb(100%,100%,100%);fill-opacity:1;" d="M 37.394531 24.355469 L 35.863281 23.226562 L 34.277344 24.273438 L 34.875 22.460938 L 33.394531 21.269531 L 35.292969 21.28125 L 35.960938 19.496094 L 36.539062 21.3125 L 38.433594 21.402344 L 36.890625 22.515625 Z M 37.394531 24.355469 "/>
<path style=" stroke:none;fill-rule:evenodd;fill:rgb(100%,0%,0%);fill-opacity:1;" d="M 36.78125 23.441406 L 35.875 22.785156 L 34.949219 23.410156 L 35.289062 22.34375 L 34.414062 21.652344 L 35.527344 21.648438 L 35.910156 20.597656 L 36.257812 21.660156 L 37.371094 21.699219 L 36.472656 22.363281 Z M 36.78125 23.441406 "/>
<path style=" stroke:none;fill-rule:evenodd;fill:rgb(100%,100%,100%);fill-opacity:1;" d="M 31.113281 38.214844 L 29.585938 37.085938 L 28 38.132812 L 28.597656 36.324219 L 27.113281 35.132812 L 29.011719 35.140625 L 29.679688 33.355469 L 30.257812 35.175781 L 32.152344 35.261719 L 30.613281 36.375 Z M 31.113281 38.214844 "/>
<path style=" stroke:none;fill-rule:evenodd;fill:rgb(100%,0%,0%);fill-opacity:1;" d="M 30.5 37.300781 L 29.597656 36.648438 L 28.671875 37.273438 L 29.011719 36.207031 L 28.132812 35.515625 L 29.25 35.507812 L 29.628906 34.457031 L 29.980469 35.519531 L 31.09375 35.5625 L 30.195312 36.222656 Z M 30.5 37.300781 "/>
</g>
</svg>
