<?xml version="1.0" encoding="UTF-8"?>
<svg xmlns="http://www.w3.org/2000/svg" xmlns:xlink="http://www.w3.org/1999/xlink" width="40px" height="40px" viewBox="0 0 40 40" version="1.1">
<g id="surface1">
<rect x="0" y="0" width="40" height="40" style="fill:rgb(100%,100%,100%);fill-opacity:1;stroke:none;"/>
<path style=" stroke:none;fill-rule:evenodd;fill:rgb(85.882354%,0%,0%);fill-opacity:1;" d="M 19.949219 -1.59375 L 44.332031 -1.59375 L 44.332031 19.90625 L 19.949219 19.90625 Z M 19.949219 -1.59375 "/>
<path style=" stroke:none;fill-rule:evenodd;fill:rgb(0%,0%,67.058825%);fill-opacity:1;" d="M -4.253906 19.90625 L 19.949219 19.90625 L 19.949219 44.609375 L -4.253906 44.609375 Z M -4.253906 19.90625 "/>
<path style=" stroke:none;fill-rule:evenodd;fill:rgb(0%,0%,67.058825%);fill-opacity:1;" d="M 13.984375 14.1875 L 10.351562 11.90625 L 6.738281 14.210938 L 8.082031 10.464844 L 4.476562 8.152344 L 8.9375 8.121094 L 10.320312 4.386719 L 11.734375 8.109375 L 16.199219 8.117188 L 12.609375 10.449219 Z M 13.984375 14.1875 "/>
<path style=" stroke:none;fill-rule:evenodd;fill:rgb(84.705883%,0%,0%);fill-opacity:1;" d="M 34.003906 35.082031 L 30.371094 32.800781 L 26.757812 35.105469 L 28.101562 31.359375 L 24.496094 29.046875 L 28.957031 29.015625 L 30.34375 25.28125 L 31.753906 29.003906 L 36.21875 29.011719 L 32.628906 31.34375 Z M 34.003906 35.082031 "/>
</g>
</svg>
