<?xml version="1.0" encoding="UTF-8"?>
<svg xmlns="http://www.w3.org/2000/svg" xmlns:xlink="http://www.w3.org/1999/xlink" width="40px" height="40px" viewBox="0 0 40 40" version="1.1">
<g id="surface1">
<rect x="0" y="0" width="40" height="40" style="fill:rgb(100%,100%,100%);fill-opacity:1;stroke:none;"/>
<path style="fill-rule:evenodd;fill:rgb(3.137255%,23.921569%,61.176473%);fill-opacity:1;stroke-width:2.5;stroke-linecap:butt;stroke-linejoin:miter;stroke:rgb(3.137255%,23.921569%,61.176473%);stroke-opacity:1;stroke-miterlimit:4;" d="M 210.45 363.45 C 210.45 363.45 222 354.1 233.25 354.1 C 244.5 354.1 247.6 361.9 255.45 362.55 C 263.25 363.15 269.8 354.7 279.5 354.4 C 289.2 354.1 301.35 361.3 301.35 361.3 L 258.85 374.1 Z M 210.45 363.45 " transform="matrix(0.078125,0,0,0.078125,0,0)"/>
<path style="fill-rule:evenodd;fill:rgb(3.137255%,23.921569%,61.176473%);fill-opacity:1;stroke-width:2.5;stroke-linecap:butt;stroke-linejoin:miter;stroke:rgb(3.137255%,23.921569%,61.176473%);stroke-opacity:1;stroke-miterlimit:4;" d="M 186.05 349.7 L 330.45 350.35 C 330.45 350.35 317.95 336.9 303.25 336.6 C 288.55 336.3 292.6 342.85 281.35 343.8 C 270.1 344.7 267.3 336.9 257 337.2 C 246.7 337.55 240.75 343.8 232.95 344.1 C 225.1 344.4 215.1 336.3 209.2 336.6 C 203.25 336.9 182 345.95 182 345.95 Z M 186.05 349.7 " transform="matrix(0.078125,0,0,0.078125,0,0)"/>
<path style="fill-rule:evenodd;fill:rgb(3.137255%,23.921569%,61.176473%);fill-opacity:1;stroke-width:2.5;stroke-linecap:butt;stroke-linejoin:miter;stroke:rgb(3.137255%,23.921569%,61.176473%);stroke-opacity:1;stroke-miterlimit:4;" d="M 167.6 332.55 L 345.75 333.15 C 348.55 329.1 337 319.4 326.35 318.45 C 317.6 318.8 311.35 327.55 304.2 327.85 C 297 328.15 288.85 318.8 280.75 319.1 C 272.6 319.4 264.2 327.85 256.05 327.85 C 247.95 327.85 242 318.8 231.7 318.8 C 221.35 318.8 216.7 328.8 208.85 328.15 C 201.05 327.55 194.2 318.15 186.7 318.15 C 179.2 318.15 166.7 329.4 164.2 328.8 C 161.7 328.15 167.3 333.45 167.6 332.55 Z M 167.6 332.55 " transform="matrix(0.078125,0,0,0.078125,0,0)"/>
<path style="fill-rule:evenodd;fill:rgb(100%,0%,0%);fill-opacity:1;stroke-width:2.5;stroke-linecap:butt;stroke-linejoin:round;stroke:rgb(0%,0%,0%);stroke-opacity:1;stroke-miterlimit:4;" d="M 236.05 233.45 L 277 244.4 L 277 185.95 C 258.25 186.9 242.6 150.35 275.75 147.85 C 243.25 143.15 239.5 151.6 235.75 160.65 Z M 236.05 233.45 " transform="matrix(0.078125,0,0,0.078125,0,0)"/>
<path style="fill-rule:evenodd;fill:rgb(3.137255%,23.921569%,61.176473%);fill-opacity:1;stroke-width:4.9999;stroke-linecap:round;stroke-linejoin:miter;stroke:rgb(3.137255%,23.921569%,61.176473%);stroke-opacity:1;stroke-miterlimit:4;" d="M 210.1 275.95 L 302.6 276.3 " transform="matrix(0.078125,0,0,0.078125,0,0)"/>
<path style="fill:none;stroke-width:2;stroke-linecap:round;stroke-linejoin:miter;stroke:rgb(0%,0%,0%);stroke-opacity:1;stroke-miterlimit:4;" d="M 171.25 126.900022 L 176.725 134.225022 " transform="matrix(0.15625,0,0,0.15625,-10,-0.00000344094)"/>
<path style="fill:none;stroke-width:2;stroke-linecap:round;stroke-linejoin:miter;stroke:rgb(0%,0%,0%);stroke-opacity:1;stroke-miterlimit:4;" d="M 171.25 134.250022 L 177.2 127.050022 " transform="matrix(0.15625,0,0,0.15625,-10,-0.00000344094)"/>
<path style="fill:none;stroke-width:2;stroke-linecap:round;stroke-linejoin:miter;stroke:rgb(0%,0%,0%);stroke-opacity:1;stroke-miterlimit:4;" d="M 174.375 126.425022 L 174.225 130.950022 " transform="matrix(0.15625,0,0,0.15625,-10,-0.00000344094)"/>
<path style="fill:none;stroke-width:2;stroke-linecap:round;stroke-linejoin:miter;stroke:rgb(0%,0%,0%);stroke-opacity:1;stroke-miterlimit:4;" d="M 171.25 126.900022 L 176.725 134.225022 " transform="matrix(0.15625,0,0,0.15625,-8.632812,-0.00000344094)"/>
<path style="fill:none;stroke-width:2;stroke-linecap:round;stroke-linejoin:miter;stroke:rgb(0%,0%,0%);stroke-opacity:1;stroke-miterlimit:4;" d="M 171.25 134.250022 L 177.2 127.050022 " transform="matrix(0.15625,0,0,0.15625,-8.632812,-0.00000344094)"/>
<path style="fill:none;stroke-width:2;stroke-linecap:round;stroke-linejoin:miter;stroke:rgb(0%,0%,0%);stroke-opacity:1;stroke-miterlimit:4;" d="M 174.375 126.425022 L 174.225 130.950022 " transform="matrix(0.15625,0,0,0.15625,-8.632812,-0.00000344094)"/>
<path style="fill:none;stroke-width:2;stroke-linecap:round;stroke-linejoin:miter;stroke:rgb(0%,0%,0%);stroke-opacity:1;stroke-miterlimit:4;" d="M 171.244002 126.900022 L 176.719002 134.225022 " transform="matrix(0.15625,0,0,0.15625,-7.24125,-0.00000344094)"/>
<path style="fill:none;stroke-width:2;stroke-linecap:round;stroke-linejoin:miter;stroke:rgb(0%,0%,0%);stroke-opacity:1;stroke-miterlimit:4;" d="M 171.244002 134.250022 L 177.194002 127.050022 " transform="matrix(0.15625,0,0,0.15625,-7.24125,-0.00000344094)"/>
<path style="fill:none;stroke-width:2;stroke-linecap:round;stroke-linejoin:miter;stroke:rgb(0%,0%,0%);stroke-opacity:1;stroke-miterlimit:4;" d="M 174.369002 126.425022 L 174.219002 130.950022 " transform="matrix(0.15625,0,0,0.15625,-7.24125,-0.00000344094)"/>
<path style="fill:none;stroke-width:2;stroke-linecap:round;stroke-linejoin:miter;stroke:rgb(0%,0%,0%);stroke-opacity:1;stroke-miterlimit:4;" d="M 171.2505 126.900022 L 176.7255 134.225022 " transform="matrix(0.15625,0,0,0.15625,-5.800859,-0.00000344094)"/>
<path style="fill:none;stroke-width:2;stroke-linecap:round;stroke-linejoin:miter;stroke:rgb(0%,0%,0%);stroke-opacity:1;stroke-miterlimit:4;" d="M 171.2505 134.250022 L 177.2005 127.050022 " transform="matrix(0.15625,0,0,0.15625,-5.800859,-0.00000344094)"/>
<path style="fill:none;stroke-width:2;stroke-linecap:round;stroke-linejoin:miter;stroke:rgb(0%,0%,0%);stroke-opacity:1;stroke-miterlimit:4;" d="M 174.3755 126.425022 L 174.2255 130.950022 " transform="matrix(0.15625,0,0,0.15625,-5.800859,-0.00000344094)"/>
<path style="fill:none;stroke-width:2;stroke-linecap:round;stroke-linejoin:miter;stroke:rgb(0%,0%,0%);stroke-opacity:1;stroke-miterlimit:4;" d="M 171.2445 126.900022 L 176.7195 134.225022 " transform="matrix(0.15625,0,0,0.15625,-4.409297,-0.00000344094)"/>
<path style="fill:none;stroke-width:2;stroke-linecap:round;stroke-linejoin:miter;stroke:rgb(0%,0%,0%);stroke-opacity:1;stroke-miterlimit:4;" d="M 171.2445 134.250022 L 177.1945 127.050022 " transform="matrix(0.15625,0,0,0.15625,-4.409297,-0.00000344094)"/>
<path style="fill:none;stroke-width:2;stroke-linecap:round;stroke-linejoin:miter;stroke:rgb(0%,0%,0%);stroke-opacity:1;stroke-miterlimit:4;" d="M 174.3695 126.425022 L 174.2195 130.950022 " transform="matrix(0.15625,0,0,0.15625,-4.409297,-0.00000344094)"/>
<path style=" stroke:none;fill-rule:evenodd;fill:rgb(93.725491%,49.019608%,3.137255%);fill-opacity:1;" d="M 11.558594 21.632812 L 14.632812 21.65625 L 14.632812 19.730469 L 11.117188 19.558594 Z M 11.558594 21.632812 "/>
<path style=" stroke:none;fill-rule:evenodd;fill:rgb(93.725491%,49.019608%,3.137255%);fill-opacity:1;" d="M 11.410156 18.972656 L 14.683594 19.289062 L 14.65625 17.921875 L 11.460938 16.652344 Z M 11.410156 18.972656 "/>
<path style=" stroke:none;fill-rule:evenodd;fill:rgb(93.725491%,49.019608%,3.137255%);fill-opacity:1;" d="M 12.070312 16.238281 L 14.585938 17.457031 L 14.945312 17.085938 C 14.945312 17.085938 14.710938 16.925781 14.722656 16.777344 C 14.730469 16.628906 14.957031 16.605469 14.960938 16.445312 C 14.964844 16.296875 14.703125 16.28125 14.699219 16.132812 C 14.683594 15.972656 14.902344 15.796875 14.902344 15.796875 L 12.632812 13.820312 Z M 12.070312 16.238281 "/>
<path style=" stroke:none;fill-rule:evenodd;fill:rgb(93.725491%,49.019608%,3.137255%);fill-opacity:1;" d="M 28.574219 21.65625 L 25.328125 21.65625 L 25.300781 19.777344 L 28.867188 19.507812 Z M 28.574219 21.65625 "/>
<path style=" stroke:none;fill-rule:evenodd;fill:rgb(93.725491%,49.019608%,3.137255%);fill-opacity:1;" d="M 25.351562 19.339844 L 29.207031 18.875 L 28.378906 16.652344 L 25.328125 17.945312 Z M 25.351562 19.339844 "/>
<path style=" stroke:none;fill-rule:evenodd;fill:rgb(93.725491%,49.019608%,3.137255%);fill-opacity:1;" d="M 28.160156 16.042969 L 25.375 17.507812 C 25.335938 17.347656 25.300781 17.195312 25.105469 17.066406 C 25.105469 17.066406 25.277344 16.96875 25.277344 16.800781 C 25.277344 16.628906 25.058594 16.605469 25.058594 16.507812 C 25.058594 16.410156 25.257812 16.324219 25.273438 16.105469 C 25.246094 15.953125 25.058594 15.738281 25.09375 15.695312 L 27.253906 14.039062 Z M 28.160156 16.042969 "/>
<path style=" stroke:none;fill-rule:evenodd;fill:rgb(93.725491%,49.019608%,3.137255%);fill-opacity:1;" d="M 22.128906 19.300781 L 23.519531 19.242188 L 23.542969 18.679688 Z M 22.128906 19.300781 "/>
<path style=" stroke:none;fill-rule:evenodd;fill:rgb(93.725491%,49.019608%,3.137255%);fill-opacity:1;" d="M 17.878906 19.257812 L 16.414062 19.214844 L 16.414062 18.628906 Z M 17.878906 19.257812 "/>
<path style=" stroke:none;fill-rule:evenodd;fill:rgb(93.725491%,49.019608%,3.137255%);fill-opacity:1;" d="M 17.875 19.089844 L 16.414062 18.335938 L 16.414062 17.359375 C 16.414062 17.359375 16.246094 17.386719 16.269531 17.191406 C 16.277344 16.78125 17.339844 17.933594 17.886719 18.308594 Z M 17.875 19.089844 "/>
<path style=" stroke:none;fill-rule:evenodd;fill:rgb(93.725491%,49.019608%,3.137255%);fill-opacity:1;" d="M 22.128906 18.996094 L 22.121094 18.363281 C 22.121094 18.363281 23.441406 17.171875 23.722656 16.953125 C 23.722656 17.195312 23.570312 17.386719 23.570312 17.386719 L 23.570312 18.3125 Z M 22.128906 18.996094 "/>
<path style=" stroke:none;fill-rule:evenodd;fill:rgb(93.725491%,49.019608%,3.137255%);fill-opacity:1;" d="M 13.582031 13.648438 C 13.609375 13.675781 15.0625 15.292969 15.0625 15.292969 C 15.105469 15.136719 15.4375 15.113281 15.78125 15.140625 C 16.121094 15.164062 16.394531 15.117188 16.394531 15.359375 C 16.394531 15.605469 16.222656 15.570312 16.222656 15.742188 C 16.222656 15.910156 16.480469 15.898438 16.480469 16.117188 C 16.480469 16.335938 16.292969 16.292969 16.292969 16.460938 C 16.292969 16.601562 16.488281 16.609375 16.488281 16.609375 L 17.875 17.953125 L 17.878906 16.519531 L 15.023438 12.039062 Z M 13.582031 13.648438 "/>
<path style=" stroke:none;fill-rule:evenodd;fill:rgb(93.725491%,49.019608%,3.137255%);fill-opacity:1;" d="M 15.871094 11.953125 C 15.890625 12.019531 17.804688 15.910156 17.804688 15.910156 C 17.804688 15.910156 17.824219 12.257812 18.152344 12.0625 L 17.609375 11.0625 Z M 15.871094 11.953125 "/>
<path style=" stroke:none;fill-rule:evenodd;fill:rgb(93.725491%,49.019608%,3.137255%);fill-opacity:1;" d="M 24.28125 12.105469 L 22.121094 15.960938 L 22.125 14.335938 C 22.125 14.335938 22.304688 14.0625 22.019531 14.085938 C 21.738281 14.105469 21.390625 14.0625 21.390625 14.0625 L 22.261719 11.019531 Z M 24.28125 12.105469 "/>
<path style=" stroke:none;fill-rule:evenodd;fill:rgb(93.725491%,49.019608%,3.137255%);fill-opacity:1;" d="M 26.5 13.757812 C 26.476562 13.800781 25.042969 15.261719 25.042969 15.261719 C 24.976562 15.085938 24.542969 15.171875 24.128906 15.171875 C 23.714844 15.171875 23.660156 15.304688 23.679688 15.410156 C 23.722656 15.695312 23.863281 15.484375 23.863281 15.746094 C 23.863281 16.007812 23.664062 15.914062 23.644531 16.105469 C 23.664062 16.324219 23.960938 16.269531 23.789062 16.433594 L 22.125 18.03125 L 22.128906 16.519531 L 25.214844 11.714844 Z M 26.5 13.757812 "/>
<path style="fill-rule:evenodd;fill:rgb(100%,0%,0%);fill-opacity:1;stroke-width:2.5;stroke-linecap:butt;stroke-linejoin:round;stroke:rgb(0%,0%,0%);stroke-opacity:1;stroke-miterlimit:4;" d="M 245.15 286.3 C 236.25 301.05 212.45 296.65 206.85 286.35 C 205.2 285.9 206.2 222.85 206.2 222.85 C 206.2 222.85 203.5 221.65 203.4 219.7 C 203.3 217.75 207 217.55 207 215.05 C 207 212.55 203.2 213.55 203.1 211 C 203.15 208.6 207.2 208.95 207 206.7 C 206.8 204.2 202.45 204.55 202.3 202.25 C 202.15 200.4 205.4 198.8 206.3 198 C 205.7 198 203.3 197.95 203.25 197.95 C 201 198 198.7 198.05 196.45 198.1 C 191.6 198.1 196.55 199.15 196.45 201.95 C 196.4 203.75 194 204.95 193.8 206.55 C 193.7 208.2 197.25 209.35 197.3 211.3 C 197.3 213.05 193.8 213.15 193.95 214.8 C 194.15 217.5 197.05 218.15 197 219.8 C 196.95 221.45 193.1 222.1 193.1 223.4 C 193.25 225.95 193.65 288.25 193.65 288.25 C 199.8 319.95 235.1 328.05 245.15 286.3 Z M 245.15 286.3 " transform="matrix(0.078125,0,0,0.078125,0,0)"/>
<path style="fill-rule:evenodd;fill:rgb(100%,0%,0%);fill-opacity:1;stroke-width:2.5;stroke-linecap:butt;stroke-linejoin:round;stroke:rgb(0%,0%,0%);stroke-opacity:1;stroke-miterlimit:4;" d="M 268.45 286.3 C 277.35 301.05 301.15 296.65 306.7 286.35 C 308.4 285.9 307.4 222.85 307.4 222.85 C 307.4 222.85 310.05 221.65 310.2 219.7 C 310.3 217.75 306.8 217.55 306.8 215.05 C 306.8 212.55 310.4 213.55 310.45 211 C 310.45 208.6 306.7 208.8 306.85 206.55 C 307.1 204.05 310.05 204.35 310.2 202 C 310.35 200.05 308.35 198.8 307.45 198 C 308.05 198 310.3 197.95 310.3 197.95 C 312.6 198 314.85 198.05 317.15 198.1 C 322 198.1 317.05 199.15 317.1 201.95 C 317.15 203.75 319.6 204.95 319.8 206.55 C 319.85 208.2 316.35 209.35 316.3 211.3 C 316.25 213.05 319.75 213.15 319.65 214.8 C 319.4 217.5 316.55 218.15 316.6 219.8 C 316.6 221.45 320.45 222.1 320.45 223.4 C 320.35 225.95 319.9 288.25 319.9 288.25 C 313.8 319.95 278.45 328.05 268.45 286.3 Z M 268.45 286.3 " transform="matrix(0.078125,0,0,0.078125,0,0)"/>
<path style="fill-rule:evenodd;fill:rgb(3.137255%,23.921569%,61.176473%);fill-opacity:1;stroke-width:2.5;stroke-linecap:butt;stroke-linejoin:miter;stroke:rgb(3.137255%,23.921569%,61.176473%);stroke-opacity:1;stroke-miterlimit:4;" d="M 236.5 315.3 L 276.25 315.3 C 276.55 314.95 267.35 301.55 256.4 302.5 C 244.15 302.8 235.85 315.3 236.5 315.3 Z M 236.5 315.3 " transform="matrix(0.078125,0,0,0.078125,0,0)"/>
<path style="fill-rule:evenodd;fill:rgb(3.137255%,23.921569%,61.176473%);fill-opacity:1;stroke-width:2.5;stroke-linecap:butt;stroke-linejoin:miter;stroke:rgb(3.137255%,23.921569%,61.176473%);stroke-opacity:1;stroke-miterlimit:4;" d="M 363.3 314.35 L 308.85 314.35 C 308.85 314.35 315.9 310.15 317.85 306.35 C 321.35 308.25 320.4 310.15 327.45 310.5 C 334.5 310.8 341.2 302.5 347.9 302.8 C 354.65 303.15 363.3 314.65 363.3 314.35 Z M 363.3 314.35 " transform="matrix(0.078125,0,0,0.078125,0,0)"/>
<path style="fill-rule:evenodd;fill:rgb(3.137255%,23.921569%,61.176473%);fill-opacity:1;stroke-width:2.5;stroke-linecap:butt;stroke-linejoin:miter;stroke:rgb(3.137255%,23.921569%,61.176473%);stroke-opacity:1;stroke-miterlimit:4;" d="M 148.85 314.35 L 203.3 314.35 C 203.3 314.35 196.25 310.15 194.3 306.35 C 190.8 308.25 191.75 310.15 184.7 310.5 C 177.7 310.8 170.95 302.5 164.25 302.8 C 157.5 303.15 148.85 314.65 148.85 314.35 Z M 148.85 314.35 " transform="matrix(0.078125,0,0,0.078125,0,0)"/>
<path style="fill-rule:evenodd;fill:rgb(3.137255%,23.921569%,61.176473%);fill-opacity:1;stroke-width:2.5;stroke-linecap:butt;stroke-linejoin:miter;stroke:rgb(3.137255%,23.921569%,61.176473%);stroke-opacity:1;stroke-miterlimit:4;" d="M 152.95 297.2 L 191.7 297.55 C 191.7 297.55 189.2 292.2 188.85 285.65 C 178.85 282.2 170.75 293.15 163.55 293.45 C 156.35 293.8 148.85 285.65 148.85 285.65 Z M 152.95 297.2 " transform="matrix(0.078125,0,0,0.078125,0,0)"/>
<path style="fill-rule:evenodd;fill:rgb(3.137255%,23.921569%,61.176473%);fill-opacity:1;stroke-width:2.5;stroke-linecap:butt;stroke-linejoin:miter;stroke:rgb(3.137255%,23.921569%,61.176473%);stroke-opacity:1;stroke-miterlimit:4;" d="M 359.8 297.2 L 321.05 297.55 C 321.05 297.55 323.55 292.2 323.85 285.65 C 333.85 282.2 342 293.15 349.2 293.45 C 356.35 293.8 363.85 285.65 363.85 285.65 Z M 359.8 297.2 " transform="matrix(0.078125,0,0,0.078125,0,0)"/>
<path style="fill-rule:evenodd;fill:rgb(3.137255%,23.921569%,61.176473%);fill-opacity:1;stroke-width:2.5;stroke-linecap:butt;stroke-linejoin:miter;stroke:rgb(3.137255%,23.921569%,61.176473%);stroke-opacity:1;stroke-miterlimit:4;" d="M 246.35 297.55 L 266.05 296.9 C 266.05 296.9 266.35 290.95 256.05 290.95 C 245.75 290.95 246.7 297.85 246.35 297.55 Z M 246.35 297.55 " transform="matrix(0.078125,0,0,0.078125,0,0)"/>
<path style="fill-rule:evenodd;fill:rgb(3.137255%,23.921569%,61.176473%);fill-opacity:1;stroke-width:2.5;stroke-linecap:butt;stroke-linejoin:miter;stroke:rgb(3.137255%,23.921569%,61.176473%);stroke-opacity:1;stroke-miterlimit:4;" d="M 234.5 289.1 C 237.95 287.2 241.05 285.35 243.25 280.95 L 229.8 281.3 C 229.8 281.3 223.55 285.05 220.45 289.1 Z M 234.5 289.1 " transform="matrix(0.078125,0,0,0.078125,0,0)"/>
<path style="fill-rule:evenodd;fill:rgb(3.137255%,23.921569%,61.176473%);fill-opacity:1;stroke-width:2.5;stroke-linecap:butt;stroke-linejoin:miter;stroke:rgb(3.137255%,23.921569%,61.176473%);stroke-opacity:1;stroke-miterlimit:4;" d="M 277.95 289.1 C 274.5 287.2 271.35 285.35 269.2 280.95 L 282.6 281.3 C 282.6 281.3 288.85 285.05 292 289.1 Z M 277.95 289.1 " transform="matrix(0.078125,0,0,0.078125,0,0)"/>
<path style=" stroke:none;fill-rule:evenodd;fill:rgb(87.058824%,12.54902%,6.27451%);fill-opacity:1;" d="M -10 30 L 50 30 L 50 40 L -10 40 Z M -10 30 "/>
<path style=" stroke:none;fill-rule:evenodd;fill:rgb(87.058824%,12.54902%,6.27451%);fill-opacity:1;" d="M -10 0 L 50 0 L 50 10 L -10 10 Z M -10 0 "/>
</g>
</svg>
