<?xml version="1.0" encoding="UTF-8"?>
<svg xmlns="http://www.w3.org/2000/svg" xmlns:xlink="http://www.w3.org/1999/xlink" width="40px" height="40px" viewBox="0 0 40 40" version="1.1">
<g id="surface1">
<path style=" stroke:none;fill-rule:evenodd;fill:rgb(0%,0%,0%);fill-opacity:1;" d="M -6.519531 0 L -6.5625 40 L 46.578125 40 Z M -6.519531 0 "/>
<path style=" stroke:none;fill-rule:evenodd;fill:rgb(100%,0%,0%);fill-opacity:1;" d="M 46.535156 40 L 46.578125 0 L -6.5625 0 L 46.539062 40 Z M 46.535156 40 "/>
<path style="fill-rule:nonzero;fill:rgb(100%,80.000001%,0%);fill-opacity:1;stroke-width:1;stroke-linecap:butt;stroke-linejoin:miter;stroke:rgb(100%,80.000001%,0%);stroke-opacity:1;stroke-miterlimit:4;" d="M 177.991636 53.997406 L 174.155883 53.806678 C 172.990323 51.030526 169.641987 49.970926 167.607554 51.136486 C 165.742658 51.306022 155.994337 51.009334 155.994337 51.009334 L 163.11485 54.124558 C 164.873786 58.871567 170.998275 59.994743 170.998275 59.994743 C 170.447283 68.768232 162.118825 58.871567 155.125464 63.87288 C 150.124152 66.860952 150.060576 70.442401 147.347999 76.227818 C 146.521511 77.83841 143.003638 81.992043 143.003638 81.992043 L 148.873823 81.504626 L 146.987735 84.005283 L 154.002288 83.009259 C 154.002288 83.009259 153.048648 83.793363 152.497656 84.386739 C 153.536064 84.577467 160.487041 82.754955 160.487041 82.754955 L 159.999625 85.001307 C 163.559882 83.560251 167.98901 82.119195 167.98901 82.119195 C 167.98901 82.119195 169.557219 83.433099 170.998275 84.005283 L 171.994299 79.999994 L 175.999588 80.996018 L 176.995612 76.99073 C 182.992949 85.001307 184.984997 92.990692 196.004839 95.003933 L 194.987623 90.998644 C 198.060463 92.312548 203.73992 95.088701 203.73992 95.088701 L 204.5876 93.266188 C 209.355801 96.678101 213.318706 96.614525 215.988898 96.995981 C 215.988898 96.995981 213.99685 92.01586 213.99685 91.994668 C 214.124002 92.058244 215.988898 93.011884 215.988898 92.990692 C 215.988898 92.990692 213.000825 85.001307 213.000825 85.001307 C 213.000825 85.001307 215.988898 85.997331 215.988898 85.997331 L 212.004801 79.999994 L 213.488242 79.00397 L 213.000825 75.994706 C 218.998162 78.007946 226.987548 80.996018 228.004764 87.989379 C 229.000788 99.009221 216.984922 101.997294 208.995537 101.00127 C 214.992874 106.002582 225.991524 103.989342 230.992836 99.009221 C 232.984885 96.995981 234.002101 94.007908 234.998125 90.998644 C 235.994149 94.007908 237.986197 97.992005 237.986197 101.997294 C 236.990173 111.003895 224.995499 113.991968 216.984922 115.009184 C 225.991524 119.989305 241.991486 113.991968 242.98751 101.00127 C 242.98751 90.00262 235.994149 85.001307 232.984885 79.999994 C 232.539853 78.177482 231.98886 74.617225 231.98886 74.617225 C 232.391509 74.723185 234.998125 76.015898 234.998125 76.015898 C 234.998125 76.015898 233.217997 72.688753 232.984885 71.989417 C 232.984885 71.989417 229.86966 63.491424 228.746484 61.626527 C 228.937212 61.520567 230.992836 61.965599 230.992836 61.965599 L 222.812723 51.70867 C 222.812723 51.70867 224.783579 51.517942 225.122651 51.454366 C 225.122651 51.454366 215.607442 43.952397 213.000825 42.998756 C 213.000825 42.998756 215.988898 42.002732 215.988898 42.002732 C 209.991561 38.993468 202.9982 41.006708 197.000863 44.990805 L 197.996887 42.002732 L 196.174375 42.172268 L 196.174375 38.739164 C 196.174375 38.739164 197.996887 36.005395 197.996887 36.005395 C 197.996887 36.005395 194.987623 35.009371 194.987623 35.009371 L 197.000863 30.008058 C 197.000863 30.008058 193.991599 31.004083 193.991599 31.004083 L 194.987623 26.00277 C 194.987623 26.00277 192.762462 27.041178 191.384982 26.892834 C 191.448558 26.998794 192.995574 23.459729 192.995574 23.459729 C 192.041934 21.976289 192.995574 19.009409 192.995574 19.009409 C 186.002213 20.005433 184.984997 21.001457 181.0009 26.998794 C 175.003564 37.997444 176.995612 42.998756 177.991636 53.997406 Z M 177.991636 53.997406 " transform="matrix(0.184327,0,0,0.184327,-6.5625,-0.0000334843)"/>
<path style="fill-rule:evenodd;fill:rgb(100%,0%,0%);fill-opacity:1;stroke-width:1.25;stroke-linecap:butt;stroke-linejoin:miter;stroke:rgb(100%,0%,0%);stroke-opacity:1;stroke-miterlimit:4;" d="M 215.776978 70.442401 C 216.306778 71.290081 221.986235 74.023849 226.245828 76.46093 C 225.101459 71.841073 216.773002 70.823857 215.776978 70.442401 Z M 215.776978 70.442401 " transform="matrix(0.184327,0,0,0.184327,-6.5625,-0.0000334843)"/>
<path style=" stroke:none;fill-rule:evenodd;fill:rgb(100%,100%,100%);fill-opacity:1;" d="M 7.871094 33.253906 L 6.695312 32.503906 L 5.125 33.257812 L 5.472656 31.914062 L 4.269531 30.648438 L 5.65625 30.5625 L 6.488281 29.03125 L 6.996094 30.324219 L 8.710938 30.640625 L 7.640625 31.523438 Z M 7.871094 33.253906 "/>
<path style=" stroke:none;fill-rule:evenodd;fill:rgb(100%,100%,100%);fill-opacity:1;" d="M 10.878906 26.675781 L 10.332031 26.414062 L 9.8125 26.714844 L 9.890625 26.117188 L 9.445312 25.710938 L 10.035156 25.601562 L 10.28125 25.050781 L 10.570312 25.582031 L 11.167969 25.648438 L 10.753906 26.085938 Z M 10.878906 26.675781 "/>
<path style=" stroke:none;fill-rule:evenodd;fill:rgb(100%,100%,100%);fill-opacity:1;" d="M 13.527344 22.902344 L 12.335938 22.316406 L 11.179688 22.972656 L 11.363281 21.65625 L 10.386719 20.757812 L 11.695312 20.527344 L 12.246094 19.320312 L 12.871094 20.492188 L 14.1875 20.644531 L 13.265625 21.597656 Z M 13.527344 22.902344 "/>
<path style=" stroke:none;fill-rule:evenodd;fill:rgb(100%,100%,100%);fill-opacity:1;" d="M 8.074219 17.648438 L 6.667969 16.945312 L 5.292969 17.703125 L 5.527344 16.148438 L 4.382812 15.074219 L 5.929688 14.816406 L 6.597656 13.394531 L 7.320312 14.789062 L 8.882812 14.984375 L 7.777344 16.105469 Z M 8.074219 17.648438 "/>
<path style=" stroke:none;fill-rule:evenodd;fill:rgb(100%,100%,100%);fill-opacity:1;" d="M 3.023438 23.101562 L 1.609375 22.261719 L 0.195312 23.121094 L 0.558594 21.515625 L -0.699219 20.4375 L 0.941406 20.285156 L 1.582031 18.757812 L 2.230469 20.273438 L 3.882812 20.40625 L 2.644531 21.496094 Z M 3.023438 23.101562 "/>
</g>
</svg>
