<?xml version="1.0" encoding="UTF-8"?>
<svg xmlns="http://www.w3.org/2000/svg" xmlns:xlink="http://www.w3.org/1999/xlink" width="40px" height="40px" viewBox="0 0 40 40" version="1.1">
<g id="surface1">
<rect x="0" y="0" width="40" height="40" style="fill:rgb(96.078432%,0%,7.450981%);fill-opacity:1;stroke:none;"/>
<path style=" stroke:none;fill-rule:evenodd;fill:rgb(0%,9.411765%,60.392159%);fill-opacity:1;" d="M -10.859375 0 L 49.140625 0 L 49.140625 20 L -10.859375 20 Z M -10.859375 0 "/>
<path style=" stroke:none;fill-rule:evenodd;fill:rgb(99.607843%,100%,100%);fill-opacity:1;" d="M -10.859375 0 L 23.570312 19.972656 L -10.859375 39.921875 Z M -10.859375 0 "/>
<path style=" stroke:none;fill-rule:evenodd;fill:rgb(92.54902%,63.921571%,0%);fill-opacity:1;" d="M 1.152344 16.105469 L 1.796875 13.738281 L 1.355469 13.175781 L 0.832031 16.066406 Z M -0.214844 16.105469 L -0.613281 12.851562 L 0.152344 11.96875 L 0.914062 12.691406 L 0.550781 16.066406 Z M -0.816406 16.144531 L -1.457031 13.773438 L -1.011719 13.210938 L -0.496094 16.105469 Z M -0.816406 16.144531 "/>
<path style=" stroke:none;fill-rule:evenodd;fill:rgb(92.54902%,63.921571%,0%);fill-opacity:1;" d="M 3.628906 18.015625 L 5.78125 16.835938 L 5.882812 16.128906 L 3.4375 17.757812 Z M 2.683594 17.03125 L 4.75 14.488281 L 5.914062 14.425781 L 5.921875 15.476562 L 3.242188 17.554688 Z M 2.238281 16.625 L 3.5 14.519531 L 4.210938 14.449219 L 2.488281 16.828125 Z M 2.238281 16.625 "/>
<path style=" stroke:none;fill-rule:evenodd;fill:rgb(92.54902%,63.921571%,0%);fill-opacity:1;" d="M 4.011719 20.984375 L 6.382812 21.628906 L 6.945312 21.1875 L 4.054688 20.664062 Z M 4.015625 19.617188 L 7.269531 19.222656 L 8.152344 19.988281 L 7.425781 20.75 L 4.054688 20.382812 Z M 3.976562 19.015625 L 6.347656 18.378906 L 6.90625 18.820312 L 4.015625 19.335938 Z M 3.976562 19.015625 "/>
<path style=" stroke:none;fill-rule:evenodd;fill:rgb(92.54902%,63.921571%,0%);fill-opacity:1;" d="M 2.210938 23.398438 L 3.453125 25.515625 L 4.164062 25.589844 L 2.460938 23.195312 Z M 3.164062 22.421875 L 5.769531 24.410156 L 5.867188 25.574219 L 4.816406 25.613281 L 2.660156 22.996094 Z M 3.554688 21.964844 L 5.699219 23.160156 L 5.792969 23.871094 L 3.359375 22.222656 Z M 3.554688 21.964844 "/>
<path style=" stroke:none;fill-rule:evenodd;fill:rgb(92.54902%,63.921571%,0%);fill-opacity:1;" d="M -0.835938 23.851562 L -1.464844 26.222656 L -1.019531 26.78125 L -0.515625 23.886719 Z M 0.527344 23.84375 L 0.949219 27.09375 L 0.191406 27.980469 L -0.574219 27.261719 L -0.234375 23.886719 Z M 1.132812 23.796875 L 1.789062 26.164062 L 1.347656 26.730469 L 0.808594 23.839844 Z M 1.132812 23.796875 "/>
<path style=" stroke:none;fill-rule:evenodd;fill:rgb(92.54902%,63.921571%,0%);fill-opacity:1;" d="M 17.617188 22.0625 L 16.703125 20.777344 L 15.210938 21.296875 L 16.132812 19.964844 L 15.226562 18.667969 L 16.710938 19.132812 L 17.644531 17.808594 L 17.640625 19.425781 L 19.121094 19.90625 L 17.636719 20.441406 Z M 17.617188 22.0625 "/>
<path style=" stroke:none;fill-rule:evenodd;fill:rgb(92.54902%,63.921571%,0%);fill-opacity:1;" d="M 4.265625 19.972656 C 4.265625 17.699219 2.421875 15.851562 0.144531 15.851562 C -2.132812 15.851562 -3.976562 17.699219 -3.976562 19.972656 C -3.976562 22.25 -2.132812 24.097656 0.144531 24.097656 C 2.421875 24.097656 4.265625 22.25 4.265625 19.972656 Z M 4.265625 19.972656 "/>
</g>
</svg>
