<?xml version="1.0" encoding="UTF-8"?>
<svg xmlns="http://www.w3.org/2000/svg" xmlns:xlink="http://www.w3.org/1999/xlink" width="40px" height="40px" viewBox="0 0 40 40" version="1.1">
<g id="surface1">
<rect x="0" y="0" width="40" height="40" style="fill:rgb(4.705882%,34.901962%,4.313726%);fill-opacity:1;stroke:none;"/>
<path style=" stroke:none;fill-rule:evenodd;fill:rgb(100%,100%,100%);fill-opacity:1;" d="M -7.421875 0 L 7.617188 0 L 7.617188 40 L -7.421875 40 Z M -7.421875 0 "/>
<path style=" stroke:none;fill-rule:evenodd;fill:rgb(100%,100%,100%);fill-opacity:1;" d="M 31.539062 17.609375 L 29.105469 17.097656 L 27.824219 19.230469 L 27.558594 16.757812 L 25.132812 16.199219 L 27.40625 15.179688 L 27.1875 12.703125 L 28.855469 14.546875 L 31.144531 13.574219 L 29.90625 15.730469 Z M 31.539062 17.609375 "/>
<path style=" stroke:none;fill-rule:evenodd;fill:rgb(100%,100%,100%);fill-opacity:1;" d="M 32.457031 23.914062 C 30.296875 28.675781 24.625 30.753906 19.847656 28.542969 C 15.070312 26.332031 12.988281 20.660156 15.203125 15.882812 C 16.332031 13.445312 18.179688 11.769531 20.785156 10.859375 C 20.484375 11.109375 20.1875 11.375 19.863281 11.710938 C 16.496094 15.183594 16.582031 20.742188 20.058594 24.109375 C 23.535156 27.476562 29.089844 27.386719 32.457031 23.914062 Z M 32.457031 23.914062 "/>
</g>
</svg>
