<?xml version="1.0" encoding="UTF-8"?>
<svg xmlns="http://www.w3.org/2000/svg" xmlns:xlink="http://www.w3.org/1999/xlink" width="40px" height="40px" viewBox="0 0 40 40" version="1.1">
<defs>
<clipPath id="clip1">
  <path d="M 0 0 L 40 0 L 40 20 L 0 20 Z M 0 0 "/>
</clipPath>
</defs>
<g id="surface1">
<rect x="0" y="0" width="40" height="40" style="fill:rgb(0%,14.117648%,49.019608%);fill-opacity:1;stroke:none;"/>
<g clip-path="url(#clip1)" clip-rule="nonzero">
<path style=" stroke:none;fill-rule:nonzero;fill:rgb(0%,14.117648%,49.019608%);fill-opacity:1;" d="M 46.667969 10 C 46.667969 -4.726562 34.726562 -16.667969 20 -16.667969 C 5.273438 -16.667969 -6.667969 -4.726562 -6.667969 10 C -6.667969 24.726562 5.273438 36.667969 20 36.667969 C 34.726562 36.667969 46.667969 24.726562 46.667969 10 Z M 46.667969 10 "/>
<path style="fill-rule:nonzero;fill:rgb(0%,0%,0%);fill-opacity:1;stroke-width:3;stroke-linecap:butt;stroke-linejoin:miter;stroke:rgb(100%,100%,100%);stroke-opacity:1;stroke-miterlimit:4;" d="M -20.000977 -9.999023 L 20.000977 9.999023 M -20.000977 9.999023 L 20.000977 -9.999023 " transform="matrix(1.333333,0,0,1.333333,20,10)"/>
<path style="fill-rule:nonzero;fill:rgb(0%,0%,0%);fill-opacity:1;stroke-width:2;stroke-linecap:butt;stroke-linejoin:miter;stroke:rgb(81.176472%,7.843138%,16.862746%);stroke-opacity:1;stroke-miterlimit:4;" d="M -20.000977 -9.999023 L 20.000977 9.999023 M -20.000977 9.999023 L 20.000977 -9.999023 " transform="matrix(1.333333,0,0,1.333333,20,10)"/>
<path style=" stroke:none;fill-rule:nonzero;fill:rgb(100%,100%,100%);fill-opacity:1;" d="M 20 10 L 46.667969 23.332031 L 42.667969 23.332031 L 16 10 M 20 10 L 46.667969 -3.332031 L 50.667969 -3.332031 L 24 10 M 20 10 L -6.667969 23.332031 L -10.667969 23.332031 L 16 10 M 20 10 L -6.667969 -3.332031 L -2.667969 -3.332031 L 24 10 "/>
<path style="fill-rule:nonzero;fill:rgb(0%,0%,0%);fill-opacity:1;stroke-width:5;stroke-linecap:butt;stroke-linejoin:miter;stroke:rgb(100%,100%,100%);stroke-opacity:1;stroke-miterlimit:4;" d="M -20.000977 0 L 20.000977 0 M 0 -9.999023 L 0 9.999023 " transform="matrix(1.333333,0,0,1.333333,20,10)"/>
<path style="fill-rule:nonzero;fill:rgb(0%,0%,0%);fill-opacity:1;stroke-width:3;stroke-linecap:butt;stroke-linejoin:miter;stroke:rgb(81.176472%,7.843138%,16.862746%);stroke-opacity:1;stroke-miterlimit:4;" d="M -20.000977 0 L 20.000977 0 M 0 -9.999023 L 0 9.999023 " transform="matrix(1.333333,0,0,1.333333,20,10)"/>
</g>
<path style="fill-rule:nonzero;fill:rgb(96.862745%,87.843138%,9.019608%);fill-opacity:1;stroke-width:0.125;stroke-linecap:butt;stroke-linejoin:miter;stroke:rgb(0%,0%,0%);stroke-opacity:1;stroke-miterlimit:4;" d="M 197.841366 77.26283 C 195.128922 79.56655 192.552719 82.910659 191.921054 85.932743 C 190.137529 94.441643 187.771881 96.336638 184.118132 94.503571 C 184.118132 99.073854 188.131063 99.433036 189.889817 96.757749 C 189.889817 101.043163 191.438016 104.75884 194.943138 107.929551 C 196.417023 109.267194 196.701892 108.363046 195.995913 106.876776 C 195.30232 105.40289 195.30232 100.622053 193.890363 97.884837 C 196.14454 99.494964 199.451493 98.57843 199.166624 94.156775 C 196.280782 95.841215 193.41971 95.779287 193.122456 91.766356 C 192.763274 87.047446 194.608727 80.222986 197.841366 77.26283 Z M 197.841366 77.26283 " transform="matrix(0.315387,0,0,0.315387,-42.751999,0.757333)"/>
<path style="fill-rule:nonzero;fill:rgb(96.862745%,87.843138%,9.019608%);fill-opacity:1;stroke-width:0.125;stroke-linecap:butt;stroke-linejoin:miter;stroke:rgb(0%,0%,0%);stroke-opacity:1;stroke-miterlimit:4;" d="M 194.422943 43.400627 C 194.608727 41.716187 194.249545 39.982204 193.010986 38.892272 C 190.632953 36.786722 188.292076 37.480315 186.558094 39.177141 C 183.95712 37.765184 182.569934 42.756576 179.622163 41.914356 C 180.117587 43.524483 180.885493 44.230462 182.359379 43.67311 C 180.81118 45.072682 182.359379 46.769508 180.538697 48.453948 C 183.845649 49.506723 185.592018 47.673656 185.455776 44.51533 C 186.719106 45.642419 188.688415 45.568105 189.74119 44.304775 C 187.982436 43.735038 187.982436 42.21161 188.688415 40.787268 C 189.74119 38.681717 194.695426 38.756031 194.422943 43.400627 Z M 194.422943 43.400627 " transform="matrix(0.315387,0,0,0.315387,-42.751999,0.757333)"/>
<path style="fill-rule:nonzero;fill:rgb(20%,45.09804%,12.941177%);fill-opacity:1;stroke-width:0.125;stroke-linecap:butt;stroke-linejoin:miter;stroke:rgb(0%,0%,0%);stroke-opacity:1;stroke-miterlimit:4;" d="M 202.052467 67.862167 C 198.324404 69.831476 191.499944 68.97687 190.868279 64.134105 C 190.236614 59.278953 194.943138 57.09909 196.218854 56.467424 C 198.188162 55.476577 199.723976 57.235331 199.092311 59.278953 C 201.272174 58.511047 201.767598 55.972001 200.714823 54.498116 C 203.600665 54.708671 206.263567 52.528807 207.390656 49.432409 C 206.387423 50.398485 203.625436 49.742049 201.358873 49.605808 C 202.064852 48.825515 202.052467 47.326859 201.841911 46.558953 C 199.451493 49.011299 196.008299 47.884211 191.438016 54.993539 C 192.131609 52.528807 193.469253 47.611728 194.249545 44.379089 C 194.323858 44.044678 194.385786 43.735038 194.422943 43.400627 C 194.695426 38.756031 189.753576 38.681717 188.700801 40.787268 C 189.85266 42.087755 189.245767 43.611182 188.837042 45.914902 C 188.341618 48.664503 187.288843 54.993539 186.37231 57.09909 C 186.087441 53.792137 183.907577 53.581582 183.486467 51.971455 C 182.854802 52.392565 182.508006 53.519654 182.644247 54.287561 C 181.863955 53.445341 179.201053 54.498116 178.210206 53.234786 C 177.157431 55.340336 178.841871 57.458272 180.600625 58.36242 C 179.585006 58.436733 179.337295 59.662907 178.210206 59.662907 C 179.721248 61.42166 181.269447 62.127639 183.065357 62.263881 C 184.861268 62.412508 186.198911 63.08133 187.288843 65.261193 C 189.047597 68.778701 195.735816 71.057649 202.052467 67.862167 Z M 202.052467 67.862167 " transform="matrix(0.315387,0,0,0.315387,-42.751999,0.757333)"/>
<path style="fill-rule:nonzero;fill:rgb(96.862745%,87.843138%,9.019608%);fill-opacity:1;stroke-width:0.125;stroke-linecap:butt;stroke-linejoin:miter;stroke:rgb(0%,0%,0%);stroke-opacity:1;stroke-miterlimit:4;" d="M 211.329273 63.564368 C 209.223723 69.410366 203.452038 73.547153 200.851064 74.191204 C 196.429409 75.26875 187.400314 79.640863 184.972738 81.907426 C 184.588785 81.820727 184.229603 81.684486 183.981891 81.498702 C 182.780489 80.656482 181.802027 77.906881 183.907577 75.590775 C 190.521482 69.410366 197.618425 72.073268 202.052467 67.862167 C 198.324404 69.831476 191.499944 68.97687 190.868279 64.134105 C 194.88121 65.18688 202.114394 65.261193 207.886079 59.068398 C 208.653986 59.910618 210.908163 62.585906 211.329273 63.564368 Z M 211.329273 63.564368 " transform="matrix(0.315387,0,0,0.315387,-42.751999,0.757333)"/>
<path style="fill-rule:nonzero;fill:rgb(20%,45.09804%,12.941177%);fill-opacity:1;stroke-width:0.125;stroke-linecap:butt;stroke-linejoin:miter;stroke:rgb(0%,0%,0%);stroke-opacity:1;stroke-miterlimit:4;" d="M 197.841366 77.26283 C 194.497257 80.09913 192.763274 87.047446 193.122456 91.766356 C 193.221541 93.079228 193.580723 93.958605 194.138075 94.503571 C 194.385786 91.840669 196.243625 84.92951 200.987306 81.845498 C 205.000237 79.244524 211.25496 73.410912 213.583451 66.735079 C 213.162341 65.533676 212.456362 64.691456 211.118718 63.849236 C 208.827384 70.153501 202.65936 73.175585 197.841366 77.26283 Z M 197.841366 77.26283 " transform="matrix(0.315387,0,0,0.315387,-42.751999,0.757333)"/>
<path style="fill-rule:nonzero;fill:rgb(19.215687%,42.745098%,22.745098%);fill-opacity:1;stroke-width:0.125;stroke-linecap:butt;stroke-linejoin:miter;stroke:rgb(0%,0%,0%);stroke-opacity:1;stroke-miterlimit:4;" d="M 209.186566 60.864309 C 207.99755 62.660219 205.285105 65.112566 202.684132 66.103413 C 203.253869 65.471748 203.427267 64.654299 203.464424 63.985478 C 200.157471 65.261193 193.543566 65.112566 190.868279 64.134105 C 194.88121 65.18688 202.12678 65.261193 207.886079 59.068398 C 208.455817 59.700063 208.938855 60.269801 209.186566 60.864309 Z M 209.186566 60.864309 " transform="matrix(0.315387,0,0,0.315387,-42.751999,0.757333)"/>
<path style="fill-rule:nonzero;fill:rgb(20%,45.09804%,12.941177%);fill-opacity:1;stroke-width:0.125;stroke-linecap:butt;stroke-linejoin:miter;stroke:rgb(0%,0%,0%);stroke-opacity:1;stroke-miterlimit:4;" d="M 183.907577 75.590775 C 178.532231 80.619325 182.086896 85.016209 184.192446 85.994671 C 183.635094 89.512178 186.929661 89.091068 186.867733 92.038839 C 188.192991 91.270932 188.552173 89.22731 188.341618 87.617183 C 190.026059 89.437865 194.311473 87.406628 195.228006 90.775509 C 195.797744 87.047446 192.911901 83.331769 189.32008 83.678566 C 190.806351 82.340922 189.951745 80.161058 188.552173 79.603706 C 188.267305 82.340922 185.170907 82.340922 183.981891 81.498702 C 182.780489 80.656482 181.802027 77.906881 183.907577 75.590775 Z M 183.907577 75.590775 " transform="matrix(0.315387,0,0,0.315387,-42.751999,0.757333)"/>
<path style="fill-rule:nonzero;fill:rgb(96.862745%,87.843138%,9.019608%);fill-opacity:1;stroke-width:0.125;stroke-linecap:butt;stroke-linejoin:miter;stroke:rgb(0%,0%,0%);stroke-opacity:1;stroke-miterlimit:4;" d="M 195.550032 107.582754 C 194.967909 107.917165 195.005066 108.672686 195.376634 109.16811 C 196.107383 110.146571 194.856439 112.375977 197.234472 112.859015 C 197.940451 112.995257 198.485417 112.561761 198.745514 111.769084 C 199.488649 109.552063 197.135387 109.304351 196.924832 108.251576 C 196.714277 107.198801 196.045455 107.297886 195.550032 107.582754 Z M 195.550032 107.582754 " transform="matrix(0.315387,0,0,0.315387,-42.751999,0.757333)"/>
<path style="fill-rule:nonzero;fill:rgb(96.862745%,87.843138%,9.019608%);fill-opacity:1;stroke-width:0.125;stroke-linecap:butt;stroke-linejoin:miter;stroke:rgb(0%,0%,0%);stroke-opacity:1;stroke-miterlimit:4;" d="M 197.544112 111.731927 C 196.76382 112.091109 196.070227 112.611304 196.392252 115.137964 C 196.516108 116.190739 196.45418 118.729785 195.550032 118.766942 C 196.107383 119.039425 197.308786 119.336679 197.791824 118.692628 C 198.274862 119.485306 199.340022 119.24998 199.761132 118.271518 C 200.33087 118.729785 201.098776 117.949493 201.098776 117.280671 C 201.5942 117.602696 202.572661 117.14443 202.32495 115.633388 C 202.931843 115.843943 203.69975 115.422833 203.984619 115.038879 C 203.105242 114.853095 200.888221 113.664079 200.368026 112.710388 C 199.835446 111.769084 198.460645 111.310817 197.544112 111.731927 Z M 197.544112 111.731927 " transform="matrix(0.315387,0,0,0.315387,-42.751999,0.757333)"/>
<path style="fill:none;stroke-width:0.125;stroke-linecap:butt;stroke-linejoin:miter;stroke:rgb(0%,0%,0%);stroke-opacity:1;stroke-miterlimit:4;" d="M 185.369077 40.626255 C 185.728259 40.093675 186.124598 39.598251 186.558094 39.177141 " transform="matrix(0.315387,0,0,0.315387,-42.751999,0.757333)"/>
<path style="fill:none;stroke-width:0.125;stroke-linecap:butt;stroke-linejoin:miter;stroke:rgb(0%,0%,0%);stroke-opacity:1;stroke-miterlimit:4;" d="M 198.745514 49.927833 C 199.377179 49.568651 200.318484 49.531494 201.358873 49.605808 " transform="matrix(0.315387,0,0,0.315387,-42.751999,0.757333)"/>
<path style="fill:none;stroke-width:0.125;stroke-linecap:butt;stroke-linejoin:miter;stroke:rgb(0%,0%,0%);stroke-opacity:1;stroke-miterlimit:4;" d="M 197.804209 118.692628 C 197.556497 118.333446 197.469798 116.859561 197.643197 115.967799 " transform="matrix(0.315387,0,0,0.315387,-42.751999,0.757333)"/>
<path style="fill:none;stroke-width:0.125;stroke-linecap:butt;stroke-linejoin:miter;stroke:rgb(0%,0%,0%);stroke-opacity:1;stroke-miterlimit:4;" d="M 199.773518 118.271518 C 199.377179 117.974264 198.646429 116.94626 198.522573 116.054498 " transform="matrix(0.315387,0,0,0.315387,-42.751999,0.757333)"/>
<path style="fill:none;stroke-width:0.125;stroke-linecap:butt;stroke-linejoin:miter;stroke:rgb(0%,0%,0%);stroke-opacity:1;stroke-miterlimit:4;" d="M 201.098776 117.293057 C 200.603353 117.05773 199.414336 115.509532 199.141853 114.518685 " transform="matrix(0.315387,0,0,0.315387,-42.751999,0.757333)"/>
<path style="fill:none;stroke-width:0.125;stroke-linecap:butt;stroke-linejoin:miter;stroke:rgb(0%,0%,0%);stroke-opacity:1;stroke-miterlimit:4;" d="M 202.32495 115.645773 C 201.755212 115.521917 199.971687 114.357672 199.240938 113.131498 " transform="matrix(0.315387,0,0,0.315387,-42.751999,0.757333)"/>
<path style="fill-rule:nonzero;fill:rgb(96.862745%,87.843138%,9.019608%);fill-opacity:1;stroke-width:0.125;stroke-linecap:butt;stroke-linejoin:miter;stroke:rgb(0%,0%,0%);stroke-opacity:1;stroke-miterlimit:4;" d="M 234.750424 75.665089 C 243.395566 82.910659 243.965303 88.669958 242.627659 92.051224 C 241.921681 88.880513 238.329859 83.963434 234.614182 82.700104 Z M 234.750424 75.665089 " transform="matrix(0.315387,0,0,0.315387,-42.751999,0.757333)"/>
<path style="fill-rule:nonzero;fill:rgb(20%,45.09804%,12.941177%);fill-opacity:1;stroke-width:0.125;stroke-linecap:butt;stroke-linejoin:miter;stroke:rgb(0%,0%,0%);stroke-opacity:1;stroke-miterlimit:4;" d="M 219.280822 71.59023 L 235.307775 71.59023 L 235.307775 90.564954 C 235.307775 106.740534 226.315837 116.302209 217.175272 121.367916 C 208.034706 116.302209 199.030383 106.740534 199.030383 90.564954 L 199.030383 71.59023 L 210.276498 71.59023 C 210.301269 72.568691 210.387969 74.042577 211.539828 75.516462 C 214.20273 75.256364 217.200043 73.27467 219.280822 71.59023 Z M 219.280822 71.59023 " transform="matrix(0.315387,0,0,0.315387,-42.751999,0.757333)"/>
<path style="fill-rule:nonzero;fill:rgb(0%,43.137255%,78.039217%);fill-opacity:1;stroke-width:0.125;stroke-linecap:butt;stroke-linejoin:miter;stroke:rgb(0%,0%,0%);stroke-opacity:1;stroke-miterlimit:4;" d="M 235.307775 71.59023 L 235.307775 90.564954 C 235.307775 95.444876 234.490327 99.73029 233.090755 103.470738 L 217.175272 74.253132 L 201.247403 103.470738 C 199.860217 99.73029 199.030383 95.457262 199.030383 90.564954 L 199.030383 71.59023 L 235.320161 71.59023 Z M 235.307775 71.59023 " transform="matrix(0.315387,0,0,0.315387,-42.751999,0.757333)"/>
<path style=" stroke:none;fill-rule:nonzero;fill:rgb(96.862745%,87.843138%,9.019608%);fill-opacity:1;" d="M 30.917969 32.945312 C 30.828125 33.21875 30.667969 33.65625 30.542969 33.929688 L 25.742188 25.007812 L 20.941406 33.929688 C 20.816406 33.65625 20.65625 33.21875 20.566406 32.945312 L 25.742188 23.351562 Z M 30.917969 32.945312 "/>
<path style="fill-rule:nonzero;fill:rgb(96.862745%,87.843138%,9.019608%);fill-opacity:1;stroke-width:0.125;stroke-linecap:butt;stroke-linejoin:miter;stroke:rgb(0%,0%,0%);stroke-opacity:1;stroke-miterlimit:4;" d="M 224.408456 112.475062 C 224.829566 112.685617 225.609859 113.06957 225.956655 113.205812 C 226.798875 111.521372 226.947502 109.130953 226.662634 107.025403 C 225.7461 109.341508 222.662088 109.27958 221.807482 110.679152 C 222.327677 110.939249 222.810715 111.286046 223.231825 111.5833 C 222.17905 112.636075 219.701932 114.407214 218.302361 114.828324 L 218.302361 99.742676 C 218.302361 98.689901 217.943178 97.810524 217.943178 96.931147 L 217.943178 93.822364 C 217.943178 93.116385 217.806937 92.088381 217.175272 92.088381 C 216.543607 92.088381 216.39498 93.116385 216.39498 93.822364 L 216.39498 96.931147 C 216.39498 97.810524 216.048183 98.838528 216.048183 99.742676 L 216.048183 114.828324 C 215.267891 112.574147 212.245807 113.354439 210.83385 111.100262 C 211.391201 110.96402 211.973324 110.926863 212.530676 111.025948 C 211.4779 107.446513 208.592058 107.161644 208.034706 106.108869 C 208.034706 107.582754 207.403041 111.025948 208.381503 112.512219 C 208.604444 112.239736 208.938855 111.967253 209.335193 111.731927 C 210.52421 114.332901 215.911942 114.332901 217.175272 118.6307 C 218.19089 117.045345 221.844639 115.224663 224.408456 112.475062 Z M 224.408456 112.475062 " transform="matrix(0.315387,0,0,0.315387,-42.751999,0.757333)"/>
<path style="fill-rule:nonzero;fill:rgb(96.862745%,87.843138%,9.019608%);fill-opacity:1;stroke-width:0.125;stroke-linecap:butt;stroke-linejoin:miter;stroke:rgb(0%,0%,0%);stroke-opacity:1;stroke-miterlimit:4;" d="M 217.175272 99.916074 C 218.364288 99.916074 222.166665 99.532121 223.529079 99.532121 C 223.888262 99.532121 224.185516 98.99954 224.185516 98.343104 C 224.185516 97.674282 223.888262 97.141702 223.529079 97.141702 C 222.166665 97.141702 218.364288 96.757749 217.175272 96.757749 C 215.97387 96.757749 212.183879 97.141702 210.809079 97.141702 C 210.449897 97.141702 210.165028 97.674282 210.165028 98.343104 C 210.165028 98.99954 210.449897 99.532121 210.809079 99.532121 C 212.183879 99.532121 215.97387 99.916074 217.175272 99.916074 Z M 217.175272 99.916074 " transform="matrix(0.315387,0,0,0.315387,-42.751999,0.757333)"/>
<path style="fill-rule:nonzero;fill:rgb(96.862745%,87.843138%,9.019608%);fill-opacity:1;stroke-width:0.125;stroke-linecap:butt;stroke-linejoin:miter;stroke:rgb(0%,0%,0%);stroke-opacity:1;stroke-miterlimit:4;" d="M 216.39498 93.735665 C 216.147268 93.537495 215.812857 93.413639 215.453675 93.413639 C 214.648611 93.413639 214.004561 93.995762 214.004561 94.726512 C 214.004561 95.457262 214.648611 96.039384 215.453675 96.039384 C 216.246353 96.039384 216.890403 95.457262 216.890403 94.726512 C 216.890403 94.16916 217.707852 94.16916 217.707852 94.726512 C 217.707852 95.865986 216.692234 96.794905 215.453675 96.794905 C 214.20273 96.794905 213.187112 95.865986 213.187112 94.726512 C 213.187112 93.587038 214.20273 92.670504 215.453675 92.670504 C 215.825243 92.670504 216.172039 92.744817 216.481679 92.893444 C 216.456908 93.079228 216.39498 93.43841 216.39498 93.735665 Z M 216.39498 93.735665 " transform="matrix(0.315387,0,0,0.315387,-42.751999,0.757333)"/>
<path style="fill-rule:nonzero;fill:rgb(96.862745%,87.843138%,9.019608%);fill-opacity:1;stroke-width:0.125;stroke-linecap:butt;stroke-linejoin:miter;stroke:rgb(0%,0%,0%);stroke-opacity:1;stroke-miterlimit:4;" d="M 210.809079 99.532121 C 211.168261 99.532121 211.453129 98.99954 211.453129 98.343104 C 211.453129 97.674282 211.168261 97.141702 210.809079 97.141702 " transform="matrix(0.315387,0,0,0.315387,-42.751999,0.757333)"/>
<path style="fill-rule:nonzero;fill:rgb(96.862745%,87.843138%,9.019608%);fill-opacity:1;stroke-width:0.125;stroke-linecap:butt;stroke-linejoin:miter;stroke:rgb(0%,0%,0%);stroke-opacity:1;stroke-miterlimit:4;" d="M 211.341659 99.532121 C 211.700841 99.532121 211.98571 98.99954 211.98571 98.343104 C 211.98571 97.674282 211.700841 97.141702 211.341659 97.141702 " transform="matrix(0.315387,0,0,0.315387,-42.751999,0.757333)"/>
<path style="fill-rule:nonzero;fill:rgb(96.862745%,87.843138%,9.019608%);fill-opacity:1;stroke-width:0.125;stroke-linecap:butt;stroke-linejoin:miter;stroke:rgb(0%,0%,0%);stroke-opacity:1;stroke-miterlimit:4;" d="M 214.809624 99.779832 C 215.24312 99.779832 215.589916 99.135782 215.589916 98.343104 C 215.589916 97.550426 215.24312 96.906376 214.809624 96.906376 " transform="matrix(0.315387,0,0,0.315387,-42.751999,0.757333)"/>
<path style="fill-rule:nonzero;fill:rgb(96.862745%,87.843138%,9.019608%);fill-opacity:1;stroke-width:0.125;stroke-linecap:butt;stroke-linejoin:miter;stroke:rgb(0%,0%,0%);stroke-opacity:1;stroke-miterlimit:4;" d="M 215.614688 99.84176 C 216.072954 99.84176 216.432136 99.172939 216.432136 98.343104 C 216.432136 97.51327 216.072954 96.832062 215.614688 96.832062 " transform="matrix(0.315387,0,0,0.315387,-42.751999,0.757333)"/>
<path style="fill-rule:nonzero;fill:rgb(96.862745%,87.843138%,9.019608%);fill-opacity:1;stroke-width:0.125;stroke-linecap:butt;stroke-linejoin:miter;stroke:rgb(0%,0%,0%);stroke-opacity:1;stroke-miterlimit:4;" d="M 218.314746 99.854146 C 218.773013 99.854146 219.144581 99.172939 219.144581 98.343104 C 219.144581 97.500884 218.773013 96.819676 218.314746 96.819676 " transform="matrix(0.315387,0,0,0.315387,-42.751999,0.757333)"/>
<path style="fill-rule:nonzero;fill:rgb(96.862745%,87.843138%,9.019608%);fill-opacity:1;stroke-width:0.125;stroke-linecap:butt;stroke-linejoin:miter;stroke:rgb(0%,0%,0%);stroke-opacity:1;stroke-miterlimit:4;" d="M 219.169352 99.816989 C 219.615233 99.816989 219.986801 99.148167 219.986801 98.343104 C 219.986801 97.525655 219.615233 96.869219 219.169352 96.869219 " transform="matrix(0.315387,0,0,0.315387,-42.751999,0.757333)"/>
<path style="fill-rule:nonzero;fill:rgb(96.862745%,87.843138%,9.019608%);fill-opacity:1;stroke-width:0.125;stroke-linecap:butt;stroke-linejoin:miter;stroke:rgb(0%,0%,0%);stroke-opacity:1;stroke-miterlimit:4;" d="M 222.934571 99.556892 C 223.306139 99.556892 223.603393 99.011926 223.603393 98.343104 C 223.603393 97.661897 223.306139 97.116931 222.934571 97.116931 " transform="matrix(0.315387,0,0,0.315387,-42.751999,0.757333)"/>
<path style="fill-rule:nonzero;fill:rgb(96.862745%,87.843138%,9.019608%);fill-opacity:1;stroke-width:0.125;stroke-linecap:butt;stroke-linejoin:miter;stroke:rgb(0%,0%,0%);stroke-opacity:1;stroke-miterlimit:4;" d="M 209.335193 111.731927 C 209.768689 111.459444 210.288884 111.236503 210.83385 111.100262 " transform="matrix(0.315387,0,0,0.315387,-42.751999,0.757333)"/>
<path style="fill-rule:nonzero;fill:rgb(96.862745%,87.843138%,9.019608%);fill-opacity:1;stroke-width:0.125;stroke-linecap:butt;stroke-linejoin:miter;stroke:rgb(0%,0%,0%);stroke-opacity:1;stroke-miterlimit:4;" d="M 223.64055 111.868168 C 223.516694 111.781469 223.368067 111.682384 223.231825 111.570914 " transform="matrix(0.315387,0,0,0.315387,-42.751999,0.757333)"/>
<path style="fill-rule:nonzero;fill:rgb(96.862745%,87.843138%,9.019608%);fill-opacity:1;stroke-width:0.125;stroke-linecap:butt;stroke-linejoin:miter;stroke:rgb(0%,0%,0%);stroke-opacity:1;stroke-miterlimit:4;" d="M 224.408456 112.475062 C 225.399304 111.409901 226.216752 110.220885 226.662634 108.846084 " transform="matrix(0.315387,0,0,0.315387,-42.751999,0.757333)"/>
<path style="fill-rule:nonzero;fill:rgb(100%,100%,100%);fill-opacity:1;stroke-width:0.125;stroke-linecap:butt;stroke-linejoin:miter;stroke:rgb(0%,0%,0%);stroke-opacity:1;stroke-miterlimit:4;" d="M 213.955018 85.003824 C 213.955018 84.669413 214.227501 84.520786 214.561912 84.273074 C 214.958251 83.963434 215.119264 83.827193 215.478446 83.827193 L 220.085885 83.827193 C 220.432682 83.827193 220.506996 83.913892 220.506996 84.235917 L 220.506996 90.503026 C 220.506996 90.825051 220.432682 90.91175 220.085885 90.91175 L 213.955018 90.91175 L 213.955018 84.941896 " transform="matrix(0.315387,0,0,0.315387,-42.751999,0.757333)"/>
<path style="fill-rule:nonzero;fill:rgb(89.803922%,89.803922%,89.803922%);fill-opacity:1;stroke-width:0.125;stroke-linecap:butt;stroke-linejoin:miter;stroke:rgb(0%,0%,0%);stroke-opacity:1;stroke-miterlimit:4;" d="M 218.946411 91.456716 C 219.553305 91.456716 219.441835 91.44433 219.87533 91.02322 C 220.321212 90.577339 220.271669 90.614496 220.271669 90.205771 L 220.271669 84.471243 C 220.271669 84.173989 220.197356 84.08729 219.887716 84.08729 L 215.614688 84.08729 C 215.280277 84.08729 215.131649 84.223532 214.772467 84.496015 C 214.462828 84.731341 214.20273 84.867582 214.20273 85.189608 L 214.20273 91.456716 Z M 218.946411 91.456716 " transform="matrix(0.315387,0,0,0.315387,-42.751999,0.757333)"/>
<path style="fill-rule:nonzero;fill:rgb(100%,100%,100%);fill-opacity:1;stroke-width:0.125;stroke-linecap:butt;stroke-linejoin:miter;stroke:rgb(0%,0%,0%);stroke-opacity:1;stroke-miterlimit:4;" d="M 219.404678 91.320475 C 219.404678 91.6425 219.317979 91.729199 218.983568 91.729199 L 214.363743 91.729199 C 214.016946 91.729199 213.942633 91.6425 213.942633 91.320475 L 213.942633 85.053366 C 213.942633 84.731341 214.016946 84.644642 214.363743 84.644642 L 218.983568 84.644642 C 219.317979 84.644642 219.404678 84.731341 219.404678 85.053366 Z M 219.404678 91.320475 " transform="matrix(0.315387,0,0,0.315387,-42.751999,0.757333)"/>
<path style="fill-rule:nonzero;fill:rgb(58.823532%,52.941179%,49.019608%);fill-opacity:1;stroke-width:0.125;stroke-linecap:butt;stroke-linejoin:miter;stroke:rgb(0%,0%,0%);stroke-opacity:1;stroke-miterlimit:4;" d="M 228.347074 67.91171 C 229.251222 68.914942 229.548476 70.264972 229.053053 71.577844 L 227.715409 71.577844 C 228.285146 69.893404 227.925964 68.283277 225.535545 68.072722 C 221.968495 67.750697 217.806937 74.674242 211.552214 75.528847 C 209.719147 73.348984 209.818231 69.187425 212.134337 67.218117 C 210.932935 63.762537 208.406274 59.960161 206.64752 58.312877 C 205.508046 58.127094 204.182788 58.040394 203.315797 58.089937 C 204.23233 56.120628 206.833304 54.039849 208.95124 53.197629 C 209.285651 52.702205 209.657219 52.219167 210.004015 51.798057 C 210.21457 49.085613 223.083198 50.348943 225.820414 52.033383 C 225.820414 55.067853 227.00943 65.162109 228.347074 67.91171 Z M 228.347074 67.91171 " transform="matrix(0.315387,0,0,0.315387,-42.751999,0.757333)"/>
<path style=" stroke:none;fill-rule:nonzero;fill:rgb(0%,0%,0%);fill-opacity:1;" d="M 24.347656 22.757812 C 24.25 21.277344 23.652344 20.0625 22.8125 19.230469 C 23.210938 19.34375 24.03125 19.34375 24.585938 18.945312 C 25.320312 18.457031 27.226562 17.601562 27.925781 17.96875 C 27.980469 18.089844 28.011719 18.367188 27.96875 18.542969 C 27.800781 18.101562 25.960938 18.789062 25.441406 19 C 24.941406 19.230469 24.71875 19.542969 24.898438 20.242188 C 24.609375 19.996094 24.707031 19.765625 24.410156 19.585938 C 24.53125 19.875 24.632812 20.394531 24.664062 20.816406 C 24.554688 20.519531 24.355469 19.875 23.921875 19.496094 C 24.296875 20.230469 24.625 21.988281 24.46875 22.917969 C 24.769531 22.917969 25.429688 22.625 25.695312 22.414062 C 25.460938 22.746094 24.792969 22.980469 24.359375 23.066406 C 24.164062 23.300781 24.03125 23.898438 24.042969 24.234375 C 24.011719 23.820312 24.140625 22.820312 24.347656 22.757812 Z M 24.347656 22.757812 "/>
<path style=" stroke:none;fill-rule:nonzero;fill:rgb(0%,0%,0%);fill-opacity:1;" d="M 29.265625 22.175781 C 28.898438 21.765625 28.214844 21.542969 27.335938 21.78125 C 27.472656 21.714844 27.757812 21.605469 28.015625 21.558594 C 27.980469 21.328125 27.769531 20.328125 27.738281 20.085938 L 27.980469 19.984375 C 28.101562 20.585938 28.257812 21.273438 28.359375 21.550781 C 28.433594 21.570312 28.613281 21.605469 28.769531 21.683594 C 28.703125 21.449219 28.324219 19.773438 28.335938 19.597656 L 28.667969 19.421875 C 28.800781 20.328125 29.011719 21.648438 29.265625 22.175781 Z M 29.265625 22.175781 "/>
<path style="fill-rule:nonzero;fill:rgb(58.823532%,52.941179%,49.019608%);fill-opacity:1;stroke-width:0.125;stroke-linecap:butt;stroke-linejoin:miter;stroke:rgb(0%,0%,0%);stroke-opacity:1;stroke-miterlimit:4;" d="M 227.715409 71.577844 C 228.285146 69.893404 227.925964 68.283277 225.535545 68.072722 C 223.690092 67.899324 221.671241 69.70762 219.293208 71.577844 Z M 227.715409 71.577844 " transform="matrix(0.315387,0,0,0.315387,-42.751999,0.757333)"/>
<path style="fill-rule:nonzero;fill:rgb(58.823532%,52.941179%,49.019608%);fill-opacity:1;stroke-width:0.125;stroke-linecap:butt;stroke-linejoin:miter;stroke:rgb(0%,0%,0%);stroke-opacity:1;stroke-miterlimit:4;" d="M 212.183879 56.430268 C 211.131104 56.566509 208.765456 56.355954 207.57644 55.972001 C 207.638368 55.662361 207.762223 55.32795 207.923236 54.981154 C 207.180101 55.476577 205.780529 56.430268 205.247949 57.09909 C 206.944775 57.445886 210.425125 57.63167 212.183879 56.430268 Z M 212.183879 56.430268 " transform="matrix(0.315387,0,0,0.315387,-42.751999,0.757333)"/>
<path style="fill:none;stroke-width:0.125;stroke-linecap:butt;stroke-linejoin:miter;stroke:rgb(0%,0%,0%);stroke-opacity:1;stroke-miterlimit:4;" d="M 212.134337 67.218117 C 212.530676 68.345205 212.778387 69.422752 212.815544 70.388828 " transform="matrix(0.315387,0,0,0.315387,-42.751999,0.757333)"/>
<path style="fill:none;stroke-width:0.125;stroke-linecap:butt;stroke-linejoin:miter;stroke:rgb(0%,0%,0%);stroke-opacity:1;stroke-miterlimit:4;" d="M 208.95124 53.197629 C 208.307189 54.126548 207.762223 55.129781 207.57644 55.972001 C 208.765456 56.355954 211.131104 56.578895 212.183879 56.430268 " transform="matrix(0.315387,0,0,0.315387,-42.751999,0.757333)"/>
<path style="fill:none;stroke-width:0.125;stroke-linecap:butt;stroke-linejoin:miter;stroke:rgb(0%,0%,0%);stroke-opacity:1;stroke-miterlimit:4;" d="M 206.64752 58.312877 C 207.105787 58.387191 207.526897 58.47389 207.886079 58.572975 C 209.14941 58.932157 211.762769 58.932157 213.509137 57.656441 C 215.267891 56.393111 220.048729 52.454493 225.473617 52.033383 " transform="matrix(0.315387,0,0,0.315387,-42.751999,0.757333)"/>
<path style="fill:none;stroke-width:0.125;stroke-linecap:butt;stroke-linejoin:miter;stroke:rgb(0%,0%,0%);stroke-opacity:1;stroke-miterlimit:4;" d="M 205.247949 57.09909 C 206.932389 57.445886 210.425125 57.63167 212.171494 56.430268 C 216.258738 53.655896 220.18497 52.033383 224.123588 51.822828 " transform="matrix(0.315387,0,0,0.315387,-42.751999,0.757333)"/>
<path style="fill-rule:nonzero;fill:rgb(20%,45.09804%,12.941177%);fill-opacity:1;stroke-width:0.125;stroke-linecap:butt;stroke-linejoin:miter;stroke:rgb(0%,0%,0%);stroke-opacity:1;stroke-miterlimit:4;" d="M 234.750424 75.665089 C 240.65835 79.739948 245.018078 83.678566 246.281408 90.007602 C 247.544738 96.336638 249.935157 98.021079 252.895313 96.336638 C 252.189335 99.990388 248.535586 100.411498 245.439188 97.599969 C 245.724057 101.823455 244.027231 106.876776 239.667503 108.709843 C 239.39502 106.183182 241.067075 104.176717 240.584037 102.095938 C 240.373482 101.19179 240.299168 99.073854 241.50057 98.095392 C 239.184465 98.863299 235.518331 97.389414 235.171534 93.94622 C 237.846821 95.20955 241.290015 95.420105 242.627659 92.051224 C 243.965303 88.669958 243.395566 82.910659 234.750424 75.665089 Z M 234.750424 75.665089 " transform="matrix(0.315387,0,0,0.315387,-42.751999,0.757333)"/>
<path style="fill-rule:nonzero;fill:rgb(20%,45.09804%,12.941177%);fill-opacity:1;stroke-width:0.125;stroke-linecap:butt;stroke-linejoin:miter;stroke:rgb(0%,0%,0%);stroke-opacity:1;stroke-miterlimit:4;" d="M 242.194163 42.756576 C 244.027231 37.975739 248.808069 38.471162 250.430581 40.502399 C 255.137105 37.839497 255.76877 43.883665 259.781701 42.682263 C 259.707388 43.809352 258.369744 44.862127 256.895859 44.800199 C 258.444057 46.19977 256.264194 48.317706 259.571146 49.581036 C 256.759617 50.980608 252.821 49.506723 251.768225 45.642419 C 250.851691 47.463101 247.544738 47.463101 246.207095 45.989215 C 249.092937 45.221309 248.882382 42.546021 247.25987 41.493246 C 245.637358 40.428086 242.763901 40.861581 242.194163 42.756576 Z M 242.194163 42.756576 " transform="matrix(0.315387,0,0,0.315387,-42.751999,0.757333)"/>
<path style="fill-rule:nonzero;fill:rgb(20%,45.09804%,12.941177%);fill-opacity:1;stroke-width:0.125;stroke-linecap:butt;stroke-linejoin:miter;stroke:rgb(0%,0%,0%);stroke-opacity:1;stroke-miterlimit:4;" d="M 227.938349 53.284328 C 229.251222 57.5202 231.963666 61.446432 234.886665 64.134105 C 238.267931 67.230502 243.358409 66.45021 246.207095 63.50244 C 246.281408 69.385595 240.187698 69.843862 236.794046 67.998409 C 235.29539 67.18096 234.081602 67.614455 235.518331 68.914942 C 237.698194 70.884251 242.466646 72.345751 248.114475 73.559539 C 257.948634 75.665089 254.443512 83.468011 251.557669 83.393697 C 252.375118 83.381311 253.056326 82.51432 251.867309 81.449159 C 243.333638 73.770094 225.956655 76.792178 226.241524 59.638136 C 224.408456 64.134105 216.890403 62.375351 220.407911 57.024776 C 221.534999 57.94131 223.504308 58.015623 224.06166 56.603666 C 224.495155 55.513734 224.210287 53.606353 222.240978 51.971455 C 222.563003 51.946684 223.268982 51.971455 223.194669 51.166392 C 223.281368 51.637044 223.714863 52.343023 224.817181 52.107697 C 225.139206 52.615506 225.461231 52.937531 225.919498 52.764133 C 226.006197 52.726976 226.266295 52.590735 226.16721 52.095311 C 226.253909 53.02423 227.356227 53.358641 227.938349 53.284328 Z M 227.938349 53.284328 " transform="matrix(0.315387,0,0,0.315387,-42.751999,0.757333)"/>
<path style="fill-rule:nonzero;fill:rgb(96.862745%,87.843138%,9.019608%);fill-opacity:1;stroke-width:0.125;stroke-linecap:butt;stroke-linejoin:miter;stroke:rgb(0%,0%,0%);stroke-opacity:1;stroke-miterlimit:4;" d="M 236.794046 67.998409 C 240.868905 70.673696 245.476345 70.673696 249.724602 65.744231 C 251.062246 64.196033 253.167796 62.870774 254.654067 62.722147 C 256.127952 62.585906 256.053639 61.173949 257.180727 60.901466 C 256.474749 60.690911 256.18988 59.848691 255.137105 59.947775 C 257.775236 59.031242 257.007329 56.925691 258.307816 55.910073 C 257.255041 56.294026 255.595372 54.708671 254.08433 56.715136 C 254.468283 55.798603 253.948088 54.708671 253.564135 54.287561 C 253.700377 55.340336 251.483356 55.550891 251.062246 58.226178 C 250.82692 59.724835 250.009471 59.62575 249.873229 57.309645 C 249.761759 55.612819 248.956696 50.91868 247.965848 48.528261 C 246.987387 46.137842 246.764446 42.855661 248.10209 42.360238 C 247.891535 42.013441 247.619052 41.716187 247.272255 41.493246 C 245.637358 40.428086 242.763901 40.861581 242.206549 42.756576 C 240.373482 47.537414 245.513502 50.27463 245.092392 55.488963 C 244.312099 51.612273 238.057376 50.633812 238.13169 46.831436 C 236.088068 47.747969 236.372936 49.432409 237.140843 50.770053 C 235.877513 48.800744 232.99167 52.033383 230.526938 49.370481 C 230.254455 52.875603 233.350852 54.213247 235.877513 54.361874 C 234.614182 56.603666 236.298623 58.511047 237.983063 59.142712 C 238.057376 55.204094 246.132781 56.814221 246.207095 63.564368 C 246.281408 69.336052 240.100999 69.831476 236.794046 67.998409 Z M 236.794046 67.998409 " transform="matrix(0.315387,0,0,0.315387,-42.751999,0.757333)"/>
<path style="fill-rule:nonzero;fill:rgb(96.862745%,87.843138%,9.019608%);fill-opacity:1;stroke-width:0.125;stroke-linecap:butt;stroke-linejoin:miter;stroke:rgb(0%,0%,0%);stroke-opacity:1;stroke-miterlimit:4;" d="M 248.114475 73.547153 C 257.948634 75.665089 254.443512 83.468011 251.557669 83.393697 C 249.724602 83.35654 247.965848 81.820727 247.866764 80.483083 C 245.748828 81.597786 246.318565 83.814807 247.941077 84.694184 C 243.507036 84.173989 241.636812 87.084603 241.537727 90.292471 C 242.342791 88.8062 244.807523 88.707115 245.724057 89.016755 C 246.628205 89.33878 248.993852 89.512178 249.935157 88.459403 C 249.167251 89.128225 250.430581 90.676424 249.340649 91.865441 C 253.031555 91.729199 254.654067 88.286005 254.022402 86.774963 C 258.80324 82.415235 257.886706 75.305907 248.114475 73.547153 Z M 248.114475 73.547153 " transform="matrix(0.315387,0,0,0.315387,-42.751999,0.757333)"/>
<path style="fill-rule:nonzero;fill:rgb(96.862745%,87.843138%,9.019608%);fill-opacity:1;stroke-width:0.125;stroke-linecap:butt;stroke-linejoin:miter;stroke:rgb(0%,0%,0%);stroke-opacity:1;stroke-miterlimit:4;" d="M 240.608808 106.963475 C 241.252859 107.359814 241.16616 108.202034 240.732664 108.734614 C 239.865673 109.799775 241.178545 112.338821 238.490872 112.772316 C 237.71058 112.896172 237.116072 112.400749 236.855974 111.484215 C 236.125224 108.982326 238.763355 108.808928 239.048224 107.644682 C 239.333092 106.480437 240.076228 106.629064 240.608808 106.963475 Z M 240.608808 106.963475 " transform="matrix(0.315387,0,0,0.315387,-42.751999,0.757333)"/>
<path style="fill-rule:nonzero;fill:rgb(96.862745%,87.843138%,9.019608%);fill-opacity:1;stroke-width:0.125;stroke-linecap:butt;stroke-linejoin:miter;stroke:rgb(0%,0%,0%);stroke-opacity:1;stroke-miterlimit:4;" d="M 238.206004 111.496601 C 239.060609 111.942482 239.81613 112.549376 239.345478 115.360905 C 239.159694 116.52515 239.110152 119.36145 240.12577 119.435764 C 239.494105 119.720632 238.144076 120.005501 237.623881 119.262365 C 237.054144 120.116971 235.865127 119.819717 235.444017 118.705014 C 234.799966 119.188052 233.970132 118.296289 233.994903 117.540768 C 233.437551 117.875179 232.34762 117.317828 232.694416 115.645773 C 232.013209 115.856328 231.170988 115.348519 230.873734 114.902638 C 231.864581 114.754011 234.391242 113.515452 235.022907 112.475062 C 235.642186 111.434673 237.202771 110.988791 238.206004 111.496601 Z M 238.206004 111.496601 " transform="matrix(0.315387,0,0,0.315387,-42.751999,0.757333)"/>
<path style="fill:none;stroke-width:0.125;stroke-linecap:butt;stroke-linejoin:miter;stroke:rgb(0%,0%,0%);stroke-opacity:1;stroke-miterlimit:4;" d="M 237.623881 119.262365 C 237.908749 118.878412 238.069762 117.231129 237.921135 116.227896 " transform="matrix(0.315387,0,0,0.315387,-42.751999,0.757333)"/>
<path style="fill:none;stroke-width:0.125;stroke-linecap:butt;stroke-linejoin:miter;stroke:rgb(0%,0%,0%);stroke-opacity:1;stroke-miterlimit:4;" d="M 235.444017 118.705014 C 235.889898 118.395374 236.75689 117.293057 236.930288 116.289824 " transform="matrix(0.315387,0,0,0.315387,-42.751999,0.757333)"/>
<path style="fill:none;stroke-width:0.125;stroke-linecap:butt;stroke-linejoin:miter;stroke:rgb(0%,0%,0%);stroke-opacity:1;stroke-miterlimit:4;" d="M 233.994903 117.553154 C 234.552255 117.317828 235.951826 115.645773 236.286237 114.53107 " transform="matrix(0.315387,0,0,0.315387,-42.751999,0.757333)"/>
<path style="fill:none;stroke-width:0.125;stroke-linecap:butt;stroke-linejoin:miter;stroke:rgb(0%,0%,0%);stroke-opacity:1;stroke-miterlimit:4;" d="M 232.694416 115.645773 C 233.338467 115.534303 235.369703 114.320515 236.24908 112.982871 " transform="matrix(0.315387,0,0,0.315387,-42.751999,0.757333)"/>
<path style="fill-rule:nonzero;fill:rgb(96.862745%,87.843138%,9.019608%);fill-opacity:1;stroke-width:0.125;stroke-linecap:butt;stroke-linejoin:miter;stroke:rgb(0%,0%,0%);stroke-opacity:1;stroke-miterlimit:4;" d="M 226.241524 59.638136 C 226.117668 66.834163 229.114981 70.487912 233.264153 72.85356 C 231.72834 71.937026 232.397162 68.766315 230.316383 67.750697 C 230.811806 67.71354 231.579713 68.419519 232.818272 68.13465 C 232.211378 66.809392 231.232916 64.76577 228.941582 64.480901 C 229.548476 64.418973 230.848963 64.629528 231.691183 64.307503 C 230.489781 62.474436 227.331456 63.353812 226.241524 59.62575 Z M 226.241524 59.638136 " transform="matrix(0.315387,0,0,0.315387,-42.751999,0.757333)"/>
<path style="fill-rule:nonzero;fill:rgb(96.862745%,87.843138%,9.019608%);fill-opacity:1;stroke-width:0.125;stroke-linecap:butt;stroke-linejoin:miter;stroke:rgb(0%,0%,0%);stroke-opacity:1;stroke-miterlimit:4;" d="M 225.486003 52.776519 C 225.238291 52.68982 225.027736 52.442108 224.817181 52.107697 C 223.702478 52.343023 223.268982 51.637044 223.182283 51.166392 C 223.256596 51.971455 222.563003 51.946684 222.228593 51.971455 C 224.210287 53.606353 224.495155 55.513734 224.06166 56.603666 C 223.491923 58.015623 221.522614 57.94131 220.395525 57.024776 C 220.259284 60.022089 224.123588 61.00055 225.535545 57.235331 C 225.535545 57.879382 226.340608 57.805068 226.551163 58.647288 C 227.554396 57.024776 226.798875 54.708671 225.486003 52.776519 Z M 225.486003 52.776519 " transform="matrix(0.315387,0,0,0.315387,-42.751999,0.757333)"/>
<path style="fill-rule:nonzero;fill:rgb(20%,45.09804%,12.941177%);fill-opacity:1;stroke-width:0.125;stroke-linecap:butt;stroke-linejoin:miter;stroke:rgb(0%,0%,0%);stroke-opacity:1;stroke-miterlimit:4;" d="M 219.317979 38.508319 C 217.559225 36.885807 216.754162 34.173363 216.828475 32.637549 C 216.890403 31.089351 217.522068 29.392525 219.776246 30.098504 C 219.070267 30.098504 219.565691 31.510461 218.822555 31.646702 C 219.429449 31.857257 220.234513 31.361834 220.333597 31.052194 C 220.482224 31.547618 221.398758 31.39899 221.460686 31.968728 C 221.819868 31.683859 221.423529 30.309059 220.903334 30.036576 C 221.287288 29.813635 221.497843 28.723703 221.324444 28.203508 C 220.977648 28.277822 220.445068 28.76086 220.333597 29.466838 C 220.519381 28.909487 220.308826 27.49753 219.317979 27.286975 C 219.03311 27.670928 218.971182 28.624618 219.355136 29.157199 C 218.438602 28.946644 217.100958 29.541152 216.791319 30.309059 C 216.853246 29.380139 216.989488 28.054881 217.559225 27.212661 C 217.757395 26.940178 217.274357 26.444754 216.915174 27.113576 C 216.221581 25.775933 214.4009 25.069954 213.583451 25.738776 C 212.778387 26.407598 211.688455 25.429136 211.019634 26.481911 C 210.350812 27.534686 208.096634 27.646157 208.208105 28.76086 C 208.282418 29.429682 208.121406 30.470071 207.786995 30.841639 C 206.981931 31.758173 208.170948 32.426994 208.381503 33.232058 C 208.245261 30.55677 212.493519 25.354823 216.754162 27.398445 C 216.370208 28.067267 216.023412 29.392525 215.911942 31.015037 C 215.738543 33.405456 216.08534 36.774336 218.401445 38.743645 Z M 219.317979 38.508319 " transform="matrix(0.315387,0,0,0.315387,-42.751999,0.757333)"/>
<path style="fill-rule:nonzero;fill:rgb(81.176472%,7.843138%,16.862746%);fill-opacity:1;stroke-width:0.125;stroke-linecap:butt;stroke-linejoin:miter;stroke:rgb(0%,0%,0%);stroke-opacity:1;stroke-miterlimit:4;" d="M 220.581309 30.13566 C 220.556538 29.503995 221.64647 28.674161 223.132741 28.698932 C 224.90388 28.711317 226.27868 30.33383 227.703023 30.172817 C 229.127366 30.011804 228.421387 30.804482 228.124133 31.015037 C 227.826879 31.225592 227.641095 31.547618 227.752566 31.931571 C 227.85165 32.315524 227.678252 32.563236 227.096129 32.204054 C 225.832799 31.423762 224.569469 32.526079 222.897414 31.9068 C 221.4483 31.374219 220.618466 31.089351 220.581309 30.13566 Z M 220.581309 30.13566 " transform="matrix(0.315387,0,0,0.315387,-42.751999,0.757333)"/>
<path style="fill-rule:nonzero;fill:rgb(58.823532%,52.941179%,49.019608%);fill-opacity:1;stroke-width:0.125;stroke-linecap:butt;stroke-linejoin:miter;stroke:rgb(0%,0%,0%);stroke-opacity:1;stroke-miterlimit:4;" d="M 213.335739 46.732351 C 212.642146 44.51533 209.966858 42.087755 208.666372 41.530403 L 208.592058 40.329001 C 209.298037 40.044132 210.982477 38.718874 211.762769 37.975739 C 217.026645 40.502399 224.197901 36.922964 227.504854 33.194901 L 228.768184 33.962808 L 228.136519 34.805028 L 227.467697 34.458231 C 226.662634 35.449078 223.64055 38.285378 222.736402 38.879887 C 223.962575 39.189527 225.63463 39.412467 226.105282 39.37531 C 229.053053 37.26976 231.369158 35.374765 232.496247 35.238523 L 233.449937 36.501854 L 232.607717 37.096362 L 231.938895 36.712409 C 228.768184 39.313382 225.188749 45.010754 223.776791 48.800744 C 221.807482 48.379634 214.784853 48.664503 213.335739 46.732351 Z M 213.335739 46.732351 " transform="matrix(0.315387,0,0,0.315387,-42.751999,0.757333)"/>
<path style="fill:none;stroke-width:0.125;stroke-linecap:butt;stroke-linejoin:miter;stroke:rgb(0%,0%,0%);stroke-opacity:1;stroke-miterlimit:4;" d="M 222.724016 38.879887 C 222.278135 38.768416 221.881796 38.632175 221.634084 38.508319 C 221.076733 39.028514 219.664775 39.486781 217.868865 39.561094 " transform="matrix(0.315387,0,0,0.315387,-42.751999,0.757333)"/>
<path style="fill:none;stroke-width:0.125;stroke-linecap:butt;stroke-linejoin:miter;stroke:rgb(0%,0%,0%);stroke-opacity:1;stroke-miterlimit:4;" d="M 213.620608 45.952059 C 213.149955 43.338699 213.905476 40.440471 215.24312 39.561094 C 218.153733 41.493246 223.145126 41.493246 226.105282 39.387696 " transform="matrix(0.315387,0,0,0.315387,-42.751999,0.757333)"/>
<path style="fill:none;stroke-width:0.125;stroke-linecap:butt;stroke-linejoin:miter;stroke:rgb(0%,0%,0%);stroke-opacity:1;stroke-miterlimit:4;" d="M 213.620608 44.589644 C 215.874785 44.51533 220.754707 44.899283 221.95611 45.072682 C 223.145126 45.258466 225.151592 45.741504 224.866723 46.348398 " transform="matrix(0.315387,0,0,0.315387,-42.751999,0.757333)"/>
<path style="fill:none;stroke-width:0.125;stroke-linecap:butt;stroke-linejoin:miter;stroke:rgb(0%,0%,0%);stroke-opacity:1;stroke-miterlimit:4;" d="M 214.660997 44.218076 L 215.305048 43.56164 L 214.660997 42.917589 L 214.016946 43.56164 Z M 214.660997 44.218076 " transform="matrix(0.315387,0,0,0.315387,-42.751999,0.757333)"/>
<path style="fill-rule:nonzero;fill:rgb(20%,45.09804%,12.941177%);fill-opacity:1;stroke-width:0.125;stroke-linecap:butt;stroke-linejoin:miter;stroke:rgb(0%,0%,0%);stroke-opacity:1;stroke-miterlimit:4;" d="M 216.184425 31.114122 C 215.379361 29.999419 213.149955 29.640237 212.679303 31.151279 C 212.468748 31.820101 212.146722 32.526079 211.614142 32.848104 C 211.093947 33.157744 211.217803 34.111435 211.440744 34.532545 C 212.010481 35.548163 211.515057 36.53901 212.604989 37.207832 C 212.604989 36.390383 213.794006 35.548163 214.82201 35.337608 C 215.837628 35.127053 217.385827 34.210519 217.596382 33.194901 C 217.806937 32.179283 218.153733 31.337063 216.184425 31.114122 Z M 216.184425 31.114122 " transform="matrix(0.315387,0,0,0.315387,-42.751999,0.757333)"/>
<path style="fill-rule:nonzero;fill:rgb(58.823532%,52.941179%,49.019608%);fill-opacity:1;stroke-width:0.125;stroke-linecap:butt;stroke-linejoin:miter;stroke:rgb(0%,0%,0%);stroke-opacity:1;stroke-miterlimit:4;" d="M 211.118718 41.245534 L 211.403587 41.245534 L 211.403587 43.165301 C 211.465515 43.190072 211.527443 43.214843 211.576985 43.252 L 213.224269 42.29831 L 213.372896 42.546021 L 211.713227 43.512097 C 211.713227 43.574025 211.725612 43.635953 211.713227 43.697881 L 213.372896 44.651572 L 213.224269 44.899283 L 211.5646 43.945593 C 211.515057 43.98275 211.465515 44.019907 211.403587 44.044678 L 211.403587 45.952059 L 211.118718 45.952059 L 211.118718 44.032292 C 211.05679 44.007521 210.994862 43.98275 210.94532 43.945593 L 209.285651 44.899283 L 209.14941 44.651572 L 210.809079 43.685496 C 210.796693 43.635953 210.796693 43.56164 210.809079 43.499712 L 209.14941 42.546021 L 209.285651 42.29831 L 210.957706 43.264386 C 211.007248 43.214843 211.05679 43.177686 211.118718 43.152915 Z M 211.118718 41.245534 " transform="matrix(0.315387,0,0,0.315387,-42.751999,0.757333)"/>
<path style="fill-rule:nonzero;fill:rgb(58.823532%,52.941179%,49.019608%);fill-opacity:1;stroke-width:0.125;stroke-linecap:butt;stroke-linejoin:miter;stroke:rgb(0%,0%,0%);stroke-opacity:1;stroke-miterlimit:4;" d="M 213.632993 45.952059 C 213.026099 46.558953 212.183879 46.93052 211.267345 46.93052 C 209.421893 46.93052 207.935622 45.444249 207.935622 43.598797 C 207.935622 41.765729 209.421893 40.267073 211.267345 40.267073 C 212.344892 40.267073 213.310968 40.787268 213.917862 41.579945 C 213.744463 42.001055 213.546294 42.94236 213.533908 43.36347 C 213.410052 42.223996 212.443976 41.319848 211.267345 41.319848 C 210.004015 41.319848 208.988397 42.347852 208.988397 43.598797 C 208.988397 44.862127 210.004015 45.877745 211.267345 45.877745 C 212.320121 45.877745 213.224269 45.146995 213.484366 44.168534 C 213.484366 44.589644 213.496752 45.592877 213.632993 45.952059 Z M 213.632993 45.952059 " transform="matrix(0.315387,0,0,0.315387,-42.751999,0.757333)"/>
<path style="fill-rule:nonzero;fill:rgb(20%,45.09804%,12.941177%);fill-opacity:1;stroke-width:0.125;stroke-linecap:butt;stroke-linejoin:miter;stroke:rgb(0%,0%,0%);stroke-opacity:1;stroke-miterlimit:4;" d="M 209.855388 49.12277 C 209.644833 48.875058 209.26088 48.206236 209.298037 47.710812 C 209.620062 47.673656 210.21457 47.884211 210.487053 48.169079 C 210.462282 47.822283 210.313655 47.041991 210.387969 46.695194 C 210.771922 46.831436 211.576985 47.289702 211.861854 47.822283 C 211.799926 47.463101 211.651299 46.558953 211.799926 45.989215 C 212.221036 46.236927 212.914629 46.905749 213.063256 47.364016 C 213.100413 46.658037 213.335739 45.493792 213.546294 45.221309 C 213.868319 45.530949 214.363743 45.815817 214.673383 46.236927 C 214.747696 45.679576 215.032565 45.010754 215.453675 44.82497 C 215.763315 45.184152 216.258738 45.989215 216.357823 46.905749 C 216.679848 46.794279 217.100958 46.274084 217.274357 45.989215 C 217.46014 46.274084 217.633539 46.769508 217.522068 47.364016 C 217.906022 47.004834 218.364288 46.521796 218.475759 46.100686 C 218.760627 46.311241 219.280822 46.831436 219.417064 47.401173 C 219.355136 46.942906 219.392292 46.137842 219.243665 45.679576 C 219.776246 45.952059 220.197356 46.447482 220.29644 46.980063 C 220.445068 46.484639 220.754707 45.605262 221.039576 45.394707 C 221.324444 45.952059 221.596927 46.62088 221.572156 47.190618 C 221.745555 46.831436 222.030423 46.19977 222.302906 46.063529 C 222.550618 46.447482 222.513461 47.289702 222.451533 47.747969 C 222.686859 47.401173 223.145126 46.980063 223.429995 46.831436 C 223.467152 47.041991 223.504308 47.463101 223.429995 47.785126 C 223.75202 47.611728 224.272215 46.658037 224.445613 46.162614 C 224.941037 46.410325 225.43646 47.252546 225.473617 47.673656 C 225.820414 47.537414 226.526392 46.905749 226.736947 46.558953 C 226.736947 46.794279 226.836032 47.463101 226.69979 47.995681 C 226.910346 47.785126 227.120901 47.364016 227.232371 47.190618 C 227.368612 47.537414 227.257142 48.379634 227.120901 48.837901 C 227.442926 48.553033 227.901193 48.379634 228.173676 48.379634 C 228.210832 48.974143 227.789722 50.039303 227.405769 50.80721 C 224.024503 49.853519 216.964717 49.506723 209.855388 49.12277 Z M 209.855388 49.12277 " transform="matrix(0.315387,0,0,0.315387,-42.751999,0.757333)"/>
<path style=" stroke:none;fill-rule:nonzero;fill:rgb(96.862745%,87.843138%,9.019608%);fill-opacity:1;" d="M 27.148438 10.375 C 27.140625 10.292969 27.324219 10.109375 27.652344 10.109375 C 28.042969 10.113281 28.402344 10.398438 28.71875 10.378906 C 29.03125 10.359375 28.878906 10.460938 28.8125 10.488281 C 28.746094 10.515625 28.707031 10.554688 28.730469 10.605469 C 28.753906 10.65625 28.714844 10.6875 28.585938 10.644531 C 28.308594 10.539062 28.027344 10.683594 27.660156 10.605469 C 27.339844 10.535156 27.15625 10.496094 27.148438 10.375 Z M 27.148438 10.375 "/>
<path style="fill-rule:nonzero;fill:rgb(96.862745%,87.843138%,9.019608%);fill-opacity:1;stroke-width:0.125;stroke-linecap:butt;stroke-linejoin:miter;stroke:rgb(0%,0%,0%);stroke-opacity:1;stroke-miterlimit:4;" d="M 210.94532 51.22832 C 209.892545 52.49165 208.83977 52.281095 208.629215 51.476032 C 208.41866 50.670968 209.198952 50.27463 208.914083 49.581036 C 208.629215 48.875058 209.37235 48.553033 209.719147 48.875058 C 210.065943 49.184698 211.193032 48.169079 211.688455 49.221854 C 212.183879 50.27463 212.567832 51.017765 212.282964 51.438875 C 212.010481 51.859985 211.155875 51.64943 210.94532 51.22832 Z M 210.94532 51.22832 " transform="matrix(0.315387,0,0,0.315387,-42.751999,0.757333)"/>
<path style="fill-rule:nonzero;fill:rgb(96.862745%,87.843138%,9.019608%);fill-opacity:1;stroke-width:0.125;stroke-linecap:butt;stroke-linejoin:miter;stroke:rgb(0%,0%,0%);stroke-opacity:1;stroke-miterlimit:4;" d="M 215.478446 49.333325 C 215.280277 48.862672 216.382594 47.983295 216.939946 48.61496 C 217.497297 49.246626 218.376674 47.921367 218.872098 48.9246 C 219.367521 49.927833 219.528534 50.460413 219.76386 51.017765 C 220.011572 51.575116 218.438602 51.884756 217.943178 51.389333 C 218.017492 51.723744 216.580764 51.983841 216.184425 51.030151 C 215.97387 50.522341 215.738543 49.940219 215.478446 49.333325 Z M 215.478446 49.333325 " transform="matrix(0.315387,0,0,0.315387,-42.751999,0.757333)"/>
<path style="fill-rule:nonzero;fill:rgb(96.862745%,87.843138%,9.019608%);fill-opacity:1;stroke-width:0.125;stroke-linecap:butt;stroke-linejoin:miter;stroke:rgb(0%,0%,0%);stroke-opacity:1;stroke-miterlimit:4;" d="M 222.79833 49.915447 C 222.538232 49.420024 223.813948 48.714045 224.48277 49.618193 C 224.668554 49.246626 225.931884 49.172312 226.018583 50.249858 C 226.105282 51.315019 226.142439 51.946684 226.179596 52.367794 C 226.204367 52.788904 225.399304 53.185243 224.817181 52.107697 C 223.789177 52.318252 223.306139 51.736129 223.182283 51.129235 C 223.058427 50.509956 222.946957 50.212702 222.79833 49.915447 Z M 222.79833 49.915447 " transform="matrix(0.315387,0,0,0.315387,-42.751999,0.757333)"/>
<path style="fill-rule:nonzero;fill:rgb(20%,45.09804%,12.941177%);fill-opacity:1;stroke-width:0.125;stroke-linecap:butt;stroke-linejoin:miter;stroke:rgb(0%,0%,0%);stroke-opacity:1;stroke-miterlimit:4;" d="M 211.626528 49.209469 C 211.4779 48.862672 212.530676 48.156694 213.24904 48.676888 C 213.967404 49.209469 214.970637 48.231007 215.391747 49.172312 C 216.258738 51.092078 216.308281 51.22832 216.048183 51.599888 C 215.7757 51.971455 214.648611 51.822828 214.376129 51.315019 C 214.314201 51.674201 213.348125 51.612273 212.840315 51.33979 C 212.258193 51.017765 211.861854 49.841134 211.626528 49.209469 Z M 211.626528 49.209469 " transform="matrix(0.315387,0,0,0.315387,-42.751999,0.757333)"/>
<path style="fill-rule:nonzero;fill:rgb(20%,45.09804%,12.941177%);fill-opacity:1;stroke-width:0.125;stroke-linecap:butt;stroke-linejoin:miter;stroke:rgb(0%,0%,0%);stroke-opacity:1;stroke-miterlimit:4;" d="M 219.03311 49.296168 C 218.785399 48.751202 220.432682 48.28055 221.151046 49.221854 C 221.522614 48.887443 222.340063 48.875058 222.785944 49.915447 C 223.244211 50.943451 223.318524 51.525574 222.984114 51.798057 C 222.748787 51.971455 221.894182 52.120082 221.609313 51.64943 C 221.22536 51.897142 220.036343 51.686587 219.76386 51.017765 C 219.503763 50.348943 219.280822 49.76682 219.03311 49.296168 Z M 219.03311 49.296168 " transform="matrix(0.315387,0,0,0.315387,-42.751999,0.757333)"/>
<path style="fill-rule:nonzero;fill:rgb(20%,45.09804%,12.941177%);fill-opacity:1;stroke-width:0.125;stroke-linecap:butt;stroke-linejoin:miter;stroke:rgb(0%,0%,0%);stroke-opacity:1;stroke-miterlimit:4;" d="M 226.030969 50.336557 C 225.993812 49.841134 226.89796 49.618193 227.219985 50.336557 C 227.554396 51.054922 228.631943 50.410871 228.718642 51.599888 C 228.731027 51.822828 228.594786 52.702205 228.260375 53.123315 C 227.925964 53.544425 226.291066 53.123315 226.191981 52.231553 C 226.080511 51.33979 226.043354 50.819595 226.030969 50.336557 Z M 226.030969 50.336557 " transform="matrix(0.315387,0,0,0.315387,-42.751999,0.757333)"/>
<path style="fill:none;stroke-width:0.125;stroke-linecap:butt;stroke-linejoin:miter;stroke:rgb(0%,0%,0%);stroke-opacity:1;stroke-miterlimit:4;" d="M 210.94532 51.22832 C 210.561367 50.69574 210.041172 49.853519 209.37235 50.770053 " transform="matrix(0.315387,0,0,0.315387,-42.751999,0.757333)"/>
<path style="fill:none;stroke-width:0.125;stroke-linecap:butt;stroke-linejoin:miter;stroke:rgb(0%,0%,0%);stroke-opacity:1;stroke-miterlimit:4;" d="M 214.376129 51.315019 C 214.153188 51.017765 213.855934 50.522341 213.744463 50.138388 " transform="matrix(0.315387,0,0,0.315387,-42.751999,0.757333)"/>
<path style="fill:none;stroke-width:0.125;stroke-linecap:butt;stroke-linejoin:miter;stroke:rgb(0%,0%,0%);stroke-opacity:1;stroke-miterlimit:4;" d="M 217.943178 51.389333 C 217.695467 51.215934 217.323899 50.856752 217.138115 50.485185 " transform="matrix(0.315387,0,0,0.315387,-42.751999,0.757333)"/>
<path style="fill:none;stroke-width:0.125;stroke-linecap:butt;stroke-linejoin:miter;stroke:rgb(0%,0%,0%);stroke-opacity:1;stroke-miterlimit:4;" d="M 217.633539 49.54388 C 218.240433 49.618193 218.661543 50.18793 218.859712 50.460413 C 219.057882 50.720511 219.45422 51.191163 219.776246 51.253091 " transform="matrix(0.315387,0,0,0.315387,-42.751999,0.757333)"/>
<path style="fill:none;stroke-width:0.125;stroke-linecap:butt;stroke-linejoin:miter;stroke:rgb(0%,0%,0%);stroke-opacity:1;stroke-miterlimit:4;" d="M 221.621699 51.64943 C 221.411144 51.315019 221.200589 51.017765 221.151046 50.770053 " transform="matrix(0.315387,0,0,0.315387,-42.751999,0.757333)"/>
<path style="fill:none;stroke-width:0.125;stroke-linecap:butt;stroke-linejoin:miter;stroke:rgb(0%,0%,0%);stroke-opacity:1;stroke-miterlimit:4;" d="M 221.163432 49.221854 C 221.373987 49.519109 221.534999 49.76682 221.64647 50.051689 " transform="matrix(0.315387,0,0,0.315387,-42.751999,0.757333)"/>
<path style="fill:none;stroke-width:0.125;stroke-linecap:butt;stroke-linejoin:miter;stroke:rgb(0%,0%,0%);stroke-opacity:1;stroke-miterlimit:4;" d="M 224.817181 52.107697 C 224.544698 51.575116 224.098817 51.067307 223.727249 50.893909 " transform="matrix(0.315387,0,0,0.315387,-42.751999,0.757333)"/>
<path style="fill:none;stroke-width:0.125;stroke-linecap:butt;stroke-linejoin:miter;stroke:rgb(0%,0%,0%);stroke-opacity:1;stroke-miterlimit:4;" d="M 224.680939 50.175545 C 224.718096 51.215934 226.105282 51.277862 226.154825 52.020998 " transform="matrix(0.315387,0,0,0.315387,-42.751999,0.757333)"/>
<path style="fill:none;stroke-width:0.125;stroke-linecap:butt;stroke-linejoin:miter;stroke:rgb(0%,0%,0%);stroke-opacity:1;stroke-miterlimit:4;" d="M 227.219985 50.336557 C 227.356227 50.596655 227.418155 50.856752 227.43054 51.302633 " transform="matrix(0.315387,0,0,0.315387,-42.751999,0.757333)"/>
</g>
</svg>
