<?xml version="1.0" encoding="UTF-8"?>
<svg xmlns="http://www.w3.org/2000/svg" xmlns:xlink="http://www.w3.org/1999/xlink" width="20px" height="20px" viewBox="0 0 20 20" version="1.1">
<defs>
<linearGradient id="linear0" gradientUnits="userSpaceOnUse" x1="359.589996" y1="-5035.399902" x2="4203.399902" y2="-5035.399902" gradientTransform="matrix(0.080015,0,0,0.1332,-143.770004,670.72998)">
<stop offset="0" style="stop-color:rgb(0%,0%,0%);stop-opacity:1;"/>
<stop offset="1" style="stop-color:rgb(100%,100%,100%);stop-opacity:1;"/>
</linearGradient>
</defs>
<g id="surface1">
<path style="fill-rule:nonzero;fill:rgb(0%,60.000002%,0%);fill-opacity:1;stroke-width:0.12905;stroke-linecap:butt;stroke-linejoin:miter;stroke:url(#linear0);stroke-miterlimit:4;" d="M -115 0 L 192.5 0 L 192.5 512 L -115 512 Z M -115 0 " transform="matrix(0.0390625,0,0,0.0390625,0,0)"/>
<path style=" stroke:none;fill-rule:evenodd;fill:rgb(100%,0%,0%);fill-opacity:1;" d="M 7.492188 0 L 25.507812 0 L 25.507812 20 L 7.492188 20 Z M 7.492188 0 "/>
<path style=" stroke:none;fill-rule:evenodd;fill:rgb(0%,0%,0%);fill-opacity:1;" d="M 6.847656 7.570312 L 6.8125 8.320312 L 11.820312 7.820312 L 11.859375 7.078125 Z M 6.847656 7.570312 "/>
<path style=" stroke:none;fill-rule:evenodd;fill:rgb(93.725491%,93.725491%,0%);fill-opacity:1;" d="M 6.890625 7.65625 L 6.863281 8.226562 L 11.773438 7.742188 L 11.804688 7.171875 Z M 6.890625 7.65625 "/>
<path style=" stroke:none;fill-rule:evenodd;fill:rgb(0%,0%,0%);fill-opacity:1;" d="M 6.820312 7.417969 L 6.808594 7.664062 L 11.867188 7.164062 L 11.882812 6.917969 Z M 6.820312 7.417969 "/>
<path style=" stroke:none;fill-rule:evenodd;fill:rgb(93.725491%,93.725491%,0%);fill-opacity:1;" d="M 6.859375 7.5 L 6.859375 7.570312 L 11.828125 7.078125 L 11.832031 7.007812 Z M 6.859375 7.5 "/>
<path style=" stroke:none;fill-rule:evenodd;fill:rgb(0%,0%,0%);fill-opacity:1;" d="M 6.78125 8.234375 L 6.769531 8.476562 L 11.828125 7.976562 L 11.84375 7.734375 Z M 6.78125 8.234375 "/>
<path style=" stroke:none;fill-rule:evenodd;fill:rgb(93.725491%,93.725491%,0%);fill-opacity:1;" d="M 6.820312 8.316406 L 6.820312 8.386719 L 11.789062 7.894531 L 11.792969 7.828125 Z M 6.820312 8.316406 "/>
<path style=" stroke:none;fill-rule:evenodd;fill:rgb(0%,0%,0%);fill-opacity:1;" d="M 7.605469 9.953125 L 7.570312 10.695312 L 12.578125 10.203125 L 12.617188 9.457031 Z M 7.605469 9.953125 "/>
<path style=" stroke:none;fill-rule:evenodd;fill:rgb(93.725491%,93.725491%,0%);fill-opacity:1;" d="M 7.648438 10.035156 L 7.621094 10.605469 L 12.53125 10.117188 L 12.5625 9.546875 Z M 7.648438 10.035156 "/>
<path style=" stroke:none;fill-rule:evenodd;fill:rgb(0%,0%,0%);fill-opacity:1;" d="M 7.578125 9.796875 L 7.566406 10.042969 L 12.625 9.542969 L 12.640625 9.296875 Z M 7.578125 9.796875 "/>
<path style=" stroke:none;fill-rule:evenodd;fill:rgb(93.725491%,93.725491%,0%);fill-opacity:1;" d="M 7.617188 9.882812 L 7.617188 9.953125 L 12.585938 9.460938 L 12.589844 9.390625 Z M 7.617188 9.882812 "/>
<path style=" stroke:none;fill-rule:evenodd;fill:rgb(0%,0%,0%);fill-opacity:1;" d="M 7.539062 10.613281 L 7.527344 10.859375 L 12.585938 10.359375 L 12.601562 10.113281 Z M 7.539062 10.613281 "/>
<path style=" stroke:none;fill-rule:evenodd;fill:rgb(93.725491%,93.725491%,0%);fill-opacity:1;" d="M 7.578125 10.695312 L 7.578125 10.765625 L 12.546875 10.273438 L 12.546875 10.203125 Z M 7.578125 10.695312 "/>
<path style=" stroke:none;fill-rule:evenodd;fill:rgb(0%,0%,0%);fill-opacity:1;" d="M 7.304688 12.632812 L 7.265625 13.382812 L 12.273438 12.882812 L 12.3125 12.140625 Z M 7.304688 12.632812 "/>
<path style=" stroke:none;fill-rule:evenodd;fill:rgb(93.725491%,93.725491%,0%);fill-opacity:1;" d="M 7.34375 12.71875 L 7.320312 13.289062 L 12.230469 12.804688 L 12.257812 12.230469 Z M 7.34375 12.71875 "/>
<path style=" stroke:none;fill-rule:evenodd;fill:rgb(0%,0%,0%);fill-opacity:1;" d="M 7.273438 12.480469 L 7.265625 12.726562 L 12.324219 12.226562 L 12.335938 11.980469 Z M 7.273438 12.480469 "/>
<path style=" stroke:none;fill-rule:evenodd;fill:rgb(93.725491%,93.725491%,0%);fill-opacity:1;" d="M 7.316406 12.5625 L 7.3125 12.632812 L 12.28125 12.140625 L 12.289062 12.070312 Z M 7.316406 12.5625 "/>
<path style=" stroke:none;fill-rule:evenodd;fill:rgb(0%,0%,0%);fill-opacity:1;" d="M 7.234375 13.296875 L 7.222656 13.539062 L 12.28125 13.039062 L 12.296875 12.796875 Z M 7.234375 13.296875 "/>
<path style=" stroke:none;fill-rule:evenodd;fill:rgb(93.725491%,93.725491%,0%);fill-opacity:1;" d="M 7.273438 13.378906 L 7.273438 13.449219 L 12.242188 12.957031 L 12.246094 12.886719 Z M 7.273438 13.378906 "/>
<path style=" stroke:none;fill-rule:evenodd;fill:rgb(0%,0%,0%);fill-opacity:1;" d="M 7.90625 12.445312 L 7.941406 13.191406 L 2.929688 12.695312 L 2.894531 11.953125 Z M 7.90625 12.445312 "/>
<path style=" stroke:none;fill-rule:evenodd;fill:rgb(93.725491%,93.725491%,0%);fill-opacity:1;" d="M 7.859375 12.527344 L 7.886719 13.101562 L 2.976562 12.613281 L 2.945312 12.042969 Z M 7.859375 12.527344 "/>
<path style=" stroke:none;fill-rule:evenodd;fill:rgb(0%,0%,0%);fill-opacity:1;" d="M 7.929688 12.289062 L 7.941406 12.539062 L 2.882812 12.035156 L 2.867188 11.789062 Z M 7.929688 12.289062 "/>
<path style=" stroke:none;fill-rule:evenodd;fill:rgb(93.725491%,93.725491%,0%);fill-opacity:1;" d="M 7.890625 12.375 L 7.890625 12.445312 L 2.921875 11.953125 L 2.917969 11.882812 Z M 7.890625 12.375 "/>
<path style=" stroke:none;fill-rule:evenodd;fill:rgb(0%,0%,0%);fill-opacity:1;" d="M 7.96875 13.109375 L 7.984375 13.351562 L 2.921875 12.851562 L 2.910156 12.609375 Z M 7.96875 13.109375 "/>
<path style=" stroke:none;fill-rule:evenodd;fill:rgb(93.725491%,93.725491%,0%);fill-opacity:1;" d="M 7.929688 13.191406 L 7.933594 13.257812 L 2.960938 12.765625 L 2.960938 12.699219 Z M 7.929688 13.191406 "/>
<path style=" stroke:none;fill-rule:evenodd;fill:rgb(0%,0%,0%);fill-opacity:1;" d="M 7.554688 10.289062 L 7.335938 10.960938 L 1.992188 10.390625 L 2.210938 9.71875 Z M 7.554688 10.289062 "/>
<path style=" stroke:none;fill-rule:evenodd;fill:rgb(93.725491%,93.725491%,0%);fill-opacity:1;" d="M 7.476562 10.363281 L 7.304688 10.875 L 2.070312 10.320312 L 2.238281 9.804688 Z M 7.476562 10.363281 "/>
<path style=" stroke:none;fill-rule:evenodd;fill:rgb(0%,0%,0%);fill-opacity:1;" d="M 7.636719 10.152344 L 7.5625 10.375 L 2.167969 9.796875 L 2.242188 9.578125 Z M 7.636719 10.152344 "/>
<path style=" stroke:none;fill-rule:evenodd;fill:rgb(93.725491%,93.725491%,0%);fill-opacity:1;" d="M 7.5625 10.226562 L 7.542969 10.289062 L 2.242188 9.726562 L 2.265625 9.664062 Z M 7.5625 10.226562 "/>
<path style=" stroke:none;fill-rule:evenodd;fill:rgb(0%,0%,0%);fill-opacity:1;" d="M 7.398438 10.886719 L 7.324219 11.109375 L 1.929688 10.53125 L 2 10.3125 Z M 7.398438 10.886719 "/>
<path style=" stroke:none;fill-rule:evenodd;fill:rgb(93.725491%,93.725491%,0%);fill-opacity:1;" d="M 7.320312 10.960938 L 7.300781 11.023438 L 2 10.460938 L 2.023438 10.398438 Z M 7.320312 10.960938 "/>
<path style=" stroke:none;fill-rule:evenodd;fill:rgb(0%,0%,0%);fill-opacity:1;" d="M 6.898438 10.183594 L 6.355469 10.757812 L 2.425781 8.078125 L 2.96875 7.5 Z M 6.898438 10.183594 "/>
<path style=" stroke:none;fill-rule:evenodd;fill:rgb(93.725491%,93.725491%,0%);fill-opacity:1;" d="M 6.796875 10.222656 L 6.382812 10.664062 L 2.53125 8.035156 L 2.945312 7.59375 Z M 6.796875 10.222656 "/>
<path style=" stroke:none;fill-rule:evenodd;fill:rgb(0%,0%,0%);fill-opacity:1;" d="M 7.039062 10.078125 L 6.859375 10.265625 L 2.890625 7.558594 L 3.070312 7.371094 Z M 7.039062 10.078125 "/>
<path style=" stroke:none;fill-rule:evenodd;fill:rgb(93.725491%,93.725491%,0%);fill-opacity:1;" d="M 6.9375 10.125 L 6.890625 10.175781 L 2.992188 7.515625 L 3.042969 7.460938 Z M 6.9375 10.125 "/>
<path style=" stroke:none;fill-rule:evenodd;fill:rgb(0%,0%,0%);fill-opacity:1;" d="M 6.445312 10.707031 L 6.265625 10.898438 L 2.296875 8.1875 L 2.476562 8 Z M 6.445312 10.707031 "/>
<path style=" stroke:none;fill-rule:evenodd;fill:rgb(93.725491%,93.725491%,0%);fill-opacity:1;" d="M 6.34375 10.75 L 6.296875 10.804688 L 2.398438 8.144531 L 2.445312 8.09375 Z M 6.34375 10.75 "/>
<path style=" stroke:none;fill-rule:evenodd;fill:rgb(93.725491%,93.725491%,0%);fill-opacity:1;" d="M 11.886719 10.195312 C 11.890625 12.679688 9.867188 14.695312 7.375 14.695312 C 4.882812 14.703125 2.859375 12.6875 2.859375 10.199219 C 2.851562 7.710938 4.871094 5.695312 7.359375 5.6875 C 9.851562 5.679688 11.882812 7.691406 11.886719 10.179688 C 11.886719 10.183594 11.886719 10.1875 11.886719 10.195312 Z M 12.945312 10.195312 C 12.945312 13.261719 10.453125 15.753906 7.375 15.753906 C 4.300781 15.757812 1.804688 13.273438 1.800781 10.203125 C 1.792969 7.132812 4.28125 4.636719 7.359375 4.632812 C 10.4375 4.625 12.9375 7.105469 12.945312 10.175781 C 12.945312 10.179688 12.945312 10.1875 12.945312 10.195312 Z M 12.945312 10.195312 "/>
<path style=" stroke:none;fill-rule:evenodd;fill:rgb(0%,0%,0%);fill-opacity:1;" d="M 12.835938 10.195312 C 12.835938 13.203125 10.390625 15.640625 7.375 15.640625 C 4.363281 15.648438 1.914062 13.210938 1.914062 10.203125 C 1.90625 7.195312 4.34375 4.75 7.359375 4.742188 C 10.375 4.734375 12.828125 7.167969 12.835938 10.175781 C 12.835938 10.179688 12.835938 10.1875 12.835938 10.195312 Z M 12.726562 10.195312 C 12.726562 13.140625 10.332031 15.53125 7.375 15.53125 C 4.421875 15.539062 2.023438 13.148438 2.023438 10.203125 C 2.015625 7.253906 4.40625 4.859375 7.359375 4.851562 C 10.3125 4.84375 12.71875 7.226562 12.726562 10.175781 C 12.726562 10.179688 12.726562 10.1875 12.726562 10.195312 Z M 12.726562 10.195312 "/>
<path style=" stroke:none;fill-rule:evenodd;fill:rgb(0%,0%,0%);fill-opacity:1;" d="M 12.109375 10.195312 C 12.113281 12.804688 9.992188 14.921875 7.375 14.921875 C 4.761719 14.921875 2.636719 12.8125 2.632812 10.203125 C 2.628906 7.589844 4.746094 5.46875 7.359375 5.464844 C 9.976562 5.457031 12.105469 7.570312 12.109375 10.179688 C 12.109375 10.183594 12.109375 10.1875 12.109375 10.195312 Z M 12.015625 10.195312 C 12.015625 12.75 9.9375 14.828125 7.375 14.828125 C 4.8125 14.828125 2.734375 12.757812 2.730469 10.199219 C 2.722656 7.640625 4.796875 5.5625 7.359375 5.5625 C 9.925781 5.550781 12.007812 7.621094 12.015625 10.179688 C 12.015625 10.183594 12.015625 10.1875 12.015625 10.195312 Z M 12.015625 10.195312 "/>
<path style=" stroke:none;fill-rule:evenodd;fill:rgb(0%,0%,0%);fill-opacity:1;" d="M 7.125 4.617188 L 7.816406 4.617188 L 7.816406 15.800781 L 7.125 15.800781 Z M 7.125 4.617188 "/>
<path style=" stroke:none;fill-rule:evenodd;fill:rgb(93.725491%,93.725491%,0%);fill-opacity:1;" d="M 7.203125 4.726562 L 7.734375 4.726562 L 7.734375 15.691406 L 7.203125 15.691406 Z M 7.203125 4.726562 "/>
<path style=" stroke:none;fill-rule:evenodd;fill:rgb(0%,0%,0%);fill-opacity:1;" d="M 6.976562 4.542969 L 7.203125 4.542969 L 7.203125 15.839844 L 6.976562 15.839844 Z M 6.976562 4.542969 "/>
<path style=" stroke:none;fill-rule:evenodd;fill:rgb(93.725491%,93.725491%,0%);fill-opacity:1;" d="M 7.058594 4.644531 L 7.125 4.644531 L 7.125 15.738281 L 7.058594 15.738281 Z M 7.058594 4.644531 "/>
<path style=" stroke:none;fill-rule:evenodd;fill:rgb(0%,0%,0%);fill-opacity:1;" d="M 7.734375 4.542969 L 7.960938 4.542969 L 7.960938 15.839844 L 7.734375 15.839844 Z M 7.734375 4.542969 "/>
<path style=" stroke:none;fill-rule:evenodd;fill:rgb(93.725491%,93.725491%,0%);fill-opacity:1;" d="M 7.816406 4.644531 L 7.882812 4.644531 L 7.882812 15.738281 L 7.816406 15.738281 Z M 7.816406 4.644531 "/>
<path style=" stroke:none;fill-rule:evenodd;fill:rgb(0%,0%,0%);fill-opacity:1;" d="M 7.1875 11.148438 L 7.445312 11.851562 L 2.511719 12.859375 L 2.257812 12.164062 Z M 7.1875 11.148438 "/>
<path style=" stroke:none;fill-rule:evenodd;fill:rgb(93.725491%,93.725491%,0%);fill-opacity:1;" d="M 7.167969 11.242188 L 7.367188 11.78125 L 2.53125 12.769531 L 2.335938 12.234375 Z M 7.167969 11.242188 "/>
<path style=" stroke:none;fill-rule:evenodd;fill:rgb(0%,0%,0%);fill-opacity:1;" d="M 7.164062 10.996094 L 7.25 11.226562 L 2.269531 12.246094 L 2.183594 12.015625 Z M 7.164062 10.996094 "/>
<path style=" stroke:none;fill-rule:evenodd;fill:rgb(93.725491%,93.725491%,0%);fill-opacity:1;" d="M 7.152344 11.085938 L 7.175781 11.152344 L 2.28125 12.15625 L 2.257812 12.089844 Z M 7.152344 11.085938 "/>
<path style=" stroke:none;fill-rule:evenodd;fill:rgb(0%,0%,0%);fill-opacity:1;" d="M 7.445312 11.761719 L 7.53125 11.992188 L 2.550781 13.015625 L 2.464844 12.78125 Z M 7.445312 11.761719 "/>
<path style=" stroke:none;fill-rule:evenodd;fill:rgb(93.725491%,93.725491%,0%);fill-opacity:1;" d="M 7.433594 11.851562 L 7.457031 11.917969 L 2.5625 12.921875 L 2.539062 12.859375 Z M 7.433594 11.851562 "/>
<path style=" stroke:none;fill-rule:evenodd;fill:rgb(0%,0%,0%);fill-opacity:1;" d="M 6.925781 9.0625 L 6.960938 9.78125 L 1.789062 10.339844 L 1.757812 9.625 Z M 6.925781 9.0625 "/>
<path style=" stroke:none;fill-rule:evenodd;fill:rgb(93.725491%,93.725491%,0%);fill-opacity:1;" d="M 6.878906 9.152344 L 6.90625 9.703125 L 1.835938 10.25 L 1.8125 9.703125 Z M 6.878906 9.152344 "/>
<path style=" stroke:none;fill-rule:evenodd;fill:rgb(0%,0%,0%);fill-opacity:1;" d="M 6.953125 8.90625 L 6.964844 9.140625 L 1.742188 9.710938 L 1.730469 9.476562 Z M 6.953125 8.90625 "/>
<path style=" stroke:none;fill-rule:evenodd;fill:rgb(93.725491%,93.725491%,0%);fill-opacity:1;" d="M 6.910156 9 L 6.914062 9.0625 L 1.785156 9.621094 L 1.78125 9.554688 Z M 6.910156 9 "/>
<path style=" stroke:none;fill-rule:evenodd;fill:rgb(0%,0%,0%);fill-opacity:1;" d="M 6.992188 9.691406 L 7 9.925781 L 1.777344 10.492188 L 1.765625 10.257812 Z M 6.992188 9.691406 "/>
<path style=" stroke:none;fill-rule:evenodd;fill:rgb(93.725491%,93.725491%,0%);fill-opacity:1;" d="M 6.945312 9.78125 L 6.953125 9.847656 L 1.820312 10.402344 L 1.820312 10.335938 Z M 6.945312 9.78125 "/>
<path style=" stroke:none;fill-rule:evenodd;fill:rgb(0%,0%,0%);fill-opacity:1;" d="M 7.054688 8.925781 L 6.625 9.589844 L 2.269531 7.671875 L 2.695312 7.007812 Z M 7.054688 8.925781 "/>
<path style=" stroke:none;fill-rule:evenodd;fill:rgb(93.725491%,93.725491%,0%);fill-opacity:1;" d="M 6.960938 8.984375 L 6.632812 9.492188 L 2.363281 7.613281 L 2.691406 7.105469 Z M 6.960938 8.984375 "/>
<path style=" stroke:none;fill-rule:evenodd;fill:rgb(0%,0%,0%);fill-opacity:1;" d="M 7.171875 8.796875 L 7.03125 9.015625 L 2.632812 7.078125 L 2.773438 6.859375 Z M 7.171875 8.796875 "/>
<path style=" stroke:none;fill-rule:evenodd;fill:rgb(93.725491%,93.725491%,0%);fill-opacity:1;" d="M 7.085938 8.859375 L 7.042969 8.921875 L 2.722656 7.015625 L 2.765625 6.957031 Z M 7.085938 8.859375 "/>
<path style=" stroke:none;fill-rule:evenodd;fill:rgb(0%,0%,0%);fill-opacity:1;" d="M 6.703125 9.523438 L 6.5625 9.742188 L 2.164062 7.804688 L 2.304688 7.585938 Z M 6.703125 9.523438 "/>
<path style=" stroke:none;fill-rule:evenodd;fill:rgb(93.725491%,93.725491%,0%);fill-opacity:1;" d="M 6.613281 9.585938 L 6.574219 9.648438 L 2.253906 7.746094 L 2.296875 7.683594 Z M 6.613281 9.585938 "/>
<path style=" stroke:none;fill-rule:evenodd;fill:rgb(0%,0%,0%);fill-opacity:1;" d="M 13.015625 9.128906 L 13.007812 9.84375 L 7.8125 9.59375 L 7.820312 8.875 Z M 13.015625 9.128906 "/>
<path style=" stroke:none;fill-rule:evenodd;fill:rgb(93.725491%,93.725491%,0%);fill-opacity:1;" d="M 12.96875 9.210938 L 12.960938 9.757812 L 7.867188 9.507812 L 7.871094 8.960938 Z M 12.96875 9.210938 "/>
<path style=" stroke:none;fill-rule:evenodd;fill:rgb(0%,0%,0%);fill-opacity:1;" d="M 13.054688 8.976562 L 13.054688 9.214844 L 7.804688 8.960938 L 7.804688 8.726562 Z M 13.054688 8.976562 "/>
<path style=" stroke:none;fill-rule:evenodd;fill:rgb(93.725491%,93.725491%,0%);fill-opacity:1;" d="M 13.007812 9.0625 L 13.007812 9.125 L 7.851562 8.875 L 7.851562 8.8125 Z M 13.007812 9.0625 "/>
<path style=" stroke:none;fill-rule:evenodd;fill:rgb(0%,0%,0%);fill-opacity:1;" d="M 13.046875 9.761719 L 13.039062 9.996094 L 7.792969 9.742188 L 7.796875 9.507812 Z M 13.046875 9.761719 "/>
<path style=" stroke:none;fill-rule:evenodd;fill:rgb(93.725491%,93.725491%,0%);fill-opacity:1;" d="M 12.996094 9.84375 L 12.996094 9.910156 L 7.839844 9.660156 L 7.84375 9.59375 Z M 12.996094 9.84375 "/>
<path style=" stroke:none;fill-rule:evenodd;fill:rgb(0%,0%,0%);fill-opacity:1;" d="M 12.082031 7.070312 L 12.285156 7.707031 L 7.992188 7.570312 L 7.789062 6.933594 Z M 12.082031 7.070312 "/>
<path style=" stroke:none;fill-rule:evenodd;fill:rgb(93.725491%,93.725491%,0%);fill-opacity:1;" d="M 12.0625 7.140625 L 12.21875 7.632812 L 8.015625 7.5 L 7.859375 7.007812 Z M 12.0625 7.140625 "/>
<path style=" stroke:none;fill-rule:evenodd;fill:rgb(0%,0%,0%);fill-opacity:1;" d="M 12.066406 6.933594 L 12.132812 7.140625 L 7.800781 7.007812 L 7.734375 6.796875 Z M 12.066406 6.933594 "/>
<path style=" stroke:none;fill-rule:evenodd;fill:rgb(93.725491%,93.725491%,0%);fill-opacity:1;" d="M 12.054688 7.007812 L 12.070312 7.066406 L 7.8125 6.933594 L 7.796875 6.875 Z M 12.054688 7.007812 "/>
<path style=" stroke:none;fill-rule:evenodd;fill:rgb(0%,0%,0%);fill-opacity:1;" d="M 12.289062 7.632812 L 12.359375 7.84375 L 8.023438 7.707031 L 7.957031 7.496094 Z M 12.289062 7.632812 "/>
<path style=" stroke:none;fill-rule:evenodd;fill:rgb(93.725491%,93.725491%,0%);fill-opacity:1;" d="M 12.273438 7.707031 L 12.296875 7.765625 L 8.039062 7.632812 L 8.019531 7.574219 Z M 12.273438 7.707031 "/>
<path style=" stroke:none;fill-rule:evenodd;fill:rgb(0%,0%,0%);fill-opacity:1;" d="M 12.65625 12.125 L 12.351562 12.789062 L 7.566406 11.046875 L 7.875 10.382812 Z M 12.65625 12.125 "/>
<path style=" stroke:none;fill-rule:evenodd;fill:rgb(93.725491%,93.725491%,0%);fill-opacity:1;" d="M 12.578125 12.1875 L 12.339844 12.695312 L 7.648438 10.984375 L 7.886719 10.476562 Z M 12.578125 12.1875 "/>
<path style=" stroke:none;fill-rule:evenodd;fill:rgb(0%,0%,0%);fill-opacity:1;" d="M 12.757812 12 L 12.65625 12.21875 L 7.824219 10.453125 L 7.925781 10.234375 Z M 12.757812 12 "/>
<path style=" stroke:none;fill-rule:evenodd;fill:rgb(93.725491%,93.725491%,0%);fill-opacity:1;" d="M 12.679688 12.0625 L 12.648438 12.125 L 7.902344 10.390625 L 7.929688 10.328125 Z M 12.679688 12.0625 "/>
<path style=" stroke:none;fill-rule:evenodd;fill:rgb(0%,0%,0%);fill-opacity:1;" d="M 12.417969 12.726562 L 12.316406 12.945312 L 7.484375 11.179688 L 7.585938 10.960938 Z M 12.417969 12.726562 "/>
<path style=" stroke:none;fill-rule:evenodd;fill:rgb(93.725491%,93.725491%,0%);fill-opacity:1;" d="M 12.335938 12.789062 L 12.3125 12.851562 L 7.5625 11.117188 L 7.59375 11.054688 Z M 12.335938 12.789062 "/>
<path style=" stroke:none;fill-rule:evenodd;fill:rgb(96.470588%,96.470588%,98.431373%);fill-opacity:1;" d="M 4.144531 6.523438 L 10.5625 6.523438 L 10.5625 11.234375 L 4.144531 11.234375 Z M 4.144531 6.523438 "/>
<path style=" stroke:none;fill-rule:evenodd;fill:rgb(96.470588%,96.470588%,98.431373%);fill-opacity:1;" d="M 10.5625 11.101562 C 10.5625 9.457031 9.125 8.125 7.351562 8.125 C 5.582031 8.125 4.144531 9.457031 4.144531 11.101562 C 4.144531 12.75 5.582031 14.085938 7.351562 14.085938 C 9.125 14.085938 10.5625 12.75 10.5625 11.101562 Z M 10.5625 11.101562 "/>
<path style=" stroke:none;fill-rule:evenodd;fill:rgb(96.470588%,96.470588%,98.431373%);fill-opacity:1;" d="M 5.621094 7.898438 L 9.085938 7.898438 L 9.085938 10.445312 L 5.621094 10.445312 Z M 5.621094 7.898438 "/>
<path style=" stroke:none;fill-rule:evenodd;fill:rgb(96.470588%,96.470588%,98.431373%);fill-opacity:1;" d="M 9.085938 10.730469 C 9.085938 9.84375 8.3125 9.121094 7.355469 9.121094 C 6.398438 9.121094 5.621094 9.84375 5.621094 10.730469 C 5.621094 11.617188 6.398438 12.339844 7.355469 12.339844 C 8.3125 12.339844 9.085938 11.617188 9.085938 10.730469 Z M 9.085938 10.730469 "/>
<path style=" stroke:none;fill-rule:evenodd;fill:rgb(100%,0%,0%);fill-opacity:1;" d="M 4.304688 6.710938 L 10.40625 6.710938 L 10.40625 11.1875 L 4.304688 11.1875 Z M 4.304688 6.710938 "/>
<path style=" stroke:none;fill-rule:evenodd;fill:rgb(100%,0%,0%);fill-opacity:1;" d="M 10.402344 11.0625 C 10.402344 9.5 9.039062 8.234375 7.351562 8.234375 C 5.671875 8.234375 4.304688 9.5 4.304688 11.0625 C 4.304688 12.625 5.671875 13.894531 7.351562 13.894531 C 9.039062 13.894531 10.402344 12.625 10.402344 11.0625 Z M 10.402344 11.0625 "/>
<path style=" stroke:none;fill-rule:evenodd;fill:rgb(100%,0%,0%);fill-opacity:1;" d="M 5.707031 8.023438 L 9 8.023438 L 9 10.4375 L 5.707031 10.4375 Z M 5.707031 8.023438 "/>
<path style=" stroke:none;fill-rule:evenodd;fill:rgb(100%,0%,0%);fill-opacity:1;" d="M 9 10.710938 C 9 9.867188 8.265625 9.179688 7.351562 9.179688 C 6.445312 9.179688 5.707031 9.867188 5.707031 10.710938 C 5.707031 11.554688 6.445312 12.238281 7.351562 12.238281 C 8.265625 12.238281 9 11.554688 9 10.710938 Z M 9 10.710938 "/>
<path style=" stroke:none;fill-rule:evenodd;fill:rgb(26.666668%,0%,0%);fill-opacity:1;" d="M 5.535156 8.15625 L 9.171875 8.15625 L 9.171875 10.828125 L 5.535156 10.828125 Z M 5.535156 8.15625 "/>
<path style=" stroke:none;fill-rule:evenodd;fill:rgb(26.666668%,0%,0%);fill-opacity:1;" d="M 9.171875 10.757812 C 9.171875 9.820312 8.359375 9.066406 7.351562 9.066406 C 6.351562 9.066406 5.535156 9.820312 5.535156 10.757812 C 5.535156 11.6875 6.351562 12.445312 7.351562 12.445312 C 8.359375 12.445312 9.171875 11.6875 9.171875 10.757812 Z M 9.171875 10.757812 "/>
<path style=" stroke:none;fill-rule:evenodd;fill:rgb(26.666668%,0%,0%);fill-opacity:1;" d="M 6.371094 8.9375 L 8.335938 8.9375 L 8.335938 10.382812 L 6.371094 10.382812 Z M 6.371094 8.9375 "/>
<path style=" stroke:none;fill-rule:evenodd;fill:rgb(26.666668%,0%,0%);fill-opacity:1;" d="M 8.335938 10.546875 C 8.335938 10.039062 7.898438 9.632812 7.355469 9.632812 C 6.8125 9.632812 6.371094 10.039062 6.371094 10.546875 C 6.371094 11.046875 6.8125 11.457031 7.355469 11.457031 C 7.898438 11.457031 8.335938 11.046875 8.335938 10.546875 Z M 8.335938 10.546875 "/>
<path style=" stroke:none;fill-rule:evenodd;fill:rgb(100%,100%,100%);fill-opacity:1;" d="M 5.710938 8.367188 L 8.996094 8.367188 L 8.996094 10.78125 L 5.710938 10.78125 Z M 5.710938 8.367188 "/>
<path style=" stroke:none;fill-rule:evenodd;fill:rgb(100%,100%,100%);fill-opacity:1;" d="M 8.996094 10.710938 C 8.996094 9.867188 8.261719 9.1875 7.351562 9.1875 C 6.445312 9.1875 5.710938 9.867188 5.710938 10.710938 C 5.710938 11.554688 6.445312 12.234375 7.351562 12.234375 C 8.261719 12.234375 8.996094 11.554688 8.996094 10.710938 Z M 8.996094 10.710938 "/>
<path style=" stroke:none;fill-rule:evenodd;fill:rgb(100%,100%,100%);fill-opacity:1;" d="M 6.46875 9.070312 L 8.242188 9.070312 L 8.242188 10.375 L 6.46875 10.375 Z M 6.46875 9.070312 "/>
<path style=" stroke:none;fill-rule:evenodd;fill:rgb(100%,100%,100%);fill-opacity:1;" d="M 8.242188 10.519531 C 8.242188 10.066406 7.84375 9.695312 7.351562 9.695312 C 6.867188 9.695312 6.46875 10.066406 6.46875 10.519531 C 6.46875 10.976562 6.867188 11.34375 7.351562 11.34375 C 7.84375 11.34375 8.242188 10.976562 8.242188 10.519531 Z M 8.242188 10.519531 "/>
<path style=" stroke:none;fill-rule:evenodd;fill:rgb(23.137255%,23.137255%,100%);fill-opacity:1;" d="M 6.898438 10.945312 L 7.859375 10.945312 L 7.859375 11.652344 L 6.898438 11.652344 Z M 6.898438 10.945312 "/>
<path style=" stroke:none;fill-rule:evenodd;fill:rgb(23.137255%,23.137255%,100%);fill-opacity:1;" d="M 7.859375 11.632812 C 7.859375 11.386719 7.648438 11.1875 7.378906 11.1875 C 7.113281 11.1875 6.898438 11.386719 6.898438 11.632812 C 6.898438 11.878906 7.113281 12.078125 7.378906 12.078125 C 7.648438 12.078125 7.859375 11.878906 7.859375 11.632812 Z M 7.859375 11.632812 "/>
<path style=" stroke:none;fill-rule:evenodd;fill:rgb(23.137255%,23.137255%,100%);fill-opacity:1;" d="M 7.117188 11.152344 L 7.640625 11.152344 L 7.640625 11.535156 L 7.117188 11.535156 Z M 7.117188 11.152344 "/>
<path style=" stroke:none;fill-rule:evenodd;fill:rgb(23.137255%,23.137255%,100%);fill-opacity:1;" d="M 7.640625 11.578125 C 7.640625 11.445312 7.523438 11.335938 7.378906 11.335938 C 7.234375 11.335938 7.117188 11.445312 7.117188 11.578125 C 7.117188 11.710938 7.234375 11.820312 7.378906 11.820312 C 7.523438 11.820312 7.640625 11.710938 7.640625 11.578125 Z M 7.640625 11.578125 "/>
<path style=" stroke:none;fill-rule:evenodd;fill:rgb(23.137255%,23.137255%,100%);fill-opacity:1;" d="M 6.921875 10.976562 L 7.835938 10.976562 L 7.835938 11.648438 L 6.921875 11.648438 Z M 6.921875 10.976562 "/>
<path style=" stroke:none;fill-rule:evenodd;fill:rgb(23.137255%,23.137255%,100%);fill-opacity:1;" d="M 7.835938 11.625 C 7.835938 11.390625 7.632812 11.203125 7.378906 11.203125 C 7.125 11.203125 6.921875 11.390625 6.921875 11.625 C 6.921875 11.859375 7.125 12.050781 7.378906 12.050781 C 7.632812 12.050781 7.835938 11.859375 7.835938 11.625 Z M 7.835938 11.625 "/>
<path style=" stroke:none;fill-rule:evenodd;fill:rgb(23.137255%,23.137255%,100%);fill-opacity:1;" d="M 7.132812 11.171875 L 7.625 11.171875 L 7.625 11.53125 L 7.132812 11.53125 Z M 7.132812 11.171875 "/>
<path style=" stroke:none;fill-rule:evenodd;fill:rgb(23.137255%,23.137255%,100%);fill-opacity:1;" d="M 7.625 11.574219 C 7.625 11.445312 7.515625 11.34375 7.378906 11.34375 C 7.242188 11.34375 7.132812 11.445312 7.132812 11.574219 C 7.132812 11.703125 7.242188 11.804688 7.378906 11.804688 C 7.515625 11.804688 7.625 11.703125 7.625 11.574219 Z M 7.625 11.574219 "/>
<path style=" stroke:none;fill-rule:evenodd;fill:rgb(23.137255%,23.137255%,100%);fill-opacity:1;" d="M 7.109375 11.191406 L 7.652344 11.191406 L 7.652344 11.59375 L 7.109375 11.59375 Z M 7.109375 11.191406 "/>
<path style=" stroke:none;fill-rule:evenodd;fill:rgb(23.137255%,23.137255%,100%);fill-opacity:1;" d="M 7.652344 11.578125 C 7.652344 11.441406 7.53125 11.328125 7.378906 11.328125 C 7.226562 11.328125 7.109375 11.441406 7.109375 11.578125 C 7.109375 11.71875 7.226562 11.835938 7.378906 11.835938 C 7.53125 11.835938 7.652344 11.71875 7.652344 11.578125 Z M 7.652344 11.578125 "/>
<path style=" stroke:none;fill-rule:evenodd;fill:rgb(23.137255%,23.137255%,100%);fill-opacity:1;" d="M 7.234375 11.308594 L 7.527344 11.308594 L 7.527344 11.523438 L 7.234375 11.523438 Z M 7.234375 11.308594 "/>
<path style=" stroke:none;fill-rule:evenodd;fill:rgb(23.137255%,23.137255%,100%);fill-opacity:1;" d="M 7.527344 11.546875 C 7.527344 11.472656 7.460938 11.414062 7.378906 11.414062 C 7.296875 11.414062 7.234375 11.472656 7.234375 11.546875 C 7.234375 11.625 7.296875 11.6875 7.378906 11.6875 C 7.460938 11.6875 7.527344 11.625 7.527344 11.546875 Z M 7.527344 11.546875 "/>
<path style=" stroke:none;fill-rule:evenodd;fill:rgb(23.137255%,23.137255%,100%);fill-opacity:1;" d="M 7.132812 11.222656 L 7.625 11.222656 L 7.625 11.585938 L 7.132812 11.585938 Z M 7.132812 11.222656 "/>
<path style=" stroke:none;fill-rule:evenodd;fill:rgb(23.137255%,23.137255%,100%);fill-opacity:1;" d="M 7.625 11.574219 C 7.625 11.445312 7.515625 11.34375 7.378906 11.34375 C 7.242188 11.34375 7.132812 11.445312 7.132812 11.574219 C 7.132812 11.703125 7.242188 11.804688 7.378906 11.804688 C 7.515625 11.804688 7.625 11.703125 7.625 11.574219 Z M 7.625 11.574219 "/>
<path style=" stroke:none;fill-rule:evenodd;fill:rgb(23.137255%,23.137255%,100%);fill-opacity:1;" d="M 7.246094 11.328125 L 7.511719 11.328125 L 7.511719 11.523438 L 7.246094 11.523438 Z M 7.246094 11.328125 "/>
<path style=" stroke:none;fill-rule:evenodd;fill:rgb(23.137255%,23.137255%,100%);fill-opacity:1;" d="M 7.515625 11.546875 C 7.515625 11.476562 7.453125 11.421875 7.378906 11.421875 C 7.304688 11.421875 7.246094 11.476562 7.246094 11.546875 C 7.246094 11.613281 7.304688 11.671875 7.378906 11.671875 C 7.453125 11.671875 7.515625 11.613281 7.515625 11.546875 Z M 7.515625 11.546875 "/>
<path style=" stroke:none;fill-rule:evenodd;fill:rgb(100%,100%,100%);fill-opacity:1;" d="M 7.234375 11.148438 C 7.234375 11.066406 7.171875 11 7.089844 11 C 7.011719 11 6.945312 11.066406 6.945312 11.148438 C 6.945312 11.226562 7.011719 11.289062 7.089844 11.289062 C 7.171875 11.289062 7.234375 11.226562 7.234375 11.148438 Z M 7.234375 11.148438 "/>
<path style=" stroke:none;fill-rule:evenodd;fill:rgb(100%,100%,100%);fill-opacity:1;" d="M 7.773438 11.148438 C 7.773438 11.066406 7.710938 11 7.632812 11 C 7.550781 11 7.484375 11.066406 7.484375 11.148438 C 7.484375 11.226562 7.550781 11.289062 7.632812 11.289062 C 7.710938 11.289062 7.773438 11.226562 7.773438 11.148438 Z M 7.773438 11.148438 "/>
<path style=" stroke:none;fill-rule:evenodd;fill:rgb(100%,100%,100%);fill-opacity:1;" d="M 7.5 11.449219 C 7.5 11.367188 7.4375 11.304688 7.355469 11.304688 C 7.273438 11.304688 7.210938 11.367188 7.210938 11.449219 C 7.210938 11.527344 7.273438 11.59375 7.355469 11.59375 C 7.4375 11.59375 7.5 11.527344 7.5 11.449219 Z M 7.5 11.449219 "/>
<path style=" stroke:none;fill-rule:evenodd;fill:rgb(100%,100%,100%);fill-opacity:1;" d="M 7.257812 11.742188 C 7.257812 11.664062 7.191406 11.597656 7.109375 11.597656 C 7.03125 11.597656 6.96875 11.664062 6.96875 11.742188 C 6.96875 11.820312 7.03125 11.882812 7.109375 11.882812 C 7.191406 11.882812 7.257812 11.820312 7.257812 11.742188 Z M 7.257812 11.742188 "/>
<path style=" stroke:none;fill-rule:evenodd;fill:rgb(100%,100%,100%);fill-opacity:1;" d="M 7.765625 11.75 C 7.765625 11.671875 7.703125 11.609375 7.625 11.609375 C 7.546875 11.609375 7.480469 11.671875 7.480469 11.75 C 7.480469 11.828125 7.546875 11.894531 7.625 11.894531 C 7.703125 11.894531 7.765625 11.828125 7.765625 11.75 Z M 7.765625 11.75 "/>
<path style=" stroke:none;fill-rule:evenodd;fill:rgb(100%,100%,0%);fill-opacity:1;" d="M 4.402344 7.367188 L 4.402344 7.460938 L 5.625 7.460938 L 5.625 7.367188 Z M 4.507812 7.117188 L 4.507812 7.371094 L 5.546875 7.371094 L 5.546875 7.117188 Z M 4.414062 7.953125 L 4.414062 8.042969 L 5.636719 8.042969 L 5.636719 7.953125 Z M 4.742188 7.921875 C 4.742188 7.757812 4.871094 7.625 5.027344 7.625 C 5.1875 7.625 5.3125 7.757812 5.3125 7.921875 C 5.3125 7.921875 5.3125 7.925781 5.3125 7.929688 M 4.710938 7.9375 C 4.710938 7.757812 4.851562 7.605469 5.027344 7.605469 C 5.203125 7.605469 5.34375 7.757812 5.34375 7.9375 C 5.34375 7.941406 5.34375 7.941406 5.34375 7.945312 M 4.507812 7.484375 L 4.507812 7.941406 L 5.546875 7.941406 L 5.546875 7.484375 Z M 4.402344 7.03125 L 4.402344 7.117188 L 5.625 7.117188 L 5.625 7.03125 Z M 4.402344 6.90625 L 4.402344 7.03125 L 4.496094 7.03125 L 4.496094 6.90625 Z M 5.53125 6.90625 L 5.53125 7.03125 L 5.625 7.03125 L 5.625 6.90625 Z M 4.589844 6.910156 L 4.589844 7.03125 L 4.683594 7.03125 L 4.683594 6.910156 Z M 5.335938 6.90625 L 5.335938 7.03125 L 5.429688 7.03125 L 5.429688 6.90625 Z M 4.773438 6.789062 L 4.773438 6.914062 L 4.867188 6.914062 L 4.867188 6.789062 Z M 5.148438 6.789062 L 5.148438 6.914062 L 5.242188 6.914062 L 5.242188 6.789062 Z M 4.960938 6.789062 L 4.960938 6.914062 L 5.058594 6.914062 L 5.058594 6.789062 Z M 4.773438 6.914062 L 4.773438 7.03125 L 5.242188 7.03125 L 5.242188 6.914062 Z M 4.773438 6.914062 "/>
<path style=" stroke:none;fill-rule:evenodd;fill:rgb(100%,0%,0%);fill-opacity:1;" d="M 4.765625 7.101562 L 4.859375 7.101562 L 4.859375 7.21875 L 4.765625 7.21875 Z M 4.765625 7.101562 "/>
<path style=" stroke:none;fill-rule:evenodd;fill:rgb(100%,0%,0%);fill-opacity:1;" d="M 5.1875 7.09375 L 5.28125 7.09375 L 5.28125 7.21875 L 5.1875 7.21875 Z M 5.1875 7.09375 "/>
<path style=" stroke:none;fill-rule:evenodd;fill:rgb(100%,100%,0%);fill-opacity:1;" d="M 9.085938 7.382812 L 9.085938 7.476562 L 10.304688 7.476562 L 10.304688 7.382812 Z M 9.195312 7.132812 L 9.195312 7.382812 L 10.230469 7.382812 L 10.230469 7.132812 Z M 9.101562 7.96875 L 9.101562 8.058594 L 10.320312 8.058594 L 10.320312 7.96875 Z M 9.429688 7.9375 C 9.429688 7.773438 9.554688 7.640625 9.710938 7.640625 C 9.871094 7.636719 10 7.773438 10 7.9375 C 10 7.9375 10 7.9375 10 7.941406 M 9.398438 7.953125 C 9.398438 7.773438 9.539062 7.621094 9.710938 7.621094 C 9.890625 7.621094 10.03125 7.769531 10.03125 7.953125 C 10.03125 7.953125 10.03125 7.957031 10.03125 7.960938 M 9.195312 7.5 L 9.195312 7.953125 L 10.230469 7.953125 L 10.230469 7.5 Z M 9.085938 7.042969 L 9.085938 7.132812 L 10.304688 7.132812 L 10.304688 7.042969 Z M 9.085938 6.921875 L 9.085938 7.046875 L 9.179688 7.046875 L 9.179688 6.921875 Z M 10.210938 6.921875 L 10.210938 7.046875 L 10.308594 7.046875 L 10.308594 6.921875 Z M 9.273438 6.921875 L 9.273438 7.046875 L 9.367188 7.046875 L 9.367188 6.921875 Z M 10.023438 6.921875 L 10.023438 7.046875 L 10.117188 7.046875 L 10.117188 6.921875 Z M 9.457031 6.804688 L 9.457031 6.929688 L 9.550781 6.929688 L 9.550781 6.804688 Z M 9.832031 6.804688 L 9.832031 6.929688 L 9.925781 6.929688 L 9.925781 6.804688 Z M 9.648438 6.804688 L 9.648438 6.925781 L 9.742188 6.925781 L 9.742188 6.804688 Z M 9.457031 6.929688 L 9.457031 7.046875 L 9.925781 7.046875 L 9.925781 6.929688 Z M 9.457031 6.929688 "/>
<path style=" stroke:none;fill-rule:evenodd;fill:rgb(100%,0%,0%);fill-opacity:1;" d="M 9.453125 7.113281 L 9.546875 7.113281 L 9.546875 7.234375 L 9.453125 7.234375 Z M 9.453125 7.113281 "/>
<path style=" stroke:none;fill-rule:evenodd;fill:rgb(100%,0%,0%);fill-opacity:1;" d="M 9.875 7.109375 L 9.96875 7.109375 L 9.96875 7.234375 L 9.875 7.234375 Z M 9.875 7.109375 "/>
<path style=" stroke:none;fill-rule:evenodd;fill:rgb(100%,100%,0%);fill-opacity:1;" d="M 6.789062 7.382812 L 6.789062 7.476562 L 8.007812 7.476562 L 8.007812 7.382812 Z M 6.894531 7.132812 L 6.894531 7.382812 L 7.929688 7.382812 L 7.929688 7.132812 Z M 6.804688 7.96875 L 6.804688 8.058594 L 8.023438 8.058594 L 8.023438 7.96875 Z M 7.128906 7.9375 C 7.128906 7.773438 7.257812 7.640625 7.414062 7.640625 C 7.570312 7.636719 7.699219 7.773438 7.703125 7.9375 C 7.703125 7.9375 7.703125 7.9375 7.703125 7.941406 M 7.097656 7.953125 C 7.097656 7.773438 7.242188 7.621094 7.414062 7.621094 C 7.589844 7.621094 7.734375 7.769531 7.734375 7.953125 C 7.734375 7.953125 7.734375 7.957031 7.734375 7.960938 M 6.894531 7.5 L 6.894531 7.953125 L 7.929688 7.953125 L 7.929688 7.5 Z M 6.789062 7.042969 L 6.789062 7.132812 L 8.007812 7.132812 L 8.007812 7.042969 Z M 6.789062 6.921875 L 6.789062 7.046875 L 6.882812 7.046875 L 6.882812 6.921875 Z M 7.914062 6.921875 L 7.914062 7.046875 L 8.007812 7.046875 L 8.007812 6.921875 Z M 6.976562 6.921875 L 6.976562 7.046875 L 7.070312 7.046875 L 7.070312 6.921875 Z M 7.722656 6.921875 L 7.722656 7.046875 L 7.816406 7.046875 L 7.816406 6.921875 Z M 7.15625 6.804688 L 7.15625 6.929688 L 7.25 6.929688 L 7.25 6.804688 Z M 7.53125 6.804688 L 7.53125 6.929688 L 7.625 6.929688 L 7.625 6.804688 Z M 7.351562 6.804688 L 7.351562 6.925781 L 7.445312 6.925781 L 7.445312 6.804688 Z M 7.15625 6.929688 L 7.15625 7.046875 L 7.625 7.046875 L 7.625 6.929688 Z M 7.15625 6.929688 "/>
<path style=" stroke:none;fill-rule:evenodd;fill:rgb(100%,0%,0%);fill-opacity:1;" d="M 7.15625 7.113281 L 7.25 7.113281 L 7.25 7.234375 L 7.15625 7.234375 Z M 7.15625 7.113281 "/>
<path style=" stroke:none;fill-rule:evenodd;fill:rgb(100%,0%,0%);fill-opacity:1;" d="M 7.578125 7.109375 L 7.671875 7.109375 L 7.671875 7.234375 L 7.578125 7.234375 Z M 7.578125 7.109375 "/>
<path style=" stroke:none;fill-rule:evenodd;fill:rgb(100%,100%,0%);fill-opacity:1;" d="M 4.296875 10.230469 L 4.296875 10.320312 L 5.519531 10.320312 L 5.519531 10.230469 Z M 4.40625 9.976562 L 4.40625 10.234375 L 5.445312 10.234375 L 5.445312 9.976562 Z M 4.3125 10.8125 L 4.3125 10.90625 L 5.53125 10.90625 L 5.53125 10.8125 Z M 4.640625 10.789062 C 4.640625 10.621094 4.765625 10.484375 4.925781 10.484375 C 5.085938 10.484375 5.210938 10.621094 5.210938 10.789062 M 4.609375 10.804688 C 4.609375 10.617188 4.75 10.46875 4.925781 10.46875 C 5.101562 10.46875 5.242188 10.617188 5.242188 10.804688 M 4.40625 10.347656 L 4.40625 10.804688 L 5.445312 10.804688 L 5.445312 10.347656 Z M 4.296875 9.890625 L 4.296875 9.976562 L 5.519531 9.976562 L 5.519531 9.890625 Z M 4.296875 9.769531 L 4.296875 9.890625 L 4.390625 9.890625 L 4.390625 9.769531 Z M 5.425781 9.769531 L 5.425781 9.890625 L 5.519531 9.890625 L 5.519531 9.769531 Z M 4.484375 9.773438 L 4.484375 9.894531 L 4.578125 9.894531 L 4.578125 9.773438 Z M 5.234375 9.769531 L 5.234375 9.890625 L 5.328125 9.890625 L 5.328125 9.769531 Z M 4.667969 9.65625 L 4.667969 9.777344 L 4.765625 9.777344 L 4.765625 9.65625 Z M 5.042969 9.65625 L 5.042969 9.777344 L 5.140625 9.777344 L 5.140625 9.65625 Z M 4.859375 9.652344 L 4.859375 9.773438 L 4.953125 9.773438 L 4.953125 9.652344 Z M 4.667969 9.777344 L 4.667969 9.894531 L 5.136719 9.894531 L 5.136719 9.777344 Z M 4.667969 9.777344 "/>
<path style=" stroke:none;fill-rule:evenodd;fill:rgb(100%,0%,0%);fill-opacity:1;" d="M 4.664062 9.960938 L 4.757812 9.960938 L 4.757812 10.085938 L 4.664062 10.085938 Z M 4.664062 9.960938 "/>
<path style=" stroke:none;fill-rule:evenodd;fill:rgb(100%,0%,0%);fill-opacity:1;" d="M 5.085938 9.960938 L 5.179688 9.960938 L 5.179688 10.082031 L 5.085938 10.082031 Z M 5.085938 9.960938 "/>
<path style=" stroke:none;fill-rule:evenodd;fill:rgb(100%,100%,0%);fill-opacity:1;" d="M 9.171875 10.203125 L 9.171875 10.292969 L 10.394531 10.292969 L 10.394531 10.203125 Z M 9.28125 9.949219 L 9.28125 10.203125 L 10.320312 10.203125 L 10.320312 9.949219 Z M 9.1875 10.785156 L 9.1875 10.875 L 10.410156 10.875 L 10.410156 10.785156 Z M 9.515625 10.757812 C 9.515625 10.59375 9.644531 10.457031 9.800781 10.457031 C 9.960938 10.457031 10.085938 10.59375 10.085938 10.757812 C 10.085938 10.757812 10.085938 10.757812 10.085938 10.761719 M 9.484375 10.773438 C 9.484375 10.589844 9.625 10.441406 9.800781 10.441406 C 9.976562 10.4375 10.117188 10.589844 10.117188 10.773438 C 10.117188 10.773438 10.117188 10.777344 10.117188 10.777344 M 9.28125 10.320312 L 9.28125 10.773438 L 10.320312 10.773438 L 10.320312 10.320312 Z M 9.171875 9.863281 L 9.171875 9.949219 L 10.394531 9.949219 L 10.394531 9.863281 Z M 9.171875 9.742188 L 9.171875 9.863281 L 9.269531 9.863281 L 9.269531 9.742188 Z M 10.300781 9.742188 L 10.300781 9.863281 L 10.398438 9.863281 L 10.398438 9.742188 Z M 9.359375 9.742188 L 9.359375 9.867188 L 9.457031 9.867188 L 9.457031 9.742188 Z M 10.109375 9.742188 L 10.109375 9.863281 L 10.203125 9.863281 L 10.203125 9.742188 Z M 9.546875 9.625 L 9.546875 9.75 L 9.640625 9.75 L 9.640625 9.625 Z M 9.921875 9.625 L 9.921875 9.75 L 10.015625 9.75 L 10.015625 9.625 Z M 9.734375 9.625 L 9.734375 9.746094 L 9.828125 9.746094 L 9.828125 9.625 Z M 9.546875 9.75 L 9.546875 9.867188 L 10.015625 9.867188 L 10.015625 9.75 Z M 9.546875 9.75 "/>
<path style=" stroke:none;fill-rule:evenodd;fill:rgb(100%,0%,0%);fill-opacity:1;" d="M 9.539062 9.933594 L 9.632812 9.933594 L 9.632812 10.054688 L 9.539062 10.054688 Z M 9.539062 9.933594 "/>
<path style=" stroke:none;fill-rule:evenodd;fill:rgb(100%,0%,0%);fill-opacity:1;" d="M 9.960938 9.929688 L 10.054688 9.929688 L 10.054688 10.054688 L 9.960938 10.054688 Z M 9.960938 9.929688 "/>
<path style=" stroke:none;fill-rule:evenodd;fill:rgb(100%,100%,0%);fill-opacity:1;" d="M 5.355469 12.992188 L 5.425781 13.054688 L 6.222656 12.132812 L 6.152344 12.070312 Z M 5.234375 12.75 L 5.425781 12.914062 L 6.101562 12.132812 L 5.910156 11.964844 Z M 5.808594 13.363281 L 5.875 13.421875 L 6.671875 12.5 L 6.605469 12.441406 Z M 6 13.097656 C 5.875 12.992188 5.855469 12.804688 5.960938 12.6875 C 6.0625 12.566406 6.246094 12.558594 6.375 12.664062 C 6.375 12.667969 6.375 12.667969 6.375 12.667969 M 5.992188 13.132812 C 5.851562 13.011719 5.832031 12.808594 5.945312 12.675781 C 6.058594 12.542969 6.265625 12.53125 6.40625 12.652344 C 6.40625 12.65625 6.40625 12.65625 6.40625 12.65625 M 5.515625 12.992188 L 5.859375 13.289062 L 6.539062 12.503906 L 6.1875 12.203125 Z M 5.097656 12.773438 L 5.164062 12.828125 L 5.960938 11.90625 L 5.894531 11.851562 Z M 5.007812 12.695312 L 5.101562 12.773438 L 5.160156 12.703125 L 5.066406 12.621094 Z M 5.742188 11.839844 L 5.835938 11.921875 L 5.898438 11.851562 L 5.804688 11.769531 Z M 5.128906 12.554688 L 5.222656 12.632812 L 5.285156 12.5625 L 5.191406 12.484375 Z M 5.617188 11.984375 L 5.710938 12.066406 L 5.769531 11.992188 L 5.679688 11.914062 Z M 5.15625 12.335938 L 5.25 12.417969 L 5.3125 12.34375 L 5.21875 12.265625 Z M 5.40625 12.054688 L 5.496094 12.132812 L 5.558594 12.0625 L 5.464844 11.984375 Z M 5.28125 12.191406 L 5.375 12.273438 L 5.4375 12.199219 L 5.34375 12.117188 Z M 5.25 12.417969 L 5.34375 12.492188 L 5.648438 12.140625 L 5.558594 12.0625 Z M 5.25 12.417969 "/>
<path style=" stroke:none;fill-rule:evenodd;fill:rgb(100%,0%,0%);fill-opacity:1;" d="M 5.390625 12.539062 L 5.453125 12.46875 L 5.546875 12.550781 L 5.484375 12.621094 Z M 5.390625 12.539062 "/>
<path style=" stroke:none;fill-rule:evenodd;fill:rgb(100%,0%,0%);fill-opacity:1;" d="M 5.664062 12.21875 L 5.726562 12.148438 L 5.820312 12.230469 L 5.757812 12.300781 Z M 5.664062 12.21875 "/>
<path style=" stroke:none;fill-rule:evenodd;fill:rgb(100%,100%,0%);fill-opacity:1;" d="M 9.398438 12.976562 L 9.328125 13.039062 L 8.53125 12.117188 L 8.601562 12.054688 Z M 9.523438 12.734375 L 9.328125 12.898438 L 8.648438 12.117188 L 8.84375 11.949219 Z M 8.945312 13.351562 L 8.875 13.40625 L 8.078125 12.484375 L 8.148438 12.425781 Z M 8.753906 13.085938 C 8.882812 12.976562 8.898438 12.789062 8.796875 12.671875 C 8.695312 12.554688 8.507812 12.542969 8.382812 12.652344 C 8.382812 12.652344 8.382812 12.65625 8.378906 12.65625 M 8.761719 13.117188 C 8.902344 13 8.921875 12.792969 8.808594 12.660156 C 8.695312 12.53125 8.488281 12.515625 8.351562 12.640625 C 8.347656 12.640625 8.347656 12.640625 8.34375 12.640625 M 9.242188 12.976562 L 8.894531 13.273438 L 8.21875 12.488281 L 8.5625 12.191406 Z M 9.65625 12.757812 L 9.589844 12.8125 L 8.792969 11.890625 L 8.859375 11.835938 Z M 9.75 12.679688 L 9.65625 12.757812 L 9.59375 12.6875 L 9.6875 12.609375 Z M 9.015625 11.828125 L 8.921875 11.90625 L 8.859375 11.835938 L 8.953125 11.757812 Z M 9.625 12.539062 L 9.53125 12.617188 L 9.46875 12.546875 L 9.5625 12.46875 Z M 9.140625 11.96875 L 9.046875 12.050781 L 8.984375 11.980469 L 9.078125 11.898438 Z M 9.59375 12.320312 L 9.5 12.402344 L 9.441406 12.332031 L 9.53125 12.25 Z M 9.351562 12.039062 L 9.257812 12.117188 L 9.195312 12.046875 L 9.289062 11.96875 Z M 9.46875 12.175781 L 9.378906 12.257812 L 9.316406 12.1875 L 9.410156 12.105469 Z M 9.5 12.40625 L 9.414062 12.480469 L 9.109375 12.125 L 9.195312 12.046875 Z M 9.5 12.40625 "/>
<path style=" stroke:none;fill-rule:evenodd;fill:rgb(100%,0%,0%);fill-opacity:1;" d="M 9.367188 12.527344 L 9.304688 12.453125 L 9.210938 12.535156 L 9.273438 12.609375 Z M 9.367188 12.527344 "/>
<path style=" stroke:none;fill-rule:evenodd;fill:rgb(100%,0%,0%);fill-opacity:1;" d="M 9.09375 12.207031 L 9.03125 12.132812 L 8.9375 12.214844 L 9 12.289062 Z M 9.09375 12.207031 "/>
<path style=" stroke:none;fill-rule:evenodd;fill:rgb(23.137255%,23.137255%,100%);fill-opacity:1;" d="M 6.882812 8.433594 L 7.84375 8.433594 L 7.84375 9.140625 L 6.882812 9.140625 Z M 6.882812 8.433594 "/>
<path style=" stroke:none;fill-rule:evenodd;fill:rgb(23.137255%,23.137255%,100%);fill-opacity:1;" d="M 7.84375 9.121094 C 7.84375 8.875 7.632812 8.671875 7.367188 8.671875 C 7.097656 8.671875 6.882812 8.875 6.882812 9.121094 C 6.882812 9.367188 7.097656 9.570312 7.367188 9.570312 C 7.632812 9.570312 7.84375 9.367188 7.84375 9.121094 Z M 7.84375 9.121094 "/>
<path style=" stroke:none;fill-rule:evenodd;fill:rgb(23.137255%,23.137255%,100%);fill-opacity:1;" d="M 7.101562 8.640625 L 7.625 8.640625 L 7.625 9.023438 L 7.101562 9.023438 Z M 7.101562 8.640625 "/>
<path style=" stroke:none;fill-rule:evenodd;fill:rgb(23.137255%,23.137255%,100%);fill-opacity:1;" d="M 7.625 9.0625 C 7.625 8.929688 7.507812 8.824219 7.367188 8.824219 C 7.21875 8.824219 7.101562 8.929688 7.101562 9.0625 C 7.101562 9.199219 7.21875 9.304688 7.367188 9.304688 C 7.507812 9.304688 7.625 9.199219 7.625 9.0625 Z M 7.625 9.0625 "/>
<path style=" stroke:none;fill-rule:evenodd;fill:rgb(23.137255%,23.137255%,100%);fill-opacity:1;" d="M 6.90625 8.460938 L 7.820312 8.460938 L 7.820312 9.132812 L 6.90625 9.132812 Z M 6.90625 8.460938 "/>
<path style=" stroke:none;fill-rule:evenodd;fill:rgb(23.137255%,23.137255%,100%);fill-opacity:1;" d="M 7.820312 9.117188 C 7.820312 8.882812 7.617188 8.6875 7.363281 8.6875 C 7.109375 8.6875 6.90625 8.882812 6.90625 9.117188 C 6.90625 9.351562 7.109375 9.539062 7.363281 9.539062 C 7.617188 9.539062 7.820312 9.351562 7.820312 9.117188 Z M 7.820312 9.117188 "/>
<path style=" stroke:none;fill-rule:evenodd;fill:rgb(23.137255%,23.137255%,100%);fill-opacity:1;" d="M 7.117188 8.65625 L 7.609375 8.65625 L 7.609375 9.023438 L 7.117188 9.023438 Z M 7.117188 8.65625 "/>
<path style=" stroke:none;fill-rule:evenodd;fill:rgb(23.137255%,23.137255%,100%);fill-opacity:1;" d="M 7.609375 9.0625 C 7.609375 8.9375 7.5 8.832031 7.367188 8.832031 C 7.226562 8.832031 7.117188 8.9375 7.117188 9.0625 C 7.117188 9.1875 7.226562 9.289062 7.367188 9.289062 C 7.5 9.289062 7.609375 9.1875 7.609375 9.0625 Z M 7.609375 9.0625 "/>
<path style=" stroke:none;fill-rule:evenodd;fill:rgb(23.137255%,23.137255%,100%);fill-opacity:1;" d="M 7.09375 8.679688 L 7.636719 8.679688 L 7.636719 9.078125 L 7.09375 9.078125 Z M 7.09375 8.679688 "/>
<path style=" stroke:none;fill-rule:evenodd;fill:rgb(23.137255%,23.137255%,100%);fill-opacity:1;" d="M 7.636719 9.070312 C 7.636719 8.929688 7.515625 8.816406 7.363281 8.816406 C 7.210938 8.816406 7.09375 8.929688 7.09375 9.070312 C 7.09375 9.210938 7.210938 9.320312 7.363281 9.320312 C 7.515625 9.320312 7.636719 9.210938 7.636719 9.070312 Z M 7.636719 9.070312 "/>
<path style=" stroke:none;fill-rule:evenodd;fill:rgb(23.137255%,23.137255%,100%);fill-opacity:1;" d="M 7.21875 8.796875 L 7.511719 8.796875 L 7.511719 9.015625 L 7.21875 9.015625 Z M 7.21875 8.796875 "/>
<path style=" stroke:none;fill-rule:evenodd;fill:rgb(23.137255%,23.137255%,100%);fill-opacity:1;" d="M 7.511719 9.039062 C 7.511719 8.960938 7.445312 8.898438 7.367188 8.898438 C 7.28125 8.898438 7.21875 8.960938 7.21875 9.039062 C 7.21875 9.113281 7.28125 9.171875 7.367188 9.171875 C 7.445312 9.171875 7.511719 9.113281 7.511719 9.039062 Z M 7.511719 9.039062 "/>
<path style=" stroke:none;fill-rule:evenodd;fill:rgb(23.137255%,23.137255%,100%);fill-opacity:1;" d="M 7.117188 8.710938 L 7.609375 8.710938 L 7.609375 9.070312 L 7.117188 9.070312 Z M 7.117188 8.710938 "/>
<path style=" stroke:none;fill-rule:evenodd;fill:rgb(23.137255%,23.137255%,100%);fill-opacity:1;" d="M 7.609375 9.0625 C 7.609375 8.9375 7.5 8.835938 7.363281 8.835938 C 7.226562 8.835938 7.117188 8.9375 7.117188 9.0625 C 7.117188 9.1875 7.226562 9.289062 7.363281 9.289062 C 7.5 9.289062 7.609375 9.1875 7.609375 9.0625 Z M 7.609375 9.0625 "/>
<path style=" stroke:none;fill-rule:evenodd;fill:rgb(23.137255%,23.137255%,100%);fill-opacity:1;" d="M 7.230469 8.816406 L 7.5 8.816406 L 7.5 9.011719 L 7.230469 9.011719 Z M 7.230469 8.816406 "/>
<path style=" stroke:none;fill-rule:evenodd;fill:rgb(23.137255%,23.137255%,100%);fill-opacity:1;" d="M 7.5 9.03125 C 7.5 8.964844 7.4375 8.910156 7.367188 8.910156 C 7.289062 8.910156 7.230469 8.964844 7.230469 9.03125 C 7.230469 9.101562 7.289062 9.15625 7.367188 9.15625 C 7.4375 9.15625 7.5 9.101562 7.5 9.03125 Z M 7.5 9.03125 "/>
<path style=" stroke:none;fill-rule:evenodd;fill:rgb(100%,100%,100%);fill-opacity:1;" d="M 7.21875 8.632812 C 7.21875 8.554688 7.15625 8.492188 7.074219 8.492188 C 6.996094 8.492188 6.929688 8.554688 6.929688 8.632812 C 6.929688 8.710938 6.996094 8.777344 7.074219 8.777344 C 7.15625 8.777344 7.21875 8.710938 7.21875 8.632812 Z M 7.21875 8.632812 "/>
<path style=" stroke:none;fill-rule:evenodd;fill:rgb(100%,100%,100%);fill-opacity:1;" d="M 7.757812 8.632812 C 7.757812 8.554688 7.695312 8.492188 7.617188 8.492188 C 7.535156 8.492188 7.46875 8.554688 7.46875 8.632812 C 7.46875 8.710938 7.535156 8.777344 7.617188 8.777344 C 7.695312 8.777344 7.757812 8.710938 7.757812 8.632812 Z M 7.757812 8.632812 "/>
<path style=" stroke:none;fill-rule:evenodd;fill:rgb(100%,100%,100%);fill-opacity:1;" d="M 7.484375 8.9375 C 7.484375 8.859375 7.421875 8.792969 7.339844 8.792969 C 7.257812 8.792969 7.195312 8.859375 7.195312 8.9375 C 7.195312 9.015625 7.257812 9.078125 7.339844 9.078125 C 7.421875 9.078125 7.484375 9.015625 7.484375 8.9375 Z M 7.484375 8.9375 "/>
<path style=" stroke:none;fill-rule:evenodd;fill:rgb(100%,100%,100%);fill-opacity:1;" d="M 7.242188 9.230469 C 7.242188 9.148438 7.175781 9.085938 7.09375 9.085938 C 7.015625 9.085938 6.953125 9.148438 6.953125 9.230469 C 6.953125 9.308594 7.015625 9.375 7.09375 9.375 C 7.175781 9.375 7.242188 9.308594 7.242188 9.230469 Z M 7.242188 9.230469 "/>
<path style=" stroke:none;fill-rule:evenodd;fill:rgb(100%,100%,100%);fill-opacity:1;" d="M 7.753906 9.238281 C 7.753906 9.160156 7.6875 9.09375 7.609375 9.09375 C 7.53125 9.09375 7.464844 9.160156 7.464844 9.238281 C 7.464844 9.320312 7.53125 9.382812 7.609375 9.382812 C 7.6875 9.382812 7.753906 9.320312 7.753906 9.238281 Z M 7.753906 9.238281 "/>
<path style=" stroke:none;fill-rule:evenodd;fill:rgb(23.137255%,23.137255%,100%);fill-opacity:1;" d="M 6.882812 9.679688 L 7.84375 9.679688 L 7.84375 10.390625 L 6.882812 10.390625 Z M 6.882812 9.679688 "/>
<path style=" stroke:none;fill-rule:evenodd;fill:rgb(23.137255%,23.137255%,100%);fill-opacity:1;" d="M 7.84375 10.367188 C 7.84375 10.125 7.632812 9.921875 7.367188 9.921875 C 7.097656 9.921875 6.882812 10.125 6.882812 10.367188 C 6.882812 10.617188 7.097656 10.816406 7.367188 10.816406 C 7.632812 10.816406 7.84375 10.617188 7.84375 10.367188 Z M 7.84375 10.367188 "/>
<path style=" stroke:none;fill-rule:evenodd;fill:rgb(23.137255%,23.137255%,100%);fill-opacity:1;" d="M 7.101562 9.890625 L 7.625 9.890625 L 7.625 10.273438 L 7.101562 10.273438 Z M 7.101562 9.890625 "/>
<path style=" stroke:none;fill-rule:evenodd;fill:rgb(23.137255%,23.137255%,100%);fill-opacity:1;" d="M 7.625 10.3125 C 7.625 10.179688 7.507812 10.070312 7.367188 10.070312 C 7.21875 10.070312 7.101562 10.179688 7.101562 10.3125 C 7.101562 10.445312 7.21875 10.554688 7.367188 10.554688 C 7.507812 10.554688 7.625 10.445312 7.625 10.3125 Z M 7.625 10.3125 "/>
<path style=" stroke:none;fill-rule:evenodd;fill:rgb(23.137255%,23.137255%,100%);fill-opacity:1;" d="M 6.90625 9.710938 L 7.820312 9.710938 L 7.820312 10.382812 L 6.90625 10.382812 Z M 6.90625 9.710938 "/>
<path style=" stroke:none;fill-rule:evenodd;fill:rgb(23.137255%,23.137255%,100%);fill-opacity:1;" d="M 7.820312 10.363281 C 7.820312 10.128906 7.617188 9.9375 7.363281 9.9375 C 7.109375 9.9375 6.90625 10.128906 6.90625 10.363281 C 6.90625 10.597656 7.109375 10.789062 7.363281 10.789062 C 7.617188 10.789062 7.820312 10.597656 7.820312 10.363281 Z M 7.820312 10.363281 "/>
<path style=" stroke:none;fill-rule:evenodd;fill:rgb(23.137255%,23.137255%,100%);fill-opacity:1;" d="M 7.117188 9.90625 L 7.609375 9.90625 L 7.609375 10.269531 L 7.117188 10.269531 Z M 7.117188 9.90625 "/>
<path style=" stroke:none;fill-rule:evenodd;fill:rgb(23.137255%,23.137255%,100%);fill-opacity:1;" d="M 7.609375 10.3125 C 7.609375 10.183594 7.5 10.078125 7.367188 10.078125 C 7.226562 10.078125 7.117188 10.183594 7.117188 10.3125 C 7.117188 10.4375 7.226562 10.539062 7.367188 10.539062 C 7.5 10.539062 7.609375 10.4375 7.609375 10.3125 Z M 7.609375 10.3125 "/>
<path style=" stroke:none;fill-rule:evenodd;fill:rgb(23.137255%,23.137255%,100%);fill-opacity:1;" d="M 7.09375 9.929688 L 7.636719 9.929688 L 7.636719 10.328125 L 7.09375 10.328125 Z M 7.09375 9.929688 "/>
<path style=" stroke:none;fill-rule:evenodd;fill:rgb(23.137255%,23.137255%,100%);fill-opacity:1;" d="M 7.636719 10.316406 C 7.636719 10.179688 7.515625 10.0625 7.363281 10.0625 C 7.210938 10.0625 7.09375 10.179688 7.09375 10.316406 C 7.09375 10.457031 7.210938 10.570312 7.363281 10.570312 C 7.515625 10.570312 7.636719 10.457031 7.636719 10.316406 Z M 7.636719 10.316406 "/>
<path style=" stroke:none;fill-rule:evenodd;fill:rgb(23.137255%,23.137255%,100%);fill-opacity:1;" d="M 7.21875 10.046875 L 7.511719 10.046875 L 7.511719 10.261719 L 7.21875 10.261719 Z M 7.21875 10.046875 "/>
<path style=" stroke:none;fill-rule:evenodd;fill:rgb(23.137255%,23.137255%,100%);fill-opacity:1;" d="M 7.511719 10.285156 C 7.511719 10.210938 7.445312 10.148438 7.367188 10.148438 C 7.28125 10.148438 7.21875 10.210938 7.21875 10.285156 C 7.21875 10.359375 7.28125 10.421875 7.367188 10.421875 C 7.445312 10.421875 7.511719 10.359375 7.511719 10.285156 Z M 7.511719 10.285156 "/>
<path style=" stroke:none;fill-rule:evenodd;fill:rgb(23.137255%,23.137255%,100%);fill-opacity:1;" d="M 7.117188 9.960938 L 7.609375 9.960938 L 7.609375 10.320312 L 7.117188 10.320312 Z M 7.117188 9.960938 "/>
<path style=" stroke:none;fill-rule:evenodd;fill:rgb(23.137255%,23.137255%,100%);fill-opacity:1;" d="M 7.609375 10.3125 C 7.609375 10.183594 7.5 10.082031 7.363281 10.082031 C 7.226562 10.082031 7.117188 10.183594 7.117188 10.3125 C 7.117188 10.4375 7.226562 10.539062 7.363281 10.539062 C 7.5 10.539062 7.609375 10.4375 7.609375 10.3125 Z M 7.609375 10.3125 "/>
<path style=" stroke:none;fill-rule:evenodd;fill:rgb(23.137255%,23.137255%,100%);fill-opacity:1;" d="M 7.230469 10.0625 L 7.5 10.0625 L 7.5 10.257812 L 7.230469 10.257812 Z M 7.230469 10.0625 "/>
<path style=" stroke:none;fill-rule:evenodd;fill:rgb(23.137255%,23.137255%,100%);fill-opacity:1;" d="M 7.5 10.28125 C 7.5 10.210938 7.4375 10.15625 7.367188 10.15625 C 7.289062 10.15625 7.230469 10.210938 7.230469 10.28125 C 7.230469 10.351562 7.289062 10.40625 7.367188 10.40625 C 7.4375 10.40625 7.5 10.351562 7.5 10.28125 Z M 7.5 10.28125 "/>
<path style=" stroke:none;fill-rule:evenodd;fill:rgb(100%,100%,100%);fill-opacity:1;" d="M 7.21875 9.882812 C 7.21875 9.804688 7.15625 9.738281 7.074219 9.738281 C 6.996094 9.738281 6.929688 9.804688 6.929688 9.882812 C 6.929688 9.960938 6.996094 10.023438 7.074219 10.023438 C 7.15625 10.023438 7.21875 9.960938 7.21875 9.882812 Z M 7.21875 9.882812 "/>
<path style=" stroke:none;fill-rule:evenodd;fill:rgb(100%,100%,100%);fill-opacity:1;" d="M 7.757812 9.882812 C 7.757812 9.804688 7.695312 9.738281 7.617188 9.738281 C 7.535156 9.738281 7.46875 9.804688 7.46875 9.882812 C 7.46875 9.960938 7.535156 10.023438 7.617188 10.023438 C 7.695312 10.023438 7.757812 9.960938 7.757812 9.882812 Z M 7.757812 9.882812 "/>
<path style=" stroke:none;fill-rule:evenodd;fill:rgb(100%,100%,100%);fill-opacity:1;" d="M 7.484375 10.1875 C 7.484375 10.105469 7.421875 10.039062 7.339844 10.039062 C 7.257812 10.039062 7.195312 10.105469 7.195312 10.1875 C 7.195312 10.265625 7.257812 10.328125 7.339844 10.328125 C 7.421875 10.328125 7.484375 10.265625 7.484375 10.1875 Z M 7.484375 10.1875 "/>
<path style=" stroke:none;fill-rule:evenodd;fill:rgb(100%,100%,100%);fill-opacity:1;" d="M 7.242188 10.476562 C 7.242188 10.398438 7.175781 10.335938 7.09375 10.335938 C 7.015625 10.335938 6.953125 10.398438 6.953125 10.476562 C 6.953125 10.554688 7.015625 10.621094 7.09375 10.621094 C 7.175781 10.621094 7.242188 10.554688 7.242188 10.476562 Z M 7.242188 10.476562 "/>
<path style=" stroke:none;fill-rule:evenodd;fill:rgb(100%,100%,100%);fill-opacity:1;" d="M 7.753906 10.488281 C 7.753906 10.40625 7.6875 10.34375 7.609375 10.34375 C 7.53125 10.34375 7.464844 10.40625 7.464844 10.488281 C 7.464844 10.566406 7.53125 10.632812 7.609375 10.632812 C 7.6875 10.632812 7.753906 10.566406 7.753906 10.488281 Z M 7.753906 10.488281 "/>
<path style=" stroke:none;fill-rule:evenodd;fill:rgb(23.137255%,23.137255%,100%);fill-opacity:1;" d="M 7.953125 9.679688 L 8.914062 9.679688 L 8.914062 10.390625 L 7.953125 10.390625 Z M 7.953125 9.679688 "/>
<path style=" stroke:none;fill-rule:evenodd;fill:rgb(23.137255%,23.137255%,100%);fill-opacity:1;" d="M 8.914062 10.367188 C 8.914062 10.125 8.695312 9.921875 8.429688 9.921875 C 8.164062 9.921875 7.953125 10.125 7.953125 10.367188 C 7.953125 10.617188 8.164062 10.816406 8.429688 10.816406 C 8.695312 10.816406 8.914062 10.617188 8.914062 10.367188 Z M 8.914062 10.367188 "/>
<path style=" stroke:none;fill-rule:evenodd;fill:rgb(23.137255%,23.137255%,100%);fill-opacity:1;" d="M 8.171875 9.890625 L 8.691406 9.890625 L 8.691406 10.273438 L 8.171875 10.273438 Z M 8.171875 9.890625 "/>
<path style=" stroke:none;fill-rule:evenodd;fill:rgb(23.137255%,23.137255%,100%);fill-opacity:1;" d="M 8.691406 10.3125 C 8.691406 10.179688 8.578125 10.070312 8.429688 10.070312 C 8.289062 10.070312 8.171875 10.179688 8.171875 10.3125 C 8.171875 10.445312 8.289062 10.554688 8.429688 10.554688 C 8.578125 10.554688 8.691406 10.445312 8.691406 10.3125 Z M 8.691406 10.3125 "/>
<path style=" stroke:none;fill-rule:evenodd;fill:rgb(23.137255%,23.137255%,100%);fill-opacity:1;" d="M 7.976562 9.710938 L 8.890625 9.710938 L 8.890625 10.382812 L 7.976562 10.382812 Z M 7.976562 9.710938 "/>
<path style=" stroke:none;fill-rule:evenodd;fill:rgb(23.137255%,23.137255%,100%);fill-opacity:1;" d="M 8.890625 10.363281 C 8.890625 10.128906 8.6875 9.9375 8.429688 9.9375 C 8.179688 9.9375 7.976562 10.128906 7.976562 10.363281 C 7.976562 10.597656 8.179688 10.789062 8.429688 10.789062 C 8.6875 10.789062 8.890625 10.597656 8.890625 10.363281 Z M 8.890625 10.363281 "/>
<path style=" stroke:none;fill-rule:evenodd;fill:rgb(23.137255%,23.137255%,100%);fill-opacity:1;" d="M 8.1875 9.90625 L 8.679688 9.90625 L 8.679688 10.269531 L 8.1875 10.269531 Z M 8.1875 9.90625 "/>
<path style=" stroke:none;fill-rule:evenodd;fill:rgb(23.137255%,23.137255%,100%);fill-opacity:1;" d="M 8.679688 10.3125 C 8.679688 10.183594 8.570312 10.078125 8.429688 10.078125 C 8.296875 10.078125 8.1875 10.183594 8.1875 10.3125 C 8.1875 10.4375 8.296875 10.539062 8.429688 10.539062 C 8.570312 10.539062 8.679688 10.4375 8.679688 10.3125 Z M 8.679688 10.3125 "/>
<path style=" stroke:none;fill-rule:evenodd;fill:rgb(23.137255%,23.137255%,100%);fill-opacity:1;" d="M 8.160156 9.929688 L 8.703125 9.929688 L 8.703125 10.328125 L 8.160156 10.328125 Z M 8.160156 9.929688 "/>
<path style=" stroke:none;fill-rule:evenodd;fill:rgb(23.137255%,23.137255%,100%);fill-opacity:1;" d="M 8.703125 10.316406 C 8.703125 10.179688 8.585938 10.0625 8.429688 10.0625 C 8.28125 10.0625 8.160156 10.179688 8.160156 10.316406 C 8.160156 10.457031 8.28125 10.570312 8.429688 10.570312 C 8.585938 10.570312 8.703125 10.457031 8.703125 10.316406 Z M 8.703125 10.316406 "/>
<path style=" stroke:none;fill-rule:evenodd;fill:rgb(23.137255%,23.137255%,100%);fill-opacity:1;" d="M 8.285156 10.046875 L 8.578125 10.046875 L 8.578125 10.261719 L 8.285156 10.261719 Z M 8.285156 10.046875 "/>
<path style=" stroke:none;fill-rule:evenodd;fill:rgb(23.137255%,23.137255%,100%);fill-opacity:1;" d="M 8.578125 10.285156 C 8.578125 10.210938 8.515625 10.148438 8.429688 10.148438 C 8.351562 10.148438 8.285156 10.210938 8.285156 10.285156 C 8.285156 10.359375 8.351562 10.421875 8.429688 10.421875 C 8.515625 10.421875 8.578125 10.359375 8.578125 10.285156 Z M 8.578125 10.285156 "/>
<path style=" stroke:none;fill-rule:evenodd;fill:rgb(23.137255%,23.137255%,100%);fill-opacity:1;" d="M 8.1875 9.960938 L 8.679688 9.960938 L 8.679688 10.320312 L 8.1875 10.320312 Z M 8.1875 9.960938 "/>
<path style=" stroke:none;fill-rule:evenodd;fill:rgb(23.137255%,23.137255%,100%);fill-opacity:1;" d="M 8.679688 10.3125 C 8.679688 10.183594 8.570312 10.082031 8.429688 10.082031 C 8.296875 10.082031 8.1875 10.183594 8.1875 10.3125 C 8.1875 10.4375 8.296875 10.539062 8.429688 10.539062 C 8.570312 10.539062 8.679688 10.4375 8.679688 10.3125 Z M 8.679688 10.3125 "/>
<path style=" stroke:none;fill-rule:evenodd;fill:rgb(23.137255%,23.137255%,100%);fill-opacity:1;" d="M 8.296875 10.0625 L 8.5625 10.0625 L 8.5625 10.257812 L 8.296875 10.257812 Z M 8.296875 10.0625 "/>
<path style=" stroke:none;fill-rule:evenodd;fill:rgb(23.137255%,23.137255%,100%);fill-opacity:1;" d="M 8.5625 10.28125 C 8.5625 10.210938 8.507812 10.15625 8.429688 10.15625 C 8.359375 10.15625 8.296875 10.210938 8.296875 10.28125 C 8.296875 10.351562 8.359375 10.40625 8.429688 10.40625 C 8.507812 10.40625 8.5625 10.351562 8.5625 10.28125 Z M 8.5625 10.28125 "/>
<path style=" stroke:none;fill-rule:evenodd;fill:rgb(100%,100%,100%);fill-opacity:1;" d="M 8.289062 9.882812 C 8.289062 9.804688 8.222656 9.738281 8.140625 9.738281 C 8.0625 9.738281 8 9.804688 8 9.882812 C 8 9.960938 8.0625 10.023438 8.140625 10.023438 C 8.222656 10.023438 8.289062 9.960938 8.289062 9.882812 Z M 8.289062 9.882812 "/>
<path style=" stroke:none;fill-rule:evenodd;fill:rgb(100%,100%,100%);fill-opacity:1;" d="M 8.828125 9.882812 C 8.828125 9.804688 8.761719 9.738281 8.683594 9.738281 C 8.601562 9.738281 8.539062 9.804688 8.539062 9.882812 C 8.539062 9.960938 8.601562 10.023438 8.683594 10.023438 C 8.761719 10.023438 8.828125 9.960938 8.828125 9.882812 Z M 8.828125 9.882812 "/>
<path style=" stroke:none;fill-rule:evenodd;fill:rgb(100%,100%,100%);fill-opacity:1;" d="M 8.554688 10.1875 C 8.554688 10.105469 8.488281 10.039062 8.40625 10.039062 C 8.328125 10.039062 8.265625 10.105469 8.265625 10.1875 C 8.265625 10.265625 8.328125 10.328125 8.40625 10.328125 C 8.488281 10.328125 8.554688 10.265625 8.554688 10.1875 Z M 8.554688 10.1875 "/>
<path style=" stroke:none;fill-rule:evenodd;fill:rgb(100%,100%,100%);fill-opacity:1;" d="M 8.308594 10.476562 C 8.308594 10.398438 8.242188 10.335938 8.164062 10.335938 C 8.085938 10.335938 8.019531 10.398438 8.019531 10.476562 C 8.019531 10.554688 8.085938 10.621094 8.164062 10.621094 C 8.242188 10.621094 8.308594 10.554688 8.308594 10.476562 Z M 8.308594 10.476562 "/>
<path style=" stroke:none;fill-rule:evenodd;fill:rgb(100%,100%,100%);fill-opacity:1;" d="M 8.820312 10.488281 C 8.820312 10.40625 8.757812 10.34375 8.679688 10.34375 C 8.597656 10.34375 8.53125 10.40625 8.53125 10.488281 C 8.53125 10.566406 8.597656 10.632812 8.679688 10.632812 C 8.757812 10.632812 8.820312 10.566406 8.820312 10.488281 Z M 8.820312 10.488281 "/>
<path style=" stroke:none;fill-rule:evenodd;fill:rgb(23.137255%,23.137255%,100%);fill-opacity:1;" d="M 5.8125 9.679688 L 6.777344 9.679688 L 6.777344 10.390625 L 5.8125 10.390625 Z M 5.8125 9.679688 "/>
<path style=" stroke:none;fill-rule:evenodd;fill:rgb(23.137255%,23.137255%,100%);fill-opacity:1;" d="M 6.777344 10.367188 C 6.777344 10.125 6.5625 9.921875 6.296875 9.921875 C 6.03125 9.921875 5.8125 10.125 5.8125 10.367188 C 5.8125 10.617188 6.03125 10.816406 6.296875 10.816406 C 6.5625 10.816406 6.777344 10.617188 6.777344 10.367188 Z M 6.777344 10.367188 "/>
<path style=" stroke:none;fill-rule:evenodd;fill:rgb(23.137255%,23.137255%,100%);fill-opacity:1;" d="M 6.039062 9.890625 L 6.554688 9.890625 L 6.554688 10.273438 L 6.039062 10.273438 Z M 6.039062 9.890625 "/>
<path style=" stroke:none;fill-rule:evenodd;fill:rgb(23.137255%,23.137255%,100%);fill-opacity:1;" d="M 6.554688 10.3125 C 6.554688 10.179688 6.4375 10.070312 6.296875 10.070312 C 6.152344 10.070312 6.039062 10.179688 6.039062 10.3125 C 6.039062 10.445312 6.152344 10.554688 6.296875 10.554688 C 6.4375 10.554688 6.554688 10.445312 6.554688 10.3125 Z M 6.554688 10.3125 "/>
<path style=" stroke:none;fill-rule:evenodd;fill:rgb(23.137255%,23.137255%,100%);fill-opacity:1;" d="M 5.839844 9.710938 L 6.753906 9.710938 L 6.753906 10.382812 L 5.839844 10.382812 Z M 5.839844 9.710938 "/>
<path style=" stroke:none;fill-rule:evenodd;fill:rgb(23.137255%,23.137255%,100%);fill-opacity:1;" d="M 6.753906 10.363281 C 6.753906 10.128906 6.546875 9.9375 6.296875 9.9375 C 6.042969 9.9375 5.835938 10.128906 5.835938 10.363281 C 5.835938 10.597656 6.042969 10.789062 6.296875 10.789062 C 6.546875 10.789062 6.753906 10.597656 6.753906 10.363281 Z M 6.753906 10.363281 "/>
<path style=" stroke:none;fill-rule:evenodd;fill:rgb(23.137255%,23.137255%,100%);fill-opacity:1;" d="M 6.046875 9.90625 L 6.542969 9.90625 L 6.542969 10.269531 L 6.046875 10.269531 Z M 6.046875 9.90625 "/>
<path style=" stroke:none;fill-rule:evenodd;fill:rgb(23.137255%,23.137255%,100%);fill-opacity:1;" d="M 6.542969 10.3125 C 6.542969 10.183594 6.433594 10.078125 6.296875 10.078125 C 6.160156 10.078125 6.046875 10.183594 6.046875 10.3125 C 6.046875 10.4375 6.160156 10.539062 6.296875 10.539062 C 6.433594 10.539062 6.542969 10.4375 6.542969 10.3125 Z M 6.542969 10.3125 "/>
<path style=" stroke:none;fill-rule:evenodd;fill:rgb(23.137255%,23.137255%,100%);fill-opacity:1;" d="M 6.023438 9.929688 L 6.570312 9.929688 L 6.570312 10.328125 L 6.023438 10.328125 Z M 6.023438 9.929688 "/>
<path style=" stroke:none;fill-rule:evenodd;fill:rgb(23.137255%,23.137255%,100%);fill-opacity:1;" d="M 6.570312 10.316406 C 6.570312 10.179688 6.445312 10.0625 6.296875 10.0625 C 6.144531 10.0625 6.023438 10.179688 6.023438 10.316406 C 6.023438 10.457031 6.144531 10.570312 6.296875 10.570312 C 6.445312 10.570312 6.570312 10.457031 6.570312 10.316406 Z M 6.570312 10.316406 "/>
<path style=" stroke:none;fill-rule:evenodd;fill:rgb(23.137255%,23.137255%,100%);fill-opacity:1;" d="M 6.148438 10.046875 L 6.445312 10.046875 L 6.445312 10.261719 L 6.148438 10.261719 Z M 6.148438 10.046875 "/>
<path style=" stroke:none;fill-rule:evenodd;fill:rgb(23.137255%,23.137255%,100%);fill-opacity:1;" d="M 6.445312 10.285156 C 6.445312 10.210938 6.375 10.148438 6.296875 10.148438 C 6.214844 10.148438 6.148438 10.210938 6.148438 10.285156 C 6.148438 10.359375 6.214844 10.421875 6.296875 10.421875 C 6.375 10.421875 6.445312 10.359375 6.445312 10.285156 Z M 6.445312 10.285156 "/>
<path style=" stroke:none;fill-rule:evenodd;fill:rgb(23.137255%,23.137255%,100%);fill-opacity:1;" d="M 6.050781 9.960938 L 6.542969 9.960938 L 6.542969 10.320312 L 6.050781 10.320312 Z M 6.050781 9.960938 "/>
<path style=" stroke:none;fill-rule:evenodd;fill:rgb(23.137255%,23.137255%,100%);fill-opacity:1;" d="M 6.542969 10.3125 C 6.542969 10.183594 6.429688 10.082031 6.296875 10.082031 C 6.160156 10.082031 6.050781 10.183594 6.050781 10.3125 C 6.050781 10.4375 6.160156 10.539062 6.296875 10.539062 C 6.429688 10.539062 6.542969 10.4375 6.542969 10.3125 Z M 6.542969 10.3125 "/>
<path style=" stroke:none;fill-rule:evenodd;fill:rgb(23.137255%,23.137255%,100%);fill-opacity:1;" d="M 6.164062 10.0625 L 6.429688 10.0625 L 6.429688 10.257812 L 6.164062 10.257812 Z M 6.164062 10.0625 "/>
<path style=" stroke:none;fill-rule:evenodd;fill:rgb(23.137255%,23.137255%,100%);fill-opacity:1;" d="M 6.429688 10.28125 C 6.429688 10.210938 6.367188 10.15625 6.296875 10.15625 C 6.222656 10.15625 6.164062 10.210938 6.164062 10.28125 C 6.164062 10.351562 6.222656 10.40625 6.296875 10.40625 C 6.367188 10.40625 6.429688 10.351562 6.429688 10.28125 Z M 6.429688 10.28125 "/>
<path style=" stroke:none;fill-rule:evenodd;fill:rgb(100%,100%,100%);fill-opacity:1;" d="M 6.148438 9.882812 C 6.148438 9.804688 6.085938 9.738281 6.007812 9.738281 C 5.929688 9.738281 5.863281 9.804688 5.863281 9.882812 C 5.863281 9.960938 5.929688 10.023438 6.007812 10.023438 C 6.085938 10.023438 6.148438 9.960938 6.148438 9.882812 Z M 6.148438 9.882812 "/>
<path style=" stroke:none;fill-rule:evenodd;fill:rgb(100%,100%,100%);fill-opacity:1;" d="M 6.691406 9.882812 C 6.691406 9.804688 6.625 9.738281 6.546875 9.738281 C 6.46875 9.738281 6.402344 9.804688 6.402344 9.882812 C 6.402344 9.960938 6.46875 10.023438 6.546875 10.023438 C 6.625 10.023438 6.691406 9.960938 6.691406 9.882812 Z M 6.691406 9.882812 "/>
<path style=" stroke:none;fill-rule:evenodd;fill:rgb(100%,100%,100%);fill-opacity:1;" d="M 6.414062 10.1875 C 6.414062 10.105469 6.351562 10.039062 6.273438 10.039062 C 6.195312 10.039062 6.128906 10.105469 6.128906 10.1875 C 6.128906 10.265625 6.195312 10.328125 6.273438 10.328125 C 6.351562 10.328125 6.414062 10.265625 6.414062 10.1875 Z M 6.414062 10.1875 "/>
<path style=" stroke:none;fill-rule:evenodd;fill:rgb(100%,100%,100%);fill-opacity:1;" d="M 6.171875 10.476562 C 6.171875 10.398438 6.109375 10.335938 6.027344 10.335938 C 5.949219 10.335938 5.882812 10.398438 5.882812 10.476562 C 5.882812 10.554688 5.949219 10.621094 6.027344 10.621094 C 6.109375 10.621094 6.171875 10.554688 6.171875 10.476562 Z M 6.171875 10.476562 "/>
<path style=" stroke:none;fill-rule:evenodd;fill:rgb(100%,100%,100%);fill-opacity:1;" d="M 6.6875 10.488281 C 6.6875 10.40625 6.621094 10.34375 6.539062 10.34375 C 6.460938 10.34375 6.398438 10.40625 6.398438 10.488281 C 6.398438 10.566406 6.460938 10.632812 6.539062 10.632812 C 6.621094 10.632812 6.6875 10.566406 6.6875 10.488281 Z M 6.6875 10.488281 "/>
</g>
</svg>
