<?xml version="1.0" encoding="UTF-8"?>
<svg xmlns="http://www.w3.org/2000/svg" xmlns:xlink="http://www.w3.org/1999/xlink" width="40px" height="40px" viewBox="0 0 40 40" version="1.1">
<g id="surface1">
<path style=" stroke:none;fill-rule:evenodd;fill:rgb(0%,60.392159%,95.686275%);fill-opacity:1;" d="M -20 0 L 40 0 L 40 20 L -20 20 Z M -20 0 "/>
<path style=" stroke:none;fill-rule:evenodd;fill:rgb(10.980392%,56.078434%,19.215687%);fill-opacity:1;" d="M -20 30 L 40 30 L 40 40 L -20 40 Z M -20 30 "/>
<path style=" stroke:none;fill-rule:evenodd;fill:rgb(93.725491%,93.725491%,0%);fill-opacity:1;" d="M -20 20 L 40 20 L 40 30 L -20 30 Z M -20 20 "/>
<path style=" stroke:none;fill-rule:evenodd;fill:rgb(100%,85.490197%,0%);fill-opacity:1;" d="M 34.476562 13.921875 L 31.574219 12.320312 L 33.300781 15.152344 L 30.910156 12.851562 L 31.84375 16.035156 L 30.128906 13.195312 L 30.210938 16.511719 L 29.289062 13.324219 L 28.507812 16.546875 L 28.445312 13.230469 L 26.855469 16.144531 L 27.648438 12.921875 L 25.363281 15.324219 L 26.964844 12.417969 L 24.132812 14.144531 L 26.429688 11.757812 L 23.25 12.691406 L 26.085938 10.976562 L 22.773438 11.054688 L 25.957031 10.136719 L 22.734375 9.355469 L 26.050781 9.289062 L 23.140625 7.699219 L 26.359375 8.496094 L 23.957031 6.207031 L 26.863281 7.808594 L 25.136719 4.976562 L 27.527344 7.277344 L 26.59375 4.09375 L 28.308594 6.933594 L 28.226562 3.617188 L 29.148438 6.804688 L 29.929688 3.582031 L 29.992188 6.898438 L 31.582031 3.984375 L 30.785156 7.207031 L 33.074219 4.804688 L 31.472656 7.710938 L 34.304688 5.984375 L 32.007812 8.371094 L 35.1875 7.4375 L 32.347656 9.152344 L 35.664062 9.074219 L 32.480469 9.992188 L 35.703125 10.773438 L 32.386719 10.839844 L 35.296875 12.429688 L 32.078125 11.632812 Z M 34.476562 13.921875 "/>
<path style=" stroke:none;fill-rule:evenodd;fill:rgb(0%,59.607846%,96.470588%);fill-opacity:1;" d="M 31.746094 10.066406 C 31.746094 11.460938 30.617188 12.59375 29.21875 12.59375 C 27.820312 12.59375 26.691406 11.460938 26.691406 10.066406 C 26.691406 8.667969 27.820312 7.535156 29.21875 7.535156 C 30.617188 7.535156 31.746094 8.667969 31.746094 10.066406 Z M 31.746094 10.066406 "/>
<path style=" stroke:none;fill-rule:evenodd;fill:rgb(100%,85.09804%,0%);fill-opacity:1;" d="M 31.253906 10.066406 C 31.253906 11.203125 30.339844 12.128906 29.21875 12.128906 C 28.097656 12.128906 27.183594 11.203125 27.183594 10.066406 C 27.183594 8.925781 28.097656 8 29.21875 8 C 30.339844 8 31.253906 8.925781 31.253906 10.066406 Z M 31.253906 10.066406 "/>
</g>
</svg>
