<?xml version="1.0" encoding="UTF-8"?>
<svg xmlns="http://www.w3.org/2000/svg" xmlns:xlink="http://www.w3.org/1999/xlink" width="40px" height="40px" viewBox="0 0 40 40" version="1.1">
<g id="surface1">
<rect x="0" y="0" width="40" height="40" style="fill:rgb(9.803922%,61.56863%,0%);fill-opacity:1;stroke:none;"/>
<path style=" stroke:none;fill-rule:evenodd;fill:rgb(100%,100%,100%);fill-opacity:1;" d="M 5.121094 11.339844 C 5.050781 12.273438 4.96875 13.917969 5.761719 14.085938 C 6.722656 14.179688 6.191406 12.460938 6.539062 12.148438 C 6.605469 11.996094 6.726562 11.996094 6.738281 12.1875 L 6.738281 13.644531 C 6.726562 14.121094 7.039062 14.257812 7.28125 14.355469 C 7.535156 14.335938 7.703125 14.347656 7.800781 14.589844 C 7.839844 15.429688 7.878906 16.269531 7.917969 17.113281 C 7.917969 17.113281 8.503906 17.277344 8.53125 15.695312 C 8.558594 14.761719 8.34375 13.984375 8.46875 13.804688 C 8.472656 13.625 8.703125 13.613281 8.859375 13.703125 C 9.109375 13.878906 9.222656 14.097656 9.613281 14.007812 C 10.207031 13.847656 10.5625 13.558594 10.570312 13.101562 C 10.535156 12.667969 10.488281 12.234375 10.300781 11.800781 C 10.328125 11.722656 10.1875 11.519531 10.210938 11.441406 C 10.320312 11.609375 10.480469 11.59375 10.519531 11.441406 C 10.417969 11.109375 10.261719 10.789062 10.003906 10.652344 C 9.796875 10.464844 9.488281 10.503906 9.375 10.890625 C 9.324219 11.332031 9.535156 11.863281 9.859375 12.292969 C 9.929688 12.460938 10.023438 12.742188 9.984375 12.992188 C 9.808594 13.089844 9.636719 13.050781 9.492188 12.898438 C 9.492188 12.898438 9.019531 12.542969 9.019531 12.464844 C 9.148438 11.660156 9.050781 11.570312 8.980469 11.347656 C 8.929688 11.039062 8.785156 10.941406 8.667969 10.730469 C 8.546875 10.605469 8.390625 10.605469 8.3125 10.730469 C 8.105469 11.09375 8.199219 11.871094 8.351562 12.21875 C 8.460938 12.539062 8.628906 12.738281 8.546875 12.738281 C 8.484375 12.921875 8.351562 12.878906 8.253906 12.671875 C 8.113281 12.238281 8.085938 11.59375 8.085938 11.304688 C 8.042969 10.945312 7.996094 10.179688 7.761719 9.984375 C 7.617188 9.785156 7.402344 9.882812 7.328125 10.0625 C 7.3125 10.417969 7.3125 10.777344 7.351562 11.105469 C 7.511719 11.679688 7.5625 12.1875 7.644531 12.78125 C 7.664062 13.570312 7.183594 13.121094 7.207031 12.730469 C 7.316406 12.222656 7.289062 11.417969 7.191406 11.214844 C 7.113281 11.011719 7.019531 10.960938 6.832031 10.996094 C 6.679688 10.988281 6.292969 11.410156 6.1875 12.109375 C 6.1875 12.109375 6.09375 12.46875 6.054688 12.789062 C 6 13.152344 5.761719 13.410156 5.59375 12.738281 C 5.449219 12.253906 5.363281 11.058594 5.121094 11.339844 Z M 5.121094 11.339844 "/>
<path style=" stroke:none;fill-rule:evenodd;fill:rgb(100%,100%,100%);fill-opacity:1;" d="M 7.730469 15.171875 C 6.882812 15.585938 6.0625 15.972656 5.230469 16.371094 C 5.257812 15.804688 6.417969 14.78125 7.207031 14.769531 C 7.722656 14.78125 7.59375 14.96875 7.730469 15.171875 Z M 7.730469 15.171875 "/>
<path style=" stroke:none;fill-rule:evenodd;fill:rgb(100%,100%,100%);fill-opacity:1;" d="M 7.292969 15.957031 C 5.972656 19.351562 10.378906 19.828125 10.871094 16.09375 C 10.917969 15.941406 11.101562 15.789062 11.136719 16.039062 C 11.035156 19.417969 7.730469 19.648438 7.167969 18.585938 C 7.027344 18.335938 6.984375 17.78125 6.972656 17.445312 C 6.890625 16.78125 6.539062 17.035156 6.484375 17.695312 C 6.429688 18.0625 6.441406 18.164062 6.441406 18.515625 C 6.621094 21.1875 10.875 20.039062 11.566406 17.835938 C 11.933594 16.613281 11.507812 15.714844 11.707031 15.71875 C 12.128906 16.171875 12.71875 15.777344 12.847656 15.621094 C 12.902344 15.542969 13.042969 15.492188 13.140625 15.59375 C 13.46875 15.832031 14.050781 15.71875 14.171875 15.300781 C 14.242188 14.894531 14.296875 14.46875 14.308594 14.035156 C 14.039062 14.117188 13.839844 14.171875 13.824219 14.285156 C 13.804688 14.40625 13.785156 14.527344 13.765625 14.648438 C 13.742188 14.761719 13.511719 14.765625 13.503906 14.617188 C 13.398438 14.15625 12.976562 14.09375 12.722656 14.8125 C 12.550781 14.953125 12.238281 14.980469 12.207031 14.773438 C 12.25 14.289062 12.054688 14.222656 11.664062 14.453125 C 11.539062 13.496094 11.414062 12.582031 11.289062 11.625 C 11.449219 11.621094 11.601562 11.742188 11.75 11.554688 C 11.585938 11.050781 11.242188 10.015625 11.050781 9.941406 C 10.960938 9.828125 10.878906 9.898438 10.757812 9.925781 C 10.554688 9.992188 10.363281 10.167969 10.425781 10.511719 C 10.667969 11.976562 10.824219 13.097656 11.066406 14.5625 C 11.101562 14.734375 10.960938 14.960938 10.773438 14.9375 C 10.457031 14.726562 10.378906 14.292969 9.839844 14.3125 C 9.449219 14.316406 9.003906 14.738281 8.949219 15.148438 C 8.882812 15.472656 8.859375 15.824219 8.949219 16.109375 C 9.222656 16.4375 9.554688 16.40625 9.839844 16.332031 C 10.078125 16.234375 10.273438 15.996094 10.355469 16.054688 C 10.410156 16.121094 10.371094 16.902344 9.242188 17.5 C 8.558594 17.808594 8.015625 17.878906 7.722656 17.320312 C 7.542969 16.972656 7.738281 15.648438 7.292969 15.957031 Z M 7.292969 15.957031 "/>
<path style=" stroke:none;fill-rule:evenodd;fill:rgb(100%,100%,100%);fill-opacity:1;" d="M 12.882812 12.503906 C 13.148438 12.40625 14.402344 10.96875 14.402344 10.96875 C 14.335938 10.914062 14.277344 10.875 14.210938 10.816406 C 14.144531 10.757812 14.148438 10.695312 14.210938 10.636719 C 14.523438 10.457031 14.421875 10.058594 14.261719 9.878906 C 13.992188 9.757812 13.757812 9.796875 13.585938 9.882812 C 13.367188 10.09375 13.316406 10.425781 13.488281 10.636719 C 13.65625 10.714844 13.824219 10.882812 13.710938 10.976562 C 13.199219 11.523438 11.792969 12.46875 11.957031 12.503906 C 11.992188 12.546875 12.855469 12.546875 12.882812 12.503906 Z M 12.882812 12.503906 "/>
<path style=" stroke:none;fill-rule:evenodd;fill:rgb(100%,100%,100%);fill-opacity:1;" d="M 5.316406 17.578125 C 4.84375 18.324219 4.804688 19.445312 5.0625 19.777344 C 5.199219 19.9375 5.425781 20.003906 5.59375 19.957031 C 5.890625 19.828125 6.019531 19.230469 5.949219 19.011719 C 5.851562 18.855469 5.773438 18.832031 5.675781 18.960938 C 5.46875 19.382812 5.378906 19.09375 5.363281 18.859375 C 5.332031 18.414062 5.371094 18 5.421875 17.675781 C 5.472656 17.339844 5.421875 17.441406 5.316406 17.578125 Z M 5.316406 17.578125 "/>
<path style=" stroke:none;fill-rule:evenodd;fill:rgb(100%,100%,100%);fill-opacity:1;" d="M 25.398438 16.378906 C 24.945312 15.398438 24.316406 14.433594 24.117188 14.0625 C 23.914062 13.691406 22.40625 11.496094 22.183594 11.25 C 21.691406 10.667969 22.980469 11.492188 22.019531 10.335938 C 21.652344 10.023438 21.632812 10.003906 21.328125 9.746094 C 21.175781 9.636719 20.800781 9.4375 20.734375 9.769531 C 20.699219 10.058594 20.71875 10.214844 20.765625 10.457031 C 20.804688 10.617188 21.039062 10.890625 21.15625 11.046875 C 22.6875 13.105469 24.046875 15.1875 25.359375 17.804688 C 25.566406 17.707031 25.519531 16.542969 25.398438 16.378906 Z M 25.398438 16.378906 "/>
<path style=" stroke:none;fill-rule:evenodd;fill:rgb(100%,100%,100%);fill-opacity:1;" d="M 23.40625 19.652344 C 23.316406 19.75 23.625 20.179688 24.027344 20.179688 C 24.703125 20.101562 25.292969 19.722656 25.84375 18.726562 C 25.992188 18.496094 26.25 18 26.257812 17.613281 C 26.308594 15.351562 26.144531 13.59375 25.804688 11.960938 C 25.78125 11.800781 25.796875 11.617188 25.824219 11.566406 C 25.867188 11.515625 26.015625 11.566406 26.09375 11.4375 C 26.207031 11.320312 25.789062 10.347656 25.546875 9.972656 C 25.460938 9.804688 25.433594 9.691406 25.292969 9.992188 C 25.144531 10.234375 25.042969 10.660156 25.054688 11.054688 C 25.375 13.28125 25.476562 15.226562 25.683594 17.453125 C 25.703125 17.667969 25.671875 17.980469 25.527344 18.105469 C 25 18.65625 24.234375 19.335938 23.40625 19.652344 Z M 23.40625 19.652344 "/>
<path style=" stroke:none;fill-rule:evenodd;fill:rgb(100%,100%,100%);fill-opacity:1;" d="M 32.503906 19.640625 C 32.019531 19.917969 32.019531 20.238281 32.410156 20.25 C 33.085938 20.171875 33.882812 20.117188 34.429688 19.289062 C 34.578125 19.054688 34.75 18.429688 34.757812 18.042969 C 34.8125 15.78125 34.730469 14.097656 34.390625 12.460938 C 34.371094 12.304688 34.300781 11.9375 34.328125 11.890625 C 34.371094 11.777344 34.589844 11.902344 34.667969 11.773438 C 34.78125 11.65625 34.097656 10.777344 33.859375 10.402344 C 33.773438 10.234375 33.746094 10.125 33.601562 10.421875 C 33.457031 10.664062 33.402344 11.101562 33.460938 11.484375 C 33.820312 13.902344 34.085938 15.714844 34.140625 17.859375 C 34.109375 18.0625 34.101562 18.171875 34.007812 18.425781 C 33.796875 18.699219 33.5625 19.035156 33.34375 19.199219 C 33.125 19.363281 32.65625 19.519531 32.503906 19.640625 Z M 32.503906 19.640625 "/>
<path style=" stroke:none;fill-rule:evenodd;fill:rgb(100%,100%,100%);fill-opacity:1;" d="M 32.867188 17.472656 C 32.863281 16.90625 32.875 16.421875 32.855469 16 C 32.839844 15.578125 32.765625 15.234375 32.617188 14.933594 C 32.480469 14.613281 32.566406 14.355469 32.5 14.015625 C 32.4375 13.671875 32.453125 13.160156 32.355469 12.757812 C 32.328125 12.597656 32.246094 12.089844 32.269531 12.042969 C 32.308594 11.929688 32.460938 12.046875 32.535156 11.914062 C 32.648438 11.792969 32.152344 10.507812 31.898438 10.140625 C 31.808594 9.976562 31.644531 10.03125 31.441406 10.300781 C 31.253906 10.476562 31.324219 10.878906 31.394531 11.261719 C 31.878906 13.78125 32.238281 16.066406 32.160156 18.46875 C 32.136719 18.671875 32.871094 17.859375 32.867188 17.472656 Z M 32.867188 17.472656 "/>
<path style=" stroke:none;fill-rule:evenodd;fill:rgb(100%,100%,100%);fill-opacity:1;" d="M 29.296875 14.34375 C 28.992188 14.339844 28.355469 13.753906 28.167969 13.410156 C 28.097656 13.210938 28.144531 13.019531 28.207031 12.90625 C 28.316406 12.832031 28.492188 12.75 28.621094 12.832031 C 28.621094 12.832031 28.753906 13.019531 28.730469 13.042969 C 28.894531 13.121094 28.964844 13.074219 28.984375 13.007812 C 28.992188 12.890625 28.933594 12.820312 28.933594 12.6875 C 29.003906 12.335938 29.40625 12.28125 29.558594 12.507812 C 29.671875 12.644531 29.710938 12.9375 29.726562 13.132812 C 29.726562 13.234375 29.5625 13.113281 29.46875 13.140625 C 29.378906 13.164062 29.355469 13.269531 29.347656 13.367188 C 29.332031 13.625 29.300781 14.035156 29.296875 14.34375 Z M 29.296875 14.34375 "/>
<path style=" stroke:none;fill-rule:evenodd;fill:rgb(100%,100%,100%);fill-opacity:1;" d="M 23.683594 18.101562 C 23.769531 17.332031 23.652344 15.964844 23.644531 15.511719 C 23.613281 14.441406 23.441406 12.375 23.355469 12.027344 C 23.261719 11.378906 23.625 12.101562 23.574219 11.722656 C 23.457031 11.070312 23.097656 10.628906 22.671875 10.035156 C 22.535156 9.839844 22.539062 9.800781 22.328125 10.082031 C 22.097656 10.613281 22.296875 10.976562 22.359375 11.390625 C 22.664062 12.734375 22.84375 13.96875 22.925781 15.191406 C 23.007812 16.414062 23.035156 17.738281 22.957031 19.023438 C 23.1875 19.035156 23.554688 18.65625 23.683594 18.101562 Z M 23.683594 18.101562 "/>
<path style=" stroke:none;fill-rule:evenodd;fill:rgb(100%,100%,100%);fill-opacity:1;" d="M 33.902344 16.871094 C 33.367188 15.96875 32.558594 14.996094 32.339844 14.632812 C 32.125 14.269531 30.296875 11.914062 30.0625 11.675781 C 29.394531 10.972656 30.371094 11.5625 29.9375 11.019531 C 29.566406 10.617188 29.460938 10.488281 29.144531 10.246094 C 28.988281 10.144531 28.890625 9.949219 28.839844 10.28125 C 28.820312 10.574219 28.796875 10.910156 28.816406 11.15625 C 28.816406 11.292969 28.960938 11.546875 29.082031 11.699219 C 30.703125 13.691406 32.472656 15.726562 33.894531 18.285156 C 34.097656 18.175781 34.03125 17.027344 33.902344 16.871094 Z M 33.902344 16.871094 "/>
<path style=" stroke:none;fill-rule:evenodd;fill:rgb(10.588235%,64.313728%,0%);fill-opacity:1;" d="M 9.578125 15.210938 C 9.539062 15.277344 9.453125 15.363281 9.480469 15.457031 C 9.542969 15.539062 9.589844 15.554688 9.691406 15.558594 C 9.777344 15.558594 9.898438 15.578125 9.925781 15.527344 C 9.972656 15.476562 10.007812 15.371094 9.96875 15.269531 C 9.878906 15.042969 9.625 15.128906 9.578125 15.210938 Z M 9.578125 15.210938 "/>
<path style=" stroke:none;fill-rule:evenodd;fill:rgb(100%,100%,100%);fill-opacity:1;" d="M 27.667969 28.324219 C 28.386719 28.347656 28.855469 28.355469 29.492188 28.433594 C 29.492188 28.433594 30.042969 28.378906 30.238281 28.347656 C 31.070312 28.269531 31.105469 29.535156 31.105469 29.535156 C 31.097656 30.273438 30.808594 30.3125 30.445312 30.390625 C 30.234375 30.417969 30.125 30.265625 30.015625 30.105469 C 29.878906 30.164062 29.691406 30.171875 29.464844 30.140625 C 29.164062 30.121094 28.867188 30.121094 28.566406 30.105469 C 28.25 30.074219 28.082031 30.136719 27.765625 30.109375 C 27.699219 30.210938 27.613281 30.355469 27.417969 30.308594 C 27.257812 30.289062 27.066406 29.835938 27.125 29.492188 C 27.238281 29.246094 27.207031 29.324219 27.195312 29.214844 C 24.265625 29.140625 21.304688 29.011719 18.429688 29.046875 C 16.179688 29.058594 13.957031 29.152344 11.734375 29.242188 C 10.550781 29.226562 9.644531 29.039062 9.019531 28.125 C 9.074219 28.125 12.042969 28.292969 12.910156 28.234375 C 14.515625 28.21875 15.984375 28.085938 17.617188 28.039062 C 20.839844 28.09375 24.03125 28.09375 27.25 28.320312 C 26.945312 28.109375 26.933594 27.609375 27.40625 27.488281 C 27.445312 27.460938 27.46875 27.738281 27.539062 27.730469 C 27.917969 27.703125 27.753906 28.21875 27.667969 28.324219 Z M 27.667969 28.324219 "/>
<path style=" stroke:none;fill-rule:evenodd;fill:rgb(100%,100%,100%);fill-opacity:1;" d="M 14.738281 10.570312 C 14.25 11.964844 15.015625 13.488281 15.546875 13.339844 C 15.933594 13.5 16.175781 12.769531 16.335938 11.96875 C 16.441406 11.746094 16.523438 11.71875 16.578125 11.835938 C 16.5625 12.902344 16.65625 13.136719 16.929688 13.460938 C 17.539062 13.929688 18.042969 13.519531 18.082031 13.480469 L 18.558594 13.003906 C 18.664062 12.894531 18.804688 12.886719 18.953125 12.984375 C 19.101562 13.117188 19.078125 13.34375 19.390625 13.503906 C 19.652344 13.609375 20.210938 13.527344 20.339844 13.300781 C 20.515625 13.003906 20.558594 12.898438 20.636719 12.785156 C 20.761719 12.621094 20.976562 12.695312 20.976562 12.746094 C 20.957031 12.839844 20.832031 12.933594 20.914062 13.097656 C 21.0625 13.210938 21.097656 13.136719 21.183594 13.113281 C 21.496094 12.964844 21.726562 12.292969 21.726562 12.292969 C 21.742188 12.039062 21.601562 12.0625 21.511719 12.113281 C 21.390625 12.1875 21.382812 12.210938 21.265625 12.28125 C 21.113281 12.304688 20.820312 12.40625 20.675781 12.179688 C 20.527344 11.910156 20.523438 11.53125 20.410156 11.257812 C 20.410156 11.238281 20.214844 10.828125 20.398438 10.804688 C 20.488281 10.820312 20.6875 10.875 20.71875 10.707031 C 20.816406 10.546875 20.511719 10.085938 20.300781 9.855469 C 20.121094 9.65625 19.871094 9.632812 19.628906 9.835938 C 19.460938 9.992188 19.484375 10.164062 19.449219 10.332031 C 19.40625 10.519531 19.417969 10.753906 19.609375 11.003906 C 19.777344 11.335938 20.085938 11.765625 19.984375 12.371094 C 19.984375 12.371094 19.804688 12.65625 19.492188 12.617188 C 19.359375 12.589844 19.148438 12.535156 19.035156 11.699219 C 18.949219 11.0625 19.054688 10.175781 18.785156 9.761719 C 18.6875 9.511719 18.617188 9.269531 18.378906 9.695312 C 18.316406 9.867188 18.042969 10.121094 18.242188 10.648438 C 18.402344 10.980469 18.46875 11.523438 18.394531 12.128906 C 18.285156 12.300781 18.257812 12.359375 18.113281 12.53125 C 17.90625 12.753906 17.679688 12.695312 17.507812 12.613281 C 17.347656 12.503906 17.222656 12.449219 17.148438 12.105469 C 17.164062 11.558594 17.195312 10.660156 17.09375 10.46875 C 16.945312 10.175781 16.703125 10.28125 16.597656 10.371094 C 16.097656 10.828125 15.851562 11.597656 15.699219 12.210938 C 15.5625 12.660156 15.414062 12.53125 15.3125 12.351562 C 15.058594 12.113281 15.042969 10.265625 14.738281 10.570312 Z M 14.738281 10.570312 "/>
<path style=" stroke:none;fill-rule:evenodd;fill:rgb(100%,100%,100%);fill-opacity:1;" d="M 16.207031 13.601562 C 16.429688 13.445312 16.324219 13.335938 16.65625 13.664062 C 17.070312 14.375 17.335938 15.292969 17.378906 16.109375 C 17.359375 16.308594 17.5 16.4375 17.566406 16.390625 C 17.605469 15.921875 18.75 15.265625 19.800781 15.167969 C 19.960938 15.132812 19.882812 14.828125 19.910156 14.667969 C 19.847656 14.085938 20.238281 13.554688 20.785156 13.511719 C 21.527344 13.625 21.777344 14.019531 21.789062 14.628906 C 21.710938 15.792969 20.496094 15.992188 19.8125 16.085938 C 19.707031 16.125 19.664062 16.171875 19.8125 16.230469 L 22.671875 16.242188 L 22.816406 16.328125 C 22.835938 16.394531 22.777344 16.339844 22.664062 16.523438 C 22.550781 16.710938 22.382812 17.140625 22.375 17.425781 C 21.523438 17.699219 20.640625 17.820312 19.746094 17.925781 C 19.4375 18.085938 19.28125 18.292969 19.34375 18.53125 C 19.449219 18.792969 20.140625 19.054688 20.140625 19.066406 C 20.269531 19.148438 20.425781 19.339844 20.101562 19.730469 C 18.707031 19.671875 17.628906 19.078125 17.253906 18.238281 C 17.140625 18.152344 17.019531 18.238281 16.941406 18.351562 C 16.394531 19.054688 15.859375 19.6875 14.933594 20.019531 C 14.378906 20.160156 13.8125 19.9375 13.542969 19.574219 C 13.367188 19.367188 13.371094 19.140625 13.304688 19.089844 C 13.007812 19.222656 10.433594 20.316406 10.757812 19.808594 C 11.386719 19.136719 12.46875 18.644531 13.429688 17.980469 C 13.496094 17.761719 13.625 17.007812 14 16.765625 C 14.023438 16.765625 13.941406 17.207031 13.949219 17.390625 C 13.953125 17.542969 13.9375 17.601562 13.972656 17.5625 C 14.035156 17.523438 15.199219 16.609375 15.289062 16.328125 C 15.402344 16.167969 15.324219 15.761719 15.324219 15.75 C 15.105469 15.1875 14.800781 15.140625 14.6875 14.859375 C 14.582031 14.488281 14.628906 14.066406 14.84375 13.949219 C 15.03125 13.777344 15.253906 13.796875 15.457031 13.984375 C 15.695312 14.195312 15.902344 14.605469 15.960938 14.914062 C 15.921875 15.035156 15.65625 14.832031 15.5625 14.890625 C 15.726562 15.0625 15.804688 15.257812 15.863281 15.496094 C 16.011719 16.136719 15.96875 16.386719 15.816406 16.800781 C 15.296875 17.886719 14.640625 18.210938 14.0625 18.613281 C 14.046875 18.617188 14.035156 18.890625 14.253906 19.035156 C 14.328125 19.113281 14.628906 19.152344 14.984375 19.039062 C 15.667969 18.667969 16.378906 17.980469 16.730469 17.214844 C 16.832031 16.636719 16.691406 16.023438 16.539062 15.484375 C 16.3125 14.964844 16.046875 14.214844 16.046875 14.203125 C 16.035156 13.878906 16.0625 13.765625 16.207031 13.601562 Z M 16.207031 13.601562 "/>
<path style=" stroke:none;fill-rule:evenodd;fill:rgb(100%,100%,100%);fill-opacity:1;" d="M 8.722656 10.582031 C 9.050781 10.738281 9.667969 10.671875 9.644531 10.144531 C 9.644531 10.097656 9.632812 9.9375 9.625 9.894531 C 9.558594 9.738281 9.375 9.777344 9.335938 9.9375 C 9.320312 9.992188 9.359375 10.078125 9.308594 10.101562 C 9.28125 10.132812 9.175781 10.113281 9.179688 9.96875 C 9.179688 9.921875 9.148438 9.871094 9.125 9.839844 C 9.105469 9.828125 9.09375 9.824219 9.054688 9.824219 C 9.007812 9.824219 9.007812 9.839844 8.984375 9.875 C 8.972656 9.914062 8.957031 9.953125 8.957031 10 C 8.953125 10.050781 8.933594 10.070312 8.894531 10.078125 C 8.851562 10.078125 8.863281 10.082031 8.828125 10.058594 C 8.804688 10.039062 8.78125 10.027344 8.78125 9.988281 C 8.78125 9.949219 8.773438 9.886719 8.757812 9.859375 C 8.742188 9.835938 8.710938 9.824219 8.679688 9.816406 C 8.5 9.816406 8.488281 10.019531 8.496094 10.097656 C 8.484375 10.113281 8.476562 10.480469 8.722656 10.582031 Z M 8.722656 10.582031 "/>
<path style=" stroke:none;fill-rule:evenodd;fill:rgb(100%,100%,100%);fill-opacity:1;" d="M 18.367188 14.667969 C 18.695312 14.824219 19.480469 14.734375 19.289062 14.226562 C 19.289062 14.179688 19.277344 14.019531 19.273438 13.976562 C 19.207031 13.820312 19.023438 13.859375 18.980469 14.019531 C 18.96875 14.074219 19.003906 14.160156 18.957031 14.1875 C 18.929688 14.214844 18.824219 14.199219 18.828125 14.050781 C 18.828125 14.003906 18.792969 13.953125 18.773438 13.925781 C 18.75 13.910156 18.738281 13.90625 18.699219 13.90625 C 18.65625 13.910156 18.65625 13.921875 18.628906 13.960938 C 18.621094 14 18.605469 14.039062 18.605469 14.082031 C 18.597656 14.132812 18.578125 14.152344 18.542969 14.160156 C 18.5 14.160156 18.507812 14.164062 18.472656 14.144531 C 18.453125 14.121094 18.425781 14.113281 18.425781 14.074219 C 18.425781 14.035156 18.417969 13.96875 18.40625 13.941406 C 18.386719 13.917969 18.359375 13.90625 18.324219 13.898438 C 18.144531 13.898438 18.132812 14.105469 18.144531 14.183594 C 18.128906 14.195312 18.121094 14.566406 18.367188 14.667969 Z M 18.367188 14.667969 "/>
<path style=" stroke:none;fill-rule:evenodd;fill:rgb(100%,100%,100%);fill-opacity:1;" d="M 23.992188 12.976562 C 24.320312 13.132812 24.9375 13.066406 24.914062 12.535156 C 24.914062 12.488281 24.902344 12.332031 24.898438 12.289062 C 24.828125 12.128906 24.644531 12.167969 24.605469 12.332031 C 24.589844 12.382812 24.628906 12.46875 24.578125 12.496094 C 24.550781 12.523438 24.449219 12.507812 24.453125 12.363281 C 24.453125 12.316406 24.417969 12.265625 24.398438 12.234375 C 24.375 12.222656 24.363281 12.21875 24.324219 12.21875 C 24.277344 12.21875 24.28125 12.230469 24.253906 12.269531 C 24.242188 12.308594 24.230469 12.347656 24.230469 12.390625 C 24.222656 12.445312 24.203125 12.460938 24.164062 12.46875 C 24.121094 12.46875 24.132812 12.476562 24.097656 12.453125 C 24.078125 12.429688 24.050781 12.421875 24.050781 12.382812 C 24.050781 12.34375 24.042969 12.277344 24.03125 12.253906 C 24.011719 12.226562 23.980469 12.21875 23.949219 12.207031 C 23.769531 12.210938 23.757812 12.414062 23.765625 12.492188 C 23.753906 12.507812 23.746094 12.875 23.992188 12.976562 Z M 23.992188 12.976562 "/>
<path style=" stroke:none;fill-rule:evenodd;fill:rgb(100%,100%,100%);fill-opacity:1;" d="M 26.90625 17.21875 C 26.332031 17.867188 26.585938 18.933594 26.714844 19.164062 C 26.902344 19.542969 27.054688 19.785156 27.421875 19.972656 C 27.757812 20.21875 28.019531 20.066406 28.164062 19.894531 C 28.5 19.542969 28.503906 18.652344 28.664062 18.476562 C 28.773438 18.148438 29.054688 18.207031 29.1875 18.347656 C 29.320312 18.539062 29.476562 18.660156 29.667969 18.761719 C 29.984375 19.039062 30.359375 19.089844 30.730469 18.839844 C 30.980469 18.695312 31.144531 18.511719 31.292969 18.148438 C 31.457031 17.710938 31.367188 15.675781 31.332031 14.472656 C 31.320312 14.378906 31.007812 12.816406 31.007812 12.796875 C 31.007812 12.78125 30.964844 12 30.929688 11.816406 C 30.925781 11.738281 30.90625 11.71875 30.984375 11.726562 C 31.070312 11.796875 31.082031 11.804688 31.132812 11.824219 C 31.21875 11.839844 31.292969 11.699219 31.242188 11.566406 C 30.980469 11.082031 30.71875 10.601562 30.457031 10.117188 C 30.394531 10.054688 30.3125 9.988281 30.210938 10.136719 C 30.117188 10.21875 30.015625 10.371094 30.019531 10.566406 C 30.042969 10.90625 30.101562 11.257812 30.125 11.601562 C 30.230469 12.1875 30.335938 12.773438 30.441406 13.363281 C 30.539062 14.617188 30.5625 15.644531 30.660156 16.902344 C 30.648438 17.433594 30.484375 17.898438 30.328125 17.964844 C 30.328125 17.964844 30.09375 18.101562 29.933594 17.949219 C 29.820312 17.902344 29.359375 17.183594 29.359375 17.183594 C 29.121094 16.964844 28.96875 17.027344 28.800781 17.183594 C 28.335938 17.628906 28.128906 18.464844 27.816406 19.039062 C 27.734375 19.167969 27.503906 19.277344 27.25 19.027344 C 26.609375 18.148438 26.984375 16.898438 26.90625 17.21875 Z M 26.90625 17.21875 "/>
<path style=" stroke:none;fill-rule:evenodd;fill:rgb(100%,100%,100%);fill-opacity:1;" d="M 24.140625 9.894531 C 24.433594 10.019531 24.644531 10.617188 24.574219 10.90625 C 24.515625 11.269531 24.359375 11.65625 24.246094 11.605469 C 24.125 11.5625 24.332031 11.25 24.214844 10.917969 C 24.148438 10.707031 23.746094 10.316406 23.789062 10.199219 C 23.707031 9.957031 23.960938 9.851562 24.140625 9.894531 Z M 24.140625 9.894531 "/>
<path style=" stroke:none;fill-rule:evenodd;fill:rgb(100%,100%,100%);fill-opacity:1;" d="M 27.855469 17.574219 C 27.914062 16.859375 27.8125 16.421875 27.792969 16 C 27.773438 15.578125 27.316406 12.363281 27.222656 12.042969 C 27.109375 11.441406 27.667969 11.960938 27.609375 11.609375 C 27.414062 11.167969 26.933594 10.523438 26.785156 10.140625 C 26.691406 9.976562 26.730469 9.832031 26.527344 10.097656 C 26.339844 10.714844 26.273438 11.214844 26.347656 11.597656 C 26.832031 14.121094 27.324219 16.21875 27.246094 18.621094 C 27.476562 18.621094 27.742188 18.09375 27.855469 17.574219 Z M 27.855469 17.574219 "/>
<path style=" stroke:none;fill-rule:evenodd;fill:rgb(100%,100%,100%);fill-opacity:1;" d="M 32.890625 10.910156 C 33.160156 11.046875 33.316406 11.792969 33.289062 12.007812 C 33.234375 12.398438 33.089844 12.820312 32.988281 12.765625 C 32.878906 12.714844 33.011719 12.1875 32.957031 12.019531 C 32.898438 11.789062 32.53125 11.367188 32.570312 11.242188 C 32.496094 10.980469 32.726562 10.867188 32.890625 10.910156 Z M 32.890625 10.910156 "/>
<path style=" stroke:none;fill-rule:evenodd;fill:rgb(100%,100%,100%);fill-opacity:1;" d="M 12.917969 16.21875 C 13.175781 16.316406 13.324219 16.867188 13.296875 17.023438 C 13.246094 17.3125 13.109375 17.621094 13.011719 17.582031 C 12.90625 17.542969 13.03125 17.15625 12.980469 17.035156 C 12.960938 16.738281 12.601562 16.585938 12.609375 16.460938 C 12.542969 16.226562 12.757812 16.183594 12.917969 16.21875 Z M 12.917969 16.21875 "/>
<path style=" stroke:none;fill-rule:evenodd;fill:rgb(10.588235%,61.56863%,0%);fill-opacity:1;" d="M 19.128906 17.042969 C 19.460938 17.066406 19.625 17.324219 19.316406 17.433594 C 19.007812 17.539062 18.714844 17.621094 18.710938 18.066406 C 18.828125 18.683594 18.558594 18.46875 18.398438 18.386719 C 18.207031 18.25 17.675781 17.925781 17.601562 17.21875 C 17.589844 17.050781 17.722656 16.910156 17.933594 16.910156 C 18.25 16.996094 18.722656 17.003906 19.128906 17.042969 Z M 19.128906 17.042969 "/>
<path style=" stroke:none;fill-rule:evenodd;fill:rgb(100%,100%,100%);fill-opacity:1;" d="M 6.046875 9.71875 C 6.425781 9.832031 6.449219 10.390625 6.421875 10.550781 C 6.371094 10.851562 6.234375 11.171875 6.140625 11.128906 C 6.035156 11.09375 6.136719 10.6875 6.085938 10.5625 C 6.027344 10.386719 5.707031 10.0625 5.746094 9.96875 C 5.671875 9.769531 5.890625 9.683594 6.046875 9.71875 Z M 6.046875 9.71875 "/>
<path style=" stroke:none;fill-rule:evenodd;fill:rgb(100%,100%,100%);fill-opacity:1;" d="M 13.535156 12.347656 C 13.246094 12.503906 13.132812 12.972656 13.3125 13.246094 C 13.484375 13.488281 13.75 13.398438 13.785156 13.398438 C 14.070312 13.433594 14.242188 12.863281 14.242188 12.863281 C 14.242188 12.863281 14.25 12.703125 13.910156 13.003906 C 13.769531 13.03125 13.75 12.980469 13.714844 12.898438 C 13.683594 12.75 13.691406 12.601562 13.757812 12.453125 C 13.808594 12.3125 13.699219 12.25 13.535156 12.347656 Z M 13.535156 12.347656 "/>
<path style=" stroke:none;fill-rule:evenodd;fill:rgb(100%,100%,100%);fill-opacity:1;" d="M 15.71875 9.5 C 15.574219 9.601562 15.28125 9.902344 15.273438 10.25 C 15.265625 10.445312 15.226562 10.445312 15.355469 10.570312 C 15.449219 10.703125 15.542969 10.691406 15.730469 10.59375 C 15.835938 10.511719 15.875 10.460938 15.910156 10.328125 C 15.953125 10.105469 15.675781 10.433594 15.636719 10.1875 C 15.578125 9.957031 15.757812 9.863281 15.925781 9.640625 C 15.929688 9.484375 15.925781 9.378906 15.71875 9.5 Z M 15.71875 9.5 "/>
<path style=" stroke:none;fill-rule:evenodd;fill:rgb(100%,100%,100%);fill-opacity:1;" d="M 17.476562 9.816406 C 17.414062 9.953125 17.339844 10.679688 17.351562 10.679688 C 17.300781 10.898438 17.578125 10.992188 17.703125 10.710938 C 17.894531 10.203125 17.894531 9.984375 17.90625 9.769531 C 17.847656 9.4375 17.625 9.449219 17.476562 9.816406 Z M 17.476562 9.816406 "/>
<path style=" stroke:none;fill-rule:evenodd;fill:rgb(100%,100%,100%);fill-opacity:1;" d="M 28.566406 15.457031 C 28.601562 15.417969 30.128906 14.335938 30.128906 14.335938 C 30.28125 14.28125 30.25 14.894531 30.179688 14.890625 C 30.207031 15.011719 28.675781 16.054688 28.566406 16.011719 C 28.488281 16.066406 28.414062 15.589844 28.566406 15.457031 Z M 28.566406 15.457031 "/>
<path style=" stroke:none;fill-rule:evenodd;fill:rgb(100%,100%,100%);fill-opacity:1;" d="M 29.957031 15.449219 C 30.222656 15.582031 30.332031 16.367188 30.300781 16.582031 C 30.3125 16.996094 30.042969 17.332031 29.941406 17.277344 C 29.828125 17.226562 29.949219 16.757812 29.894531 16.59375 C 29.835938 16.363281 29.609375 15.925781 29.648438 15.800781 C 29.570312 15.542969 29.789062 15.402344 29.957031 15.449219 Z M 29.957031 15.449219 "/>
<path style=" stroke:none;fill-rule:evenodd;fill:rgb(100%,100%,100%);fill-opacity:1;" d="M 20.886719 18.832031 C 20.992188 18.675781 21.320312 18.453125 21.328125 18.453125 C 21.480469 18.378906 21.625 18.515625 21.617188 18.503906 C 21.644531 18.65625 21.523438 18.796875 21.558594 19 C 21.59375 19.078125 21.617188 19.171875 21.765625 19.136719 C 22.007812 18.945312 22.234375 18.933594 22.476562 18.921875 C 22.660156 18.933594 22.667969 19.246094 22.550781 19.25 C 22.101562 19.34375 21.902344 19.464844 21.582031 19.585938 C 21.433594 19.675781 21.304688 19.5625 21.304688 19.550781 C 21.304688 19.539062 21.214844 19.464844 21.277344 19.265625 C 21.289062 19.105469 21.222656 19.015625 21.089844 19.035156 C 20.988281 19.089844 20.898438 19.125 20.847656 19.007812 C 20.828125 18.921875 20.824219 18.882812 20.886719 18.832031 Z M 20.886719 18.832031 "/>
<path style=" stroke:none;fill-rule:evenodd;fill:rgb(100%,100%,100%);fill-opacity:1;" d="M 31.558594 19.257812 C 31.625 19.339844 31.667969 19.414062 31.554688 19.550781 C 31.449219 19.652344 31.371094 19.703125 31.265625 19.800781 C 31.214844 19.886719 31.183594 20.019531 31.335938 20.0625 C 31.621094 20.140625 32.28125 19.714844 32.28125 19.703125 C 32.386719 19.625 32.351562 19.472656 32.34375 19.472656 C 32.28125 19.402344 32.140625 19.445312 32.046875 19.433594 C 32 19.433594 31.855469 19.410156 31.925781 19.28125 C 31.984375 19.199219 32.003906 19.148438 32.042969 19.046875 C 32.089844 18.949219 32.050781 18.886719 31.890625 18.832031 C 31.726562 18.800781 31.660156 18.816406 31.480469 18.832031 C 31.382812 18.851562 31.347656 18.894531 31.332031 19.015625 C 31.335938 19.195312 31.445312 19.183594 31.558594 19.257812 Z M 31.558594 19.257812 "/>
<path style=" stroke:none;fill-rule:evenodd;fill:rgb(14.509805%,62.352943%,0%);fill-opacity:1;" d="M 20.945312 14.824219 C 20.902344 14.894531 20.761719 14.890625 20.628906 14.816406 C 20.496094 14.738281 20.425781 14.617188 20.464844 14.542969 C 20.507812 14.472656 20.648438 14.476562 20.78125 14.554688 C 20.914062 14.628906 20.988281 14.75 20.945312 14.824219 Z M 20.945312 14.824219 "/>
<path style=" stroke:none;fill-rule:evenodd;fill:rgb(14.509805%,62.352943%,0%);fill-opacity:1;" d="M 13.988281 10.636719 C 13.90625 10.65625 13.804688 10.585938 13.753906 10.476562 C 13.707031 10.371094 13.730469 10.269531 13.8125 10.25 C 13.890625 10.230469 13.992188 10.300781 14.042969 10.410156 C 14.089844 10.515625 14.066406 10.617188 13.988281 10.636719 Z M 13.988281 10.636719 "/>
<path style=" stroke:none;fill-rule:evenodd;fill:rgb(12.54902%,56.470591%,0%);fill-opacity:1;" d="M 27.753906 29.292969 C 28.484375 29.328125 29.167969 29.300781 29.898438 29.335938 C 30.03125 29.449219 29.9375 29.726562 29.847656 29.707031 C 29.613281 29.699219 29.476562 29.695312 29.238281 29.6875 C 29.230469 29.457031 28.636719 29.496094 28.652344 29.695312 C 28.332031 29.734375 28.042969 29.683594 27.722656 29.671875 C 27.628906 29.554688 27.640625 29.34375 27.753906 29.292969 Z M 27.753906 29.292969 "/>
</g>
</svg>
