<?xml version="1.0" encoding="UTF-8"?>
<svg xmlns="http://www.w3.org/2000/svg" xmlns:xlink="http://www.w3.org/1999/xlink" width="20px" height="20px" viewBox="0 0 20 20" version="1.1">
<g id="surface1">
<rect x="0" y="0" width="20" height="20" style="fill:rgb(100%,100%,100%);fill-opacity:1;stroke:none;"/>
<path style=" stroke:none;fill-rule:evenodd;fill:rgb(87.450981%,0%,0%);fill-opacity:1;" d="M -0.78125 0 L 29.21875 0 L 29.21875 10 L -0.78125 10 Z M -0.78125 0 "/>
<path style=" stroke:none;fill-rule:evenodd;fill:rgb(100%,100%,100%);fill-opacity:1;" d="M 6.140625 1.675781 C 4.75 1.992188 3.722656 3.019531 3.429688 4.414062 C 3.039062 6.308594 4.273438 8.164062 6.171875 8.558594 C 4.25 9.105469 2.269531 8.003906 1.726562 6.101562 C 1.1875 4.203125 2.289062 2.222656 4.1875 1.679688 C 4.855469 1.492188 5.46875 1.488281 6.140625 1.675781 Z M 6.140625 1.675781 "/>
<path style=" stroke:none;fill-rule:evenodd;fill:rgb(100%,100%,100%);fill-opacity:1;" d="M 4.921875 4.585938 L 4.386719 4.195312 L 5.046875 4.1875 L 5.253906 3.5625 L 5.460938 4.1875 L 6.125 4.1875 L 5.59375 4.582031 L 5.796875 5.210938 L 5.257812 4.828125 L 4.722656 5.214844 Z M 4.921875 4.585938 "/>
<path style=" stroke:none;fill-rule:evenodd;fill:rgb(100%,100%,100%);fill-opacity:1;" d="M 5.652344 6.753906 L 5.117188 6.363281 L 5.78125 6.359375 L 5.984375 5.726562 L 6.195312 6.359375 L 6.859375 6.359375 L 6.324219 6.75 L 6.53125 7.382812 L 5.992188 6.996094 L 5.453125 7.382812 Z M 5.652344 6.753906 "/>
<path style=" stroke:none;fill-rule:evenodd;fill:rgb(100%,100%,100%);fill-opacity:1;" d="M 8.085938 6.738281 L 7.554688 6.347656 L 8.214844 6.34375 L 8.421875 5.710938 L 8.628906 6.339844 L 9.289062 6.34375 L 8.757812 6.734375 L 8.960938 7.367188 L 8.421875 6.980469 L 7.890625 7.367188 Z M 8.085938 6.738281 "/>
<path style=" stroke:none;fill-rule:evenodd;fill:rgb(100%,100%,100%);fill-opacity:1;" d="M 8.8125 4.585938 L 8.28125 4.195312 L 8.9375 4.191406 L 9.148438 3.5625 L 9.355469 4.1875 L 10.015625 4.1875 L 9.484375 4.585938 L 9.6875 5.210938 L 9.148438 4.828125 L 8.613281 5.21875 Z M 8.8125 4.585938 "/>
<path style=" stroke:none;fill-rule:evenodd;fill:rgb(100%,100%,100%);fill-opacity:1;" d="M 6.886719 3.15625 L 6.351562 2.769531 L 7.015625 2.765625 L 7.21875 2.132812 L 7.429688 2.761719 L 8.089844 2.765625 L 7.558594 3.15625 L 7.761719 3.789062 L 7.222656 3.402344 L 6.6875 3.789062 Z M 6.886719 3.15625 "/>
</g>
</svg>
