<?xml version="1.0" encoding="UTF-8"?>
<svg xmlns="http://www.w3.org/2000/svg" xmlns:xlink="http://www.w3.org/1999/xlink" width="40px" height="40px" viewBox="0 0 40 40" version="1.1">
<g id="surface1">
<rect x="0" y="0" width="40" height="40" style="fill:rgb(100%,100%,100%);fill-opacity:1;stroke:none;"/>
<path style=" stroke:none;fill-rule:evenodd;fill:rgb(87.058824%,16.078432%,9.411765%);fill-opacity:1;" d="M -4.84375 26.667969 L 75.15625 26.667969 L 75.15625 40 L -4.84375 40 Z M -4.84375 26.667969 "/>
<path style=" stroke:none;fill-rule:evenodd;fill:rgb(3.137255%,22.352941%,61.176473%);fill-opacity:1;" d="M -4.84375 13.332031 L 75.15625 13.332031 L 75.15625 26.667969 L -4.84375 26.667969 Z M -4.84375 13.332031 "/>
<path style=" stroke:none;fill-rule:evenodd;fill:rgb(87.058824%,16.078432%,9.411765%);fill-opacity:1;" d="M 17.839844 7.265625 C 17.527344 12.082031 17.347656 14.71875 16.613281 15.941406 C 15.820312 17.253906 15.050781 18.210938 11.953125 19.367188 C 8.859375 18.210938 8.089844 17.253906 7.296875 15.941406 C 6.5625 14.71875 6.382812 12.078125 6.070312 7.265625 L 6.527344 7.109375 C 7.445312 6.828125 8.132812 6.601562 8.640625 6.503906 C 9.367188 6.347656 9.988281 6.175781 11.941406 6.132812 C 13.898438 6.167969 14.519531 6.351562 15.246094 6.507812 C 15.75 6.613281 16.46875 6.824219 17.378906 7.113281 Z M 17.839844 7.265625 "/>
<path style=" stroke:none;fill-rule:evenodd;fill:rgb(3.137255%,22.352941%,61.176473%);fill-opacity:1;" d="M 17.390625 7.105469 C 17.09375 11.914062 16.84375 14.113281 16.457031 15.171875 C 15.703125 16.984375 14.515625 17.976562 11.953125 18.925781 C 9.390625 17.976562 8.199219 16.984375 7.445312 15.171875 C 7.058594 14.113281 6.8125 11.917969 6.527344 7.101562 C 7.425781 6.820312 8.132812 6.601562 8.640625 6.5 C 9.367188 6.347656 9.988281 6.164062 11.941406 6.128906 C 13.898438 6.164062 14.523438 6.347656 15.25 6.5 C 15.757812 6.601562 16.480469 6.820312 17.390625 7.105469 Z M 17.390625 7.105469 "/>
<path style=" stroke:none;fill-rule:evenodd;fill:rgb(100%,80.000001%,0%);fill-opacity:1;" d="M 11.949219 8.578125 L 12.070312 8.867188 L 12.613281 8.941406 L 12.261719 9.152344 L 12.601562 9.378906 L 12.109375 9.460938 L 11.957031 9.726562 L 11.789062 9.453125 L 11.320312 9.386719 L 11.640625 9.15625 L 11.3125 8.945312 L 11.832031 8.867188 Z M 11.949219 8.578125 "/>
<path style=" stroke:none;fill-rule:evenodd;fill:rgb(100%,100%,100%);fill-opacity:1;" d="M 16.273438 14.03125 L 15.972656 13.796875 L 15.757812 13.441406 L 15.332031 13.074219 L 15.113281 12.703125 L 14.6875 12.324219 L 14.480469 11.953125 L 14.257812 11.769531 L 14.105469 11.625 L 13.722656 11.960938 L 13.515625 12.328125 L 13.257812 12.5625 L 12.96875 12.339844 L 12.753906 11.957031 L 11.953125 10.535156 L 11.152344 11.957031 L 10.9375 12.339844 L 10.648438 12.5625 L 10.390625 12.328125 L 10.183594 11.960938 L 9.800781 11.625 L 9.652344 11.769531 L 9.425781 11.953125 L 9.21875 12.324219 L 8.792969 12.703125 L 8.574219 13.074219 L 8.148438 13.441406 L 7.933594 13.796875 L 7.636719 14.039062 C 7.789062 15.359375 8.632812 16.390625 9.089844 16.863281 C 9.601562 17.359375 10.65625 18.023438 11.945312 18.464844 C 13.238281 18.035156 14.304688 17.359375 14.816406 16.863281 C 15.273438 16.390625 16.117188 15.359375 16.273438 14.03125 Z M 16.273438 14.03125 "/>
<path style=" stroke:none;fill-rule:evenodd;fill:rgb(100%,80.000001%,0%);fill-opacity:1;" d="M 13.238281 6.554688 L 13.359375 6.84375 L 13.902344 6.917969 L 13.550781 7.128906 L 13.890625 7.355469 L 13.398438 7.4375 L 13.246094 7.703125 L 13.078125 7.429688 L 12.609375 7.363281 L 12.929688 7.132812 L 12.601562 6.921875 L 13.121094 6.84375 Z M 13.238281 6.554688 "/>
<path style=" stroke:none;fill-rule:evenodd;fill:rgb(100%,80.000001%,0%);fill-opacity:1;" d="M 10.660156 6.550781 L 10.785156 6.839844 L 11.324219 6.914062 L 10.972656 7.125 L 11.3125 7.351562 L 10.820312 7.433594 L 10.671875 7.699219 L 10.503906 7.425781 L 10.035156 7.359375 L 10.351562 7.128906 L 10.023438 6.917969 L 10.542969 6.839844 Z M 10.660156 6.550781 "/>
<path style=" stroke:none;fill-rule:evenodd;fill:rgb(3.137255%,22.352941%,61.176473%);fill-opacity:1;" d="M 15.601562 15.863281 L 15.019531 15.863281 L 14.480469 15.824219 L 13.828125 15.503906 L 13.09375 15.507812 L 12.457031 15.820312 L 11.957031 15.863281 L 11.453125 15.820312 L 10.816406 15.507812 L 10.082031 15.503906 L 9.429688 15.824219 L 8.890625 15.863281 L 8.300781 15.855469 L 8.015625 15.371094 L 8.023438 15.359375 L 8.898438 15.503906 L 9.4375 15.464844 L 10.089844 15.144531 L 10.824219 15.148438 L 11.460938 15.460938 L 11.960938 15.503906 L 12.464844 15.460938 L 13.101562 15.148438 L 13.835938 15.144531 L 14.488281 15.464844 L 15.027344 15.503906 L 15.875 15.355469 L 15.886719 15.378906 Z M 15.601562 15.863281 "/>
<path style=" stroke:none;fill-rule:evenodd;fill:rgb(3.137255%,22.352941%,61.176473%);fill-opacity:1;" d="M 8.847656 16.605469 L 9.425781 16.566406 L 10.078125 16.246094 L 10.8125 16.25 L 11.449219 16.558594 L 11.949219 16.605469 L 12.453125 16.558594 L 13.089844 16.25 L 13.824219 16.246094 L 14.476562 16.566406 L 15.0625 16.605469 L 15.441406 16.140625 L 15.425781 16.128906 L 15.023438 16.246094 L 14.484375 16.207031 L 13.832031 15.886719 L 13.097656 15.890625 L 12.460938 16.203125 L 11.957031 16.246094 L 11.457031 16.203125 L 10.820312 15.890625 L 10.085938 15.886719 L 9.433594 16.207031 L 8.894531 16.246094 L 8.496094 16.148438 L 8.492188 16.167969 Z M 8.847656 16.605469 "/>
</g>
</svg>
