<?xml version="1.0" encoding="UTF-8"?>
<svg xmlns="http://www.w3.org/2000/svg" xmlns:xlink="http://www.w3.org/1999/xlink" width="40px" height="40px" viewBox="0 0 40 40" version="1.1">
<g id="surface1">
<rect x="0" y="0" width="40" height="40" style="fill:rgb(100%,100%,100%);fill-opacity:1;stroke:none;"/>
<path style=" stroke:none;fill-rule:evenodd;fill:rgb(100%,100%,100%);fill-opacity:1;" d="M -6.25 0.0117188 L 48.417969 0.0117188 L 48.417969 40 L -6.25 40 Z M -6.25 0.0117188 "/>
<path style=" stroke:none;fill-rule:evenodd;fill:rgb(84.313726%,15.686275%,15.686275%);fill-opacity:1;" d="M -7.75 -1.800781 L 8.886719 -1.800781 L 8.886719 15.503906 L -7.75 15.503906 Z M -7.75 -1.800781 "/>
<path style=" stroke:none;fill-rule:evenodd;fill:rgb(84.313726%,15.686275%,15.686275%);fill-opacity:1;" d="M 18.546875 -1.800781 L 50.382812 -1.800781 L 50.382812 15.503906 L 18.546875 15.503906 Z M 18.546875 -1.800781 "/>
<path style=" stroke:none;fill-rule:evenodd;fill:rgb(84.313726%,15.686275%,15.686275%);fill-opacity:1;" d="M -7.75 25.128906 L 8.65625 25.128906 L 8.65625 42.769531 L -7.75 42.769531 Z M -7.75 25.128906 "/>
<path style=" stroke:none;fill-rule:evenodd;fill:rgb(84.313726%,15.686275%,15.686275%);fill-opacity:1;" d="M 18.75 25.296875 L 50.382812 25.296875 L 50.382812 42.769531 L 18.75 42.769531 Z M 18.75 25.296875 "/>
<path style=" stroke:none;fill-rule:evenodd;fill:rgb(0%,21.960784%,59.215689%);fill-opacity:1;" d="M 11.300781 -1.800781 L 16.332031 -1.800781 L 16.332031 42.769531 L 11.300781 42.769531 Z M 11.300781 -1.800781 "/>
<path style=" stroke:none;fill-rule:evenodd;fill:rgb(0%,21.960784%,59.215689%);fill-opacity:1;" d="M -9.6875 17.566406 L 50.382812 17.566406 L 50.382812 22.523438 L -9.6875 22.523438 Z M -9.6875 17.566406 "/>
</g>
</svg>
