<?xml version="1.0" encoding="UTF-8"?>
<svg xmlns="http://www.w3.org/2000/svg" xmlns:xlink="http://www.w3.org/1999/xlink" width="40px" height="40px" viewBox="0 0 40 40" version="1.1">
<g id="surface1">
<rect x="0" y="0" width="40" height="40" style="fill:rgb(100%,100%,100%);fill-opacity:1;stroke:none;"/>
<path style=" stroke:none;fill-rule:evenodd;fill:rgb(0.392157%,0.392157%,49.411765%);fill-opacity:1;" d="M -5.390625 13.332031 L 54.609375 13.332031 L 54.609375 40 L -5.390625 40 Z M -5.390625 13.332031 "/>
<path style=" stroke:none;fill-rule:evenodd;fill:rgb(99.607843%,0.392157%,0.392157%);fill-opacity:1;" d="M -5.390625 26.667969 L 54.609375 26.667969 L 54.609375 40 L -5.390625 40 Z M -5.390625 26.667969 "/>
<path style=" stroke:none;fill-rule:evenodd;fill:rgb(100%,100%,100%);fill-opacity:1;" d="M 5.058594 9.078125 L 5.058594 20.292969 C 5.824219 24.671875 7.863281 29.128906 14.738281 31.394531 C 21.574219 29.128906 23.761719 24.867188 24.570312 20.21875 L 24.570312 9.078125 Z M 5.058594 9.078125 "/>
<path style=" stroke:none;fill-rule:evenodd;fill:rgb(99.607843%,0.392157%,0.392157%);fill-opacity:1;" d="M 5.824219 9.960938 L 5.824219 19.757812 C 6.515625 23.328125 7.863281 28.207031 14.738281 30.472656 C 21.574219 28.207031 23.148438 23.328125 23.765625 19.757812 L 23.765625 9.960938 Z M 5.824219 9.960938 "/>
<path style=" stroke:none;fill-rule:evenodd;fill:rgb(100%,100%,100%);fill-opacity:1;" d="M 15.8125 15.878906 L 15.8125 17.453125 L 18.960938 17.453125 C 19.386719 17.453125 19.78125 17.246094 20.191406 17.144531 L 20.191406 20.101562 C 19.769531 20.011719 19.355469 19.832031 18.925781 19.832031 L 15.851562 19.832031 L 15.851562 23.445312 L 13.738281 23.367188 L 13.738281 19.832031 L 10.742188 19.832031 C 10.292969 19.832031 9.871094 20.0625 9.4375 20.179688 L 9.4375 17.03125 C 9.847656 17.15625 10.234375 17.414062 10.664062 17.414062 L 13.738281 17.414062 L 13.738281 15.839844 L 11.472656 15.839844 C 11.074219 15.839844 10.730469 16.121094 10.359375 16.261719 L 10.359375 13.265625 C 10.78125 13.445312 11.167969 13.804688 11.625 13.804688 L 13.777344 13.804688 L 13.777344 12.457031 C 13.777344 11.832031 13.417969 11.253906 13.238281 10.652344 L 16.273438 10.652344 C 16.121094 11.269531 15.8125 11.863281 15.8125 12.496094 L 15.8125 13.804688 L 17.847656 13.804688 C 18.378906 13.804688 18.871094 13.519531 19.386719 13.378906 L 19.386719 16.339844 C 18.925781 16.183594 18.488281 15.878906 18.003906 15.878906 Z M 15.8125 15.878906 "/>
<path style=" stroke:none;fill-rule:evenodd;fill:rgb(0.392157%,0.392157%,49.411765%);fill-opacity:1;" d="M 11.933594 23.867188 C 10.128906 22.964844 8.402344 23.46875 7.578125 24.914062 C 8.859375 27.363281 11.300781 29.339844 14.738281 30.472656 C 18.15625 29.339844 20.644531 27.363281 22.007812 25.027344 C 20.945312 23.003906 18.925781 23.273438 17.617188 23.90625 C 16.695312 21.640625 12.933594 21.753906 11.933594 23.867188 Z M 11.933594 23.867188 "/>
</g>
</svg>
