<?xml version="1.0" encoding="UTF-8"?>
<svg xmlns="http://www.w3.org/2000/svg" xmlns:xlink="http://www.w3.org/1999/xlink" width="40px" height="40px" viewBox="0 0 40 40" version="1.1">
<defs>
<clipPath id="clip1">
  <path d="M 0 26 L 40 26 L 40 40 L 0 40 Z M 0 26 "/>
</clipPath>
<clipPath id="clip2">
  <path d="M 0.480469 0 L 39.519531 0 C 39.785156 0 40 0.265625 40 0.597656 L 40 39.402344 C 40 39.734375 39.785156 40 39.519531 40 L 0.480469 40 C 0.214844 40 0 39.734375 0 39.402344 L 0 0.597656 C 0 0.265625 0.214844 0 0.480469 0 Z M 0.480469 0 "/>
</clipPath>
<clipPath id="clip3">
  <path d="M 0 13 L 40 13 L 40 27 L 0 27 Z M 0 13 "/>
</clipPath>
<clipPath id="clip4">
  <path d="M 0.480469 0 L 39.519531 0 C 39.785156 0 40 0.265625 40 0.597656 L 40 39.402344 C 40 39.734375 39.785156 40 39.519531 40 L 0.480469 40 C 0.214844 40 0 39.734375 0 39.402344 L 0 0.597656 C 0 0.265625 0.214844 0 0.480469 0 Z M 0.480469 0 "/>
</clipPath>
<clipPath id="clip5">
  <path d="M 0 0 L 40 0 L 40 14 L 0 14 Z M 0 0 "/>
</clipPath>
<clipPath id="clip6">
  <path d="M 0.480469 0 L 39.519531 0 C 39.785156 0 40 0.265625 40 0.597656 L 40 39.402344 C 40 39.734375 39.785156 40 39.519531 40 L 0.480469 40 C 0.214844 40 0 39.734375 0 39.402344 L 0 0.597656 C 0 0.265625 0.214844 0 0.480469 0 Z M 0.480469 0 "/>
</clipPath>
</defs>
<g id="surface1">
<g clip-path="url(#clip1)" clip-rule="nonzero">
<g clip-path="url(#clip2)" clip-rule="nonzero">
<path style=" stroke:none;fill-rule:evenodd;fill:rgb(0%,0%,80.392158%);fill-opacity:1;" d="M 0 26.695312 L 53.332031 26.695312 L 53.332031 40 L 0 40 Z M 0 26.695312 "/>
</g>
</g>
<g clip-path="url(#clip3)" clip-rule="nonzero">
<g clip-path="url(#clip4)" clip-rule="nonzero">
<path style=" stroke:none;fill-rule:evenodd;fill:rgb(100%,100%,100%);fill-opacity:1;" d="M 0 13.390625 L 53.332031 13.390625 L 53.332031 26.695312 L 0 26.695312 Z M 0 13.390625 "/>
</g>
</g>
<g clip-path="url(#clip5)" clip-rule="nonzero">
<g clip-path="url(#clip6)" clip-rule="nonzero">
<path style=" stroke:none;fill-rule:evenodd;fill:rgb(0%,80.392158%,0%);fill-opacity:1;" d="M 0 0 L 53.332031 0 L 53.332031 13.390625 L 0 13.390625 Z M 0 0 "/>
</g>
</g>
</g>
</svg>
