<?xml version="1.0" encoding="UTF-8"?>
<svg xmlns="http://www.w3.org/2000/svg" xmlns:xlink="http://www.w3.org/1999/xlink" width="40px" height="40px" viewBox="0 0 40 40" version="1.1">
<g id="surface1">
<path style=" stroke:none;fill-rule:nonzero;fill:rgb(2.745098%,53.725493%,18.82353%);fill-opacity:1;" d="M 0 28 L 40 28 L 40 40 L 0 40 Z M 0 28 "/>
<path style=" stroke:none;fill-rule:nonzero;fill:rgb(100%,100%,100%);fill-opacity:1;" d="M 0 12 L 40 12 L 40 28 L 0 28 Z M 0 12 "/>
<path style=" stroke:none;fill-rule:nonzero;fill:rgb(0%,0%,0%);fill-opacity:1;" d="M 0 0 L 40 0 L 40 12 L 0 12 Z M 0 0 "/>
<path style=" stroke:none;fill-rule:nonzero;fill:rgb(85.490197%,7.058824%,10.196079%);fill-opacity:1;" d="M 0 14 L 40 14 L 40 26 L 0 26 Z M 0 14 "/>
<path style=" stroke:none;fill-rule:nonzero;fill:rgb(5.882353%,27.843139%,68.627453%);fill-opacity:1;" d="M 0 0 L 33.828125 20 L 0 40 Z M 0 0 "/>
<path style=" stroke:none;fill-rule:nonzero;fill:rgb(98.823529%,86.666667%,3.529412%);fill-opacity:1;" d="M 16.332031 16.238281 L 5.027344 20 L 16.332031 23.761719 L 9.34375 13.914062 L 9.34375 26.085938 Z M 16.332031 16.238281 "/>
</g>
</svg>
