<?xml version="1.0" encoding="UTF-8"?>
<svg xmlns="http://www.w3.org/2000/svg" xmlns:xlink="http://www.w3.org/1999/xlink" width="40px" height="40px" viewBox="0 0 40 40" version="1.1">
<g id="surface1">
<rect x="0" y="0" width="40" height="40" style="fill:rgb(100%,100%,100%);fill-opacity:1;stroke:none;"/>
<path style=" stroke:none;fill-rule:evenodd;fill:rgb(100%,100%,100%);fill-opacity:1;" d="M 0 26.726562 L 40 26.726562 L 40 40 L 0 40 Z M 0 26.726562 "/>
<path style=" stroke:none;fill-rule:evenodd;fill:rgb(100%,100%,100%);fill-opacity:1;" d="M 0 0 L 40 0 L 40 13.273438 L 0 13.273438 Z M 0 0 "/>
<path style=" stroke:none;fill-rule:evenodd;fill:rgb(100%,100%,100%);fill-opacity:1;" d="M 11.824219 23.417969 L 9.421875 21.675781 L 7.035156 23.433594 L 7.921875 20.578125 L 5.535156 18.816406 L 8.488281 18.792969 L 9.402344 15.949219 L 10.339844 18.785156 L 13.289062 18.789062 L 10.917969 20.570312 Z M 11.824219 23.417969 "/>
<path style=" stroke:none;fill-rule:evenodd;fill:rgb(100%,100%,100%);fill-opacity:1;" d="M 34.128906 23.417969 L 31.726562 21.675781 L 29.335938 23.433594 L 30.226562 20.578125 L 27.839844 18.816406 L 30.792969 18.792969 L 31.707031 15.949219 L 32.640625 18.785156 L 35.59375 18.789062 L 33.21875 20.570312 Z M 34.128906 23.417969 "/>
<path style=" stroke:none;fill-rule:evenodd;fill:rgb(0%,0%,0%);fill-opacity:1;" d="M 0 26.726562 L 40 26.726562 L 40 40 L 0 40 Z M 0 26.726562 "/>
<path style=" stroke:none;fill-rule:evenodd;fill:rgb(100%,0%,0%);fill-opacity:1;" d="M 0 0 L 40 0 L 40 13.273438 L 0 13.273438 Z M 0 0 "/>
<path style=" stroke:none;fill-rule:evenodd;fill:rgb(0%,60.000002%,0%);fill-opacity:1;" d="M 11.824219 23.417969 L 9.421875 21.675781 L 7.035156 23.433594 L 7.921875 20.578125 L 5.535156 18.816406 L 8.488281 18.792969 L 9.402344 15.949219 L 10.339844 18.785156 L 13.289062 18.789062 L 10.917969 20.570312 Z M 11.824219 23.417969 "/>
<path style=" stroke:none;fill-rule:evenodd;fill:rgb(0%,60.000002%,0%);fill-opacity:1;" d="M 34.128906 23.417969 L 31.726562 21.675781 L 29.335938 23.433594 L 30.226562 20.578125 L 27.839844 18.816406 L 30.792969 18.792969 L 31.707031 15.949219 L 32.640625 18.785156 L 35.59375 18.789062 L 33.21875 20.570312 Z M 34.128906 23.417969 "/>
</g>
</svg>
