<?xml version="1.0" encoding="UTF-8"?>
<svg xmlns="http://www.w3.org/2000/svg" xmlns:xlink="http://www.w3.org/1999/xlink" width="40px" height="40px" viewBox="0 0 40 40" version="1.1">
<g id="surface1">
<rect x="0" y="0" width="40" height="40" style="fill:rgb(24.313726%,36.862746%,72.549021%);fill-opacity:1;stroke:none;"/>
<path style=" stroke:none;fill-rule:evenodd;fill:rgb(100%,85.09804%,0%);fill-opacity:1;" d="M -10 7.144531 L 50 7.144531 L 50 32.855469 L -10 32.855469 Z M -10 7.144531 "/>
<path style=" stroke:none;fill-rule:evenodd;fill:rgb(69.411767%,4.705882%,4.705882%);fill-opacity:1;" d="M -10 10 L 50 10 L 50 30 L -10 30 Z M -10 10 "/>
<path style="fill-rule:evenodd;fill:rgb(100%,85.09804%,0%);fill-opacity:1;stroke-width:1.339;stroke-linecap:butt;stroke-linejoin:miter;stroke:rgb(0%,0%,0%);stroke-opacity:1;stroke-miterlimit:4;" d="M 79.401224 242.708929 L 671.301255 242.708929 C 674.20795 242.708929 676.533306 245.082731 676.533306 248.037871 C 676.533306 250.993011 674.20795 253.366812 671.301255 253.366812 L 79.401224 253.366812 C 76.542973 253.366812 74.169172 250.993011 74.169172 248.037871 C 74.169172 245.082731 76.542973 242.708929 79.401224 242.708929 Z M 79.401224 242.708929 " transform="matrix(0.0806328,0,0,0.0806328,-10,0.00000961328)"/>
<path style="fill-rule:evenodd;fill:rgb(100%,100%,100%);fill-opacity:1;stroke-width:3.9139;stroke-linecap:butt;stroke-linejoin:miter;stroke:rgb(0%,0%,0%);stroke-opacity:1;stroke-miterlimit:4;" d="M -106.236711 265.801042 L -194.862417 301.165832 L -106.236711 336.692105 L -17.753491 301.165832 Z M -106.236711 265.801042 " transform="matrix(0.0274152,0,0,0.0241898,42.197652,9.000002)"/>
<path style="fill-rule:evenodd;fill:rgb(100%,85.09804%,0%);fill-opacity:1;stroke-width:1.25;stroke-linecap:butt;stroke-linejoin:miter;stroke:rgb(0%,0%,0%);stroke-opacity:1;stroke-miterlimit:4;" d="M 765.684879 223.233272 L 1200.865594 223.233272 C 1202.997171 223.233272 1204.741188 224.831955 1204.741188 226.769751 C 1204.741188 228.707548 1202.997171 230.30623 1200.865594 230.30623 L 765.684879 230.30623 C 763.553302 230.30623 761.809285 228.707548 761.809285 226.769751 C 761.809285 224.831955 763.553302 223.233272 765.684879 223.233272 Z M 765.684879 223.233272 " transform="matrix(0.0806328,0,0,0.0806328,-59.141667,-1.999926)"/>
<path style="fill:none;stroke-width:2.5;stroke-linecap:butt;stroke-linejoin:miter;stroke:rgb(0%,0%,0%);stroke-opacity:1;stroke-miterlimit:4;" d="M 1224.408965 279.904468 C 1220.824113 279.904468 1217.336148 276.416434 1217.336148 272.83151 C 1217.336148 269.246586 1220.824113 265.758552 1224.408965 265.758552 " transform="matrix(-0.0403172,0,0,0.0403164,86.505381,5.285571)"/>
<path style="fill:none;stroke-width:2.5;stroke-linecap:butt;stroke-linejoin:miter;stroke:rgb(0%,0%,0%);stroke-opacity:1;stroke-miterlimit:4;" d="M 1224.385034 279.904468 C 1220.89707 279.904468 1217.312217 276.416434 1217.312217 272.83151 C 1217.312217 269.246586 1220.89707 265.758552 1224.385034 265.758552 " transform="matrix(-0.0403172,0,0,0.0403164,86.223166,5.285571)"/>
<path style="fill:none;stroke-width:2.5;stroke-linecap:butt;stroke-linejoin:miter;stroke:rgb(0%,0%,0%);stroke-opacity:1;stroke-miterlimit:4;" d="M 1224.354687 279.902454 C 1220.866723 279.902454 1217.281871 276.41442 1217.281871 272.829496 C 1217.281871 269.244572 1220.866723 265.756538 1224.354687 265.756538 " transform="matrix(-0.0403172,0,0,0.0403164,85.93288,5.285652)"/>
<path style="fill-rule:evenodd;fill:rgb(100%,100%,100%);fill-opacity:1;stroke-width:3.9139;stroke-linecap:butt;stroke-linejoin:miter;stroke:rgb(0%,0%,0%);stroke-opacity:1;stroke-miterlimit:4;" d="M -106.350674 265.826776 L -194.833895 301.191567 L -106.350674 336.556357 L -17.724969 301.191567 Z M -106.350674 265.826776 " transform="matrix(0.0274152,0,0,0.0241898,39.911714,10.714223)"/>
<path style="fill-rule:evenodd;fill:rgb(100%,85.09804%,0%);fill-opacity:1;stroke-width:1.25;stroke-linecap:butt;stroke-linejoin:miter;stroke:rgb(0%,0%,0%);stroke-opacity:1;stroke-miterlimit:4;" d="M 765.646131 223.240993 L 1200.875292 223.240993 C 1203.006868 223.240993 1204.70244 224.839675 1204.70244 226.777472 C 1204.70244 228.715269 1203.006868 230.313951 1200.875292 230.313951 L 765.646131 230.313951 C 763.514555 230.313951 761.818983 228.715269 761.818983 226.777472 C 761.818983 224.839675 763.514555 223.240993 765.646131 223.240993 Z M 765.646131 223.240993 " transform="matrix(0.0806328,0,0,0.0806328,-61.427605,-0.285705)"/>
<path style="fill:none;stroke-width:2.5;stroke-linecap:butt;stroke-linejoin:miter;stroke:rgb(0%,0%,0%);stroke-opacity:1;stroke-miterlimit:4;" d="M 1224.389571 279.919909 C 1220.901606 279.919909 1217.316754 276.334985 1217.316754 272.846951 C 1217.316754 269.262027 1220.901606 265.773993 1224.389571 265.773993 " transform="matrix(-0.0403172,0,0,0.0403164,84.219443,6.999792)"/>
<path style="fill:none;stroke-width:2.5;stroke-linecap:butt;stroke-linejoin:miter;stroke:rgb(0%,0%,0%);stroke-opacity:1;stroke-miterlimit:4;" d="M 1224.36564 279.919909 C 1220.877675 279.919909 1217.292823 276.334985 1217.292823 272.846951 C 1217.292823 269.262027 1220.877675 265.773993 1224.36564 265.773993 " transform="matrix(-0.0403172,0,0,0.0403164,83.937228,6.999792)"/>
<path style="fill:none;stroke-width:2.5;stroke-linecap:butt;stroke-linejoin:miter;stroke:rgb(0%,0%,0%);stroke-opacity:1;stroke-miterlimit:4;" d="M 1224.432181 279.917895 C 1220.847329 279.917895 1217.262476 276.332971 1217.262476 272.844937 C 1217.262476 269.260013 1220.847329 265.771978 1224.432181 265.771978 " transform="matrix(-0.0403172,0,0,0.0403164,83.646942,6.999873)"/>
<path style="fill-rule:evenodd;fill:rgb(23.921569%,36.470589%,65.490198%);fill-opacity:1;stroke-width:1.25;stroke-linecap:butt;stroke-linejoin:miter;stroke:rgb(0%,0%,0%);stroke-opacity:1;stroke-miterlimit:4;" d="M 338.04718 -0.39897 C 332.51605 12.050052 342.321234 -4.548644 366.356506 16.264564 C 370.831693 20.154884 374.703483 30.334553 374.703483 37.466805 C 373.597258 36.494225 372.742447 34.289711 371.485372 32.928099 C 369.77575 35.132613 373.144711 45.506798 373.647541 50.369698 C 369.926599 47.646474 370.27858 46.349701 369.021505 43.042929 C 369.27292 47.062926 368.367826 58.150336 369.876316 62.429688 C 366.909619 61.32743 367.110751 58.280014 365.551978 57.631627 C 366.607921 62.494526 364.646884 67.746457 365.149714 73.192905 C 363.440092 70.98839 361.579622 69.237747 360.775094 68.330005 C 360.674528 70.923552 357.456416 77.73161 357.406133 80.195479 C 355.897643 79.028384 355.495379 77.27774 355.294247 76.045805 C 353.433776 79.028384 346.94727 89.921278 346.545006 93.228049 C 341.566989 87.587086 328.744825 73.711614 327.085486 66.320007 C 325.62728 70.53452 323.465111 71.96097 319.291622 75.008387 C 317.632283 63.337429 311.397192 50.24002 314.715869 40.254867 C 312.352569 42.005511 310.391532 43.820993 308.078514 46.090346 C 310.290966 29.167457 321.705206 9.391667 338.04718 -0.39897 Z M 338.04718 -0.39897 " transform="matrix(0.0776853,0,0,0.0602457,14.871513,19.684192)"/>
<path style=" stroke:none;fill-rule:evenodd;fill:rgb(65.490198%,0%,0%);fill-opacity:1;" d="M 39.519531 23.371094 C 39.699219 23.011719 39.863281 22.898438 39.980469 22.667969 C 40.1875 22.261719 40.214844 21.9375 40.394531 21.984375 C 40.574219 22.03125 40.574219 22.199219 40.339844 22.597656 C 40.109375 22.996094 40 23.082031 39.519531 23.371094 Z M 39.519531 23.371094 "/>
<path style="fill-rule:evenodd;fill:rgb(23.921569%,36.470589%,65.490198%);fill-opacity:1;stroke-width:1.25;stroke-linecap:butt;stroke-linejoin:miter;stroke:rgb(0%,0%,0%);stroke-opacity:1;stroke-miterlimit:4;" d="M 329.603182 20.71787 C 329.339369 18.049882 329.866995 17.716384 328.328086 15.715393 C 330.526527 16.715888 330.614465 19.383876 333.296563 17.478171 C 334.263877 16.906459 334.703565 16.906459 333.516407 13.952615 C 336.286442 14.095543 345.431956 17.478171 346.926896 17.573456 C 350.752183 17.764027 357.743225 13.190333 362.623764 18.812165 C 367.284458 23.909928 365.74555 29.245904 365.74555 36.344657 C 363.854891 35.344162 364.778236 34.867735 362.799639 32.342675 C 364.25061 38.536219 362.711701 49.684597 362.711701 56.259282 C 361.920263 54.687075 362.052169 55.354072 361.304699 53.734222 C 359.282134 59.737195 356.907817 60.975904 356.907817 68.027015 C 356.204316 65.263742 356.907817 65.835453 356.07241 64.406174 C 354.137782 68.932225 341.166981 72.838922 346.179426 77.412616 C 341.650638 74.554057 339.672041 74.839913 337.605507 72.26721 C 336.72613 72.886565 336.022629 74.077631 335.231191 75.649838 C 327.272835 71.695498 330.130808 63.167465 323.887236 57.450348 C 322.831984 59.83248 323.315641 59.498982 322.128483 63.405679 C 320.897356 57.974417 320.545606 54.544147 319.138603 50.589808 C 317.907476 52.781369 317.995414 51.923802 315.796973 55.258787 C 314.873628 48.684102 313.378688 47.111895 313.950283 42.776414 C 311.619936 44.586835 313.158844 43.824552 310.784528 46.063757 C 313.026938 29.198261 322.656109 16.715888 329.603182 20.71787 Z M 329.603182 20.71787 " transform="matrix(0.0888414,0,0,0.0819906,-31.204273,18.684141)"/>
<path style=" stroke:none;fill-rule:evenodd;fill:rgb(65.490198%,0%,0%);fill-opacity:1;" d="M 0.488281 21.996094 C 0.152344 21.660156 -0.0507812 21.597656 -0.269531 21.382812 C -0.65625 21 -0.839844 20.644531 -0.976562 20.769531 C -1.113281 20.898438 -1.03125 21.085938 -0.628906 21.449219 C -0.222656 21.8125 -0.0820312 21.863281 0.488281 21.996094 Z M 0.488281 21.996094 "/>
<path style=" stroke:none;fill-rule:evenodd;fill:rgb(65.490198%,0%,0%);fill-opacity:1;" d="M 0.285156 23.300781 C 0.0625 22.960938 -0.0976562 22.875 -0.238281 22.65625 C -0.488281 22.273438 -0.578125 21.945312 -0.71875 22.027344 C -0.859375 22.109375 -0.828125 22.28125 -0.558594 22.648438 C -0.285156 23.019531 -0.175781 23.089844 0.285156 23.300781 Z M 0.285156 23.300781 "/>
<path style="fill-rule:evenodd;fill:rgb(100%,100%,100%);fill-opacity:1;stroke-width:1.9764;stroke-linecap:butt;stroke-linejoin:miter;stroke:rgb(0%,0%,0%);stroke-opacity:1;stroke-miterlimit:4;" d="M 637.796878 230.329781 C 584.677291 289.35184 513.754285 407.476698 372.053608 407.476698 C 248.011016 407.476698 159.429926 289.35184 106.310339 230.329781 C 159.429926 171.226981 248.011016 53.182865 372.053608 53.182865 C 513.754285 53.182865 584.677291 171.226981 637.796878 230.329781 Z M 637.796878 230.329781 " transform="matrix(0.0537555,0,0,0.0483797,0.0000807697,8.856717)"/>
<path style=" stroke:none;fill-rule:evenodd;fill:rgb(0%,0%,0%);fill-opacity:1;" d="M 19.003906 14.410156 C 19.761719 15.265625 19.128906 15.609375 19.933594 15.664062 C 20.78125 15.726562 20.300781 16.570312 21.015625 16.597656 C 21.511719 16.621094 20.964844 18.613281 21.445312 19.269531 C 21.933594 19.957031 22.34375 19.472656 22.351562 19.96875 C 22.359375 20.480469 21.019531 20.429688 20.996094 22.007812 C 20.957031 22.914062 19.867188 22.972656 19.8125 23.558594 C 19.75 24.109375 21.964844 24.417969 21.933594 24.910156 C 21.90625 25.402344 19.542969 25.324219 19.441406 25.886719 C 19.386719 26.390625 22.683594 26.800781 22.949219 28.257812 C 22.457031 28.417969 21.058594 28.570312 20 28.570312 C 13.332031 28.574219 8.570312 22.855469 5.714844 20 C 8.570312 17.140625 13.332031 11.429688 20 11.429688 C 20 11.429688 18.019531 13.238281 19.003906 14.410156 Z M 19.003906 14.410156 "/>
<path style=" stroke:none;fill-rule:evenodd;fill:rgb(100%,100%,100%);fill-opacity:1;" d="M 11.046875 16.953125 L 11.738281 16.953125 L 11.738281 19.238281 L 11.046875 19.238281 Z M 11.046875 16.953125 "/>
<path style=" stroke:none;fill-rule:evenodd;fill:rgb(100%,100%,100%);fill-opacity:1;" d="M 11.046875 20.761719 L 11.738281 20.761719 L 11.738281 23.046875 L 11.046875 23.046875 Z M 11.046875 20.761719 "/>
<path style=" stroke:none;fill-rule:evenodd;fill:rgb(100%,100%,100%);fill-opacity:1;" d="M 12.433594 16.953125 L 13.125 16.953125 L 13.125 19.238281 L 12.433594 19.238281 Z M 12.433594 16.953125 "/>
<path style=" stroke:none;fill-rule:evenodd;fill:rgb(100%,100%,100%);fill-opacity:1;" d="M 12.433594 20.761719 L 13.125 20.761719 L 13.125 23.046875 L 12.433594 23.046875 Z M 12.433594 20.761719 "/>
<path style=" stroke:none;fill-rule:evenodd;fill:rgb(100%,100%,100%);fill-opacity:1;" d="M 13.816406 16.953125 L 14.511719 16.953125 L 14.511719 19.238281 L 13.816406 19.238281 Z M 13.816406 16.953125 "/>
<path style=" stroke:none;fill-rule:evenodd;fill:rgb(100%,100%,100%);fill-opacity:1;" d="M 13.816406 20.761719 L 14.511719 20.761719 L 14.511719 23.046875 L 13.816406 23.046875 Z M 13.816406 20.761719 "/>
<path style=" stroke:none;fill-rule:evenodd;fill:rgb(100%,100%,100%);fill-opacity:1;" d="M 15.203125 16.953125 L 15.894531 16.953125 L 15.894531 19.238281 L 15.203125 19.238281 Z M 15.203125 16.953125 "/>
<path style=" stroke:none;fill-rule:evenodd;fill:rgb(100%,100%,100%);fill-opacity:1;" d="M 15.203125 20.761719 L 15.894531 20.761719 L 15.894531 23.046875 L 15.203125 23.046875 Z M 15.203125 20.761719 "/>
<path style=" stroke:none;fill-rule:evenodd;fill:rgb(100%,100%,100%);fill-opacity:1;" d="M 16.589844 16.953125 L 17.28125 16.953125 L 17.28125 19.238281 L 16.589844 19.238281 Z M 16.589844 16.953125 "/>
<path style=" stroke:none;fill-rule:evenodd;fill:rgb(100%,100%,100%);fill-opacity:1;" d="M 16.589844 20.761719 L 17.28125 20.761719 L 17.28125 23.046875 L 16.589844 23.046875 Z M 16.589844 20.761719 "/>
<path style=" stroke:none;fill-rule:evenodd;fill:rgb(100%,100%,100%);fill-opacity:1;" d="M 17.972656 16.953125 L 18.667969 16.953125 L 18.667969 19.238281 L 17.972656 19.238281 Z M 17.972656 16.953125 "/>
<path style=" stroke:none;fill-rule:evenodd;fill:rgb(100%,100%,100%);fill-opacity:1;" d="M 17.972656 20.761719 L 18.667969 20.761719 L 18.667969 23.046875 L 17.972656 23.046875 Z M 17.972656 20.761719 "/>
<path style=" stroke:none;fill-rule:evenodd;fill:rgb(0%,0%,0%);fill-opacity:1;" d="M 21.523438 16.953125 L 22.214844 16.953125 L 22.214844 19.238281 L 21.523438 19.238281 Z M 21.523438 16.953125 "/>
<path style=" stroke:none;fill-rule:evenodd;fill:rgb(0%,0%,0%);fill-opacity:1;" d="M 21.523438 20.761719 L 22.214844 20.761719 L 22.214844 23.046875 L 21.523438 23.046875 Z M 21.523438 20.761719 "/>
<path style=" stroke:none;fill-rule:evenodd;fill:rgb(0%,0%,0%);fill-opacity:1;" d="M 22.910156 16.953125 L 23.601562 16.953125 L 23.601562 19.238281 L 22.910156 19.238281 Z M 22.910156 16.953125 "/>
<path style=" stroke:none;fill-rule:evenodd;fill:rgb(0%,0%,0%);fill-opacity:1;" d="M 22.910156 20.761719 L 23.601562 20.761719 L 23.601562 23.046875 L 22.910156 23.046875 Z M 22.910156 20.761719 "/>
<path style=" stroke:none;fill-rule:evenodd;fill:rgb(0%,0%,0%);fill-opacity:1;" d="M 24.292969 16.953125 L 24.984375 16.953125 L 24.984375 19.238281 L 24.292969 19.238281 Z M 24.292969 16.953125 "/>
<path style=" stroke:none;fill-rule:evenodd;fill:rgb(0%,0%,0%);fill-opacity:1;" d="M 24.292969 20.761719 L 24.984375 20.761719 L 24.984375 23.046875 L 24.292969 23.046875 Z M 24.292969 20.761719 "/>
<path style=" stroke:none;fill-rule:evenodd;fill:rgb(0%,0%,0%);fill-opacity:1;" d="M 25.679688 16.953125 L 26.371094 16.953125 L 26.371094 19.238281 L 25.679688 19.238281 Z M 25.679688 16.953125 "/>
<path style=" stroke:none;fill-rule:evenodd;fill:rgb(0%,0%,0%);fill-opacity:1;" d="M 25.679688 20.761719 L 26.371094 20.761719 L 26.371094 23.046875 L 25.679688 23.046875 Z M 25.679688 20.761719 "/>
<path style=" stroke:none;fill-rule:evenodd;fill:rgb(0%,0%,0%);fill-opacity:1;" d="M 27.0625 16.953125 L 27.757812 16.953125 L 27.757812 19.238281 L 27.0625 19.238281 Z M 27.0625 16.953125 "/>
<path style=" stroke:none;fill-rule:evenodd;fill:rgb(0%,0%,0%);fill-opacity:1;" d="M 27.0625 20.761719 L 27.757812 20.761719 L 27.757812 23.046875 L 27.0625 23.046875 Z M 27.0625 20.761719 "/>
<path style=" stroke:none;fill-rule:evenodd;fill:rgb(0%,0%,0%);fill-opacity:1;" d="M 28.449219 16.953125 L 29.140625 16.953125 L 29.140625 19.238281 L 28.449219 19.238281 Z M 28.449219 16.953125 "/>
<path style=" stroke:none;fill-rule:evenodd;fill:rgb(0%,0%,0%);fill-opacity:1;" d="M 28.449219 20.761719 L 29.140625 20.761719 L 29.140625 23.046875 L 28.449219 23.046875 Z M 28.449219 20.761719 "/>
<path style="fill-rule:evenodd;fill:rgb(23.921569%,36.470589%,65.490198%);fill-opacity:1;stroke-width:1.25;stroke-linecap:butt;stroke-linejoin:miter;stroke:rgb(0%,0%,0%);stroke-opacity:1;stroke-miterlimit:4;" d="M 338.071123 -0.429869 C 332.517879 12.01502 347.803047 -4.557001 371.830451 16.269141 C 376.284043 20.142295 382.662027 35.444429 382.662027 42.4923 C 377.548643 41.285908 368.531494 35.444429 368.531494 35.444429 C 368.531494 35.444429 379.143139 47.698836 379.143139 61.921566 C 375.404321 59.19131 373.47993 59.572276 372.270312 56.270571 C 372.270312 60.842163 375.569269 63.762902 375.569269 70.874267 C 372.875121 68.397988 370.565851 66.683641 368.311563 65.223272 C 371.830451 72.334637 361.823614 86.049413 366.827033 90.6845 C 358.084796 89.22413 349.12263 82.747708 345.603742 75.636342 C 343.734333 77.096712 343.514403 79.382508 343.45942 81.858787 C 343.734333 82.112765 330.098644 70.17583 331.363244 65.604238 C 329.548818 68.588471 329.273904 70.17583 328.889026 73.541029 C 323.885608 67.826539 319.267068 62.175544 317.617589 54.810201 C 315.418285 58.111906 315.253337 58.111906 313.054032 61.477106 C 311.404554 49.794149 311.404554 50.238609 314.703511 40.206504 C 312.339258 42.04784 310.414866 43.825681 308.050614 46.047983 C 310.304901 29.15849 321.686303 9.411752 338.071123 -0.429869 Z M 338.071123 -0.429869 " transform="matrix(0.0710452,0,0,0.0615212,-8.639417,12.975665)"/>
<path style=" stroke:none;fill-rule:evenodd;fill:rgb(65.490198%,0%,0%);fill-opacity:1;" d="M 14.402344 16.691406 C 14.46875 16.164062 14.605469 15.964844 14.644531 15.625 C 14.71875 15.027344 14.632812 14.589844 14.84375 14.601562 C 15.054688 14.613281 15.117188 14.832031 15.011719 15.429688 C 14.90625 16.023438 14.820312 16.167969 14.402344 16.691406 Z M 14.402344 16.691406 "/>
<path style=" stroke:none;fill-rule:evenodd;fill:rgb(65.490198%,0%,0%);fill-opacity:1;" d="M 15.507812 17.65625 C 15.464844 17.210938 15.546875 17.023438 15.519531 16.734375 C 15.472656 16.230469 15.316406 15.890625 15.503906 15.855469 C 15.6875 15.824219 15.78125 15.996094 15.800781 16.503906 C 15.820312 17.015625 15.769531 17.148438 15.507812 17.65625 Z M 15.507812 17.65625 "/>
<path style=" stroke:none;fill-rule:evenodd;fill:rgb(65.490198%,0%,0%);fill-opacity:1;" d="M 17.234375 18.445312 C 17.046875 18.058594 16.886719 17.945312 16.765625 17.695312 C 16.550781 17.261719 16.503906 16.90625 16.339844 16.96875 C 16.175781 17.035156 16.183594 17.21875 16.421875 17.644531 C 16.660156 18.070312 16.769531 18.15625 17.234375 18.445312 Z M 17.234375 18.445312 "/>
<path style=" stroke:none;fill-rule:evenodd;fill:rgb(65.490198%,0%,0%);fill-opacity:1;" d="M 17.828125 14.996094 C 17.351562 14.742188 17.105469 14.742188 16.800781 14.578125 C 16.257812 14.296875 15.941406 13.976562 15.828125 14.152344 C 15.71875 14.328125 15.867188 14.503906 16.425781 14.761719 C 16.984375 15.019531 17.15625 15.03125 17.828125 14.996094 Z M 17.828125 14.996094 "/>
<path style=" stroke:none;fill-rule:evenodd;fill:rgb(65.490198%,0%,0%);fill-opacity:1;" d="M 18.003906 16.433594 C 17.65625 16.144531 17.453125 16.101562 17.226562 15.917969 C 16.832031 15.589844 16.636719 15.269531 16.503906 15.398438 C 16.371094 15.53125 16.460938 15.703125 16.875 16.007812 C 17.289062 16.316406 17.429688 16.355469 18.003906 16.433594 Z M 18.003906 16.433594 "/>
</g>
</svg>
