<?xml version="1.0" encoding="UTF-8"?>
<svg xmlns="http://www.w3.org/2000/svg" xmlns:xlink="http://www.w3.org/1999/xlink" width="40px" height="40px" viewBox="0 0 40 40" version="1.1">
<g id="surface1">
<rect x="0" y="0" width="40" height="40" style="fill:rgb(0%,0%,40.000001%);fill-opacity:1;stroke:none;"/>
<path style=" stroke:none;fill-rule:evenodd;fill:rgb(0%,0%,40.000001%);fill-opacity:1;" d="M 0 0 L 40 0 L 40 20 L 0 20 Z M 0 0 "/>
<path style=" stroke:none;fill-rule:nonzero;fill:rgb(100%,100%,100%);fill-opacity:1;" d="M 0 0 L 0 2.234375 L 35.527344 20 L 40 20 L 40 17.765625 L 4.472656 0 Z M 40 0 L 40 2.234375 L 4.472656 20 L 0 20 L 0 17.765625 L 35.527344 0 Z M 40 0 "/>
<path style=" stroke:none;fill-rule:nonzero;fill:rgb(100%,100%,100%);fill-opacity:1;" d="M 16.667969 0 L 16.667969 20 L 23.332031 20 L 23.332031 0 Z M 0 6.667969 L 0 13.332031 L 40 13.332031 L 40 6.667969 Z M 0 6.667969 "/>
<path style=" stroke:none;fill-rule:nonzero;fill:rgb(80.000001%,0%,0%);fill-opacity:1;" d="M 0 8 L 0 12 L 40 12 L 40 8 Z M 18 0 L 18 20 L 22 20 L 22 0 Z M 18 0 "/>
<path style=" stroke:none;fill-rule:nonzero;fill:rgb(80.000001%,0%,0%);fill-opacity:1;" d="M 0 20 L 13.332031 13.332031 L 16.316406 13.332031 L 2.980469 20 Z M 0 0 L 13.332031 6.667969 L 10.351562 6.667969 L 0 1.492188 Z M 23.683594 6.667969 L 37.019531 0 L 40 0 L 26.667969 6.667969 Z M 40 20 L 26.667969 13.332031 L 29.648438 13.332031 L 40 18.507812 Z M 40 20 "/>
<path style=" stroke:none;fill-rule:nonzero;fill:rgb(100%,100%,100%);fill-opacity:0.996078;" d="M 38.558594 11.007812 L 38.558594 20.105469 C 38.558594 27.578125 35.625 34.417969 26.917969 38.574219 C 18.214844 34.417969 15.28125 27.578125 15.28125 20.105469 L 15.28125 11.007812 L 38.5625 11.007812 Z M 38.558594 11.007812 "/>
<path style=" stroke:none;fill-rule:nonzero;fill:rgb(99.215686%,76.47059%,0%);fill-opacity:0.996078;" d="M 37.78125 11.933594 L 37.78125 20.421875 C 37.78125 27.390625 35.042969 33.769531 26.921875 37.648438 C 18.800781 33.769531 16.066406 27.390625 16.066406 20.421875 L 16.066406 11.933594 Z M 37.78125 11.933594 "/>
<path style="fill-rule:nonzero;fill:rgb(100%,61.960787%,23.921569%);fill-opacity:1;stroke-width:0.0625;stroke-linecap:butt;stroke-linejoin:miter;stroke:rgb(0%,0%,0%);stroke-opacity:1;stroke-miterlimit:4;" d="M 205.963867 52.844542 C 205.60409 52.581322 205.226762 52.42339 204.691484 52.405842 C 204.814335 51.107289 203.866629 50.554527 203.190949 50.317629 C 202.51527 50.080731 202.278343 49.817511 202.164267 49.29107 C 202.050192 48.755856 201.690414 48.431218 201.07616 48.255738 C 200.461906 48.080258 199.926628 47.466078 199.689701 47.167761 C 199.46155 46.878219 199.365024 46.930863 199.189523 47.430982 C 199.014022 47.9311 198.312017 48.878692 198.961371 48.905014 C 198.487518 49.29107 198.224267 49.729771 198.513844 50.317629 C 198.189166 50.580849 197.961015 50.966905 198.399768 51.107289 C 198.838521 51.256447 198.961371 51.379283 198.987697 51.493345 C 198.592819 51.493345 198.487518 52.29178 199.42645 52.46726 C 199.224623 52.493582 199.136873 53.142858 199.5142 53.142858 C 198.987697 53.142858 198.548944 53.932519 197.873264 53.932519 C 197.18881 53.932519 196.837808 54.081677 196.811482 54.379993 C 196.776382 54.669535 196.42538 55.020495 196.249879 55.169653 C 196.750057 55.231071 197.074734 55.169653 197.337986 54.967851 C 197.601238 54.757275 198.048765 54.704631 198.338342 54.932755 C 198.636694 55.169653 199.250948 55.292489 199.5493 55.231071 C 198.899946 55.669771 198.426093 56.25763 198.364668 56.819166 C 198.312017 57.380702 197.925915 58.021204 197.487162 58.205459 C 197.048409 58.380939 196.46048 58.845961 196.249879 59.407497 C 196.811482 60.79379 197.601238 61.135976 198.399768 61.49571 C 199.812552 62.144986 200.690058 62.618783 201.277987 63.259285 C 201.865915 63.908561 202.102842 63.434765 202.989123 64.557837 C 203.866629 65.672136 204.691484 67.795445 205.577765 68.146405 C 206.464046 68.497365 207.578478 68.260467 208.227832 67.146169 C 208.877186 66.03187 209.280839 54.730953 205.963867 52.844542 Z M 205.963867 52.844542 " transform="matrix(0.445154,0,0,0.445207,-69.818407,-7.874428)"/>
<path style="fill-rule:nonzero;fill:rgb(100%,57.254905%,49.803922%);fill-opacity:1;stroke-width:0.0625;stroke-linecap:butt;stroke-linejoin:miter;stroke:rgb(0%,0%,0%);stroke-opacity:1;stroke-miterlimit:4;" d="M 207.455627 48.141676 C 206.639547 49.019076 205.577765 49.905251 205.753266 51.493345 C 205.928767 53.08144 206.104268 55.669771 204.638834 56.555946 C 203.164624 57.433346 202.453844 59.670717 204.226406 60.96927 C 205.990192 62.259048 206.042843 63.847143 206.341195 65.321176 C 206.639547 66.795208 207.402977 67.970925 208.578834 66.970689 C 209.754692 67.146169 210.404046 66.672372 210.404046 65.733554 C 210.404046 64.794736 210.456697 64.259521 211.342977 63.969979 C 212.229258 63.671663 212.45741 63.382121 212.869837 62.583687 C 213.282265 61.794026 213.519192 61.434292 213.282265 60.96927 C 213.054114 60.495474 212.957588 59.521559 213.141864 58.819639 C 213.317365 58.108944 212.904938 57.731662 212.668011 57.292962 C 212.431085 56.845488 212.343334 56.468206 212.45741 55.880347 C 212.580261 55.292489 212.281909 54.906433 211.869481 54.608117 C 211.457053 54.318575 211.281552 54.020259 211.369303 53.555236 C 211.457053 53.08144 211.079726 52.791898 210.640973 52.432164 C 210.193445 52.081204 209.868768 51.607407 209.868768 50.905487 C 209.868768 50.194793 208.517409 48.554054 207.455627 48.141676 Z M 207.455627 48.141676 " transform="matrix(0.445154,0,0,0.445207,-69.818407,-7.874428)"/>
<path style="fill-rule:nonzero;fill:rgb(100%,61.960787%,88.235295%);fill-opacity:1;stroke-width:0.0625;stroke-linecap:butt;stroke-linejoin:miter;stroke:rgb(0%,0%,0%);stroke-opacity:1;stroke-miterlimit:4;" d="M 207.789079 67.347971 C 209.763467 66.847852 209.587966 63.619019 209.289614 62.259048 C 209.000037 60.907852 208.236607 58.968797 208.815761 57.433346 C 209.640616 55.257393 207.815404 53.204276 208.289257 52.37952 C 208.763111 51.554763 208.701685 51.107289 208.64026 50.844069 C 208.587609 50.580849 208.140081 50.379047 208.113756 50.931809 C 208.087431 51.493345 207.938255 51.695148 207.587253 52.054882 C 207.227476 52.405842 207.315226 53.16918 207.587253 54.020259 C 207.850505 54.880111 208.412108 56.16989 207.525827 57.88082 C 206.639547 59.582977 207.008099 60.346315 207.350326 61.14475 C 207.87683 62.381884 209.140438 66.672372 207.789079 67.347971 Z M 207.789079 67.347971 " transform="matrix(0.445154,0,0,0.445207,-69.818407,-7.874428)"/>
<path style="fill:none;stroke-width:0.0625;stroke-linecap:butt;stroke-linejoin:miter;stroke:rgb(0%,0%,0%);stroke-opacity:1;stroke-miterlimit:4;" d="M 198.961371 48.905014 C 199.180748 48.905014 199.610726 48.817274 199.610726 49.106816 " transform="matrix(0.445154,0,0,0.445207,-69.818407,-7.874428)"/>
<path style="fill:none;stroke-width:0.0625;stroke-linecap:butt;stroke-linejoin:miter;stroke:rgb(0%,0%,0%);stroke-opacity:1;stroke-miterlimit:4;" d="M 198.522619 50.317629 C 198.78587 50.124601 199.259723 50.343951 199.724801 50.063183 " transform="matrix(0.445154,0,0,0.445207,-69.818407,-7.874428)"/>
<path style="fill:none;stroke-width:0.0625;stroke-linecap:butt;stroke-linejoin:miter;stroke:rgb(0%,0%,0%);stroke-opacity:1;stroke-miterlimit:4;" d="M 198.987697 51.493345 C 199.338699 51.493345 199.812552 51.475797 200.251305 51.124837 " transform="matrix(0.445154,0,0,0.445207,-69.818407,-7.874428)"/>
<path style="fill:none;stroke-width:0.0625;stroke-linecap:butt;stroke-linejoin:miter;stroke:rgb(0%,0%,0%);stroke-opacity:1;stroke-miterlimit:4;" d="M 199.42645 52.46726 C 199.751127 52.46726 200.356606 52.256684 200.505782 51.835532 " transform="matrix(0.445154,0,0,0.445207,-69.818407,-7.874428)"/>
<path style="fill:none;stroke-width:0.0625;stroke-linecap:butt;stroke-linejoin:miter;stroke:rgb(0%,0%,0%);stroke-opacity:1;stroke-miterlimit:4;" d="M 199.522975 53.142858 C 200.154779 53.107762 200.98841 53.34466 201.111261 53.12531 " transform="matrix(0.445154,0,0,0.445207,-69.818407,-7.874428)"/>
<path style="fill:none;stroke-width:0.0625;stroke-linecap:butt;stroke-linejoin:miter;stroke:rgb(0%,0%,0%);stroke-opacity:1;stroke-miterlimit:4;" d="M 199.5493 55.231071 C 199.988053 54.818693 201.032285 54.537925 201.269212 54.107999 " transform="matrix(0.445154,0,0,0.445207,-69.818407,-7.874428)"/>
<path style="fill:none;stroke-width:0.0625;stroke-linecap:butt;stroke-linejoin:miter;stroke:rgb(0%,0%,0%);stroke-opacity:1;stroke-miterlimit:4;" d="M 200.672508 48.668116 C 201.400837 48.905014 201.102485 49.361262 201.462263 49.642031 C 202.111617 50.142149 201.523688 50.694911 202.050192 50.844069 C 202.58547 50.993227 202.576695 51.080967 202.436294 51.668826 C 202.269568 52.361972 202.936472 52.388294 202.699546 52.844542 " transform="matrix(0.445154,0,0,0.445207,-69.818407,-7.874428)"/>
<path style="fill:none;stroke-width:0.0625;stroke-linecap:butt;stroke-linejoin:miter;stroke:rgb(0%,0%,0%);stroke-opacity:1;stroke-miterlimit:4;" d="M 204.700259 52.405842 C 204.401907 52.405842 203.541951 52.432164 203.173399 53.21305 " transform="matrix(0.445154,0,0,0.445207,-69.818407,-7.874428)"/>
<path style="fill:none;stroke-width:0.0625;stroke-linecap:butt;stroke-linejoin:miter;stroke:rgb(0%,0%,0%);stroke-opacity:1;stroke-miterlimit:4;" d="M 198.417318 60.890304 C 198.759545 60.951722 198.926271 60.758694 199.022797 60.57444 C 199.128098 60.363864 199.171973 60.214705 199.4791 60.205931 C 199.786227 60.188383 200.26008 60.100643 200.365381 59.863745 C 200.461906 59.626847 200.830459 59.846197 201.146361 59.232017 C 201.453488 58.617837 201.655314 57.88082 202.480169 57.6176 " transform="matrix(0.445154,0,0,0.445207,-69.818407,-7.874428)"/>
<path style="fill-rule:nonzero;fill:rgb(0%,65.490198%,15.686275%);fill-opacity:1;stroke-width:0.0625;stroke-linecap:butt;stroke-linejoin:miter;stroke:rgb(0%,0%,0%);stroke-opacity:1;stroke-miterlimit:4;" d="M 221.758971 73.752994 C 222.092423 74.235564 221.750196 74.75323 222.311799 74.963806 C 222.978704 75.209478 222.39955 76.078105 223.18053 76.385195 C 223.873759 76.657189 223.18053 77.490719 223.935185 77.868002 C 224.602089 78.201414 223.821109 78.9823 224.716165 79.429774 C 225.602446 79.877248 224.540664 80.877485 225.216343 81.272315 C 225.883248 81.658371 224.988192 82.667382 225.769172 83.053438 C 226.550152 83.448268 225.43572 84.229154 226.164049 84.781917 C 226.883604 85.343453 225.997323 86.176983 226.716878 86.677102 C 227.445208 87.185994 226.278125 87.852818 226.99768 88.58106 C 227.559284 89.133823 226.795854 89.677811 227.225831 90.528889 C 227.497858 91.090426 226.945029 93.319023 225.383069 93.099673 C 224.821466 94.047265 222.645251 94.880795 221.864271 94.600027 C 221.083291 95.161563 218.573625 95.94245 217.292466 94.714089 C 216.011308 95.94245 213.501642 95.161563 212.720661 94.600027 C 211.939681 94.880795 209.763467 94.047265 209.201863 93.099673 C 207.639903 93.319023 207.087075 91.090426 207.359101 90.528889 C 207.789079 89.677811 207.025649 89.133823 207.587253 88.58106 C 208.306808 87.852818 207.139725 87.185994 207.868055 86.677102 C 208.587609 86.176983 207.701329 85.343453 208.420883 84.781917 C 209.149213 84.229154 208.034781 83.448268 208.815761 83.053438 C 209.596741 82.667382 208.701685 81.658371 209.36859 81.272315 C 210.044269 80.877485 208.982487 79.877248 209.868768 79.429774 C 210.763824 78.9823 209.982844 78.201414 210.649748 77.868002 C 211.404403 77.490719 210.711173 76.657189 211.404403 76.385195 C 212.185383 76.078105 211.606229 75.209478 212.273134 74.963806 C 212.843512 74.75323 212.483735 74.218016 212.843512 73.726672 C 214.501998 74.375948 219.644182 74.849744 221.758971 73.752994 Z M 221.758971 73.752994 " transform="matrix(0.445154,0,0,0.445207,-69.818407,-7.874428)"/>
<path style="fill-rule:nonzero;fill:rgb(99.215686%,76.47059%,0%);fill-opacity:0.996078;stroke-width:0.0625;stroke-linecap:butt;stroke-linejoin:miter;stroke:rgb(0%,0%,0%);stroke-opacity:1;stroke-miterlimit:4;" d="M 213.510417 76.665963 C 213.510417 76.920409 213.501642 77.166081 213.27349 77.473171 C 212.773312 78.14877 213.492867 78.482182 212.940038 79.210424 C 212.378434 79.929892 213.054114 80.377367 212.43986 80.991547 C 211.825606 81.605727 212.54516 82.158489 211.930906 82.834088 C 211.316652 83.500912 212.044982 83.948386 211.430728 84.562567 C 210.816474 85.176747 211.544804 85.843571 210.93055 86.457751 C 210.316296 87.071932 211.044625 87.852818 210.368946 88.58106 C 209.702042 89.300529 210.483022 89.862065 209.930193 90.414827 C 209.36859 90.976364 209.868768 91.5379 209.482665 91.923956 C 210.14957 91.423838 210.14957 90.642951 210.649748 90.248121 C 211.149926 89.862065 210.483022 89.300529 210.763824 89.019761 C 211.044625 88.747767 210.816474 87.57205 211.316652 87.019288 C 211.825606 86.457751 211.378078 85.343453 211.825606 84.948623 C 212.273134 84.562567 211.930906 83.38685 212.49251 83.000794 C 213.054114 82.605964 212.49251 81.658371 212.940038 81.158253 C 213.387566 80.658135 212.940038 79.877248 213.387566 79.263068 C 213.835094 78.648888 213.405116 78.087352 213.721018 77.587233 C 213.861419 77.367883 213.861419 75.744693 213.510417 76.665963 Z M 213.510417 76.665963 " transform="matrix(0.445154,0,0,0.445207,-69.818407,-7.874428)"/>
<path style="fill-rule:nonzero;fill:rgb(99.215686%,76.47059%,0%);fill-opacity:0.996078;stroke-width:0.0625;stroke-linecap:butt;stroke-linejoin:miter;stroke:rgb(0%,0%,0%);stroke-opacity:1;stroke-miterlimit:4;" d="M 215.116252 77.367883 C 214.73015 78.087352 215.397054 78.254058 214.896876 78.9823 C 214.396697 79.710542 215.177678 80.263305 214.616074 80.991547 C 214.063245 81.719789 214.896876 82.105845 214.396697 82.834088 C 213.896519 83.553556 214.616074 83.948386 214.168546 84.501149 C 213.721018 85.062685 214.501998 85.624221 213.949169 86.291045 C 213.387566 86.95787 214.168546 87.457988 213.721018 88.072168 C 213.282265 88.686348 213.896519 89.361947 213.501642 89.862065 C 213.115539 90.362183 213.782443 91.090426 213.22084 91.75725 C 212.668011 92.424074 213.334915 92.871548 213.001463 93.319023 C 213.668368 93.099673 213.422666 92.178402 213.668368 91.9766 C 213.922844 91.783572 213.589392 90.502567 213.975495 90.169155 C 214.370372 89.835743 213.721018 88.800411 214.08957 88.352936 C 214.703824 87.598372 214.168546 87.098254 214.537098 86.510395 C 214.896876 85.931311 214.396697 85.176747 214.677499 84.781917 C 215.151352 84.115092 214.466898 83.509686 214.809125 83.027116 C 215.318078 82.33397 214.712599 81.754885 215.063602 81.298637 C 215.590105 80.596717 215.010951 79.90357 215.230328 79.543836 C 215.458479 79.175328 215.818257 77.613555 215.116252 77.367883 Z M 215.116252 77.367883 " transform="matrix(0.445154,0,0,0.445207,-69.818407,-7.874428)"/>
<path style="fill-rule:nonzero;fill:rgb(99.215686%,76.47059%,0%);fill-opacity:0.996078;stroke-width:0.0625;stroke-linecap:butt;stroke-linejoin:miter;stroke:rgb(0%,0%,0%);stroke-opacity:1;stroke-miterlimit:4;" d="M 217.292466 77.97329 C 216.897589 78.947204 217.573268 79.33326 217.345117 80.114147 C 217.12574 80.886259 217.625919 81.474117 217.292466 82.316422 C 216.959014 83.158726 217.739994 83.808002 217.292466 84.904753 C 216.844938 86.010277 217.582043 86.282271 217.292466 87.370248 C 216.959014 88.633704 217.845295 89.300529 217.292466 90.195477 C 216.730863 91.090426 217.933046 91.379968 217.345117 92.318786 C 217.064315 92.757486 217.371442 93.906881 217.81897 92.538136 C 218.266498 91.169392 217.485518 91.002686 217.87162 90.449923 C 218.266498 89.888387 217.739994 88.414354 217.90672 87.633468 C 218.073446 86.852582 217.511843 85.790927 217.87162 84.948623 C 218.240173 84.115092 217.318792 83.220144 217.678569 82.500676 C 218.047121 81.772433 217.511843 80.877485 217.845295 80.289627 C 218.178747 79.710542 217.599593 78.929656 217.739994 78.596244 C 217.87162 78.254058 217.599593 77.016923 217.292466 77.97329 Z M 217.292466 77.97329 " transform="matrix(0.445154,0,0,0.445207,-69.818407,-7.874428)"/>
<path style="fill-rule:nonzero;fill:rgb(93.725491%,2.745098%,17.647059%);fill-opacity:1;stroke-width:0.0625;stroke-linecap:butt;stroke-linejoin:miter;stroke:rgb(0%,0%,0%);stroke-opacity:1;stroke-miterlimit:4;" d="M 221.469394 74.411044 C 221.469394 68.102535 220.574338 65.926582 217.283691 65.926582 C 213.993045 65.926582 213.106764 68.102535 213.106764 74.411044 Z M 221.469394 74.411044 " transform="matrix(0.445154,0,0,0.445207,-69.818407,-7.874428)"/>
<path style="fill:none;stroke-width:0.0625;stroke-linecap:butt;stroke-linejoin:miter;stroke:rgb(0%,0%,0%);stroke-opacity:1;stroke-miterlimit:4;" d="M 214.326497 73.902152 C 213.712243 74.516332 214.440573 74.963806 213.826319 75.692049 C 213.212065 76.420291 213.773668 76.806347 213.27349 77.473171 C 212.764537 78.14877 213.492867 78.482182 212.931263 79.20165 C 212.378434 79.929892 213.045339 80.377367 212.431085 80.991547 C 211.816831 81.605727 212.54516 82.158489 211.930906 82.834088 C 211.316652 83.500912 212.044982 83.948386 211.430728 84.562567 C 210.816474 85.176747 211.544804 85.843571 210.93055 86.457751 C 210.316296 87.071932 211.03585 87.852818 210.368946 88.58106 C 209.702042 89.300529 210.483022 89.862065 209.921418 90.414827 C 209.36859 90.976364 209.868768 91.529126 209.47389 91.923956 C 209.087788 92.318786 209.035137 92.862774 209.201863 93.099673 " transform="matrix(0.445154,0,0,0.445207,-69.818407,-7.874428)"/>
<path style="fill:none;stroke-width:0.0625;stroke-linecap:butt;stroke-linejoin:miter;stroke:rgb(0%,0%,0%);stroke-opacity:1;stroke-miterlimit:4;" d="M 215.502355 74.130276 C 214.940751 74.858518 215.783156 75.19193 215.274203 75.806111 C 214.774025 76.420291 215.502355 76.639641 215.107477 77.367883 C 214.721375 78.087352 215.388279 78.254058 214.888101 78.9823 C 214.387922 79.710542 215.168902 80.263305 214.607299 80.991547 C 214.045695 81.719789 214.888101 82.105845 214.387922 82.834088 C 213.878969 83.553556 214.607299 83.948386 214.159771 84.501149 C 213.712243 85.062685 214.493223 85.624221 213.940394 86.291045 C 213.378791 86.95787 214.159771 87.457988 213.712243 88.072168 C 213.264715 88.686348 213.878969 89.361947 213.492867 89.862065 C 213.097989 90.362183 213.773668 91.090426 213.212065 91.75725 C 212.659236 92.424074 213.32614 92.871548 212.992688 93.319023 C 212.659236 93.766497 212.387209 94.424547 212.711886 94.600027 " transform="matrix(0.445154,0,0,0.445207,-69.818407,-7.874428)"/>
<path style="fill:none;stroke-width:0.0625;stroke-linecap:butt;stroke-linejoin:miter;stroke:rgb(0%,0%,0%);stroke-opacity:1;stroke-miterlimit:4;" d="M 217.292466 74.7971 C 217.011665 75.964043 217.678569 76.999375 217.292466 77.97329 C 216.897589 78.947204 217.573268 79.33326 217.345117 80.114147 C 217.12574 80.886259 217.625919 81.474117 217.292466 82.316422 C 216.959014 83.158726 217.739994 83.808002 217.292466 84.904753 C 216.844938 86.010277 217.582043 86.282271 217.292466 87.370248 C 216.959014 88.633704 217.845295 89.300529 217.292466 90.195477 C 216.730863 91.090426 217.792645 91.309776 217.345117 92.318786 C 216.897589 93.319023 217.625919 93.713853 217.292466 94.714089 " transform="matrix(0.445154,0,0,0.445207,-69.818407,-7.874428)"/>
<path style="fill:none;stroke-width:0.0625;stroke-linecap:butt;stroke-linejoin:miter;stroke:rgb(0%,0%,0%);stroke-opacity:1;stroke-miterlimit:4;" d="M 220.249661 73.902152 C 220.863915 74.516332 220.135585 74.963806 220.749839 75.692049 C 221.364093 76.420291 220.811264 76.806347 221.311443 77.473171 C 221.811621 78.14877 221.083291 78.482182 221.644895 79.20165 C 222.197723 79.929892 221.530819 80.377367 222.145073 80.991547 C 222.759327 81.605727 222.030997 82.158489 222.645251 82.834088 C 223.259505 83.500912 222.539951 83.948386 223.154205 84.562567 C 223.759684 85.176747 223.040129 85.843571 223.654383 86.457751 C 224.268637 87.071932 223.540307 87.852818 224.207212 88.58106 C 224.882891 89.300529 224.101911 89.862065 224.65474 90.414827 C 225.216343 90.976364 224.716165 91.529126 225.102267 91.923956 C 225.497145 92.318786 225.549795 92.862774 225.383069 93.099673 " transform="matrix(0.445154,0,0,0.445207,-69.818407,-7.874428)"/>
<path style="fill:none;stroke-width:0.0625;stroke-linecap:butt;stroke-linejoin:miter;stroke:rgb(0%,0%,0%);stroke-opacity:1;stroke-miterlimit:4;" d="M 219.082578 74.130276 C 219.635407 74.858518 218.801776 75.19193 219.301954 75.806111 C 219.802133 76.420291 219.082578 76.639641 219.468681 77.367883 C 219.863558 78.087352 219.187879 78.254058 219.696832 78.9823 C 220.19701 79.710542 219.41603 80.263305 219.968859 80.991547 C 220.530463 81.719789 219.696832 82.105845 220.19701 82.834088 C 220.697189 83.553556 219.968859 83.948386 220.416387 84.501149 C 220.863915 85.062685 220.082935 85.624221 220.644538 86.291045 C 221.197367 86.95787 220.416387 87.457988 220.863915 88.072168 C 221.311443 88.686348 220.697189 89.361947 221.092066 89.862065 C 221.478169 90.362183 220.811264 91.090426 221.364093 91.75725 C 221.925697 92.424074 221.258792 92.871548 221.592244 93.319023 C 221.925697 93.766497 222.188948 94.424547 221.873046 94.600027 " transform="matrix(0.445154,0,0,0.445207,-69.818407,-7.874428)"/>
<path style="fill-rule:nonzero;fill:rgb(0%,0%,0%);fill-opacity:1;stroke-width:0.0625;stroke-linecap:butt;stroke-linejoin:miter;stroke:rgb(0%,0%,0%);stroke-opacity:1;stroke-miterlimit:4;" d="M 213.106764 74.411044 C 213.106764 68.102535 214.00182 65.926582 217.292466 65.926582 C 215.783156 65.926582 214.870551 67.102299 214.616074 67.883185 C 214.361597 68.664071 214.501998 68.602653 214.83545 68.295563 C 215.177678 67.997247 215.002176 68.664071 214.73015 69.023805 C 214.449348 69.38354 214.168546 70.418872 214.563424 70.08546 C 214.949526 69.752048 215.256653 70.138104 214.83545 70.725962 C 214.423023 71.313821 214.05447 72.682565 214.475673 72.208769 C 214.896876 71.726199 214.975851 72.507085 214.73015 72.901915 C 214.475673 73.296745 214.501998 73.630158 214.73015 73.463452 C 214.949526 73.296745 214.923201 74.103954 214.703824 74.411044 Z M 213.106764 74.411044 " transform="matrix(0.445154,0,0,0.445207,-69.818407,-7.874428)"/>
<path style="fill-rule:nonzero;fill:rgb(0%,0%,0%);fill-opacity:1;stroke-width:0.0625;stroke-linecap:butt;stroke-linejoin:miter;stroke:rgb(0%,0%,0%);stroke-opacity:1;stroke-miterlimit:4;" d="M 220.828814 74.042536 C 220.828814 69.111546 220.21456 67.628739 218.986052 67.128621 C 218.292823 66.847852 218.275273 66.909271 218.608725 67.347971 C 218.942177 67.795445 218.889527 68.435947 218.5824 67.997247 C 218.275273 67.549773 218.169972 67.462033 218.047121 67.655061 C 217.915495 67.856863 218.398124 68.778133 218.757901 69.611664 C 219.047478 70.287262 218.863202 70.6119 218.424449 69.945076 C 217.994471 69.278252 217.994471 69.883658 218.371798 70.445194 C 218.863202 71.173436 218.845652 73.375711 218.845652 74.296982 Z M 220.828814 74.042536 " transform="matrix(0.445154,0,0,0.445207,-69.818407,-7.874428)"/>
<path style="fill-rule:nonzero;fill:rgb(93.725491%,2.745098%,17.647059%);fill-opacity:1;stroke-width:0.0625;stroke-linecap:butt;stroke-linejoin:miter;stroke:rgb(0%,0%,0%);stroke-opacity:1;stroke-miterlimit:4;" d="M 217.292466 75.332314 C 218.59995 75.332314 220.039059 75.095416 221.004316 74.718134 C 222.145073 74.279434 222.206498 73.884604 221.811621 73.384485 C 221.530819 73.033525 220.916565 73.244101 220.328636 73.507322 C 219.740707 73.761768 218.126097 73.928474 217.292466 73.928474 C 216.450061 73.928474 214.83545 73.761768 214.247521 73.507322 C 213.668368 73.244101 213.054114 73.033525 212.773312 73.384485 C 212.378434 73.884604 212.43986 74.279434 213.580617 74.718134 C 214.545873 75.095416 215.976208 75.332314 217.292466 75.332314 Z M 217.292466 75.332314 " transform="matrix(0.445154,0,0,0.445207,-69.818407,-7.874428)"/>
<path style="fill-rule:evenodd;fill:rgb(72.549021%,35.294119%,11.764706%);fill-opacity:1;stroke-width:4.375;stroke-linecap:butt;stroke-linejoin:miter;stroke:rgb(0%,0%,0%);stroke-opacity:1;stroke-miterlimit:4;" d="M 779.35021 912.294018 C 779.35021 912.294018 779.281224 1015.957413 779.27516 1092.045415 C 779.542401 1167.68715 799.185026 1196.898585 833.768766 1195.373396 C 868.079203 1194.294474 874.976238 1136.540392 868.056078 1103.461168 C 861.409221 1069.935677 815.05787 904.707062 815.05787 904.707062 Z M 779.35021 912.294018 " transform="matrix(0.00603646,-0.00389843,0.00369686,0.00636567,24.493173,19.176191)"/>
<path style="fill-rule:evenodd;fill:rgb(72.549021%,35.294119%,11.764706%);fill-opacity:1;stroke-width:4.375;stroke-linecap:butt;stroke-linejoin:miter;stroke:rgb(0%,0%,0%);stroke-opacity:1;stroke-miterlimit:4;" d="M 779.485949 912.370644 C 779.485949 912.370644 779.454617 1016.148196 779.136733 1092.046465 C 779.467344 1167.547445 799.19081 1196.878519 833.858392 1195.679254 C 868.094841 1193.853484 874.651598 1136.398832 868.108223 1103.446374 C 861.67353 1069.98202 815.026569 904.40212 815.026569 904.40212 Z M 779.485949 912.370644 " transform="matrix(0.00692417,-0.00155024,0.00147007,0.00730181,25.741922,16.54253)"/>
<path style="fill-rule:evenodd;fill:rgb(72.549021%,35.294119%,11.764706%);fill-opacity:1;stroke-width:4.375;stroke-linecap:butt;stroke-linejoin:miter;stroke:rgb(0%,0%,0%);stroke-opacity:1;stroke-miterlimit:4;" d="M 779.563989 912.8553 C 779.563989 912.8553 779.563989 1015.947435 779.563989 1091.827433 C 779.563989 1167.707431 799.430437 1196.489499 833.644876 1195.442878 C 867.859315 1193.872947 875.033311 1136.832121 868.411161 1103.34026 C 861.789012 1069.848399 814.882119 904.482335 814.882119 904.482335 Z M 779.563989 912.8553 " transform="matrix(0.00707852,0,0,0.0074645,26.802155,15.209429)"/>
<path style="fill-rule:evenodd;fill:rgb(72.549021%,35.294119%,11.764706%);fill-opacity:1;stroke-width:5.5537;stroke-linecap:butt;stroke-linejoin:miter;stroke:rgb(0%,0%,0%);stroke-opacity:1;stroke-miterlimit:4;" d="M 779.58133 255.240799 C 938.758364 253.670868 956.543507 219.655697 956.543507 219.655697 C 956.543507 219.655697 992.113794 149.008802 974.328651 131.216251 C 956.543507 113.4237 779.58133 113.4237 779.58133 113.4237 Z M 779.58133 255.240799 " transform="matrix(0.00439271,0,0,0.0074645,28.895837,20.102568)"/>
<path style="fill-rule:evenodd;fill:rgb(72.549021%,35.294119%,11.764706%);fill-opacity:1;stroke-width:4.375;stroke-linecap:butt;stroke-linejoin:miter;stroke:rgb(0%,0%,0%);stroke-opacity:1;stroke-miterlimit:4;" d="M 779.563989 254.96892 C 886.070226 254.96892 903.729292 219.907128 903.729292 219.907128 C 903.729292 219.907128 939.047422 148.736924 921.388357 130.944372 C 903.729292 113.151821 779.563989 113.151821 779.563989 113.151821 Z M 779.563989 254.96892 " transform="matrix(0.00707852,0,0,0.0074645,26.802155,19.573347)"/>
<path style="fill-rule:evenodd;fill:rgb(72.549021%,35.294119%,11.764706%);fill-opacity:1;stroke-width:4.375;stroke-linecap:butt;stroke-linejoin:miter;stroke:rgb(0%,0%,0%);stroke-opacity:1;stroke-miterlimit:4;" d="M 779.563989 255.220352 C 867.859315 255.220352 921.388357 219.63525 921.388357 219.63525 C 921.388357 219.63525 956.706488 148.988355 939.047422 131.195804 C 921.388357 113.403253 779.563989 113.403253 779.563989 113.403253 Z M 779.563989 255.220352 " transform="matrix(0.00707852,0,0,0.0074645,26.802155,19.044126)"/>
<path style="fill-rule:evenodd;fill:rgb(72.549021%,35.294119%,11.764706%);fill-opacity:1;stroke-width:3.9272;stroke-linecap:butt;stroke-linejoin:miter;stroke:rgb(0%,0%,0%);stroke-opacity:1;stroke-miterlimit:4;" d="M 832.602658 113.279003 C 832.602658 113.279003 903.749432 24.839557 1027.366954 -63.599889 C 1151.429142 -152.562645 1241.251945 -220.592987 1257.704637 -205.416988 C 1257.704637 -187.624437 1151.429142 -99.184991 1062.940341 -28.538096 C 974.45154 42.632108 868.176045 148.864105 868.176045 148.864105 Z M 832.602658 113.279003 " transform="matrix(0.00878466,0,0,0.0074645,25.428059,15.224741)"/>
<path style="fill-rule:evenodd;fill:rgb(72.549021%,35.294119%,11.764706%);fill-opacity:1;stroke-width:3.9272;stroke-linecap:butt;stroke-linejoin:miter;stroke:rgb(0%,0%,0%);stroke-opacity:1;stroke-miterlimit:4;" d="M 832.772724 113.550881 C 832.772724 113.550881 902.585497 61.219848 1036.875034 -10.473667 C 1169.385902 -74.317527 1356.146186 -63.85132 1356.146186 -46.058769 C 1338.359493 -28.266218 1178.723917 -28.266218 1072.448422 24.588125 C 971.064268 75.349227 867.901444 148.612673 867.901444 148.612673 Z M 832.772724 113.550881 " transform="matrix(0.00878466,0,0,0.0074645,25.500784,15.753962)"/>
<path style="fill-rule:evenodd;fill:rgb(72.549021%,35.294119%,11.764706%);fill-opacity:1;stroke-width:3.9272;stroke-linecap:butt;stroke-linejoin:miter;stroke:rgb(0%,0%,0%);stroke-opacity:1;stroke-miterlimit:4;" d="M 832.899485 113.429292 C 832.899485 113.429292 894.263578 78.3675 1037.001795 24.989846 C 1178.850677 -28.387808 1366.944963 7.197295 1366.944963 24.989846 C 1349.15827 42.259087 1196.637371 31.79288 1090.361876 60.051638 C 980.084375 87.787086 868.028205 149.014394 868.028205 149.014394 Z M 832.899485 113.429292 " transform="matrix(0.00878466,0,0,0.0074645,25.507483,16.665026)"/>
<path style="fill-rule:evenodd;fill:rgb(72.549021%,35.294119%,11.764706%);fill-opacity:1;stroke-width:3.9272;stroke-linecap:butt;stroke-linejoin:miter;stroke:rgb(0%,0%,0%);stroke-opacity:1;stroke-miterlimit:4;" d="M 832.81603 113.606252 C 832.81603 113.606252 903.962805 42.436047 1055.149701 24.643496 C 1207.6706 6.850945 1331.288121 113.606252 1331.288121 130.875493 C 1313.946094 148.668044 1172.097212 52.902254 1065.821717 67.031633 C 952.876212 80.637701 867.94475 148.668044 867.94475 148.668044 Z M 832.81603 113.606252 " transform="matrix(0.00878466,0,0,0.0074645,25.566809,17.589486)"/>
<path style="fill-rule:evenodd;fill:rgb(72.549021%,35.294119%,11.764706%);fill-opacity:1;stroke-width:4.375;stroke-linecap:butt;stroke-linejoin:miter;stroke:rgb(0%,0%,0%);stroke-opacity:1;stroke-miterlimit:4;" d="M 779.563989 255.243693 C 939.047422 253.673762 939.047422 209.715694 939.047422 209.715694 C 939.047422 209.715694 974.365553 138.545489 956.706488 121.276248 C 939.047422 103.483697 779.563989 113.426593 779.563989 113.426593 Z M 779.563989 255.243693 " transform="matrix(0.00707852,0,0,0.0074645,26.802155,18.383796)"/>
<path style="fill-rule:evenodd;fill:rgb(72.549021%,35.294119%,11.764706%);fill-opacity:1;stroke-width:4.375;stroke-linecap:butt;stroke-linejoin:miter;stroke:rgb(0%,0%,0%);stroke-opacity:1;stroke-miterlimit:4;" d="M 779.563989 254.971814 C 939.047422 253.925194 956.706488 219.910022 956.706488 219.910022 C 956.706488 219.910022 992.024618 148.739817 974.365553 130.947266 C 956.706488 113.154715 779.563989 113.154715 779.563989 113.154715 Z M 779.563989 254.971814 " transform="matrix(0.00707852,0,0,0.0074645,26.802155,17.854575)"/>
<path style="fill-rule:evenodd;fill:rgb(72.549021%,35.294119%,11.764706%);fill-opacity:1;stroke-width:4.375;stroke-linecap:butt;stroke-linejoin:miter;stroke:rgb(0%,0%,0%);stroke-opacity:1;stroke-miterlimit:4;" d="M 779.563989 255.123291 C 939.047422 253.55336 974.365553 219.538189 974.365553 219.538189 C 974.365553 219.538189 1009.683684 148.891294 992.024618 131.098743 C 974.365553 113.306192 779.563989 113.306192 779.563989 113.306192 Z M 779.563989 255.123291 " transform="matrix(0.00707852,0,0,0.0074645,26.802155,17.193288)"/>
<path style="fill-rule:evenodd;fill:rgb(72.549021%,35.294119%,11.764706%);fill-opacity:1;stroke-width:4.375;stroke-linecap:butt;stroke-linejoin:miter;stroke:rgb(0%,0%,0%);stroke-opacity:1;stroke-miterlimit:4;" d="M 779.563989 255.274572 C 939.047422 253.704642 992.024618 219.68947 992.024618 219.68947 C 992.024618 219.68947 1009.683684 149.042576 992.024618 131.250024 C 974.365553 113.457473 779.563989 113.457473 779.563989 113.457473 Z M 779.563989 255.274572 " transform="matrix(0.00707852,0,0,0.0074645,26.802155,16.532003)"/>
<path style="fill-rule:evenodd;fill:rgb(72.549021%,35.294119%,11.764706%);fill-opacity:1;stroke-width:3.9272;stroke-linecap:butt;stroke-linejoin:miter;stroke:rgb(0%,0%,0%);stroke-opacity:1;stroke-miterlimit:4;" d="M 832.535117 113.488549 C 832.535117 113.488549 946.814624 25.049103 946.814624 -46.121102 C 946.814624 -116.767997 896.567214 -187.938201 882.337859 -222.999993 C 910.796569 -222.999993 975.273334 -116.767997 975.273334 -46.121102 C 975.273334 31.328827 868.108504 149.073651 868.108504 149.073651 Z M 832.535117 113.488549 " transform="matrix(0.00878466,0,0,0.0074645,25.256777,14.680208)"/>
<path style="fill-rule:evenodd;fill:rgb(72.549021%,35.294119%,11.764706%);fill-opacity:1;stroke-width:3.9272;stroke-linecap:butt;stroke-linejoin:miter;stroke:rgb(0%,0%,0%);stroke-opacity:1;stroke-miterlimit:4;" d="M 832.535117 113.488549 C 832.535117 113.488549 818.305762 60.110895 818.305762 -46.121102 C 818.305762 -170.14565 881.448524 -249.16551 904.126559 -276.377647 C 909.907234 -249.16551 846.764472 -152.353099 846.764472 -46.121102 C 846.764472 31.328827 868.108504 149.073651 868.108504 149.073651 Z M 832.535117 113.488549 " transform="matrix(0.00878466,0,0,0.0074645,25.256777,14.680208)"/>
<path style="fill-rule:evenodd;fill:rgb(72.549021%,35.294119%,11.764706%);fill-opacity:1;stroke-width:4.375;stroke-linecap:butt;stroke-linejoin:miter;stroke:rgb(0%,0%,0%);stroke-opacity:1;stroke-miterlimit:4;" d="M 779.563989 254.902739 C 939.047422 253.856118 992.024618 219.840947 992.024618 219.840947 C 992.024618 219.840947 992.024618 148.670742 974.365553 130.878191 C 956.706488 113.60895 779.563989 113.60895 779.563989 113.60895 Z M 779.563989 254.902739 " transform="matrix(0.00707852,0,0,0.0074645,26.802155,15.870716)"/>
<path style="fill-rule:evenodd;fill:rgb(72.549021%,35.294119%,11.764706%);fill-opacity:1;stroke-width:4.375;stroke-linecap:butt;stroke-linejoin:miter;stroke:rgb(0%,0%,0%);stroke-opacity:1;stroke-miterlimit:4;" d="M 779.563989 255.054216 C 939.047422 253.484285 974.365553 219.469114 974.365553 219.469114 C 974.365553 219.469114 974.365553 148.822219 956.706488 131.029668 C 939.047422 113.237117 779.563989 113.237117 779.563989 113.237117 Z M 779.563989 255.054216 " transform="matrix(0.00707852,0,0,0.0074645,26.802155,15.209429)"/>
<path style="fill-rule:evenodd;fill:rgb(72.549021%,35.294119%,11.764706%);fill-opacity:1;stroke-width:11.026;stroke-linecap:butt;stroke-linejoin:miter;stroke:rgb(99.215686%,76.47059%,0.392157%);stroke-opacity:1;stroke-miterlimit:4;" d="M 318.706331 1317.897495 C 373.890911 1195.966189 389.894439 981.408954 389.894439 945.823851 C 389.894439 846.394889 356.783691 360.762903 354.576308 166.61477 C 351.817079 -28.056672 478.189765 -134.811979 602.355068 -134.811979 C 708.861306 -134.811979 779.497567 -63.641775 779.497567 42.590222 L 726.520371 42.590222 C 726.520371 -28.579983 672.99133 -81.434326 602.355068 -81.434326 C 495.848831 -81.434326 414.175653 2.295327 407.553504 166.61477 C 399.827663 356.57642 428.523644 849.53475 425.212569 981.408954 C 421.349649 1113.283157 373.890911 1231.027981 318.706331 1317.897495 Z M 318.706331 1317.897495 " transform="matrix(-0.00707852,0,0,0.0074645,37.838,15.209429)"/>
<path style="fill-rule:evenodd;fill:rgb(72.549021%,35.294119%,11.764706%);fill-opacity:1;stroke-width:4.375;stroke-linecap:butt;stroke-linejoin:miter;stroke:rgb(0%,0%,0%);stroke-opacity:1;stroke-miterlimit:4;" d="M 779.764173 912.547535 C 779.764173 912.547535 779.22458 1015.922724 779.218517 1092.010726 C 779.485758 1167.65246 799.128383 1196.863896 833.712123 1195.338707 C 868.02256 1194.259785 874.919595 1136.505703 867.999435 1103.426479 C 861.823184 1070.189194 815.001227 904.672373 815.001227 904.672373 Z M 779.764173 912.547535 " transform="matrix(-0.00603646,-0.00389843,-0.00369686,0.00636567,40.146982,19.176191)"/>
<path style="fill-rule:evenodd;fill:rgb(72.549021%,35.294119%,11.764706%);fill-opacity:1;stroke-width:4.375;stroke-linecap:butt;stroke-linejoin:miter;stroke:rgb(0%,0%,0%);stroke-opacity:1;stroke-miterlimit:4;" d="M 779.563989 32.647326 C 903.729292 33.170636 957.258333 135.216151 957.258333 133.122909 L 921.388357 166.61477 C 902.073754 184.407322 779.563989 184.407322 781.219526 184.407322 Z M 779.563989 32.647326 " transform="matrix(0.00707852,0,0,0.0074645,26.802155,15.209429)"/>
<path style="fill-rule:evenodd;fill:rgb(72.549021%,35.294119%,11.764706%);fill-opacity:1;stroke-width:4.375;stroke-linecap:butt;stroke-linejoin:miter;stroke:rgb(0%,0%,0%);stroke-opacity:1;stroke-miterlimit:4;" d="M 779.289418 912.328918 C 779.289418 912.328918 779.258086 1016.106471 779.480016 1092.119347 C 779.270813 1167.505719 798.994279 1196.836794 833.661862 1195.637528 C 867.898311 1193.811759 874.994882 1136.471714 867.911693 1103.404648 C 861.476999 1069.940294 814.830038 904.360395 814.830038 904.360395 Z M 779.289418 912.328918 " transform="matrix(-0.00692417,-0.00155024,-0.00147007,0.00730181,38.89728,16.54253)"/>
<path style="fill-rule:evenodd;fill:rgb(72.549021%,35.294119%,11.764706%);fill-opacity:1;stroke-width:4.375;stroke-linecap:butt;stroke-linejoin:miter;stroke:rgb(0%,0%,0%);stroke-opacity:1;stroke-miterlimit:4;" d="M 779.362253 912.8553 C 779.362253 912.8553 779.362253 1015.947435 779.362253 1091.827433 C 779.362253 1167.707431 799.228701 1196.489499 833.44314 1195.442878 C 868.209425 1193.872947 874.831575 1136.832121 868.209425 1103.34026 C 861.587276 1069.848399 815.232229 904.482335 815.232229 904.482335 Z M 779.362253 912.8553 " transform="matrix(-0.00707852,0,0,0.0074645,37.837042,15.209429)"/>
<path style="fill-rule:evenodd;fill:rgb(72.549021%,35.294119%,11.764706%);fill-opacity:1;stroke-width:5.5537;stroke-linecap:butt;stroke-linejoin:miter;stroke:rgb(0%,0%,0%);stroke-opacity:1;stroke-miterlimit:4;" d="M 779.256247 255.240799 C 939.322539 253.670868 957.107682 219.655697 957.107682 219.655697 C 957.107682 219.655697 991.788712 149.008802 974.003569 131.216251 C 957.107682 113.4237 779.256247 113.4237 779.256247 113.4237 Z M 779.256247 255.240799 " transform="matrix(-0.00439271,0,0,0.0074645,35.74336,20.102568)"/>
<path style="fill-rule:evenodd;fill:rgb(72.549021%,35.294119%,11.764706%);fill-opacity:1;stroke-width:4.375;stroke-linecap:butt;stroke-linejoin:miter;stroke:rgb(0%,0%,0%);stroke-opacity:1;stroke-miterlimit:4;" d="M 779.362253 254.96892 C 885.86849 254.96892 903.527556 219.907128 903.527556 219.907128 C 903.527556 219.907128 938.845686 148.736924 921.186621 130.944372 C 903.527556 113.151821 779.362253 113.151821 779.362253 113.151821 Z M 779.362253 254.96892 " transform="matrix(-0.00707852,0,0,0.0074645,37.837042,19.573347)"/>
<path style="fill-rule:evenodd;fill:rgb(72.549021%,35.294119%,11.764706%);fill-opacity:1;stroke-width:4.375;stroke-linecap:butt;stroke-linejoin:miter;stroke:rgb(0%,0%,0%);stroke-opacity:1;stroke-miterlimit:4;" d="M 779.362253 255.220352 C 868.209425 255.220352 921.186621 219.63525 921.186621 219.63525 C 921.186621 219.63525 956.504752 148.988355 938.845686 131.195804 C 921.186621 113.403253 779.362253 113.403253 779.362253 113.403253 Z M 779.362253 255.220352 " transform="matrix(-0.00707852,0,0,0.0074645,37.837042,19.044126)"/>
<path style="fill-rule:evenodd;fill:rgb(72.549021%,35.294119%,11.764706%);fill-opacity:1;stroke-width:3.9272;stroke-linecap:butt;stroke-linejoin:miter;stroke:rgb(0%,0%,0%);stroke-opacity:1;stroke-miterlimit:4;" d="M 832.88477 113.279003 C 832.88477 113.279003 903.586877 24.839557 1027.649066 -63.599889 C 1151.711254 -152.562645 1241.08939 -220.592987 1257.986749 -205.416988 C 1257.986749 -187.624437 1151.711254 -99.184991 1062.777786 -28.538096 C 974.288985 42.632108 868.01349 148.864105 868.01349 148.864105 Z M 832.88477 113.279003 " transform="matrix(-0.00878466,0,0,0.0074645,39.211138,15.224741)"/>
<path style="fill-rule:evenodd;fill:rgb(72.549021%,35.294119%,11.764706%);fill-opacity:1;stroke-width:3.9272;stroke-linecap:butt;stroke-linejoin:miter;stroke:rgb(0%,0%,0%);stroke-opacity:1;stroke-miterlimit:4;" d="M 832.719203 113.550881 C 832.719203 113.550881 902.531976 61.219848 1037.266181 -10.473667 C 1169.332381 -74.317527 1356.092665 -63.85132 1356.092665 -46.058769 C 1338.305971 -28.266218 1178.670395 -28.266218 1072.394901 24.588125 C 971.010747 75.349227 868.29259 148.612673 868.29259 148.612673 Z M 832.719203 113.550881 " transform="matrix(-0.00878466,0,0,0.0074645,39.139371,15.753962)"/>
<path style="fill-rule:evenodd;fill:rgb(72.549021%,35.294119%,11.764706%);fill-opacity:1;stroke-width:3.9272;stroke-linecap:butt;stroke-linejoin:miter;stroke:rgb(0%,0%,0%);stroke-opacity:1;stroke-miterlimit:4;" d="M 832.846629 113.429292 C 832.846629 113.429292 894.210722 78.3675 1036.948939 24.989846 C 1178.797821 -28.387808 1366.892107 7.197295 1366.892107 24.989846 C 1349.105413 42.259087 1196.584515 31.79288 1090.30902 60.051638 C 980.031519 87.787086 867.975349 149.014394 867.975349 149.014394 Z M 832.846629 113.429292 " transform="matrix(-0.00878466,0,0,0.0074645,39.132678,16.665026)"/>
<path style="fill-rule:evenodd;fill:rgb(72.549021%,35.294119%,11.764706%);fill-opacity:1;stroke-width:3.9272;stroke-linecap:butt;stroke-linejoin:miter;stroke:rgb(0%,0%,0%);stroke-opacity:1;stroke-miterlimit:4;" d="M 832.762509 113.606252 C 832.762509 113.606252 903.909284 42.436047 1055.09618 24.643496 C 1207.617078 6.850945 1331.2346 113.606252 1331.2346 130.875493 C 1313.892573 148.668044 1172.043691 52.902254 1065.768196 67.031633 C 953.267359 80.637701 867.891229 148.668044 867.891229 148.668044 Z M 832.762509 113.606252 " transform="matrix(-0.00878466,0,0,0.0074645,39.073345,17.589486)"/>
<path style="fill-rule:evenodd;fill:rgb(72.549021%,35.294119%,11.764706%);fill-opacity:1;stroke-width:4.375;stroke-linecap:butt;stroke-linejoin:miter;stroke:rgb(0%,0%,0%);stroke-opacity:1;stroke-miterlimit:4;" d="M 779.362253 255.243693 C 938.845686 253.673762 938.845686 209.715694 938.845686 209.715694 C 938.845686 209.715694 974.163817 138.545489 956.504752 121.276248 C 938.845686 103.483697 779.362253 113.426593 779.362253 113.426593 Z M 779.362253 255.243693 " transform="matrix(-0.00707852,0,0,0.0074645,37.837042,18.383796)"/>
<path style="fill-rule:evenodd;fill:rgb(72.549021%,35.294119%,11.764706%);fill-opacity:1;stroke-width:4.375;stroke-linecap:butt;stroke-linejoin:miter;stroke:rgb(0%,0%,0%);stroke-opacity:1;stroke-miterlimit:4;" d="M 779.362253 254.971814 C 938.845686 253.925194 956.504752 219.910022 956.504752 219.910022 C 956.504752 219.910022 992.374728 148.739817 974.163817 130.947266 C 956.504752 113.154715 779.362253 113.154715 779.362253 113.154715 Z M 779.362253 254.971814 " transform="matrix(-0.00707852,0,0,0.0074645,37.837042,17.854575)"/>
<path style="fill-rule:evenodd;fill:rgb(72.549021%,35.294119%,11.764706%);fill-opacity:1;stroke-width:4.375;stroke-linecap:butt;stroke-linejoin:miter;stroke:rgb(0%,0%,0%);stroke-opacity:1;stroke-miterlimit:4;" d="M 779.362253 255.123291 C 938.845686 253.55336 974.163817 219.538189 974.163817 219.538189 C 974.163817 219.538189 1010.033794 148.891294 992.374728 131.098743 C 974.163817 113.306192 779.362253 113.306192 779.362253 113.306192 Z M 779.362253 255.123291 " transform="matrix(-0.00707852,0,0,0.0074645,37.837042,17.193288)"/>
<path style="fill-rule:evenodd;fill:rgb(72.549021%,35.294119%,11.764706%);fill-opacity:1;stroke-width:4.375;stroke-linecap:butt;stroke-linejoin:miter;stroke:rgb(0%,0%,0%);stroke-opacity:1;stroke-miterlimit:4;" d="M 779.362253 255.274572 C 938.845686 253.704642 992.374728 219.68947 992.374728 219.68947 C 992.374728 219.68947 1010.033794 149.042576 992.374728 131.250024 C 974.163817 113.457473 779.362253 113.457473 779.362253 113.457473 Z M 779.362253 255.274572 " transform="matrix(-0.00707852,0,0,0.0074645,37.837042,16.532003)"/>
<path style="fill-rule:evenodd;fill:rgb(72.549021%,35.294119%,11.764706%);fill-opacity:1;stroke-width:3.9272;stroke-linecap:butt;stroke-linejoin:miter;stroke:rgb(0%,0%,0%);stroke-opacity:1;stroke-miterlimit:4;" d="M 832.482261 113.488549 C 832.482261 113.488549 946.761768 25.049103 946.761768 -46.121102 C 946.761768 -116.767997 896.514358 -187.938201 882.285003 -222.999993 C 910.743713 -222.999993 975.220477 -116.767997 975.220477 -46.121102 C 975.220477 31.328827 868.055648 149.073651 868.055648 149.073651 Z M 832.482261 113.488549 " transform="matrix(-0.00878466,0,0,0.0074645,39.383383,14.680208)"/>
<path style="fill-rule:evenodd;fill:rgb(72.549021%,35.294119%,11.764706%);fill-opacity:1;stroke-width:3.9272;stroke-linecap:butt;stroke-linejoin:miter;stroke:rgb(0%,0%,0%);stroke-opacity:1;stroke-miterlimit:4;" d="M 832.482261 113.488549 C 832.482261 113.488549 818.252906 60.110895 818.252906 -46.121102 C 818.252906 -170.14565 881.395668 -249.16551 904.073703 -276.377647 C 909.854378 -249.16551 847.156283 -152.353099 847.156283 -46.121102 C 847.156283 31.328827 868.055648 149.073651 868.055648 149.073651 Z M 832.482261 113.488549 " transform="matrix(-0.00878466,0,0,0.0074645,39.383383,14.680208)"/>
<path style="fill-rule:evenodd;fill:rgb(72.549021%,35.294119%,11.764706%);fill-opacity:1;stroke-width:4.375;stroke-linecap:butt;stroke-linejoin:miter;stroke:rgb(0%,0%,0%);stroke-opacity:1;stroke-miterlimit:4;" d="M 779.362253 254.902739 C 938.845686 253.856118 992.374728 219.840947 992.374728 219.840947 C 992.374728 219.840947 992.374728 148.670742 974.163817 130.878191 C 956.504752 113.60895 779.362253 113.60895 779.362253 113.60895 Z M 779.362253 254.902739 " transform="matrix(-0.00707852,0,0,0.0074645,37.837042,15.870716)"/>
<path style="fill-rule:evenodd;fill:rgb(72.549021%,35.294119%,11.764706%);fill-opacity:1;stroke-width:4.375;stroke-linecap:butt;stroke-linejoin:miter;stroke:rgb(0%,0%,0%);stroke-opacity:1;stroke-miterlimit:4;" d="M 779.362253 255.054216 C 938.845686 253.484285 974.163817 219.469114 974.163817 219.469114 C 974.163817 219.469114 974.163817 148.822219 956.504752 131.029668 C 938.845686 113.237117 779.362253 113.237117 779.362253 113.237117 Z M 779.362253 255.054216 " transform="matrix(-0.00707852,0,0,0.0074645,37.837042,15.209429)"/>
<path style="fill-rule:evenodd;fill:rgb(72.549021%,35.294119%,11.764706%);fill-opacity:1;stroke-width:11.026;stroke-linecap:butt;stroke-linejoin:miter;stroke:rgb(99.215686%,76.47059%,0.392157%);stroke-opacity:1;stroke-miterlimit:4;" d="M 318.908067 1317.897495 C 374.092647 1195.966189 389.544329 981.408954 389.544329 945.823851 C 389.544329 846.394889 356.985427 360.762903 354.226198 166.61477 C 352.018815 -28.056672 478.391501 -134.811979 602.556804 -134.811979 C 708.511196 -134.811979 779.699303 -63.641775 779.699303 42.590222 L 726.170262 42.590222 C 726.170262 -28.579983 673.193066 -81.434326 602.556804 -81.434326 C 496.050566 -81.434326 414.377389 2.295327 407.75524 166.61477 C 400.029399 356.57642 428.72538 849.53475 425.414305 981.408954 C 421.551385 1113.283157 374.092647 1231.027981 318.908067 1317.897495 Z M 318.908067 1317.897495 " transform="matrix(0.00707852,0,0,0.0074645,26.801197,15.209429)"/>
<path style="fill-rule:evenodd;fill:rgb(72.549021%,35.294119%,11.764706%);fill-opacity:1;stroke-width:4.375;stroke-linecap:butt;stroke-linejoin:miter;stroke:rgb(0%,0%,0%);stroke-opacity:1;stroke-miterlimit:4;" d="M 779.362253 32.647326 C 903.527556 33.170636 957.056598 135.216151 957.056598 133.122909 L 921.186621 166.61477 C 902.423864 184.407322 779.362253 184.407322 781.01779 184.407322 Z M 779.362253 32.647326 " transform="matrix(-0.00707852,0,0,0.0074645,37.837042,15.209429)"/>
</g>
</svg>
