<?xml version="1.0" encoding="UTF-8"?>
<svg xmlns="http://www.w3.org/2000/svg" xmlns:xlink="http://www.w3.org/1999/xlink" width="40px" height="40px" viewBox="0 0 40 40" version="1.1">
<g id="surface1">
<rect x="0" y="0" width="40" height="40" style="fill:rgb(100%,100%,100%);fill-opacity:1;stroke:none;"/>
<path style=" stroke:none;fill-rule:evenodd;fill:rgb(13.725491%,62.352943%,25.098041%);fill-opacity:1;" d="M -20 29.097656 L 59.890625 29.097656 L 59.890625 39.964844 L -20 39.964844 Z M -20 29.097656 "/>
<path style=" stroke:none;fill-rule:evenodd;fill:rgb(80.392158%,9.019608%,21.960784%);fill-opacity:1;" d="M -20 0 L 59.890625 0 L 59.890625 10.867188 L -20 10.867188 Z M -20 0 "/>
<path style=" stroke:none;fill-rule:evenodd;fill:rgb(100%,100%,0%);fill-opacity:1;" d="M 12.492188 16.582031 L 12.777344 17.53125 L 13.707031 17.507812 L 12.9375 18.085938 L 13.242188 19.007812 L 12.480469 18.417969 L 11.738281 19.007812 L 12.039062 18.0625 L 11.273438 17.507812 L 12.222656 17.515625 Z M 12.492188 16.582031 "/>
<path style=" stroke:none;fill-rule:evenodd;fill:rgb(100%,100%,0%);fill-opacity:1;" d="M 11.566406 20.640625 L 11.851562 21.585938 L 12.785156 21.566406 L 12.011719 22.144531 L 12.316406 23.0625 L 11.554688 22.476562 L 10.8125 23.0625 L 11.113281 22.121094 L 10.347656 21.566406 L 11.296875 21.570312 Z M 11.566406 20.640625 "/>
<path style=" stroke:none;fill-rule:evenodd;fill:rgb(100%,100%,0%);fill-opacity:1;" d="M 15.621094 13.273438 L 15.910156 14.21875 L 16.839844 14.199219 L 16.066406 14.777344 L 16.375 15.699219 L 15.609375 15.109375 L 14.871094 15.699219 L 15.167969 14.753906 L 14.402344 14.199219 L 15.351562 14.207031 Z M 15.621094 13.273438 "/>
<path style=" stroke:none;fill-rule:evenodd;fill:rgb(100%,100%,0%);fill-opacity:1;" d="M 19.839844 12.171875 L 20.125 13.117188 L 21.058594 13.097656 L 20.285156 13.675781 L 20.59375 14.59375 L 19.828125 14.003906 L 19.085938 14.59375 L 19.386719 13.652344 L 18.621094 13.097656 L 19.570312 13.101562 Z M 19.839844 12.171875 "/>
<path style=" stroke:none;fill-rule:evenodd;fill:rgb(100%,100%,0%);fill-opacity:1;" d="M 24.09375 13.273438 L 24.378906 14.21875 L 25.308594 14.199219 L 24.539062 14.777344 L 24.84375 15.699219 L 24.082031 15.109375 L 23.339844 15.699219 L 23.640625 14.753906 L 22.875 14.199219 L 23.824219 14.207031 Z M 24.09375 13.273438 "/>
<path style=" stroke:none;fill-rule:evenodd;fill:rgb(100%,100%,0%);fill-opacity:1;" d="M 27.222656 16.601562 L 27.511719 17.546875 L 28.441406 17.527344 L 27.667969 18.105469 L 27.976562 19.023438 L 27.210938 18.4375 L 26.472656 19.023438 L 26.769531 18.082031 L 26.003906 17.527344 L 26.953125 17.53125 Z M 27.222656 16.601562 "/>
<path style=" stroke:none;fill-rule:evenodd;fill:rgb(100%,100%,0%);fill-opacity:1;" d="M 28.132812 20.640625 L 28.417969 21.585938 L 29.347656 21.566406 L 28.578125 22.144531 L 28.882812 23.0625 L 28.121094 22.476562 L 27.378906 23.0625 L 27.679688 22.121094 L 26.914062 21.566406 L 27.863281 21.570312 Z M 28.132812 20.640625 "/>
<path style=" stroke:none;fill-rule:evenodd;fill:rgb(100%,100%,0%);fill-opacity:1;" d="M 21.460938 18.425781 C 21.460938 19.097656 20.742188 19.644531 19.847656 19.644531 C 18.957031 19.644531 18.234375 19.097656 18.234375 18.425781 C 18.234375 17.753906 18.957031 17.210938 19.847656 17.210938 C 20.742188 17.210938 21.460938 17.753906 21.460938 18.425781 Z M 21.460938 18.425781 "/>
<path style=" stroke:none;fill-rule:evenodd;fill:rgb(100%,100%,0%);fill-opacity:1;" d="M 19.382812 19.285156 L 20.304688 19.285156 L 20.304688 23.574219 L 19.382812 23.574219 Z M 19.382812 19.285156 "/>
<path style=" stroke:none;fill-rule:evenodd;fill:rgb(100%,100%,0%);fill-opacity:1;" d="M 27.9375 23.25 C 27.535156 24.101562 26.996094 24.40625 26.117188 24.382812 C 24.574219 24.417969 24.226562 23.285156 24.023438 22.785156 C 23.480469 23.503906 23.167969 23.789062 22.265625 23.773438 C 20.976562 23.800781 20.324219 23.066406 19.84375 21.679688 C 19.363281 23.058594 18.714844 23.792969 17.425781 23.761719 C 16.519531 23.78125 16.210938 23.496094 15.664062 22.777344 C 15.464844 23.277344 15.117188 24.410156 13.574219 24.371094 C 12.691406 24.394531 12.152344 24.09375 11.792969 23.230469 C 12.210938 24.4375 12.625 25.109375 13.914062 25.152344 C 15.078125 25.167969 15.613281 24.492188 15.863281 24.03125 C 16.703125 24.476562 16.792969 24.574219 17.980469 24.546875 C 18.871094 24.519531 19.382812 23.9375 19.839844 23.386719 C 20.300781 23.9375 20.8125 24.519531 21.699219 24.546875 C 22.890625 24.574219 22.976562 24.476562 23.816406 24.03125 C 24.070312 24.492188 24.601562 25.167969 25.769531 25.152344 C 27.054688 25.109375 27.472656 24.4375 27.9375 23.25 Z M 27.9375 23.25 "/>
<path style=" stroke:none;fill-rule:evenodd;fill:rgb(100%,100%,0%);fill-opacity:1;" d="M 15.953125 24.492188 L 16.371094 25.078125 L 17.179688 25.054688 L 16.554688 25.757812 L 15.335938 25.789062 L 14.957031 25.277344 L 15.660156 25.164062 L 15.957031 24.496094 "/>
<path style=" stroke:none;fill-rule:evenodd;fill:rgb(100%,100%,0%);fill-opacity:1;" d="M 23.722656 24.492188 L 23.300781 25.078125 L 22.496094 25.054688 L 23.117188 25.757812 L 24.335938 25.789062 L 24.71875 25.277344 L 24.011719 25.164062 L 23.71875 24.496094 "/>
<path style=" stroke:none;fill-rule:evenodd;fill:rgb(100%,100%,0%);fill-opacity:1;" d="M 18.832031 24.867188 C 18.832031 24.867188 19.382812 24.871094 19.382812 24.871094 L 19.851562 24.5 L 20.304688 24.867188 L 20.851562 24.875 L 20.359375 25.605469 L 19.320312 25.605469 Z M 18.832031 24.867188 "/>
<path style=" stroke:none;fill-rule:evenodd;fill:rgb(100%,100%,0%);fill-opacity:1;" d="M 25.832031 27.46875 C 23.679688 27.023438 22.242188 26.804688 19.84375 26.804688 C 17.441406 26.804688 16.003906 27.023438 13.863281 27.460938 L 13.859375 26.535156 C 16.003906 26.089844 17.441406 25.871094 19.84375 25.871094 C 22.242188 25.871094 23.679688 26.089844 25.824219 26.535156 Z M 25.832031 27.46875 "/>
<path style=" stroke:none;fill-rule:evenodd;fill:rgb(100%,100%,100%);fill-opacity:1;" d="M 20.6875 18.429688 C 20.6875 18.695312 20.3125 18.910156 19.847656 18.910156 C 19.378906 18.910156 19.003906 18.695312 19.003906 18.429688 C 19.003906 18.167969 19.378906 17.953125 19.847656 17.953125 C 20.3125 17.953125 20.6875 18.167969 20.6875 18.429688 Z M 20.6875 18.429688 "/>
</g>
</svg>
