<?xml version="1.0" encoding="UTF-8"?>
<svg xmlns="http://www.w3.org/2000/svg" xmlns:xlink="http://www.w3.org/1999/xlink" width="40px" height="40px" viewBox="0 0 40 40" version="1.1">
<g id="surface1">
<rect x="0" y="0" width="40" height="40" style="fill:rgb(0%,0%,40.000001%);fill-opacity:1;stroke:none;"/>
<path style=" stroke:none;fill-rule:nonzero;fill:rgb(100%,100%,100%);fill-opacity:1;" d="M 0 0 L 0 2.234375 L 35.527344 20 L 40 20 L 40 17.765625 L 4.472656 0 Z M 40 0 L 40 2.234375 L 4.472656 20 L 0 20 L 0 17.765625 L 35.527344 0 Z M 40 0 "/>
<path style=" stroke:none;fill-rule:nonzero;fill:rgb(100%,100%,100%);fill-opacity:1;" d="M 16.667969 0 L 16.667969 20 L 23.332031 20 L 23.332031 0 Z M 0 6.667969 L 0 13.332031 L 40 13.332031 L 40 6.667969 Z M 0 6.667969 "/>
<path style=" stroke:none;fill-rule:nonzero;fill:rgb(80.000001%,0%,0%);fill-opacity:1;" d="M 0 8 L 0 12 L 40 12 L 40 8 Z M 18 0 L 18 20 L 22 20 L 22 0 Z M 18 0 "/>
<path style=" stroke:none;fill-rule:nonzero;fill:rgb(80.000001%,0%,0%);fill-opacity:1;" d="M 0 20 L 13.332031 13.332031 L 16.316406 13.332031 L 2.980469 20 Z M 0 0 L 13.332031 6.667969 L 10.351562 6.667969 L 0 1.492188 Z M 23.683594 6.667969 L 37.019531 0 L 40 0 L 26.667969 6.667969 Z M 40 20 L 26.667969 13.332031 L 29.648438 13.332031 L 40 18.507812 Z M 40 20 "/>
<path style=" stroke:none;fill-rule:nonzero;fill:rgb(100%,100%,100%);fill-opacity:1;" d="M 27.820312 17.539062 L 28.234375 18.820312 L 29.582031 18.820312 L 28.492188 19.613281 L 28.910156 20.894531 L 27.820312 20.101562 L 26.730469 20.894531 L 27.144531 19.613281 L 26.054688 18.820312 L 27.402344 18.820312 Z M 27.820312 17.539062 "/>
<path style=" stroke:none;fill-rule:nonzero;fill:rgb(80.000001%,0%,0%);fill-opacity:1;" d="M 27.820312 17.933594 L 28.144531 18.941406 L 29.207031 18.941406 L 28.347656 19.566406 L 28.675781 20.574219 L 27.820312 19.949219 L 26.960938 20.574219 L 27.289062 19.566406 L 26.429688 18.941406 L 27.492188 18.941406 Z M 27.820312 17.933594 "/>
<path style=" stroke:none;fill-rule:nonzero;fill:rgb(100%,100%,100%);fill-opacity:1;" d="M 21.398438 23.996094 L 21.816406 25.277344 L 23.164062 25.277344 L 22.074219 26.070312 L 22.488281 27.351562 L 21.398438 26.558594 L 20.308594 27.351562 L 20.726562 26.070312 L 19.636719 25.277344 L 20.984375 25.277344 Z M 21.398438 23.996094 "/>
<path style=" stroke:none;fill-rule:nonzero;fill:rgb(80.000001%,0%,0%);fill-opacity:1;" d="M 21.398438 24.390625 L 21.726562 25.398438 L 22.789062 25.398438 L 21.929688 26.023438 L 22.257812 27.03125 L 21.398438 26.410156 L 20.542969 27.03125 L 20.871094 26.023438 L 20.011719 25.398438 L 21.070312 25.398438 Z M 21.398438 24.390625 "/>
<path style=" stroke:none;fill-rule:nonzero;fill:rgb(100%,100%,100%);fill-opacity:1;" d="M 33.320312 22.625 L 33.667969 23.695312 L 34.796875 23.695312 L 33.882812 24.359375 L 34.234375 25.429688 L 33.320312 24.769531 L 32.40625 25.429688 L 32.753906 24.359375 L 31.84375 23.695312 L 32.972656 23.695312 Z M 33.320312 22.625 "/>
<path style=" stroke:none;fill-rule:nonzero;fill:rgb(80.000001%,0%,0%);fill-opacity:1;" d="M 33.320312 22.957031 L 33.59375 23.800781 L 34.476562 23.800781 L 33.761719 24.320312 L 34.035156 25.160156 L 33.320312 24.640625 L 32.605469 25.160156 L 32.878906 24.320312 L 32.164062 23.800781 L 33.046875 23.800781 Z M 33.320312 22.957031 "/>
<path style=" stroke:none;fill-rule:evenodd;fill:rgb(100%,100%,100%);fill-opacity:1;" d="M 27.820312 34.019531 L 28.277344 35.429688 L 29.757812 35.429688 L 28.558594 36.300781 L 29.015625 37.710938 L 27.820312 36.839844 L 26.621094 37.710938 L 27.078125 36.300781 L 25.878906 35.429688 L 27.359375 35.429688 Z M 27.820312 34.019531 "/>
<path style=" stroke:none;fill-rule:evenodd;fill:rgb(80.000001%,0%,0%);fill-opacity:1;" d="M 27.820312 34.355469 L 28.199219 35.535156 L 29.4375 35.535156 L 28.4375 36.261719 L 28.820312 37.4375 L 27.820312 36.710938 L 26.816406 37.4375 L 27.199219 36.261719 L 26.199219 35.535156 L 27.4375 35.535156 Z M 27.820312 34.355469 "/>
</g>
</svg>
