<?xml version="1.0" encoding="UTF-8"?>
<svg xmlns="http://www.w3.org/2000/svg" xmlns:xlink="http://www.w3.org/1999/xlink" width="40px" height="40px" viewBox="0 0 40 40" version="1.1">
<g id="surface1">
<rect x="0" y="0" width="40" height="40" style="fill:rgb(90.588236%,0%,7.450981%);fill-opacity:1;stroke:none;"/>
<path style=" stroke:none;fill-rule:evenodd;fill:rgb(100%,100%,100%);fill-opacity:1;" d="M 30.140625 19.980469 C 30.140625 25.554688 25.625 30.070312 20.050781 30.070312 C 14.480469 30.070312 9.964844 25.554688 9.964844 19.980469 C 9.964844 14.410156 14.480469 9.894531 20.050781 9.894531 C 25.625 9.894531 30.140625 14.410156 30.140625 19.980469 Z M 30.140625 19.980469 "/>
<path style=" stroke:none;fill-rule:evenodd;fill:rgb(90.588236%,0%,7.450981%);fill-opacity:1;" d="M 20.050781 26.671875 C 16.359375 26.671875 13.363281 23.675781 13.363281 19.980469 C 13.363281 16.289062 16.359375 13.292969 20.050781 13.292969 C 20.976562 13.292969 22.027344 13.503906 22.738281 14.027344 C 17.847656 14.210938 16.609375 18.363281 16.609375 20.035156 C 16.609375 21.707031 17.402344 25.4375 22.738281 25.988281 C 22.132812 26.378906 20.976562 26.671875 20.050781 26.671875 Z M 20.050781 26.671875 "/>
<path style=" stroke:none;fill-rule:evenodd;fill:rgb(90.588236%,0%,7.450981%);fill-opacity:1;" d="M 25.945312 22.796875 L 22.90625 21.6875 L 20.898438 24.21875 L 21.015625 20.988281 L 17.984375 19.859375 L 21.09375 18.972656 L 21.230469 15.742188 L 23.035156 18.421875 L 26.148438 17.554688 L 24.15625 20.101562 Z M 25.945312 22.796875 "/>
</g>
</svg>
