<?xml version="1.0" encoding="UTF-8"?>
<svg xmlns="http://www.w3.org/2000/svg" xmlns:xlink="http://www.w3.org/1999/xlink" width="20px" height="20px" viewBox="0 0 20 20" version="1.1">
<g id="surface1">
<rect x="0" y="0" width="20" height="20" style="fill:rgb(95.294118%,9.803922%,18.82353%);fill-opacity:1;stroke:none;"/>
<path style=" stroke:none;fill-rule:evenodd;fill:rgb(100%,100%,100%);fill-opacity:1;" d="M 13.625 10.3125 C 13.625 13.070312 11.351562 15.304688 8.539062 15.304688 C 5.734375 15.304688 3.460938 13.070312 3.460938 10.3125 C 3.460938 7.554688 5.734375 5.316406 8.539062 5.316406 C 11.351562 5.316406 13.625 7.554688 13.625 10.3125 Z M 13.625 10.3125 "/>
<path style=" stroke:none;fill-rule:evenodd;fill:rgb(95.294118%,9.411765%,18.82353%);fill-opacity:1;" d="M 13.878906 10.3125 C 13.878906 12.515625 12.058594 14.304688 9.8125 14.304688 C 7.566406 14.304688 5.746094 12.515625 5.746094 10.3125 C 5.746094 8.101562 7.566406 6.3125 9.8125 6.3125 C 12.058594 6.3125 13.878906 8.101562 13.878906 10.3125 Z M 13.878906 10.3125 "/>
<path style=" stroke:none;fill-rule:evenodd;fill:rgb(100%,100%,100%);fill-opacity:1;" d="M 14.613281 7.976562 L 14.570312 9.824219 L 12.851562 10.292969 L 14.546875 10.898438 L 14.507812 12.589844 L 15.617188 11.265625 L 17.289062 11.847656 L 16.320312 10.429688 L 17.5 9.015625 L 15.6875 9.515625 Z M 14.613281 7.976562 "/>
</g>
</svg>
