<?xml version="1.0" encoding="UTF-8"?>
<svg xmlns="http://www.w3.org/2000/svg" xmlns:xlink="http://www.w3.org/1999/xlink" width="40px" height="40px" viewBox="0 0 40 40" version="1.1">
<g id="surface1">
<path style=" stroke:none;fill-rule:evenodd;fill:rgb(100%,100%,100%);fill-opacity:1;" d="M 0 -0.175781 L 20.140625 -0.175781 L 20.140625 9.828125 L 0 9.828125 Z M 0 -0.175781 "/>
<path style=" stroke:none;fill-rule:nonzero;fill:rgb(80.000001%,0%,0%);fill-opacity:1;" d="M 0 -0.175781 L 0 0.578125 L 4.804688 3.046875 L 6.613281 3.097656 Z M 0 -0.175781 "/>
<path style=" stroke:none;fill-rule:nonzero;fill:rgb(0%,0%,40.000001%);fill-opacity:1;" d="M 2.058594 -0.175781 L 7.882812 2.871094 L 7.882812 -0.175781 Z M 2.058594 -0.175781 "/>
<path style=" stroke:none;fill-rule:nonzero;fill:rgb(80.000001%,0%,0%);fill-opacity:1;" d="M 8.660156 -0.175781 L 8.660156 3.710938 L 0 3.710938 L 0 5.929688 L 8.660156 5.929688 L 8.660156 9.816406 L 11.328125 9.816406 L 11.328125 5.929688 L 19.988281 5.929688 L 19.988281 3.710938 L 11.328125 3.710938 L 11.328125 -0.175781 Z M 8.660156 -0.175781 "/>
<path style=" stroke:none;fill-rule:nonzero;fill:rgb(0%,0%,40.000001%);fill-opacity:1;" d="M 12.105469 -0.175781 L 12.105469 2.695312 L 17.804688 -0.152344 Z M 12.105469 -0.175781 "/>
<path style=" stroke:none;fill-rule:nonzero;fill:rgb(80.000001%,0%,0%);fill-opacity:1;" d="M 12.285156 3.007812 L 13.886719 2.992188 L 20.113281 -0.152344 L 18.460938 -0.125 Z M 12.285156 3.007812 "/>
<path style=" stroke:none;fill-rule:nonzero;fill:rgb(0%,0%,40.000001%);fill-opacity:1;" d="M 0 6.578125 L 0 8.707031 L 3.996094 6.601562 Z M 0 6.578125 "/>
<path style=" stroke:none;fill-rule:nonzero;fill:rgb(80.000001%,0%,0%);fill-opacity:1;" d="M 15.394531 6.667969 L 13.726562 6.652344 L 20.007812 9.78125 L 19.96875 9.066406 Z M 1.5625 9.835938 L 7.453125 6.742188 L 5.90625 6.75 L 0 9.828125 "/>
<path style=" stroke:none;fill-rule:nonzero;fill:rgb(0%,0%,40.000001%);fill-opacity:1;" d="M 20.074219 0.703125 L 15.316406 3.0625 L 20.007812 3.082031 L 20.007812 6.597656 L 16.011719 6.597656 L 19.972656 8.742188 L 20.03125 9.835938 L 17.914062 9.808594 L 12.125 6.964844 L 12.125 9.835938 L 7.90625 9.835938 L 7.90625 6.964844 L 2.472656 9.828125 L 0.0195312 9.835938 L 0.0195312 19.824219 L 39.996094 19.824219 L 39.996094 -0.15625 L 20.113281 -0.171875 M 0.0195312 0.953125 L 0 3.027344 L 4.207031 3.082031 Z M 0.0195312 0.953125 "/>
<path style=" stroke:none;fill-rule:evenodd;fill:rgb(0%,62.352943%,79.215688%);fill-opacity:1;" d="M 20 -0.175781 L 39.996094 -0.175781 L 39.996094 19.824219 L 20 19.824219 Z M 20 -0.175781 "/>
<path style=" stroke:none;fill-rule:evenodd;fill:rgb(0%,62.352943%,79.215688%);fill-opacity:1;" d="M 0 9.824219 L 21.105469 9.824219 L 21.105469 19.824219 L 0 19.824219 Z M 0 9.824219 "/>
<path style=" stroke:none;fill-rule:evenodd;fill:rgb(0%,62.352943%,79.215688%);fill-opacity:1;" d="M 20.398438 19.425781 L 39.996094 19.425781 L 39.996094 40.222656 L 20.398438 40.222656 Z M 20.398438 19.425781 "/>
<path style=" stroke:none;fill-rule:evenodd;fill:rgb(0%,62.352943%,79.215688%);fill-opacity:1;" d="M 0 19.203125 L 21.105469 19.203125 L 21.105469 40.226562 L 0 40.226562 Z M 0 19.203125 "/>
<path style=" stroke:none;fill-rule:evenodd;fill:rgb(100%,95.686275%,5.098039%);fill-opacity:1;" d="M 37.347656 17.679688 L 37.898438 19.273438 L 36.460938 18.289062 L 35.019531 19.273438 L 35.570312 17.679688 L 34.128906 16.695312 L 35.910156 16.695312 L 36.460938 15.101562 L 37.007812 16.695312 L 38.789062 16.695312 Z M 37.347656 17.679688 "/>
<path style=" stroke:none;fill-rule:evenodd;fill:rgb(100%,95.686275%,5.098039%);fill-opacity:1;" d="M 32.875 30.394531 L 33.429688 31.988281 L 31.988281 31.003906 L 30.546875 31.988281 L 31.097656 30.394531 L 29.65625 29.410156 L 31.4375 29.410156 L 31.988281 27.816406 L 32.539062 29.410156 L 34.320312 29.410156 Z M 32.875 30.394531 "/>
<path style=" stroke:none;fill-rule:evenodd;fill:rgb(100%,95.686275%,5.098039%);fill-opacity:1;" d="M 37.347656 27.515625 L 37.898438 29.109375 L 36.460938 28.125 L 35.019531 29.109375 L 35.570312 27.515625 L 34.128906 26.53125 L 35.910156 26.535156 L 36.460938 24.9375 L 37.007812 26.535156 L 38.789062 26.53125 Z M 37.347656 27.515625 "/>
<path style=" stroke:none;fill-rule:evenodd;fill:rgb(100%,95.686275%,5.098039%);fill-opacity:1;" d="M 18.121094 36.738281 L 18.671875 38.332031 L 17.234375 37.347656 L 15.792969 38.332031 L 16.34375 36.738281 L 14.902344 35.753906 L 16.683594 35.753906 L 17.234375 34.160156 L 17.78125 35.753906 L 19.5625 35.753906 Z M 18.121094 36.738281 "/>
<path style=" stroke:none;fill-rule:evenodd;fill:rgb(100%,95.686275%,5.098039%);fill-opacity:1;" d="M 21.484375 29.828125 L 20.933594 28.234375 L 22.375 29.222656 L 23.816406 28.234375 L 23.261719 29.828125 L 24.703125 30.816406 L 22.921875 30.8125 L 22.375 32.40625 L 21.824219 30.8125 L 20.042969 30.8125 Z M 21.484375 29.828125 "/>
<path style=" stroke:none;fill-rule:evenodd;fill:rgb(100%,95.686275%,5.098039%);fill-opacity:1;" d="M 26.738281 22.5625 L 26.1875 20.96875 L 27.628906 21.957031 L 29.070312 20.96875 L 28.515625 22.5625 L 29.957031 23.550781 L 28.175781 23.546875 L 27.628906 25.140625 L 27.078125 23.546875 L 25.296875 23.546875 Z M 26.738281 22.5625 "/>
<path style=" stroke:none;fill-rule:evenodd;fill:rgb(100%,95.686275%,5.098039%);fill-opacity:1;" d="M 31.15625 21.054688 L 30.601562 19.460938 L 32.042969 20.445312 L 33.484375 19.460938 L 32.933594 21.054688 L 34.375 22.039062 L 32.59375 22.039062 L 32.042969 23.632812 L 31.496094 22.039062 L 29.714844 22.039062 Z M 31.15625 21.054688 "/>
<path style=" stroke:none;fill-rule:evenodd;fill:rgb(100%,95.686275%,5.098039%);fill-opacity:1;" d="M 26.738281 33.628906 L 26.1875 32.035156 L 27.628906 33.023438 L 29.070312 32.035156 L 28.515625 33.628906 L 29.957031 34.613281 L 28.175781 34.613281 L 27.628906 36.207031 L 27.078125 34.613281 L 25.296875 34.613281 Z M 26.738281 33.628906 "/>
<path style=" stroke:none;fill-rule:evenodd;fill:rgb(100%,95.686275%,5.098039%);fill-opacity:1;" d="M 21.484375 34.917969 L 20.933594 33.320312 L 22.375 34.308594 L 23.816406 33.320312 L 23.261719 34.917969 L 24.703125 35.902344 L 22.921875 35.898438 L 22.375 37.496094 L 21.824219 35.898438 L 20.042969 35.898438 Z M 21.484375 34.917969 "/>
</g>
</svg>
