<?xml version="1.0" encoding="UTF-8"?>
<svg xmlns="http://www.w3.org/2000/svg" xmlns:xlink="http://www.w3.org/1999/xlink" width="40px" height="40px" viewBox="0 0 40 40" version="1.1">
<g id="surface1">
<rect x="0" y="0" width="40" height="40" style="fill:rgb(87.058824%,12.941177%,6.27451%);fill-opacity:1;stroke:none;"/>
<path style=" stroke:none;fill-rule:evenodd;fill:rgb(3.137255%,22.352941%,61.176473%);fill-opacity:1;" d="M 0 0 L 30.132812 0 L 30.132812 20 L 0 20 Z M 0 0 "/>
<path style=" stroke:none;fill-rule:evenodd;fill:rgb(100%,100%,100%);fill-opacity:1;" d="M 22.039062 13.949219 L 18.339844 13.1875 L 19.128906 16.882812 L 16.304688 14.375 L 15.140625 17.964844 L 13.949219 14.382812 L 11.148438 16.910156 L 11.90625 13.214844 L 8.214844 14 L 10.722656 11.179688 L 7.128906 10.015625 L 10.714844 8.824219 L 8.183594 6.019531 L 11.882812 6.777344 L 11.097656 3.085938 L 13.917969 5.59375 L 15.082031 2.003906 L 16.273438 5.585938 L 19.078125 3.058594 L 18.316406 6.753906 L 22.007812 5.96875 L 19.503906 8.789062 L 23.09375 9.953125 L 19.511719 11.144531 Z M 22.039062 13.949219 "/>
<path style=" stroke:none;fill-rule:evenodd;fill:rgb(0%,32.549021%,52.941179%);fill-opacity:1;" d="M 18.628906 13.664062 L 17.464844 14.285156 L 16.324219 14.957031 L 15.003906 14.914062 L 13.679688 14.925781 L 12.558594 14.230469 L 11.40625 13.582031 L 10.785156 12.417969 L 10.109375 11.285156 L 10.15625 9.964844 L 10.140625 8.648438 L 10.839844 7.527344 L 11.488281 6.378906 L 12.65625 5.757812 L 13.792969 5.085938 L 15.117188 5.132812 L 16.4375 5.117188 L 17.5625 5.816406 L 18.714844 6.460938 L 19.335938 7.625 L 20.007812 8.757812 L 19.964844 10.078125 L 19.976562 11.398438 L 19.277344 12.515625 Z M 18.628906 13.664062 "/>
<path style=" stroke:none;fill-rule:evenodd;fill:rgb(100%,100%,100%);fill-opacity:1;" d="M 19.113281 10.023438 C 19.113281 12.261719 17.296875 14.074219 15.058594 14.074219 C 12.824219 14.074219 11.007812 12.261719 11.007812 10.023438 C 11.007812 7.785156 12.824219 5.96875 15.058594 5.96875 C 17.296875 5.96875 19.113281 7.785156 19.113281 10.023438 Z M 19.113281 10.023438 "/>
</g>
</svg>
