<?xml version="1.0" encoding="UTF-8"?>
<svg xmlns="http://www.w3.org/2000/svg" xmlns:xlink="http://www.w3.org/1999/xlink" width="40px" height="40px" viewBox="0 0 40 40" version="1.1">
<g id="surface1">
<path style=" stroke:none;fill-rule:evenodd;fill:rgb(100%,90.588236%,0%);fill-opacity:1;" d="M -10 26.667969 L 50 26.667969 L 50 33.332031 L -10 33.332031 Z M -10 26.667969 "/>
<path style=" stroke:none;fill-rule:evenodd;fill:rgb(0%,0%,0%);fill-opacity:1;" d="M -10 20 L 50 20 L 50 26.664062 L -10 26.664062 Z M -10 20 "/>
<path style=" stroke:none;fill-rule:evenodd;fill:rgb(87.058824%,22.352941%,3.137255%);fill-opacity:1;" d="M -10 13.335938 L 50 13.335938 L 50 20 L -10 20 Z M -10 13.335938 "/>
<path style=" stroke:none;fill-rule:evenodd;fill:rgb(100%,90.588236%,0%);fill-opacity:1;" d="M -10 6.667969 L 50 6.667969 L 50 13.332031 L -10 13.332031 Z M -10 6.667969 "/>
<path style=" stroke:none;fill-rule:evenodd;fill:rgb(0%,0%,0%);fill-opacity:1;" d="M -10 0 L 50 0 L 50 6.664062 L -10 6.664062 Z M -10 0 "/>
<path style="fill-rule:evenodd;fill:rgb(100%,99.215686%,100%);fill-opacity:1;stroke-width:1.25;stroke-linecap:butt;stroke-linejoin:miter;stroke:rgb(0%,0%,0%);stroke-opacity:1;stroke-miterlimit:4;" d="M 505.003862 232.321899 C 505.003862 295.803241 453.49741 347.309694 390.016067 347.309694 C 326.462587 347.309694 275.028273 295.803241 275.028273 232.321899 C 275.028273 168.768419 326.462587 117.334104 390.016067 117.334104 C 453.49741 117.334104 505.003862 168.768419 505.003862 232.321899 Z M 505.003862 232.321899 " transform="matrix(0.0541498,0,0,0.0541498,-1.11928,7.419823)"/>
<path style="fill-rule:evenodd;fill:rgb(87.058824%,19.215687%,3.137255%);fill-opacity:1;stroke-width:1.25;stroke-linecap:butt;stroke-linejoin:miter;stroke:rgb(0%,0%,0%);stroke-opacity:1;stroke-miterlimit:4;" d="M 374.745321 141.669399 L 367.24298 127.891062 C 370.128496 125.005547 374.961734 122.769272 382.680488 122.769272 C 382.680488 123.346375 381.886972 137.846091 381.886972 137.846091 Z M 374.745321 141.669399 " transform="matrix(0.0541498,0,0,0.0541498,-1.390029,7.555197)"/>
<path style="fill-rule:evenodd;fill:rgb(100%,90.588236%,0%);fill-opacity:1;stroke-width:1.25;stroke-linecap:butt;stroke-linejoin:miter;stroke:rgb(0%,0%,0%);stroke-opacity:1;stroke-miterlimit:4;" d="M 381.886972 137.990367 L 382.96904 122.769272 C 382.96904 122.769272 398.406548 121.903617 406.774543 131.930784 C 406.918819 131.858646 398.550824 143.761398 398.550824 143.761398 Z M 381.886972 137.990367 " transform="matrix(0.0541498,0,0,0.0541498,-1.390029,7.555197)"/>
<path style="fill-rule:evenodd;fill:rgb(87.058824%,19.215687%,3.137255%);fill-opacity:1;stroke-width:1.25;stroke-linecap:butt;stroke-linejoin:miter;stroke:rgb(0%,0%,0%);stroke-opacity:1;stroke-miterlimit:4;" d="M 398.839376 143.617122 L 406.413854 131.858646 C 411.535644 137.19685 413.627643 141.020158 414.42116 146.791189 C 414.493297 146.863327 402.374132 149.748843 402.374132 149.676705 C 402.374132 149.532429 398.911513 143.761398 398.839376 143.617122 Z M 398.839376 143.617122 " transform="matrix(0.0541498,0,0,0.0541498,-1.390029,7.555197)"/>
<path style="fill-rule:evenodd;fill:rgb(0%,0%,0%);fill-opacity:1;stroke-width:1.25;stroke-linecap:round;stroke-linejoin:round;stroke:rgb(0%,0%,0%);stroke-opacity:1;stroke-miterlimit:4;" d="M 378.496491 338.245146 C 378.496491 338.245146 392.779793 321.869845 420.55288 325.404602 C 416.368883 318.62364 402.879097 319.345019 402.879097 319.345019 C 402.879097 319.345019 398.6951 287.53221 401.941305 286.017315 C 405.259648 284.430281 419.110122 286.089453 419.110122 286.089453 C 420.91357 286.089453 424.087637 281.111938 421.634948 278.010009 C 419.110122 274.835942 411.752058 262.788914 414.781849 260.408364 C 417.81164 258.099952 434.186941 261.778984 434.186941 261.778984 L 387.946554 202.553777 C 387.946554 202.553777 383.257592 180.26317 392.635517 169.514624 C 404.033304 160.136699 402.879097 149.893118 402.44627 150.037394 C 400.931374 139.721676 385.205315 132.219336 374.601045 141.813675 C 368.325049 149.388153 372.509046 155.159184 372.509046 155.159184 C 372.509046 155.159184 355.98947 159.559595 355.340229 162.445111 C 354.690988 165.330627 373.951804 161.940146 373.951804 161.940146 L 372.076219 175.213517 C 372.076219 175.213517 334.636654 209.262601 363.347534 238.69486 C 363.563948 238.550584 364.213189 237.396378 364.213189 237.396378 C 364.213189 237.396378 374.312493 249.804094 384.916763 252.617472 C 394.871792 262.788914 393.933999 261.201881 393.933999 261.201881 C 393.933999 261.201881 395.95386 277.360768 394.078275 280.462697 C 391.625587 279.66918 366.23305 278.803526 362.409742 280.246284 C 359.019261 281.256214 345.890165 280.606973 349.13637 301.959788 C 351.661196 296.188757 353.897471 291.066967 353.897471 291.066967 C 353.897471 291.066967 353.464643 298.785721 356.638711 301.599099 C 356.133745 293.447517 359.668502 287.965038 359.668502 287.965038 C 359.668502 287.965038 360.317743 296.837998 362.265466 298.13648 C 364.213189 299.5071 364.213189 283.78104 375.10601 285.079522 C 385.998831 286.378004 393.861861 286.017315 393.861861 286.017315 C 393.861861 286.017315 397.468756 316.748055 396.314549 319.633571 C 388.45152 317.830124 369.767806 320.427088 368.541462 325.11605 C 379.578559 324.466809 384.700349 325.765291 384.700349 325.765291 C 384.700349 325.765291 375.755251 333.628321 378.496491 338.245146 Z M 378.496491 338.245146 " transform="matrix(0.0541498,0,0,0.0541498,-1.390029,7.555197)"/>
<path style="fill-rule:evenodd;fill:rgb(61.176473%,65.098041%,61.176473%);fill-opacity:1;stroke-width:1.25;stroke-linecap:round;stroke-linejoin:round;stroke:rgb(61.176473%,65.098041%,61.176473%);stroke-opacity:1;stroke-miterlimit:4;" d="M 382.896902 170.308141 C 382.896902 170.308141 355.62878 200.317503 367.387256 223.329489 C 368.036497 220.155422 367.747945 218.135561 368.180773 218.207699 C 367.531532 217.84701 371.571254 221.021077 371.210564 220.371836 C 371.35484 218.712664 369.98422 215.177908 369.98422 215.177908 C 371.210564 215.466459 372.436908 215.755011 373.73539 216.1157 C 373.014011 214.74508 372.292632 213.446598 371.571254 212.075979 C 373.302563 212.292392 375.033872 212.508806 376.765182 212.72522 C 376.765182 212.72522 374.961734 207.819843 375.538837 207.819843 C 376.188078 207.819843 379.867111 208.108395 379.867111 208.108395 C 372.076219 194.185782 379.434283 182.64372 382.896902 170.308141 Z M 382.896902 170.308141 " transform="matrix(0.0541498,0,0,0.0541498,-1.390029,7.555197)"/>
<path style="fill-rule:evenodd;fill:rgb(61.176473%,65.098041%,61.176473%);fill-opacity:1;stroke-width:1.25;stroke-linecap:butt;stroke-linejoin:miter;stroke:rgb(61.176473%,65.098041%,61.176473%);stroke-opacity:1;stroke-miterlimit:4;" d="M 392.419103 144.554915 C 392.419103 144.554915 393.861861 154.870633 388.162968 157.900424 C 387.297313 158.549665 383.762557 159.703871 384.267522 161.79587 C 384.916763 164.681386 386.503797 164.17642 388.740071 163.671455 C 394.58324 162.589387 401.43634 150.037394 392.419103 144.554915 Z M 392.419103 144.554915 " transform="matrix(0.0541498,0,0,0.0541498,-1.390029,7.555197)"/>
<path style=" stroke:none;fill-rule:evenodd;fill:rgb(100%,100%,100%);fill-opacity:1;" d="M 19.3125 15.863281 C 19.3125 15.929688 19.257812 15.984375 19.191406 15.984375 C 19.125 15.984375 19.070312 15.929688 19.070312 15.863281 C 19.070312 15.796875 19.125 15.742188 19.191406 15.742188 C 19.257812 15.742188 19.3125 15.796875 19.3125 15.863281 Z M 19.3125 15.863281 "/>
<path style="fill-rule:evenodd;fill:rgb(87.058824%,19.215687%,3.137255%);fill-opacity:1;stroke-width:1.25;stroke-linecap:butt;stroke-linejoin:miter;stroke:rgb(0%,0%,0%);stroke-opacity:1;stroke-miterlimit:4;" d="M 373.518977 162.084422 C 372.076219 163.238628 364.50174 171.101658 371.931943 173.987173 C 379.650697 171.895174 377.558698 170.452417 379.290008 168.793245 C 379.362146 165.258489 375.4667 164.320696 373.518977 162.084422 Z M 373.518977 162.084422 " transform="matrix(0.0541498,0,0,0.0541498,-1.390029,7.555197)"/>
<path style="fill-rule:evenodd;fill:rgb(61.176473%,65.098041%,61.176473%);fill-opacity:1;stroke-width:1.25;stroke-linecap:round;stroke-linejoin:round;stroke:rgb(61.176473%,65.098041%,61.176473%);stroke-opacity:1;stroke-miterlimit:4;" d="M 390.038553 236.314309 C 389.605726 238.045619 387.946554 244.321615 390.327105 249.154853 C 396.819515 246.413614 399.849306 247.20713 402.085581 248.649888 C 396.675239 244.321615 394.58324 242.518168 390.038553 236.314309 Z M 390.038553 236.314309 " transform="matrix(0.0541498,0,0,0.0541498,-1.390029,7.555197)"/>
<path style="fill-rule:evenodd;fill:rgb(100%,100%,100%);fill-opacity:1;stroke-width:1.25;stroke-linecap:round;stroke-linejoin:round;stroke:rgb(100%,100%,100%);stroke-opacity:1;stroke-miterlimit:4;" d="M 401.292064 266.107257 L 401.724891 280.751249 C 401.724891 280.751249 406.774543 281.689041 409.155094 280.751249 C 411.535644 279.813456 409.010818 270.507669 401.292064 266.107257 Z M 401.292064 266.107257 " transform="matrix(0.0541498,0,0,0.0541498,-1.390029,7.555197)"/>
<path style="fill-rule:evenodd;fill:rgb(61.176473%,65.098041%,61.176473%);fill-opacity:1;stroke-width:1.25;stroke-linecap:butt;stroke-linejoin:miter;stroke:rgb(0%,0%,0%);stroke-opacity:1;stroke-miterlimit:4;" d="M 438.370939 267.910705 C 438.370939 267.910705 428.920875 245.115132 404.82682 239.344101 C 380.732765 233.573069 383.906833 207.891981 385.854556 206.377085 C 386.864486 204.140811 387.658003 200.75033 394.58324 203.996535 C 401.580615 207.24274 433.5377 223.401627 438.082387 224.195144 C 442.699212 224.916523 438.731628 268.41567 438.370939 267.910705 Z M 438.370939 267.910705 " transform="matrix(0.0541498,0,0,0.0541498,-1.390029,7.555197)"/>
<path style="fill-rule:evenodd;fill:rgb(87.058824%,19.215687%,3.137255%);fill-opacity:1;stroke-width:1.25;stroke-linecap:butt;stroke-linejoin:round;stroke:rgb(0%,0%,0%);stroke-opacity:1;stroke-miterlimit:4;" d="M 415.43109 239.199825 C 415.070401 239.488376 447.676726 258.460641 437.865973 274.835942 C 447.171761 268.704221 444.14197 257.955676 444.14197 257.955676 C 444.14197 257.955676 451.716448 277.721457 433.249149 287.460072 C 435.196872 289.119244 436.495354 288.758554 436.495354 288.758554 L 433.393424 291.860484 C 433.393424 291.860484 431.950667 294.241034 444.358383 288.181451 C 440.967903 290.994829 440.751489 292.942552 440.751489 292.942552 C 440.751489 292.942552 441.617144 295.539516 449.768725 288.470003 C 443.204177 295.539516 441.761419 299.218548 441.761419 299.074273 C 459.435202 297.487239 497.956835 239.993342 429.570116 222.9688 C 433.249149 226.792108 432.744183 226.287143 432.744183 226.287143 Z M 415.43109 239.199825 " transform="matrix(0.0541498,0,0,0.0541498,-1.390029,7.555197)"/>
<path style="fill-rule:evenodd;fill:rgb(100%,100%,100%);fill-opacity:1;stroke-width:1.25;stroke-linecap:round;stroke-linejoin:round;stroke:rgb(0%,0%,0%);stroke-opacity:1;stroke-miterlimit:4;" d="M 416.873848 233.573069 C 421.346397 236.747137 422.93343 237.757067 423.438396 239.344101 C 419.398674 238.478446 415.719642 238.69486 415.719642 238.69486 C 415.719642 238.69486 406.918819 230.326864 405.331786 229.677623 C 404.177579 229.677623 397.396618 225.34935 397.396618 225.34935 C 393.933999 223.618041 390.83207 211.859565 403.384063 215.250046 C 416.368883 221.453904 418.17233 221.958869 418.17233 221.958869 C 423.366258 223.545903 428.488048 225.205074 433.609838 226.792108 C 436.639629 230.110451 439.597283 233.428794 442.554936 236.747137 C 442.554936 236.747137 426.684601 228.884107 424.736878 228.739831 C 429.065151 232.274587 431.517839 237.107826 431.517839 237.107826 C 426.540325 235.665068 422.139914 234.366586 416.873848 233.573069 Z M 416.873848 233.573069 " transform="matrix(0.0541498,0,0,0.0541498,-1.390029,7.555197)"/>
<path style="fill:none;stroke-width:1.25;stroke-linecap:round;stroke-linejoin:miter;stroke:rgb(100%,100%,100%);stroke-opacity:1;stroke-miterlimit:4;" d="M 355.195953 163.238628 C 355.195953 163.238628 370.417047 159.559595 372.220495 160.136699 " transform="matrix(0.0541498,0,0,0.0541498,-1.390029,7.555197)"/>
<path style=" stroke:none;fill-rule:evenodd;fill:rgb(87.058824%,22.352941%,3.137255%);fill-opacity:1;" d="M -10 33.332031 L 50 33.332031 L 50 40 L -10 40 Z M -10 33.332031 "/>
</g>
</svg>
