<?xml version="1.0" encoding="UTF-8"?>
<svg xmlns="http://www.w3.org/2000/svg" xmlns:xlink="http://www.w3.org/1999/xlink" width="40px" height="40px" viewBox="0 0 40 40" version="1.1">
<g id="surface1">
<path style=" stroke:none;fill-rule:evenodd;fill:rgb(74.117649%,23.921569%,26.666668%);fill-opacity:1;" d="M 0 0 L 76 0 L 76 3.078125 L 0 3.078125 Z M 0 0 "/>
<path style=" stroke:none;fill-rule:evenodd;fill:rgb(74.117649%,23.921569%,26.666668%);fill-opacity:1;" d="M 0 6.152344 L 76 6.152344 L 76 9.230469 L 0 9.230469 Z M 0 6.152344 "/>
<path style=" stroke:none;fill-rule:evenodd;fill:rgb(74.117649%,23.921569%,26.666668%);fill-opacity:1;" d="M 0 12.308594 L 76 12.308594 L 76 15.386719 L 0 15.386719 Z M 0 12.308594 "/>
<path style=" stroke:none;fill-rule:evenodd;fill:rgb(74.117649%,23.921569%,26.666668%);fill-opacity:1;" d="M 0 18.460938 L 76 18.460938 L 76 21.539062 L 0 21.539062 Z M 0 18.460938 "/>
<path style=" stroke:none;fill-rule:evenodd;fill:rgb(74.117649%,23.921569%,26.666668%);fill-opacity:1;" d="M 0 24.617188 L 76 24.617188 L 76 27.691406 L 0 27.691406 Z M 0 24.617188 "/>
<path style=" stroke:none;fill-rule:evenodd;fill:rgb(74.117649%,23.921569%,26.666668%);fill-opacity:1;" d="M 0 30.769531 L 76 30.769531 L 76 33.847656 L 0 33.847656 Z M 0 30.769531 "/>
<path style=" stroke:none;fill-rule:evenodd;fill:rgb(74.117649%,23.921569%,26.666668%);fill-opacity:1;" d="M 0 36.921875 L 76 36.921875 L 76 40 L 0 40 Z M 0 36.921875 "/>
<path style=" stroke:none;fill-rule:evenodd;fill:rgb(100%,100%,100%);fill-opacity:1;" d="M 0 3.078125 L 76 3.078125 L 76 6.152344 L 0 6.152344 Z M 0 3.078125 "/>
<path style=" stroke:none;fill-rule:evenodd;fill:rgb(100%,100%,100%);fill-opacity:1;" d="M 0 9.230469 L 76 9.230469 L 76 12.308594 L 0 12.308594 Z M 0 9.230469 "/>
<path style=" stroke:none;fill-rule:evenodd;fill:rgb(100%,100%,100%);fill-opacity:1;" d="M 0 15.386719 L 76 15.386719 L 76 18.460938 L 0 18.460938 Z M 0 15.386719 "/>
<path style=" stroke:none;fill-rule:evenodd;fill:rgb(100%,100%,100%);fill-opacity:1;" d="M 0 21.539062 L 76 21.539062 L 76 24.617188 L 0 24.617188 Z M 0 21.539062 "/>
<path style=" stroke:none;fill-rule:evenodd;fill:rgb(100%,100%,100%);fill-opacity:1;" d="M 0 27.691406 L 76 27.691406 L 76 30.769531 L 0 30.769531 Z M 0 27.691406 "/>
<path style=" stroke:none;fill-rule:evenodd;fill:rgb(100%,100%,100%);fill-opacity:1;" d="M 0 33.847656 L 76 33.847656 L 76 36.921875 L 0 36.921875 Z M 0 33.847656 "/>
<path style=" stroke:none;fill-rule:evenodd;fill:rgb(9.803922%,18.431373%,36.470589%);fill-opacity:1;" d="M 0 0 L 30.398438 0 L 30.398438 21.539062 L 0 21.539062 Z M 0 0 "/>
<path style=" stroke:none;fill-rule:evenodd;fill:rgb(100%,100%,100%);fill-opacity:1;" d="M 2.535156 0.921875 L 2.808594 1.773438 L 3.703125 1.773438 L 2.980469 2.300781 L 3.257812 3.152344 L 2.535156 2.625 L 1.808594 3.152344 L 2.085938 2.300781 L 1.363281 1.773438 L 2.257812 1.773438 Z M 2.535156 0.921875 "/>
<path style=" stroke:none;fill-rule:evenodd;fill:rgb(100%,100%,100%);fill-opacity:1;" d="M 7.601562 0.921875 L 7.875 1.773438 L 8.773438 1.773438 L 8.046875 2.300781 L 8.324219 3.152344 L 7.601562 2.625 L 6.875 3.152344 L 7.152344 2.300781 L 6.429688 1.773438 L 7.324219 1.773438 Z M 7.601562 0.921875 "/>
<path style=" stroke:none;fill-rule:evenodd;fill:rgb(100%,100%,100%);fill-opacity:1;" d="M 12.667969 0.921875 L 12.945312 1.773438 L 13.839844 1.773438 L 13.113281 2.300781 L 13.390625 3.152344 L 12.667969 2.625 L 11.941406 3.152344 L 12.21875 2.300781 L 11.496094 1.773438 L 12.390625 1.773438 Z M 12.667969 0.921875 "/>
<path style=" stroke:none;fill-rule:evenodd;fill:rgb(100%,100%,100%);fill-opacity:1;" d="M 17.734375 0.921875 L 18.011719 1.773438 L 18.90625 1.773438 L 18.179688 2.300781 L 18.457031 3.152344 L 17.734375 2.625 L 17.007812 3.152344 L 17.285156 2.300781 L 16.5625 1.773438 L 17.457031 1.773438 Z M 17.734375 0.921875 "/>
<path style=" stroke:none;fill-rule:evenodd;fill:rgb(100%,100%,100%);fill-opacity:1;" d="M 22.800781 0.921875 L 23.078125 1.773438 L 23.972656 1.773438 L 23.246094 2.300781 L 23.523438 3.152344 L 22.800781 2.625 L 22.074219 3.152344 L 22.351562 2.300781 L 21.628906 1.773438 L 22.523438 1.773438 Z M 22.800781 0.921875 "/>
<path style=" stroke:none;fill-rule:evenodd;fill:rgb(100%,100%,100%);fill-opacity:1;" d="M 27.867188 0.921875 L 28.144531 1.773438 L 29.039062 1.773438 L 28.316406 2.300781 L 28.589844 3.152344 L 27.867188 2.625 L 27.144531 3.152344 L 27.417969 2.300781 L 26.695312 1.773438 L 27.589844 1.773438 Z M 27.867188 0.921875 "/>
<path style=" stroke:none;fill-rule:evenodd;fill:rgb(100%,100%,100%);fill-opacity:1;" d="M 5.066406 3.074219 L 5.34375 3.925781 L 6.238281 3.925781 L 5.515625 4.453125 L 5.789062 5.304688 L 5.066406 4.777344 L 4.34375 5.304688 L 4.621094 4.453125 L 3.894531 3.925781 L 4.789062 3.925781 Z M 5.066406 3.074219 "/>
<path style=" stroke:none;fill-rule:evenodd;fill:rgb(100%,100%,100%);fill-opacity:1;" d="M 10.132812 3.074219 L 10.410156 3.925781 L 11.304688 3.925781 L 10.582031 4.453125 L 10.859375 5.304688 L 10.132812 4.777344 L 9.410156 5.304688 L 9.6875 4.453125 L 8.960938 3.925781 L 9.855469 3.925781 Z M 10.132812 3.074219 "/>
<path style=" stroke:none;fill-rule:evenodd;fill:rgb(100%,100%,100%);fill-opacity:1;" d="M 15.199219 3.074219 L 15.476562 3.925781 L 16.371094 3.925781 L 15.648438 4.453125 L 15.925781 5.304688 L 15.199219 4.777344 L 14.476562 5.304688 L 14.753906 4.453125 L 14.027344 3.925781 L 14.921875 3.925781 Z M 15.199219 3.074219 "/>
<path style=" stroke:none;fill-rule:evenodd;fill:rgb(100%,100%,100%);fill-opacity:1;" d="M 20.265625 3.074219 L 20.542969 3.925781 L 21.4375 3.925781 L 20.714844 4.453125 L 20.992188 5.304688 L 20.265625 4.777344 L 19.542969 5.304688 L 19.820312 4.453125 L 19.09375 3.925781 L 19.992188 3.925781 Z M 20.265625 3.074219 "/>
<path style=" stroke:none;fill-rule:evenodd;fill:rgb(100%,100%,100%);fill-opacity:1;" d="M 25.332031 3.074219 L 25.609375 3.925781 L 26.503906 3.925781 L 25.78125 4.453125 L 26.058594 5.304688 L 25.332031 4.777344 L 24.609375 5.304688 L 24.886719 4.453125 L 24.160156 3.925781 L 25.058594 3.925781 Z M 25.332031 3.074219 "/>
<path style=" stroke:none;fill-rule:evenodd;fill:rgb(100%,100%,100%);fill-opacity:1;" d="M 2.535156 5.230469 L 2.808594 6.082031 L 3.703125 6.082031 L 2.980469 6.605469 L 3.257812 7.457031 L 2.535156 6.933594 L 1.808594 7.457031 L 2.085938 6.605469 L 1.363281 6.082031 L 2.257812 6.082031 Z M 2.535156 5.230469 "/>
<path style=" stroke:none;fill-rule:evenodd;fill:rgb(100%,100%,100%);fill-opacity:1;" d="M 7.601562 5.230469 L 7.875 6.082031 L 8.773438 6.082031 L 8.046875 6.605469 L 8.324219 7.457031 L 7.601562 6.933594 L 6.875 7.457031 L 7.152344 6.605469 L 6.429688 6.082031 L 7.324219 6.082031 Z M 7.601562 5.230469 "/>
<path style=" stroke:none;fill-rule:evenodd;fill:rgb(100%,100%,100%);fill-opacity:1;" d="M 12.667969 5.230469 L 12.945312 6.082031 L 13.839844 6.082031 L 13.113281 6.605469 L 13.390625 7.457031 L 12.667969 6.933594 L 11.941406 7.457031 L 12.21875 6.605469 L 11.496094 6.082031 L 12.390625 6.082031 Z M 12.667969 5.230469 "/>
<path style=" stroke:none;fill-rule:evenodd;fill:rgb(100%,100%,100%);fill-opacity:1;" d="M 17.734375 5.230469 L 18.011719 6.082031 L 18.90625 6.082031 L 18.179688 6.605469 L 18.457031 7.457031 L 17.734375 6.933594 L 17.007812 7.457031 L 17.285156 6.605469 L 16.5625 6.082031 L 17.457031 6.082031 Z M 17.734375 5.230469 "/>
<path style=" stroke:none;fill-rule:evenodd;fill:rgb(100%,100%,100%);fill-opacity:1;" d="M 22.800781 5.230469 L 23.078125 6.082031 L 23.972656 6.082031 L 23.246094 6.605469 L 23.523438 7.457031 L 22.800781 6.933594 L 22.074219 7.457031 L 22.351562 6.605469 L 21.628906 6.082031 L 22.523438 6.082031 Z M 22.800781 5.230469 "/>
<path style=" stroke:none;fill-rule:evenodd;fill:rgb(100%,100%,100%);fill-opacity:1;" d="M 27.867188 5.230469 L 28.144531 6.082031 L 29.039062 6.082031 L 28.316406 6.605469 L 28.589844 7.457031 L 27.867188 6.933594 L 27.144531 7.457031 L 27.417969 6.605469 L 26.695312 6.082031 L 27.589844 6.082031 Z M 27.867188 5.230469 "/>
<path style=" stroke:none;fill-rule:evenodd;fill:rgb(100%,100%,100%);fill-opacity:1;" d="M 5.066406 7.382812 L 5.34375 8.234375 L 6.238281 8.234375 L 5.515625 8.761719 L 5.789062 9.613281 L 5.066406 9.085938 L 4.34375 9.613281 L 4.621094 8.761719 L 3.894531 8.234375 L 4.789062 8.234375 Z M 5.066406 7.382812 "/>
<path style=" stroke:none;fill-rule:evenodd;fill:rgb(100%,100%,100%);fill-opacity:1;" d="M 10.132812 7.382812 L 10.410156 8.234375 L 11.304688 8.234375 L 10.582031 8.761719 L 10.859375 9.613281 L 10.132812 9.085938 L 9.410156 9.613281 L 9.6875 8.761719 L 8.960938 8.234375 L 9.855469 8.234375 Z M 10.132812 7.382812 "/>
<path style=" stroke:none;fill-rule:evenodd;fill:rgb(100%,100%,100%);fill-opacity:1;" d="M 15.199219 7.382812 L 15.476562 8.234375 L 16.371094 8.234375 L 15.648438 8.761719 L 15.925781 9.613281 L 15.199219 9.085938 L 14.476562 9.613281 L 14.753906 8.761719 L 14.027344 8.234375 L 14.921875 8.234375 Z M 15.199219 7.382812 "/>
<path style=" stroke:none;fill-rule:evenodd;fill:rgb(100%,100%,100%);fill-opacity:1;" d="M 20.265625 7.382812 L 20.542969 8.234375 L 21.4375 8.234375 L 20.714844 8.761719 L 20.992188 9.613281 L 20.265625 9.085938 L 19.542969 9.613281 L 19.820312 8.761719 L 19.09375 8.234375 L 19.992188 8.234375 Z M 20.265625 7.382812 "/>
<path style=" stroke:none;fill-rule:evenodd;fill:rgb(100%,100%,100%);fill-opacity:1;" d="M 25.332031 7.382812 L 25.609375 8.234375 L 26.503906 8.234375 L 25.78125 8.761719 L 26.058594 9.613281 L 25.332031 9.085938 L 24.609375 9.613281 L 24.886719 8.761719 L 24.160156 8.234375 L 25.058594 8.234375 Z M 25.332031 7.382812 "/>
<path style=" stroke:none;fill-rule:evenodd;fill:rgb(100%,100%,100%);fill-opacity:1;" d="M 2.535156 9.539062 L 2.808594 10.386719 L 3.703125 10.386719 L 2.980469 10.914062 L 3.257812 11.765625 L 2.535156 11.238281 L 1.808594 11.765625 L 2.085938 10.914062 L 1.363281 10.386719 L 2.257812 10.386719 Z M 2.535156 9.539062 "/>
<path style=" stroke:none;fill-rule:evenodd;fill:rgb(100%,100%,100%);fill-opacity:1;" d="M 7.601562 9.539062 L 7.875 10.386719 L 8.773438 10.386719 L 8.046875 10.914062 L 8.324219 11.765625 L 7.601562 11.238281 L 6.875 11.765625 L 7.152344 10.914062 L 6.429688 10.386719 L 7.324219 10.386719 Z M 7.601562 9.539062 "/>
<path style=" stroke:none;fill-rule:evenodd;fill:rgb(100%,100%,100%);fill-opacity:1;" d="M 12.667969 9.539062 L 12.945312 10.386719 L 13.839844 10.386719 L 13.113281 10.914062 L 13.390625 11.765625 L 12.667969 11.238281 L 11.941406 11.765625 L 12.21875 10.914062 L 11.496094 10.386719 L 12.390625 10.386719 Z M 12.667969 9.539062 "/>
<path style=" stroke:none;fill-rule:evenodd;fill:rgb(100%,100%,100%);fill-opacity:1;" d="M 17.734375 9.539062 L 18.011719 10.386719 L 18.90625 10.386719 L 18.179688 10.914062 L 18.457031 11.765625 L 17.734375 11.238281 L 17.007812 11.765625 L 17.285156 10.914062 L 16.5625 10.386719 L 17.457031 10.386719 Z M 17.734375 9.539062 "/>
<path style=" stroke:none;fill-rule:evenodd;fill:rgb(100%,100%,100%);fill-opacity:1;" d="M 22.800781 9.539062 L 23.078125 10.386719 L 23.972656 10.386719 L 23.246094 10.914062 L 23.523438 11.765625 L 22.800781 11.238281 L 22.074219 11.765625 L 22.351562 10.914062 L 21.628906 10.386719 L 22.523438 10.386719 Z M 22.800781 9.539062 "/>
<path style=" stroke:none;fill-rule:evenodd;fill:rgb(100%,100%,100%);fill-opacity:1;" d="M 27.867188 9.539062 L 28.144531 10.386719 L 29.039062 10.386719 L 28.316406 10.914062 L 28.589844 11.765625 L 27.867188 11.238281 L 27.144531 11.765625 L 27.417969 10.914062 L 26.695312 10.386719 L 27.589844 10.386719 Z M 27.867188 9.539062 "/>
<path style=" stroke:none;fill-rule:evenodd;fill:rgb(100%,100%,100%);fill-opacity:1;" d="M 5.066406 11.691406 L 5.34375 12.542969 L 6.238281 12.542969 L 5.515625 13.070312 L 5.789062 13.917969 L 5.066406 13.394531 L 4.34375 13.917969 L 4.621094 13.070312 L 3.894531 12.542969 L 4.789062 12.542969 Z M 5.066406 11.691406 "/>
<path style=" stroke:none;fill-rule:evenodd;fill:rgb(100%,100%,100%);fill-opacity:1;" d="M 10.132812 11.691406 L 10.410156 12.542969 L 11.304688 12.542969 L 10.582031 13.070312 L 10.859375 13.917969 L 10.132812 13.394531 L 9.410156 13.917969 L 9.6875 13.070312 L 8.960938 12.542969 L 9.855469 12.542969 Z M 10.132812 11.691406 "/>
<path style=" stroke:none;fill-rule:evenodd;fill:rgb(100%,100%,100%);fill-opacity:1;" d="M 15.199219 11.691406 L 15.476562 12.542969 L 16.371094 12.542969 L 15.648438 13.070312 L 15.925781 13.917969 L 15.199219 13.394531 L 14.476562 13.917969 L 14.753906 13.070312 L 14.027344 12.542969 L 14.921875 12.542969 Z M 15.199219 11.691406 "/>
<path style=" stroke:none;fill-rule:evenodd;fill:rgb(100%,100%,100%);fill-opacity:1;" d="M 20.265625 11.691406 L 20.542969 12.542969 L 21.4375 12.542969 L 20.714844 13.070312 L 20.992188 13.917969 L 20.265625 13.394531 L 19.542969 13.917969 L 19.820312 13.070312 L 19.09375 12.542969 L 19.992188 12.542969 Z M 20.265625 11.691406 "/>
<path style=" stroke:none;fill-rule:evenodd;fill:rgb(100%,100%,100%);fill-opacity:1;" d="M 25.332031 11.691406 L 25.609375 12.542969 L 26.503906 12.542969 L 25.78125 13.070312 L 26.058594 13.917969 L 25.332031 13.394531 L 24.609375 13.917969 L 24.886719 13.070312 L 24.160156 12.542969 L 25.058594 12.542969 Z M 25.332031 11.691406 "/>
<path style=" stroke:none;fill-rule:evenodd;fill:rgb(100%,100%,100%);fill-opacity:1;" d="M 2.535156 13.84375 L 2.808594 14.695312 L 3.703125 14.695312 L 2.980469 15.222656 L 3.257812 16.074219 L 2.535156 15.546875 L 1.808594 16.074219 L 2.085938 15.222656 L 1.363281 14.695312 L 2.257812 14.695312 Z M 2.535156 13.84375 "/>
<path style=" stroke:none;fill-rule:evenodd;fill:rgb(100%,100%,100%);fill-opacity:1;" d="M 7.601562 13.84375 L 7.875 14.695312 L 8.773438 14.695312 L 8.046875 15.222656 L 8.324219 16.074219 L 7.601562 15.546875 L 6.875 16.074219 L 7.152344 15.222656 L 6.429688 14.695312 L 7.324219 14.695312 Z M 7.601562 13.84375 "/>
<path style=" stroke:none;fill-rule:evenodd;fill:rgb(100%,100%,100%);fill-opacity:1;" d="M 12.667969 13.84375 L 12.945312 14.695312 L 13.839844 14.695312 L 13.113281 15.222656 L 13.390625 16.074219 L 12.667969 15.546875 L 11.941406 16.074219 L 12.21875 15.222656 L 11.496094 14.695312 L 12.390625 14.695312 Z M 12.667969 13.84375 "/>
<path style=" stroke:none;fill-rule:evenodd;fill:rgb(100%,100%,100%);fill-opacity:1;" d="M 17.734375 13.84375 L 18.011719 14.695312 L 18.90625 14.695312 L 18.179688 15.222656 L 18.457031 16.074219 L 17.734375 15.546875 L 17.007812 16.074219 L 17.285156 15.222656 L 16.5625 14.695312 L 17.457031 14.695312 Z M 17.734375 13.84375 "/>
<path style=" stroke:none;fill-rule:evenodd;fill:rgb(100%,100%,100%);fill-opacity:1;" d="M 22.800781 13.84375 L 23.078125 14.695312 L 23.972656 14.695312 L 23.246094 15.222656 L 23.523438 16.074219 L 22.800781 15.546875 L 22.074219 16.074219 L 22.351562 15.222656 L 21.628906 14.695312 L 22.523438 14.695312 Z M 22.800781 13.84375 "/>
<path style=" stroke:none;fill-rule:evenodd;fill:rgb(100%,100%,100%);fill-opacity:1;" d="M 27.867188 13.84375 L 28.144531 14.695312 L 29.039062 14.695312 L 28.316406 15.222656 L 28.589844 16.074219 L 27.867188 15.546875 L 27.144531 16.074219 L 27.417969 15.222656 L 26.695312 14.695312 L 27.589844 14.695312 Z M 27.867188 13.84375 "/>
<path style=" stroke:none;fill-rule:evenodd;fill:rgb(100%,100%,100%);fill-opacity:1;" d="M 5.066406 16 L 5.34375 16.851562 L 6.238281 16.851562 L 5.515625 17.375 L 5.789062 18.226562 L 5.066406 17.703125 L 4.34375 18.226562 L 4.621094 17.375 L 3.894531 16.851562 L 4.789062 16.851562 Z M 5.066406 16 "/>
<path style=" stroke:none;fill-rule:evenodd;fill:rgb(100%,100%,100%);fill-opacity:1;" d="M 10.132812 16 L 10.410156 16.851562 L 11.304688 16.851562 L 10.582031 17.375 L 10.859375 18.226562 L 10.132812 17.703125 L 9.410156 18.226562 L 9.6875 17.375 L 8.960938 16.851562 L 9.855469 16.851562 Z M 10.132812 16 "/>
<path style=" stroke:none;fill-rule:evenodd;fill:rgb(100%,100%,100%);fill-opacity:1;" d="M 15.199219 16 L 15.476562 16.851562 L 16.371094 16.851562 L 15.648438 17.375 L 15.925781 18.226562 L 15.199219 17.703125 L 14.476562 18.226562 L 14.753906 17.375 L 14.027344 16.851562 L 14.921875 16.851562 Z M 15.199219 16 "/>
<path style=" stroke:none;fill-rule:evenodd;fill:rgb(100%,100%,100%);fill-opacity:1;" d="M 20.265625 16 L 20.542969 16.851562 L 21.4375 16.851562 L 20.714844 17.375 L 20.992188 18.226562 L 20.265625 17.703125 L 19.542969 18.226562 L 19.820312 17.375 L 19.09375 16.851562 L 19.992188 16.851562 Z M 20.265625 16 "/>
<path style=" stroke:none;fill-rule:evenodd;fill:rgb(100%,100%,100%);fill-opacity:1;" d="M 25.332031 16 L 25.609375 16.851562 L 26.503906 16.851562 L 25.78125 17.375 L 26.058594 18.226562 L 25.332031 17.703125 L 24.609375 18.226562 L 24.886719 17.375 L 24.160156 16.851562 L 25.058594 16.851562 Z M 25.332031 16 "/>
<path style=" stroke:none;fill-rule:evenodd;fill:rgb(100%,100%,100%);fill-opacity:1;" d="M 2.535156 18.152344 L 2.808594 19.003906 L 3.703125 19.003906 L 2.980469 19.53125 L 3.257812 20.382812 L 2.535156 19.855469 L 1.808594 20.382812 L 2.085938 19.53125 L 1.363281 19.003906 L 2.257812 19.003906 Z M 2.535156 18.152344 "/>
<path style=" stroke:none;fill-rule:evenodd;fill:rgb(100%,100%,100%);fill-opacity:1;" d="M 7.601562 18.152344 L 7.875 19.003906 L 8.773438 19.003906 L 8.046875 19.53125 L 8.324219 20.382812 L 7.601562 19.855469 L 6.875 20.382812 L 7.152344 19.53125 L 6.429688 19.003906 L 7.324219 19.003906 Z M 7.601562 18.152344 "/>
<path style=" stroke:none;fill-rule:evenodd;fill:rgb(100%,100%,100%);fill-opacity:1;" d="M 12.667969 18.152344 L 12.945312 19.003906 L 13.839844 19.003906 L 13.113281 19.53125 L 13.390625 20.382812 L 12.667969 19.855469 L 11.941406 20.382812 L 12.21875 19.53125 L 11.496094 19.003906 L 12.390625 19.003906 Z M 12.667969 18.152344 "/>
<path style=" stroke:none;fill-rule:evenodd;fill:rgb(100%,100%,100%);fill-opacity:1;" d="M 17.734375 18.152344 L 18.011719 19.003906 L 18.90625 19.003906 L 18.179688 19.53125 L 18.457031 20.382812 L 17.734375 19.855469 L 17.007812 20.382812 L 17.285156 19.53125 L 16.5625 19.003906 L 17.457031 19.003906 Z M 17.734375 18.152344 "/>
<path style=" stroke:none;fill-rule:evenodd;fill:rgb(100%,100%,100%);fill-opacity:1;" d="M 22.800781 18.152344 L 23.078125 19.003906 L 23.972656 19.003906 L 23.246094 19.53125 L 23.523438 20.382812 L 22.800781 19.855469 L 22.074219 20.382812 L 22.351562 19.53125 L 21.628906 19.003906 L 22.523438 19.003906 Z M 22.800781 18.152344 "/>
<path style=" stroke:none;fill-rule:evenodd;fill:rgb(100%,100%,100%);fill-opacity:1;" d="M 27.867188 18.152344 L 28.144531 19.003906 L 29.039062 19.003906 L 28.316406 19.53125 L 28.589844 20.382812 L 27.867188 19.855469 L 27.144531 20.382812 L 27.417969 19.53125 L 26.695312 19.003906 L 27.589844 19.003906 Z M 27.867188 18.152344 "/>
</g>
</svg>
