<?xml version="1.0" encoding="UTF-8"?>
<svg xmlns="http://www.w3.org/2000/svg" xmlns:xlink="http://www.w3.org/1999/xlink" width="40px" height="40px" viewBox="0 0 40 40" version="1.1">
<defs>
<linearGradient id="linear0" gradientUnits="userSpaceOnUse" x1="123.790001" y1="360.519989" x2="123.790001" y2="459.269989" gradientTransform="matrix(0.72665,0,0,1.3762,-0.000000000000028422,0)">
<stop offset="0" style="stop-color:rgb(98.039216%,100%,0%);stop-opacity:0.560784;"/>
<stop offset="1" style="stop-color:rgb(96.078431%,76.862745%,0.784314%);stop-opacity:0.560784;"/>
</linearGradient>
<linearGradient id="linear1" gradientUnits="userSpaceOnUse" x1="123.790001" y1="360.519989" x2="123.790001" y2="459.269989" gradientTransform="matrix(0.72665,0,-0.000000000000000003,1.3762,0,0)">
<stop offset="0" style="stop-color:rgb(98.039216%,100%,0%);stop-opacity:0.560784;"/>
<stop offset="1" style="stop-color:rgb(96.078431%,76.862745%,0.784314%);stop-opacity:0.560784;"/>
</linearGradient>
<linearGradient id="linear2" gradientUnits="userSpaceOnUse" x1="123.790001" y1="360.519989" x2="123.790001" y2="459.269989" gradientTransform="matrix(0.72665,0,0.000000000000000111,1.3762,0,-0.000000000000056843)">
<stop offset="0" style="stop-color:rgb(98.039216%,100%,0%);stop-opacity:0.560784;"/>
<stop offset="1" style="stop-color:rgb(96.078431%,76.862745%,0.784314%);stop-opacity:0.560784;"/>
</linearGradient>
<linearGradient id="linear3" gradientUnits="userSpaceOnUse" x1="123.790001" y1="360.519989" x2="123.790001" y2="459.269989" gradientTransform="matrix(0.72665,-0.000000000000000001,0,1.3762,0,0.000000000000028422)">
<stop offset="0" style="stop-color:rgb(98.039216%,100%,0%);stop-opacity:0.560784;"/>
<stop offset="1" style="stop-color:rgb(96.078431%,76.862745%,0.784314%);stop-opacity:0.560784;"/>
</linearGradient>
<linearGradient id="linear4" gradientUnits="userSpaceOnUse" x1="123.790001" y1="360.519989" x2="123.790001" y2="459.269989" gradientTransform="matrix(0.72665,0,0,1.3762,0.000000000000007105,-0.000000000000001776)">
<stop offset="0" style="stop-color:rgb(98.039216%,100%,0%);stop-opacity:0.560784;"/>
<stop offset="1" style="stop-color:rgb(96.078431%,76.862745%,0.784314%);stop-opacity:0.560784;"/>
</linearGradient>
<linearGradient id="linear5" gradientUnits="userSpaceOnUse" x1="123.790001" y1="360.519989" x2="123.790001" y2="459.269989" gradientTransform="matrix(0.72665,0.000000000000000056,0.000000000000000111,1.3762,-0.000000000000056843,0)">
<stop offset="0" style="stop-color:rgb(98.039216%,100%,0%);stop-opacity:0.560784;"/>
<stop offset="1" style="stop-color:rgb(96.078431%,76.862745%,0.784314%);stop-opacity:0.560784;"/>
</linearGradient>
<linearGradient id="linear6" gradientUnits="userSpaceOnUse" x1="123.790001" y1="360.519989" x2="123.790001" y2="459.269989" gradientTransform="matrix(0.72665,0,0,1.3762,0,0)">
<stop offset="0" style="stop-color:rgb(98.039216%,100%,0%);stop-opacity:0.560784;"/>
<stop offset="1" style="stop-color:rgb(96.078431%,76.862745%,0.784314%);stop-opacity:0.560784;"/>
</linearGradient>
<linearGradient id="linear7" gradientUnits="userSpaceOnUse" x1="123.790001" y1="360.519989" x2="123.790001" y2="459.269989" gradientTransform="matrix(0.72665,0,0,1.3762,0.000000000000028422,0)">
<stop offset="0" style="stop-color:rgb(98.039216%,100%,0%);stop-opacity:0.560784;"/>
<stop offset="1" style="stop-color:rgb(96.078431%,76.862745%,0.784314%);stop-opacity:0.560784;"/>
</linearGradient>
</defs>
<g id="surface1">
<path style=" stroke:none;fill-rule:evenodd;fill:rgb(100%,100%,100%);fill-opacity:1;" d="M 0 0 L 59.941406 0 L 59.941406 39.996094 L 0 39.996094 Z M 0 0 "/>
<path style="fill-rule:evenodd;fill:url(#linear0);stroke-width:3.125;stroke-linecap:butt;stroke-linejoin:miter;stroke:rgb(79.607844%,66.666669%,9.803922%);stroke-opacity:1;stroke-miterlimit:4;" d="M 101.642001 488.786085 C 111.289384 506.960357 123.484206 521.834284 132.062427 547.545104 C 133.871041 581.837361 130.019119 588.360332 136.66084 604.571133 C 139.388554 610.484761 143.200547 612.95718 143.982606 626.70312 C 142.811991 646.379963 134.333107 647.581373 125.994007 647.027097 C 124.509251 641.035749 125.957295 637.081273 115.314691 626.662673 C 109.587794 620.540719 102.749084 610.400606 99.116804 597.177111 C 97.975299 585.114536 97.332484 569.466649 91.287149 556.325193 C 82.678177 542.096219 81.336444 535.226758 73.118232 527.797623 C 64.671719 517.955973 65.097548 514.444063 60.450611 503.710803 C 71.864433 485.312528 82.680812 483.37117 101.642001 488.786085 Z M 101.642001 488.786085 " transform="matrix(-0.0268054,0.0266082,-0.0266082,-0.0268054,23.855296,21.225718)"/>
<path style="fill-rule:evenodd;fill:url(#linear1);stroke-width:3.125;stroke-linecap:butt;stroke-linejoin:miter;stroke:rgb(79.607844%,66.666669%,9.803922%);stroke-opacity:1;stroke-miterlimit:4;" d="M 101.682301 488.820416 C 111.328488 506.89958 123.519893 521.842864 132.126195 547.48599 C 133.91479 581.802149 129.965924 588.369432 136.691089 604.521187 C 139.457464 610.48443 143.21249 612.918206 144.010927 626.664282 C 142.817343 646.331734 134.352087 647.579005 125.967499 647.066896 C 124.544173 640.982845 126.045882 637.136445 115.361148 626.724659 C 109.591744 620.489975 102.737354 610.338926 99.15342 597.146047 C 97.964072 585.163366 97.347042 569.449742 91.281165 556.288975 C 82.61655 542.127513 81.389348 535.213472 73.121945 527.769927 C 64.616939 517.950529 65.08852 514.427753 60.502554 503.730197 C 71.848135 485.27601 82.683893 483.377479 101.682301 488.820416 Z M 101.682301 488.820416 " transform="matrix(-0.0377665,-0.000488624,0.000488624,-0.0377665,12.925553,27.334937)"/>
<path style="fill-rule:evenodd;fill:url(#linear2);stroke-width:3.125;stroke-linecap:butt;stroke-linejoin:miter;stroke:rgb(79.607844%,66.666669%,9.803922%);stroke-opacity:1;stroke-miterlimit:4;" d="M 101.647577 488.818311 C 111.27709 506.925385 123.504528 521.78651 132.045913 547.511413 C 133.950955 581.791527 129.999053 588.343164 136.683001 604.580433 C 139.452501 610.474596 143.281892 612.919967 144.014973 626.661578 C 142.837413 646.347756 134.367259 647.60915 125.950544 647.041576 C 124.495759 640.986983 125.989689 637.094702 115.345963 626.677797 C 109.648226 620.522629 102.73635 610.284939 99.084482 597.159848 C 98.003879 585.104099 97.396576 569.459606 91.330723 556.287377 C 82.621266 542.119721 81.377199 535.258366 73.178961 527.813686 C 64.589097 517.959746 65.136311 514.44334 60.485865 503.669345 C 71.843069 485.263111 82.646991 483.391498 101.647577 488.818311 Z M 101.647577 488.818311 " transform="matrix(-0.0264179,-0.0269931,0.0269931,-0.0264179,1.053084,23.93077)"/>
<path style="fill-rule:evenodd;fill:url(#linear3);stroke-width:3.125;stroke-linecap:butt;stroke-linejoin:miter;stroke:rgb(79.607844%,66.666669%,9.803922%);stroke-opacity:1;stroke-miterlimit:4;" d="M 101.670862 488.845628 C 111.316141 506.979513 123.523957 521.888802 132.085004 547.477167 C 133.882558 581.801859 129.99928 588.345574 136.734676 604.535225 C 139.363222 610.515109 143.207604 612.969774 144.030195 626.719593 C 142.826638 646.37925 134.354264 647.5777 125.972702 647.017249 C 124.481789 641.029207 126.004922 637.088078 115.381057 626.718195 C 109.544973 620.554461 102.749173 610.363977 99.13792 597.151289 C 98.017674 585.161854 97.387834 569.44555 91.295215 556.354083 C 82.60891 542.143526 81.318164 535.22321 73.094494 527.835481 C 64.646181 517.967128 65.13807 514.447101 60.510406 503.723937 C 71.858133 485.232649 82.704744 483.396613 101.670862 488.845628 Z M 101.670862 488.845628 " transform="matrix(0.000270853,-0.0377684,0.0377684,0.000270853,-4.955291,13.16457)"/>
<path style="fill-rule:evenodd;fill:url(#linear4);stroke-width:3.125;stroke-linecap:butt;stroke-linejoin:miter;stroke:rgb(79.607844%,66.666669%,9.803922%);stroke-opacity:1;stroke-miterlimit:4;" d="M 101.631109 488.835185 C 111.318403 506.988134 123.545864 521.835155 132.034316 547.527821 C 133.918333 581.8159 130.00808 588.420864 136.758111 604.543403 C 139.426114 610.524558 143.243522 612.98858 143.982244 626.66002 C 142.854908 646.339322 134.378716 647.559371 126.038446 647.023437 C 124.466962 640.96269 125.979863 637.077753 115.314409 626.682618 C 109.574083 620.573294 102.712252 610.30202 99.124474 597.15929 C 97.956448 585.099296 97.351924 569.379353 91.351285 556.323969 C 82.638373 542.187571 81.354241 535.247541 73.119739 527.836523 C 64.578072 517.940806 65.069736 514.500679 60.471922 503.704141 C 71.845216 485.280873 82.584562 483.3893 101.631109 488.835185 Z M 101.631109 488.835185 " transform="matrix(0.0268639,-0.0265493,0.0265493,0.0268639,-1.610801,1.261507)"/>
<path style="fill-rule:evenodd;fill:url(#linear5);stroke-width:3.125;stroke-linecap:butt;stroke-linejoin:miter;stroke:rgb(79.607844%,66.666669%,9.803922%);stroke-opacity:1;stroke-miterlimit:4;" d="M 101.670067 488.86464 C 111.27054 506.952029 123.487128 521.808099 132.102977 547.506351 C 133.961784 581.795946 129.97315 588.325306 136.712104 604.599131 C 139.448472 610.508764 143.264082 612.975602 143.992753 626.647637 C 142.850939 646.326185 134.373818 647.540005 125.961157 647.071443 C 124.540385 641.008763 125.982641 637.05217 115.324792 626.649151 C 109.588937 620.535583 102.735388 610.405484 99.083755 597.187312 C 97.924594 585.126413 97.331629 569.405967 91.340569 556.346119 C 82.710775 542.129753 81.358988 535.262259 73.129905 527.845157 C 64.595483 517.943121 65.08968 514.503342 60.499788 503.703382 C 71.886675 485.288408 82.627454 483.404727 101.670067 488.86464 Z M 101.670067 488.86464 " transform="matrix(0.026569,0.0268443,-0.0268443,0.026569,21.097744,-1.471797)"/>
<path style="fill-rule:evenodd;fill:url(#linear6);stroke-width:3.125;stroke-linecap:butt;stroke-linejoin:miter;stroke:rgb(79.607844%,66.666669%,9.803922%);stroke-opacity:1;stroke-miterlimit:4;" d="M 101.704639 488.768826 C 111.297812 506.930249 123.566177 521.874007 132.053737 547.486742 C 133.959632 581.81544 130.057607 588.347963 136.746498 604.556817 C 139.357865 610.544197 143.298152 612.906007 143.977861 626.658527 C 142.821326 646.314136 134.346022 647.591689 125.966132 647.007192 C 124.492412 641.014918 126.026842 637.07819 115.329391 626.678346 C 109.61446 620.497468 102.744974 610.391431 99.068238 597.168926 C 97.981958 585.072946 97.397663 569.458377 91.342655 556.349528 C 82.697191 542.114155 81.32289 535.190633 73.12048 527.779363 C 64.59757 517.990711 65.099555 514.472123 60.502695 503.735762 C 71.903394 485.277176 82.651323 483.3693 101.704639 488.768826 Z M 101.704639 488.768826 " transform="matrix(-0.000162481,0.0377691,-0.0377691,-0.000162481,27.172215,9.304525)"/>
<path style=" stroke:none;fill-rule:evenodd;fill:rgb(0%,16.078432%,57.647061%);fill-opacity:1;" d="M 22.125 4.570312 L 59.9375 4.570312 L 59.9375 9.125 L 22.125 9.125 Z M 22.125 4.570312 "/>
<path style=" stroke:none;fill-rule:evenodd;fill:rgb(0%,16.078432%,57.647061%);fill-opacity:1;" d="M 22.125 13.433594 L 59.9375 13.433594 L 59.9375 17.984375 L 22.125 17.984375 Z M 22.125 13.433594 "/>
<path style="fill-rule:evenodd;fill:url(#linear7);stroke-width:3.125;stroke-linecap:butt;stroke-linejoin:miter;stroke:rgb(79.607844%,66.666669%,9.803922%);stroke-opacity:1;stroke-miterlimit:4;" d="M 101.689458 488.82817 C 111.30783 506.927257 123.511785 521.820219 132.095923 547.469211 C 133.957544 581.805764 130.027456 588.321435 136.749974 604.558901 C 139.438981 610.454032 143.265646 612.936193 143.989609 626.691498 C 142.851952 646.341935 134.371237 647.583016 125.993946 647.065899 C 124.546019 640.963921 125.993946 637.137257 115.34134 626.691498 C 109.549633 620.486097 102.723691 610.350609 99.103874 597.215843 C 97.966217 585.115311 97.345677 569.394961 91.347123 556.260196 C 82.659561 542.091196 81.315058 535.265255 73.144613 527.818774 C 64.663898 517.890132 65.077591 514.477161 60.42354 503.721133 C 71.903532 485.311776 82.659561 483.346732 101.689458 488.82817 Z M 101.689458 488.82817 " transform="matrix(0.0377695,0,0,0.0377695,9.088926,-4.794835)"/>
<path style=" stroke:none;fill-rule:evenodd;fill:rgb(0%,16.078432%,57.647061%);fill-opacity:1;" d="M 0 22.191406 L 59.941406 22.191406 L 59.941406 26.746094 L 0 26.746094 Z M 0 22.191406 "/>
<path style=" stroke:none;fill-rule:evenodd;fill:rgb(0%,16.078432%,57.647061%);fill-opacity:1;" d="M 0 31.003906 L 59.941406 31.003906 L 59.941406 35.554688 L 0 35.554688 Z M 0 31.003906 "/>
<path style="fill-rule:evenodd;fill:rgb(98.039216%,100%,0%);fill-opacity:1;stroke-width:3.125;stroke-linecap:round;stroke-linejoin:miter;stroke:rgb(79.607844%,66.666669%,9.803922%);stroke-opacity:1;stroke-miterlimit:4;" d="M 82.659561 496.895191 L 53.494176 656.270577 L 53.494176 496.895191 Z M 82.659561 496.895191 " transform="matrix(0.0377695,0,0,0.0377695,9.088926,-4.794835)"/>
<path style="fill-rule:evenodd;fill:rgb(96.078432%,76.862746%,0.784314%);fill-opacity:1;stroke-width:3.125;stroke-linecap:butt;stroke-linejoin:miter;stroke:rgb(79.607844%,66.666669%,9.803922%);stroke-opacity:1;stroke-miterlimit:4;" d="M 82.647788 496.89568 L 53.585826 656.271066 L 53.585826 496.89568 Z M 82.647788 496.89568 " transform="matrix(-0.0377695,0,0,0.0377695,13.133286,-4.794853)"/>
<path style="fill-rule:evenodd;fill:rgb(98.039216%,100%,0%);fill-opacity:1;stroke-width:3.125;stroke-linecap:round;stroke-linejoin:miter;stroke:rgb(79.607844%,66.666669%,9.803922%);stroke-opacity:1;stroke-miterlimit:4;" d="M 82.626127 496.853961 L 53.520423 656.227407 L 53.59287 496.873921 Z M 82.626127 496.853961 " transform="matrix(0.0266581,-0.0267559,0.0267559,0.0266581,-1.68785,1.360086)"/>
<path style="fill-rule:evenodd;fill:rgb(96.078432%,76.862746%,0.784314%);fill-opacity:1;stroke-width:3.125;stroke-linecap:butt;stroke-linejoin:miter;stroke:rgb(79.607844%,66.666669%,9.803922%);stroke-opacity:1;stroke-miterlimit:4;" d="M 82.668336 496.892681 L 53.561264 656.226475 L 53.488817 496.872989 Z M 82.668336 496.892681 " transform="matrix(-0.0266581,0.0267559,0.0267559,0.0266581,1.16677,-1.504959)"/>
<path style="fill-rule:evenodd;fill:rgb(98.039216%,100%,0%);fill-opacity:1;stroke-width:3.125;stroke-linecap:round;stroke-linejoin:miter;stroke:rgb(79.607844%,66.666669%,9.803922%);stroke-opacity:1;stroke-miterlimit:4;" d="M 82.664714 496.902795 L 53.5024 656.22195 L 53.499437 496.846558 Z M 82.664714 496.902795 " transform="matrix(-0.0000728272,-0.0377695,0.0377695,-0.0000728272,-4.937539,13.310738)"/>
<path style="fill-rule:evenodd;fill:rgb(96.078432%,76.862746%,0.784314%);fill-opacity:1;stroke-width:3.125;stroke-linecap:butt;stroke-linejoin:miter;stroke:rgb(79.607844%,66.666669%,9.803922%);stroke-opacity:1;stroke-miterlimit:4;" d="M 82.64259 496.887485 L 53.577574 656.21549 L 53.580537 496.840099 Z M 82.64259 496.887485 " transform="matrix(0.0000728272,0.0377695,0.0377695,-0.0000728272,-4.945094,9.266379)"/>
<path style="fill-rule:evenodd;fill:rgb(98.039216%,100%,0%);fill-opacity:1;stroke-width:3.125;stroke-linecap:round;stroke-linejoin:miter;stroke:rgb(79.607844%,66.666669%,9.803922%);stroke-opacity:1;stroke-miterlimit:4;" d="M 82.696438 496.872074 L 53.52651 656.221253 L 53.516944 496.86765 Z M 82.696438 496.872074 " transform="matrix(-0.0266441,-0.0267699,0.0267699,-0.0266441,1.159972,24.014998)"/>
<path style="fill-rule:evenodd;fill:rgb(96.078432%,76.862746%,0.784314%);fill-opacity:1;stroke-width:3.125;stroke-linecap:butt;stroke-linejoin:miter;stroke:rgb(79.607844%,66.666669%,9.803922%);stroke-opacity:1;stroke-miterlimit:4;" d="M 82.600842 496.86046 L 53.558042 656.218831 L 53.567609 496.865228 Z M 82.600842 496.86046 " transform="matrix(0.0266441,0.0267699,0.0267699,-0.0266441,-1.693138,21.148291)"/>
<path style="fill-rule:evenodd;fill:rgb(98.039216%,100%,0%);fill-opacity:1;stroke-width:3.125;stroke-linecap:round;stroke-linejoin:miter;stroke:rgb(79.607844%,66.666669%,9.803922%);stroke-opacity:1;stroke-miterlimit:4;" d="M 82.60959 496.841379 L 53.546133 656.263352 L 53.547537 496.887969 Z M 82.60959 496.841379 " transform="matrix(-0.0377695,0.0000738621,-0.0000738621,-0.0377695,13.164635,27.306232)"/>
<path style="fill-rule:evenodd;fill:rgb(96.078432%,76.862746%,0.784314%);fill-opacity:1;stroke-width:3.125;stroke-linecap:butt;stroke-linejoin:miter;stroke:rgb(79.607844%,66.666669%,9.803922%);stroke-opacity:1;stroke-miterlimit:4;" d="M 82.696571 496.831552 L 53.532702 656.26397 L 53.531298 496.888587 Z M 82.696571 496.831552 " transform="matrix(0.0377695,-0.0000738621,-0.0000738621,-0.0377695,9.120319,27.314164)"/>
<path style="fill-rule:evenodd;fill:rgb(98.039216%,100%,0%);fill-opacity:1;stroke-width:3.125;stroke-linecap:round;stroke-linejoin:miter;stroke:rgb(79.607844%,66.666669%,9.803922%);stroke-opacity:1;stroke-miterlimit:4;" d="M 82.692401 496.908071 L 53.504693 656.206584 L 53.586153 496.853119 Z M 82.692401 496.908071 " transform="matrix(-0.0266566,0.0267574,-0.0267574,-0.0266566,23.91044,21.154333)"/>
<path style="fill-rule:evenodd;fill:rgb(96.078432%,76.862746%,0.784314%);fill-opacity:1;stroke-width:3.125;stroke-linecap:butt;stroke-linejoin:miter;stroke:rgb(79.607844%,66.666669%,9.803922%);stroke-opacity:1;stroke-miterlimit:4;" d="M 82.670855 496.87409 L 53.572799 656.209514 L 53.491338 496.856049 Z M 82.670855 496.87409 " transform="matrix(0.0266566,-0.0267574,-0.0267574,-0.0266566,21.056197,24.01953)"/>
<path style="fill-rule:evenodd;fill:rgb(98.039216%,100%,0%);fill-opacity:1;stroke-width:3.125;stroke-linecap:round;stroke-linejoin:miter;stroke:rgb(79.607844%,66.666669%,9.803922%);stroke-opacity:1;stroke-miterlimit:4;" d="M 82.646667 496.844999 L 53.578961 656.218819 L 53.583083 496.833912 Z M 82.646667 496.844999 " transform="matrix(0.000417618,0.0377672,-0.0377672,0.000417618,27.140111,9.05789)"/>
<path style="fill-rule:evenodd;fill:rgb(96.078432%,76.862746%,0.784314%);fill-opacity:1;stroke-width:3.125;stroke-linecap:butt;stroke-linejoin:miter;stroke:rgb(79.607844%,66.666669%,9.803922%);stroke-opacity:1;stroke-miterlimit:4;" d="M 82.670428 496.82763 L 53.507549 656.224767 L 53.503427 496.83986 Z M 82.670428 496.82763 " transform="matrix(-0.000417618,-0.0377672,-0.0377672,0.000417618,27.185056,13.102251)"/>
<path style="fill-rule:evenodd;fill:rgb(98.039216%,100%,0%);fill-opacity:1;stroke-width:3.125;stroke-linecap:round;stroke-linejoin:miter;stroke:rgb(79.607844%,66.666669%,9.803922%);stroke-opacity:1;stroke-miterlimit:4;" d="M 82.598028 496.861044 L 53.546967 656.295387 L 53.563963 496.864255 Z M 82.598028 496.861044 " transform="matrix(0.0269051,0.0265074,-0.0265074,0.0269051,20.936467,-1.596625)"/>
<path style="fill-rule:evenodd;fill:rgb(96.078432%,76.862746%,0.784314%);fill-opacity:1;stroke-width:3.125;stroke-linecap:butt;stroke-linejoin:miter;stroke:rgb(79.607844%,66.666669%,9.803922%);stroke-opacity:1;stroke-miterlimit:4;" d="M 82.698955 496.865967 L 53.535626 656.294977 L 53.51863 496.863845 Z M 82.698955 496.865967 " transform="matrix(-0.0269051,-0.0265074,-0.0265074,0.0269051,23.817526,1.241867)"/>
<path style="fill-rule:evenodd;fill:rgb(98.039216%,100%,0%);fill-opacity:1;stroke-width:3.125;stroke-linecap:butt;stroke-linejoin:miter;stroke:rgb(79.607844%,66.666669%,9.803922%);stroke-opacity:1;stroke-miterlimit:4;" d="M 134.759641 422.251085 C 134.759641 377.36535 98.044351 341.063753 52.538076 341.063753 C 7.135224 341.063753 -29.683489 377.36535 -29.683489 422.251085 C -29.683489 467.13682 7.135224 503.54184 52.538076 503.54184 C 98.044351 503.54184 134.759641 467.13682 134.759641 422.251085 Z M 134.759641 422.251085 " transform="matrix(0.0377695,0,0,0.0377695,9.125037,-4.686501)"/>
</g>
</svg>
