<?xml version="1.0" encoding="UTF-8"?>
<svg xmlns="http://www.w3.org/2000/svg" xmlns:xlink="http://www.w3.org/1999/xlink" width="40px" height="40px" viewBox="0 0 40 40" version="1.1">
<g id="surface1">
<rect x="0" y="0" width="40" height="40" style="fill:rgb(100%,100%,100%);fill-opacity:1;stroke:none;"/>
<path style=" stroke:none;fill-rule:evenodd;fill:rgb(58.039218%,67.450982%,83.137256%);fill-opacity:1;" d="M 0 0 L 80 0 L 80 13.84375 L 0 13.84375 Z M 0 0 "/>
<path style=" stroke:none;fill-rule:evenodd;fill:rgb(71.764708%,18.82353%,0%);fill-opacity:1;" d="M 0 12.929688 L 80 12.929688 L 80 13.84375 L 0 13.84375 Z M 0 12.929688 "/>
<path style=" stroke:none;fill-rule:evenodd;fill:rgb(0%,66.274512%,0%);fill-opacity:1;" d="M 0 27.070312 L 80 27.070312 L 80 40 L 0 40 Z M 0 27.070312 "/>
<path style=" stroke:none;fill-rule:evenodd;fill:rgb(71.764708%,18.82353%,0%);fill-opacity:1;" d="M 0 27.070312 L 80 27.070312 L 80 27.988281 L 0 27.988281 Z M 0 27.070312 "/>
<path style=" stroke:none;fill-rule:evenodd;fill:rgb(99.607843%,100%,100%);fill-opacity:1;" d="M 21.054688 4.117188 L 20.308594 3.601562 L 19.570312 4.128906 L 19.824219 3.257812 L 19.101562 2.714844 L 20.003906 2.6875 L 20.292969 1.828125 L 20.597656 2.683594 L 21.5 2.695312 L 20.785156 3.25 Z M 21.054688 4.117188 "/>
<path style=" stroke:none;fill-rule:evenodd;fill:rgb(99.607843%,100%,100%);fill-opacity:1;" d="M 17.539062 11.027344 L 16.796875 10.515625 L 16.058594 11.039062 L 16.3125 10.167969 L 15.589844 9.625 L 16.492188 9.601562 L 16.78125 8.738281 L 17.085938 9.59375 L 17.988281 9.605469 L 17.273438 10.160156 Z M 17.539062 11.027344 "/>
<path style=" stroke:none;fill-rule:evenodd;fill:rgb(99.607843%,100%,100%);fill-opacity:1;" d="M 21.085938 11.027344 L 20.34375 10.515625 L 19.605469 11.039062 L 19.859375 10.167969 L 19.136719 9.625 L 20.039062 9.601562 L 20.328125 8.738281 L 20.632812 9.59375 L 21.535156 9.605469 L 20.820312 10.160156 Z M 21.085938 11.027344 "/>
<path style=" stroke:none;fill-rule:evenodd;fill:rgb(99.607843%,100%,100%);fill-opacity:1;" d="M 24.363281 11.027344 L 23.621094 10.515625 L 22.882812 11.039062 L 23.136719 10.167969 L 22.414062 9.625 L 23.316406 9.601562 L 23.605469 8.738281 L 23.910156 9.59375 L 24.8125 9.605469 L 24.097656 10.160156 Z M 24.363281 11.027344 "/>
<path style=" stroke:none;fill-rule:evenodd;fill:rgb(99.607843%,100%,100%);fill-opacity:1;" d="M 27.40625 11.027344 L 26.660156 10.515625 L 25.921875 11.039062 L 26.175781 10.167969 L 25.453125 9.625 L 26.355469 9.601562 L 26.644531 8.738281 L 26.949219 9.59375 L 27.851562 9.605469 L 27.136719 10.160156 Z M 27.40625 11.027344 "/>
<path style=" stroke:none;fill-rule:evenodd;fill:rgb(99.607843%,100%,100%);fill-opacity:1;" d="M 13.824219 11.027344 L 13.078125 10.515625 L 12.34375 11.039062 L 12.597656 10.167969 L 11.875 9.625 L 12.777344 9.601562 L 13.066406 8.738281 L 13.367188 9.59375 L 14.269531 9.605469 L 13.558594 10.160156 Z M 13.824219 11.027344 "/>
<path style=" stroke:none;fill-rule:evenodd;fill:rgb(99.607843%,100%,100%);fill-opacity:1;" d="M 17.472656 7.597656 L 16.726562 7.085938 L 15.992188 7.609375 L 16.246094 6.738281 L 15.523438 6.195312 L 16.425781 6.167969 L 16.714844 5.308594 L 17.015625 6.164062 L 17.917969 6.175781 L 17.207031 6.730469 Z M 17.472656 7.597656 "/>
<path style=" stroke:none;fill-rule:evenodd;fill:rgb(99.607843%,100%,100%);fill-opacity:1;" d="M 21.054688 7.597656 L 20.308594 7.085938 L 19.570312 7.609375 L 19.824219 6.738281 L 19.101562 6.195312 L 20.003906 6.167969 L 20.292969 5.308594 L 20.597656 6.164062 L 21.5 6.175781 L 20.785156 6.730469 Z M 21.054688 7.597656 "/>
<path style=" stroke:none;fill-rule:evenodd;fill:rgb(99.607843%,100%,100%);fill-opacity:1;" d="M 24.429688 7.597656 L 23.6875 7.085938 L 22.949219 7.609375 L 23.203125 6.738281 L 22.480469 6.195312 L 23.382812 6.167969 L 23.671875 5.308594 L 23.976562 6.164062 L 24.878906 6.175781 L 24.164062 6.730469 Z M 24.429688 7.597656 "/>
<path style=" stroke:none;fill-rule:evenodd;fill:rgb(99.607843%,100%,100%);fill-opacity:1;" d="M 27.371094 7.597656 L 26.625 7.085938 L 25.886719 7.609375 L 26.144531 6.738281 L 25.417969 6.195312 L 26.320312 6.167969 L 26.609375 5.308594 L 26.914062 6.164062 L 27.816406 6.175781 L 27.101562 6.730469 Z M 27.371094 7.597656 "/>
<path style=" stroke:none;fill-rule:evenodd;fill:rgb(99.607843%,100%,100%);fill-opacity:1;" d="M 27.335938 4.117188 L 26.59375 3.601562 L 25.855469 4.128906 L 26.109375 3.257812 L 25.386719 2.714844 L 26.289062 2.6875 L 26.578125 1.828125 L 26.878906 2.683594 L 27.785156 2.695312 L 27.070312 3.25 Z M 27.335938 4.117188 "/>
<path style=" stroke:none;fill-rule:evenodd;fill:rgb(99.607843%,100%,100%);fill-opacity:1;" d="M 24.398438 4.117188 L 23.652344 3.601562 L 22.914062 4.128906 L 23.167969 3.257812 L 22.445312 2.714844 L 23.347656 2.6875 L 23.636719 1.828125 L 23.941406 2.683594 L 24.84375 2.695312 L 24.128906 3.25 Z M 24.398438 4.117188 "/>
<path style=" stroke:none;fill-rule:evenodd;fill:rgb(100%,100%,100%);fill-opacity:1;" d="M 11.484375 2.09375 C 7.5 1 4.972656 3.820312 5.011719 6.351562 C 5.050781 8.878906 7.382812 11.558594 10.976562 10.890625 C 5.324219 13.539062 2.433594 9.367188 2.550781 6.054688 C 2.75 2.136719 7.148438 -1.054688 11.484375 2.09375 Z M 11.484375 2.09375 "/>
</g>
</svg>
