<?xml version="1.0" encoding="UTF-8"?>
<svg xmlns="http://www.w3.org/2000/svg" xmlns:xlink="http://www.w3.org/1999/xlink" width="40px" height="40px" viewBox="0 0 40 40" version="1.1">
<g id="surface1">
<path style=" stroke:none;fill-rule:evenodd;fill:rgb(95.686275%,94.509804%,0%);fill-opacity:1;" d="M 0 0 L 39.875 0 L 39.875 40 L 0 40 Z M 0 0 "/>
<path style=" stroke:none;fill-rule:evenodd;fill:rgb(9.803922%,60.392159%,0%);fill-opacity:1;" d="M 30.125 0 L 40 0 L 40 40 L 30.125 40 Z M 30.125 0 "/>
<path style=" stroke:none;fill-rule:evenodd;fill:rgb(0%,34.509805%,66.666669%);fill-opacity:1;" d="M 0 0 L 9.875 0 L 9.875 40 L 0 40 Z M 0 0 "/>
<path style=" stroke:none;fill-rule:evenodd;fill:rgb(9.803922%,60.392159%,0%);fill-opacity:1;" d="M 14.9375 10.828125 L 11.074219 16.777344 L 14.800781 22.976562 L 18.453125 16.832031 Z M 14.9375 10.828125 "/>
<path style=" stroke:none;fill-rule:evenodd;fill:rgb(9.803922%,60.392159%,0%);fill-opacity:1;" d="M 25.042969 10.828125 L 21.179688 16.777344 L 24.910156 22.976562 L 28.558594 16.832031 Z M 25.042969 10.828125 "/>
<path style=" stroke:none;fill-rule:evenodd;fill:rgb(9.803922%,60.392159%,0%);fill-opacity:1;" d="M 19.941406 18.945312 L 16.074219 24.894531 L 19.804688 31.09375 L 23.457031 24.949219 Z M 19.941406 18.945312 "/>
</g>
</svg>
