<?xml version="1.0" encoding="UTF-8"?>
<svg xmlns="http://www.w3.org/2000/svg" xmlns:xlink="http://www.w3.org/1999/xlink" width="40px" height="40px" viewBox="0 0 40 40" version="1.1">
<g id="surface1">
<path style=" stroke:none;fill-rule:evenodd;fill:rgb(86.274511%,0%,0%);fill-opacity:1;" d="M -10 26.667969 L 50.113281 26.667969 L 50.113281 40 L -10 40 Z M -10 26.667969 "/>
<path style=" stroke:none;fill-rule:evenodd;fill:rgb(100%,79.607844%,0%);fill-opacity:1;" d="M -10 0 L 50.113281 0 L 50.113281 13.332031 L -10 13.332031 Z M -10 0 "/>
<path style=" stroke:none;fill-rule:evenodd;fill:rgb(0%,0%,72.941178%);fill-opacity:1;" d="M -10 13.332031 L 50.113281 13.332031 L 50.113281 26.667969 L -10 26.667969 Z M -10 13.332031 "/>
<path style=" stroke:none;fill-rule:evenodd;fill:rgb(100%,100%,100%);fill-opacity:1;" d="M 21.0625 17.867188 L 20.09375 17.175781 L 19.128906 17.875 L 19.488281 16.738281 L 18.527344 16.039062 L 19.714844 16.027344 L 20.085938 14.898438 L 20.460938 16.027344 L 21.652344 16.027344 L 20.695312 16.734375 Z M 21.0625 17.867188 "/>
<path style=" stroke:none;fill-rule:evenodd;fill:rgb(100%,100%,100%);fill-opacity:1;" d="M 25.882812 18.460938 L 24.914062 17.769531 L 23.949219 18.46875 L 24.308594 17.332031 L 23.34375 16.632812 L 24.535156 16.621094 L 24.90625 15.488281 L 25.28125 16.621094 L 26.472656 16.621094 L 25.515625 17.328125 Z M 25.882812 18.460938 "/>
<path style=" stroke:none;fill-rule:evenodd;fill:rgb(100%,100%,100%);fill-opacity:1;" d="M 30.058594 21.070312 L 29.089844 20.375 L 28.125 21.074219 L 28.484375 19.941406 L 27.523438 19.238281 L 28.710938 19.230469 L 29.082031 18.097656 L 29.457031 19.226562 L 30.648438 19.226562 L 29.691406 19.9375 Z M 30.058594 21.070312 "/>
<path style=" stroke:none;fill-rule:evenodd;fill:rgb(100%,100%,100%);fill-opacity:1;" d="M 32.414062 24.976562 L 31.445312 24.285156 L 30.484375 24.984375 L 30.839844 23.847656 L 29.878906 23.148438 L 31.070312 23.136719 L 31.4375 22.007812 L 31.816406 23.136719 L 33.003906 23.136719 L 32.046875 23.84375 Z M 32.414062 24.976562 "/>
<path style=" stroke:none;fill-rule:evenodd;fill:rgb(100%,100%,100%);fill-opacity:1;" d="M 14.296875 18.460938 L 15.265625 17.769531 L 16.226562 18.46875 L 15.871094 17.332031 L 16.832031 16.632812 L 15.640625 16.621094 L 15.273438 15.488281 L 14.894531 16.621094 L 13.703125 16.621094 L 14.664062 17.328125 Z M 14.296875 18.460938 "/>
<path style=" stroke:none;fill-rule:evenodd;fill:rgb(100%,100%,100%);fill-opacity:1;" d="M 10.117188 21.070312 L 11.085938 20.375 L 12.050781 21.074219 L 11.691406 19.941406 L 12.65625 19.238281 L 11.464844 19.230469 L 11.09375 18.097656 L 10.71875 19.226562 L 9.527344 19.226562 L 10.484375 19.9375 Z M 10.117188 21.070312 "/>
<path style=" stroke:none;fill-rule:evenodd;fill:rgb(100%,100%,100%);fill-opacity:1;" d="M 7.761719 24.976562 L 8.730469 24.285156 L 9.695312 24.984375 L 9.335938 23.847656 L 10.296875 23.148438 L 9.109375 23.136719 L 8.738281 22.007812 L 8.363281 23.136719 L 7.171875 23.136719 L 8.128906 23.84375 Z M 7.761719 24.976562 "/>
</g>
</svg>
