<?xml version="1.0" encoding="UTF-8"?>
<svg xmlns="http://www.w3.org/2000/svg" xmlns:xlink="http://www.w3.org/1999/xlink" width="40px" height="40px" viewBox="0 0 40 40" version="1.1">
<defs>
<linearGradient id="linear0" gradientUnits="userSpaceOnUse" x1="103.080002" y1="111.279999" x2="92.551003" y2="107.760002" gradientTransform="matrix(0.65977,0,0,1.4919,-3.68,-0.67323)">
<stop offset="0" style="stop-color:rgb(100%,0%,0%);stop-opacity:1;"/>
<stop offset="1" style="stop-color:rgb(100%,100%,0%);stop-opacity:1;"/>
</linearGradient>
<linearGradient id="linear1" gradientUnits="userSpaceOnUse" x1="103.080002" y1="111.279999" x2="92.551003" y2="107.760002" gradientTransform="matrix(0.65977,0,0,1.4919,-3.6759,-0.45102)">
<stop offset="0" style="stop-color:rgb(100%,0%,0%);stop-opacity:1;"/>
<stop offset="1" style="stop-color:rgb(100%,100%,0%);stop-opacity:1;"/>
</linearGradient>
<linearGradient id="linear2" gradientUnits="userSpaceOnUse" x1="103.080002" y1="111.279999" x2="92.551003" y2="107.760002" gradientTransform="matrix(0.65977,0,0,1.4919,-4.4568,-0.24902)">
<stop offset="0" style="stop-color:rgb(100%,0%,0%);stop-opacity:1;"/>
<stop offset="1" style="stop-color:rgb(100%,100%,0%);stop-opacity:1;"/>
</linearGradient>
<linearGradient id="linear3" gradientUnits="userSpaceOnUse" x1="103.080002" y1="111.279999" x2="92.551003" y2="107.760002" gradientTransform="matrix(0.65977,0,0,1.4919,-3.6941,-0.033018)">
<stop offset="0" style="stop-color:rgb(100%,0%,0%);stop-opacity:1;"/>
<stop offset="1" style="stop-color:rgb(100%,100%,0%);stop-opacity:1;"/>
</linearGradient>
<linearGradient id="linear4" gradientUnits="userSpaceOnUse" x1="103.080002" y1="111.279999" x2="92.551003" y2="107.760002" gradientTransform="matrix(0.65977,0,0,1.4919,-3.6957,0.17928)">
<stop offset="0" style="stop-color:rgb(100%,0%,0%);stop-opacity:1;"/>
<stop offset="1" style="stop-color:rgb(100%,100%,0%);stop-opacity:1;"/>
</linearGradient>
<linearGradient id="linear5" gradientUnits="userSpaceOnUse" x1="103.080002" y1="111.279999" x2="92.551003" y2="107.760002" gradientTransform="matrix(0.65977,0,0,1.4919,-3.6998,0.39469)">
<stop offset="0" style="stop-color:rgb(100%,0%,0%);stop-opacity:1;"/>
<stop offset="1" style="stop-color:rgb(100%,100%,0%);stop-opacity:1;"/>
</linearGradient>
<linearGradient id="linear6" gradientUnits="userSpaceOnUse" x1="103.080002" y1="111.279999" x2="92.551003" y2="107.760002" gradientTransform="matrix(0.65977,0,0,1.4919,-4.4626,0.39119)">
<stop offset="0" style="stop-color:rgb(100%,0%,0%);stop-opacity:1;"/>
<stop offset="1" style="stop-color:rgb(100%,100%,0%);stop-opacity:1;"/>
</linearGradient>
<linearGradient id="linear7" gradientUnits="userSpaceOnUse" x1="103.080002" y1="111.279999" x2="92.551003" y2="107.760002" gradientTransform="matrix(0.65977,0,0,1.4919,-4.4556,0.17973)">
<stop offset="0" style="stop-color:rgb(100%,0%,0%);stop-opacity:1;"/>
<stop offset="1" style="stop-color:rgb(100%,100%,0%);stop-opacity:1;"/>
</linearGradient>
<linearGradient id="linear8" gradientUnits="userSpaceOnUse" x1="103.080002" y1="111.279999" x2="92.551003" y2="107.760002" gradientTransform="matrix(0.65977,0,0,1.4919,-4.4463,-0.036398)">
<stop offset="0" style="stop-color:rgb(100%,0%,0%);stop-opacity:1;"/>
<stop offset="1" style="stop-color:rgb(100%,100%,0%);stop-opacity:1;"/>
</linearGradient>
<linearGradient id="linear9" gradientUnits="userSpaceOnUse" x1="103.080002" y1="111.279999" x2="92.551003" y2="107.760002" gradientTransform="matrix(0.85004,0,0,1.9222,723.320007,109.68)">
<stop offset="0" style="stop-color:rgb(100%,0%,0%);stop-opacity:1;"/>
<stop offset="1" style="stop-color:rgb(100%,100%,0%);stop-opacity:1;"/>
</linearGradient>
<linearGradient id="linear10" gradientUnits="userSpaceOnUse" x1="103.080002" y1="111.279999" x2="92.551003" y2="107.760002" gradientTransform="matrix(0.65977,0,0,1.4919,-4.4545,-0.46164)">
<stop offset="0" style="stop-color:rgb(100%,0%,0%);stop-opacity:1;"/>
<stop offset="1" style="stop-color:rgb(100%,100%,0%);stop-opacity:1;"/>
</linearGradient>
<linearGradient id="linear11" gradientUnits="userSpaceOnUse" x1="103.080002" y1="111.279999" x2="92.551003" y2="107.760002" gradientTransform="matrix(0.65977,0,0,1.4919,-3.8334,-0.26294)">
<stop offset="0" style="stop-color:rgb(100%,0%,0%);stop-opacity:1;"/>
<stop offset="1" style="stop-color:rgb(100%,100%,0%);stop-opacity:1;"/>
</linearGradient>
</defs>
<g id="surface1">
<rect x="0" y="0" width="40" height="40" style="fill:rgb(0%,0%,40.000001%);fill-opacity:1;stroke:none;"/>
<path style=" stroke:none;fill-rule:evenodd;fill:rgb(0%,0%,40.000001%);fill-opacity:1;" d="M 0 0 L 40 0 L 40 20 L 0 20 Z M 0 0 "/>
<path style=" stroke:none;fill-rule:nonzero;fill:rgb(100%,100%,100%);fill-opacity:1;" d="M 0 0 L 0 2.234375 L 35.527344 20 L 40 20 L 40 17.765625 L 4.472656 0 Z M 40 0 L 40 2.234375 L 4.472656 20 L 0 20 L 0 17.765625 L 35.527344 0 Z M 40 0 "/>
<path style=" stroke:none;fill-rule:nonzero;fill:rgb(100%,100%,100%);fill-opacity:1;" d="M 16.667969 0 L 16.667969 20 L 23.332031 20 L 23.332031 0 Z M 0 6.667969 L 0 13.332031 L 40 13.332031 L 40 6.667969 Z M 0 6.667969 "/>
<path style=" stroke:none;fill-rule:nonzero;fill:rgb(80.000001%,0%,0%);fill-opacity:1;" d="M 0 8 L 0 12 L 40 12 L 40 8 Z M 18 0 L 18 20 L 22 20 L 22 0 Z M 18 0 "/>
<path style=" stroke:none;fill-rule:nonzero;fill:rgb(80.000001%,0%,0%);fill-opacity:1;" d="M 0 20 L 13.332031 13.332031 L 16.316406 13.332031 L 2.980469 20 Z M 0 0 L 13.332031 6.667969 L 10.351562 6.667969 L 0 1.492188 Z M 23.683594 6.667969 L 37.019531 0 L 40 0 L 26.667969 6.667969 Z M 40 20 L 26.667969 13.332031 L 29.648438 13.332031 L 40 18.507812 Z M 40 20 "/>
<path style=" stroke:none;fill-rule:evenodd;fill:rgb(100%,100%,100%);fill-opacity:1;" d="M 20.03125 15.125 L 36.722656 15.0625 L 36.691406 29.929688 C 36.691406 29.929688 37.28125 32.191406 29.695312 35.628906 C 32.417969 35.351562 35.390625 32.441406 35.390625 32.441406 C 35.390625 32.441406 36.601562 30.890625 37.1875 31.757812 C 37.777344 32.625 38.335938 33.058594 38.769531 33.398438 C 39.203125 33.742188 39.542969 34.667969 38.890625 35.351562 C 38.242188 36.03125 37.21875 36.125 36.941406 35.289062 C 36.507812 35.503906 33.84375 38.726562 28.394531 38.882812 C 22.847656 38.789062 19.816406 35.257812 19.816406 35.257812 C 19.816406 35.257812 19.070312 36.433594 18.019531 35.503906 C 16.996094 34.296875 17.769531 33.523438 17.769531 33.523438 C 17.769531 33.523438 18.636719 33.027344 18.886719 32.6875 C 19.289062 32.222656 19.410156 31.601562 20.09375 31.601562 C 20.898438 31.664062 21.207031 32.316406 21.207031 32.316406 C 21.207031 32.316406 23.996094 35.257812 27 35.628906 C 20.21875 32.378906 19.96875 30.363281 20 29.867188 Z M 20.03125 15.125 "/>
<path style="fill-rule:evenodd;fill:rgb(0%,38.039216%,16.078432%);fill-opacity:1;stroke-width:1.6105;stroke-linecap:butt;stroke-linejoin:miter;stroke:rgb(0%,0%,0%);stroke-opacity:1;stroke-miterlimit:4;" d="M 667.569989 128.072998 L 871.319989 126.922998 L 871.319989 310.072998 C 871.719989 333.822998 831.669989 358.022998 769.019989 388.922998 C 704.419989 355.622998 667.169989 335.422998 666.769989 309.672998 L 667.569989 128.122998 Z M 667.569989 128.072998 " transform="matrix(0.078125,0,0,0.078125,-31.720312,5.521641)"/>
<path style="fill:none;stroke-width:1.25;stroke-linecap:butt;stroke-linejoin:miter;stroke:rgb(96.862745%,77.64706%,0%);stroke-opacity:1;stroke-miterlimit:4;" d="M 69.79196 170.54718 L 79.105837 156.809211 L 88.49733 170.54718 " transform="matrix(0.100656,0,0,0.100656,15.322659,14.130235)"/>
<path style="fill-rule:evenodd;fill:rgb(96.862745%,77.64706%,0%);fill-opacity:1;stroke-width:0.575;stroke-linecap:butt;stroke-linejoin:miter;stroke:rgb(0%,0%,0%);stroke-opacity:1;stroke-miterlimit:4;" d="M 80.931665 156.708406 C 80.931665 157.672354 80.146226 158.422091 79.21798 158.422091 C 78.289734 158.422091 77.504295 157.672354 77.504295 156.708406 C 77.504295 155.78016 78.289734 155.030423 79.21798 155.030423 C 80.146226 155.030423 80.931665 155.78016 80.931665 156.708406 Z M 80.931665 156.708406 " transform="matrix(0.109413,0,0,0.109413,14.621558,13.631352)"/>
<path style="fill-rule:evenodd;fill:rgb(96.862745%,77.64706%,0%);fill-opacity:1;stroke-width:0.625;stroke-linecap:butt;stroke-linejoin:miter;stroke:rgb(0%,0%,0%);stroke-opacity:1;stroke-miterlimit:4;" d="M 71.538312 180.676021 L 86.013629 180.714829 C 86.013629 180.714829 86.246476 178.813246 84.500124 177.687819 C 92.06765 176.640008 90.127258 169.965062 96.452933 169.576984 C 97.694784 169.771023 93.154269 172.409955 93.154269 172.409955 C 93.154269 172.409955 89.312294 175.126503 91.058646 176.484777 C 92.455728 177.571396 93.037845 175.825044 93.231884 174.505578 C 93.425923 173.186112 99.402328 172.33234 98.548556 168.529173 C 97.112666 165.385739 88.768985 170.624795 88.768985 170.624795 L 82.831388 170.585988 C 82.482117 169.926255 80.813381 167.248515 79.144645 167.209707 C 77.126638 167.287323 75.729556 170.624795 75.729556 170.624795 L 62.263242 170.624795 C 62.263242 170.624795 61.797548 174.078692 68.627725 174.738425 C 70.14123 176.756431 71.344273 177.299741 72.663738 177.804242 C 71.771159 178.541591 71.538312 179.472979 71.538312 180.676021 Z M 71.538312 180.676021 " transform="matrix(0.100656,0,0,0.100656,15.322659,14.130235)"/>
<path style="fill:none;stroke-width:0.625;stroke-linecap:butt;stroke-linejoin:miter;stroke:rgb(0%,0%,0%);stroke-opacity:1;stroke-miterlimit:4;" d="M 72.586123 177.726627 L 84.655356 177.687819 " transform="matrix(0.100656,0,0,0.100656,15.322659,14.130235)"/>
<path style="fill:none;stroke-width:0.625;stroke-linecap:butt;stroke-linejoin:miter;stroke:rgb(0%,0%,0%);stroke-opacity:1;stroke-miterlimit:4;" d="M 67.075412 170.624795 C 67.075412 170.624795 68.045608 176.25193 72.469699 177.571396 " transform="matrix(0.100656,0,0,0.100656,15.322659,14.130235)"/>
<path style="fill-rule:evenodd;fill:url(#linear0);stroke-width:0.625;stroke-linecap:butt;stroke-linejoin:miter;stroke:rgb(0%,0%,0%);stroke-opacity:1;stroke-miterlimit:4;" d="M 66.338064 170.54718 C 66.76495 168.373942 67.579914 168.024671 68.472494 165.269316 C 68.627725 162.591576 66.338064 162.902039 66.997796 161.194495 C 68.162031 159.331719 67.579914 157.546559 65.367868 156.149478 C 65.794754 158.594371 62.457281 160.884032 62.457281 162.902039 C 62.457281 164.920046 64.164825 164.454352 63.931979 167.481362 C 64.08721 169.266522 63.505092 168.839636 63.349861 170.54718 Z M 66.338064 170.54718 " transform="matrix(0.100656,0,0,0.100656,15.322659,14.130235)"/>
<path style="fill-rule:evenodd;fill:rgb(96.862745%,77.64706%,0%);fill-opacity:1;stroke-width:0.625;stroke-linecap:butt;stroke-linejoin:miter;stroke:rgb(0%,0%,0%);stroke-opacity:1;stroke-miterlimit:4;" d="M 80.926375 156.713411 C 80.926375 157.644799 80.150219 158.420955 79.218831 158.420955 C 78.287443 158.420955 77.511287 157.644799 77.511287 156.713411 C 77.511287 155.782023 78.287443 155.005867 79.218831 155.005867 C 80.150219 155.005867 80.926375 155.782023 80.926375 156.713411 Z M 80.926375 156.713411 " transform="matrix(0.100656,0,0,0.100656,15.315192,14.175034)"/>
<path style="fill:none;stroke-width:1.25;stroke-linecap:butt;stroke-linejoin:miter;stroke:rgb(96.862745%,77.64706%,0%);stroke-opacity:1;stroke-miterlimit:4;" d="M 69.776478 170.515358 L 79.129163 156.816197 L 88.520656 170.554166 " transform="matrix(0.100656,0,0,0.100656,15.26953,11.289688)"/>
<path style="fill-rule:evenodd;fill:rgb(96.862745%,77.64706%,0%);fill-opacity:1;stroke-width:0.575;stroke-linecap:butt;stroke-linejoin:miter;stroke:rgb(0%,0%,0%);stroke-opacity:1;stroke-miterlimit:4;" d="M 80.917422 156.714833 C 80.917422 157.678781 80.167685 158.428518 79.203737 158.428518 C 78.275491 158.428518 77.525754 157.678781 77.525754 156.714833 C 77.525754 155.786587 78.275491 155.001148 79.203737 155.001148 C 80.167685 155.001148 80.917422 155.786587 80.917422 156.714833 Z M 80.917422 156.714833 " transform="matrix(0.109413,0,0,0.109413,14.568429,10.790805)"/>
<path style="fill-rule:evenodd;fill:rgb(96.862745%,77.64706%,0%);fill-opacity:1;stroke-width:0.625;stroke-linecap:butt;stroke-linejoin:miter;stroke:rgb(0%,0%,0%);stroke-opacity:1;stroke-miterlimit:4;" d="M 71.52283 180.6442 L 85.998148 180.683008 C 85.998148 180.683008 86.230995 178.820232 84.484643 177.694805 C 92.090976 176.646994 90.111777 169.933241 96.47626 169.583971 C 97.679302 169.77801 93.138787 172.416942 93.138787 172.416942 C 93.138787 172.416942 89.335621 175.133489 91.043165 176.491763 C 92.440246 177.578382 93.061171 175.83203 93.255211 174.512564 C 93.44925 173.193098 99.386846 172.339326 98.533074 168.536159 C 97.135993 165.392726 88.792311 170.631782 88.792311 170.631782 L 82.854714 170.592974 C 82.466636 169.933241 80.836708 167.255501 79.129163 167.216693 C 77.111157 167.294309 75.714075 170.631782 75.714075 170.631782 L 62.247761 170.631782 C 62.247761 170.631782 61.782067 174.085678 68.612244 174.745411 C 70.164556 176.72461 71.328791 177.306727 72.687065 177.811229 C 71.794485 178.548577 71.52283 179.441157 71.52283 180.6442 Z M 71.52283 180.6442 " transform="matrix(0.100656,0,0,0.100656,15.26953,11.289688)"/>
<path style="fill:none;stroke-width:0.625;stroke-linecap:butt;stroke-linejoin:miter;stroke:rgb(0%,0%,0%);stroke-opacity:1;stroke-miterlimit:4;" d="M 72.570641 177.733613 L 84.639874 177.694805 " transform="matrix(0.100656,0,0,0.100656,15.26953,11.289688)"/>
<path style="fill:none;stroke-width:0.625;stroke-linecap:butt;stroke-linejoin:miter;stroke:rgb(0%,0%,0%);stroke-opacity:1;stroke-miterlimit:4;" d="M 67.059931 170.592974 C 67.059931 170.592974 68.030126 176.258916 72.493026 177.578382 " transform="matrix(0.100656,0,0,0.100656,15.26953,11.289688)"/>
<path style="fill-rule:evenodd;fill:url(#linear1);stroke-width:0.625;stroke-linecap:butt;stroke-linejoin:miter;stroke:rgb(0%,0%,0%);stroke-opacity:1;stroke-miterlimit:4;" d="M 66.322582 170.554166 C 66.749468 168.380928 67.564432 168.031658 68.457012 165.276302 C 68.612244 162.598563 66.322582 162.909025 66.982315 161.201481 C 68.185358 159.338705 67.564432 157.553546 65.352387 156.156464 C 65.81808 158.601357 62.480608 160.891018 62.480608 162.909025 C 62.480608 164.888224 64.149344 164.461338 63.955305 167.488348 C 64.110536 169.273508 63.489611 168.846622 63.33438 170.554166 Z M 66.322582 170.554166 " transform="matrix(0.100656,0,0,0.100656,15.26953,11.289688)"/>
<path style="fill-rule:evenodd;fill:rgb(96.862745%,77.64706%,0%);fill-opacity:1;stroke-width:0.625;stroke-linecap:butt;stroke-linejoin:miter;stroke:rgb(0%,0%,0%);stroke-opacity:1;stroke-miterlimit:4;" d="M 80.910894 156.720397 C 80.910894 157.651785 80.173545 158.427942 79.203349 158.427942 C 78.271962 158.427942 77.495805 157.651785 77.495805 156.720397 C 77.495805 155.78901 78.271962 155.012853 79.203349 155.012853 C 80.173545 155.012853 80.910894 155.78901 80.910894 156.720397 Z M 80.910894 156.720397 " transform="matrix(0.100656,0,0,0.100656,15.262063,11.334487)"/>
<path style="fill:none;stroke-width:1.25;stroke-linecap:butt;stroke-linejoin:miter;stroke:rgb(96.862745%,77.64706%,0%);stroke-opacity:1;stroke-miterlimit:4;" d="M 69.791979 170.516912 L 79.105856 156.817751 L 88.497349 170.55572 " transform="matrix(0.100656,0,0,0.100656,25.252345,8.7075)"/>
<path style="fill-rule:evenodd;fill:rgb(96.862745%,77.64706%,0%);fill-opacity:1;stroke-width:0.575;stroke-linecap:butt;stroke-linejoin:miter;stroke:rgb(0%,0%,0%);stroke-opacity:1;stroke-miterlimit:4;" d="M 80.931682 156.716263 C 80.931682 157.644509 80.146243 158.429947 79.217997 158.429947 C 78.289751 158.429947 77.504312 157.644509 77.504312 156.716263 C 77.504312 155.788017 78.289751 155.002578 79.217997 155.002578 C 80.146243 155.002578 80.931682 155.788017 80.931682 156.716263 Z M 80.931682 156.716263 " transform="matrix(0.109413,0,0,0.109413,24.551244,8.208618)"/>
<path style="fill-rule:evenodd;fill:rgb(96.862745%,77.64706%,0%);fill-opacity:1;stroke-width:0.625;stroke-linecap:butt;stroke-linejoin:miter;stroke:rgb(0%,0%,0%);stroke-opacity:1;stroke-miterlimit:4;" d="M 71.538331 180.645754 L 86.013648 180.684561 C 86.013648 180.684561 86.246495 178.821786 84.500143 177.696359 C 92.067668 176.648548 90.127277 169.934795 96.452952 169.585524 C 97.694803 169.779563 93.154287 172.418495 93.154287 172.418495 C 93.154287 172.418495 89.312313 175.135043 91.058665 176.493317 C 92.455747 177.579936 93.037864 175.833584 93.231903 174.514118 C 93.425942 173.155844 99.402347 172.302072 98.548575 168.537713 C 97.112685 165.39428 88.769004 170.633336 88.769004 170.633336 L 82.831407 170.594528 C 82.482136 169.895987 80.8134 167.218247 79.144664 167.218247 C 77.126657 167.295863 75.729575 170.633336 75.729575 170.633336 L 62.263261 170.633336 C 62.263261 170.633336 61.797567 174.087232 68.627744 174.746965 C 70.141249 176.726164 71.344291 177.308281 72.663757 177.812783 C 71.771178 178.550131 71.538331 179.442711 71.538331 180.645754 Z M 71.538331 180.645754 " transform="matrix(0.100656,0,0,0.100656,25.252345,8.7075)"/>
<path style="fill:none;stroke-width:0.625;stroke-linecap:butt;stroke-linejoin:miter;stroke:rgb(0%,0%,0%);stroke-opacity:1;stroke-miterlimit:4;" d="M 72.586142 177.735167 L 84.655374 177.696359 " transform="matrix(0.100656,0,0,0.100656,25.252345,8.7075)"/>
<path style="fill:none;stroke-width:0.625;stroke-linecap:butt;stroke-linejoin:miter;stroke:rgb(0%,0%,0%);stroke-opacity:1;stroke-miterlimit:4;" d="M 67.075431 170.594528 C 67.075431 170.594528 68.045627 176.26047 72.469718 177.579936 " transform="matrix(0.100656,0,0,0.100656,25.252345,8.7075)"/>
<path style="fill-rule:evenodd;fill:url(#linear2);stroke-width:0.625;stroke-linecap:butt;stroke-linejoin:miter;stroke:rgb(0%,0%,0%);stroke-opacity:1;stroke-miterlimit:4;" d="M 66.338082 170.55572 C 66.764968 168.382482 67.579933 168.033211 68.472513 165.277856 C 68.627744 162.600116 66.338082 162.910579 66.997815 161.203035 C 68.16205 159.340259 67.579933 157.5551 65.367887 156.158018 C 65.794773 158.602911 62.4573 160.892572 62.4573 162.910579 C 62.4573 164.889778 64.164844 164.462892 63.931997 167.489902 C 64.087229 169.275062 63.505111 168.848176 63.34988 170.55572 Z M 66.338082 170.55572 " transform="matrix(0.100656,0,0,0.100656,25.252345,8.7075)"/>
<path style="fill-rule:evenodd;fill:rgb(96.862745%,77.64706%,0%);fill-opacity:1;stroke-width:0.625;stroke-linecap:butt;stroke-linejoin:miter;stroke:rgb(0%,0%,0%);stroke-opacity:1;stroke-miterlimit:4;" d="M 80.926394 156.721951 C 80.926394 157.653339 80.150237 158.429495 79.21885 158.429495 C 78.287462 158.429495 77.511306 157.653339 77.511306 156.721951 C 77.511306 155.790564 78.287462 155.014407 79.21885 155.014407 C 80.150237 155.014407 80.926394 155.790564 80.926394 156.721951 Z M 80.926394 156.721951 " transform="matrix(0.100656,0,0,0.100656,25.244877,8.752299)"/>
<path style="fill:none;stroke-width:1.25;stroke-linecap:butt;stroke-linejoin:miter;stroke:rgb(96.862745%,77.64706%,0%);stroke-opacity:1;stroke-miterlimit:4;" d="M 69.791969 170.512022 L 79.105846 156.812861 L 88.497339 170.55083 " transform="matrix(0.100656,0,0,0.100656,15.502346,5.946274)"/>
<path style="fill-rule:evenodd;fill:rgb(96.862745%,77.64706%,0%);fill-opacity:1;stroke-width:0.575;stroke-linecap:butt;stroke-linejoin:miter;stroke:rgb(0%,0%,0%);stroke-opacity:1;stroke-miterlimit:4;" d="M 80.931673 156.711764 C 80.931673 157.675711 80.146234 158.425449 79.217988 158.425449 C 78.289742 158.425449 77.504304 157.675711 77.504304 156.711764 C 77.504304 155.783518 78.289742 154.998079 79.217988 154.998079 C 80.146234 154.998079 80.931673 155.783518 80.931673 156.711764 Z M 80.931673 156.711764 " transform="matrix(0.109413,0,0,0.109413,14.801245,5.447391)"/>
<path style="fill-rule:evenodd;fill:rgb(96.862745%,77.64706%,0%);fill-opacity:1;stroke-width:0.625;stroke-linecap:butt;stroke-linejoin:miter;stroke:rgb(0%,0%,0%);stroke-opacity:1;stroke-miterlimit:4;" d="M 71.538321 180.640863 L 86.013639 180.718479 C 86.013639 180.718479 86.246486 178.816896 84.500134 177.691469 C 92.067659 176.643658 90.127268 169.968712 96.452943 169.580634 C 97.694793 169.774673 93.154278 172.413605 93.154278 172.413605 C 93.154278 172.413605 89.312304 175.130153 91.058656 176.488426 C 92.455737 177.575045 93.037855 175.828693 93.231894 174.509228 C 93.425933 173.189762 99.402337 172.335989 98.548565 168.532823 C 97.112676 165.389389 88.768994 170.628445 88.768994 170.628445 L 82.831397 170.589638 C 82.482127 169.929905 80.813391 167.252165 79.144654 167.213357 C 77.126648 167.290973 75.729566 170.628445 75.729566 170.628445 L 62.263252 170.628445 C 62.263252 170.628445 61.797558 174.082341 68.627734 174.742074 C 70.14124 176.721273 71.344282 177.303391 72.663748 177.807892 C 71.771168 178.545241 71.538321 179.437821 71.538321 180.640863 Z M 71.538321 180.640863 " transform="matrix(0.100656,0,0,0.100656,15.502346,5.946274)"/>
<path style="fill:none;stroke-width:0.625;stroke-linecap:butt;stroke-linejoin:miter;stroke:rgb(0%,0%,0%);stroke-opacity:1;stroke-miterlimit:4;" d="M 72.586132 177.730277 L 84.655365 177.691469 " transform="matrix(0.100656,0,0,0.100656,15.502346,5.946274)"/>
<path style="fill:none;stroke-width:0.625;stroke-linecap:butt;stroke-linejoin:miter;stroke:rgb(0%,0%,0%);stroke-opacity:1;stroke-miterlimit:4;" d="M 67.075422 170.628445 C 67.075422 170.628445 68.045617 176.25558 72.469709 177.575045 " transform="matrix(0.100656,0,0,0.100656,15.502346,5.946274)"/>
<path style="fill-rule:evenodd;fill:url(#linear3);stroke-width:0.625;stroke-linecap:butt;stroke-linejoin:miter;stroke:rgb(0%,0%,0%);stroke-opacity:1;stroke-miterlimit:4;" d="M 66.338073 170.55083 C 66.764959 168.377592 67.579923 168.028321 68.472503 165.272966 C 68.627734 162.595226 66.338073 162.905689 66.997806 161.198145 C 68.162041 159.335369 67.579923 157.550209 65.367877 156.153128 C 65.794763 158.598021 62.457291 160.887682 62.457291 162.905689 C 62.457291 164.884888 64.164835 164.458002 63.931988 167.485012 C 64.087219 169.270172 63.505102 168.843286 63.349871 170.55083 Z M 66.338073 170.55083 " transform="matrix(0.100656,0,0,0.100656,15.502346,5.946274)"/>
<path style="fill-rule:evenodd;fill:rgb(96.862745%,77.64706%,0%);fill-opacity:1;stroke-width:0.625;stroke-linecap:butt;stroke-linejoin:miter;stroke:rgb(0%,0%,0%);stroke-opacity:1;stroke-miterlimit:4;" d="M 80.926384 156.717061 C 80.926384 157.648449 80.150228 158.424605 79.21884 158.424605 C 78.287453 158.424605 77.511296 157.648449 77.511296 156.717061 C 77.511296 155.785673 78.287453 155.009517 79.21884 155.009517 C 80.150228 155.009517 80.926384 155.785673 80.926384 156.717061 Z M 80.926384 156.717061 " transform="matrix(0.100656,0,0,0.100656,15.494878,5.991073)"/>
<path style="fill:none;stroke-width:1.25;stroke-linecap:butt;stroke-linejoin:miter;stroke:rgb(96.862745%,77.64706%,0%);stroke-opacity:1;stroke-miterlimit:4;" d="M 69.776478 170.541748 L 79.129163 156.803779 L 88.520656 170.541748 " transform="matrix(0.100656,0,0,0.100656,15.523436,3.232344)"/>
<path style="fill-rule:evenodd;fill:rgb(96.862745%,77.64706%,0%);fill-opacity:1;stroke-width:0.575;stroke-linecap:butt;stroke-linejoin:miter;stroke:rgb(0%,0%,0%);stroke-opacity:1;stroke-miterlimit:4;" d="M 80.917422 156.703409 C 80.917422 157.667357 80.167685 158.417094 79.203737 158.417094 C 78.275491 158.417094 77.525754 157.667357 77.525754 156.703409 C 77.525754 155.775163 78.275491 155.025426 79.203737 155.025426 C 80.167685 155.025426 80.917422 155.775163 80.917422 156.703409 Z M 80.917422 156.703409 " transform="matrix(0.109413,0,0,0.109413,14.822335,2.733461)"/>
<path style="fill-rule:evenodd;fill:rgb(96.862745%,77.64706%,0%);fill-opacity:1;stroke-width:0.625;stroke-linecap:butt;stroke-linejoin:miter;stroke:rgb(0%,0%,0%);stroke-opacity:1;stroke-miterlimit:4;" d="M 71.52283 180.67059 L 85.998148 180.709398 C 85.998148 180.709398 86.230995 178.807814 84.484643 177.682387 C 92.090976 176.634576 90.111777 169.959631 96.47626 169.571553 C 97.679302 169.765592 93.138787 172.404524 93.138787 172.404524 C 93.138787 172.404524 89.335621 175.121071 91.043165 176.479345 C 92.440246 177.565964 93.061171 175.819612 93.255211 174.500146 C 93.44925 173.18068 99.386846 172.326908 98.533074 168.523741 C 97.135993 165.419116 88.792311 170.619364 88.792311 170.619364 L 82.854714 170.580556 C 82.466636 169.920823 80.836708 167.243083 79.129163 167.243083 C 77.111157 167.281891 75.714075 170.619364 75.714075 170.619364 L 62.247761 170.619364 C 62.247761 170.619364 61.782067 174.07326 68.612244 174.732993 C 70.164556 176.751 71.328791 177.294309 72.687065 177.798811 C 71.794485 178.574967 71.52283 179.467547 71.52283 180.67059 Z M 71.52283 180.67059 " transform="matrix(0.100656,0,0,0.100656,15.523436,3.232344)"/>
<path style="fill:none;stroke-width:0.625;stroke-linecap:butt;stroke-linejoin:miter;stroke:rgb(0%,0%,0%);stroke-opacity:1;stroke-miterlimit:4;" d="M 72.570641 177.721195 L 84.639874 177.682387 " transform="matrix(0.100656,0,0,0.100656,15.523436,3.232344)"/>
<path style="fill:none;stroke-width:0.625;stroke-linecap:butt;stroke-linejoin:miter;stroke:rgb(0%,0%,0%);stroke-opacity:1;stroke-miterlimit:4;" d="M 67.059931 170.619364 C 67.059931 170.619364 68.030126 176.246498 72.493026 177.565964 " transform="matrix(0.100656,0,0,0.100656,15.523436,3.232344)"/>
<path style="fill-rule:evenodd;fill:url(#linear4);stroke-width:0.625;stroke-linecap:butt;stroke-linejoin:miter;stroke:rgb(0%,0%,0%);stroke-opacity:1;stroke-miterlimit:4;" d="M 66.322582 170.541748 C 66.749468 168.407318 67.564432 168.01924 68.457012 165.263884 C 68.612244 162.586145 66.322582 162.896607 66.982315 161.189063 C 68.185358 159.326288 67.564432 157.541128 65.352387 156.144046 C 65.81808 158.588939 62.480608 160.8786 62.480608 162.896607 C 62.480608 164.914614 64.149344 164.44892 63.955305 167.514738 C 64.110536 169.26109 63.489611 168.834204 63.33438 170.541748 Z M 66.322582 170.541748 " transform="matrix(0.100656,0,0,0.100656,15.523436,3.232344)"/>
<path style="fill-rule:evenodd;fill:rgb(96.862745%,77.64706%,0%);fill-opacity:1;stroke-width:0.625;stroke-linecap:butt;stroke-linejoin:miter;stroke:rgb(0%,0%,0%);stroke-opacity:1;stroke-miterlimit:4;" d="M 80.910894 156.70798 C 80.910894 157.678175 80.173545 158.415524 79.203349 158.415524 C 78.271962 158.415524 77.495805 157.678175 77.495805 156.70798 C 77.495805 155.776592 78.271962 155.000435 79.203349 155.000435 C 80.173545 155.000435 80.910894 155.776592 80.910894 156.70798 Z M 80.910894 156.70798 " transform="matrix(0.100656,0,0,0.100656,15.515969,3.277143)"/>
<path style="fill:none;stroke-width:1.25;stroke-linecap:butt;stroke-linejoin:miter;stroke:rgb(96.862745%,77.64706%,0%);stroke-opacity:1;stroke-miterlimit:4;" d="M 69.76869 170.538647 L 79.121375 156.800678 L 88.512868 170.577455 " transform="matrix(0.100656,0,0,0.100656,15.575001,0.47875)"/>
<path style="fill-rule:evenodd;fill:rgb(96.862745%,77.64706%,0%);fill-opacity:1;stroke-width:0.575;stroke-linecap:butt;stroke-linejoin:miter;stroke:rgb(0%,0%,0%);stroke-opacity:1;stroke-miterlimit:4;" d="M 80.910257 156.736258 C 80.910257 157.664504 80.16052 158.414241 79.232274 158.414241 C 78.268327 158.414241 77.518589 157.664504 77.518589 156.736258 C 77.518589 155.77231 78.268327 155.022573 79.232274 155.022573 C 80.16052 155.022573 80.910257 155.77231 80.910257 156.736258 Z M 80.910257 156.736258 " transform="matrix(0.109413,0,0,0.109413,14.8739,-0.0201327)"/>
<path style="fill-rule:evenodd;fill:rgb(96.862745%,77.64706%,0%);fill-opacity:1;stroke-width:0.625;stroke-linecap:butt;stroke-linejoin:miter;stroke:rgb(0%,0%,0%);stroke-opacity:1;stroke-miterlimit:4;" d="M 71.55385 180.667488 L 86.029168 180.706296 C 86.029168 180.706296 86.223207 178.804713 84.515663 177.679286 C 92.083188 176.631475 90.103989 169.956529 96.468472 169.568451 C 97.710322 169.76249 93.130999 172.401422 93.130999 172.401422 C 93.130999 172.401422 89.327832 175.11797 91.074184 176.476243 C 92.432458 177.562863 93.053383 175.816511 93.247422 174.497045 C 93.441462 173.177579 99.417866 172.323807 98.564094 168.52064 C 97.128205 165.416014 88.784523 170.616262 88.784523 170.616262 L 82.846926 170.577455 C 82.458848 169.917722 80.828919 167.239982 79.121375 167.239982 C 77.142176 167.317597 75.706287 170.616262 75.706287 170.616262 L 62.239973 170.616262 C 62.239973 170.616262 61.813087 174.070159 68.604455 174.729892 C 70.156768 176.747898 71.359811 177.291208 72.679277 177.834517 C 71.786697 178.571866 71.55385 179.464446 71.55385 180.667488 Z M 71.55385 180.667488 " transform="matrix(0.100656,0,0,0.100656,15.575001,0.47875)"/>
<path style="fill:none;stroke-width:0.625;stroke-linecap:butt;stroke-linejoin:miter;stroke:rgb(0%,0%,0%);stroke-opacity:1;stroke-miterlimit:4;" d="M 72.601661 177.718094 L 84.632086 177.679286 " transform="matrix(0.100656,0,0,0.100656,15.575001,0.47875)"/>
<path style="fill:none;stroke-width:0.625;stroke-linecap:butt;stroke-linejoin:miter;stroke:rgb(0%,0%,0%);stroke-opacity:1;stroke-miterlimit:4;" d="M 67.052143 170.616262 C 67.052143 170.616262 68.022338 176.243397 72.485238 177.60167 " transform="matrix(0.100656,0,0,0.100656,15.575001,0.47875)"/>
<path style="fill-rule:evenodd;fill:url(#linear5);stroke-width:0.625;stroke-linecap:butt;stroke-linejoin:miter;stroke:rgb(0%,0%,0%);stroke-opacity:1;stroke-miterlimit:4;" d="M 66.314794 170.538647 C 66.780488 168.404217 67.595452 168.016138 68.488032 165.260783 C 68.604455 162.583043 66.314794 162.893506 66.974527 161.185962 C 68.177569 159.323186 67.595452 157.576834 65.344598 156.140945 C 65.810292 158.585838 62.47282 160.914307 62.47282 162.893506 C 62.47282 164.911513 64.180364 164.445819 63.947517 167.511637 C 64.102748 169.296796 63.481823 168.831103 63.365399 170.538647 Z M 66.314794 170.538647 " transform="matrix(0.100656,0,0,0.100656,15.575001,0.47875)"/>
<path style="fill-rule:evenodd;fill:rgb(96.862745%,77.64706%,0%);fill-opacity:1;stroke-width:0.625;stroke-linecap:butt;stroke-linejoin:miter;stroke:rgb(0%,0%,0%);stroke-opacity:1;stroke-miterlimit:4;" d="M 80.903105 156.704878 C 80.903105 157.675074 80.165757 158.412422 79.234369 158.412422 C 78.264174 158.412422 77.526825 157.675074 77.526825 156.704878 C 77.526825 155.77349 78.264174 154.997334 79.234369 154.997334 C 80.165757 154.997334 80.903105 155.77349 80.903105 156.704878 Z M 80.903105 156.704878 " transform="matrix(0.100656,0,0,0.100656,15.567534,0.523549)"/>
<path style="fill:none;stroke-width:1.25;stroke-linecap:butt;stroke-linejoin:miter;stroke:rgb(96.862745%,77.64706%,0%);stroke-opacity:1;stroke-miterlimit:4;" d="M 69.791969 170.520015 L 79.105846 156.820854 L 88.497339 170.558823 " transform="matrix(0.100656,0,0,0.100656,25.326564,0.523594)"/>
<path style="fill-rule:evenodd;fill:rgb(96.862745%,77.64706%,0%);fill-opacity:1;stroke-width:0.575;stroke-linecap:butt;stroke-linejoin:miter;stroke:rgb(0%,0%,0%);stroke-opacity:1;stroke-miterlimit:4;" d="M 80.931673 156.719117 C 80.931673 157.647363 80.146234 158.432802 79.217988 158.432802 C 78.289742 158.432802 77.504304 157.647363 77.504304 156.719117 C 77.504304 155.790871 78.289742 155.005432 79.217988 155.005432 C 80.146234 155.005432 80.931673 155.790871 80.931673 156.719117 Z M 80.931673 156.719117 " transform="matrix(0.109413,0,0,0.109413,24.625463,0.0247115)"/>
<path style="fill-rule:evenodd;fill:rgb(96.862745%,77.64706%,0%);fill-opacity:1;stroke-width:0.625;stroke-linecap:butt;stroke-linejoin:miter;stroke:rgb(0%,0%,0%);stroke-opacity:1;stroke-miterlimit:4;" d="M 71.538321 180.648857 L 86.013639 180.687664 C 86.013639 180.687664 86.246486 178.824889 84.500134 177.699462 C 92.067659 176.651651 90.127268 169.937898 96.452943 169.588627 C 97.694793 169.743859 93.154278 172.421598 93.154278 172.421598 C 93.154278 172.421598 89.312304 175.099338 91.058656 176.49642 C 92.455737 177.583039 93.037855 175.836687 93.231894 174.517221 C 93.425933 173.158947 99.402337 172.305175 98.548565 168.540816 C 97.112676 165.397382 88.768994 170.597631 88.768994 170.597631 L 82.831397 170.597631 C 82.482127 169.89909 80.813391 167.22135 79.144654 167.22135 C 77.126648 167.298966 75.729566 170.597631 75.729566 170.597631 L 62.263252 170.597631 C 62.263252 170.597631 61.797558 174.051527 68.627734 174.750068 C 70.14124 176.729267 71.344282 177.311384 72.663748 177.815886 C 71.771168 178.553234 71.538321 179.445814 71.538321 180.648857 Z M 71.538321 180.648857 " transform="matrix(0.100656,0,0,0.100656,25.326564,0.523594)"/>
<path style="fill:none;stroke-width:0.625;stroke-linecap:butt;stroke-linejoin:miter;stroke:rgb(0%,0%,0%);stroke-opacity:1;stroke-miterlimit:4;" d="M 72.586132 177.73827 L 84.655365 177.660654 " transform="matrix(0.100656,0,0,0.100656,25.326564,0.523594)"/>
<path style="fill:none;stroke-width:0.625;stroke-linecap:butt;stroke-linejoin:miter;stroke:rgb(0%,0%,0%);stroke-opacity:1;stroke-miterlimit:4;" d="M 67.075422 170.597631 C 67.075422 170.597631 68.045617 176.263573 72.469709 177.583039 " transform="matrix(0.100656,0,0,0.100656,25.326564,0.523594)"/>
<path style="fill-rule:evenodd;fill:url(#linear6);stroke-width:0.625;stroke-linecap:butt;stroke-linejoin:miter;stroke:rgb(0%,0%,0%);stroke-opacity:1;stroke-miterlimit:4;" d="M 66.338073 170.558823 C 66.764959 168.385585 67.579923 168.036314 68.472503 165.280959 C 68.627734 162.603219 66.338073 162.913682 66.997806 161.206138 C 68.162041 159.343362 67.579923 157.558202 65.367877 156.161121 C 65.794763 158.606014 62.457291 160.895675 62.457291 162.913682 C 62.457291 164.892881 64.164835 164.465995 63.931988 167.493005 C 64.087219 169.278165 63.505102 168.851279 63.349871 170.558823 Z M 66.338073 170.558823 " transform="matrix(0.100656,0,0,0.100656,25.326564,0.523594)"/>
<path style="fill-rule:evenodd;fill:rgb(96.862745%,77.64706%,0%);fill-opacity:1;stroke-width:0.625;stroke-linecap:butt;stroke-linejoin:miter;stroke:rgb(0%,0%,0%);stroke-opacity:1;stroke-miterlimit:4;" d="M 80.926384 156.725054 C 80.926384 157.656442 80.150228 158.432598 79.21884 158.432598 C 78.287453 158.432598 77.511296 157.656442 77.511296 156.725054 C 77.511296 155.793666 78.287453 155.01751 79.21884 155.01751 C 80.150228 155.01751 80.926384 155.793666 80.926384 156.725054 Z M 80.926384 156.725054 " transform="matrix(0.100656,0,0,0.100656,25.319097,0.568393)"/>
<path style="fill:none;stroke-width:1.25;stroke-linecap:butt;stroke-linejoin:miter;stroke:rgb(96.862745%,77.64706%,0%);stroke-opacity:1;stroke-miterlimit:4;" d="M 69.784219 170.520792 L 79.136904 156.821631 L 88.489589 170.5596 " transform="matrix(0.100656,0,0,0.100656,25.237501,3.226641)"/>
<path style="fill-rule:evenodd;fill:rgb(96.862745%,77.64706%,0%);fill-opacity:1;stroke-width:0.575;stroke-linecap:butt;stroke-linejoin:miter;stroke:rgb(0%,0%,0%);stroke-opacity:1;stroke-miterlimit:4;" d="M 80.924543 156.719832 C 80.924543 157.648078 80.174806 158.433517 79.210858 158.433517 C 78.282613 158.433517 77.497174 157.648078 77.497174 156.719832 C 77.497174 155.791586 78.282613 155.006147 79.210858 155.006147 C 80.174806 155.006147 80.924543 155.791586 80.924543 156.719832 Z M 80.924543 156.719832 " transform="matrix(0.109413,0,0,0.109413,24.5364,2.727758)"/>
<path style="fill-rule:evenodd;fill:rgb(96.862745%,77.64706%,0%);fill-opacity:1;stroke-width:0.625;stroke-linecap:butt;stroke-linejoin:miter;stroke:rgb(0%,0%,0%);stroke-opacity:1;stroke-miterlimit:4;" d="M 71.530571 180.649633 L 86.005889 180.688441 C 86.005889 180.688441 86.238735 178.825666 84.492383 177.700239 C 92.098717 176.652428 90.119518 169.938675 96.445193 169.589404 C 97.687043 169.744635 93.146528 172.422375 93.146528 172.422375 C 93.146528 172.422375 89.304553 175.100115 91.050905 176.497196 C 92.447987 177.583816 93.068912 175.837464 93.224143 174.517998 C 93.418183 173.159724 99.394587 172.305952 98.540815 168.541593 C 97.143733 165.398159 88.800052 170.598408 88.800052 170.598408 L 82.823647 170.598408 C 82.474377 169.899867 80.844448 167.222127 79.136904 167.222127 C 77.118897 167.299743 75.721816 170.598408 75.721816 170.598408 L 62.255501 170.598408 C 62.255501 170.598408 61.789808 174.052304 68.619984 174.712037 C 70.133489 176.730043 71.336532 177.312161 72.694806 177.816662 C 71.802226 178.554011 71.530571 179.446591 71.530571 180.649633 Z M 71.530571 180.649633 " transform="matrix(0.100656,0,0,0.100656,25.237501,3.226641)"/>
<path style="fill:none;stroke-width:0.625;stroke-linecap:butt;stroke-linejoin:miter;stroke:rgb(0%,0%,0%);stroke-opacity:1;stroke-miterlimit:4;" d="M 72.578382 177.739047 L 84.647615 177.661431 " transform="matrix(0.100656,0,0,0.100656,25.237501,3.226641)"/>
<path style="fill:none;stroke-width:0.625;stroke-linecap:butt;stroke-linejoin:miter;stroke:rgb(0%,0%,0%);stroke-opacity:1;stroke-miterlimit:4;" d="M 67.067671 170.598408 C 67.067671 170.598408 68.037867 176.26435 72.461959 177.583816 " transform="matrix(0.100656,0,0,0.100656,25.237501,3.226641)"/>
<path style="fill-rule:evenodd;fill:url(#linear7);stroke-width:0.625;stroke-linecap:butt;stroke-linejoin:miter;stroke:rgb(0%,0%,0%);stroke-opacity:1;stroke-miterlimit:4;" d="M 66.330323 170.520792 C 66.757209 168.386362 67.572173 168.037091 68.464753 165.281736 C 68.619984 162.603996 66.330323 162.914459 66.990056 161.206915 C 68.193098 159.344139 67.572173 157.558979 65.360127 156.161898 C 65.787013 158.606791 62.449541 160.896452 62.449541 162.914459 C 62.449541 164.893658 64.157085 164.466772 63.963046 167.493782 C 64.079469 169.278942 63.497352 168.852056 63.34212 170.520792 Z M 66.330323 170.520792 " transform="matrix(0.100656,0,0,0.100656,25.237501,3.226641)"/>
<path style="fill-rule:evenodd;fill:rgb(96.862745%,77.64706%,0%);fill-opacity:1;stroke-width:0.625;stroke-linecap:butt;stroke-linejoin:miter;stroke:rgb(0%,0%,0%);stroke-opacity:1;stroke-miterlimit:4;" d="M 80.918634 156.725831 C 80.918634 157.657219 80.142478 158.433375 79.21109 158.433375 C 78.279702 158.433375 77.503546 157.657219 77.503546 156.725831 C 77.503546 155.794443 78.279702 155.018287 79.21109 155.018287 C 80.142478 155.018287 80.918634 155.794443 80.918634 156.725831 Z M 80.918634 156.725831 " transform="matrix(0.100656,0,0,0.100656,25.230033,3.27144)"/>
<path style="fill:none;stroke-width:1.25;stroke-linecap:butt;stroke-linejoin:miter;stroke:rgb(96.862745%,77.64706%,0%);stroke-opacity:1;stroke-miterlimit:4;" d="M 69.768671 170.548501 L 79.121356 156.810532 L 88.512849 170.548501 " transform="matrix(0.100656,0,0,0.100656,25.117972,5.989477)"/>
<path style="fill-rule:evenodd;fill:rgb(96.862745%,77.64706%,0%);fill-opacity:1;stroke-width:0.575;stroke-linecap:butt;stroke-linejoin:miter;stroke:rgb(0%,0%,0%);stroke-opacity:1;stroke-miterlimit:4;" d="M 80.91024 156.709622 C 80.91024 157.673569 80.160503 158.423307 79.232257 158.423307 C 78.268309 158.423307 77.518572 157.673569 77.518572 156.709622 C 77.518572 155.781376 78.268309 155.031639 79.232257 155.031639 C 80.160503 155.031639 80.91024 155.781376 80.91024 156.709622 Z M 80.91024 156.709622 " transform="matrix(0.109413,0,0,0.109413,24.416871,5.490594)"/>
<path style="fill-rule:evenodd;fill:rgb(96.862745%,77.64706%,0%);fill-opacity:1;stroke-width:0.625;stroke-linecap:butt;stroke-linejoin:miter;stroke:rgb(0%,0%,0%);stroke-opacity:1;stroke-miterlimit:4;" d="M 71.553831 180.677343 L 86.029149 180.716151 C 86.029149 180.716151 86.223188 178.814567 84.515644 177.68914 C 92.083169 176.641329 90.10397 169.966384 96.468453 169.578306 C 97.710303 169.772345 93.13098 172.411277 93.13098 172.411277 C 93.13098 172.411277 89.327813 175.127824 91.074165 176.486098 C 92.432439 177.572717 93.053364 175.826365 93.247404 174.506899 C 93.441443 173.187433 99.417847 172.333661 98.564075 168.530494 C 97.128186 165.387061 88.784504 170.626117 88.784504 170.626117 L 82.846907 170.587309 C 82.458829 169.927576 80.8289 167.249836 79.121356 167.211029 C 77.142157 167.288644 75.706268 170.626117 75.706268 170.626117 L 62.239954 170.626117 C 62.239954 170.626117 61.813068 174.080013 68.604437 174.739746 C 70.156749 176.718945 71.359792 177.301062 72.679258 177.805564 C 71.786678 178.542913 71.553831 179.4743 71.553831 180.677343 Z M 71.553831 180.677343 " transform="matrix(0.100656,0,0,0.100656,25.117972,5.989477)"/>
<path style="fill:none;stroke-width:0.625;stroke-linecap:butt;stroke-linejoin:miter;stroke:rgb(0%,0%,0%);stroke-opacity:1;stroke-miterlimit:4;" d="M 72.601642 177.727948 L 84.632067 177.68914 " transform="matrix(0.100656,0,0,0.100656,25.117972,5.989477)"/>
<path style="fill:none;stroke-width:0.625;stroke-linecap:butt;stroke-linejoin:miter;stroke:rgb(0%,0%,0%);stroke-opacity:1;stroke-miterlimit:4;" d="M 67.052124 170.626117 C 67.052124 170.626117 68.022319 176.253251 72.485219 177.572717 " transform="matrix(0.100656,0,0,0.100656,25.117972,5.989477)"/>
<path style="fill-rule:evenodd;fill:url(#linear8);stroke-width:0.625;stroke-linecap:butt;stroke-linejoin:miter;stroke:rgb(0%,0%,0%);stroke-opacity:1;stroke-miterlimit:4;" d="M 66.314775 170.548501 C 66.780469 168.375263 67.595433 168.025993 68.488013 165.270637 C 68.604437 162.592898 66.314775 162.90336 66.974508 161.195816 C 68.17755 159.333041 67.595433 157.547881 65.344579 156.150799 C 65.810273 158.595692 62.472801 160.885354 62.472801 162.90336 C 62.472801 164.921367 64.180345 164.455673 63.947498 167.482683 C 64.102729 169.267843 63.481804 168.840957 63.365381 170.548501 Z M 66.314775 170.548501 " transform="matrix(0.100656,0,0,0.100656,25.117972,5.989477)"/>
<path style="fill-rule:evenodd;fill:rgb(96.862745%,77.64706%,0%);fill-opacity:1;stroke-width:0.625;stroke-linecap:butt;stroke-linejoin:miter;stroke:rgb(0%,0%,0%);stroke-opacity:1;stroke-miterlimit:4;" d="M 80.903086 156.714733 C 80.903086 157.64612 80.165738 158.422277 79.23435 158.422277 C 78.264155 158.422277 77.526806 157.64612 77.526806 156.714733 C 77.526806 155.783345 78.264155 155.007188 79.23435 155.007188 C 80.165738 155.007188 80.903086 155.783345 80.903086 156.714733 Z M 80.903086 156.714733 " transform="matrix(0.100656,0,0,0.100656,25.110505,6.034276)"/>
<path style="fill:none;stroke-width:1.2884;stroke-linecap:butt;stroke-linejoin:miter;stroke:rgb(96.862745%,77.64706%,0%);stroke-opacity:1;stroke-miterlimit:4;" d="M 818.969989 330.272998 L 831.019989 312.572998 L 843.069989 330.272998 " transform="matrix(0.078125,0,0,0.078125,-31.720312,5.521641)"/>
<path style="fill-rule:evenodd;fill:rgb(96.862745%,77.64706%,0%);fill-opacity:1;stroke-width:0.80528;stroke-linecap:butt;stroke-linejoin:miter;stroke:rgb(0%,0%,0%);stroke-opacity:1;stroke-miterlimit:4;" d="M 833.419989 323.672998 C 833.419989 324.972998 832.319989 326.072998 831.019989 326.072998 C 829.719989 326.072998 828.619989 324.972998 828.619989 323.672998 C 828.619989 322.322998 829.719989 321.272998 831.019989 321.272998 C 832.319989 321.272998 833.419989 322.322998 833.419989 323.672998 Z M 833.419989 323.672998 " transform="matrix(0.078125,0,0,0.078125,-31.720312,5.521641)"/>
<path style="fill-rule:evenodd;fill:rgb(96.862745%,77.64706%,0%);fill-opacity:1;stroke-width:0.80525;stroke-linecap:butt;stroke-linejoin:miter;stroke:rgb(0%,0%,0%);stroke-opacity:1;stroke-miterlimit:4;" d="M 821.219989 343.322998 L 839.869989 343.372998 C 839.869989 343.372998 840.169989 340.922998 837.919989 339.472998 C 847.719989 338.122998 845.169989 329.522998 853.319989 329.022998 C 854.919989 329.272998 849.069989 332.672998 849.069989 332.672998 C 849.069989 332.672998 844.119989 336.172998 846.369989 337.922998 C 848.169989 339.322998 848.919989 337.072998 849.169989 335.372998 C 849.419989 333.672998 857.119989 332.572998 856.019989 327.672998 C 854.169989 323.672998 843.469989 330.372998 843.469989 330.372998 L 835.769989 330.322998 C 835.319989 329.472998 833.169989 326.022998 831.019989 326.022998 C 828.419989 326.072998 826.619989 330.372998 826.619989 330.372998 L 809.269989 330.372998 C 809.269989 330.372998 808.669989 334.822998 817.469989 335.672998 C 819.419989 338.272998 820.969989 338.972998 822.669989 339.622998 C 821.569989 340.622998 821.219989 341.772998 821.219989 343.322998 Z M 821.219989 343.322998 " transform="matrix(0.078125,0,0,0.078125,-31.720312,5.521641)"/>
<path style="fill:none;stroke-width:0.80525;stroke-linecap:butt;stroke-linejoin:miter;stroke:rgb(0%,0%,0%);stroke-opacity:1;stroke-miterlimit:4;" d="M 822.569989 339.522998 L 838.119989 339.472998 " transform="matrix(0.078125,0,0,0.078125,-31.720312,5.521641)"/>
<path style="fill:none;stroke-width:0.80525;stroke-linecap:butt;stroke-linejoin:miter;stroke:rgb(0%,0%,0%);stroke-opacity:1;stroke-miterlimit:4;" d="M 815.469989 330.372998 C 815.469989 330.372998 816.719989 337.622998 822.419989 339.372998 " transform="matrix(0.078125,0,0,0.078125,-31.720312,5.521641)"/>
<path style="fill-rule:evenodd;fill:url(#linear9);stroke-width:0.80525;stroke-linecap:butt;stroke-linejoin:miter;stroke:rgb(0%,0%,0%);stroke-opacity:1;stroke-miterlimit:4;" d="M 814.519989 330.272998 C 815.069989 327.522998 816.119989 327.022998 817.269989 323.472998 C 817.469989 320.022998 814.519989 320.422998 815.369989 318.222998 C 816.869989 315.822998 816.119989 313.522998 813.269989 311.722998 C 813.819989 314.872998 809.519989 317.822998 809.519989 320.422998 C 809.519989 323.022998 811.719989 322.422998 811.419989 326.372998 C 811.619989 328.622998 810.869989 328.072998 810.669989 330.272998 Z M 814.519989 330.272998 " transform="matrix(0.078125,0,0,0.078125,-31.720312,5.521641)"/>
<path style="fill-rule:evenodd;fill:rgb(96.862745%,77.64706%,0%);fill-opacity:1;stroke-width:0.80525;stroke-linecap:butt;stroke-linejoin:miter;stroke:rgb(0%,0%,0%);stroke-opacity:1;stroke-miterlimit:4;" d="M 833.219989 313.072998 C 833.219989 314.272998 832.219989 315.272998 831.019989 315.272998 C 829.819989 315.272998 828.819989 314.272998 828.819989 313.072998 C 828.819989 311.822998 829.819989 310.872998 831.019989 310.872998 C 832.219989 310.872998 833.219989 311.822998 833.219989 313.072998 Z M 833.219989 313.072998 " transform="matrix(0.078125,0,0,0.078125,-31.720312,5.521641)"/>
<path style="fill:none;stroke-width:1.25;stroke-linecap:butt;stroke-linejoin:miter;stroke:rgb(96.862745%,77.64706%,0%);stroke-opacity:1;stroke-miterlimit:4;" d="M 69.776459 170.524673 L 79.129144 156.825512 L 88.520637 170.563481 " transform="matrix(0.100656,0,0,0.100656,25.222657,11.425469)"/>
<path style="fill-rule:evenodd;fill:rgb(96.862745%,77.64706%,0%);fill-opacity:1;stroke-width:0.575;stroke-linecap:butt;stroke-linejoin:miter;stroke:rgb(0%,0%,0%);stroke-opacity:1;stroke-miterlimit:4;" d="M 80.917405 156.723402 C 80.917405 157.651648 80.167668 158.437087 79.20372 158.437087 C 78.275474 158.437087 77.525737 157.651648 77.525737 156.723402 C 77.525737 155.795156 78.275474 155.009717 79.20372 155.009717 C 80.167668 155.009717 80.917405 155.795156 80.917405 156.723402 Z M 80.917405 156.723402 " transform="matrix(0.109413,0,0,0.109413,24.521556,10.926586)"/>
<path style="fill-rule:evenodd;fill:rgb(96.862745%,77.64706%,0%);fill-opacity:1;stroke-width:0.625;stroke-linecap:butt;stroke-linejoin:miter;stroke:rgb(0%,0%,0%);stroke-opacity:1;stroke-miterlimit:4;" d="M 71.522811 180.653514 L 85.998129 180.692322 C 85.998129 180.692322 86.230976 178.829547 84.484624 177.665312 C 92.090957 176.656309 90.111758 169.942556 96.476241 169.554477 C 97.679283 169.748516 93.138768 172.426256 93.138768 172.426256 C 93.138768 172.426256 89.335602 175.103996 91.043146 176.501078 C 92.440227 177.587697 93.061152 175.841345 93.255192 174.483071 C 93.449231 173.163605 99.386827 172.309833 98.533055 168.545474 C 97.135974 165.40204 88.792292 170.602289 88.792292 170.602289 L 82.854695 170.563481 C 82.466617 169.903748 80.836689 167.226008 79.129144 167.226008 C 77.111138 167.303624 75.714056 170.602289 75.714056 170.602289 L 62.247742 170.602289 C 62.247742 170.602289 61.782048 174.056185 68.612225 174.715918 C 70.164537 176.733924 71.328772 177.316042 72.687046 177.820543 C 71.794466 178.557892 71.522811 179.450472 71.522811 180.653514 Z M 71.522811 180.653514 " transform="matrix(0.100656,0,0,0.100656,25.222657,11.425469)"/>
<path style="fill:none;stroke-width:0.625;stroke-linecap:butt;stroke-linejoin:miter;stroke:rgb(0%,0%,0%);stroke-opacity:1;stroke-miterlimit:4;" d="M 72.570622 177.70412 L 84.639855 177.665312 " transform="matrix(0.100656,0,0,0.100656,25.222657,11.425469)"/>
<path style="fill:none;stroke-width:0.625;stroke-linecap:butt;stroke-linejoin:miter;stroke:rgb(0%,0%,0%);stroke-opacity:1;stroke-miterlimit:4;" d="M 67.059912 170.602289 C 67.059912 170.602289 68.030107 176.229423 72.493007 177.587697 " transform="matrix(0.100656,0,0,0.100656,25.222657,11.425469)"/>
<path style="fill-rule:evenodd;fill:url(#linear10);stroke-width:0.625;stroke-linecap:butt;stroke-linejoin:miter;stroke:rgb(0%,0%,0%);stroke-opacity:1;stroke-miterlimit:4;" d="M 66.322563 170.524673 C 66.749449 168.390243 67.564413 168.002164 68.456993 165.285617 C 68.612225 162.607877 66.322563 162.91834 66.982296 161.210796 C 68.185339 159.34802 67.564413 157.56286 65.352368 156.165779 C 65.818061 158.610672 62.480589 160.900333 62.480589 162.91834 C 62.480589 164.897539 64.149325 164.470653 63.955286 167.497663 C 64.110517 169.282823 63.489592 168.817129 63.334361 170.524673 Z M 66.322563 170.524673 " transform="matrix(0.100656,0,0,0.100656,25.222657,11.425469)"/>
<path style="fill-rule:evenodd;fill:rgb(96.862745%,77.64706%,0%);fill-opacity:1;stroke-width:0.625;stroke-linecap:butt;stroke-linejoin:miter;stroke:rgb(0%,0%,0%);stroke-opacity:1;stroke-miterlimit:4;" d="M 80.910875 156.729712 C 80.910875 157.6611 80.173526 158.437256 79.20333 158.437256 C 78.271943 158.437256 77.495786 157.6611 77.495786 156.729712 C 77.495786 155.759517 78.271943 155.022168 79.20333 155.022168 C 80.173526 155.022168 80.910875 155.759517 80.910875 156.729712 Z M 80.910875 156.729712 " transform="matrix(0.100656,0,0,0.100656,25.215189,11.470268)"/>
<path style="fill:none;stroke-width:1.25;stroke-linecap:butt;stroke-linejoin:miter;stroke:rgb(96.862745%,77.64706%,0%);stroke-opacity:1;stroke-miterlimit:4;" d="M 69.791979 170.534763 L 79.105856 156.835602 L 88.497349 170.573571 " transform="matrix(0.100656,0,0,0.100656,17.283595,8.885391)"/>
<path style="fill-rule:evenodd;fill:rgb(96.862745%,77.64706%,0%);fill-opacity:1;stroke-width:0.575;stroke-linecap:butt;stroke-linejoin:miter;stroke:rgb(0%,0%,0%);stroke-opacity:1;stroke-miterlimit:4;" d="M 80.931682 156.732685 C 80.931682 157.660931 80.146243 158.410668 79.217997 158.410668 C 78.289751 158.410668 77.504312 157.660931 77.504312 156.732685 C 77.504312 155.768737 78.289751 155.019 79.217997 155.019 C 80.146243 155.019 80.931682 155.768737 80.931682 156.732685 Z M 80.931682 156.732685 " transform="matrix(0.109413,0,0,0.109413,16.582494,8.386508)"/>
<path style="fill-rule:evenodd;fill:rgb(96.862745%,77.64706%,0%);fill-opacity:1;stroke-width:0.625;stroke-linecap:butt;stroke-linejoin:miter;stroke:rgb(0%,0%,0%);stroke-opacity:1;stroke-miterlimit:4;" d="M 71.538331 180.663605 L 86.013648 180.702413 C 86.013648 180.702413 86.246495 178.839637 84.500143 177.675403 C 92.067668 176.627591 90.127277 169.952646 96.452952 169.564568 C 97.694803 169.758607 93.154287 172.397539 93.154287 172.397539 C 93.154287 172.397539 89.312313 175.114086 91.058665 176.47236 C 92.455747 177.597787 93.037864 175.812627 93.231903 174.493161 C 93.425942 173.173695 99.402347 172.319923 98.548575 168.516757 C 97.112685 165.412131 88.769004 170.612379 88.769004 170.612379 L 82.831407 170.573571 C 82.482136 169.913838 80.8134 167.236098 79.144664 167.236098 C 77.126657 167.313714 75.729575 170.612379 75.729575 170.612379 L 62.263261 170.612379 C 62.263261 170.612379 61.797567 174.066275 68.627744 174.726008 C 70.141249 176.744015 71.344291 177.287324 72.663757 177.830634 C 71.771178 178.567982 71.538331 179.460562 71.538331 180.663605 Z M 71.538331 180.663605 " transform="matrix(0.100656,0,0,0.100656,17.283595,8.885391)"/>
<path style="fill:none;stroke-width:0.625;stroke-linecap:butt;stroke-linejoin:miter;stroke:rgb(0%,0%,0%);stroke-opacity:1;stroke-miterlimit:4;" d="M 72.586142 177.71421 L 84.655374 177.675403 " transform="matrix(0.100656,0,0,0.100656,17.283595,8.885391)"/>
<path style="fill:none;stroke-width:0.625;stroke-linecap:butt;stroke-linejoin:miter;stroke:rgb(0%,0%,0%);stroke-opacity:1;stroke-miterlimit:4;" d="M 67.075431 170.612379 C 67.075431 170.612379 68.045627 176.239513 72.469718 177.597787 " transform="matrix(0.100656,0,0,0.100656,17.283595,8.885391)"/>
<path style="fill-rule:evenodd;fill:url(#linear11);stroke-width:0.625;stroke-linecap:butt;stroke-linejoin:miter;stroke:rgb(0%,0%,0%);stroke-opacity:1;stroke-miterlimit:4;" d="M 66.338082 170.534763 C 66.764968 168.400333 67.579933 168.012255 68.472513 165.2569 C 68.627744 162.617968 66.338082 162.889622 66.997815 161.182078 C 68.16205 159.319303 67.579933 157.572951 65.367887 156.137061 C 65.794773 158.581954 62.4573 160.910423 62.4573 162.889622 C 62.4573 164.907629 64.164844 164.441935 63.931997 167.507753 C 64.087229 169.292913 63.505111 168.827219 63.34988 170.534763 Z M 66.338082 170.534763 " transform="matrix(0.100656,0,0,0.100656,17.283595,8.885391)"/>
<path style="fill-rule:evenodd;fill:rgb(96.862745%,77.64706%,0%);fill-opacity:1;stroke-width:0.625;stroke-linecap:butt;stroke-linejoin:miter;stroke:rgb(0%,0%,0%);stroke-opacity:1;stroke-miterlimit:4;" d="M 80.926394 156.700995 C 80.926394 157.67119 80.150237 158.408539 79.21885 158.408539 C 78.287462 158.408539 77.511306 157.67119 77.511306 156.700995 C 77.511306 155.769607 78.287462 155.032258 79.21885 155.032258 C 80.150237 155.032258 80.926394 155.769607 80.926394 156.700995 Z M 80.926394 156.700995 " transform="matrix(0.100656,0,0,0.100656,17.276127,8.93019)"/>
<path style="fill-rule:evenodd;fill:rgb(96.862745%,77.64706%,0%);fill-opacity:1;stroke-width:0.625;stroke-linecap:butt;stroke-linejoin:miter;stroke:rgb(0%,0%,0%);stroke-opacity:1;stroke-miterlimit:4;" d="M 139.219153 183.897072 C 139.219153 183.897072 142.983512 192.590024 147.29118 187.273352 C 151.598849 181.917873 150.007728 179.589403 150.007728 179.589403 L 140.383388 174.350348 L 137.550417 180.326752 Z M 139.219153 183.897072 " transform="matrix(0.100656,0,0,0.100656,15.322659,14.098985)"/>
<path style="fill-rule:evenodd;fill:rgb(100%,77.64706%,70.980394%);fill-opacity:1;stroke-width:0.625;stroke-linecap:butt;stroke-linejoin:miter;stroke:rgb(0%,0%,0%);stroke-opacity:1;stroke-miterlimit:4;" d="M 147.524027 182.732837 C 147.524027 182.732837 148.144952 182.849261 148.649454 181.917873 C 149.192764 180.947677 147.524027 180.559599 146.786679 179.511788 L 145.932906 181.180524 Z M 147.524027 182.732837 " transform="matrix(0.100656,0,0,0.100656,15.322659,14.098985)"/>
<path style="fill-rule:evenodd;fill:rgb(100%,77.64706%,70.980394%);fill-opacity:1;stroke-width:0.625;stroke-linecap:butt;stroke-linejoin:miter;stroke:rgb(0%,0%,0%);stroke-opacity:1;stroke-miterlimit:4;" d="M 125.675223 180.443176 L 117.17631 185.061306 C 117.17631 185.061306 112.985066 185.876271 112.674603 185.061306 C 112.36414 184.207534 112.791026 183.470186 114.964265 183.39257 C 117.17631 183.276147 123.152715 177.804244 123.152715 177.804244 Z M 125.675223 180.443176 " transform="matrix(0.100656,0,0,0.100656,15.322659,14.098985)"/>
<path style="fill-rule:evenodd;fill:rgb(100%,77.64706%,70.980394%);fill-opacity:1;stroke-width:0.625;stroke-linecap:butt;stroke-linejoin:miter;stroke:rgb(0%,0%,0%);stroke-opacity:1;stroke-miterlimit:4;" d="M 125.791647 29.480748 C 125.791647 29.480748 125.985686 31.459947 126.102109 32.507758 C 126.218533 33.555569 124.433373 35.767615 124.31695 35.651192 C 124.200526 35.573576 123.385562 35.767615 123.463178 36.38854 C 123.579601 37.009465 124.860259 37.242312 124.860259 37.242312 C 124.860259 37.242312 124.31695 39.454358 124.860259 39.531974 C 125.364761 39.648397 123.463178 42.364945 124.860259 43.102293 C 126.218533 43.839642 128.508194 44.77103 129.556006 44.576991 C 130.603817 44.382952 129.556006 48.651812 129.556006 48.651812 L 126.645419 54.977487 L 142.789473 53.269943 L 139.413192 47.953271 C 139.413192 47.953271 137.86088 46.866652 138.287766 43.839642 C 138.675844 40.812632 138.054919 27.074663 138.054919 27.074663 L 126.528995 25.483542 Z M 125.791647 29.480748 " transform="matrix(0.100656,0,0,0.100656,15.322659,14.098985)"/>
<path style="fill-rule:evenodd;fill:rgb(100%,77.64706%,70.980394%);fill-opacity:1;stroke-width:0.625;stroke-linecap:butt;stroke-linejoin:miter;stroke:rgb(0%,0%,0%);stroke-opacity:1;stroke-miterlimit:4;" d="M 122.842252 53.386366 C 122.842252 53.386366 117.603196 55.792451 117.797236 62.312165 C 116.438962 68.599032 115.701613 74.8859 115.701613 74.8859 C 115.701613 74.8859 109.531169 81.910115 107.629586 84.432624 C 105.766811 86.955132 102.93384 92.116573 101.886028 93.474846 C 100.799409 94.83312 96.724588 99.334828 96.841012 101.003564 C 96.918627 102.711108 95.870816 110.16221 99.984445 110.977174 C 101.032256 111.40406 104.369729 102.400645 104.369729 102.400645 C 104.369729 102.400645 104.602576 98.519863 103.438341 97.782515 C 102.274107 97.045166 105.96085 94.522658 105.96085 94.522658 C 105.96085 94.522658 112.985066 89.361217 114.576186 88.119367 C 116.128499 86.838709 120.436167 82.026539 120.436167 82.026539 Z M 122.842252 53.386366 " transform="matrix(0.100656,0,0,0.100656,15.322659,14.098985)"/>
<path style="fill-rule:evenodd;fill:rgb(100%,100%,100%);fill-opacity:1;stroke-width:0.625;stroke-linecap:butt;stroke-linejoin:miter;stroke:rgb(0%,0%,0%);stroke-opacity:1;stroke-miterlimit:4;" d="M 128.818657 48.457773 C 128.818657 48.457773 130.176931 52.144516 133.242749 51.484783 C 136.269759 50.863858 139.840078 48.030887 139.840078 48.030887 C 139.840078 48.030887 142.673049 47.953271 143.099935 48.341349 C 143.526822 48.768235 150.745076 55.792451 150.551037 58.004497 C 150.31819 60.216543 147.174757 59.595618 146.04933 61.031507 C 144.885095 62.506204 142.983512 66.192947 143.526822 68.909495 C 144.031323 71.626043 145.622444 75.196362 145.389597 76.593444 C 145.195558 77.951718 144.031323 78.339796 144.031323 79.077144 C 144.031323 79.814493 145.001519 81.095151 145.001519 82.453425 C 145.001519 83.811699 143.720861 85.790898 143.953708 87.187979 C 144.147747 88.546253 144.26417 92.504651 144.26417 92.504651 L 143.953708 110.977174 C 143.953708 110.977174 145.001519 111.598099 145.079134 112.684718 C 145.195558 113.732529 152.219774 144.235478 152.219774 144.235478 C 152.219774 144.235478 151.909311 145.205673 151.171962 145.08925 C 150.434614 144.972826 154.004933 149.784996 154.121357 151.182078 C 154.23778 152.540352 157.769292 163.25131 157.691677 164.6872 C 157.575253 166.161897 157.070751 169.421754 156.721481 169.538178 C 156.411018 169.615793 159.04995 176.251931 158.623064 177.299742 C 158.196178 178.347553 153.88851 178.23113 153.88851 178.23113 L 152.763083 178.037091 C 152.763083 178.037091 152.840699 179.395364 152.025735 179.511788 C 151.171962 179.589403 145.001519 179.162517 145.001519 179.162517 C 145.001519 179.162517 143.216359 181.917873 142.168548 181.801449 C 141.120737 181.685026 139.723655 179.82225 139.413192 180.132713 C 139.10273 180.443176 140.383388 182.228335 140.072925 182.732837 C 139.723655 183.276147 134.406983 184.440381 133.359172 181.917873 C 132.311361 179.395364 133.980097 180.01629 133.669635 179.511788 C 133.359172 178.968478 130.914279 177.610205 130.176931 178.037091 C 129.47839 178.463977 132.078514 179.084902 131.962091 180.132713 C 131.884475 181.180524 129.672429 182.732837 128.818657 182.732837 C 128.003693 182.732837 125.985686 178.852055 123.075099 179.278941 C 120.125705 179.705827 118.224122 180.443176 118.224122 180.443176 C 118.224122 180.443176 114.770225 181.917873 113.295528 181.60741 C 111.820831 181.296948 111.199906 180.132713 111.199906 179.511788 C 111.199906 178.852055 112.247717 176.135507 112.131294 175.281735 C 112.053678 174.466771 111.199906 173.612999 111.199906 172.371149 C 111.199906 171.09049 113.605991 166.782822 113.605991 166.782822 L 113.528375 147.495335 C 113.528375 147.495335 111.316329 147.495335 111.199906 146.137061 C 111.083482 144.778787 114.576186 115.595305 115.080688 113.732529 C 115.623997 111.830946 116.982271 105.117193 116.982271 105.117193 C 116.982271 105.117193 115.391151 105.854542 115.313535 105.117193 C 115.197111 104.379844 120.009281 87.692481 120.009281 87.692481 C 120.009281 87.692481 120.863053 79.426415 120.863053 77.214369 C 120.863053 75.002323 120.436167 71.975313 120.436167 71.975313 C 120.436167 71.975313 116.128499 70.151345 116.012076 67.357182 C 115.623997 62.894283 120.125705 60.410582 120.630207 58.935885 C 121.173516 57.499995 122.725829 53.075904 122.725829 53.075904 C 122.725829 53.075904 125.054298 49.078698 128.818657 48.457773 Z M 128.818657 48.457773 " transform="matrix(0.100656,0,0,0.100656,15.322659,14.098985)"/>
<path style="fill-rule:evenodd;fill:rgb(96.862745%,77.64706%,0%);fill-opacity:1;stroke-width:0.625;stroke-linecap:butt;stroke-linejoin:miter;stroke:rgb(0%,0%,0%);stroke-opacity:1;stroke-miterlimit:4;" d="M 127.266344 181.685026 C 127.266344 181.685026 117.098695 187.040505 115.623997 187.467391 C 114.1493 187.894277 113.217913 185.682232 114.653802 185.255345 C 116.128499 184.828459 118.456968 184.63442 118.456968 184.63442 C 118.456968 184.63442 115.003072 181.917873 115.080688 181.801449 C 115.197111 181.685026 119.815242 180.01629 119.931666 180.01629 C 120.009281 180.01629 121.367555 182.732837 122.337751 182.538798 C 123.269138 182.344759 125.985686 180.249136 125.985686 180.249136 C 125.985686 180.249136 127.460383 181.917873 127.266344 181.685026 Z M 127.266344 181.685026 " transform="matrix(0.100656,0,0,0.100656,15.322659,14.098985)"/>
<path style="fill-rule:evenodd;fill:rgb(100%,77.64706%,70.980394%);fill-opacity:1;stroke-width:0.625;stroke-linecap:butt;stroke-linejoin:miter;stroke:rgb(0%,0%,0%);stroke-opacity:1;stroke-miterlimit:4;" d="M 141.58643 184.63442 C 142.556626 185.876271 142.944704 188.010701 145.15675 186.768851 C 147.329988 185.488192 144.031323 183.159723 144.031323 183.159723 Z M 141.58643 184.63442 " transform="matrix(0.100656,0,0,0.100656,15.322659,14.098985)"/>
<path style="fill-rule:evenodd;fill:rgb(100%,77.64706%,70.980394%);fill-opacity:1;stroke-width:0.625;stroke-linecap:butt;stroke-linejoin:miter;stroke:rgb(0%,0%,0%);stroke-opacity:1;stroke-miterlimit:4;" d="M 145.622444 184.401573 C 145.622444 184.401573 146.670255 185.255345 147.601643 184.323958 C 148.571838 183.353762 145.738867 181.374563 145.738867 181.374563 L 144.341786 182.965684 Z M 145.622444 184.401573 " transform="matrix(0.100656,0,0,0.100656,15.322659,14.098985)"/>
<path style="fill:none;stroke-width:0.625;stroke-linecap:butt;stroke-linejoin:miter;stroke:rgb(0%,0%,0%);stroke-opacity:1;stroke-miterlimit:4;" d="M 142.47901 52.532594 C 142.47901 52.532594 133.126325 58.547807 133.359172 60.643429 " transform="matrix(0.100656,0,0,0.100656,15.322659,14.098985)"/>
<path style="fill:none;stroke-width:0.625;stroke-linecap:butt;stroke-linejoin:miter;stroke:rgb(0%,0%,0%);stroke-opacity:1;stroke-miterlimit:4;" d="M 144.574633 53.580405 C 144.574633 53.580405 142.47901 55.908875 142.362587 55.908875 " transform="matrix(0.100656,0,0,0.100656,15.322659,14.098985)"/>
<path style="fill:none;stroke-width:0.625;stroke-linecap:butt;stroke-linejoin:miter;stroke:rgb(0%,0%,0%);stroke-opacity:1;stroke-miterlimit:4;" d="M 147.407604 56.102914 C 147.407604 56.102914 142.789473 59.90608 143.526822 62.312165 " transform="matrix(0.100656,0,0,0.100656,15.322659,14.098985)"/>
<path style="fill:none;stroke-width:0.625;stroke-linecap:butt;stroke-linejoin:miter;stroke:rgb(0%,0%,0%);stroke-opacity:1;stroke-miterlimit:4;" d="M 125.597608 52.028092 C 125.597608 52.028092 124.200526 54.861063 124.549797 55.792451 C 124.860259 56.762647 127.149921 60.332966 127.460383 62.506204 C 127.770846 64.71825 127.460383 66.309371 127.460383 66.309371 " transform="matrix(0.100656,0,0,0.100656,15.322659,14.098985)"/>
<path style="fill:none;stroke-width:0.625;stroke-linecap:butt;stroke-linejoin:miter;stroke:rgb(0%,0%,0%);stroke-opacity:1;stroke-miterlimit:4;" d="M 123.152715 57.267148 C 123.152715 57.267148 123.579601 60.643429 124.200526 61.264354 C 124.860259 61.885279 126.528995 64.71825 126.723035 65.882485 " transform="matrix(0.100656,0,0,0.100656,15.322659,14.098985)"/>
<path style="fill:none;stroke-width:0.625;stroke-linecap:butt;stroke-linejoin:miter;stroke:rgb(0%,0%,0%);stroke-opacity:1;stroke-miterlimit:4;" d="M 122.337751 71.237964 C 122.337751 71.237964 125.054298 72.596238 127.576807 67.357182 " transform="matrix(0.100656,0,0,0.100656,15.322659,14.098985)"/>
<path style="fill:none;stroke-width:0.625;stroke-linecap:butt;stroke-linejoin:miter;stroke:rgb(0%,0%,0%);stroke-opacity:1;stroke-miterlimit:4;" d="M 131.651628 63.670439 C 131.574012 63.670439 129.672429 68.793072 133.009902 70.694655 C 136.386182 72.596238 138.908691 72.363391 140.383388 71.85889 C 141.819277 71.31558 143.410398 70.384192 143.410398 70.384192 " transform="matrix(0.100656,0,0,0.100656,15.322659,14.098985)"/>
<path style="fill:none;stroke-width:0.625;stroke-linecap:butt;stroke-linejoin:miter;stroke:rgb(0%,0%,0%);stroke-opacity:1;stroke-miterlimit:4;" d="M 130.215739 69.957306 C 130.215739 69.957306 130.409778 76.903906 140.577427 83.695275 " transform="matrix(0.100656,0,0,0.100656,15.322659,14.098985)"/>
<path style="fill:none;stroke-width:0.625;stroke-linecap:butt;stroke-linejoin:miter;stroke:rgb(0%,0%,0%);stroke-opacity:1;stroke-miterlimit:4;" d="M 130.603817 76.47702 C 130.603817 76.47702 130.526201 82.569848 134.484599 85.286396 " transform="matrix(0.100656,0,0,0.100656,15.322659,14.098985)"/>
<path style="fill:none;stroke-width:0.625;stroke-linecap:butt;stroke-linejoin:miter;stroke:rgb(0%,0%,0%);stroke-opacity:1;stroke-miterlimit:4;" d="M 128.508194 69.336381 C 128.508194 69.336381 125.481184 78.339796 123.075099 79.309991 " transform="matrix(0.100656,0,0,0.100656,15.322659,14.098985)"/>
<path style="fill:none;stroke-width:0.625;stroke-linecap:butt;stroke-linejoin:miter;stroke:rgb(0%,0%,0%);stroke-opacity:1;stroke-miterlimit:4;" d="M 127.576807 75.933711 C 127.576807 75.933711 127.460383 82.453425 126.606611 84.743086 " transform="matrix(0.100656,0,0,0.100656,15.322659,14.098985)"/>
<path style="fill:none;stroke-width:0.625;stroke-linecap:butt;stroke-linejoin:miter;stroke:rgb(0%,0%,0%);stroke-opacity:1;stroke-miterlimit:4;" d="M 125.791647 86.334207 C 125.791647 86.334207 127.887269 88.973139 130.176931 88.740292 C 132.5054 88.546253 133.436788 85.790898 135.027908 86.217784 C 136.580221 86.64467 138.054919 87.88652 141.741662 87.576057 " transform="matrix(0.100656,0,0,0.100656,15.322659,14.098985)"/>
<path style="fill:none;stroke-width:0.625;stroke-linecap:butt;stroke-linejoin:miter;stroke:rgb(0%,0%,0%);stroke-opacity:1;stroke-miterlimit:4;" d="M 136.502606 90.331413 C 136.502606 90.331413 136.502606 95.686892 137.433993 96.191394 C 138.365381 96.734703 137.977303 101.663297 137.977303 101.663297 " transform="matrix(0.100656,0,0,0.100656,15.322659,14.098985)"/>
<path style="fill:none;stroke-width:0.625;stroke-linecap:butt;stroke-linejoin:miter;stroke:rgb(0%,0%,0%);stroke-opacity:1;stroke-miterlimit:4;" d="M 123.696024 87.808904 C 123.696024 87.808904 123.579601 92.853921 122.958676 94.639081 C 122.337751 96.385433 121.057093 99.451251 121.28994 102.051375 " transform="matrix(0.100656,0,0,0.100656,15.322659,14.098985)"/>
<path style="fill:none;stroke-width:0.625;stroke-linecap:butt;stroke-linejoin:miter;stroke:rgb(0%,0%,0%);stroke-opacity:1;stroke-miterlimit:4;" d="M 117.292734 105.00077 C 117.797236 104.80673 119.582395 103.21561 119.582395 103.21561 " transform="matrix(0.100656,0,0,0.100656,15.322659,14.098985)"/>
<path style="fill:none;stroke-width:0.625;stroke-linecap:butt;stroke-linejoin:miter;stroke:rgb(0%,0%,0%);stroke-opacity:1;stroke-miterlimit:4;" d="M 120.552591 104.379844 C 120.552591 104.379844 116.012076 123.667332 117.292734 135.232063 " transform="matrix(0.100656,0,0,0.100656,15.322659,14.098985)"/>
<path style="fill:none;stroke-width:0.625;stroke-linecap:butt;stroke-linejoin:miter;stroke:rgb(0%,0%,0%);stroke-opacity:1;stroke-miterlimit:4;" d="M 121.600402 105.311232 C 121.600402 105.311232 119.271933 119.78655 120.319744 122.541905 " transform="matrix(0.100656,0,0,0.100656,15.322659,14.098985)"/>
<path style="fill:none;stroke-width:0.625;stroke-linecap:butt;stroke-linejoin:miter;stroke:rgb(0%,0%,0%);stroke-opacity:1;stroke-miterlimit:4;" d="M 120.436167 104.884346 C 120.552591 104.884346 129.245543 105.544079 129.245543 105.544079 " transform="matrix(0.100656,0,0,0.100656,15.322659,14.098985)"/>
<path style="fill:none;stroke-width:0.625;stroke-linecap:butt;stroke-linejoin:miter;stroke:rgb(0%,0%,0%);stroke-opacity:1;stroke-miterlimit:4;" d="M 130.526201 104.379844 C 130.526201 104.379844 132.932286 105.621695 136.269759 105.427656 " transform="matrix(0.100656,0,0,0.100656,15.322659,14.098985)"/>
<path style="fill:none;stroke-width:0.625;stroke-linecap:butt;stroke-linejoin:miter;stroke:rgb(0%,0%,0%);stroke-opacity:1;stroke-miterlimit:4;" d="M 129.47839 111.40406 C 129.47839 111.40406 129.051504 136.163451 128.391771 141.635354 " transform="matrix(0.100656,0,0,0.100656,15.322659,14.098985)"/>
<path style="fill:none;stroke-width:0.625;stroke-linecap:butt;stroke-linejoin:miter;stroke:rgb(0%,0%,0%);stroke-opacity:1;stroke-miterlimit:4;" d="M 142.362587 117.070002 C 142.362587 117.070002 145.079134 138.802383 146.670255 140.781581 " transform="matrix(0.100656,0,0,0.100656,15.322659,14.098985)"/>
<path style="fill:none;stroke-width:0.625;stroke-linecap:butt;stroke-linejoin:miter;stroke:rgb(0%,0%,0%);stroke-opacity:1;stroke-miterlimit:4;" d="M 137.123531 119.78655 C 137.123531 119.78655 138.792267 138.996422 139.723655 140.665158 " transform="matrix(0.100656,0,0,0.100656,15.322659,14.098985)"/>
<path style="fill:none;stroke-width:0.625;stroke-linecap:butt;stroke-linejoin:miter;stroke:rgb(0%,0%,0%);stroke-opacity:1;stroke-miterlimit:4;" d="M 113.295528 147.378911 C 113.295528 147.378911 116.555385 146.3311 119.50478 143.187666 C 122.842252 147.689374 128.003693 143.420513 128.003693 143.420513 C 128.003693 143.420513 135.959296 148.853608 139.529616 142.76078 C 145.001519 146.3311 147.718066 142.256279 147.718066 142.256279 C 147.718066 142.256279 149.697265 145.283289 151.171962 144.972826 " transform="matrix(0.100656,0,0,0.100656,15.322659,14.098985)"/>
<path style="fill:none;stroke-width:0.625;stroke-linecap:butt;stroke-linejoin:miter;stroke:rgb(0%,0%,0%);stroke-opacity:1;stroke-miterlimit:4;" d="M 142.47901 147.068449 C 142.47901 147.068449 146.553832 166.278321 152.64666 171.750223 " transform="matrix(0.100656,0,0,0.100656,15.322659,14.098985)"/>
<path style="fill:none;stroke-width:0.625;stroke-linecap:butt;stroke-linejoin:miter;stroke:rgb(0%,0%,0%);stroke-opacity:1;stroke-miterlimit:4;" d="M 121.367555 145.08925 C 121.367555 145.08925 121.910865 161.11688 122.842252 172.448764 " transform="matrix(0.100656,0,0,0.100656,15.322659,14.098985)"/>
<path style="fill:none;stroke-width:0.625;stroke-linecap:butt;stroke-linejoin:miter;stroke:rgb(0%,0%,0%);stroke-opacity:1;stroke-miterlimit:4;" d="M 120.669014 163.212503 C 120.669014 163.212503 120.125705 173.729422 119.50478 174.466771 " transform="matrix(0.100656,0,0,0.100656,15.322659,14.098985)"/>
<path style="fill:none;stroke-width:0.625;stroke-linecap:butt;stroke-linejoin:miter;stroke:rgb(0%,0%,0%);stroke-opacity:1;stroke-miterlimit:4;" d="M 114.459763 175.514582 C 114.459763 175.514582 115.623997 180.01629 121.367555 175.825045 C 127.149921 171.6338 127.266344 177.416165 127.460383 178.037091 C 127.69323 178.658016 128.624618 183.159723 130.836664 179.395364 " transform="matrix(0.100656,0,0,0.100656,15.322659,14.098985)"/>
<path style="fill:none;stroke-width:0.625;stroke-linecap:butt;stroke-linejoin:miter;stroke:rgb(0%,0%,0%);stroke-opacity:1;stroke-miterlimit:4;" d="M 135.454795 173.186113 C 135.454795 173.186113 134.484599 182.538798 142.789473 175.708621 C 151.055539 168.917252 152.452621 175.631006 152.64666 177.726628 " transform="matrix(0.100656,0,0,0.100656,15.322659,14.098985)"/>
<path style="fill-rule:evenodd;fill:rgb(61.176473%,31.764707%,0%);fill-opacity:1;stroke-width:0.625;stroke-linecap:butt;stroke-linejoin:miter;stroke:rgb(0%,0%,0%);stroke-opacity:1;stroke-miterlimit:4;" d="M 125.481184 28.821015 C 125.481184 28.821015 127.770846 29.170285 129.051504 28.432937 C 130.293354 27.695588 131.768051 27.385125 132.815863 28.821015 C 133.863674 30.295712 134.601022 30.218096 134.601022 30.218096 C 134.601022 30.218096 133.009902 34.098879 134.601022 34.486957 C 136.153335 34.913843 136.890684 34.913843 137.007107 35.457152 C 137.123531 35.961654 135.648834 37.125889 136.07572 37.669198 C 136.502606 38.1737 137.201147 38.794625 137.31757 39.221511 C 137.433993 39.648397 136.386182 41.433557 136.696645 41.860443 C 137.007107 42.287329 137.938495 43.956065 138.598228 43.956065 C 139.219153 43.956065 138.792267 46.55619 140.693851 45.935264 C 142.556626 45.314339 142.47901 43.645603 142.47901 43.645603 C 142.47901 43.645603 144.458209 43.33514 145.001519 41.549981 C 145.50602 39.764821 146.747871 39.337935 146.747871 39.337935 C 146.747871 39.337935 149.270379 37.979661 145.932906 35.884038 C 145.932906 21.175874 136.269759 22.766995 136.269759 22.766995 C 136.269759 22.766995 135.105524 20.128063 133.242749 20.438525 C 131.341165 20.748988 131.224742 22.961034 129.866468 22.766995 C 128.508194 22.534148 128.197732 21.60276 128.081308 21.719183 C 128.003693 21.796799 126.839458 23.892421 126.839458 24.435731 C 126.839458 24.940233 123.152715 23.698382 123.463178 26.41493 C 123.77364 29.170285 125.5588 29.053862 125.481184 28.821015 Z M 125.481184 28.821015 " transform="matrix(0.100656,0,0,0.100656,15.322659,14.098985)"/>
<path style="fill:none;stroke-width:0.625;stroke-linecap:butt;stroke-linejoin:miter;stroke:rgb(0%,0%,0%);stroke-opacity:1;stroke-miterlimit:4;" d="M 135.53241 25.289503 C 135.53241 25.289503 134.833869 29.907634 139.762463 29.480748 C 139.10273 32.003256 141.004313 32.818221 141.004313 32.818221 " transform="matrix(0.100656,0,0,0.100656,15.322659,14.098985)"/>
<path style="fill:none;stroke-width:0.625;stroke-linecap:butt;stroke-linejoin:miter;stroke:rgb(0%,0%,0%);stroke-opacity:1;stroke-miterlimit:4;" d="M 144.652248 35.651192 C 144.768672 35.651192 146.864294 37.009465 144.574633 38.71701 " transform="matrix(0.100656,0,0,0.100656,15.322659,14.098985)"/>
<path style="fill:none;stroke-width:0.625;stroke-linecap:butt;stroke-linejoin:miter;stroke:rgb(0%,0%,0%);stroke-opacity:1;stroke-miterlimit:4;" d="M 137.550417 39.337935 C 137.550417 39.337935 138.598228 40.579785 139.762463 40.269322 C 140.88789 39.95886 142.789473 41.433557 142.789473 41.433557 C 142.789473 41.433557 144.341786 41.938059 144.574633 41.627596 " transform="matrix(0.100656,0,0,0.100656,15.322659,14.098985)"/>
<path style="fill:none;stroke-width:0.625;stroke-linecap:butt;stroke-linejoin:miter;stroke:rgb(0%,0%,0%);stroke-opacity:1;stroke-miterlimit:4;" d="M 131.147126 43.33514 C 131.147126 43.33514 134.717446 44.693414 137.007107 39.027472 " transform="matrix(0.100656,0,0,0.100656,15.322659,14.098985)"/>
<path style="fill:none;stroke-width:0.625;stroke-linecap:butt;stroke-linejoin:miter;stroke:rgb(0%,0%,0%);stroke-opacity:1;stroke-miterlimit:4;" d="M 124.510989 37.319928 L 126.645419 37.436351 " transform="matrix(0.100656,0,0,0.100656,15.322659,14.098985)"/>
<path style="fill:none;stroke-width:0.625;stroke-linecap:butt;stroke-linejoin:round;stroke:rgb(0%,0%,0%);stroke-opacity:1;stroke-miterlimit:4;" d="M 124.860259 39.454358 L 126.723035 39.454358 L 125.054298 40.152899 " transform="matrix(0.100656,0,0,0.100656,15.322659,14.098985)"/>
<path style="fill:none;stroke-width:1.125;stroke-linecap:butt;stroke-linejoin:round;stroke:rgb(0%,0%,0%);stroke-opacity:1;stroke-miterlimit:4;" d="M 127.460383 33.555569 C 127.770846 33.555569 128.93508 33.128683 129.167927 33.439146 C 129.361966 33.788416 127.887269 33.982455 127.460383 33.555569 Z M 127.460383 33.555569 " transform="matrix(0.100656,0,0,0.100656,15.322659,14.098985)"/>
<path style="fill-rule:evenodd;fill:rgb(100%,77.64706%,70.980394%);fill-opacity:1;stroke-width:0.625;stroke-linecap:butt;stroke-linejoin:miter;stroke:rgb(0%,0%,0%);stroke-opacity:1;stroke-miterlimit:4;" d="M 150.124151 58.470191 C 150.240575 58.470191 153.578047 68.870687 154.004933 71.509619 C 154.43182 74.109743 155.790093 84.626663 155.285592 86.062552 C 154.742282 87.53725 149.386803 94.561465 148.765877 96.346625 C 148.144952 98.131785 144.341786 104.961962 144.341786 104.961962 C 144.341786 104.961962 143.410398 111.675715 142.983512 111.986177 C 142.595434 112.29664 144.070131 113.965376 143.953708 114.508686 C 143.720861 115.129611 140.88789 118.079006 139.646039 117.768543 C 138.365381 117.45808 136.386182 115.983383 136.269759 114.625109 C 136.192143 113.266836 136.386182 108.72632 137.31757 107.600894 C 138.287766 106.436659 143.216359 94.794312 143.526822 94.056964 C 143.837284 93.319615 148.028529 84.199777 148.144952 82.608656 C 148.222568 81.056343 146.825486 77.408408 145.350789 76.050134 C 142.052124 66.348179 143.332782 60.488198 150.124151 58.470191 Z M 150.124151 58.470191 " transform="matrix(0.100656,0,0,0.100656,15.322659,14.098985)"/>
<path style="fill:none;stroke-width:0.625;stroke-linecap:butt;stroke-linejoin:miter;stroke:rgb(0%,0%,0%);stroke-opacity:1;stroke-miterlimit:4;" d="M 101.265103 103.487264 L 101.420335 108.105395 " transform="matrix(0.100656,0,0,0.100656,15.322659,14.098985)"/>
<path style="fill:none;stroke-width:0.625;stroke-linecap:butt;stroke-linejoin:miter;stroke:rgb(0%,0%,0%);stroke-opacity:1;stroke-miterlimit:4;" d="M 96.957435 103.176802 C 96.957435 103.176802 99.90683 108.105395 99.635175 110.705519 " transform="matrix(0.100656,0,0,0.100656,15.322659,14.098985)"/>
<path style="fill:none;stroke-width:0.625;stroke-linecap:butt;stroke-linejoin:round;stroke:rgb(0%,0%,0%);stroke-opacity:1;stroke-miterlimit:4;" d="M 136.463798 113.460875 C 136.463798 113.460875 138.637036 113.228028 138.598228 116.914771 C 139.99531 112.335448 142.867089 112.219024 142.867089 112.219024 " transform="matrix(0.100656,0,0,0.100656,15.322659,14.098985)"/>
<path style="fill-rule:evenodd;fill:rgb(96.862745%,77.64706%,0%);fill-opacity:1;stroke-width:1.6105;stroke-linecap:butt;stroke-linejoin:miter;stroke:rgb(0%,0%,0%);stroke-opacity:1;stroke-miterlimit:4;" d="M 768.269989 391.322998 C 825.319989 389.722998 862.219989 348.522998 861.819989 348.122998 C 861.419989 347.722998 869.319989 336.622998 875.669989 338.222998 C 882.019989 339.772998 891.119989 358.422998 902.219989 362.372998 C 907.769989 371.122998 900.669989 379.022998 898.269989 380.622998 C 895.919989 382.222998 885.219989 386.572998 883.619989 380.222998 C 882.019989 373.872998 878.869989 375.072998 878.869989 375.072998 C 878.869989 375.072998 828.119989 424.622998 769.419989 422.622998 C 708.769989 423.022998 658.819989 375.072998 658.819989 375.072998 L 654.469989 379.822998 C 654.469989 379.822998 649.719989 384.972998 647.369989 384.572998 C 644.969989 384.172998 634.669989 377.422998 633.869989 370.722998 C 633.069989 363.972998 640.219989 359.622998 640.219989 359.622998 C 640.219989 359.622998 657.669989 346.122998 659.619989 338.972998 C 663.619989 335.022998 671.119989 341.772998 671.119989 341.772998 C 671.119989 341.772998 717.119989 394.472998 768.269989 391.322998 Z M 768.269989 391.322998 " transform="matrix(0.078125,0,0,0.078125,-31.720312,5.521641)"/>
<path style="fill:none;stroke-width:1.6105;stroke-linecap:butt;stroke-linejoin:miter;stroke:rgb(0%,0%,0%);stroke-opacity:1;stroke-miterlimit:4;" d="M 639.019989 360.672998 C 639.019989 360.672998 643.719989 359.422998 645.469989 361.372998 C 647.219989 363.322998 659.069989 374.972998 659.069989 374.972998 " transform="matrix(0.078125,0,0,0.078125,-31.720312,5.521641)"/>
<path style="fill:none;stroke-width:1.6105;stroke-linecap:butt;stroke-linejoin:miter;stroke:rgb(0%,0%,0%);stroke-opacity:1;stroke-miterlimit:4;" d="M 649.769989 366.172998 L 645.069989 369.672998 C 645.069989 369.672998 656.919989 372.072998 654.269989 379.822998 " transform="matrix(0.078125,0,0,0.078125,-31.720312,5.521641)"/>
<path style="fill:none;stroke-width:1.6105;stroke-linecap:butt;stroke-linejoin:miter;stroke:rgb(0%,0%,0%);stroke-opacity:1;stroke-miterlimit:4;" d="M 897.969989 360.272998 C 897.969989 360.272998 895.619989 359.022998 891.919989 361.772998 C 888.219989 364.522998 878.869989 374.972998 878.869989 374.972998 " transform="matrix(0.078125,0,0,0.078125,-31.720312,5.521641)"/>
<path style="fill:none;stroke-width:1.6105;stroke-linecap:butt;stroke-linejoin:miter;stroke:rgb(0%,0%,0%);stroke-opacity:1;stroke-miterlimit:4;" d="M 887.369989 365.872998 L 892.469989 369.772998 C 892.469989 369.772998 881.819989 370.472998 884.169989 380.622998 " transform="matrix(0.078125,0,0,0.078125,-31.720312,5.521641)"/>
<path style=" stroke:none;fill-rule:nonzero;fill:rgb(0%,0%,0%);fill-opacity:1;" d="M 22.925781 34.679688 L 22.898438 34.71875 C 22.839844 34.691406 22.777344 34.6875 22.707031 34.703125 C 22.652344 34.71875 22.554688 34.765625 22.40625 34.851562 L 21.179688 35.566406 L 21.148438 35.542969 L 21.457031 34.109375 C 21.492188 33.9375 21.511719 33.832031 21.507812 33.792969 C 21.503906 33.757812 21.480469 33.714844 21.429688 33.671875 L 21.457031 33.632812 L 22.117188 34.105469 L 22.089844 34.144531 L 22.070312 34.128906 C 22.007812 34.085938 21.964844 34.0625 21.929688 34.0625 C 21.90625 34.0625 21.890625 34.070312 21.875 34.089844 C 21.867188 34.101562 21.859375 34.121094 21.851562 34.140625 C 21.847656 34.160156 21.832031 34.21875 21.8125 34.3125 L 21.617188 35.210938 L 22.324219 34.792969 C 22.410156 34.742188 22.464844 34.707031 22.492188 34.6875 C 22.515625 34.667969 22.535156 34.648438 22.546875 34.632812 C 22.5625 34.609375 22.570312 34.589844 22.570312 34.566406 C 22.570312 34.542969 22.5625 34.519531 22.546875 34.496094 C 22.527344 34.464844 22.492188 34.429688 22.445312 34.394531 L 22.472656 34.359375 L 22.925781 34.679688 M 23.363281 36.8125 L 23.34375 36.855469 L 22.566406 36.429688 L 22.585938 36.386719 L 22.636719 36.414062 C 22.679688 36.4375 22.71875 36.449219 22.753906 36.449219 C 22.777344 36.449219 22.800781 36.441406 22.824219 36.421875 C 22.84375 36.40625 22.871094 36.363281 22.914062 36.289062 L 23.449219 35.3125 C 23.492188 35.234375 23.511719 35.183594 23.515625 35.160156 C 23.515625 35.136719 23.507812 35.113281 23.492188 35.085938 C 23.476562 35.058594 23.449219 35.03125 23.40625 35.007812 L 23.355469 34.980469 L 23.378906 34.941406 L 24.15625 35.367188 L 24.132812 35.40625 L 24.085938 35.378906 C 24.042969 35.355469 24.003906 35.34375 23.96875 35.347656 C 23.941406 35.347656 23.917969 35.355469 23.894531 35.375 C 23.875 35.386719 23.847656 35.429688 23.804688 35.507812 L 23.269531 36.484375 C 23.230469 36.558594 23.207031 36.609375 23.207031 36.632812 C 23.203125 36.65625 23.210938 36.683594 23.226562 36.710938 C 23.246094 36.738281 23.273438 36.761719 23.316406 36.785156 L 23.363281 36.8125 M 26.207031 36.148438 L 26.003906 36.710938 L 25.960938 36.695312 C 25.964844 36.523438 25.925781 36.375 25.851562 36.257812 C 25.773438 36.140625 25.671875 36.0625 25.546875 36.015625 C 25.429688 35.972656 25.316406 35.972656 25.214844 36.011719 C 25.109375 36.050781 25.019531 36.125 24.945312 36.230469 C 24.871094 36.339844 24.808594 36.457031 24.765625 36.582031 C 24.710938 36.738281 24.679688 36.878906 24.675781 37.007812 C 24.671875 37.132812 24.699219 37.238281 24.757812 37.324219 C 24.820312 37.40625 24.90625 37.464844 25.015625 37.507812 C 25.054688 37.519531 25.097656 37.53125 25.140625 37.535156 C 25.183594 37.542969 25.230469 37.542969 25.277344 37.542969 L 25.394531 37.210938 C 25.417969 37.148438 25.425781 37.105469 25.425781 37.085938 C 25.421875 37.0625 25.410156 37.039062 25.390625 37.015625 C 25.367188 36.992188 25.335938 36.972656 25.300781 36.957031 L 25.257812 36.945312 L 25.273438 36.902344 L 26.050781 37.175781 L 26.035156 37.21875 C 25.972656 37.203125 25.929688 37.195312 25.902344 37.203125 C 25.875 37.203125 25.851562 37.21875 25.828125 37.242188 C 25.816406 37.253906 25.796875 37.289062 25.777344 37.347656 L 25.660156 37.679688 C 25.542969 37.691406 25.421875 37.6875 25.304688 37.667969 C 25.1875 37.652344 25.066406 37.625 24.949219 37.582031 C 24.796875 37.527344 24.679688 37.464844 24.59375 37.386719 C 24.507812 37.308594 24.4375 37.222656 24.386719 37.128906 C 24.332031 37.035156 24.300781 36.9375 24.289062 36.839844 C 24.269531 36.710938 24.285156 36.578125 24.335938 36.445312 C 24.421875 36.207031 24.578125 36.03125 24.804688 35.925781 C 25.03125 35.820312 25.273438 35.8125 25.53125 35.90625 C 25.609375 35.933594 25.679688 35.964844 25.738281 36 C 25.769531 36.019531 25.820312 36.058594 25.886719 36.113281 C 25.953125 36.171875 25.992188 36.203125 26.007812 36.207031 C 26.03125 36.214844 26.054688 36.214844 26.078125 36.203125 C 26.101562 36.195312 26.128906 36.171875 26.160156 36.132812 L 26.207031 36.148438 M 27.402344 38.066406 L 27.394531 38.113281 L 26.519531 37.980469 L 26.527344 37.933594 L 26.582031 37.945312 C 26.628906 37.949219 26.671875 37.949219 26.703125 37.933594 C 26.726562 37.925781 26.746094 37.910156 26.761719 37.882812 C 26.773438 37.867188 26.785156 37.8125 26.796875 37.730469 L 26.964844 36.628906 C 26.980469 36.542969 26.980469 36.488281 26.976562 36.464844 C 26.96875 36.441406 26.953125 36.421875 26.929688 36.402344 C 26.90625 36.378906 26.867188 36.367188 26.820312 36.359375 L 26.765625 36.351562 L 26.773438 36.304688 L 27.648438 36.4375 L 27.640625 36.484375 L 27.585938 36.476562 C 27.539062 36.46875 27.496094 36.46875 27.464844 36.484375 C 27.441406 36.492188 27.421875 36.507812 27.40625 36.535156 C 27.394531 36.554688 27.382812 36.605469 27.367188 36.6875 L 27.203125 37.792969 C 27.1875 37.875 27.183594 37.929688 27.191406 37.953125 C 27.199219 37.976562 27.214844 38 27.238281 38.019531 C 27.261719 38.039062 27.300781 38.050781 27.347656 38.058594 L 27.402344 38.066406 M 29.675781 37.515625 L 29.644531 38.113281 L 28.140625 38.191406 L 28.136719 38.144531 L 28.195312 38.140625 C 28.242188 38.136719 28.28125 38.128906 28.3125 38.109375 C 28.332031 38.09375 28.347656 38.074219 28.359375 38.046875 C 28.367188 38.027344 28.367188 37.972656 28.363281 37.886719 L 28.308594 36.773438 C 28.304688 36.6875 28.296875 36.632812 28.285156 36.613281 C 28.273438 36.589844 28.253906 36.574219 28.226562 36.558594 C 28.199219 36.542969 28.160156 36.539062 28.113281 36.539062 L 28.054688 36.542969 L 28.054688 36.496094 L 28.957031 36.449219 L 28.957031 36.496094 L 28.886719 36.5 C 28.835938 36.503906 28.796875 36.515625 28.769531 36.53125 C 28.746094 36.546875 28.730469 36.566406 28.71875 36.59375 C 28.710938 36.617188 28.710938 36.667969 28.714844 36.753906 L 28.769531 37.832031 C 28.773438 37.917969 28.78125 37.972656 28.792969 37.996094 C 28.804688 38.019531 28.824219 38.035156 28.855469 38.046875 C 28.875 38.054688 28.925781 38.054688 29.003906 38.050781 L 29.148438 38.042969 C 29.238281 38.039062 29.3125 38.019531 29.367188 37.984375 C 29.425781 37.949219 29.476562 37.898438 29.515625 37.828125 C 29.558594 37.757812 29.59375 37.652344 29.625 37.519531 L 29.675781 37.515625 M 31.320312 37.230469 L 30.746094 37.402344 L 30.726562 37.582031 C 30.71875 37.640625 30.722656 37.6875 30.730469 37.722656 C 30.746094 37.765625 30.773438 37.792969 30.816406 37.804688 C 30.84375 37.8125 30.898438 37.804688 30.984375 37.785156 L 30.996094 37.832031 L 30.457031 37.992188 L 30.445312 37.949219 C 30.5 37.921875 30.539062 37.882812 30.566406 37.832031 C 30.59375 37.78125 30.613281 37.6875 30.632812 37.546875 L 30.824219 36.074219 L 30.847656 36.070312 L 31.832031 37.226562 C 31.925781 37.335938 31.996094 37.402344 32.042969 37.421875 C 32.074219 37.441406 32.117188 37.441406 32.167969 37.433594 L 32.183594 37.476562 L 31.398438 37.710938 L 31.382812 37.667969 L 31.414062 37.65625 C 31.480469 37.636719 31.519531 37.617188 31.539062 37.589844 C 31.554688 37.574219 31.558594 37.550781 31.550781 37.527344 C 31.546875 37.515625 31.539062 37.5 31.53125 37.484375 C 31.527344 37.480469 31.503906 37.453125 31.46875 37.40625 L 31.320312 37.230469 M 31.253906 37.152344 L 30.84375 36.667969 L 30.761719 37.300781 L 31.253906 37.152344 M 33.417969 34.945312 L 33.636719 35.351562 L 33.597656 35.371094 C 33.523438 35.292969 33.460938 35.238281 33.410156 35.214844 C 33.359375 35.1875 33.304688 35.175781 33.242188 35.179688 C 33.207031 35.179688 33.152344 35.199219 33.082031 35.238281 L 32.972656 35.296875 L 33.59375 36.449219 C 33.632812 36.527344 33.664062 36.570312 33.679688 36.585938 C 33.699219 36.601562 33.726562 36.609375 33.757812 36.609375 C 33.789062 36.609375 33.828125 36.597656 33.871094 36.578125 L 33.917969 36.550781 L 33.941406 36.589844 L 33.160156 37.011719 L 33.136719 36.96875 L 33.1875 36.941406 C 33.230469 36.921875 33.261719 36.894531 33.28125 36.863281 C 33.292969 36.84375 33.300781 36.816406 33.296875 36.785156 C 33.296875 36.765625 33.273438 36.714844 33.234375 36.640625 L 32.613281 35.488281 L 32.507812 35.546875 C 32.40625 35.601562 32.34375 35.664062 32.320312 35.730469 C 32.289062 35.824219 32.296875 35.929688 32.335938 36.050781 L 32.296875 36.070312 L 32.078125 35.667969 L 33.417969 34.945312 M 34.4375 34.34375 L 34.851562 34.894531 L 34.878906 34.875 C 34.964844 34.808594 35.007812 34.734375 35.003906 34.652344 C 35.003906 34.570312 34.96875 34.472656 34.898438 34.359375 L 34.9375 34.328125 L 35.472656 35.039062 L 35.433594 35.066406 C 35.367188 34.996094 35.300781 34.945312 35.238281 34.914062 C 35.175781 34.886719 35.121094 34.875 35.074219 34.882812 C 35.027344 34.890625 34.972656 34.921875 34.910156 34.96875 L 35.195312 35.351562 C 35.253906 35.425781 35.289062 35.46875 35.308594 35.480469 C 35.328125 35.492188 35.347656 35.496094 35.375 35.496094 C 35.398438 35.492188 35.433594 35.476562 35.472656 35.445312 L 35.550781 35.386719 C 35.679688 35.289062 35.757812 35.183594 35.789062 35.070312 C 35.820312 34.953125 35.808594 34.824219 35.75 34.679688 L 35.789062 34.648438 L 36.050781 35.125 L 34.882812 36.007812 L 34.855469 35.972656 L 34.898438 35.9375 C 34.9375 35.90625 34.964844 35.878906 34.980469 35.84375 C 34.988281 35.824219 34.988281 35.796875 34.980469 35.765625 C 34.976562 35.746094 34.949219 35.699219 34.898438 35.632812 L 34.226562 34.742188 C 34.179688 34.679688 34.152344 34.644531 34.136719 34.632812 C 34.113281 34.617188 34.085938 34.605469 34.058594 34.609375 C 34.019531 34.609375 33.976562 34.625 33.933594 34.65625 L 33.890625 34.691406 L 33.863281 34.65625 L 34.996094 33.800781 L 35.296875 34.199219 L 35.257812 34.230469 C 35.164062 34.144531 35.085938 34.097656 35.019531 34.082031 C 34.949219 34.0625 34.878906 34.070312 34.800781 34.097656 C 34.753906 34.113281 34.679688 34.160156 34.574219 34.238281 L 34.4375 34.34375 "/>
</g>
</svg>
