<?xml version="1.0" encoding="UTF-8"?>
<svg xmlns="http://www.w3.org/2000/svg" xmlns:xlink="http://www.w3.org/1999/xlink" width="40px" height="40px" viewBox="0 0 40 40" version="1.1">
<g id="surface1">
<path style=" stroke:none;fill-rule:evenodd;fill:rgb(0%,0%,0%);fill-opacity:1;" d="M 0 0 L 27.140625 17.140625 L 60 17.140625 L 60 22.855469 L 27.140625 22.855469 L 0 40 Z M 0 0 "/>
<path style=" stroke:none;fill-rule:evenodd;fill:rgb(100%,100%,0%);fill-opacity:1;" d="M 0 38.570312 L 27.714844 20.855469 L 60 20.855469 L 60 19.144531 L 27.714844 19.144531 L 0 1.429688 L 0 4 L 26 20 L 0 36 Z M 0 38.570312 "/>
<path style=" stroke:none;fill-rule:evenodd;fill:rgb(25.098041%,66.666669%,25.098041%);fill-opacity:1;" d="M 0 40 L 27.714844 22.285156 L 60 22.285156 L 60 40 Z M 0 40 "/>
<path style=" stroke:none;fill-rule:evenodd;fill:rgb(80.784315%,0%,0%);fill-opacity:1;" d="M 0 0 L 27.714844 17.714844 L 60 17.714844 L 60 0 Z M 0 0 "/>
<path style=" stroke:none;fill-rule:evenodd;fill:rgb(100%,100%,0%);fill-opacity:1;" d="M 7.484375 20.828125 C 7.582031 20.851562 7.605469 20.878906 7.699219 20.738281 C 7.722656 20.667969 7.78125 20.570312 7.832031 20.484375 C 7.902344 20.371094 7.933594 20.324219 7.996094 20.410156 C 8.039062 20.460938 8.207031 20.371094 8.277344 20.417969 C 8.386719 20.488281 8.320312 20.480469 8.410156 20.402344 C 8.476562 20.257812 8.417969 20.273438 8.320312 20.207031 C 8.253906 20.164062 8.082031 20.257812 8.015625 20.210938 C 8.039062 20.066406 8.085938 20.050781 8.167969 20.023438 C 8.230469 20.066406 8.414062 19.992188 8.46875 19.992188 C 8.550781 20.007812 8.621094 20.015625 8.644531 19.898438 C 8.6875 19.816406 8.667969 19.875 8.636719 19.8125 C 8.570312 19.769531 8.398438 19.863281 8.332031 19.816406 C 8.246094 19.75 8.257812 19.726562 8.308594 19.617188 C 8.378906 19.578125 8.429688 19.597656 8.511719 19.648438 C 8.597656 19.707031 8.734375 19.59375 8.8125 19.589844 C 8.878906 19.511719 8.960938 19.484375 8.910156 19.390625 C 8.882812 19.316406 8.859375 19.308594 8.765625 19.292969 C 8.671875 19.226562 8.546875 19.347656 8.507812 19.246094 C 8.585938 19.140625 8.613281 19.160156 8.707031 19.222656 C 8.765625 19.242188 8.945312 19.136719 9 19.132812 C 9.085938 19.109375 9.046875 19.207031 9.105469 18.992188 C 9.085938 18.902344 8.929688 19.050781 8.84375 19.027344 C 8.761719 19.035156 8.695312 19.007812 8.6875 18.917969 C 8.6875 18.796875 8.746094 18.789062 8.832031 18.804688 C 8.910156 18.820312 9.078125 18.726562 9.144531 18.726562 C 9.234375 18.773438 9.261719 18.757812 9.332031 18.644531 C 9.386719 18.511719 9.328125 18.566406 9.238281 18.5 C 9.171875 18.453125 9 18.546875 8.933594 18.503906 C 8.945312 18.453125 8.964844 18.394531 9.011719 18.371094 C 9.078125 18.382812 9.132812 18.378906 9.21875 18.433594 C 9.300781 18.46875 9.433594 18.308594 9.503906 18.257812 C 9.492188 18.179688 9.355469 18.289062 9.277344 18.234375 C 9.222656 18.199219 9.160156 18.160156 9.144531 18.117188 C 9.191406 17.984375 9.167969 17.988281 9.292969 18.03125 C 9.359375 18.015625 9.476562 18.015625 9.398438 17.890625 C 9.386719 17.871094 9.320312 17.878906 9.261719 17.851562 C 9.191406 17.800781 9.121094 17.753906 9.046875 17.730469 C 8.996094 17.722656 8.917969 17.707031 8.875 17.71875 C 8.871094 17.796875 8.890625 17.847656 8.882812 17.9375 C 8.917969 17.996094 8.984375 17.996094 9 18.015625 C 8.929688 18.078125 8.890625 18.046875 8.816406 18.050781 C 8.730469 17.992188 8.78125 17.800781 8.675781 17.847656 C 8.699219 17.902344 8.691406 18.109375 8.734375 18.152344 C 8.78125 18.1875 8.84375 18.21875 8.851562 18.261719 C 8.777344 18.378906 8.75 18.371094 8.660156 18.316406 C 8.585938 18.261719 8.609375 18.09375 8.542969 18.101562 C 8.464844 18.164062 8.464844 18.160156 8.480469 18.242188 C 8.484375 18.355469 8.4375 18.507812 8.527344 18.570312 C 8.636719 18.644531 8.648438 18.636719 8.5625 18.78125 C 8.507812 18.851562 8.472656 18.839844 8.40625 18.804688 C 8.335938 18.757812 8.351562 18.578125 8.296875 18.515625 C 8.191406 18.453125 8.253906 18.457031 8.164062 18.535156 C 8.136719 18.632812 8.15625 18.65625 8.203125 18.746094 C 8.238281 18.796875 8.234375 18.984375 8.296875 18.996094 C 8.394531 19.050781 8.394531 19.039062 8.285156 19.148438 C 8.199219 19.152344 8.160156 19.175781 8.09375 19.09375 C 8.011719 19.035156 8.0625 18.84375 7.960938 18.84375 C 7.863281 18.851562 7.84375 18.855469 7.855469 18.984375 C 7.871094 19.101562 7.828125 19.28125 7.921875 19.347656 C 8.007812 19.390625 8.0625 19.386719 8.089844 19.4375 C 8.0625 19.460938 8.011719 19.535156 7.984375 19.550781 C 7.921875 19.554688 7.859375 19.515625 7.792969 19.5 C 7.710938 19.460938 7.746094 19.390625 7.683594 19.34375 C 7.605469 19.367188 7.605469 19.261719 7.566406 19.371094 C 7.582031 19.457031 7.550781 19.574219 7.632812 19.628906 C 7.699219 19.675781 7.757812 19.769531 7.828125 19.816406 C 7.902344 19.90625 7.871094 19.921875 7.824219 20.054688 C 7.761719 20.054688 7.6875 20.011719 7.617188 19.964844 C 7.550781 19.917969 7.5625 19.738281 7.492188 19.695312 C 7.4375 19.636719 7.453125 19.585938 7.363281 19.710938 C 7.355469 19.796875 7.371094 19.800781 7.394531 19.863281 C 7.394531 19.953125 7.371094 20.113281 7.453125 20.171875 C 7.535156 20.1875 7.625 20.230469 7.6875 20.25 C 7.75 20.324219 7.695312 20.308594 7.625 20.421875 C 7.582031 20.535156 7.582031 20.554688 7.515625 20.609375 C 7.453125 20.691406 7.429688 20.726562 7.484375 20.828125 Z M 7.484375 20.828125 "/>
<path style=" stroke:none;fill-rule:evenodd;fill:rgb(100%,100%,0%);fill-opacity:1;" d="M 9.445312 20.925781 C 9.503906 20.832031 9.539062 20.816406 9.449219 20.660156 C 9.394531 20.609375 9.328125 20.507812 9.269531 20.417969 C 9.191406 20.300781 9.160156 20.25 9.265625 20.214844 C 9.328125 20.1875 9.3125 19.972656 9.382812 19.917969 C 9.492188 19.832031 9.457031 19.898438 9.421875 19.773438 C 9.316406 19.644531 9.308594 19.714844 9.207031 19.789062 C 9.140625 19.84375 9.160156 20.0625 9.089844 20.113281 C 8.96875 20.03125 8.972656 19.976562 8.976562 19.878906 C 9.042969 19.828125 9.046875 19.605469 9.070312 19.542969 C 9.117188 19.464844 9.152344 19.394531 9.054688 19.320312 C 8.996094 19.246094 9.039062 19.285156 8.972656 19.296875 C 8.902344 19.347656 8.921875 19.570312 8.855469 19.621094 C 8.757812 19.6875 8.742188 19.664062 8.660156 19.5625 C 8.652344 19.476562 8.691406 19.429688 8.773438 19.363281 C 8.859375 19.292969 8.808594 19.101562 8.835938 19.019531 C 8.792969 18.917969 8.800781 18.820312 8.691406 18.835938 C 8.613281 18.839844 8.597656 18.859375 8.542969 18.949219 C 8.445312 19.027344 8.507812 19.207031 8.402344 19.207031 C 8.332031 19.082031 8.363281 19.0625 8.457031 18.988281 C 8.5 18.933594 8.472656 18.699219 8.492188 18.636719 C 8.503906 18.535156 8.578125 18.617188 8.40625 18.46875 C 8.3125 18.457031 8.386719 18.679688 8.332031 18.761719 C 8.308594 18.855469 8.253906 18.914062 8.167969 18.886719 C 8.058594 18.835938 8.074219 18.769531 8.125 18.683594 C 8.167969 18.609375 8.148438 18.390625 8.175781 18.324219 C 8.257812 18.246094 8.25 18.210938 8.175781 18.089844 C 8.074219 17.980469 8.101562 18.0625 8.003906 18.132812 C 7.9375 18.183594 7.957031 18.40625 7.886719 18.457031 C 7.847656 18.425781 7.800781 18.378906 7.796875 18.320312 C 7.835938 18.257812 7.855469 18.195312 7.933594 18.128906 C 8 18.054688 7.910156 17.847656 7.886719 17.753906 C 7.8125 17.738281 7.859375 17.921875 7.773438 17.984375 C 7.722656 18.027344 7.664062 18.082031 7.613281 18.078125 C 7.511719 17.976562 7.507812 18.003906 7.597656 17.886719 C 7.609375 17.808594 7.65625 17.6875 7.511719 17.71875 C 7.488281 17.726562 7.46875 17.796875 7.417969 17.847656 C 7.347656 17.90625 7.273438 17.957031 7.222656 18.027344 C 7.195312 18.082031 7.148438 18.15625 7.144531 18.207031 C 7.210938 18.242188 7.265625 18.242188 7.347656 18.28125 C 7.414062 18.269531 7.441406 18.199219 7.46875 18.191406 C 7.496094 18.292969 7.453125 18.320312 7.425781 18.398438 C 7.335938 18.46875 7.183594 18.339844 7.183594 18.46875 C 7.242188 18.464844 7.429688 18.558594 7.488281 18.527344 C 7.535156 18.492188 7.589844 18.441406 7.632812 18.445312 C 7.710938 18.570312 7.691406 18.597656 7.605469 18.671875 C 7.527344 18.730469 7.382812 18.640625 7.363281 18.710938 C 7.386719 18.820312 7.382812 18.820312 7.46875 18.835938 C 7.570312 18.875 7.695312 18.984375 7.789062 18.914062 C 7.898438 18.832031 7.894531 18.8125 7.996094 18.960938 C 8.035156 19.050781 8.011719 19.078125 7.957031 19.136719 C 7.882812 19.191406 7.722656 19.105469 7.648438 19.140625 C 7.546875 19.226562 7.574219 19.164062 7.609375 19.285156 C 7.6875 19.351562 7.71875 19.34375 7.816406 19.332031 C 7.882812 19.316406 8.050781 19.390625 8.085938 19.332031 C 8.175781 19.25 8.164062 19.242188 8.21875 19.402344 C 8.1875 19.496094 8.195312 19.546875 8.097656 19.585938 C 8.007812 19.648438 7.855469 19.519531 7.8125 19.628906 C 7.78125 19.730469 7.777344 19.753906 7.902344 19.792969 C 8.011719 19.824219 8.160156 19.941406 8.261719 19.871094 C 8.332031 19.792969 8.351562 19.738281 8.410156 19.726562 C 8.421875 19.765625 8.46875 19.847656 8.472656 19.886719 C 8.453125 19.949219 8.386719 20 8.347656 20.066406 C 8.28125 20.140625 8.226562 20.070312 8.160156 20.121094 C 8.152344 20.210938 8.054688 20.171875 8.140625 20.257812 C 8.226562 20.277344 8.320312 20.351562 8.402344 20.289062 C 8.472656 20.234375 8.582031 20.210938 8.652344 20.15625 C 8.765625 20.113281 8.769531 20.152344 8.871094 20.253906 C 8.847656 20.324219 8.777344 20.382812 8.703125 20.441406 C 8.636719 20.492188 8.476562 20.410156 8.40625 20.460938 C 8.332031 20.5 8.292969 20.464844 8.371094 20.609375 C 8.445312 20.652344 8.457031 20.636719 8.523438 20.636719 C 8.605469 20.667969 8.746094 20.761719 8.828125 20.695312 C 8.875 20.617188 8.949219 20.539062 8.996094 20.480469 C 9.085938 20.441406 9.054688 20.492188 9.128906 20.613281 C 9.214844 20.703125 9.234375 20.710938 9.257812 20.808594 C 9.304688 20.902344 9.328125 20.941406 9.445312 20.925781 Z M 9.445312 20.925781 "/>
<path style=" stroke:none;fill-rule:evenodd;fill:rgb(100%,100%,0%);fill-opacity:1;" d="M 7.65625 24.570312 C 7.65625 24.15625 7.59375 23.738281 7.65625 23.738281 C 11.3125 23.738281 12.226562 21.246094 12.226562 19.582031 C 12.226562 17.921875 10.957031 16.257812 8.570312 16.257812 C 5.828125 16.257812 4.914062 17.882812 4.914062 19.582031 C 4.914062 21.246094 6.285156 22.492188 7.65625 22.492188 C 9.484375 22.492188 9.941406 22.078125 11.3125 20.414062 C 10.855469 22.492188 8.570312 23.324219 7.65625 23.324219 C 5.828125 23.324219 4 22.078125 4 19.582031 C 4 17.507812 5.371094 15.429688 8.570312 15.429688 C 11.3125 15.429688 13.140625 17.507812 13.140625 19.582031 C 13.140625 22.492188 10.855469 24.570312 7.65625 24.570312 Z M 7.65625 24.570312 "/>
</g>
</svg>
