<?xml version="1.0" encoding="UTF-8"?>
<svg xmlns="http://www.w3.org/2000/svg" xmlns:xlink="http://www.w3.org/1999/xlink" width="40px" height="40px" viewBox="0 0 40 40" version="1.1">
<g id="surface1">
<rect x="0" y="0" width="40" height="40" style="fill:rgb(100%,0%,0%);fill-opacity:1;stroke:none;"/>
<path style=" stroke:none;fill-rule:evenodd;fill:rgb(0%,0%,41.960785%);fill-opacity:1;" d="M 0 -0.078125 L 20 -0.078125 L 20 9.921875 L 0 9.921875 Z M 0 -0.078125 "/>
<path style=" stroke:none;fill-rule:evenodd;fill:rgb(100%,100%,100%);fill-opacity:1;" d="M 10.351562 9.105469 L 9.558594 8.570312 L 8.800781 9.117188 L 9.042969 8.160156 L 8.3125 7.574219 L 9.253906 7.519531 L 9.5625 6.609375 L 9.90625 7.53125 L 10.824219 7.558594 L 10.09375 8.183594 Z M 10.351562 9.105469 "/>
<path style=" stroke:none;fill-rule:evenodd;fill:rgb(100%,100%,100%);fill-opacity:1;" d="M 10.21875 2.757812 L 9.582031 2.347656 L 8.960938 2.753906 L 9.132812 1.992188 L 8.574219 1.496094 L 9.316406 1.433594 L 9.59375 0.722656 L 9.878906 1.445312 L 10.609375 1.5 L 10.042969 2.011719 Z M 10.21875 2.757812 "/>
<path style=" stroke:none;fill-rule:evenodd;fill:rgb(100%,100%,100%);fill-opacity:1;" d="M 7.414062 5.042969 L 6.796875 4.617188 L 6.164062 5.042969 L 6.359375 4.300781 L 5.78125 3.804688 L 6.519531 3.769531 L 6.789062 3.042969 L 7.050781 3.761719 L 7.800781 3.804688 L 7.222656 4.285156 Z M 7.414062 5.042969 "/>
<path style=" stroke:none;fill-rule:evenodd;fill:rgb(100%,100%,100%);fill-opacity:1;" d="M 13.035156 4.53125 L 12.441406 4.148438 L 11.867188 4.535156 L 12.03125 3.832031 L 11.5 3.378906 L 12.195312 3.328125 L 12.445312 2.660156 L 12.707031 3.332031 L 13.390625 3.371094 L 12.859375 3.839844 Z M 13.035156 4.53125 "/>
<path style=" stroke:none;fill-rule:evenodd;fill:rgb(100%,100%,100%);fill-opacity:1;" d="M 11.378906 6.203125 L 10.984375 5.957031 L 10.589844 6.203125 L 10.691406 5.738281 L 10.34375 5.421875 L 10.800781 5.378906 L 10.980469 4.9375 L 11.160156 5.378906 L 11.621094 5.417969 L 11.273438 5.734375 Z M 11.378906 6.203125 "/>
</g>
</svg>
