<?xml version="1.0" encoding="UTF-8"?>
<svg xmlns="http://www.w3.org/2000/svg" xmlns:xlink="http://www.w3.org/1999/xlink" width="40px" height="40px" viewBox="0 0 40 40" version="1.1">
<g id="surface1">
<path style=" stroke:none;fill-rule:evenodd;fill:rgb(0%,0%,0%);fill-opacity:1;" d="M -5.613281 31.859375 L -5.613281 8.152344 L 12.027344 20 Z M -5.613281 31.859375 "/>
<path style=" stroke:none;fill-rule:evenodd;fill:rgb(0%,0%,80.000001%);fill-opacity:1;" d="M 6.425781 40.003906 L 26.230469 26.671875 L 54.386719 26.671875 L 54.386719 40.003906 Z M 6.425781 40.003906 "/>
<path style=" stroke:none;fill-rule:evenodd;fill:rgb(100%,0%,0%);fill-opacity:1;" d="M 5.152344 0 L 54.386719 0 L 54.386719 13.335938 L 26.230469 13.335938 C 26.230469 13.335938 5.414062 -0.132812 5.152344 0 Z M 5.152344 0 "/>
<path style=" stroke:none;fill-rule:evenodd;fill:rgb(100%,80.000001%,0%);fill-opacity:1;" d="M -5.613281 5 L -5.613281 8.152344 L 12.027344 19.996094 L -5.613281 31.855469 L -5.613281 35.007812 L 16.609375 19.996094 Z M -5.613281 5 "/>
<path style=" stroke:none;fill-rule:evenodd;fill:rgb(0%,60.000002%,20%);fill-opacity:1;" d="M -5.613281 5 L -5.613281 0 L 1.796875 0 L 25.339844 15.929688 L 54.386719 15.929688 L 54.386719 24.074219 L 25.339844 24.074219 L 1.796875 40 L -5.613281 40 L -5.613281 35.007812 L 16.609375 19.996094 Z M -5.613281 5 "/>
<path style=" stroke:none;fill-rule:evenodd;fill:rgb(100%,100%,100%);fill-opacity:1;" d="M 1.796875 0 L 6.421875 0 L 26.230469 13.335938 L 54.386719 13.335938 L 54.386719 15.929688 L 25.339844 15.929688 L 1.800781 0 Z M 1.796875 0 "/>
<path style=" stroke:none;fill-rule:evenodd;fill:rgb(100%,100%,100%);fill-opacity:1;" d="M 1.796875 40.003906 L 6.421875 40.003906 L 26.230469 26.671875 L 54.386719 26.671875 L 54.386719 24.078125 L 25.339844 24.078125 L 1.800781 40.003906 Z M 1.796875 40.003906 "/>
</g>
</svg>
