<?xml version="1.0" encoding="UTF-8"?>
<svg xmlns="http://www.w3.org/2000/svg" xmlns:xlink="http://www.w3.org/1999/xlink" width="40px" height="40px" viewBox="0 0 40 40" version="1.1">
<g id="surface1">
<rect x="0" y="0" width="40" height="40" style="fill:rgb(9.803922%,54.11765%,0%);fill-opacity:1;stroke:none;"/>
<path style=" stroke:none;fill-rule:evenodd;fill:rgb(93.725491%,49.019608%,0%);fill-opacity:1;" d="M 32.957031 14.371094 L 40 14.371094 L 40 39.996094 L 32.957031 39.996094 Z M 32.957031 14.371094 "/>
<path style=" stroke:none;fill-rule:evenodd;fill:rgb(0%,0%,0%);fill-opacity:1;" d="M 25.925781 14.359375 L 32.957031 14.359375 L 32.957031 39.988281 L 25.925781 39.988281 Z M 25.925781 14.359375 "/>
<path style=" stroke:none;fill-rule:evenodd;fill:rgb(87.058824%,12.54902%,6.27451%);fill-opacity:1;" d="M 18.746094 14.375 L 25.925781 14.375 L 25.925781 40 L 18.746094 40 Z M 18.746094 14.375 "/>
<path style="fill-rule:evenodd;fill:rgb(93.725491%,49.019608%,0%);fill-opacity:1;stroke-width:1.25;stroke-linecap:butt;stroke-linejoin:round;stroke:rgb(0%,0%,0%);stroke-opacity:1;stroke-miterlimit:4;" d="M 292.609101 63.49972 C 292.609101 63.49972 338.112657 44.036547 342.542207 40.009683 C 344.555639 42.425801 324.287093 66.922553 284.958061 75.915882 C 320.662916 67.526583 351.132849 41.016399 357.374487 41.821772 C 359.186575 42.224458 358.783889 67.727926 276.971448 89.741446 C 333.481764 74.909166 366.367815 47.660724 366.032243 50.680871 C 366.367815 51.217786 360.394635 72.090361 310.864215 88.332044 C 324.689779 85.110553 362.206723 62.291661 361.804037 66.72121 C 363.012096 68.466184 325.495152 116.654316 257.709618 101.016663 C 311.870931 115.043571 346.971757 81.150804 351.938221 81.754834 C 352.944937 81.956177 341.938177 111.419394 273.749958 113.231482 C 306.434665 109.808648 297.038651 113.030139 297.038651 113.030139 C 297.038651 113.030139 277.776821 128.063762 254.488128 117.862375 C 272.743242 122.82884 274.756673 123.030183 275.15936 124.640928 C 273.951301 126.65436 258.917677 129.674508 244.488084 121.822124 C 256.098873 126.65436 266.501603 127.459733 266.702947 129.271821 C 266.501603 129.875851 259.119021 134.104057 252.474696 131.08391 C 245.897486 128.063762 184.890506 90.546819 184.890506 90.546819 L 288.783581 62.090317 Z M 292.609101 63.49972 " transform="matrix(0.0582029,0,0,0.0582029,18.250561,1.429134)"/>
<path style="fill-rule:evenodd;fill:rgb(93.725491%,49.019608%,0%);fill-opacity:1;stroke-width:1.25;stroke-linecap:butt;stroke-linejoin:round;stroke:rgb(0%,0%,0%);stroke-opacity:1;stroke-miterlimit:4;" d="M 170.460912 164.909562 C 161.333355 164.909562 161.064897 173.030403 161.064897 173.030403 C 161.064897 173.030403 160.326639 173.634433 160.863554 177.594182 C 162.340071 174.909606 163.078329 174.037119 163.078329 174.037119 C 164.085045 174.238462 168.313252 175.513636 174.890462 170.278713 C 168.850167 176.587466 172.474344 178.93647 172.474344 178.93647 C 172.474344 178.93647 171.064942 183.902934 175.695834 184.90965 C 174.219318 182.896219 175.091805 181.08413 175.091805 181.08413 C 175.091805 181.08413 181.534786 180.412986 181.1321 172.560603 C 181.333443 179.674728 185.226078 181.419702 185.226078 181.419702 C 185.226078 181.419702 185.226078 185.379451 189.38717 185.715023 C 187.172395 183.701591 187.642196 180.614329 187.642196 180.614329 C 187.642196 180.614329 193.078461 176.65458 188.514683 169.943141 C 191.266373 168.332396 193.548262 163.902846 193.548262 163.902846 C 193.548262 163.902846 189.722742 162.359215 187.977768 161.016928 C 187.172395 159.204839 187.910653 149.607481 187.910653 149.607481 L 185.628764 137.124205 L 179.185783 156.520264 C 179.45424 153.768574 179.588469 164.909562 170.460912 164.909562 Z M 170.460912 164.909562 " transform="matrix(0.0582029,0,0,0.0582029,18.250561,1.429134)"/>
<path style="fill-rule:evenodd;fill:rgb(93.725491%,49.019608%,0%);fill-opacity:1;stroke-width:1.25;stroke-linecap:butt;stroke-linejoin:round;stroke:rgb(0%,0%,0%);stroke-opacity:1;stroke-miterlimit:4;" d="M 215.561782 136.855747 C 215.763125 137.057091 222.40745 144.506788 228.850431 144.104101 C 231.199435 142.09067 223.816852 137.66112 223.816852 136.654404 C 226.434313 139.070522 237.441073 148.533651 244.488084 145.110817 C 247.306888 141.083954 239.454504 141.687983 230.863863 130.882567 C 236.837043 134.842316 251.870667 143.701415 258.917677 140.278581 C 261.937825 137.057091 243.280025 127.057046 237.038386 119.204663 L 220.998047 111.016707 L 199.118756 128.869135 Z M 215.561782 136.855747 " transform="matrix(0.0582029,0,0,0.0582029,18.250561,1.429134)"/>
<path style="fill-rule:evenodd;fill:rgb(93.725491%,49.019608%,0%);fill-opacity:1;stroke-width:1.25;stroke-linecap:round;stroke-linejoin:round;stroke:rgb(0%,0%,0%);stroke-opacity:1;stroke-miterlimit:4;" d="M 190.930801 75.915882 C 190.930801 75.915882 198.313384 71.486332 228.045058 73.701107 C 231.199435 74.103793 248.24649 67.862155 253.682755 66.117181 C 262.340511 64.506435 289.790297 58.46614 297.239994 52.828532 C 302.407802 52.224502 295.830592 62.493004 289.186267 64.909122 C 282.139256 68.063498 256.702903 76.922597 247.64246 75.714538 C 258.514991 75.915882 252.474696 84.774981 234.420925 80.546775 C 243.078682 85.311896 239.857191 86.117269 239.857191 86.117269 C 239.857191 86.117269 224.622224 86.922642 220.595361 83.566922 C 230.796748 87.325328 226.635656 88.73473 226.635656 88.73473 C 226.635656 88.73473 216.165811 89.741446 211.40069 87.526671 C 218.783273 89.741446 214.957752 91.150848 214.957752 91.150848 C 214.957752 91.150848 208.984572 92.157564 203.950992 90.345475 C 198.917413 88.533387 191.333487 75.915882 190.930801 75.915882 Z M 190.930801 75.915882 " transform="matrix(0.0582029,0,0,0.0582029,18.250561,1.429134)"/>
<path style="fill-rule:evenodd;fill:rgb(93.725491%,49.019608%,0%);fill-opacity:1;stroke-width:1.25;stroke-linecap:butt;stroke-linejoin:round;stroke:rgb(0%,0%,0%);stroke-opacity:1;stroke-miterlimit:4;" d="M 202.810048 141.01684 L 203.883878 160.681356 C 203.883878 160.681356 203.346963 161.688072 202.810048 162.224987 C 202.340247 162.829016 188.917369 160.144441 190.729458 170.345828 C 190.729458 174.574034 190.863686 175.647865 193.682491 177.996868 C 192.944233 175.245178 193.21269 173.298861 193.21269 173.298861 C 193.21269 173.298861 196.971096 175.58075 200.662387 169.339112 C 198.112041 175.513636 199.857015 177.661296 200.461044 177.862639 C 201.065074 178.93647 199.454328 183.83582 204.487908 183.768706 C 202.54159 181.956617 203.481192 179.272042 203.481192 179.272042 C 203.481192 179.272042 208.783228 178.399555 206.904026 168.869311 C 208.850343 166.922994 209.588601 168.802197 209.588601 168.802197 C 209.588601 168.802197 210.192631 174.50692 214.823524 173.298861 C 216.90407 174.50692 214.487952 177.594182 214.487952 177.594182 C 214.487952 177.594182 217.843671 177.661296 218.850387 174.842492 C 219.857103 171.956573 220.998047 166.855879 215.494667 164.775333 C 214.823524 162.761902 217.642328 162.560559 217.642328 162.560559 C 217.642328 162.560559 221.199391 163.768618 222.206106 165.513592 C 223.212822 167.258566 222.87725 160.882699 218.514815 160.211555 C 213.145664 160.077326 212.810092 159.003496 212.810092 158.735038 C 212.810092 158.466581 211.87049 144.506788 211.467804 140.479924 Z M 202.810048 141.01684 " transform="matrix(0.0582029,0,0,0.0582029,18.250561,1.429134)"/>
<path style="fill-rule:evenodd;fill:rgb(93.725491%,49.019608%,0%);fill-opacity:1;stroke-width:1.25;stroke-linecap:round;stroke-linejoin:round;stroke:rgb(0%,0%,0%);stroke-opacity:1;stroke-miterlimit:4;" d="M 221.467848 157.728323 C 221.534962 156.855835 212.340291 144.439673 214.689295 142.828928 C 217.038298 143.298729 220.863819 148.936337 223.951081 147.124249 C 223.011479 144.909474 220.259789 146.184648 217.105413 140.547039 C 213.951036 134.171172 213.481236 124.640928 202.407361 114.171084 C 209.588601 125.244958 225.763169 131.687939 226.434313 128.466449 C 227.172571 125.244958 212.206062 113.097253 212.944321 110.14422 C 215.964468 116.184515 230.930977 129.607393 242.004851 128.466449 C 242.74311 125.916102 232.944409 120.681179 230.461176 115.848943 C 223.347051 111.083822 204.487908 94.775025 204.085221 91.016619 C 197.172439 80.949461 192.877118 77.929313 190.930801 76.788369 C 190.125428 75.848767 189.924085 74.97628 189.789856 74.439365 C 185.494535 64.372207 191.199258 61.083602 194.487863 60.613801 C 197.239553 60.278229 197.977812 60.74803 199.991243 59.741314 C 197.64224 58.868827 195.293236 57.99634 193.011347 57.123853 C 196.031494 59.338627 203.749649 57.39231 202.07179 63.768177 C 205.494623 62.493004 212.675863 53.902362 193.883834 51.956045 C 187.776425 44.976148 162.675643 40.88217 156.36689 71.486332 C 156.903805 71.956133 157.172263 72.291705 158.715894 73.499764 C 150.796396 69.674243 129.386906 66.654096 121.668751 65.446037 C 100.86329 59.405742 79.185342 44.909034 77.104796 46.721122 C 74.353106 47.929181 89.722301 62.224546 88.916929 62.560118 C 75.561165 54.774849 63.413461 49.271469 52.071129 44.305004 C 44.084516 41.284857 36.165018 34.372074 35.225417 35.714362 C 32.339498 41.754657 48.044265 57.056738 50.930184 58.868827 C 53.883217 60.546686 76.836339 71.217874 76.500767 71.352103 C 41.869742 55.647336 36.097904 52.761417 34.35293 50.949329 C 31.332782 50.278185 23.883085 40.278141 21.802539 40.88217 C 20.661594 42.023115 22.943484 57.862111 39.453624 64.976236 C 42.138199 66.922553 74.890021 78.667572 74.554449 79.607173 C 74.487335 79.808516 37.10462 64.170863 35.628103 63.633948 C 28.446864 60.815144 19.587764 50.882214 17.909905 52.023159 C 16.366274 53.029875 22.003882 63.701063 29.252236 67.123897 C 33.077757 68.801756 47.775808 76.05011 60.930228 80.681003 C 61.802715 80.949461 37.238849 71.352103 25.426716 66.385638 C 20.057565 63.432605 17.507218 59.741314 16.701846 60.546686 C 15.493786 61.352059 18.648163 77.191055 56.634907 86.117269 C 57.641623 86.519955 69.990671 83.164236 69.386641 83.634036 C 69.185298 83.701151 57.104708 86.385726 55.896649 86.251498 C 54.889933 86.117269 48.245609 87.05687 48.11138 87.392442 C 47.708693 88.466272 50.527498 94.170996 70.1249 92.962937 C 72.608132 92.828708 86.232353 87.996472 85.091408 89.070302 C 84.487379 89.607217 66.567837 95.379055 65.158435 95.513283 C 64.01749 95.714627 57.708738 96.318656 57.44028 96.9898 C 57.171822 97.929401 62.138287 101.956265 72.675246 102.627409 C 82.004147 103.097209 99.655231 96.922686 99.319659 97.325372 C 98.984087 97.728058 82.272604 103.432781 81.802803 103.768353 C 81.198774 104.17104 75.091364 104.506612 74.890021 104.976412 C 74.353106 106.117357 83.682006 114.842228 111.26602 105.513327 C 108.51433 109.271733 95.158567 111.82208 95.158567 112.493224 C 95.091453 112.963025 98.1116 115.916058 102.809607 116.922774 C 105.091497 117.459689 108.312987 117.32546 111.26602 116.922774 C 116.500943 115.848943 122.004323 113.768397 129.051334 107.258302 C 129.923821 109.338848 111.467364 118.600633 112.339851 119.47312 C 116.366714 123.231526 129.588249 119.00332 130.460736 118.533519 C 131.333223 118.063718 156.031318 104.17104 155.897089 102.560294 C 156.299776 104.64084 124.151983 122.090582 124.487555 122.82884 C 126.568101 126.117445 137.507747 122.627497 138.044662 122.359039 C 138.581577 122.023467 152.071569 114.707999 152.474256 114.506656 C 152.809828 114.305312 136.568145 124.036899 138.044662 125.513416 C 137.306404 131.822168 163.413901 121.15098 165.427333 119.808692 C 166.434049 119.137549 152.876942 125.781873 152.876942 128.936249 C 157.239377 136.251718 171.19917 133.969829 173.346831 132.291969 C 174.420661 131.486596 172.071657 137.795349 172.809916 137.258434 C 173.078373 137.124205 175.897178 133.8356 176.903893 131.486596 C 176.568321 133.500028 175.091805 136.788633 174.152203 140.479924 C 173.279716 144.171216 173.011259 148.399422 171.8032 152.896086 C 171.534742 154.842404 180.393842 149.003452 179.118668 135.177888 C 179.856927 142.359127 176.299864 155.84912 177.239465 156.587378 C 179.118668 157.929666 184.286476 149.875939 184.756277 144.372559 C 186.299908 147.124249 189.521399 152.896086 192.273089 154.238374 C 192.004631 150.077282 192.340203 150.278625 191.132144 146.117533 C 191.803288 140.681268 191.937517 133.097342 192.071745 124.573814 C 199.588557 138.936293 202.608705 145.043703 200.528159 156.050463 C 202.742933 156.990064 206.299996 148.399422 206.031538 143.902758 C 208.917457 156.251806 221.266505 158.131009 221.467848 157.728323 Z M 221.467848 157.728323 " transform="matrix(0.0582029,0,0,0.0582029,18.250561,1.429134)"/>
<path style="fill-rule:evenodd;fill:rgb(93.725491%,49.019608%,0%);fill-opacity:1;stroke-width:1.25;stroke-linecap:round;stroke-linejoin:round;stroke:rgb(0%,0%,0%);stroke-opacity:1;stroke-miterlimit:4;" d="M 96.299512 66.318524 C 96.299512 66.318524 91.198818 70.211159 84.822951 70.009815 C 86.366582 76.318568 99.588117 71.486332 99.588117 71.486332 C 99.588117 71.486332 93.21225 78.533343 88.648471 79.674287 C 91.400161 81.889062 102.876722 81.150804 104.823039 80.009859 C 106.769356 78.868915 110.125076 74.439365 110.125076 74.439365 C 110.125076 74.439365 98.312943 88.063586 96.635083 87.929357 C 96.43374 89.540103 109.051246 88.936073 111.668707 86.58707 C 114.219054 84.170952 120.863378 80.681003 120.863378 80.681003 C 120.863378 80.681003 103.547866 92.694479 102.742493 92.694479 C 109.252589 94.439453 122.205666 90.681047 130.52785 85.580354 C 118.245917 93.768309 117.104972 95.244826 110.863334 97.929401 C 116.433828 99.204575 119.252633 102.962981 138.111776 94.775025 C 148.917193 89.674331 155.091717 80.345431 155.091717 80.345431 C 148.380278 89.271645 137.776204 96.922686 126.098301 104.439497 C 125.360042 105.781785 138.581577 111.352279 155.427289 93.835424 " transform="matrix(0.0582029,0,0,0.0582029,18.250561,1.429134)"/>
<path style="fill-rule:evenodd;fill:rgb(93.725491%,49.019608%,0%);fill-opacity:1;stroke-width:1.25;stroke-linecap:round;stroke-linejoin:miter;stroke:rgb(0%,0%,0%);stroke-opacity:1;stroke-miterlimit:4;" d="M 187.70931 104.305268 C 187.70931 104.305268 188.850255 109.67442 193.346919 113.768397 C 197.910697 117.862375 198.246269 121.822124 198.246269 121.822124 " transform="matrix(0.0582029,0,0,0.0582029,18.250561,1.429134)"/>
<path style="fill-rule:evenodd;fill:rgb(93.725491%,49.019608%,0%);fill-opacity:1;stroke-width:1.25;stroke-linecap:round;stroke-linejoin:miter;stroke:rgb(0%,0%,0%);stroke-opacity:1;stroke-miterlimit:4;" d="M 185.427421 69.540015 C 185.427421 69.540015 187.038166 74.305136 191.669059 77.392398 C 196.434181 80.412546 203.61542 90.077018 204.152336 91.821992 C 204.756365 93.902538 207.440941 108.734818 207.239598 110.345563 " transform="matrix(0.0582029,0,0,0.0582029,18.250561,1.429134)"/>
<path style="fill-rule:evenodd;fill:rgb(93.725491%,49.019608%,0%);fill-opacity:1;stroke-width:1.25;stroke-linecap:round;stroke-linejoin:miter;stroke:rgb(0%,0%,0%);stroke-opacity:1;stroke-miterlimit:4;" d="M 156.434005 76.922597 C 156.769577 78.734686 149.722566 87.929357 159.387038 98.734774 C 150.662167 109.405962 150.662167 110.815364 150.662167 110.815364 C 150.662167 110.815364 155.494403 113.49994 164.286388 105.983128 C 178.715982 123.768441 173.883746 131.889283 173.883746 131.889283 " transform="matrix(0.0582029,0,0,0.0582029,18.250561,1.429134)"/>
<path style="fill-rule:evenodd;fill:rgb(93.725491%,49.019608%,0%);fill-opacity:1;stroke-width:1.25;stroke-linecap:round;stroke-linejoin:round;stroke:rgb(0%,0%,0%);stroke-opacity:1;stroke-miterlimit:4;" d="M 172.742801 119.338892 C 172.742801 119.338892 171.400513 117.459689 173.816631 110.345563 C 175.897178 112.89591 178.313296 113.432825 179.320011 114.506656 C 180.393842 115.513371 191.266373 117.124117 192.004631 124.372471 " transform="matrix(0.0582029,0,0,0.0582029,18.250561,1.429134)"/>
<path style="fill-rule:evenodd;fill:rgb(93.725491%,49.019608%,0%);fill-opacity:1;stroke-width:1.25;stroke-linecap:butt;stroke-linejoin:miter;stroke:rgb(0%,0%,0%);stroke-opacity:1;stroke-miterlimit:4;" d="M 185.56165 52.560074 C 185.56165 52.023159 183.346875 47.325152 175.158919 53.231218 C 179.588469 53.499676 183.88379 55.982908 185.56165 52.560074 Z M 185.56165 52.560074 " transform="matrix(0.0582029,0,0,0.0582029,18.250561,1.429134)"/>
<path style="fill-rule:evenodd;fill:rgb(93.725491%,49.019608%,0%);fill-opacity:1;stroke-width:1.25;stroke-linecap:butt;stroke-linejoin:round;stroke:rgb(0%,0%,0%);stroke-opacity:1;stroke-miterlimit:4;" d="M 263.749914 74.103793 C 264.1526 74.305136 288.179551 79.540059 296.233278 76.922597 C 285.964776 90.546819 265.494888 81.352147 265.494888 81.352147 C 275.562046 84.372295 275.964732 84.170952 279.186223 86.922642 C 280.192939 89.540103 260.729766 88.332044 254.286785 84.707867 C 272.139212 90.345475 272.541899 89.942789 273.145928 92.157564 C 273.951301 95.177711 243.884054 91.352191 241.266593 87.325328 C 249.253205 93.566966 253.682755 94.775025 258.112305 97.593829 C 252.676039 100.009947 242.675995 102.358951 224.219538 89.33876 C 248.447833 111.419394 270.327124 110.009992 273.749958 114.036855 C 265.293544 126.453017 232.608837 106.587158 217.575213 96.587114 C 202.54159 86.519955 250.461264 120.815408 254.890814 120.211379 C 252.676039 123.634213 236.837043 120.614065 235.830327 119.00332 " transform="matrix(0.0582029,0,0,0.0582029,18.250561,1.429134)"/>
<path style="fill-rule:evenodd;fill:rgb(93.725491%,49.019608%,0%);fill-opacity:1;stroke-width:1.25;stroke-linecap:round;stroke-linejoin:miter;stroke:rgb(0%,0%,0%);stroke-opacity:1;stroke-miterlimit:4;" d="M 269.924437 97.191143 C 267.105633 97.593829 258.716334 97.593829 257.508275 97.392486 " transform="matrix(0.0582029,0,0,0.0582029,18.250561,1.429134)"/>
<path style="fill-rule:evenodd;fill:rgb(93.725491%,49.019608%,0%);fill-opacity:1;stroke-width:1.25;stroke-linecap:round;stroke-linejoin:round;stroke:rgb(0%,0%,0%);stroke-opacity:1;stroke-miterlimit:4;" d="M 89.252501 62.694347 C 89.252501 62.694347 107.574729 72.358819 115.292884 71.687675 C 113.212338 73.633992 110.125076 74.439365 110.125076 74.439365 C 112.071393 75.177623 117.440544 78.063542 125.494271 76.251454 C 123.547954 78.197771 121.064721 80.345431 121.064721 80.345431 C 121.064721 80.345431 127.977503 82.962893 135.829887 78.868915 C 133.480883 81.821948 132.071481 83.969608 132.071481 83.969608 L 137.574861 84.30518 " transform="matrix(0.0582029,0,0,0.0582029,18.250561,1.429134)"/>
</g>
</svg>
