<?xml version="1.0" encoding="UTF-8"?>
<svg xmlns="http://www.w3.org/2000/svg" xmlns:xlink="http://www.w3.org/1999/xlink" width="40px" height="40px" viewBox="0 0 40 40" version="1.1">
<g id="surface1">
<path style=" stroke:none;fill-rule:evenodd;fill:rgb(19.215687%,57.254905%,3.137255%);fill-opacity:1;" d="M 0 34.285156 L 80 34.285156 L 80 40 L 0 40 Z M 0 34.285156 "/>
<path style=" stroke:none;fill-rule:evenodd;fill:rgb(87.058824%,12.54902%,6.27451%);fill-opacity:1;" d="M 0 22.855469 L 80 22.855469 L 80 28.570312 L 0 28.570312 Z M 0 22.855469 "/>
<path style=" stroke:none;fill-rule:evenodd;fill:rgb(100%,82.352942%,0%);fill-opacity:1;" d="M 0 28.570312 L 80 28.570312 L 80 34.285156 L 0 34.285156 Z M 0 28.570312 "/>
<path style=" stroke:none;fill-rule:evenodd;fill:rgb(87.058824%,12.54902%,6.27451%);fill-opacity:1;" d="M 0 11.429688 L 80 11.429688 L 80 17.140625 L 0 17.140625 Z M 0 11.429688 "/>
<path style=" stroke:none;fill-rule:evenodd;fill:rgb(100%,82.352942%,0%);fill-opacity:1;" d="M 0 5.714844 L 80 5.714844 L 80 11.429688 L 0 11.429688 Z M 0 5.714844 "/>
<path style=" stroke:none;fill-rule:evenodd;fill:rgb(19.215687%,57.254905%,3.137255%);fill-opacity:1;" d="M 0 0 L 80 0 L 80 5.714844 L 0 5.714844 Z M 0 0 "/>
<path style=" stroke:none;fill-rule:evenodd;fill:rgb(0%,0%,0%);fill-opacity:1;" d="M 2.257812 0 L 2.257812 40 L 29.113281 20 Z M 2.257812 0 "/>
<path style=" stroke:none;fill-rule:evenodd;fill:rgb(0%,0%,0%);fill-opacity:1;" d="M 0 0 L 2.285156 0 L 2.285156 40 L 0 40 Z M 0 0 "/>
<path style=" stroke:none;fill-rule:evenodd;fill:rgb(0%,0%,0%);fill-opacity:1;" d="M 0 0 L 0 40 L 29.140625 20 Z M 0 0 "/>
<path style=" stroke:none;fill-rule:evenodd;fill:rgb(0%,0%,0%);fill-opacity:1;" d="M 0 17.140625 L 80 17.140625 L 80 22.855469 L 0 22.855469 Z M 0 17.140625 "/>
<path style=" stroke:none;fill-rule:evenodd;fill:rgb(100%,100%,100%);fill-opacity:1;" d="M 0 0 L 0 40 L 26.855469 20 Z M 0 0 "/>
<path style=" stroke:none;fill-rule:evenodd;fill:rgb(83.92157%,14.117648%,9.803922%);fill-opacity:1;" d="M 10.308594 8.957031 L 12.441406 16.019531 L 20.050781 16.085938 L 13.996094 20.292969 L 16.28125 27.550781 L 10.410156 23.089844 L 4.214844 27.507812 L 6.640625 20.546875 L 0.523438 16.019531 L 7.898438 16.175781 Z M 10.308594 8.957031 "/>
<path style="fill-rule:evenodd;fill:rgb(96.862745%,87.450981%,0%);fill-opacity:1;stroke-width:1.25;stroke-linecap:butt;stroke-linejoin:miter;stroke:rgb(0%,0%,0%);stroke-opacity:1;stroke-miterlimit:4;" d="M 542.723376 175.723038 C 544.322058 172.816343 544.661173 171.21766 552.993699 167.681181 C 563.942251 135.852869 591.89497 148.400103 607.300454 192.38809 C 621.446371 198.49215 705.982756 261.470546 704.674743 265.007025 C 704.044959 268.252835 693.435522 265.685254 693.435522 265.685254 C 693.435522 265.685254 676.722024 336.996176 676.38291 336.996176 C 645.232826 332.829913 596.691017 332.200129 563.603136 332.829913 C 563.942251 327.355637 554.592381 291.700176 554.592381 291.700176 C 554.592381 291.700176 546.598969 289.132595 560.066657 261.80966 C 574.551688 227.413767 577.409938 171.50833 542.723376 175.723038 Z M 542.723376 175.723038 " transform="matrix(0.0806328,0,0,0.0806328,-39.851154,-1.180761)"/>
<path style="fill:none;stroke-width:1.25;stroke-linecap:butt;stroke-linejoin:miter;stroke:rgb(0%,0%,0%);stroke-opacity:1;stroke-miterlimit:4;" d="M 571.305879 162.836689 C 571.305879 164.774486 569.755641 166.373168 567.769399 166.373168 C 565.831603 166.373168 564.23292 164.774486 564.23292 162.836689 C 564.23292 160.898892 565.831603 159.30021 567.769399 159.30021 C 569.755641 159.30021 571.305879 160.898892 571.305879 162.836689 Z M 571.305879 162.836689 " transform="matrix(0.0806328,0,0,0.0806328,-39.851154,-1.180761)"/>
<path style="fill:none;stroke-width:1.25;stroke-linecap:butt;stroke-linejoin:miter;stroke:rgb(0%,0%,0%);stroke-opacity:1;stroke-miterlimit:4;" d="M 606.331556 192.38809 C 606.331556 192.38809 578.717951 208.132689 570.676095 207.84202 " transform="matrix(0.0806328,0,0,0.0806328,-39.851154,-1.180761)"/>
<path style="fill:none;stroke-width:1.25;stroke-linecap:butt;stroke-linejoin:miter;stroke:rgb(0%,0%,0%);stroke-opacity:1;stroke-miterlimit:4;" d="M 693.435522 265.685254 C 691.497725 264.086572 590.926071 259.24208 595.092334 225.185301 " transform="matrix(0.0806328,0,0,0.0806328,-39.851154,-1.180761)"/>
<path style="fill:none;stroke-width:1.25;stroke-linecap:butt;stroke-linejoin:miter;stroke:rgb(0%,0%,0%);stroke-opacity:1;stroke-miterlimit:4;" d="M 611.176048 266.315038 C 611.176048 266.315038 622.076155 272.758212 631.426024 256.044715 " transform="matrix(0.0806328,0,0,0.0806328,-39.851154,-1.180761)"/>
<path style="fill:none;stroke-width:1.25;stroke-linecap:butt;stroke-linejoin:miter;stroke:rgb(0%,0%,0%);stroke-opacity:1;stroke-miterlimit:4;" d="M 623.384167 265.975924 C 623.384167 265.975924 631.08691 273.048882 642.326131 257.643397 " transform="matrix(0.0806328,0,0,0.0806328,-39.851154,-1.180761)"/>
<path style="fill:none;stroke-width:1.25;stroke-linecap:butt;stroke-linejoin:miter;stroke:rgb(0%,0%,0%);stroke-opacity:1;stroke-miterlimit:4;" d="M 554.931496 291.700176 C 554.931496 291.700176 562.004454 292.669074 563.312467 288.502811 " transform="matrix(0.0806328,0,0,0.0806328,-39.851154,-1.180761)"/>
<path style="fill:none;stroke-width:1.25;stroke-linecap:butt;stroke-linejoin:miter;stroke:rgb(0%,0%,0%);stroke-opacity:1;stroke-miterlimit:4;" d="M 588.35849 333.169027 C 588.35849 332.829913 581.285532 287.533913 581.285532 287.533913 C 616.214319 290.634388 652.402674 290.828167 686.023449 296.835338 " transform="matrix(0.0806328,0,0,0.0806328,-39.851154,-1.180761)"/>
<path style="fill:none;stroke-width:1.25;stroke-linecap:butt;stroke-linejoin:miter;stroke:rgb(0%,0%,0%);stroke-opacity:1;stroke-miterlimit:4;" d="M 584.822011 288.163697 L 594.46255 299.402918 L 604.442204 289.762379 L 612.77473 298.773134 " transform="matrix(0.0806328,0,0,0.0806328,-39.851154,-1.180761)"/>
<path style="fill:none;stroke-width:1.25;stroke-linecap:butt;stroke-linejoin:miter;stroke:rgb(0%,0%,0%);stroke-opacity:1;stroke-miterlimit:4;" d="M 615.342311 299.112249 L 623.723282 291.700176 L 632.685592 300.371817 " transform="matrix(0.0806328,0,0,0.0806328,-39.851154,-1.180761)"/>
<path style="fill:none;stroke-width:1.25;stroke-linecap:butt;stroke-linejoin:miter;stroke:rgb(0%,0%,0%);stroke-opacity:1;stroke-miterlimit:4;" d="M 634.284274 300.371817 L 643.634144 292.03929 L 650.707102 300.371817 " transform="matrix(0.0806328,0,0,0.0806328,-39.851154,-1.180761)"/>
<path style="fill:none;stroke-width:1.25;stroke-linecap:butt;stroke-linejoin:miter;stroke:rgb(0%,0%,0%);stroke-opacity:1;stroke-miterlimit:4;" d="M 654.534251 300.710931 L 662.915222 294.897541 L 670.27885 301.970499 " transform="matrix(0.0806328,0,0,0.0806328,-39.851154,-1.180761)"/>
<path style="fill:none;stroke-width:1.25;stroke-linecap:butt;stroke-linejoin:miter;stroke:rgb(0%,0%,0%);stroke-opacity:1;stroke-miterlimit:4;" d="M 676.09224 301.67983 L 682.1963 295.866439 " transform="matrix(0.0806328,0,0,0.0806328,-39.851154,-1.180761)"/>
<path style="fill:none;stroke-width:1.25;stroke-linecap:butt;stroke-linejoin:miter;stroke:rgb(0%,0%,0%);stroke-opacity:1;stroke-miterlimit:4;" d="M 583.223329 298.43402 L 593.493652 310.35147 L 603.763975 301.001601 L 612.77473 310.64214 L 623.045053 301.631385 L 631.716694 311.950153 L 642.326131 302.939397 C 642.326131 302.939397 650.367988 312.919051 651.336886 312.919051 C 652.305785 312.919051 661.946324 304.53808 661.946324 304.53808 L 671.247748 314.808403 L 684.085652 304.53808 " transform="matrix(0.0806328,0,0,0.0806328,-39.851154,-1.180761)"/>
<path style="fill:none;stroke-width:1.25;stroke-linecap:butt;stroke-linejoin:miter;stroke:rgb(0%,0%,0%);stroke-opacity:1;stroke-miterlimit:4;" d="M 584.822011 310.012356 C 584.822011 310.012356 667.711269 313.20972 681.227402 316.45553 " transform="matrix(0.0806328,0,0,0.0806328,-39.851154,-1.180761)"/>
<path style="fill:none;stroke-width:1.25;stroke-linecap:butt;stroke-linejoin:miter;stroke:rgb(0%,0%,0%);stroke-opacity:1;stroke-miterlimit:4;" d="M 598.628813 272.419098 C 598.628813 272.419098 677.351808 276.585361 689.899042 281.429853 " transform="matrix(0.0806328,0,0,0.0806328,-39.851154,-1.180761)"/>
<path style="fill:none;stroke-width:1.25;stroke-linecap:butt;stroke-linejoin:miter;stroke:rgb(0%,0%,0%);stroke-opacity:1;stroke-miterlimit:4;" d="M 582.593545 239.621887 C 583.223329 244.466379 577.409938 261.179876 571.305879 266.944822 C 562.973352 273.678666 563.942251 287.824582 563.942251 287.824582 C 564.911149 293.637973 577.409938 292.959744 579.057066 290.101494 C 580.316634 276.924475 594.46255 274.01778 594.46255 274.01778 C 594.46255 274.01778 614.082743 268.543504 622.415269 252.169121 " transform="matrix(0.0806328,0,0,0.0806328,-39.851154,-1.180761)"/>
<path style="fill:none;stroke-width:1.25;stroke-linecap:butt;stroke-linejoin:miter;stroke:rgb(0%,0%,0%);stroke-opacity:1;stroke-miterlimit:4;" d="M 622.076155 281.429853 C 622.076155 283.706764 620.235248 285.596116 617.909891 285.596116 C 615.584535 285.596116 613.743628 283.706764 613.743628 281.429853 C 613.743628 279.104497 615.584535 277.215145 617.909891 277.215145 C 620.235248 277.215145 622.076155 279.104497 622.076155 281.429853 Z M 622.076155 281.429853 " transform="matrix(0.0806328,0,0,0.0806328,-39.851154,-1.180761)"/>
<path style="fill:none;stroke-width:1.25;stroke-linecap:butt;stroke-linejoin:miter;stroke:rgb(0%,0%,0%);stroke-opacity:1;stroke-miterlimit:4;" d="M 640.727449 283.028535 C 640.727449 285.305447 638.838097 287.194798 636.561186 287.194798 C 634.235829 287.194798 632.394923 285.305447 632.394923 283.028535 C 632.394923 280.703179 634.235829 278.862272 636.561186 278.862272 C 638.838097 278.862272 640.727449 280.703179 640.727449 283.028535 Z M 640.727449 283.028535 " transform="matrix(0.0806328,0,0,0.0806328,-39.851154,-1.180761)"/>
</g>
</svg>
